<svg viewBox="0 0 330 200" xmlns="http://www.w3.org/2000/svg"><g><g><g><g><g><line x1="51.41600036621094" y1="177.9749994277954" x2="46.41600036621094" y2="177.9749994277954" style="visibility: inherit;" fill="rgb(0, 0, 0)" stroke="rgb(204, 204, 204)" stroke-width="1px"></line><line x1="51.41600036621094" y1="163.14374947547913" x2="46.41600036621094" y2="163.14374947547913" style="visibility: inherit;" fill="rgb(0, 0, 0)" stroke="rgb(204, 204, 204)" stroke-width="1px"></line><line x1="51.41600036621094" y1="148.31249952316284" x2="46.41600036621094" y2="148.31249952316284" style="visibility: inherit;" fill="rgb(0, 0, 0)" stroke="rgb(204, 204, 204)" stroke-width="1px"></line><line x1="51.41600036621094" y1="133.48124957084656" x2="46.41600036621094" y2="133.48124957084656" style="visibility: inherit;" fill="rgb(0, 0, 0)" stroke="rgb(204, 204, 204)" stroke-width="1px"></line><line x1="51.41600036621094" y1="118.64999961853027" x2="46.41600036621094" y2="118.64999961853027" style="visibility: inherit;" fill="rgb(0, 0, 0)" stroke="rgb(204, 204, 204)" stroke-width="1px"></line><line x1="51.41600036621094" y1="103.81874966621399" x2="46.41600036621094" y2="103.81874966621399" style="visibility: inherit;" fill="rgb(0, 0, 0)" stroke="rgb(204, 204, 204)" stroke-width="1px"></line><line x1="51.41600036621094" y1="88.98749971389772" x2="46.41600036621094" y2="88.98749971389772" style="visibility: inherit;" fill="rgb(0, 0, 0)" stroke="rgb(204, 204, 204)" stroke-width="1px"></line><line x1="51.41600036621094" y1="74.15624976158144" x2="46.41600036621094" y2="74.15624976158144" style="visibility: inherit;" fill="rgb(0, 0, 0)" stroke="rgb(204, 204, 204)" stroke-width="1px"></line><line x1="51.41600036621094" y1="59.324999809265165" x2="46.41600036621094" y2="59.324999809265165" style="visibility: inherit;" fill="rgb(0, 0, 0)" stroke="rgb(204, 204, 204)" stroke-width="1px"></line><line x1="51.41600036621094" y1="44.49374985694888" x2="46.41600036621094" y2="44.49374985694888" style="visibility: inherit;" fill="rgb(0, 0, 0)" stroke="rgb(204, 204, 204)" stroke-width="1px"></line><line x1="51.41600036621094" y1="29.66249990463257" x2="46.41600036621094" y2="29.66249990463257" style="visibility: inherit;" fill="rgb(0, 0, 0)" stroke="rgb(204, 204, 204)" stroke-width="1px"></line><line x1="51.41600036621094" y1="14.831249952316284" x2="46.41600036621094" y2="14.831249952316284" style="visibility: inherit;" fill="rgb(0, 0, 0)" stroke="rgb(204, 204, 204)" stroke-width="1px"></line><line x1="51.41600036621094" y1="0" x2="46.41600036621094" y2="0" style="visibility: inherit;" fill="rgb(0, 0, 0)" stroke="rgb(204, 204, 204)" stroke-width="1px"></line></g><g transform="translate(41.41600036621094, 0)"><text style="text-anchor: end; visibility: hidden; font-family: &quot;Helvetica Neue&quot;, sans-serif; font-size: 12px; font-weight: 200;" x="0" y="177.9749994277954" dx="0em" dy="0.3em" fill="rgb(50, 49, 63)" stroke="none" stroke-width="1px">-0.1</text><text style="text-anchor: end; visibility: inherit; font-family: &quot;Helvetica Neue&quot;, sans-serif; font-size: 12px; font-weight: 200;" x="0" y="163.14374947547913" dx="0em" dy="0.3em" fill="rgb(50, 49, 63)" stroke="none" stroke-width="1px">0</text><text style="text-anchor: end; visibility: hidden; font-family: &quot;Helvetica Neue&quot;, sans-serif; font-size: 12px; font-weight: 200;" x="0" y="148.31249952316284" dx="0em" dy="0.3em" fill="rgb(50, 49, 63)" stroke="none" stroke-width="1px">0.1</text><text style="text-anchor: end; visibility: inherit; font-family: &quot;Helvetica Neue&quot;, sans-serif; font-size: 12px; font-weight: 200;" x="0" y="133.48124957084656" dx="0em" dy="0.3em" fill="rgb(50, 49, 63)" stroke="none" stroke-width="1px">0.2</text><text style="text-anchor: end; visibility: hidden; font-family: &quot;Helvetica Neue&quot;, sans-serif; font-size: 12px; font-weight: 200;" x="0" y="118.64999961853027" dx="0em" dy="0.3em" fill="rgb(50, 49, 63)" stroke="none" stroke-width="1px">0.3</text><text style="text-anchor: end; visibility: inherit; font-family: &quot;Helvetica Neue&quot;, sans-serif; font-size: 12px; font-weight: 200;" x="0" y="103.81874966621399" dx="0em" dy="0.3em" fill="rgb(50, 49, 63)" stroke="none" stroke-width="1px">0.4</text><text style="text-anchor: end; visibility: hidden; font-family: &quot;Helvetica Neue&quot;, sans-serif; font-size: 12px; font-weight: 200;" x="0" y="88.98749971389772" dx="0em" dy="0.3em" fill="rgb(50, 49, 63)" stroke="none" stroke-width="1px">0.5</text><text style="text-anchor: end; visibility: inherit; font-family: &quot;Helvetica Neue&quot;, sans-serif; font-size: 12px; font-weight: 200;" x="0" y="74.15624976158144" dx="0em" dy="0.3em" fill="rgb(50, 49, 63)" stroke="none" stroke-width="1px">0.6</text><text style="text-anchor: end; visibility: hidden; font-family: &quot;Helvetica Neue&quot;, sans-serif; font-size: 12px; font-weight: 200;" x="0" y="59.324999809265165" dx="0em" dy="0.3em" fill="rgb(50, 49, 63)" stroke="none" stroke-width="1px">0.7</text><text style="text-anchor: end; visibility: inherit; font-family: &quot;Helvetica Neue&quot;, sans-serif; font-size: 12px; font-weight: 200;" x="0" y="44.49374985694888" dx="0em" dy="0.3em" fill="rgb(50, 49, 63)" stroke="none" stroke-width="1px">0.8</text><text style="text-anchor: end; visibility: hidden; font-family: &quot;Helvetica Neue&quot;, sans-serif; font-size: 12px; font-weight: 200;" x="0" y="29.66249990463257" dx="0em" dy="0.3em" fill="rgb(50, 49, 63)" stroke="none" stroke-width="1px">0.9</text><text style="text-anchor: end; visibility: inherit; font-family: &quot;Helvetica Neue&quot;, sans-serif; font-size: 12px; font-weight: 200;" x="0" y="14.831249952316284" dx="0em" dy="0.3em" fill="rgb(50, 49, 63)" stroke="none" stroke-width="1px">1</text><text style="text-anchor: end; visibility: hidden; font-family: &quot;Helvetica Neue&quot;, sans-serif; font-size: 12px; font-weight: 200;" x="0" y="0" dx="0em" dy="0.3em" fill="rgb(50, 49, 63)" stroke="none" stroke-width="1px">1.1</text></g><line x1="51.41600036621094" y1="0" x2="51.41600036621094" y2="177.9749994277954" fill="rgb(0, 0, 0)" stroke="rgb(204, 204, 204)" stroke-width="1px"></line></g></g><g transform="translate(51, 0)" clip-path="url(#clip_0)"><clipPath id="clip_0"><rect width="278" height="177"></rect></clipPath><g><g><g><line x1="0" y1="0" x2="0" y2="177.9749994277954" fill="rgb(0, 0, 0)" stroke="rgb(60, 60, 60)" stroke-width="1px" opacity="0.25"></line><line x1="23.215333302815754" y1="0" x2="23.215333302815754" y2="177.9749994277954" fill="rgb(0, 0, 0)" stroke="rgb(60, 60, 60)" stroke-width="1px" opacity="0.25"></line><line x1="46.43066660563151" y1="0" x2="46.43066660563151" y2="177.9749994277954" fill="rgb(0, 0, 0)" stroke="rgb(60, 60, 60)" stroke-width="1px" opacity="0.25"></line><line x1="69.64599990844727" y1="0" x2="69.64599990844727" y2="177.9749994277954" fill="rgb(0, 0, 0)" stroke="rgb(60, 60, 60)" stroke-width="1px" opacity="0.25"></line><line x1="92.86133321126302" y1="0" x2="92.86133321126302" y2="177.9749994277954" fill="rgb(0, 0, 0)" stroke="rgb(60, 60, 60)" stroke-width="1px" opacity="0.25"></line><line x1="116.07666651407878" y1="0" x2="116.07666651407878" y2="177.9749994277954" fill="rgb(0, 0, 0)" stroke="rgb(60, 60, 60)" stroke-width="1px" opacity="0.25"></line><line x1="139.29199981689453" y1="0" x2="139.29199981689453" y2="177.9749994277954" fill="rgb(0, 0, 0)" stroke="rgb(60, 60, 60)" stroke-width="1px" opacity="0.25"></line><line x1="162.5073331197103" y1="0" x2="162.5073331197103" y2="177.9749994277954" fill="rgb(0, 0, 0)" stroke="rgb(60, 60, 60)" stroke-width="1px" opacity="0.25"></line><line x1="185.72266642252603" y1="0" x2="185.72266642252603" y2="177.9749994277954" fill="rgb(0, 0, 0)" stroke="rgb(60, 60, 60)" stroke-width="1px" opacity="0.25"></line><line x1="208.9379997253418" y1="0" x2="208.9379997253418" y2="177.9749994277954" fill="rgb(0, 0, 0)" stroke="rgb(60, 60, 60)" stroke-width="1px" opacity="0.25"></line><line x1="232.15333302815756" y1="0" x2="232.15333302815756" y2="177.9749994277954" fill="rgb(0, 0, 0)" stroke="rgb(60, 60, 60)" stroke-width="1px" opacity="0.25"></line><line x1="255.3686663309733" y1="0" x2="255.3686663309733" y2="177.9749994277954" fill="rgb(0, 0, 0)" stroke="rgb(60, 60, 60)" stroke-width="1px" opacity="0.25"></line><line x1="278.58399963378906" y1="0" x2="278.58399963378906" y2="177.9749994277954" fill="rgb(0, 0, 0)" stroke="rgb(60, 60, 60)" stroke-width="1px" opacity="0.25"></line></g><g><line x1="0" y1="177.9749994277954" x2="278.58399963378906" y2="177.9749994277954" fill="rgb(0, 0, 0)" stroke="rgb(60, 60, 60)" stroke-width="1px" opacity="0.25"></line><line x1="0" y1="163.14374947547913" x2="278.58399963378906" y2="163.14374947547913" fill="rgb(0, 0, 0)" stroke="rgb(60, 60, 60)" stroke-width="1px" opacity="0.25"></line><line x1="0" y1="148.31249952316284" x2="278.58399963378906" y2="148.31249952316284" fill="rgb(0, 0, 0)" stroke="rgb(60, 60, 60)" stroke-width="1px" opacity="0.25"></line><line x1="0" y1="133.48124957084656" x2="278.58399963378906" y2="133.48124957084656" fill="rgb(0, 0, 0)" stroke="rgb(60, 60, 60)" stroke-width="1px" opacity="0.25"></line><line x1="0" y1="118.64999961853027" x2="278.58399963378906" y2="118.64999961853027" fill="rgb(0, 0, 0)" stroke="rgb(60, 60, 60)" stroke-width="1px" opacity="0.25"></line><line x1="0" y1="103.81874966621399" x2="278.58399963378906" y2="103.81874966621399" fill="rgb(0, 0, 0)" stroke="rgb(60, 60, 60)" stroke-width="1px" opacity="0.25"></line><line x1="0" y1="88.98749971389772" x2="278.58399963378906" y2="88.98749971389772" fill="rgb(0, 0, 0)" stroke="rgb(60, 60, 60)" stroke-width="1px" opacity="0.25"></line><line x1="0" y1="74.15624976158144" x2="278.58399963378906" y2="74.15624976158144" fill="rgb(0, 0, 0)" stroke="rgb(60, 60, 60)" stroke-width="1px" opacity="0.25"></line><line x1="0" y1="59.324999809265165" x2="278.58399963378906" y2="59.324999809265165" fill="rgb(0, 0, 0)" stroke="rgb(60, 60, 60)" stroke-width="1px" opacity="0.25"></line><line x1="0" y1="44.49374985694888" x2="278.58399963378906" y2="44.49374985694888" fill="rgb(0, 0, 0)" stroke="rgb(60, 60, 60)" stroke-width="1px" opacity="0.25"></line><line x1="0" y1="29.66249990463257" x2="278.58399963378906" y2="29.66249990463257" fill="rgb(0, 0, 0)" stroke="rgb(60, 60, 60)" stroke-width="1px" opacity="0.25"></line><line x1="0" y1="14.831249952316284" x2="278.58399963378906" y2="14.831249952316284" fill="rgb(0, 0, 0)" stroke="rgb(60, 60, 60)" stroke-width="1px" opacity="0.25"></line><line x1="0" y1="0" x2="278.58399963378906" y2="0" fill="rgb(0, 0, 0)" stroke="rgb(60, 60, 60)" stroke-width="1px" opacity="0.25"></line></g></g></g><g><g><line x1="0" y1="163.14374947547913" x2="278.58399963378906" y2="163.14374947547913" fill="rgb(0, 0, 0)" stroke="rgb(153, 153, 153)" stroke-width="1.5px"></line></g></g><g><g><line x1="23.215333302815754" y1="0" x2="23.215333302815754" y2="177.9749994277954" fill="rgb(0, 0, 0)" stroke="rgb(153, 153, 153)" stroke-width="1.5px"></line></g></g><g><g><g><g><g><path style="fill: none;" stroke="rgb(51, 187, 238)" stroke-width="2px" d="M23.215333302815754,161.66062451339792L24.37609996795654,138.81753302363518L25.53686663309733,132.66849790160148L26.69763329823812,129.2810392052865L27.858399963378908,125.5643282586062L29.019166628519695,124.40748885993304L30.179933293660483,123.83796894521475L31.34069995880127,121.54209413716197L32.50146662394206,119.00001773833455L33.66223328908285,116.9829689612192L34.82299995422363,115.16168892536523L35.983766619364424,114.47945313900472L37.14453328450521,112.94293527053834L38.305299949646,110.45721901756049L39.46606661478678,110.54027188717963L40.626833279927574,105.73197926226558L41.78759994506836,105.48281623335124L42.94836661020915,102.17841261668386L44.10913327534993,100.11983740475894L45.269899940490724,97.99896591053428L46.43066660563151,102.39791706363202L47.5914332707723,96.29930374096932L48.75219993591308,93.34195415393235L49.912966601053874,91.72238341584683L51.07373326619466,91.49398139430882L52.23449993133545,91.28634480020405L53.39526659647624,86.51957861009959L54.556033261617024,86.98528464782238L55.716799926757815,85.34494848230362L56.8775665918986,83.41688429120066L58.03833325703939,81.4799181054509L59.199099922180174,81.72018355977538L60.359866587320965,76.25931815052392L61.52063325246175,75.09655145551446L62.68139991760254,74.52109540434601L63.842166582743324,74.80586199179055L65.00293324788412,73.2930709888971L66.1636999130249,67.73728043712619L67.3244665781657,67.84406901243212L68.48523324330647,67.31311409438372L69.64599990844727,66.70799946124912L70.80676657358805,66.20373284691335L71.96753323872885,70.16070924791815L73.12829990386963,65.31979218284131L74.28906656901042,63.459955990431325L75.4498332341512,63.264182829113025L76.610599899292,60.73100400487543L77.77136656443278,61.43696665680888L78.93213322957357,58.90675811082485L80.09289989471435,62.55524989892602L81.25366655985515,59.69874391063097L82.41443322499593,59.2745775678885L83.57519989013672,57.171505642900485L84.7359665552775,56.81258818048359L85.8967332204183,55.605320352354084L87.05749988555908,57.892302005873944L88.21826655069987,58.01688573035956L89.37903321584066,55.55489634295465L90.53979988098145,53.884901595469714L91.70056654612223,55.415478907429005L92.86133321126302,53.445892701573385L94.02209987640381,52.523391460888405L95.1828665415446,53.825575591423515L96.34363320668538,51.583086230909856L97.50439987182617,50.88601673350932L98.66516653696696,49.02914197923903L99.82593320210775,51.42587364620451L100.98669986724853,51.152979331660305L102.14746653238932,51.52079878872395L103.30823319753011,50.69617528858426L104.4689998626709,51.78479110862138L105.62976652781168,50.4292126904333L106.79053319295248,50.59828870792511L107.95129985809326,47.40660980301382L109.11206652323405,46.36248627598286L110.27283318837483,47.765527265430705L111.43359985351563,44.793339547296796L112.59436651865641,47.937564721062216L113.7551331837972,46.07475825039867L114.91589984893798,48.705823655295376L116.07666651407878,46.26756997357725L117.23743317921956,45.3213330272055L118.39819984436035,46.27943340636375L119.55896650950113,47.37991265918731L120.71973317464193,47.006161485730416L121.88049983978271,45.81372736864091L123.0412665049235,42.553820465036665L124.2020331700643,44.642058678984654L125.36279983520508,44.61240009701851L126.52356650034586,41.91311553354265L127.68433316548665,41.96947125933531L128.84509983062745,43.52971599337462L130.00586649576823,42.40253959672455L131.16663316090902,43.96279317087772L132.3273998260498,43.594973713814056L133.4881664911906,42.23940413573982L134.6489331563314,44.47002122335317L135.80969982147215,40.486347678521895L136.97046648661293,41.47114520150663L138.13123315175375,40.901620866731434L139.29199981689453,39.667664734889286L140.45276648203532,39.471891573570986L141.6135331471761,37.807819702365435L142.77429981231688,38.90236723879579L143.9350664774577,39.74774732625488L145.09583314259848,38.8400797966099L146.25659980773926,38.051055434943464L147.41736647288005,40.77407570410611L148.57813313802083,38.39810946457388L149.73889980316162,37.54085710421447L150.8996664683024,37.110750204964916L152.06043313344318,38.90236723879579L153.221199798584,36.92387903829339L154.38196646372478,38.54938149277214L155.54273312886556,36.90015217272045L156.70349979400635,35.4911794668794L157.86426645914713,36.962439614906344L159.02503312428792,35.603899758578564L160.1857997894287,37.232372491310855L161.3465664545695,37.01583390255931L162.5073331197103,33.6906692785156L163.66809978485108,36.73700787162187L164.82886644999186,36.35436354363205L165.98963311513265,36.04289981236104L167.15039978027343,34.87717167921187L168.31116644541422,35.055140851236615L169.471933110555,36.35436354363205L170.6326997756958,34.346207921049626L171.7934664408366,35.46448232305292L172.95423310597738,33.035121795867724L174.11499977111816,33.54829040485026L175.27576643625895,33.21309980800632L176.43653310139973,34.47672336192849L177.59729976654052,32.756295764930286L178.75806643168133,33.28428924483899L179.9188330968221,30.614663263329305L181.0795997619629,31.5757339207411L182.24036642710368,32.96987291554214L183.40113309224446,30.513815244530463L184.56189975738525,31.83379452424529L185.72266642252603,29.979890048228526L186.88343308766682,32.044401396603604L188.04419975280763,30.353632381571572L189.2049664179484,29.226464825035322L190.3657330830892,29.496388861325983L191.52649974822998,29.570548576412193L192.68726641337076,28.410743319542405L193.84803307851155,27.91537869985342L195.00879974365233,29.018819390816702L196.16956640879314,28.069621006305226L197.33033307393393,28.045894140732287L198.4910997390747,27.18271890409349L199.6518664042155,26.957278320695167L200.81263306935628,26.28987624537467L201.97339973449706,26.59539942013859L203.13416639963785,27.4734083678174L204.29493306477863,26.50937627226591L205.45569972991944,25.474154739881754L206.61646639506023,25.044047840632203L207.777233060201,25.388131592009074L208.9379997253418,24.8304795301342L210.09876639048258,24.510122644330266L211.25953305562336,24.370714048918472L212.42029972076415,23.786356003103265L213.58106638590496,23.724068560917374L214.74183305104575,23.53422711599231L215.90259971618653,23.311756810847527L217.0633663813273,23.0477644909501L218.2241330464681,22.638423019133796L219.38489971160888,22.463415285248743L220.54566637674967,22.332899844369877L221.70643304189045,22.344763277156346L222.86719970703126,22.16678526501775L224.02796637217205,21.962118949166523L225.18873303731283,22.009572680312402L226.3494997024536,21.810838080854438L227.5102663675944,21.769307225987944L228.67103303273518,21.588367775709628L229.83179969787597,21.55573891548994L230.99256636301678,21.499383189697284L232.15333302815756,21.428193752864587L233.31409969329835,21.472686045870773L234.47486635843913,21.362936032425182L235.6356330235799,21.16419259285334L236.7963996887207,21.279874322692194L237.95716635386148,21.2858060390854L239.11793301900227,21.26207917351249L240.27869968414308,21.26207917351249L241.43946634928386,21.23538202968598L242.60023301442465,21.244284024332785L243.76099967956543,21.20275316946629L244.9217663447062,21.17309458750009L246.082533009847,21.196821453073028L247.24329967498778,21.184958020286587L248.4040663401286,21.205723447719834L249.56483300526938,21.19979173132657L250.72559967041016,21.220548318645996L251.88636633555095,21.208684885859498L253.04713300069173,21.19979173132657L254.2078996658325,21.22648887515308" fill="none"></path></g><g><path style="fill: none;" stroke="rgb(0, 119, 187)" stroke-width="2px" d="M23.215333302815754,161.66062451339792L24.37609996795654,138.49421248966308L25.53686663309733,133.28844403574766L26.69763329823812,129.6399566677034L27.858399963378908,126.46606849191488L29.019166628519695,124.86429290300907L30.179933293660483,124.38969371075333L31.34069995880127,121.08232423588933L32.50146662394206,119.34706734790804L33.66223328908285,118.17539865825178L34.82299995422363,115.52060638778211L35.983766619364424,115.03117348448636L37.14453328450521,113.44423160662056L38.305299949646,111.57549341956378L39.46606661478678,111.54583041754069L40.626833279927574,106.82949265689255L41.78759994506836,107.24477026515902L42.94836661020915,102.95853498370352L44.10913327534993,101.65338499497177L45.269899940490724,99.8884695250243L46.43066660563151,104.50098898862005L47.5914332707723,98.01973133796753L48.75219993591308,95.17213176437618L49.912966601053874,94.77168786714972L51.07373326619466,94.86067687321902L52.23449993133545,94.51955455998184L53.39526659647624,90.51512000777424L54.556033261617024,90.8265748989314L55.716799926757815,90.44096029268803L56.8775665918986,88.06795991135242L58.03833325703939,87.45988384007813L59.199099922180174,86.95561722574236L60.359866587320965,82.26894246711733L61.52063325246175,82.6545570733607L62.68139991760254,81.26041807855965L63.842166582743324,82.90668596047166L65.00293324788412,81.8685029899478L66.1636999130249,76.67756161698702L67.3244665781657,76.81104733611942L68.48523324330647,76.85553962912562L69.64599990844727,76.58857703097463L70.80676657358805,75.89150753357411L71.96753323872885,80.34087827601435L73.12829990386963,75.72836323247553L74.28906656901042,74.3935502417207L75.4498332341512,73.91895104946495L76.610599899292,73.38502585316301L77.77136656443278,73.4740104391754L78.93213322957357,72.00572056940199L80.09289989471435,74.36389165975451L81.25366655985515,73.355358431083L82.41443322499593,73.05873725096585L83.57519989013672,70.58191415252094L84.7359665552775,71.29381736096146L85.8967332204183,71.14550677090288L87.05749988555908,71.38280194697384L88.21826655069987,72.99941124691965L89.37903321584066,71.62010596315864L90.53979988098145,68.87632910667658L91.70056654612223,71.08618076685669L92.86133321126302,69.55856489303709L94.02209987640381,69.27676858384612L95.1828665415446,69.92934578824044L96.34363320668538,68.84666168459657L97.50439987182617,68.80216939159037L98.66516653696696,67.052083212626L99.82593320210775,68.86149539563657L100.98669986724853,69.46957146691088L102.14746653238932,70.59674786356094L103.30823319753011,68.95047998164894L104.4689998626709,69.17295028679372L105.62976652781168,69.2026088687599L106.79053319295248,69.09879057170753L107.95129985809326,65.99906653106214L109.11206652323405,65.65794421782495L110.27283318837483,68.44622220742703L111.43359985351563,65.3019970336616L112.59436651865641,68.43138849638702L113.7551331837972,66.74062832146885L114.91589984893798,70.2408006793976L116.07666651407878,66.78512061447502L117.23743317921956,65.46514133476019L118.39819984436035,66.56265030933025L119.55896650950113,68.96531369268897L120.71973317464193,68.63902509049178L121.88049983978271,67.76397758095267L123.0412665049235,65.109185310483L124.2020331700643,66.68130231742265L125.36279983520508,67.20039380268456L126.52356650034586,66.11770969904067L127.68433316548665,65.09436043955684L128.84509983062745,66.8741052004874L130.00586649576823,65.73210393291116L131.16663316090902,66.97792349753978L132.3273998260498,67.25971980673076L133.4881664911906,66.11770969904067L134.6489331563314,67.98644788609747L135.80969982147215,64.69391212227346L136.97046648661293,65.52445849869255L138.13123315175375,66.28085400013926L139.29199981689453,63.98200891383294L140.45276648203532,64.3527898090363L141.6135331471761,64.20447921897771L142.77429981231688,64.51593411013486L143.9350664774577,65.13885273256304L145.09583314259848,63.28493941643241L146.25659980773926,63.789206030768185L147.41736647288005,65.67277792886496L148.57813313802083,63.80403974180818L149.73889980316162,63.13662882637384L150.8996664683024,62.706521927124285L152.06043313344318,65.25749590054157L153.221199798584,62.86966622822288L154.38196646372478,65.2723296115816L155.54273312886556,63.44808371753099L156.70349979400635,63.50740972157719L157.86426645914713,63.34426542047861L159.02503312428792,62.00945242972378L160.1857997894287,64.29347264510393L161.3465664545695,64.67907841123345L162.5073331197103,61.089921467292314L163.66809978485108,63.61122801862959L164.82886644999186,64.10066092192534L165.98963311513265,63.789206030768185L167.15039978027343,63.62606172966959L168.31116644541422,62.187430441862375L169.471933110555,63.5222434326172L170.6326997756958,63.43325884660483L171.7934664408366,63.952350331866754L172.95423310597738,62.142938148856175L174.11499977111816,61.90563413267138L175.27576643625895,61.19373976434471L176.43653310139973,63.744713737761984L177.59729976654052,62.23192273486855L178.75806643168133,62.26159015694857L179.9188330968221,61.17890605330469L181.0795997619629,61.54968694850804L182.24036642710368,63.270114545506246L183.40113309224446,61.861141839665194L184.56189975738525,62.64719592307809L185.72266642252603,60.511503977984205L186.88343308766682,62.765847931170484L188.04419975280763,61.01576175220612L189.2049664179484,60.39285196989181L190.3657330830892,61.22339834631087L191.52649974822998,61.11958004925849L192.68726641337076,61.06025404521229L193.84803307851155,59.96274507064226L195.00879974365233,61.95013526579142L196.16956640879314,60.689473150008936L197.33033307393393,60.748799154055135L198.4910997390747,59.22118328023555L199.6518664042155,59.82925935150983L200.81263306935628,58.7465840879798L201.97339973449706,59.532638171392705L203.13416639963785,61.41621006948948L204.29493306477863,59.50297074931267L205.45569972991944,59.23600815116171L206.61646639506023,59.11736498318315L207.777233060201,60.200040246713186L208.9379997253418,58.657590661853575L210.09876639048258,59.02837155705693L211.25953305562336,58.998712975090754L212.42029972076415,57.79737686335447L213.58106638590496,57.7528845703483L214.74183305104575,58.16816659867169L215.90259971618653,58.034680879539266L217.0633663813273,57.604573980289715L218.2241330464681,57.14480849907399L219.38489971160888,56.71470159982444L220.54566637674967,56.44773900167348L221.70643304189045,56.492231294679655L222.86719970703126,56.80368618583681L224.02796637217205,56.69986788878444L225.18873303731283,56.521889876645844L226.3494997024536,55.57269149213435L227.5102663675944,55.63201749618055L228.67103303273518,55.57269149213435L229.83179969787597,55.02394142490627L230.99256636301678,55.439214613115794L232.15333302815756,55.54303291016818L233.31409969329835,55.00910771386624L234.47486635843913,55.09809229987863L235.6356330235799,54.50484109953048L236.7963996887207,54.49001622860432L237.95716635386148,54.949781709820044L239.11793301900227,54.96461542086007L240.27869968414308,54.75697882675529L241.43946634928386,55.02394142490627L242.60023301442465,54.69765282270909L243.76099967956543,54.10440162236097L244.9217663447062,54.62349310762288L246.082533009847,54.72731140467528L247.24329967498778,54.54933339253668L248.4040663401286,54.401022802478096L249.56483300526938,54.35653050947192L250.72559967041016,54.50484109953048L251.88636633555095,54.63832681866289L253.04713300069173,54.50484109953048L254.2078996658325,54.54933339253668" fill="none"></path></g></g></g></g></g></g><g transform="translate(51, 177)" clip-path="url(#clip_1)"><clipPath id="clip_1"><rect width="278" height="22"></rect></clipPath><g><g><line x1="0" y1="0" x2="0" y2="5" style="visibility: inherit;" fill="rgb(0, 0, 0)" stroke="rgb(204, 204, 204)" stroke-width="1px"></line><line x1="23.215333302815754" y1="0" x2="23.215333302815754" y2="5" style="visibility: inherit;" fill="rgb(0, 0, 0)" stroke="rgb(204, 204, 204)" stroke-width="1px"></line><line x1="46.43066660563151" y1="0" x2="46.43066660563151" y2="5" style="visibility: inherit;" fill="rgb(0, 0, 0)" stroke="rgb(204, 204, 204)" stroke-width="1px"></line><line x1="69.64599990844727" y1="0" x2="69.64599990844727" y2="5" style="visibility: inherit;" fill="rgb(0, 0, 0)" stroke="rgb(204, 204, 204)" stroke-width="1px"></line><line x1="92.86133321126302" y1="0" x2="92.86133321126302" y2="5" style="visibility: inherit;" fill="rgb(0, 0, 0)" stroke="rgb(204, 204, 204)" stroke-width="1px"></line><line x1="116.07666651407878" y1="0" x2="116.07666651407878" y2="5" style="visibility: inherit;" fill="rgb(0, 0, 0)" stroke="rgb(204, 204, 204)" stroke-width="1px"></line><line x1="139.29199981689453" y1="0" x2="139.29199981689453" y2="5" style="visibility: inherit;" fill="rgb(0, 0, 0)" stroke="rgb(204, 204, 204)" stroke-width="1px"></line><line x1="162.5073331197103" y1="0" x2="162.5073331197103" y2="5" style="visibility: inherit;" fill="rgb(0, 0, 0)" stroke="rgb(204, 204, 204)" stroke-width="1px"></line><line x1="185.72266642252603" y1="0" x2="185.72266642252603" y2="5" style="visibility: inherit;" fill="rgb(0, 0, 0)" stroke="rgb(204, 204, 204)" stroke-width="1px"></line><line x1="208.9379997253418" y1="0" x2="208.9379997253418" y2="5" style="visibility: inherit;" fill="rgb(0, 0, 0)" stroke="rgb(204, 204, 204)" stroke-width="1px"></line><line x1="232.15333302815756" y1="0" x2="232.15333302815756" y2="5" style="visibility: inherit;" fill="rgb(0, 0, 0)" stroke="rgb(204, 204, 204)" stroke-width="1px"></line><line x1="255.3686663309733" y1="0" x2="255.3686663309733" y2="5" style="visibility: inherit;" fill="rgb(0, 0, 0)" stroke="rgb(204, 204, 204)" stroke-width="1px"></line><line x1="278.58399963378906" y1="0" x2="278.58399963378906" y2="5" style="visibility: inherit;" fill="rgb(0, 0, 0)" stroke="rgb(204, 204, 204)" stroke-width="1px"></line></g><g transform="translate(0, 8)"><text style="text-anchor: middle; visibility: hidden; font-family: &quot;Helvetica Neue&quot;, sans-serif; font-size: 12px; font-weight: 200;" x="0" y="0" dx="0em" dy="0.95em" fill="rgb(50, 49, 63)" stroke="none" stroke-width="1px">-20</text><text style="text-anchor: middle; visibility: inherit; font-family: &quot;Helvetica Neue&quot;, sans-serif; font-size: 12px; font-weight: 200;" x="23.215333302815754" y="0" dx="0em" dy="0.95em" fill="rgb(50, 49, 63)" stroke="none" stroke-width="1px">0</text><text style="text-anchor: middle; visibility: hidden; font-family: &quot;Helvetica Neue&quot;, sans-serif; font-size: 12px; font-weight: 200;" x="46.43066660563151" y="0" dx="0em" dy="0.95em" fill="rgb(50, 49, 63)" stroke="none" stroke-width="1px">20</text><text style="text-anchor: middle; visibility: inherit; font-family: &quot;Helvetica Neue&quot;, sans-serif; font-size: 12px; font-weight: 200;" x="69.64599990844727" y="0" dx="0em" dy="0.95em" fill="rgb(50, 49, 63)" stroke="none" stroke-width="1px">40</text><text style="text-anchor: middle; visibility: hidden; font-family: &quot;Helvetica Neue&quot;, sans-serif; font-size: 12px; font-weight: 200;" x="92.86133321126302" y="0" dx="0em" dy="0.95em" fill="rgb(50, 49, 63)" stroke="none" stroke-width="1px">60</text><text style="text-anchor: middle; visibility: inherit; font-family: &quot;Helvetica Neue&quot;, sans-serif; font-size: 12px; font-weight: 200;" x="116.07666651407878" y="0" dx="0em" dy="0.95em" fill="rgb(50, 49, 63)" stroke="none" stroke-width="1px">80</text><text style="text-anchor: middle; visibility: hidden; font-family: &quot;Helvetica Neue&quot;, sans-serif; font-size: 12px; font-weight: 200;" x="139.29199981689453" y="0" dx="0em" dy="0.95em" fill="rgb(50, 49, 63)" stroke="none" stroke-width="1px">100</text><text style="text-anchor: middle; visibility: inherit; font-family: &quot;Helvetica Neue&quot;, sans-serif; font-size: 12px; font-weight: 200;" x="162.5073331197103" y="0" dx="0em" dy="0.95em" fill="rgb(50, 49, 63)" stroke="none" stroke-width="1px">120</text><text style="text-anchor: middle; visibility: hidden; font-family: &quot;Helvetica Neue&quot;, sans-serif; font-size: 12px; font-weight: 200;" x="185.72266642252603" y="0" dx="0em" dy="0.95em" fill="rgb(50, 49, 63)" stroke="none" stroke-width="1px">140</text><text style="text-anchor: middle; visibility: inherit; font-family: &quot;Helvetica Neue&quot;, sans-serif; font-size: 12px; font-weight: 200;" x="208.9379997253418" y="0" dx="0em" dy="0.95em" fill="rgb(50, 49, 63)" stroke="none" stroke-width="1px">160</text><text style="text-anchor: middle; visibility: hidden; font-family: &quot;Helvetica Neue&quot;, sans-serif; font-size: 12px; font-weight: 200;" x="232.15333302815756" y="0" dx="0em" dy="0.95em" fill="rgb(50, 49, 63)" stroke="none" stroke-width="1px">180</text><text style="text-anchor: middle; visibility: inherit; font-family: &quot;Helvetica Neue&quot;, sans-serif; font-size: 12px; font-weight: 200;" x="255.3686663309733" y="0" dx="0em" dy="0.95em" fill="rgb(50, 49, 63)" stroke="none" stroke-width="1px">200</text><text style="text-anchor: middle; visibility: hidden; font-family: &quot;Helvetica Neue&quot;, sans-serif; font-size: 12px; font-weight: 200;" x="278.58399963378906" y="0" dx="0em" dy="0.95em" fill="rgb(50, 49, 63)" stroke="none" stroke-width="1px">220</text></g><line x1="0" y1="0" x2="278.58399963378906" y2="0" fill="rgb(0, 0, 0)" stroke="rgb(204, 204, 204)" stroke-width="1px"></line></g></g></g></g></svg>