<svg viewBox="0 0 330 200" xmlns="http://www.w3.org/2000/svg"><g><g><g><g><g><line x1="51.41600036621094" y1="177.9749994277954" x2="46.41600036621094" y2="177.9749994277954" style="visibility: inherit;" fill="rgb(0, 0, 0)" stroke="rgb(204, 204, 204)" stroke-width="1px"></line><line x1="51.41600036621094" y1="155.72812449932098" x2="46.41600036621094" y2="155.72812449932098" style="visibility: inherit;" fill="rgb(0, 0, 0)" stroke="rgb(204, 204, 204)" stroke-width="1px"></line><line x1="51.41600036621094" y1="133.48124957084656" x2="46.41600036621094" y2="133.48124957084656" style="visibility: inherit;" fill="rgb(0, 0, 0)" stroke="rgb(204, 204, 204)" stroke-width="1px"></line><line x1="51.41600036621094" y1="111.23437464237213" x2="46.41600036621094" y2="111.23437464237213" style="visibility: inherit;" fill="rgb(0, 0, 0)" stroke="rgb(204, 204, 204)" stroke-width="1px"></line><line x1="51.41600036621094" y1="88.9874997138977" x2="46.41600036621094" y2="88.9874997138977" style="visibility: inherit;" fill="rgb(0, 0, 0)" stroke="rgb(204, 204, 204)" stroke-width="1px"></line><line x1="51.41600036621094" y1="66.74062478542328" x2="46.41600036621094" y2="66.74062478542328" style="visibility: inherit;" fill="rgb(0, 0, 0)" stroke="rgb(204, 204, 204)" stroke-width="1px"></line><line x1="51.41600036621094" y1="44.49374985694885" x2="46.41600036621094" y2="44.49374985694885" style="visibility: inherit;" fill="rgb(0, 0, 0)" stroke="rgb(204, 204, 204)" stroke-width="1px"></line><line x1="51.41600036621094" y1="22.246874928474426" x2="46.41600036621094" y2="22.246874928474426" style="visibility: inherit;" fill="rgb(0, 0, 0)" stroke="rgb(204, 204, 204)" stroke-width="1px"></line><line x1="51.41600036621094" y1="0" x2="46.41600036621094" y2="0" style="visibility: inherit;" fill="rgb(0, 0, 0)" stroke="rgb(204, 204, 204)" stroke-width="1px"></line></g><g transform="translate(41.41600036621094, 0)"><text style="text-anchor: end; visibility: hidden; font-family: &quot;Helvetica Neue&quot;, sans-serif; font-size: 12px; font-weight: 200;" x="0" y="177.9749994277954" dx="0em" dy="0.3em" fill="rgb(50, 49, 63)" stroke="none" stroke-width="1px">-0.5</text><text style="text-anchor: end; visibility: inherit; font-family: &quot;Helvetica Neue&quot;, sans-serif; font-size: 12px; font-weight: 200;" x="0" y="155.72812449932098" dx="0em" dy="0.3em" fill="rgb(50, 49, 63)" stroke="none" stroke-width="1px">0</text><text style="text-anchor: end; visibility: hidden; font-family: &quot;Helvetica Neue&quot;, sans-serif; font-size: 12px; font-weight: 200;" x="0" y="133.48124957084656" dx="0em" dy="0.3em" fill="rgb(50, 49, 63)" stroke="none" stroke-width="1px">0.5</text><text style="text-anchor: end; visibility: inherit; font-family: &quot;Helvetica Neue&quot;, sans-serif; font-size: 12px; font-weight: 200;" x="0" y="111.23437464237213" dx="0em" dy="0.3em" fill="rgb(50, 49, 63)" stroke="none" stroke-width="1px">1</text><text style="text-anchor: end; visibility: hidden; font-family: &quot;Helvetica Neue&quot;, sans-serif; font-size: 12px; font-weight: 200;" x="0" y="88.9874997138977" dx="0em" dy="0.3em" fill="rgb(50, 49, 63)" stroke="none" stroke-width="1px">1.5</text><text style="text-anchor: end; visibility: inherit; font-family: &quot;Helvetica Neue&quot;, sans-serif; font-size: 12px; font-weight: 200;" x="0" y="66.74062478542328" dx="0em" dy="0.3em" fill="rgb(50, 49, 63)" stroke="none" stroke-width="1px">2</text><text style="text-anchor: end; visibility: hidden; font-family: &quot;Helvetica Neue&quot;, sans-serif; font-size: 12px; font-weight: 200;" x="0" y="44.49374985694885" dx="0em" dy="0.3em" fill="rgb(50, 49, 63)" stroke="none" stroke-width="1px">2.5</text><text style="text-anchor: end; visibility: inherit; font-family: &quot;Helvetica Neue&quot;, sans-serif; font-size: 12px; font-weight: 200;" x="0" y="22.246874928474426" dx="0em" dy="0.3em" fill="rgb(50, 49, 63)" stroke="none" stroke-width="1px">3</text><text style="text-anchor: end; visibility: hidden; font-family: &quot;Helvetica Neue&quot;, sans-serif; font-size: 12px; font-weight: 200;" x="0" y="0" dx="0em" dy="0.3em" fill="rgb(50, 49, 63)" stroke="none" stroke-width="1px">3.5</text></g><line x1="51.41600036621094" y1="0" x2="51.41600036621094" y2="177.9749994277954" fill="rgb(0, 0, 0)" stroke="rgb(204, 204, 204)" stroke-width="1px"></line></g></g><g transform="translate(51, 0)" clip-path="url(#clip_0)"><clipPath id="clip_0"><rect width="278" height="177"></rect></clipPath><g><g><g><line x1="0" y1="0" x2="0" y2="177.9749994277954" fill="rgb(0, 0, 0)" stroke="rgb(60, 60, 60)" stroke-width="1px" opacity="0.25"></line><line x1="23.215333302815754" y1="0" x2="23.215333302815754" y2="177.9749994277954" fill="rgb(0, 0, 0)" stroke="rgb(60, 60, 60)" stroke-width="1px" opacity="0.25"></line><line x1="46.43066660563151" y1="0" x2="46.43066660563151" y2="177.9749994277954" fill="rgb(0, 0, 0)" stroke="rgb(60, 60, 60)" stroke-width="1px" opacity="0.25"></line><line x1="69.64599990844727" y1="0" x2="69.64599990844727" y2="177.9749994277954" fill="rgb(0, 0, 0)" stroke="rgb(60, 60, 60)" stroke-width="1px" opacity="0.25"></line><line x1="92.86133321126302" y1="0" x2="92.86133321126302" y2="177.9749994277954" fill="rgb(0, 0, 0)" stroke="rgb(60, 60, 60)" stroke-width="1px" opacity="0.25"></line><line x1="116.07666651407878" y1="0" x2="116.07666651407878" y2="177.9749994277954" fill="rgb(0, 0, 0)" stroke="rgb(60, 60, 60)" stroke-width="1px" opacity="0.25"></line><line x1="139.29199981689453" y1="0" x2="139.29199981689453" y2="177.9749994277954" fill="rgb(0, 0, 0)" stroke="rgb(60, 60, 60)" stroke-width="1px" opacity="0.25"></line><line x1="162.5073331197103" y1="0" x2="162.5073331197103" y2="177.9749994277954" fill="rgb(0, 0, 0)" stroke="rgb(60, 60, 60)" stroke-width="1px" opacity="0.25"></line><line x1="185.72266642252603" y1="0" x2="185.72266642252603" y2="177.9749994277954" fill="rgb(0, 0, 0)" stroke="rgb(60, 60, 60)" stroke-width="1px" opacity="0.25"></line><line x1="208.9379997253418" y1="0" x2="208.9379997253418" y2="177.9749994277954" fill="rgb(0, 0, 0)" stroke="rgb(60, 60, 60)" stroke-width="1px" opacity="0.25"></line><line x1="232.15333302815756" y1="0" x2="232.15333302815756" y2="177.9749994277954" fill="rgb(0, 0, 0)" stroke="rgb(60, 60, 60)" stroke-width="1px" opacity="0.25"></line><line x1="255.3686663309733" y1="0" x2="255.3686663309733" y2="177.9749994277954" fill="rgb(0, 0, 0)" stroke="rgb(60, 60, 60)" stroke-width="1px" opacity="0.25"></line><line x1="278.58399963378906" y1="0" x2="278.58399963378906" y2="177.9749994277954" fill="rgb(0, 0, 0)" stroke="rgb(60, 60, 60)" stroke-width="1px" opacity="0.25"></line></g><g><line x1="0" y1="177.9749994277954" x2="278.58399963378906" y2="177.9749994277954" fill="rgb(0, 0, 0)" stroke="rgb(60, 60, 60)" stroke-width="1px" opacity="0.25"></line><line x1="0" y1="155.72812449932098" x2="278.58399963378906" y2="155.72812449932098" fill="rgb(0, 0, 0)" stroke="rgb(60, 60, 60)" stroke-width="1px" opacity="0.25"></line><line x1="0" y1="133.48124957084656" x2="278.58399963378906" y2="133.48124957084656" fill="rgb(0, 0, 0)" stroke="rgb(60, 60, 60)" stroke-width="1px" opacity="0.25"></line><line x1="0" y1="111.23437464237213" x2="278.58399963378906" y2="111.23437464237213" fill="rgb(0, 0, 0)" stroke="rgb(60, 60, 60)" stroke-width="1px" opacity="0.25"></line><line x1="0" y1="88.9874997138977" x2="278.58399963378906" y2="88.9874997138977" fill="rgb(0, 0, 0)" stroke="rgb(60, 60, 60)" stroke-width="1px" opacity="0.25"></line><line x1="0" y1="66.74062478542328" x2="278.58399963378906" y2="66.74062478542328" fill="rgb(0, 0, 0)" stroke="rgb(60, 60, 60)" stroke-width="1px" opacity="0.25"></line><line x1="0" y1="44.49374985694885" x2="278.58399963378906" y2="44.49374985694885" fill="rgb(0, 0, 0)" stroke="rgb(60, 60, 60)" stroke-width="1px" opacity="0.25"></line><line x1="0" y1="22.246874928474426" x2="278.58399963378906" y2="22.246874928474426" fill="rgb(0, 0, 0)" stroke="rgb(60, 60, 60)" stroke-width="1px" opacity="0.25"></line><line x1="0" y1="0" x2="278.58399963378906" y2="0" fill="rgb(0, 0, 0)" stroke="rgb(60, 60, 60)" stroke-width="1px" opacity="0.25"></line></g></g></g><g><g><line x1="0" y1="155.72812449932098" x2="278.58399963378906" y2="155.72812449932098" fill="rgb(0, 0, 0)" stroke="rgb(153, 153, 153)" stroke-width="1.5px"></line></g></g><g><g><line x1="23.215333302815754" y1="0" x2="23.215333302815754" y2="177.9749994277954" fill="rgb(0, 0, 0)" stroke="rgb(153, 153, 153)" stroke-width="1.5px"></line></g></g><g><g><g><g><g><path style="fill: none;" stroke="rgb(238, 51, 119)" stroke-width="2px" d="M24.37609996795654,-1.7032636319473795L25.53686663309733,6.730364102838223L26.69763329823812,8.9922734254572L27.858399963378908,12.42651975033948L29.019166628519695,14.887236161350017L30.179933293660483,14.381249260859079L31.34069995880127,15.72431361388135L32.50146662394206,17.87317202454318L33.66223328908285,24.742576974057044L34.82299995422363,25.671913390770726L35.983766619364424,29.236767093715912L37.14453328450521,33.99466488160624L38.305299949646,36.44996053480406L39.46606661478678,36.909961163048195L40.626833279927574,43.804878681132664L41.78759994506836,45.59894796254548L42.94836661020915,51.98002855904036L44.10913327534993,54.60511804697461L45.269899940490724,55.83018809637491L46.43066660563151,48.83093955463477L47.5914332707723,57.53745099582795L48.75219993591308,64.52230429617504L49.912966601053874,62.914917002997356L51.07373326619466,66.70402671408499L52.23449993133545,63.79881877056846L53.39526659647624,72.83351943843653L54.556033261617024,72.04405660712314L55.716799926757815,75.28708596536532L56.8775665918986,75.5100159564303L58.03833325703939,79.35443649185353L59.199099922180174,77.44708291947794L60.359866587320965,84.82948674778842L61.52063325246175,85.53436029769557L62.68139991760254,85.36371250796125L63.842166582743324,87.09555976403067L65.00293324788412,88.31598875365981L66.1636999130249,93.24452902721615L67.3244665781657,94.05024882789937L68.48523324330647,94.12419814827595L69.64599990844727,95.01639547868373L70.80676657358805,96.05075775200169L71.96753323872885,89.50356434417745L73.12829990386963,96.98331904224779L74.28906656901042,99.74052226364495L75.4498332341512,98.95927013007528L76.610599899292,102.85829604874891L77.77136656443278,100.23900390747738L78.93213322957357,103.88306856656257L80.09289989471435,99.0348955360378L81.25366655985515,102.86925955794547L82.41443322499593,103.02897035882478L83.57519989013672,106.0862671570593L84.7359665552775,106.38391555840579L85.8967332204183,108.28992189743067L87.05749988555908,105.72406294031305L88.21826655069987,105.75562745082524L89.37903321584066,108.21353800969985L90.53979988098145,109.21993193081971L91.70056654612223,108.1568693438769L92.86133321126302,110.91768993986142L94.02209987640381,110.92942784303122L95.1828665415446,110.02932745084169L96.34363320668538,113.48018081360226L97.50439987182617,113.6369345963988L98.66516653696696,116.44110799471426L99.82593320210775,113.01288974346618L100.98669986724853,112.78293186189059L102.14746653238932,113.44742819178865L103.30823319753011,114.28764830479359L104.4689998626709,112.3086951143027L105.62976652781168,115.09599361929021L106.79053319295248,114.1049549759275L107.95129985809326,118.61237344195125L109.11206652323405,118.98094784473768L110.27283318837483,117.85369807514266L111.43359985351563,121.13543917594463L112.59436651865641,116.99033366006748L113.7551331837972,119.35610724833086L114.91589984893798,116.68123112320576L116.07666651407878,120.90654210803102L117.23743317921956,120.8044679654412L118.39819984436035,119.87516072110323L119.55896650950113,117.14169320539285L120.71973317464193,118.68570218633558L121.88049983978271,120.04070599712342L123.0412665049235,124.52980421120479L124.2020331700643,121.12377287769701L125.36279983520508,120.44945076125487L126.52356650034586,125.56608125318262L127.68433316548665,124.46015914226169L128.84509983062745,123.79857474586576L130.00586649576823,123.98262591621919L131.16663316090902,122.38267492681199L132.3273998260498,123.31805267733064L133.4881664911906,125.72787390087356L134.6489331563314,121.8940270256261L135.80969982147215,126.86620386916796L136.97046648661293,125.45434575016633L138.13123315175375,126.20160676197202L139.29199981689453,127.63013821970581L140.45276648203532,127.75347902418416L141.6135331471761,129.21398075365585L142.77429981231688,127.95457216601729L143.9350664774577,126.71524212896583L145.09583314259848,128.3657674097079L146.25659980773926,128.9278501366443L147.41736647288005,126.64411192089595L148.57813313802083,128.72841716819218L149.73889980316162,130.788753330796L150.8996664683024,130.69544946515657L152.06043313344318,127.50200518950948L153.221199798584,130.94711424629043L154.38196646372478,128.2484918073419L155.54273312886556,130.5628504094433L156.70349979400635,133.19261012952444L157.86426645914713,130.61204299098347L159.02503312428792,131.80395996141274L160.1857997894287,130.09108535768783L161.3465664545695,130.16097971784149L162.5073331197103,134.60631141226375L163.66809978485108,130.66377622124404L164.82886644999186,131.86970654014806L165.98963311513265,132.22135831299178L167.15039978027343,132.83219868786693L168.31116644541422,133.48837293458675L169.471933110555,131.3187411403892L170.6326997756958,134.47947257473504L171.7934664408366,132.30381270690327L172.95423310597738,135.45813815274784L174.11499977111816,135.3239359423879L175.27576643625895,135.9649458578097L176.43653310139973,134.25691386845176L177.59729976654052,136.20889852362097L178.75806643168133,135.77235513747735L179.9188330968221,138.5124540645922L181.0795997619629,137.44895256599673L182.24036642710368,135.45445049925536L183.40113309224446,139.2408869599148L184.56189975738525,136.99914503102715L185.72266642252603,139.83442148591183L186.88343308766682,136.7458969855028L188.04419975280763,139.63864434654232L189.2049664179484,140.49462284649596L190.3657330830892,140.13482932879657L191.52649974822998,140.5368352741403L192.68726641337076,141.88166455589266L193.84803307851155,142.4242959383196L195.00879974365233,141.4844468582157L196.16956640879314,142.23521518519132L197.33033307393393,142.13163070915027L198.4910997390747,143.30100141121125L199.6518664042155,143.84505295792817L200.81263306935628,144.28789359917272L201.97339973449706,143.99331625337766L203.13416639963785,143.09232875576328L204.29493306477863,144.1512714076464L205.45569972991944,145.13222502812636L206.61646639506023,146.06170332866733L207.777233060201,145.6395485538314L208.9379997253418,146.4363097831392L210.09876639048258,146.8374664145448L211.25953305562336,146.64346017098222L212.42029972076415,147.36092491604853L213.58106638590496,147.85357142173154L214.74183305104575,148.02904723964494L215.90259971618653,148.16497592423974L217.0633663813273,148.64533422966582L218.2241330464681,149.0816906474015L219.38489971160888,149.46824252671578L220.54566637674967,149.56302423838804L221.70643304189045,149.55199575435466L222.86719970703126,149.73543364180978L224.02796637217205,150.05651475394086L225.18873303731283,150.10359167523387L226.3494997024536,150.26824851981218L227.5102663675944,150.43335090612848L228.67103303273518,150.66943896465324L229.83179969787597,150.76381657262112L230.99256636301678,150.8367044163272L232.15333302815756,150.90459019211275L233.31409969329835,150.95773231551814L234.47486635843913,151.0569999429635L235.6356330235799,151.04771251935287L236.7963996887207,151.1455125773977L237.95716635386148,151.1756357073467L239.11793301900227,151.21321403680952L240.27869968414308,151.2097431871092L241.43946634928386,151.25427780216046L242.60023301442465,151.23274527384788L243.76099967956543,151.2735985339878L244.9217663447062,151.3057431769714L246.082533009847,151.29729114411958L247.24329967498778,151.31074060383213L248.4040663401286,151.30419803557186L249.56483300526938,151.3279712012411L250.72559967041016,151.29954968270678L251.88636633555095,151.31937231199794L253.04713300069173,151.35513797611583L254.2078996658325,151.3430801713261" fill="none"></path></g><g><path style="fill: none;" stroke="rgb(204, 51, 17)" stroke-width="2px" d="M24.37609996795654,-1.6699646910978458L25.53686663309733,6.413902171196526L26.69763329823812,10.793588064181336L27.858399963378908,16.09309487533187L29.019166628519695,18.875853097846118L30.179933293660483,18.360159752348068L31.34069995880127,21.50831524073112L32.50146662394206,23.947550175086576L33.66223328908285,29.97866834449445L34.82299995422363,31.049580952535905L35.983766619364424,33.59070703912448L37.14453328450521,38.07972038811289L38.305299949646,39.49859048542021L39.46606661478678,39.04828569404657L40.626833279927574,47.355093155542534L41.78759994506836,47.211214998568266L42.94836661020915,53.83500976092404L44.10913327534993,56.228725181043956L45.269899940490724,57.71576316427007L46.43066660563151,50.65319465504638L47.5914332707723,58.875794728054416L48.75219993591308,65.2905349420439L49.912966601053874,63.737705295501826L51.07373326619466,66.04054080919997L52.23449993133545,63.88490379923809L53.39526659647624,70.9627586333309L54.556033261617024,70.89368905579943L55.716799926757815,71.546641081021L56.8775665918986,72.32886385909137L58.03833325703939,74.62017893642042L59.199099922180174,72.32992467275335L60.359866587320965,79.62060524778079L61.52063325246175,78.87437057319306L62.68139991760254,79.7281717531055L63.842166582743324,78.31289251004398L65.00293324788412,79.7906642859327L66.1636999130249,85.88675198806851L67.3244665781657,86.42027230715613L68.48523324330647,84.84572780495333L69.64599990844727,84.24657494459905L70.80676657358805,84.9915949875438L71.96753323872885,77.45781835373717L73.12829990386963,85.83205643565685L74.28906656901042,86.5702607508234L75.4498332341512,87.54858554244728L76.610599899292,89.9689379936195L77.77136656443278,87.63501003148875L78.93213322957357,88.63711826541422L80.09289989471435,84.47038541100346L81.25366655985515,86.62656343593295L82.41443322499593,87.27766434131436L83.57519989013672,90.1020064593782L84.7359665552775,90.18216153967737L85.8967332204183,90.16226597944694L87.05749988555908,89.474545786454L88.21826655069987,86.98240277070732L89.37903321584066,88.75118755848686L90.53979988098145,91.62163263830033L91.70056654612223,88.3105202592323L92.86133321126302,92.4808651841621L94.02209987640381,91.52481217537147L95.1828665415446,90.58155788341261L96.34363320668538,92.21891846660952L97.50439987182617,92.26175412228025L98.66516653696696,94.14483627806976L99.82593320210775,91.2807136476817L100.98669986724853,91.23306189798558L102.14746653238932,88.6239270475275L103.30823319753011,91.17014503969358L104.4689998626709,89.95417677151306L105.62976652781168,89.95605971576308L106.79053319295248,90.53034710388056L107.95129985809326,95.01076786220693L109.11206652323405,94.92413121043307L110.27283318837483,91.7460077360991L111.43359985351563,96.02371761175783L112.59436651865641,90.83357538508906L113.7551331837972,93.19049648334322L114.91589984893798,88.90647476639572L116.07666651407878,93.98018738959394L117.23743317921956,94.2514003144839L118.39819984436035,93.68722248056508L119.55896650950113,89.18816853026604L120.71973317464193,90.69472018080427L121.88049983978271,90.99732788602051L123.0412665049235,95.7273846193522L124.2020331700643,92.86225421598525L125.36279983520508,92.52657034078848L126.52356650034586,94.02794522065625L127.68433316548665,94.28654507110528L128.84509983062745,91.4075710494495L130.00586649576823,94.07982961686366L131.16663316090902,91.45246998769278L132.3273998260498,91.87954826393738L133.4881664911906,91.91463467580735L134.6489331563314,88.80465256705062L135.80969982147215,95.08592120608986L136.97046648661293,93.64277438812815L138.13123315175375,92.45416980835839L139.29199981689453,96.61279274232331L140.45276648203532,94.68734699294265L141.6135331471761,94.87497310533695L142.77429981231688,94.33454158524154L143.9350664774577,93.6954278742405L145.09583314259848,93.52290244432447L146.25659980773926,96.57723957244207L147.41736647288005,92.2275322735448L148.57813313802083,94.41449511094493L149.73889980316162,94.17498460234322L150.8996664683024,95.80245309814217L152.06043313344318,91.49387354491984L153.221199798584,95.24185020626422L154.38196646372478,93.10374844613486L155.54273312886556,95.78113074353638L156.70349979400635,95.6392256999734L157.86426645914713,95.30881406867667L159.02503312428792,95.64445020725864L160.1857997894287,93.53566403267808L161.3465664545695,94.54118808659513L162.5073331197103,99.15458183745062L163.66809978485108,93.99397796719967L164.82886644999186,93.69117931552427L165.98963311513265,95.30347817595691L167.15039978027343,94.7430025817184L168.31116644541422,94.49296880158985L169.471933110555,93.21704334523426L170.6326997756958,93.72297190097379L171.7934664408366,92.5456066419527L172.95423310597738,96.03323311030579L174.11499977111816,95.06960589196862L175.27576643625895,96.64312670898761L176.43653310139973,92.9620714775092L177.59729976654052,96.16457775386377L178.75806643168133,94.97831757228698L179.9188330968221,98.09875930375082L181.0795997619629,96.85418089110672L182.24036642710368,93.73806727938376L183.40113309224446,96.39116755206257L184.56189975738525,95.04419940476421L185.72266642252603,97.87552698079219L186.88343308766682,92.7622831364803L188.04419975280763,94.70166267331106L189.2049664179484,97.7794968240415L190.3657330830892,97.15568535011451L191.52649974822998,96.19717125362808L192.68726641337076,97.30608751110995L193.84803307851155,97.96853381860623L195.00879974365233,94.54889489784941L196.16956640879314,96.41018263695355L197.33033307393393,95.9755248470941L198.4910997390747,98.30881101695937L199.6518664042155,98.01490728783966L200.81263306935628,97.88746113448946L201.97339973449706,98.08431102167467L203.13416639963785,95.05338605107696L204.29493306477863,96.74517698327003L205.45569972991944,97.73993377851798L206.61646639506023,98.19054090178528L207.777233060201,98.3151016419749L208.9379997253418,98.23497308201729L210.09876639048258,98.95382815598933L211.25953305562336,97.96590830479283L212.42029972076415,99.58265727853748L213.58106638590496,99.02403810820744L214.74183305104575,99.43963307656111L215.90259971618653,100.06408103868529L217.0633663813273,99.38602485815298L218.2241330464681,100.47479626419386L219.38489971160888,101.37814805025735L220.54566637674967,101.53835743355779L221.70643304189045,101.41467716870761L222.86719970703126,100.24642429904293L224.02796637217205,100.98574246855455L225.18873303731283,100.96425568783116L226.3494997024536,102.26697199322004L227.5102663675944,102.03983587598532L228.67103303273518,102.33809954925576L229.83179969787597,102.54206749611285L230.99256636301678,103.15213082498059L232.15333302815756,103.79278801985981L233.31409969329835,103.65246358865318L234.47486635843913,103.68809631955907L235.6356330235799,104.24386190113839L236.7963996887207,104.74890467747016L237.95716635386148,103.73818263660942L239.11793301900227,104.36341560084347L240.27869968414308,104.29131740030704L241.43946634928386,104.27306079718437L242.60023301442465,104.45832129511246L243.76099967956543,104.82070585018124L244.9217663447062,104.61509364214808L246.082533009847,104.73588849383768L247.24329967498778,104.52534350227631L248.4040663401286,104.94881501207018L249.56483300526938,105.30604401274175L250.72559967041016,105.00908514027554L251.88636633555095,104.70925676685368L253.04713300069173,104.82317754601365L254.2078996658325,104.94516050900467" fill="none"></path></g></g></g></g></g></g><g transform="translate(51, 177)" clip-path="url(#clip_1)"><clipPath id="clip_1"><rect width="278" height="22"></rect></clipPath><g><g><line x1="0" y1="0" x2="0" y2="5" style="visibility: inherit;" fill="rgb(0, 0, 0)" stroke="rgb(204, 204, 204)" stroke-width="1px"></line><line x1="23.215333302815754" y1="0" x2="23.215333302815754" y2="5" style="visibility: inherit;" fill="rgb(0, 0, 0)" stroke="rgb(204, 204, 204)" stroke-width="1px"></line><line x1="46.43066660563151" y1="0" x2="46.43066660563151" y2="5" style="visibility: inherit;" fill="rgb(0, 0, 0)" stroke="rgb(204, 204, 204)" stroke-width="1px"></line><line x1="69.64599990844727" y1="0" x2="69.64599990844727" y2="5" style="visibility: inherit;" fill="rgb(0, 0, 0)" stroke="rgb(204, 204, 204)" stroke-width="1px"></line><line x1="92.86133321126302" y1="0" x2="92.86133321126302" y2="5" style="visibility: inherit;" fill="rgb(0, 0, 0)" stroke="rgb(204, 204, 204)" stroke-width="1px"></line><line x1="116.07666651407878" y1="0" x2="116.07666651407878" y2="5" style="visibility: inherit;" fill="rgb(0, 0, 0)" stroke="rgb(204, 204, 204)" stroke-width="1px"></line><line x1="139.29199981689453" y1="0" x2="139.29199981689453" y2="5" style="visibility: inherit;" fill="rgb(0, 0, 0)" stroke="rgb(204, 204, 204)" stroke-width="1px"></line><line x1="162.5073331197103" y1="0" x2="162.5073331197103" y2="5" style="visibility: inherit;" fill="rgb(0, 0, 0)" stroke="rgb(204, 204, 204)" stroke-width="1px"></line><line x1="185.72266642252603" y1="0" x2="185.72266642252603" y2="5" style="visibility: inherit;" fill="rgb(0, 0, 0)" stroke="rgb(204, 204, 204)" stroke-width="1px"></line><line x1="208.9379997253418" y1="0" x2="208.9379997253418" y2="5" style="visibility: inherit;" fill="rgb(0, 0, 0)" stroke="rgb(204, 204, 204)" stroke-width="1px"></line><line x1="232.15333302815756" y1="0" x2="232.15333302815756" y2="5" style="visibility: inherit;" fill="rgb(0, 0, 0)" stroke="rgb(204, 204, 204)" stroke-width="1px"></line><line x1="255.3686663309733" y1="0" x2="255.3686663309733" y2="5" style="visibility: inherit;" fill="rgb(0, 0, 0)" stroke="rgb(204, 204, 204)" stroke-width="1px"></line><line x1="278.58399963378906" y1="0" x2="278.58399963378906" y2="5" style="visibility: inherit;" fill="rgb(0, 0, 0)" stroke="rgb(204, 204, 204)" stroke-width="1px"></line></g><g transform="translate(0, 8)"><text style="text-anchor: middle; visibility: hidden; font-family: &quot;Helvetica Neue&quot;, sans-serif; font-size: 12px; font-weight: 200;" x="0" y="0" dx="0em" dy="0.95em" fill="rgb(50, 49, 63)" stroke="none" stroke-width="1px">-20</text><text style="text-anchor: middle; visibility: inherit; font-family: &quot;Helvetica Neue&quot;, sans-serif; font-size: 12px; font-weight: 200;" x="23.215333302815754" y="0" dx="0em" dy="0.95em" fill="rgb(50, 49, 63)" stroke="none" stroke-width="1px">0</text><text style="text-anchor: middle; visibility: hidden; font-family: &quot;Helvetica Neue&quot;, sans-serif; font-size: 12px; font-weight: 200;" x="46.43066660563151" y="0" dx="0em" dy="0.95em" fill="rgb(50, 49, 63)" stroke="none" stroke-width="1px">20</text><text style="text-anchor: middle; visibility: inherit; font-family: &quot;Helvetica Neue&quot;, sans-serif; font-size: 12px; font-weight: 200;" x="69.64599990844727" y="0" dx="0em" dy="0.95em" fill="rgb(50, 49, 63)" stroke="none" stroke-width="1px">40</text><text style="text-anchor: middle; visibility: hidden; font-family: &quot;Helvetica Neue&quot;, sans-serif; font-size: 12px; font-weight: 200;" x="92.86133321126302" y="0" dx="0em" dy="0.95em" fill="rgb(50, 49, 63)" stroke="none" stroke-width="1px">60</text><text style="text-anchor: middle; visibility: inherit; font-family: &quot;Helvetica Neue&quot;, sans-serif; font-size: 12px; font-weight: 200;" x="116.07666651407878" y="0" dx="0em" dy="0.95em" fill="rgb(50, 49, 63)" stroke="none" stroke-width="1px">80</text><text style="text-anchor: middle; visibility: hidden; font-family: &quot;Helvetica Neue&quot;, sans-serif; font-size: 12px; font-weight: 200;" x="139.29199981689453" y="0" dx="0em" dy="0.95em" fill="rgb(50, 49, 63)" stroke="none" stroke-width="1px">100</text><text style="text-anchor: middle; visibility: inherit; font-family: &quot;Helvetica Neue&quot;, sans-serif; font-size: 12px; font-weight: 200;" x="162.5073331197103" y="0" dx="0em" dy="0.95em" fill="rgb(50, 49, 63)" stroke="none" stroke-width="1px">120</text><text style="text-anchor: middle; visibility: hidden; font-family: &quot;Helvetica Neue&quot;, sans-serif; font-size: 12px; font-weight: 200;" x="185.72266642252603" y="0" dx="0em" dy="0.95em" fill="rgb(50, 49, 63)" stroke="none" stroke-width="1px">140</text><text style="text-anchor: middle; visibility: inherit; font-family: &quot;Helvetica Neue&quot;, sans-serif; font-size: 12px; font-weight: 200;" x="208.9379997253418" y="0" dx="0em" dy="0.95em" fill="rgb(50, 49, 63)" stroke="none" stroke-width="1px">160</text><text style="text-anchor: middle; visibility: hidden; font-family: &quot;Helvetica Neue&quot;, sans-serif; font-size: 12px; font-weight: 200;" x="232.15333302815756" y="0" dx="0em" dy="0.95em" fill="rgb(50, 49, 63)" stroke="none" stroke-width="1px">180</text><text style="text-anchor: middle; visibility: inherit; font-family: &quot;Helvetica Neue&quot;, sans-serif; font-size: 12px; font-weight: 200;" x="255.3686663309733" y="0" dx="0em" dy="0.95em" fill="rgb(50, 49, 63)" stroke="none" stroke-width="1px">200</text><text style="text-anchor: middle; visibility: hidden; font-family: &quot;Helvetica Neue&quot;, sans-serif; font-size: 12px; font-weight: 200;" x="278.58399963378906" y="0" dx="0em" dy="0.95em" fill="rgb(50, 49, 63)" stroke="none" stroke-width="1px">220</text></g><line x1="0" y1="0" x2="278.58399963378906" y2="0" fill="rgb(0, 0, 0)" stroke="rgb(204, 204, 204)" stroke-width="1px"></line></g></g></g></g></svg>