<svg viewBox="0 0 330 200" xmlns="http://www.w3.org/2000/svg"><g><g><g><g><g><line x1="51.41600036621094" y1="177.9749994277954" x2="46.41600036621094" y2="177.9749994277954" style="visibility: inherit;" fill="rgb(0, 0, 0)" stroke="rgb(204, 204, 204)" stroke-width="1px"></line><line x1="51.41600036621094" y1="160.17749948501586" x2="46.41600036621094" y2="160.17749948501586" style="visibility: inherit;" fill="rgb(0, 0, 0)" stroke="rgb(204, 204, 204)" stroke-width="1px"></line><line x1="51.41600036621094" y1="142.37999954223633" x2="46.41600036621094" y2="142.37999954223633" style="visibility: inherit;" fill="rgb(0, 0, 0)" stroke="rgb(204, 204, 204)" stroke-width="1px"></line><line x1="51.41600036621094" y1="124.58249959945678" x2="46.41600036621094" y2="124.58249959945678" style="visibility: inherit;" fill="rgb(0, 0, 0)" stroke="rgb(204, 204, 204)" stroke-width="1px"></line><line x1="51.41600036621094" y1="106.78499965667724" x2="46.41600036621094" y2="106.78499965667724" style="visibility: inherit;" fill="rgb(0, 0, 0)" stroke="rgb(204, 204, 204)" stroke-width="1px"></line><line x1="51.41600036621094" y1="88.9874997138977" x2="46.41600036621094" y2="88.9874997138977" style="visibility: inherit;" fill="rgb(0, 0, 0)" stroke="rgb(204, 204, 204)" stroke-width="1px"></line><line x1="51.41600036621094" y1="71.18999977111817" x2="46.41600036621094" y2="71.18999977111817" style="visibility: inherit;" fill="rgb(0, 0, 0)" stroke="rgb(204, 204, 204)" stroke-width="1px"></line><line x1="51.41600036621094" y1="53.39249982833863" x2="46.41600036621094" y2="53.39249982833863" style="visibility: inherit;" fill="rgb(0, 0, 0)" stroke="rgb(204, 204, 204)" stroke-width="1px"></line><line x1="51.41600036621094" y1="35.594999885559076" x2="46.41600036621094" y2="35.594999885559076" style="visibility: inherit;" fill="rgb(0, 0, 0)" stroke="rgb(204, 204, 204)" stroke-width="1px"></line><line x1="51.41600036621094" y1="17.797499942779524" x2="46.41600036621094" y2="17.797499942779524" style="visibility: inherit;" fill="rgb(0, 0, 0)" stroke="rgb(204, 204, 204)" stroke-width="1px"></line><line x1="51.41600036621094" y1="0" x2="46.41600036621094" y2="0" style="visibility: inherit;" fill="rgb(0, 0, 0)" stroke="rgb(204, 204, 204)" stroke-width="1px"></line></g><g transform="translate(41.41600036621094, 0)"><text style="text-anchor: end; visibility: hidden; font-family: &quot;Helvetica Neue&quot;, sans-serif; font-size: 12px; font-weight: 200;" x="0" y="177.9749994277954" dx="0em" dy="0.3em" fill="rgb(50, 49, 63)" stroke="none" stroke-width="1px">-0.5</text><text style="text-anchor: end; visibility: inherit; font-family: &quot;Helvetica Neue&quot;, sans-serif; font-size: 12px; font-weight: 200;" x="0" y="160.17749948501586" dx="0em" dy="0.3em" fill="rgb(50, 49, 63)" stroke="none" stroke-width="1px">0</text><text style="text-anchor: end; visibility: hidden; font-family: &quot;Helvetica Neue&quot;, sans-serif; font-size: 12px; font-weight: 200;" x="0" y="142.37999954223633" dx="0em" dy="0.3em" fill="rgb(50, 49, 63)" stroke="none" stroke-width="1px">0.5</text><text style="text-anchor: end; visibility: inherit; font-family: &quot;Helvetica Neue&quot;, sans-serif; font-size: 12px; font-weight: 200;" x="0" y="124.58249959945678" dx="0em" dy="0.3em" fill="rgb(50, 49, 63)" stroke="none" stroke-width="1px">1</text><text style="text-anchor: end; visibility: hidden; font-family: &quot;Helvetica Neue&quot;, sans-serif; font-size: 12px; font-weight: 200;" x="0" y="106.78499965667724" dx="0em" dy="0.3em" fill="rgb(50, 49, 63)" stroke="none" stroke-width="1px">1.5</text><text style="text-anchor: end; visibility: inherit; font-family: &quot;Helvetica Neue&quot;, sans-serif; font-size: 12px; font-weight: 200;" x="0" y="88.9874997138977" dx="0em" dy="0.3em" fill="rgb(50, 49, 63)" stroke="none" stroke-width="1px">2</text><text style="text-anchor: end; visibility: hidden; font-family: &quot;Helvetica Neue&quot;, sans-serif; font-size: 12px; font-weight: 200;" x="0" y="71.18999977111817" dx="0em" dy="0.3em" fill="rgb(50, 49, 63)" stroke="none" stroke-width="1px">2.5</text><text style="text-anchor: end; visibility: inherit; font-family: &quot;Helvetica Neue&quot;, sans-serif; font-size: 12px; font-weight: 200;" x="0" y="53.39249982833863" dx="0em" dy="0.3em" fill="rgb(50, 49, 63)" stroke="none" stroke-width="1px">3</text><text style="text-anchor: end; visibility: hidden; font-family: &quot;Helvetica Neue&quot;, sans-serif; font-size: 12px; font-weight: 200;" x="0" y="35.594999885559076" dx="0em" dy="0.3em" fill="rgb(50, 49, 63)" stroke="none" stroke-width="1px">3.5</text><text style="text-anchor: end; visibility: inherit; font-family: &quot;Helvetica Neue&quot;, sans-serif; font-size: 12px; font-weight: 200;" x="0" y="17.797499942779524" dx="0em" dy="0.3em" fill="rgb(50, 49, 63)" stroke="none" stroke-width="1px">4</text><text style="text-anchor: end; visibility: hidden; font-family: &quot;Helvetica Neue&quot;, sans-serif; font-size: 12px; font-weight: 200;" x="0" y="0" dx="0em" dy="0.3em" fill="rgb(50, 49, 63)" stroke="none" stroke-width="1px">4.5</text></g><line x1="51.41600036621094" y1="0" x2="51.41600036621094" y2="177.9749994277954" fill="rgb(0, 0, 0)" stroke="rgb(204, 204, 204)" stroke-width="1px"></line></g></g><g transform="translate(51, 0)" clip-path="url(#clip_0)"><clipPath id="clip_0"><rect width="278" height="177"></rect></clipPath><g><g><g><line x1="0" y1="0" x2="0" y2="177.9749994277954" fill="rgb(0, 0, 0)" stroke="rgb(60, 60, 60)" stroke-width="1px" opacity="0.25"></line><line x1="27.858399963378908" y1="0" x2="27.858399963378908" y2="177.9749994277954" fill="rgb(0, 0, 0)" stroke="rgb(60, 60, 60)" stroke-width="1px" opacity="0.25"></line><line x1="55.716799926757815" y1="0" x2="55.716799926757815" y2="177.9749994277954" fill="rgb(0, 0, 0)" stroke="rgb(60, 60, 60)" stroke-width="1px" opacity="0.25"></line><line x1="83.57519989013672" y1="0" x2="83.57519989013672" y2="177.9749994277954" fill="rgb(0, 0, 0)" stroke="rgb(60, 60, 60)" stroke-width="1px" opacity="0.25"></line><line x1="111.43359985351563" y1="0" x2="111.43359985351563" y2="177.9749994277954" fill="rgb(0, 0, 0)" stroke="rgb(60, 60, 60)" stroke-width="1px" opacity="0.25"></line><line x1="139.29199981689453" y1="0" x2="139.29199981689453" y2="177.9749994277954" fill="rgb(0, 0, 0)" stroke="rgb(60, 60, 60)" stroke-width="1px" opacity="0.25"></line><line x1="167.15039978027343" y1="0" x2="167.15039978027343" y2="177.9749994277954" fill="rgb(0, 0, 0)" stroke="rgb(60, 60, 60)" stroke-width="1px" opacity="0.25"></line><line x1="195.00879974365233" y1="0" x2="195.00879974365233" y2="177.9749994277954" fill="rgb(0, 0, 0)" stroke="rgb(60, 60, 60)" stroke-width="1px" opacity="0.25"></line><line x1="222.86719970703126" y1="0" x2="222.86719970703126" y2="177.9749994277954" fill="rgb(0, 0, 0)" stroke="rgb(60, 60, 60)" stroke-width="1px" opacity="0.25"></line><line x1="250.72559967041016" y1="0" x2="250.72559967041016" y2="177.9749994277954" fill="rgb(0, 0, 0)" stroke="rgb(60, 60, 60)" stroke-width="1px" opacity="0.25"></line><line x1="278.58399963378906" y1="0" x2="278.58399963378906" y2="177.9749994277954" fill="rgb(0, 0, 0)" stroke="rgb(60, 60, 60)" stroke-width="1px" opacity="0.25"></line></g><g><line x1="0" y1="177.9749994277954" x2="278.58399963378906" y2="177.9749994277954" fill="rgb(0, 0, 0)" stroke="rgb(60, 60, 60)" stroke-width="1px" opacity="0.25"></line><line x1="0" y1="160.17749948501586" x2="278.58399963378906" y2="160.17749948501586" fill="rgb(0, 0, 0)" stroke="rgb(60, 60, 60)" stroke-width="1px" opacity="0.25"></line><line x1="0" y1="142.37999954223633" x2="278.58399963378906" y2="142.37999954223633" fill="rgb(0, 0, 0)" stroke="rgb(60, 60, 60)" stroke-width="1px" opacity="0.25"></line><line x1="0" y1="124.58249959945678" x2="278.58399963378906" y2="124.58249959945678" fill="rgb(0, 0, 0)" stroke="rgb(60, 60, 60)" stroke-width="1px" opacity="0.25"></line><line x1="0" y1="106.78499965667724" x2="278.58399963378906" y2="106.78499965667724" fill="rgb(0, 0, 0)" stroke="rgb(60, 60, 60)" stroke-width="1px" opacity="0.25"></line><line x1="0" y1="88.9874997138977" x2="278.58399963378906" y2="88.9874997138977" fill="rgb(0, 0, 0)" stroke="rgb(60, 60, 60)" stroke-width="1px" opacity="0.25"></line><line x1="0" y1="71.18999977111817" x2="278.58399963378906" y2="71.18999977111817" fill="rgb(0, 0, 0)" stroke="rgb(60, 60, 60)" stroke-width="1px" opacity="0.25"></line><line x1="0" y1="53.39249982833863" x2="278.58399963378906" y2="53.39249982833863" fill="rgb(0, 0, 0)" stroke="rgb(60, 60, 60)" stroke-width="1px" opacity="0.25"></line><line x1="0" y1="35.594999885559076" x2="278.58399963378906" y2="35.594999885559076" fill="rgb(0, 0, 0)" stroke="rgb(60, 60, 60)" stroke-width="1px" opacity="0.25"></line><line x1="0" y1="17.797499942779524" x2="278.58399963378906" y2="17.797499942779524" fill="rgb(0, 0, 0)" stroke="rgb(60, 60, 60)" stroke-width="1px" opacity="0.25"></line><line x1="0" y1="0" x2="278.58399963378906" y2="0" fill="rgb(0, 0, 0)" stroke="rgb(60, 60, 60)" stroke-width="1px" opacity="0.25"></line></g></g></g><g><g><line x1="0" y1="160.17749948501586" x2="278.58399963378906" y2="160.17749948501586" fill="rgb(0, 0, 0)" stroke="rgb(153, 153, 153)" stroke-width="1.5px"></line></g></g><g><g><line x1="27.858399963378908" y1="0" x2="27.858399963378908" y2="177.9749994277954" fill="rgb(0, 0, 0)" stroke="rgb(153, 153, 153)" stroke-width="1.5px"></line></g></g><g><g><g><g><g><path style="fill: none;" stroke="rgb(0, 153, 136)" stroke-width="2px" d="M28.109125563049318,8.459029978735344L28.443426362609863,2.534360217052466L28.48521396255493,5.693022003943753L28.638435162353517,8.62923540917265L28.84737316207886,5.311281842798508L29.156601401672365,10.692339765027356L30.00628260055542,10.048587115882498L30.036926840515136,14.204685313331908L30.162289640350345,24.3337584833761L31.025900039215088,20.83745243764068L31.095546039123533,11.01956259045619L31.37691587875366,8.69831559484075L31.44656187866211,19.014355051181468L31.544066278533936,12.260154465358568L31.627641478424074,10.939348104591971L32.1151634777832,7.3105506757299565L32.143021877746584,15.741609119826279L32.24331211761474,6.8065538616689025L32.64725891708374,14.55478776782229L32.92584291671753,13.74719457021203L33.666876355743405,11.18515135983651L33.680805555725094,20.026150635468156L33.95938955535888,20.387294038552426L34.2101151550293,27.31827709951685L34.3939805947876,19.80249716948569L35.25759099365234,32.079701032019585L35.62253603317261,21.428351106891114L35.84540323287964,35.63757670269629L35.942907632751464,24.240848179605308L35.95683683273315,19.750933139004218L36.416500432128906,17.866885642782307L36.600365871887206,31.203995110800946L36.711799471740726,20.251144969919324L36.78144547164917,25.74761093206226L36.80930387161255,32.295419611810445L36.97645427139282,18.57891225921216L37.115746271209716,34.933883838394905L37.703558510437006,37.40557967080693L37.814992110290525,34.437440017607145L37.926425710144045,31.854519994363926L38.28858490966797,33.639877873984545L38.41394770950318,33.091827590168805L38.469664509429926,24.870861170200214L38.49752290939331,23.611157676363604L38.692531709136965,29.487615578736865L38.72039010910034,24.510057227487778L38.80675114898682,34.30835172470822L38.91818474884033,35.418718114465975L39.001759948730474,22.781737176844445L39.391777548217775,40.82126387823192L40.39746578689575,42.73994481889011L40.857129386291504,33.28449681071217L40.89891698623657,41.24303490372563L41.12457002593994,43.671458025238195L41.24993282577515,26.193670347160634L41.263862025756836,33.4049967562037L41.34743722564697,48.81603087942929L41.431012425537105,25.33944378096976L41.68173802520752,53.43362545238624L41.72352562515258,39.22804905557828L41.84888842498779,47.99905160253783L42.52027586410522,43.29499647287494L42.56206346405029,54.45209991948873L42.64563866394043,39.09182360836152L42.729213863830566,50.927364067612274L42.9381518635559,49.46082736921758L43.02172706344605,30.166986107396355L43.091373063354496,57.06725170503755L43.80454810241699,46.2285620872035L43.87419410232544,42.63373615505273L43.888123302307136,48.352438336125715L44.13884890197754,64.4548938312109L44.30878514175415,39.94522698315072L44.489864741516115,43.5732266801389L45.019174340820314,51.77060060426507L45.255970740509035,48.274854668143206L45.52341138015747,42.03723638966707L46.0109333795166,53.15020150143323L46.052720979461675,59.27758851066574L46.24772977920532,47.776263760503554L46.30344657913208,59.441590302807754L46.96090481826782,73.15437207782516L47.058409218139644,52.659460614892254L47.36485161773682,66.38594810242243L47.52085865753174,37.40913551820191L47.66015065734864,55.513193636274906L48.07802665679932,62.99313503754975L48.2312478565979,62.86133954818543L48.342681456451416,43.85195759145131L48.42625665634156,65.92551254057689L48.86084769577026,68.89257440709612L49.26479449523926,60.68690067687862L49.48766169494629,61.89867236621235L49.69938553466797,59.16962313940412L49.75510233459473,64.2920462043331L49.991898734283446,46.32996738677943L50.47942073364258,63.7842728936354L50.5908543334961,66.31539975064615L51.053303772888185,58.41278775389223L51.178666572723394,75.09212220487112L51.26224177261353,60.83827454318843L51.33188777252197,70.93100848042786L51.4293921723938,73.5836112314992L51.554754972229006,56.16621355357083L51.74976377197266,83.67856014766485L51.77762217193604,56.243686896932516L51.819409771881105,71.58907787075482L51.93362921173096,65.34287973138062L52.42115121109009,63.84288072683243L52.755452010650636,66.70609317909853L53.03682185028076,54.90847892989086L53.28754744995118,77.76221565160117L53.41291024978638,64.16219412559754L53.593989849548336,73.93276319694846L53.63577744949341,60.31290021221116L53.74721104934692,65.47413208415L54.29323568862915,63.227744587033115L54.53003208831787,71.61480048043049L54.669324088134765,71.33699459863132L54.71111168807984,61.066485264662745L54.98969568771363,57.72100994864222L55.2014195274353,71.29118442145241L55.452145127105716,73.41288812399489L55.619295526885985,70.87719552498297L55.85609192657471,67.92344899154891L55.93966712646485,74.94713019355177L56.443904165802,64.98525822965412L56.48569176574707,65.4120023495952L56.49962096572876,74.33074653688595L56.61105456558228,77.63269454672813L56.666771365509035,60.300900288066856L56.76427576538086,75.28639537567138L57.49138000442505,80.69355780049423L57.58888440429687,62.67015546676885L57.71424720413208,68.9019944324145L58.02068960372925,71.9442722308227L58.076406403656,72.58002210170162L58.18784000350952,81.16670615326493L58.29927360336304,68.92097875370928L58.35499040328979,62.98769518509111L58.62243104293823,83.45909053076525L58.692077042846684,66.6959602869993L58.706006242828366,66.0532599650071L58.77565224273682,74.71560124694278L58.94280264251709,74.24000029298558L58.98459024246216,81.46644117508454L59.05423624237061,72.96827990198608L59.318891042022706,97.9379664729363L59.530614881744384,79.93480446388148L59.669906881561275,71.63267306900752L59.83705728134156,83.29215240640687L60.19921648086548,84.50921119103191L60.32457928070069,87.51050763605053L60.80095792007446,85.21807233949444L60.81488712005615,90.17604807054339L60.842745520019534,88.44566155488651L61.45563031921387,93.80985678314455L61.56706391906739,94.88384575080575L61.681283358917234,79.66695325748633L61.70914175888062,69.52535399972149L61.778787758789065,69.31723933225972L62.127017758331306,77.95139691682394L62.14094695831299,85.98488785993823L62.280238958129885,59.00855767947846L62.30809735809326,79.46232654534515L62.37774335800171,82.80080049119661L62.57275215774536,71.39901400856529L62.6563273576355,81.25677347642163L62.77054679748535,73.01093309770695L62.97948479721069,75.59754475249387L63.06305999710083,65.56860390563125L63.71773239624024,90.20363346900949L63.80130759613037,80.15799965836194L64.02696063583375,84.8631750072519L64.11053583572388,73.91848888831287L64.89057103469848,99.14952175628298L64.94907367462157,88.54688015125794L65.13015327438355,88.70987204879376L65.64553367370605,93.58279598367983L65.8405424734497,79.1494544071356L66.3169211128235,84.02409686015407L67.46190135131836,103.17429970888863L67.71262695098876,96.83408801953517L67.7962021508789,91.28205239452312L68.13050295043945,87.65284336996028L68.77403198959351,83.5676075251311L68.88546558944702,90.9283346870727L69.37577342880249,89.15465000098847L69.59864062850951,98.77537277770284L69.6404282284546,98.48100971626751L69.75186182830811,88.19487671868528L69.79364942825316,74.20248992189799L70.18366702774047,99.97255191430237L70.59039966720582,88.67374497872137L71.37043486618042,87.35300651002913L71.44286670608521,90.5736452743079L71.66573390579224,88.8371272556848L71.91645950546264,110.09182740936454L71.93038870544433,88.39532806825291L72.40398150482179,85.80720581481133L72.53213014465331,107.0181028507606L72.57391774459839,91.39997668444339L72.58784694458008,107.11304143025312L72.61570534454346,89.39802187131978L72.62963454452515,99.87282694356702L72.97786454406739,104.79224846288498L73.43752814346314,89.08960939374519L73.98355278274535,90.09744177819071L74.41535798217774,89.53326288345822L74.780303021698,97.4706016762507L74.84994902160643,93.5562713988757L75.15639142120362,107.93033046473387L75.42104622085571,96.46468724290605L75.62998422058105,96.38880512003733L75.84170806030274,96.87458139864025L76.24565485977172,97.16218495542147L76.28744245971679,85.84723667915978L76.63567245925903,102.57736288827424L77.22348469848633,100.73145800808244L77.50206869812011,96.6666364613644L77.75279429779053,95.62714515399078L77.78065269775391,73.38139468799804L77.80851109771729,104.86591560682747L77.89208629760742,94.31883093490762L78.27096053710937,107.38345980571025L78.46596933685304,99.21403195669528L79.23486117584228,94.55186623691661L79.29057797576904,105.93002203441368L79.44379917556762,94.97485931974893L79.875604375,99.11755731902021L79.98703797485351,99.11928856691657L80.15697421463013,106.18042497769659L80.22662021453858,109.04472794640719L80.4494874142456,102.9098685657397L80.51913341415406,94.8619590433318L80.54699181411743,110.95282196671884L80.68628381393432,90.66594879266405L80.74200061386108,110.34845520721593L81.14594741333008,96.41318261798962L81.30195445312499,110.33560238888741L82.02627285217285,116.48975584843897L82.17949405197143,96.5882762777813L82.4051470916748,107.15225334645451L82.79516469116211,83.30422870913485L83.15732389068603,105.24884387927416L83.3244742904663,99.90002620586017L83.46655213027954,110.11671834112921L83.50833973022462,101.62042834333049L84.30230412918091,97.82718358058845L84.37195012908936,107.47323434429624L84.51402796890258,92.75743627885872L85.53085956756593,86.27705291546594L85.67293740737915,95.63607296176998L85.68686660736084,107.72689610714876L85.71472500732422,94.83986441638008L85.78437100723266,120.8342969848024L85.79830020721435,107.4611156090218L86.1465302067566,108.68246008084122L86.21617620666504,112.63827241565427L86.2579638066101,96.63905530615294L86.36939740646362,103.34691955122058L86.6479814060974,106.97687538860144L86.67862564605714,110.94305399451935L86.69255484603883,109.17212318070163L86.90149284576415,125.23794878003865L87.20793524536133,106.08943262502665L87.3890148451233,99.37146519064231L87.41687324508668,102.0055291621569L87.59795284484863,100.98295146780988L88.10218988418579,94.61337645629283L88.43649068374634,86.465037582878L88.53399508361817,110.91091134056137L88.6175702835083,111.87416409167587L88.9407277230835,85.74720619408977L88.98251532302857,107.45080450022736L89.80433812194823,115.48169008498783L90.02999116165161,127.88883513460492L90.3225043612671,116.83589934634286L90.36429196121216,114.8861153491154L90.9911059603882,105.84916257384295L91.03289356033325,99.59047653603993L91.24461740005493,115.81088602382792L91.6764225994873,115.76645066115493L92.0664401989746,109.8783322950092L92.16673043884278,120.64723734690361L92.22244723876953,107.47558935062584L92.33388083862305,110.50063104865421L92.48710203842164,98.1687358769633L92.84926123794556,101.2338508718866L92.918907237854,110.93282350756321L93.14177443756104,100.88178379049423L93.35349827728271,118.72084641255012L93.46493187713624,102.57093435748264L93.59029467697144,94.86478929418195L93.71565747680664,121.93977938846044L93.86887867660523,92.0271551809335L93.88280787658692,106.83269383891984L94.04995827636719,109.46357961270314L94.07781667633057,102.51150333288389L94.5959829156494,110.17609844667219L94.7631333154297,104.14732891871192L95.02778811508179,110.03583766428527L95.34815971466065,123.60205318050893L95.6156003543091,104.15121998322407L96.28420195343017,106.78625141679838L96.40956475326537,114.86455961550398L96.45135235321045,120.88116797564331L97.17845659225463,107.28408278185601L97.22024419219971,102.63779532096987L97.4988281918335,114.87596972725223L97.52668659179687,94.79524659375723L97.54061579177856,93.79349479322218L97.87770243133545,132.18627402274913L98.26772003082276,100.59903876028488L98.54630403045654,113.87884307428341L98.65773763031007,103.77679519309181L99.07839946975709,101.47680690326241L99.3151958694458,109.72008435616976L99.5659214691162,112.87004747103283L99.67735506896973,114.38296718598392L100.09801690841675,107.22918779647591L100.79447690750122,114.92672753935062L101.18728034698486,114.08798885262463L101.34050154678344,114.44676027636072L101.56336874649048,102.95155005614619L101.75837754623413,102.3140307480791L102.03974738586426,114.9671148370895L102.59691538513184,100.5764052399929L102.903357784729,104.70284308745336L102.97300378463746,114.5731074267571L103.47724082397461,114.05210789132184L103.63046202377319,123.53760662891636L103.90904602340697,117.09187792623314L103.93690442337035,119.57432616592298L104.37149546279906,103.9047887262916L104.70579626235963,101.71217175207312L104.8729466621399,115.8598446959556L104.90080506210327,118.96590285497666L104.98438026199341,107.03507586935227L105.48861730133056,115.26317520038401L105.87863490081787,115.65987707741783L105.90649330078125,114.6500503632878L105.962210100708,125.45482152509372L106.17114810043336,108.79220337580033L106.73110193969727,111.02861498123995L106.77288953964234,107.35242464121539L107.49999377868653,129.0191872537544L107.54178137863158,110.72030009852226L107.68107337844849,111.78039665046617L107.93179897811889,120.60163084594778L107.94572817810058,122.1186537881434L108.18252457778931,122.87026997043836L108.22431217773438,114.30711476589775L108.68676161712646,116.62122885045005L108.71462001708984,128.27576267455726L108.81212441696167,122.81767907233207L109.3135756163025,113.21539748031755L109.59494545593263,131.9464877025953L109.92924625549317,125.53330900631626L109.9988922554016,116.33671862630717L110.08246745529175,119.77078461286692L110.45855585479737,131.3246132744151L110.7259964944458,128.4908532526602L110.79564249435425,115.13996381517242L111.00458049407959,121.96252323337328L111.07422649398804,113.37775713291082L111.67318209320068,118.09716860114455L112.01026873275757,104.75906621153827L112.03812713272096,105.16951199037669L112.26099433242798,119.86791271175775L112.28885273239135,122.35768056571526L112.3724279322815,110.22585485067366L112.40028633224487,101.29279392220083L112.65101193191529,112.29638065890761L112.96024017150879,115.73333630188259L113.085602971344,127.81459727291227L113.3502577709961,111.3162821868409L113.50347897079469,123.36151580428243L113.53133737075805,121.58054969322238L113.6149125706482,120.28104871404295L113.79599217041016,105.81777946246696L114.03557441009521,128.5249287091103L114.5788132093811,116.62966019743547L114.89918480895996,121.4354303842636L114.95490160888671,97.47389019860283L114.9688308088684,113.83921107587186L115.2919882484436,114.68203177356915L115.44520944824218,118.26843060198914L115.59843064804076,121.1204196457115L115.6959350479126,133.77842591011347L115.77951024780275,124.63359050704504L116.10266768737793,130.5244839617305L116.92449048629761,101.1683307768681L117.41479832565308,117.82267670122539L117.42872752563477,119.72490230035899L117.48444432556151,117.53100386323683L117.76302832519531,131.69554162271746L117.776957525177,134.77851859808118L117.79088672515869,127.61294508227928L117.9023203250122,120.90454830875333L118.50406176422119,124.24613680351635L118.60156616409301,108.80514954573111L118.64335376403808,120.39482310091758L118.90800856369019,115.98518619500044L119.64904200271606,124.8832190563547L119.77440480255126,119.99972941739532L119.80226320251464,115.95902228684137L119.85798000244141,127.64445124804007L119.94155520233154,112.68788030574308L119.98334280227661,126.21669577550001L120.08084720214843,101.42841682725758L120.19228080200195,115.22230417161526L120.23406840194701,122.07813494951044L120.4012188017273,121.92104117593524L120.76616384124756,127.57127844326405L120.8218806411743,130.2809911586417L120.97510184097291,119.51817517716708L121.12832304077149,124.91249539179802L122.06436527954101,114.04736393262547L122.25937407928465,135.11025412482806L122.37080767913818,118.82367744568776L122.56581647888184,108.09350906547421L122.57974567886353,130.6710035447231L122.9307615184021,124.21319217442992L123.12577031814574,128.60711206513116L123.474000317688,133.82175166169603L123.86680375717164,112.69070207008394L123.9085913571167,114.6704094990885L124.27075055664062,126.3444771459674L124.52147615631104,121.70385443003622L124.5771929562378,115.48037043279233L124.91427959579468,125.31444829645864L125.63859799484253,122.72406014503505L125.84753599456786,99.8362797912845L125.94782623443604,117.0209264652653L125.96175543441773,119.18771050518725L126.26819783401488,123.18899780006204L126.5189234336853,105.78756324611913L127.06494807296754,121.29167740330145L127.35746127258301,114.72643743345961L127.66390367218018,113.98890885659576L127.78926647201538,133.61847854778753L128.51637071105958,124.54193408502269L128.66959191085814,117.27135911133075L128.92031751052858,118.38154728439333L129.05960951034547,118.51767513675318L129.07353871032714,124.1031900409373L129.32705014999388,130.32672071398233L129.64742174957277,111.96469817284382L129.91207654922485,128.6706441953471L130.31880918869018,125.43864411674853L130.4441719885254,120.29980389958675L130.48595958847045,125.45458814608808L130.5834639883423,125.00124730601387L130.72275598815918,123.59450443049029L130.76454358810423,126.3929690600838L130.8341895880127,120.15508345656488L130.97348158782958,128.8748550685328L131.30778238739012,118.77012757203104L131.42200182724,120.38290379861158L131.6866566268921,131.0508002952396L131.92345302658083,110.78619359994978L132.7759200654602,132.05370838266623L133.26344206481934,122.2426629052288L133.50023846450807,126.77392846237385L133.6283871043396,130.87587424400652L133.69803310424805,114.46837541553721L133.85125430404662,136.55316438134315L133.93482950393675,129.01866745506004L134.0323339038086,130.92877065644748L134.283059503479,106.31613274784628L134.35270550338745,119.82383378247519L134.42235150329589,130.67815767205948L134.66193374298095,112.16989772436249L134.81515494277954,133.70815761314395L134.85694254272462,131.82482722695755L135.1355265423584,136.475419469684L135.24696014221192,124.05502061417414L135.3862521420288,118.57412315333443L135.8626307814026,126.3771883960482L135.93227678131103,132.04782298846956L136.78195798019408,134.68327450425403L136.7847438201904,123.10510441241806L137.2304782196045,123.99495734463287L137.82943381881714,127.70952792294786L137.9297240586853,119.26705512384868L138.04115765853882,129.55066338491537L138.0550868585205,125.25805544218781L138.52867965789795,115.86719825626044L138.68190085769652,120.24315645003705L138.84905125747682,125.9899892877984L139.07470429718018,137.83062377425398L139.91045629608155,119.13009135032318L140.23361373565675,120.51145319817024L140.65148973510742,116.65038000988125L140.70720653503417,122.08839513924912L140.90221533477782,126.86426735382801L141.13901173446655,118.67039411478638L141.21144357437132,136.06318091575685L141.7964699736023,119.79217061629242L142.0193371733093,117.40988864582133L142.1725583731079,119.48593068509756L142.28677781295778,127.32593133789413L142.39821141281126,128.31743567845444L142.67679541244507,130.4773817135113L142.70465381240845,129.49594237297583L142.7464414123535,124.12941335466144L142.77429981231688,124.24948048817892L142.85787501220705,133.6660624054093L143.13645901184083,125.3840397943118L143.17824661178588,126.91109591212243L143.24789261169434,118.39818084261317L143.3621120515442,133.44385164600715L144.33715605026245,112.69137674757296L144.6045966899109,131.60387883581313L144.6185258898926,129.4742635849796L144.64638428985597,133.51040921678705L144.84139308959962,122.97537114481263L144.89710988952638,129.38833555673196L145.02247268936156,134.3401012846037L145.03640188934327,114.00174470190571L145.10604788925173,124.76766462415529L145.17569388916016,136.70095906235744L145.38463188888548,101.38216535159528L145.80529372833252,127.1710313269719L145.97244412811278,132.71650263704362L146.06994852798462,120.72123122145399L146.13959452789308,128.13799056102135L146.3346033276367,120.14968179339807L146.45996612747194,131.82532368775134L146.8109819670105,120.91434598373537L146.90848636688233,131.02183371738562L146.92241556686403,128.9090366063491L147.04777836669922,122.66321611663857L147.5770879660034,112.24504152092244L147.67737820587158,137.73134858851128L147.69130740585328,123.73584724281243L147.74702420578004,111.70951732482736L148.19275860519411,128.37785750301347L148.83628764434812,123.25252356539602L148.8920044442749,132.57000851357893L149.21237604385377,135.9053509375002L149.46310164352417,138.92853196836546L149.50488924346925,127.80821117466715L149.79740244308474,129.99525251227828L149.93948028289796,139.11582710689723L150.2737810824585,129.47881871884417L150.3712854823303,127.11474879732192L150.60808188201904,116.65639270171735L150.6359402819824,130.82670765240113L150.67772788192747,135.46939895497314L150.9590977215576,120.68985235333264L150.986956121521,118.12653616656277L151.05660212142945,117.59598930816969L151.20982332122804,135.74618009077486L151.37697372100828,126.48838924897885L151.613770120697,129.5384173520015L151.86449572036744,135.16274106319548L151.94807092025755,117.08028959778967L152.0762195600891,130.97536159248162L152.32694515975953,139.68687370927736L152.3408743597412,133.0669318221419L152.71696275924683,135.86332362183992L152.82839635910034,123.19680114535956L152.96768835891723,111.27613251136229L153.12090955871582,120.68357233645372L153.40227939834594,115.27062635554576L153.65300499801634,121.0579462075302L154.09873939743042,127.23738522152871L154.19624379730223,127.16391326730002L154.90941883636475,126.13105628856842L154.93727723632813,134.81041938652422L155.07656923614502,131.00481826624747L155.17407363601686,127.70586387255938L155.5390186755371,128.4803596839159L155.8315318751526,123.52138466639738L155.97082387496948,130.72537236652687L156.1936910746765,119.50724879644869L156.2215494746399,116.38237604631877L156.3190538745117,134.39982509377313L156.7536449139404,136.70974259947863L156.8232909138489,142.43310387415502L156.97651211364746,126.42080481057414L157.0461581135559,131.7332068725997L157.6339703527832,128.37159233752584L157.67575795272828,127.64675957856853L157.95434195236206,128.9541636195297L158.0379171522522,137.19662636754464L158.05184635223387,138.92277387180826L158.4140055517578,130.38872739415234L158.51150995162965,132.73128401460966L159.37790619049073,134.55073220207166L159.50326899032592,122.29772762079483L159.60077339019773,131.39811493142633L159.6425609901428,136.2973321937382L159.72892203002928,130.76002702723642L159.77070962997436,136.3115258805355L160.07715202957152,126.52382042528896L160.23037322937012,116.43600229855915L160.3835944291687,124.38218827729254L160.55074482894898,121.42965107143314L160.56467402893065,127.62643438880501L160.60646162887573,128.50717493166343L160.92961906845093,139.4594628413042L161.01319426834107,141.2641296512002L161.3335658679199,126.62676178304744L161.47285786773682,141.48908791798686L161.58429146759033,137.21996426810819L162.42282930648804,125.22438945981123L162.54819210632323,109.47543102293479L162.67355490615844,127.7966058732051L163.14993354553224,124.53207276122093L163.53995114501953,114.6971250303518L163.5817387449646,139.435970061946L164.1277633842468,140.78678896283733L164.46206418380737,137.08206273530553L165.35631882263183,142.16019682984688L165.94134522186278,135.9419744683664L166.43165306121824,138.72365066094542L166.50129906112673,130.92284282970434L166.5152282611084,137.55260148646775L166.54308666107178,124.78734059595769L166.73809546081546,122.09627486313029L166.9052458605957,131.4549448409259L167.22561746017456,129.007357059796L167.29804930007936,123.7730096670189L167.5069872998047,138.67688999472537L167.5905624996948,141.53449922922889L167.7298544995117,119.8018919126908L168.06415529907227,126.95152352078047L168.30095169876097,132.23049510106242L168.59625073837282,130.62172875012416L169.02805593780516,120.69681977746453L169.125560337677,141.59263606116L169.27878153747557,139.1641492908277L169.54622217712404,136.2049438102891L169.64372657699585,135.4796655095938L169.71337257690428,143.6022520705504L170.29839897613525,138.77313125339478L170.78870681549074,140.60795699570085L171.17872441497803,129.97555532420265L171.2065828149414,122.44260082098404L171.2205120149231,143.5960972296836L171.24837041488647,135.47265140966078L171.3319456147766,125.41741087049036L171.45730841461182,122.21991481706132L171.54088361450195,133.16068865521498L171.61052961441038,140.49481061051412L172.00333305389404,133.07136177999433L172.1983418536377,136.38136348715827L172.35156305343628,128.20288053272463L172.49085505325317,133.17656267085283L172.54657185317993,118.4851505898769L172.5605010531616,148.6926141641734L172.93937529266358,142.5278281692878L173.06473809249877,131.23896954422884L173.38510969207766,128.40736297420779L173.39903889205934,135.42429952294776L173.56618929183958,129.36338309777489L173.9868511312866,140.84012879538898L174.11221393112183,141.20907342214346L174.34901033081053,141.43817947034847L174.41865633071902,129.9576891005076L174.5440191305542,138.97843900790696L174.65545273040772,136.12988912207675L174.76688633026123,136.10238434544894L174.9925393699646,133.0357778465169L175.4104153694153,138.97534143201398L175.54970736923218,132.30929021824693L176.05394440856932,133.6571727869219L176.17930720840454,128.62611548107188L176.19323640838624,138.40718024279442L176.27681160827638,140.96045052418535L176.4996788079834,134.1215015349069L176.5971832078552,126.85843712194178L176.98720080734253,140.10682225689982L177.00113000732424,130.4307398584214L177.11534944717405,142.86985783181052L177.1849954470825,132.7697724558936L177.3382166468811,144.75384592246738L177.46357944671632,138.68142603394398L177.65858824645994,130.74652711257406L178.17675448577882,143.56576856708762L178.2185420857239,138.33061707755473L178.34390488555908,142.8448205077605L178.6921348851013,139.01479945698497L178.74785168502808,141.68268004641612L178.87321448486327,138.47088634645092L179.06822328460694,145.43483737440238L179.15179848449708,134.65581428180002L179.17965688446043,140.96255730011802L179.64210632385252,145.81034631609717L179.72568152374268,130.89369167027314L179.8092567236328,143.22583082910631L179.8371151235962,142.8590948163961L179.85104432357787,130.2134597609201L179.99033632339479,138.4471432150685L180.05998232330322,129.90983155296104L180.25499112304686,141.24954346334798L180.3692105628967,125.19307211888227L180.59207776260376,140.50963442062664L180.94030776214598,143.24328121384588L181.20496256179808,132.57833377919815L181.3303253616333,136.33523294425342L181.56990760131836,133.55331912941412L181.94599600082395,127.99781040047273L182.26636760040282,127.84675902151616L182.29422600036622,132.12341657002221L182.30815520034793,131.54451994654343L183.0074010394287,138.46710772818696L183.11883463928223,138.85453809381508L183.1606222392273,135.87426485394957L183.2859850390625,140.87980746960167L183.80415127838137,142.33928551388956L184.23595647781372,141.21596446769166L184.5145404774475,145.23909285505295L184.76805191711426,141.7751448084489L185.19985711654664,146.70502170721934L185.31129071640012,144.83576831832738L185.33914911636353,141.09268094715108L185.80159855575562,133.78876672169045L185.8433861557007,139.79225281683108L186.03839495544432,142.33525866522868L186.233403755188,141.26086022349398L186.3169789550781,141.79990632094683L186.70699655456542,147.3240573980401L186.7487841545105,141.81622163506808L186.76271335449218,136.89194371080558L186.8462885543823,129.3468938102131L186.8741469543457,132.8629394765706L187.09979999404908,145.4820202444599L187.2112335939026,141.5243875534029L187.33659639373778,139.9766052582645L187.54553439346313,139.05978007788022L187.76840159317015,140.736627328017L188.3004970324707,141.2909639935936L188.46764743225097,147.58717949713014L188.49550583221435,140.2242861536908L188.63479783203127,147.58819999987298L188.78801903182983,134.92620507610195L188.88552343170164,146.84866648518798L188.98302783157348,144.21461736506464L189.01088623153686,150.5760792736949L189.23653927124025,145.05643347222403L189.50119407089232,149.12258209683324L190.00264527023316,142.4654968801372L190.3675903097534,142.8964460654344L190.45116550964357,141.4858312200446L190.57652830947876,150.50885339030793L190.99440430892946,125.14024147688838L191.30363254852296,147.70090614739L191.31756174850463,144.9852677268965L191.56828734817503,133.6915580009613L191.95830494766236,139.29846103019827L192.02795094757082,138.61152053524688L192.20903054733276,137.87684554713374L192.39289598709104,150.75381223787755L192.50432958694458,145.0458348829272L192.573975586853,147.87231135807895L192.6018339868164,146.6546617002442L192.6157631867981,147.54064372340645L192.89434718643187,150.47165702006427L192.96399318634036,139.16951700795732L193.15900198608398,146.66622987322808L193.2982939859009,140.6880929813541L193.36793998580933,142.14261490421322L193.4543010256958,133.4731873870155L193.7189558253479,139.1729413144582L193.88610622512817,136.24571512257364L194.3736282244873,146.30983467209484L194.4989910243225,147.38092761845883L195.15644926345826,144.56617101264462L195.2260952633667,142.99960170755259L195.43503326309204,147.30385101940672L195.58825446289063,143.91574372393856L195.63282790283202,139.34241054021408L195.85569510253907,140.19721418903708L196.03677470230105,150.1130722995327L196.31535870193483,145.172096107417L196.44072150177,146.8443914061302L196.55215510162353,146.7476059500522L197.04246294097902,132.8419014200262L197.3210469406128,147.32240465035474L197.36283454055786,141.26885663687796L197.5857017402649,137.8445628657724L197.7974255799866,143.55102962206809L198.7863987786865,149.71091677946265L198.90061821853638,149.82203170648668L198.91454741851805,148.16302522051708L199.33242341796876,145.03698663617263L199.59707821762086,142.1658318720193L199.63886581756591,145.34967101036403L199.9453082171631,144.24748455475375L200.54704965637205,153.68901468768655L200.83956285598754,141.76376015622856L200.9231380558777,146.9517903028963L200.95099645584108,142.6244746587761L201.2323662954712,146.85260316468757L201.53880869506835,148.02882274495371L201.94275549453735,142.24006973371195L202.5723553337097,143.10948290828773L202.79522253341673,145.4930049699297L202.96237293319703,137.11590481275L203.77305237213136,145.872325415112L203.99591957183839,154.95728637347096L204.41658141128542,147.58578770960563L204.5280150111389,150.71630611004463L204.8205282107544,143.36084588793474L205.16875821029663,148.0536001696566L205.2384042102051,148.3128842449176L205.4083404499817,152.17695423180166L205.58942004974364,143.09787336357104L205.6729952496338,143.30220941276883L206.25802164886477,147.10857007562757L206.27195084884644,148.79852155693078L206.34159684875488,155.7539759978566L206.53939148849486,148.44510830300135L207.34728508743285,152.2971884434709L207.58408148712158,156.20668220615752L207.94902652664183,144.74101856366673L207.96295572662356,151.92161320092225L208.07438932647705,154.18482255068398L208.24153972625734,153.18406579336386L208.2833273262024,157.18779269445778L208.40869012603758,140.85191019191893L208.61762812576293,155.01235745391898L208.6733449256897,152.59558737048326L208.89899796539305,152.26304933820109L209.14972356506348,152.20058650815642L209.40044916473389,154.46412152771236L209.60938716445924,144.40508964051403L209.74867916427613,150.67084600137414L209.77932340423584,156.72629764496733L209.9464738040161,150.60820071137962L209.96040300399778,154.9062378984292L210.01611980392457,156.0417150735831L210.40613740341186,154.9831516625842L210.76829660293578,146.36322011963395L211.2168168423462,150.634668012246L211.42575484207154,156.381861261449L211.92720604141235,151.87368617008084L211.98570868133544,150.23928154415304L212.65431028045654,153.4130519696251L212.7100270803833,150.96760331924457L212.98861108001708,148.25038428639473L213.65999851913452,153.95330527302528L214.02215771865843,147.69819152522896L214.06394531860352,154.60734410184355L214.63782835784912,151.48272594699247L214.86069555755614,147.55260757988623L215.33707419692993,152.84537345062174L215.54601219665525,156.13524701415983L215.6574457965088,154.9218254943783L215.74102099639893,153.3706432914533L216.20068459579468,155.48326855067657L216.42633763549804,153.32787022378864L216.46812523544313,156.45937836337424L216.50991283538818,155.3273034828377L216.69099243515015,147.48688380864465L217.06708083465577,151.4819494313919L217.31780643432617,156.3518442128662L217.40416747421264,153.88599452454537L217.50167187408448,152.7525517247917L217.80811427368164,153.39840054173266L218.10062747329712,150.16639303743844L218.2817070730591,157.94849660219148L218.75808571243286,155.80934994060507L219.07845731201172,152.63420151818613L219.12024491195677,153.10212801570574L219.30132451171875,155.4152109893786L219.3570413116455,150.27114414330424L219.44061651153564,156.23912374436478L220.02842875076294,158.15083328283987L220.04235795074464,153.2069194324907L220.30701275039672,156.99745646836055L220.3488003503418,156.50790104108682L220.4602339501953,152.32080852046855L220.474163150177,158.4941398998082L220.4880923501587,155.19189910539532L220.57166755004883,157.3096030100253L220.83910818969727,155.56573832638617L220.86696658966065,149.19497732519503L221.11769218933105,154.98858355894035L221.80300882843017,151.90799235350244L221.99801762817384,154.11874871093391L222.08159282806398,155.85478326373058L222.5551856274414,152.88646671985265L223.11513946670533,154.47553588271526L223.50515706619262,155.13304622424238L223.88124546569824,152.38868574344394L223.93974810562133,150.39913449406305L224.0233233055115,154.02595244463177L224.34369490509033,149.8133478858497L224.69192490463257,157.1036510764169L224.85907530441284,156.89191187387556L224.87300450439454,156.74931624061864L224.95657970428468,157.89071885568495L225.07079914413453,154.7024322560624L225.30759554382325,152.61299744430366L225.4747459436035,154.3203711987844L225.55832114349366,152.05190710854802L225.83690514312747,156.33283655367086L225.8926219430542,155.58866250962154L226.2157793826294,156.0885857992206L226.24363778259277,151.57908495597837L226.369000582428,155.68133837357306L227.06546058151244,149.3490891515664L227.38861802108764,150.40513657776253L227.40254722106934,154.5055330410419L227.7089896206665,155.21215428145715L228.19651162002563,158.88754954164207L228.21044082000734,151.46219389856486L228.5335982595825,158.38075695317485L228.56145665954588,150.23882645509204L228.57538585952761,155.08699524236218L228.99326185897826,156.25482643859624L229.3414918585205,155.3447204519469L229.39999449844362,157.6774351084518L229.60893249816897,155.85559770341956L229.69250769805907,149.9206979851874L230.11038369750975,155.69809392536402L230.12431289749145,154.63667029552897L230.23574649734496,150.41934405513743L230.29146329727172,157.0066091686361L230.37503849716185,156.1615238989739L230.58676233688354,157.31131861092015L231.1857179360962,152.17159606199502L231.35286833587645,154.90381500002525L231.50608953567504,152.1706301911558L231.6342381755066,156.4731286300608L231.6481673754883,157.7976467778307L231.70388417541506,154.100888321714L231.75960097534178,156.20622897352047L231.81531777526854,156.8647961506583L232.05211417495727,155.23524289081013L232.1356893748474,154.51005475927607L232.1914061747742,153.8687939614232L232.21926457473756,153.8939506270102L232.56749457427978,157.09461108759294L232.82100601394652,156.10647270878206L232.91851041381838,157.88682142629085L232.93243961380006,156.0532713124133L233.15530681350705,154.00741207385454L233.19709441345216,158.0027102799972L233.6428288128662,158.76828968732136L233.6567580128479,155.7222847201118L233.6706872128296,156.1944321951924L233.9938446524048,153.04280413328686L234.18885345214846,152.8966324971754L234.88809929122922,156.34674647281358L235.05524969100952,153.35218937698951L235.92164592987058,157.11109029742494L236.0609379296875,156.5478427970877L236.50667232910158,155.2982499182634L236.56238912902833,155.45204668297717L236.8409731286621,154.14874958210837L237.16413056823728,157.0472911073696L237.19198896820066,155.83816641332592L237.4287853678894,157.02034564474508L237.9441657672119,153.7095557530303L238.10017280700683,156.343861059653L238.35089840667726,158.13241994449865L238.4205444065857,156.14204019964774L238.44840280654907,154.02183171396183L238.58769480636596,153.81849548164044L238.8384204060364,159.24159901856527L238.9498540058899,155.94054527464013L239.0612876057434,153.76012633151734L239.15879200561525,158.71770743988404L239.3844450453186,155.03729347026427L239.46802024520872,156.29953522599058L239.5655246450806,154.2388365303178L240.22019704421996,148.41520290505647L240.27869968414308,155.78276595023587L240.50156688385007,155.29596598644918L240.58514208374024,155.87492546313743L240.72443408355713,158.6642718688994L240.83586768341067,158.9687049692245L240.97515968322753,151.0797451138934L241.07266408309934,152.81171648516127L241.21195608291626,153.12637609439128L241.22588528289796,155.7739710093678L241.23981448287964,157.7155403308003L241.40975072265624,159.110431000482L241.67440552230835,156.01540530354555L241.95298952194213,158.58050074002995L242.10621072174075,154.68820515363475L242.65223536102295,156.01020042131304L242.74973976089476,154.80761193064765L242.91689016067505,153.38201415309607L243.07011136047362,149.9708468902438L243.5158457598877,154.7111664653483L243.9504367993164,156.84863306329754L244.38224199874875,152.51764090422833L244.88647903808595,154.1324103996797L245.2207798376465,156.13315853726283L245.34614263748168,157.1251344094959L245.42971783737184,155.2852284305626L245.63865583709716,157.3486367095315L245.70830183700562,153.49407161305876" fill="none"></path></g></g></g></g></g></g><g transform="translate(51, 177)" clip-path="url(#clip_1)"><clipPath id="clip_1"><rect width="278" height="22"></rect></clipPath><g><g><line x1="0" y1="0" x2="0" y2="5" style="visibility: inherit;" fill="rgb(0, 0, 0)" stroke="rgb(204, 204, 204)" stroke-width="1px"></line><line x1="27.858399963378908" y1="0" x2="27.858399963378908" y2="5" style="visibility: inherit;" fill="rgb(0, 0, 0)" stroke="rgb(204, 204, 204)" stroke-width="1px"></line><line x1="55.716799926757815" y1="0" x2="55.716799926757815" y2="5" style="visibility: inherit;" fill="rgb(0, 0, 0)" stroke="rgb(204, 204, 204)" stroke-width="1px"></line><line x1="83.57519989013672" y1="0" x2="83.57519989013672" y2="5" style="visibility: inherit;" fill="rgb(0, 0, 0)" stroke="rgb(204, 204, 204)" stroke-width="1px"></line><line x1="111.43359985351563" y1="0" x2="111.43359985351563" y2="5" style="visibility: inherit;" fill="rgb(0, 0, 0)" stroke="rgb(204, 204, 204)" stroke-width="1px"></line><line x1="139.29199981689453" y1="0" x2="139.29199981689453" y2="5" style="visibility: inherit;" fill="rgb(0, 0, 0)" stroke="rgb(204, 204, 204)" stroke-width="1px"></line><line x1="167.15039978027343" y1="0" x2="167.15039978027343" y2="5" style="visibility: inherit;" fill="rgb(0, 0, 0)" stroke="rgb(204, 204, 204)" stroke-width="1px"></line><line x1="195.00879974365233" y1="0" x2="195.00879974365233" y2="5" style="visibility: inherit;" fill="rgb(0, 0, 0)" stroke="rgb(204, 204, 204)" stroke-width="1px"></line><line x1="222.86719970703126" y1="0" x2="222.86719970703126" y2="5" style="visibility: inherit;" fill="rgb(0, 0, 0)" stroke="rgb(204, 204, 204)" stroke-width="1px"></line><line x1="250.72559967041016" y1="0" x2="250.72559967041016" y2="5" style="visibility: inherit;" fill="rgb(0, 0, 0)" stroke="rgb(204, 204, 204)" stroke-width="1px"></line><line x1="278.58399963378906" y1="0" x2="278.58399963378906" y2="5" style="visibility: inherit;" fill="rgb(0, 0, 0)" stroke="rgb(204, 204, 204)" stroke-width="1px"></line></g><g transform="translate(0, 8)"><text style="text-anchor: middle; visibility: hidden; font-family: &quot;Helvetica Neue&quot;, sans-serif; font-size: 12px; font-weight: 200;" x="0" y="0" dx="0em" dy="0.95em" fill="rgb(50, 49, 63)" stroke="none" stroke-width="1px">-20k</text><text style="text-anchor: middle; visibility: inherit; font-family: &quot;Helvetica Neue&quot;, sans-serif; font-size: 12px; font-weight: 200;" x="27.858399963378908" y="0" dx="0em" dy="0.95em" fill="rgb(50, 49, 63)" stroke="none" stroke-width="1px">0</text><text style="text-anchor: middle; visibility: hidden; font-family: &quot;Helvetica Neue&quot;, sans-serif; font-size: 12px; font-weight: 200;" x="55.716799926757815" y="0" dx="0em" dy="0.95em" fill="rgb(50, 49, 63)" stroke="none" stroke-width="1px">20k</text><text style="text-anchor: middle; visibility: inherit; font-family: &quot;Helvetica Neue&quot;, sans-serif; font-size: 12px; font-weight: 200;" x="83.57519989013672" y="0" dx="0em" dy="0.95em" fill="rgb(50, 49, 63)" stroke="none" stroke-width="1px">40k</text><text style="text-anchor: middle; visibility: hidden; font-family: &quot;Helvetica Neue&quot;, sans-serif; font-size: 12px; font-weight: 200;" x="111.43359985351563" y="0" dx="0em" dy="0.95em" fill="rgb(50, 49, 63)" stroke="none" stroke-width="1px">60k</text><text style="text-anchor: middle; visibility: inherit; font-family: &quot;Helvetica Neue&quot;, sans-serif; font-size: 12px; font-weight: 200;" x="139.29199981689453" y="0" dx="0em" dy="0.95em" fill="rgb(50, 49, 63)" stroke="none" stroke-width="1px">80k</text><text style="text-anchor: middle; visibility: hidden; font-family: &quot;Helvetica Neue&quot;, sans-serif; font-size: 12px; font-weight: 200;" x="167.15039978027343" y="0" dx="0em" dy="0.95em" fill="rgb(50, 49, 63)" stroke="none" stroke-width="1px">100k</text><text style="text-anchor: middle; visibility: inherit; font-family: &quot;Helvetica Neue&quot;, sans-serif; font-size: 12px; font-weight: 200;" x="195.00879974365233" y="0" dx="0em" dy="0.95em" fill="rgb(50, 49, 63)" stroke="none" stroke-width="1px">120k</text><text style="text-anchor: middle; visibility: hidden; font-family: &quot;Helvetica Neue&quot;, sans-serif; font-size: 12px; font-weight: 200;" x="222.86719970703126" y="0" dx="0em" dy="0.95em" fill="rgb(50, 49, 63)" stroke="none" stroke-width="1px">140k</text><text style="text-anchor: middle; visibility: inherit; font-family: &quot;Helvetica Neue&quot;, sans-serif; font-size: 12px; font-weight: 200;" x="250.72559967041016" y="0" dx="0em" dy="0.95em" fill="rgb(50, 49, 63)" stroke="none" stroke-width="1px">160k</text><text style="text-anchor: middle; visibility: hidden; font-family: &quot;Helvetica Neue&quot;, sans-serif; font-size: 12px; font-weight: 200;" x="278.58399963378906" y="0" dx="0em" dy="0.95em" fill="rgb(50, 49, 63)" stroke="none" stroke-width="1px">180k</text></g><line x1="0" y1="0" x2="278.58399963378906" y2="0" fill="rgb(0, 0, 0)" stroke="rgb(204, 204, 204)" stroke-width="1px"></line></g></g></g></g></svg>