<svg viewBox="0 0 330 200" xmlns="http://www.w3.org/2000/svg"><g><g><g><g><g><line x1="51.41600036621094" y1="177.9749994277954" x2="46.41600036621094" y2="177.9749994277954" style="visibility: inherit;" fill="rgb(0, 0, 0)" stroke="rgb(204, 204, 204)" stroke-width="1px"></line><line x1="51.41600036621094" y1="155.72812449932098" x2="46.41600036621094" y2="155.72812449932098" style="visibility: inherit;" fill="rgb(0, 0, 0)" stroke="rgb(204, 204, 204)" stroke-width="1px"></line><line x1="51.41600036621094" y1="133.48124957084656" x2="46.41600036621094" y2="133.48124957084656" style="visibility: inherit;" fill="rgb(0, 0, 0)" stroke="rgb(204, 204, 204)" stroke-width="1px"></line><line x1="51.41600036621094" y1="111.23437464237212" x2="46.41600036621094" y2="111.23437464237212" style="visibility: inherit;" fill="rgb(0, 0, 0)" stroke="rgb(204, 204, 204)" stroke-width="1px"></line><line x1="51.41600036621094" y1="88.98749971389772" x2="46.41600036621094" y2="88.98749971389772" style="visibility: inherit;" fill="rgb(0, 0, 0)" stroke="rgb(204, 204, 204)" stroke-width="1px"></line><line x1="51.41600036621094" y1="66.74062478542328" x2="46.41600036621094" y2="66.74062478542328" style="visibility: inherit;" fill="rgb(0, 0, 0)" stroke="rgb(204, 204, 204)" stroke-width="1px"></line><line x1="51.41600036621094" y1="44.49374985694888" x2="46.41600036621094" y2="44.49374985694888" style="visibility: inherit;" fill="rgb(0, 0, 0)" stroke="rgb(204, 204, 204)" stroke-width="1px"></line><line x1="51.41600036621094" y1="22.246874928474455" x2="46.41600036621094" y2="22.246874928474455" style="visibility: inherit;" fill="rgb(0, 0, 0)" stroke="rgb(204, 204, 204)" stroke-width="1px"></line><line x1="51.41600036621094" y1="0" x2="46.41600036621094" y2="0" style="visibility: inherit;" fill="rgb(0, 0, 0)" stroke="rgb(204, 204, 204)" stroke-width="1px"></line></g><g transform="translate(41.41600036621094, 0)"><text style="text-anchor: end; visibility: hidden; font-family: &quot;Helvetica Neue&quot;, sans-serif; font-size: 12px; font-weight: 200;" x="0" y="177.9749994277954" dx="0em" dy="0.3em" fill="rgb(50, 49, 63)" stroke="none" stroke-width="1px">0.4</text><text style="text-anchor: end; visibility: inherit; font-family: &quot;Helvetica Neue&quot;, sans-serif; font-size: 12px; font-weight: 200;" x="0" y="155.72812449932098" dx="0em" dy="0.3em" fill="rgb(50, 49, 63)" stroke="none" stroke-width="1px">0.45</text><text style="text-anchor: end; visibility: hidden; font-family: &quot;Helvetica Neue&quot;, sans-serif; font-size: 12px; font-weight: 200;" x="0" y="133.48124957084656" dx="0em" dy="0.3em" fill="rgb(50, 49, 63)" stroke="none" stroke-width="1px">0.5</text><text style="text-anchor: end; visibility: inherit; font-family: &quot;Helvetica Neue&quot;, sans-serif; font-size: 12px; font-weight: 200;" x="0" y="111.23437464237212" dx="0em" dy="0.3em" fill="rgb(50, 49, 63)" stroke="none" stroke-width="1px">0.55</text><text style="text-anchor: end; visibility: hidden; font-family: &quot;Helvetica Neue&quot;, sans-serif; font-size: 12px; font-weight: 200;" x="0" y="88.98749971389772" dx="0em" dy="0.3em" fill="rgb(50, 49, 63)" stroke="none" stroke-width="1px">0.6</text><text style="text-anchor: end; visibility: inherit; font-family: &quot;Helvetica Neue&quot;, sans-serif; font-size: 12px; font-weight: 200;" x="0" y="66.74062478542328" dx="0em" dy="0.3em" fill="rgb(50, 49, 63)" stroke="none" stroke-width="1px">0.65</text><text style="text-anchor: end; visibility: hidden; font-family: &quot;Helvetica Neue&quot;, sans-serif; font-size: 12px; font-weight: 200;" x="0" y="44.49374985694888" dx="0em" dy="0.3em" fill="rgb(50, 49, 63)" stroke="none" stroke-width="1px">0.7</text><text style="text-anchor: end; visibility: inherit; font-family: &quot;Helvetica Neue&quot;, sans-serif; font-size: 12px; font-weight: 200;" x="0" y="22.246874928474455" dx="0em" dy="0.3em" fill="rgb(50, 49, 63)" stroke="none" stroke-width="1px">0.75</text><text style="text-anchor: end; visibility: hidden; font-family: &quot;Helvetica Neue&quot;, sans-serif; font-size: 12px; font-weight: 200;" x="0" y="0" dx="0em" dy="0.3em" fill="rgb(50, 49, 63)" stroke="none" stroke-width="1px">0.8</text></g><line x1="51.41600036621094" y1="0" x2="51.41600036621094" y2="177.9749994277954" fill="rgb(0, 0, 0)" stroke="rgb(204, 204, 204)" stroke-width="1px"></line></g></g><g transform="translate(51, 0)" clip-path="url(#clip_0)"><clipPath id="clip_0"><rect width="278" height="177"></rect></clipPath><g><g><g><line x1="0" y1="0" x2="0" y2="177.9749994277954" fill="rgb(0, 0, 0)" stroke="rgb(60, 60, 60)" stroke-width="1px" opacity="0.25"></line><line x1="34.82299995422363" y1="0" x2="34.82299995422363" y2="177.9749994277954" fill="rgb(0, 0, 0)" stroke="rgb(60, 60, 60)" stroke-width="1px" opacity="0.25"></line><line x1="69.64599990844727" y1="0" x2="69.64599990844727" y2="177.9749994277954" fill="rgb(0, 0, 0)" stroke="rgb(60, 60, 60)" stroke-width="1px" opacity="0.25"></line><line x1="104.4689998626709" y1="0" x2="104.4689998626709" y2="177.9749994277954" fill="rgb(0, 0, 0)" stroke="rgb(60, 60, 60)" stroke-width="1px" opacity="0.25"></line><line x1="139.29199981689453" y1="0" x2="139.29199981689453" y2="177.9749994277954" fill="rgb(0, 0, 0)" stroke="rgb(60, 60, 60)" stroke-width="1px" opacity="0.25"></line><line x1="174.11499977111816" y1="0" x2="174.11499977111816" y2="177.9749994277954" fill="rgb(0, 0, 0)" stroke="rgb(60, 60, 60)" stroke-width="1px" opacity="0.25"></line><line x1="208.9379997253418" y1="0" x2="208.9379997253418" y2="177.9749994277954" fill="rgb(0, 0, 0)" stroke="rgb(60, 60, 60)" stroke-width="1px" opacity="0.25"></line><line x1="243.76099967956543" y1="0" x2="243.76099967956543" y2="177.9749994277954" fill="rgb(0, 0, 0)" stroke="rgb(60, 60, 60)" stroke-width="1px" opacity="0.25"></line><line x1="278.58399963378906" y1="0" x2="278.58399963378906" y2="177.9749994277954" fill="rgb(0, 0, 0)" stroke="rgb(60, 60, 60)" stroke-width="1px" opacity="0.25"></line></g><g><line x1="0" y1="177.9749994277954" x2="278.58399963378906" y2="177.9749994277954" fill="rgb(0, 0, 0)" stroke="rgb(60, 60, 60)" stroke-width="1px" opacity="0.25"></line><line x1="0" y1="155.72812449932098" x2="278.58399963378906" y2="155.72812449932098" fill="rgb(0, 0, 0)" stroke="rgb(60, 60, 60)" stroke-width="1px" opacity="0.25"></line><line x1="0" y1="133.48124957084656" x2="278.58399963378906" y2="133.48124957084656" fill="rgb(0, 0, 0)" stroke="rgb(60, 60, 60)" stroke-width="1px" opacity="0.25"></line><line x1="0" y1="111.23437464237212" x2="278.58399963378906" y2="111.23437464237212" fill="rgb(0, 0, 0)" stroke="rgb(60, 60, 60)" stroke-width="1px" opacity="0.25"></line><line x1="0" y1="88.98749971389772" x2="278.58399963378906" y2="88.98749971389772" fill="rgb(0, 0, 0)" stroke="rgb(60, 60, 60)" stroke-width="1px" opacity="0.25"></line><line x1="0" y1="66.74062478542328" x2="278.58399963378906" y2="66.74062478542328" fill="rgb(0, 0, 0)" stroke="rgb(60, 60, 60)" stroke-width="1px" opacity="0.25"></line><line x1="0" y1="44.49374985694888" x2="278.58399963378906" y2="44.49374985694888" fill="rgb(0, 0, 0)" stroke="rgb(60, 60, 60)" stroke-width="1px" opacity="0.25"></line><line x1="0" y1="22.246874928474455" x2="278.58399963378906" y2="22.246874928474455" fill="rgb(0, 0, 0)" stroke="rgb(60, 60, 60)" stroke-width="1px" opacity="0.25"></line><line x1="0" y1="0" x2="278.58399963378906" y2="0" fill="rgb(0, 0, 0)" stroke="rgb(60, 60, 60)" stroke-width="1px" opacity="0.25"></line></g></g></g><g><g><line x1="0" y1="355.9499988555908" x2="278.58399963378906" y2="355.9499988555908" fill="rgb(0, 0, 0)" stroke="rgb(153, 153, 153)" stroke-width="1.5px"></line></g></g><g><g><line x1="34.82299995422363" y1="0" x2="34.82299995422363" y2="177.9749994277954" fill="rgb(0, 0, 0)" stroke="rgb(153, 153, 153)" stroke-width="1.5px"></line></g></g><g><g><g><g><g><path style="fill: none;" stroke="rgb(51, 187, 238)" stroke-width="2px" d="M41.78759994506836,180.53784302207887L42.48405994415283,173.1874784183943L43.18051994323731,170.43775658534827L43.876979942321775,161.6813895540762L44.57343994140625,156.61799334374072L45.269899940490724,155.49675308354082L45.9663599395752,147.25651167933407L46.66281993865967,141.25875079552713L47.35927993774414,142.12193487227978L48.05573993682861,140.0663299386084L48.75219993591308,136.75599460554778L49.44865993499756,138.5891336541313L50.14511993408203,136.9339593575156L50.8415799331665,135.2253996133608L51.538039932250975,127.18982894506217L52.23449993133545,129.01408367922662L52.930959930419924,124.54691778760667L53.6274199295044,127.43010323950051L54.323879928588866,121.19206806125524L55.02033992767334,123.21209595673798L55.716799926757815,124.61809838432549L56.41325992584229,118.15761058116314L57.10971992492676,114.357829084636L57.806179924011225,113.93069246364L58.5026399230957,118.46015463755967L59.199099922180174,112.69375721343046L59.89555992126465,116.06640208896158L60.592019920349124,111.89286941897755L61.28847991943359,111.759392539959L61.984939918518066,110.20211808417322L62.68139991760254,111.55473506422162L63.377859916687015,112.29332657637478L64.07431991577148,109.43682058807973L64.77077991485596,106.13538282960896L65.46723991394043,105.38790700303672L66.1636999130249,106.26885970862752L66.86015991210937,109.76607062841659L67.55661991119385,108.08423012837288L68.25307991027832,110.7182569714093L68.9495399093628,102.37121815178277L69.64599990844727,104.649288970542L70.34245990753173,103.30558282525423L71.03891990661621,104.73829123678208L71.73537990570068,104.67599495448233L72.43183990478516,106.73161314832448L73.12829990386963,102.5936972970414L73.8247599029541,106.85617919258242L74.52121990203858,103.5725631036329L75.21767990112305,103.4390597042728L75.91413990020753,102.985243619678L76.610599899292,106.66931686602474L77.30705989837647,105.69936189419387L78.00351989746095,103.55474143411165L78.6999798965454,100.03973536514287L79.39643989562988,97.85066681262371L80.09289989471435,99.25666924021122L80.78935989379882,99.55032898218867L81.4858198928833,102.72717417605996L82.18227989196777,98.91850836511374L82.87873989105225,99.50582784906864L83.57519989013672,100.813943695997L84.27165988922118,98.6604389214957L84.96811988830567,101.52582922420983L85.66457988739013,102.06867409538624L86.36103988647461,99.60371442972779L87.05749988555908,99.58591928054808L87.75395988464355,99.51471216348772L88.45041988372803,95.98191094533924L89.1468798828125,102.34451216784244L89.84333988189698,94.17547788069605L90.53979988098145,99.8528730385852L91.23625988006592,72.32902828520899L91.9327198791504,68.66275018804195L92.62917987823486,65.01426724005462L93.32563987731935,63.42140248590944L94.02209987640381,61.47255518714552L94.71855987548828,59.92419156612037L95.41501987457276,59.30128178380606L96.11147987365722,57.93086965457796L96.8079398727417,56.97868331158524L97.50439987182617,56.76511500108724L98.20085987091063,56.72064038830875L98.89731986999512,55.074363666282906L99.59377986907958,55.074363666282906L100.29023986816406,53.383612331478574L100.98669986724853,53.347995512777615L101.683159866333,51.77292590781214L102.37961986541748,52.075496484550214L103.07607986450195,52.137766246508406L103.77253986358643,50.242330915625146L104.4689998626709,50.17115031890633L105.16545986175537,49.832989443808856L105.86191986083985,49.59274166971207L106.55837985992432,49.95758200840834L107.2548398590088,48.9342150686968L107.95129985809326,49.45926479069351L108.64775985717773,47.643894370948146L109.34421985626221,46.55825766927842L110.04067985534668,46.860828246016496L110.73713985443116,48.42698701622135L111.43359985351563,47.00318943945413L112.1300598526001,46.42478079025986L112.82651985168458,46.85191741125587L113.52297985076903,43.728457664923695L114.21943984985352,46.77182597977642L114.91589984893798,44.63614287479638L115.61235984802245,45.1166649433315L116.30881984710693,44.16450512068033L117.0052798461914,44.707323471515195L117.70173984527588,44.609436890856045L118.39819984436035,43.301321043927686L119.09465984344482,41.82413801962136L119.7911198425293,41.22790770090583L120.48757984161377,42.05550147929907L121.18403984069825,40.925363644509304L121.88049983978271,40.266837043494036L122.57695983886718,39.93758700315718L123.27341983795166,40.13336016447548L123.96987983703613,40.31133817661407L124.66633983612061,40.37363445891381L125.36279983520508,39.86640640643836L126.05925983428955,40.39142960809352L126.75571983337403,40.48931618875267L127.4521798324585,39.20787980542309L128.14863983154297,39.75960899101858L128.84509983062745,39.72401869265917L129.54155982971193,39.225701474944344L130.23801982879638,38.5760857086897L130.93447982788086,38.9498368821466L131.63093982696532,39.1634051926446L132.3273998260498,39.127814894285194L133.02385982513428,40.756269946789786L133.72031982421873,38.85195030148745L134.41677982330322,38.94092604738597L135.1132398223877,39.19899549100401L135.80969982147215,38.371401712610776L136.50615982055663,38.98542718050601L137.20261981964111,37.87308449489595L137.8990798187256,39.78631497495891L138.59553981781005,39.68842839429976L139.29199981689453,38.602765172288485L139.98845981597898,38.406992010970185L140.68491981506347,37.25017471258164L141.38137981414795,38.994311494925086L142.07783981323243,38.70956258770826L142.77429981231688,37.64172103521824L143.47075981140136,39.49265523298146L144.16721981048582,37.32135530930046L144.86367980957033,37.428152724720235L145.56013980865478,37.27685417618042L146.25659980773926,37.43703703913931L146.95305980682372,37.43703703913931L147.6495198059082,38.86974545066715L148.34597980499268,38.15783340211277L149.04243980407716,37.43703703913931L149.73889980316162,38.3803125473714L150.4353598022461,37.3836515916002L151.13181980133055,38.344722249011994L151.82827980041506,38.09553711981303L152.5247397994995,37.60610421651728L153.221199798584,37.87308449489595L153.91765979766845,38.1845393860531L154.61411979675293,37.90867479325536L155.3105797958374,36.69844552698615L156.0070397949219,37.463743023079644L156.70349979400635,37.64172103521824L157.3999597930908,37.76628707947617L158.09641979217528,37.82858336177591L158.79287979125976,36.191217474510694L159.48933979034425,38.42481368049144L160.1857997894287,37.64172103521824L160.88225978851318,36.39587495024807L161.57871978759763,37.96206024079447L162.27517978668214,37.74849193029647L162.9716397857666,36.36028465188866L163.66809978485108,36.76962612370497L164.36455978393553,37.08108101486212L165.06101978302001,36.11112604303125L165.7574797821045,37.072196700443044L166.45393978118898,36.645060079447035L167.15039978027343,36.36919548664929L167.8468597793579,37.25017471258164L168.54331977844237,37.0099004181433L169.23977977752688,37.06328586568242L169.93623977661133,36.86751270436412L170.6326997756958,36.94760413584356L171.32915977478027,36.62726493026733L172.02561977386475,37.036606402083635L172.72207977294923,37.43703703913931L173.4185397720337,36.16451149057036L174.11499977111816,36.13783202697158L174.81145977020262,36.840833240765335L175.5079197692871,36.47596638172752L176.20437976837158,36.89421868830445L176.90083976745606,36.44037608336811L177.59729976654052,35.79076031711347L178.293759765625,35.71957972039465L178.99021976470945,36.093330893851544L179.68667976379396,36.88530785354382L180.38313976287841,36.217923458451025L181.0795997619629,37.267969861761344L181.77605976104735,35.701784571214944L182.47251976013183,35.701784571214944L183.1689797592163,35.77296516793376L183.8654397583008,35.80858198663472L184.56189975738525,36.44037608336811L185.25835975646973,36.386990635828994L185.95481975555418,37.392535906019276L186.6512797546387,37.02769556732301L187.34773975372315,35.69287373645432L188.04419975280763,36.37807980106837L188.74065975189208,36.645060079447035L189.43711975097656,36.0310346115518L190.13357975006105,36.511583200428475L190.83003974914553,36.16451149057036L191.52649974822998,36.49376153090722L192.22295974731443,35.6216931397355L192.91941974639892,36.217923458451025L193.6158797454834,36.83192240600471L194.31233974456788,36.609469781087626L195.00879974365233,36.26239807122951L195.7052597427368,36.75183097452526L196.40171974182127,35.49710057513602L197.09817974090578,36.37807980106837L197.79463973999023,35.728490555155275L198.4910997390747,35.897557732533244L199.18755973815917,35.45262596235753L199.88401973724365,35.84417228499413L200.58047973632813,36.511583200428475L201.2769397354126,36.06662490991121L201.97339973449706,35.603897990555794L202.66985973358155,35.47930542595631L203.366319732666,36.37807980106837L204.0627797317505,34.714034450204366L204.75923973083496,36.13783202697158L205.45569972991944,36.547173498787885L206.1521597290039,37.000989583382676L206.84861972808838,34.856395643642L207.54507972717286,35.36362369611746L208.24153972625734,35.49710057513602L208.9379997253418,35.568307692196385L209.63445972442625,36.645060079447035L210.33091972351073,35.64839912367583L211.0273797225952,36.217923458451025L211.7238397216797,36.26239807122951L212.42029972076415,34.883101627582334L213.11675971984863,35.85305659941321L213.81321971893308,35.532717393836975L214.5096797180176,35.57719200661546L215.20613971710205,36.46708206730844L215.90259971618653,35.568307692196385L216.59905971527098,36.289104055169844L217.29551971435546,36.645060079447035L217.99197971343995,35.95094318007236L218.68843971252443,35.470421111537235L219.38489971160888,34.785215046923184L220.08135971069336,35.32803339775805L220.77781970977782,35.71957972039465L221.47427970886233,35.49710057513602L222.17073970794678,34.99878335742119L222.86719970703126,37.036606402083635L223.56365970611571,34.66953331708433L224.2601197052002,35.603897990555794L224.95657970428468,35.77296516793376L225.65303970336916,36.547173498787885L226.3494997024536,35.69287373645432L227.04595970153807,36.27130890599014L227.74241970062255,36.742946660106185L228.43887969970703,35.25685280103923L229.1353396987915,35.41703566399812L229.83179969787597,35.95094318007236L230.52825969696045,36.57385296238667L231.2247196960449,36.36919548664929L231.9211796951294,36.315810039110175L232.61763969421386,35.58610284137609L233.31409969329835,35.4259199784172L234.0105596923828,36.75183097452526L234.70701969146728,35.75517001875406L235.40347969055176,35.75517001875406L236.09993968963624,35.71957972039465L236.7963996887207,35.924263716473575L237.49285968780518,34.70512361544374L238.18931968688963,35.71069540597557L238.88577968597414,35.69287373645432L239.5822396850586,36.217923458451025L240.27869968414308,36.62726493026733L240.97515968322753,35.51492224465727L241.671619682312,36.449286918128735L242.3680796813965,35.861967434173835L243.06453968048098,35.29244309939864" fill="none"></path></g><g><path style="fill: none;" stroke="rgb(0, 119, 187)" stroke-width="2px" d="M40.39467994689941,184.07064424022735L41.09113994598388,174.05954680956603L41.78759994506836,169.65466394007507L42.48405994415283,166.80706878654064L43.18051994323731,163.38105172364115L43.876979942321775,155.1941957669735L44.57343994140625,153.8593871962756L45.269899940490724,150.16640311516824L45.9663599395752,139.75486178728048L46.66281993865967,139.5323959021926L47.35927993774414,135.48346905697883L48.05573993682861,132.45788263113502L48.75219993591308,132.63586064327362L49.44865993499756,135.12751303270164L50.14511993408203,131.8349728488207L50.8415799331665,132.05745199407934L51.538039932250975,126.40673629978897L52.23449993133545,129.20985684054492L52.930959930419924,122.49129959376452L53.6274199295044,127.9640372759163L54.323879928588866,123.15871050919887L55.02033992767334,123.55914114625455L55.716799926757815,123.55914114625455L56.41325992584229,124.22655206168889L57.10971992492676,119.82165593202714L57.806179924011225,118.70931324641708L58.5026399230957,119.6437044402301L59.199099922180174,114.03748987905976L59.89555992126465,119.55470217399002L60.592019920349124,116.66260588733556L61.28847991943359,114.52692278235551L61.984939918518066,113.19210095148684L62.68139991760254,115.3722851895869L63.377859916687015,114.3934193829954L64.07431991577148,111.9907559996367L64.77077991485596,109.7215960156381L65.46723991394043,108.52025106378797L66.1636999130249,109.8995740277767L66.86015991210937,113.77050960068111L67.55661991119385,110.74493643500809L68.25307991027832,113.63703272166255L68.9495399093628,108.03081816049222L69.64599990844727,111.9907559996367L70.34245990753173,110.43348154385093L71.03891990661621,110.92291444714668L71.73537990570068,110.78943756812812L72.43183990478516,111.32337160454391L73.12829990386963,109.23216311234235L73.8247599029541,112.03525713275674L74.52121990203858,110.21102891893385L75.21767990112305,106.82949972898363L75.91413990020753,111.41234735044243L76.610599899292,112.61369230229256L77.30705989837647,111.32337160454391L78.00351989746095,110.56695842286949L78.6999798965454,106.29556569256785L79.39643989562988,103.22549139377479L80.09289989471435,106.42904257158641L80.78935989379882,103.89290230920913L81.4858198928833,110.87841331402664L82.18227989196777,105.85063392239213L82.87873989105225,105.13872187383775L83.57519989013672,110.87841331402664L84.27165988922118,104.0263791882277L84.96811988830567,110.43348154385093L85.66457988739013,113.23660208460687L86.36103988647461,103.58144741805198L87.05749988555908,107.98634354771373L87.75395988464355,107.27443149915935L88.45041988372803,105.49467789811494L89.1468798828125,106.29556569256785L89.84333988189698,103.0475133816362L90.53979988098145,103.89290230920913L91.23625988006592,87.65269379523396L91.9327198791504,84.4046414843023L92.62917987823486,83.47027681083084L93.32563987731935,83.29229879869224L94.02209987640381,82.09098036718366L94.71855987548828,80.75615853631497L95.41501987457276,80.62268165729641L96.11147987365722,80.31122676613926L96.8079398727417,77.73058537064195L97.50439987182617,79.28785982642772L98.20085987091063,78.70945117723345L98.89731986999512,76.70721843093041L99.59377986907958,77.95303799555903L100.29023986816406,77.28565360046623L100.98669986724853,78.13101600769762L101.683159866333,75.23891972104316L102.37961986541748,77.95303799555903L103.07607986450195,77.2411524673462L103.77253986358643,76.79622069717048L104.4689998626709,77.2411524673462L105.16545986175537,77.95303799555903L105.86191986083985,76.21778552763466L106.55837985992432,78.26449288671618L107.2548398590088,76.35126240665322L107.95129985809326,76.75171956405045L108.64775985717773,75.01646709612608L109.34421985626221,76.92969757618904L110.04067985534668,76.66274381815192L110.73713985443116,77.37462934636476L111.43359985351563,76.84069530994897L112.1300598526001,75.2834208541632L112.82651985168458,75.1054428420246L113.52297985076903,75.14994397514464L114.21943984985352,76.84069530994897L114.91589984893798,76.70721843093041L115.61235984802245,76.97419870930908L116.30881984710693,74.39355731381177L117.0052798461914,76.52924041879182L117.70173984527588,76.92969757618904L118.39819984436035,76.39576353977326L119.09465984344482,74.52703419283033L119.7911198425293,74.57153532595036L120.48757984161377,74.39355731381177L121.18403984069825,74.26008043479321L121.88049983978271,73.72614639837742L122.57695983886718,74.57153532595036L123.27341983795166,74.21557930167317L123.96987983703613,73.90412441051602L124.66633983612061,74.08210242265461L125.36279983520508,74.26008043479321L126.05925983428955,74.79398795086745L126.75571983337403,73.19221236196164L127.4521798324585,73.50366725311879L128.14863983154297,74.39355731381177L128.84509983062745,73.37019037410023L129.54155982971193,74.79398795086745L130.23801982879638,73.4591926403403L130.93447982788086,73.99310015641454L131.63093982696532,74.34905618069173L132.3273998260498,74.39355731381177L133.02385982513428,73.37019037410023L133.72031982421873,72.83625633768445L134.41677982330322,74.03760128953458L135.1132398223877,73.85962327739598L135.80969982147215,73.81512214427595L136.50615982055663,73.10323661606311L137.20261981964111,74.08210242265461L137.8990798187256,73.37019037410023L138.59553981781005,73.90412441051602L139.29199981689453,73.28121462820171L139.98845981597898,73.85962327739598L140.68491981506347,73.85962327739598L141.38137981414795,74.1265770354331L142.07783981323243,74.61600993872885L142.77429981231688,74.74948681774741L143.47075981140136,74.34905618069173L144.16721981048582,73.99310015641454L144.86367980957033,74.03760128953458L145.56013980865478,73.28121462820171L146.25659980773926,74.03760128953458L146.95305980682372,73.63714413213735L147.6495198059082,74.26008043479321L148.34597980499268,74.17107816855314L149.04243980407716,74.57153532595036L149.73889980316162,74.17107816855314L150.4353598022461,73.85962327739598L151.13181980133055,74.21557930167317L151.82827980041506,74.3045550475717L152.5247397994995,73.63714413213735L153.221199798584,73.10323661606311L153.91765979766845,73.41469150722027L154.61411979675293,73.90412441051602L155.3105797958374,73.99310015641454L156.0070397949219,74.1265770354331L156.70349979400635,74.34905618069173L157.3999597930908,74.1265770354331L158.09641979217528,73.9485990232945L158.79287979125976,74.1265770354331L159.48933979034425,73.37019037410023L160.1857997894287,73.50366725311879L160.88225978851318,73.37019037410023L161.57871978759763,73.68164526525739L162.27517978668214,73.41469150722027L162.9716397857666,73.63714413213735L163.66809978485108,74.1265770354331L164.36455978393553,73.77064753149746L165.06101978302001,74.3045550475717L165.7574797821045,73.72614639837742L166.45393978118898,74.26008043479321L167.15039978027343,74.21557930167317L167.8468597793579,74.03760128953458L168.54331977844237,74.52703419283033L169.23977977752688,73.77064753149746L169.93623977661133,73.9485990232945L170.6326997756958,74.52703419283033L171.32915977478027,74.79398795086745L172.02561977386475,74.1265770354331L172.72207977294923,73.99310015641454L173.4185397720337,74.17107816855314L174.11499977111816,74.17107816855314L174.81145977020262,73.99310015641454L175.5079197692871,73.63714413213735L176.20437976837158,73.99310015641454L176.90083976745606,74.03760128953458L177.59729976654052,73.72614639837742L178.293759765625,73.72614639837742L178.99021976470945,74.08210242265461L179.68667976379396,73.9485990232945L180.38313976287841,73.68164526525739L181.0795997619629,73.68164526525739L181.77605976104735,73.59266951935886L182.47251976013183,73.59266951935886L183.1689797592163,73.59266951935886L183.8654397583008,73.81512214427595L184.56189975738525,73.68164526525739L185.25835975646973,74.03760128953458L185.95481975555418,74.1265770354331L186.6512797546387,73.63714413213735L187.34773975372315,73.9485990232945L188.04419975280763,73.77064753149746L188.74065975189208,73.90412441051602L189.43711975097656,73.81512214427595L190.13357975006105,73.9485990232945L190.83003974914553,73.81512214427595L191.52649974822998,73.77064753149746L192.22295974731443,73.81512214427595L192.91941974639892,73.90412441051602L193.6158797454834,74.17107816855314L194.31233974456788,73.9485990232945L195.00879974365233,73.9485990232945L195.7052597427368,73.77064753149746L196.40171974182127,73.63714413213735L197.09817974090578,73.81512214427595L197.79463973999023,74.03760128953458L198.4910997390747,73.90412441051602L199.18755973815917,73.9485990232945L199.88401973724365,73.9485990232945L200.58047973632813,73.9485990232945L201.2769397354126,73.99310015641454L201.97339973449706,73.99310015641454L202.66985973358155,74.03760128953458L203.366319732666,74.03760128953458L204.0627797317505,73.72614639837742L204.75923973083496,74.21557930167317L205.45569972991944,73.81512214427595L206.1521597290039,73.90412441051602L206.84861972808838,73.50366725311879L207.54507972717286,73.90412441051602L208.24153972625734,73.68164526525739L208.9379997253418,73.81512214427595L209.63445972442625,73.85962327739598L210.33091972351073,73.81512214427595L211.0273797225952,73.72614639837742L211.7238397216797,73.68164526525739L212.42029972076415,73.81512214427595L213.11675971984863,73.81512214427595L213.81321971893308,73.99310015641454L214.5096797180176,73.90412441051602L215.20613971710205,73.85962327739598L215.90259971618653,73.90412441051602L216.59905971527098,73.85962327739598L217.29551971435546,73.90412441051602L217.99197971343995,73.85962327739598L218.68843971252443,73.90412441051602L219.38489971160888,73.90412441051602L220.08135971069336,74.03760128953458L220.77781970977782,73.90412441051602L221.47427970886233,73.85962327739598L222.17073970794678,73.9485990232945L222.86719970703126,73.99310015641454L223.56365970611571,73.90412441051602L224.2601197052002,73.9485990232945L224.95657970428468,73.99310015641454L225.65303970336916,73.99310015641454L226.3494997024536,73.90412441051602L227.04595970153807,73.85962327739598L227.74241970062255,73.90412441051602L228.43887969970703,73.85962327739598L229.1353396987915,73.85962327739598L229.83179969787597,73.9485990232945L230.52825969696045,73.85962327739598L231.2247196960449,73.9485990232945L231.9211796951294,73.99310015641454L232.61763969421386,74.08210242265461L233.31409969329835,73.99310015641454L234.0105596923828,74.1265770354331L234.70701969146728,74.03760128953458L235.40347969055176,73.9485990232945L236.09993968963624,73.99310015641454L236.7963996887207,73.90412441051602L237.49285968780518,73.90412441051602L238.18931968688963,73.99310015641454L238.88577968597414,73.99310015641454L239.5822396850586,74.03760128953458L240.27869968414308,74.17107816855314L240.97515968322753,74.1265770354331L241.671619682312,74.26008043479321L242.3680796813965,74.17107816855314L243.06453968048098,74.21557930167317" fill="none"></path></g></g></g></g></g></g><g transform="translate(51, 177)" clip-path="url(#clip_1)"><clipPath id="clip_1"><rect width="278" height="22"></rect></clipPath><g><g><line x1="0" y1="0" x2="0" y2="5" style="visibility: inherit;" fill="rgb(0, 0, 0)" stroke="rgb(204, 204, 204)" stroke-width="1px"></line><line x1="34.82299995422363" y1="0" x2="34.82299995422363" y2="5" style="visibility: inherit;" fill="rgb(0, 0, 0)" stroke="rgb(204, 204, 204)" stroke-width="1px"></line><line x1="69.64599990844727" y1="0" x2="69.64599990844727" y2="5" style="visibility: inherit;" fill="rgb(0, 0, 0)" stroke="rgb(204, 204, 204)" stroke-width="1px"></line><line x1="104.4689998626709" y1="0" x2="104.4689998626709" y2="5" style="visibility: inherit;" fill="rgb(0, 0, 0)" stroke="rgb(204, 204, 204)" stroke-width="1px"></line><line x1="139.29199981689453" y1="0" x2="139.29199981689453" y2="5" style="visibility: inherit;" fill="rgb(0, 0, 0)" stroke="rgb(204, 204, 204)" stroke-width="1px"></line><line x1="174.11499977111816" y1="0" x2="174.11499977111816" y2="5" style="visibility: inherit;" fill="rgb(0, 0, 0)" stroke="rgb(204, 204, 204)" stroke-width="1px"></line><line x1="208.9379997253418" y1="0" x2="208.9379997253418" y2="5" style="visibility: inherit;" fill="rgb(0, 0, 0)" stroke="rgb(204, 204, 204)" stroke-width="1px"></line><line x1="243.76099967956543" y1="0" x2="243.76099967956543" y2="5" style="visibility: inherit;" fill="rgb(0, 0, 0)" stroke="rgb(204, 204, 204)" stroke-width="1px"></line><line x1="278.58399963378906" y1="0" x2="278.58399963378906" y2="5" style="visibility: inherit;" fill="rgb(0, 0, 0)" stroke="rgb(204, 204, 204)" stroke-width="1px"></line></g><g transform="translate(0, 8)"><text style="text-anchor: middle; visibility: hidden; font-family: &quot;Helvetica Neue&quot;, sans-serif; font-size: 12px; font-weight: 200;" x="0" y="0" dx="0em" dy="0.95em" fill="rgb(50, 49, 63)" stroke="none" stroke-width="1px">-50</text><text style="text-anchor: middle; visibility: inherit; font-family: &quot;Helvetica Neue&quot;, sans-serif; font-size: 12px; font-weight: 200;" x="34.82299995422363" y="0" dx="0em" dy="0.95em" fill="rgb(50, 49, 63)" stroke="none" stroke-width="1px">0</text><text style="text-anchor: middle; visibility: inherit; font-family: &quot;Helvetica Neue&quot;, sans-serif; font-size: 12px; font-weight: 200;" x="69.64599990844727" y="0" dx="0em" dy="0.95em" fill="rgb(50, 49, 63)" stroke="none" stroke-width="1px">50</text><text style="text-anchor: middle; visibility: inherit; font-family: &quot;Helvetica Neue&quot;, sans-serif; font-size: 12px; font-weight: 200;" x="104.4689998626709" y="0" dx="0em" dy="0.95em" fill="rgb(50, 49, 63)" stroke="none" stroke-width="1px">100</text><text style="text-anchor: middle; visibility: inherit; font-family: &quot;Helvetica Neue&quot;, sans-serif; font-size: 12px; font-weight: 200;" x="139.29199981689453" y="0" dx="0em" dy="0.95em" fill="rgb(50, 49, 63)" stroke="none" stroke-width="1px">150</text><text style="text-anchor: middle; visibility: inherit; font-family: &quot;Helvetica Neue&quot;, sans-serif; font-size: 12px; font-weight: 200;" x="174.11499977111816" y="0" dx="0em" dy="0.95em" fill="rgb(50, 49, 63)" stroke="none" stroke-width="1px">200</text><text style="text-anchor: middle; visibility: inherit; font-family: &quot;Helvetica Neue&quot;, sans-serif; font-size: 12px; font-weight: 200;" x="208.9379997253418" y="0" dx="0em" dy="0.95em" fill="rgb(50, 49, 63)" stroke="none" stroke-width="1px">250</text><text style="text-anchor: middle; visibility: inherit; font-family: &quot;Helvetica Neue&quot;, sans-serif; font-size: 12px; font-weight: 200;" x="243.76099967956543" y="0" dx="0em" dy="0.95em" fill="rgb(50, 49, 63)" stroke="none" stroke-width="1px">300</text><text style="text-anchor: middle; visibility: hidden; font-family: &quot;Helvetica Neue&quot;, sans-serif; font-size: 12px; font-weight: 200;" x="278.58399963378906" y="0" dx="0em" dy="0.95em" fill="rgb(50, 49, 63)" stroke="none" stroke-width="1px">350</text></g><line x1="0" y1="0" x2="278.58399963378906" y2="0" fill="rgb(0, 0, 0)" stroke="rgb(204, 204, 204)" stroke-width="1px"></line></g></g></g></g></svg>