<svg viewBox="0 0 330 200" xmlns="http://www.w3.org/2000/svg"><g><g><g><g><g><line x1="51.41600036621094" y1="177.9749994277954" x2="46.41600036621094" y2="177.9749994277954" style="visibility: inherit;" fill="rgb(0, 0, 0)" stroke="rgb(204, 204, 204)" stroke-width="1px"></line><line x1="51.41600036621094" y1="165.26249946866716" x2="46.41600036621094" y2="165.26249946866716" style="visibility: inherit;" fill="rgb(0, 0, 0)" stroke="rgb(204, 204, 204)" stroke-width="1px"></line><line x1="51.41600036621094" y1="152.5499995095389" x2="46.41600036621094" y2="152.5499995095389" style="visibility: inherit;" fill="rgb(0, 0, 0)" stroke="rgb(204, 204, 204)" stroke-width="1px"></line><line x1="51.41600036621094" y1="139.83749955041066" x2="46.41600036621094" y2="139.83749955041066" style="visibility: inherit;" fill="rgb(0, 0, 0)" stroke="rgb(204, 204, 204)" stroke-width="1px"></line><line x1="51.41600036621094" y1="127.12499959128243" x2="46.41600036621094" y2="127.12499959128243" style="visibility: inherit;" fill="rgb(0, 0, 0)" stroke="rgb(204, 204, 204)" stroke-width="1px"></line><line x1="51.41600036621094" y1="114.4124996321542" x2="46.41600036621094" y2="114.4124996321542" style="visibility: inherit;" fill="rgb(0, 0, 0)" stroke="rgb(204, 204, 204)" stroke-width="1px"></line><line x1="51.41600036621094" y1="101.69999967302593" x2="46.41600036621094" y2="101.69999967302593" style="visibility: inherit;" fill="rgb(0, 0, 0)" stroke="rgb(204, 204, 204)" stroke-width="1px"></line><line x1="51.41600036621094" y1="88.9874997138977" x2="46.41600036621094" y2="88.9874997138977" style="visibility: inherit;" fill="rgb(0, 0, 0)" stroke="rgb(204, 204, 204)" stroke-width="1px"></line><line x1="51.41600036621094" y1="76.27499975476945" x2="46.41600036621094" y2="76.27499975476945" style="visibility: inherit;" fill="rgb(0, 0, 0)" stroke="rgb(204, 204, 204)" stroke-width="1px"></line><line x1="51.41600036621094" y1="63.56249979564123" x2="46.41600036621094" y2="63.56249979564123" style="visibility: inherit;" fill="rgb(0, 0, 0)" stroke="rgb(204, 204, 204)" stroke-width="1px"></line><line x1="51.41600036621094" y1="50.84999983651298" x2="46.41600036621094" y2="50.84999983651298" style="visibility: inherit;" fill="rgb(0, 0, 0)" stroke="rgb(204, 204, 204)" stroke-width="1px"></line><line x1="51.41600036621094" y1="38.13749987738473" x2="46.41600036621094" y2="38.13749987738473" style="visibility: inherit;" fill="rgb(0, 0, 0)" stroke="rgb(204, 204, 204)" stroke-width="1px"></line><line x1="51.41600036621094" y1="25.424999918256475" x2="46.41600036621094" y2="25.424999918256475" style="visibility: inherit;" fill="rgb(0, 0, 0)" stroke="rgb(204, 204, 204)" stroke-width="1px"></line><line x1="51.41600036621094" y1="12.712499959128223" x2="46.41600036621094" y2="12.712499959128223" style="visibility: inherit;" fill="rgb(0, 0, 0)" stroke="rgb(204, 204, 204)" stroke-width="1px"></line><line x1="51.41600036621094" y1="0" x2="46.41600036621094" y2="0" style="visibility: inherit;" fill="rgb(0, 0, 0)" stroke="rgb(204, 204, 204)" stroke-width="1px"></line></g><g transform="translate(41.41600036621094, 0)"><text style="text-anchor: end; visibility: hidden; font-family: &quot;Helvetica Neue&quot;, sans-serif; font-size: 12px; font-weight: 200;" x="0" y="177.9749994277954" dx="0em" dy="0.3em" fill="rgb(50, 49, 63)" stroke="none" stroke-width="1px">-0.4</text><text style="text-anchor: end; visibility: inherit; font-family: &quot;Helvetica Neue&quot;, sans-serif; font-size: 12px; font-weight: 200;" x="0" y="165.26249946866716" dx="0em" dy="0.3em" fill="rgb(50, 49, 63)" stroke="none" stroke-width="1px">-0.2</text><text style="text-anchor: end; visibility: hidden; font-family: &quot;Helvetica Neue&quot;, sans-serif; font-size: 12px; font-weight: 200;" x="0" y="152.5499995095389" dx="0em" dy="0.3em" fill="rgb(50, 49, 63)" stroke="none" stroke-width="1px">0</text><text style="text-anchor: end; visibility: inherit; font-family: &quot;Helvetica Neue&quot;, sans-serif; font-size: 12px; font-weight: 200;" x="0" y="139.83749955041066" dx="0em" dy="0.3em" fill="rgb(50, 49, 63)" stroke="none" stroke-width="1px">0.2</text><text style="text-anchor: end; visibility: hidden; font-family: &quot;Helvetica Neue&quot;, sans-serif; font-size: 12px; font-weight: 200;" x="0" y="127.12499959128243" dx="0em" dy="0.3em" fill="rgb(50, 49, 63)" stroke="none" stroke-width="1px">0.4</text><text style="text-anchor: end; visibility: inherit; font-family: &quot;Helvetica Neue&quot;, sans-serif; font-size: 12px; font-weight: 200;" x="0" y="114.4124996321542" dx="0em" dy="0.3em" fill="rgb(50, 49, 63)" stroke="none" stroke-width="1px">0.6</text><text style="text-anchor: end; visibility: hidden; font-family: &quot;Helvetica Neue&quot;, sans-serif; font-size: 12px; font-weight: 200;" x="0" y="101.69999967302593" dx="0em" dy="0.3em" fill="rgb(50, 49, 63)" stroke="none" stroke-width="1px">0.8</text><text style="text-anchor: end; visibility: inherit; font-family: &quot;Helvetica Neue&quot;, sans-serif; font-size: 12px; font-weight: 200;" x="0" y="88.9874997138977" dx="0em" dy="0.3em" fill="rgb(50, 49, 63)" stroke="none" stroke-width="1px">1</text><text style="text-anchor: end; visibility: hidden; font-family: &quot;Helvetica Neue&quot;, sans-serif; font-size: 12px; font-weight: 200;" x="0" y="76.27499975476945" dx="0em" dy="0.3em" fill="rgb(50, 49, 63)" stroke="none" stroke-width="1px">1.2</text><text style="text-anchor: end; visibility: inherit; font-family: &quot;Helvetica Neue&quot;, sans-serif; font-size: 12px; font-weight: 200;" x="0" y="63.56249979564123" dx="0em" dy="0.3em" fill="rgb(50, 49, 63)" stroke="none" stroke-width="1px">1.4</text><text style="text-anchor: end; visibility: hidden; font-family: &quot;Helvetica Neue&quot;, sans-serif; font-size: 12px; font-weight: 200;" x="0" y="50.84999983651298" dx="0em" dy="0.3em" fill="rgb(50, 49, 63)" stroke="none" stroke-width="1px">1.6</text><text style="text-anchor: end; visibility: inherit; font-family: &quot;Helvetica Neue&quot;, sans-serif; font-size: 12px; font-weight: 200;" x="0" y="38.13749987738473" dx="0em" dy="0.3em" fill="rgb(50, 49, 63)" stroke="none" stroke-width="1px">1.8</text><text style="text-anchor: end; visibility: hidden; font-family: &quot;Helvetica Neue&quot;, sans-serif; font-size: 12px; font-weight: 200;" x="0" y="25.424999918256475" dx="0em" dy="0.3em" fill="rgb(50, 49, 63)" stroke="none" stroke-width="1px">2</text><text style="text-anchor: end; visibility: inherit; font-family: &quot;Helvetica Neue&quot;, sans-serif; font-size: 12px; font-weight: 200;" x="0" y="12.712499959128223" dx="0em" dy="0.3em" fill="rgb(50, 49, 63)" stroke="none" stroke-width="1px">2.2</text><text style="text-anchor: end; visibility: hidden; font-family: &quot;Helvetica Neue&quot;, sans-serif; font-size: 12px; font-weight: 200;" x="0" y="0" dx="0em" dy="0.3em" fill="rgb(50, 49, 63)" stroke="none" stroke-width="1px">2.4</text></g><line x1="51.41600036621094" y1="0" x2="51.41600036621094" y2="177.9749994277954" fill="rgb(0, 0, 0)" stroke="rgb(204, 204, 204)" stroke-width="1px"></line></g></g><g transform="translate(51, 0)" clip-path="url(#clip_0)"><clipPath id="clip_0"><rect width="278" height="177"></rect></clipPath><g><g><g><line x1="0" y1="0" x2="0" y2="177.9749994277954" fill="rgb(0, 0, 0)" stroke="rgb(60, 60, 60)" stroke-width="1px" opacity="0.25"></line><line x1="34.82299995422363" y1="0" x2="34.82299995422363" y2="177.9749994277954" fill="rgb(0, 0, 0)" stroke="rgb(60, 60, 60)" stroke-width="1px" opacity="0.25"></line><line x1="69.64599990844727" y1="0" x2="69.64599990844727" y2="177.9749994277954" fill="rgb(0, 0, 0)" stroke="rgb(60, 60, 60)" stroke-width="1px" opacity="0.25"></line><line x1="104.4689998626709" y1="0" x2="104.4689998626709" y2="177.9749994277954" fill="rgb(0, 0, 0)" stroke="rgb(60, 60, 60)" stroke-width="1px" opacity="0.25"></line><line x1="139.29199981689453" y1="0" x2="139.29199981689453" y2="177.9749994277954" fill="rgb(0, 0, 0)" stroke="rgb(60, 60, 60)" stroke-width="1px" opacity="0.25"></line><line x1="174.11499977111816" y1="0" x2="174.11499977111816" y2="177.9749994277954" fill="rgb(0, 0, 0)" stroke="rgb(60, 60, 60)" stroke-width="1px" opacity="0.25"></line><line x1="208.9379997253418" y1="0" x2="208.9379997253418" y2="177.9749994277954" fill="rgb(0, 0, 0)" stroke="rgb(60, 60, 60)" stroke-width="1px" opacity="0.25"></line><line x1="243.76099967956543" y1="0" x2="243.76099967956543" y2="177.9749994277954" fill="rgb(0, 0, 0)" stroke="rgb(60, 60, 60)" stroke-width="1px" opacity="0.25"></line><line x1="278.58399963378906" y1="0" x2="278.58399963378906" y2="177.9749994277954" fill="rgb(0, 0, 0)" stroke="rgb(60, 60, 60)" stroke-width="1px" opacity="0.25"></line></g><g><line x1="0" y1="177.9749994277954" x2="278.58399963378906" y2="177.9749994277954" fill="rgb(0, 0, 0)" stroke="rgb(60, 60, 60)" stroke-width="1px" opacity="0.25"></line><line x1="0" y1="165.26249946866716" x2="278.58399963378906" y2="165.26249946866716" fill="rgb(0, 0, 0)" stroke="rgb(60, 60, 60)" stroke-width="1px" opacity="0.25"></line><line x1="0" y1="152.5499995095389" x2="278.58399963378906" y2="152.5499995095389" fill="rgb(0, 0, 0)" stroke="rgb(60, 60, 60)" stroke-width="1px" opacity="0.25"></line><line x1="0" y1="139.83749955041066" x2="278.58399963378906" y2="139.83749955041066" fill="rgb(0, 0, 0)" stroke="rgb(60, 60, 60)" stroke-width="1px" opacity="0.25"></line><line x1="0" y1="127.12499959128243" x2="278.58399963378906" y2="127.12499959128243" fill="rgb(0, 0, 0)" stroke="rgb(60, 60, 60)" stroke-width="1px" opacity="0.25"></line><line x1="0" y1="114.4124996321542" x2="278.58399963378906" y2="114.4124996321542" fill="rgb(0, 0, 0)" stroke="rgb(60, 60, 60)" stroke-width="1px" opacity="0.25"></line><line x1="0" y1="101.69999967302593" x2="278.58399963378906" y2="101.69999967302593" fill="rgb(0, 0, 0)" stroke="rgb(60, 60, 60)" stroke-width="1px" opacity="0.25"></line><line x1="0" y1="88.9874997138977" x2="278.58399963378906" y2="88.9874997138977" fill="rgb(0, 0, 0)" stroke="rgb(60, 60, 60)" stroke-width="1px" opacity="0.25"></line><line x1="0" y1="76.27499975476945" x2="278.58399963378906" y2="76.27499975476945" fill="rgb(0, 0, 0)" stroke="rgb(60, 60, 60)" stroke-width="1px" opacity="0.25"></line><line x1="0" y1="63.56249979564123" x2="278.58399963378906" y2="63.56249979564123" fill="rgb(0, 0, 0)" stroke="rgb(60, 60, 60)" stroke-width="1px" opacity="0.25"></line><line x1="0" y1="50.84999983651298" x2="278.58399963378906" y2="50.84999983651298" fill="rgb(0, 0, 0)" stroke="rgb(60, 60, 60)" stroke-width="1px" opacity="0.25"></line><line x1="0" y1="38.13749987738473" x2="278.58399963378906" y2="38.13749987738473" fill="rgb(0, 0, 0)" stroke="rgb(60, 60, 60)" stroke-width="1px" opacity="0.25"></line><line x1="0" y1="25.424999918256475" x2="278.58399963378906" y2="25.424999918256475" fill="rgb(0, 0, 0)" stroke="rgb(60, 60, 60)" stroke-width="1px" opacity="0.25"></line><line x1="0" y1="12.712499959128223" x2="278.58399963378906" y2="12.712499959128223" fill="rgb(0, 0, 0)" stroke="rgb(60, 60, 60)" stroke-width="1px" opacity="0.25"></line><line x1="0" y1="0" x2="278.58399963378906" y2="0" fill="rgb(0, 0, 0)" stroke="rgb(60, 60, 60)" stroke-width="1px" opacity="0.25"></line></g></g></g><g><g><line x1="0" y1="152.5499995095389" x2="278.58399963378906" y2="152.5499995095389" fill="rgb(0, 0, 0)" stroke="rgb(153, 153, 153)" stroke-width="1.5px"></line></g></g><g><g><line x1="34.82299995422363" y1="0" x2="34.82299995422363" y2="177.9749994277954" fill="rgb(0, 0, 0)" stroke="rgb(153, 153, 153)" stroke-width="1.5px"></line></g></g><g><g><g><g><g><path style="fill: none;" stroke="rgb(238, 51, 119)" stroke-width="2px" d="M40.39467994689941,-4.545728993702085L41.09113994598388,0.8482205423263736L41.78759994506836,6.408748132247382L42.48405994415283,10.069555461814787L43.18051994323731,12.289959692184766L43.876979942321775,17.653297176824708L44.57343994140625,21.920753530716354L45.269899940490724,21.023487026452415L45.9663599395752,27.067828995880888L46.66281993865967,29.337280703636537L47.35927993774414,31.047085009534072L48.05573993682861,31.566929167346643L48.75219993591308,32.12574307275605L49.44865993499756,33.974733708345724L50.14511993408203,32.7057580969242L50.8415799331665,34.397968050513754L51.538039932250975,39.098296996416536L52.23449993133545,37.417233163518205L52.930959930419924,41.52383985729202L53.6274199295044,38.8206972155574L54.323879928588866,43.266817321847725L55.02033992767334,40.47940818914975L55.716799926757815,40.40154446636046L56.41325992584229,44.789668374302266L57.10971992492676,46.96941313245668L57.806179924011225,47.8834026063777L58.5026399230957,44.63537302716736L59.199099922180174,48.18728783433258L59.89555992126465,46.4673982214058L60.592019920349124,47.44635495488262L61.28847991943359,47.87005150871764L61.984939918518066,49.608414433843734L62.68139991760254,49.28104733775689L63.377859916687015,48.558557461544495L64.07431991577148,49.76633927915071L64.77077991485596,51.58592264458221L65.46723991394043,53.0627419613473L66.1636999130249,52.05656020295983L66.86015991210937,50.09397157865304L67.55661991119385,51.35164952457451L68.25307991027832,49.87635323313842L68.9495399093628,53.994894080609484L69.64599990844727,52.789643061311125L70.34245990753173,53.57821405142441L71.03891990661621,52.17474242214476L71.73537990570068,53.613228479510184L72.43183990478516,51.74853022448278L73.12829990386963,54.28421585243349L73.8247599029541,51.902620986125726L74.52121990203858,53.80869097397033L75.21767990112305,53.67702884403779L75.91413990020753,54.21823324265837L76.610599899292,52.05931074124052L77.30705989837647,52.828491573060916L78.00351989746095,53.158594052947564L78.6999798965454,55.501749578489466L79.39643989562988,57.26091960587124L80.09289989471435,56.736847347891654L80.78935989379882,55.70513786645269L81.4858198928833,54.16290423294569L82.18227989196777,55.86064557205842L82.87873989105225,56.707940175602715L83.57519989013672,55.62262929527202L84.27165988922118,56.19617335610208L84.96811988830567,53.59354280884001L85.66457988739013,53.99598520323323L86.36103988647461,56.38835490545053L87.05749988555908,55.89305342943189L87.75395988464355,55.53014907566873L88.45041988372803,57.67229556674643L89.1468798828125,53.86117094127653L89.84333988189698,58.08387611311355L90.53979988098145,55.741311612326186L91.23625988006592,71.21654466292668L91.9327198791504,73.19565167139856L92.62917987823486,75.11623965193141L93.32563987731935,75.7096967006449L94.02209987640381,77.14554587833625L94.71855987548828,77.74106393645016L95.41501987457276,78.05623925266468L96.11147987365722,78.71192059989372L96.8079398727417,79.41022392461299L97.50439987182617,79.59263083379035L98.20085987091063,79.79157885885414L98.89731986999512,80.7191467476485L99.59377986907958,80.64956494866308L100.29023986816406,81.66816580413617L100.98669986724853,81.1250822498858L101.683159866333,82.24264186554066L102.37961986541748,81.92741350864304L103.07607986450195,82.04903579498898L103.77253986358643,82.84391104915059L104.4689998626709,83.17956006904133L105.16545986175537,83.09279308873185L105.86191986083985,83.56541588410545L106.55837985992432,83.75494539929896L107.2548398590088,83.81472982639194L107.95129985809326,83.90383059675777L108.64775985717773,84.6464607780669L109.34421985626221,84.70726813261965L110.04067985534668,84.728976926488L110.73713985443116,84.48780094043698L111.43359985351563,84.90221537472969L112.1300598526001,85.23384087994533L112.82651985168458,85.10233029482166L113.52297985076903,85.96356702078053L114.21943984985352,85.08028052513338L114.91589984893798,85.92950732499055L115.61235984802245,85.78223607974603L116.30881984710693,86.2283839970128L117.0052798461914,86.08933405764863L117.70173984527588,86.35448443246038L118.39819984436035,87.00325533640566L119.09465984344482,87.61597373032453L119.7911198425293,87.97689284709169L120.48757984161377,87.80229049557032L121.18403984069825,87.94397731460856L121.88049983978271,88.52618216126463L122.57695983886718,88.24394510925457L123.27341983795166,88.30080472153666L123.96987983703613,88.732328564749L124.66633983612061,88.41375864481614L125.36279983520508,88.63173312063158L126.05925983428955,88.67484004151017L126.75571983337403,88.55264946213101L127.4521798324585,89.02377575251718L128.14863983154297,88.73376824043312L128.84509983062745,88.72445581192902L129.54155982971193,88.78938518528261L130.23801982879638,89.20170072397268L130.93447982788086,88.91162880534485L131.63093982696532,89.08114682852916L132.3273998260498,88.99330766869704L133.02385982513428,88.71063492536152L133.72031982421873,89.11146715616067L134.41677982330322,89.24374683118927L135.1132398223877,89.03429296225167L135.80969982147215,89.49841030522832L136.50615982055663,89.33785236886752L137.20261981964111,89.35122998686911L137.8990798187256,89.25051709552483L138.59553981781005,89.03098928541864L139.29199981689453,89.06146494647922L139.98845981597898,89.1667014503678L140.68491981506347,89.58407479705338L141.38137981414795,89.19386585735492L142.07783981323243,89.29235861724948L142.77429981231688,89.66083981997846L143.47075981140136,89.21967014968257L144.16721981048582,89.53386421325976L144.86367980957033,89.50438117069717L145.56013980865478,89.5118182321917L146.25659980773926,89.75753677388812L146.95305980682372,89.66212416223351L147.6495198059082,89.37643188858158L148.34597980499268,89.5483670514671L149.04243980407716,89.81357425558218L149.73889980316162,89.43560255919868L150.4353598022461,89.81341513353289L151.13181980133055,89.6526829206419L151.82827980041506,89.93524579399099L152.5247397994995,89.68037773446L153.221199798584,89.83120649409236L153.91765979766845,89.795377512659L154.61411979675293,89.73737752569028L155.3105797958374,90.12494200847425L156.0070397949219,89.9540335616687L156.70349979400635,89.87618878198052L157.3999597930908,89.98515707678712L158.09641979217528,89.78937254960816L158.79287979125976,90.11128782119647L159.48933979034425,90.05131775171265L160.1857997894287,89.70225701623832L160.88225978851318,90.17785766710591L161.57871978759763,89.80209094769125L162.27517978668214,89.9972882387359L162.9716397857666,90.30825060926429L163.66809978485108,90.05261345982835L164.36455978393553,90.10024399325123L165.06101978302001,90.73636848289763L165.7574797821045,89.94898711953385L166.45393978118898,90.14455948398042L167.15039978027343,90.2690990078968L167.8468597793579,90.4380297949468L168.54331977844237,90.46102671969042L169.23977977752688,90.2595024328761L169.93623977661133,90.36232558568369L170.6326997756958,90.43377896305844L171.32915977478027,90.38129141851178L172.02561977386475,90.42246235445725L172.72207977294923,90.18257828790172L173.4185397720337,90.69021551136107L174.11499977111816,90.66871130298466L174.81145977020262,90.71697832460472L175.5079197692871,90.60126249718388L176.20437976837158,90.54183041177149L176.90083976745606,90.74647273302799L177.59729976654052,90.71976674908765L178.293759765625,90.64190302629837L178.99021976470945,90.70383560105685L179.68667976379396,90.46465621786248L180.38313976287841,90.74736684740022L181.0795997619629,90.63877741461573L181.77605976104735,90.66066048501429L182.47251976013183,90.95081196466677L183.1689797592163,90.45716611568486L183.8654397583008,90.27739229756135L184.56189975738525,90.67280680144395L185.25835975646973,90.60131553786698L185.95481975555418,90.46161016720451L186.6512797546387,90.73385283907064L187.34773975372315,90.77875556593415L188.04419975280763,90.7062565293783L188.74065975189208,90.66236915273412L189.43711975097656,90.57104067367814L190.13357975006105,90.60867303833686L190.83003974914553,90.65681503548961L191.52649974822998,90.54387626669102L192.22295974731443,90.9246325989372L192.91941974639892,90.60732807815828L193.6158797454834,90.79586118623357L194.31233974456788,90.49993963798397L195.00879974365233,90.48855483421879L195.7052597427368,90.52117485432466L196.40171974182127,90.65033270629087L197.09817974090578,90.69582645790891L197.79463973999023,90.76046410750544L198.4910997390747,90.88680322602697L199.18755973815917,90.9579686682649L199.88401973724365,90.6328974760322L200.58047973632813,90.76853765719716L201.2769397354126,90.63928887834562L201.97339973449706,90.60669158996109L202.66985973358155,90.75214429749934L203.366319732666,90.87477435682416L204.0627797317505,90.83276992443001L204.75923973083496,90.74899595409539L205.45569972991944,90.57352979716356L206.1521597290039,90.36301132594375L206.84861972808838,90.88053684818084L207.54507972717286,90.89905941244305L208.24153972625734,90.79398960784421L208.9379997253418,90.73635711703696L209.63445972442625,90.61500382272673L210.33091972351073,90.86456402532761L211.0273797225952,90.99301719393266L211.7238397216797,90.75810000848732L212.42029972076415,90.82970114205071L213.11675971984863,90.67650070615977L213.81321971893308,90.87676338244037L214.5096797180176,90.822552015693L215.20613971710205,90.72512006946042L215.90259971618653,90.82265430843898L216.59905971527098,90.59650777880609L217.29551971435546,90.53642405071561L217.99197971343995,90.87844174119843L218.68843971252443,90.66915078293034L219.38489971160888,90.76909079574946L220.08135971069336,90.96140873542589L220.77781970977782,90.66042559056056L221.47427970886233,90.90052560846871L222.17073970794678,90.65396599308315L222.86719970703126,90.47088849812661L223.56365970611571,91.0891117572271L224.2601197052002,90.95361175501034L224.95657970428468,90.74691221297365L225.65303970336916,90.36632258001721L226.3494997024536,91.01244523842777L227.04595970153807,90.72588915936535L227.74241970062255,90.63250345952918L228.43887969970703,90.98871332136119L229.1353396987915,90.67800857700787L229.83179969787597,90.49286249541046L230.52825969696045,90.67261358181267L231.2247196960449,90.89579362181225L231.9211796951294,90.78382473979032L232.61763969421386,90.65587924629494L233.31409969329835,90.52150825290414L234.0105596923828,90.60966186821463L234.70701969146728,91.04249278540334L235.40347969055176,90.851220504908L236.09993968963624,90.71082181674502L236.7963996887207,90.69688727157089L237.49285968780518,90.95399819427291L238.18931968688963,90.71164394733306L238.88577968597414,90.66243355927787L239.5822396850586,90.65327267558264L240.27869968414308,90.63592079496884L240.97515968322753,90.97386571871371L241.671619682312,90.6243465601926L242.3680796813965,90.78400659356095L243.06453968048098,90.66777930241021" fill="none"></path></g><g><path style="fill: none;" stroke="rgb(204, 51, 17)" stroke-width="2px" d="M39.69821994781494,-5.321759650882711L40.39467994689941,2.6277506147777103L41.09113994598388,8.387620246265556L41.78759994506836,13.102649038627192L42.48405994415283,14.853476524281575L43.18051994323731,16.974861376546215L43.876979942321775,24.29837034579168L44.57343994140625,23.764705301411624L45.269899940490724,26.61471759464729L45.9663599395752,31.51953352837748L46.66281993865967,32.62674263358761L47.35927993774414,34.53249437733362L48.05573993682861,35.127860890638686L48.75219993591308,35.0086784757153L49.44865993499756,35.371393398467376L50.14511993408203,35.84160663138019L50.8415799331665,36.315873687929866L51.538039932250975,40.94659810312592L52.23449993133545,38.33466270460022L52.930959930419924,43.06362604213601L53.6274199295044,40.078329698036214L54.323879928588866,43.43516845000386L55.02033992767334,41.252097283295114L55.716799926757815,42.560232073324585L56.41325992584229,42.577553644976604L57.10971992492676,45.14993584839135L57.806179924011225,46.12180028481379L58.5026399230957,43.779023621294044L59.199099922180174,48.08895040786709L59.89555992126465,45.447448617133944L60.592019920349124,45.25505490505307L61.28847991943359,46.70973352524456L61.984939918518066,48.03934221468867L62.68139991760254,47.76558409473398L63.377859916687015,47.057544016045824L64.07431991577148,49.39683514896194L64.77077991485596,50.1166199503363L65.46723991394043,51.568404064678674L66.1636999130249,50.14517856956488L66.86015991210937,47.274609223008156L67.55661991119385,48.76372640101175L68.25307991027832,48.534946780325015L68.9495399093628,50.725958895017726L69.64599990844727,51.07089003445077L70.34245990753173,50.67564601847813L71.03891990661621,49.83814878682625L71.73537990570068,50.31289320952382L72.43183990478516,49.349924453381135L73.12829990386963,51.68503294957286L73.8247599029541,49.61396855108825L74.52121990203858,51.84357155135568L75.21767990112305,50.932097721261655L75.91413990020753,50.81324112767729L76.610599899292,49.702660150470166L77.30705989837647,49.49627127529163L78.00351989746095,48.90438271534978L78.6999798965454,51.91539621351214L79.39643989562988,54.01019252906332L80.09289989471435,52.503700738724575L80.78935989379882,52.91064401394077L81.4858198928833,51.55667449647335L82.18227989196777,52.05715122771434L82.87873989105225,52.989076029763254L83.57519989013672,51.513188713572646L84.27165988922118,53.27433640070997L84.96811988830567,50.76144311201094L85.66457988739013,49.89936531236293L86.36103988647461,52.805918973782084L87.05749988555908,52.40675752450055L87.75395988464355,52.188714853521134L88.45041988372803,52.739860591602536L89.1468798828125,51.410153398032676L89.84333988189698,53.45143924157743L90.53979988098145,51.222631851556486L91.23625988006592,62.96473281256391L91.9327198791504,64.28455170735603L92.62917987823486,65.12090477570105L93.32563987731935,65.09389191352278L94.02209987640381,65.58872360063397L94.71855987548828,66.1784450698092L95.41501987457276,66.05564831119463L96.11147987365722,66.57007474209067L96.8079398727417,67.12475147421837L97.50439987182617,66.70325232011174L98.20085987091063,67.31853182130024L98.89731986999512,67.64598226703195L99.59377986907958,67.51922261166587L100.29023986816406,67.71407134965015L100.98669986724853,67.4249162771159L101.683159866333,68.15018700057077L102.37961986541748,67.40489720786626L103.07607986450195,68.03425522179731L103.77253986358643,68.20298521197557L104.4689998626709,68.37392775636312L105.16545986175537,68.34320962360837L105.86191986083985,68.30708891841797L106.55837985992432,68.05925253801782L107.2548398590088,68.42981748186854L107.95129985809326,68.21831396939118L108.64775985717773,68.69512697872959L109.34421985626221,68.59059894682241L110.04067985534668,68.31077903451357L110.73713985443116,68.22912669150293L111.43359985351563,68.50747661916589L112.1300598526001,68.61486884796041L112.82651985168458,68.69005780487342L113.52297985076903,69.08428647062674L114.21943984985352,68.78691766945259L114.91589984893798,68.56911747016733L115.61235984802245,68.1219996661239L116.30881984710693,69.01134795412521L117.0052798461914,68.38183081814486L117.70173984527588,68.09882088760965L118.39819984436035,69.17107618265754L119.09465984344482,69.5508171646844L119.7911198425293,69.65898227200408L120.48757984161377,69.8875951934011L121.18403984069825,69.99559360143104L121.88049983978271,69.98163632453557L122.57695983886718,69.93471047447386L123.27341983795166,69.88786797405703L123.96987983703613,69.8752139825177L124.66633983612061,69.98171967418044L125.36279983520508,69.89461929529149L126.05925983428955,69.77883148408644L126.75571983337403,70.08921798434116L127.4521798324585,70.09273382390658L128.14863983154297,70.05656765527353L128.84509983062745,70.08488380280794L129.54155982971193,69.92443573643355L130.23801982879638,70.14509255536571L130.93447982788086,70.00658817731342L131.63093982696532,69.94503067595683L132.3273998260498,70.03411629184178L133.02385982513428,70.09335515762288L133.72031982421873,70.23898214169132L134.41677982330322,69.93333899395374L135.1132398223877,70.17656083492429L135.80969982147215,70.1477521667611L136.50615982055663,70.24204334683019L137.20261981964111,69.98820579199939L137.8990798187256,70.08261820791556L138.59553981781005,70.07235104711569L139.29199981689453,70.18901024097165L139.98845981597898,70.17295406847356L140.68491981506347,70.03262357547456L141.38137981414795,70.15253340548045L142.07783981323243,70.12880148841388L142.77429981231688,70.06482684735609L143.47075981140136,70.1537306094704L144.16721981048582,70.11555647212002L144.86367980957033,70.09677249306255L145.56013980865478,70.13766685973185L146.25659980773926,70.10538781544591L146.95305980682372,70.15474595968972L147.6495198059082,70.15860277507507L148.34597980499268,70.12853628499839L149.04243980407716,70.0063381283788L149.73889980316162,70.13622718404774L150.4353598022461,70.25346224817734L151.13181980133055,70.23404935816312L151.82827980041506,70.2169247947626L152.5247397994995,70.12963498486258L153.221199798584,70.33784239774737L153.91765979766845,70.3023127173115L154.61411979675293,70.09043792005244L155.3105797958374,70.0489146424264L156.0070397949219,70.17706093279351L156.70349979400635,70.09287779147499L157.3999597930908,70.13405251604068L158.09641979217528,70.16341432275618L158.79287979125976,70.03902634364866L159.48933979034425,70.1149124066824L160.1857997894287,70.23300369898203L160.88225978851318,70.28479413740796L161.57871978759763,70.24611232494792L162.27517978668214,70.35217853666498L162.9716397857666,70.29160607656596L163.66809978485108,70.24471053546601L164.36455978393553,70.29791791785473L165.06101978302001,70.29687983591408L165.7574797821045,70.21136310027765L166.45393978118898,70.20719561803416L167.15039978027343,70.212310255333L167.8468597793579,70.31236771537898L168.54331977844237,70.09935633205352L169.23977977752688,70.28196024948238L169.93623977661133,70.16912756204998L170.6326997756958,70.15672361944527L171.32915977478027,70.04865701625134L172.02561977386475,70.26085763484943L172.72207977294923,70.31275415464155L173.4185397720337,70.16159578504993L174.11499977111816,70.29237895509111L174.81145977020262,70.31517887158323L175.5079197692871,70.33684220200892L176.20437976837158,70.342388742013L176.90083976745606,70.32969686427145L177.59729976654052,70.35611870169518L178.293759765625,70.37300079340154L178.99021976470945,70.35777811735214L179.68667976379396,70.34094906632888L180.38313976287841,70.37050030405545L181.0795997619629,70.356406636832L181.77605976104735,70.37710008048104L182.47251976013183,70.37328115129792L183.1689797592163,70.36351408836727L183.8654397583008,70.37103828812688L184.56189975738525,70.33586473799183L185.25835975646973,70.33125777580265L185.95481975555418,70.32425640563359L186.6512797546387,70.31488335920595L187.34773975372315,70.32423367391226L188.04419975280763,70.337493844687L188.74065975189208,70.35392887920725L189.43711975097656,70.3338037285914L190.13357975006105,70.28756740740998L190.83003974914553,70.32863605060948L191.52649974822998,70.31668674243132L192.22295974731443,70.33856223558942L192.91941974639892,70.30100185471491L193.6158797454834,70.2812025254381L194.31233974456788,70.29989557761027L195.00879974365233,70.32268791686195L195.7052597427368,70.32687055358632L196.40171974182127,70.31304208977838L197.09817974090578,70.3002895941133L197.79463973999023,70.32698421219297L198.4910997390747,70.3235668767533L199.18755973815917,70.30079726922295L199.88401973724365,70.31150390996851L200.58047973632813,70.30488140182158L201.2769397354126,70.2846425925991L201.97339973449706,70.3254990730662L202.66985973358155,70.33049247451794L203.366319732666,70.32075572054906L204.0627797317505,70.3426918316307L204.75923973083496,70.33892594313068L205.45569972991944,70.3372968364355L206.1521597290039,70.38201013228793L206.84861972808838,70.34636679324542L207.54507972717286,70.3411309200995L208.24153972625734,70.30608618305197L208.9379997253418,70.3266886998157L209.63445972442625,70.32990144976341L210.33091972351073,70.33056824692237L211.0273797225952,70.33550860769101L211.7238397216797,70.33019696214068L212.42029972076415,70.32865120509037L213.11675971984863,70.32599159369497L213.81321971893308,70.32816626170202L214.5096797180176,70.32904522159338L215.20613971710205,70.33187153227851L215.90259971618653,70.33434928990327L216.59905971527098,70.33222766257931L217.29551971435546,70.3330232728258L217.99197971343995,70.33829703217393L218.68843971252443,70.3355237621719L219.38489971160888,70.33473572916586L220.08135971069336,70.3305758241628L220.77781970977782,70.33412197269L221.47427970886233,70.33596324211757L222.17073970794678,70.33619055933086L222.86719970703126,70.33617540484997L223.56365970611571,70.33746353572523L224.2601197052002,70.3347433064063L224.95657970428468,70.33472057468497L225.65303970336916,70.33303842730669L226.3494997024536,70.3359859738389L227.04595970153807,70.33495546913869L227.74241970062255,70.33352337069502L228.43887969970703,70.33657699859343L229.1353396987915,70.33834249561659L229.83179969787597,70.3359480876367L230.52825969696045,70.33565257525943L231.2247196960449,70.33722106403107L231.9211796951294,70.33135627992841L232.61763969421386,70.33060613312458L233.31409969329835,70.33297780938315L234.0105596923828,70.33035608418997L234.70701969146728,70.3278783265652L235.40347969055176,70.32915888020003L236.09993968963624,70.3308561820592L236.7963996887207,70.3293861974133L237.49285968780518,70.32894671746763L238.18931968688963,70.32571881303903L238.88577968597414,70.32618102470603L239.5822396850586,70.32508232484184L240.27869968414308,70.32737822869599L240.97515968322753,70.33131839372619L241.671619682312,70.3308031413761L242.3680796813965,70.32837842443442L243.06453968048098,70.32971201875235" fill="none"></path></g></g></g></g></g></g><g transform="translate(51, 177)" clip-path="url(#clip_1)"><clipPath id="clip_1"><rect width="278" height="22"></rect></clipPath><g><g><line x1="0" y1="0" x2="0" y2="5" style="visibility: inherit;" fill="rgb(0, 0, 0)" stroke="rgb(204, 204, 204)" stroke-width="1px"></line><line x1="34.82299995422363" y1="0" x2="34.82299995422363" y2="5" style="visibility: inherit;" fill="rgb(0, 0, 0)" stroke="rgb(204, 204, 204)" stroke-width="1px"></line><line x1="69.64599990844727" y1="0" x2="69.64599990844727" y2="5" style="visibility: inherit;" fill="rgb(0, 0, 0)" stroke="rgb(204, 204, 204)" stroke-width="1px"></line><line x1="104.4689998626709" y1="0" x2="104.4689998626709" y2="5" style="visibility: inherit;" fill="rgb(0, 0, 0)" stroke="rgb(204, 204, 204)" stroke-width="1px"></line><line x1="139.29199981689453" y1="0" x2="139.29199981689453" y2="5" style="visibility: inherit;" fill="rgb(0, 0, 0)" stroke="rgb(204, 204, 204)" stroke-width="1px"></line><line x1="174.11499977111816" y1="0" x2="174.11499977111816" y2="5" style="visibility: inherit;" fill="rgb(0, 0, 0)" stroke="rgb(204, 204, 204)" stroke-width="1px"></line><line x1="208.9379997253418" y1="0" x2="208.9379997253418" y2="5" style="visibility: inherit;" fill="rgb(0, 0, 0)" stroke="rgb(204, 204, 204)" stroke-width="1px"></line><line x1="243.76099967956543" y1="0" x2="243.76099967956543" y2="5" style="visibility: inherit;" fill="rgb(0, 0, 0)" stroke="rgb(204, 204, 204)" stroke-width="1px"></line><line x1="278.58399963378906" y1="0" x2="278.58399963378906" y2="5" style="visibility: inherit;" fill="rgb(0, 0, 0)" stroke="rgb(204, 204, 204)" stroke-width="1px"></line></g><g transform="translate(0, 8)"><text style="text-anchor: middle; visibility: hidden; font-family: &quot;Helvetica Neue&quot;, sans-serif; font-size: 12px; font-weight: 200;" x="0" y="0" dx="0em" dy="0.95em" fill="rgb(50, 49, 63)" stroke="none" stroke-width="1px">-50</text><text style="text-anchor: middle; visibility: inherit; font-family: &quot;Helvetica Neue&quot;, sans-serif; font-size: 12px; font-weight: 200;" x="34.82299995422363" y="0" dx="0em" dy="0.95em" fill="rgb(50, 49, 63)" stroke="none" stroke-width="1px">0</text><text style="text-anchor: middle; visibility: inherit; font-family: &quot;Helvetica Neue&quot;, sans-serif; font-size: 12px; font-weight: 200;" x="69.64599990844727" y="0" dx="0em" dy="0.95em" fill="rgb(50, 49, 63)" stroke="none" stroke-width="1px">50</text><text style="text-anchor: middle; visibility: inherit; font-family: &quot;Helvetica Neue&quot;, sans-serif; font-size: 12px; font-weight: 200;" x="104.4689998626709" y="0" dx="0em" dy="0.95em" fill="rgb(50, 49, 63)" stroke="none" stroke-width="1px">100</text><text style="text-anchor: middle; visibility: inherit; font-family: &quot;Helvetica Neue&quot;, sans-serif; font-size: 12px; font-weight: 200;" x="139.29199981689453" y="0" dx="0em" dy="0.95em" fill="rgb(50, 49, 63)" stroke="none" stroke-width="1px">150</text><text style="text-anchor: middle; visibility: inherit; font-family: &quot;Helvetica Neue&quot;, sans-serif; font-size: 12px; font-weight: 200;" x="174.11499977111816" y="0" dx="0em" dy="0.95em" fill="rgb(50, 49, 63)" stroke="none" stroke-width="1px">200</text><text style="text-anchor: middle; visibility: inherit; font-family: &quot;Helvetica Neue&quot;, sans-serif; font-size: 12px; font-weight: 200;" x="208.9379997253418" y="0" dx="0em" dy="0.95em" fill="rgb(50, 49, 63)" stroke="none" stroke-width="1px">250</text><text style="text-anchor: middle; visibility: inherit; font-family: &quot;Helvetica Neue&quot;, sans-serif; font-size: 12px; font-weight: 200;" x="243.76099967956543" y="0" dx="0em" dy="0.95em" fill="rgb(50, 49, 63)" stroke="none" stroke-width="1px">300</text><text style="text-anchor: middle; visibility: hidden; font-family: &quot;Helvetica Neue&quot;, sans-serif; font-size: 12px; font-weight: 200;" x="278.58399963378906" y="0" dx="0em" dy="0.95em" fill="rgb(50, 49, 63)" stroke="none" stroke-width="1px">350</text></g><line x1="0" y1="0" x2="278.58399963378906" y2="0" fill="rgb(0, 0, 0)" stroke="rgb(204, 204, 204)" stroke-width="1px"></line></g></g></g></g></svg>