<svg viewBox="0 0 330 200" xmlns="http://www.w3.org/2000/svg"><g><g><g><g><g><line x1="51.41600036621094" y1="177.9749994277954" x2="46.41600036621094" y2="177.9749994277954" style="visibility: inherit;" fill="rgb(0, 0, 0)" stroke="rgb(204, 204, 204)" stroke-width="1px"></line><line x1="51.41600036621094" y1="164.28461485642654" x2="46.41600036621094" y2="164.28461485642654" style="visibility: inherit;" fill="rgb(0, 0, 0)" stroke="rgb(204, 204, 204)" stroke-width="1px"></line><line x1="51.41600036621094" y1="150.59423028505765" x2="46.41600036621094" y2="150.59423028505765" style="visibility: inherit;" fill="rgb(0, 0, 0)" stroke="rgb(204, 204, 204)" stroke-width="1px"></line><line x1="51.41600036621094" y1="136.90384571368878" x2="46.41600036621094" y2="136.90384571368878" style="visibility: inherit;" fill="rgb(0, 0, 0)" stroke="rgb(204, 204, 204)" stroke-width="1px"></line><line x1="51.41600036621094" y1="123.21346114231989" x2="46.41600036621094" y2="123.21346114231989" style="visibility: inherit;" fill="rgb(0, 0, 0)" stroke="rgb(204, 204, 204)" stroke-width="1px"></line><line x1="51.41600036621094" y1="109.52307657095103" x2="46.41600036621094" y2="109.52307657095103" style="visibility: inherit;" fill="rgb(0, 0, 0)" stroke="rgb(204, 204, 204)" stroke-width="1px"></line><line x1="51.41600036621094" y1="95.83269199958215" x2="46.41600036621094" y2="95.83269199958215" style="visibility: inherit;" fill="rgb(0, 0, 0)" stroke="rgb(204, 204, 204)" stroke-width="1px"></line><line x1="51.41600036621094" y1="82.14230742821327" x2="46.41600036621094" y2="82.14230742821327" style="visibility: inherit;" fill="rgb(0, 0, 0)" stroke="rgb(204, 204, 204)" stroke-width="1px"></line><line x1="51.41600036621094" y1="68.4519228568444" x2="46.41600036621094" y2="68.4519228568444" style="visibility: inherit;" fill="rgb(0, 0, 0)" stroke="rgb(204, 204, 204)" stroke-width="1px"></line><line x1="51.41600036621094" y1="54.76153828547551" x2="46.41600036621094" y2="54.76153828547551" style="visibility: inherit;" fill="rgb(0, 0, 0)" stroke="rgb(204, 204, 204)" stroke-width="1px"></line><line x1="51.41600036621094" y1="41.07115371410666" x2="46.41600036621094" y2="41.07115371410666" style="visibility: inherit;" fill="rgb(0, 0, 0)" stroke="rgb(204, 204, 204)" stroke-width="1px"></line><line x1="51.41600036621094" y1="27.380769142737762" x2="46.41600036621094" y2="27.380769142737762" style="visibility: inherit;" fill="rgb(0, 0, 0)" stroke="rgb(204, 204, 204)" stroke-width="1px"></line><line x1="51.41600036621094" y1="13.690384571368867" x2="46.41600036621094" y2="13.690384571368867" style="visibility: inherit;" fill="rgb(0, 0, 0)" stroke="rgb(204, 204, 204)" stroke-width="1px"></line><line x1="51.41600036621094" y1="0" x2="46.41600036621094" y2="0" style="visibility: inherit;" fill="rgb(0, 0, 0)" stroke="rgb(204, 204, 204)" stroke-width="1px"></line></g><g transform="translate(41.41600036621094, 0)"><text style="text-anchor: end; visibility: hidden; font-family: &quot;Helvetica Neue&quot;, sans-serif; font-size: 12px; font-weight: 200;" x="0" y="177.9749994277954" dx="0em" dy="0.3em" fill="rgb(50, 49, 63)" stroke="none" stroke-width="1px">-0.1</text><text style="text-anchor: end; visibility: inherit; font-family: &quot;Helvetica Neue&quot;, sans-serif; font-size: 12px; font-weight: 200;" x="0" y="164.28461485642654" dx="0em" dy="0.3em" fill="rgb(50, 49, 63)" stroke="none" stroke-width="1px">0</text><text style="text-anchor: end; visibility: hidden; font-family: &quot;Helvetica Neue&quot;, sans-serif; font-size: 12px; font-weight: 200;" x="0" y="150.59423028505765" dx="0em" dy="0.3em" fill="rgb(50, 49, 63)" stroke="none" stroke-width="1px">0.1</text><text style="text-anchor: end; visibility: inherit; font-family: &quot;Helvetica Neue&quot;, sans-serif; font-size: 12px; font-weight: 200;" x="0" y="136.90384571368878" dx="0em" dy="0.3em" fill="rgb(50, 49, 63)" stroke="none" stroke-width="1px">0.2</text><text style="text-anchor: end; visibility: hidden; font-family: &quot;Helvetica Neue&quot;, sans-serif; font-size: 12px; font-weight: 200;" x="0" y="123.21346114231989" dx="0em" dy="0.3em" fill="rgb(50, 49, 63)" stroke="none" stroke-width="1px">0.3</text><text style="text-anchor: end; visibility: inherit; font-family: &quot;Helvetica Neue&quot;, sans-serif; font-size: 12px; font-weight: 200;" x="0" y="109.52307657095103" dx="0em" dy="0.3em" fill="rgb(50, 49, 63)" stroke="none" stroke-width="1px">0.4</text><text style="text-anchor: end; visibility: hidden; font-family: &quot;Helvetica Neue&quot;, sans-serif; font-size: 12px; font-weight: 200;" x="0" y="95.83269199958215" dx="0em" dy="0.3em" fill="rgb(50, 49, 63)" stroke="none" stroke-width="1px">0.5</text><text style="text-anchor: end; visibility: inherit; font-family: &quot;Helvetica Neue&quot;, sans-serif; font-size: 12px; font-weight: 200;" x="0" y="82.14230742821327" dx="0em" dy="0.3em" fill="rgb(50, 49, 63)" stroke="none" stroke-width="1px">0.6</text><text style="text-anchor: end; visibility: hidden; font-family: &quot;Helvetica Neue&quot;, sans-serif; font-size: 12px; font-weight: 200;" x="0" y="68.4519228568444" dx="0em" dy="0.3em" fill="rgb(50, 49, 63)" stroke="none" stroke-width="1px">0.7</text><text style="text-anchor: end; visibility: inherit; font-family: &quot;Helvetica Neue&quot;, sans-serif; font-size: 12px; font-weight: 200;" x="0" y="54.76153828547551" dx="0em" dy="0.3em" fill="rgb(50, 49, 63)" stroke="none" stroke-width="1px">0.8</text><text style="text-anchor: end; visibility: hidden; font-family: &quot;Helvetica Neue&quot;, sans-serif; font-size: 12px; font-weight: 200;" x="0" y="41.07115371410666" dx="0em" dy="0.3em" fill="rgb(50, 49, 63)" stroke="none" stroke-width="1px">0.9</text><text style="text-anchor: end; visibility: inherit; font-family: &quot;Helvetica Neue&quot;, sans-serif; font-size: 12px; font-weight: 200;" x="0" y="27.380769142737762" dx="0em" dy="0.3em" fill="rgb(50, 49, 63)" stroke="none" stroke-width="1px">1</text><text style="text-anchor: end; visibility: hidden; font-family: &quot;Helvetica Neue&quot;, sans-serif; font-size: 12px; font-weight: 200;" x="0" y="13.690384571368867" dx="0em" dy="0.3em" fill="rgb(50, 49, 63)" stroke="none" stroke-width="1px">1.1</text><text style="text-anchor: end; visibility: hidden; font-family: &quot;Helvetica Neue&quot;, sans-serif; font-size: 12px; font-weight: 200;" x="0" y="0" dx="0em" dy="0.3em" fill="rgb(50, 49, 63)" stroke="none" stroke-width="1px">1.2</text></g><line x1="51.41600036621094" y1="0" x2="51.41600036621094" y2="177.9749994277954" fill="rgb(0, 0, 0)" stroke="rgb(204, 204, 204)" stroke-width="1px"></line></g></g><g transform="translate(51, 0)" clip-path="url(#clip_0)"><clipPath id="clip_0"><rect width="278" height="177"></rect></clipPath><g><g><g><line x1="0" y1="0" x2="0" y2="177.9749994277954" fill="rgb(0, 0, 0)" stroke="rgb(60, 60, 60)" stroke-width="1px" opacity="0.25"></line><line x1="34.82299995422363" y1="0" x2="34.82299995422363" y2="177.9749994277954" fill="rgb(0, 0, 0)" stroke="rgb(60, 60, 60)" stroke-width="1px" opacity="0.25"></line><line x1="69.64599990844727" y1="0" x2="69.64599990844727" y2="177.9749994277954" fill="rgb(0, 0, 0)" stroke="rgb(60, 60, 60)" stroke-width="1px" opacity="0.25"></line><line x1="104.4689998626709" y1="0" x2="104.4689998626709" y2="177.9749994277954" fill="rgb(0, 0, 0)" stroke="rgb(60, 60, 60)" stroke-width="1px" opacity="0.25"></line><line x1="139.29199981689453" y1="0" x2="139.29199981689453" y2="177.9749994277954" fill="rgb(0, 0, 0)" stroke="rgb(60, 60, 60)" stroke-width="1px" opacity="0.25"></line><line x1="174.11499977111816" y1="0" x2="174.11499977111816" y2="177.9749994277954" fill="rgb(0, 0, 0)" stroke="rgb(60, 60, 60)" stroke-width="1px" opacity="0.25"></line><line x1="208.9379997253418" y1="0" x2="208.9379997253418" y2="177.9749994277954" fill="rgb(0, 0, 0)" stroke="rgb(60, 60, 60)" stroke-width="1px" opacity="0.25"></line><line x1="243.76099967956543" y1="0" x2="243.76099967956543" y2="177.9749994277954" fill="rgb(0, 0, 0)" stroke="rgb(60, 60, 60)" stroke-width="1px" opacity="0.25"></line><line x1="278.58399963378906" y1="0" x2="278.58399963378906" y2="177.9749994277954" fill="rgb(0, 0, 0)" stroke="rgb(60, 60, 60)" stroke-width="1px" opacity="0.25"></line></g><g><line x1="0" y1="177.9749994277954" x2="278.58399963378906" y2="177.9749994277954" fill="rgb(0, 0, 0)" stroke="rgb(60, 60, 60)" stroke-width="1px" opacity="0.25"></line><line x1="0" y1="164.28461485642654" x2="278.58399963378906" y2="164.28461485642654" fill="rgb(0, 0, 0)" stroke="rgb(60, 60, 60)" stroke-width="1px" opacity="0.25"></line><line x1="0" y1="150.59423028505765" x2="278.58399963378906" y2="150.59423028505765" fill="rgb(0, 0, 0)" stroke="rgb(60, 60, 60)" stroke-width="1px" opacity="0.25"></line><line x1="0" y1="136.90384571368878" x2="278.58399963378906" y2="136.90384571368878" fill="rgb(0, 0, 0)" stroke="rgb(60, 60, 60)" stroke-width="1px" opacity="0.25"></line><line x1="0" y1="123.21346114231989" x2="278.58399963378906" y2="123.21346114231989" fill="rgb(0, 0, 0)" stroke="rgb(60, 60, 60)" stroke-width="1px" opacity="0.25"></line><line x1="0" y1="109.52307657095103" x2="278.58399963378906" y2="109.52307657095103" fill="rgb(0, 0, 0)" stroke="rgb(60, 60, 60)" stroke-width="1px" opacity="0.25"></line><line x1="0" y1="95.83269199958215" x2="278.58399963378906" y2="95.83269199958215" fill="rgb(0, 0, 0)" stroke="rgb(60, 60, 60)" stroke-width="1px" opacity="0.25"></line><line x1="0" y1="82.14230742821327" x2="278.58399963378906" y2="82.14230742821327" fill="rgb(0, 0, 0)" stroke="rgb(60, 60, 60)" stroke-width="1px" opacity="0.25"></line><line x1="0" y1="68.4519228568444" x2="278.58399963378906" y2="68.4519228568444" fill="rgb(0, 0, 0)" stroke="rgb(60, 60, 60)" stroke-width="1px" opacity="0.25"></line><line x1="0" y1="54.76153828547551" x2="278.58399963378906" y2="54.76153828547551" fill="rgb(0, 0, 0)" stroke="rgb(60, 60, 60)" stroke-width="1px" opacity="0.25"></line><line x1="0" y1="41.07115371410666" x2="278.58399963378906" y2="41.07115371410666" fill="rgb(0, 0, 0)" stroke="rgb(60, 60, 60)" stroke-width="1px" opacity="0.25"></line><line x1="0" y1="27.380769142737762" x2="278.58399963378906" y2="27.380769142737762" fill="rgb(0, 0, 0)" stroke="rgb(60, 60, 60)" stroke-width="1px" opacity="0.25"></line><line x1="0" y1="13.690384571368867" x2="278.58399963378906" y2="13.690384571368867" fill="rgb(0, 0, 0)" stroke="rgb(60, 60, 60)" stroke-width="1px" opacity="0.25"></line><line x1="0" y1="0" x2="278.58399963378906" y2="0" fill="rgb(0, 0, 0)" stroke="rgb(60, 60, 60)" stroke-width="1px" opacity="0.25"></line></g></g></g><g><g><line x1="0" y1="164.28461485642654" x2="278.58399963378906" y2="164.28461485642654" fill="rgb(0, 0, 0)" stroke="rgb(153, 153, 153)" stroke-width="1.5px"></line></g></g><g><g><line x1="34.82299995422363" y1="0" x2="34.82299995422363" y2="177.9749994277954" fill="rgb(0, 0, 0)" stroke="rgb(153, 153, 153)" stroke-width="1.5px"></line></g></g><g><g><g><g><g><path style="fill: none;" stroke="rgb(51, 187, 238)" stroke-width="2px" d="M34.82299995422363,162.9237905956784L35.51945995330811,151.4047008989255L36.21591995239258,145.9285482127927L36.91237995147705,140.57013156295565L37.608839950561524,135.16516763364672L38.305299949646,131.159359803753L39.001759948730474,128.57461591542062L39.69821994781494,125.95153789339159L40.39467994689941,119.73884188148371L41.09113994598388,115.407205135313L41.78759994506836,113.4412644564073L42.48405994415283,113.14829220328386L43.18051994323731,109.44914928285819L43.876979942321775,108.74820033549511L44.57343994140625,105.8677444387546L45.269899940490724,100.75849047782752L45.9663599395752,99.23064544105658L46.66281993865967,98.99516928841244L47.35927993774414,93.75175095961279L48.05573993682861,91.60783838864731L48.75219993591308,92.60449730439224L49.44865993499756,87.76631387452127L50.14511993408203,89.2202324392099L50.8415799331665,86.9804875940422L51.538039932250975,85.8852546087841L52.23449993133545,81.68231088002167L52.930959930419924,84.36288908258256L53.6274199295044,82.66254350421612L54.323879928588866,81.92052066787171L55.02033992767334,79.06197057325107L55.716799926757815,80.42005686373749L56.41325992584229,78.28983694911663L57.10971992492676,79.23720883010498L57.806179924011225,76.20067868331948L58.5026399230957,74.8480678233499L59.199099922180174,73.22165279711834L59.89555992126465,70.146794636715L60.592019920349124,74.95759275389673L61.28847991943359,69.6594160398762L61.984939918518066,66.96788697628169L62.68139991760254,68.04395187467833L63.377859916687015,70.50548021614553L64.07431991577148,66.92407537204194L64.77077991485596,69.01596727304495L65.46723991394043,72.15653875975538L66.1636999130249,65.48658309890382L66.86015991210937,62.35970426853804L67.55661991119385,63.43029373641784L68.25307991027832,64.82944983583303L68.9495399093628,63.389215767383945L69.64599990844727,62.87993544847784L70.34245990753173,63.30707614952638L71.03891990661621,62.32410989012608L71.73537990570068,61.82851406745948L72.43183990478516,63.69314704164616L73.12829990386963,61.18233166542237L73.8247599029541,59.922811284344036L74.52121990203858,57.18747061650974L75.21767990112305,60.448526054905756L75.91413990020753,59.205440125482994L76.610599899292,56.42902964871993L77.30705989837647,55.55832195507233L78.00351989746095,56.62616962764116L78.6999798965454,53.890828959806896L79.39643989562988,54.287850712960335L80.09289989471435,55.719867555581615L80.78935989379882,53.64166831092321L81.4858198928833,56.85342855445754L82.18227989196777,54.07701807769446L82.87873989105225,55.613076260240646L83.57519989013672,55.10927137185135L84.27165988922118,50.75025747309647L84.96811988830567,54.03047283824884L85.66457988739013,55.0818942192672L86.36103988647461,53.10226088401686L87.05749988555908,51.44025147937336L87.75395988464355,48.97050591207835L88.45041988372803,50.555851129381125L89.1468798828125,50.01097643206302L89.84333988189698,49.52085603991327L90.53979988098145,52.20690967299096L91.23625988006592,50.736564816751866L91.9327198791504,50.11501777198794L92.62917987823486,49.22515015158396L93.32563987731935,47.25646767736728L94.02209987640381,46.755404584288954L94.71855987548828,47.16337719847604L95.41501987457276,46.035283470011876L96.11147987365722,50.9556146778455L96.8079398727417,49.170387686310534L97.50439987182617,48.055986614191L98.20085987091063,48.03134309681272L98.89731986999512,46.92242561531506L99.59377986907958,45.6985077727538L100.29023986816406,48.38181961052052L100.98669986724853,50.31489954622012L101.683159866333,45.482191546866005L102.37961986541748,46.31731302220675L103.07607986450195,48.83633746415322L103.77253986358643,47.18802071585435L104.4689998626709,48.99240763414568L105.16545986175537,46.539096518506284L105.86191986083985,46.10100495642405L106.55837985992432,47.85337120475293L107.2548398590088,44.29386808271667L107.95129985809326,46.9689708547607L108.64775985717773,43.04257308757121L109.34421985626221,44.4827989959152L110.04067985534668,43.82565757273932L110.73713985443116,44.222679325892756L111.43359985351563,45.33708039801229L112.1300598526001,43.8283993680503L112.82651985168458,42.2211442685751L113.52297985076903,42.807096934927046L114.21943984985352,41.82138888021578L114.91589984893798,42.963167104919506L115.61235984802245,43.80923128118883L116.30881984710693,41.465436935991164L117.0052798461914,45.14267405429695L117.70173984527588,42.49495659494218L118.39819984436035,42.10614390751144L119.09465984344482,43.83935022908395L119.7911198425293,42.3087674770546L120.48757984161377,41.8843604112119L121.18403984069825,42.16364816809582L121.88049983978271,44.17065865593031L122.57695983886718,43.130188135945616L123.27341983795166,42.210193407541425L123.96987983703613,40.77817656492013L124.66633983612061,41.763884619631426L125.36279983520508,42.51685831700948L126.05925983428955,43.50256637172075L126.75571983337403,38.97926507714564L127.4521798324585,41.54484291864284L128.14863983154297,40.657700773339656L128.84509983062745,40.70972960340717L129.54155982971193,42.552452695421465L130.23801982879638,41.59412995339943L130.93447982788086,38.297480136591474L131.63093982696532,41.416149901234576L132.3273998260498,39.7240215486959L133.02385982513428,41.01912814808111L133.72031982421873,39.948538680201324L134.41677982330322,41.112226787077475L135.1132398223877,41.16424745703992L135.80969982147215,39.365327809160306L136.50615982055663,38.39605420610462L137.20261981964111,39.80890296186445L137.8990798187256,40.44413450286791L138.59553981781005,38.72188720243415L139.29199981689453,41.98293448072508L139.98845981597898,40.36747031552716L140.68491981506347,39.428307500261525L141.38137981414795,39.56247594818663L142.07783981323243,38.79307595925806L142.77429981231688,40.5810365859989L143.47075981140136,38.69176825453903L144.16721981048582,40.67961065551208L144.86367980957033,38.1359345360822L145.56013980865478,38.434382219722465L146.25659980773926,38.105815588187056L146.95305980682372,39.19557314292834L147.6495198059082,38.12771731025441L148.34597980499268,37.29534579032972L149.04243980407716,40.32365871128741L149.73889980316162,38.0154587445017L150.4353598022461,39.442000156606156L151.13181980133055,37.25700961660678L151.82827980041506,36.77511461038992L152.5247397994995,37.36105911663677L153.221199798584,37.8320114219251L153.91765979766845,36.57523283615771L154.61411979675293,39.32973343074835L155.3105797958374,37.19677172081654L156.0070397949219,35.58130755561865L156.70349979400635,36.799749967663104L157.3999597930908,37.12558296399263L158.09641979217528,38.74926435501831L158.79287979125976,36.621778075603316L159.48933979034425,36.367133836097736L160.1857997894287,35.573098489895955L160.88225978851318,38.44259944555026L161.57871978759763,37.522604717146066L162.27517978668214,37.18308722457701L162.9716397857666,39.099740868726144L163.66809978485108,35.90439875663722L164.36455978393553,35.734644090405226L165.06101978302001,35.99749739563356L165.7574797821045,36.69844226294407L166.45393978118898,34.46964827881007L167.15039978027343,36.50677771453968L167.8468597793579,36.983205450344826L168.54331977844237,36.55332295398529L169.23977977752688,36.28226058303429L169.93623977661133,33.987745112488085L170.6326997756958,34.006913199349555L171.32915977478027,35.21167111515447L172.02561977386475,34.69143177510958L172.72207977294923,33.85358482466805L173.4185397720337,33.63180132836854L174.11499977111816,33.6263258978517L174.81145977020262,34.73524337934933L175.5079197692871,35.200720254120824L176.20437976837158,33.78512970305002L176.90083976745606,34.08631918200126L177.59729976654052,33.41275146727489L178.293759765625,33.94119987304248L178.99021976470945,33.678346567814174L179.68667976379396,33.678346567814174L180.38313976287841,34.633935674630294L181.0795997619629,32.736450117342656L181.77605976104735,34.24786478251053L182.47251976013183,32.54751920414412L183.1689797592163,33.68929742884782L183.8654397583008,32.369547312084336L184.56189975738525,33.65644484574682L185.25835975646973,34.017864060383204L185.95481975555418,32.18335819419676L186.6512797546387,31.945140246241635L187.34773975372315,32.585855377867034L188.04419975280763,33.46477213723733L188.74065975189208,32.027288024204296L189.43711975097656,31.077174347905014L190.13357975006105,32.52561748207677L190.83003974914553,31.528958566331852L191.52649974822998,31.96705012841406L192.22295974731443,31.528958566331852L192.91941974639892,31.30443327472136L193.6158797454834,31.189432913657697L194.31233974456788,30.773243073642817L195.00879974365233,30.907411521567923L195.7052597427368,31.479671531575264L196.40171974182127,31.074432552594033L197.09817974090578,30.718488768474487L197.79463973999023,31.077174347905014L198.4910997390747,30.45836909845204L199.18755973815917,29.87515822741105L199.88401973724365,30.1900322026018L200.58047973632813,30.083249067365955L201.2769397354126,29.67527645317884L201.97339973449706,30.283130841598137L202.66985973358155,29.979207727441036L203.366319732666,29.88337545323884L204.0627797317505,29.667067387456143L204.75923973083496,29.669801022662L205.45569972991944,29.935396123201286L206.1521597290039,29.63968207476688L206.84861972808838,29.119450894827082L207.54507972717286,29.264562043680797L208.24153972625734,29.196115082167836L208.9379997253418,28.853855794287824L209.63445972442625,29.171471564789528L210.33091972351073,28.77719160694707L211.0273797225952,28.922302755800757L211.7238397216797,28.5280227979583L212.42029972076415,28.50885471109683L213.11675971984863,28.58552705854268L213.81321971893308,28.41576423220559L214.5096797180176,28.426715093239267L215.20613971710205,28.34730911058756L215.90259971618653,28.196714371111938L216.59905971527098,28.276120353763645L217.29551971435546,28.29802207583097L217.99197971343995,28.169337218527772L218.68843971252443,28.065287718497785L219.38489971160888,28.128267409598976L220.08135971069336,28.19398073590608L220.77781970977782,28.03243513539678L221.47427970886233,27.884574031127045L222.17073970794678,27.911959343816307L222.86719970703126,27.914692979022163L223.56365970611571,27.77504910058022L224.2601197052002,27.901000322677532L224.95657970428468,27.884574031127045L225.65303970336916,27.81612706961411L226.3494997024536,27.71481120478998L227.04595970153807,27.73945472216826L227.74241970062255,27.73945472216826L228.43887969970703,27.610769864865063L229.1353396987915,27.643622447966067L229.83179969787597,27.706602139067286L230.52825969696045,27.58885998269264L231.2247196960449,27.64088881276018L231.9211796951294,27.591601778003593L232.61763969421386,27.662790534827536L233.31409969329835,27.536839312730194L234.0105596923828,27.6162452953819L234.70701969146728,27.65183967379386L235.40347969055176,27.561482830108503L236.09993968963624,27.539581108041148L236.7963996887207,27.58338455217583L237.49285968780518,27.539581108041148L238.18931968688963,27.539581108041148L238.88577968597414,27.528622086902402L239.5822396850586,27.59433541320948L240.27869968414308,27.662790534827536L240.97515968322753,27.523146656385563L241.671619682312,27.539581108041148L242.3680796813965,27.531363882213356L243.06453968048098,27.566958260625313" fill="none"></path></g><g><path style="fill: none;" stroke="rgb(0, 119, 187)" stroke-width="2px" d="M34.82299995422363,162.91557642989005L35.51945995330811,151.01863204683204L36.21591995239258,145.0085534843885L36.91237995147705,140.1210870998135L37.608839950561524,135.1788582499651L38.305299949646,130.04496485171228L39.001759948730474,126.23903471599817L39.69821994781494,125.48606509867265L40.39467994689941,118.65456383731183L41.09113994598388,115.5057751247736L41.78759994506836,112.98674252272204L42.48405994415283,112.82245920695433L43.18051994323731,109.55045698757722L43.876979942321775,109.1534352344238L44.57343994140625,107.66118457606481L45.269899940490724,103.21180975357203L45.9663599395752,101.84277260205195L46.66281993865967,101.5552716993928L47.35927993774414,96.68149389110988L48.05573993682861,95.51780986428629L48.75219993591308,96.96899479376903L49.44865993499756,92.95770745330593L50.14511993408203,93.86127589015962L50.8415799331665,92.83449802651957L51.538039932250975,91.31486613552387L52.23449993133545,88.45357424559226L52.930959930419924,90.01427594551674L53.6274199295044,89.23392509555451L54.323879928588866,88.97380542553208L55.02033992767334,85.71549994255213L55.716799926757815,87.8511952876898L56.41325992584229,87.15299221569023L57.10971992492676,86.76965495877633L57.806179924011225,84.36014728727159L58.5026399230957,84.62026695729404L59.199099922180174,83.49765681945178L59.89555992126465,80.40363057218698L60.592019920349124,85.75656975148092L61.28847991943359,79.81494427062914L61.984939918518066,79.19887265638206L62.68139991760254,78.89768317743084L63.377859916687015,82.08754985900292L64.07431991577148,78.62387901116884L64.77077991485596,81.71790525843365L65.46723991394043,84.18217539521181L66.1636999130249,77.74769588700441L66.86015991210937,76.11853906546189L67.55661991119385,76.03639944760432L68.25307991027832,76.89888991542412L68.9495399093628,77.14531692910194L69.64599990844727,77.81614284851736L70.34245990753173,77.47388356063735L71.03891990661621,77.47388356063735L71.73537990570068,76.80305764122193L72.43183990478516,78.91137583377547L73.12829990386963,76.39234323172388L73.8247599029541,77.20007939437536L74.52121990203858,73.42153457135055L75.21767990112305,77.14531692910194L75.91413990020753,75.0233060802038L76.610599899292,73.13403774874394L77.30705989837647,73.51736684555274L78.00351989746095,74.03759802549253L78.6999798965454,72.60010575235442L79.39643989562988,71.54595073613021L80.09289989471435,73.44891172393469L80.78935989379882,71.39535599665459L81.4858198928833,75.256040437537L82.18227989196777,73.27093983187493L82.87873989105225,73.35307944973249L83.57519989013672,74.37985731337255L84.27165988922118,70.90250196929895L84.96811988830567,73.75010120288593L85.66457988739013,74.21557807765741L86.36103988647461,73.32570229714834L87.05749988555908,72.13463703768804L87.75395988464355,69.94417106717185L88.45041988372803,71.50488092720143L89.1468798828125,71.75130794087924L89.84333988189698,69.46500969616083L90.53979988098145,73.6953387376125L91.23625988006592,72.95605769657905L91.9327198791504,71.40904865299922L92.62917987823486,71.73761528453461L93.32563987731935,70.92987912188312L94.02209987640381,69.6840595572545L94.71855987548828,70.97095709091698L95.41501987457276,69.8757241056589L96.11147987365722,72.95605769657905L96.8079398727417,71.45011846192801L97.50439987182617,69.90310125824305L98.20085987091063,70.75190722982335L98.89731986999512,70.24536054612307L99.59377986907958,69.23227533882766L100.29023986816406,71.57332788871436L100.98669986724853,72.05249741983046L101.683159866333,69.21858268248302L102.37961986541748,70.87512481671479L103.07607986450195,73.07927528347052L103.77253986358643,70.57393533776356L104.4689998626709,72.42213386029464L105.16545986175537,71.66916016291657L105.86191986083985,71.10785917404799L106.55837985992432,72.55903594342563L107.2548398590088,70.42334059828795L107.95129985809326,71.79237774980803L108.64775985717773,68.76679846405617L109.34421985626221,68.534064106723L110.04067985534668,68.57513391565178L110.73713985443116,68.69835150254323L111.43359985351563,71.18999879190555L112.1300598526001,69.47870235250548L112.82651985168458,67.75371325676076L113.52297985076903,68.10966520098539L114.21943984985352,68.52037145037835L114.91589984893798,69.01322547773398L115.61235984802245,69.09537325569666L116.30881984710693,66.95966975045388L117.0052798461914,69.88941676200352L117.70173984527588,69.04061079042326L118.39819984436035,67.57574136470097L119.09465984344482,68.83525358567422L119.7911198425293,69.13644306462545L120.48757984161377,67.89061533989174L121.18403984069825,68.76679846405617L121.88049983978271,70.94357177822774L122.57695983886718,70.76559988616798L123.27341983795166,69.32810761302986L123.96987983703613,67.45252377780952L124.66633983612061,68.38346936724737L125.36279983520508,69.65667424456524L126.05925983428955,69.7388220225279L126.75571983337403,66.98705506314313L127.4521798324585,68.43823183252078L128.14863983154297,68.54775676306762L128.84509983062745,67.90430799623637L129.54155982971193,69.65667424456524L130.23801982879638,69.1638202172096L130.93447982788086,66.8775301325963L131.63093982696532,68.86263073825837L132.3273998260498,67.86323818730757L133.02385982513428,68.5888265719964L133.72031982421873,68.23287462777175L134.41677982330322,69.76619917511208L135.1132398223877,69.06798794300741L135.80969982147215,67.52097889942755L136.50615982055663,67.31562169467854L137.20261981964111,68.260259940461L137.8990798187256,68.64358903726982L138.59553981781005,67.09657183358487L139.29199981689453,69.86203144931427L139.98845981597898,69.13644306462545L140.68491981506347,68.534064106723L141.38137981414795,67.64418832621392L142.07783981323243,67.46621643415415L142.77429981231688,69.04061079042326L143.47075981140136,68.78049112040081L144.16721981048582,70.13584377568134L144.86367980957033,67.34299884726269L145.56013980865478,67.08288733734534L146.25659980773926,66.85014481990706L146.95305980682372,68.45192448886542L147.6495198059082,67.06919468100072L148.34597980499268,66.57634065364509L149.04243980407716,68.90370870729225L149.73889980316162,67.80847572203417L150.4353598022461,68.876323394603L151.13181980133055,67.28823638198926L151.82827980041506,66.11086377887361L152.5247397994995,66.08348662628946L153.221199798584,67.4935935867383L153.91765979766845,65.7275346820648L154.61411979675293,69.36917742195864L155.3105797958374,67.52097889942755L156.0070397949219,65.83705961261164L156.70349979400635,66.69955008043144L157.3999597930908,66.90490728518047L158.09641979217528,69.90310125824305L158.79287979125976,66.8775301325963L159.48933979034425,67.31562169467854L160.1857997894287,66.04241681736065L160.88225978851318,68.30132974938981L161.57871978759763,67.05550202465609L162.27517978668214,67.31562169467854L162.9716397857666,68.46561714521003L163.66809978485108,65.90551473422967L164.36455978393553,66.19301155683627L165.06101978302001,66.75431254570485L165.7574797821045,67.17871961154754L166.45393978118898,64.50909227002035L167.15039978027343,66.90490728518047L167.8468597793579,67.69895079148733L168.54331977844237,67.01443221572731L169.23977977752688,66.7269353931207L169.93623977661133,65.45373051580282L170.6326997756958,65.07040141899402L171.32915977478027,65.86443676519579L172.02561977386475,66.22038870942043L172.72207977294923,64.67337966584059L173.4185397720337,65.05670876264938L174.11499977111816,64.50909227002035L174.81145977020262,65.7275346820648L175.5079197692871,66.34360629631189L176.20437976837158,65.74122733840943L176.90083976745606,65.37158273784016L177.59729976654052,64.6323016968067L178.293759765625,64.98825364103135L178.99021976470945,66.12455643521824L179.68667976379396,66.37098344889606L180.38313976287841,66.02872416101604L181.0795997619629,64.46802246109155L181.77605976104735,65.49480032473161L182.47251976013183,64.6323016968067L183.1689797592163,65.82336695626701L183.8654397583008,63.98886109008055L184.56189975738525,65.82336695626701L185.25835975646973,66.23408136576506L185.95481975555418,64.20790279106912L186.6512797546387,64.23528810375836L187.34773975372315,65.22099615846963L188.04419975280763,65.6317024078626L188.74065975189208,64.07100070793811L189.43711975097656,63.41385928476225L190.13357975006105,64.76921194004278L190.83003974914553,63.9614757773913L191.52649974822998,64.23528810375836L192.22295974731443,63.934098624807135L192.91941974639892,64.46802246109155L193.6158797454834,63.18112492742907L194.31233974456788,63.50969155896445L195.00879974365233,64.1531403257957L195.7052597427368,64.52278492636496L196.40171974182127,63.89302881587835L197.09817974090578,63.865643503189105L197.79463973999023,63.31802701056006L198.4910997390747,63.756118572642265L199.18755973815917,62.20910952906242L199.88401973724365,63.04422284429806L200.58047973632813,62.87993544847784L201.2769397354126,61.88053473742194L201.97339973449706,63.756118572642265L202.66985973358155,63.48231440638028L203.366319732666,62.893628104822454L204.0627797317505,61.976367011624134L204.75923973083496,63.14005511850027L205.45569972991944,63.71504876371348L206.1521597290039,62.4829136953244L206.84861972808838,61.62042322750459L207.54507972717286,62.2501793379912L208.24153972625734,61.688870189017535L208.9379997253418,60.648399669032855L209.63445972442625,62.33231895584879L210.33091972351073,61.79839511956436L211.0273797225952,61.675185692778L211.7238397216797,60.689477638066734L212.42029972076415,61.44244317533972L213.11675971984863,61.551968105886544L213.81321971893308,60.49781308966233L214.5096797180176,60.92221199539992L215.20613971710205,60.63471517279332L215.90259971618653,60.1966236107111L216.59905971527098,60.70316213430627L217.29551971435546,61.346610901137524L217.99197971343995,61.018044269602115L218.68843971252443,60.648399669032855L219.38489971160888,61.04542142218628L220.08135971069336,61.26447128327993L220.77781970977782,60.53888289859111L221.47427970886233,60.07340602381964L222.17073970794678,60.30614038115283L222.86719970703126,59.27936251751278L223.56365970611571,59.67638427066622L224.2601197052002,60.210308106950635L224.95657970428468,60.388288159115504L225.65303970336916,59.41627276074887L226.3494997024536,58.93710322963277L227.04595970153807,59.44364991333302L227.74241970062255,59.41627276074887L228.43887969970703,58.745438681228364L229.1353396987915,58.69067621595495L229.83179969787597,59.30674783020203L230.52825969696045,58.77282399391761L231.2247196960449,59.01925100759543L231.9211796951294,58.19782218859932L232.61763969421386,59.22460005223937L233.31409969329835,58.2388919975281L234.0105596923828,58.964488542322016L234.70701969146728,59.183530243310585L235.40347969055176,57.59545139080194L236.09993968963624,58.12937522708637L236.7963996887207,58.69067621595495L237.49285968780518,58.12937522708637L238.18931968688963,58.26627731021735L238.88577968597414,58.15675237967051L239.5822396850586,58.2388919975281L240.27869968414308,59.471027065917184L240.97515968322753,58.10198991439711L241.671619682312,58.30734711914613L242.3680796813965,58.047227449123696L243.06453968048098,57.93771067868197" fill="none"></path></g></g></g></g></g></g><g transform="translate(51, 177)" clip-path="url(#clip_1)"><clipPath id="clip_1"><rect width="278" height="22"></rect></clipPath><g><g><line x1="0" y1="0" x2="0" y2="5" style="visibility: inherit;" fill="rgb(0, 0, 0)" stroke="rgb(204, 204, 204)" stroke-width="1px"></line><line x1="34.82299995422363" y1="0" x2="34.82299995422363" y2="5" style="visibility: inherit;" fill="rgb(0, 0, 0)" stroke="rgb(204, 204, 204)" stroke-width="1px"></line><line x1="69.64599990844727" y1="0" x2="69.64599990844727" y2="5" style="visibility: inherit;" fill="rgb(0, 0, 0)" stroke="rgb(204, 204, 204)" stroke-width="1px"></line><line x1="104.4689998626709" y1="0" x2="104.4689998626709" y2="5" style="visibility: inherit;" fill="rgb(0, 0, 0)" stroke="rgb(204, 204, 204)" stroke-width="1px"></line><line x1="139.29199981689453" y1="0" x2="139.29199981689453" y2="5" style="visibility: inherit;" fill="rgb(0, 0, 0)" stroke="rgb(204, 204, 204)" stroke-width="1px"></line><line x1="174.11499977111816" y1="0" x2="174.11499977111816" y2="5" style="visibility: inherit;" fill="rgb(0, 0, 0)" stroke="rgb(204, 204, 204)" stroke-width="1px"></line><line x1="208.9379997253418" y1="0" x2="208.9379997253418" y2="5" style="visibility: inherit;" fill="rgb(0, 0, 0)" stroke="rgb(204, 204, 204)" stroke-width="1px"></line><line x1="243.76099967956543" y1="0" x2="243.76099967956543" y2="5" style="visibility: inherit;" fill="rgb(0, 0, 0)" stroke="rgb(204, 204, 204)" stroke-width="1px"></line><line x1="278.58399963378906" y1="0" x2="278.58399963378906" y2="5" style="visibility: inherit;" fill="rgb(0, 0, 0)" stroke="rgb(204, 204, 204)" stroke-width="1px"></line></g><g transform="translate(0, 8)"><text style="text-anchor: middle; visibility: hidden; font-family: &quot;Helvetica Neue&quot;, sans-serif; font-size: 12px; font-weight: 200;" x="0" y="0" dx="0em" dy="0.95em" fill="rgb(50, 49, 63)" stroke="none" stroke-width="1px">-50</text><text style="text-anchor: middle; visibility: inherit; font-family: &quot;Helvetica Neue&quot;, sans-serif; font-size: 12px; font-weight: 200;" x="34.82299995422363" y="0" dx="0em" dy="0.95em" fill="rgb(50, 49, 63)" stroke="none" stroke-width="1px">0</text><text style="text-anchor: middle; visibility: inherit; font-family: &quot;Helvetica Neue&quot;, sans-serif; font-size: 12px; font-weight: 200;" x="69.64599990844727" y="0" dx="0em" dy="0.95em" fill="rgb(50, 49, 63)" stroke="none" stroke-width="1px">50</text><text style="text-anchor: middle; visibility: inherit; font-family: &quot;Helvetica Neue&quot;, sans-serif; font-size: 12px; font-weight: 200;" x="104.4689998626709" y="0" dx="0em" dy="0.95em" fill="rgb(50, 49, 63)" stroke="none" stroke-width="1px">100</text><text style="text-anchor: middle; visibility: inherit; font-family: &quot;Helvetica Neue&quot;, sans-serif; font-size: 12px; font-weight: 200;" x="139.29199981689453" y="0" dx="0em" dy="0.95em" fill="rgb(50, 49, 63)" stroke="none" stroke-width="1px">150</text><text style="text-anchor: middle; visibility: inherit; font-family: &quot;Helvetica Neue&quot;, sans-serif; font-size: 12px; font-weight: 200;" x="174.11499977111816" y="0" dx="0em" dy="0.95em" fill="rgb(50, 49, 63)" stroke="none" stroke-width="1px">200</text><text style="text-anchor: middle; visibility: inherit; font-family: &quot;Helvetica Neue&quot;, sans-serif; font-size: 12px; font-weight: 200;" x="208.9379997253418" y="0" dx="0em" dy="0.95em" fill="rgb(50, 49, 63)" stroke="none" stroke-width="1px">250</text><text style="text-anchor: middle; visibility: inherit; font-family: &quot;Helvetica Neue&quot;, sans-serif; font-size: 12px; font-weight: 200;" x="243.76099967956543" y="0" dx="0em" dy="0.95em" fill="rgb(50, 49, 63)" stroke="none" stroke-width="1px">300</text><text style="text-anchor: middle; visibility: hidden; font-family: &quot;Helvetica Neue&quot;, sans-serif; font-size: 12px; font-weight: 200;" x="278.58399963378906" y="0" dx="0em" dy="0.95em" fill="rgb(50, 49, 63)" stroke="none" stroke-width="1px">350</text></g><line x1="0" y1="0" x2="278.58399963378906" y2="0" fill="rgb(0, 0, 0)" stroke="rgb(204, 204, 204)" stroke-width="1px"></line></g></g></g></g></svg>