<svg viewBox="0 0 330 200" xmlns="http://www.w3.org/2000/svg"><g><g><g><g><g><line x1="51.41600036621094" y1="177.9749994277954" x2="46.41600036621094" y2="177.9749994277954" style="visibility: inherit;" fill="rgb(0, 0, 0)" stroke="rgb(204, 204, 204)" stroke-width="1px"></line><line x1="51.41600036621094" y1="158.1999994913737" x2="46.41600036621094" y2="158.1999994913737" style="visibility: inherit;" fill="rgb(0, 0, 0)" stroke="rgb(204, 204, 204)" stroke-width="1px"></line><line x1="51.41600036621094" y1="138.424999554952" x2="46.41600036621094" y2="138.424999554952" style="visibility: inherit;" fill="rgb(0, 0, 0)" stroke="rgb(204, 204, 204)" stroke-width="1px"></line><line x1="51.41600036621094" y1="118.64999961853027" x2="46.41600036621094" y2="118.64999961853027" style="visibility: inherit;" fill="rgb(0, 0, 0)" stroke="rgb(204, 204, 204)" stroke-width="1px"></line><line x1="51.41600036621094" y1="98.87499968210857" x2="46.41600036621094" y2="98.87499968210857" style="visibility: inherit;" fill="rgb(0, 0, 0)" stroke="rgb(204, 204, 204)" stroke-width="1px"></line><line x1="51.41600036621094" y1="79.09999974568684" x2="46.41600036621094" y2="79.09999974568684" style="visibility: inherit;" fill="rgb(0, 0, 0)" stroke="rgb(204, 204, 204)" stroke-width="1px"></line><line x1="51.41600036621094" y1="59.32499980926514" x2="46.41600036621094" y2="59.32499980926514" style="visibility: inherit;" fill="rgb(0, 0, 0)" stroke="rgb(204, 204, 204)" stroke-width="1px"></line><line x1="51.41600036621094" y1="39.549999872843415" x2="46.41600036621094" y2="39.549999872843415" style="visibility: inherit;" fill="rgb(0, 0, 0)" stroke="rgb(204, 204, 204)" stroke-width="1px"></line><line x1="51.41600036621094" y1="19.77499993642172" x2="46.41600036621094" y2="19.77499993642172" style="visibility: inherit;" fill="rgb(0, 0, 0)" stroke="rgb(204, 204, 204)" stroke-width="1px"></line><line x1="51.41600036621094" y1="0" x2="46.41600036621094" y2="0" style="visibility: inherit;" fill="rgb(0, 0, 0)" stroke="rgb(204, 204, 204)" stroke-width="1px"></line></g><g transform="translate(41.41600036621094, 0)"><text style="text-anchor: end; visibility: hidden; font-family: &quot;Helvetica Neue&quot;, sans-serif; font-size: 12px; font-weight: 200;" x="0" y="177.9749994277954" dx="0em" dy="0.3em" fill="rgb(50, 49, 63)" stroke="none" stroke-width="1px">-0.5</text><text style="text-anchor: end; visibility: inherit; font-family: &quot;Helvetica Neue&quot;, sans-serif; font-size: 12px; font-weight: 200;" x="0" y="158.1999994913737" dx="0em" dy="0.3em" fill="rgb(50, 49, 63)" stroke="none" stroke-width="1px">0</text><text style="text-anchor: end; visibility: hidden; font-family: &quot;Helvetica Neue&quot;, sans-serif; font-size: 12px; font-weight: 200;" x="0" y="138.424999554952" dx="0em" dy="0.3em" fill="rgb(50, 49, 63)" stroke="none" stroke-width="1px">0.5</text><text style="text-anchor: end; visibility: inherit; font-family: &quot;Helvetica Neue&quot;, sans-serif; font-size: 12px; font-weight: 200;" x="0" y="118.64999961853027" dx="0em" dy="0.3em" fill="rgb(50, 49, 63)" stroke="none" stroke-width="1px">1</text><text style="text-anchor: end; visibility: hidden; font-family: &quot;Helvetica Neue&quot;, sans-serif; font-size: 12px; font-weight: 200;" x="0" y="98.87499968210857" dx="0em" dy="0.3em" fill="rgb(50, 49, 63)" stroke="none" stroke-width="1px">1.5</text><text style="text-anchor: end; visibility: inherit; font-family: &quot;Helvetica Neue&quot;, sans-serif; font-size: 12px; font-weight: 200;" x="0" y="79.09999974568684" dx="0em" dy="0.3em" fill="rgb(50, 49, 63)" stroke="none" stroke-width="1px">2</text><text style="text-anchor: end; visibility: hidden; font-family: &quot;Helvetica Neue&quot;, sans-serif; font-size: 12px; font-weight: 200;" x="0" y="59.32499980926514" dx="0em" dy="0.3em" fill="rgb(50, 49, 63)" stroke="none" stroke-width="1px">2.5</text><text style="text-anchor: end; visibility: inherit; font-family: &quot;Helvetica Neue&quot;, sans-serif; font-size: 12px; font-weight: 200;" x="0" y="39.549999872843415" dx="0em" dy="0.3em" fill="rgb(50, 49, 63)" stroke="none" stroke-width="1px">3</text><text style="text-anchor: end; visibility: hidden; font-family: &quot;Helvetica Neue&quot;, sans-serif; font-size: 12px; font-weight: 200;" x="0" y="19.77499993642172" dx="0em" dy="0.3em" fill="rgb(50, 49, 63)" stroke="none" stroke-width="1px">3.5</text><text style="text-anchor: end; visibility: hidden; font-family: &quot;Helvetica Neue&quot;, sans-serif; font-size: 12px; font-weight: 200;" x="0" y="0" dx="0em" dy="0.3em" fill="rgb(50, 49, 63)" stroke="none" stroke-width="1px">4</text></g><line x1="51.41600036621094" y1="0" x2="51.41600036621094" y2="177.9749994277954" fill="rgb(0, 0, 0)" stroke="rgb(204, 204, 204)" stroke-width="1px"></line></g></g><g transform="translate(51, 0)" clip-path="url(#clip_0)"><clipPath id="clip_0"><rect width="278" height="177"></rect></clipPath><g><g><g><line x1="0" y1="0" x2="0" y2="177.9749994277954" fill="rgb(0, 0, 0)" stroke="rgb(60, 60, 60)" stroke-width="1px" opacity="0.25"></line><line x1="19.89885711669922" y1="0" x2="19.89885711669922" y2="177.9749994277954" fill="rgb(0, 0, 0)" stroke="rgb(60, 60, 60)" stroke-width="1px" opacity="0.25"></line><line x1="39.79771423339844" y1="0" x2="39.79771423339844" y2="177.9749994277954" fill="rgb(0, 0, 0)" stroke="rgb(60, 60, 60)" stroke-width="1px" opacity="0.25"></line><line x1="59.696571350097656" y1="0" x2="59.696571350097656" y2="177.9749994277954" fill="rgb(0, 0, 0)" stroke="rgb(60, 60, 60)" stroke-width="1px" opacity="0.25"></line><line x1="79.59542846679688" y1="0" x2="79.59542846679688" y2="177.9749994277954" fill="rgb(0, 0, 0)" stroke="rgb(60, 60, 60)" stroke-width="1px" opacity="0.25"></line><line x1="99.4942855834961" y1="0" x2="99.4942855834961" y2="177.9749994277954" fill="rgb(0, 0, 0)" stroke="rgb(60, 60, 60)" stroke-width="1px" opacity="0.25"></line><line x1="119.39314270019531" y1="0" x2="119.39314270019531" y2="177.9749994277954" fill="rgb(0, 0, 0)" stroke="rgb(60, 60, 60)" stroke-width="1px" opacity="0.25"></line><line x1="139.29199981689453" y1="0" x2="139.29199981689453" y2="177.9749994277954" fill="rgb(0, 0, 0)" stroke="rgb(60, 60, 60)" stroke-width="1px" opacity="0.25"></line><line x1="159.19085693359375" y1="0" x2="159.19085693359375" y2="177.9749994277954" fill="rgb(0, 0, 0)" stroke="rgb(60, 60, 60)" stroke-width="1px" opacity="0.25"></line><line x1="179.08971405029297" y1="0" x2="179.08971405029297" y2="177.9749994277954" fill="rgb(0, 0, 0)" stroke="rgb(60, 60, 60)" stroke-width="1px" opacity="0.25"></line><line x1="198.9885711669922" y1="0" x2="198.9885711669922" y2="177.9749994277954" fill="rgb(0, 0, 0)" stroke="rgb(60, 60, 60)" stroke-width="1px" opacity="0.25"></line><line x1="218.8874282836914" y1="0" x2="218.8874282836914" y2="177.9749994277954" fill="rgb(0, 0, 0)" stroke="rgb(60, 60, 60)" stroke-width="1px" opacity="0.25"></line><line x1="238.78628540039062" y1="0" x2="238.78628540039062" y2="177.9749994277954" fill="rgb(0, 0, 0)" stroke="rgb(60, 60, 60)" stroke-width="1px" opacity="0.25"></line><line x1="258.68514251708984" y1="0" x2="258.68514251708984" y2="177.9749994277954" fill="rgb(0, 0, 0)" stroke="rgb(60, 60, 60)" stroke-width="1px" opacity="0.25"></line><line x1="278.58399963378906" y1="0" x2="278.58399963378906" y2="177.9749994277954" fill="rgb(0, 0, 0)" stroke="rgb(60, 60, 60)" stroke-width="1px" opacity="0.25"></line></g><g><line x1="0" y1="177.9749994277954" x2="278.58399963378906" y2="177.9749994277954" fill="rgb(0, 0, 0)" stroke="rgb(60, 60, 60)" stroke-width="1px" opacity="0.25"></line><line x1="0" y1="158.1999994913737" x2="278.58399963378906" y2="158.1999994913737" fill="rgb(0, 0, 0)" stroke="rgb(60, 60, 60)" stroke-width="1px" opacity="0.25"></line><line x1="0" y1="138.424999554952" x2="278.58399963378906" y2="138.424999554952" fill="rgb(0, 0, 0)" stroke="rgb(60, 60, 60)" stroke-width="1px" opacity="0.25"></line><line x1="0" y1="118.64999961853027" x2="278.58399963378906" y2="118.64999961853027" fill="rgb(0, 0, 0)" stroke="rgb(60, 60, 60)" stroke-width="1px" opacity="0.25"></line><line x1="0" y1="98.87499968210857" x2="278.58399963378906" y2="98.87499968210857" fill="rgb(0, 0, 0)" stroke="rgb(60, 60, 60)" stroke-width="1px" opacity="0.25"></line><line x1="0" y1="79.09999974568684" x2="278.58399963378906" y2="79.09999974568684" fill="rgb(0, 0, 0)" stroke="rgb(60, 60, 60)" stroke-width="1px" opacity="0.25"></line><line x1="0" y1="59.32499980926514" x2="278.58399963378906" y2="59.32499980926514" fill="rgb(0, 0, 0)" stroke="rgb(60, 60, 60)" stroke-width="1px" opacity="0.25"></line><line x1="0" y1="39.549999872843415" x2="278.58399963378906" y2="39.549999872843415" fill="rgb(0, 0, 0)" stroke="rgb(60, 60, 60)" stroke-width="1px" opacity="0.25"></line><line x1="0" y1="19.77499993642172" x2="278.58399963378906" y2="19.77499993642172" fill="rgb(0, 0, 0)" stroke="rgb(60, 60, 60)" stroke-width="1px" opacity="0.25"></line><line x1="0" y1="0" x2="278.58399963378906" y2="0" fill="rgb(0, 0, 0)" stroke="rgb(60, 60, 60)" stroke-width="1px" opacity="0.25"></line></g></g></g><g><g><line x1="0" y1="158.1999994913737" x2="278.58399963378906" y2="158.1999994913737" fill="rgb(0, 0, 0)" stroke="rgb(153, 153, 153)" stroke-width="1.5px"></line></g></g><g><g><line x1="19.89885711669922" y1="0" x2="19.89885711669922" y2="177.9749994277954" fill="rgb(0, 0, 0)" stroke="rgb(153, 153, 153)" stroke-width="1.5px"></line></g></g><g><g><g><g><g><path style="fill: none;" stroke="rgb(0, 153, 136)" stroke-width="2px" d="M20.605266544342044,-12.83113058256427L20.826143858337403,10.493172707199847L21.454947743225098,2.5023792782438647L21.544492600250244,11.443463729783161L22.16135717086792,7.488146912818451L22.211104313659668,19.44577052301716L22.41208277053833,9.500024812672564L22.591172484588625,31.497980994045378L22.93940248413086,-1.9561403926900311L22.95930134124756,28.52554339535996L23.030937226867678,9.120904154063282L23.51845922622681,19.607334801100336L24.04776882553101,39.52370112348112L24.43579653930664,17.831834473499526L24.567128996276853,28.864230551901983L25.18399356689453,10.632464613108823L25.44466859512329,9.730876724428839L25.603859452056884,15.784247228419503L25.67350545196533,11.722396431427711L25.683454880523684,31.955649010914982L26.143118479919433,6.5382707862451355L26.272461051177977,12.969177800443191L26.41175305099487,16.209562785962447L26.511247336578368,48.14024260063812L26.931113221740723,28.74559858140097L27.01070865020752,45.06824881845782L27.438534078216552,4.364470289026485L27.49823064956665,37.23920825668043L27.637522649383545,8.672731598150222L27.657421506500242,3.2101447240617347L27.79870339202881,12.359780426818816L27.858399963378908,49.29268227464823L28.136983963012696,42.48017465523557L29.213512133026125,68.15216701769002L29.46423773269653,31.856884901621015L29.474187161254886,62.18913069042614L29.53388373260498,54.733986869313725L29.80251830368042,22.67436869006997L29.89206316070557,52.52988010445415L30.37162561721802,56.45835126367972L30.401473902893066,8.097478280259423L30.670108473968508,33.247993505394334L30.77955218811035,16.368364233797053L31.3387100730896,22.940722499047155L31.348659501647948,15.819277652901746L31.527749215698243,29.327226210718436L32.15655310058594,20.62018082664872L32.32569338607788,58.690406932486894L32.86495241394043,23.30703795807449L32.89480069961548,64.19487944467771L33.03409269943237,58.09571950830862L33.07389041366577,70.3709082963575L33.54350344161987,27.89769257874454L33.61314944152832,40.45141803133751L33.832036869812015,13.522403911983929L33.94347046966553,38.65938786951938L34.042964755249024,79.21425173444572L34.34144761199951,55.52738119392659L34.45089132614136,19.23352292552832L34.59018332595825,30.33234951280761L34.90060549697876,19.03439169962894L35.189138925170894,22.816960905149557L35.34832978210449,64.75414040727325L35.49956109619141,51.58460555181016L35.5393588104248,21.08825896158791L35.70849909591674,85.90056024590194L36.056729095458984,40.35643513340756L36.55619040908814,37.21226830439355L36.73528012313843,57.468396741160475L36.82482498016358,55.1856954707667L36.964116979980474,85.71436151722394L36.98401583709717,26.79098576038419L37.01386412277222,97.77159788764622L37.44367943649292,20.015903646966166L37.883444178771974,12.44629567436246L38.062533892822266,33.66245576049337L38.15207874984741,31.66291158748254L38.28142132110596,52.987001212946936L38.311269606781,85.42420304967193L38.3908650352478,83.16928566776724L38.78088263473511,73.47171849232457L38.950022920227056,20.519832568952864L39.049517205810545,30.5574683160618L39.079365491485596,70.7849650849013L39.608675090789795,26.431798969165357L39.728068233489985,59.67753883486891L39.956905090332036,59.51373977600451L40.35687211837769,34.70165711213272L40.43646754684448,62.2740240717488L40.47626526107788,76.58922825269488L40.54591126098633,46.77688488226218L41.44334971694946,43.96741655042115L41.48314743118286,97.69410191359309L41.56274285964966,43.28554438741034L41.68213600234986,58.51161504053319L41.873165030670165,37.845201597131705L41.92291217346191,44.116251064560544L41.93286160202027,45.84851734202644L42.13185017318725,69.93820947572719L42.181597315979005,29.95182386543715L42.62136205825806,22.85944059890258L42.740755200958255,66.52364360163831L42.999440343475335,29.101051308529662L43.08898520050049,68.61001419420033L43.429255657196045,25.848096859797806L43.43920508575439,22.997893283336765L43.459103942871096,80.58024498543077L43.89687879943848,25.556670130578823L44.05805954208375,82.65590843209786L44.07795839920044,30.852723403918702L44.12770554199219,31.630860870708602L44.37644125595093,46.24278170500142L44.38639068450928,85.08916037739975L44.485884970092776,41.121663676613025L44.50578382720947,86.84285509083763L44.55553097000122,70.1697497376819L44.69482296981812,29.21706189060373L44.75451954116821,85.85477552825091L44.836104855346676,37.00008671308811L44.98534628372192,55.361130476821174L45.04504285507202,47.84659994954745L46.35040788192749,46.97198030151867L46.5215380531311,41.18106924168387L46.889666909790044,49.88270211871381L47.028958909606935,56.4015010808524L47.36922936630249,32.30054074869773L48.425858679199216,34.18198100067488L49.12430856399536,70.65752600364219L49.20390399246216,27.56829343515406L49.554123877716066,56.27378854540484L49.822758448791504,59.80331833208797L49.852606734466555,39.088956111165004L50.421714048004155,102.65596588031774L51.03061907577515,30.19292559453183L51.37884907531738,27.061611112373612L51.71712964630127,94.09161172060271L51.808664389038086,115.78104085652544L51.84846210327148,38.03958980728021L51.86836096038819,103.72431367666088L51.87831038894653,100.12371408935253L52.455377245330816,44.89143711200646L52.84539484481812,67.22184758031624L53.15382713012695,104.59853257286181L53.46424930114746,46.67559367908902L53.683136729431155,34.65863993945763L53.8721758720398,109.10402507274814L54.02141730041504,78.04274098815692L54.17264861450195,69.7928827187634L55.358620498657224,33.768244813593356L55.537710212707516,68.97242585895158L55.55760906982422,102.84313112810999L55.907828955078124,52.16376266397705L56.047120954895014,74.39026997014147L56.59632941131592,51.22543761950085L56.63612712554932,92.32534282922484L56.74557083969116,74.01719359204178L57.25498158187867,31.194409127078558L57.463919581604,91.72544091655702L57.51366672439575,44.18186121087214L57.533565581512455,99.57866331510013L57.63305986709595,64.03325858986591L57.961391009521485,77.87122863528809L58.59019489440918,62.56952432542978L58.86081935119629,116.50806124899009L59.13940335083007,42.78202093197888L59.517481636047364,80.85353887312097L59.61896580734253,73.18867454839892L59.64881409301758,99.99623729027432L60.21593152084351,50.14927280515076L60.265678663635256,103.89539227461016L60.36716283493042,57.67424173885834L61.09347111968994,64.55759285198171L61.20490471954346,66.97398493214921L61.22480357666015,54.52294624203583L61.28450014801025,63.332753824223346L61.53323586196899,37.07782313823796L61.58298300476075,88.89948046831773L61.612831290435786,117.59256641608704L61.891415290069574,40.34228152179307L61.91330403289795,113.41295115843339L62.29138231811523,50.89990455236739L62.42072488937378,107.88376876000954L62.44062374649048,48.11687641171025L63.23856791687012,101.16986966388708L63.55893951644897,89.40574318036079L64.1459558013916,94.38289229327272L64.30713654403687,116.03226982004647L64.5160745437622,102.5402240377047L64.99364711456299,100.42026101251334L65.02349540023803,77.41604999447858L65.48315899963379,37.73075630455L65.8333788848877,86.4459457657988L65.8731765991211,36.92018151334045L65.9527720275879,68.63851000652478L66.32090088424683,50.88028185698445L66.68107019805907,93.51542017196198L66.76066562652588,63.23264130289681L67.05914848327637,69.27296144148143L67.17854162597656,84.11901563779156L67.19844048309326,26.357853184834312L67.56855922546387,48.59191348427203L67.68795236816406,47.76052788637813L68.10582836761475,45.64267234432859L68.77442996673584,103.30371284650452L68.86397482376098,68.89853665134918L68.89382310943603,61.805078426970496L69.64202013702392,116.51478445024335L69.66191899414063,57.792826562085494L69.67186842269896,69.54179519706395L70.19122859344483,120.69851802226916L70.46981259307861,80.86472220648193L71.118515335083,82.78514853921865L71.49858350601195,109.14816435054126L72.38607253341675,85.62218388208899L72.54526339035034,100.47448509218634L72.68455539016723,84.01643259931447L73.28351098937989,54.52416264170158L73.50239841766358,102.75630942328621L74.22074715957642,32.00351292334349L74.24064601669312,47.390327491984266L74.55106818771362,34.97601652821231L74.92914647293091,92.28998237382552L75.64749521484374,58.52164798041183L75.68729292907716,59.826081035910335L75.8365343574524,118.0191455205696L76.23650138549806,35.56662099847381L76.2663496711731,65.2279516507145L76.78570984191894,64.77394226229687L77.10409155578613,118.33327366215494L77.27323184127808,54.43560120247216L77.30308012695312,48.01255835355491L77.63340115509033,95.3747389230413L77.65330001220703,118.08749492349276L77.72294601211549,59.90140352063827L78.08112544021607,61.834121147671794L78.28210389709473,51.63971128550445L78.52089018249512,58.68266535011814L78.57063732528687,59.43832299672886L78.63033389663697,80.69597739858901L78.8989684677124,68.26204845416153L79.08999749603271,50.44266086096256L79.13974463882445,74.06767889289722L79.2889860671997,61.97799576860052L79.76655863800049,130.03967302356L80.18642452316284,72.82340575885141L80.28591880874633,110.68937101539359L80.77543069381713,45.9794924688255L80.96446983642578,48.244937836984406L81.09381240768433,44.53186371314192L81.15350897903443,90.1641070804914L81.28285155029297,71.93701815126572L81.84200943527222,133.45368963190833L82.07084629211425,87.18764310461786L82.12059343490601,33.687424956732684L82.35142017745972,120.79949098134375L82.57030760574341,59.925731513953L82.69965017700196,47.95988541919209L82.93047691955566,103.20744754272543L83.87766251831054,109.78039043417145L83.91746023254393,54.6260384710707L84.11644880371094,92.24752625370941L84.64575840301514,78.97978362678396L84.74525268859864,46.53324662983354L84.93429183120728,45.699711116251365L85.46360143051149,83.65318171308839L85.55314628753662,89.39224020112563L85.67253943023681,114.19017396811032L85.70238771591187,44.83930165656571L85.85162914428712,69.71152538298065L85.88147742996215,123.36006178235641L86.00087057266235,77.48472471359142L86.26154560089113,127.42753017702928L86.30134331512451,119.1928674740027L86.41078702926636,101.48827877793944L87.1888323425293,36.942189860780985L87.32812434234619,42.78311474873257L87.40771977081299,55.382280743877345L87.55696119918824,91.13748612308677L88.19571451263428,60.69724950349216L88.50613668365477,79.61203799877845L88.76482182617187,87.0960736693158L88.98370925445556,43.57308618126277L89.89109713897705,61.73082147063194L89.96273302459717,52.432370112645L90.3706595954895,61.874667803196346L90.96961519470214,79.99769326954554L91.27804748001098,94.70453099558488L91.79740765075684,100.63536573479844L91.90685136489867,116.6499368255069L92.08594107894898,49.34116853109177L92.18543536453247,68.29591905570669L92.19538479309082,103.5809529610173L92.37646439285278,57.03464182159557L92.60530124969482,42.259044511350425L92.79434039230347,108.91331434996118L93.17440856323242,50.64589389968826L93.20425684890746,46.30213069334363L93.27390284881592,92.24540462638545L93.37339713439941,93.35479883935614L93.40324542007446,123.96639929790692L93.55248684844972,99.73346667411094L93.87285844802857,50.38818690073806L94.0618975906372,37.157011699422895L94.83994290390015,45.122864220503885L95.18817290344238,54.21929893943084L95.35731318893431,46.54727765853599L95.49859507446288,123.75342327503684L95.60803878860473,128.14200939464564L95.66773535995483,131.73792725765915L96.01596535949707,98.48746794984163L96.18709553070069,115.43691290457932L96.32638753051758,72.85321226538932L96.52537610168457,91.84707616840326L96.60497153015136,114.74615819517217L96.70446581573486,66.59548661755495L97.04473627243041,45.93011041417853L97.09448341522216,45.83301531837938L97.70139855728151,128.49784401469265L97.70338844299316,73.05232463237917L98.02177015686036,98.84684333015593L98.6008268989563,44.8192169178989L98.94905689849853,36.7065289270904L99.05850061264037,35.72697830634601L99.17789375534058,68.79664196307053L99.33907449798583,108.29357286445065L100.46534981079101,124.2257258057144L100.50514752502441,77.03136595755313L100.81357981033325,50.85975393394331L100.86531683883668,81.4771841529076L101.44238369522095,40.279443635184776L101.55182740936279,50.96941849295506L101.91199672317505,74.31709740110182L101.9617438659668,59.006142796111064L101.9816427230835,133.15952364607776L102.04133929443358,85.17814142736658L102.27017615127563,61.643278412518015L102.31992329406738,53.52426325755671L102.40150860824585,43.89397052719309L103.28899763565063,48.311415493135115L103.31884592132569,44.39066705736877L103.59742992095947,52.49151165298221L103.64717706375122,91.25270934568728L103.69692420654296,52.08159439508381L104.26603152008057,77.09459988126187L104.52471666259765,53.35094044937145L104.6142615196228,53.42233085145895L104.93463311920165,47.43434418686533L104.94458254776,108.15993863140557L105.03412740478515,44.56739389872715L105.41220569000244,113.44169685130935L105.48384157562256,44.97301132524899L105.53358871841431,107.97209917759703L106.58026860275268,47.07444075708372L106.75935831680297,131.13119370500817L106.78920660247802,76.653527704793L106.99814460220337,34.30407358107763L107.09962877349854,61.28979644143692L107.33841505889892,134.22627314983686L107.40806105880738,65.37959614237631L107.57720134429933,123.04959934131412L107.59710020141601,42.50441778345734L107.62694848709107,41.22548197366541L107.82792694396973,32.60498955495845L107.89757294387817,44.95888600199882L108.12640980072021,48.36118415542782L108.29555008621216,115.27775785219069L108.47463980026245,53.5692228979151L108.53433637161254,40.31988656670683L108.62587111434937,107.5079342663887L109.08354482803344,110.11141144398289L109.16314025650024,95.6926058434442L109.37207825622559,37.86216518626861L110.07052814102174,74.65269169647823L110.76897802581787,68.04568018493683L110.83862402572632,131.34879251808078L111.09929905395508,142.76228944059486L111.56692219619751,55.93301747935796L111.65646705322266,45.60635008454241L111.96688922424316,88.39938461969632L112.1758272239685,74.79737725051746L112.59569310913086,50.014422172439936L112.62554139480591,51.20550375211042L112.8245299659729,56.03935344083477L112.89417596588135,98.148224455468L113.15286110839844,106.16600026925737L113.84136156463623,76.20546830233721L113.93090642166138,65.26501883742776L114.00055242156982,113.5082640872804L114.12193544998169,46.76966191990596L114.34082287826539,71.05326136156175L114.71890116348266,119.62224476918918L114.94972790603639,120.48279802806012L115.00942447738647,49.04857254948092L115.23826133422851,48.25035034402421L115.4173510482788,131.6994102922745L116.10585150451661,47.50563086495035L116.5356668182373,39.27204783449528L116.81425081787108,63.31069832950895L116.84409910354614,37.137700176047474L117.23411670303345,48.99116602882199L117.47290298843383,51.66329435189209L118.11165630187988,106.92696198417798L118.87975218658447,71.22322728384779L118.92949932937623,83.9553815943857L118.95934761505127,85.78339927034556L119.21803275756835,69.92340523173334L119.4468696144104,101.82080850051459L119.64784807128906,52.69865791543877L119.80703892822265,127.45496517569177L120.04582521362305,133.5950607325948L120.21496549911498,114.24378984795044L120.91341538391113,96.84862399554072L121.10444441223144,121.99422647473884L121.17409041213989,132.1649943364262L122.29041629638672,88.87535520828062L122.32026458206177,132.55283016860955L122.5292025817871,42.22223191991603L122.57894972457886,63.78438699003816L123.10825932388305,44.79803836247842L123.20775360946655,77.87847988600865L123.24755132369994,54.23188726155301L123.52812520904541,52.21275811097833L123.8465069229126,81.57784358261097L123.85645635147094,53.39734279631011L124.2763222366333,57.13691368806515L124.36586709365845,110.34115068007593L124.5350073791504,48.801699994065075L124.58475452194214,49.94786908065103L124.67429937896729,101.4811972574048L124.83349023590088,52.02030293905834L124.99467097854614,127.84231774831801L125.39264812088012,102.29936275970674L125.75281743469239,126.90906575050977L125.84236229171752,45.02802276439556L125.85231172027588,126.65551478375085L126.07119914855957,63.70243559860471L126.14084514846802,105.68664922113688L126.41942914810181,59.29764496096823L126.51096389083862,78.49319547212508L126.56071103363037,91.83960804022293L126.67015474777222,95.20383005527795L126.75969960479736,82.34327014436667L126.89899160461425,123.04478560465245L127.26911034698487,65.80424220863036L127.29895863265992,36.87480697697205L127.63723920364379,48.25698868018449L127.6770369178772,37.38928745884991L127.90587377471924,50.89106915324494L127.96557034606934,73.9524603850241L127.98546920318604,110.62203527885852L128.37548680267335,47.2735059767997L128.43518337402344,49.27698223245093L128.56452594528199,61.39854634333565L128.61427308807373,117.01719523001157L128.75356508789062,133.33687518881484L129.24307697296143,49.07798301891839L129.43211611557007,71.80805149833334L129.5216609725952,66.59934326455716L129.69279114379884,73.31081427607553L129.96142571487425,108.65398548479L130.19026257171632,51.70679242676063L130.210161428833,59.55643634721734L130.22011085739135,39.68357752915986L130.7991675994873,53.836896830560505L130.9185607421875,123.43730551849436L131.28867948455812,88.34290218560515L131.79610034103393,55.12928847231373L132.36520765457152,45.77695720975302L132.71542753982544,70.28066841417846L132.8845678253174,102.55661714482783L133.08355639648437,53.01847673297971L133.3919886817932,73.63670566249039L133.48153353881835,74.56248953211828L133.6427142814636,107.17360351795189L133.7223097099304,95.5038705914322L133.81185456695556,137.72440992421647L134.1202868522644,109.23307659077348L134.50035502319335,46.99480901152447L134.61974816589355,89.56907076648652L134.73914130859376,48.94724362848865L134.8485850227356,135.72962762586607L134.98787702255248,92.28652647865117L135.0077758796692,87.94944875574068L135.3579957649231,98.32315027096472L135.71617519302367,47.96303485708631L135.97685022125245,49.29433242923355L136.12609164962768,80.51639814716175L136.42457450637818,103.75323852917752L136.6554012489319,83.64575130272715L136.83449096298216,106.9640433150734L137.4234971336365,46.885851661620705L137.552839704895,52.168656551004304L137.57273856201172,137.08440689776214L137.78167656173707,62.96507109425389L137.83142370452882,45.11097367803495L137.9707157043457,50.802224830372325L138.0702099899292,89.40513498052792L138.11995713272094,130.34156409021347L138.1816435897827,121.0120851112955L138.37068273239137,126.17179082597931L138.49007587509155,94.82695832163206L139.44721090240478,124.37252120025911L139.59645233078,108.26523263812994L139.70589604492187,54.10012949000779L139.7377342163086,71.4533248392222L139.8969250732422,126.34936160353989L140.2252562156677,88.43144476592504L140.31480107269286,111.90131526374967L140.94360495758056,135.64922973710648L140.97345324325562,52.95148045681648L141.1326441001892,141.35991028100395L141.99028484191894,72.26600239884617L142.0718701560974,88.20333682550776L142.38030244140623,43.65991260081395L142.59918986968992,112.7384433996004L142.81807729797362,111.48525471606656L143.4568306114197,48.91492888698107L143.53642603988646,132.36456638933623L143.95629192504884,129.33895845254875L144.24482535324097,125.42232833115456L144.69453952407835,88.15295053392742L144.97312352371213,73.4282675647299L145.55218026580812,46.28291346451593L145.7113711227417,92.18377842471553L146.01184386520384,65.04716071434889L146.300377293396,76.65531930119991L146.54911300735475,86.99733313365876L146.59886015014646,97.98539663044524L146.72024317855835,85.11806637100685L146.90928232116698,119.84801184745902L147.33710774917603,129.72203948216276L147.52813677749634,61.481374674063005L148.10520363388062,107.16828059073244L148.27434391937254,90.7073709730643L148.53501894760132,94.34031830497194L148.5449683761597,118.58934936542937L148.62456380462646,127.31396182374147L148.74395694732667,49.557744248321484L148.86335009002687,115.55205597681424L149.0125915184021,53.253034420461816L149.0523892326355,61.25142798996497L149.21356997528076,44.701122426319984L149.57174940338135,81.79130286503816L149.72099083175658,77.0000507382515L149.8204851173401,87.28258357000134L149.84237386016846,53.31251542117084L149.96176700286864,61.88796333442647L149.97171643142698,59.34227457040954L150.0115141456604,79.74198531500724L150.2900981452942,99.6111242131567L150.5487832878113,113.423837463969L151.0183963157654,64.79706328540063L151.37657574386594,141.6297965994755L151.8959359146118,52.07310788578798L151.9357336288452,57.94118017403146L152.13472220001222,94.70722781964999L152.61428465652466,65.96623081217831L152.90281808471678,72.4158835824654L153.3127345413208,44.038703228506165L153.81219585494995,113.36909947901086L153.96143728332518,56.261794278933394L154.041032711792,46.44046079486574L154.1007292831421,53.15091342526861L154.59024116821288,95.80888987970668L154.62008945388794,57.88385851846547L154.64993773956297,100.18396830535296L154.77928031082152,115.74081480246318L155.047914881897,47.93301147308861L155.28869105300905,92.78939930170327L155.35833705291748,97.36821052717823L155.57722448120117,87.29638829178923L155.91550505218507,93.76274062647956L156.25577550888062,78.74873369647746L156.48461236572265,123.88118295775826L156.64380322265626,54.49612887266099L157.1631633934021,55.67201017123716L157.36215196456908,91.26792377096376L157.39200025024414,88.24299239755624L157.48154510726928,64.92579420196367L157.49149453582763,46.248307365498476L157.55119110717774,121.08141046278772L157.74222013549803,133.16428316337448L157.76211899261475,129.43647080172158L158.57001259155274,43.004886095542275L159.36795676193236,59.5506560914414L159.95696293258666,94.51165149820008L160.01665950393678,113.17509316178068L160.2454963607788,56.66476202866397L160.61362521743774,50.156712644966774L160.62357464599611,49.90767131495309L160.68327121734617,55.10933574601374L160.76485653152466,94.27652804343158L160.93399681701658,49.58772048504534L161.05338995971678,108.22147525325515L161.1130865310669,86.73896135814705L161.3120751022339,56.26872492819166L161.69214327316286,81.91836948283374L162.18961470108033,113.69087019368983L162.64927830047606,47.96065863448348L163.00745772857667,60.94009568171987L163.23828447113036,118.98660286556742L163.26813275680541,139.16186429819982L164.00638035583498,56.65212655926794L164.06607692718507,86.29380151303401L164.36455978393553,52.427174483065L164.45410464096068,113.84177918787934L164.49390235519408,51.52930179956563L164.55359892654417,45.71639182174508L165.13265566864015,101.93259468685028L165.453027268219,138.3653606108755L165.46297669677733,46.666447107959044L165.54257212524413,95.59155037664034L165.58236983947754,61.17347468735534L165.75151012496949,119.80138083624209L165.8112066963196,65.0013618525157L166.11963898162844,116.26375350527255L166.3803140098572,58.814592851849284L166.56935315246582,67.72233475131074L166.887734866333,119.78871000639069L166.89768429489135,61.53991272929474L166.90763372344972,108.57590959926831L167.1384604660034,79.35319475052809L167.89660692214966,101.15084102415487L168.515461378479,70.60046837280984L168.9333373779297,138.63808637391563L168.9731350921631,50.275825517661204L169.40295040588381,133.1918926069503L169.59198954849245,109.02945222967469L169.96011840515135,47.20781096539517L170.25064171905518,139.17141515720317L170.3202877189636,89.22969525974607L170.4197820045471,70.97929671832117L170.82770857543943,64.19067390784889L170.98888931808472,65.32266109445602L171.0485858894348,78.54149313947316L171.62764263153076,105.66280213001558L171.78683348846437,117.0264879576905L171.84653005981446,60.3553091850534L172.12511405944824,53.51448491295696L172.29425434494019,45.65848553998316L172.3141532020569,52.79695055199409L172.6245753730774,77.86938989160733L172.93300765838623,54.0400638631028L173.39267125778198,67.14289475550063L173.51206440048216,57.14617341265239L173.62150811462402,60.099931261432175L174.55874428482056,44.993614683928314L174.9189135986328,85.73752497287417L175.1576998840332,109.509496342721L175.24724474105835,133.8916830913938L175.30694131240847,99.57754120998213L175.75665548324585,113.40923123852538L175.7865037689209,59.17235579539738L175.97554291152954,60.41600658542818L176.16458205413818,108.77628551319776L177.27294839553835,49.157558187749004L177.35254382400512,69.88420698824135L177.4122403953552,143.89154090663595L178.03109485168457,51.33129267878424L178.41912256546019,63.31392320304137L178.62010102233887,83.59288506454148L179.20711730728152,92.57932519353965L179.33645987854004,109.28435396582988L179.42799462127684,48.47825083643647L179.46779233551027,111.1731397630753L179.93541547775268,85.19475612667686L180.6438147911072,57.8781631277825L180.86270221939088,96.5578054661546L181.02388296203614,99.37960281011154L181.22287153320312,86.09965375398224L181.4815566757202,143.8112620647429L181.81187770385742,90.48922525161485L181.90142256088257,64.64654089885683L182.45859056015016,53.9213281685993L182.98790015945437,95.96539054057666L183.24658530197144,67.85514862179056L183.2883729019165,72.10483415786348L183.99478232955934,112.24030416284442L184.03458004379272,57.876701562292666L184.34500221481323,57.66628327902981L184.83252421417237,105.38664168807433L185.34193495635986,133.94121837468083L185.44142924194335,49.900976402064174L185.45137867050173,48.715948532358055L185.69215484161376,66.15848796554808L185.7816996986389,129.73087488128516L185.9209916984558,118.37841717688138L186.3388676979065,55.9969208943556L186.57964386901858,62.223086157064245L187.3178914680481,64.47731990349787L187.97654363861082,104.7232135385998L188.28497592391966,101.41062250315515L188.62325649490356,78.57991816767374L188.84413380889893,72.67167640209664L189.2222120941162,104.14175092474086L189.27195923690797,53.113733085098076L189.3217063796997,100.47607395531561L189.68187569351196,52.45619834485676L189.76147112197876,73.87987244218039L189.90076312179565,62.06242710663932L190.01020683593748,111.3000272212302L190.18929654998777,147.3732303545275L190.2091954071045,88.06331885158124L190.43007272109986,82.29144586093344L190.4400221496582,55.080971946056096L190.44997157821655,84.12067050710425L190.47981986389158,107.18522532095979L190.66885900650027,109.61005204842188L191.01708900604248,101.1208364990667L191.17826974868774,46.3852607666237L191.31756174850463,62.91372771301408L191.52649974822998,116.66459491295177L191.62599403381347,56.0944497450743L191.70558946228027,60.28606869865416L191.80508374786376,128.0845793003498L192.2846462043762,140.89765954911456L192.36424163284303,68.04514270601476L192.4040393470764,138.0649829717131L192.67466380386352,59.72451637854874L192.81395580368041,79.43260490390018L192.8736523750305,69.3164500868952L193.01294437484742,115.77238933177105L193.10248923187254,122.15489495461854L193.17213523178103,135.96910277401238L193.18208466033934,52.59989380614479L193.22188237457274,96.25886346148143L193.46265854568483,77.14404794209229L193.56215283126832,73.07899113047763L193.6019505455017,60.916022283684015L193.76114140243533,75.93004335786827L193.9004334022522,56.23588213721678L194.2506532875061,68.61224897498155L194.3302487159729,46.61351014886259L194.43969243011475,115.98849357626213L194.92721442947388,114.56874771834273L194.93716385803222,75.8138913339726L194.97895145797727,62.66710975287711L195.24758602905274,108.37210136380145L195.62566431427,55.87059448875971L196.71413179855347,126.01876020446586L196.8036766555786,86.6756237104358L196.96286751251222,64.85526188026051L196.99271579818725,111.40823492947948L197.0822606552124,106.02191820032363L197.35288511199948,88.99034740923919L197.69116568298338,90.93394662708094L197.70111511154175,87.61937069140656L197.7906599685669,139.82412319528248L197.82050825424196,134.51369471814095L198.2005764251709,52.472963915443415L198.44931213912966,129.8565223661374L198.61845242462158,133.72108068091055L199.0482677383423,132.02597824206936L199.28705402374266,112.96527364889592L199.50594145202638,73.76319236881743L199.77656590881347,132.83502546160562L199.89595905151367,57.78588648337245L200.31383505096434,53.35736190807195L200.3436833366394,67.42473172921532L200.74365036468507,93.97071668095616L200.82324579315187,62.460915865352646L201.6211899635315,59.25969140550629L201.63113939208986,56.665082630126264L202.48878013381957,141.01690207681213L202.56837556228638,118.53402675427529L203.00814030456544,129.9415501171906L203.59714647521972,76.0871192154794L204.20406161727905,63.821642765846875L204.27370761718748,64.14818478464106L204.55428150253294,76.00548842550825L204.9224103591919,66.7159667611915L205.08359110183716,58.133060149210294L205.50146710128783,132.40884003685986L205.97108012924193,92.20634782471507L206.3690572715759,135.10674613191608L206.61779298553466,95.14896005795299L206.79887258529664,62.497813321879974L206.84861972808838,132.7890026502216L207.07745658493042,138.39852636067636L207.1272037277222,108.24899983173798L207.1769508705139,93.01496600405919L207.2963440132141,64.78955743940121L207.49732247009277,120.63836988763492L207.96494561233519,140.94565900995545L208.17388361206054,84.80418810997298L208.53405292587283,92.98052492050026L208.6932437828064,94.32061074449605L209.262351096344,126.52363678665725L209.63047995300295,59.82140402634286L209.70012595291138,97.2873765261354L209.73992366714478,61.27074894279515L209.98069983825684,116.66376040620435L210.2393849807739,93.26866548473079L211.03732915115359,142.92643385324033L211.06717743682862,134.12847791702083L211.11692457962036,78.83541867420703L211.60643646469117,62.13150729230742L211.80542503585815,140.88533525172605L211.95466646423338,117.94045672048765L211.98451474990844,77.75686820779933L212.00441360702516,56.77388910875365L212.19544263534547,131.52873244615313L212.25513920669556,97.10694390905117L212.4839760635376,126.00965135115499L212.73271177749635,99.50284106926922L212.75261063461303,130.9939762791493L212.8739936630249,99.89012763571206L213.27197080535888,82.47383037515571L213.33166737670896,49.1673553912583L213.47095937652588,128.4496147108917L213.58040309066772,96.3207866909767L213.6619884048462,147.69472054292697L214.11966211853027,52.3357182012202L214.18930811843873,91.22253037568582L214.22910583267213,66.35813781145998L214.28880240402222,101.56367669830554L214.86785914611815,115.27119966639596L215.1364937171936,69.17206627540872L215.35737103118896,136.80681317869536L216.04587148742675,152.351781509496L216.14536577301024,60.91606943095789L216.26475891571044,63.44885870084515L216.593090058136,85.56158077626196L216.67268548660277,89.76225672115145L216.75427080078126,69.69836186411733L216.8239168006897,137.48303709829705L217.2218939430237,76.91695838279051L217.35123651428222,76.28236550601225L217.400983657074,52.47476494130508L217.46068022842405,131.7848906571568L217.4905285140991,117.8414380159148L218.238725541687,142.6720542731432L218.24867497024536,124.23229813569128L218.26857382736205,110.21860548584407L218.67849028396606,63.603841219496644L218.7083385696411,78.93356986894075L219.01677085494995,60.66543452308754L219.22769874038696,122.30783599631164L219.27744588317873,95.10792307078025L219.30729416885376,70.5734058376109L219.3570413116455,141.50169981374594L219.76496788253783,71.6767934878911L219.90624976806643,67.5754427048546L220.05549119644164,114.4191918509132L220.14503605346678,70.95390319661708L220.1649349105835,104.24265552026834L220.35397405319213,140.18939787823925L220.55296262435914,150.34101982135064L220.64449736709594,64.54260944834718L220.78378936691286,103.88648143984953L221.19171593780518,135.05424292773918L221.2116147949219,135.0308390209922L221.42254268035887,134.2321241265236L221.65137953720094,126.46501858105998L222.05930610809327,143.97283577228083L222.18864867935181,124.33742948432084L222.1906385650635,132.574739506775L222.37967770767213,103.30788066551425L222.38962713623047,115.28387285361109L222.40952599334716,80.83788597819755L222.4592731361389,79.54974702054702L222.56871685028077,64.4836659265602L223.2870655921936,56.94758909512984L223.65519444885254,108.31238934145047L223.66514387741088,67.19734985681559L223.82632462005614,100.61017023164459L223.86612233428954,65.66679847585692L224.23425119094847,73.3442605521559L224.53472393341065,67.50458035223437L224.544673361969,142.0131935158244L224.57452164764405,81.26454994777305L224.5844710762024,112.72669429895306L224.92275164718626,106.14201645104185L224.97249878997803,127.13092667713984L225.06204364700318,100.66533254206752L225.1117907897949,112.1559152573521L225.3008299324036,70.15743486974816L225.62120153198242,76.73209392196289L225.8599878173828,132.9609676169195L225.86993724594117,111.41615095676154L226.22015713119507,69.26250417613801L226.59823541641236,136.40122168317416L226.98825301589966,65.37769139251213L227.04794958724975,138.2030796942296L227.06784844436646,79.19277615119988L227.0777978729248,122.84896883210581L227.2568875869751,60.35949586297268L227.38623015823364,135.4129723904015L227.4757750152588,113.54947551936645L227.51557272949216,63.8585779401933L228.1443766143799,137.6911781682322L228.78312992782594,132.960210903174L229.01196678466795,119.62306984648183L229.17115764160155,106.48307511545931L229.83975924072266,110.82426879537827L229.86960752639771,149.63032711916662L229.91935466918943,81.107304359976L230.5780068397522,65.27481604093707L230.74913701095582,75.24680392391535L231.49534415283205,92.55925931378238L231.875412323761,69.52630260287167L231.88536175231934,151.6729473989449L232.50421620864867,70.46980441801831L232.63355877990722,130.7659319875517L232.74300249404908,94.05089533489225L233.12307066497803,100.19488289925289L233.26236266479492,83.59936309997065L233.43150295028687,153.01799016944676L233.56084552154542,76.6621650853652L233.84937894973754,109.39772430056746L233.8593283782959,76.34651408683399L234.25929540634155,110.18205691914333L234.49808169174193,123.51643986031434L234.55777826309205,77.55571907857848L234.74880729141236,150.6471376411062L234.80850386276245,77.55783127644766L235.0174418624878,139.78343981266372L235.07713843383792,104.91954421643156L235.53680203323364,125.18186780498445L235.6661446044922,84.31632697891973L236.24520134658815,117.54697971698624L236.56358306045533,131.23143116661046L236.63322906036376,81.99704885346091L237.46102151641847,104.88822899712993L237.66001008758545,131.11935502454048L238.73852814331056,100.93265758488633L238.98726385726928,123.65441871464616L239.00716271438597,64.83893949404819L239.11660642852783,144.87631780268836L239.37728145675658,68.93813093194163L239.44692745666504,79.29945157304853L239.5563711708069,105.20359711201793L239.6061183135986,57.15713986855357L239.6757643135071,84.69105351160472L239.68571374206542,76.43070025904868L239.82500574188234,110.7167965846013L240.09563019866943,121.96817053383693L240.6925959121704,64.73305614640049L240.78214076919554,64.23395510525765L240.8119890548706,93.42019210820793L241.14231008300783,96.5840099209692L241.2219055114746,74.71423774778259L241.55023665390016,90.67205295021147L241.57013551101684,132.60000808820334L241.6198826538086,115.63061276452936L241.9303048248291,74.57965113980542L242.11934396743774,79.57097743796878L242.82774328079225,97.00370080873995L242.84764213790893,62.14286035585428L242.98693413772583,144.9148854513924L243.31725516586303,70.31796190780626L244.03560390777588,95.54653415955333L244.10524990768434,81.634373163976L244.22464305038451,115.16642899441149L244.71216504974365,70.17458704798052L244.73206390686036,99.56923386032697L244.83354807815553,78.06455131704722L244.84349750671387,67.52999273284802L244.89324464950562,96.1245408782379L245.53000807723998,80.49689803469089L245.73098653411867,66.69059209839695L245.76083481979373,118.41031230765157L245.77078424835204,64.57049234611138L245.99962110519408,78.7321755738958L247.20748173217774,99.32348341002914L247.24727944641114,113.25895401780569L247.25722887496946,114.28678344698861L247.42636916046143,134.9119335963028L247.57561058883667,73.28612796347943L247.67510487442016,92.97474466472431L247.784548588562,77.50892069453933L247.83429573135376,67.7805050578063L247.8442451599121,120.70069858368545L247.87608333129882,87.529588137784L247.91588104553225,115.03632137745157L247.9755776168823,77.01346885239369L248.2143639022827,140.74467018146575L248.3138581878662,65.81084282697157L248.5725433303833,67.26897599527244L248.59244218749998,103.68073073669939L248.67402750167847,67.25779266191148L249.01230807266236,78.37619479729983L249.2411449295044,89.29589003225358L249.5714659576416,70.22279985023565L249.74060624313356,73.24822155529137L249.97939252853394,61.676800124236564L250.16843167114257,71.57946265572264L250.2997641281128,79.53077495754344L250.62809527053832,84.7755980031008L250.83703327026367,70.58887014343888L251.74442115478516,150.31595750924546L252.22398361129763,128.38992390481394L252.82293921051027,104.66389755334929L253.02192778167725,74.45018472577007L253.071674924469,132.42205306036072L253.1313714958191,112.8204796561268L253.31046120986937,66.39941996445684" fill="none"></path></g></g></g></g></g></g><g transform="translate(51, 177)" clip-path="url(#clip_1)"><clipPath id="clip_1"><rect width="278" height="22"></rect></clipPath><g><g><line x1="0" y1="0" x2="0" y2="5" style="visibility: inherit;" fill="rgb(0, 0, 0)" stroke="rgb(204, 204, 204)" stroke-width="1px"></line><line x1="19.89885711669922" y1="0" x2="19.89885711669922" y2="5" style="visibility: inherit;" fill="rgb(0, 0, 0)" stroke="rgb(204, 204, 204)" stroke-width="1px"></line><line x1="39.79771423339844" y1="0" x2="39.79771423339844" y2="5" style="visibility: inherit;" fill="rgb(0, 0, 0)" stroke="rgb(204, 204, 204)" stroke-width="1px"></line><line x1="59.696571350097656" y1="0" x2="59.696571350097656" y2="5" style="visibility: inherit;" fill="rgb(0, 0, 0)" stroke="rgb(204, 204, 204)" stroke-width="1px"></line><line x1="79.59542846679688" y1="0" x2="79.59542846679688" y2="5" style="visibility: inherit;" fill="rgb(0, 0, 0)" stroke="rgb(204, 204, 204)" stroke-width="1px"></line><line x1="99.4942855834961" y1="0" x2="99.4942855834961" y2="5" style="visibility: inherit;" fill="rgb(0, 0, 0)" stroke="rgb(204, 204, 204)" stroke-width="1px"></line><line x1="119.39314270019531" y1="0" x2="119.39314270019531" y2="5" style="visibility: inherit;" fill="rgb(0, 0, 0)" stroke="rgb(204, 204, 204)" stroke-width="1px"></line><line x1="139.29199981689453" y1="0" x2="139.29199981689453" y2="5" style="visibility: inherit;" fill="rgb(0, 0, 0)" stroke="rgb(204, 204, 204)" stroke-width="1px"></line><line x1="159.19085693359375" y1="0" x2="159.19085693359375" y2="5" style="visibility: inherit;" fill="rgb(0, 0, 0)" stroke="rgb(204, 204, 204)" stroke-width="1px"></line><line x1="179.08971405029297" y1="0" x2="179.08971405029297" y2="5" style="visibility: inherit;" fill="rgb(0, 0, 0)" stroke="rgb(204, 204, 204)" stroke-width="1px"></line><line x1="198.9885711669922" y1="0" x2="198.9885711669922" y2="5" style="visibility: inherit;" fill="rgb(0, 0, 0)" stroke="rgb(204, 204, 204)" stroke-width="1px"></line><line x1="218.8874282836914" y1="0" x2="218.8874282836914" y2="5" style="visibility: inherit;" fill="rgb(0, 0, 0)" stroke="rgb(204, 204, 204)" stroke-width="1px"></line><line x1="238.78628540039062" y1="0" x2="238.78628540039062" y2="5" style="visibility: inherit;" fill="rgb(0, 0, 0)" stroke="rgb(204, 204, 204)" stroke-width="1px"></line><line x1="258.68514251708984" y1="0" x2="258.68514251708984" y2="5" style="visibility: inherit;" fill="rgb(0, 0, 0)" stroke="rgb(204, 204, 204)" stroke-width="1px"></line><line x1="278.58399963378906" y1="0" x2="278.58399963378906" y2="5" style="visibility: inherit;" fill="rgb(0, 0, 0)" stroke="rgb(204, 204, 204)" stroke-width="1px"></line></g><g transform="translate(0, 8)"><text style="text-anchor: middle; visibility: hidden; font-family: &quot;Helvetica Neue&quot;, sans-serif; font-size: 12px; font-weight: 200;" x="0" y="0" dx="0em" dy="0.95em" fill="rgb(50, 49, 63)" stroke="none" stroke-width="1px">-20k</text><text style="text-anchor: middle; visibility: inherit; font-family: &quot;Helvetica Neue&quot;, sans-serif; font-size: 12px; font-weight: 200;" x="19.89885711669922" y="0" dx="0em" dy="0.95em" fill="rgb(50, 49, 63)" stroke="none" stroke-width="1px">0</text><text style="text-anchor: middle; visibility: hidden; font-family: &quot;Helvetica Neue&quot;, sans-serif; font-size: 12px; font-weight: 200;" x="39.79771423339844" y="0" dx="0em" dy="0.95em" fill="rgb(50, 49, 63)" stroke="none" stroke-width="1px">20k</text><text style="text-anchor: middle; visibility: inherit; font-family: &quot;Helvetica Neue&quot;, sans-serif; font-size: 12px; font-weight: 200;" x="59.696571350097656" y="0" dx="0em" dy="0.95em" fill="rgb(50, 49, 63)" stroke="none" stroke-width="1px">40k</text><text style="text-anchor: middle; visibility: hidden; font-family: &quot;Helvetica Neue&quot;, sans-serif; font-size: 12px; font-weight: 200;" x="79.59542846679688" y="0" dx="0em" dy="0.95em" fill="rgb(50, 49, 63)" stroke="none" stroke-width="1px">60k</text><text style="text-anchor: middle; visibility: inherit; font-family: &quot;Helvetica Neue&quot;, sans-serif; font-size: 12px; font-weight: 200;" x="99.4942855834961" y="0" dx="0em" dy="0.95em" fill="rgb(50, 49, 63)" stroke="none" stroke-width="1px">80k</text><text style="text-anchor: middle; visibility: hidden; font-family: &quot;Helvetica Neue&quot;, sans-serif; font-size: 12px; font-weight: 200;" x="119.39314270019531" y="0" dx="0em" dy="0.95em" fill="rgb(50, 49, 63)" stroke="none" stroke-width="1px">100k</text><text style="text-anchor: middle; visibility: inherit; font-family: &quot;Helvetica Neue&quot;, sans-serif; font-size: 12px; font-weight: 200;" x="139.29199981689453" y="0" dx="0em" dy="0.95em" fill="rgb(50, 49, 63)" stroke="none" stroke-width="1px">120k</text><text style="text-anchor: middle; visibility: hidden; font-family: &quot;Helvetica Neue&quot;, sans-serif; font-size: 12px; font-weight: 200;" x="159.19085693359375" y="0" dx="0em" dy="0.95em" fill="rgb(50, 49, 63)" stroke="none" stroke-width="1px">140k</text><text style="text-anchor: middle; visibility: inherit; font-family: &quot;Helvetica Neue&quot;, sans-serif; font-size: 12px; font-weight: 200;" x="179.08971405029297" y="0" dx="0em" dy="0.95em" fill="rgb(50, 49, 63)" stroke="none" stroke-width="1px">160k</text><text style="text-anchor: middle; visibility: hidden; font-family: &quot;Helvetica Neue&quot;, sans-serif; font-size: 12px; font-weight: 200;" x="198.9885711669922" y="0" dx="0em" dy="0.95em" fill="rgb(50, 49, 63)" stroke="none" stroke-width="1px">180k</text><text style="text-anchor: middle; visibility: inherit; font-family: &quot;Helvetica Neue&quot;, sans-serif; font-size: 12px; font-weight: 200;" x="218.8874282836914" y="0" dx="0em" dy="0.95em" fill="rgb(50, 49, 63)" stroke="none" stroke-width="1px">200k</text><text style="text-anchor: middle; visibility: hidden; font-family: &quot;Helvetica Neue&quot;, sans-serif; font-size: 12px; font-weight: 200;" x="238.78628540039062" y="0" dx="0em" dy="0.95em" fill="rgb(50, 49, 63)" stroke="none" stroke-width="1px">220k</text><text style="text-anchor: middle; visibility: inherit; font-family: &quot;Helvetica Neue&quot;, sans-serif; font-size: 12px; font-weight: 200;" x="258.68514251708984" y="0" dx="0em" dy="0.95em" fill="rgb(50, 49, 63)" stroke="none" stroke-width="1px">240k</text><text style="text-anchor: middle; visibility: hidden; font-family: &quot;Helvetica Neue&quot;, sans-serif; font-size: 12px; font-weight: 200;" x="278.58399963378906" y="0" dx="0em" dy="0.95em" fill="rgb(50, 49, 63)" stroke="none" stroke-width="1px">260k</text></g><line x1="0" y1="0" x2="278.58399963378906" y2="0" fill="rgb(0, 0, 0)" stroke="rgb(204, 204, 204)" stroke-width="1px"></line></g></g></g></g></svg>