<svg viewBox="0 0 330 200" xmlns="http://www.w3.org/2000/svg"><g><g><g><g><g><line x1="51.41600036621094" y1="177.9749994277954" x2="46.41600036621094" y2="177.9749994277954" style="visibility: inherit;" fill="rgb(0, 0, 0)" stroke="rgb(204, 204, 204)" stroke-width="1px"></line><line x1="51.41600036621094" y1="166.1099994659424" x2="46.41600036621094" y2="166.1099994659424" style="visibility: inherit;" fill="rgb(0, 0, 0)" stroke="rgb(204, 204, 204)" stroke-width="1px"></line><line x1="51.41600036621094" y1="154.24499950408935" x2="46.41600036621094" y2="154.24499950408935" style="visibility: inherit;" fill="rgb(0, 0, 0)" stroke="rgb(204, 204, 204)" stroke-width="1px"></line><line x1="51.41600036621094" y1="142.3799995422363" x2="46.41600036621094" y2="142.3799995422363" style="visibility: inherit;" fill="rgb(0, 0, 0)" stroke="rgb(204, 204, 204)" stroke-width="1px"></line><line x1="51.41600036621094" y1="130.5149995803833" x2="46.41600036621094" y2="130.5149995803833" style="visibility: inherit;" fill="rgb(0, 0, 0)" stroke="rgb(204, 204, 204)" stroke-width="1px"></line><line x1="51.41600036621094" y1="118.64999961853027" x2="46.41600036621094" y2="118.64999961853027" style="visibility: inherit;" fill="rgb(0, 0, 0)" stroke="rgb(204, 204, 204)" stroke-width="1px"></line><line x1="51.41600036621094" y1="106.78499965667723" x2="46.41600036621094" y2="106.78499965667723" style="visibility: inherit;" fill="rgb(0, 0, 0)" stroke="rgb(204, 204, 204)" stroke-width="1px"></line><line x1="51.41600036621094" y1="94.91999969482423" x2="46.41600036621094" y2="94.91999969482423" style="visibility: inherit;" fill="rgb(0, 0, 0)" stroke="rgb(204, 204, 204)" stroke-width="1px"></line><line x1="51.41600036621094" y1="83.0549997329712" x2="46.41600036621094" y2="83.0549997329712" style="visibility: inherit;" fill="rgb(0, 0, 0)" stroke="rgb(204, 204, 204)" stroke-width="1px"></line><line x1="51.41600036621094" y1="71.18999977111817" x2="46.41600036621094" y2="71.18999977111817" style="visibility: inherit;" fill="rgb(0, 0, 0)" stroke="rgb(204, 204, 204)" stroke-width="1px"></line><line x1="51.41600036621094" y1="59.32499980926514" x2="46.41600036621094" y2="59.32499980926514" style="visibility: inherit;" fill="rgb(0, 0, 0)" stroke="rgb(204, 204, 204)" stroke-width="1px"></line><line x1="51.41600036621094" y1="47.45999984741209" x2="46.41600036621094" y2="47.45999984741209" style="visibility: inherit;" fill="rgb(0, 0, 0)" stroke="rgb(204, 204, 204)" stroke-width="1px"></line><line x1="51.41600036621094" y1="35.594999885559105" x2="46.41600036621094" y2="35.594999885559105" style="visibility: inherit;" fill="rgb(0, 0, 0)" stroke="rgb(204, 204, 204)" stroke-width="1px"></line><line x1="51.41600036621094" y1="23.72999992370606" x2="46.41600036621094" y2="23.72999992370606" style="visibility: inherit;" fill="rgb(0, 0, 0)" stroke="rgb(204, 204, 204)" stroke-width="1px"></line><line x1="51.41600036621094" y1="11.864999961853044" x2="46.41600036621094" y2="11.864999961853044" style="visibility: inherit;" fill="rgb(0, 0, 0)" stroke="rgb(204, 204, 204)" stroke-width="1px"></line><line x1="51.41600036621094" y1="0" x2="46.41600036621094" y2="0" style="visibility: inherit;" fill="rgb(0, 0, 0)" stroke="rgb(204, 204, 204)" stroke-width="1px"></line></g><g transform="translate(41.41600036621094, 0)"><text style="text-anchor: end; visibility: hidden; font-family: &quot;Helvetica Neue&quot;, sans-serif; font-size: 12px; font-weight: 200;" x="0" y="177.9749994277954" dx="0em" dy="0.3em" fill="rgb(50, 49, 63)" stroke="none" stroke-width="1px">-0.4</text><text style="text-anchor: end; visibility: inherit; font-family: &quot;Helvetica Neue&quot;, sans-serif; font-size: 12px; font-weight: 200;" x="0" y="166.1099994659424" dx="0em" dy="0.3em" fill="rgb(50, 49, 63)" stroke="none" stroke-width="1px">-0.2</text><text style="text-anchor: end; visibility: hidden; font-family: &quot;Helvetica Neue&quot;, sans-serif; font-size: 12px; font-weight: 200;" x="0" y="154.24499950408935" dx="0em" dy="0.3em" fill="rgb(50, 49, 63)" stroke="none" stroke-width="1px">0</text><text style="text-anchor: end; visibility: hidden; font-family: &quot;Helvetica Neue&quot;, sans-serif; font-size: 12px; font-weight: 200;" x="0" y="142.3799995422363" dx="0em" dy="0.3em" fill="rgb(50, 49, 63)" stroke="none" stroke-width="1px">0.2</text><text style="text-anchor: end; visibility: inherit; font-family: &quot;Helvetica Neue&quot;, sans-serif; font-size: 12px; font-weight: 200;" x="0" y="130.5149995803833" dx="0em" dy="0.3em" fill="rgb(50, 49, 63)" stroke="none" stroke-width="1px">0.4</text><text style="text-anchor: end; visibility: hidden; font-family: &quot;Helvetica Neue&quot;, sans-serif; font-size: 12px; font-weight: 200;" x="0" y="118.64999961853027" dx="0em" dy="0.3em" fill="rgb(50, 49, 63)" stroke="none" stroke-width="1px">0.6</text><text style="text-anchor: end; visibility: hidden; font-family: &quot;Helvetica Neue&quot;, sans-serif; font-size: 12px; font-weight: 200;" x="0" y="106.78499965667723" dx="0em" dy="0.3em" fill="rgb(50, 49, 63)" stroke="none" stroke-width="1px">0.8</text><text style="text-anchor: end; visibility: inherit; font-family: &quot;Helvetica Neue&quot;, sans-serif; font-size: 12px; font-weight: 200;" x="0" y="94.91999969482423" dx="0em" dy="0.3em" fill="rgb(50, 49, 63)" stroke="none" stroke-width="1px">1</text><text style="text-anchor: end; visibility: hidden; font-family: &quot;Helvetica Neue&quot;, sans-serif; font-size: 12px; font-weight: 200;" x="0" y="83.0549997329712" dx="0em" dy="0.3em" fill="rgb(50, 49, 63)" stroke="none" stroke-width="1px">1.2</text><text style="text-anchor: end; visibility: hidden; font-family: &quot;Helvetica Neue&quot;, sans-serif; font-size: 12px; font-weight: 200;" x="0" y="71.18999977111817" dx="0em" dy="0.3em" fill="rgb(50, 49, 63)" stroke="none" stroke-width="1px">1.4</text><text style="text-anchor: end; visibility: inherit; font-family: &quot;Helvetica Neue&quot;, sans-serif; font-size: 12px; font-weight: 200;" x="0" y="59.32499980926514" dx="0em" dy="0.3em" fill="rgb(50, 49, 63)" stroke="none" stroke-width="1px">1.6</text><text style="text-anchor: end; visibility: hidden; font-family: &quot;Helvetica Neue&quot;, sans-serif; font-size: 12px; font-weight: 200;" x="0" y="47.45999984741209" dx="0em" dy="0.3em" fill="rgb(50, 49, 63)" stroke="none" stroke-width="1px">1.8</text><text style="text-anchor: end; visibility: hidden; font-family: &quot;Helvetica Neue&quot;, sans-serif; font-size: 12px; font-weight: 200;" x="0" y="35.594999885559105" dx="0em" dy="0.3em" fill="rgb(50, 49, 63)" stroke="none" stroke-width="1px">2</text><text style="text-anchor: end; visibility: inherit; font-family: &quot;Helvetica Neue&quot;, sans-serif; font-size: 12px; font-weight: 200;" x="0" y="23.72999992370606" dx="0em" dy="0.3em" fill="rgb(50, 49, 63)" stroke="none" stroke-width="1px">2.2</text><text style="text-anchor: end; visibility: hidden; font-family: &quot;Helvetica Neue&quot;, sans-serif; font-size: 12px; font-weight: 200;" x="0" y="11.864999961853044" dx="0em" dy="0.3em" fill="rgb(50, 49, 63)" stroke="none" stroke-width="1px">2.4</text><text style="text-anchor: end; visibility: hidden; font-family: &quot;Helvetica Neue&quot;, sans-serif; font-size: 12px; font-weight: 200;" x="0" y="0" dx="0em" dy="0.3em" fill="rgb(50, 49, 63)" stroke="none" stroke-width="1px">2.6</text></g><line x1="51.41600036621094" y1="0" x2="51.41600036621094" y2="177.9749994277954" fill="rgb(0, 0, 0)" stroke="rgb(204, 204, 204)" stroke-width="1px"></line></g></g><g transform="translate(51, 0)" clip-path="url(#clip_0)"><clipPath id="clip_0"><rect width="278" height="177"></rect></clipPath><g><g><g><line x1="0" y1="0" x2="0" y2="177.9749994277954" fill="rgb(0, 0, 0)" stroke="rgb(60, 60, 60)" stroke-width="1px" opacity="0.25"></line><line x1="34.82299995422363" y1="0" x2="34.82299995422363" y2="177.9749994277954" fill="rgb(0, 0, 0)" stroke="rgb(60, 60, 60)" stroke-width="1px" opacity="0.25"></line><line x1="69.64599990844727" y1="0" x2="69.64599990844727" y2="177.9749994277954" fill="rgb(0, 0, 0)" stroke="rgb(60, 60, 60)" stroke-width="1px" opacity="0.25"></line><line x1="104.4689998626709" y1="0" x2="104.4689998626709" y2="177.9749994277954" fill="rgb(0, 0, 0)" stroke="rgb(60, 60, 60)" stroke-width="1px" opacity="0.25"></line><line x1="139.29199981689453" y1="0" x2="139.29199981689453" y2="177.9749994277954" fill="rgb(0, 0, 0)" stroke="rgb(60, 60, 60)" stroke-width="1px" opacity="0.25"></line><line x1="174.11499977111816" y1="0" x2="174.11499977111816" y2="177.9749994277954" fill="rgb(0, 0, 0)" stroke="rgb(60, 60, 60)" stroke-width="1px" opacity="0.25"></line><line x1="208.9379997253418" y1="0" x2="208.9379997253418" y2="177.9749994277954" fill="rgb(0, 0, 0)" stroke="rgb(60, 60, 60)" stroke-width="1px" opacity="0.25"></line><line x1="243.76099967956543" y1="0" x2="243.76099967956543" y2="177.9749994277954" fill="rgb(0, 0, 0)" stroke="rgb(60, 60, 60)" stroke-width="1px" opacity="0.25"></line><line x1="278.58399963378906" y1="0" x2="278.58399963378906" y2="177.9749994277954" fill="rgb(0, 0, 0)" stroke="rgb(60, 60, 60)" stroke-width="1px" opacity="0.25"></line></g><g><line x1="0" y1="177.9749994277954" x2="278.58399963378906" y2="177.9749994277954" fill="rgb(0, 0, 0)" stroke="rgb(60, 60, 60)" stroke-width="1px" opacity="0.25"></line><line x1="0" y1="166.1099994659424" x2="278.58399963378906" y2="166.1099994659424" fill="rgb(0, 0, 0)" stroke="rgb(60, 60, 60)" stroke-width="1px" opacity="0.25"></line><line x1="0" y1="154.24499950408935" x2="278.58399963378906" y2="154.24499950408935" fill="rgb(0, 0, 0)" stroke="rgb(60, 60, 60)" stroke-width="1px" opacity="0.25"></line><line x1="0" y1="142.3799995422363" x2="278.58399963378906" y2="142.3799995422363" fill="rgb(0, 0, 0)" stroke="rgb(60, 60, 60)" stroke-width="1px" opacity="0.25"></line><line x1="0" y1="130.5149995803833" x2="278.58399963378906" y2="130.5149995803833" fill="rgb(0, 0, 0)" stroke="rgb(60, 60, 60)" stroke-width="1px" opacity="0.25"></line><line x1="0" y1="118.64999961853027" x2="278.58399963378906" y2="118.64999961853027" fill="rgb(0, 0, 0)" stroke="rgb(60, 60, 60)" stroke-width="1px" opacity="0.25"></line><line x1="0" y1="106.78499965667723" x2="278.58399963378906" y2="106.78499965667723" fill="rgb(0, 0, 0)" stroke="rgb(60, 60, 60)" stroke-width="1px" opacity="0.25"></line><line x1="0" y1="94.91999969482423" x2="278.58399963378906" y2="94.91999969482423" fill="rgb(0, 0, 0)" stroke="rgb(60, 60, 60)" stroke-width="1px" opacity="0.25"></line><line x1="0" y1="83.0549997329712" x2="278.58399963378906" y2="83.0549997329712" fill="rgb(0, 0, 0)" stroke="rgb(60, 60, 60)" stroke-width="1px" opacity="0.25"></line><line x1="0" y1="71.18999977111817" x2="278.58399963378906" y2="71.18999977111817" fill="rgb(0, 0, 0)" stroke="rgb(60, 60, 60)" stroke-width="1px" opacity="0.25"></line><line x1="0" y1="59.32499980926514" x2="278.58399963378906" y2="59.32499980926514" fill="rgb(0, 0, 0)" stroke="rgb(60, 60, 60)" stroke-width="1px" opacity="0.25"></line><line x1="0" y1="47.45999984741209" x2="278.58399963378906" y2="47.45999984741209" fill="rgb(0, 0, 0)" stroke="rgb(60, 60, 60)" stroke-width="1px" opacity="0.25"></line><line x1="0" y1="35.594999885559105" x2="278.58399963378906" y2="35.594999885559105" fill="rgb(0, 0, 0)" stroke="rgb(60, 60, 60)" stroke-width="1px" opacity="0.25"></line><line x1="0" y1="23.72999992370606" x2="278.58399963378906" y2="23.72999992370606" fill="rgb(0, 0, 0)" stroke="rgb(60, 60, 60)" stroke-width="1px" opacity="0.25"></line><line x1="0" y1="11.864999961853044" x2="278.58399963378906" y2="11.864999961853044" fill="rgb(0, 0, 0)" stroke="rgb(60, 60, 60)" stroke-width="1px" opacity="0.25"></line><line x1="0" y1="0" x2="278.58399963378906" y2="0" fill="rgb(0, 0, 0)" stroke="rgb(60, 60, 60)" stroke-width="1px" opacity="0.25"></line></g></g></g><g><g><line x1="0" y1="154.24499950408935" x2="278.58399963378906" y2="154.24499950408935" fill="rgb(0, 0, 0)" stroke="rgb(153, 153, 153)" stroke-width="1.5px"></line></g></g><g><g><line x1="34.82299995422363" y1="0" x2="34.82299995422363" y2="177.9749994277954" fill="rgb(0, 0, 0)" stroke="rgb(153, 153, 153)" stroke-width="1.5px"></line></g></g><g><g><g><g><g><path style="fill: none;" stroke="rgb(238, 51, 119)" stroke-width="2px" d="M40.39467994689941,-6.03055028049414L41.09113994598388,2.347982328733764L41.78759994506836,5.160963132477804L42.48405994415283,8.276332406614642L43.18051994323731,14.65056368289865L43.876979942321775,15.66340027899227L44.57343994140625,19.66139480826027L45.269899940490724,29.47418992103087L45.9663599395752,32.60745158559973L46.66281993865967,32.158699118218095L47.35927993774414,40.34191471600238L48.05573993682861,44.63556508495512L48.75219993591308,43.51993564501572L49.44865993499756,51.35137836039654L50.14511993408203,49.38304568268481L50.8415799331665,53.82954515614664L51.538039932250975,53.74581866985214L52.23449993133545,61.45813908308375L52.930959930419924,56.23633333662768L53.6274199295044,59.18851410909666L54.323879928588866,61.54875378609003L55.02033992767334,64.46825442567898L55.716799926757815,62.945003800078425L56.41325992584229,65.08028733191244L57.10971992492676,65.08532266076132L57.806179924011225,69.1083311761788L58.5026399230957,70.83930326097708L59.199099922180174,76.10269997507383L59.89555992126465,79.21245400889323L60.592019920349124,70.1672848782042L61.28847991943359,79.39383900090955L61.984939918518066,82.57638606821398L62.68139991760254,82.89717611959655L63.377859916687015,79.83163679920845L64.07431991577148,84.61381307577594L64.77077991485596,81.62138503297146L65.46723991394043,75.44887101055835L66.1636999130249,85.26699848000314L66.86015991210937,90.20705918992859L67.55661991119385,89.30569996552684L68.25307991027832,86.4692963961263L68.9495399093628,87.39518163239299L69.64599990844727,90.24287225915701L70.34245990753173,88.07552386636686L71.03891990661621,88.52211934596913L71.73537990570068,91.14403346500852L72.43183990478516,88.06454090891985L73.12829990386963,91.80858371960106L73.8247599029541,94.1998486601618L74.52121990203858,97.98208429871981L75.21767990112305,94.02737450290611L75.91413990020753,94.46933776285105L76.610599899292,98.72776558218054L77.30705989837647,98.53715858339608L78.00351989746095,98.00522064468758L78.6999798965454,103.37875103317104L79.39643989562988,103.79662675089797L80.09289989471435,99.53015442796514L80.78935989379882,100.6012615185113L81.4858198928833,99.57311030918423L82.18227989196777,102.81312518860362L82.87873989105225,100.5832771908952L83.57519989013672,97.8309501762976L84.27165988922118,105.5805228292924L84.96811988830567,101.97935393865212L85.66457988739013,101.28225792091006L86.36103988647461,101.19071677397231L87.05749988555908,106.86520707045041L87.75395988464355,111.36193607080695L88.45041988372803,107.05571152391421L89.1468798828125,108.97667179952747L89.84333988189698,110.15290198793024L90.53979988098145,106.08941989526271L91.23625988006592,106.09979111683133L91.9327198791504,107.31900193877196L92.62917987823486,109.12131374233836L93.32563987731935,111.87368318948243L94.02209987640381,115.13149852214983L94.71855987548828,112.40204265010452L95.41501987457276,115.19473716058597L96.11147987365722,107.52931531935046L96.8079398727417,109.82083195127528L97.50439987182617,112.65158138385748L98.20085987091063,111.59341621998747L98.89731986999512,112.72405617324391L99.59377986907958,114.21117902156297L100.29023986816406,108.97170011949832L100.98669986724853,108.13457316232943L101.683159866333,116.83564970152774L102.37961986541748,113.75763167642923L103.07607986450195,109.38439906655479L103.77253986358643,111.96985655607749L104.4689998626709,110.8904751189679L105.16545986175537,113.31435300754343L105.86191986083985,113.52315296063084L106.55837985992432,110.42063367598614L107.2548398590088,115.43496902247783L107.95129985809326,112.83619832149729L108.64775985717773,119.67282766490152L109.34421985626221,115.71903370488268L110.04067985534668,117.4480185320875L110.73713985443116,115.63932416632154L111.43359985351563,115.47539309509031L112.1300598526001,115.88267128433407L112.82651985168458,119.04286700778059L113.52297985076903,118.31615307259607L114.21943984985352,119.60220929942355L114.91589984893798,118.46658705800137L115.61235984802245,116.74848617896842L116.30881984710693,122.39896672623038L117.0052798461914,114.58974098497694L117.70173984527588,117.66851572382102L118.39819984436035,122.85702252942755L119.09465984344482,116.37281316476059L119.7911198425293,119.1706773738214L120.48757984161377,121.56891893223244L121.18403984069825,120.43134832971774L121.88049983978271,117.43281707231134L122.57695983886718,116.67001425634628L123.27341983795166,122.0580742559533L123.96987983703613,120.87480380088053L124.66633983612061,120.37558489155302L125.36279983520508,119.23695701142188L126.05925983428955,117.42654766356904L126.75571983337403,124.63567111624073L127.4521798324585,121.31291984327802L128.14863983154297,120.03607501508205L128.84509983062745,122.33303715713836L129.54155982971193,116.42048613072994L130.23801982879638,121.55692466576099L130.93447982788086,125.75367147471468L131.63093982696532,122.81340894373804L132.3273998260498,123.53472687342864L133.02385982513428,122.050698064957L133.72031982421873,124.36289349119934L134.41677982330322,121.50371778852164L135.1132398223877,120.16172839334351L135.80969982147215,124.84754212487957L136.50615982055663,124.26166004343665L137.20261981964111,121.68084184566234L137.8990798187256,120.32732847806957L138.59553981781005,122.85146386583878L139.29199981689453,121.10958308054981L139.98845981597898,121.63940646402543L140.68491981506347,124.11386394800414L141.38137981414795,123.17382392144108L142.07783981323243,128.20294701038077L142.77429981231688,120.8318267033882L143.47075981140136,125.6451078045477L144.16721981048582,121.67913039962102L144.86367980957033,126.3463233153438L145.56013980865478,127.0315382200717L146.25659980773926,125.4347007187624L146.95305980682372,122.58954897269606L147.6495198059082,125.47725702683547L148.34597980499268,130.0341306257807L149.04243980407716,119.78882410279343L149.73889980316162,124.96384973477899L150.4353598022461,123.55614116521846L151.13181980133055,126.13271257229931L151.82827980041506,126.70068458308248L152.5247397994995,127.81056618099674L153.221199798584,123.99421831111502L153.91765979766845,128.0829460009149L154.61411979675293,123.10996647503546L155.3105797958374,128.4494023124229L156.0070397949219,129.84449957556527L156.70349979400635,129.22020543142207L157.3999597930908,128.34314591197074L158.09641979217528,123.74629201412827L158.79287979125976,126.95338807759367L159.48933979034425,128.82983307590473L160.1857997894287,131.8782968323805L160.88225978851318,123.44470269002753L161.57871978759763,128.94195931195318L162.27517978668214,128.3327693863338L162.9716397857666,122.2556189760871L163.66809978485108,128.83276445765733L164.36455978393553,130.31442941968552L165.06101978302001,129.87333956298895L165.7574797821045,126.12771260390585L166.45393978118898,134.17905845536947L167.15039978027343,126.80314503864753L167.8468597793579,126.91172815706497L168.54331977844237,128.00420357080893L169.23977977752688,129.42434664451062L169.93623977661133,132.46295190602106L170.6326997756958,132.1005249184058L171.32915977478027,129.20278333504683L172.02561977386475,131.21315959422833L172.72207977294923,132.33825502807815L173.4185397720337,134.17660443976476L174.11499977111816,132.89526529768753L174.81145977020262,131.2667006277712L175.5079197692871,131.14646270325414L176.20437976837158,131.80895851538799L176.90083976745606,132.6070616739782L177.59729976654052,134.32874456714308L178.293759765625,132.21298000668946L178.99021976470945,132.3013899853016L179.68667976379396,133.08816895805018L180.38313976287841,128.72198015089128L181.0795997619629,133.92384083247939L181.77605976104735,130.40046671174036L182.47251976013183,135.30092901568688L183.1689797592163,133.14580296430552L183.8654397583008,136.55620927015758L184.56189975738525,131.957419387382L185.25835975646973,131.61993389698264L185.95481975555418,135.06035415737765L186.6512797546387,137.42590320674924L187.34773975372315,134.2750620917786L188.04419975280763,131.1432449018128L188.74065975189208,135.9174809881204L189.43711975097656,137.82982215273006L190.13357975006105,134.5332694411727L190.83003974914553,137.28045504555524L191.52649974822998,135.00351222532325L192.22295974731443,137.474164924301L192.91941974639892,136.42493711553317L193.6158797454834,136.9003602063997L194.31233974456788,139.57871668434748L195.00879974365233,137.8160563274431L195.7052597427368,136.3975628189858L196.40171974182127,136.0632456253902L197.09817974090578,136.5776995869265L197.79463973999023,136.72485212207076L198.4910997390747,139.23175282387834L199.18755973815917,140.90553025607963L199.88401973724365,140.05575309599163L200.58047973632813,139.05076740500803L201.2769397354126,137.81692089057762L201.97339973449706,137.61280619783062L202.66985973358155,138.04906581631965L203.366319732666,139.25453910133766L204.0627797317505,140.7986179191798L204.75923973083496,138.3307472040306L205.45569972991944,138.42564405818572L206.1521597290039,139.43199996681602L206.84861972808838,142.53127139363232L207.54507972717286,140.913820514848L208.24153972625734,141.2121504889723L208.9379997253418,142.62786466563523L209.63445972442625,139.70786721164794L210.33091972351073,143.1828558532413L211.0273797225952,140.69069338924416L211.7238397216797,143.74889718315967L212.42029972076415,143.00106863604483L213.11675971984863,142.5274285961418L213.81321971893308,142.7930934655796L214.5096797180176,144.2231206705768L215.20613971710205,143.3454936158163L215.90259971618653,144.8765527139804L216.59905971527098,143.3072592394044L217.29551971435546,141.11904817792868L217.99197971343995,143.68243455520252L218.68843971252443,144.33503562790423L219.38489971160888,142.6736838597303L220.08135971069336,141.74400267857646L220.77781970977782,144.22885083237423L221.47427970886233,145.83961416503118L222.17073970794678,143.5497028977815L222.86719970703126,145.12870016533046L223.56365970611571,145.11306377195288L224.2601197052002,144.4549199478673L224.95657970428468,142.29959234189016L225.65303970336916,144.9265020092661L226.3494997024536,145.88524152865568L227.04595970153807,144.18091796705772L227.74241970062255,143.96491420519408L228.43887969970703,146.28043439825535L229.1353396987915,146.71203881279106L229.83179969787597,145.10183417532943L230.52825969696045,147.38018964575463L231.2247196960449,145.10445438507452L231.9211796951294,146.54298754761803L232.61763969421386,144.2186564130826L233.31409969329835,146.63725144962152L234.0105596923828,145.13904309853476L234.70701969146728,143.52656831983649L235.40347969055176,147.9127592105977L236.09993968963624,147.46898858937615L236.7963996887207,144.66187054913732L237.49285968780518,147.51036209021612L238.18931968688963,146.02208030297135L238.88577968597414,147.4882702036997L239.5822396850586,146.4064944217539L240.27869968414308,143.47142899370957L240.97515968322753,146.24982992410725L241.671619682312,145.92079027848L242.3680796813965,147.1049478389776L243.06453968048098,146.98664501538227" fill="none"></path></g><g><path style="fill: none;" stroke="rgb(204, 51, 17)" stroke-width="2px" d="M40.39467994689941,-2.133983681493561L41.09113994598388,5.562177003620604L41.78759994506836,8.09674372573258L42.48405994415283,10.219757179543052L43.18051994323731,16.036622813640946L43.876979942321775,16.690494210702923L44.57343994140625,19.2254569699154L45.269899940490724,27.612476088439138L45.9663599395752,30.50416926590205L46.66281993865967,29.16728945652912L47.35927993774414,37.0399553908145L48.05573993682861,41.40303247789822L48.75219993591308,38.58145201140107L49.44865993499756,46.050471275212175L50.14511993408203,43.40122352414912L50.8415799331665,46.242139087658614L51.538039932250975,46.93484333684012L52.23449993133545,52.91919023189131L52.930959930419924,49.024724043941404L53.6274199295044,50.755802210105884L54.323879928588866,51.7389643120284L55.02033992767334,55.381939869087304L55.716799926757815,51.67699157789556L56.41325992584229,53.97581721595142L57.10971992492676,53.53888221276428L57.806179924011225,57.203625666166985L58.5026399230957,58.289446242204775L59.199099922180174,61.72336371485184L59.89555992126465,65.25807262956913L60.592019920349124,55.25648804542162L61.28847991943359,64.31687631611452L61.984939918518066,66.57075174326675L62.68139991760254,66.36766957581742L63.377859916687015,63.12340436965903L64.07431991577148,67.08120820532018L64.77077991485596,62.07573065290602L65.46723991394043,56.924978205529314L66.1636999130249,66.60963410002385L66.86015991210937,71.76569061571045L67.55661991119385,70.1979423930354L68.25307991027832,68.9803546159976L68.9495399093628,66.90754593676307L69.64599990844727,68.54918336704053L70.34245990753173,66.55691166102348L71.03891990661621,66.42932406585166L71.73537990570068,68.26221205520186L72.43183990478516,65.1121541743183L73.12829990386963,68.41158169089962L73.8247599029541,69.12000719855165L74.52121990203858,73.95448158865472L75.21767990112305,69.82695463916797L75.91413990020753,70.92297317054292L76.610599899292,74.4198181096186L77.30705989837647,72.83750137931905L78.00351989746095,72.64091139148103L78.6999798965454,76.65725799710127L79.39643989562988,77.85277377787882L80.09289989471435,74.20189869508373L80.78935989379882,74.0406762347361L81.4858198928833,71.50429905730763L82.18227989196777,73.90716929933043L82.87873989105225,72.97694887123178L83.57519989013672,69.18357822526852L84.27165988922118,76.03273577802075L84.96811988830567,71.47802623894596L85.66457988739013,71.78180083919038L86.36103988647461,71.30313342654095L87.05749988555908,75.88763061324413L87.75395988464355,79.92836178890774L88.45041988372803,76.31924033184815L89.1468798828125,77.8984029095261L89.84333988189698,79.99995963900027L90.53979988098145,74.17516619080185L91.23625988006592,72.95762084631052L91.9327198791504,74.42698213788252L92.62917987823486,75.01412128351488L93.32563987731935,77.84226465053415L94.02209987640381,81.82326494493724L94.71855987548828,76.65049000593784L95.41501987457276,80.71463687516687L96.11147987365722,73.86604508970105L96.8079398727417,76.72739192434027L97.50439987182617,80.42958917210193L98.20085987091063,76.85931471134403L98.89731986999512,78.71869475387938L99.59377986907958,79.19801279890815L100.29023986816406,73.25785940101501L100.98669986724853,74.27133248530582L101.683159866333,81.36514902896589L102.37961986541748,77.04963882648528L103.07607986450195,71.96535696316822L103.77253986358643,76.85826804186419L104.4689998626709,74.13821451490955L105.16545986175537,76.40594416848727L105.86191986083985,75.63841012358976L106.55837985992432,73.23652290222705L107.2548398590088,77.77392703442943L107.95129985809326,76.04889550613824L108.64775985717773,82.29589986389554L109.34421985626221,79.9551367257361L110.04067985534668,79.29760198549478L110.73713985443116,79.14101174480444L111.43359985351563,76.31131251774761L112.1300598526001,77.63784585787072L112.82651985168458,81.31809133492048L113.52297985076903,80.45548716963637L114.21943984985352,81.1474347050723L114.91589984893798,79.20233384655795L115.61235984802245,79.14920829836602L116.30881984710693,84.31795921754097L117.0052798461914,77.32682236426943L117.70173984527588,79.49619337510839L118.39819984436035,83.12677862859537L119.09465984344482,78.34370419646072L119.7911198425293,79.2409403917629L120.48757984161377,81.51284257907773L121.18403984069825,80.41127245620507L121.88049983978271,76.04042314102455L122.57695983886718,76.55254154448173L123.27341983795166,82.05897066853797L123.96987983703613,80.93788864637598L124.66633983612061,80.42091171634694L125.36279983520508,77.76130335185188L126.05925983428955,77.24197848758432L126.75571983337403,83.7882030189306L127.4521798324585,81.91924029298204L128.14863983154297,79.35598916945013L128.84509983062745,80.08150084915108L129.54155982971193,76.88586334125783L130.23801982879638,80.81276213889997L130.93447982788086,84.36964205915261L131.63093982696532,80.69533006651885L132.3273998260498,81.60390282382204L133.02385982513428,80.02827629168402L133.72031982421873,82.11660821083886L134.41677982330322,77.51736571423417L135.1132398223877,78.59268423501838L135.80969982147215,82.70519006305152L136.50615982055663,83.44287281150092L137.20261981964111,79.60064108826688L137.8990798187256,79.05478173826769L138.59553981781005,81.49457536781844L139.29199981689453,78.85177029172914L139.98845981597898,78.82560355473366L140.68491981506347,80.85160913520166L141.38137981414795,81.13578697106377L142.07783981323243,85.84838094349651L142.77429981231688,79.0240464304346L143.47075981140136,80.41632900132718L144.16721981048582,78.35843536218009L144.86367980957033,82.52545286825679L145.56013980865478,83.75748185527968L146.25659980773926,82.54214300320528L146.95305980682372,80.63866847278697L147.6495198059082,82.33515704147986L148.34597980499268,85.4780862545549L149.04243980407716,77.77471910863038L149.73889980316162,80.66453110986603L150.4353598022461,79.52842089415932L151.13181980133055,81.88121365924563L151.82827980041506,84.19870961775233L152.5247397994995,84.9010743433489L153.221199798584,80.83214674054987L153.91765979766845,85.33235167367216L154.61411979675293,78.2899421600716L155.3105797958374,82.57382597124305L156.0070397949219,86.13927019379342L156.70349979400635,84.67396828250126L157.3999597930908,84.0432084790883L158.09641979217528,77.11698634983883L158.79287979125976,81.76856232043448L159.48933979034425,83.29346074325665L160.1857997894287,85.89147119444611L160.88225978851318,79.42857711229382L161.57871978759763,84.71949133278233L162.27517978668214,83.86428457476777L162.9716397857666,78.64506721364693L163.66809978485108,83.97132774535258L164.36455978393553,84.76715015456953L165.06101978302001,84.32162256072033L165.7574797821045,80.54441871496566L166.45393978118898,89.01452783158673L167.15039978027343,81.58459601517401L167.8468597793579,82.31806379733982L168.54331977844237,82.4614645881662L169.23977977752688,82.64045921339753L169.93623977661133,86.46076745428398L170.6326997756958,86.49615619804761L171.32915977478027,83.80099643169407L172.02561977386475,84.40708878142048L172.72207977294923,86.73784491070192L173.4185397720337,87.4904285550566L174.11499977111816,86.43340553389598L174.81145977020262,85.02443990014602L175.5079197692871,83.25515122587704L176.20437976837158,84.70810526614376L176.90083976745606,85.5482555422493L177.59729976654052,86.98384052682385L178.293759765625,84.97133556822733L178.99021976470945,84.52516441408987L179.68667976379396,85.48728704504978L180.38313976287841,81.72872523138163L181.0795997619629,86.16469436122553L181.77605976104735,82.98038634324222L182.47251976013183,87.694401805982L183.1689797592163,84.99973001391298L183.8654397583008,88.77253501901599L184.56189975738525,84.14810173398483L185.25835975646973,82.92103028280891L185.95481975555418,87.39912078712449L186.6512797546387,88.47844918355098L187.34773975372315,85.51584414883027L188.04419975280763,83.09672224150594L188.74065975189208,87.21310357545084L189.43711975097656,89.22902435403897L190.13357975006105,85.61372896146666L190.83003974914553,87.65370899390847L191.52649974822998,85.52163619142468L192.22295974731443,88.78767636601798L192.91941974639892,87.02507081781947L193.6158797454834,88.95766114721356L194.31233974456788,90.51514776573173L195.00879974365233,87.64027909294781L195.7052597427368,86.31014605846507L196.40171974182127,86.88162759444661L197.09817974090578,86.81276664360199L197.79463973999023,87.68168618622039L198.4910997390747,88.92820588786591L199.18755973815917,91.10396299695002L199.88401973724365,89.85718870002562L200.58047973632813,88.99650107142416L201.2769397354126,87.91333252954131L201.97339973449706,86.37721777026648L202.66985973358155,87.11228384501632L203.366319732666,89.29027573488166L204.0627797317505,90.84750068602987L204.75923973083496,87.2355998971759L205.45569972991944,87.3495242123814L206.1521597290039,88.68864587462666L206.84861972808838,92.19336205107423L207.54507972717286,89.42011932710794L208.24153972625734,90.4120437498784L208.9379997253418,92.4659699459297L209.63445972442625,88.92311398228841L210.33091972351073,92.0218496982054L211.0273797225952,89.90979798556872L211.7238397216797,93.63829634005639L212.42029972076415,91.5039109637895L213.11675971984863,92.11319282659291L213.81321971893308,92.20635348238794L214.5096797180176,92.98532309856158L215.20613971710205,92.7285213272696L215.90259971618653,93.45468363934991L216.59905971527098,91.51142859660739L217.29551971435546,89.4345322487287L217.99197971343995,92.42051761655942L218.68843971252443,93.1750319417789L219.38489971160888,90.55523945006347L220.08135971069336,89.52999840621577L220.77781970977782,92.84183037055116L221.47427970886233,95.08845690434656L222.17073970794678,92.70289914128726L222.86719970703126,94.97004888339642L223.56365970611571,94.26929659456606L224.2601197052002,92.70627252873236L224.95657970428468,90.75112930088459L225.65303970336916,93.80350745977306L226.3494997024536,95.34950193028645L227.04595970153807,92.99654650710532L227.74241970062255,93.22533572562996L228.43887969970703,96.37173733542521L229.1353396987915,96.78008694646756L229.83179969787597,94.30392155249307L230.52825969696045,97.23333372773043L231.2247196960449,94.35618430557325L231.9211796951294,96.39293946448264L232.61763969421386,92.92086098836863L233.31409969329835,96.36251179261153L234.0105596923828,94.03740980014844L234.70701969146728,92.32595668673058L235.40347969055176,98.29099677313376L236.09993968963624,97.27419273394433L236.7963996887207,93.82588355594974L237.49285968780518,97.42144781440923L238.18931968688963,95.58413976813414L238.88577968597414,97.47433644754999L239.5822396850586,96.23243128533407L240.27869968414308,92.42029838173595L240.97515968322753,96.15388510575558L241.671619682312,95.19077238204447L242.3680796813965,97.03275154447782L243.06453968048098,96.83538362662101" fill="none"></path></g></g></g></g></g></g><g transform="translate(51, 177)" clip-path="url(#clip_1)"><clipPath id="clip_1"><rect width="278" height="22"></rect></clipPath><g><g><line x1="0" y1="0" x2="0" y2="5" style="visibility: inherit;" fill="rgb(0, 0, 0)" stroke="rgb(204, 204, 204)" stroke-width="1px"></line><line x1="34.82299995422363" y1="0" x2="34.82299995422363" y2="5" style="visibility: inherit;" fill="rgb(0, 0, 0)" stroke="rgb(204, 204, 204)" stroke-width="1px"></line><line x1="69.64599990844727" y1="0" x2="69.64599990844727" y2="5" style="visibility: inherit;" fill="rgb(0, 0, 0)" stroke="rgb(204, 204, 204)" stroke-width="1px"></line><line x1="104.4689998626709" y1="0" x2="104.4689998626709" y2="5" style="visibility: inherit;" fill="rgb(0, 0, 0)" stroke="rgb(204, 204, 204)" stroke-width="1px"></line><line x1="139.29199981689453" y1="0" x2="139.29199981689453" y2="5" style="visibility: inherit;" fill="rgb(0, 0, 0)" stroke="rgb(204, 204, 204)" stroke-width="1px"></line><line x1="174.11499977111816" y1="0" x2="174.11499977111816" y2="5" style="visibility: inherit;" fill="rgb(0, 0, 0)" stroke="rgb(204, 204, 204)" stroke-width="1px"></line><line x1="208.9379997253418" y1="0" x2="208.9379997253418" y2="5" style="visibility: inherit;" fill="rgb(0, 0, 0)" stroke="rgb(204, 204, 204)" stroke-width="1px"></line><line x1="243.76099967956543" y1="0" x2="243.76099967956543" y2="5" style="visibility: inherit;" fill="rgb(0, 0, 0)" stroke="rgb(204, 204, 204)" stroke-width="1px"></line><line x1="278.58399963378906" y1="0" x2="278.58399963378906" y2="5" style="visibility: inherit;" fill="rgb(0, 0, 0)" stroke="rgb(204, 204, 204)" stroke-width="1px"></line></g><g transform="translate(0, 8)"><text style="text-anchor: middle; visibility: hidden; font-family: &quot;Helvetica Neue&quot;, sans-serif; font-size: 12px; font-weight: 200;" x="0" y="0" dx="0em" dy="0.95em" fill="rgb(50, 49, 63)" stroke="none" stroke-width="1px">-50</text><text style="text-anchor: middle; visibility: inherit; font-family: &quot;Helvetica Neue&quot;, sans-serif; font-size: 12px; font-weight: 200;" x="34.82299995422363" y="0" dx="0em" dy="0.95em" fill="rgb(50, 49, 63)" stroke="none" stroke-width="1px">0</text><text style="text-anchor: middle; visibility: inherit; font-family: &quot;Helvetica Neue&quot;, sans-serif; font-size: 12px; font-weight: 200;" x="69.64599990844727" y="0" dx="0em" dy="0.95em" fill="rgb(50, 49, 63)" stroke="none" stroke-width="1px">50</text><text style="text-anchor: middle; visibility: inherit; font-family: &quot;Helvetica Neue&quot;, sans-serif; font-size: 12px; font-weight: 200;" x="104.4689998626709" y="0" dx="0em" dy="0.95em" fill="rgb(50, 49, 63)" stroke="none" stroke-width="1px">100</text><text style="text-anchor: middle; visibility: inherit; font-family: &quot;Helvetica Neue&quot;, sans-serif; font-size: 12px; font-weight: 200;" x="139.29199981689453" y="0" dx="0em" dy="0.95em" fill="rgb(50, 49, 63)" stroke="none" stroke-width="1px">150</text><text style="text-anchor: middle; visibility: inherit; font-family: &quot;Helvetica Neue&quot;, sans-serif; font-size: 12px; font-weight: 200;" x="174.11499977111816" y="0" dx="0em" dy="0.95em" fill="rgb(50, 49, 63)" stroke="none" stroke-width="1px">200</text><text style="text-anchor: middle; visibility: inherit; font-family: &quot;Helvetica Neue&quot;, sans-serif; font-size: 12px; font-weight: 200;" x="208.9379997253418" y="0" dx="0em" dy="0.95em" fill="rgb(50, 49, 63)" stroke="none" stroke-width="1px">250</text><text style="text-anchor: middle; visibility: inherit; font-family: &quot;Helvetica Neue&quot;, sans-serif; font-size: 12px; font-weight: 200;" x="243.76099967956543" y="0" dx="0em" dy="0.95em" fill="rgb(50, 49, 63)" stroke="none" stroke-width="1px">300</text><text style="text-anchor: middle; visibility: hidden; font-family: &quot;Helvetica Neue&quot;, sans-serif; font-size: 12px; font-weight: 200;" x="278.58399963378906" y="0" dx="0em" dy="0.95em" fill="rgb(50, 49, 63)" stroke="none" stroke-width="1px">350</text></g><line x1="0" y1="0" x2="278.58399963378906" y2="0" fill="rgb(0, 0, 0)" stroke="rgb(204, 204, 204)" stroke-width="1px"></line></g></g></g></g></svg>