<svg viewBox="0 0 330 200" xmlns="http://www.w3.org/2000/svg"><g><g><g><g><g><line x1="51.41600036621094" y1="177.9749994277954" x2="46.41600036621094" y2="177.9749994277954" style="visibility: inherit;" fill="rgb(0, 0, 0)" stroke="rgb(204, 204, 204)" stroke-width="1px"></line><line x1="51.41600036621094" y1="160.17749948501586" x2="46.41600036621094" y2="160.17749948501586" style="visibility: inherit;" fill="rgb(0, 0, 0)" stroke="rgb(204, 204, 204)" stroke-width="1px"></line><line x1="51.41600036621094" y1="142.37999954223633" x2="46.41600036621094" y2="142.37999954223633" style="visibility: inherit;" fill="rgb(0, 0, 0)" stroke="rgb(204, 204, 204)" stroke-width="1px"></line><line x1="51.41600036621094" y1="124.58249959945678" x2="46.41600036621094" y2="124.58249959945678" style="visibility: inherit;" fill="rgb(0, 0, 0)" stroke="rgb(204, 204, 204)" stroke-width="1px"></line><line x1="51.41600036621094" y1="106.78499965667724" x2="46.41600036621094" y2="106.78499965667724" style="visibility: inherit;" fill="rgb(0, 0, 0)" stroke="rgb(204, 204, 204)" stroke-width="1px"></line><line x1="51.41600036621094" y1="88.9874997138977" x2="46.41600036621094" y2="88.9874997138977" style="visibility: inherit;" fill="rgb(0, 0, 0)" stroke="rgb(204, 204, 204)" stroke-width="1px"></line><line x1="51.41600036621094" y1="71.18999977111817" x2="46.41600036621094" y2="71.18999977111817" style="visibility: inherit;" fill="rgb(0, 0, 0)" stroke="rgb(204, 204, 204)" stroke-width="1px"></line><line x1="51.41600036621094" y1="53.39249982833863" x2="46.41600036621094" y2="53.39249982833863" style="visibility: inherit;" fill="rgb(0, 0, 0)" stroke="rgb(204, 204, 204)" stroke-width="1px"></line><line x1="51.41600036621094" y1="35.594999885559105" x2="46.41600036621094" y2="35.594999885559105" style="visibility: inherit;" fill="rgb(0, 0, 0)" stroke="rgb(204, 204, 204)" stroke-width="1px"></line><line x1="51.41600036621094" y1="17.797499942779524" x2="46.41600036621094" y2="17.797499942779524" style="visibility: inherit;" fill="rgb(0, 0, 0)" stroke="rgb(204, 204, 204)" stroke-width="1px"></line><line x1="51.41600036621094" y1="0" x2="46.41600036621094" y2="0" style="visibility: inherit;" fill="rgb(0, 0, 0)" stroke="rgb(204, 204, 204)" stroke-width="1px"></line></g><g transform="translate(41.41600036621094, 0)"><text style="text-anchor: end; visibility: hidden; font-family: &quot;Helvetica Neue&quot;, sans-serif; font-size: 12px; font-weight: 200;" x="0" y="177.9749994277954" dx="0em" dy="0.3em" fill="rgb(50, 49, 63)" stroke="none" stroke-width="1px">-0.1</text><text style="text-anchor: end; visibility: inherit; font-family: &quot;Helvetica Neue&quot;, sans-serif; font-size: 12px; font-weight: 200;" x="0" y="160.17749948501586" dx="0em" dy="0.3em" fill="rgb(50, 49, 63)" stroke="none" stroke-width="1px">0</text><text style="text-anchor: end; visibility: hidden; font-family: &quot;Helvetica Neue&quot;, sans-serif; font-size: 12px; font-weight: 200;" x="0" y="142.37999954223633" dx="0em" dy="0.3em" fill="rgb(50, 49, 63)" stroke="none" stroke-width="1px">0.1</text><text style="text-anchor: end; visibility: inherit; font-family: &quot;Helvetica Neue&quot;, sans-serif; font-size: 12px; font-weight: 200;" x="0" y="124.58249959945678" dx="0em" dy="0.3em" fill="rgb(50, 49, 63)" stroke="none" stroke-width="1px">0.2</text><text style="text-anchor: end; visibility: hidden; font-family: &quot;Helvetica Neue&quot;, sans-serif; font-size: 12px; font-weight: 200;" x="0" y="106.78499965667724" dx="0em" dy="0.3em" fill="rgb(50, 49, 63)" stroke="none" stroke-width="1px">0.3</text><text style="text-anchor: end; visibility: inherit; font-family: &quot;Helvetica Neue&quot;, sans-serif; font-size: 12px; font-weight: 200;" x="0" y="88.9874997138977" dx="0em" dy="0.3em" fill="rgb(50, 49, 63)" stroke="none" stroke-width="1px">0.4</text><text style="text-anchor: end; visibility: hidden; font-family: &quot;Helvetica Neue&quot;, sans-serif; font-size: 12px; font-weight: 200;" x="0" y="71.18999977111817" dx="0em" dy="0.3em" fill="rgb(50, 49, 63)" stroke="none" stroke-width="1px">0.5</text><text style="text-anchor: end; visibility: inherit; font-family: &quot;Helvetica Neue&quot;, sans-serif; font-size: 12px; font-weight: 200;" x="0" y="53.39249982833863" dx="0em" dy="0.3em" fill="rgb(50, 49, 63)" stroke="none" stroke-width="1px">0.6</text><text style="text-anchor: end; visibility: hidden; font-family: &quot;Helvetica Neue&quot;, sans-serif; font-size: 12px; font-weight: 200;" x="0" y="35.594999885559105" dx="0em" dy="0.3em" fill="rgb(50, 49, 63)" stroke="none" stroke-width="1px">0.7</text><text style="text-anchor: end; visibility: inherit; font-family: &quot;Helvetica Neue&quot;, sans-serif; font-size: 12px; font-weight: 200;" x="0" y="17.797499942779524" dx="0em" dy="0.3em" fill="rgb(50, 49, 63)" stroke="none" stroke-width="1px">0.8</text><text style="text-anchor: end; visibility: hidden; font-family: &quot;Helvetica Neue&quot;, sans-serif; font-size: 12px; font-weight: 200;" x="0" y="0" dx="0em" dy="0.3em" fill="rgb(50, 49, 63)" stroke="none" stroke-width="1px">0.9</text></g><line x1="51.41600036621094" y1="0" x2="51.41600036621094" y2="177.9749994277954" fill="rgb(0, 0, 0)" stroke="rgb(204, 204, 204)" stroke-width="1px"></line></g></g><g transform="translate(51, 0)" clip-path="url(#clip_0)"><clipPath id="clip_0"><rect width="278" height="177"></rect></clipPath><g><g><g><line x1="0" y1="0" x2="0" y2="177.9749994277954" fill="rgb(0, 0, 0)" stroke="rgb(60, 60, 60)" stroke-width="1px" opacity="0.25"></line><line x1="34.82299995422363" y1="0" x2="34.82299995422363" y2="177.9749994277954" fill="rgb(0, 0, 0)" stroke="rgb(60, 60, 60)" stroke-width="1px" opacity="0.25"></line><line x1="69.64599990844727" y1="0" x2="69.64599990844727" y2="177.9749994277954" fill="rgb(0, 0, 0)" stroke="rgb(60, 60, 60)" stroke-width="1px" opacity="0.25"></line><line x1="104.4689998626709" y1="0" x2="104.4689998626709" y2="177.9749994277954" fill="rgb(0, 0, 0)" stroke="rgb(60, 60, 60)" stroke-width="1px" opacity="0.25"></line><line x1="139.29199981689453" y1="0" x2="139.29199981689453" y2="177.9749994277954" fill="rgb(0, 0, 0)" stroke="rgb(60, 60, 60)" stroke-width="1px" opacity="0.25"></line><line x1="174.11499977111816" y1="0" x2="174.11499977111816" y2="177.9749994277954" fill="rgb(0, 0, 0)" stroke="rgb(60, 60, 60)" stroke-width="1px" opacity="0.25"></line><line x1="208.9379997253418" y1="0" x2="208.9379997253418" y2="177.9749994277954" fill="rgb(0, 0, 0)" stroke="rgb(60, 60, 60)" stroke-width="1px" opacity="0.25"></line><line x1="243.76099967956543" y1="0" x2="243.76099967956543" y2="177.9749994277954" fill="rgb(0, 0, 0)" stroke="rgb(60, 60, 60)" stroke-width="1px" opacity="0.25"></line><line x1="278.58399963378906" y1="0" x2="278.58399963378906" y2="177.9749994277954" fill="rgb(0, 0, 0)" stroke="rgb(60, 60, 60)" stroke-width="1px" opacity="0.25"></line></g><g><line x1="0" y1="177.9749994277954" x2="278.58399963378906" y2="177.9749994277954" fill="rgb(0, 0, 0)" stroke="rgb(60, 60, 60)" stroke-width="1px" opacity="0.25"></line><line x1="0" y1="160.17749948501586" x2="278.58399963378906" y2="160.17749948501586" fill="rgb(0, 0, 0)" stroke="rgb(60, 60, 60)" stroke-width="1px" opacity="0.25"></line><line x1="0" y1="142.37999954223633" x2="278.58399963378906" y2="142.37999954223633" fill="rgb(0, 0, 0)" stroke="rgb(60, 60, 60)" stroke-width="1px" opacity="0.25"></line><line x1="0" y1="124.58249959945678" x2="278.58399963378906" y2="124.58249959945678" fill="rgb(0, 0, 0)" stroke="rgb(60, 60, 60)" stroke-width="1px" opacity="0.25"></line><line x1="0" y1="106.78499965667724" x2="278.58399963378906" y2="106.78499965667724" fill="rgb(0, 0, 0)" stroke="rgb(60, 60, 60)" stroke-width="1px" opacity="0.25"></line><line x1="0" y1="88.9874997138977" x2="278.58399963378906" y2="88.9874997138977" fill="rgb(0, 0, 0)" stroke="rgb(60, 60, 60)" stroke-width="1px" opacity="0.25"></line><line x1="0" y1="71.18999977111817" x2="278.58399963378906" y2="71.18999977111817" fill="rgb(0, 0, 0)" stroke="rgb(60, 60, 60)" stroke-width="1px" opacity="0.25"></line><line x1="0" y1="53.39249982833863" x2="278.58399963378906" y2="53.39249982833863" fill="rgb(0, 0, 0)" stroke="rgb(60, 60, 60)" stroke-width="1px" opacity="0.25"></line><line x1="0" y1="35.594999885559105" x2="278.58399963378906" y2="35.594999885559105" fill="rgb(0, 0, 0)" stroke="rgb(60, 60, 60)" stroke-width="1px" opacity="0.25"></line><line x1="0" y1="17.797499942779524" x2="278.58399963378906" y2="17.797499942779524" fill="rgb(0, 0, 0)" stroke="rgb(60, 60, 60)" stroke-width="1px" opacity="0.25"></line><line x1="0" y1="0" x2="278.58399963378906" y2="0" fill="rgb(0, 0, 0)" stroke="rgb(60, 60, 60)" stroke-width="1px" opacity="0.25"></line></g></g></g><g><g><line x1="0" y1="160.17749948501586" x2="278.58399963378906" y2="160.17749948501586" fill="rgb(0, 0, 0)" stroke="rgb(153, 153, 153)" stroke-width="1.5px"></line></g></g><g><g><line x1="34.82299995422363" y1="0" x2="34.82299995422363" y2="177.9749994277954" fill="rgb(0, 0, 0)" stroke="rgb(153, 153, 153)" stroke-width="1.5px"></line></g></g><g><g><g><g><g><path style="fill: none;" stroke="rgb(51, 187, 238)" stroke-width="2px" d="M34.82299995422363,158.25536944133745L35.51945995330811,158.35503553691456L36.21591995239258,148.55929189874607L36.91237995147705,143.4798853582172L37.608839950561524,137.752649196437L38.305299949646,134.71283725938605L39.001759948730474,129.3771460942254L39.69821994781494,126.67548442413533L40.39467994689941,124.05925273027862L41.09113994598388,120.85214252263106L41.78759994506836,119.36783083051623L42.48405994415283,115.42390862563347L43.18051994323731,113.88264184800697L43.876979942321775,112.88598089223576L44.57343994140625,108.73916481432867L45.269899940490724,106.72448872377062L45.9663599395752,103.84841072341204L46.66281993865967,101.88356635462547L47.35927993774414,100.4633278076942L48.05573993682861,99.05376635027075L48.75219993591308,96.63330781773233L49.44865993499756,93.36568349473716L50.14511993408203,91.66424446228838L50.8415799331665,91.06624788882566L51.538039932250975,87.07960936980915L52.23449993133545,86.45313525359059L52.930959930419924,85.54190162201859L53.6274199295044,83.72299869277883L54.323879928588866,81.71544066189266L55.02033992767334,81.51966750057436L55.716799926757815,78.91055386638952L56.41325992584229,77.91389291061832L57.10971992492676,79.58685970437956L57.806179924011225,76.66450901208545L58.5026399230957,78.82156751235438L59.199099922180174,73.93081342143775L59.89555992126465,74.21557293679119L60.592019920349124,71.87342366878009L61.28847991943359,69.94416959835293L61.984939918518066,71.19355880095411L62.68139991760254,71.27186806548143L63.377859916687015,68.9439602208824L64.07431991577148,69.04362366442537L64.77077991485596,67.19268416259384L65.46723991394043,67.55931197231054L66.1636999130249,66.33484658669757L66.86015991210937,64.70103442519998L67.55661991119385,65.65853544463921L68.25307991027832,63.81827833638381L68.9495399093628,62.08480273134326L69.64599990844727,65.3844530187936L70.34245990753173,63.60826905572175L71.03891990661621,62.501256958763136L71.73537990570068,61.57222817801143L72.43183990478516,60.87457346507405L73.12829990386963,60.09148081980085L73.8247599029541,59.93129795684196L74.52121990203858,57.84899499533272L75.21767990112305,60.21606277626371L75.91413990020753,60.53285356014062L76.610599899292,59.18737055196904L77.30705989837647,58.980914997074606L78.00351989746095,58.500377016334554L78.6999798965454,56.52485555804016L79.39643989562988,56.389601816137784L80.09289989471435,57.28302969039346L80.78935989379882,55.9909374338293L81.4858198928833,54.990717448222156L82.18227989196777,55.83431890477466L82.87873989105225,55.108181345013136L83.57519989013672,57.79203990982104L84.27165988922118,56.46079302099322L84.96811988830567,55.12597119012453L85.66457988739013,55.44632630790569L86.36103988647461,55.03342580625345L87.05749988555908,53.23944138993359L87.75395988464355,54.89460773044682L88.45041988372803,58.95956081805896L89.1468798828125,53.378259465740214L89.84333988189698,53.563360841619L90.53979988098145,53.346222893148436L91.23625988006592,54.41763408361102L91.9327198791504,52.33888484786941L92.62917987823486,50.801182404147156L93.32563987731935,52.755349683425905L94.02209987640381,53.59895113997841L94.71855987548828,53.499287696435445L95.41501987457276,50.96491899287368L96.11147987365722,49.690616581420926L96.8079398727417,50.03233648635434L97.50439987182617,49.455688787838966L98.20085987091063,52.58093070112325L98.89731986999512,51.8263209026742L99.59377986907958,51.00763795904159L100.29023986816406,51.41342040102195L100.98669986724853,51.05034631707288L101.683159866333,49.9433448282509L102.37961986541748,49.217207268489375L103.07607986450195,51.698174612307085L103.77253986358643,48.41276044420053L104.4689998626709,49.42721654915144L105.16545986175537,49.55536283951855L105.86191986083985,51.98293943172884L106.55837985992432,51.09306528324079L107.2548398590088,51.10018334291267L107.95129985809326,48.64057017811061L108.64775985717773,49.526879992694404L109.34421985626221,52.73754923017789L110.04067985534668,47.36982149242547L110.73713985443116,52.29973021560575L111.43359985351563,48.85769751844455L112.1300598526001,48.665488691030504L112.82651985168458,48.13511368445066L113.52297985076903,49.59451747178221L114.21943984985352,48.003413668315915L114.91589984893798,48.939560508739504L115.61235984802245,48.24545952156976L116.30881984710693,48.87549797169257L117.0052798461914,48.750916015229706L117.70173984527588,47.09218534081222L118.39819984436035,46.91776635850957L119.09465984344482,48.56581463935092L119.7911198425293,46.48706540360931L120.48757984161377,48.97159708133128L121.18403984069825,46.66148438591196L121.88049983978271,47.90375022477295L122.57695983886718,47.2345677505231L123.27341983795166,48.13511368445066L123.96987983703613,46.127555653564485L124.66633983612061,46.202311192324174L125.36279983520508,47.28084044245864L126.05925983428955,48.07460487317135L126.75571983337403,45.94602921972657L127.4521798324585,46.91776635850957L128.14863983154297,44.77850831148865L128.84509983062745,47.5157682360406L129.54155982971193,46.796748735950956L130.23801982879638,44.77850831148865L130.93447982788086,44.29441660498097L131.63093982696532,44.596971269514114L132.3273998260498,46.3411292681308L133.02385982513428,45.28395419701198L133.72031982421873,45.99941997133399L134.41677982330322,44.57206336473084L135.1132398223877,45.75737411808015L135.80969982147215,47.216767297275084L136.50615982055663,45.07750925025417L137.20261981964111,43.62878785649875L137.8990798187256,45.33379122285177L138.59553981781005,43.034350312871965L139.29199981689453,43.90643461624862L139.98845981597898,43.33335125163748L140.68491981506347,42.78875073385049L141.38137981414795,44.055935085631376L142.07783981323243,43.817442958145165L142.77429981231688,43.151814209662945L143.47075981140136,41.64614833853247L144.16721981048582,42.760278495162964L144.86367980957033,42.916886416080985L145.56013980865478,44.12356195658256L146.25659980773926,44.21610734045365L146.95305980682372,42.094649746680744L147.6495198059082,44.70376338086558L148.34597980499268,42.23703215639162L149.04243980407716,42.49686785475686L149.73889980316162,42.58585951286031L150.4353598022461,44.362043475932154L151.13181980133055,43.60031561781122L151.82827980041506,40.12624634805823L152.5247397994995,40.35760980773594L153.221199798584,40.492874157774935L153.91765979766845,42.35093171927835L154.61411979675293,42.04481272084095L155.3105797958374,41.076629307825584L156.0070397949219,41.12646633366538L156.70349979400635,40.6779649255171L157.3999597930908,41.788530748243346L158.09641979217528,42.42924098380567L158.79287979125976,40.51067461102295L159.48933979034425,40.16895470608952L160.1857997894287,39.314681464097504L160.88225978851318,40.332691294816044L161.57871978759763,38.296661025242344L162.27517978668214,40.87730242073965L162.9716397857666,40.42880101259138L163.66809978485108,39.70266345282985L164.36455978393553,39.71689957217362L165.06101978302001,37.97630590746118L165.7574797821045,39.99810005769112L166.45393978118898,38.022578599396724L167.15039978027343,37.38543269773865L167.8468597793579,38.07596935100415L168.54331977844237,37.563405405808936L169.23977977752688,38.78431706565428L169.93623977661133,36.33181135238746L170.6326997756958,38.36785223009778L171.32915977478027,36.92269517024661L172.02561977386475,37.95850545421317L172.72207977294923,37.65951512358427L173.4185397720337,37.31779521865084L174.11499977111816,36.545384966953776L174.81145977020262,35.21769180389359L175.5079197692871,37.38543269773865L176.20437976837158,37.03304100736571L176.90083976745606,37.794768865486645L177.59729976654052,35.57720155393841L178.293759765625,36.075529379789856L178.99021976470945,35.605673792625936L179.68667976379396,35.88687427814344L180.38313976287841,36.37096598465112L181.0795997619629,35.481091836163074L181.77605976104735,33.651517121483806L182.47251976013183,33.918470879520925L183.1689797592163,33.67287130049945L183.8654397583008,33.61591621498778L184.56189975738525,35.04327282159093L185.25835975646973,34.4523996118684L185.95481975555418,33.87219818758538L186.6512797546387,33.847290282802106L187.34773975372315,33.05351524395277L188.04419975280763,32.42704112773421L188.74065975189208,32.007022566410086L189.43711975097656,32.64417907620478L190.13357975006105,33.292007371438984L190.83003974914553,32.73672446007586L191.52649974822998,32.70112355357983L192.22295974731443,32.03194107932998L192.91941974639892,31.416149356687555L193.6158797454834,31.622594303445368L194.31233974456788,31.35919427117588L195.00879974365233,31.302239185664206L195.7052597427368,29.90691915165283L196.40171974182127,30.391010858160513L197.09817974090578,30.757638667877217L197.79463973999023,29.187899651563185L198.4910997390747,30.14540067100242L199.18755973815917,29.291127429010402L199.88401973724365,28.440407912786014L200.58047973632813,28.54363569023323L201.2769397354126,28.411925065961867L201.97339973449706,27.885125001422892L202.66985973358155,27.95631620627833L203.366319732666,27.2479684916282L204.0627797317505,28.760763030567176L204.75923973083496,28.14497130792475L205.45569972991944,27.219496252940672L206.1521597290039,26.870668896471983L206.84861972808838,26.35454061737252L207.54507972717286,25.852648457616823L208.24153972625734,25.824176218929296L208.9379997253418,25.8846850302086L209.63445972442625,25.119392838183416L210.33091972351073,24.770565481714726L211.0273797225952,24.055099707392714L211.7238397216797,24.418173791341786L212.42029972076415,24.27579138163091L213.11675971984863,23.26133527668L213.81321971893308,23.33608020730307L214.5096797180176,24.00526268155292L215.20613971710205,22.663333399148968L215.90259971618653,22.98368851693013L216.59905971527098,21.979914805555353L217.29551971435546,21.506494884487182L217.99197971343995,21.62040505551053L218.68843971252443,21.506494884487182L219.38489971160888,21.14698513444236L220.08135971069336,21.22885873287393L220.77781970977782,20.90493928118852L221.47427970886233,20.08625633755591L222.17073970794678,19.869128997221964L222.86719970703126,19.93675586817315L223.56365970611571,20.04710170529225L224.2601197052002,19.413509529401807L224.95657970428468,19.491818793929127L225.65303970336916,20.314066071465987L226.3494997024536,18.157007571197056L227.04595970153807,18.25311728897239L227.74241970062255,18.44177239061881L228.43887969970703,18.37058118576337L229.1353396987915,18.63754555193711L229.83179969787597,18.263799682548523L230.52825969696045,17.712070496953032L231.2247196960449,17.733424675968678L231.9211796951294,17.341888961468698L232.61763969421386,17.284933875957023L233.31409969329835,17.31340611464455L234.0105596923828,17.23509685011723L234.70701969146728,16.53031346937135L235.40347969055176,16.939660245255965L236.09993968963624,16.508959290355705L236.7963996887207,16.52319540969947L237.49285968780518,16.224205079070572L238.18931968688963,15.989277285488612L238.88577968597414,16.245559258086217L239.5822396850586,16.042668037096036L240.27869968414308,16.245559258086217L240.97515968322753,16.156567599982765L241.671619682312,15.871813388697632L242.3680796813965,15.857577269353868L243.06453968048098,16.352340761301065" fill="none"></path></g><g><path style="fill: none;" stroke="rgb(0, 119, 187)" stroke-width="2px" d="M34.82299995422363,157.98840706418932L35.51945995330811,158.3977495305184L36.21591995239258,148.05740239102454L36.91237995147705,141.84607452273667L37.608839950561524,135.3499858130783L38.305299949646,132.7693497216493L39.001759948730474,126.91397124755323L39.69821994781494,126.16647685674191L40.39467994689941,122.01966077883482L41.09113994598388,118.24659057031631L41.78759994506836,117.9084376513213L42.48405994415283,113.31668184713602L43.18051994323731,112.2666301397574L43.876979942321775,110.21991747660756L44.57343994140625,106.7316067834425L45.269899940490724,105.27221360424757L45.9663599395752,102.12205317804337L46.66281993865967,100.1999224713564L47.35927993774414,98.0286278517437L48.05573993682861,96.14209274748445L48.75219993591308,95.00305468607068L49.44865993499756,91.62153080018878L50.14511993408203,91.12319767026902L50.8415799331665,89.23666256600977L51.538039932250975,84.96526453163982L52.23449993133545,84.14658158800721L52.930959930419924,83.9330079734409L53.6274199295044,82.24224603049994L54.323879928588866,81.01422161505103L55.02033992767334,80.40910698191642L55.716799926757815,77.15215974842907L56.41325992584229,77.09876899682165L57.10971992492676,78.07763480341315L57.806179924011225,75.05205633367181L58.5026399230957,78.36239431876659L59.199099922180174,72.50701584467053L59.89555992126465,73.57486270122887L60.592019920349124,71.22559537354589L61.28847991943359,68.73394033208372L61.984939918518066,70.95863631144046L62.68139991760254,71.29678657840132L63.377859916687015,68.69835003372431L64.07431991577148,67.84406618359567L64.77077991485596,66.54485586735963L65.46723991394043,66.97199248835564L66.1636999130249,67.32793790449621L66.86015991210937,65.26343539623498L67.55661991119385,66.36687255115272L68.25307991027832,64.56933440906523L68.9495399093628,63.003149118518834L69.64599990844727,66.13550909147501L70.34245990753173,64.24897929128407L71.03891990661621,63.750640857296005L71.73537990570068,62.807375957200534L72.43183990478516,63.003149118518834L73.12829990386963,61.02762766022444L73.8247599029541,61.29459202639818L74.52121990203858,58.44698626472713L75.21767990112305,60.974236908617016L75.91413990020753,61.828510150609034L76.610599899292,61.401373529613025L77.30705989837647,61.27679157315016L78.00351989746095,60.74286284080269L78.6999798965454,56.7918199242139L79.39643989562988,57.89526768726826L80.09289989471435,59.35466086646319L80.78935989379882,58.48258717122316L81.4858198928833,58.34020476151228L82.18227989196777,56.88081158231735L82.87873989105225,57.91306814051627L83.57519989013672,59.30127011485577L84.27165988922118,57.55711211623908L84.96811988830567,58.09104084858656L85.66457988739013,58.197822351801406L86.36103988647461,56.48926525968075L87.05749988555908,56.45367496132134L87.75395988464355,57.98425934537171L88.45041988372803,59.81739839395523L89.1468798828125,57.52152181787967L89.84333988189698,56.5782569177842L90.53979988098145,57.20116670009851L91.23625988006592,57.3791394081688L91.9327198791504,56.3824837564659L92.62917987823486,54.0332058206463L93.32563987731935,56.3824837564659L94.02209987640381,56.898612035565364L94.71855987548828,56.827420830709926L95.41501987457276,54.97648132887839L96.11147987365722,54.60272485135319L96.8079398727417,53.39249558508398L97.50439987182617,53.58826874640228L98.20085987091063,58.18003250669001L98.89731986999512,55.528199906337264L99.59377986907958,55.51039945308925L100.29023986816406,54.19338868360519L100.98669986724853,54.88748967077494L101.683159866333,54.869689217526926L102.37961986541748,54.122197478749754L103.07607986450195,56.25790180000304L103.77253986358643,52.716195051162245L104.4689998626709,53.267913628621116L105.16545986175537,54.673916056208625L105.86191986083985,54.79849801267149L106.55837985992432,55.31462629177095L107.2548398590088,53.74845160936117L107.95129985809326,52.30684827527763L108.64775985717773,54.92307996913435L109.34421985626221,56.16891014189959L110.04067985534668,53.32131498836516L110.73713985443116,55.15445403694868L111.43359985351563,53.60606919965029L112.1300598526001,53.94422477067947L112.82651985168458,53.17893257865428L113.52297985076903,53.48148724318743L114.21943984985352,53.339104833476554L114.91589984893798,53.303514535117145L115.61235984802245,53.534877994794854L116.30881984710693,53.855233112576016L117.0052798461914,53.339104833476554L117.70173984527588,51.66613803971531L118.39819984436035,52.11107511395933L119.09465984344482,52.84077700762511L119.7911198425293,51.701738946211336L120.48757984161377,54.06880672714233L121.18403984069825,50.58049072990896L121.88049983978271,52.680604752802836L122.57695983886718,51.84412135592221L123.27341983795166,53.35690528672457L123.96987983703613,50.633892089653L124.66633983612061,50.918646300938136L125.36279983520508,51.45257503328561L126.05925983428955,53.08994092055083L126.75571983337403,51.381383828430174L127.4521798324585,51.86191120103361L128.14863983154297,49.103297097466026L128.84509983062745,52.73399550441026L129.54155982971193,52.57381264145137L130.23801982879638,50.4559087734461L130.93447982788086,50.989837505793574L131.63093982696532,50.0465726056981L132.3273998260498,52.07548481559992L133.02385982513428,51.64834819460391L133.72031982421873,51.185610667111874L134.41677982330322,50.331326816983236L135.1132398223877,50.722873139619836L135.80969982147215,51.45257503328561L136.50615982055663,51.29239217032672L137.20261981964111,48.355805358688855L137.8990798187256,51.577156989748474L138.59553981781005,49.38806191688778L139.29199981689453,51.114419462256436L139.98845981597898,49.38806191688778L140.68491981506347,50.34912727023125L141.38137981414795,50.11776381055354L142.07783981323243,49.19228875556948L142.77429981231688,49.51264387335064L143.47075981140136,47.83967707958939L144.16721981048582,48.44479701679231L144.86367980957033,48.69396092971803L145.56013980865478,49.35247161852837L146.25659980773926,50.366927723479265L146.95305980682372,47.59051316666367L147.6495198059082,50.206744860520374L148.34597980499268,47.608313619911684L149.04243980407716,48.53377806675914L149.73889980316162,49.174488302321464L150.4353598022461,49.99318185409068L151.13181980133055,50.758474046115865L151.82827980041506,48.320215060329446L152.5247397994995,47.07438488756421L153.221199798584,47.6261140731597L153.91765979766845,47.83967707958939L154.61411979675293,49.138898003962055L155.3105797958374,47.412540458593384L156.0070397949219,48.33800490544084L156.70349979400635,48.21342294897798L157.3999597930908,49.21008920881749L158.09641979217528,49.138898003962055L158.79287979125976,47.145576092419645L159.48933979034425,48.14224235225916L160.1857997894287,47.05659504245281L160.88225978851318,48.05325069415571L161.57871978759763,45.739573664832136L162.27517978668214,47.00319368270877L162.9716397857666,47.89306783119682L163.66809978485108,46.73623992467165L164.36455978393553,47.020994135956784L165.06101978302001,44.369172143740656L165.7574797821045,48.711761382966046L166.45393978118898,46.326893148787036L167.15039978027343,45.348027342195536L167.8468597793579,44.831899063096074L168.54331977844237,45.91754637290242L169.23977977752688,46.985403837597374L169.93623977661133,44.33357123724463L170.6326997756958,46.68283856492761L171.32915977478027,44.72511755988123L172.02561977386475,45.383628248691565L172.72207977294923,44.31577078399661L173.4185397720337,44.173398982422356L174.11499977111816,44.11999762267831L174.81145977020262,44.49375410020352L175.5079197692871,45.11666388251783L176.20437976837158,45.17005463412525L176.90083976745606,47.00319368270877L177.59729976654052,44.54714485181094L178.293759765625,44.81410921798468L178.99021976470945,45.614991708369274L179.68667976379396,45.82856532293559L180.38313976287841,45.59719125512126L181.0795997619629,45.11666388251783L181.77605976104735,42.7139951950908L182.47251976013183,43.56827904521944L183.1689797592163,43.265724380686294L183.8654397583008,42.802986853194255L184.56189975738525,44.45815319370749L185.25835975646973,43.72846190817833L185.95481975555418,43.72846190817833L186.6512797546387,43.6928610016823L187.34773975372315,43.55047859197143L188.04419975280763,42.73179564833882L188.74065975189208,42.055495114417084L189.43711975097656,42.802986853194255L190.13357975006105,43.6928610016823L190.83003974914553,42.019894207921055L191.52649974822998,43.71066145493032L192.22295974731443,42.482631735413094L192.91941974639892,41.80633120149136L193.6158797454834,42.12668631927252L194.31233974456788,41.272402469143884L195.00879974365233,41.396984425606746L195.7052597427368,40.880856146507284L196.40171974182127,41.64614833853247L197.09817974090578,41.41478487885476L197.79463973999023,41.16562096592904L198.4910997390747,41.94870300306562L199.18755973815917,41.236812170784475L199.88401973724365,40.72068389168501L200.58047973632813,40.32913756904841L201.2769397354126,40.47151997875929L201.97339973449706,40.54270057547811L202.66985973358155,40.96984780461074L203.366319732666,39.510454625415804L204.0627797317505,40.57830148197414L204.75923973083496,41.041039009466175L205.45569972991944,40.07997365612269L206.1521597290039,40.15116486097813L206.84861972808838,39.083307396283175L207.54507972717286,39.474853718919775L208.24153972625734,39.40366251406434L208.9379997253418,38.99432634631634L209.63445972442625,38.691761073646575L210.33091972351073,38.63837032203915L211.0273797225952,37.908679036509994L211.7238397216797,39.17229905438663L212.42029972076415,39.439263420560366L213.11675971984863,37.96206978811742L213.81321971893308,37.69510542194368L214.5096797180176,38.9409249865723L215.20613971710205,37.65951512358427L215.90259971618653,37.73069572030309L216.59905971527098,37.21456744120363L217.29551971435546,36.7696303669596L217.99197971343995,37.30355909930708L218.68843971252443,37.62391421708824L219.38489971160888,37.10778593798878L220.08135971069336,37.837487831654556L220.77781970977782,37.26796880094767L221.47427970886233,36.662848863744756L222.17073970794678,36.94761368316651L222.86719970703126,36.44927524917844L223.56365970611571,36.271302541108156L224.2601197052002,36.734040068600194L224.95657970428468,36.18232149114132L225.65303970336916,36.80523127345563L226.3494997024536,35.27464688940526L227.04595970153807,35.20345568454982L227.74241970062255,35.77297471525671L228.43887969970703,35.683983057153256L229.1353396987915,36.44927524917844L229.83179969787597,36.03993908143045L230.52825969696045,35.38142839262011L231.2247196960449,35.57720155393841L231.9211796951294,35.27464688940526L232.61763969421386,35.07887372808696L233.31409969329835,35.541611255579L234.0105596923828,35.59500200718642L234.70701969146728,35.559401100690394L235.40347969055176,34.936491318376085L236.09993968963624,34.5627454489875L236.7963996887207,34.544944995739485L237.49285968780518,34.26019078445435L238.18931968688963,34.52715515062809L238.88577968597414,34.68732740545036L239.5822396850586,34.45596394577265L240.27869968414308,34.3669722876692L240.97515968322753,34.61613620059492L241.671619682312,34.544944995739485L242.3680796813965,34.509354697380076L243.06453968048098,34.580545902235514" fill="none"></path></g></g></g></g></g></g><g transform="translate(51, 177)" clip-path="url(#clip_1)"><clipPath id="clip_1"><rect width="278" height="22"></rect></clipPath><g><g><line x1="0" y1="0" x2="0" y2="5" style="visibility: inherit;" fill="rgb(0, 0, 0)" stroke="rgb(204, 204, 204)" stroke-width="1px"></line><line x1="34.82299995422363" y1="0" x2="34.82299995422363" y2="5" style="visibility: inherit;" fill="rgb(0, 0, 0)" stroke="rgb(204, 204, 204)" stroke-width="1px"></line><line x1="69.64599990844727" y1="0" x2="69.64599990844727" y2="5" style="visibility: inherit;" fill="rgb(0, 0, 0)" stroke="rgb(204, 204, 204)" stroke-width="1px"></line><line x1="104.4689998626709" y1="0" x2="104.4689998626709" y2="5" style="visibility: inherit;" fill="rgb(0, 0, 0)" stroke="rgb(204, 204, 204)" stroke-width="1px"></line><line x1="139.29199981689453" y1="0" x2="139.29199981689453" y2="5" style="visibility: inherit;" fill="rgb(0, 0, 0)" stroke="rgb(204, 204, 204)" stroke-width="1px"></line><line x1="174.11499977111816" y1="0" x2="174.11499977111816" y2="5" style="visibility: inherit;" fill="rgb(0, 0, 0)" stroke="rgb(204, 204, 204)" stroke-width="1px"></line><line x1="208.9379997253418" y1="0" x2="208.9379997253418" y2="5" style="visibility: inherit;" fill="rgb(0, 0, 0)" stroke="rgb(204, 204, 204)" stroke-width="1px"></line><line x1="243.76099967956543" y1="0" x2="243.76099967956543" y2="5" style="visibility: inherit;" fill="rgb(0, 0, 0)" stroke="rgb(204, 204, 204)" stroke-width="1px"></line><line x1="278.58399963378906" y1="0" x2="278.58399963378906" y2="5" style="visibility: inherit;" fill="rgb(0, 0, 0)" stroke="rgb(204, 204, 204)" stroke-width="1px"></line></g><g transform="translate(0, 8)"><text style="text-anchor: middle; visibility: hidden; font-family: &quot;Helvetica Neue&quot;, sans-serif; font-size: 12px; font-weight: 200;" x="0" y="0" dx="0em" dy="0.95em" fill="rgb(50, 49, 63)" stroke="none" stroke-width="1px">-50</text><text style="text-anchor: middle; visibility: inherit; font-family: &quot;Helvetica Neue&quot;, sans-serif; font-size: 12px; font-weight: 200;" x="34.82299995422363" y="0" dx="0em" dy="0.95em" fill="rgb(50, 49, 63)" stroke="none" stroke-width="1px">0</text><text style="text-anchor: middle; visibility: inherit; font-family: &quot;Helvetica Neue&quot;, sans-serif; font-size: 12px; font-weight: 200;" x="69.64599990844727" y="0" dx="0em" dy="0.95em" fill="rgb(50, 49, 63)" stroke="none" stroke-width="1px">50</text><text style="text-anchor: middle; visibility: inherit; font-family: &quot;Helvetica Neue&quot;, sans-serif; font-size: 12px; font-weight: 200;" x="104.4689998626709" y="0" dx="0em" dy="0.95em" fill="rgb(50, 49, 63)" stroke="none" stroke-width="1px">100</text><text style="text-anchor: middle; visibility: inherit; font-family: &quot;Helvetica Neue&quot;, sans-serif; font-size: 12px; font-weight: 200;" x="139.29199981689453" y="0" dx="0em" dy="0.95em" fill="rgb(50, 49, 63)" stroke="none" stroke-width="1px">150</text><text style="text-anchor: middle; visibility: inherit; font-family: &quot;Helvetica Neue&quot;, sans-serif; font-size: 12px; font-weight: 200;" x="174.11499977111816" y="0" dx="0em" dy="0.95em" fill="rgb(50, 49, 63)" stroke="none" stroke-width="1px">200</text><text style="text-anchor: middle; visibility: inherit; font-family: &quot;Helvetica Neue&quot;, sans-serif; font-size: 12px; font-weight: 200;" x="208.9379997253418" y="0" dx="0em" dy="0.95em" fill="rgb(50, 49, 63)" stroke="none" stroke-width="1px">250</text><text style="text-anchor: middle; visibility: inherit; font-family: &quot;Helvetica Neue&quot;, sans-serif; font-size: 12px; font-weight: 200;" x="243.76099967956543" y="0" dx="0em" dy="0.95em" fill="rgb(50, 49, 63)" stroke="none" stroke-width="1px">300</text><text style="text-anchor: middle; visibility: hidden; font-family: &quot;Helvetica Neue&quot;, sans-serif; font-size: 12px; font-weight: 200;" x="278.58399963378906" y="0" dx="0em" dy="0.95em" fill="rgb(50, 49, 63)" stroke="none" stroke-width="1px">350</text></g><line x1="0" y1="0" x2="278.58399963378906" y2="0" fill="rgb(0, 0, 0)" stroke="rgb(204, 204, 204)" stroke-width="1px"></line></g></g></g></g></svg>