<svg viewBox="0 0 330 200" xmlns="http://www.w3.org/2000/svg"><g><g><g><g><g><line x1="51.41600036621094" y1="177.9749994277954" x2="46.41600036621094" y2="177.9749994277954" style="visibility: inherit;" fill="rgb(0, 0, 0)" stroke="rgb(204, 204, 204)" stroke-width="1px"></line><line x1="51.41600036621094" y1="155.72812449932098" x2="46.41600036621094" y2="155.72812449932098" style="visibility: inherit;" fill="rgb(0, 0, 0)" stroke="rgb(204, 204, 204)" stroke-width="1px"></line><line x1="51.41600036621094" y1="133.48124957084656" x2="46.41600036621094" y2="133.48124957084656" style="visibility: inherit;" fill="rgb(0, 0, 0)" stroke="rgb(204, 204, 204)" stroke-width="1px"></line><line x1="51.41600036621094" y1="111.23437464237213" x2="46.41600036621094" y2="111.23437464237213" style="visibility: inherit;" fill="rgb(0, 0, 0)" stroke="rgb(204, 204, 204)" stroke-width="1px"></line><line x1="51.41600036621094" y1="88.9874997138977" x2="46.41600036621094" y2="88.9874997138977" style="visibility: inherit;" fill="rgb(0, 0, 0)" stroke="rgb(204, 204, 204)" stroke-width="1px"></line><line x1="51.41600036621094" y1="66.74062478542328" x2="46.41600036621094" y2="66.74062478542328" style="visibility: inherit;" fill="rgb(0, 0, 0)" stroke="rgb(204, 204, 204)" stroke-width="1px"></line><line x1="51.41600036621094" y1="44.49374985694885" x2="46.41600036621094" y2="44.49374985694885" style="visibility: inherit;" fill="rgb(0, 0, 0)" stroke="rgb(204, 204, 204)" stroke-width="1px"></line><line x1="51.41600036621094" y1="22.246874928474426" x2="46.41600036621094" y2="22.246874928474426" style="visibility: inherit;" fill="rgb(0, 0, 0)" stroke="rgb(204, 204, 204)" stroke-width="1px"></line><line x1="51.41600036621094" y1="0" x2="46.41600036621094" y2="0" style="visibility: inherit;" fill="rgb(0, 0, 0)" stroke="rgb(204, 204, 204)" stroke-width="1px"></line></g><g transform="translate(41.41600036621094, 0)"><text style="text-anchor: end; visibility: hidden; font-family: &quot;Helvetica Neue&quot;, sans-serif; font-size: 12px; font-weight: 200;" x="0" y="177.9749994277954" dx="0em" dy="0.3em" fill="rgb(50, 49, 63)" stroke="none" stroke-width="1px">-0.5</text><text style="text-anchor: end; visibility: inherit; font-family: &quot;Helvetica Neue&quot;, sans-serif; font-size: 12px; font-weight: 200;" x="0" y="155.72812449932098" dx="0em" dy="0.3em" fill="rgb(50, 49, 63)" stroke="none" stroke-width="1px">0</text><text style="text-anchor: end; visibility: hidden; font-family: &quot;Helvetica Neue&quot;, sans-serif; font-size: 12px; font-weight: 200;" x="0" y="133.48124957084656" dx="0em" dy="0.3em" fill="rgb(50, 49, 63)" stroke="none" stroke-width="1px">0.5</text><text style="text-anchor: end; visibility: inherit; font-family: &quot;Helvetica Neue&quot;, sans-serif; font-size: 12px; font-weight: 200;" x="0" y="111.23437464237213" dx="0em" dy="0.3em" fill="rgb(50, 49, 63)" stroke="none" stroke-width="1px">1</text><text style="text-anchor: end; visibility: hidden; font-family: &quot;Helvetica Neue&quot;, sans-serif; font-size: 12px; font-weight: 200;" x="0" y="88.9874997138977" dx="0em" dy="0.3em" fill="rgb(50, 49, 63)" stroke="none" stroke-width="1px">1.5</text><text style="text-anchor: end; visibility: inherit; font-family: &quot;Helvetica Neue&quot;, sans-serif; font-size: 12px; font-weight: 200;" x="0" y="66.74062478542328" dx="0em" dy="0.3em" fill="rgb(50, 49, 63)" stroke="none" stroke-width="1px">2</text><text style="text-anchor: end; visibility: hidden; font-family: &quot;Helvetica Neue&quot;, sans-serif; font-size: 12px; font-weight: 200;" x="0" y="44.49374985694885" dx="0em" dy="0.3em" fill="rgb(50, 49, 63)" stroke="none" stroke-width="1px">2.5</text><text style="text-anchor: end; visibility: inherit; font-family: &quot;Helvetica Neue&quot;, sans-serif; font-size: 12px; font-weight: 200;" x="0" y="22.246874928474426" dx="0em" dy="0.3em" fill="rgb(50, 49, 63)" stroke="none" stroke-width="1px">3</text><text style="text-anchor: end; visibility: hidden; font-family: &quot;Helvetica Neue&quot;, sans-serif; font-size: 12px; font-weight: 200;" x="0" y="0" dx="0em" dy="0.3em" fill="rgb(50, 49, 63)" stroke="none" stroke-width="1px">3.5</text></g><line x1="51.41600036621094" y1="0" x2="51.41600036621094" y2="177.9749994277954" fill="rgb(0, 0, 0)" stroke="rgb(204, 204, 204)" stroke-width="1px"></line></g></g><g transform="translate(51, 0)" clip-path="url(#clip_0)"><clipPath id="clip_0"><rect width="278" height="177"></rect></clipPath><g><g><g><line x1="0" y1="0" x2="0" y2="177.9749994277954" fill="rgb(0, 0, 0)" stroke="rgb(60, 60, 60)" stroke-width="1px" opacity="0.25"></line><line x1="34.82299995422363" y1="0" x2="34.82299995422363" y2="177.9749994277954" fill="rgb(0, 0, 0)" stroke="rgb(60, 60, 60)" stroke-width="1px" opacity="0.25"></line><line x1="69.64599990844727" y1="0" x2="69.64599990844727" y2="177.9749994277954" fill="rgb(0, 0, 0)" stroke="rgb(60, 60, 60)" stroke-width="1px" opacity="0.25"></line><line x1="104.4689998626709" y1="0" x2="104.4689998626709" y2="177.9749994277954" fill="rgb(0, 0, 0)" stroke="rgb(60, 60, 60)" stroke-width="1px" opacity="0.25"></line><line x1="139.29199981689453" y1="0" x2="139.29199981689453" y2="177.9749994277954" fill="rgb(0, 0, 0)" stroke="rgb(60, 60, 60)" stroke-width="1px" opacity="0.25"></line><line x1="174.11499977111816" y1="0" x2="174.11499977111816" y2="177.9749994277954" fill="rgb(0, 0, 0)" stroke="rgb(60, 60, 60)" stroke-width="1px" opacity="0.25"></line><line x1="208.9379997253418" y1="0" x2="208.9379997253418" y2="177.9749994277954" fill="rgb(0, 0, 0)" stroke="rgb(60, 60, 60)" stroke-width="1px" opacity="0.25"></line><line x1="243.76099967956543" y1="0" x2="243.76099967956543" y2="177.9749994277954" fill="rgb(0, 0, 0)" stroke="rgb(60, 60, 60)" stroke-width="1px" opacity="0.25"></line><line x1="278.58399963378906" y1="0" x2="278.58399963378906" y2="177.9749994277954" fill="rgb(0, 0, 0)" stroke="rgb(60, 60, 60)" stroke-width="1px" opacity="0.25"></line></g><g><line x1="0" y1="177.9749994277954" x2="278.58399963378906" y2="177.9749994277954" fill="rgb(0, 0, 0)" stroke="rgb(60, 60, 60)" stroke-width="1px" opacity="0.25"></line><line x1="0" y1="155.72812449932098" x2="278.58399963378906" y2="155.72812449932098" fill="rgb(0, 0, 0)" stroke="rgb(60, 60, 60)" stroke-width="1px" opacity="0.25"></line><line x1="0" y1="133.48124957084656" x2="278.58399963378906" y2="133.48124957084656" fill="rgb(0, 0, 0)" stroke="rgb(60, 60, 60)" stroke-width="1px" opacity="0.25"></line><line x1="0" y1="111.23437464237213" x2="278.58399963378906" y2="111.23437464237213" fill="rgb(0, 0, 0)" stroke="rgb(60, 60, 60)" stroke-width="1px" opacity="0.25"></line><line x1="0" y1="88.9874997138977" x2="278.58399963378906" y2="88.9874997138977" fill="rgb(0, 0, 0)" stroke="rgb(60, 60, 60)" stroke-width="1px" opacity="0.25"></line><line x1="0" y1="66.74062478542328" x2="278.58399963378906" y2="66.74062478542328" fill="rgb(0, 0, 0)" stroke="rgb(60, 60, 60)" stroke-width="1px" opacity="0.25"></line><line x1="0" y1="44.49374985694885" x2="278.58399963378906" y2="44.49374985694885" fill="rgb(0, 0, 0)" stroke="rgb(60, 60, 60)" stroke-width="1px" opacity="0.25"></line><line x1="0" y1="22.246874928474426" x2="278.58399963378906" y2="22.246874928474426" fill="rgb(0, 0, 0)" stroke="rgb(60, 60, 60)" stroke-width="1px" opacity="0.25"></line><line x1="0" y1="0" x2="278.58399963378906" y2="0" fill="rgb(0, 0, 0)" stroke="rgb(60, 60, 60)" stroke-width="1px" opacity="0.25"></line></g></g></g><g><g><line x1="0" y1="155.72812449932098" x2="278.58399963378906" y2="155.72812449932098" fill="rgb(0, 0, 0)" stroke="rgb(153, 153, 153)" stroke-width="1.5px"></line></g></g><g><g><line x1="34.82299995422363" y1="0" x2="34.82299995422363" y2="177.9749994277954" fill="rgb(0, 0, 0)" stroke="rgb(153, 153, 153)" stroke-width="1.5px"></line></g></g><g><g><g><g><g><path style="fill: none;" stroke="rgb(238, 51, 119)" stroke-width="2px" d="M39.001759948730474,-0.9727130873520196L39.69821994781494,2.770569473538103L40.39467994689941,6.113723729266212L41.09113994598388,11.036768988053495L41.78759994506836,11.585273300116569L42.48405994415283,16.668331691676826L43.18051994323731,18.50066452187724L43.876979942321775,19.293824288802625L44.57343994140625,23.515799014660956L45.269899940490724,27.042983224469253L45.9663599395752,31.499206823165878L46.66281993865967,31.415360111323025L47.35927993774414,33.26828333470246L48.05573993682861,36.33281488211168L48.75219993591308,37.84167380236471L49.44865993499756,43.202548683860755L50.14511993408203,41.53990360703057L50.8415799331665,43.18321005080287L51.538039932250975,48.45250488886023L52.23449993133545,51.498238818179175L52.930959930419924,50.16421259755697L53.6274199295044,51.84848766495492L54.323879928588866,53.539976265254325L55.02033992767334,54.67826114896809L55.716799926757815,59.24308024224155L56.41325992584229,57.94261816588437L57.10971992492676,56.47268049888936L57.806179924011225,61.836652956278385L58.5026399230957,57.84121498793576L59.199099922180174,64.69215117159456L59.89555992126465,63.37643459477812L60.592019920349124,65.11139533894544L61.28847991943359,65.11600987837505L61.984939918518066,66.5604031523896L62.68139991760254,67.30119585289137L63.377859916687015,67.41695183968656L64.07431991577148,67.98002642739692L64.77077991485596,70.33131460510597L65.46723991394043,70.6160688163911L66.1636999130249,71.48669450098254L66.86015991210937,72.6339803886182L67.55661991119385,72.06848714575852L68.25307991027832,72.5555226101782L68.9495399093628,74.03064235191198L69.64599990844727,72.5806055492157L70.34245990753173,73.176660833677L71.03891990661621,74.72573519985568L71.73537990570068,71.96659068945709L72.43183990478516,75.20712713559362L73.12829990386963,76.74182747665247L73.8247599029541,76.25534363533703L74.52121990203858,76.63638259865172L75.21767990112305,79.46649554303673L75.91413990020753,75.72508531826L76.610599899292,77.32738070586018L77.30705989837647,79.27041474575645L78.00351989746095,78.709700468444L78.6999798965454,81.08340894289898L79.39643989562988,78.16596451379152L80.09289989471435,77.38933222371978L80.78935989379882,81.5389541537628L81.4858198928833,80.61617886954846L82.18227989196777,81.10775461644141L82.87873989105225,82.34587797795237L83.57519989013672,78.71960316397858L84.27165988922118,80.6077825294139L84.96811988830567,78.57564544597966L85.66457988739013,84.25804764435335L86.36103988647461,79.81512134490964L87.05749988555908,82.949024801744L87.75395988464355,81.40657521688439L88.45041988372803,78.3295154601272L89.1468798828125,82.62777329641847L89.84333988189698,84.35557354836743L90.53979988098145,81.17844723887572L91.23625988006592,85.71567456880109L91.9327198791504,84.54422865001385L92.62917987823486,83.85427544426244L93.32563987731935,83.61686534671145L94.02209987640381,85.51619386373417L94.71855987548828,84.16048461186111L95.41501987457276,84.59069759247686L96.11147987365722,88.87823590671383L96.8079398727417,85.04938811584844L97.50439987182617,87.92633067934153L98.20085987091063,82.1516217801707L98.89731986999512,83.39941976227891L99.59377986907958,89.13216817705015L100.29023986816406,85.15629161263442L100.98669986724853,87.44515090633598L101.683159866333,85.23975112749065L102.37961986541748,89.14365148494107L103.07607986450195,86.64046009490488L103.77253986358643,86.14274223690907L104.4689998626709,85.39118758180652L105.16545986175537,86.4683855107952L105.86191986083985,86.36638297312757L106.55837985992432,85.53032920578005L107.2548398590088,84.35697912646955L107.95129985809326,88.93895157665722L108.64775985717773,85.20604377338125L109.34421985626221,84.93852778410329L110.04067985534668,88.87303791977013L110.73713985443116,85.24469451915547L111.43359985351563,88.27072913877146L112.1300598526001,87.54211988317752L112.82651985168458,87.73130539165493L113.52297985076903,86.59402297685173L114.21943984985352,89.14552382105447L114.91589984893798,87.40182727638074L115.61235984802245,88.04966087568326L116.30881984710693,85.81867957537929L117.0052798461914,86.6454034865697L117.70173984527588,91.52224500630948L118.39819984436035,91.0490902886568L119.09465984344482,89.02098429713809L119.7911198425293,91.53889447673424L120.48757984161377,88.53861110876281L121.18403984069825,91.00532642103184L121.88049983978271,88.16674287955593L122.57695983886718,91.14419223345325L123.27341983795166,89.34384293516152L123.96987983703613,91.59919112528115L124.66633983612061,87.11177430085402L125.36279983520508,91.92593764537574L126.05925983428955,88.50912579302809L126.75571983337403,88.28663603963284L127.4521798324585,88.78907451842446L128.14863983154297,91.54549804178006L128.84509983062745,89.36605106917506L129.54155982971193,90.40414740658318L130.23801982879638,93.65654905352895L130.93447982788086,92.82638810607372L131.63093982696532,92.94641917192669L132.3273998260498,89.70742090560003L133.02385982513428,90.1761202058724L133.72031982421873,91.12834898141159L134.41677982330322,91.43247365016447L135.1132398223877,87.07331450153896L135.80969982147215,91.17675390880771L136.50615982055663,93.87390977286853L137.20261981964111,92.89178196426644L137.8990798187256,92.89102348249813L138.59553981781005,93.23194777718507L139.29199981689453,91.59479935672056L139.98845981597898,93.85436958521487L140.68491981506347,97.20611643160501L141.38137981414795,93.99819470150604L142.07783981323243,92.91278077070533L142.77429981231688,92.7466838715809L143.47075981140136,94.22221733064285L144.16721981048582,94.67307904918903L144.86367980957033,92.99620315708339L145.56013980865478,93.0383917164203L146.25659980773926,89.9799227190893L146.95305980682372,94.37571706753127L147.6495198059082,91.76475761757459L148.34597980499268,95.83740160423608L149.04243980407716,96.51938809938602L149.73889980316162,95.6526237765242L150.4353598022461,93.38152780759248L151.13181980133055,92.65449916435489L151.82827980041506,94.32534963486049L152.5247397994995,95.35649764278264L153.221199798584,97.25647856020748L153.91765979766845,93.89730071411518L154.61411979675293,94.45519322708677L155.3105797958374,96.02051925856696L156.0070397949219,95.93449257464874L156.70349979400635,94.0272185632978L157.3999597930908,96.72955650209738L158.09641979217528,92.82817557709416L158.79287979125976,96.61556146598107L159.48933979034425,92.84507433872949L160.1857997894287,95.56614094273132L160.88225978851318,96.0165199910613L161.57871978759763,97.47887284037316L162.27517978668214,96.29274526050412L162.9716397857666,95.79772186920974L163.66809978485108,97.18049778166821L164.36455978393553,95.537620967429L165.06101978302001,96.36294990865392L165.7574797821045,96.30074909958375L166.45393978118898,98.54424800109908L167.15039978027343,98.15167268921036L167.8468597793579,97.80775159592832L168.54331977844237,97.44734545833913L169.23977977752688,96.5732403049364L169.93623977661133,99.61373381476517L170.6326997756958,98.72895157185462L171.32915977478027,99.34325285130197L172.02561977386475,98.49564151910718L172.72207977294923,99.0004933489798L173.4185397720337,100.15231421502043L174.11499977111816,99.39077199929034L174.81145977020262,99.01379595230102L175.5079197692871,98.97492243565779L176.20437976837158,99.62262873732087L176.90083976745606,95.8963616275689L177.59729976654052,100.65774949240713L178.293759765625,99.52007988061732L178.99021976470945,100.40976838671452L179.68667976379396,99.90522949687218L180.38313976287841,99.65580568459927L181.0795997619629,101.67237002347565L181.77605976104735,102.05671342134741L182.47251976013183,102.06004968031434L183.1689797592163,103.2028907587063L183.8654397583008,101.69074862016944L184.56189975738525,102.03959188884306L185.25835975646973,103.61910099898392L185.95481975555418,104.2193783218199L186.6512797546387,102.29073421924838L187.34773975372315,102.48795008714697L188.04419975280763,104.39834289066414L188.74065975189208,104.26030981696738L189.43711975097656,105.54248876986034L190.13357975006105,102.87357176548142L190.83003974914553,106.48475650511355L191.52649974822998,104.75045876948496L192.22295974731443,102.1844725147279L192.91941974639892,106.43387988188502L193.6158797454834,105.47669180247607L194.31233974456788,104.05035357698841L195.00879974365233,105.42700329054895L195.7052597427368,106.67930442665227L196.40171974182127,104.79551682977754L197.09817974090578,105.38023732026059L197.79463973999023,106.68134649295158L198.4910997390747,105.66429669859713L199.18755973815917,105.83178326361875L199.88401973724365,107.44412455659787L200.58047973632813,108.08663287131725L201.2769397354126,108.3349534373817L201.97339973449706,106.34219906114845L202.66985973358155,108.4129815862886L203.366319732666,107.79664884867856L204.0627797317505,107.79824006917153L204.75923973083496,108.99220706200259L205.45569972991944,108.91440168396471L206.1521597290039,109.14216898532831L206.84861972808838,110.81366655216772L207.54507972717286,109.24124898135719L208.24153972625734,109.47381116047293L208.9379997253418,110.77827780840408L209.63445972442625,111.44910189179585L210.33091972351073,110.72286620677059L211.0273797225952,111.00477213337331L211.7238397216797,111.65280463523744L212.42029972076415,112.44186435735928L213.11675971984863,111.38627520266512L213.81321971893308,110.88910101167107L214.5096797180176,111.51054156706354L215.20613971710205,114.14752542818273L215.90259971618653,113.32699401674412L216.59905971527098,113.4755158855237L217.29551971435546,114.72841107727773L217.99197971343995,112.69069146194732L218.68843971252443,114.81901782418154L219.38489971160888,115.46936024779464L220.08135971069336,114.5226848317759L220.77781970977782,115.24283409841556L221.47427970886233,115.05206532554764L222.17073970794678,115.26236102589844L222.86719970703126,114.8555177702561L223.56365970611571,115.26334493056993L224.2601197052002,116.19373950891143L224.95657970428468,115.83493785198598L225.65303970336916,115.05435668305752L226.3494997024536,116.26366569347496L227.04595970153807,116.0876104060987L227.74241970062255,116.44813323319072L228.43887969970703,116.33209878280925L229.1353396987915,116.60695560262812L229.83179969787597,117.34129855606506L230.52825969696045,116.45311375333371L231.2247196960449,116.86352399491446L231.9211796951294,117.44683890729539L232.61763969421386,117.83845683485417L233.31409969329835,117.8544671650476L234.0105596923828,117.66013936234374L234.70701969146728,117.79325026064892L235.40347969055176,117.84437882712217L236.09993968963624,118.14759650019406L236.7963996887207,118.3533916985839L237.49285968780518,118.03413187090874L238.18931968688963,118.81478199272523L238.88577968597414,118.50331649343146L239.5822396850586,118.70758677218221L240.27869968414308,118.77993691596336L240.97515968322753,118.80771432170229L241.671619682312,118.7921734015543L242.3680796813965,118.91491749834778L243.06453968048098,118.72417789785557" fill="none"></path></g><g><path style="fill: none;" stroke="rgb(204, 51, 17)" stroke-width="2px" d="M38.305299949646,-5.994636787572404L39.001759948730474,1.3355856167053162L39.69821994781494,4.46674687022346L40.39467994689941,8.276468190763353L41.09113994598388,12.928136098543064L41.78759994506836,13.669337212304697L42.48405994415283,18.63000953168239L43.18051994323731,21.030026184954465L43.876979942321775,22.256751103667455L44.57343994140625,26.183968145408187L45.269899940490724,30.172871501593022L45.9663599395752,34.3730040741512L46.66281993865967,34.92477569229317L47.35927993774414,37.10297620884535L48.05573993682861,40.15582819783617L48.75219993591308,41.53988239075733L49.44865993499756,46.866683937430594L50.14511993408203,45.438489288034475L50.8415799331665,47.43271289118957L51.538039932250975,53.36670296170661L52.23449993133545,55.144722132413676L52.930959930419924,54.16773396600388L53.6274199295044,56.222646718760814L54.323879928588866,57.438370999799076L55.02033992767334,59.1062883205293L55.716799926757815,63.29249240970569L56.41325992584229,62.24086539403902L57.10971992492676,60.6220955702683L57.806179924011225,65.37286469035013L58.5026399230957,61.457995519634835L59.199099922180174,68.33943540014386L59.89555992126465,66.79506043848775L60.592019920349124,68.86125494453984L61.28847991943359,68.67583532456246L61.984939918518066,69.85340744224763L62.68139991760254,69.4968414501148L63.377859916687015,70.01291668853116L64.07431991577148,70.55712470526322L64.77077991485596,72.8530118894754L65.46723991394043,72.83394376390132L66.1636999130249,73.72200392102738L66.86015991210937,74.73790273255858L67.55661991119385,74.51508412692812L68.25307991027832,74.08942203692226L68.9495399093628,76.81876829155584L69.64599990844727,74.5346879634015L70.34245990753173,75.80176623381618L71.03891990661621,76.32774947183543L71.73537990570068,74.12183519836404L72.43183990478516,76.70808829813322L73.12829990386963,78.57578865582403L73.8247599029541,78.03846531975822L74.52121990203858,78.78620634974595L75.21767990112305,80.67930789057286L75.91413990020753,78.1562527647161L76.610599899292,78.75667329739645L77.30705989837647,80.08506659747354L78.00351989746095,79.59271115253904L78.6999798965454,82.7963949320584L79.39643989562988,79.82966510021538L80.09289989471435,78.91186503207572L80.78935989379882,82.48298814376321L81.4858198928833,81.57025876492781L82.18227989196777,83.56161286712725L82.87873989105225,82.85353565996093L83.57519989013672,81.03838801108458L84.27165988922118,81.79567105996182L84.96811988830567,80.21651732239772L85.66457988739013,84.39921011835295L86.36103988647461,81.5933526783491L87.05749988555908,83.82408468744251L87.75395988464355,81.44769235442271L88.45041988372803,79.76206474960574L89.1468798828125,82.71703546200573L89.84333988189698,84.3898537418543L90.53979988098145,81.73947976028677L91.23625988006592,85.78884949520443L91.9327198791504,84.71751256169819L92.62917987823486,84.0647620910724L93.32563987731935,84.67894668101692L94.02209987640381,85.40667546127142L94.71855987548828,83.78554002303449L95.41501987457276,84.58237550929863L96.11147987365722,88.0071275519062L96.8079398727417,85.84780421446894L97.50439987182617,88.21141904693019L98.20085987091063,81.52382164687467L98.89731986999512,84.00596118978888L99.59377986907958,89.07996023267583L100.29023986816406,86.0089895463384L100.98669986724853,87.0953635135032L101.683159866333,84.70184964797906L102.37961986541748,87.81765031967174L103.07607986450195,85.8551238287366L103.77253986358643,86.08922949173052L104.4689998626709,85.4340497578188L105.16545986175537,85.49456917723472L105.86191986083985,85.85768038966197L106.55837985992432,84.89385161672902L107.2548398590088,84.99317029583185L107.95129985809326,87.90671623473153L108.64775985717773,85.43029447745539L109.34421985626221,84.36194903847593L110.04067985534668,87.52473314725768L110.73713985443116,85.05345633624214L111.43359985351563,87.36436994597625L112.1300598526001,86.04809644198727L112.82651985168458,86.6391287737591L113.52297985076903,85.86454385405497L114.21943984985352,87.86000330512627L114.91589984893798,85.45726036074291L115.61235984802245,86.30119597359894L116.30881984710693,84.40972278174317L117.0052798461914,85.6067767423306L117.70173984527588,90.36775619390897L118.39819984436035,89.68912186993089L119.09465984344482,88.09894097435051L119.7911198425293,89.93264755824319L120.48757984161377,86.9701185485016L121.18403984069825,90.45592041735608L121.88049983978271,87.82591405809856L122.57695983886718,89.63115370737202L123.27341983795166,87.5929169453814L123.96987983703613,90.4421033194088L124.66633983612061,86.7681290191241L125.36279983520508,89.7013477473852L126.05925983428955,86.62262781724701L126.75571983337403,87.81258493443579L127.4521798324585,87.42799754942178L128.14863983154297,90.29477221396479L128.84509983062745,87.62564835092178L129.54155982971193,88.43905905065435L130.23801982879638,91.7377015651258L130.93447982788086,90.72139964440305L131.63093982696532,91.2687158451647L132.3273998260498,88.30838802377173L133.02385982513428,88.25185195965653L133.72031982421873,89.58989866405764L134.41677982330322,89.59288485451611L135.1132398223877,86.23824729089708L135.80969982147215,89.26689681618984L136.50615982055663,90.7380968514426L137.20261981964111,91.57707316042888L137.8990798187256,90.5533614562772L138.59553981781005,91.01695293876713L139.29199981689453,89.22741863575928L139.98845981597898,91.29817994462618L140.68491981506347,93.3435931110401L141.38137981414795,91.3270712047102L142.07783981323243,90.79498298406625L142.77429981231688,90.41693551527834L143.47075981140136,92.24148727726813L144.16721981048582,92.50213449808479L144.86367980957033,91.10681446407341L145.56013980865478,91.54405533519977L146.25659980773926,87.67522547741439L146.95305980682372,92.2327886052399L147.6495198059082,89.91895245386704L148.34597980499268,93.40478614713138L149.04243980407716,93.76505437894451L149.73889980316162,92.54081706826886L150.4353598022461,90.77363941318723L151.13181980133055,89.7974892895704L151.82827980041506,91.52962826939685L152.5247397994995,92.88129051714947L153.221199798584,93.89158823254542L153.91765979766845,91.13042287212076L154.61411979675293,91.02781036659749L155.3105797958374,93.36259758779445L156.0070397949219,92.51351702867782L156.70349979400635,91.58739487735994L157.3999597930908,93.49369294014187L158.09641979217528,90.66083248837234L158.79287979125976,93.25942815509865L159.48933979034425,91.12008524298477L160.1857997894287,92.49445420717205L160.88225978851318,92.70224108321227L161.57871978759763,94.55961972397202L162.27517978668214,93.02032075568849L162.9716397857666,92.54433896962664L163.66809978485108,94.15365694366912L164.36455978393553,91.94959909410619L165.06101978302001,93.8166576595315L165.7574797821045,92.19198971180018L166.45393978118898,94.64280342727614L167.15039978027343,94.33589942672887L167.8468597793579,94.92533523393942L168.54331977844237,93.19154668886858L169.23977977752688,92.03983190419416L169.93623977661133,95.79378094645548L170.6326997756958,95.04377507929942L171.32915977478027,95.47074197010951L172.02561977386475,94.57313449002564L172.72207977294923,95.3537395272615L173.4185397720337,96.23203489462904L174.11499977111816,94.9429023081818L174.81145977020262,94.65257352110297L175.5079197692871,94.70685005211814L176.20437976837158,94.94330011330504L176.90083976745606,91.35916612205338L177.59729976654052,95.90447154801473L178.293759765625,95.00177746642166L178.99021976470945,94.79137568470466L179.68667976379396,94.77169759127494L180.38313976287841,94.20749854108288L181.0795997619629,95.85727594819326L181.77605976104735,97.3433061584405L182.47251976013183,97.14389440626161L183.1689797592163,97.71493040050512L183.8654397583008,96.53814328492982L184.56189975738525,96.59863618400419L185.25835975646973,98.04707646213919L185.95481975555418,98.23378497071587L186.6512797546387,96.71160753493669L187.34773975372315,96.82395300580862L188.04419975280763,98.09771440229378L188.74065975189208,98.58304195671766L189.43711975097656,99.14557552946042L190.13357975006105,96.82566621987272L190.83003974914553,99.68763539852696L191.52649974822998,97.96700094286467L192.22295974731443,96.10871000235562L192.91941974639892,99.21657048378839L193.6158797454834,98.52416679847781L194.31233974456788,97.32705979720728L195.00879974365233,98.51560072815732L195.7052597427368,99.6723808980677L196.40171974182127,97.92387886750521L197.09817974090578,98.01477999020022L197.79463973999023,99.03131528992861L198.4910997390747,98.0232346750862L199.18755973815917,98.6809762739916L199.88401973724365,99.52368134299974L200.58047973632813,100.63700528124713L201.2769397354126,100.48866109875593L201.97339973449706,98.71249835195732L202.66985973358155,100.5663550913593L203.366319732666,99.73475143732378L204.0627797317505,99.41048191712991L204.75923973083496,100.65237647120921L205.45569972991944,100.39179820328059L206.1521597290039,100.20102677837852L206.84861972808838,102.04254625489168L207.54507972717286,100.76240936829802L208.24153972625734,100.50798912367719L208.9379997253418,101.73524975328948L209.63445972442625,102.76649853850952L210.33091972351073,101.55913346912766L211.0273797225952,101.99192422694202L211.7238397216797,101.79446437190117L212.42029972076415,102.4568841590559L213.11675971984863,101.88666499133211L213.81321971893308,101.75773900292344L214.5096797180176,101.90223773588997L215.20613971710205,103.72232877643114L215.90259971618653,102.93706146315088L216.59905971527098,103.74678053133977L217.29551971435546,103.93291620053898L217.99197971343995,102.43330757541841L218.68843971252443,104.12840824623686L219.38489971160888,104.18232940467527L220.08135971069336,103.06281561871023L220.77781970977782,104.26497739708009L221.47427970886233,103.81568037868533L222.17073970794678,103.75188304505389L222.86719970703126,103.44906848117355L223.56365970611571,104.05707383153705L224.2601197052002,104.5734620099837L224.95657970428468,104.267714296328L225.65303970336916,103.57765500921039L226.3494997024536,104.98935931023104L227.04595970153807,104.73210138906441L227.74241970062255,104.64152911860461L228.43887969970703,104.56460951997448L229.1353396987915,104.24384598893346L229.83179969787597,104.73490193713204L230.52825969696045,104.23313707501578L231.2247196960449,104.56026548802868L231.9211796951294,104.9957666247494L232.61763969421386,105.35245461045335L233.31409969329835,105.25356025681532L234.0105596923828,104.92157331723055L234.70701969146728,105.1253556216968L235.40347969055176,105.14312955460326L236.09993968963624,105.46984425028799L236.7963996887207,105.78324043044657L237.49285968780518,105.51183655909745L238.18931968688963,105.84606181550899L238.88577968597414,105.73302681575677L239.5822396850586,105.74408579818291L240.27869968414308,105.97857865816346L240.97515968322753,105.84345221390052L241.671619682312,105.794458534922L242.3680796813965,105.82017796215669L243.06453968048098,105.88708878388604" fill="none"></path></g></g></g></g></g></g><g transform="translate(51, 177)" clip-path="url(#clip_1)"><clipPath id="clip_1"><rect width="278" height="22"></rect></clipPath><g><g><line x1="0" y1="0" x2="0" y2="5" style="visibility: inherit;" fill="rgb(0, 0, 0)" stroke="rgb(204, 204, 204)" stroke-width="1px"></line><line x1="34.82299995422363" y1="0" x2="34.82299995422363" y2="5" style="visibility: inherit;" fill="rgb(0, 0, 0)" stroke="rgb(204, 204, 204)" stroke-width="1px"></line><line x1="69.64599990844727" y1="0" x2="69.64599990844727" y2="5" style="visibility: inherit;" fill="rgb(0, 0, 0)" stroke="rgb(204, 204, 204)" stroke-width="1px"></line><line x1="104.4689998626709" y1="0" x2="104.4689998626709" y2="5" style="visibility: inherit;" fill="rgb(0, 0, 0)" stroke="rgb(204, 204, 204)" stroke-width="1px"></line><line x1="139.29199981689453" y1="0" x2="139.29199981689453" y2="5" style="visibility: inherit;" fill="rgb(0, 0, 0)" stroke="rgb(204, 204, 204)" stroke-width="1px"></line><line x1="174.11499977111816" y1="0" x2="174.11499977111816" y2="5" style="visibility: inherit;" fill="rgb(0, 0, 0)" stroke="rgb(204, 204, 204)" stroke-width="1px"></line><line x1="208.9379997253418" y1="0" x2="208.9379997253418" y2="5" style="visibility: inherit;" fill="rgb(0, 0, 0)" stroke="rgb(204, 204, 204)" stroke-width="1px"></line><line x1="243.76099967956543" y1="0" x2="243.76099967956543" y2="5" style="visibility: inherit;" fill="rgb(0, 0, 0)" stroke="rgb(204, 204, 204)" stroke-width="1px"></line><line x1="278.58399963378906" y1="0" x2="278.58399963378906" y2="5" style="visibility: inherit;" fill="rgb(0, 0, 0)" stroke="rgb(204, 204, 204)" stroke-width="1px"></line></g><g transform="translate(0, 8)"><text style="text-anchor: middle; visibility: hidden; font-family: &quot;Helvetica Neue&quot;, sans-serif; font-size: 12px; font-weight: 200;" x="0" y="0" dx="0em" dy="0.95em" fill="rgb(50, 49, 63)" stroke="none" stroke-width="1px">-50</text><text style="text-anchor: middle; visibility: inherit; font-family: &quot;Helvetica Neue&quot;, sans-serif; font-size: 12px; font-weight: 200;" x="34.82299995422363" y="0" dx="0em" dy="0.95em" fill="rgb(50, 49, 63)" stroke="none" stroke-width="1px">0</text><text style="text-anchor: middle; visibility: inherit; font-family: &quot;Helvetica Neue&quot;, sans-serif; font-size: 12px; font-weight: 200;" x="69.64599990844727" y="0" dx="0em" dy="0.95em" fill="rgb(50, 49, 63)" stroke="none" stroke-width="1px">50</text><text style="text-anchor: middle; visibility: inherit; font-family: &quot;Helvetica Neue&quot;, sans-serif; font-size: 12px; font-weight: 200;" x="104.4689998626709" y="0" dx="0em" dy="0.95em" fill="rgb(50, 49, 63)" stroke="none" stroke-width="1px">100</text><text style="text-anchor: middle; visibility: inherit; font-family: &quot;Helvetica Neue&quot;, sans-serif; font-size: 12px; font-weight: 200;" x="139.29199981689453" y="0" dx="0em" dy="0.95em" fill="rgb(50, 49, 63)" stroke="none" stroke-width="1px">150</text><text style="text-anchor: middle; visibility: inherit; font-family: &quot;Helvetica Neue&quot;, sans-serif; font-size: 12px; font-weight: 200;" x="174.11499977111816" y="0" dx="0em" dy="0.95em" fill="rgb(50, 49, 63)" stroke="none" stroke-width="1px">200</text><text style="text-anchor: middle; visibility: inherit; font-family: &quot;Helvetica Neue&quot;, sans-serif; font-size: 12px; font-weight: 200;" x="208.9379997253418" y="0" dx="0em" dy="0.95em" fill="rgb(50, 49, 63)" stroke="none" stroke-width="1px">250</text><text style="text-anchor: middle; visibility: inherit; font-family: &quot;Helvetica Neue&quot;, sans-serif; font-size: 12px; font-weight: 200;" x="243.76099967956543" y="0" dx="0em" dy="0.95em" fill="rgb(50, 49, 63)" stroke="none" stroke-width="1px">300</text><text style="text-anchor: middle; visibility: hidden; font-family: &quot;Helvetica Neue&quot;, sans-serif; font-size: 12px; font-weight: 200;" x="278.58399963378906" y="0" dx="0em" dy="0.95em" fill="rgb(50, 49, 63)" stroke="none" stroke-width="1px">350</text></g><line x1="0" y1="0" x2="278.58399963378906" y2="0" fill="rgb(0, 0, 0)" stroke="rgb(204, 204, 204)" stroke-width="1px"></line></g></g></g></g></svg>