<svg viewBox="0 0 330 200" xmlns="http://www.w3.org/2000/svg"><g><g><g><g><g><line x1="51.41600036621094" y1="177.9749994277954" x2="46.41600036621094" y2="177.9749994277954" style="visibility: inherit;" fill="rgb(0, 0, 0)" stroke="rgb(204, 204, 204)" stroke-width="1px"></line><line x1="51.41600036621094" y1="160.17749948501586" x2="46.41600036621094" y2="160.17749948501586" style="visibility: inherit;" fill="rgb(0, 0, 0)" stroke="rgb(204, 204, 204)" stroke-width="1px"></line><line x1="51.41600036621094" y1="142.3799995422363" x2="46.41600036621094" y2="142.3799995422363" style="visibility: inherit;" fill="rgb(0, 0, 0)" stroke="rgb(204, 204, 204)" stroke-width="1px"></line><line x1="51.41600036621094" y1="124.58249959945678" x2="46.41600036621094" y2="124.58249959945678" style="visibility: inherit;" fill="rgb(0, 0, 0)" stroke="rgb(204, 204, 204)" stroke-width="1px"></line><line x1="51.41600036621094" y1="106.78499965667724" x2="46.41600036621094" y2="106.78499965667724" style="visibility: inherit;" fill="rgb(0, 0, 0)" stroke="rgb(204, 204, 204)" stroke-width="1px"></line><line x1="51.41600036621094" y1="88.98749971389769" x2="46.41600036621094" y2="88.98749971389769" style="visibility: inherit;" fill="rgb(0, 0, 0)" stroke="rgb(204, 204, 204)" stroke-width="1px"></line><line x1="51.41600036621094" y1="71.18999977111817" x2="46.41600036621094" y2="71.18999977111817" style="visibility: inherit;" fill="rgb(0, 0, 0)" stroke="rgb(204, 204, 204)" stroke-width="1px"></line><line x1="51.41600036621094" y1="53.392499828338615" x2="46.41600036621094" y2="53.392499828338615" style="visibility: inherit;" fill="rgb(0, 0, 0)" stroke="rgb(204, 204, 204)" stroke-width="1px"></line><line x1="51.41600036621094" y1="35.594999885559105" x2="46.41600036621094" y2="35.594999885559105" style="visibility: inherit;" fill="rgb(0, 0, 0)" stroke="rgb(204, 204, 204)" stroke-width="1px"></line><line x1="51.41600036621094" y1="17.797499942779524" x2="46.41600036621094" y2="17.797499942779524" style="visibility: inherit;" fill="rgb(0, 0, 0)" stroke="rgb(204, 204, 204)" stroke-width="1px"></line><line x1="51.41600036621094" y1="0" x2="46.41600036621094" y2="0" style="visibility: inherit;" fill="rgb(0, 0, 0)" stroke="rgb(204, 204, 204)" stroke-width="1px"></line></g><g transform="translate(41.41600036621094, 0)"><text style="text-anchor: end; visibility: hidden; font-family: &quot;Helvetica Neue&quot;, sans-serif; font-size: 12px; font-weight: 200;" x="0" y="177.9749994277954" dx="0em" dy="0.3em" fill="rgb(50, 49, 63)" stroke="none" stroke-width="1px">0.3</text><text style="text-anchor: end; visibility: inherit; font-family: &quot;Helvetica Neue&quot;, sans-serif; font-size: 12px; font-weight: 200;" x="0" y="160.17749948501586" dx="0em" dy="0.3em" fill="rgb(50, 49, 63)" stroke="none" stroke-width="1px">0.35</text><text style="text-anchor: end; visibility: hidden; font-family: &quot;Helvetica Neue&quot;, sans-serif; font-size: 12px; font-weight: 200;" x="0" y="142.3799995422363" dx="0em" dy="0.3em" fill="rgb(50, 49, 63)" stroke="none" stroke-width="1px">0.4</text><text style="text-anchor: end; visibility: inherit; font-family: &quot;Helvetica Neue&quot;, sans-serif; font-size: 12px; font-weight: 200;" x="0" y="124.58249959945678" dx="0em" dy="0.3em" fill="rgb(50, 49, 63)" stroke="none" stroke-width="1px">0.45</text><text style="text-anchor: end; visibility: hidden; font-family: &quot;Helvetica Neue&quot;, sans-serif; font-size: 12px; font-weight: 200;" x="0" y="106.78499965667724" dx="0em" dy="0.3em" fill="rgb(50, 49, 63)" stroke="none" stroke-width="1px">0.5</text><text style="text-anchor: end; visibility: inherit; font-family: &quot;Helvetica Neue&quot;, sans-serif; font-size: 12px; font-weight: 200;" x="0" y="88.98749971389769" dx="0em" dy="0.3em" fill="rgb(50, 49, 63)" stroke="none" stroke-width="1px">0.55</text><text style="text-anchor: end; visibility: hidden; font-family: &quot;Helvetica Neue&quot;, sans-serif; font-size: 12px; font-weight: 200;" x="0" y="71.18999977111817" dx="0em" dy="0.3em" fill="rgb(50, 49, 63)" stroke="none" stroke-width="1px">0.6</text><text style="text-anchor: end; visibility: inherit; font-family: &quot;Helvetica Neue&quot;, sans-serif; font-size: 12px; font-weight: 200;" x="0" y="53.392499828338615" dx="0em" dy="0.3em" fill="rgb(50, 49, 63)" stroke="none" stroke-width="1px">0.65</text><text style="text-anchor: end; visibility: hidden; font-family: &quot;Helvetica Neue&quot;, sans-serif; font-size: 12px; font-weight: 200;" x="0" y="35.594999885559105" dx="0em" dy="0.3em" fill="rgb(50, 49, 63)" stroke="none" stroke-width="1px">0.7</text><text style="text-anchor: end; visibility: inherit; font-family: &quot;Helvetica Neue&quot;, sans-serif; font-size: 12px; font-weight: 200;" x="0" y="17.797499942779524" dx="0em" dy="0.3em" fill="rgb(50, 49, 63)" stroke="none" stroke-width="1px">0.75</text><text style="text-anchor: end; visibility: hidden; font-family: &quot;Helvetica Neue&quot;, sans-serif; font-size: 12px; font-weight: 200;" x="0" y="0" dx="0em" dy="0.3em" fill="rgb(50, 49, 63)" stroke="none" stroke-width="1px">0.8</text></g><line x1="51.41600036621094" y1="0" x2="51.41600036621094" y2="177.9749994277954" fill="rgb(0, 0, 0)" stroke="rgb(204, 204, 204)" stroke-width="1px"></line></g></g><g transform="translate(51, 0)" clip-path="url(#clip_0)"><clipPath id="clip_0"><rect width="278" height="177"></rect></clipPath><g><g><g><line x1="0" y1="0" x2="0" y2="177.9749994277954" fill="rgb(0, 0, 0)" stroke="rgb(60, 60, 60)" stroke-width="1px" opacity="0.25"></line><line x1="34.82299995422363" y1="0" x2="34.82299995422363" y2="177.9749994277954" fill="rgb(0, 0, 0)" stroke="rgb(60, 60, 60)" stroke-width="1px" opacity="0.25"></line><line x1="69.64599990844727" y1="0" x2="69.64599990844727" y2="177.9749994277954" fill="rgb(0, 0, 0)" stroke="rgb(60, 60, 60)" stroke-width="1px" opacity="0.25"></line><line x1="104.4689998626709" y1="0" x2="104.4689998626709" y2="177.9749994277954" fill="rgb(0, 0, 0)" stroke="rgb(60, 60, 60)" stroke-width="1px" opacity="0.25"></line><line x1="139.29199981689453" y1="0" x2="139.29199981689453" y2="177.9749994277954" fill="rgb(0, 0, 0)" stroke="rgb(60, 60, 60)" stroke-width="1px" opacity="0.25"></line><line x1="174.11499977111816" y1="0" x2="174.11499977111816" y2="177.9749994277954" fill="rgb(0, 0, 0)" stroke="rgb(60, 60, 60)" stroke-width="1px" opacity="0.25"></line><line x1="208.9379997253418" y1="0" x2="208.9379997253418" y2="177.9749994277954" fill="rgb(0, 0, 0)" stroke="rgb(60, 60, 60)" stroke-width="1px" opacity="0.25"></line><line x1="243.76099967956543" y1="0" x2="243.76099967956543" y2="177.9749994277954" fill="rgb(0, 0, 0)" stroke="rgb(60, 60, 60)" stroke-width="1px" opacity="0.25"></line><line x1="278.58399963378906" y1="0" x2="278.58399963378906" y2="177.9749994277954" fill="rgb(0, 0, 0)" stroke="rgb(60, 60, 60)" stroke-width="1px" opacity="0.25"></line></g><g><line x1="0" y1="177.9749994277954" x2="278.58399963378906" y2="177.9749994277954" fill="rgb(0, 0, 0)" stroke="rgb(60, 60, 60)" stroke-width="1px" opacity="0.25"></line><line x1="0" y1="160.17749948501586" x2="278.58399963378906" y2="160.17749948501586" fill="rgb(0, 0, 0)" stroke="rgb(60, 60, 60)" stroke-width="1px" opacity="0.25"></line><line x1="0" y1="142.3799995422363" x2="278.58399963378906" y2="142.3799995422363" fill="rgb(0, 0, 0)" stroke="rgb(60, 60, 60)" stroke-width="1px" opacity="0.25"></line><line x1="0" y1="124.58249959945678" x2="278.58399963378906" y2="124.58249959945678" fill="rgb(0, 0, 0)" stroke="rgb(60, 60, 60)" stroke-width="1px" opacity="0.25"></line><line x1="0" y1="106.78499965667724" x2="278.58399963378906" y2="106.78499965667724" fill="rgb(0, 0, 0)" stroke="rgb(60, 60, 60)" stroke-width="1px" opacity="0.25"></line><line x1="0" y1="88.98749971389769" x2="278.58399963378906" y2="88.98749971389769" fill="rgb(0, 0, 0)" stroke="rgb(60, 60, 60)" stroke-width="1px" opacity="0.25"></line><line x1="0" y1="71.18999977111817" x2="278.58399963378906" y2="71.18999977111817" fill="rgb(0, 0, 0)" stroke="rgb(60, 60, 60)" stroke-width="1px" opacity="0.25"></line><line x1="0" y1="53.392499828338615" x2="278.58399963378906" y2="53.392499828338615" fill="rgb(0, 0, 0)" stroke="rgb(60, 60, 60)" stroke-width="1px" opacity="0.25"></line><line x1="0" y1="35.594999885559105" x2="278.58399963378906" y2="35.594999885559105" fill="rgb(0, 0, 0)" stroke="rgb(60, 60, 60)" stroke-width="1px" opacity="0.25"></line><line x1="0" y1="17.797499942779524" x2="278.58399963378906" y2="17.797499942779524" fill="rgb(0, 0, 0)" stroke="rgb(60, 60, 60)" stroke-width="1px" opacity="0.25"></line><line x1="0" y1="0" x2="278.58399963378906" y2="0" fill="rgb(0, 0, 0)" stroke="rgb(60, 60, 60)" stroke-width="1px" opacity="0.25"></line></g></g></g><g><g><line x1="0" y1="284.75999908447267" x2="278.58399963378906" y2="284.75999908447267" fill="rgb(0, 0, 0)" stroke="rgb(153, 153, 153)" stroke-width="1.5px"></line></g></g><g><g><line x1="34.82299995422363" y1="0" x2="34.82299995422363" y2="177.9749994277954" fill="rgb(0, 0, 0)" stroke="rgb(153, 153, 153)" stroke-width="1.5px"></line></g></g><g><g><g><g><g><path style="fill: none;" stroke="rgb(51, 187, 238)" stroke-width="2px" d="M41.09113994598388,184.09734332887885L41.78759994506836,176.93562056666994L42.48405994415283,170.42173670783185L43.18051994323731,163.62309863770864L43.876979942321775,159.52255525173712L44.57343994140625,153.57107236393404L45.269899940490724,149.05761786817362L45.9663599395752,147.51991542445137L46.66281993865967,141.05586859145308L47.35927993774414,137.81671650714543L48.05573993682861,133.34599158568955L48.75219993591308,134.09348332446672L49.44865993499756,124.0699292893796L50.14511993408203,124.44012143300056L50.8415799331665,120.5602697212672L51.538039932250975,117.61300051605319L52.23449993133545,115.84748833842086L52.930959930419924,115.06439569314766L53.6274199295044,111.29844354430104L54.323879928588866,113.64771087198402L55.02033992767334,111.77541719113684L55.716799926757815,107.66775574549341L56.41325992584229,111.17742592174243L57.10971992492676,104.49268741450594L57.806179924011225,104.91981342736533L58.5026399230957,103.01904750783062L59.199099922180174,108.69289424402045L59.89555992126465,100.45620656558133L60.592019920349124,103.83061239179135L61.28847991943359,104.52826710472873L61.984939918518066,101.4315186464052L62.68139991760254,99.85109723651503L63.377859916687015,103.83774105959985L64.07431991577148,101.72339091736221L64.77077991485596,102.7200465690651L65.46723991394043,99.30293238482379L66.1636999130249,98.71916662663652L66.86015991210937,99.82973244936277L67.55661991119385,104.32183276610753L68.25307991027832,100.5914603074837L68.9495399093628,100.89758991405772L69.64599990844727,100.44909911404606L70.34245990753173,97.33096465229703L71.03891990661621,101.31760847538185L71.73537990570068,109.76074110057878L72.43183990478516,104.66354206290434L73.12829990386963,107.14094507281781L73.8247599029541,109.95294992799283L74.52121990203858,107.16942791964196L75.21767990112305,104.77032356611919L75.91413990020753,103.8875568691664L76.610599899292,103.88044941763114L77.30705989837647,100.23551489134313L78.00351989746095,104.07266885318181L78.6999798965454,107.88132936005972L79.39643989562988,103.7238308885765L80.09289989471435,101.01860753661633L80.78935989379882,103.73093834011176L81.4858198928833,104.68488563378337L82.18227989196777,104.05130406602954L82.87873989105225,105.2330504854746L83.57519989013672,104.82726804349424L84.27165988922118,102.84106419162372L84.96811988830567,102.19324650452613L85.66457988739013,102.5491919206667L86.36103988647461,103.45330218849851L87.05749988555908,105.83105236300564L87.75395988464355,107.43282795191145L88.45041988372803,102.83395674008845L89.1468798828125,109.51157718765306L89.84333988189698,104.42861426932238L90.53979988098145,105.20457824678708L91.23625988006592,104.17232168858816L91.9327198791504,102.97633914979933L92.62917987823486,103.34652068528366L93.32563987731935,101.65931777217865L94.02209987640381,98.56967676539038L94.71855987548828,106.6355097954311L95.41501987457276,106.52870707594302L96.11147987365722,106.15852554045868L96.8079398727417,107.99522892294645L97.50439987182617,106.48599871791173L98.20085987091063,100.09313248163225L98.89731986999512,104.25063095311548L99.59377986907958,107.9738747439308L100.29023986816406,104.10114109186934L100.98669986724853,104.4499578402014L101.683159866333,111.58320836372279L102.37961986541748,108.17320163101674L103.07607986450195,102.17901038518237L103.77253986358643,100.27111579783916L104.4689998626709,99.253095358984L105.16545986175537,102.34986503358077L105.86191986083985,102.27155576905345L106.55837985992432,100.27822324937442L107.2548398590088,97.5160554200392L107.95129985809326,105.19747079525182L108.64775985717773,100.0361880042572L109.34421985626221,105.1191615307245L110.04067985534668,103.24684663360408L110.73713985443116,101.56677238830757L111.43359985351563,102.48511877548314L112.1300598526001,99.87956947520256L112.82651985168458,106.26530704367353L113.52297985076903,101.97255483028793L114.21943984985352,97.84352859749224L114.91589984893798,96.65465351023867L115.61235984802245,99.78702409133147L116.30881984710693,100.89046124624922L117.0052798461914,95.45154230364135L117.70173984527588,102.93363079176804L118.39819984436035,94.76812371004773L119.09465984344482,98.33474897180842L119.7911198425293,96.9180747587814L120.48757984161377,100.95453439143277L121.18403984069825,98.65509348145297L121.88049983978271,97.48758318135167L122.57695983886718,96.4695627424965L123.27341983795166,101.50269924312401L123.96987983703613,93.57924862279417L124.66633983612061,98.09982117822646L125.36279983520508,100.47044268492509L126.05925983428955,98.36322121049595L126.75571983337403,99.80838887848374L127.4521798324585,98.11405729757023L128.14863983154297,103.07599198520568L128.84509983062745,92.49717625502869L129.54155982971193,92.2266475549507L130.23801982879638,91.8279725645056L130.93447982788086,98.44865914283177L131.63093982696532,93.84264865506366L132.3273998260498,91.436426241869L133.02385982513428,103.01194005629536L133.72031982421873,92.03442811940003L134.41677982330322,92.57548551955601L135.1132398223877,93.25177544534112L135.80969982147215,89.1441139996977L136.50615982055663,94.80372461654376L137.20261981964111,98.19236656209755L137.8990798187256,93.6148495292902L138.59553981781005,88.54611212216666L139.29199981689453,89.15835011904146L139.98845981597898,97.31672853295326L140.68491981506347,91.76389941932204L141.38137981414795,88.00507593828392L142.07783981323243,90.81708079345894L142.77429981231688,91.42931879033374L143.47075981140136,92.68937447430612L144.16721981048582,91.56457253223611L144.86367980957033,86.77349249299907L145.56013980865478,91.19439099675178L146.25659980773926,84.73745161528875L146.95305980682372,87.9338953415651L147.6495198059082,85.76260072195241L148.34597980499268,90.95233453536132L149.04243980407716,92.76768373883344L149.73889980316162,90.90962617733003L150.4353598022461,83.69808760555456L151.13181980133055,91.91341049684142L151.82827980041506,83.41332278613281L152.5247397994995,84.98661552821447L153.221199798584,89.1512426675062L153.91765979766845,83.41332278613281L154.61411979675293,86.0260007542219L155.3105797958374,86.99418416723726L156.0070397949219,81.7261198730278L156.70349979400635,87.47827587374495L157.3999597930908,81.8969745214262L158.09641979217528,84.8513617863121L158.79287979125976,81.30610131170367L159.48933979034425,80.82200960519599L160.1857997894287,85.37105439931581L160.88225978851318,80.25247996635248L161.57871978759763,83.15703020539858L162.27517978668214,80.48740775993444L162.9716397857666,79.97484381473923L163.66809978485108,79.25582431464959L164.36455978393553,78.75749648879814L165.06101978302001,80.20977160832119L165.7574797821045,81.76172077952383L166.45393978118898,82.93635974743363L167.15039978027343,76.80689354342364L167.8468597793579,77.97440384352494L168.54331977844237,76.88520280795096L169.23977977752688,73.26874052035048L169.93623977661133,77.53302049504855L170.6326997756958,76.01667223034194L171.32915977478027,76.39398243363478L172.02561977386475,73.31857754619027L172.72207977294923,75.51123695295523L173.4185397720337,69.96553650713251L174.11499977111816,73.1761951364794L174.81145977020262,72.19377560412026L175.5079197692871,72.20090427192876L176.20437976837158,73.06230618172928L176.90083976745606,74.58576189797115L177.59729976654052,73.46808862370965L178.293759765625,67.36709465838719L178.99021976470945,69.6238272103357L179.68667976379396,67.80134933905508L180.38313976287841,65.11749077424717L181.0795997619629,66.34196676799677L181.77605976104735,66.79758623581692L182.47251976013183,63.72216013209918L183.1689797592163,67.87255115204714L183.8654397583008,65.60871114856336L184.56189975738525,65.57311024206733L185.25835975646973,66.3704390066843L185.95481975555418,61.18781264481065L186.6512797546387,62.6329590965252L187.34773975372315,62.44073966097453L188.04419975280763,60.88881170604513L188.74065975189208,61.956647954466845L189.43711975097656,60.73219317699049L190.13357975006105,61.444084009271634L190.83003974914553,60.91728394473266L191.52649974822998,56.752678021714175L192.22295974731443,57.46456885399532L192.91941974639892,57.64255217020222L193.6158797454834,55.05121777299216L194.31233974456788,54.951564937585815L195.00879974365233,53.79116208901978L195.7052597427368,52.88705182118797L196.40171974182127,54.21830931815241L197.09817974090578,51.121539643555636L197.79463973999023,53.897943592234625L198.4910997390747,51.67681194678214L199.18755973815917,51.982941553356156L199.88401973724365,50.94355632734873L200.58047973632813,48.81499128204055L201.2769397354126,48.67971632386494L201.97339973449706,48.92888023679066L202.66985973358155,45.931784613873475L203.366319732666,46.92844026557637L204.0627797317505,46.323330936510075L204.75923973083496,43.48996129418279L205.45569972991944,46.08129569139285L206.1521597290039,44.37272799113558L206.84861972808838,43.68930939754196L207.54507972717286,43.73201775557325L208.24153972625734,40.62101196163272L208.9379997253418,41.42546939405818L209.63445972442625,40.75626570353509L210.33091972351073,39.06195533889482L211.0273797225952,38.24326178712559L211.7238397216797,36.776750548258775L212.42029972076415,38.56362751304337L213.11675971984863,33.58743548979092L213.81321971893308,35.30311064158346L214.5096797180176,36.01502269013784L215.20613971710205,33.95050957373999L215.90259971618653,33.181653047810556L216.59905971527098,33.9078012157087L217.29551971435546,31.530051041201574L217.99197971343995,30.93204916367054L218.68843971252443,29.36588508939738L219.38489971160888,29.40859344742867L220.08135971069336,27.892245182722064L220.77781970977782,27.493570192276962L221.47427970886233,28.710917518218054L222.17073970794678,27.63595260198784L222.86719970703126,26.909825650362933L223.56365970611571,25.037531969515754L224.2601197052002,25.158549592074365L224.95657970428468,23.37880129509827L225.65303970336916,24.183237511250496L226.3494997024536,22.973018853117907L227.04595970153807,23.76321894992637L227.74241970062255,21.826852123895634L228.43887969970703,21.10783262380599L229.1353396987915,20.374577004372583L229.83179969787597,20.474251056052168L230.52825969696045,19.62708526559541L231.2247196960449,19.869120510712634L231.9211796951294,18.95790279134556L232.61763969421386,18.416845391189582L233.31409969329835,19.34944911398216L234.0105596923828,19.007739817185353L234.70701969146728,18.76568335579489L235.40347969055176,16.544551710342404L236.09993968963624,16.985935058818797L236.7963996887207,17.868680539498342L237.49285968780518,16.971698939475033L238.18931968688963,16.786608171732865L238.88577968597414,16.316752584568945L239.5822396850586,16.53744425880714L240.27869968414308,15.797059971565233L240.97515968322753,15.106512710163116L241.671619682312,15.191950642498938L242.3680796813965,16.209971081354098L243.06453968048098,15.362805290897342" fill="none"></path></g><g><path style="fill: none;" stroke="rgb(0, 119, 187)" stroke-width="2px" d="M40.39467994689941,181.35652967855927L41.09113994598388,176.83595712312697L41.78759994506836,170.00171814650773L42.48405994415283,164.34211813779828L43.18051994323731,157.54346945953847L43.876979942321775,153.87718075423481L44.57343994140625,149.03626368915798L45.269899940490724,142.70035253839018L45.9663599395752,142.09524320932388L46.66281993865967,135.04743061813832L47.35927993774414,132.19982485646727L48.05573993682861,126.29106093483209L48.75219993591308,126.00629611541034L49.44865993499756,118.92289322586537L50.14511993408203,121.37895266489981L50.8415799331665,116.53802499168636L51.538039932250975,112.97852839773417L52.23449993133545,112.6225829815936L52.930959930419924,110.94961618783235L53.6274199295044,108.92070397793053L54.323879928588866,108.95629427628994L55.02033992767334,106.39345333404064L55.716799926757815,106.92738206638812L56.41325992584229,106.0731088243961L57.10971992492676,102.01526318831922L57.806179924011225,102.51359101417067L58.5026399230957,103.1187215595102L59.199099922180174,107.53249139545441L59.89555992126465,99.27446014613626L60.592019920349124,102.12204469153407L61.28847991943359,102.9407382433033L61.984939918518066,99.23885923964023L62.68139991760254,99.73718706549168L63.377859916687015,103.04751974651815L64.07431991577148,98.70493050729276L64.77077991485596,99.27446014613626L65.46723991394043,99.45242224606993L66.1636999130249,100.55588061726091L66.86015991210937,98.27780449443337L67.55661991119385,102.90513733680727L68.25307991027832,103.01194005629536L68.9495399093628,99.84396856870653L69.64599990844727,99.95075007192138L70.34245990753173,95.50137932948114L71.03891990661621,101.9440825916004L71.73537990570068,105.46797827905657L72.43183990478516,102.335628914237L73.12829990386963,102.08646500131128L73.8247599029541,105.32559586934569L74.52121990203858,110.16652354255915L75.21767990112305,101.97968349809643L75.91413990020753,102.335628914237L76.610599899292,99.9863509784174L77.30705989837647,98.27780449443337L78.00351989746095,104.7204865402794L78.6999798965454,103.79501148529532L79.39643989562988,103.04751974651815L80.09289989471435,97.49471184916017L80.78935989379882,101.5525362689638L81.4858198928833,99.91517038169859L82.18227989196777,103.154301249733L82.87873989105225,99.84396856870653L83.57519989013672,104.43572172085764L84.27165988922118,100.9830066301203L84.96811988830567,98.88291382349966L85.66457988739013,99.38124164935111L86.36103988647461,100.73384271719458L87.05749988555908,102.08646500131128L87.75395988464355,101.69491867867468L88.45041988372803,100.69826302697179L89.1468798828125,105.21881436613084L89.84333988189698,100.52027971076488L90.53979988098145,102.86955764658448L91.23625988006592,102.40680951095582L91.9327198791504,97.95743876851559L92.62917987823486,99.41684255584714L93.32563987731935,99.02529623321054L94.02209987640381,96.60483770067212L94.71855987548828,104.79168835327145L95.41501987457276,104.07977630471707L96.11147987365722,102.19324650452613L96.8079398727417,103.29668365944387L97.50439987182617,99.38124164935111L98.20085987091063,100.91182603340148L98.89731986999512,101.01860753661633L99.59377986907958,99.73718706549168L100.29023986816406,97.67267394909383L100.98669986724853,101.80170018188953L101.683159866333,105.85952460169317L102.37961986541748,104.86286894999027L103.07607986450195,96.64041739089491L103.77253986358643,97.60149335237502L104.4689998626709,96.78279980060579L105.16545986175537,99.9863509784174L105.86191986083985,97.60149335237502L106.55837985992432,96.99638402330872L107.2548398590088,95.64376173919202L107.95129985809326,103.65262907558444L108.64775985717773,98.98969532671451L109.34421985626221,106.10868851461889L110.04067985534668,101.83730108838556L110.73713985443116,99.45242224606993L111.43359985351563,99.45242224606993L112.1300598526001,96.49803498118403L112.82651985168458,103.68822998208047L113.52297985076903,103.68822998208047L114.21943984985352,97.77945545230868L114.91589984893798,94.07757644864562L115.61235984802245,98.91851472999569L116.30881984710693,97.70827485558986L117.0052798461914,94.1843791681337L117.70173984527588,103.36788547243593L118.39819984436035,94.1843791681337L119.09465984344482,96.99638402330872L119.7911198425293,93.18770230015757L120.48757984161377,99.34564074285508L121.18403984069825,97.45911094266414L121.88049983978271,96.24887106825831L122.57695983886718,97.03196371353151L123.27341983795166,96.32007288125037L123.96987983703613,94.3979421745634L124.66633983612061,94.32674036157134L125.36279983520508,96.64041739089491L126.05925983428955,95.75054324240686L126.75571983337403,95.67936264568804L127.4521798324585,97.95743876851559L128.14863983154297,100.52027971076488L128.84509983062745,91.8351012323141L129.54155982971193,91.47915581617353L130.23801982879638,93.25890411314963L130.93447982788086,97.56589244587899L131.63093982696532,92.831756884017L132.3273998260498,92.11986605173585L133.02385982513428,99.13207773642539L133.72031982421873,92.01308454852101L134.41677982330322,90.34011775475976L135.1132398223877,92.26224846144673L135.80969982147215,90.6604622644043L136.50615982055663,93.54366893257138L137.20261981964111,94.54032458427427L137.8990798187256,92.40460965488437L138.59553981781005,88.38238614157676L139.29199981689453,90.55368076118945L139.98845981597898,93.36568561636447L140.68491981506347,91.62153822588441L141.38137981414795,88.45356673829558L142.07783981323243,90.51807985469343L142.77429981231688,89.6638066127014L143.47075981140136,94.25555976485252L144.16721981048582,92.36902996466158L144.86367980957033,86.85180175752639L145.56013980865478,91.79950032581807L146.25659980773926,86.17549061546804L146.95305980682372,87.95523891244413L147.6495198059082,87.56369258980753L148.34597980499268,90.16213443855285L149.04243980407716,91.97748364202498L149.73889980316162,91.51473550639632L150.4353598022461,84.50252382170679L151.13181980133055,94.32674036157134L151.82827980041506,87.3145286768818L152.5247397994995,88.66715096099851L153.221199798584,90.01975202884198L153.91765979766845,84.00419599585534L154.61411979675293,91.90628182903292L155.3105797958374,91.01640768054487L156.0070397949219,84.21778021855827L156.70349979400635,88.95189456414703L157.3999597930908,85.53478037990571L158.09641979217528,86.17549061546804L158.79287979125976,84.60930532492164L159.48933979034425,82.08206528916837L160.1857997894287,88.097621322155L160.88225978851318,85.92632670254231L161.57871978759763,81.9041031892347L162.27517978668214,85.35681827997205L162.9716397857666,82.43801070530894L163.66809978485108,82.43801070530894L164.36455978393553,82.2956495118713L165.06101978302001,84.39574231849194L165.7574797821045,84.0753978088474L166.45393978118898,85.14323405726911L167.15039978027343,81.79730046974662L167.8468597793579,85.14323405726911L168.54331977844237,82.43801070530894L169.23977977752688,80.37351880518433L169.93623977661133,80.62268271811006L170.6326997756958,84.03979690235137L171.32915977478027,84.89407014434339L172.02561977386475,79.80398916634083L172.72207977294923,82.18884679238322L173.4185397720337,77.16996762737271L174.11499977111816,78.41578719200133L174.81145977020262,79.44804375020026L175.5079197692871,79.12767802428247L176.20437976837158,79.23445952749732L176.90083976745606,82.75837643122672L177.59729976654052,78.70055201142308L178.293759765625,76.10211016267776L178.99021976470945,77.06316490788463L179.68667976379396,74.10879885927197L180.38313976287841,73.9664164495611L181.0795997619629,72.4002311590147L181.77605976104735,72.96973958158496L182.47251976013183,73.1833238042879L183.1689797592163,75.10545451097487L183.8654397583008,74.07319795277594L184.56189975738525,75.95972775296688L185.25835975646973,75.17663510769368L185.95481975555418,72.54261356872557L186.6512797546387,72.36463025251867L187.34773975372315,73.14772289779187L188.04419975280763,69.41024298763277L188.74065975189208,69.48144480062483L189.43711975097656,71.15441159438608L190.13357975006105,75.28341661090853L190.83003974914553,74.7495090948343L191.52649974822998,69.73060871355055L192.22295974731443,68.59157065213678L192.91941974639892,70.47810045232772L193.6158797454834,67.63049469065668L194.31233974456788,69.90857081348422L195.00879974365233,66.38467512602806L195.7052597427368,68.73395306184766L196.40171974182127,67.31015018101213L197.09817974090578,65.42362038082119L197.79463973999023,68.23562523599621L198.4910997390747,67.41693168422698L199.18755973815917,67.8796586035824L199.88401973724365,66.02872970988749L200.58047973632813,67.16776777130126L201.2769397354126,64.03539719020846L201.97339973449706,65.35241856782913L202.66985973358155,63.00314063200953L203.366319732666,64.49814532583711L204.0627797317505,63.10994335149762L204.75923973083496,62.71839702886102L205.45569972991944,64.96087224519253L206.1521597290039,62.00648498030664L206.84861972808838,64.39136382262227L207.54507972717286,63.64385086757186L208.24153972625734,61.79292197387694L208.9379997253418,61.40137565124034L209.63445972442625,59.408064347834554L210.33091972351073,61.00982932860374L211.0273797225952,59.30126162834647L211.7238397216797,60.903047825388896L212.42029972076415,60.65388391246317L213.11675971984863,58.83853470899105L213.81321971893308,59.08769862191677L214.5096797180176,57.5571142378664L215.20613971710205,57.09438731851098L215.90259971618653,56.88080309580805L216.59905971527098,58.80293380249502L217.29551971435546,59.408064347834554L217.99197971343995,58.30460597664357L218.68843971252443,57.84187905728815L219.38489971160888,57.414731828155524L220.08135971069336,56.631639182882324L220.77781970977782,55.91974835060118L221.47427970886233,55.67058443767546L222.17073970794678,56.7740215925932L222.86719970703126,55.88414744410515L223.56365970611571,54.17557974384788L224.2601197052002,54.602726972980506L224.95657970428468,54.211180650343906L225.65303970336916,54.85189088590623L226.3494997024536,54.06879824063303L227.04595970153807,53.96201673741818L227.74241970062255,54.70950847619535L228.43887969970703,52.644995359797505L229.1353396987915,52.289049943656934L229.83179969787597,52.85857958250044L230.52825969696045,52.92976017921926L231.2247196960449,52.14666753394606L231.9211796951294,52.253470253434145L232.61763969421386,52.32465085015296L233.31409969329835,51.29239429195404L234.0105596923828,51.505957298383734L234.70701969146728,52.07548693722724L235.40347969055176,51.36357488867286L236.09993968963624,51.71954152108667L236.7963996887207,50.79406646610259L237.49285968780518,51.505957298383734L238.18931968688963,52.07548693722724L238.88577968597414,51.64833970809461L239.5822396850586,51.54155820487976L240.27869968414308,50.75846555960656L240.97515968322753,51.00762947253229L241.671619682312,50.9720497823095L242.3680796813965,50.79406646610259L243.06453968048098,50.75846555960656" fill="none"></path></g></g></g></g></g></g><g transform="translate(51, 177)" clip-path="url(#clip_1)"><clipPath id="clip_1"><rect width="278" height="22"></rect></clipPath><g><g><line x1="0" y1="0" x2="0" y2="5" style="visibility: inherit;" fill="rgb(0, 0, 0)" stroke="rgb(204, 204, 204)" stroke-width="1px"></line><line x1="34.82299995422363" y1="0" x2="34.82299995422363" y2="5" style="visibility: inherit;" fill="rgb(0, 0, 0)" stroke="rgb(204, 204, 204)" stroke-width="1px"></line><line x1="69.64599990844727" y1="0" x2="69.64599990844727" y2="5" style="visibility: inherit;" fill="rgb(0, 0, 0)" stroke="rgb(204, 204, 204)" stroke-width="1px"></line><line x1="104.4689998626709" y1="0" x2="104.4689998626709" y2="5" style="visibility: inherit;" fill="rgb(0, 0, 0)" stroke="rgb(204, 204, 204)" stroke-width="1px"></line><line x1="139.29199981689453" y1="0" x2="139.29199981689453" y2="5" style="visibility: inherit;" fill="rgb(0, 0, 0)" stroke="rgb(204, 204, 204)" stroke-width="1px"></line><line x1="174.11499977111816" y1="0" x2="174.11499977111816" y2="5" style="visibility: inherit;" fill="rgb(0, 0, 0)" stroke="rgb(204, 204, 204)" stroke-width="1px"></line><line x1="208.9379997253418" y1="0" x2="208.9379997253418" y2="5" style="visibility: inherit;" fill="rgb(0, 0, 0)" stroke="rgb(204, 204, 204)" stroke-width="1px"></line><line x1="243.76099967956543" y1="0" x2="243.76099967956543" y2="5" style="visibility: inherit;" fill="rgb(0, 0, 0)" stroke="rgb(204, 204, 204)" stroke-width="1px"></line><line x1="278.58399963378906" y1="0" x2="278.58399963378906" y2="5" style="visibility: inherit;" fill="rgb(0, 0, 0)" stroke="rgb(204, 204, 204)" stroke-width="1px"></line></g><g transform="translate(0, 8)"><text style="text-anchor: middle; visibility: hidden; font-family: &quot;Helvetica Neue&quot;, sans-serif; font-size: 12px; font-weight: 200;" x="0" y="0" dx="0em" dy="0.95em" fill="rgb(50, 49, 63)" stroke="none" stroke-width="1px">-50</text><text style="text-anchor: middle; visibility: inherit; font-family: &quot;Helvetica Neue&quot;, sans-serif; font-size: 12px; font-weight: 200;" x="34.82299995422363" y="0" dx="0em" dy="0.95em" fill="rgb(50, 49, 63)" stroke="none" stroke-width="1px">0</text><text style="text-anchor: middle; visibility: inherit; font-family: &quot;Helvetica Neue&quot;, sans-serif; font-size: 12px; font-weight: 200;" x="69.64599990844727" y="0" dx="0em" dy="0.95em" fill="rgb(50, 49, 63)" stroke="none" stroke-width="1px">50</text><text style="text-anchor: middle; visibility: inherit; font-family: &quot;Helvetica Neue&quot;, sans-serif; font-size: 12px; font-weight: 200;" x="104.4689998626709" y="0" dx="0em" dy="0.95em" fill="rgb(50, 49, 63)" stroke="none" stroke-width="1px">100</text><text style="text-anchor: middle; visibility: inherit; font-family: &quot;Helvetica Neue&quot;, sans-serif; font-size: 12px; font-weight: 200;" x="139.29199981689453" y="0" dx="0em" dy="0.95em" fill="rgb(50, 49, 63)" stroke="none" stroke-width="1px">150</text><text style="text-anchor: middle; visibility: inherit; font-family: &quot;Helvetica Neue&quot;, sans-serif; font-size: 12px; font-weight: 200;" x="174.11499977111816" y="0" dx="0em" dy="0.95em" fill="rgb(50, 49, 63)" stroke="none" stroke-width="1px">200</text><text style="text-anchor: middle; visibility: inherit; font-family: &quot;Helvetica Neue&quot;, sans-serif; font-size: 12px; font-weight: 200;" x="208.9379997253418" y="0" dx="0em" dy="0.95em" fill="rgb(50, 49, 63)" stroke="none" stroke-width="1px">250</text><text style="text-anchor: middle; visibility: inherit; font-family: &quot;Helvetica Neue&quot;, sans-serif; font-size: 12px; font-weight: 200;" x="243.76099967956543" y="0" dx="0em" dy="0.95em" fill="rgb(50, 49, 63)" stroke="none" stroke-width="1px">300</text><text style="text-anchor: middle; visibility: hidden; font-family: &quot;Helvetica Neue&quot;, sans-serif; font-size: 12px; font-weight: 200;" x="278.58399963378906" y="0" dx="0em" dy="0.95em" fill="rgb(50, 49, 63)" stroke="none" stroke-width="1px">350</text></g><line x1="0" y1="0" x2="278.58399963378906" y2="0" fill="rgb(0, 0, 0)" stroke="rgb(204, 204, 204)" stroke-width="1px"></line></g></g></g></g></svg>