<svg viewBox="0 0 330 200" xmlns="http://www.w3.org/2000/svg"><g><g><g><g><g><line x1="51.41600036621094" y1="177.9749994277954" x2="46.41600036621094" y2="177.9749994277954" style="visibility: inherit;" fill="rgb(0, 0, 0)" stroke="rgb(204, 204, 204)" stroke-width="1px"></line><line x1="51.41600036621094" y1="152.54999950953894" x2="46.41600036621094" y2="152.54999950953894" style="visibility: inherit;" fill="rgb(0, 0, 0)" stroke="rgb(204, 204, 204)" stroke-width="1px"></line><line x1="51.41600036621094" y1="127.12499959128243" x2="46.41600036621094" y2="127.12499959128243" style="visibility: inherit;" fill="rgb(0, 0, 0)" stroke="rgb(204, 204, 204)" stroke-width="1px"></line><line x1="51.41600036621094" y1="101.69999967302596" x2="46.41600036621094" y2="101.69999967302596" style="visibility: inherit;" fill="rgb(0, 0, 0)" stroke="rgb(204, 204, 204)" stroke-width="1px"></line><line x1="51.41600036621094" y1="76.27499975476947" x2="46.41600036621094" y2="76.27499975476947" style="visibility: inherit;" fill="rgb(0, 0, 0)" stroke="rgb(204, 204, 204)" stroke-width="1px"></line><line x1="51.41600036621094" y1="50.84999983651298" x2="46.41600036621094" y2="50.84999983651298" style="visibility: inherit;" fill="rgb(0, 0, 0)" stroke="rgb(204, 204, 204)" stroke-width="1px"></line><line x1="51.41600036621094" y1="25.424999918256503" x2="46.41600036621094" y2="25.424999918256503" style="visibility: inherit;" fill="rgb(0, 0, 0)" stroke="rgb(204, 204, 204)" stroke-width="1px"></line><line x1="51.41600036621094" y1="0" x2="46.41600036621094" y2="0" style="visibility: inherit;" fill="rgb(0, 0, 0)" stroke="rgb(204, 204, 204)" stroke-width="1px"></line></g><g transform="translate(41.41600036621094, 0)"><text style="text-anchor: end; visibility: hidden; font-family: &quot;Helvetica Neue&quot;, sans-serif; font-size: 12px; font-weight: 200;" x="0" y="177.9749994277954" dx="0em" dy="0.3em" fill="rgb(50, 49, 63)" stroke="none" stroke-width="1px">-0.5</text><text style="text-anchor: end; visibility: inherit; font-family: &quot;Helvetica Neue&quot;, sans-serif; font-size: 12px; font-weight: 200;" x="0" y="152.54999950953894" dx="0em" dy="0.3em" fill="rgb(50, 49, 63)" stroke="none" stroke-width="1px">0</text><text style="text-anchor: end; visibility: inherit; font-family: &quot;Helvetica Neue&quot;, sans-serif; font-size: 12px; font-weight: 200;" x="0" y="127.12499959128243" dx="0em" dy="0.3em" fill="rgb(50, 49, 63)" stroke="none" stroke-width="1px">0.5</text><text style="text-anchor: end; visibility: inherit; font-family: &quot;Helvetica Neue&quot;, sans-serif; font-size: 12px; font-weight: 200;" x="0" y="101.69999967302596" dx="0em" dy="0.3em" fill="rgb(50, 49, 63)" stroke="none" stroke-width="1px">1</text><text style="text-anchor: end; visibility: inherit; font-family: &quot;Helvetica Neue&quot;, sans-serif; font-size: 12px; font-weight: 200;" x="0" y="76.27499975476947" dx="0em" dy="0.3em" fill="rgb(50, 49, 63)" stroke="none" stroke-width="1px">1.5</text><text style="text-anchor: end; visibility: inherit; font-family: &quot;Helvetica Neue&quot;, sans-serif; font-size: 12px; font-weight: 200;" x="0" y="50.84999983651298" dx="0em" dy="0.3em" fill="rgb(50, 49, 63)" stroke="none" stroke-width="1px">2</text><text style="text-anchor: end; visibility: inherit; font-family: &quot;Helvetica Neue&quot;, sans-serif; font-size: 12px; font-weight: 200;" x="0" y="25.424999918256503" dx="0em" dy="0.3em" fill="rgb(50, 49, 63)" stroke="none" stroke-width="1px">2.5</text><text style="text-anchor: end; visibility: hidden; font-family: &quot;Helvetica Neue&quot;, sans-serif; font-size: 12px; font-weight: 200;" x="0" y="0" dx="0em" dy="0.3em" fill="rgb(50, 49, 63)" stroke="none" stroke-width="1px">3</text></g><line x1="51.41600036621094" y1="0" x2="51.41600036621094" y2="177.9749994277954" fill="rgb(0, 0, 0)" stroke="rgb(204, 204, 204)" stroke-width="1px"></line></g></g><g transform="translate(51, 0)" clip-path="url(#clip_0)"><clipPath id="clip_0"><rect width="278" height="177"></rect></clipPath><g><g><g><line x1="0" y1="0" x2="0" y2="177.9749994277954" fill="rgb(0, 0, 0)" stroke="rgb(60, 60, 60)" stroke-width="1px" opacity="0.25"></line><line x1="34.82299995422363" y1="0" x2="34.82299995422363" y2="177.9749994277954" fill="rgb(0, 0, 0)" stroke="rgb(60, 60, 60)" stroke-width="1px" opacity="0.25"></line><line x1="69.64599990844727" y1="0" x2="69.64599990844727" y2="177.9749994277954" fill="rgb(0, 0, 0)" stroke="rgb(60, 60, 60)" stroke-width="1px" opacity="0.25"></line><line x1="104.4689998626709" y1="0" x2="104.4689998626709" y2="177.9749994277954" fill="rgb(0, 0, 0)" stroke="rgb(60, 60, 60)" stroke-width="1px" opacity="0.25"></line><line x1="139.29199981689453" y1="0" x2="139.29199981689453" y2="177.9749994277954" fill="rgb(0, 0, 0)" stroke="rgb(60, 60, 60)" stroke-width="1px" opacity="0.25"></line><line x1="174.11499977111816" y1="0" x2="174.11499977111816" y2="177.9749994277954" fill="rgb(0, 0, 0)" stroke="rgb(60, 60, 60)" stroke-width="1px" opacity="0.25"></line><line x1="208.9379997253418" y1="0" x2="208.9379997253418" y2="177.9749994277954" fill="rgb(0, 0, 0)" stroke="rgb(60, 60, 60)" stroke-width="1px" opacity="0.25"></line><line x1="243.76099967956543" y1="0" x2="243.76099967956543" y2="177.9749994277954" fill="rgb(0, 0, 0)" stroke="rgb(60, 60, 60)" stroke-width="1px" opacity="0.25"></line><line x1="278.58399963378906" y1="0" x2="278.58399963378906" y2="177.9749994277954" fill="rgb(0, 0, 0)" stroke="rgb(60, 60, 60)" stroke-width="1px" opacity="0.25"></line></g><g><line x1="0" y1="177.9749994277954" x2="278.58399963378906" y2="177.9749994277954" fill="rgb(0, 0, 0)" stroke="rgb(60, 60, 60)" stroke-width="1px" opacity="0.25"></line><line x1="0" y1="152.54999950953894" x2="278.58399963378906" y2="152.54999950953894" fill="rgb(0, 0, 0)" stroke="rgb(60, 60, 60)" stroke-width="1px" opacity="0.25"></line><line x1="0" y1="127.12499959128243" x2="278.58399963378906" y2="127.12499959128243" fill="rgb(0, 0, 0)" stroke="rgb(60, 60, 60)" stroke-width="1px" opacity="0.25"></line><line x1="0" y1="101.69999967302596" x2="278.58399963378906" y2="101.69999967302596" fill="rgb(0, 0, 0)" stroke="rgb(60, 60, 60)" stroke-width="1px" opacity="0.25"></line><line x1="0" y1="76.27499975476947" x2="278.58399963378906" y2="76.27499975476947" fill="rgb(0, 0, 0)" stroke="rgb(60, 60, 60)" stroke-width="1px" opacity="0.25"></line><line x1="0" y1="50.84999983651298" x2="278.58399963378906" y2="50.84999983651298" fill="rgb(0, 0, 0)" stroke="rgb(60, 60, 60)" stroke-width="1px" opacity="0.25"></line><line x1="0" y1="25.424999918256503" x2="278.58399963378906" y2="25.424999918256503" fill="rgb(0, 0, 0)" stroke="rgb(60, 60, 60)" stroke-width="1px" opacity="0.25"></line><line x1="0" y1="0" x2="278.58399963378906" y2="0" fill="rgb(0, 0, 0)" stroke="rgb(60, 60, 60)" stroke-width="1px" opacity="0.25"></line></g></g></g><g><g><line x1="0" y1="152.54999950953894" x2="278.58399963378906" y2="152.54999950953894" fill="rgb(0, 0, 0)" stroke="rgb(153, 153, 153)" stroke-width="1.5px"></line></g></g><g><g><line x1="34.82299995422363" y1="0" x2="34.82299995422363" y2="177.9749994277954" fill="rgb(0, 0, 0)" stroke="rgb(153, 153, 153)" stroke-width="1.5px"></line></g></g><g><g><g><g><g><path style="fill: none;" stroke="rgb(238, 51, 119)" stroke-width="2px" d="M39.69821994781494,-3.891452466851149L40.39467994689941,1.1040221178799356L41.09113994598388,5.92962103367779L41.78759994506836,9.425662785266525L42.48405994415283,14.537426794519945L43.18051994323731,19.43239686201889L43.876979942321775,23.791213519376413L44.57343994140625,25.940931189104447L45.269899940490724,28.83047849207398L45.9663599395752,31.57050562483562L46.66281993865967,35.61406058543753L47.35927993774414,37.346593581767024L48.05573993682861,40.08769971356767L48.75219993591308,40.787085068222154L49.44865993499756,44.56230872847448L50.14511993408203,46.03707006673534L50.8415799331665,48.252267217473104L51.538039932250975,49.919866294104736L52.23449993133545,52.549835524884074L52.930959930419924,53.369383789375235L53.6274199295044,54.524628052647884L54.323879928588866,54.16567901839582L55.02033992767334,56.12184365825526L55.716799926757815,57.30320818478201L56.41325992584229,56.174235729572345L57.10971992492676,58.14346353195502L57.806179924011225,58.08313051265398L58.5026399230957,60.58882087658819L59.199099922180174,57.09851358056646L59.89555992126465,61.35823205651802L60.592019920349124,60.99830101190459L61.28847991943359,59.1228612608256L61.984939918518066,61.57107370965757L62.68139991760254,62.60985881822194L63.377859916687015,61.24948350168425L64.07431991577148,61.142311012862564L64.77077991485596,60.65451858212266L65.46723991394043,63.26043462084067L66.1636999130249,63.162718528091474L66.86015991210937,62.76314942327414L67.55661991119385,59.60409483223829L68.25307991027832,62.51462199854561L68.9495399093628,61.172474491616896L69.64599990844727,62.97091735621325L70.34245990753173,64.891966032965L71.03891990661621,60.95703232955741L71.73537990570068,56.25534857306346L72.43183990478516,59.74677123887834L73.12829990386963,58.67166993232016L73.8247599029541,57.41869745271363L74.52121990203858,58.17663365971703L75.21767990112305,61.158720284765295L75.91413990020753,59.407504844400265L76.610599899292,59.962892321681494L77.30705989837647,62.82509487934138L78.00351989746095,60.47310732233947L78.6999798965454,57.719938223754L79.39643989562988,60.74637898345772L80.09289989471435,62.76016095964353L80.78935989379882,60.19561059195037L81.4858198928833,60.22824122019286L82.18227989196777,60.90427048890673L82.87873989105225,60.85233911380858L83.57519989013672,60.190064051946294L84.27165988922118,60.94781234338673L84.96811988830567,60.77933088669498L85.66457988739013,60.63642413194546L86.36103988647461,60.45725573533332L87.05749988555908,59.59797848375294L87.75395988464355,58.29842112990461L88.45041988372803,60.18003178560015L89.1468798828125,57.979892127070144L89.84333988189698,60.37049936316046L90.53979988098145,58.73998633215163L91.23625988006592,59.586242853755266L91.9327198791504,61.25895808313382L92.62917987823486,60.252930900451375L93.32563987731935,62.1934924867912L94.02209987640381,63.75948379998226L94.71855987548828,56.91514436185288L95.41501987457276,58.2825392339367L96.11147987365722,58.84977145347797L96.8079398727417,58.394615712772904L97.50439987182617,59.78235395999731L98.20085987091063,62.23493089932428L98.89731986999512,60.394613173145345L99.59377986907958,58.75986294928096L100.29023986816406,59.970051298451764L100.98669986724853,60.839797265427805L101.683159866333,56.38525278321329L102.37961986541748,57.26928033297574L103.07607986450195,60.64424384408234L103.77253986358643,63.1622275229108L104.4689998626709,63.34326901336037L105.16545986175537,61.71931484167875L105.86191986083985,61.04083660885378L106.55837985992432,63.55299490522988L107.2548398590088,64.94399439674082L107.95129985809326,60.550158764953295L108.64775985717773,63.25126312900882L109.34421985626221,60.35575102236278L110.04067985534668,60.17013287868579L110.73713985443116,61.622956590416905L111.43359985351563,61.38038790757251L112.1300598526001,63.6166376631563L112.82651985168458,58.72618969275355L113.52297985076903,61.81276949440296L114.21943984985352,64.25445945466186L114.91589984893798,63.9511516124287L115.61235984802245,63.38801716451884L116.30881984710693,62.336944802852585L117.0052798461914,65.5234471896681L117.70173984527588,61.70410580466215L118.39819984436035,66.02701240411355L119.09465984344482,63.074155741797085L119.7911198425293,65.17956170941615L120.48757984161377,62.45821095889771L121.18403984069825,63.22450637755752L121.88049983978271,64.48877803811222L122.57695983886718,65.89471984777619L123.27341983795166,62.308563491050364L123.96987983703613,66.06183740118824L124.66633983612061,64.91401883354946L125.36279983520508,62.94426365523198L126.05925983428955,64.15143929360276L126.75571983337403,62.919040537246275L127.4521798324585,63.98679495147121L128.14863983154297,61.01670461349184L128.84509983062745,66.86432172020243L129.54155982971193,66.4177191685091L130.23801982879638,67.3578728536788L130.93447982788086,63.97524723703653L131.63093982696532,66.75309389229581L132.3273998260498,68.35541958885776L133.02385982513428,60.38051344412955L133.72031982421873,67.29449075282362L134.41677982330322,67.46843388442646L135.1132398223877,66.35961082700204L135.80969982147215,69.56545033142736L136.50615982055663,65.4068061811892L137.20261981964111,63.96543319521513L137.8990798187256,66.98420578759081L138.59553981781005,69.53596577341669L139.29199981689453,68.80520458153703L139.98845981597898,64.94791637639398L140.68491981506347,68.44584940719723L141.38137981414795,69.80428495018158L142.07783981323243,67.60034454784552L142.77429981231688,67.90087608918046L143.47075981140136,66.54264058534379L144.16721981048582,67.49467538352766L144.86367980957033,70.98401885456506L145.56013980865478,67.83392359262868L146.25659980773926,71.68990245062322L146.95305980682372,70.20380556066009L147.6495198059082,71.01495824274073L148.34597980499268,68.21728952648333L149.04243980407716,67.03391854668735L149.73889980316162,67.82913477666888L150.4353598022461,72.29972482324489L151.13181980133055,67.51168477287345L151.82827980041506,71.84041069298486L152.5247397994995,71.86667643925547L153.221199798584,68.97055815337401L153.91765979766845,72.99852218404102L154.61411979675293,71.74462831199665L155.3105797958374,70.28936169794682L156.0070397949219,73.2932828990548L156.70349979400635,69.81573567593861L157.3999597930908,73.71358939551575L158.09641979217528,71.06972653666064L158.79287979125976,74.2573867258158L159.48933979034425,74.19818119989266L160.1857997894287,70.73411540297214L160.88225978851318,74.54957117907907L161.57871978759763,72.66998516202982L162.27517978668214,74.27793620189644L162.9716397857666,75.26256525756867L163.66809978485108,75.45540905773181L164.36455978393553,75.29288634292422L165.06101978302001,75.36537325589536L165.7574797821045,74.70352251949787L166.45393978118898,73.09373475654795L167.15039978027343,77.38117987072746L167.8468597793579,75.9629386843769L168.54331977844237,76.04117217649978L169.23977977752688,78.38897709677732L169.93623977661133,76.34031556738562L170.6326997756958,77.12942757246651L171.32915977478027,76.62288601797516L172.02561977386475,78.66890460590045L172.72207977294923,77.41818711304965L173.4185397720337,80.44818008307291L174.11499977111816,78.30995557164839L174.81145977020262,78.56708467972749L175.5079197692871,79.59427357951833L176.20437976837158,79.5945827309284L176.90083976745606,78.32520097941912L177.59729976654052,79.14096062368893L178.293759765625,81.8470174720978L178.99021976470945,80.45340534808221L179.68667976379396,81.76563790974309L180.38313976287841,83.15753454652246L181.0795997619629,82.79796114765792L181.77605976104735,82.3928333792518L182.47251976013183,83.76684166679401L183.1689797592163,81.57801937458923L183.8654397583008,83.86372123219833L184.56189975738525,82.44925654248439L185.25835975646973,82.74299281459032L185.95481975555418,85.8065620524633L186.6512797546387,84.73641323025848L187.34773975372315,84.39957155272207L188.04419975280763,85.89910743633439L188.74065975189208,85.31297454823282L189.43711975097656,85.76264436685736L190.13357975006105,85.6457851338537L190.83003974914553,86.56080662792303L191.52649974822998,88.27891862024194L192.22295974731443,87.17892759427754L192.91941974639892,87.68531760396003L193.6158797454834,89.1766882532713L194.31233974456788,88.74731331544851L195.00879974365233,89.34457565431234L195.7052597427368,90.17608383511828L196.40171974182127,89.67490696686036L197.09817974090578,90.90872418262774L197.79463973999023,89.30407075780178L198.4910997390747,90.1178057634253L199.18755973815917,90.45579918150901L199.88401973724365,91.41451407486716L200.58047973632813,91.96231824991332L201.2769397354126,92.62044098401299L201.97339973449706,92.74311347588429L202.66985973358155,94.14091429841662L203.366319732666,92.85803899712697L204.0627797317505,93.3827962376426L204.75923973083496,94.86355875033405L205.45569972991944,94.19761024230515L206.1521597290039,94.8884969640791L206.84861972808838,95.77824078403154L207.54507972717286,95.69218757977177L208.24153972625734,96.95962349593535L208.9379997253418,95.97183018465424L209.63445972442625,96.94201398914649L210.33091972351073,98.13365325371355L211.0273797225952,98.71366979332976L211.7238397216797,98.9879234648094L212.42029972076415,98.45360677775125L213.11675971984863,100.06449778690964L213.81321971893308,99.7606443833646L214.5096797180176,99.60634752078161L215.20613971710205,100.33304731178399L215.90259971618653,101.00462116311756L216.59905971527098,100.78882135530918L217.29551971435546,101.81032732476798L217.99197971343995,102.02115949374212L218.68843971252443,102.8541861535328L219.38489971160888,102.84517226830214L220.08135971069336,103.39588913457447L220.77781970977782,103.90964422196728L221.47427970886233,103.4304322583047L222.17073970794678,104.22002920677393L222.86719970703126,104.36382704499951L223.56365970611571,105.23891042014338L224.2601197052002,105.49395427165265L224.95657970428468,105.6832670777695L225.65303970336916,105.75880307229478L226.3494997024536,106.24195520098758L227.04595970153807,106.11396045542932L227.74241970062255,106.58459498291074L228.43887969970703,107.03393746474816L229.1353396987915,107.50420828468833L229.83179969787597,107.71703781424318L230.52825969696045,107.99465881137554L231.2247196960449,107.83867980141427L231.9211796951294,108.28035108502749L232.61763969421386,108.38762359342303L233.31409969329835,108.49287146317226L234.0105596923828,108.60080167603823L234.70701969146728,108.85742462445575L235.40347969055176,109.22397211542376L236.09993968963624,109.2012585794727L236.7963996887207,109.38112711310174L237.49285968780518,109.69623726504847L238.18931968688963,109.53685455868032L238.88577968597414,109.69570685821748L239.5822396850586,109.63169433095746L240.27869968414308,110.14574341527944L240.97515968322753,109.8326609328752L241.671619682312,109.88258282380795L242.3680796813965,110.02822041601301L243.06453968048098,109.82650821363572" fill="none"></path></g><g><path style="fill: none;" stroke="rgb(204, 51, 17)" stroke-width="2px" d="M39.69821994781494,-1.4940984558706418L40.39467994689941,4.709964164849737L41.09113994598388,8.984352178298394L41.78759994506836,12.965991991794851L42.48405994415283,17.753995671412156L43.18051994323731,22.82107214743064L43.876979942321775,27.134910305520208L44.57343994140625,29.378100813349533L45.269899940490724,33.664442681320565L45.9663599395752,35.49749231846687L46.66281993865967,39.92198243418943L47.35927993774414,41.11005736485225L48.05573993682861,44.78763767386363L48.75219993591308,46.03240248662263L49.44865993499756,48.81768696110046L50.14511993408203,49.239527091027014L50.8415799331665,51.048947861576764L51.538039932250975,53.24338943529385L52.23449993133545,55.60107507710869L52.930959930419924,55.24501145601721L53.6274199295044,57.26292757458857L54.323879928588866,57.91789817666407L55.02033992767334,57.83734301806953L55.716799926757815,59.45196202952573L56.41325992584229,59.058333481215485L57.10971992492676,60.56394934255903L57.806179924011225,60.3221262601742L58.5026399230957,61.684702007336455L59.199099922180174,58.23675451628567L59.89555992126465,62.703640807733265L60.592019920349124,61.33780381628448L61.28847991943359,61.48255941770201L61.984939918518066,63.05123004311362L62.68139991760254,63.579103044899284L63.377859916687015,62.26470642336797L64.07431991577148,62.96006068610693L64.77077991485596,63.4628560529234L65.46723991394043,64.47255668177247L66.1636999130249,64.26050912343132L66.86015991210937,65.34675200433647L67.55661991119385,61.53519396071326L68.25307991027832,61.76516623904568L68.9495399093628,62.79844117836011L69.64599990844727,63.59451212106357L70.34245990753173,66.0326801799647L71.03891990661621,61.33817358561808L71.73537990570068,58.44382534310405L72.43183990478516,61.350369911834676L73.12829990386963,61.103157896046994L73.8247599029541,59.7961627229801L74.52121990203858,58.5962491118496L75.21767990112305,62.19180124672438L75.91413990020753,61.04963833135204L76.610599899292,62.502759070908496L77.30705989837647,63.367722283717086L78.00351989746095,60.942787117525114L78.6999798965454,60.996924985040195L79.39643989562988,61.71014941163925L80.09289989471435,64.6485002048522L80.78935989379882,62.490532435730145L81.4858198928833,62.93231586250191L82.18227989196777,62.330198027962396L82.87873989105225,63.14901887737106L83.57519989013672,60.79272138600534L84.27165988922118,61.580693774123645L84.96811988830567,63.726962284002155L85.66457988739013,63.25868276285031L86.36103988647461,62.3050537132773L87.05749988555908,61.92193025111682L87.75395988464355,62.0526467414421L88.45041988372803,63.35710202351258L89.1468798828125,59.67096852548947L89.84333988189698,62.23562800544502L90.53979988098145,61.40208306240808L91.23625988006592,61.538473390376865L91.9327198791504,64.57691649894183L92.62917987823486,62.842322493211924L93.32563987731935,65.20867043630086L94.02209987640381,65.76382756547264L94.71855987548828,59.79374406783079L95.41501987457276,60.889273614622525L96.11147987365722,61.75439443403232L96.8079398727417,61.45226864130824L97.50439987182617,63.05727971188308L98.20085987091063,63.59178431450421L98.89731986999512,60.883787692542L99.59377986907958,63.33704355261264L100.29023986816406,64.13635149243325L100.98669986724853,62.05537454800148L101.683159866333,59.200294596357736L102.37961986541748,60.97542986935231L103.07607986450195,64.67974268264558L103.77253986358643,65.03916453670126L104.4689998626709,65.05807126705392L105.16545986175537,64.06552551056714L105.86191986083985,64.52937386150809L106.55837985992432,64.78990363509787L107.2548398590088,66.44652480577611L107.95129985809326,62.02089507309097L108.64775985717773,65.45280306157262L109.34421985626221,61.32192798210892L110.04067985534668,62.61538717284894L110.73713985443116,63.62023230602232L111.43359985351563,63.14248426521327L112.1300598526001,65.77444782567714L112.82651985168458,60.75851469175076L113.52297985076903,62.59407997272403L114.21943984985352,65.36297336067621L114.91589984893798,66.71947519189959L115.61235984802245,65.37302987419177L116.30881984710693,64.25964834891703L117.0052798461914,66.55754047095034L117.70173984527588,62.48557995137678L118.39819984436035,67.94800652473411L119.09465984344482,65.28356994262897L119.7911198425293,67.02160704641604L120.48757984161377,62.248897268908294L121.18403984069825,64.37388282583132L121.88049983978271,65.2320628929956L122.57695983886718,66.3549735558511L123.27341983795166,65.25271541954625L123.96987983703613,67.71772509499162L124.66633983612061,65.85303896354893L125.36279983520508,65.21729636682085L126.05925983428955,65.93710996170888L126.75571983337403,66.80420692542614L127.4521798324585,64.46734960214023L128.14863983154297,61.898077098203174L128.84509983062745,67.94485439270996L129.54155982971193,67.69088347844738L130.23801982879638,68.17641486063917L130.93447982788086,65.63162593602058L131.63093982696532,68.00571478794579L132.3273998260498,67.9055133603314L133.02385982513428,64.29067866397801L133.72031982421873,67.69299298218662L134.41677982330322,68.71846639474123L135.1132398223877,67.7376744536292L135.80969982147215,68.94991775040808L136.50615982055663,67.36453476347603L137.20261981964111,67.35655138294558L137.8990798187256,68.29609888887987L138.59553981781005,70.95063656407066L139.29199981689453,68.10907440937672L139.98845981597898,65.9886109495499L140.68491981506347,69.16195924695687L141.38137981414795,70.26486599504362L142.07783981323243,68.7920868628826L142.77429981231688,69.3946957026028L143.47075981140136,66.58370922854328L144.16721981048582,68.71778747399756L144.86367980957033,71.0393387715892L145.56013980865478,68.08973729176692L146.25659980773926,70.77105596557843L146.95305980682372,69.99510411169844L147.6495198059082,71.51638364448516L148.34597980499268,69.29894363057636L149.04243980407716,67.44661749374382L149.73889980316162,68.2793501566053L150.4353598022461,72.22546786690633L151.13181980133055,66.75521551961977L151.82827980041506,70.98946234409911L152.5247397994995,70.64567385252482L153.221199798584,69.68324914224591L153.91765979766845,72.17239081305323L154.61411979675293,69.64061655661905L155.3105797958374,70.66184065273339L156.0070397949219,72.28384292727696L156.70349979400635,70.22580380511337L157.3999597930908,73.42840631242156L158.09641979217528,71.8273111597075L158.79287979125976,72.54188130420918L159.48933979034425,73.73706065551109L160.1857997894287,70.49031011448749L160.88225978851318,72.14524610689126L161.57871978759763,73.20889062590007L162.27517978668214,72.96729789162471L162.9716397857666,74.00137298752988L163.66809978485108,73.97934443411484L164.36455978393553,73.87580295891328L165.06101978302001,73.62021354609215L165.7574797821045,72.9137843887221L166.45393978118898,71.55177238824879L167.15039978027343,74.42110967550954L167.8468597793579,73.25205058746175L168.54331977844237,73.39459969646236L169.23977977752688,74.94049616799937L169.93623977661133,74.23078151917336L170.6326997756958,73.66006376902844L171.32915977478027,73.82302293288555L172.02561977386475,75.75948674759395L172.72207977294923,74.72116233524851L173.4185397720337,76.79887197360138L174.11499977111816,75.85897288371055L174.81145977020262,76.13380242546383L175.5079197692871,76.35373637565775L176.20437976837158,75.75417055569935L176.90083976745606,73.89394590342931L177.59729976654052,76.53462632129848L178.293759765625,77.89211622467558L178.99021976470945,77.65570632286303L179.68667976379396,78.59004674916507L180.38313976287841,78.65287722691603L181.0795997619629,78.87930941851361L181.77605976104735,79.43190240951958L182.47251976013183,79.15563016118601L183.1689797592163,77.88351454132501L183.8654397583008,77.8248060823749L184.56189975738525,78.37279211119169L185.25835975646973,78.16481201552018L185.95481975555418,79.80726677746672L186.6512797546387,79.63163846758941L187.34773975372315,78.29666812280804L188.04419975280763,80.13803453906426L188.74065975189208,80.03763913409453L189.43711975097656,80.13720407351174L190.13357975006105,79.34259402276562L190.83003974914553,78.66668598989882L191.52649974822998,81.90408318531993L192.22295974731443,80.95883759457274L192.91941974639892,80.48227766506511L193.6158797454834,81.68975639305361L194.31233974456788,81.45343741812637L195.00879974365233,82.17980987234162L195.7052597427368,82.66271043665172L196.40171974182127,83.01320327056972L197.09817974090578,83.41919787528248L197.79463973999023,82.6674871290268L198.4910997390747,83.18316986638823L199.18755973815917,82.96347232609612L199.88401973724365,83.35711299799108L200.58047973632813,82.71886688102073L201.2769397354126,83.82490757575458L201.97339973449706,83.69163300905585L202.66985973358155,84.4451198604713L203.366319732666,84.6386971375093L204.0627797317505,84.52950607183367L204.75923973083496,84.8927711022419L205.45569972991944,83.47234160885147L206.1521597290039,85.20492309951977L206.84861972808838,85.17198331986722L207.54507972717286,84.5702110074919L208.24153972625734,85.75018738356955L208.9379997253418,85.22430871146841L209.63445972442625,86.24958814666768L210.33091972351073,85.99895727999225L211.0273797225952,86.69015315317627L211.7238397216797,86.79776209104746L212.42029972076415,86.30351991324271L213.11675971984863,87.28612433026865L213.81321971893308,87.48569671994493L214.5096797180176,87.11912195091132L215.20613971710205,88.06774395999979L215.90259971618653,88.17175825500496L216.59905971527098,87.30964408460282L217.29551971435546,88.19360495464937L217.99197971343995,87.554964821176L218.68843971252443,88.26362471813238L219.38489971160888,88.14131593380232L220.08135971069336,88.36380189857735L220.77781970977782,88.34941726532091L221.47427970886233,89.22532807512113L222.17073970794678,88.46585823465213L222.86719970703126,89.43124109959987L223.56365970611571,88.99242188928929L224.2601197052002,89.65211462760868L224.95657970428468,89.52714471643516L225.65303970336916,89.15676314180314L226.3494997024536,89.340702168998L227.04595970153807,89.73981663938879L227.74241970062255,89.8113821599221L228.43887969970703,90.12138222091426L229.1353396987915,90.23090668516937L229.83179969787597,90.61889776659024L230.52825969696045,90.491006071502L231.2247196960449,90.21036933267345L231.9211796951294,90.46711654783422L232.61763969421386,90.81903996474782L233.31409969329835,90.94517374005335L234.0105596923828,90.68591694285793L234.70701969146728,90.98413894130593L235.40347969055176,91.03493676123387L236.09993968963624,91.04790293507943L236.7963996887207,90.98012603476747L237.49285968780518,91.02655330240805L238.18931968688963,90.86402452580809L238.88577968597414,91.08992934147088L239.5822396850586,90.97568880276422L240.27869968414308,91.18232924232547L240.97515968322753,91.24241372813998L241.671619682312,91.19111277944666L242.3680796813965,91.2533734487163L243.06453968048098,91.21153495788784" fill="none"></path></g></g></g></g></g></g><g transform="translate(51, 177)" clip-path="url(#clip_1)"><clipPath id="clip_1"><rect width="278" height="22"></rect></clipPath><g><g><line x1="0" y1="0" x2="0" y2="5" style="visibility: inherit;" fill="rgb(0, 0, 0)" stroke="rgb(204, 204, 204)" stroke-width="1px"></line><line x1="34.82299995422363" y1="0" x2="34.82299995422363" y2="5" style="visibility: inherit;" fill="rgb(0, 0, 0)" stroke="rgb(204, 204, 204)" stroke-width="1px"></line><line x1="69.64599990844727" y1="0" x2="69.64599990844727" y2="5" style="visibility: inherit;" fill="rgb(0, 0, 0)" stroke="rgb(204, 204, 204)" stroke-width="1px"></line><line x1="104.4689998626709" y1="0" x2="104.4689998626709" y2="5" style="visibility: inherit;" fill="rgb(0, 0, 0)" stroke="rgb(204, 204, 204)" stroke-width="1px"></line><line x1="139.29199981689453" y1="0" x2="139.29199981689453" y2="5" style="visibility: inherit;" fill="rgb(0, 0, 0)" stroke="rgb(204, 204, 204)" stroke-width="1px"></line><line x1="174.11499977111816" y1="0" x2="174.11499977111816" y2="5" style="visibility: inherit;" fill="rgb(0, 0, 0)" stroke="rgb(204, 204, 204)" stroke-width="1px"></line><line x1="208.9379997253418" y1="0" x2="208.9379997253418" y2="5" style="visibility: inherit;" fill="rgb(0, 0, 0)" stroke="rgb(204, 204, 204)" stroke-width="1px"></line><line x1="243.76099967956543" y1="0" x2="243.76099967956543" y2="5" style="visibility: inherit;" fill="rgb(0, 0, 0)" stroke="rgb(204, 204, 204)" stroke-width="1px"></line><line x1="278.58399963378906" y1="0" x2="278.58399963378906" y2="5" style="visibility: inherit;" fill="rgb(0, 0, 0)" stroke="rgb(204, 204, 204)" stroke-width="1px"></line></g><g transform="translate(0, 8)"><text style="text-anchor: middle; visibility: hidden; font-family: &quot;Helvetica Neue&quot;, sans-serif; font-size: 12px; font-weight: 200;" x="0" y="0" dx="0em" dy="0.95em" fill="rgb(50, 49, 63)" stroke="none" stroke-width="1px">-50</text><text style="text-anchor: middle; visibility: inherit; font-family: &quot;Helvetica Neue&quot;, sans-serif; font-size: 12px; font-weight: 200;" x="34.82299995422363" y="0" dx="0em" dy="0.95em" fill="rgb(50, 49, 63)" stroke="none" stroke-width="1px">0</text><text style="text-anchor: middle; visibility: inherit; font-family: &quot;Helvetica Neue&quot;, sans-serif; font-size: 12px; font-weight: 200;" x="69.64599990844727" y="0" dx="0em" dy="0.95em" fill="rgb(50, 49, 63)" stroke="none" stroke-width="1px">50</text><text style="text-anchor: middle; visibility: inherit; font-family: &quot;Helvetica Neue&quot;, sans-serif; font-size: 12px; font-weight: 200;" x="104.4689998626709" y="0" dx="0em" dy="0.95em" fill="rgb(50, 49, 63)" stroke="none" stroke-width="1px">100</text><text style="text-anchor: middle; visibility: inherit; font-family: &quot;Helvetica Neue&quot;, sans-serif; font-size: 12px; font-weight: 200;" x="139.29199981689453" y="0" dx="0em" dy="0.95em" fill="rgb(50, 49, 63)" stroke="none" stroke-width="1px">150</text><text style="text-anchor: middle; visibility: inherit; font-family: &quot;Helvetica Neue&quot;, sans-serif; font-size: 12px; font-weight: 200;" x="174.11499977111816" y="0" dx="0em" dy="0.95em" fill="rgb(50, 49, 63)" stroke="none" stroke-width="1px">200</text><text style="text-anchor: middle; visibility: inherit; font-family: &quot;Helvetica Neue&quot;, sans-serif; font-size: 12px; font-weight: 200;" x="208.9379997253418" y="0" dx="0em" dy="0.95em" fill="rgb(50, 49, 63)" stroke="none" stroke-width="1px">250</text><text style="text-anchor: middle; visibility: inherit; font-family: &quot;Helvetica Neue&quot;, sans-serif; font-size: 12px; font-weight: 200;" x="243.76099967956543" y="0" dx="0em" dy="0.95em" fill="rgb(50, 49, 63)" stroke="none" stroke-width="1px">300</text><text style="text-anchor: middle; visibility: hidden; font-family: &quot;Helvetica Neue&quot;, sans-serif; font-size: 12px; font-weight: 200;" x="278.58399963378906" y="0" dx="0em" dy="0.95em" fill="rgb(50, 49, 63)" stroke="none" stroke-width="1px">350</text></g><line x1="0" y1="0" x2="278.58399963378906" y2="0" fill="rgb(0, 0, 0)" stroke="rgb(204, 204, 204)" stroke-width="1px"></line></g></g></g></g></svg>