<svg viewBox="0 0 330 200" xmlns="http://www.w3.org/2000/svg"><g><g><g><g><g><line x1="61.77000045776367" y1="177.9749994277954" x2="56.77000045776367" y2="177.9749994277954" style="visibility: inherit;" fill="rgb(0, 0, 0)" stroke="rgb(204, 204, 204)" stroke-width="1px"></line><line x1="61.77000045776367" y1="164.28461485642654" x2="56.77000045776367" y2="164.28461485642654" style="visibility: inherit;" fill="rgb(0, 0, 0)" stroke="rgb(204, 204, 204)" stroke-width="1px"></line><line x1="61.77000045776367" y1="150.59423028505765" x2="56.77000045776367" y2="150.59423028505765" style="visibility: inherit;" fill="rgb(0, 0, 0)" stroke="rgb(204, 204, 204)" stroke-width="1px"></line><line x1="61.77000045776367" y1="136.90384571368878" x2="56.77000045776367" y2="136.90384571368878" style="visibility: inherit;" fill="rgb(0, 0, 0)" stroke="rgb(204, 204, 204)" stroke-width="1px"></line><line x1="61.77000045776367" y1="123.21346114231991" x2="56.77000045776367" y2="123.21346114231991" style="visibility: inherit;" fill="rgb(0, 0, 0)" stroke="rgb(204, 204, 204)" stroke-width="1px"></line><line x1="61.77000045776367" y1="109.52307657095103" x2="56.77000045776367" y2="109.52307657095103" style="visibility: inherit;" fill="rgb(0, 0, 0)" stroke="rgb(204, 204, 204)" stroke-width="1px"></line><line x1="61.77000045776367" y1="95.83269199958215" x2="56.77000045776367" y2="95.83269199958215" style="visibility: inherit;" fill="rgb(0, 0, 0)" stroke="rgb(204, 204, 204)" stroke-width="1px"></line><line x1="61.77000045776367" y1="82.14230742821327" x2="56.77000045776367" y2="82.14230742821327" style="visibility: inherit;" fill="rgb(0, 0, 0)" stroke="rgb(204, 204, 204)" stroke-width="1px"></line><line x1="61.77000045776367" y1="68.4519228568444" x2="56.77000045776367" y2="68.4519228568444" style="visibility: inherit;" fill="rgb(0, 0, 0)" stroke="rgb(204, 204, 204)" stroke-width="1px"></line><line x1="61.77000045776367" y1="54.76153828547551" x2="56.77000045776367" y2="54.76153828547551" style="visibility: inherit;" fill="rgb(0, 0, 0)" stroke="rgb(204, 204, 204)" stroke-width="1px"></line><line x1="61.77000045776367" y1="41.07115371410666" x2="56.77000045776367" y2="41.07115371410666" style="visibility: inherit;" fill="rgb(0, 0, 0)" stroke="rgb(204, 204, 204)" stroke-width="1px"></line><line x1="61.77000045776367" y1="27.38076914273779" x2="56.77000045776367" y2="27.38076914273779" style="visibility: inherit;" fill="rgb(0, 0, 0)" stroke="rgb(204, 204, 204)" stroke-width="1px"></line><line x1="61.77000045776367" y1="13.690384571368895" x2="56.77000045776367" y2="13.690384571368895" style="visibility: inherit;" fill="rgb(0, 0, 0)" stroke="rgb(204, 204, 204)" stroke-width="1px"></line><line x1="61.77000045776367" y1="0" x2="56.77000045776367" y2="0" style="visibility: inherit;" fill="rgb(0, 0, 0)" stroke="rgb(204, 204, 204)" stroke-width="1px"></line></g><g transform="translate(51.77000045776367, 0)"><text style="text-anchor: end; visibility: hidden; font-family: &quot;Helvetica Neue&quot;, sans-serif; font-size: 12px; font-weight: 200;" x="0" y="177.9749994277954" dx="0em" dy="0.3em" fill="rgb(50, 49, 63)" stroke="none" stroke-width="1px">-2e-3</text><text style="text-anchor: end; visibility: inherit; font-family: &quot;Helvetica Neue&quot;, sans-serif; font-size: 12px; font-weight: 200;" x="0" y="164.28461485642654" dx="0em" dy="0.3em" fill="rgb(50, 49, 63)" stroke="none" stroke-width="1px">0</text><text style="text-anchor: end; visibility: hidden; font-family: &quot;Helvetica Neue&quot;, sans-serif; font-size: 12px; font-weight: 200;" x="0" y="150.59423028505765" dx="0em" dy="0.3em" fill="rgb(50, 49, 63)" stroke="none" stroke-width="1px">2e-3</text><text style="text-anchor: end; visibility: inherit; font-family: &quot;Helvetica Neue&quot;, sans-serif; font-size: 12px; font-weight: 200;" x="0" y="136.90384571368878" dx="0em" dy="0.3em" fill="rgb(50, 49, 63)" stroke="none" stroke-width="1px">4e-3</text><text style="text-anchor: end; visibility: hidden; font-family: &quot;Helvetica Neue&quot;, sans-serif; font-size: 12px; font-weight: 200;" x="0" y="123.21346114231991" dx="0em" dy="0.3em" fill="rgb(50, 49, 63)" stroke="none" stroke-width="1px">6e-3</text><text style="text-anchor: end; visibility: inherit; font-family: &quot;Helvetica Neue&quot;, sans-serif; font-size: 12px; font-weight: 200;" x="0" y="109.52307657095103" dx="0em" dy="0.3em" fill="rgb(50, 49, 63)" stroke="none" stroke-width="1px">8e-3</text><text style="text-anchor: end; visibility: hidden; font-family: &quot;Helvetica Neue&quot;, sans-serif; font-size: 12px; font-weight: 200;" x="0" y="95.83269199958215" dx="0em" dy="0.3em" fill="rgb(50, 49, 63)" stroke="none" stroke-width="1px">0.01</text><text style="text-anchor: end; visibility: inherit; font-family: &quot;Helvetica Neue&quot;, sans-serif; font-size: 12px; font-weight: 200;" x="0" y="82.14230742821327" dx="0em" dy="0.3em" fill="rgb(50, 49, 63)" stroke="none" stroke-width="1px">0.012</text><text style="text-anchor: end; visibility: hidden; font-family: &quot;Helvetica Neue&quot;, sans-serif; font-size: 12px; font-weight: 200;" x="0" y="68.4519228568444" dx="0em" dy="0.3em" fill="rgb(50, 49, 63)" stroke="none" stroke-width="1px">0.014</text><text style="text-anchor: end; visibility: inherit; font-family: &quot;Helvetica Neue&quot;, sans-serif; font-size: 12px; font-weight: 200;" x="0" y="54.76153828547551" dx="0em" dy="0.3em" fill="rgb(50, 49, 63)" stroke="none" stroke-width="1px">0.016</text><text style="text-anchor: end; visibility: hidden; font-family: &quot;Helvetica Neue&quot;, sans-serif; font-size: 12px; font-weight: 200;" x="0" y="41.07115371410666" dx="0em" dy="0.3em" fill="rgb(50, 49, 63)" stroke="none" stroke-width="1px">0.018</text><text style="text-anchor: end; visibility: inherit; font-family: &quot;Helvetica Neue&quot;, sans-serif; font-size: 12px; font-weight: 200;" x="0" y="27.38076914273779" dx="0em" dy="0.3em" fill="rgb(50, 49, 63)" stroke="none" stroke-width="1px">0.02</text><text style="text-anchor: end; visibility: hidden; font-family: &quot;Helvetica Neue&quot;, sans-serif; font-size: 12px; font-weight: 200;" x="0" y="13.690384571368895" dx="0em" dy="0.3em" fill="rgb(50, 49, 63)" stroke="none" stroke-width="1px">0.022</text><text style="text-anchor: end; visibility: hidden; font-family: &quot;Helvetica Neue&quot;, sans-serif; font-size: 12px; font-weight: 200;" x="0" y="0" dx="0em" dy="0.3em" fill="rgb(50, 49, 63)" stroke="none" stroke-width="1px">0.024</text></g><line x1="61.77000045776367" y1="0" x2="61.77000045776367" y2="177.9749994277954" fill="rgb(0, 0, 0)" stroke="rgb(204, 204, 204)" stroke-width="1px"></line></g></g><g transform="translate(61, 0)" clip-path="url(#clip_0)"><clipPath id="clip_0"><rect width="268" height="177"></rect></clipPath><g><g><g><line x1="0" y1="0" x2="0" y2="177.9749994277954" fill="rgb(0, 0, 0)" stroke="rgb(60, 60, 60)" stroke-width="1px" opacity="0.25"></line><line x1="19.159285681588308" y1="0" x2="19.159285681588308" y2="177.9749994277954" fill="rgb(0, 0, 0)" stroke="rgb(60, 60, 60)" stroke-width="1px" opacity="0.25"></line><line x1="38.318571363176616" y1="0" x2="38.318571363176616" y2="177.9749994277954" fill="rgb(0, 0, 0)" stroke="rgb(60, 60, 60)" stroke-width="1px" opacity="0.25"></line><line x1="57.477857044764924" y1="0" x2="57.477857044764924" y2="177.9749994277954" fill="rgb(0, 0, 0)" stroke="rgb(60, 60, 60)" stroke-width="1px" opacity="0.25"></line><line x1="76.63714272635323" y1="0" x2="76.63714272635323" y2="177.9749994277954" fill="rgb(0, 0, 0)" stroke="rgb(60, 60, 60)" stroke-width="1px" opacity="0.25"></line><line x1="95.79642840794155" y1="0" x2="95.79642840794155" y2="177.9749994277954" fill="rgb(0, 0, 0)" stroke="rgb(60, 60, 60)" stroke-width="1px" opacity="0.25"></line><line x1="114.95571408952985" y1="0" x2="114.95571408952985" y2="177.9749994277954" fill="rgb(0, 0, 0)" stroke="rgb(60, 60, 60)" stroke-width="1px" opacity="0.25"></line><line x1="134.11499977111816" y1="0" x2="134.11499977111816" y2="177.9749994277954" fill="rgb(0, 0, 0)" stroke="rgb(60, 60, 60)" stroke-width="1px" opacity="0.25"></line><line x1="153.27428545270647" y1="0" x2="153.27428545270647" y2="177.9749994277954" fill="rgb(0, 0, 0)" stroke="rgb(60, 60, 60)" stroke-width="1px" opacity="0.25"></line><line x1="172.4335711342948" y1="0" x2="172.4335711342948" y2="177.9749994277954" fill="rgb(0, 0, 0)" stroke="rgb(60, 60, 60)" stroke-width="1px" opacity="0.25"></line><line x1="191.5928568158831" y1="0" x2="191.5928568158831" y2="177.9749994277954" fill="rgb(0, 0, 0)" stroke="rgb(60, 60, 60)" stroke-width="1px" opacity="0.25"></line><line x1="210.7521424974714" y1="0" x2="210.7521424974714" y2="177.9749994277954" fill="rgb(0, 0, 0)" stroke="rgb(60, 60, 60)" stroke-width="1px" opacity="0.25"></line><line x1="229.9114281790597" y1="0" x2="229.9114281790597" y2="177.9749994277954" fill="rgb(0, 0, 0)" stroke="rgb(60, 60, 60)" stroke-width="1px" opacity="0.25"></line><line x1="249.07071386064803" y1="0" x2="249.07071386064803" y2="177.9749994277954" fill="rgb(0, 0, 0)" stroke="rgb(60, 60, 60)" stroke-width="1px" opacity="0.25"></line><line x1="268.2299995422363" y1="0" x2="268.2299995422363" y2="177.9749994277954" fill="rgb(0, 0, 0)" stroke="rgb(60, 60, 60)" stroke-width="1px" opacity="0.25"></line></g><g><line x1="0" y1="177.9749994277954" x2="268.2299995422363" y2="177.9749994277954" fill="rgb(0, 0, 0)" stroke="rgb(60, 60, 60)" stroke-width="1px" opacity="0.25"></line><line x1="0" y1="164.28461485642654" x2="268.2299995422363" y2="164.28461485642654" fill="rgb(0, 0, 0)" stroke="rgb(60, 60, 60)" stroke-width="1px" opacity="0.25"></line><line x1="0" y1="150.59423028505765" x2="268.2299995422363" y2="150.59423028505765" fill="rgb(0, 0, 0)" stroke="rgb(60, 60, 60)" stroke-width="1px" opacity="0.25"></line><line x1="0" y1="136.90384571368878" x2="268.2299995422363" y2="136.90384571368878" fill="rgb(0, 0, 0)" stroke="rgb(60, 60, 60)" stroke-width="1px" opacity="0.25"></line><line x1="0" y1="123.21346114231991" x2="268.2299995422363" y2="123.21346114231991" fill="rgb(0, 0, 0)" stroke="rgb(60, 60, 60)" stroke-width="1px" opacity="0.25"></line><line x1="0" y1="109.52307657095103" x2="268.2299995422363" y2="109.52307657095103" fill="rgb(0, 0, 0)" stroke="rgb(60, 60, 60)" stroke-width="1px" opacity="0.25"></line><line x1="0" y1="95.83269199958215" x2="268.2299995422363" y2="95.83269199958215" fill="rgb(0, 0, 0)" stroke="rgb(60, 60, 60)" stroke-width="1px" opacity="0.25"></line><line x1="0" y1="82.14230742821327" x2="268.2299995422363" y2="82.14230742821327" fill="rgb(0, 0, 0)" stroke="rgb(60, 60, 60)" stroke-width="1px" opacity="0.25"></line><line x1="0" y1="68.4519228568444" x2="268.2299995422363" y2="68.4519228568444" fill="rgb(0, 0, 0)" stroke="rgb(60, 60, 60)" stroke-width="1px" opacity="0.25"></line><line x1="0" y1="54.76153828547551" x2="268.2299995422363" y2="54.76153828547551" fill="rgb(0, 0, 0)" stroke="rgb(60, 60, 60)" stroke-width="1px" opacity="0.25"></line><line x1="0" y1="41.07115371410666" x2="268.2299995422363" y2="41.07115371410666" fill="rgb(0, 0, 0)" stroke="rgb(60, 60, 60)" stroke-width="1px" opacity="0.25"></line><line x1="0" y1="27.38076914273779" x2="268.2299995422363" y2="27.38076914273779" fill="rgb(0, 0, 0)" stroke="rgb(60, 60, 60)" stroke-width="1px" opacity="0.25"></line><line x1="0" y1="13.690384571368895" x2="268.2299995422363" y2="13.690384571368895" fill="rgb(0, 0, 0)" stroke="rgb(60, 60, 60)" stroke-width="1px" opacity="0.25"></line><line x1="0" y1="0" x2="268.2299995422363" y2="0" fill="rgb(0, 0, 0)" stroke="rgb(60, 60, 60)" stroke-width="1px" opacity="0.25"></line></g></g></g><g><g><line x1="0" y1="164.28461485642654" x2="268.2299995422363" y2="164.28461485642654" fill="rgb(0, 0, 0)" stroke="rgb(153, 153, 153)" stroke-width="1.5px"></line></g></g><g><g><line x1="19.159285681588308" y1="0" x2="19.159285681588308" y2="177.9749994277954" fill="rgb(0, 0, 0)" stroke="rgb(153, 153, 153)" stroke-width="1.5px"></line></g></g><g><g><g><g><g><path style="fill: none;" stroke="rgb(187, 187, 187)" stroke-width="2px" d="M19.239754681450982,150.59379772298678L19.479245752470835,150.5873827966204L19.598033323696683,150.58135515649178L19.607612966537474,150.5807877741846L19.682334180695673,150.57593314916298L20.067435822895593,150.5390772057536L20.18622339412144,150.52370688280268L20.26860832255227,150.51194007501064L20.282019822529385,150.50993989300073L20.37398439380101,150.4955688641695L20.398891465187074,150.49148243654133L20.527258679253716,150.46910908590002L20.707355964660646,150.4340094776101L21.102037249701365,150.3419612608919L21.713218462944027,150.15848639796062L21.720882177216666,150.15586942675725L21.81284674848829,150.12386970214L21.8262582484654,150.11911070334995L21.910559105464394,150.08864099843748L22.399120890344893,149.8935077041099L22.481505818775723,149.8574900839971L22.4872536044802,149.85494323869688L22.755483604022437,149.73126027081187L22.83212074674879,149.69417801198784L23.06011624635969,149.57928309478217L23.37241260296958,149.4108088000398L23.57933288833073,149.2921334591469L23.736439030919755,149.1982810941935L23.920368173463004,149.08430737635175L23.922284102031163,149.08309611075214L23.945275244849068,149.0685338294578L24.303553887094772,148.83269244835998L24.979876671654836,148.34208844248184L25.347734956741334,148.0504619054396L25.378389813831877,148.02537595736334L25.491429599353243,147.93182640880983L26.091115241186962,147.40825844714638L26.094947098323274,147.40476649592432L26.190743526731218,147.316846144868L26.326774455070495,147.19000273003033L26.466637240546092,147.0571476127693L26.480048740523202,147.04427791577336L26.738699097224643,146.7916573185798L27.43034931032998,146.07498812000915L27.589371381487165,145.9018026395925L27.765636809757776,145.70618643279556L27.79820759541648,145.66962055562192L28.118167666299,145.30348684026853L28.332751665932793,145.0509188375023L28.68336659390586,144.6261901487675L28.995662950515747,144.2353721155104L29.39992387839726,143.71210378270578L29.426746878351484,143.67669498293387L30.1241448771613,142.7262547111784L30.2869988054548,142.49609990331663L30.394290805271694,142.3427855538158L30.47667573370252,142.2241548384976L30.635697804859706,141.99295451717092L31.03804280417306,141.39502122277315L31.074445446968078,141.3400106393043L31.208560446739195,141.1360414811816L31.754600088664464,140.28465245383472L31.994091159684316,139.90072747810174L32.017082302502224,139.8635352491114L32.29106008774894,139.415859452346L32.50564408738273,139.05948758146323L32.86775458676475,138.44677684675014L33.302670371736795,137.69227791097887L33.452112800053186,137.4283893561678L33.457860585757665,137.41819241234367L33.54982515702929,137.25457593016398L34.09969665609087,136.25789878168422L34.16675415597643,136.13421581379924L34.46947086974552,135.57016448700966L34.61316551235744,135.299166121883L34.83158136912755,134.88328126579592L34.910134440422055,134.73254244946475L35.18219629710061,134.2057502900276L35.20901929705484,134.15341724104206L35.440846653802055,133.6981853782138L35.46000593948364,133.66032695314368L35.638187296322414,133.3065608970706L36.16889950970241,132.23485859485885L36.27810743808747,132.01102308713195L36.38923129504067,131.78211938913296L36.900784222739084,130.71366837879387L37.29929736491612,129.8648548846167L37.46406722177778,129.50976918654823L37.48897429316384,129.45588380507058L37.73996093559265,128.9098675855511L38.01777057797568,128.29913153251948L38.140390006337846,128.02746378377196L38.847367647988456,126.43655248228487L38.86077914796557,126.40597440097666L39.08302686187199,125.89713128520117L39.236301147324696,125.54389436094266L39.31868607575553,125.35325709326835L39.48154000404903,124.97484496978414L39.81299564634051,124.19828346862408L40.04673893165588,123.6455925381425L40.05248671736036,123.6319466749005L40.16935836001805,123.35400584536337L40.184685788563314,123.31747662491179L40.27281850269863,123.10710529058693L40.42992464528765,122.73067263009577L41.037274001394,121.25860560917728L41.13881821550642,121.00993278157614L41.253773929595944,120.72755170735411L41.31891550091335,120.56713232884918L41.54691100052425,120.00337744337742L41.688689714568,119.65103940569546L42.091034713881356,118.6439198727306L42.10061435672215,118.61981249975719L42.464640784672326,117.69939727093748L42.70604778426034,117.08444410109459L43.43601656872886,115.20363869112677L43.83069785376958,114.17394499243434L43.94948542499542,113.8623564795563L44.13149863897051,113.38344118671448L44.1832287103108,113.247008054623L44.83656035205296,111.51203264776683L45.11245406586784,110.7730108175717L45.21016642284393,110.51040206049286L45.25423277991158,110.39182553337257L45.61825920786176,109.40887712420216L46.135559921264644,108.0020112554946L46.405705849375046,107.26287148628055L46.54556863485064,106.87904691809068L46.629869491849625,106.64733818396626L46.838705705778935,106.0721591513655L47.204648062297274,105.06040812125264L47.26212591934204,104.90105656899999L47.29852856213706,104.80008164356676L47.47479399040767,104.3104944632841L47.53227184745244,104.150620154299L47.654891275814606,103.8091962571778L47.691293918609624,103.7077432005868L48.8044484167099,100.58633725070501L48.8695899880273,100.40262650973591L49.316001344408306,99.14090851035493L49.36198363004412,99.01069108331413L50.03639048603603,97.09581404704554L50.29120898560116,96.37010657582303L50.429155842508585,95.97680226054563L51.364128983770094,93.3042913418815L51.45609355504172,93.04089844970396L51.856522625786916,91.89323066914999L51.91591641139984,91.72290122551559L52.28952248219081,90.65107779674388L52.33742069639479,90.51362465151588L52.379571124894284,90.39265746860687L52.77042055279868,89.2707513948321L52.7972435527529,89.19375315318914L52.85280548122951,89.03424859896604L54.5100836926869,84.28124876115531L55.784176190512525,80.64479992815261L55.88572040462494,80.3560724596968L56.579286546298434,78.38952538298145L56.78812276022775,77.7994605336696L56.81494576018197,77.7237500586115L56.96247225993021,77.30764844973292L57.18280404526847,76.68723183452755L57.468277401924134,75.88532938200709L57.57940125887735,75.57379824486797L57.596644615990776,75.52548787268961L57.74225518717084,75.11789699841886L57.945343615395686,74.55048281581983L57.960671043940955,74.50770601490709L58.09670197228023,74.12843325533893L58.32086561475481,73.5047398479325L58.510542543002536,72.97831744325731L58.512458471570696,72.97300699986532L58.58526375716073,72.77128027687245L58.97036539936065,71.70741295056557L58.97611318506514,71.69157724662112L59.069993684904915,71.43307404241679L59.115975970540724,71.30658603840637L59.54705989837647,70.1247669430253L59.66967932673863,69.78997950637357L59.794214683668955,69.4505956355254L59.838281040736604,69.33066759099923L60.004966826166424,68.87776263313862L60.142913683073864,68.50386406778351L60.39581625407082,67.82059551812226L61.01849303872245,66.15102526610431L61.779116680281504,64.13780621331112L61.86916532298497,63.90148191974396L61.941970608575005,63.71073308813287L61.99561660848345,63.57037290546579L62.21403246525356,63.000536191667535L62.91909417833601,61.17973624199648L63.49004089164734,59.72718653493709L63.50920017732893,59.67879328669137L63.593501034327915,59.46615879821985L63.64331517710005,59.340722682756464L63.773598319734845,59.013419592493946L63.91729296234676,58.65369920973643L64.04374424784524,58.33827289743223L64.2602441760472,57.80070047415849L64.50931488990784,57.186193560062804L64.53039010415758,57.134389642891875L64.56870867552075,57.04028068088384L65.02278374617441,55.93295441987917L65.29292967428479,55.28115327547954L65.4232128169196,54.96871050159967L65.68186317362104,54.35215081106675L65.68569503075736,54.34304719382331L65.7585003163474,54.17042272063175L65.80256667341504,54.06613912758692L66.33136295822689,52.82627490965585L66.51912395790646,52.391277557423265L66.53445138645172,52.35588310158607L66.86782295731136,51.59087324919709L66.9310486000606,51.44679639366382L67.07282731410436,51.12490574810694L67.54222981330327,50.07105367578427L67.69358817018782,49.73518885025709L67.80662795570919,49.485617136079384L68.61323388290405,47.737034116473865L68.6802913827896,47.59425777768965L68.82207009683337,47.29371090701443L69.0998797392164,46.710097640791076L69.27039738178253,46.35538807256671L69.55395480987004,45.77149430273079L69.87391488075257,45.12169493411159L70.5004235225405,43.87772516330605L70.50233945110867,43.87398936519355L70.56173323672158,43.7580393718998L71.1614188785553,42.606980047666895L71.1844100213732,42.563565738543815L71.19207373564583,42.54910705233365L71.193989664214,42.54549875586321L71.41432144955228,42.13235518508054L71.85690094879696,41.31745394015158L72.04466194847652,40.97784056634768L72.07723273413522,40.91930456247573L72.11171944836208,40.85744076574588L72.46999809060777,40.22216383415784L72.64434759031023,39.91791941586274L72.70948916162763,39.80506771247116L72.74397587585449,39.74551169546268L73.64446230288914,38.23585400292242L73.6693693742752,38.19535948140262L73.84563480254582,37.9107120654929L73.90119673102242,37.82170316916745L74.66373630114964,36.6349943858132L74.71355044392178,36.55975566683077L74.84000172942025,36.37002047327408L75.10631580039433,35.97643565438415L75.22510337162018,35.80351792741581L75.62361651379722,35.2353068595539L75.65427137088776,35.19236430650645L75.79605008493151,34.99517026688898L75.89184651333946,34.86328256833713L76.30951894119808,34.30083457469652L76.64672236919404,33.861859171231515L76.69653651196616,33.79815935085591L76.81340815462384,33.649887691298744L76.97051429721287,33.45315265759268L77.10271336841583,33.289912305257076L77.26365136814117,33.09403153255286L77.51655393913815,32.79257940021898L77.5376291533879,32.767818581330005L77.80969101006644,32.452953276250895L77.98978829547337,32.249511656172245L78.0166112954276,32.21954877028702L79.33093829318454,30.86113352556407L79.40182765020643,30.79401666118116L79.88655757795061,30.35215972060547L80.1011415775844,30.16608382417607L80.23908843449185,30.0495728236572L80.34638043430874,29.960640428316992L80.36362379142216,29.946487746047808L80.47666357694354,29.85462281294008L80.80237143353054,29.599147772734767L80.86559707627978,29.55113065433315L81.30242878981998,29.233549564278064L81.50743314661298,29.093030004558443L81.72776493195126,28.94809888802334L81.92893743160792,28.82129850498984L82.18184000260489,28.66940579879801L82.19716743115016,28.66046793368926L82.45007000214713,28.517449341785152L82.67614957318986,28.39670528674975L82.72787964453016,28.370031943229776L82.73171150166648,28.368068417942L82.90414507280077,28.281762556428305L83.03826007257189,28.217335976692965L83.1034016438893,28.186901334732084L83.15704764379774,28.162268017485133L83.77972442844936,27.90408994246806L83.7969677855628,27.897676609872207L83.81995892838069,27.88917225034649L83.85636157117571,27.87586107891491L83.8889323568344,27.864105427516535L83.99239249951499,27.827690958542803L84.0153836423329,27.819785856734796L84.06328185653688,27.80355489769994L84.13417121355874,27.780081845395813L84.33342778464726,27.717708042097684L84.36983042744227,27.706870402522185L84.57100292709896,27.650221422952768L84.99442314066206,27.54861536439131L85.0346576405934,27.540200256015027L85.14003371184212,27.519187985402766L85.30671949727196,27.48898284639759L85.4484982113157,27.466211053124823L85.80102906785692,27.421241223968536L86.85478978034428,27.381804966077908L86.8950242802756,27.382136470347263L86.91035170882088,27.382263971989317L86.93909063734327,27.38254447560186L87.1421790655681,27.38509450844316L87.3146126367024,27.388154547852707L87.69396649319785,27.3977171710076L87.70737799317496,27.398137926426386L87.84340892151424,27.402574983570247L88.04266549260277,27.409982828974222L88.07523627826146,27.41129609588748L88.2036034923281,27.416753166167865L88.60403256307329,27.4366816728226L88.6595944915499,27.439792712888988L89.33783320467812,27.484533039089513L89.3953110617229,27.488893595248157L89.60223134708404,27.505366807402908L89.70185963262831,27.513705414793947L89.76125341824122,27.51881823064076L89.87046134662629,27.528444604616652L90.43566027423314,27.58348706349605L90.92039020197733,27.637611510552546L90.98553177329472,27.645376360554337L91.5124121295384,27.71237847345938L91.72699612917219,27.74183135277636L92.33242955671038,27.83164350944682L92.80566391304562,27.908769252731844L92.83631877013615,27.91397131972809L92.8573939843859,27.91756686603432L93.30572126933507,27.996847387070233L93.34403984069823,28.003872727548014L93.57395126887731,28.046879031416466L93.8440971969877,28.099231205648294L93.8900794826235,28.10833482289172L94.44761469595772,28.2233030535416L95.22548169463022,28.397674299229465L95.27912769453866,28.410296961793875L95.37684005151476,28.433489510485458L95.56268512262616,28.478319087835445L95.6220789082391,28.492841524866634L95.63165855107988,28.495187555080634L95.83474697930471,28.545614454517278L96.36354326411656,28.682066711855043L96.75439269202096,28.787740072798414L97.03603419154031,28.866421336116616L97.06668904863085,28.875116948105415L97.07435276290349,28.87728447602052L97.13757840565273,28.89530045804429L97.1758969770159,28.90627834942606L97.31575976249151,28.946658119467997L97.78899411882672,29.087139428695025L98.17984354673114,29.20766673093891L98.23157361807142,29.2239231903022L98.36568861784254,29.266393987273972L98.74504247433799,29.38911431776137L98.77569733142853,29.399199697648726L99.65319261564527,29.698369550589632L99.88501997239248,29.780799362184553L100.09577211488997,29.85695609298989L100.49045339993069,30.002728720362597L100.52494011415754,30.015670137032174L100.9272851134709,30.16883785964464L101.50781146962302,30.397295301896435L102.0768422543662,30.629769045873218L102.53666511072431,30.8237627942749L102.60372261060986,30.85251441456049L102.70718275329044,30.897088988626365L102.76849246747153,30.923647580668472L102.90643932437897,30.98373910457363L102.95816939571925,31.006408896532747L102.96583310999189,31.009762189719055L103.08653660978591,31.062943124624297L103.44673118059977,31.223837446745904L103.60000546605247,31.293325841671248L103.6076691803251,31.296819386663827L103.84332839420863,31.404864278149574L103.85673989418574,31.411060857953913L103.94104075118474,31.45008911058997L104.04258496529715,31.497341219139173L104.58096089294979,31.75229350261202L104.99671739224026,31.9542306033143L105.02354039219448,31.9674142731038L105.30709782028198,32.10785733183823L105.57532781982422,32.24260106717236L105.97000910486494,32.444168413112635L105.98725246197837,32.453055277564545L106.08879667609078,32.505598704259484L106.34744703279222,32.64061019304191L106.63675224658421,32.79359941335551L107.35522545964378,33.18264517378793L107.46443338802882,33.242915199991984L107.61579174491338,33.32692603194852L107.6847651733671,33.365406027523676L107.90126510156904,33.48694059273987L107.93191995865958,33.50424256556806L108.08327831554412,33.59002567034929L108.24804817240579,33.68404538120791L109.66966716997965,34.523069936815546L109.78462288406917,34.593081088473326L109.82294145543234,34.616490389956425L110.14481745488303,34.814538690575716L110.32874659742627,34.92883116252267L110.4302908115387,34.99228872977832L110.48968459715161,35.02951920926125L110.55865802560534,35.072869767563304L110.63337923976353,35.11995612397783L110.89777738216945,35.28764628362151L111.02231273909977,35.36720730826997L111.06637909616744,35.39546167215153L111.26946752439227,35.52624010641742L111.47064002404893,35.656750787234984L111.55877273818425,35.714241277642L112.1239716657911,36.08731108232374L112.74090066473825,36.503208688575L113.00529880714417,36.68421001965024L113.56091809191022,37.06992798722476L113.6643782345908,37.142552922544894L113.71227644879478,37.17625160654262L113.95368344838278,37.34695080493904L114.10887366240364,37.45740547745979L114.22574530506134,37.54095730350488L114.9672096609388,38.07837672480815L115.06300608934674,38.14873213089953L115.24118744618552,38.280160823539944L115.27184230327607,38.302856115827495L115.32932016032082,38.34544166427716L115.46918294579643,38.449406503216835L116.16083315890177,38.97004670842435L116.52485958685193,39.2484337937087L116.83140815775735,39.485178842694694L117.12837708582197,39.71653057222133L117.30655844266073,39.85629787225281L117.41193451390947,39.93928869107279L117.526890227999,40.03009536055137L118.3085890838078,40.65540166372995L118.40055365507943,40.72984987253159L118.4158810836247,40.7422685324687L118.69943851171222,40.9730975052629L118.78948715441568,41.04675520388372L118.91593843991416,41.15050329003191L119.24164629650116,41.41934050232558L119.3470223677499,41.50680662878207L119.46389401040757,41.604103131841725L119.76469479560852,41.85585512409875L119.79918150983538,41.88484899750429L120.09423450933184,42.13391070511375L120.3241459375109,42.32926872108547L120.52340250859942,42.499496163406235L120.58662815134865,42.553684361283786L120.70924757971082,42.65901346779356L120.87976522227696,42.80603561125852L120.90850415079935,42.830872931132745L121.60015436390468,43.43387919711415L122.05614536312648,43.836899137516866L122.06955686310359,43.848820541049946L122.07722057737622,43.85562912873621L122.08488429164886,43.862450466586665L122.35503021975926,44.10340306976079L122.43933107675825,44.178909542191604L122.75737521907261,44.46506147747769L122.786114147595,44.491020811802116L122.82634864752633,44.5273970302832L122.85508757604872,44.55339461510022L123.08116714709146,44.75851925685413L123.85903414576394,45.472196948147825L123.94333500276294,45.5502662035841L124.16558271666935,45.75679336340073L124.41465343053001,45.989407359183815L124.50087021609716,46.0702178999245L124.90513114397866,46.451078054936346L125.10821957220351,46.64361828461847L125.11396735790798,46.64907535489883L125.16378150068012,46.69644221492592L125.22317528629303,46.75296369285326L125.56612649999347,47.08071941394513L125.57570614283425,47.0898995321738L125.59103357137953,47.104613221668075L125.90141399942125,47.40334956902598L126.00295821353367,47.50148758292326L126.38614392716543,47.873613875453714L126.62563499818529,48.10761763913527L127.03372778320313,48.50886530671332L127.09695342595238,48.57131561099666L127.42266128253937,48.894200769361646L127.4494842824936,48.92088686304584L127.6161700679234,49.086970501999474L127.95912128162384,49.43033242408006L128.0223469243731,49.49386649232099L128.3652981380735,49.83980394757128L128.94007670852116,50.42438622627432L128.9515722799301,50.43614187767271L129.29452349363055,50.78786790747276L129.82331977844237,51.334327195198426L130.84834156240737,52.40763601810018L131.1261512047904,52.701680305030095L131.3483989186968,52.937877096955205L131.51125284699032,53.1114833327907L131.6606952753067,53.2711918896411L131.712425346647,53.32655310262565L131.7449961323057,53.361450302058785L132.2565490600041,53.911709138717995L132.70487634495328,54.39756689597024L132.79492498765674,54.49555190789707L133.02675234440395,54.748425914604255L133.425265486581,55.18518278949735L133.48274334362574,55.24838535346886L133.6111105576924,55.38973367386194L134.27976962797982,56.13030146146713L134.4579509848186,56.32883426832626L134.46944655622755,56.341660933518L134.51159698472705,56.38870903943992L134.68403055586134,56.58146602191353L135.02506584099362,56.964060199257474L136.26467162459238,58.369753052858044L136.42369369574953,58.551755271823495L136.55972462408883,58.70774715580772L136.74556969520026,58.92129965610209L136.87010505213058,59.0646816276861L137.05403419467382,59.2768698604104L137.333759765625,59.600513653545676L138.21317097840992,60.62529535147755L138.36644526386263,60.80502166613215L138.93547604860578,61.47511929616809L138.9948698342187,61.545315325206886L139.01019726276397,61.5634396836264L139.62137847600664,62.28872002434798L139.90876776123045,62.63148906379298L140.28428976058962,63.08102160322096L140.5486879029955,63.39862819360445L140.68280290276664,63.56008352295116L140.68471883133478,63.56239130267252L140.84565683106013,63.756442426813095L141.14837354482924,64.12233388904654L141.35912568732672,64.37775792859503L141.52006368705204,64.5731796953878L141.7557229009356,64.85991813822741L141.96647504343306,65.1169295732196L142.2097979715892,65.41433352841793L142.75775354208267,66.0866943126005L142.77691282776422,66.11026299113618L143.0949569700786,66.5022221640898L143.4819745408467,66.98077407725174L143.69464261191231,67.24447297337021L143.7981027545929,67.37295000299684L144.16404511111125,67.8283284927135L144.2540937538147,67.94061918888L144.41311582497187,68.13912649541075L144.5568104675838,68.31875080875169L144.6162042531967,68.39305876574707L144.70433696733204,68.50339231170786L144.84611568137578,68.6810658499252L144.92658468123844,68.78200252486583L145.05303596673693,68.94076119448286L145.43238982323237,69.41805721647046L145.70445167991093,69.761291636909L146.18151789338248,70.36501191208598L146.85017696366992,71.215052609568L147.11840696321215,71.55728614211634L147.42687146268574,71.9517060967618L147.48051746259418,72.02039760642423L147.5667342481613,72.13084590386289L148.36950831821986,73.16255731604099L148.43464988953727,73.246536272587L148.50937110369546,73.3429083887417L149.9463175298146,75.20571375439101L149.98080424404145,75.25063895797255L150.16664931515285,75.49287932773154L150.26436167212896,75.62036184455006L150.4233837432861,75.82798551848843L150.57282617160254,76.02329253380334L151.22232595620838,76.87412374146618L151.33536574172976,77.02253565282963L151.68598066970281,77.48346046397612L151.71280366965703,77.51875929358177L152.2301043830599,78.20054244911296L152.27033888299124,78.25364688303296L152.6267015966688,78.72451044717839L152.73590952505384,78.86898255780203L152.88726788193839,79.06935138830691L153.11143152441298,79.36637283857905L154.15178073692323,80.74907077103325L154.15944445119587,80.75927727748052L154.21883823680878,80.83842392179227L154.3855240222386,81.06064015866497L154.53113459341867,81.25490166051495L155.0273600925718,81.91782094810263L155.18255030659267,82.12542549679469L155.79181559126718,82.94171650962218L156.01023144803727,83.2348172844008L156.25163844762528,83.55904758508957L156.30145259039745,83.6259859471736L156.52370030430384,83.92479242043466L156.81875330380032,84.32183253382455L156.92604530361723,84.4663173946124L157.0237576605933,84.59793733971593L157.0659080890928,84.65473294617371L157.12913373184205,84.73993591848354L157.17703194604601,84.80449637494307L157.48358051695143,85.21790769917409L157.6330229452678,85.41959617167433L157.6751733737673,85.47650015452787L157.6790052309036,85.48167034611359L157.87442994485582,85.7455859950236L157.88017773056032,85.75335084502535L158.17523073005677,86.152105855501L158.491358943803,86.57972086265804L158.77874822902677,86.96877299817257L159.0393145142964,87.32176766931116L159.3650223708834,87.76332498102799L159.63133644185748,88.12462000906501L160.5337387974603,89.3504080457121L160.54331844030108,89.36343233844903L160.63336708300454,89.48587216532388L160.7483227970941,89.64220830374167L160.79238915416175,89.70214682567637L160.95907493959155,89.92891487117076L161.2962783675875,90.38785065670103L161.3096898675646,90.40610889184471L162.5952779367992,92.15789220266608L162.6642513652529,92.2519565390994L163.12215829304284,92.87658708357502L163.18155207865578,92.95762712727142L163.75249879196713,93.73682153734013L163.78698550619396,93.78390151867256L163.94025979164667,93.99313171330097L164.05904736287252,94.15530105184322L164.18933050550734,94.33317221760576L164.631910004752,94.93747900033625L164.63574186188833,94.9427065676609L164.87714886147634,95.27236206321953L164.95953378990717,95.38486313709544L165.1875292895181,95.69621577193566L165.59562207453592,96.25350632415473L165.693334431512,96.38693679257558L165.9692281453269,96.76367226946665L166.05927678803033,96.88662847799186L166.12058650221144,96.97033968108954L166.28344043050492,97.1926961697685L166.50568814441138,97.49611182739018L166.5190996443885,97.5144210631907L166.5401748586382,97.54319180872263L167.06513928631375,98.25973828696277L167.30654628590176,98.58915152940148L167.56711257117135,98.94463885764245L167.70122757094248,99.12757821367705L167.91772749914443,99.4228401412887L168.22236014148166,99.838183115397L168.41203706972942,100.09671819501186L168.86036435467858,100.70754668673395L169.00022714015415,100.89802776489671L169.1094350685392,101.04672655495482L170.0865586383002,102.37601404954805L170.21684178093503,102.55307557988348L170.36436828068324,102.7535145362915L170.39119128063746,102.78994813051152L170.46591249479567,102.89143943759512L170.52722220897675,102.97470438494557L171.109664493697,103.7651508149265L171.31850070762636,104.04831283670619L171.66145192132677,104.51299894629358L171.7055182783944,104.57268246494412L172.0733765634809,105.07060187753571L172.1212747776849,105.13539821203305L172.37226142011372,105.47479483304544L172.38567292009083,105.49292556654706L172.42973927715846,105.55248795863764L172.4929649199077,105.63793318406739L172.50062863418034,105.64828631740305L172.62516399111067,105.8165374842718L172.749699348041,105.98472490031953L173.10606206171855,106.46564834402388L173.18078327587673,106.56641926682981L173.21143813296726,106.60775529918723L173.48733184678215,106.97958196285879L173.53714598955426,107.04667970199542L173.60803534657614,107.14215293157356L174.01612813159397,107.69129612886469L174.0946812028885,107.796905738987L174.24603955977304,108.00032185873722L174.34183598818097,108.12900926607327L174.378238630976,108.17789977072302L174.5736633449282,108.44024077435353L175.07946848692214,109.11834550751114L175.2959684151241,109.4081822402529L175.36302591500964,109.49789877069183L176.17346369934083,110.580247460016L176.41870255606514,110.90701185584079L177.67555169677735,112.57581709800635L177.74069326809473,112.66203052082955L177.85756491075242,112.81663582445631L177.8920516249793,112.86223997428185L178.0357462675912,113.05216642030163L178.32505148138318,113.43411990189419L178.42467976692745,113.5655167191241L178.69290976646968,113.91892895814046L179.15848040853228,114.5311057797274L179.6412944077083,115.16424387126978L179.9497589071819,115.5678056936513L180.0417234784535,115.68797917883845L180.41341362067632,116.17298905017097L180.4747233348574,116.25288157908881L180.49005076340268,116.2728515237772L180.85216126278468,116.744046592192L180.88090019130706,116.78139819823488L181.00735147680555,116.94565537616597L181.24875847639356,117.25886315989823L181.41161240468705,117.46987200243342L181.51507254736765,117.60380291479937L181.66451497568403,117.79709859171071L182.0515325464521,118.29676477679858L182.11284226063322,118.37579666963248L182.18373161765507,118.46713565846667L182.33700590310778,118.6644699498904L182.62631111689976,119.03635080175985L182.98650568771362,119.49827012571444L183.04589947332656,119.574318480124L183.10912511607577,119.6552405848015L183.30646575859615,119.9075599593657L183.3275409728459,119.93448511862874L183.4482444726399,120.0886091035567L183.90040361472538,120.66469658535719L183.95596554320198,120.73534843276636L184.79514225605558,121.79864200168394L185.15916868400575,122.25762878787103L185.17258018398286,122.27451319282146L185.42356682641164,122.59012438250664L185.44847389779773,122.62140691038726L185.53660661193302,122.73204964783007L185.58642075470516,122.79455095277025L185.68988089738573,122.92427112340701L185.86039853995186,123.13782043616034L186.59803103869302,124.05790734825175L186.70723896707807,124.19361053344241L186.91032739530291,124.44561115390144L187.03486275223324,124.5999072660462L187.1210795378004,124.70662614045446L187.4333758944103,125.09245248442474L187.93918103640422,125.71492506360842L187.99857482201713,125.78782093991794L188.0234818934032,125.81837670843876L188.47755696405684,126.37412449078886L188.6059241781235,126.53077938331182L189.0523355345045,127.07398737916483L189.2286009627751,127.2877916952023L189.3224814626149,127.40150403467781L189.52748581940787,127.64943097767289L189.9815608900615,128.19666802541514L190.17890153258188,128.43366807768527L190.3417554608754,128.62886990414546L190.37241031796592,128.66557443935488L191.10429503100258,129.53821161535186L191.1368658166613,129.57687967584906L191.34953388772692,129.82900779795017L191.38593653052195,129.87210335296808L191.54112674454282,130.05562602901517L191.65991431576865,130.19587783528647L192.04693188653675,130.65147307779463L192.20403802912577,130.83582770205618L192.45502467155458,131.12962336078408L193.3555110985892,132.17634171623322L193.65056409808568,132.5167647254642L193.68888266944884,132.5608834811597L194.08356395448956,133.01403387968128L194.4169355253492,133.39498966092467L194.704324810573,133.72206324823148L194.74264338193623,133.7655795586682L194.74839116764068,133.7721044552009L194.86717873886653,133.90684819053502L194.9112450959342,133.95678102110864L194.91699288163866,133.9632931674771L195.44195730931418,134.55579967323447L195.6048112376077,134.73874540435122L195.65462538037983,134.7946229989861L195.89603237996783,135.06486272934254L196.01673587976182,135.19964152762822L196.82142587838854,136.09227096110095L196.9344656639099,136.21683687785725L196.93829752104622,136.22105399466855L196.99769130665916,136.28641771147306L197.13372223499843,136.43590382417094L197.5820495199476,136.92645045431013L197.767894591059,137.1288306232186L198.2430448759624,137.64365994108903L199.0668941602707,138.52734354060038L199.37344273117608,138.8532138311602L199.98462394441876,139.49808685508413L200.06892480141775,139.5865267753319L200.28350880105154,139.81108266733648L200.3563140866416,139.88708798994185L200.75865908595492,140.30543044017972L200.96366344274793,140.51748160863878L201.22997751372202,140.79182848564022L201.2817075850623,140.84497276382336L201.52503051321847,141.09429584979904L201.78751272705622,141.3620508919057L201.89480472687313,141.4711365155448L201.95611444105418,141.53337803588929L202.09214536939348,141.67123121751925L202.16303472641536,141.74293495347547L202.82019822529384,142.403250020024L202.99071586785996,142.5732766472585L203.03478222492762,142.61712764950562L203.14973793901717,142.73135318309048L203.66512272385188,143.24040667657536L203.8183970093046,143.3908299263424L203.97933500902994,143.54829604806298L204.0559721517563,143.623106042774L204.11345000880107,143.67913982692045L204.2379853657314,143.80032854393255L204.29929507991244,143.8598829671705L205.03884350722177,144.5725422390982L205.30324164962767,144.82475323726666L205.43735664939882,144.952162440641L205.57147164916992,145.07922101449964L205.801383077349,145.29620968404768L205.88568393434798,145.37551092410044L206.1462502196176,145.61973394439352L206.25545814800262,145.72169063247065L206.42597579056877,145.8804126453656L206.52943593324932,145.9764325382341L206.68271021870206,146.11828927142489L206.89346236119954,146.3125714922917L206.9126216468811,146.33018903168403L207.18659943212782,146.58131148458335L207.32646221760342,146.70892150304394L207.69432050268992,147.04265226983705L207.82843550246102,147.16363698422185L207.92231600230082,147.2481068220898L207.95680271652765,147.27909131488207L208.07942214488983,147.38905988739248L208.36489550154548,147.6438814816822L208.81705464363097,148.04403741645004L208.9415900005613,148.15350235747428L209.35351464271545,148.5132673658065L209.80567378480094,148.90406149250575L209.84590828473227,148.93862559389902L210.0087622130258,149.07817932868002L210.0125940701621,149.08145612088109L210.52989478356497,149.52095428107856L211.29626621082852,150.16150340556598L211.3709874249867,150.22327795114637L211.68903156730107,150.48485713246555L211.83655806704928,150.60544340421887L211.88062442411695,150.6413701794117L212.19100485215867,150.89321461035922L212.39600920895168,151.05839617519524L212.45731892313276,151.1076157934586L212.50904899447306,151.1490809212286L212.52629235158648,151.16288934906422L212.66232327992577,151.2715924677771L212.80601792253768,151.38597498775874L212.96503999369483,151.51202470487456L213.1163983505794,151.6314770088988L213.30990713596344,151.78345099738743L213.3482257073266,151.8134457586832L213.4938362785067,151.9271262227482L213.60304420689172,152.01207578554443L213.6241194211415,152.02843823064765L213.991977706228,152.3124369819534L214.43647313404082,152.65152919279535L214.474791705404,152.68055175407034L215.1587782042367,153.19298165041417L215.17218970421382,153.2029227940689L215.49406570366452,153.44026630388734L215.5592072749819,153.48801009064377L215.62051698916298,153.5328564025843L215.72397713184358,153.60833817157194L215.89641070297787,153.73359259719538L216.27001677376882,154.00261707752585L216.32941055938176,154.04508628072713L216.43478663063047,154.1202341547896L216.50184413051605,154.16792056580712L216.52100341619763,154.18152658478598L216.89460948698863,154.44512268270555L217.10727755805425,154.5937115025974L217.38508720043728,154.78621587244265L217.49046327168602,154.85875952546596L217.8966401281357,155.1359329544949L218.3143125559943,155.41687644770266L218.94465305491858,155.8330051506802L219.0557769118718,155.90537986402776L219.76467048209054,156.36009773586147L219.96392705317905,156.48572749444375L219.99075005313327,156.50256568004892L220.0271526959283,156.52539006774907L220.10570576722282,156.5745323881419L220.13252876717704,156.59127893194184L220.16126769569942,156.60920167838987L220.1861747670855,156.62471862822915L220.26089598124366,156.6711794297123L220.33753312397005,156.71869052597197L220.35477648108346,156.72936081964227L220.4639844094685,156.7967717346872L220.50996669510434,156.8250683334877L220.83567455169134,157.0240282708478L220.83950640882765,157.02635278515967L221.16329833684648,157.2215434552262L221.50050176484243,157.42208680360366L221.67676719311305,157.52580381122658L221.81471405002048,157.60644023253732L221.8415370499747,157.6220647618871L222.21131126362937,157.83565312201833L222.65005890573775,158.08469052462723L222.7592668341228,158.14593514150783L222.99492604800633,158.27708293209307L223.3321294760023,158.46233365383276L223.52372233281815,158.56632319621556L223.72106297533853,158.6724715007756L224.3609831171036,159.0099520111733L225.62741190065657,159.64734228247858L225.70404904338292,159.68460662958518L225.76727468613217,159.7152369068781L226.1198055426734,159.88415307449876L226.93982296984535,160.26476061688226L227.2023051836831,160.3829410920269L227.72726961135865,160.61397247367785L228.18326061058045,160.80886590554132L228.4591543243953,160.92416723423108L228.46107025296348,160.9249609319529L228.57219410991667,160.97083741731706L228.94771610927583,161.12349134815628L228.95537982354844,161.126568520599L229.10673818043298,161.1870282054956L229.57039289392745,161.3685118513762L230.03213167885372,161.5436562749904L230.27737053557803,161.63440576795136L230.34059617832727,161.65754612065825L230.49770232091632,161.71459135142464L230.7122863205501,161.7914579077779L230.82724203463965,161.8321377051213L230.91920660591126,161.8644308827366L231.03416232000077,161.90448373059942L231.1031357484545,161.92834825278896L231.13953839124952,161.9408928205976L231.32346753379275,162.00374077062716L231.38860910511016,162.0257852068762L231.40776839079174,162.03224754791574L231.74305589021955,162.14376705836906L232.19904688944135,162.29065671965907L232.27759996073587,162.31540458916254L232.44620167473386,162.36796893409561L232.8715378168651,162.4972179463207L232.94051124531882,162.51772379634838L233.1646748877934,162.58349312775175L233.5267853871754,162.6869067213108L233.58043138708385,162.70192970189774L234.39086917141506,162.91952838711453L234.643771742412,162.98383314301532L235.01546188463485,163.0752296071991L235.090183098793,163.09315554118817L235.4714528838566,163.1822890504466L236.27614288248333,163.35757502080563L236.54628881059372,163.4125097009532L236.78769581018176,163.45993463399384L237.0789169525419,163.5150517510613L237.53682388033187,163.59708137683822L238.13459359359743,163.69562968703528L238.14608916500637,163.6974300500655L238.45455366447993,163.74440180441815L238.4698810930252,163.74666859435382L238.9220402351107,163.81067128093466L239.14620387758526,163.84034474805347L239.67500016239714,163.90493787680876L239.77654437650952,163.9164721684227L240.46053087534224,163.9868617658724L240.48352201816013,163.98900675687617L240.94717673165457,164.02919402932176L240.95675637449537,164.0299626500605L240.97016787447248,164.0310345354471L241.1732563026973,164.04666713326017L241.4817208021709,164.06826249976092L241.65415437330518,164.07920510406717L242.01051708698273,164.09925276997137L242.14846394389016,164.10608408133896L242.27491522938863,164.11189051109912L242.6025390145438,164.1249069470454L242.69641951438356,164.12809743906277L242.7692247999736,164.13040626469603L242.83436637129103,164.1323495690203L242.90717165688105,164.13438457740645L242.98189287103924,164.13632285139246L243.10259637083328,164.1391323326435L243.20414058494566,164.14118817210849L243.27886179910388,164.1425213985073L243.35358301326207,164.1437023700156L243.3804060132163,164.14408917065143L243.412976798875,164.1445324754329L243.61989708423616,164.14667312092172L243.65821565559932,164.146941397326L243.72335722691673,164.1473055863425L243.83448108386995,164.14765975203653L243.895790798051,164.14771101417134" fill="none"></path></g></g></g></g></g></g><g transform="translate(61, 177)" clip-path="url(#clip_1)"><clipPath id="clip_1"><rect width="268" height="22"></rect></clipPath><g><g><line x1="0" y1="0" x2="0" y2="5" style="visibility: inherit;" fill="rgb(0, 0, 0)" stroke="rgb(204, 204, 204)" stroke-width="1px"></line><line x1="19.159285681588308" y1="0" x2="19.159285681588308" y2="5" style="visibility: inherit;" fill="rgb(0, 0, 0)" stroke="rgb(204, 204, 204)" stroke-width="1px"></line><line x1="38.318571363176616" y1="0" x2="38.318571363176616" y2="5" style="visibility: inherit;" fill="rgb(0, 0, 0)" stroke="rgb(204, 204, 204)" stroke-width="1px"></line><line x1="57.477857044764924" y1="0" x2="57.477857044764924" y2="5" style="visibility: inherit;" fill="rgb(0, 0, 0)" stroke="rgb(204, 204, 204)" stroke-width="1px"></line><line x1="76.63714272635323" y1="0" x2="76.63714272635323" y2="5" style="visibility: inherit;" fill="rgb(0, 0, 0)" stroke="rgb(204, 204, 204)" stroke-width="1px"></line><line x1="95.79642840794155" y1="0" x2="95.79642840794155" y2="5" style="visibility: inherit;" fill="rgb(0, 0, 0)" stroke="rgb(204, 204, 204)" stroke-width="1px"></line><line x1="114.95571408952985" y1="0" x2="114.95571408952985" y2="5" style="visibility: inherit;" fill="rgb(0, 0, 0)" stroke="rgb(204, 204, 204)" stroke-width="1px"></line><line x1="134.11499977111816" y1="0" x2="134.11499977111816" y2="5" style="visibility: inherit;" fill="rgb(0, 0, 0)" stroke="rgb(204, 204, 204)" stroke-width="1px"></line><line x1="153.27428545270647" y1="0" x2="153.27428545270647" y2="5" style="visibility: inherit;" fill="rgb(0, 0, 0)" stroke="rgb(204, 204, 204)" stroke-width="1px"></line><line x1="172.4335711342948" y1="0" x2="172.4335711342948" y2="5" style="visibility: inherit;" fill="rgb(0, 0, 0)" stroke="rgb(204, 204, 204)" stroke-width="1px"></line><line x1="191.5928568158831" y1="0" x2="191.5928568158831" y2="5" style="visibility: inherit;" fill="rgb(0, 0, 0)" stroke="rgb(204, 204, 204)" stroke-width="1px"></line><line x1="210.7521424974714" y1="0" x2="210.7521424974714" y2="5" style="visibility: inherit;" fill="rgb(0, 0, 0)" stroke="rgb(204, 204, 204)" stroke-width="1px"></line><line x1="229.9114281790597" y1="0" x2="229.9114281790597" y2="5" style="visibility: inherit;" fill="rgb(0, 0, 0)" stroke="rgb(204, 204, 204)" stroke-width="1px"></line><line x1="249.07071386064803" y1="0" x2="249.07071386064803" y2="5" style="visibility: inherit;" fill="rgb(0, 0, 0)" stroke="rgb(204, 204, 204)" stroke-width="1px"></line><line x1="268.2299995422363" y1="0" x2="268.2299995422363" y2="5" style="visibility: inherit;" fill="rgb(0, 0, 0)" stroke="rgb(204, 204, 204)" stroke-width="1px"></line></g><g transform="translate(0, 8)"><text style="text-anchor: middle; visibility: hidden; font-family: &quot;Helvetica Neue&quot;, sans-serif; font-size: 12px; font-weight: 200;" x="0" y="0" dx="0em" dy="0.95em" fill="rgb(50, 49, 63)" stroke="none" stroke-width="1px">-10k</text><text style="text-anchor: middle; visibility: inherit; font-family: &quot;Helvetica Neue&quot;, sans-serif; font-size: 12px; font-weight: 200;" x="19.159285681588308" y="0" dx="0em" dy="0.95em" fill="rgb(50, 49, 63)" stroke="none" stroke-width="1px">0</text><text style="text-anchor: middle; visibility: hidden; font-family: &quot;Helvetica Neue&quot;, sans-serif; font-size: 12px; font-weight: 200;" x="38.318571363176616" y="0" dx="0em" dy="0.95em" fill="rgb(50, 49, 63)" stroke="none" stroke-width="1px">10k</text><text style="text-anchor: middle; visibility: inherit; font-family: &quot;Helvetica Neue&quot;, sans-serif; font-size: 12px; font-weight: 200;" x="57.477857044764924" y="0" dx="0em" dy="0.95em" fill="rgb(50, 49, 63)" stroke="none" stroke-width="1px">20k</text><text style="text-anchor: middle; visibility: hidden; font-family: &quot;Helvetica Neue&quot;, sans-serif; font-size: 12px; font-weight: 200;" x="76.63714272635323" y="0" dx="0em" dy="0.95em" fill="rgb(50, 49, 63)" stroke="none" stroke-width="1px">30k</text><text style="text-anchor: middle; visibility: inherit; font-family: &quot;Helvetica Neue&quot;, sans-serif; font-size: 12px; font-weight: 200;" x="95.79642840794155" y="0" dx="0em" dy="0.95em" fill="rgb(50, 49, 63)" stroke="none" stroke-width="1px">40k</text><text style="text-anchor: middle; visibility: hidden; font-family: &quot;Helvetica Neue&quot;, sans-serif; font-size: 12px; font-weight: 200;" x="114.95571408952985" y="0" dx="0em" dy="0.95em" fill="rgb(50, 49, 63)" stroke="none" stroke-width="1px">50k</text><text style="text-anchor: middle; visibility: inherit; font-family: &quot;Helvetica Neue&quot;, sans-serif; font-size: 12px; font-weight: 200;" x="134.11499977111816" y="0" dx="0em" dy="0.95em" fill="rgb(50, 49, 63)" stroke="none" stroke-width="1px">60k</text><text style="text-anchor: middle; visibility: hidden; font-family: &quot;Helvetica Neue&quot;, sans-serif; font-size: 12px; font-weight: 200;" x="153.27428545270647" y="0" dx="0em" dy="0.95em" fill="rgb(50, 49, 63)" stroke="none" stroke-width="1px">70k</text><text style="text-anchor: middle; visibility: inherit; font-family: &quot;Helvetica Neue&quot;, sans-serif; font-size: 12px; font-weight: 200;" x="172.4335711342948" y="0" dx="0em" dy="0.95em" fill="rgb(50, 49, 63)" stroke="none" stroke-width="1px">80k</text><text style="text-anchor: middle; visibility: hidden; font-family: &quot;Helvetica Neue&quot;, sans-serif; font-size: 12px; font-weight: 200;" x="191.5928568158831" y="0" dx="0em" dy="0.95em" fill="rgb(50, 49, 63)" stroke="none" stroke-width="1px">90k</text><text style="text-anchor: middle; visibility: inherit; font-family: &quot;Helvetica Neue&quot;, sans-serif; font-size: 12px; font-weight: 200;" x="210.7521424974714" y="0" dx="0em" dy="0.95em" fill="rgb(50, 49, 63)" stroke="none" stroke-width="1px">100k</text><text style="text-anchor: middle; visibility: hidden; font-family: &quot;Helvetica Neue&quot;, sans-serif; font-size: 12px; font-weight: 200;" x="229.9114281790597" y="0" dx="0em" dy="0.95em" fill="rgb(50, 49, 63)" stroke="none" stroke-width="1px">110k</text><text style="text-anchor: middle; visibility: inherit; font-family: &quot;Helvetica Neue&quot;, sans-serif; font-size: 12px; font-weight: 200;" x="249.07071386064803" y="0" dx="0em" dy="0.95em" fill="rgb(50, 49, 63)" stroke="none" stroke-width="1px">120k</text><text style="text-anchor: middle; visibility: hidden; font-family: &quot;Helvetica Neue&quot;, sans-serif; font-size: 12px; font-weight: 200;" x="268.2299995422363" y="0" dx="0em" dy="0.95em" fill="rgb(50, 49, 63)" stroke="none" stroke-width="1px">130k</text></g><line x1="0" y1="0" x2="268.2299995422363" y2="0" fill="rgb(0, 0, 0)" stroke="rgb(204, 204, 204)" stroke-width="1px"></line></g></g></g></g></svg>