<svg viewBox="0 0 330 200" xmlns="http://www.w3.org/2000/svg"><g><g><g><g><g><line x1="51.41600036621094" y1="177.9749994277954" x2="46.41600036621094" y2="177.9749994277954" style="visibility: inherit;" fill="rgb(0, 0, 0)" stroke="rgb(204, 204, 204)" stroke-width="1px"></line><line x1="51.41600036621094" y1="163.14374947547913" x2="46.41600036621094" y2="163.14374947547913" style="visibility: inherit;" fill="rgb(0, 0, 0)" stroke="rgb(204, 204, 204)" stroke-width="1px"></line><line x1="51.41600036621094" y1="148.31249952316284" x2="46.41600036621094" y2="148.31249952316284" style="visibility: inherit;" fill="rgb(0, 0, 0)" stroke="rgb(204, 204, 204)" stroke-width="1px"></line><line x1="51.41600036621094" y1="133.48124957084656" x2="46.41600036621094" y2="133.48124957084656" style="visibility: inherit;" fill="rgb(0, 0, 0)" stroke="rgb(204, 204, 204)" stroke-width="1px"></line><line x1="51.41600036621094" y1="118.64999961853027" x2="46.41600036621094" y2="118.64999961853027" style="visibility: inherit;" fill="rgb(0, 0, 0)" stroke="rgb(204, 204, 204)" stroke-width="1px"></line><line x1="51.41600036621094" y1="103.81874966621399" x2="46.41600036621094" y2="103.81874966621399" style="visibility: inherit;" fill="rgb(0, 0, 0)" stroke="rgb(204, 204, 204)" stroke-width="1px"></line><line x1="51.41600036621094" y1="88.98749971389772" x2="46.41600036621094" y2="88.98749971389772" style="visibility: inherit;" fill="rgb(0, 0, 0)" stroke="rgb(204, 204, 204)" stroke-width="1px"></line><line x1="51.41600036621094" y1="74.15624976158144" x2="46.41600036621094" y2="74.15624976158144" style="visibility: inherit;" fill="rgb(0, 0, 0)" stroke="rgb(204, 204, 204)" stroke-width="1px"></line><line x1="51.41600036621094" y1="59.324999809265165" x2="46.41600036621094" y2="59.324999809265165" style="visibility: inherit;" fill="rgb(0, 0, 0)" stroke="rgb(204, 204, 204)" stroke-width="1px"></line><line x1="51.41600036621094" y1="44.49374985694888" x2="46.41600036621094" y2="44.49374985694888" style="visibility: inherit;" fill="rgb(0, 0, 0)" stroke="rgb(204, 204, 204)" stroke-width="1px"></line><line x1="51.41600036621094" y1="29.66249990463257" x2="46.41600036621094" y2="29.66249990463257" style="visibility: inherit;" fill="rgb(0, 0, 0)" stroke="rgb(204, 204, 204)" stroke-width="1px"></line><line x1="51.41600036621094" y1="14.831249952316284" x2="46.41600036621094" y2="14.831249952316284" style="visibility: inherit;" fill="rgb(0, 0, 0)" stroke="rgb(204, 204, 204)" stroke-width="1px"></line><line x1="51.41600036621094" y1="0" x2="46.41600036621094" y2="0" style="visibility: inherit;" fill="rgb(0, 0, 0)" stroke="rgb(204, 204, 204)" stroke-width="1px"></line></g><g transform="translate(41.41600036621094, 0)"><text style="text-anchor: end; visibility: hidden; font-family: &quot;Helvetica Neue&quot;, sans-serif; font-size: 12px; font-weight: 200;" x="0" y="177.9749994277954" dx="0em" dy="0.3em" fill="rgb(50, 49, 63)" stroke="none" stroke-width="1px">-0.1</text><text style="text-anchor: end; visibility: inherit; font-family: &quot;Helvetica Neue&quot;, sans-serif; font-size: 12px; font-weight: 200;" x="0" y="163.14374947547913" dx="0em" dy="0.3em" fill="rgb(50, 49, 63)" stroke="none" stroke-width="1px">0</text><text style="text-anchor: end; visibility: hidden; font-family: &quot;Helvetica Neue&quot;, sans-serif; font-size: 12px; font-weight: 200;" x="0" y="148.31249952316284" dx="0em" dy="0.3em" fill="rgb(50, 49, 63)" stroke="none" stroke-width="1px">0.1</text><text style="text-anchor: end; visibility: inherit; font-family: &quot;Helvetica Neue&quot;, sans-serif; font-size: 12px; font-weight: 200;" x="0" y="133.48124957084656" dx="0em" dy="0.3em" fill="rgb(50, 49, 63)" stroke="none" stroke-width="1px">0.2</text><text style="text-anchor: end; visibility: hidden; font-family: &quot;Helvetica Neue&quot;, sans-serif; font-size: 12px; font-weight: 200;" x="0" y="118.64999961853027" dx="0em" dy="0.3em" fill="rgb(50, 49, 63)" stroke="none" stroke-width="1px">0.3</text><text style="text-anchor: end; visibility: inherit; font-family: &quot;Helvetica Neue&quot;, sans-serif; font-size: 12px; font-weight: 200;" x="0" y="103.81874966621399" dx="0em" dy="0.3em" fill="rgb(50, 49, 63)" stroke="none" stroke-width="1px">0.4</text><text style="text-anchor: end; visibility: hidden; font-family: &quot;Helvetica Neue&quot;, sans-serif; font-size: 12px; font-weight: 200;" x="0" y="88.98749971389772" dx="0em" dy="0.3em" fill="rgb(50, 49, 63)" stroke="none" stroke-width="1px">0.5</text><text style="text-anchor: end; visibility: inherit; font-family: &quot;Helvetica Neue&quot;, sans-serif; font-size: 12px; font-weight: 200;" x="0" y="74.15624976158144" dx="0em" dy="0.3em" fill="rgb(50, 49, 63)" stroke="none" stroke-width="1px">0.6</text><text style="text-anchor: end; visibility: hidden; font-family: &quot;Helvetica Neue&quot;, sans-serif; font-size: 12px; font-weight: 200;" x="0" y="59.324999809265165" dx="0em" dy="0.3em" fill="rgb(50, 49, 63)" stroke="none" stroke-width="1px">0.7</text><text style="text-anchor: end; visibility: inherit; font-family: &quot;Helvetica Neue&quot;, sans-serif; font-size: 12px; font-weight: 200;" x="0" y="44.49374985694888" dx="0em" dy="0.3em" fill="rgb(50, 49, 63)" stroke="none" stroke-width="1px">0.8</text><text style="text-anchor: end; visibility: hidden; font-family: &quot;Helvetica Neue&quot;, sans-serif; font-size: 12px; font-weight: 200;" x="0" y="29.66249990463257" dx="0em" dy="0.3em" fill="rgb(50, 49, 63)" stroke="none" stroke-width="1px">0.9</text><text style="text-anchor: end; visibility: inherit; font-family: &quot;Helvetica Neue&quot;, sans-serif; font-size: 12px; font-weight: 200;" x="0" y="14.831249952316284" dx="0em" dy="0.3em" fill="rgb(50, 49, 63)" stroke="none" stroke-width="1px">1</text><text style="text-anchor: end; visibility: hidden; font-family: &quot;Helvetica Neue&quot;, sans-serif; font-size: 12px; font-weight: 200;" x="0" y="0" dx="0em" dy="0.3em" fill="rgb(50, 49, 63)" stroke="none" stroke-width="1px">1.1</text></g><line x1="51.41600036621094" y1="0" x2="51.41600036621094" y2="177.9749994277954" fill="rgb(0, 0, 0)" stroke="rgb(204, 204, 204)" stroke-width="1px"></line></g></g><g transform="translate(51, 0)" clip-path="url(#clip_0)"><clipPath id="clip_0"><rect width="278" height="177"></rect></clipPath><g><g><g><line x1="0" y1="0" x2="0" y2="177.9749994277954" fill="rgb(0, 0, 0)" stroke="rgb(60, 60, 60)" stroke-width="1px" opacity="0.25"></line><line x1="23.215333302815754" y1="0" x2="23.215333302815754" y2="177.9749994277954" fill="rgb(0, 0, 0)" stroke="rgb(60, 60, 60)" stroke-width="1px" opacity="0.25"></line><line x1="46.43066660563151" y1="0" x2="46.43066660563151" y2="177.9749994277954" fill="rgb(0, 0, 0)" stroke="rgb(60, 60, 60)" stroke-width="1px" opacity="0.25"></line><line x1="69.64599990844727" y1="0" x2="69.64599990844727" y2="177.9749994277954" fill="rgb(0, 0, 0)" stroke="rgb(60, 60, 60)" stroke-width="1px" opacity="0.25"></line><line x1="92.86133321126302" y1="0" x2="92.86133321126302" y2="177.9749994277954" fill="rgb(0, 0, 0)" stroke="rgb(60, 60, 60)" stroke-width="1px" opacity="0.25"></line><line x1="116.07666651407878" y1="0" x2="116.07666651407878" y2="177.9749994277954" fill="rgb(0, 0, 0)" stroke="rgb(60, 60, 60)" stroke-width="1px" opacity="0.25"></line><line x1="139.29199981689453" y1="0" x2="139.29199981689453" y2="177.9749994277954" fill="rgb(0, 0, 0)" stroke="rgb(60, 60, 60)" stroke-width="1px" opacity="0.25"></line><line x1="162.5073331197103" y1="0" x2="162.5073331197103" y2="177.9749994277954" fill="rgb(0, 0, 0)" stroke="rgb(60, 60, 60)" stroke-width="1px" opacity="0.25"></line><line x1="185.72266642252603" y1="0" x2="185.72266642252603" y2="177.9749994277954" fill="rgb(0, 0, 0)" stroke="rgb(60, 60, 60)" stroke-width="1px" opacity="0.25"></line><line x1="208.9379997253418" y1="0" x2="208.9379997253418" y2="177.9749994277954" fill="rgb(0, 0, 0)" stroke="rgb(60, 60, 60)" stroke-width="1px" opacity="0.25"></line><line x1="232.15333302815756" y1="0" x2="232.15333302815756" y2="177.9749994277954" fill="rgb(0, 0, 0)" stroke="rgb(60, 60, 60)" stroke-width="1px" opacity="0.25"></line><line x1="255.3686663309733" y1="0" x2="255.3686663309733" y2="177.9749994277954" fill="rgb(0, 0, 0)" stroke="rgb(60, 60, 60)" stroke-width="1px" opacity="0.25"></line><line x1="278.58399963378906" y1="0" x2="278.58399963378906" y2="177.9749994277954" fill="rgb(0, 0, 0)" stroke="rgb(60, 60, 60)" stroke-width="1px" opacity="0.25"></line></g><g><line x1="0" y1="177.9749994277954" x2="278.58399963378906" y2="177.9749994277954" fill="rgb(0, 0, 0)" stroke="rgb(60, 60, 60)" stroke-width="1px" opacity="0.25"></line><line x1="0" y1="163.14374947547913" x2="278.58399963378906" y2="163.14374947547913" fill="rgb(0, 0, 0)" stroke="rgb(60, 60, 60)" stroke-width="1px" opacity="0.25"></line><line x1="0" y1="148.31249952316284" x2="278.58399963378906" y2="148.31249952316284" fill="rgb(0, 0, 0)" stroke="rgb(60, 60, 60)" stroke-width="1px" opacity="0.25"></line><line x1="0" y1="133.48124957084656" x2="278.58399963378906" y2="133.48124957084656" fill="rgb(0, 0, 0)" stroke="rgb(60, 60, 60)" stroke-width="1px" opacity="0.25"></line><line x1="0" y1="118.64999961853027" x2="278.58399963378906" y2="118.64999961853027" fill="rgb(0, 0, 0)" stroke="rgb(60, 60, 60)" stroke-width="1px" opacity="0.25"></line><line x1="0" y1="103.81874966621399" x2="278.58399963378906" y2="103.81874966621399" fill="rgb(0, 0, 0)" stroke="rgb(60, 60, 60)" stroke-width="1px" opacity="0.25"></line><line x1="0" y1="88.98749971389772" x2="278.58399963378906" y2="88.98749971389772" fill="rgb(0, 0, 0)" stroke="rgb(60, 60, 60)" stroke-width="1px" opacity="0.25"></line><line x1="0" y1="74.15624976158144" x2="278.58399963378906" y2="74.15624976158144" fill="rgb(0, 0, 0)" stroke="rgb(60, 60, 60)" stroke-width="1px" opacity="0.25"></line><line x1="0" y1="59.324999809265165" x2="278.58399963378906" y2="59.324999809265165" fill="rgb(0, 0, 0)" stroke="rgb(60, 60, 60)" stroke-width="1px" opacity="0.25"></line><line x1="0" y1="44.49374985694888" x2="278.58399963378906" y2="44.49374985694888" fill="rgb(0, 0, 0)" stroke="rgb(60, 60, 60)" stroke-width="1px" opacity="0.25"></line><line x1="0" y1="29.66249990463257" x2="278.58399963378906" y2="29.66249990463257" fill="rgb(0, 0, 0)" stroke="rgb(60, 60, 60)" stroke-width="1px" opacity="0.25"></line><line x1="0" y1="14.831249952316284" x2="278.58399963378906" y2="14.831249952316284" fill="rgb(0, 0, 0)" stroke="rgb(60, 60, 60)" stroke-width="1px" opacity="0.25"></line><line x1="0" y1="0" x2="278.58399963378906" y2="0" fill="rgb(0, 0, 0)" stroke="rgb(60, 60, 60)" stroke-width="1px" opacity="0.25"></line></g></g></g><g><g><line x1="0" y1="163.14374947547913" x2="278.58399963378906" y2="163.14374947547913" fill="rgb(0, 0, 0)" stroke="rgb(153, 153, 153)" stroke-width="1.5px"></line></g></g><g><g><line x1="23.215333302815754" y1="0" x2="23.215333302815754" y2="177.9749994277954" fill="rgb(0, 0, 0)" stroke="rgb(153, 153, 153)" stroke-width="1.5px"></line></g></g><g><g><g><g><g><path style="fill: none;" stroke="rgb(51, 187, 238)" stroke-width="2px" d="M23.215333302815754,161.89792452390614L24.37609996795654,120.97257422244371L25.53686663309733,108.7990832828051L26.69763329823812,103.64670690651418L27.858399963378908,101.18768779736281L29.019166628519695,98.20067078824582L30.179933293660483,96.98450980558337L31.34069995880127,95.67046224226178L32.50146662394206,94.58481228042127L33.66223328908285,93.70976919093908L34.82299995422363,93.077957413978L35.983766619364424,56.30536012800813L37.14453328450521,49.15076426558497L38.305299949646,45.514135910270255L39.46606661478678,42.30169157792571L40.626833279927574,39.33247413804534L41.78759994506836,37.27686478431704L42.94836661020915,35.4140583136535L44.10913327534993,33.586850981463215L45.269899940490724,32.19864370305541L46.43066660563151,30.19345835872653L47.5914332707723,29.29765426186799L48.75219993591308,27.79079497536779L49.912966601053874,27.274664928245556L51.07373326619466,25.723322188853018L52.23449993133545,24.89276697232009L53.39526659647624,24.029591735681294L54.556033261617024,23.442272251726394L55.716799926757815,22.368490142729286L56.8775665918986,21.9324515270865L58.03833325703939,21.76041407145499L59.199099922180174,20.728153977210525L60.359866587320965,20.446357668019544L61.52063325246175,19.76709215991258L62.68139991760254,19.28062069475652L63.842166582743324,18.915780356060253L65.00293324788412,18.761529209494626L66.1636999130249,18.257271435272713L67.3244665781657,18.11785399974707L68.48523324330647,17.972504847828162L69.64599990844727,17.705542249677222L70.80676657358805,17.290269061467654L71.96753323872885,17.180519048022063L73.12829990386963,16.860162162218103L74.28906656901042,16.69701786111952L75.4498332341512,16.68515442833305L76.610599899292,16.63769185707332L77.77136656443278,16.32920724416971L78.93213322957357,16.444888974008563L80.09289989471435,16.34404095520975L81.25366655985515,16.17199465946436L82.41443322499593,15.69739546720865L83.57519989013672,15.578743459116254L84.7359665552775,15.480856878457104L85.8967332204183,15.436364585450889L87.05749988555908,15.430432869057654L88.21826655069987,15.519417455070055L89.37903321584066,15.460091451023857L90.53979988098145,15.368145426871791L91.70056654612223,15.362204870364707L92.86133321126302,15.442296301844152L94.02209987640381,15.353311715831751L95.1828665415446,15.362204870364707L96.34363320668538,15.30584914457205L97.50439987182617,15.406706003484743L98.66516653696696,15.293985711785552L99.82593320210775,15.359243432224986L100.98669986724853,15.350341437578209L102.14746653238932,15.40077428709148L103.30823319753011,15.30584914457205L104.4689998626709,15.30288770643233L105.62976652781168,15.317712577358492L106.79053319295248,15.320682855612034L107.95129985809326,15.282122278999083L109.11206652323405,15.258386573312293L110.27283318837483,15.267288567959099L111.43359985351563,15.270258846212641L112.59436651865641,15.317712577358492L113.7551331837972,15.261356851565836L114.91589984893798,15.187197136479654L116.07666651407878,15.320682855612034L117.23743317921956,15.273220284352305L118.39819984436035,15.196099131126402L119.55896650950113,15.231689429485812L120.71973317464193,15.264318289705557L121.88049983978271,15.27915200074554L123.0412665049235,15.196099131126402L124.2020331700643,15.237629985992896L125.36279983520508,15.252454856919059L126.52356650034586,15.252454856919059L127.68433316548665,15.258386573312293L128.84509983062745,15.222796274952884L130.00586649576823,15.169401987299949L131.16663316090902,15.151606838120244L132.3273998260498,15.228727991346148L133.4881664911906,15.184235698339933L134.6489331563314,15.178303981946698L135.80969982147215,15.246523140525852L136.97046648661293,15.145675121726981L138.13123315175375,15.169401987299949L139.29199981689453,15.184235698339933L140.45276648203532,15.202030847519637L141.6135331471761,15.163470270906686L142.77429981231688,15.145675121726981L143.9350664774577,15.166440549160228L145.09583314259848,15.202030847519637L146.25659980773926,15.160499992653143L147.41736647288005,15.157538554513451L148.57813313802083,15.154568276259909L149.73889980316162,15.19312885287286L150.8996664683024,15.169401987299949L152.06043313344318,15.148636559866702L153.221199798584,15.178303981946698L154.38196646372478,15.196099131126402L155.54273312886556,15.142704843473439L156.70349979400635,15.199060569266095L157.86426645914713,15.169401987299949L159.02503312428792,15.139743405333746L160.1857997894287,15.187197136479654L161.3465664545695,15.169401987299949L162.5073331197103,15.157538554513451L163.66809978485108,15.145675121726981L164.82886644999186,15.11007598325375L165.98963311513265,15.178303981946698L167.15039978027343,15.175333703693155L168.31116644541422,15.172372265553491L169.471933110555,15.166440549160228L170.6326997756958,15.175333703693155L171.7934664408366,15.136773127080204L172.95423310597738,15.130841410686998L174.11499977111816,15.160499992653143L175.27576643625895,15.160499992653143L176.43653310139973,15.089310555820504L177.59729976654052,15.163470270906686L178.75806643168133,15.20500112577318L179.9188330968221,15.142704843473439L181.0795997619629,15.148636559866702L182.24036642710368,15.151606838120244L183.40113309224446,15.187197136479654L184.56189975738525,15.166440549160228L185.72266642252603,15.157538554513451L186.88343308766682,15.157538554513451L188.04419975280763,15.154568276259909L189.2049664179484,15.20500112577318L190.3657330830892,15.10711454511403L191.52649974822998,15.116007699646957L192.68726641337076,15.136773127080204L193.84803307851155,15.160499992653143L195.00879974365233,15.077447123034005L196.16956640879314,15.136773127080204L197.33033307393393,15.169401987299949L198.4910997390747,15.136773127080204L199.6518664042155,15.175333703693155L200.81263306935628,15.166440549160228L201.97339973449706,15.199060569266095L203.13416639963785,15.145675121726981L204.29493306477863,15.151606838120244L205.45569972991944,15.130841410686998L206.61646639506023,15.127871132433455L207.777233060201,15.08337883942724L208.9379997253418,15.166440549160228L210.09876639048258,15.175333703693155L211.25953305562336,15.166440549160228L212.42029972076415,15.172372265553491L213.58106638590496,15.157538554513451L214.74183305104575,15.175333703693155L215.90259971618653,15.1189779779005L217.0633663813273,15.187197136479654L218.2241330464681,15.178303981946698L219.38489971160888,15.10711454511403L220.54566637674967,15.145675121726981L221.70643304189045,15.142704843473439L222.86719970703126,15.166440549160228L224.02796637217205,15.071515406640799L225.18873303731283,15.124909694293734L226.3494997024536,15.196099131126402L227.5102663675944,15.1189779779005L228.67103303273518,15.139743405333746L229.83179969787597,15.127871132433455L230.99256636301678,15.127871132433455L232.15333302815756,15.127871132433455L233.31409969329835,15.154568276259909L234.47486635843913,15.113046261507293L235.6356330235799,15.160499992653143L236.7963996887207,15.098212550467252L237.95716635386148,15.1189779779005L239.11793301900227,15.145675121726981L240.27869968414308,15.184235698339933L241.43946634928386,15.163470270906686L242.60023301442465,15.2079625639129L243.76099967956543,15.136773127080204L244.9217663447062,15.121939416040192L246.082533009847,15.151606838120244L247.24329967498778,15.1189779779005L248.4040663401286,15.104144266860487L249.56483300526938,15.2079625639129L250.72559967041016,15.187197136479654L251.88636633555095,15.169401987299949L253.04713300069173,15.175333703693155L254.2078996658325,15.157538554513451" fill="none"></path></g><g><path style="fill: none;" stroke="rgb(0, 119, 187)" stroke-width="2px" d="M23.215333302815754,162.2983682139424L24.37609996795654,119.28774134386184L25.53686663309733,105.99894186041655L26.69763329823812,100.57070531138481L27.858399963378908,96.69974763819577L29.019166628519695,94.62337285703423L30.179933293660483,93.12541998523773L31.34069995880127,91.6274626933843L32.50146662394206,91.10836678806545L33.66223328908285,89.9663611004323L34.82299995422363,88.92817370985152L35.983766619364424,55.72100208219294L37.14453328450521,51.87971625114085L38.305299949646,49.93681834899783L39.46606661478678,48.18673217003348L40.626833279927574,45.69508420066239L41.78759994506836,45.294635883379016L42.94836661020915,44.83487040216329L44.10913327534993,44.523415511006135L45.269899940490724,44.108133482682746L46.43066660563151,43.55938341545465L47.5914332707723,43.11444280516508L48.75219993591308,43.76702000955942L49.912966601053874,43.15893509817127L51.07373326619466,42.86231391805413L52.23449993133545,42.65467732394936L53.39526659647624,42.59535131990316L54.556033261617024,42.32838872175219L55.716799926757815,41.82412210741643L56.8775665918986,42.016933830595036L58.03833325703939,42.13557699857358L59.199099922180174,42.81782162504794L60.359866587320965,42.002100119555024L61.52063325246175,41.77962981441024L62.68139991760254,42.0910847055674L63.842166582743324,42.72882819892172L65.00293324788412,42.12075212764742L66.1636999130249,42.076259834641235L67.3244665781657,42.10591841660741L68.48523324330647,41.61648551331166L69.64599990844727,42.16524442065361L70.80676657358805,41.98726640851501L71.96753323872885,41.868614400422615L73.12829990386963,41.660977806317845L74.28906656901042,41.46817492325309L75.4498332341512,41.868614400422615L76.610599899292,41.586826931345485L77.77136656443278,41.61648551331166L78.93213322957357,42.150410709613595L80.09289989471435,42.002100119555024L81.25366655985515,41.49783350521926L82.41443322499593,40.815597718858754L83.57519989013672,40.682120839840195L84.7359665552775,40.533810249781624L85.8967332204183,40.889757433944965L87.05749988555908,40.86009001186494L88.21826655069987,40.59312741371397L89.37903321584066,40.87492372290495L90.53979988098145,40.548635120707786L91.70056654612223,40.90459114498498L92.86133321126302,40.37066594868304L94.02209987640381,41.05290173504355L95.1828665415446,40.682120839840195L96.34363320668538,40.607961124753984L97.50439987182617,40.69694571076636L98.66516653696696,40.607961124753984L99.82593320210775,40.69694571076636L100.98669986724853,40.533810249781624L102.14746653238932,40.548635120707786L103.30823319753011,40.51897653874161L104.4689998626709,40.756271714812556L105.62976652781168,40.63762854683401L106.79053319295248,40.87492372290495L107.95129985809326,40.682120839840195L109.11206652323405,40.71177942180637L110.27283318837483,40.69694571076636L111.43359985351563,40.5634688317478L112.59436651865641,40.45965053469541L113.7551331837972,40.3854908196092L114.91589984893798,40.5041428277016L116.07666651407878,40.48930911666159L117.23743317921956,40.86009001186494L118.39819984436035,40.45965053469541L119.55896650950113,40.66728712880018L120.71973317464193,40.66728712880018L121.88049983978271,40.5634688317478L123.0412665049235,40.682120839840195L124.2020331700643,40.48930911666159L125.36279983520508,40.71177942180637L126.52356650034586,40.548635120707786L127.68433316548665,40.37066594868304L128.84509983062745,40.69694571076636L130.00586649576823,40.48930911666159L131.16663316090902,40.45965053469541L132.3273998260498,40.35583223764303L133.4881664911906,40.5041428277016L134.6489331563314,40.57830254278781L135.80969982147215,40.63762854683401L136.97046648661293,40.815597718858754L138.13123315175375,40.48930911666159L139.29199981689453,40.48930911666159L140.45276648203532,40.59312741371397L141.6135331471761,40.42998311261539L142.77429981231688,40.5634688317478L143.9350664774577,40.533810249781624L145.09583314259848,40.37066594868304L146.25659980773926,40.340998526603016L147.41736647288005,40.37066594868304L148.57813313802083,40.41515824168923L149.73889980316162,40.45965053469541L150.8996664683024,40.37066594868304L152.06043313344318,40.607961124753984L153.221199798584,40.51897653874161L154.38196646372478,40.29650623359683L155.54273312886556,40.474484245735425L156.70349979400635,40.59312741371397L157.86426645914713,40.682120839840195L159.02503312428792,40.400324530649215L160.1857997894287,40.41515824168923L161.3465664545695,40.41515824168923L162.5073331197103,40.37066594868304L163.66809978485108,40.51897653874161L164.82886644999186,40.4448168236554L165.98963311513265,40.63762854683401L167.15039978027343,40.66728712880018L168.31116644541422,40.51897653874161L169.471933110555,40.622794835794L170.6326997756958,40.607961124753984L171.7934664408366,40.622794835794L172.95423310597738,40.474484245735425L174.11499977111816,40.3854908196092L175.27576643625895,40.31133994463684L176.43653310139973,40.548635120707786L177.59729976654052,40.48930911666159L178.75806643168133,40.37066594868304L179.9188330968221,40.59312741371397L181.0795997619629,40.474484245735425L182.24036642710368,40.682120839840195L183.40113309224446,40.59312741371397L184.56189975738525,40.41515824168923L185.72266642252603,40.41515824168923L186.88343308766682,40.66728712880018L188.04419975280763,40.63762854683401L189.2049664179484,40.607961124753984L190.3657330830892,40.69694571076636L191.52649974822998,40.48930911666159L192.68726641337076,40.71177942180637L193.84803307851155,40.607961124753984L195.00879974365233,40.69694571076636L196.16956640879314,40.41515824168923L197.33033307393393,40.533810249781624L198.4910997390747,40.622794835794L199.6518664042155,40.5041428277016L200.81263306935628,40.57830254278781L201.97339973449706,40.622794835794L203.13416639963785,40.4448168236554L204.29493306477863,40.474484245735425L205.45569972991944,40.4448168236554L206.61646639506023,40.4448168236554L207.777233060201,40.326164815563004L208.9379997253418,40.548635120707786L210.09876639048258,40.45965053469541L211.25953305562336,40.37066594868304L212.42029972076415,40.48930911666159L213.58106638590496,40.4448168236554L214.74183305104575,40.326164815563004L215.90259971618653,40.4448168236554L217.0633663813273,40.66728712880018L218.2241330464681,40.28167252255682L219.38489971160888,40.42998311261539L220.54566637674967,40.48930911666159L221.70643304189045,40.48930911666159L222.86719970703126,40.29650623359683L224.02796637217205,40.5634688317478L225.18873303731283,40.5041428277016L226.3494997024536,40.548635120707786L227.5102663675944,40.5634688317478L228.67103303273518,40.5634688317478L229.83179969787597,40.72661313284638L230.99256636301678,40.4448168236554L232.15333302815756,40.41515824168923L233.31409969329835,40.37066594868304L234.47486635843913,40.5041428277016L235.6356330235799,40.16302051446442L236.7963996887207,40.326164815563004L237.95716635386148,40.45965053469541L239.11793301900227,40.607961124753984L240.27869968414308,40.57830254278781L241.43946634928386,40.474484245735425L242.60023301442465,40.474484245735425L243.76099967956543,40.607961124753984L244.9217663447062,40.340998526603016L246.082533009847,40.326164815563004L247.24329967498778,40.45965053469541L248.4040663401286,40.48930911666159L249.56483300526938,40.63762854683401L250.72559967041016,40.51897653874161L251.88636633555095,40.4448168236554L253.04713300069173,40.340998526603016L254.2078996658325,40.37066594868304" fill="none"></path></g></g></g></g></g></g><g transform="translate(51, 177)" clip-path="url(#clip_1)"><clipPath id="clip_1"><rect width="278" height="22"></rect></clipPath><g><g><line x1="0" y1="0" x2="0" y2="5" style="visibility: inherit;" fill="rgb(0, 0, 0)" stroke="rgb(204, 204, 204)" stroke-width="1px"></line><line x1="23.215333302815754" y1="0" x2="23.215333302815754" y2="5" style="visibility: inherit;" fill="rgb(0, 0, 0)" stroke="rgb(204, 204, 204)" stroke-width="1px"></line><line x1="46.43066660563151" y1="0" x2="46.43066660563151" y2="5" style="visibility: inherit;" fill="rgb(0, 0, 0)" stroke="rgb(204, 204, 204)" stroke-width="1px"></line><line x1="69.64599990844727" y1="0" x2="69.64599990844727" y2="5" style="visibility: inherit;" fill="rgb(0, 0, 0)" stroke="rgb(204, 204, 204)" stroke-width="1px"></line><line x1="92.86133321126302" y1="0" x2="92.86133321126302" y2="5" style="visibility: inherit;" fill="rgb(0, 0, 0)" stroke="rgb(204, 204, 204)" stroke-width="1px"></line><line x1="116.07666651407878" y1="0" x2="116.07666651407878" y2="5" style="visibility: inherit;" fill="rgb(0, 0, 0)" stroke="rgb(204, 204, 204)" stroke-width="1px"></line><line x1="139.29199981689453" y1="0" x2="139.29199981689453" y2="5" style="visibility: inherit;" fill="rgb(0, 0, 0)" stroke="rgb(204, 204, 204)" stroke-width="1px"></line><line x1="162.5073331197103" y1="0" x2="162.5073331197103" y2="5" style="visibility: inherit;" fill="rgb(0, 0, 0)" stroke="rgb(204, 204, 204)" stroke-width="1px"></line><line x1="185.72266642252603" y1="0" x2="185.72266642252603" y2="5" style="visibility: inherit;" fill="rgb(0, 0, 0)" stroke="rgb(204, 204, 204)" stroke-width="1px"></line><line x1="208.9379997253418" y1="0" x2="208.9379997253418" y2="5" style="visibility: inherit;" fill="rgb(0, 0, 0)" stroke="rgb(204, 204, 204)" stroke-width="1px"></line><line x1="232.15333302815756" y1="0" x2="232.15333302815756" y2="5" style="visibility: inherit;" fill="rgb(0, 0, 0)" stroke="rgb(204, 204, 204)" stroke-width="1px"></line><line x1="255.3686663309733" y1="0" x2="255.3686663309733" y2="5" style="visibility: inherit;" fill="rgb(0, 0, 0)" stroke="rgb(204, 204, 204)" stroke-width="1px"></line><line x1="278.58399963378906" y1="0" x2="278.58399963378906" y2="5" style="visibility: inherit;" fill="rgb(0, 0, 0)" stroke="rgb(204, 204, 204)" stroke-width="1px"></line></g><g transform="translate(0, 8)"><text style="text-anchor: middle; visibility: hidden; font-family: &quot;Helvetica Neue&quot;, sans-serif; font-size: 12px; font-weight: 200;" x="0" y="0" dx="0em" dy="0.95em" fill="rgb(50, 49, 63)" stroke="none" stroke-width="1px">-20</text><text style="text-anchor: middle; visibility: inherit; font-family: &quot;Helvetica Neue&quot;, sans-serif; font-size: 12px; font-weight: 200;" x="23.215333302815754" y="0" dx="0em" dy="0.95em" fill="rgb(50, 49, 63)" stroke="none" stroke-width="1px">0</text><text style="text-anchor: middle; visibility: hidden; font-family: &quot;Helvetica Neue&quot;, sans-serif; font-size: 12px; font-weight: 200;" x="46.43066660563151" y="0" dx="0em" dy="0.95em" fill="rgb(50, 49, 63)" stroke="none" stroke-width="1px">20</text><text style="text-anchor: middle; visibility: inherit; font-family: &quot;Helvetica Neue&quot;, sans-serif; font-size: 12px; font-weight: 200;" x="69.64599990844727" y="0" dx="0em" dy="0.95em" fill="rgb(50, 49, 63)" stroke="none" stroke-width="1px">40</text><text style="text-anchor: middle; visibility: hidden; font-family: &quot;Helvetica Neue&quot;, sans-serif; font-size: 12px; font-weight: 200;" x="92.86133321126302" y="0" dx="0em" dy="0.95em" fill="rgb(50, 49, 63)" stroke="none" stroke-width="1px">60</text><text style="text-anchor: middle; visibility: inherit; font-family: &quot;Helvetica Neue&quot;, sans-serif; font-size: 12px; font-weight: 200;" x="116.07666651407878" y="0" dx="0em" dy="0.95em" fill="rgb(50, 49, 63)" stroke="none" stroke-width="1px">80</text><text style="text-anchor: middle; visibility: hidden; font-family: &quot;Helvetica Neue&quot;, sans-serif; font-size: 12px; font-weight: 200;" x="139.29199981689453" y="0" dx="0em" dy="0.95em" fill="rgb(50, 49, 63)" stroke="none" stroke-width="1px">100</text><text style="text-anchor: middle; visibility: inherit; font-family: &quot;Helvetica Neue&quot;, sans-serif; font-size: 12px; font-weight: 200;" x="162.5073331197103" y="0" dx="0em" dy="0.95em" fill="rgb(50, 49, 63)" stroke="none" stroke-width="1px">120</text><text style="text-anchor: middle; visibility: hidden; font-family: &quot;Helvetica Neue&quot;, sans-serif; font-size: 12px; font-weight: 200;" x="185.72266642252603" y="0" dx="0em" dy="0.95em" fill="rgb(50, 49, 63)" stroke="none" stroke-width="1px">140</text><text style="text-anchor: middle; visibility: inherit; font-family: &quot;Helvetica Neue&quot;, sans-serif; font-size: 12px; font-weight: 200;" x="208.9379997253418" y="0" dx="0em" dy="0.95em" fill="rgb(50, 49, 63)" stroke="none" stroke-width="1px">160</text><text style="text-anchor: middle; visibility: hidden; font-family: &quot;Helvetica Neue&quot;, sans-serif; font-size: 12px; font-weight: 200;" x="232.15333302815756" y="0" dx="0em" dy="0.95em" fill="rgb(50, 49, 63)" stroke="none" stroke-width="1px">180</text><text style="text-anchor: middle; visibility: inherit; font-family: &quot;Helvetica Neue&quot;, sans-serif; font-size: 12px; font-weight: 200;" x="255.3686663309733" y="0" dx="0em" dy="0.95em" fill="rgb(50, 49, 63)" stroke="none" stroke-width="1px">200</text><text style="text-anchor: middle; visibility: hidden; font-family: &quot;Helvetica Neue&quot;, sans-serif; font-size: 12px; font-weight: 200;" x="278.58399963378906" y="0" dx="0em" dy="0.95em" fill="rgb(50, 49, 63)" stroke="none" stroke-width="1px">220</text></g><line x1="0" y1="0" x2="278.58399963378906" y2="0" fill="rgb(0, 0, 0)" stroke="rgb(204, 204, 204)" stroke-width="1px"></line></g></g></g></g></svg>