<svg viewBox="0 0 330 200" xmlns="http://www.w3.org/2000/svg"><g><g><g><g><g><line x1="51.41600036621094" y1="177.9749994277954" x2="46.41600036621094" y2="177.9749994277954" style="visibility: inherit;" fill="rgb(0, 0, 0)" stroke="rgb(204, 204, 204)" stroke-width="1px"></line><line x1="51.41600036621094" y1="155.72812449932098" x2="46.41600036621094" y2="155.72812449932098" style="visibility: inherit;" fill="rgb(0, 0, 0)" stroke="rgb(204, 204, 204)" stroke-width="1px"></line><line x1="51.41600036621094" y1="133.48124957084656" x2="46.41600036621094" y2="133.48124957084656" style="visibility: inherit;" fill="rgb(0, 0, 0)" stroke="rgb(204, 204, 204)" stroke-width="1px"></line><line x1="51.41600036621094" y1="111.23437464237212" x2="46.41600036621094" y2="111.23437464237212" style="visibility: inherit;" fill="rgb(0, 0, 0)" stroke="rgb(204, 204, 204)" stroke-width="1px"></line><line x1="51.41600036621094" y1="88.98749971389769" x2="46.41600036621094" y2="88.98749971389769" style="visibility: inherit;" fill="rgb(0, 0, 0)" stroke="rgb(204, 204, 204)" stroke-width="1px"></line><line x1="51.41600036621094" y1="66.74062478542328" x2="46.41600036621094" y2="66.74062478542328" style="visibility: inherit;" fill="rgb(0, 0, 0)" stroke="rgb(204, 204, 204)" stroke-width="1px"></line><line x1="51.41600036621094" y1="44.49374985694885" x2="46.41600036621094" y2="44.49374985694885" style="visibility: inherit;" fill="rgb(0, 0, 0)" stroke="rgb(204, 204, 204)" stroke-width="1px"></line><line x1="51.41600036621094" y1="22.246874928474426" x2="46.41600036621094" y2="22.246874928474426" style="visibility: inherit;" fill="rgb(0, 0, 0)" stroke="rgb(204, 204, 204)" stroke-width="1px"></line><line x1="51.41600036621094" y1="0" x2="46.41600036621094" y2="0" style="visibility: inherit;" fill="rgb(0, 0, 0)" stroke="rgb(204, 204, 204)" stroke-width="1px"></line></g><g transform="translate(41.41600036621094, 0)"><text style="text-anchor: end; visibility: hidden; font-family: &quot;Helvetica Neue&quot;, sans-serif; font-size: 12px; font-weight: 200;" x="0" y="177.9749994277954" dx="0em" dy="0.3em" fill="rgb(50, 49, 63)" stroke="none" stroke-width="1px">-0.2</text><text style="text-anchor: end; visibility: inherit; font-family: &quot;Helvetica Neue&quot;, sans-serif; font-size: 12px; font-weight: 200;" x="0" y="155.72812449932098" dx="0em" dy="0.3em" fill="rgb(50, 49, 63)" stroke="none" stroke-width="1px">0</text><text style="text-anchor: end; visibility: hidden; font-family: &quot;Helvetica Neue&quot;, sans-serif; font-size: 12px; font-weight: 200;" x="0" y="133.48124957084656" dx="0em" dy="0.3em" fill="rgb(50, 49, 63)" stroke="none" stroke-width="1px">0.2</text><text style="text-anchor: end; visibility: inherit; font-family: &quot;Helvetica Neue&quot;, sans-serif; font-size: 12px; font-weight: 200;" x="0" y="111.23437464237212" dx="0em" dy="0.3em" fill="rgb(50, 49, 63)" stroke="none" stroke-width="1px">0.4</text><text style="text-anchor: end; visibility: hidden; font-family: &quot;Helvetica Neue&quot;, sans-serif; font-size: 12px; font-weight: 200;" x="0" y="88.98749971389769" dx="0em" dy="0.3em" fill="rgb(50, 49, 63)" stroke="none" stroke-width="1px">0.6</text><text style="text-anchor: end; visibility: inherit; font-family: &quot;Helvetica Neue&quot;, sans-serif; font-size: 12px; font-weight: 200;" x="0" y="66.74062478542328" dx="0em" dy="0.3em" fill="rgb(50, 49, 63)" stroke="none" stroke-width="1px">0.8</text><text style="text-anchor: end; visibility: hidden; font-family: &quot;Helvetica Neue&quot;, sans-serif; font-size: 12px; font-weight: 200;" x="0" y="44.49374985694885" dx="0em" dy="0.3em" fill="rgb(50, 49, 63)" stroke="none" stroke-width="1px">1</text><text style="text-anchor: end; visibility: inherit; font-family: &quot;Helvetica Neue&quot;, sans-serif; font-size: 12px; font-weight: 200;" x="0" y="22.246874928474426" dx="0em" dy="0.3em" fill="rgb(50, 49, 63)" stroke="none" stroke-width="1px">1.2</text><text style="text-anchor: end; visibility: hidden; font-family: &quot;Helvetica Neue&quot;, sans-serif; font-size: 12px; font-weight: 200;" x="0" y="0" dx="0em" dy="0.3em" fill="rgb(50, 49, 63)" stroke="none" stroke-width="1px">1.4</text></g><line x1="51.41600036621094" y1="0" x2="51.41600036621094" y2="177.9749994277954" fill="rgb(0, 0, 0)" stroke="rgb(204, 204, 204)" stroke-width="1px"></line></g></g><g transform="translate(51, 0)" clip-path="url(#clip_0)"><clipPath id="clip_0"><rect width="278" height="177"></rect></clipPath><g><g><g><line x1="0" y1="0" x2="0" y2="177.9749994277954" fill="rgb(0, 0, 0)" stroke="rgb(60, 60, 60)" stroke-width="1px" opacity="0.25"></line><line x1="27.858399963378908" y1="0" x2="27.858399963378908" y2="177.9749994277954" fill="rgb(0, 0, 0)" stroke="rgb(60, 60, 60)" stroke-width="1px" opacity="0.25"></line><line x1="55.716799926757815" y1="0" x2="55.716799926757815" y2="177.9749994277954" fill="rgb(0, 0, 0)" stroke="rgb(60, 60, 60)" stroke-width="1px" opacity="0.25"></line><line x1="83.57519989013672" y1="0" x2="83.57519989013672" y2="177.9749994277954" fill="rgb(0, 0, 0)" stroke="rgb(60, 60, 60)" stroke-width="1px" opacity="0.25"></line><line x1="111.43359985351563" y1="0" x2="111.43359985351563" y2="177.9749994277954" fill="rgb(0, 0, 0)" stroke="rgb(60, 60, 60)" stroke-width="1px" opacity="0.25"></line><line x1="139.29199981689453" y1="0" x2="139.29199981689453" y2="177.9749994277954" fill="rgb(0, 0, 0)" stroke="rgb(60, 60, 60)" stroke-width="1px" opacity="0.25"></line><line x1="167.15039978027343" y1="0" x2="167.15039978027343" y2="177.9749994277954" fill="rgb(0, 0, 0)" stroke="rgb(60, 60, 60)" stroke-width="1px" opacity="0.25"></line><line x1="195.00879974365233" y1="0" x2="195.00879974365233" y2="177.9749994277954" fill="rgb(0, 0, 0)" stroke="rgb(60, 60, 60)" stroke-width="1px" opacity="0.25"></line><line x1="222.86719970703126" y1="0" x2="222.86719970703126" y2="177.9749994277954" fill="rgb(0, 0, 0)" stroke="rgb(60, 60, 60)" stroke-width="1px" opacity="0.25"></line><line x1="250.72559967041016" y1="0" x2="250.72559967041016" y2="177.9749994277954" fill="rgb(0, 0, 0)" stroke="rgb(60, 60, 60)" stroke-width="1px" opacity="0.25"></line><line x1="278.58399963378906" y1="0" x2="278.58399963378906" y2="177.9749994277954" fill="rgb(0, 0, 0)" stroke="rgb(60, 60, 60)" stroke-width="1px" opacity="0.25"></line></g><g><line x1="0" y1="177.9749994277954" x2="278.58399963378906" y2="177.9749994277954" fill="rgb(0, 0, 0)" stroke="rgb(60, 60, 60)" stroke-width="1px" opacity="0.25"></line><line x1="0" y1="155.72812449932098" x2="278.58399963378906" y2="155.72812449932098" fill="rgb(0, 0, 0)" stroke="rgb(60, 60, 60)" stroke-width="1px" opacity="0.25"></line><line x1="0" y1="133.48124957084656" x2="278.58399963378906" y2="133.48124957084656" fill="rgb(0, 0, 0)" stroke="rgb(60, 60, 60)" stroke-width="1px" opacity="0.25"></line><line x1="0" y1="111.23437464237212" x2="278.58399963378906" y2="111.23437464237212" fill="rgb(0, 0, 0)" stroke="rgb(60, 60, 60)" stroke-width="1px" opacity="0.25"></line><line x1="0" y1="88.98749971389769" x2="278.58399963378906" y2="88.98749971389769" fill="rgb(0, 0, 0)" stroke="rgb(60, 60, 60)" stroke-width="1px" opacity="0.25"></line><line x1="0" y1="66.74062478542328" x2="278.58399963378906" y2="66.74062478542328" fill="rgb(0, 0, 0)" stroke="rgb(60, 60, 60)" stroke-width="1px" opacity="0.25"></line><line x1="0" y1="44.49374985694885" x2="278.58399963378906" y2="44.49374985694885" fill="rgb(0, 0, 0)" stroke="rgb(60, 60, 60)" stroke-width="1px" opacity="0.25"></line><line x1="0" y1="22.246874928474426" x2="278.58399963378906" y2="22.246874928474426" fill="rgb(0, 0, 0)" stroke="rgb(60, 60, 60)" stroke-width="1px" opacity="0.25"></line><line x1="0" y1="0" x2="278.58399963378906" y2="0" fill="rgb(0, 0, 0)" stroke="rgb(60, 60, 60)" stroke-width="1px" opacity="0.25"></line></g></g></g><g><g><line x1="0" y1="155.72812449932098" x2="278.58399963378906" y2="155.72812449932098" fill="rgb(0, 0, 0)" stroke="rgb(153, 153, 153)" stroke-width="1.5px"></line></g></g><g><g><line x1="27.858399963378908" y1="0" x2="27.858399963378908" y2="177.9749994277954" fill="rgb(0, 0, 0)" stroke="rgb(153, 153, 153)" stroke-width="1.5px"></line></g></g><g><g><g><g><g><path style="fill: none;" stroke="rgb(0, 153, 136)" stroke-width="2px" d="M38.80675114898682,-30.001558051285826L38.91818474884033,10.209286595094767L39.001759948730474,-71.12982087288776L39.391777548217775,33.47425621938069L40.39746578689575,40.51622903135706L40.857129386291504,56.42791018430259L40.89891698623657,69.21528293998638L41.12457002593994,94.96160180100834L41.24993282577515,38.78567066388695L41.263862025756836,69.88172586295417L41.34743722564697,83.68519898476492L41.431012425537105,74.6430023423579L41.68173802520752,56.89263938944501L41.72352562515258,47.66323565604017L41.84888842498779,37.49528366528443L42.52027586410522,66.65012279386858L42.56206346405029,103.1062373739292L42.64563866394043,83.88186057752515L42.729213863830566,99.3673333214289L42.9381518635559,89.07469594487826L43.02172706344605,60.883864601532494L43.091373063354496,48.20342186297623L43.80454810241699,84.93988297355646L43.87419410232544,67.7233214553516L43.888123302307136,64.57591384060024L44.13884890197754,104.25393830491012L44.30878514175415,89.70271089294084L44.489864741516115,74.00390189152763L45.019174340820314,81.86868156024755L45.255970740509035,82.97822634982414L45.52341138015747,100.57117781547007L46.0109333795166,110.14964891443464L46.052720979461675,117.90872844686638L46.24772977920532,101.66317939911167L46.30344657913208,88.95248358093284L46.96090481826782,99.73046972818062L47.058409218139644,108.9529781727826L47.36485161773682,101.79152459204042L47.52085865753174,108.07614938030274L47.66015065734864,107.0509956325793L48.07802665679932,95.0600585690108L48.2312478565979,96.12464474957562L48.342681456451416,117.22016092896094L48.42625665634156,111.55490214237336L48.86084769577026,96.0583571558727L49.26479449523926,108.19264661064423L49.48766169494629,118.70906925927483L49.69938553466797,107.39517994025121L49.75510233459473,115.32162934820177L49.991898734283446,105.12611609249073L50.47942073364258,118.21619202662033L50.5908543334961,111.32267014150992L51.053303772888185,119.5328639987411L51.178666572723394,107.73549227805691L51.26224177261353,123.32434462836325L51.33188777252197,103.0989409649604L51.4293921723938,111.92271607436587L51.554754972229006,120.80117281300369L51.74976377197266,119.52846825212927L51.77762217193604,108.91729173818507L51.819409771881105,113.93378340944759L51.93362921173096,118.18842522901802L52.42115121109009,110.42432672194803L52.755452010650636,117.82243457050706L53.03682185028076,121.97896107147248L53.28754744995118,106.75455456978185L53.41291024978638,123.6256621189631L53.593989849548336,94.61923745177526L53.63577744949341,129.56215935626938L53.74721104934692,118.2043937896735L54.29323568862915,123.32658559722418L54.53003208831787,124.35314823809243L54.669324088134765,115.1161232215348L54.71111168807984,119.47845088796694L54.98969568771363,117.96785223330826L55.2014195274353,122.37263565151842L55.452145127105716,131.62824148237416L55.619295526885985,117.12629549508922L55.85609192657471,123.73941449395424L55.93966712646485,128.08699850800622L56.443904165802,135.4047928172253L56.48569176574707,111.57368848931849L56.49962096572876,121.77802970372281L56.61105456558228,120.70974393551182L56.666771365509035,121.05711399921238L56.76427576538086,139.95037107120032L57.49138000442505,110.08605645044166L57.58888440429687,116.66114859456741L57.71424720413208,125.51197113731065L58.02068960372925,131.4059778148906L58.076406403656,118.6037702431526L58.18784000350952,124.38023545194253L58.29927360336304,126.06149581951485L58.35499040328979,127.93883764737598L58.62243104293823,117.44306771472705L58.692077042846684,124.50675405634705L58.706006242828366,131.03679974282966L58.77565224273682,134.66947159468947L58.94280264251709,135.40427732808644L58.98459024246216,134.34537147317724L59.05423624237061,135.36345091979234L59.318891042022706,126.4120582693294L59.530614881744384,125.51849845637452L59.669906881561275,141.6157341515351L59.83705728134156,119.81409896070261L60.19921648086548,135.27910131597287L60.32457928070069,116.61287494286196L60.80095792007446,136.60923236142997L60.81488712005615,133.32979322627452L60.842745520019534,134.49294059868666L61.45563031921387,129.80575532348678L61.56706391906739,138.24070410278583L61.681283358917234,131.84536849120383L61.70914175888062,125.74832373624236L61.778787758789065,135.24325575932605L62.127017758331306,122.35593446642764L62.14094695831299,138.12140068880413L62.280238958129885,136.03667144754738L62.30809735809326,136.5350267882532L62.37774335800171,143.5604964889397L62.57275215774536,137.98996919112759L62.6563273576355,137.36342943706367L62.77054679748535,140.83998266830704L62.97948479721069,133.40845587435297L63.06305999710083,138.57984291547797L63.71773239624024,131.68680834164348L63.80130759613037,140.76010339956L64.02696063583375,133.409440442033L64.11053583572388,140.80930360569835L64.89057103469848,136.74452091128066L64.94907367462157,140.68164959917124L65.13015327438355,145.44999209207657L65.64553367370605,138.26168500799417L65.8405424734497,131.61818032779883L66.3169211128235,141.28019713272965L67.46190135131836,144.32522959901462L67.71262695098876,139.80541751437624L67.7962021508789,134.31442389211034L68.13050295043945,142.95595950199447L68.77403198959351,145.09152989552294L68.88546558944702,139.57977747590917L69.37577342880249,133.59868628428745L69.59864062850951,139.6661210779089L69.6404282284546,136.32777031904396L69.75186182830811,138.2105753372643L69.79364942825316,145.95828427325668L70.18366702774047,136.4886692312247L70.59039966720582,138.19316307551568L71.37043486618042,148.18761816309402L71.44286670608521,139.06051250341295L71.66573390579224,140.82939276442207L71.91645950546264,132.9100657256989L71.93038870544433,148.34906654360123L72.40398150482179,139.89839451680604L72.53213014465331,142.22357209224253L72.57391774459839,139.26979280618667L72.58784694458008,143.83264077507448L72.61570534454346,150.09770432516203L72.62963454452515,139.82275684518555L72.97786454406739,145.35322931089058L73.43752814346314,143.35180957880817L73.98355278274535,150.68465169557456L74.41535798217774,136.56791698433858L74.780303021698,134.5113324555512L74.84994902160643,147.37150023374565L75.15639142120362,139.72291438933715L75.42104622085571,143.33028417783737L75.62998422058105,149.03880758662024L75.84170806030274,145.08409922732505L76.24565485977172,143.35148138958147L76.28744245971679,143.8708872513922L76.63567245925903,138.30951444397868L77.22348469848633,147.56541531363413L77.50206869812011,148.05517806367791L77.75279429779053,145.7960087895974L77.78065269775391,137.2647919992344L77.80851109771729,144.62782420981222L77.89208629760742,150.12263261745787L78.27096053710937,137.84351391996324L78.46596933685304,137.09826580208116L79.23486117584228,147.46321171862715L79.29057797576904,145.90469660811326L79.44379917556762,144.19879387067743L79.875604375,148.9634218582445L79.98703797485351,136.32089492049727L80.15697421463013,145.39489359622547L80.22662021453858,149.72658280932188L80.4494874142456,145.09760968382315L80.51913341415406,147.04321155578995L80.54699181411743,149.8311624611796L80.68628381393432,150.04862760436404L80.74200061386108,143.44179889901028L81.14594741333008,148.45404814438552L81.30195445312499,151.370887080945L82.02627285217285,152.19082145319447L82.17949405197143,142.9338564548343L82.4051470916748,148.46870063309163L82.79516469116211,149.851211839391L83.15732389068603,152.20457059276654L83.3244742904663,148.4620440273627L83.46655213027954,148.1763967435759L83.50833973022462,147.69351685092488L84.30230412918091,148.71270352179968L84.37195012908936,151.98132235760298L84.51402796890258,147.69307429272527L85.53085956756593,148.1639893675341L85.67293740737915,150.83662154025984L85.68686660736084,152.51445746872957L85.71472500732422,144.86613517021522L85.78437100723266,137.52870254807874L85.79830020721435,151.094173008457L86.1465302067566,150.99610161416769L86.21617620666504,146.23749374413237L86.2579638066101,144.71078729702506L86.36939740646362,150.57759570682467L86.6479814060974,150.47176959891414L86.67862564605714,150.60877368335878L86.69255484603883,146.32269365640278L86.90149284576415,152.07826580861575L87.20793524536133,142.9842218984795L87.3890148451233,148.57131446463197L87.41687324508668,150.8345463235336L87.59795284484863,150.9197594959748L88.10218988418579,151.92203447654776L88.43649068374634,150.13543033977683L88.53399508361817,149.6907985809649L88.6175702835083,151.19377595247082L88.9407277230835,150.79300800982105L88.98251532302857,149.88610515002406L89.80433812194823,144.27174801523736L90.02999116165161,147.49009920115495L90.3225043612671,151.14421440667886L90.36429196121216,150.2592372392579L90.9911059603882,144.89883392258506L91.03289356033325,146.93730422933345L91.24461740005493,151.42744502434198L91.6764225994873,150.0309948922763L92.0664401989746,150.18467861403423L92.16673043884278,143.46942646481943L92.22244723876953,150.87380223035154L92.33388083862305,153.25208430345887L92.48710203842164,150.94472176745825L92.84926123794556,151.15292965392055L92.918907237854,150.9246483551873L93.14177443756104,150.78347974835873L93.35349827728271,153.05271432081793L93.46493187713624,151.89304111314877L93.59029467697144,148.75097734721965L93.71565747680664,151.9301803652068L93.86887867660523,152.8463031874956L93.88280787658692,152.39335978788992L94.04995827636719,151.42860197424207L94.07781667633057,150.43465686719767L94.5959829156494,149.08762822037016L94.7631333154297,146.50357315965903L95.02778811508179,149.9594463258185L95.34815971466065,152.02542900064245L95.6156003543091,149.1814207233026L96.28420195343017,152.1680769452731L96.40956475326537,151.25825684790567L96.45135235321045,153.87870030350473L97.17845659225463,149.89555385046174L97.22024419219971,150.90812949744466L97.4988281918335,150.08914239864492L97.52668659179687,146.4808576583612L97.54061579177856,149.8634012513757L97.87770243133545,152.2275123457282L98.26772003082276,141.8096392862955L98.54630403045654,150.8070629620816L98.65773763031007,151.14780128287342L99.07839946975709,150.06749102605178L99.3151958694458,144.80788324000176L99.5659214691162,148.8143112378825L99.67735506896973,152.65059632703117L100.09801690841675,152.41113256053143L100.79447690750122,150.37243517335853L101.18728034698486,147.96585258077522L101.34050154678344,149.50297986459012L101.56336874649048,150.5023541828061L101.75837754623413,150.4618857991229L102.03974738586426,148.07840656783256L102.59691538513184,149.23478628058555L102.903357784729,146.45444837074197L102.97300378463746,146.03080746226644L103.47724082397461,151.69194979458914L103.63046202377319,148.23253284779008L103.90904602340697,146.1484061155429L103.93690442337035,152.1149368108933L104.37149546279906,150.5190238749913L104.70579626235963,147.24831490476964L104.8729466621399,152.64659672802122L104.90080506210327,149.18037399857207L104.98438026199341,153.57954919330518L105.48861730133056,147.00627452133625L105.87863490081787,151.68624543487397L105.90649330078125,151.63908895255628L105.962210100708,150.7477958000432L106.17114810043336,150.5464599970849L106.73110193969727,153.50375737219946L106.77288953964234,148.5442612299695L107.49999377868653,152.5200101652415L107.54178137863158,150.39424898304367L107.68107337844849,151.9692638898047L107.93179897811889,146.39219435523657L107.94572817810058,152.239879112497L108.18252457778931,148.9342577701468L108.22431217773438,152.31031216708837L108.68676161712646,150.76281791600965L108.71462001708984,152.04072958019518L108.81212441696167,149.4831525942392L109.3135756163025,150.50128010897333L109.59494545593263,150.51084732218732L109.92924625549317,151.09997018936758L109.9988922554016,146.99867975852501L110.08246745529175,151.55793504989353L110.45855585479737,150.2717415802985L110.7259964944458,150.91269679751588L110.79564249435425,151.13369743373315L111.00458049407959,151.59887748468188L111.07422649398804,154.26877640470667L111.67318209320068,152.8382459762286L112.01026873275757,149.53474957624505L112.03812713272096,152.6256406856331L112.26099433242798,152.01562310435455L112.28885273239135,151.02032711741245L112.3724279322815,151.63072344231878L112.40028633224487,153.0958015882291L112.65101193191529,150.43317089931023L112.96024017150879,150.89393034082693L113.085602971344,151.33333759235362L113.3502577709961,152.51395192471878L113.50347897079469,151.20375920354283L113.53133737075805,150.0493544274746L113.6149125706482,153.6351391442356L113.79599217041016,146.35143839159971L114.03557441009521,150.4642626847343L114.5788132093811,152.98575045840548L114.89918480895996,150.1843114730559L114.95490160888671,150.18378355250695L114.9688308088684,152.9517679557525L115.2919882484436,150.33471081626507L115.44520944824218,150.73716197184254L115.59843064804076,149.63814078529705L115.6959350479126,151.42604441880388L115.77951024780275,145.1217423658725L116.10266768737793,150.1185252795604L116.92449048629761,152.60984616471904L117.41479832565308,149.35058237939734L117.42872752563477,150.65729264822357L117.48444432556151,150.242559259466L117.76302832519531,152.5775874842668L117.776957525177,149.23403376589408L117.79088672515869,152.49011511022985L117.9023203250122,152.04371146109813L118.50406176422119,152.15183572235605L118.60156616409301,151.53070197416488L118.64335376403808,150.5236972564287L118.90800856369019,149.83235256150664L119.64904200271606,153.24197342324314L119.77440480255126,149.77468242128595L119.80226320251464,148.75734637299487L119.85798000244141,148.26430753200907L119.94155520233154,148.92317889746448L119.98334280227661,149.99675381629325L120.08084720214843,150.439728882519L120.19228080200195,141.47173366948542L120.23406840194701,153.17317468469975L120.4012188017273,153.66843046048695L120.76616384124756,150.57152917869524L120.8218806411743,149.69109693480735L120.97510184097291,151.54095374369513L121.12832304077149,152.28479296843238L122.06436527954101,153.6096763013054L122.25937407928465,149.93089717814047L122.37080767913818,153.51646724588704L122.56581647888184,151.15409654894873L122.57974567886353,152.2411752941902L122.9307615184021,154.1568937137948L123.12577031814574,153.2535213744666L123.474000317688,149.81336896952124L123.86680375717164,153.02671775601405L123.9085913571167,147.84744339956012L124.27075055664062,151.48379909261328L124.52147615631104,149.6546248350914L124.5771929562378,146.72457462463694L124.91427959579468,149.01945022357114L125.63859799484253,152.20918181715345L125.84753599456786,152.18971920149883L125.94782623443604,150.57202809262063L125.96175543441773,153.19934528924503L126.26819783401488,153.38900219679348L126.5189234336853,150.37171746661534L127.06494807296754,152.13970846742188L127.35746127258301,148.25747025645336L127.66390367218018,150.48360595885197L127.78926647201538,151.0614750848478L128.51637071105958,151.80532839851654L128.66959191085814,148.72449264237912L128.92031751052858,149.55395444733023L129.05960951034547,148.33362507473404L129.07353871032714,150.86259241348284L129.32705014999388,148.61098558054732L129.64742174957277,152.478395605547L129.91207654922485,148.40752152017967L130.31880918869018,148.03590440545682L130.4441719885254,150.09183587083353L130.48595958847045,153.23295982215902L130.5834639883423,148.61044439982757L130.72275598815918,150.563853197338L130.76454358810423,152.0327519299528L130.8341895880127,150.835248283824L130.97348158782958,150.6271605676593L131.30778238739012,149.60516274058028L131.42200182724,153.3566971057435L131.6866566268921,151.31126935314177L131.92345302658083,148.0241650105178L132.7759200654602,153.46739798393511L133.26344206481934,145.95243902422703L133.50023846450807,151.0482207153978L133.6283871043396,149.91679415776088L133.69803310424805,153.14575596658025L133.85125430404662,146.2872367885118L133.93482950393675,150.1641096028806L134.0323339038086,153.65641508824368L134.283059503479,150.63417851304186L134.35270550338745,151.25346826873465L134.42235150329589,152.32969853676104L134.66193374298095,150.1028807643282L134.81515494277954,151.19085539985767L134.85694254272462,153.3596723565611L135.1355265423584,152.57661120419348L135.24696014221192,153.0949197868726L135.3862521420288,152.50719421018772L135.8626307814026,152.69277361522293L135.93227678131103,150.01988784173113L136.78195798019408,146.5200348329152L136.7847438201904,152.64557072230753L137.2304782196045,151.14821566321012L137.82943381881714,148.9748305776748L137.9297240586853,153.2085511628054L138.04115765853882,147.28974382207332L138.0550868585205,153.30737921558955L138.52867965789795,151.52198838444454L138.68190085769652,150.90606339708583L138.84905125747682,152.4658688879682L139.07470429718018,149.1372486081699L139.91045629608155,152.81515338882437L140.23361373565675,151.68816815963632L140.65148973510742,153.01890917294907L140.70720653503417,150.31084831019524L140.90221533477782,152.26736578899167L141.13901173446655,153.32519757006813L141.21144357437132,149.37068148324914L141.7964699736023,150.63248452622537L142.0193371733093,151.11361987765883L142.1725583731079,150.4944246006828L142.28677781295778,150.70771942015858L142.39821141281126,152.81418042379377L142.67679541244507,152.58059091294726L142.70465381240845,150.89205236914097L142.7464414123535,150.22725204982788L142.77429981231688,150.08456681096695L142.85787501220705,153.22672588437354L143.13645901184083,152.12966057301733L143.17824661178588,152.84812977601982L143.24789261169434,151.8716093621341L143.3621120515442,149.10177433630477L144.33715605026245,150.40157356987535L144.6045966899109,151.06939720812505L144.6185258898926,150.8129123549146L144.64638428985597,148.80443986950138L144.84139308959962,152.4852867505465L144.89710988952638,150.68370276460348L145.02247268936156,150.38157971862907L145.03640188934327,153.10238857806146L145.10604788925173,151.65536083961825L145.17569388916016,152.4494121872761L145.38463188888548,151.8329377315909L145.80529372833252,152.53444551865115L145.97244412811278,149.8332857460249L146.06994852798462,152.43481688305647L146.13959452789308,151.66091602241218L146.3346033276367,147.29882952533603L146.45996612747194,151.7599512653647L146.8109819670105,152.35068772957612L146.90848636688233,153.5672669601251L146.92241556686403,151.0790903929614L147.04777836669922,151.76911155708802L147.5770879660034,151.2473486999221L147.67737820587158,149.4588052631754L147.69130740585328,149.82572910620465L147.74702420578004,154.26407733168838L148.19275860519411,153.1562563643125L148.83628764434812,153.17829808318282L148.8920044442749,153.1139928850107L149.21237604385377,152.01995337887317L149.46310164352417,152.408540197145L149.50488924346925,153.4926801570385L149.79740244308474,150.42818756138092L149.93948028289796,150.16528892931888L150.2737810824585,152.6435518613071L150.3712854823303,151.52296715079984L150.60808188201904,152.82541676100402L150.6359402819824,152.9899688502332L150.67772788192747,150.60155020532926L150.9590977215576,153.10035148432618L150.986956121521,153.14568800820504L151.05660212142945,153.92227156714918L151.20982332122804,152.9709786281624L151.37697372100828,152.05476547096023L151.613770120697,152.4665584168485L151.86449572036744,151.33750957358362L151.94807092025755,151.9040752327547L152.0762195600891,153.88896367568438L152.32694515975953,153.20759311546692L152.3408743597412,150.11269577698354L152.71696275924683,152.13336679074885L152.82839635910034,151.72567123762997L152.96768835891723,149.92051777946654L153.12090955871582,152.87792372222933L153.40227939834594,147.86307465462153L153.65300499801634,150.4198286812288L154.09873939743042,152.3763478175466L154.19624379730223,152.1439019964294L154.90941883636475,153.27717420408604L154.93727723632813,152.64295681114356L155.07656923614502,150.6893408234648L155.17407363601686,150.46098079246755L155.5390186755371,152.0592905042371L155.8315318751526,150.28672391575262L155.97082387496948,149.61476641926387L156.1936910746765,152.5259125987576L156.2215494746399,149.88084997859391L156.3190538745117,152.87571424627396L156.7536449139404,150.75180037161718L156.8232909138489,146.29909966879114L156.97651211364746,152.62814022782413L157.0461581135559,153.07676495556063L157.6339703527832,151.82319482111416L157.67575795272828,152.11090737649914L157.95434195236206,150.23324564701807L158.0379171522522,152.4328676379526L158.05184635223387,150.71750542619034L158.4140055517578,151.3321814712142L158.51150995162965,153.11998068087618L159.37790619049073,152.28701404703716L159.50326899032592,150.5490763945309L159.60077339019773,150.28619185140028L159.6425609901428,150.7314658997341L159.72892203002928,148.99329122167526L159.77070962997436,153.06976358539157L160.07715202957152,151.09972819125093L160.23037322937012,153.824910420757L160.3835944291687,153.2969882142662L160.55074482894898,149.82133998967822L160.56467402893065,151.298090400913L160.60646162887573,145.54955774186004L160.92961906845093,152.562807366417L161.01319426834107,151.32162720403818L161.3335658679199,151.7255013416919L161.47285786773682,151.81477627019356L161.58429146759033,152.6527245844405L162.42282930648804,151.09564074360964L162.54819210632323,152.41410449630632L162.67355490615844,153.20203213134826L163.14993354553224,149.3133958879809L163.53995114501953,150.49361490150486L163.5817387449646,153.49776377500928L164.1277633842468,147.6255601332257L164.46206418380737,149.80193704479206L165.35631882263183,151.53944539926948L165.94134522186278,151.98246190352893L166.43165306121824,153.58774232132262L166.50129906112673,152.64003625853044L166.5152282611084,149.02719830710694L166.54308666107178,151.59284493574006L166.73809546081546,149.15135991615625L166.9052458605957,152.53754508356974L167.22561746017456,149.7501842557796L167.29804930007936,151.36712948005172L167.5069872998047,150.06218530022053L167.5905624996948,152.04961720965693L167.7298544995117,153.9417905385296L168.06415529907227,149.81120010283888L168.30095169876097,153.23705389988572L168.59625073837282,147.57328854003165L169.02805593780516,152.89346795742L169.125560337677,153.2754420942786L169.27878153747557,154.13828306411244L169.54622217712404,152.3619572172133L169.64372657699585,146.1402809459007L169.71337257690428,152.08805512969022L170.29839897613525,143.26719062776982L170.78870681549074,152.34606490253978L171.17872441497803,151.73607715664545L171.2065828149414,152.26322861570995L171.2205120149231,151.555538274026L171.24837041488647,148.17104875095032L171.3319456147766,150.67214569701264L171.45730841461182,150.88714030462958L171.54088361450195,151.86933690036759L171.61052961441038,152.57809137075623L172.00333305389404,150.6127359881384L172.1983418536377,152.7833256639223L172.35156305343628,153.56543539903683L172.49085505325317,150.95600617278754L172.54657185317993,152.92782505989737L172.5605010531616,150.64130585483326L172.93937529266358,151.97424142640926L173.06473809249877,150.55937623218017L173.38510969207766,151.7221374021185L173.39903889205934,151.65522160782513L173.56618929183958,150.83041080777323L173.9868511312866,153.55685938358826L174.11221393112183,153.6345656418496L174.34901033081053,149.62797852191957L174.41865633071902,152.01675021887038L174.5440191305542,151.26274707323427L174.65545273040772,152.14234807016672L174.76688633026123,154.12241395473777L174.9925393699646,152.17724635336384L175.4104153694153,150.8911258147081L175.54970736923218,151.3260047179152L176.05394440856932,152.28229259748068L176.17930720840454,152.61243024049875L176.19323640838624,152.83499226182474L176.27681160827638,150.3665808079615L176.4996788079834,153.27234087183865L176.5971832078552,153.3505642767602L176.98720080734253,150.5706109118691L177.00113000732424,151.29541184641653L177.11534944717405,149.9854893012201L177.1849954470825,147.86578967458766L177.3382166468811,153.55944180184665L177.46357944671632,153.070023816243L177.65858824645994,152.8941541712576L178.17675448577882,152.42864095851814L178.2185420857239,152.67185403830442L178.34390488555908,150.38667411048857L178.6921348851013,152.3669181786044L178.74785168502808,152.0692530362923L178.87321448486327,153.4169811571282L179.06822328460694,150.85892183246028L179.15179848449708,152.18754536225245L179.17965688446043,149.07727036947372L179.64210632385252,153.1221909855922L179.72568152374268,151.10311284984118L179.8092567236328,154.042077210099L179.8371151235962,152.24363339834758L179.85104432357787,152.11489537285965L179.99033632339479,149.41111837402673L180.05998232330322,151.19957479090274L180.25499112304686,152.15678425233705L180.3692105628967,149.1030713467587L180.59207776260376,152.89138859689038L180.94030776214598,150.09437353601555L181.20496256179808,152.13562599234461L181.3303253616333,145.4130492562981L181.56990760131836,149.83252577248737L181.94599600082395,142.21567731806755L182.26636760040282,149.97384521375852L182.29422600036622,153.0837530655589L182.30815520034793,152.28755274147488L183.0074010394287,149.3349867610449L183.11883463928223,148.52419361902327L183.1606222392273,151.3394066067651L183.2859850390625,152.34708759321077L183.80415127838137,144.7401560890091L184.23595647781372,152.90521978376913L184.5145404774475,150.2981027997987L184.76805191711426,151.2244268372166L185.19985711654664,151.71662862992227L185.31129071640012,151.9617520030608L185.33914911636353,152.76309727340544L185.80159855575562,151.1768510019982L185.8433861557007,147.69395112151776L186.03839495544432,153.6776545667821L186.233403755188,151.0652492609546L186.3169789550781,152.13567488922433L186.70699655456542,151.6009162359385L186.7487841545105,151.0624986042795L186.76271335449218,152.58149757712397L186.8462885543823,147.504416870549L186.8741469543457,152.00651833959634L187.09979999404908,152.70202258433832L187.2112335939026,151.07623614120214L187.33659639373778,149.31120464476038L187.54553439346313,154.06684223654216L187.76840159317015,148.867624583243L188.3004970324707,151.26951473289344L188.46764743225097,150.27649783780328L188.49550583221435,152.2049435350696L188.63479783203127,152.54809023437838L188.78801903182983,150.97643678090873L188.88552343170164,151.0606156600295L188.98302783157348,153.84347631736298L189.01088623153686,148.48114281708172L189.23653927124025,150.67044342258941L189.50119407089232,153.11488628901665L190.00264527023316,149.89493559499937L190.3675903097534,151.45469301776274L190.45116550964357,152.71474903323937L190.57652830947876,151.42690052857952L190.99440430892946,149.46947638560638L191.30363254852296,152.932363353345L191.31756174850463,152.11393069543578L191.56828734817503,145.73140192254016L191.95830494766236,149.79447654120992L192.02795094757082,153.5394471218397L192.20903054733276,151.68124966553458L192.39289598709104,153.41390148246575L192.50432958694458,151.48551131216456L192.573975586853,152.27709212425495L192.6018339868164,150.68771479502354L192.6157631867981,147.39162088537498L192.89434718643187,151.53951501516605L192.96399318634036,151.1245528884626L193.15900198608398,148.8997017651078L193.2982939859009,154.26939134512637L193.36793998580933,152.8995212253787L193.4543010256958,149.86681160154683L193.7189558253479,149.85301025005234L193.88610622512817,148.87465744631768L194.3736282244873,153.38561753820323L194.4989910243225,151.27323752583845L195.15644926345826,146.4878457683595L195.2260952633667,153.0533483227331L195.43503326309204,153.74996393553815L195.58825446289063,149.6919281817628L195.63282790283202,153.86859273833167L195.85569510253907,152.6424131441418L196.03677470230105,151.06220522300111L196.31535870193483,149.43852217445408L196.44072150177,147.16344152420456L196.55215510162353,151.84523653998448L197.04246294097902,152.5124386077291L197.3210469406128,153.1590940408583L197.36283454055786,150.0199790054052L197.5857017402649,153.37631884344745L197.7974255799866,153.20608311351995L198.7863987786865,153.65388239562571L198.90061821853638,150.40712958142998L198.91454741851805,153.1754769818505L199.33242341796876,153.86586943075883L199.59707821762086,153.18229768219277L199.63886581756591,152.36131244140938L199.9453082171631,146.21427021254175L200.54704965637205,151.41337929819267L200.83956285598754,152.02720752104761L200.9231380558777,152.54433263348508L200.95099645584108,154.05833915203286L201.2323662954712,152.9657242854929L201.53880869506835,152.91744566122344L201.94275549453735,150.90965193080174L202.5723553337097,151.43862169078375L202.79522253341673,149.57075591246252L202.96237293319703,151.862806266261L203.77305237213136,152.54797586540542L203.99591957183839,150.90181516987386L204.41658141128542,151.00454668542983L204.5280150111389,147.36131890887268L204.8205282107544,148.15478266521308L205.16875821029663,152.15161112821357L205.2384042102051,147.25841169605394L205.4083404499817,153.15031746532676L205.58942004974364,147.49913600753794L205.6729952496338,151.73346656052416L206.25802164886477,150.53141053201625L206.27195084884644,153.3722761488825L206.34159684875488,151.61035747753013L206.53939148849486,148.92953217678695L207.34728508743285,153.2497853213508L207.58408148712158,152.12259953207976L207.94902652664183,150.95770181712538L207.96295572662356,153.1699988737992L208.07438932647705,151.30990687059466L208.24153972625734,149.93701260314964L208.2833273262024,151.84702003295368L208.40869012603758,153.28590271149852L208.61762812576293,152.85423939970428L208.6733449256897,154.280677407977L208.89899796539305,149.5296212051979L209.14972356506348,152.42255785517523L209.40044916473389,153.90481786736694L209.60938716445924,146.99365498256205L209.74867916427613,153.34779124354694L209.77932340423584,152.85680441398853L209.9464738040161,152.75124102321146L209.96040300399778,151.9119766370151L210.01611980392457,154.295109446344L210.40613740341186,153.57729827931618L210.76829660293578,151.34796521823952L211.2168168423462,150.8201656683284L211.42575484207154,147.58325190084753L211.92720604141235,151.8105462757164L211.98570868133544,149.67569358893113L212.65431028045654,153.3678356491943L212.7100270803833,151.95200577754136L212.98861108001708,153.58014258594736L213.65999851913452,152.81175712758468L214.02215771865843,152.77295289533376L214.06394531860352,151.91552953402206L214.63782835784912,151.2521538543066L214.86069555755614,151.82392413050678L215.33707419692993,153.88430272565705L215.54601219665525,145.78821761050656L215.6574457965088,151.7152719486999L215.74102099639893,152.09398574106922L216.20068459579468,147.03165034439573L216.42633763549804,151.68013746871085L216.46812523544313,151.119161800282L216.50991283538818,153.26690751686368L216.69099243515015,153.23821084978582L217.06708083465577,144.61277142970084L217.31780643432617,150.1341689660319L217.40416747421264,152.04120528882171L217.50167187408448,152.2512497089363L217.80811427368164,151.55908702722957L218.10062747329712,147.854379297636L218.2817070730591,150.88580185614202L218.75808571243286,149.44811507924894L219.07845731201172,152.78071506780103L219.12024491195677,150.44225743133362L219.30132451171875,152.195139296303L219.3570413116455,152.74196221871185L219.44061651153564,151.9125319066663L220.02842875076294,146.13810047656892L220.04235795074464,148.59427859413182L220.30701275039672,151.91805145275129L220.3488003503418,148.1396934196321L220.4602339501953,150.81074100195025L220.474163150177,153.56568734228154L220.4880923501587,149.742301084254L220.57166755004883,153.67746063678453L220.83910818969727,152.90568223222488L220.86696658966065,151.0800451252572L221.11769218933105,151.8615133996105L221.80300882843017,152.38887867892873L221.99801762817384,152.5301409357134L222.08159282806398,150.84350605517395L222.5551856274414,153.31964653107755L223.11513946670533,149.1614243857743L223.50515706619262,149.79777169364746L223.88124546569824,148.49537926792974L223.93974810562133,152.24380909561035L224.0233233055115,152.52647947105822L224.34369490509033,149.57880815116548L224.69192490463257,152.5790742809149L224.85907530441284,152.24076257137486L224.87300450439454,146.78437385102765L224.95657970428468,152.71685408534987L225.07079914413453,150.88729031031147L225.30759554382325,153.21875154917387L225.4747459436035,146.33853790295726L225.55832114349366,151.222101334767L225.83690514312747,153.81087618751326L225.8926219430542,152.64611936187333L226.2157793826294,149.9742073821728L226.24363778259277,154.07003793769888L226.369000582428,149.22146809656368L227.06546058151244,152.0888258771165L227.38861802108764,153.70458431610427L227.40254722106934,151.60862371020133L227.7089896206665,148.9338110681438L228.19651162002563,148.8483401511332L228.21044082000734,151.83516544028106L228.5335982595825,150.36803611170401L228.56145665954588,154.20782105717655L228.57538585952761,151.51703902570287L228.99326185897826,149.80906521534416L229.3414918585205,152.13995212305986L229.39999449844362,149.93672005063195L229.60893249816897,151.95133199511386L229.69250769805907,152.97594290459622L230.11038369750975,150.6302568175352L230.12431289749145,153.82421260426997L230.23574649734496,153.0765511353069L230.29146329727172,148.53218784447907L230.37503849716185,147.1058948693242L230.58676233688354,150.77796351731644L231.1857179360962,151.9311591315621L231.35286833587645,152.39150585026346L231.50608953567504,151.64852522158387L231.6342381755066,151.7695839506719L231.6481673754883,152.11359919116643L231.70388417541506,151.46853000596616L231.75960097534178,152.3482089064019L231.81531777526854,152.07067436084722L232.05211417495727,153.71369405342654L232.1356893748474,151.43434528570887L232.1914061747742,153.0654871803167L232.21926457473756,150.05847493868563L232.56749457427978,148.13001929629124L232.82100601394652,149.26342659193764L232.91851041381838,152.34199071506924L232.93243961380006,153.85836085905763L233.15530681350705,154.00751623249596L233.19709441345216,153.51125434125123L233.6428288128662,146.61844187527726L233.6567580128479,151.93613501064533L233.6706872128296,153.62557193102163L233.9938446524048,152.68210580783466L234.18885345214846,153.48993695920947L234.88809929122922,150.57341212294526L235.05524969100952,153.89173007881226L235.92164592987058,152.67048989823599L236.0609379296875,146.41383826898362L236.50667232910158,153.81750295785795L236.56238912902833,145.3524519333789L236.8409731286621,150.92568016222572L237.16413056823728,153.02861893299888L237.19198896820066,152.335418642929L237.4287853678894,152.42061772643873L237.9441657672119,153.66253465705623L238.10017280700683,153.3875667833071L238.35089840667726,151.46704652436074L238.4205444065857,154.12362891788501L238.44840280654907,148.1426089996812L238.58769480636596,150.8703487846254L238.8384204060364,152.28437858809568L238.9498540058899,149.8452712828839L239.0612876057434,148.20262784765035L239.15879200561525,149.72694995030022L239.3844450453186,153.12186279636552L239.46802024520872,148.98901398783974L239.5655246450806,151.84833196109972L240.22019704421996,153.17147406779787L240.27869968414308,153.17017374230127L240.50156688385007,152.4484615987837L240.58514208374024,151.8380859928942L240.72443408355713,151.77832737577648L240.83586768341067,150.128291395336L240.97515968322753,152.2437046717655L241.07266408309934,152.76874942119815L241.21195608291626,148.29051874582737L241.22588528289796,151.44175440612926L241.23981448287964,149.52104187470667L241.40975072265624,152.29759897835808L241.67440552230835,151.5703084467477L241.95298952194213,152.33380421713719L242.10621072174075,152.3517982688785L242.65223536102295,151.81752941315065L242.74973976089476,151.42302772995265L242.91689016067505,153.10530415811056L243.07011136047362,151.45570079074162L243.5158457598877,149.76883800101697L243.9504367993164,150.2960226105084L244.38224199874875,151.25117923175466L244.88647903808595,149.31337931276744L245.2207798376465,154.04070643994515L245.34614263748168,148.89297057091827L245.42971783737184,152.73438568863543L245.63865583709716,148.41918632665806L245.70830183700562,147.51975557309265" fill="none"></path></g></g></g></g></g></g><g transform="translate(51, 177)" clip-path="url(#clip_1)"><clipPath id="clip_1"><rect width="278" height="22"></rect></clipPath><g><g><line x1="0" y1="0" x2="0" y2="5" style="visibility: inherit;" fill="rgb(0, 0, 0)" stroke="rgb(204, 204, 204)" stroke-width="1px"></line><line x1="27.858399963378908" y1="0" x2="27.858399963378908" y2="5" style="visibility: inherit;" fill="rgb(0, 0, 0)" stroke="rgb(204, 204, 204)" stroke-width="1px"></line><line x1="55.716799926757815" y1="0" x2="55.716799926757815" y2="5" style="visibility: inherit;" fill="rgb(0, 0, 0)" stroke="rgb(204, 204, 204)" stroke-width="1px"></line><line x1="83.57519989013672" y1="0" x2="83.57519989013672" y2="5" style="visibility: inherit;" fill="rgb(0, 0, 0)" stroke="rgb(204, 204, 204)" stroke-width="1px"></line><line x1="111.43359985351563" y1="0" x2="111.43359985351563" y2="5" style="visibility: inherit;" fill="rgb(0, 0, 0)" stroke="rgb(204, 204, 204)" stroke-width="1px"></line><line x1="139.29199981689453" y1="0" x2="139.29199981689453" y2="5" style="visibility: inherit;" fill="rgb(0, 0, 0)" stroke="rgb(204, 204, 204)" stroke-width="1px"></line><line x1="167.15039978027343" y1="0" x2="167.15039978027343" y2="5" style="visibility: inherit;" fill="rgb(0, 0, 0)" stroke="rgb(204, 204, 204)" stroke-width="1px"></line><line x1="195.00879974365233" y1="0" x2="195.00879974365233" y2="5" style="visibility: inherit;" fill="rgb(0, 0, 0)" stroke="rgb(204, 204, 204)" stroke-width="1px"></line><line x1="222.86719970703126" y1="0" x2="222.86719970703126" y2="5" style="visibility: inherit;" fill="rgb(0, 0, 0)" stroke="rgb(204, 204, 204)" stroke-width="1px"></line><line x1="250.72559967041016" y1="0" x2="250.72559967041016" y2="5" style="visibility: inherit;" fill="rgb(0, 0, 0)" stroke="rgb(204, 204, 204)" stroke-width="1px"></line><line x1="278.58399963378906" y1="0" x2="278.58399963378906" y2="5" style="visibility: inherit;" fill="rgb(0, 0, 0)" stroke="rgb(204, 204, 204)" stroke-width="1px"></line></g><g transform="translate(0, 8)"><text style="text-anchor: middle; visibility: hidden; font-family: &quot;Helvetica Neue&quot;, sans-serif; font-size: 12px; font-weight: 200;" x="0" y="0" dx="0em" dy="0.95em" fill="rgb(50, 49, 63)" stroke="none" stroke-width="1px">-20k</text><text style="text-anchor: middle; visibility: inherit; font-family: &quot;Helvetica Neue&quot;, sans-serif; font-size: 12px; font-weight: 200;" x="27.858399963378908" y="0" dx="0em" dy="0.95em" fill="rgb(50, 49, 63)" stroke="none" stroke-width="1px">0</text><text style="text-anchor: middle; visibility: hidden; font-family: &quot;Helvetica Neue&quot;, sans-serif; font-size: 12px; font-weight: 200;" x="55.716799926757815" y="0" dx="0em" dy="0.95em" fill="rgb(50, 49, 63)" stroke="none" stroke-width="1px">20k</text><text style="text-anchor: middle; visibility: inherit; font-family: &quot;Helvetica Neue&quot;, sans-serif; font-size: 12px; font-weight: 200;" x="83.57519989013672" y="0" dx="0em" dy="0.95em" fill="rgb(50, 49, 63)" stroke="none" stroke-width="1px">40k</text><text style="text-anchor: middle; visibility: hidden; font-family: &quot;Helvetica Neue&quot;, sans-serif; font-size: 12px; font-weight: 200;" x="111.43359985351563" y="0" dx="0em" dy="0.95em" fill="rgb(50, 49, 63)" stroke="none" stroke-width="1px">60k</text><text style="text-anchor: middle; visibility: inherit; font-family: &quot;Helvetica Neue&quot;, sans-serif; font-size: 12px; font-weight: 200;" x="139.29199981689453" y="0" dx="0em" dy="0.95em" fill="rgb(50, 49, 63)" stroke="none" stroke-width="1px">80k</text><text style="text-anchor: middle; visibility: hidden; font-family: &quot;Helvetica Neue&quot;, sans-serif; font-size: 12px; font-weight: 200;" x="167.15039978027343" y="0" dx="0em" dy="0.95em" fill="rgb(50, 49, 63)" stroke="none" stroke-width="1px">100k</text><text style="text-anchor: middle; visibility: inherit; font-family: &quot;Helvetica Neue&quot;, sans-serif; font-size: 12px; font-weight: 200;" x="195.00879974365233" y="0" dx="0em" dy="0.95em" fill="rgb(50, 49, 63)" stroke="none" stroke-width="1px">120k</text><text style="text-anchor: middle; visibility: hidden; font-family: &quot;Helvetica Neue&quot;, sans-serif; font-size: 12px; font-weight: 200;" x="222.86719970703126" y="0" dx="0em" dy="0.95em" fill="rgb(50, 49, 63)" stroke="none" stroke-width="1px">140k</text><text style="text-anchor: middle; visibility: inherit; font-family: &quot;Helvetica Neue&quot;, sans-serif; font-size: 12px; font-weight: 200;" x="250.72559967041016" y="0" dx="0em" dy="0.95em" fill="rgb(50, 49, 63)" stroke="none" stroke-width="1px">160k</text><text style="text-anchor: middle; visibility: hidden; font-family: &quot;Helvetica Neue&quot;, sans-serif; font-size: 12px; font-weight: 200;" x="278.58399963378906" y="0" dx="0em" dy="0.95em" fill="rgb(50, 49, 63)" stroke="none" stroke-width="1px">180k</text></g><line x1="0" y1="0" x2="278.58399963378906" y2="0" fill="rgb(0, 0, 0)" stroke="rgb(204, 204, 204)" stroke-width="1px"></line></g></g></g></g></svg>