<svg viewBox="0 0 330 200" xmlns="http://www.w3.org/2000/svg"><g><g><g><g><g><line x1="61.77000045776367" y1="177.9749994277954" x2="56.77000045776367" y2="177.9749994277954" style="visibility: inherit;" fill="rgb(0, 0, 0)" stroke="rgb(204, 204, 204)" stroke-width="1px"></line><line x1="61.77000045776367" y1="164.28461485642654" x2="56.77000045776367" y2="164.28461485642654" style="visibility: inherit;" fill="rgb(0, 0, 0)" stroke="rgb(204, 204, 204)" stroke-width="1px"></line><line x1="61.77000045776367" y1="150.59423028505765" x2="56.77000045776367" y2="150.59423028505765" style="visibility: inherit;" fill="rgb(0, 0, 0)" stroke="rgb(204, 204, 204)" stroke-width="1px"></line><line x1="61.77000045776367" y1="136.90384571368878" x2="56.77000045776367" y2="136.90384571368878" style="visibility: inherit;" fill="rgb(0, 0, 0)" stroke="rgb(204, 204, 204)" stroke-width="1px"></line><line x1="61.77000045776367" y1="123.21346114231989" x2="56.77000045776367" y2="123.21346114231989" style="visibility: inherit;" fill="rgb(0, 0, 0)" stroke="rgb(204, 204, 204)" stroke-width="1px"></line><line x1="61.77000045776367" y1="109.52307657095102" x2="56.77000045776367" y2="109.52307657095102" style="visibility: inherit;" fill="rgb(0, 0, 0)" stroke="rgb(204, 204, 204)" stroke-width="1px"></line><line x1="61.77000045776367" y1="95.83269199958214" x2="56.77000045776367" y2="95.83269199958214" style="visibility: inherit;" fill="rgb(0, 0, 0)" stroke="rgb(204, 204, 204)" stroke-width="1px"></line><line x1="61.77000045776367" y1="82.14230742821327" x2="56.77000045776367" y2="82.14230742821327" style="visibility: inherit;" fill="rgb(0, 0, 0)" stroke="rgb(204, 204, 204)" stroke-width="1px"></line><line x1="61.77000045776367" y1="68.45192285684438" x2="56.77000045776367" y2="68.45192285684438" style="visibility: inherit;" fill="rgb(0, 0, 0)" stroke="rgb(204, 204, 204)" stroke-width="1px"></line><line x1="61.77000045776367" y1="54.76153828547551" x2="56.77000045776367" y2="54.76153828547551" style="visibility: inherit;" fill="rgb(0, 0, 0)" stroke="rgb(204, 204, 204)" stroke-width="1px"></line><line x1="61.77000045776367" y1="41.07115371410666" x2="56.77000045776367" y2="41.07115371410666" style="visibility: inherit;" fill="rgb(0, 0, 0)" stroke="rgb(204, 204, 204)" stroke-width="1px"></line><line x1="61.77000045776367" y1="27.380769142737762" x2="56.77000045776367" y2="27.380769142737762" style="visibility: inherit;" fill="rgb(0, 0, 0)" stroke="rgb(204, 204, 204)" stroke-width="1px"></line><line x1="61.77000045776367" y1="13.690384571368895" x2="56.77000045776367" y2="13.690384571368895" style="visibility: inherit;" fill="rgb(0, 0, 0)" stroke="rgb(204, 204, 204)" stroke-width="1px"></line><line x1="61.77000045776367" y1="0" x2="56.77000045776367" y2="0" style="visibility: inherit;" fill="rgb(0, 0, 0)" stroke="rgb(204, 204, 204)" stroke-width="1px"></line></g><g transform="translate(51.77000045776367, 0)"><text style="text-anchor: end; visibility: hidden; font-family: &quot;Helvetica Neue&quot;, sans-serif; font-size: 12px; font-weight: 200;" x="0" y="177.9749994277954" dx="0em" dy="0.3em" fill="rgb(50, 49, 63)" stroke="none" stroke-width="1px">-0.01</text><text style="text-anchor: end; visibility: inherit; font-family: &quot;Helvetica Neue&quot;, sans-serif; font-size: 12px; font-weight: 200;" x="0" y="164.28461485642654" dx="0em" dy="0.3em" fill="rgb(50, 49, 63)" stroke="none" stroke-width="1px">0</text><text style="text-anchor: end; visibility: hidden; font-family: &quot;Helvetica Neue&quot;, sans-serif; font-size: 12px; font-weight: 200;" x="0" y="150.59423028505765" dx="0em" dy="0.3em" fill="rgb(50, 49, 63)" stroke="none" stroke-width="1px">0.01</text><text style="text-anchor: end; visibility: inherit; font-family: &quot;Helvetica Neue&quot;, sans-serif; font-size: 12px; font-weight: 200;" x="0" y="136.90384571368878" dx="0em" dy="0.3em" fill="rgb(50, 49, 63)" stroke="none" stroke-width="1px">0.02</text><text style="text-anchor: end; visibility: hidden; font-family: &quot;Helvetica Neue&quot;, sans-serif; font-size: 12px; font-weight: 200;" x="0" y="123.21346114231989" dx="0em" dy="0.3em" fill="rgb(50, 49, 63)" stroke="none" stroke-width="1px">0.03</text><text style="text-anchor: end; visibility: inherit; font-family: &quot;Helvetica Neue&quot;, sans-serif; font-size: 12px; font-weight: 200;" x="0" y="109.52307657095102" dx="0em" dy="0.3em" fill="rgb(50, 49, 63)" stroke="none" stroke-width="1px">0.04</text><text style="text-anchor: end; visibility: hidden; font-family: &quot;Helvetica Neue&quot;, sans-serif; font-size: 12px; font-weight: 200;" x="0" y="95.83269199958214" dx="0em" dy="0.3em" fill="rgb(50, 49, 63)" stroke="none" stroke-width="1px">0.05</text><text style="text-anchor: end; visibility: inherit; font-family: &quot;Helvetica Neue&quot;, sans-serif; font-size: 12px; font-weight: 200;" x="0" y="82.14230742821327" dx="0em" dy="0.3em" fill="rgb(50, 49, 63)" stroke="none" stroke-width="1px">0.06</text><text style="text-anchor: end; visibility: hidden; font-family: &quot;Helvetica Neue&quot;, sans-serif; font-size: 12px; font-weight: 200;" x="0" y="68.45192285684438" dx="0em" dy="0.3em" fill="rgb(50, 49, 63)" stroke="none" stroke-width="1px">0.07</text><text style="text-anchor: end; visibility: inherit; font-family: &quot;Helvetica Neue&quot;, sans-serif; font-size: 12px; font-weight: 200;" x="0" y="54.76153828547551" dx="0em" dy="0.3em" fill="rgb(50, 49, 63)" stroke="none" stroke-width="1px">0.08</text><text style="text-anchor: end; visibility: hidden; font-family: &quot;Helvetica Neue&quot;, sans-serif; font-size: 12px; font-weight: 200;" x="0" y="41.07115371410666" dx="0em" dy="0.3em" fill="rgb(50, 49, 63)" stroke="none" stroke-width="1px">0.09</text><text style="text-anchor: end; visibility: inherit; font-family: &quot;Helvetica Neue&quot;, sans-serif; font-size: 12px; font-weight: 200;" x="0" y="27.380769142737762" dx="0em" dy="0.3em" fill="rgb(50, 49, 63)" stroke="none" stroke-width="1px">0.1</text><text style="text-anchor: end; visibility: hidden; font-family: &quot;Helvetica Neue&quot;, sans-serif; font-size: 12px; font-weight: 200;" x="0" y="13.690384571368895" dx="0em" dy="0.3em" fill="rgb(50, 49, 63)" stroke="none" stroke-width="1px">0.11</text><text style="text-anchor: end; visibility: hidden; font-family: &quot;Helvetica Neue&quot;, sans-serif; font-size: 12px; font-weight: 200;" x="0" y="0" dx="0em" dy="0.3em" fill="rgb(50, 49, 63)" stroke="none" stroke-width="1px">0.12</text></g><line x1="61.77000045776367" y1="0" x2="61.77000045776367" y2="177.9749994277954" fill="rgb(0, 0, 0)" stroke="rgb(204, 204, 204)" stroke-width="1px"></line></g></g><g transform="translate(61, 0)" clip-path="url(#clip_0)"><clipPath id="clip_0"><rect width="268" height="177"></rect></clipPath><g><g><g><line x1="0" y1="0" x2="0" y2="177.9749994277954" fill="rgb(0, 0, 0)" stroke="rgb(60, 60, 60)" stroke-width="1px" opacity="0.25"></line><line x1="19.159285681588308" y1="0" x2="19.159285681588308" y2="177.9749994277954" fill="rgb(0, 0, 0)" stroke="rgb(60, 60, 60)" stroke-width="1px" opacity="0.25"></line><line x1="38.318571363176616" y1="0" x2="38.318571363176616" y2="177.9749994277954" fill="rgb(0, 0, 0)" stroke="rgb(60, 60, 60)" stroke-width="1px" opacity="0.25"></line><line x1="57.477857044764924" y1="0" x2="57.477857044764924" y2="177.9749994277954" fill="rgb(0, 0, 0)" stroke="rgb(60, 60, 60)" stroke-width="1px" opacity="0.25"></line><line x1="76.63714272635323" y1="0" x2="76.63714272635323" y2="177.9749994277954" fill="rgb(0, 0, 0)" stroke="rgb(60, 60, 60)" stroke-width="1px" opacity="0.25"></line><line x1="95.79642840794155" y1="0" x2="95.79642840794155" y2="177.9749994277954" fill="rgb(0, 0, 0)" stroke="rgb(60, 60, 60)" stroke-width="1px" opacity="0.25"></line><line x1="114.95571408952985" y1="0" x2="114.95571408952985" y2="177.9749994277954" fill="rgb(0, 0, 0)" stroke="rgb(60, 60, 60)" stroke-width="1px" opacity="0.25"></line><line x1="134.11499977111816" y1="0" x2="134.11499977111816" y2="177.9749994277954" fill="rgb(0, 0, 0)" stroke="rgb(60, 60, 60)" stroke-width="1px" opacity="0.25"></line><line x1="153.27428545270647" y1="0" x2="153.27428545270647" y2="177.9749994277954" fill="rgb(0, 0, 0)" stroke="rgb(60, 60, 60)" stroke-width="1px" opacity="0.25"></line><line x1="172.4335711342948" y1="0" x2="172.4335711342948" y2="177.9749994277954" fill="rgb(0, 0, 0)" stroke="rgb(60, 60, 60)" stroke-width="1px" opacity="0.25"></line><line x1="191.5928568158831" y1="0" x2="191.5928568158831" y2="177.9749994277954" fill="rgb(0, 0, 0)" stroke="rgb(60, 60, 60)" stroke-width="1px" opacity="0.25"></line><line x1="210.7521424974714" y1="0" x2="210.7521424974714" y2="177.9749994277954" fill="rgb(0, 0, 0)" stroke="rgb(60, 60, 60)" stroke-width="1px" opacity="0.25"></line><line x1="229.9114281790597" y1="0" x2="229.9114281790597" y2="177.9749994277954" fill="rgb(0, 0, 0)" stroke="rgb(60, 60, 60)" stroke-width="1px" opacity="0.25"></line><line x1="249.07071386064803" y1="0" x2="249.07071386064803" y2="177.9749994277954" fill="rgb(0, 0, 0)" stroke="rgb(60, 60, 60)" stroke-width="1px" opacity="0.25"></line><line x1="268.2299995422363" y1="0" x2="268.2299995422363" y2="177.9749994277954" fill="rgb(0, 0, 0)" stroke="rgb(60, 60, 60)" stroke-width="1px" opacity="0.25"></line></g><g><line x1="0" y1="177.9749994277954" x2="268.2299995422363" y2="177.9749994277954" fill="rgb(0, 0, 0)" stroke="rgb(60, 60, 60)" stroke-width="1px" opacity="0.25"></line><line x1="0" y1="164.28461485642654" x2="268.2299995422363" y2="164.28461485642654" fill="rgb(0, 0, 0)" stroke="rgb(60, 60, 60)" stroke-width="1px" opacity="0.25"></line><line x1="0" y1="150.59423028505765" x2="268.2299995422363" y2="150.59423028505765" fill="rgb(0, 0, 0)" stroke="rgb(60, 60, 60)" stroke-width="1px" opacity="0.25"></line><line x1="0" y1="136.90384571368878" x2="268.2299995422363" y2="136.90384571368878" fill="rgb(0, 0, 0)" stroke="rgb(60, 60, 60)" stroke-width="1px" opacity="0.25"></line><line x1="0" y1="123.21346114231989" x2="268.2299995422363" y2="123.21346114231989" fill="rgb(0, 0, 0)" stroke="rgb(60, 60, 60)" stroke-width="1px" opacity="0.25"></line><line x1="0" y1="109.52307657095102" x2="268.2299995422363" y2="109.52307657095102" fill="rgb(0, 0, 0)" stroke="rgb(60, 60, 60)" stroke-width="1px" opacity="0.25"></line><line x1="0" y1="95.83269199958214" x2="268.2299995422363" y2="95.83269199958214" fill="rgb(0, 0, 0)" stroke="rgb(60, 60, 60)" stroke-width="1px" opacity="0.25"></line><line x1="0" y1="82.14230742821327" x2="268.2299995422363" y2="82.14230742821327" fill="rgb(0, 0, 0)" stroke="rgb(60, 60, 60)" stroke-width="1px" opacity="0.25"></line><line x1="0" y1="68.45192285684438" x2="268.2299995422363" y2="68.45192285684438" fill="rgb(0, 0, 0)" stroke="rgb(60, 60, 60)" stroke-width="1px" opacity="0.25"></line><line x1="0" y1="54.76153828547551" x2="268.2299995422363" y2="54.76153828547551" fill="rgb(0, 0, 0)" stroke="rgb(60, 60, 60)" stroke-width="1px" opacity="0.25"></line><line x1="0" y1="41.07115371410666" x2="268.2299995422363" y2="41.07115371410666" fill="rgb(0, 0, 0)" stroke="rgb(60, 60, 60)" stroke-width="1px" opacity="0.25"></line><line x1="0" y1="27.380769142737762" x2="268.2299995422363" y2="27.380769142737762" fill="rgb(0, 0, 0)" stroke="rgb(60, 60, 60)" stroke-width="1px" opacity="0.25"></line><line x1="0" y1="13.690384571368895" x2="268.2299995422363" y2="13.690384571368895" fill="rgb(0, 0, 0)" stroke="rgb(60, 60, 60)" stroke-width="1px" opacity="0.25"></line><line x1="0" y1="0" x2="268.2299995422363" y2="0" fill="rgb(0, 0, 0)" stroke="rgb(60, 60, 60)" stroke-width="1px" opacity="0.25"></line></g></g></g><g><g><line x1="0" y1="164.28461485642654" x2="268.2299995422363" y2="164.28461485642654" fill="rgb(0, 0, 0)" stroke="rgb(153, 153, 153)" stroke-width="1.5px"></line></g></g><g><g><line x1="19.159285681588308" y1="0" x2="19.159285681588308" y2="177.9749994277954" fill="rgb(0, 0, 0)" stroke="rgb(153, 153, 153)" stroke-width="1.5px"></line></g></g><g><g><g><g><g><path style="fill: none;" stroke="rgb(187, 187, 187)" stroke-width="2px" d="M19.32022368131365,150.5925067688609L19.331719252722607,150.59225176557675L19.431347538266863,150.58930520262862L19.519480252402168,150.58559617986097L19.79920582335336,150.5669809401195L20.036780965805054,150.54299660623067L20.055940251486643,150.54073472710044L20.136409251349313,150.53070417291923L20.20538267980303,150.52142077836046L20.339497679574148,150.50155984757603L20.347161393846786,150.50035240702567L20.377816250937325,150.49544614383902L20.97558596420288,150.37482449038L21.213161106654578,150.31371932842043L21.377930963516235,150.2669479010618L21.40475396347046,150.25899434862978L21.588683106013708,150.20188636314896L21.638497248785836,150.185649029032L21.895231676919117,150.09676635933218L21.92588653400966,150.0855717151589L22.167293533597675,149.99308202400505L22.232435104915073,149.96680776062476L22.25542624773298,149.95740068947322L22.362718247549875,149.912582587271L22.88001896095276,149.67525103073152L23.04478881781442,149.59228188719067L23.24404538890294,149.4872001338665L23.389655960083008,149.40712655261697L23.68087710244315,149.2386828582687L23.99125753048488,149.04700326467054L24.20200967298235,148.90972352167574L24.213505244391307,148.90207087311902L24.267151244299754,148.86612816022094L24.282478672845023,148.85579032708233L24.466407815388273,148.7293698989422L24.493230815342493,148.71056850680333L24.661832529340472,148.59026433243304L24.77678824343,148.50614002401508L24.99520410020011,148.34162465525884L25.106327957153322,148.25557379702929L25.228947385515486,148.15878730053785L25.638956099101478,147.82121650303986L25.803725955963134,147.67953285332814L25.81522152737209,147.6695188743604L26.225230240958076,147.30143565889983L26.351681526456563,147.18363561677972L26.504955811909266,147.03815241813447L26.6199115259988,146.92710613799454L26.960946811131066,146.58794922006922L27.190858239310128,146.35113149514729L27.539557238715034,145.97946548354471L27.585539524350846,145.92933438791766L27.708158952713013,145.79438282490696L27.826946523938858,145.66188821853888L27.999380095073157,145.46648557699243L28.313592380251205,145.10109647122871L28.49368966565813,144.88626512946442L28.558831236975536,144.807595341294L28.566494951248167,144.79830557165315L28.585654236929756,144.77505309718978L28.6814506653377,144.65812261626854L28.68528252247402,144.65342163072563L28.73126480810983,144.5968823025684L28.750424093791416,144.57324859819525L28.86154795074463,144.43530712167814L29.447822092601232,143.6831443347436L29.6585742350987,143.40280519931923L30.528405805042812,142.19082686552417L30.800467661721367,141.79380205233133L30.811963233130317,141.77683923387104L31.27178608948844,141.08604808732798L31.536184231894357,140.67804793278617L31.59749394607544,140.58232224995675L31.601325803211758,140.57632457271401L31.823573517118184,140.22571545729846L32.49414851597378,139.13486495848142L33.02294480078561,138.24024458686785L33.03060851505824,138.2270583670455L33.22220137187413,137.89539344560794L33.49426322855268,137.41777229443306L33.77398879950387,136.91862121597913L33.800811799458096,136.8703312440635L34.21082051304409,136.12295231873924L34.31811251286098,135.9245393634236L34.62466108376639,135.35123077991193L34.86223622621809,134.9004359742275L35.237758225577224,134.1764944007476L35.37570508248465,133.90708853113028L35.70141293907165,133.26367954481137L36.01945708138602,132.62561797736063L36.371987937927244,131.90723292544192L36.43712950924465,131.7732184995004L36.517598509107316,131.60713231051392L37.03106736537388,130.53340528222617L37.046394793919156,130.50098671471477L37.077049651009695,130.43608582887094L37.50621765027728,129.51871151421446L37.55986365018572,129.40289667266129L37.70547422136579,129.08728165792684L37.91239450672694,128.6356198410764L38.20744750622341,127.98524926510072L38.510164219992504,127.31036522342166L38.517827934265135,127.29318055210416L38.72474821962629,126.82736350295167L38.832040219443186,126.58444992452259L39.64056207520621,124.7242647176177L39.69420807511466,124.5990249546831L39.927951360430036,124.05076534377147L40.42226093101502,122.87778083716911L40.92040235873631,121.67761043044568L41.08900407273429,121.26739684739765L41.41471192932129,120.46934366945113L41.62929592895508,119.9396151471972L41.6561189289093,119.87318169161574L41.794065785816734,119.53076838175213L42.112109928131105,118.73655045319892L42.18874707085745,118.54419637591423L42.61408321298872,117.46986753987593L42.652401784351895,117.37252768625797L42.91679992675781,116.6984520049896L42.966614069529946,116.57098096331887L42.98960521234785,116.51209560494766L43.25783521189008,115.82282172794515L43.34596792602539,115.59543529948674L43.59120678274972,114.96035472042749L44.14299421037946,113.51921896036573L44.34991449574062,112.97457784605591L44.461038352693826,112.68117106733631L44.817401066371374,111.73601159484107L44.828896637780325,111.7054163008112L44.87487892341614,111.5829739239035L45.42283449390957,110.11608793221032L45.852002493177146,108.95757741201516L45.9516307787214,108.6874830335307L46.38846249226162,107.49832111858315L46.419117349352156,107.41457804007496L46.576223491941185,106.98481590526555L47.173993205206735,105.341044335503L47.357922347749984,104.8326697882621L47.44605506188529,104.5886622457441L47.706621347154886,103.86572793523649L47.744939918518064,103.75922836365258L47.75643548992702,103.72726625201977L47.81391334697179,103.56740979326457L47.94036463247027,103.21535225919516L48.63776263128008,101.26521464381354L49.00178905923026,100.24203436650598L49.04010763059343,100.13413737692504L49.174222630364554,99.75622760991055L49.77965605790275,98.04523207438574L50.067045343126566,97.230455781066L50.50387705666678,95.98922729556485L50.66098319925581,95.54208923697485L51.20510691261291,93.99090935967976L51.2242661982945,93.936226455431L51.25875291252136,93.83779008769126L51.6151156261989,92.81989857849656L51.7224076260158,92.51321632880519L51.76072619737898,92.40366691794308L52.11708891105652,91.38437799075135L52.24737205369132,91.01155298922242L52.47728348187038,90.3534609138033L53.17851333781651,88.34562115528882L53.278141623360774,88.06035918146434L53.289637194769725,88.02744845761457L53.3701061946324,87.79706319053476L53.39692919458662,87.72027150155196L53.61917690849304,87.08407910817391L53.856752050944735,86.40424035268421L54.64228276388986,84.15908943789299L54.85686676352364,83.54677045197516L54.97948619188581,83.19711504884224L55.312857762745445,82.24746751854632L55.43930904824393,81.88766808477071L55.74202576201302,81.0273533049711L55.76884876196725,80.95119402413293L55.818662904739384,80.80979470308304L56.16353004700797,79.83210191159853L56.25166276114327,79.58261689853744L56.32063618959699,79.38747308532436L56.876255474363056,77.81927428884647L57.12149433108738,77.12941900435618L57.70010475867135,75.5080367229402L57.79973304421561,75.22981793982338L58.535449614388604,73.18474260176029L58.562272614342824,73.11052644594719L59.00676804215568,71.88418505217354L59.31331661306108,71.04266401441426L59.478086469922744,70.59183860833575L59.803794326509745,69.70386617233942L59.92258189773559,69.38110341555083L59.983891611916675,69.21475967324736L60.20230746868678,68.62343765774476L60.378572896957394,68.14777493179201L60.38240475409371,68.13744219871907L60.4667056110927,67.91045867544958L60.70044889640808,67.28278339176144L60.73493561063494,67.1903906018556L60.93419218172346,66.65766834104599L60.94568775313241,66.62699654603088L61.09129832431248,66.23899374903054L61.17943103844779,66.00464573091537L61.202422181265696,65.943577544432L61.21008589553833,65.92322828235845L61.386351323808945,65.45598066478199L61.70056360898699,64.62699558847054L61.773368894577025,64.435651324191L61.807855608803884,64.34511495819362L62.06842189407349,63.66310357472314L62.07608560834612,63.64309091698463L62.305997036525184,63.04449620781867L62.91526232119969,61.472717165231586L63.11835074942453,60.95363248005725L63.19498789215088,60.75840196572757L63.31377546337672,60.45649847758078L63.34826217760358,60.36901195086158L63.413403748920985,60.20395342511013L63.47854532023838,60.03917030290553L63.79275760541643,59.24805831435302L63.934536319460186,58.89316514376408L64.2180937475477,58.1873058531618L64.65492546108791,57.1104065840195L65.02278374617441,56.21373343596866L65.041943031856,56.16729223786298L65.17988988876343,55.83367654130183L65.29867745998928,55.54749145558877L65.67036760221208,54.65863160816369L65.76999588775635,54.422110962067734L65.84663303048269,54.24068122547516L66.00757103020804,53.86110373698246L66.25280988693237,53.286499736787405L66.6934734576089,52.265690990022264L66.89656188583375,51.80040179766792L67.7127474558694,49.96427615062066L68.50211002595084,48.24187176816389L68.73968516840254,47.73411942893625L69.03857002503531,47.102476294147095L69.10371159635271,46.96588633503586L69.20717173903329,46.749725151144816L69.28764073889596,46.58227979465394L69.33362302453176,46.48686776586396L69.39110088157653,46.367862833226354L69.88924230929784,45.34937971641244L70.51383502251761,44.105473696427936L70.52916245106289,44.07542410942611L70.90468445042202,43.34625751865437L71.06562245014736,43.03799934866706L71.26104716409955,42.667142972491604L71.34917987823486,42.50114603465457L71.57525944927761,42.07890139666131L71.58675502068655,42.057572921976686L72.07723273413522,41.159951161708904L72.36079016222273,40.65232122405766L73.11183416094099,39.34860163374768L73.65212601716178,38.44803203551538L73.90502858815876,38.03740534714706L73.93185158811298,37.99426899160369L74.03147987365723,37.834728736920795L74.10045330211095,37.72492432277457L74.3265328731537,37.368705135108144L74.51812572996957,37.07128970476205L75.22701930018833,36.00680399549117L75.25001044300625,35.97323536316833L75.36496615709578,35.80631021337706L75.39945287132264,35.756533572314936L75.4377714426858,35.70138146202339L75.79030229922702,35.201932029727004L75.82478901345388,35.15384861047153L75.90525801331657,35.04217757228548L76.1504968700409,34.706542249714005L76.22330215563093,34.608253783879064L76.98200986862182,33.621238072326776L77.32687701089043,33.195290786647945L77.65641672461373,32.80166771726539L77.87866443852016,32.543634994120254L78.44961115183149,31.908432013484628L78.45727486610411,31.90018010721022L78.57989429446629,31.769108419167537L78.69868186569214,31.643901806659898L79.4727170072283,30.87101745285696L79.56468157849993,30.784163334282397L79.59916829272679,30.75186971838022L79.80992043522427,30.557781618763443L80.44217686271668,30.009198153680956L80.83302629062108,29.695533914070126L80.91349529048374,29.63337431353068L81.423132289614,29.259049892691053L81.69902600342887,29.070378062829178L81.78332686042786,29.01468534557526L81.84846843174526,28.972293599621565L82.02473386001587,28.860316557494542L82.40408771651131,28.63304743054684L83.13980428668431,28.245799443267515L83.56514042881557,28.05430217701749L83.56897228595189,28.052680356130423L83.75290142849514,27.977342185867144L83.91383942822047,27.915070383882693L84.55375956998552,27.701306230862485L84.67254714121137,27.66759479670054L84.80283028384618,27.632761348088422L85.21667085456848,27.537043315357522L85.34312214006695,27.51232839705966L85.41209556852068,27.49974143495504L85.41975928279332,27.49838481748344L85.51172385406494,27.482686815312462L85.51555571120126,27.482054407167794L85.5270512826102,27.48017758299659L85.59985656820025,27.468692235079402L85.8527591391972,27.43426679172191L86.00220156751361,27.417915981143494L86.04052013887679,27.414203133326566L86.38155542400905,27.38977381870697L86.4352014239175,27.387335987310678L86.54632528087072,27.383510938048715L86.57698013796126,27.382745928196357L86.68810399491447,27.38102210599564L87.06745785140991,27.382144120445787L87.9526168498993,27.400412555720834L88.05990884971618,27.404064202749566L88.09439556394304,27.405308618776132L88.20168756375993,27.40937847119085L88.33580256353106,27.414906942390786L88.38178484916688,27.41691636826974L88.6270237058912,27.428585318551512L89.1443244192941,27.45856350463376L89.35124470465523,27.472588685260916L89.86088170378548,27.512063193644167L89.86471356092181,27.512389597847886L90.40117356000628,27.56159503155351L90.86482827350072,27.610402660135946L90.89165127345494,27.613401498757298L91.37063341549464,27.670277431249588L91.80363327189855,27.72702076203413L91.98373055730546,27.75211308519249L92.14850041416713,27.775838590747895L92.40906669943674,27.814854093219765L92.61215512766157,27.84652550110866L93.00300455556598,27.91061292647612L93.97629626819067,28.088064611836245L93.99928741100857,28.092573069899657L94.41695983886719,28.176785354450658L94.47060583877564,28.187934098032798L94.7656588382721,28.250675106060072L94.78864998109,28.255662970297664L95.11818969481332,28.32868571074104L95.20632240894862,28.348708568610903L95.47455240849085,28.410929369938515L95.55885326548986,28.430880826888824L95.68530455098833,28.46115481678072L95.77726912225997,28.483452303945L95.93054340771266,28.521100988813885L95.99951683616638,28.53825760977014L96.0225079789843,28.544000283728735L96.03400355039324,28.546876720773724L96.32522469275338,28.620950074747697L96.3290565498897,28.621939487490124L96.50915383529663,28.668900892295454L96.62794140652248,28.700347897294336L96.73140154920306,28.728041253950806L96.74289712061201,28.73113189375448L96.7620564062936,28.73630336035663L97.03411826297214,28.810703118534263L97.07626869147164,28.822402669210163L97.26402969115121,28.875116948105443L97.48244554792132,28.93760295284855L97.65487911905561,28.987828399690756L97.81198526164464,29.03427979792781L97.86179940441676,29.049141389326877L97.86563126155309,29.050283804039793L97.94993211855207,29.075600530088167L98.01124183273315,29.094123968647352L98.43657797486442,29.22538945918592L98.51704697472708,29.250767386022517L98.781445117133,29.335336675171277L98.79294068854196,29.339049522988205L98.79677254567828,29.34029393901477L98.98070168822153,29.400280911573446L99.07266625949315,29.43061610225348L99.57847140148708,29.601396901700838L99.93483411516462,29.72576710343654L100.18007297188896,29.813274030418484L100.4291436857496,29.903769595890424L100.5172763998849,29.936185613368963L100.83915239933559,30.056271759931292L100.85064797074455,30.060606815761503L100.86980725642613,30.0678489090308L101.12654168455941,30.165770170136597L101.19551511301313,30.19237211273699L101.48290439823695,30.304542957359956L101.63234682655334,30.363713919409406L102.23778025409153,30.609373883208548L102.4025501109532,30.677877965457157L102.67461196763175,30.792517241870485L102.774240253176,30.834970188612402L102.85470925303868,30.869446632626733L102.87770039585658,30.879330559919566L103.48313382339477,31.144442174232154L104.39894767897471,31.563310568743532L104.44876182174683,31.586709670095303L104.57904496438162,31.648206262095982L104.7246555355617,31.71744475380288L104.83194753537859,31.768802415226588L105.2687792489188,31.9809345472284L105.40289424868992,32.047031398474786L105.54467296273367,32.117402104763215L105.89337196213859,32.29263016148576L106.39151338985988,32.54826585376006L106.67890267508369,32.6985851896888L107.0237698173523,32.88168774782528L107.03526538876125,32.8878384270385L107.59854838779994,33.193454763002194L107.61387581634521,33.20188007150986L107.82079610170638,33.316203143850856L107.85911467306954,33.337490818010025L107.98939781570435,33.41014635372423L108.02771638706751,33.43158702985386L108.12734467261178,33.48752455026053L108.29977824374608,33.58491540453534L108.38791095788137,33.63496744914431L108.67530024310521,33.799536368590225L108.74810552869523,33.841550709683446L108.92820281410218,33.94603065525703L109.36120267050606,34.200493332424344L109.54896367018564,34.31226637192407L109.85934409822737,34.49890837564428L109.90149452672686,34.52442910431995L109.97813166945322,34.57096210360791L110.25785724040439,34.74197750607664L110.4762730971745,34.87683344285577L110.8862818107605,35.13309134314338L111.4265736669813,35.476947971595166L111.57601609529767,35.57328821233938L111.68713995225089,35.64527053938349L112.02051152311051,35.86300254350476L112.20444066565376,35.98425150504272L112.2121043799264,35.98932097033122L112.35771495110649,36.08591621435954L112.44584766524179,36.1446179703662L112.71790952192035,36.32699631917575L113.25820137814112,36.694364250424286L113.50344023486545,36.86337022701409L113.87896223422459,37.124881194954725L113.90961709131514,37.146372871741164L114.5763602330344,37.61924076169987L114.70281151853288,37.710083131638214L114.98636894662039,37.91512617234122L115.1358113749368,38.02393097361363L115.4653510886601,38.26566388683719L115.84087308801924,38.54415807350088L115.89068723079137,38.581337552327L115.92517394501823,38.60711328428681L116.22789065878732,38.83451501294229L116.45397022983006,39.00570381764422L116.89080194337028,39.3397173193286L116.94827980041504,39.38398588945353L117.25099651418414,39.618354307831424L117.58436808504378,39.87881466224147L118.0671820842198,40.260401576613106L118.20129708399091,40.36730915345163L118.48485451207841,40.59464968131891L118.9600047969818,40.979531238121496L119.04047379684448,41.04519968385054L119.13627022525243,41.12355709299794L119.38150908197674,41.32507088824855L119.43515508188521,41.369319058110705L119.90647350965227,41.76077969964385L119.94862393815177,41.796021153510594L120.33180965178353,42.11814130202316L120.58854407991682,42.33571010404262L121.35491550718034,42.99344517486392L121.8415613634927,43.41750543624019L121.845393220629,43.42086127945936L121.95651707758222,43.51839493557324L121.96418079185486,43.52512702227429L122.3435346483503,43.860068735912904L123.16355207552229,44.59419259052811L123.18654321834019,44.614970258119L123.2095343611581,44.63575812584128L123.22486178970337,44.64963030449792L123.22869364683969,44.65309834916209L123.66935721751621,45.05383091010617L124.5545162160056,45.87055542851667L124.93003821536473,46.22174595142002L124.9683567867279,46.25773201487641L124.99517978668213,46.28294673961116L125.06415321513585,46.34783997535649L125.45117078590393,46.71369828716297L125.78071049962725,47.02751552874432L126.12940949903216,47.361865634763774L126.1370732133048,47.36924032974079L126.25969264166696,47.48738845134375L126.32866607012068,47.5539749088957L127.41308163969858,48.612717944207986L127.51270992524283,48.71109821122519L127.68131163924082,48.87801316088513L128.12963892418998,49.324411709951136L128.1794530669621,49.37423935167007L128.53198392350333,49.72818391004205L128.64310778045655,49.84022215295727L128.79255020877292,49.99125549808157L130.16818692071098,51.400373045788015L130.26781520625522,51.503730976911456L130.35211606325421,51.59132970507568L130.42492134884426,51.66707588059354L130.5207177772522,51.76689436613327L130.58202749143328,51.830849189792985L130.62800977706908,51.878871408260295L131.05334591920035,52.324759950758065L131.29092106165206,52.575173175773386L132.0879473460061,53.42229408565214L132.11477034596032,53.45099725531378L132.1492570601872,53.48791153072439L132.34084991700308,53.69334217641925L132.35234548841206,53.70568433537113L132.43281448827472,53.792161049085166L132.55160205950057,53.92001969574778L132.6244073450906,53.99849950647153L133.1455399156298,54.562811574119124L133.45592034367152,54.90101732979461L133.45975220080786,54.90520958378569L133.59003534344265,55.04764421816917L134.11499977111816,55.62435964555682L134.13415905679977,55.64549431774549L134.23378734234402,55.75546193399356L134.4100527706146,55.95042724490774L134.4675306276594,56.014106665020606L134.78174291283744,56.36314496020593L134.9465127696991,56.546798325436114L135.04614105524337,56.658040958104834L135.20324719783238,56.833789221527L135.36801705469404,57.018513600550534L135.87382219668797,57.58818073716483L135.9006451966422,57.61849552758218L135.91597262518746,57.63582555077163L136.30682205309188,58.0789294574067L136.4600963385446,58.25331090322592L136.82029090935842,58.66450879895069L136.87393690926686,58.72591358976912L136.9429103377206,58.80492380732386L138.14611347852434,60.19432450110139L138.3492019067492,60.43087574759143L139.5025909047808,61.78517778934136L139.64436961882456,61.952898549379114L140.6138294743129,63.106951612167705L140.71345775985716,63.22624214848355L141.0429974735805,63.62175224216867L141.29206818744115,63.92159530377968L141.31889118739537,63.95392972020734L141.3495460444859,63.99090519640613L141.53347518702915,64.21296205622625L141.567961901256,64.25464999311576L141.79404147229877,64.5282685169869L141.84385561507088,64.5886532946688L142.44545718547278,65.32021691631135L142.57190847097127,65.47454490386663L142.7328464706966,65.67123403698152L143.44557189805167,66.54600750299129L143.80576646886553,66.99034562552156L143.85558061163766,67.05191361844183L144.1199787540436,67.37916443303111L144.2962441823142,67.59777364844979L144.48400518199375,67.83102005237751L144.69858918162754,68.09806969164946L145.20439432362147,68.72952922407407L145.23504918071202,68.76789191813853L145.6182348943438,69.24821610412516L145.6642171799796,69.30596924791486L145.74085432270596,69.40225848800222L146.19301346479142,69.97160942054421L146.29647360747202,70.10218130214996L146.30413732174463,70.11185102668415L146.64900446401325,70.54790664254588L146.91723446355547,70.88787702094756L147.02069460623605,71.01920371227433L147.0475176061903,71.0532619509027L147.15480960600718,71.1895867065984L147.67594217654636,71.85332965479384L148.0284730330876,72.30379805627457L148.4001631753104,72.77999118905831L148.43464988953727,72.8242393589205L148.48063217517307,72.88325731899945L148.55343746076312,72.97673132283003L148.6185790320805,73.06041320055002L148.82549931744168,73.32646322694818L148.87148160307748,73.38564438912898L148.9672780314854,73.50898437759683L149.10905674552916,73.6916789304787L149.5075698877062,74.2061429561446L149.58037517329623,74.30027996851392L149.60719817325045,74.33497061528692L149.7834636015211,74.56309655326932L149.98272017260962,74.82130267864765L149.99421574401856,74.83621527070355L150.12833074378966,75.01019891139954L150.62647217151098,75.65774405098705L150.8257287425995,75.91731699396831L150.82956059973583,75.9223048582059L150.9100295995985,76.0272234094282L151.12078174209594,76.30224955142774L151.45415331295558,76.73798896321713L151.4579851700919,76.74300742784881L151.603595741272,76.93359688240733L151.7377107410431,77.1092839450413L151.77219745526995,77.15448072712044L152.44277245412553,78.03504786774565L152.8067988820757,78.51440304125259L153.57700216647558,79.53158054125173L153.714949023383,79.71416799275424L153.9525241658347,80.02891344628982L154.24757716533114,80.42029758683769L154.55029387910025,80.82239696538473L154.6307628789629,80.9293759431428L154.66141773605347,80.97014076814376L154.71123187882557,81.03639572142635L154.71889559309824,81.04659075272585L154.74188673591613,81.07717584662436L155.1174087352753,81.57715058568603L155.1250724495479,81.58736091718258L155.45844402040757,82.03189794227445L155.4699395918165,82.0472389398477L156.2286473048074,83.06121869866385L156.25547030476162,83.09711806100364L156.50837287575857,83.4357981227876L156.52753216144018,83.46147185343378L156.92604530361723,83.99582103519613L156.9911868749346,84.08323616099578L157.2479213030679,84.42795470054794L157.32455844579422,84.53090972648245L157.73456715938022,85.08217582611395L157.9913015875135,85.4277256763724L158.04877944455828,85.50512427317143L158.11008915873938,85.58769433657261L158.1599033015115,85.65480100082418L158.29401830128262,85.83550652808982L158.3936465868269,85.96979635757819L159.28646929958887,87.17487557752112L159.51638072776794,87.48565317995562L159.63133644185748,87.64110828202675L159.7041417274475,87.73958545029194L160.04517701257976,88.20108529384413L160.19461944089616,88.40343039980102L160.20994686944144,88.42418766712917L160.2444335836683,88.47089406865037L160.36322115489415,88.6317960408705L160.58163701166424,88.92774775236572L161.14108815356664,89.68637742258578L161.58558358137947,90.28966929224543L161.71203486687796,90.46137830364698L162.1297072947366,91.02876061083549L162.68149472236635,91.77883237084016L162.81177786500112,91.95600355258777L163.8655385774885,93.38986151892045L164.03030843435016,93.61417770783797L164.29470657675606,93.97417094410949L165.50557343183246,95.62331288303582L165.71632557432994,95.91038538017763L165.7738034313747,95.98867648847113L166.1684847164154,96.52626421194192L166.4520421445029,96.9124666857563L166.513351858684,96.99596496111171L166.5555022871835,97.05337130043499L166.68578542981828,97.23079748546672L166.9923340007237,97.64822766145562L167.2260772860391,97.96647176004944L167.22990914317538,97.97168912724274L167.45215685708183,98.27423522366554L167.52879399980816,98.3785519671373L167.6935638566698,98.6028120553323L167.98861685616632,99.00430962612877L168.52890871238708,99.73922909099046L168.61704142652238,99.85906533433436L168.6208732836587,99.86427760146198L169.14200585419792,100.57261042392031L169.50986413928442,101.07230465936944L169.73594371032715,101.37927251273905L169.77809413882665,101.43649014963206L170.86634156554086,102.91226045574432L171.2916777076721,103.48818027288549L171.39896970748902,103.63337404280323L171.59439442144122,103.89773594746046L171.96608456366403,104.40020461864091L172.08487213488988,104.56068838547507L172.10403142057146,104.58656611874855L172.16917299188884,104.67454735183897L172.51020827702112,105.13490988074395L173.29190713282995,106.18846104919133L173.56780084664481,106.55971013042435L173.97014584595817,107.10052619547223L174.3035174168178,107.54808245944821L174.3494997024536,107.60977795401054L174.47211913081577,107.77423977207712L174.57941113063268,107.91808712465468L174.91278270149232,108.36467437615096L174.95110127285548,108.41597593685216L174.9740924156734,108.44674973318092L174.98941984421865,108.46726219735632L175.1082074154445,108.62621594448571L175.11587112971714,108.63646707650771L175.1695171296256,108.7082250006618L175.1925082724435,108.73897839672784L175.4722338433947,109.11287441205012L176.41870255606514,110.37482956448532L176.7559059840611,110.8232069390362L176.85553426960536,110.95554854343382L177.20040141187397,111.41320293746134L177.30386155455452,111.55035390379763L177.57209155409674,111.9056193791814L177.83265783936636,112.2502971182081L178.14687012454442,112.66534046345754L178.33079926708768,112.90799138850397L178.39210898126873,112.98882232950739L178.5990292666299,113.26143614043905L179.22362197984967,114.08251611494248L179.25427683694022,114.1227403329811L179.49951569366456,114.4443045743343L179.60297583634514,114.57982861971783L180.120276549748,115.2562452311345L180.14709954970223,115.29126738217687L180.21607297815595,115.38128354147464L180.61075426319667,115.89568126628669L180.7027188344683,116.01536450766011L180.74103740583146,116.06521254964177L180.79468340573993,116.13497634811398L181.0322585481916,116.4436629236186L181.39628497614177,116.91575050352786L181.82162111827304,117.46593538923466L181.89059454672676,117.55500803638117L181.92891311808995,117.60447357343662L182.0093821179526,117.7083160107999L182.42705454581125,118.24638314044486L182.69528454535347,118.59111188012841L183.0708065447126,119.07263458155046L183.66474440084187,119.83156005558011L183.79119568634033,119.99270683095301L183.85633725765774,120.07565939928038L184.00577968597415,120.26581024819019L184.99439882714407,121.51819512737202L185.74544282586234,122.46296954490822L185.9140445398603,122.67424741590818L186.04815953963143,122.84209312755516L186.16311525372097,122.98580787842496L186.25507982499258,123.10067665779403L186.37769925335473,123.253691378436L186.65359296716963,123.59737460465462L186.7570531098502,123.72603906169508L186.77238053839545,123.7450903570524L186.82985839544023,123.81651167687144L186.9294866809845,123.94021887006843L187.01378753798346,124.04480591702136L187.6690351082938,124.8549998013253L187.68436253683907,124.87389299464647L187.7341766796112,124.93527738520217L188.04072525051663,125.31239154197016L188.05605267906188,125.33121843443746L188.19399953596934,125.50053551503387L188.52737110682895,125.90879067285978L188.55419410678317,125.94157899513317L188.72279582078116,126.14749414706787L188.925884249006,126.39507173556368L189.07532667732238,126.57693242770644L189.30906996263778,126.86083268399368L189.68076010486058,127.31088798015412L189.82637067604065,127.48672804475858L190.00263610431128,127.69922993152235L190.00646796144758,127.70384549096511L190.23254753249032,127.97581669362074L190.55442353194098,128.3618993158916L190.64638810321264,128.47196383338763L190.8341491028922,128.69633612302766L190.88779510280065,128.76035724754124L191.45490995897566,129.43484348409706L191.56986567306518,129.57104328818355L191.7959452441079,129.8383836311994L191.99136995806015,130.06891680018398L192.78073252814158,130.99476997403778L192.8152192423684,131.03502224243763L193.01830767059326,131.271729040931L193.53560838399613,131.87202717203496L193.67355524090357,132.03146287537135L194.0682365259443,132.48610823064615L194.11421881158012,132.53892706088791L194.547218667984,133.0348089972393L194.80778495325362,133.33188017315183L194.94189995302474,133.48438998729128L195.5166785234724,134.1349441656315L195.55116523769922,134.17381941629708L195.65462538037983,134.29033296684878L195.76958109446934,134.4196017816726L195.89986423710414,134.5658589152852L196.07229780823843,134.75903410314476L196.10295266532898,134.79332949482736L196.2102446651459,134.91324478918935L196.64324452154978,135.39536419829625L196.70455423573085,135.46339142440354L196.94212937818256,135.72643751211464L197.00727094949994,135.79840708899457L197.33681066322328,136.16145271457714L197.3712973774501,136.19934365256594L198.09168651907783,136.98649289008307L198.29094309016637,137.20272292486084L199.39451794542586,138.38839384484865L199.47498694528852,138.4740494479878L200.0152788015093,139.04631761810023L200.18004865837096,139.21984480291763L200.3831370865958,139.43308364917254L200.40996008655003,139.461195211215L200.48659722927638,139.54143964466493L200.58622551482065,139.64560848623188L200.93109265708924,140.00484946281523L201.13034922817775,140.2114607737156L201.36026065635681,140.44898868278386L201.38708365631103,140.4766412389149L201.49820751326425,140.5910561124382L201.7012959414891,140.7995952481666L201.71662337003434,140.81530345046897L201.76643751280648,140.86632960762333L201.82008351271492,140.9212292646636L201.91204808398658,141.0152234751938L201.95803036962235,141.0621644797364L202.08064979798453,141.18715178941972L202.10747279793875,141.2144575410843L202.1611187978472,141.26902824388804L202.5941186542511,141.70758799199993L202.63626908275057,141.75009958949718L202.65926022556852,141.77327173792605L202.81636636815753,141.9313661239879L202.83169379670278,141.94676577231652L202.88533979661125,142.00063011602322L202.97347251074655,142.08900660420403L203.37964936719624,142.4944618259702L203.5444192240579,142.65806683300212L203.78199436650956,142.89307530962319L203.84330408069067,142.95355188848737L203.9582597947802,143.06675422139463L204.70164007922583,143.79278427177158L204.87407365036012,143.95969539638222L205.05800279290335,144.13710628121692L205.08865764999388,144.16661143620712L205.5024982207162,144.56316449332434L205.57913536344256,144.6362369594081L206.3225156478882,145.33910506148754L206.85131193270004,145.83247649050668L207.96255050223215,146.85110623420894L208.1694707875933,147.03803256659094L208.26526721600123,147.12427722731644L208.74808121517725,147.55610106367803L209.05846164321898,147.8311743812851L209.24622264289857,147.9966115869135L209.29220492853437,148.03701558226743L209.3650102141244,148.10089772999117L209.59108978516713,148.29856990076638L210.03558521298,148.68410299095993L210.33830192674907,148.94429176687237L210.7751336402893,149.31634283343396L210.96672649710518,149.4782456935443L211.10850521114895,149.5975502550408L211.32308921078274,149.7773020700238L211.38439892496382,149.8284786791158L211.49935463905334,149.92421711210943L211.77908021000454,150.15599469712055L212.21591192354472,150.5145688401159L212.55311535154073,150.78852779337134L212.8136816368103,150.99852554788498L212.92863735089983,151.09069775995007L213.1623806362152,151.2772211871431L213.17004435048784,151.28331576563383L213.19303549330576,151.30159440104023L213.89043349211556,151.8504660198338L214.50353063392637,152.32405429407012L214.64147749083384,152.42945097645017L215.08214106151036,152.7632668505894L215.09746849005563,152.77479937411414L215.45383120373316,153.04142060786876L215.66458334623064,153.19774272110593L215.8944947744097,153.36712100249053L216.25852120235987,153.632832512029L217.0402200581687,154.1931123402463L217.4578924860273,154.48667913352668L217.6264942000253,154.60403291989957L217.64182162857057,154.61466846937242L217.6724764856611,154.63592363061284L218.23959134183613,155.02517020613152L218.41968862724306,155.14720266525995L218.67259119824,155.31727710561026L218.68025491251262,155.32240713417872L219.32400691141402,155.74837737015312L219.5347590539115,155.88569217609947L219.64205105372838,155.9551907711562L219.76850233922684,156.03674783401115L219.8604669104985,156.09582125730444L219.89878548186167,156.12037552353328L220.37010390962874,156.41951286355547L220.43907733808246,156.46284110907015L220.72646662330627,156.64214220574846L220.87207719448634,156.73222657842473L221.02918333707538,156.82884796028966L221.41620090784343,157.06431353029754L221.48900619343348,157.1082027830373L221.85303262138365,157.32570974676034L221.88751933561053,157.34614762247512L222.013970621109,157.42083935941312L222.25920947783334,157.56458024811954L222.29752804919653,157.5869070606615L222.60024476296562,157.76201845338156L222.65772262001036,157.7950133283151L222.79950133405413,157.8760520969951L222.9259526195526,157.94791202246282L223.78428861808777,158.42523928235272L223.8149434751783,158.4419483725453L224.04102304622103,158.56445832532333L224.0946690461295,158.5933419098085L224.73075733075825,158.930338312409L224.95300504466465,159.04569606057535L224.97982804461887,159.05953477005096L224.99515547316415,159.0674347717933L225.01048290170942,159.07532839845354L225.40516418675014,159.27655945881287L225.55077475793018,159.34980947093322L225.67722604342867,159.41298749083867L225.71937647192817,159.43395704840088L226.16770375687736,159.65421709133017L226.3554647565569,159.74494980985637L226.41294261360167,159.77254626526488L226.49341161346436,159.81104060477477L226.55088947050913,159.83843560758882L226.78080089868817,159.94717570177792L227.00304861259463,160.051011445305L227.48969446890695,160.27397388553788L227.86521646826606,160.44188143548126L228.33653489603316,160.64750046485227L228.4744817529406,160.70660034473627L228.55878260993956,160.74247580051815L228.72738432393754,160.8136768612505L228.77719846670968,160.83457310536852L228.83467632375445,160.8586046148649L229.1718797517504,160.99786987718073L229.3864637513842,161.08496114880955L229.67002117947172,161.19821543863594L229.84245475060598,161.26606607496896L230.65097660636903,161.57389042061914L231.0571534628187,161.72209577932247L231.06864903422763,161.72622747003356L231.1682773197719,161.76189063558144L231.28706489099775,161.8040724819569L231.9729673183986,162.04040060057332L231.9921266040802,162.0468246114317L232.02278146117075,162.05708275604403L232.6435423172542,162.25948858465796L232.84663074547902,162.32350205907304L232.95775460243226,162.3580674354827L233.24514388765607,162.44594698601358L233.60150660133363,162.55188268158545L233.61300217274257,162.5552439436244L234.09198431478228,162.69218230097255L234.90816988481794,162.91148353155353L235.0346211703164,162.94387341119545L235.19555917004178,162.9844805326029L235.31817859840393,163.0149555766466L235.39864759826662,163.03473681890475L235.6400545978546,163.09304339950953L235.68603688349043,163.10397299964438L235.73968288339887,163.1166527191936L235.76650588335312,163.12296373172174L235.77416959762573,163.12476341739946L236.0730544542585,163.1937237961496L236.75895688165937,163.34293976474333L236.88540816715783,163.36907258098947L237.02335502406527,163.3970918637185L237.14597445242745,163.42156923051945L237.57131059455872,163.50334599464142L237.7130893086025,163.5295247114787L238.48329259300232,163.66229093618867L238.57525716427392,163.67707618597956L238.72086773545402,163.7000201463134L238.74385887827194,163.70359063057808L238.82815973527093,163.7165605358958L239.10022159194946,163.75711071985123L239.37228344862802,163.79566414840338L239.4297613056728,163.8035536711045L239.5600444483076,163.8211063440364L239.7784603050777,163.84950450586365L240.20379644720896,163.90110748841556L240.34940701838903,163.91764979052263L240.48735387529646,163.93279260273098L240.9088581602914,163.97587285755185L241.75186673028128,164.04760581927508L242.5373974432264,164.09711948820043L242.73282215717862,164.10683925712914L243.09301672799245,164.1220406503654L243.53751215580533,164.13594930644496L243.7482642983028,164.14067092135514L243.86322001239233,164.14273846009186L243.8785474409376,164.14298704844964L244.03948544066293,164.1452123704684L244.16210486902511,164.14643618701092L244.26556501170566,164.14715148118398L244.33070658302307,164.1474528631904L244.38818444006785,164.14762316753215L244.426503011431,164.14768690839213L244.4686534399305,164.14771101417134" fill="none"></path></g></g></g></g></g></g><g transform="translate(61, 177)" clip-path="url(#clip_1)"><clipPath id="clip_1"><rect width="268" height="22"></rect></clipPath><g><g><line x1="0" y1="0" x2="0" y2="5" style="visibility: inherit;" fill="rgb(0, 0, 0)" stroke="rgb(204, 204, 204)" stroke-width="1px"></line><line x1="19.159285681588308" y1="0" x2="19.159285681588308" y2="5" style="visibility: inherit;" fill="rgb(0, 0, 0)" stroke="rgb(204, 204, 204)" stroke-width="1px"></line><line x1="38.318571363176616" y1="0" x2="38.318571363176616" y2="5" style="visibility: inherit;" fill="rgb(0, 0, 0)" stroke="rgb(204, 204, 204)" stroke-width="1px"></line><line x1="57.477857044764924" y1="0" x2="57.477857044764924" y2="5" style="visibility: inherit;" fill="rgb(0, 0, 0)" stroke="rgb(204, 204, 204)" stroke-width="1px"></line><line x1="76.63714272635323" y1="0" x2="76.63714272635323" y2="5" style="visibility: inherit;" fill="rgb(0, 0, 0)" stroke="rgb(204, 204, 204)" stroke-width="1px"></line><line x1="95.79642840794155" y1="0" x2="95.79642840794155" y2="5" style="visibility: inherit;" fill="rgb(0, 0, 0)" stroke="rgb(204, 204, 204)" stroke-width="1px"></line><line x1="114.95571408952985" y1="0" x2="114.95571408952985" y2="5" style="visibility: inherit;" fill="rgb(0, 0, 0)" stroke="rgb(204, 204, 204)" stroke-width="1px"></line><line x1="134.11499977111816" y1="0" x2="134.11499977111816" y2="5" style="visibility: inherit;" fill="rgb(0, 0, 0)" stroke="rgb(204, 204, 204)" stroke-width="1px"></line><line x1="153.27428545270647" y1="0" x2="153.27428545270647" y2="5" style="visibility: inherit;" fill="rgb(0, 0, 0)" stroke="rgb(204, 204, 204)" stroke-width="1px"></line><line x1="172.4335711342948" y1="0" x2="172.4335711342948" y2="5" style="visibility: inherit;" fill="rgb(0, 0, 0)" stroke="rgb(204, 204, 204)" stroke-width="1px"></line><line x1="191.5928568158831" y1="0" x2="191.5928568158831" y2="5" style="visibility: inherit;" fill="rgb(0, 0, 0)" stroke="rgb(204, 204, 204)" stroke-width="1px"></line><line x1="210.7521424974714" y1="0" x2="210.7521424974714" y2="5" style="visibility: inherit;" fill="rgb(0, 0, 0)" stroke="rgb(204, 204, 204)" stroke-width="1px"></line><line x1="229.9114281790597" y1="0" x2="229.9114281790597" y2="5" style="visibility: inherit;" fill="rgb(0, 0, 0)" stroke="rgb(204, 204, 204)" stroke-width="1px"></line><line x1="249.07071386064803" y1="0" x2="249.07071386064803" y2="5" style="visibility: inherit;" fill="rgb(0, 0, 0)" stroke="rgb(204, 204, 204)" stroke-width="1px"></line><line x1="268.2299995422363" y1="0" x2="268.2299995422363" y2="5" style="visibility: inherit;" fill="rgb(0, 0, 0)" stroke="rgb(204, 204, 204)" stroke-width="1px"></line></g><g transform="translate(0, 8)"><text style="text-anchor: middle; visibility: hidden; font-family: &quot;Helvetica Neue&quot;, sans-serif; font-size: 12px; font-weight: 200;" x="0" y="0" dx="0em" dy="0.95em" fill="rgb(50, 49, 63)" stroke="none" stroke-width="1px">-5k</text><text style="text-anchor: middle; visibility: inherit; font-family: &quot;Helvetica Neue&quot;, sans-serif; font-size: 12px; font-weight: 200;" x="19.159285681588308" y="0" dx="0em" dy="0.95em" fill="rgb(50, 49, 63)" stroke="none" stroke-width="1px">0</text><text style="text-anchor: middle; visibility: hidden; font-family: &quot;Helvetica Neue&quot;, sans-serif; font-size: 12px; font-weight: 200;" x="38.318571363176616" y="0" dx="0em" dy="0.95em" fill="rgb(50, 49, 63)" stroke="none" stroke-width="1px">5k</text><text style="text-anchor: middle; visibility: inherit; font-family: &quot;Helvetica Neue&quot;, sans-serif; font-size: 12px; font-weight: 200;" x="57.477857044764924" y="0" dx="0em" dy="0.95em" fill="rgb(50, 49, 63)" stroke="none" stroke-width="1px">10k</text><text style="text-anchor: middle; visibility: hidden; font-family: &quot;Helvetica Neue&quot;, sans-serif; font-size: 12px; font-weight: 200;" x="76.63714272635323" y="0" dx="0em" dy="0.95em" fill="rgb(50, 49, 63)" stroke="none" stroke-width="1px">15k</text><text style="text-anchor: middle; visibility: inherit; font-family: &quot;Helvetica Neue&quot;, sans-serif; font-size: 12px; font-weight: 200;" x="95.79642840794155" y="0" dx="0em" dy="0.95em" fill="rgb(50, 49, 63)" stroke="none" stroke-width="1px">20k</text><text style="text-anchor: middle; visibility: hidden; font-family: &quot;Helvetica Neue&quot;, sans-serif; font-size: 12px; font-weight: 200;" x="114.95571408952985" y="0" dx="0em" dy="0.95em" fill="rgb(50, 49, 63)" stroke="none" stroke-width="1px">25k</text><text style="text-anchor: middle; visibility: inherit; font-family: &quot;Helvetica Neue&quot;, sans-serif; font-size: 12px; font-weight: 200;" x="134.11499977111816" y="0" dx="0em" dy="0.95em" fill="rgb(50, 49, 63)" stroke="none" stroke-width="1px">30k</text><text style="text-anchor: middle; visibility: hidden; font-family: &quot;Helvetica Neue&quot;, sans-serif; font-size: 12px; font-weight: 200;" x="153.27428545270647" y="0" dx="0em" dy="0.95em" fill="rgb(50, 49, 63)" stroke="none" stroke-width="1px">35k</text><text style="text-anchor: middle; visibility: inherit; font-family: &quot;Helvetica Neue&quot;, sans-serif; font-size: 12px; font-weight: 200;" x="172.4335711342948" y="0" dx="0em" dy="0.95em" fill="rgb(50, 49, 63)" stroke="none" stroke-width="1px">40k</text><text style="text-anchor: middle; visibility: hidden; font-family: &quot;Helvetica Neue&quot;, sans-serif; font-size: 12px; font-weight: 200;" x="191.5928568158831" y="0" dx="0em" dy="0.95em" fill="rgb(50, 49, 63)" stroke="none" stroke-width="1px">45k</text><text style="text-anchor: middle; visibility: inherit; font-family: &quot;Helvetica Neue&quot;, sans-serif; font-size: 12px; font-weight: 200;" x="210.7521424974714" y="0" dx="0em" dy="0.95em" fill="rgb(50, 49, 63)" stroke="none" stroke-width="1px">50k</text><text style="text-anchor: middle; visibility: hidden; font-family: &quot;Helvetica Neue&quot;, sans-serif; font-size: 12px; font-weight: 200;" x="229.9114281790597" y="0" dx="0em" dy="0.95em" fill="rgb(50, 49, 63)" stroke="none" stroke-width="1px">55k</text><text style="text-anchor: middle; visibility: inherit; font-family: &quot;Helvetica Neue&quot;, sans-serif; font-size: 12px; font-weight: 200;" x="249.07071386064803" y="0" dx="0em" dy="0.95em" fill="rgb(50, 49, 63)" stroke="none" stroke-width="1px">60k</text><text style="text-anchor: middle; visibility: hidden; font-family: &quot;Helvetica Neue&quot;, sans-serif; font-size: 12px; font-weight: 200;" x="268.2299995422363" y="0" dx="0em" dy="0.95em" fill="rgb(50, 49, 63)" stroke="none" stroke-width="1px">65k</text></g><line x1="0" y1="0" x2="268.2299995422363" y2="0" fill="rgb(0, 0, 0)" stroke="rgb(204, 204, 204)" stroke-width="1px"></line></g></g></g></g></svg>