<svg viewBox="0 0 330 200" xmlns="http://www.w3.org/2000/svg"><g><g><g><g><g><line x1="51.41600036621094" y1="177.9749994277954" x2="46.41600036621094" y2="177.9749994277954" style="visibility: inherit;" fill="rgb(0, 0, 0)" stroke="rgb(204, 204, 204)" stroke-width="1px"></line><line x1="51.41600036621094" y1="164.28461485642654" x2="46.41600036621094" y2="164.28461485642654" style="visibility: inherit;" fill="rgb(0, 0, 0)" stroke="rgb(204, 204, 204)" stroke-width="1px"></line><line x1="51.41600036621094" y1="150.59423028505765" x2="46.41600036621094" y2="150.59423028505765" style="visibility: inherit;" fill="rgb(0, 0, 0)" stroke="rgb(204, 204, 204)" stroke-width="1px"></line><line x1="51.41600036621094" y1="136.90384571368878" x2="46.41600036621094" y2="136.90384571368878" style="visibility: inherit;" fill="rgb(0, 0, 0)" stroke="rgb(204, 204, 204)" stroke-width="1px"></line><line x1="51.41600036621094" y1="123.21346114231989" x2="46.41600036621094" y2="123.21346114231989" style="visibility: inherit;" fill="rgb(0, 0, 0)" stroke="rgb(204, 204, 204)" stroke-width="1px"></line><line x1="51.41600036621094" y1="109.52307657095103" x2="46.41600036621094" y2="109.52307657095103" style="visibility: inherit;" fill="rgb(0, 0, 0)" stroke="rgb(204, 204, 204)" stroke-width="1px"></line><line x1="51.41600036621094" y1="95.83269199958215" x2="46.41600036621094" y2="95.83269199958215" style="visibility: inherit;" fill="rgb(0, 0, 0)" stroke="rgb(204, 204, 204)" stroke-width="1px"></line><line x1="51.41600036621094" y1="82.14230742821327" x2="46.41600036621094" y2="82.14230742821327" style="visibility: inherit;" fill="rgb(0, 0, 0)" stroke="rgb(204, 204, 204)" stroke-width="1px"></line><line x1="51.41600036621094" y1="68.4519228568444" x2="46.41600036621094" y2="68.4519228568444" style="visibility: inherit;" fill="rgb(0, 0, 0)" stroke="rgb(204, 204, 204)" stroke-width="1px"></line><line x1="51.41600036621094" y1="54.76153828547551" x2="46.41600036621094" y2="54.76153828547551" style="visibility: inherit;" fill="rgb(0, 0, 0)" stroke="rgb(204, 204, 204)" stroke-width="1px"></line><line x1="51.41600036621094" y1="41.07115371410666" x2="46.41600036621094" y2="41.07115371410666" style="visibility: inherit;" fill="rgb(0, 0, 0)" stroke="rgb(204, 204, 204)" stroke-width="1px"></line><line x1="51.41600036621094" y1="27.380769142737762" x2="46.41600036621094" y2="27.380769142737762" style="visibility: inherit;" fill="rgb(0, 0, 0)" stroke="rgb(204, 204, 204)" stroke-width="1px"></line><line x1="51.41600036621094" y1="13.690384571368867" x2="46.41600036621094" y2="13.690384571368867" style="visibility: inherit;" fill="rgb(0, 0, 0)" stroke="rgb(204, 204, 204)" stroke-width="1px"></line><line x1="51.41600036621094" y1="0" x2="46.41600036621094" y2="0" style="visibility: inherit;" fill="rgb(0, 0, 0)" stroke="rgb(204, 204, 204)" stroke-width="1px"></line></g><g transform="translate(41.41600036621094, 0)"><text style="text-anchor: end; visibility: hidden; font-family: &quot;Helvetica Neue&quot;, sans-serif; font-size: 12px; font-weight: 200;" x="0" y="177.9749994277954" dx="0em" dy="0.3em" fill="rgb(50, 49, 63)" stroke="none" stroke-width="1px">-0.1</text><text style="text-anchor: end; visibility: inherit; font-family: &quot;Helvetica Neue&quot;, sans-serif; font-size: 12px; font-weight: 200;" x="0" y="164.28461485642654" dx="0em" dy="0.3em" fill="rgb(50, 49, 63)" stroke="none" stroke-width="1px">0</text><text style="text-anchor: end; visibility: hidden; font-family: &quot;Helvetica Neue&quot;, sans-serif; font-size: 12px; font-weight: 200;" x="0" y="150.59423028505765" dx="0em" dy="0.3em" fill="rgb(50, 49, 63)" stroke="none" stroke-width="1px">0.1</text><text style="text-anchor: end; visibility: inherit; font-family: &quot;Helvetica Neue&quot;, sans-serif; font-size: 12px; font-weight: 200;" x="0" y="136.90384571368878" dx="0em" dy="0.3em" fill="rgb(50, 49, 63)" stroke="none" stroke-width="1px">0.2</text><text style="text-anchor: end; visibility: hidden; font-family: &quot;Helvetica Neue&quot;, sans-serif; font-size: 12px; font-weight: 200;" x="0" y="123.21346114231989" dx="0em" dy="0.3em" fill="rgb(50, 49, 63)" stroke="none" stroke-width="1px">0.3</text><text style="text-anchor: end; visibility: inherit; font-family: &quot;Helvetica Neue&quot;, sans-serif; font-size: 12px; font-weight: 200;" x="0" y="109.52307657095103" dx="0em" dy="0.3em" fill="rgb(50, 49, 63)" stroke="none" stroke-width="1px">0.4</text><text style="text-anchor: end; visibility: hidden; font-family: &quot;Helvetica Neue&quot;, sans-serif; font-size: 12px; font-weight: 200;" x="0" y="95.83269199958215" dx="0em" dy="0.3em" fill="rgb(50, 49, 63)" stroke="none" stroke-width="1px">0.5</text><text style="text-anchor: end; visibility: inherit; font-family: &quot;Helvetica Neue&quot;, sans-serif; font-size: 12px; font-weight: 200;" x="0" y="82.14230742821327" dx="0em" dy="0.3em" fill="rgb(50, 49, 63)" stroke="none" stroke-width="1px">0.6</text><text style="text-anchor: end; visibility: hidden; font-family: &quot;Helvetica Neue&quot;, sans-serif; font-size: 12px; font-weight: 200;" x="0" y="68.4519228568444" dx="0em" dy="0.3em" fill="rgb(50, 49, 63)" stroke="none" stroke-width="1px">0.7</text><text style="text-anchor: end; visibility: inherit; font-family: &quot;Helvetica Neue&quot;, sans-serif; font-size: 12px; font-weight: 200;" x="0" y="54.76153828547551" dx="0em" dy="0.3em" fill="rgb(50, 49, 63)" stroke="none" stroke-width="1px">0.8</text><text style="text-anchor: end; visibility: hidden; font-family: &quot;Helvetica Neue&quot;, sans-serif; font-size: 12px; font-weight: 200;" x="0" y="41.07115371410666" dx="0em" dy="0.3em" fill="rgb(50, 49, 63)" stroke="none" stroke-width="1px">0.9</text><text style="text-anchor: end; visibility: inherit; font-family: &quot;Helvetica Neue&quot;, sans-serif; font-size: 12px; font-weight: 200;" x="0" y="27.380769142737762" dx="0em" dy="0.3em" fill="rgb(50, 49, 63)" stroke="none" stroke-width="1px">1</text><text style="text-anchor: end; visibility: hidden; font-family: &quot;Helvetica Neue&quot;, sans-serif; font-size: 12px; font-weight: 200;" x="0" y="13.690384571368867" dx="0em" dy="0.3em" fill="rgb(50, 49, 63)" stroke="none" stroke-width="1px">1.1</text><text style="text-anchor: end; visibility: hidden; font-family: &quot;Helvetica Neue&quot;, sans-serif; font-size: 12px; font-weight: 200;" x="0" y="0" dx="0em" dy="0.3em" fill="rgb(50, 49, 63)" stroke="none" stroke-width="1px">1.2</text></g><line x1="51.41600036621094" y1="0" x2="51.41600036621094" y2="177.9749994277954" fill="rgb(0, 0, 0)" stroke="rgb(204, 204, 204)" stroke-width="1px"></line></g></g><g transform="translate(51, 0)" clip-path="url(#clip_0)"><clipPath id="clip_0"><rect width="278" height="177"></rect></clipPath><g><g><g><line x1="0" y1="0" x2="0" y2="177.9749994277954" fill="rgb(0, 0, 0)" stroke="rgb(60, 60, 60)" stroke-width="1px" opacity="0.25"></line><line x1="34.82299995422363" y1="0" x2="34.82299995422363" y2="177.9749994277954" fill="rgb(0, 0, 0)" stroke="rgb(60, 60, 60)" stroke-width="1px" opacity="0.25"></line><line x1="69.64599990844727" y1="0" x2="69.64599990844727" y2="177.9749994277954" fill="rgb(0, 0, 0)" stroke="rgb(60, 60, 60)" stroke-width="1px" opacity="0.25"></line><line x1="104.4689998626709" y1="0" x2="104.4689998626709" y2="177.9749994277954" fill="rgb(0, 0, 0)" stroke="rgb(60, 60, 60)" stroke-width="1px" opacity="0.25"></line><line x1="139.29199981689453" y1="0" x2="139.29199981689453" y2="177.9749994277954" fill="rgb(0, 0, 0)" stroke="rgb(60, 60, 60)" stroke-width="1px" opacity="0.25"></line><line x1="174.11499977111816" y1="0" x2="174.11499977111816" y2="177.9749994277954" fill="rgb(0, 0, 0)" stroke="rgb(60, 60, 60)" stroke-width="1px" opacity="0.25"></line><line x1="208.9379997253418" y1="0" x2="208.9379997253418" y2="177.9749994277954" fill="rgb(0, 0, 0)" stroke="rgb(60, 60, 60)" stroke-width="1px" opacity="0.25"></line><line x1="243.76099967956543" y1="0" x2="243.76099967956543" y2="177.9749994277954" fill="rgb(0, 0, 0)" stroke="rgb(60, 60, 60)" stroke-width="1px" opacity="0.25"></line><line x1="278.58399963378906" y1="0" x2="278.58399963378906" y2="177.9749994277954" fill="rgb(0, 0, 0)" stroke="rgb(60, 60, 60)" stroke-width="1px" opacity="0.25"></line></g><g><line x1="0" y1="177.9749994277954" x2="278.58399963378906" y2="177.9749994277954" fill="rgb(0, 0, 0)" stroke="rgb(60, 60, 60)" stroke-width="1px" opacity="0.25"></line><line x1="0" y1="164.28461485642654" x2="278.58399963378906" y2="164.28461485642654" fill="rgb(0, 0, 0)" stroke="rgb(60, 60, 60)" stroke-width="1px" opacity="0.25"></line><line x1="0" y1="150.59423028505765" x2="278.58399963378906" y2="150.59423028505765" fill="rgb(0, 0, 0)" stroke="rgb(60, 60, 60)" stroke-width="1px" opacity="0.25"></line><line x1="0" y1="136.90384571368878" x2="278.58399963378906" y2="136.90384571368878" fill="rgb(0, 0, 0)" stroke="rgb(60, 60, 60)" stroke-width="1px" opacity="0.25"></line><line x1="0" y1="123.21346114231989" x2="278.58399963378906" y2="123.21346114231989" fill="rgb(0, 0, 0)" stroke="rgb(60, 60, 60)" stroke-width="1px" opacity="0.25"></line><line x1="0" y1="109.52307657095103" x2="278.58399963378906" y2="109.52307657095103" fill="rgb(0, 0, 0)" stroke="rgb(60, 60, 60)" stroke-width="1px" opacity="0.25"></line><line x1="0" y1="95.83269199958215" x2="278.58399963378906" y2="95.83269199958215" fill="rgb(0, 0, 0)" stroke="rgb(60, 60, 60)" stroke-width="1px" opacity="0.25"></line><line x1="0" y1="82.14230742821327" x2="278.58399963378906" y2="82.14230742821327" fill="rgb(0, 0, 0)" stroke="rgb(60, 60, 60)" stroke-width="1px" opacity="0.25"></line><line x1="0" y1="68.4519228568444" x2="278.58399963378906" y2="68.4519228568444" fill="rgb(0, 0, 0)" stroke="rgb(60, 60, 60)" stroke-width="1px" opacity="0.25"></line><line x1="0" y1="54.76153828547551" x2="278.58399963378906" y2="54.76153828547551" fill="rgb(0, 0, 0)" stroke="rgb(60, 60, 60)" stroke-width="1px" opacity="0.25"></line><line x1="0" y1="41.07115371410666" x2="278.58399963378906" y2="41.07115371410666" fill="rgb(0, 0, 0)" stroke="rgb(60, 60, 60)" stroke-width="1px" opacity="0.25"></line><line x1="0" y1="27.380769142737762" x2="278.58399963378906" y2="27.380769142737762" fill="rgb(0, 0, 0)" stroke="rgb(60, 60, 60)" stroke-width="1px" opacity="0.25"></line><line x1="0" y1="13.690384571368867" x2="278.58399963378906" y2="13.690384571368867" fill="rgb(0, 0, 0)" stroke="rgb(60, 60, 60)" stroke-width="1px" opacity="0.25"></line><line x1="0" y1="0" x2="278.58399963378906" y2="0" fill="rgb(0, 0, 0)" stroke="rgb(60, 60, 60)" stroke-width="1px" opacity="0.25"></line></g></g></g><g><g><line x1="0" y1="164.28461485642654" x2="278.58399963378906" y2="164.28461485642654" fill="rgb(0, 0, 0)" stroke="rgb(153, 153, 153)" stroke-width="1.5px"></line></g></g><g><g><line x1="34.82299995422363" y1="0" x2="34.82299995422363" y2="177.9749994277954" fill="rgb(0, 0, 0)" stroke="rgb(153, 153, 153)" stroke-width="1.5px"></line></g></g><g><g><g><g><g><path style="fill: none;" stroke="rgb(51, 187, 238)" stroke-width="2px" d="M34.82299995422363,162.7731963662094L35.51945995330811,140.88774733345738L36.21591995239258,132.5886368910896L36.91237995147705,126.6059375212565L37.608839950561524,122.05525499404467L38.305299949646,118.70110907675743L39.001759948730474,115.73029633633155L39.69821994781494,112.71019656114909L40.39467994689941,110.13640557387664L41.09113994598388,107.34083109030466L41.78759994506836,108.21153878395228L42.48405994415283,105.31465251560873L43.18051994323731,100.60242030783508L43.876979942321775,101.46491485570743L44.57343994140625,101.27872573781985L45.269899940490724,100.57230135993996L45.9663599395752,96.10650024589667L46.66281993865967,93.36842186280398L47.35927993774414,92.57712015180807L48.05573993682861,91.9446222460105L48.75219993591308,91.07665634767386L49.44865993499756,88.47274233245373L50.14511993408203,87.7006005482142L50.8415799331665,89.58165981395136L51.538039932250975,86.90929883721829L52.23449993133545,82.82956453524223L52.930959930419924,86.02489848722605L53.6274199295044,83.26492246211858L54.323879928588866,82.53111685160196L55.02033992767334,84.17669996469499L55.716799926757815,81.60564669268095L56.41325992584229,77.35067413385097L57.10971992492676,80.34612631160262L57.806179924011225,81.03612031787948L58.5026399230957,82.01087751155708L59.199099922180174,74.69473944866841L59.89555992126465,79.2919712953784L60.592019920349124,79.36041825689135L61.28847991943359,78.59101826796277L61.984939918518066,74.83164153179939L62.68139991760254,76.49639273175387L63.377859916687015,72.56998680445929L64.07431991577148,79.22078253855447L64.77077991485596,75.08354397599405L65.46723991394043,71.74035707984558L66.1636999130249,73.60772368923811L66.86015991210937,72.56725316925342L67.55661991119385,73.53926856762007L68.25307991027832,71.22011773980068L68.9495399093628,72.61106477349317L69.64599990844727,74.79057172287061L70.34245990753173,74.35795559130523L71.03891990661621,65.83705961261164L71.73537990570068,70.16596272357647L72.43183990478516,73.08475071398736L73.12829990386963,74.23473800441377L73.8247599029541,71.02571139608533L74.52121990203858,67.53740519097805L75.21767990112305,68.21644833622125L75.91413990020753,79.57672632267403L76.610599899292,71.98130050290146L77.30705989837647,70.78202617771845L78.00351989746095,66.38467610524069L78.6999798965454,68.13704235356956L79.39643989562988,65.98217892157042L80.09289989471435,67.37038415995194L80.78935989379882,68.96668023828838L81.4858198928833,71.51308999292412L82.18227989196777,70.18238901512696L82.87873989105225,65.9027729389187L83.57519989013672,72.11273531562071L84.27165988922118,64.72265854049206L84.96811988830567,59.605195513842304L85.66457988739013,72.79177846086391L86.36103988647461,67.2690764552329L87.05749988555908,75.21497062860821L87.75395988464355,63.13183789267248L88.45041988372803,66.94871888942022L89.1468798828125,69.50060407457279L89.84333988189698,70.61226335138139L90.53979988098145,68.83525358567422L91.23625988006592,58.20329761911614L91.9327198791504,64.80753995366062L92.62917987823486,65.47015680735332L93.32563987731935,69.78536726197353L94.02209987640381,63.71231512850761L94.71855987548828,65.82063332106114L95.41501987457276,68.03025921833368L96.11147987365722,67.44430655198173L96.8079398727417,64.68980595739109L97.50439987182617,69.28156237358424L98.20085987091063,67.09931362889584L98.89731986999512,62.86624279213321L99.59377986907958,67.80847572203417L100.29023986816406,62.39803228215587L100.98669986724853,71.4254749445497L101.683159866333,63.468621750035666L102.37961986541748,65.95753540419211L103.07607986450195,72.29618263819732L103.77253986358643,69.15561115148691L104.4689998626709,59.9337621453777L105.16545986175537,67.12395714627412L105.86191986083985,65.61253432100114L106.55837985992432,73.30926784549274L107.2548398590088,63.216719305841025L107.95129985809326,68.95025394673787L108.64775985717773,62.406249507983645L109.34421985626221,64.1367140342452L110.04067985534668,74.12522123397203L110.73713985443116,59.186272038621524L111.43359985351563,61.90792005011119L112.1300598526001,59.98304918013426L112.82651985168458,69.97977360568889L113.52297985076903,62.41720036901732L114.21943984985352,57.6310457692139L114.91589984893798,59.45734256967765L115.61235984802245,68.47656800624371L116.30881984710693,67.17871961154754L117.0052798461914,64.09016879479958L117.70173984527588,62.4829136953244L118.39819984436035,62.14612983796121L119.09465984344482,55.22153809770914L119.7911198425293,56.672714867086796L120.48757984161377,56.52759555812801L121.18403984069825,58.52092154972297L121.88049983978271,59.33960041330303L122.57695983886718,60.64292423851602L123.27341983795166,62.11327725486022L123.96987983703613,58.56746678916858L124.66633983612061,62.4993399868749L125.36279983520508,65.67277221679139L126.05925983428955,62.1789905811673L126.75571983337403,66.7269353931207L127.4521798324585,57.09163834230755L128.14863983154297,56.631645058158L128.84509983062745,56.75485448494436L129.54155982971193,64.29278420423765L130.23801982879638,55.25439068081013L130.93447982788086,61.63410772374412L131.63093982696532,64.6405189226345L132.3273998260498,57.12175729020268L133.02385982513428,57.09163834230755L133.72031982421873,57.25045030761096L134.41677982330322,60.74424010334015L135.1132398223877,51.79620342359799L135.80969982147215,52.258938503058516L136.50615982055663,64.18052563848495L137.20261981964111,55.065467927716696L137.8990798187256,54.06059178614396L138.59553981781005,55.262607906637925L139.29199981689453,54.23308824768691L139.98845981597898,56.021057034532845L140.68491981506347,59.38888744805959L141.38137981414795,54.12630511245105L142.07783981323243,52.102868333066056L142.77429981231688,59.49293694808959L143.47075981140136,50.974774604601876L144.16721981048582,54.244039108720585L144.86367980957033,56.522120127611174L145.56013980865478,53.389757706623456L146.25659980773926,48.41741398893248L146.95305980682372,59.3094814654079L147.6495198059082,56.89449836338632L148.34597980499268,54.50690057405397L149.04243980407716,54.39463384819619L149.73889980316162,61.3958979358941L150.4353598022461,53.90452161615153L151.13181980133055,61.30280745700284L151.82827980041506,49.85216446675963L152.5247397994995,47.47277574314998L153.221199798584,47.910867305232216L153.91765979766845,52.039888641964836L154.61411979675293,50.643474337860624L155.3105797958374,56.568665367056795L156.0070397949219,55.12570582350695L156.70349979400635,51.716797440946294L157.3999597930908,51.429300618339695L158.09641979217528,52.87774375251146L158.79287979125976,48.62824662419834L159.48933979034425,48.60634490213101L160.1857997894287,54.75880301824863L160.88225978851318,50.12323499781573L161.57871978759763,54.64653629239085L162.27517978668214,50.46549428569574L162.9716397857666,46.94980276789923L163.66809978485108,50.928229365156255L164.36455978393553,45.350764894251824L165.06101978302001,51.14180379573307L165.7574797821045,44.786722110072304L166.45393978118898,45.43564630742037L167.15039978027343,49.52359783522422L167.8468597793579,44.23910561744324L168.54331977844237,56.960211689693395L169.23977977752688,47.4152796426707L169.93623977661133,44.77029581852182L170.6326997756958,42.63733410858998L171.32915977478027,44.184343152169845L172.02561977386475,53.797738480915655L172.72207977294923,44.91267333216962L173.4185397720337,46.109214022146745L174.11499977111816,43.707923576469796L174.81145977020262,45.40826915483623L175.5079197692871,43.20137689276953L176.20437976837158,41.39972360968406L176.90083976745606,40.87675063443331L177.59729976654052,46.67052317112041L178.293759765625,46.89778209793678L178.99021976470945,42.73590817810316L179.68667976379396,40.41401555497279L180.38313976287841,42.48673936911436L181.0795997619629,42.881019326956846L181.77605976104735,42.25126321647022L182.47251976013183,41.94459830700214L183.1689797592163,42.30602568174365L183.8654397583008,40.66591799916742L184.56189975738525,40.24699452394668L185.25835975646973,38.913551750838565L185.95481975555418,38.72188720243415L186.6512797546387,38.464501167617584L187.34773975372315,39.74318963555737L188.04419975280763,40.392113832905466L188.74065975189208,38.71914540712319L189.43711975097656,37.17761179406017L190.13357975006105,35.01178934092229L190.83003974914553,36.03309177404549L191.52649974822998,34.020605855694185L192.22295974731443,35.304761594045715L192.91941974639892,35.696307916682315L193.6158797454834,35.99749739563356L194.31233974456788,34.56822234832322L195.00879974365233,34.52167710887761L195.7052597427368,33.14168093621879L196.40171974182127,34.833817448862504L197.09817974090578,32.60775709993436L197.79463973999023,33.72215817205392L198.4910997390747,31.865742423695025L199.18755973815917,31.89859500679603L199.88401973724365,31.830148045283067L200.58047973632813,32.01633716317065L201.2769397354126,30.647291851545475L201.97339973449706,31.460503444713822L202.66985973358155,30.47206175479667L203.366319732666,30.151704188983985L204.0627797317505,30.351585963216166L204.75923973083496,29.442542095845653L205.45569972991944,29.40968135263958L206.1521597290039,29.11670909951613L206.84861972808838,29.385037835261272L207.54507972717286,28.842904933254147L208.24153972625734,28.643023159021965L208.9379997253418,28.128267409598976L209.63445972442625,28.10635752742658L210.33091972351073,27.72028663530682L211.0273797225952,27.8325533611646L211.7238397216797,27.63267158693239L212.42029972076415,27.556007399591664L213.11675971984863,27.514937590662868L213.81321971893308,27.523146656385563L214.5096797180176,27.503978569524094L215.20613971710205,27.493027708490445L215.90259971618653,27.476601416939957L216.59905971527098,27.468384191112165L217.29551971435546,27.432789812700207L217.99197971343995,27.44922426435579L218.68843971252443,27.44922426435579L219.38489971160888,27.44922426435579L220.08135971069336,27.441007038528L220.77781970977782,27.44922426435579L221.47427970886233,27.430056177494322L222.17073970794678,27.430056177494322L222.86719970703126,27.432789812700207L223.56365970611571,27.42731438218337L224.2601197052002,27.438265243217046L224.95657970428468,27.42458074697751L225.65303970336916,27.443748833838953L226.3494997024536,27.42731438218337L227.04595970153807,27.432789812700207L227.74241970062255,27.43553160801116L228.43887969970703,27.42458074697751L229.1353396987915,27.42183895166653L229.83179969787597,27.43553160801116L230.52825969696045,27.42183895166653L231.2247196960449,27.413629885943834L231.9211796951294,27.42183895166653L232.61763969421386,27.413629885943834L233.31409969329835,27.42458074697751L234.0105596923828,27.43553160801116L234.70701969146728,27.430056177494322L235.40347969055176,27.441007038528L236.09993968963624,27.432789812700207L236.7963996887207,27.430056177494322L237.49285968780518,27.432789812700207L238.18931968688963,27.42183895166653L238.88577968597414,27.419105316460673L239.5822396850586,27.4081462953219L240.27869968414308,27.430056177494322L240.97515968322753,27.413629885943834L241.671619682312,27.42458074697751L242.3680796813965,27.43553160801116L243.06453968048098,27.419105316460673" fill="none"></path></g><g><path style="fill: none;" stroke="rgb(0, 119, 187)" stroke-width="2px" d="M34.82299995422363,162.72391098897413L35.51945995330811,139.66930288138664L36.21591995239258,131.18126560587288L36.91237995147705,126.0747514002305L37.608839950561524,120.88609553670426L38.305299949646,119.47598449620284L39.001759948730474,115.58791882268375L39.69821994781494,113.06888622063215L40.39467994689941,112.69924570011543L41.09113994598388,108.18141983605715L41.78759994506836,111.22068361804853L42.48405994415283,109.11236542549501L43.18051994323731,105.9088142476834L43.876979942321775,107.78439808290372L44.57343994140625,107.3463065208215L45.269899940490724,108.50998646759254L45.9663599395752,105.25167690456006L46.66281993865967,102.7463369588531L47.35927993774414,103.80049605512987L48.05573993682861,102.86955046569201L48.75219993591308,103.17073994464323L49.44865993499756,103.38978572568435L50.14511993408203,102.86955046569201L50.8415799331665,105.06001235615565L51.538039932250975,103.52668780881534L52.23449993133545,101.78801013677854L52.930959930419924,103.18442852093533L53.6274199295044,102.25348293149747L54.323879928588866,101.76062890414184L55.02033992767334,103.75942624620107L55.716799926757815,101.88384241098075L56.41325992584229,102.22610169886076L57.10971992492676,103.84156586405865L57.806179924011225,103.22549832986411L58.5026399230957,104.3207313151222L59.199099922180174,102.6231234520142L59.89555992126465,103.85525852040328L60.592019920349124,105.14215197401323L61.28847991943359,104.71775306827564L61.984939918518066,103.11597747936983L62.68139991760254,104.08799287773647L63.377859916687015,102.8421692330553L64.07431991577148,106.40166827503903L64.77077991485596,105.23798424821543L65.46723991394043,104.85465515140662L66.1636999130249,104.71775306827564L66.86015991210937,103.92370956196878L67.55661991119385,106.45643074031243L68.25307991027832,105.55286638351129L68.9495399093628,104.96418008195346L69.64599990844727,107.46952002766041L70.34245990753173,106.96297334396014L71.03891990661621,104.21120638457538L71.73537990570068,105.74453093191569L72.43183990478516,108.50998646759254L73.12829990386963,107.8254678918325L73.8247599029541,106.83975983712124L74.52121990203858,104.5808469050921L75.21767990112305,106.63440671242476L75.91413990020753,110.16652452177176L76.610599899292,108.12665737078375L77.30705989837647,107.07249827450697L78.00351989746095,105.7719121645524L78.6999798965454,106.0867902197957L79.39643989562988,106.77130879555575L80.09289989471435,107.37368775345821L80.78935989379882,107.31892528818479L81.4858198928833,109.87902769916516L82.18227989196777,107.893918933398L82.87873989105225,106.41536093138365L83.57519989013672,107.30523263184017L84.27165988922118,107.03142846557819L84.96811988830567,102.92431293096541L85.66457988739013,108.16772717971253L86.36103988647461,105.53917372716667L87.05749988555908,111.13853992013841L87.75395988464355,106.96297334396014L88.45041988372803,106.45643074031243L89.1468798828125,108.70165509604949L89.84333988189698,109.78319542496295L90.53979988098145,108.23618230133057L91.23625988006592,104.47132605459782L91.9327198791504,107.00404723294149L92.62917987823486,106.67547652135354L93.32563987731935,108.6058228218473L94.02209987640381,106.16893391770583L94.71855987548828,107.893918933398L95.41501987457276,109.1534352344238L96.11147987365722,107.57904087815469L96.8079398727417,106.2510735355634L97.50439987182617,108.74272490497829L98.20085987091063,108.72903224863364L98.89731986999512,108.11296879449166L99.59377986907958,109.07129561656622L100.29023986816406,107.26416282291139L100.98669986724853,109.63260068548735L101.683159866333,108.46891665866376L102.37961986541748,108.26355945391472L103.07607986450195,109.81057665759967L103.77253986358643,110.74152224703752L104.4689998626709,107.83916054817713L105.16545986175537,108.37308438446156L105.86191986083985,108.8248686028884L106.55837985992432,111.80936991960635L107.2548398590088,106.99035457659686L107.95129985809326,110.07069224756957L108.64775985717773,106.52488178187794L109.34421985626221,107.78439808290372L110.04067985534668,111.17961380911974L110.73713985443116,106.48381197294914L111.43359985351563,107.93499282237933L112.1300598526001,105.74453093191569L112.82651985168458,111.54925432963647L113.52297985076903,108.18141983605715L114.21943984985352,105.42965287667238L114.91589984893798,106.88083372610258L115.61235984802245,109.31772263024403L116.30881984710693,109.83795381018382L117.0052798461914,111.12485134384633L117.70173984527588,108.49629789130047L118.39819984436035,109.07129561656622L119.09465984344482,105.60762476873215L119.7911198425293,105.580247616148L120.48757984161377,106.2236923029267L121.18403984069825,106.62071405608013L121.88049983978271,108.29094068655144L122.57695983886718,106.55226301451464L123.27341983795166,107.7980866591958L123.96987983703613,106.44273808396781L124.66633983612061,109.16712789076841L125.36279983520508,109.42724348073831L126.05925983428955,106.42904950767573L126.75571983337403,111.95996465908198L127.4521798324585,107.55165964551799L128.14863983154297,105.71714969927898L128.84509983062745,107.1546419724171L129.54155982971193,109.85164646652846L130.23801982879638,106.57964424715134L130.93447982788086,106.51119320558585L131.63093982696532,109.48200594601174L132.3273998260498,106.90821495873928L133.02385982513428,107.4421387950237L133.72031982421873,108.12665737078375L134.41677982330322,107.74332827397494L135.1132398223877,104.73144164456771L135.80969982147215,103.59513885038083L136.50615982055663,109.0849841928583L137.20261981964111,105.37489041139897L137.8990798187256,106.29214742454474L138.59553981781005,106.2236923029267L139.29199981689453,105.37489041139897L139.98845981597898,105.89512567139131L140.68491981506347,108.34570315182485L141.38137981414795,105.9361954803201L142.07783981323243,105.26536548085214L142.77429981231688,108.26355945391472L143.47075981140136,104.11537411037317L144.16721981048582,105.7719121645524L144.86367980957033,107.09987950714368L145.56013980865478,105.40227164403568L146.25659980773926,103.71835235721974L146.95305980682372,107.07249827450697L147.6495198059082,107.6748731523569L148.34597980499268,107.07249827450697L149.04243980407716,105.73083827557106L149.73889980316162,109.24926750862599L150.4353598022461,105.89512567139131L151.13181980133055,109.44093613708294L151.82827980041506,105.55286638351129L152.5247397994995,104.44394482196111L153.221199798584,105.14215197401323L153.91765979766845,105.99095794559351L154.61411979675293,106.27845476820012L155.3105797958374,107.85284912446922L156.0070397949219,108.35939580816948L156.70349979400635,105.8677444387546L157.3999597930908,104.33441989141429L158.09641979217528,106.3195245771289L158.79287979125976,105.580247616148L159.48933979034425,105.7719121645524L160.1857997894287,108.19510841234923L160.88225978851318,105.97726528924888L161.57871978759763,107.88023035710593L162.27517978668214,105.18322586299456L162.9716397857666,104.70406041193101L163.66809978485108,107.1272607397804L164.36455978393553,104.3891823566877L165.06101978302001,105.23798424821543L165.7574797821045,103.30764202777424L166.45393978118898,105.23798424821543L167.15039978027343,106.23738495927132L167.8468597793579,103.73204501356437L168.54331977844237,107.74332827397494L169.23977977752688,105.66238723400558L169.93623977661133,104.62192079407343L170.6326997756958,104.07430430144439L171.32915977478027,104.66299060300223L172.02561977386475,109.00284049494817L172.72207977294923,103.58145027408875L173.4185397720337,103.81418463142195L174.11499977111816,104.62192079407343L174.81145977020262,106.30583600083682L175.5079197692871,104.30703865877759L176.20437976837158,103.0338337814597L176.90083976745606,104.2522802735567L177.59729976654052,105.51179249452996L178.293759765625,105.89512567139131L178.99021976470945,103.85525852040328L179.68667976379396,102.92431293096541L180.38313976287841,104.78620410984114L181.0795997619629,104.5808469050921L181.77605976104735,105.44334145296446L182.47251976013183,103.66359397199886L183.1689797592163,103.54038046515996L183.8654397583008,102.6505046846509L184.56189975738525,103.62252008301753L185.25835975646973,103.62252008301753L185.95481975555418,103.26657221884544L186.6512797546387,103.96477937089756L187.34773975372315,105.44334145296446L188.04419975280763,103.93739813826086L188.74065975189208,103.88263975303998L189.43711975097656,102.08919961572977L190.13357975006105,102.15765065729526L190.83003974914553,102.63681202830627L191.52649974822998,102.14395800095063L192.22295974731443,102.58204956303287L192.91941974639892,103.11597747936983L193.6158797454834,102.11657676831393L194.31233974456788,102.93800150725751L195.00879974365233,102.4588401362465L195.7052597427368,101.34991857469632L196.40171974182127,102.99276397253092L197.09817974090578,101.52789046675609L197.79463973999023,102.15765065729526L198.4910997390747,101.06241767203717L199.18755973815917,100.66539591888373L199.88401973724365,100.99396663047168L200.58047973632813,101.07611032838179L201.2769397354126,99.8850450689215L201.97339973449706,101.07611032838179L202.66985973358155,99.77552421842722L203.366319732666,99.92611895790283L204.0627797317505,99.69338052051711L204.75923973083496,99.83028260364809L205.45569972991944,99.4058836979105L206.1521597290039,99.10469421895925L206.84861972808838,98.89933701421023L207.54507972717286,98.70767246580584L208.24153972625734,98.59815161531155L208.9379997253418,98.28326948001569L209.63445972442625,97.88624772686227L210.33091972351073,97.20172915110223L211.0273797225952,98.06422369897459L211.7238397216797,97.16065934217343L212.42029972076415,95.98328673905776L213.11675971984863,96.6130428495444L213.81321971893308,95.62733479483313L214.5096797180176,95.69578991645116L215.20613971710205,96.09280758955205L215.90259971618653,94.8606766012155L216.59905971527098,95.68209726010653L217.29551971435546,94.29936745224182L217.99197971343995,94.35412991751525L218.68843971252443,93.84758323381499L219.38489971160888,93.97080082070644L220.08135971069336,93.72437380702863L220.77781970977782,93.57377906755302L221.47427970886233,93.66961134175521L222.17073970794678,93.14938016181543L222.86719970703126,93.53270925862422L223.56365970611571,93.43687698442203L224.2601197052002,92.99878542233981L224.95657970428468,93.14938016181543L225.65303970336916,92.99878542233981L226.3494997024536,92.97140010965055L227.04595970153807,92.99878542233981L227.74241970062255,93.45056148066156L228.43887969970703,93.2862822449464L229.1353396987915,93.094617696542L229.83179969787597,92.79342821759077L230.52825969696045,93.02616257492396L231.2247196960449,92.86187517910372L231.9211796951294,92.6565261344598L232.61763969421386,92.93033030072176L233.31409969329835,93.06723238385274L234.0105596923828,93.01246991857934L234.70701969146728,93.19044997074421L235.40347969055176,92.93033030072176L236.09993968963624,92.56069386025757L236.7963996887207,92.75235840866199L237.49285968780518,92.76604290490152L238.18931968688963,92.83449802651957L238.88577968597414,92.68390328704395L239.5822396850586,92.72497309597273L240.27869968414308,92.58807101284175L240.97515968322753,92.90295314813761L241.671619682312,92.71128043962811L242.3680796813965,92.5743783564971L243.06453968048098,93.06723238385274" fill="none"></path></g></g></g></g></g></g><g transform="translate(51, 177)" clip-path="url(#clip_1)"><clipPath id="clip_1"><rect width="278" height="22"></rect></clipPath><g><g><line x1="0" y1="0" x2="0" y2="5" style="visibility: inherit;" fill="rgb(0, 0, 0)" stroke="rgb(204, 204, 204)" stroke-width="1px"></line><line x1="34.82299995422363" y1="0" x2="34.82299995422363" y2="5" style="visibility: inherit;" fill="rgb(0, 0, 0)" stroke="rgb(204, 204, 204)" stroke-width="1px"></line><line x1="69.64599990844727" y1="0" x2="69.64599990844727" y2="5" style="visibility: inherit;" fill="rgb(0, 0, 0)" stroke="rgb(204, 204, 204)" stroke-width="1px"></line><line x1="104.4689998626709" y1="0" x2="104.4689998626709" y2="5" style="visibility: inherit;" fill="rgb(0, 0, 0)" stroke="rgb(204, 204, 204)" stroke-width="1px"></line><line x1="139.29199981689453" y1="0" x2="139.29199981689453" y2="5" style="visibility: inherit;" fill="rgb(0, 0, 0)" stroke="rgb(204, 204, 204)" stroke-width="1px"></line><line x1="174.11499977111816" y1="0" x2="174.11499977111816" y2="5" style="visibility: inherit;" fill="rgb(0, 0, 0)" stroke="rgb(204, 204, 204)" stroke-width="1px"></line><line x1="208.9379997253418" y1="0" x2="208.9379997253418" y2="5" style="visibility: inherit;" fill="rgb(0, 0, 0)" stroke="rgb(204, 204, 204)" stroke-width="1px"></line><line x1="243.76099967956543" y1="0" x2="243.76099967956543" y2="5" style="visibility: inherit;" fill="rgb(0, 0, 0)" stroke="rgb(204, 204, 204)" stroke-width="1px"></line><line x1="278.58399963378906" y1="0" x2="278.58399963378906" y2="5" style="visibility: inherit;" fill="rgb(0, 0, 0)" stroke="rgb(204, 204, 204)" stroke-width="1px"></line></g><g transform="translate(0, 8)"><text style="text-anchor: middle; visibility: hidden; font-family: &quot;Helvetica Neue&quot;, sans-serif; font-size: 12px; font-weight: 200;" x="0" y="0" dx="0em" dy="0.95em" fill="rgb(50, 49, 63)" stroke="none" stroke-width="1px">-50</text><text style="text-anchor: middle; visibility: inherit; font-family: &quot;Helvetica Neue&quot;, sans-serif; font-size: 12px; font-weight: 200;" x="34.82299995422363" y="0" dx="0em" dy="0.95em" fill="rgb(50, 49, 63)" stroke="none" stroke-width="1px">0</text><text style="text-anchor: middle; visibility: inherit; font-family: &quot;Helvetica Neue&quot;, sans-serif; font-size: 12px; font-weight: 200;" x="69.64599990844727" y="0" dx="0em" dy="0.95em" fill="rgb(50, 49, 63)" stroke="none" stroke-width="1px">50</text><text style="text-anchor: middle; visibility: inherit; font-family: &quot;Helvetica Neue&quot;, sans-serif; font-size: 12px; font-weight: 200;" x="104.4689998626709" y="0" dx="0em" dy="0.95em" fill="rgb(50, 49, 63)" stroke="none" stroke-width="1px">100</text><text style="text-anchor: middle; visibility: inherit; font-family: &quot;Helvetica Neue&quot;, sans-serif; font-size: 12px; font-weight: 200;" x="139.29199981689453" y="0" dx="0em" dy="0.95em" fill="rgb(50, 49, 63)" stroke="none" stroke-width="1px">150</text><text style="text-anchor: middle; visibility: inherit; font-family: &quot;Helvetica Neue&quot;, sans-serif; font-size: 12px; font-weight: 200;" x="174.11499977111816" y="0" dx="0em" dy="0.95em" fill="rgb(50, 49, 63)" stroke="none" stroke-width="1px">200</text><text style="text-anchor: middle; visibility: inherit; font-family: &quot;Helvetica Neue&quot;, sans-serif; font-size: 12px; font-weight: 200;" x="208.9379997253418" y="0" dx="0em" dy="0.95em" fill="rgb(50, 49, 63)" stroke="none" stroke-width="1px">250</text><text style="text-anchor: middle; visibility: inherit; font-family: &quot;Helvetica Neue&quot;, sans-serif; font-size: 12px; font-weight: 200;" x="243.76099967956543" y="0" dx="0em" dy="0.95em" fill="rgb(50, 49, 63)" stroke="none" stroke-width="1px">300</text><text style="text-anchor: middle; visibility: hidden; font-family: &quot;Helvetica Neue&quot;, sans-serif; font-size: 12px; font-weight: 200;" x="278.58399963378906" y="0" dx="0em" dy="0.95em" fill="rgb(50, 49, 63)" stroke="none" stroke-width="1px">350</text></g><line x1="0" y1="0" x2="278.58399963378906" y2="0" fill="rgb(0, 0, 0)" stroke="rgb(204, 204, 204)" stroke-width="1px"></line></g></g></g></g></svg>