<svg viewBox="0 0 330 200" xmlns="http://www.w3.org/2000/svg"><g><g><g><g><g><line x1="51.41600036621094" y1="177.9749994277954" x2="46.41600036621094" y2="177.9749994277954" style="visibility: inherit;" fill="rgb(0, 0, 0)" stroke="rgb(204, 204, 204)" stroke-width="1px"></line><line x1="51.41600036621094" y1="158.1999994913737" x2="46.41600036621094" y2="158.1999994913737" style="visibility: inherit;" fill="rgb(0, 0, 0)" stroke="rgb(204, 204, 204)" stroke-width="1px"></line><line x1="51.41600036621094" y1="138.424999554952" x2="46.41600036621094" y2="138.424999554952" style="visibility: inherit;" fill="rgb(0, 0, 0)" stroke="rgb(204, 204, 204)" stroke-width="1px"></line><line x1="51.41600036621094" y1="118.64999961853027" x2="46.41600036621094" y2="118.64999961853027" style="visibility: inherit;" fill="rgb(0, 0, 0)" stroke="rgb(204, 204, 204)" stroke-width="1px"></line><line x1="51.41600036621094" y1="98.87499968210857" x2="46.41600036621094" y2="98.87499968210857" style="visibility: inherit;" fill="rgb(0, 0, 0)" stroke="rgb(204, 204, 204)" stroke-width="1px"></line><line x1="51.41600036621094" y1="79.09999974568684" x2="46.41600036621094" y2="79.09999974568684" style="visibility: inherit;" fill="rgb(0, 0, 0)" stroke="rgb(204, 204, 204)" stroke-width="1px"></line><line x1="51.41600036621094" y1="59.32499980926514" x2="46.41600036621094" y2="59.32499980926514" style="visibility: inherit;" fill="rgb(0, 0, 0)" stroke="rgb(204, 204, 204)" stroke-width="1px"></line><line x1="51.41600036621094" y1="39.549999872843415" x2="46.41600036621094" y2="39.549999872843415" style="visibility: inherit;" fill="rgb(0, 0, 0)" stroke="rgb(204, 204, 204)" stroke-width="1px"></line><line x1="51.41600036621094" y1="19.77499993642172" x2="46.41600036621094" y2="19.77499993642172" style="visibility: inherit;" fill="rgb(0, 0, 0)" stroke="rgb(204, 204, 204)" stroke-width="1px"></line><line x1="51.41600036621094" y1="0" x2="46.41600036621094" y2="0" style="visibility: inherit;" fill="rgb(0, 0, 0)" stroke="rgb(204, 204, 204)" stroke-width="1px"></line></g><g transform="translate(41.41600036621094, 0)"><text style="text-anchor: end; visibility: hidden; font-family: &quot;Helvetica Neue&quot;, sans-serif; font-size: 12px; font-weight: 200;" x="0" y="177.9749994277954" dx="0em" dy="0.3em" fill="rgb(50, 49, 63)" stroke="none" stroke-width="1px">-0.5</text><text style="text-anchor: end; visibility: inherit; font-family: &quot;Helvetica Neue&quot;, sans-serif; font-size: 12px; font-weight: 200;" x="0" y="158.1999994913737" dx="0em" dy="0.3em" fill="rgb(50, 49, 63)" stroke="none" stroke-width="1px">0</text><text style="text-anchor: end; visibility: hidden; font-family: &quot;Helvetica Neue&quot;, sans-serif; font-size: 12px; font-weight: 200;" x="0" y="138.424999554952" dx="0em" dy="0.3em" fill="rgb(50, 49, 63)" stroke="none" stroke-width="1px">0.5</text><text style="text-anchor: end; visibility: inherit; font-family: &quot;Helvetica Neue&quot;, sans-serif; font-size: 12px; font-weight: 200;" x="0" y="118.64999961853027" dx="0em" dy="0.3em" fill="rgb(50, 49, 63)" stroke="none" stroke-width="1px">1</text><text style="text-anchor: end; visibility: hidden; font-family: &quot;Helvetica Neue&quot;, sans-serif; font-size: 12px; font-weight: 200;" x="0" y="98.87499968210857" dx="0em" dy="0.3em" fill="rgb(50, 49, 63)" stroke="none" stroke-width="1px">1.5</text><text style="text-anchor: end; visibility: inherit; font-family: &quot;Helvetica Neue&quot;, sans-serif; font-size: 12px; font-weight: 200;" x="0" y="79.09999974568684" dx="0em" dy="0.3em" fill="rgb(50, 49, 63)" stroke="none" stroke-width="1px">2</text><text style="text-anchor: end; visibility: hidden; font-family: &quot;Helvetica Neue&quot;, sans-serif; font-size: 12px; font-weight: 200;" x="0" y="59.32499980926514" dx="0em" dy="0.3em" fill="rgb(50, 49, 63)" stroke="none" stroke-width="1px">2.5</text><text style="text-anchor: end; visibility: inherit; font-family: &quot;Helvetica Neue&quot;, sans-serif; font-size: 12px; font-weight: 200;" x="0" y="39.549999872843415" dx="0em" dy="0.3em" fill="rgb(50, 49, 63)" stroke="none" stroke-width="1px">3</text><text style="text-anchor: end; visibility: hidden; font-family: &quot;Helvetica Neue&quot;, sans-serif; font-size: 12px; font-weight: 200;" x="0" y="19.77499993642172" dx="0em" dy="0.3em" fill="rgb(50, 49, 63)" stroke="none" stroke-width="1px">3.5</text><text style="text-anchor: end; visibility: hidden; font-family: &quot;Helvetica Neue&quot;, sans-serif; font-size: 12px; font-weight: 200;" x="0" y="0" dx="0em" dy="0.3em" fill="rgb(50, 49, 63)" stroke="none" stroke-width="1px">4</text></g><line x1="51.41600036621094" y1="0" x2="51.41600036621094" y2="177.9749994277954" fill="rgb(0, 0, 0)" stroke="rgb(204, 204, 204)" stroke-width="1px"></line></g></g><g transform="translate(51, 0)" clip-path="url(#clip_0)"><clipPath id="clip_0"><rect width="278" height="177"></rect></clipPath><g><g><g><line x1="0" y1="0" x2="0" y2="177.9749994277954" fill="rgb(0, 0, 0)" stroke="rgb(60, 60, 60)" stroke-width="1px" opacity="0.25"></line><line x1="34.82299995422363" y1="0" x2="34.82299995422363" y2="177.9749994277954" fill="rgb(0, 0, 0)" stroke="rgb(60, 60, 60)" stroke-width="1px" opacity="0.25"></line><line x1="69.64599990844727" y1="0" x2="69.64599990844727" y2="177.9749994277954" fill="rgb(0, 0, 0)" stroke="rgb(60, 60, 60)" stroke-width="1px" opacity="0.25"></line><line x1="104.4689998626709" y1="0" x2="104.4689998626709" y2="177.9749994277954" fill="rgb(0, 0, 0)" stroke="rgb(60, 60, 60)" stroke-width="1px" opacity="0.25"></line><line x1="139.29199981689453" y1="0" x2="139.29199981689453" y2="177.9749994277954" fill="rgb(0, 0, 0)" stroke="rgb(60, 60, 60)" stroke-width="1px" opacity="0.25"></line><line x1="174.11499977111816" y1="0" x2="174.11499977111816" y2="177.9749994277954" fill="rgb(0, 0, 0)" stroke="rgb(60, 60, 60)" stroke-width="1px" opacity="0.25"></line><line x1="208.9379997253418" y1="0" x2="208.9379997253418" y2="177.9749994277954" fill="rgb(0, 0, 0)" stroke="rgb(60, 60, 60)" stroke-width="1px" opacity="0.25"></line><line x1="243.76099967956543" y1="0" x2="243.76099967956543" y2="177.9749994277954" fill="rgb(0, 0, 0)" stroke="rgb(60, 60, 60)" stroke-width="1px" opacity="0.25"></line><line x1="278.58399963378906" y1="0" x2="278.58399963378906" y2="177.9749994277954" fill="rgb(0, 0, 0)" stroke="rgb(60, 60, 60)" stroke-width="1px" opacity="0.25"></line></g><g><line x1="0" y1="177.9749994277954" x2="278.58399963378906" y2="177.9749994277954" fill="rgb(0, 0, 0)" stroke="rgb(60, 60, 60)" stroke-width="1px" opacity="0.25"></line><line x1="0" y1="158.1999994913737" x2="278.58399963378906" y2="158.1999994913737" fill="rgb(0, 0, 0)" stroke="rgb(60, 60, 60)" stroke-width="1px" opacity="0.25"></line><line x1="0" y1="138.424999554952" x2="278.58399963378906" y2="138.424999554952" fill="rgb(0, 0, 0)" stroke="rgb(60, 60, 60)" stroke-width="1px" opacity="0.25"></line><line x1="0" y1="118.64999961853027" x2="278.58399963378906" y2="118.64999961853027" fill="rgb(0, 0, 0)" stroke="rgb(60, 60, 60)" stroke-width="1px" opacity="0.25"></line><line x1="0" y1="98.87499968210857" x2="278.58399963378906" y2="98.87499968210857" fill="rgb(0, 0, 0)" stroke="rgb(60, 60, 60)" stroke-width="1px" opacity="0.25"></line><line x1="0" y1="79.09999974568684" x2="278.58399963378906" y2="79.09999974568684" fill="rgb(0, 0, 0)" stroke="rgb(60, 60, 60)" stroke-width="1px" opacity="0.25"></line><line x1="0" y1="59.32499980926514" x2="278.58399963378906" y2="59.32499980926514" fill="rgb(0, 0, 0)" stroke="rgb(60, 60, 60)" stroke-width="1px" opacity="0.25"></line><line x1="0" y1="39.549999872843415" x2="278.58399963378906" y2="39.549999872843415" fill="rgb(0, 0, 0)" stroke="rgb(60, 60, 60)" stroke-width="1px" opacity="0.25"></line><line x1="0" y1="19.77499993642172" x2="278.58399963378906" y2="19.77499993642172" fill="rgb(0, 0, 0)" stroke="rgb(60, 60, 60)" stroke-width="1px" opacity="0.25"></line><line x1="0" y1="0" x2="278.58399963378906" y2="0" fill="rgb(0, 0, 0)" stroke="rgb(60, 60, 60)" stroke-width="1px" opacity="0.25"></line></g></g></g><g><g><line x1="0" y1="158.1999994913737" x2="278.58399963378906" y2="158.1999994913737" fill="rgb(0, 0, 0)" stroke="rgb(153, 153, 153)" stroke-width="1.5px"></line></g></g><g><g><line x1="34.82299995422363" y1="0" x2="34.82299995422363" y2="177.9749994277954" fill="rgb(0, 0, 0)" stroke="rgb(153, 153, 153)" stroke-width="1.5px"></line></g></g><g><g><g><g><g><path style="fill: none;" stroke="rgb(238, 51, 119)" stroke-width="2px" d="M34.82299995422363,-25.5723418844118L35.51945995330811,21.42059066561282L36.21591995239258,36.55915597844083L36.91237995147705,44.80024485489534L37.608839950561524,50.73549257894274L38.305299949646,55.75851598932604L39.001759948730474,59.98887114311401L39.69821994781494,64.54148734322916L40.39467994689941,67.84293747785932L41.09113994598388,71.42309400721949L41.78759994506836,70.99147957388807L42.48405994415283,74.81276612070724L43.18051994323731,79.7474402545935L43.876979942321775,79.23136148013161L44.57343994140625,79.89985324681932L45.269899940490724,80.90358570432947L45.9663599395752,86.02756085751412L46.66281993865967,89.38912376632311L47.35927993774414,90.6622038847009L48.05573993682861,91.74559166140723L48.75219993591308,92.48652049966229L49.44865993499756,95.45291853256549L50.14511993408203,96.4900595483369L50.8415799331665,93.90305562823141L51.538039932250975,97.91216748467696L52.23449993133545,102.3187921512668L52.930959930419924,98.39564863398807L53.6274199295044,102.290560363676L54.323879928588866,102.97720383080203L55.02033992767334,100.6188783331276L55.716799926757815,103.84156423203763L56.41325992584229,108.45142665208057L57.10971992492676,105.3608379850876L57.806179924011225,105.07074080899163L58.5026399230957,103.06889113428876L59.199099922180174,111.58990280513899L59.89555992126465,107.09100620886647L60.592019920349124,106.5539893300808L61.28847991943359,107.0941603614881L61.984939918518066,111.77769511167367L62.68139991760254,109.7040589977828L63.377859916687015,114.22318177454372L64.07431991577148,106.47187292318881L64.77077991485596,111.61108607528688L65.46723991394043,114.47458989770544L66.1636999130249,112.761135382512L66.86015991210937,113.76408519527597L67.55661991119385,112.8395224400412L68.25307991027832,115.23896507525396L68.9495399093628,114.11602073577424L69.64599990844727,111.37994185043264L70.34245990753173,111.71362196649011L71.03891990661621,121.33123208018387L71.73537990570068,116.47491200073509L72.43183990478516,113.82455628873618L73.12829990386963,111.44627335003436L73.8247599029541,115.46022723150593L74.52121990203858,118.80964971729448L75.21767990112305,118.28016697287255L75.91413990020753,103.90129039857077L76.610599899292,113.90649353598747L77.30705989837647,115.53529040622759L78.00351989746095,120.67876095715572L78.6999798965454,118.38692254508678L79.39643989562988,120.80969836613569L80.09289989471435,118.98980416546291L80.78935989379882,116.89025590985541L81.4858198928833,114.85217826991409L82.18227989196777,115.85098383730528L82.87873989105225,121.18946258503323L83.57519989013672,113.45255015375324L84.27165988922118,121.94841346872349L84.96811988830567,127.69140875412852L85.66457988739013,112.77898534039757L86.36103988647461,119.34371989146356L87.05749988555908,108.7993452448455L87.75395988464355,123.06587693761628L88.45041988372803,118.9637128641056L89.1468798828125,115.56121197739898L89.84333988189698,114.51146378059585L90.53979988098145,116.98573385416094L91.23625988006592,128.24677063717536L91.9327198791504,121.35475149775178L92.62917987823486,120.36697132035411L93.32563987731935,115.03892390696895L94.02209987640381,122.62294244382971L94.71855987548828,119.63829134384937L95.41501987457276,117.54501367566604L96.11147987365722,118.32409880266064L96.8079398727417,121.21144264410944L97.50439987182617,116.29147610230561L98.20085987091063,118.89081846398176L98.89731986999512,123.64874689760009L99.59377986907958,117.19384663573177L100.29023986816406,123.83830015481367L100.98669986724853,113.53878723238108L101.683159866333,122.70630353875174L102.37961986541748,120.33949624650884L103.07607986450195,112.8538834996607L103.77253986358643,116.27461623717122L104.4689998626709,126.2282685453431L105.16545986175537,117.7394490330884L105.86191986083985,120.45440122501077L106.55837985992432,110.65177106448566L107.2548398590088,122.77425926193814L107.95129985809326,116.0415295446337L108.64775985717773,123.83324360969155L109.34421985626221,121.74916201727572L110.04067985534668,109.23688137577444L110.73713985443116,127.16438945476605L111.43359985351563,124.53103504972316L112.1300598526001,126.62516136883607L112.82651985168458,114.6209916125134L113.52297985076903,123.81683871574997L114.21943984985352,128.6851459895791L114.91589984893798,126.78703917629045L115.61235984802245,116.70232216149914L116.30881984710693,117.75982137012579L117.0052798461914,122.00725326650794L117.70173984527588,123.48137643274038L118.39819984436035,124.36117049407594L119.09465984344482,131.222004069201L119.7911198425293,129.8036301969511L120.48757984161377,130.15144270834983L121.18403984069825,127.70653595694834L121.88049983978271,127.14779597172901L122.57695983886718,125.68879293622531L123.27341983795166,123.5165907315907L123.96987983703613,127.53749647859377L124.66633983612061,123.66190098700864L125.36279983520508,119.62987555546434L126.05925983428955,123.67330119782939L126.75571983337403,118.69360141740131L127.4521798324585,129.1366471430271L128.14863983154297,129.5055415579349L128.84509983062745,129.8126282541684L129.54155982971193,120.7289893053686L130.23801982879638,131.3606453427306L130.93447982788086,124.19417485004342L131.63093982696532,120.34527885964849L132.3273998260498,129.1194737485215L133.02385982513428,129.58728314399963L133.72031982421873,129.05351471238333L134.41677982330322,125.21786239121727L135.1132398223877,134.93643367716712L135.80969982147215,134.37998976418507L136.50615982055663,120.71921331813255L137.20261981964111,131.54704444732258L137.8990798187256,132.1216919227442L138.59553981781005,131.01215626795192L139.29199981689453,132.1792846751349L139.98845981597898,130.261734326104L140.68491981506347,126.82437274510103L141.38137981414795,132.18374244987893L142.07783981323243,134.2279068028763L142.77429981231688,126.27166053884545L143.47075981140136,135.21144136826237L144.16721981048582,131.82931046122943L144.86367980957033,129.480784524428L145.56013980865478,133.06883115006957L146.25659980773926,137.88281062022324L146.95305980682372,126.10837774262988L147.6495198059082,128.8275260419263L148.34597980499268,131.81075093687218L149.04243980407716,131.67782627029877L149.73889980316162,123.6179479409473L150.4353598022461,131.81106682360706L151.13181980133055,123.92584557029127L151.82827980041506,136.7643004818506L152.5247397994995,138.8398224866961L153.221199798584,138.25620288505783L153.91765979766845,134.08517550333883L154.61411979675293,135.78049246227613L155.3105797958374,129.19723846203567L156.0070397949219,130.8556061024444L156.70349979400635,134.6469847760868L157.3999597930908,134.65704128960238L158.09641979217528,133.25929199230507L158.79287979125976,137.53412588425797L159.48933979034425,137.70638787878127L160.1857997894287,131.10580725539518L160.88225978851318,136.10195671967497L161.57871978759763,131.00480600795623L162.27517978668214,135.93868806764158L162.9716397857666,139.12752104523415L163.66809978485108,135.14634512723592L164.36455978393553,140.7293025275492L165.06101978302001,135.2580676647519L165.7574797821045,141.31423046603726L166.45393978118898,140.5749341021398L167.15039978027343,136.80224225049406L167.8468597793579,141.8783075226582L168.54331977844237,128.00754772694424L169.23977977752688,138.95142244130002L169.93623977661133,141.66083836458873L170.6326997756958,143.65679934478575L171.32915977478027,142.00054154488254L172.02561977386475,131.91244996396432L172.72207977294923,141.32695315788993L173.4185397720337,140.13531995511522L174.11499977111816,142.42244481847945L174.81145977020262,140.70612021298942L175.5079197692871,142.95448883855414L176.20437976837158,144.78038135114448L176.90083976745606,145.24007434342664L177.59729976654052,139.4423764335189L178.293759765625,139.0457311332137L178.99021976470945,143.4463303782035L179.68667976379396,145.519769652226L180.38313976287841,143.54227036579292L181.0795997619629,142.90653652498713L181.77605976104735,143.72535855307765L182.47251976013183,144.0376019823902L183.1689797592163,143.60158870840712L183.8654397583008,145.18867320677637L184.56189975738525,145.75854819940093L185.25835975646973,147.0193688478918L185.95481975555418,147.16313031536325L186.6512797546387,147.3700514495871L187.34773975372315,146.3006440182638L188.04419975280763,145.29170296567335L188.74065975189208,147.37928995790108L189.43711975097656,148.62190173988407L190.13357975006105,150.5577204788561L190.83003974914553,149.74560397179116L191.52649974822998,151.66511446873304L192.22295974731443,150.53654369145838L192.91941974639892,149.92624462622132L193.6158797454834,149.5971195261602L194.31233974456788,150.95304506615213L195.00879974365233,150.88939388906968L195.7052597427368,152.35667244981866L196.40171974182127,150.74207044505766L197.09817974090578,152.875122732156L197.79463973999023,151.85115112865714L198.4910997390747,153.5566999300347L199.18755973815917,153.43453987009622L199.88401973724365,153.39732770551583L200.58047973632813,153.37249317367753L201.2769397354126,154.64104361771865L201.97339973449706,153.89239559204992L202.66985973358155,154.79981677718897L203.366319732666,155.12669295228667L204.0627797317505,154.9250260870647L204.75923973083496,155.7027563192766L205.45569972991944,155.81194174411766L206.1521597290039,156.089177733244L206.84861972808838,155.7493303117592L207.54507972717286,156.37405865282764L208.24153972625734,156.54148849378538L208.9379997253418,157.12991615967897L209.63445972442625,157.15960966009484L210.33091972351073,157.55355165358475L211.0273797225952,157.45177468615555L211.7238397216797,157.7100225159043L212.42029972076415,157.85984848564578L213.11675971984863,157.87253194949324L213.81321971893308,157.89230756042886L214.5096797180176,157.93090220831394L215.20613971710205,157.92511812182198L215.90259971618653,157.9515534877771L216.59905971527098,157.982764835741L217.29551971435546,158.02469321947717L217.99197971343995,158.02644781632424L218.68843971252443,158.02791523838948L219.38489971160888,158.02752649438295L220.08135971069336,158.03274302714883L220.77781970977782,158.0336991959631L221.47427970886233,158.03348003480724L222.17073970794678,158.04203080068064L222.86719970703126,158.03763291770795L223.56365970611571,158.03673730367353L224.2601197052002,158.03091146606056L224.95657970428468,158.0338664951177L225.65303970336916,158.03249811916137L226.3494997024536,158.04688424418703L227.04595970153807,158.03846451458458L227.74241970062255,158.03867406211663L228.43887969970703,158.03979526480634L229.1353396987915,158.0321895439373L229.83179969787597,158.0297842778771L230.52825969696045,158.0370510724645L231.2247196960449,158.04009056144272L231.9211796951294,158.03902645115497L232.61763969421386,158.0401005434046L233.31409969329835,158.04315999630663L234.0105596923828,158.04052647114005L234.70701969146728,158.04704374378287L235.40347969055176,158.03955938110178L236.09993968963624,158.04288687362248L236.7963996887207,158.03252268731111L237.49285968780518,158.0368727968352L238.18931968688963,158.0411226631516L238.88577968597414,158.04157988120667L239.5822396850586,158.04406352960967L240.27869968414308,158.03806527294284L240.97515968322753,158.03992519606302L241.671619682312,158.03556132911177L242.3680796813965,158.0400321614406L243.06453968048098,158.03745480783078" fill="none"></path></g><g><path style="fill: none;" stroke="rgb(204, 51, 17)" stroke-width="2px" d="M34.82299995422363,-25.08996869603652L35.51945995330811,22.579979847790725L36.21591995239258,37.25900068224928L36.91237995147705,45.40211752361074L37.608839950561524,51.3331691402841L38.305299949646,54.40989650876054L39.001759948730474,58.189438859298974L39.69821994781494,61.44642911467372L40.39467994689941,63.076696979858454L41.09113994598388,67.44271369946773L41.78759994506836,61.868274632860135L42.48405994415283,66.5950434331806L43.18051994323731,70.61734709685379L43.876979942321775,67.38581636936654L44.57343994140625,68.14567955280609L45.269899940490724,67.12495050306734L45.9663599395752,70.47335932246779L46.66281993865967,73.18296029880639L47.35927993774414,72.26719051014759L48.05573993682861,71.8741236879288L48.75219993591308,71.26754572128159L49.44865993499756,71.89435929787199L50.14511993408203,73.45465117918516L50.8415799331665,68.16290716667663L51.538039932250975,71.08749971184307L52.23449993133545,72.4426349456568L52.930959930419924,69.90356565889063L53.6274199295044,72.01467914077739L54.323879928588866,70.62393828574022L55.02033992767334,67.9112915955099L55.716799926757815,69.75825776083639L56.41325992584229,70.81123554589931L57.10971992492676,66.74702738521425L57.806179924011225,67.3124363523219L58.5026399230957,64.53538648599094L59.199099922180174,67.48860685584866L59.89555992126465,64.44754168532427L60.592019920349124,62.051545515831094L61.28847991943359,60.91644660914881L61.984939918518066,63.40559636234593L62.68139991760254,60.821171398120896L63.377859916687015,64.40776824509112L64.07431991577148,57.398203879829154L64.77077991485596,61.13807651413694L65.46723991394043,61.19489840859994L66.1636999130249,58.222951141562746L66.86015991210937,60.37542221208453L67.55661991119385,55.35545394504774L68.25307991027832,56.609052809864195L68.9495399093628,55.70316508980764L69.64599990844727,53.218739493451864L70.34245990753173,49.034513232414156L71.03891990661621,57.072142763228385L71.73537990570068,55.30131001574031L72.43183990478516,50.818047455481675L73.12829990386963,48.33926067308025L73.8247599029541,48.11336865453464L74.52121990203858,57.1612699697442L75.21767990112305,53.65950992736802L75.91413990020753,44.81437017814551L76.610599899292,46.33652934435608L77.30705989837647,50.83343632567144L78.00351989746095,52.29959395998428L78.6999798965454,52.307128094348016L79.39643989562988,49.48095076864897L80.09289989471435,48.526652227787054L80.78935989379882,48.15043584124791L81.4858198928833,44.553947496220644L82.18227989196777,48.00331748787721L82.87873989105225,51.653355706561186L83.57519989013672,45.926536650819486L84.27165988922118,48.52080596582769L84.96811988830567,56.44423536988431L85.66457988739013,46.704494957968706L86.36103988647461,51.34087300483377L87.05749988555908,43.016531472187125L87.75395988464355,48.43238596841988L88.45041988372803,48.657910238229306L89.1468798828125,41.605545577752L89.84333988189698,40.111137296938836L90.53979988098145,45.99366493934954L91.23625988006592,52.28914612409562L91.9327198791504,49.36520421130854L92.62917987823486,46.207025212501634L93.32563987731935,44.95410526842883L94.02209987640381,47.88439320427824L94.71855987548828,42.89093113460876L95.41501987457276,44.1884712586681L96.11147987365722,45.26755920399788L96.8079398727417,47.90402532911594L97.50439987182617,42.33498934009336L98.20085987091063,43.65089804205081L98.89731986999512,48.24488126025577L99.59377986907958,41.208791838716934L100.29023986816406,45.30675744748987L100.98669986724853,37.007649135816195L101.683159866333,42.81564636769994L102.37961986541748,46.474736862966125L103.07607986450195,42.73197881549777L103.77253986358643,39.98675335902621L104.4689998626709,43.919458343444916L105.16545986175537,41.73642641000333L105.86191986083985,43.29782153752498L106.55837985992432,34.47188958767538L107.2548398590088,46.603684656988975L107.95129985809326,40.8594682571908L108.64775985717773,45.150228498255586L109.34421985626221,41.928268667363085L110.04067985534668,38.185821791902214L110.73713985443116,45.575704356529656L111.43359985351563,44.97588730895481L112.1300598526001,45.799861355396985L112.82651985168458,34.17818093040128L113.52297985076903,43.30650606537105L114.21943984985352,48.501692461002534L114.91589984893798,46.371889799755394L115.61235984802245,41.365518806501456L116.30881984710693,39.30569212912587L117.0052798461914,37.8483981822998L117.70173984527588,45.714053316961326L118.39819984436035,39.017301684343835L119.09465984344482,49.85391399329137L119.7911198425293,47.30764060307851L120.48757984161377,48.485379504244975L121.18403984069825,44.20489736888294L121.88049983978271,43.52547686411313L122.57695983886718,43.51165328341571L123.27341983795166,41.26244543637617L123.96987983703613,43.311211363302846L124.66633983612061,40.55064418391535L125.36279983520508,41.0878213634322L126.05925983428955,46.03670097093422L126.75571983337403,36.366210474872645L127.4521798324585,43.79340539203744L128.14863983154297,46.848228137075836L128.84509983062745,45.037225912254144L129.54155982971193,40.405241991313375L130.23801982879638,42.1244013266446L130.93447982788086,44.684488868100146L131.63093982696532,36.941859829863915L132.3273998260498,45.00350618198536L133.02385982513428,43.31095676802397L133.72031982421873,43.36567589407255L134.41677982330322,43.01043061494889L135.1132398223877,48.20311820506549L135.80969982147215,48.73035673925142L136.50615982055663,39.98193490763711L137.20261981964111,47.154345956831406L137.8990798187256,44.310337532156296L138.59553981781005,47.32726329846142L139.29199981689453,44.78072588351492L139.98845981597898,47.815897644806086L140.68491981506347,42.25609309200641L141.38137981414795,45.8881870582571L142.07783981323243,45.83198750780912L142.77429981231688,42.09074760255922L143.47075981140136,47.875821829889446L144.16721981048582,45.58822667246841L144.86367980957033,40.681694746352605L145.56013980865478,44.7127017967814L146.25659980773926,49.89420605353703L146.95305980682372,41.98069643590179L147.6495198059082,42.66373785130449L148.34597980499268,43.00708315850443L149.04243980407716,45.73465667564065L149.73889980316162,39.07610376430921L150.4353598022461,44.31914464291444L151.13181980133055,40.419254161106295L151.82827980041506,43.58175185019931L152.5247397994995,48.82890397108562L153.221199798584,46.28390355726711L153.91765979766845,45.34524848187388L154.61411979675293,46.32665670520859L155.3105797958374,40.986492442439925L156.0070397949219,40.76515485054975L156.70349979400635,45.949318213551436L157.3999597930908,45.3558754774032L158.09641979217528,39.148795431155435L158.79287979125976,44.63900117827447L159.48933979034425,42.72126695487546L160.1857997894287,40.48607127762884L160.88225978851318,45.94556529055171L161.57871978759763,39.478911213308635L162.27517978668214,44.786458992016975L162.9716397857666,44.8501926768287L163.66809978485108,42.877494161557024L164.36455978393553,45.81242138915482L165.06101978302001,44.39431625636598L165.7574797821045,48.597608874955L166.45393978118898,46.72190173147996L167.15039978027343,40.97843025860888L167.8468597793579,47.42011513961265L168.54331977844237,39.02669342129789L169.23977977752688,44.02604890020061L169.93623977661133,44.82156485213741L170.6326997756958,45.404012844020144L171.32915977478027,47.49899252879004L172.02561977386475,33.73933410525888L172.72207977294923,46.32347897895002L173.4185397720337,43.130448715301554L174.11499977111816,43.685240116334626L174.81145977020262,41.50597053534753L175.5079197692871,45.72684908708848L176.20437976837158,45.830601377957464L176.90083976745606,47.345547011266575L177.59729976654052,43.36880647305725L178.293759765625,41.18806589712554L178.99021976470945,46.975054303774726L179.68667976379396,48.54751018174525L180.38313976287841,44.79408742092846L181.0795997619629,44.836237083764445L181.77605976104735,44.71050473381925L182.47251976013183,44.887542747185165L183.1689797592163,45.40126887268116L183.8654397583008,47.642225946794184L184.56189975738525,48.63660909989676L185.25835975646973,45.632667692814266L185.95481975555418,43.66073296337922L186.6512797546387,44.299738824991294L187.34773975372315,42.571112317067815L188.04419975280763,43.005489580647776L188.74065975189208,43.56619324982361L189.43711975097656,49.17622850819984L190.13357975006105,49.04817651238045L190.83003974914553,50.02307841192169L191.52649974822998,49.679393644349915L192.22295974731443,46.08648849213645L192.91941974639892,46.180443579496114L193.6158797454834,49.137926062911305L194.31233974456788,48.44239061993417L195.00879974365233,47.99161553450372L195.7052597427368,49.751943869374514L196.40171974182127,47.161587778097186L197.09817974090578,50.259474843084575L197.79463973999023,48.788234732649016L198.4910997390747,50.7798958814695L199.18755973815917,51.633789587906904L199.88401973724365,51.00294963412837L200.58047973632813,51.790771150970315L201.2769397354126,53.83431315995267L201.97339973449706,52.48956918529893L202.66985973358155,53.577134210469765L203.366319732666,54.55374284132495L204.0627797317505,55.18323438307091L204.75923973083496,56.72462020756393L205.45569972991944,56.092639289757855L206.1521597290039,57.168615515012476L206.84861972808838,57.16857779719339L207.54507972717286,58.23805712810933L208.24153972625734,59.37885142547459L208.9379997253418,61.24887260772145L209.63445972442625,61.1177183212817L210.33091972351073,64.67912909455283L211.0273797225952,64.17898138393016L211.7238397216797,65.54375352052209L212.42029972076415,66.74994108673916L213.11675971984863,67.79498870033785L213.81321971893308,68.75240839072967L214.5096797180176,70.35887631206697L215.20613971710205,70.23230474064698L215.90259971618653,71.83220976146215L216.59905971527098,72.24228732009169L217.29551971435546,72.94089676532485L217.99197971343995,73.21089977329925L218.68843971252443,73.65266972942133L219.38489971160888,73.76830313330447L220.08135971069336,74.4764740456776L220.77781970977782,74.72180959996543L221.47427970886233,74.85891387236703L222.17073970794678,75.17017074497396L222.86719970703126,75.21305590528223L223.56365970611571,75.36007053465043L224.2601197052002,75.6946275900018L224.95657970428468,75.55126215963082L225.65303970336916,75.61355313786225L226.3494997024536,75.54820701628432L227.04595970153807,75.51712753335201L227.74241970062255,75.76069035014248L228.43887969970703,75.73375982731038L229.1353396987915,75.77865346148535L229.83179969787597,75.8967762414286L230.52825969696045,75.85669162918794L231.2247196960449,75.92463085082849L231.9211796951294,75.96981679810142L232.61763969421386,75.92220748095178L233.31409969329835,75.92496088174555L234.0105596923828,75.96515864744349L234.70701969146728,75.98322548278884L235.40347969055176,76.06602552515187L236.09993968963624,76.15705748153187L236.7963996887207,76.05920802935088L237.49285968780518,76.10753398506327L238.18931968688963,76.04506384719116L238.88577968597414,76.00859071612861L239.5822396850586,76.14851439550739L240.27869968414308,76.20689215000797L240.97515968322753,76.17978246753516L241.671619682312,76.11551130380136L242.3680796813965,76.13602979738775L243.06453968048098,75.992654937562" fill="none"></path></g></g></g></g></g></g><g transform="translate(51, 177)" clip-path="url(#clip_1)"><clipPath id="clip_1"><rect width="278" height="22"></rect></clipPath><g><g><line x1="0" y1="0" x2="0" y2="5" style="visibility: inherit;" fill="rgb(0, 0, 0)" stroke="rgb(204, 204, 204)" stroke-width="1px"></line><line x1="34.82299995422363" y1="0" x2="34.82299995422363" y2="5" style="visibility: inherit;" fill="rgb(0, 0, 0)" stroke="rgb(204, 204, 204)" stroke-width="1px"></line><line x1="69.64599990844727" y1="0" x2="69.64599990844727" y2="5" style="visibility: inherit;" fill="rgb(0, 0, 0)" stroke="rgb(204, 204, 204)" stroke-width="1px"></line><line x1="104.4689998626709" y1="0" x2="104.4689998626709" y2="5" style="visibility: inherit;" fill="rgb(0, 0, 0)" stroke="rgb(204, 204, 204)" stroke-width="1px"></line><line x1="139.29199981689453" y1="0" x2="139.29199981689453" y2="5" style="visibility: inherit;" fill="rgb(0, 0, 0)" stroke="rgb(204, 204, 204)" stroke-width="1px"></line><line x1="174.11499977111816" y1="0" x2="174.11499977111816" y2="5" style="visibility: inherit;" fill="rgb(0, 0, 0)" stroke="rgb(204, 204, 204)" stroke-width="1px"></line><line x1="208.9379997253418" y1="0" x2="208.9379997253418" y2="5" style="visibility: inherit;" fill="rgb(0, 0, 0)" stroke="rgb(204, 204, 204)" stroke-width="1px"></line><line x1="243.76099967956543" y1="0" x2="243.76099967956543" y2="5" style="visibility: inherit;" fill="rgb(0, 0, 0)" stroke="rgb(204, 204, 204)" stroke-width="1px"></line><line x1="278.58399963378906" y1="0" x2="278.58399963378906" y2="5" style="visibility: inherit;" fill="rgb(0, 0, 0)" stroke="rgb(204, 204, 204)" stroke-width="1px"></line></g><g transform="translate(0, 8)"><text style="text-anchor: middle; visibility: hidden; font-family: &quot;Helvetica Neue&quot;, sans-serif; font-size: 12px; font-weight: 200;" x="0" y="0" dx="0em" dy="0.95em" fill="rgb(50, 49, 63)" stroke="none" stroke-width="1px">-50</text><text style="text-anchor: middle; visibility: inherit; font-family: &quot;Helvetica Neue&quot;, sans-serif; font-size: 12px; font-weight: 200;" x="34.82299995422363" y="0" dx="0em" dy="0.95em" fill="rgb(50, 49, 63)" stroke="none" stroke-width="1px">0</text><text style="text-anchor: middle; visibility: inherit; font-family: &quot;Helvetica Neue&quot;, sans-serif; font-size: 12px; font-weight: 200;" x="69.64599990844727" y="0" dx="0em" dy="0.95em" fill="rgb(50, 49, 63)" stroke="none" stroke-width="1px">50</text><text style="text-anchor: middle; visibility: inherit; font-family: &quot;Helvetica Neue&quot;, sans-serif; font-size: 12px; font-weight: 200;" x="104.4689998626709" y="0" dx="0em" dy="0.95em" fill="rgb(50, 49, 63)" stroke="none" stroke-width="1px">100</text><text style="text-anchor: middle; visibility: inherit; font-family: &quot;Helvetica Neue&quot;, sans-serif; font-size: 12px; font-weight: 200;" x="139.29199981689453" y="0" dx="0em" dy="0.95em" fill="rgb(50, 49, 63)" stroke="none" stroke-width="1px">150</text><text style="text-anchor: middle; visibility: inherit; font-family: &quot;Helvetica Neue&quot;, sans-serif; font-size: 12px; font-weight: 200;" x="174.11499977111816" y="0" dx="0em" dy="0.95em" fill="rgb(50, 49, 63)" stroke="none" stroke-width="1px">200</text><text style="text-anchor: middle; visibility: inherit; font-family: &quot;Helvetica Neue&quot;, sans-serif; font-size: 12px; font-weight: 200;" x="208.9379997253418" y="0" dx="0em" dy="0.95em" fill="rgb(50, 49, 63)" stroke="none" stroke-width="1px">250</text><text style="text-anchor: middle; visibility: inherit; font-family: &quot;Helvetica Neue&quot;, sans-serif; font-size: 12px; font-weight: 200;" x="243.76099967956543" y="0" dx="0em" dy="0.95em" fill="rgb(50, 49, 63)" stroke="none" stroke-width="1px">300</text><text style="text-anchor: middle; visibility: hidden; font-family: &quot;Helvetica Neue&quot;, sans-serif; font-size: 12px; font-weight: 200;" x="278.58399963378906" y="0" dx="0em" dy="0.95em" fill="rgb(50, 49, 63)" stroke="none" stroke-width="1px">350</text></g><line x1="0" y1="0" x2="278.58399963378906" y2="0" fill="rgb(0, 0, 0)" stroke="rgb(204, 204, 204)" stroke-width="1px"></line></g></g></g></g></svg>