<svg viewBox="0 0 330 200" xmlns="http://www.w3.org/2000/svg"><g><g><g><g><g><line x1="51.41600036621094" y1="177.9749994277954" x2="46.41600036621094" y2="177.9749994277954" style="visibility: inherit;" fill="rgb(0, 0, 0)" stroke="rgb(204, 204, 204)" stroke-width="1px"></line><line x1="51.41600036621094" y1="164.28461485642654" x2="46.41600036621094" y2="164.28461485642654" style="visibility: inherit;" fill="rgb(0, 0, 0)" stroke="rgb(204, 204, 204)" stroke-width="1px"></line><line x1="51.41600036621094" y1="150.59423028505765" x2="46.41600036621094" y2="150.59423028505765" style="visibility: inherit;" fill="rgb(0, 0, 0)" stroke="rgb(204, 204, 204)" stroke-width="1px"></line><line x1="51.41600036621094" y1="136.90384571368878" x2="46.41600036621094" y2="136.90384571368878" style="visibility: inherit;" fill="rgb(0, 0, 0)" stroke="rgb(204, 204, 204)" stroke-width="1px"></line><line x1="51.41600036621094" y1="123.21346114231989" x2="46.41600036621094" y2="123.21346114231989" style="visibility: inherit;" fill="rgb(0, 0, 0)" stroke="rgb(204, 204, 204)" stroke-width="1px"></line><line x1="51.41600036621094" y1="109.52307657095103" x2="46.41600036621094" y2="109.52307657095103" style="visibility: inherit;" fill="rgb(0, 0, 0)" stroke="rgb(204, 204, 204)" stroke-width="1px"></line><line x1="51.41600036621094" y1="95.83269199958215" x2="46.41600036621094" y2="95.83269199958215" style="visibility: inherit;" fill="rgb(0, 0, 0)" stroke="rgb(204, 204, 204)" stroke-width="1px"></line><line x1="51.41600036621094" y1="82.14230742821327" x2="46.41600036621094" y2="82.14230742821327" style="visibility: inherit;" fill="rgb(0, 0, 0)" stroke="rgb(204, 204, 204)" stroke-width="1px"></line><line x1="51.41600036621094" y1="68.4519228568444" x2="46.41600036621094" y2="68.4519228568444" style="visibility: inherit;" fill="rgb(0, 0, 0)" stroke="rgb(204, 204, 204)" stroke-width="1px"></line><line x1="51.41600036621094" y1="54.76153828547551" x2="46.41600036621094" y2="54.76153828547551" style="visibility: inherit;" fill="rgb(0, 0, 0)" stroke="rgb(204, 204, 204)" stroke-width="1px"></line><line x1="51.41600036621094" y1="41.07115371410666" x2="46.41600036621094" y2="41.07115371410666" style="visibility: inherit;" fill="rgb(0, 0, 0)" stroke="rgb(204, 204, 204)" stroke-width="1px"></line><line x1="51.41600036621094" y1="27.380769142737762" x2="46.41600036621094" y2="27.380769142737762" style="visibility: inherit;" fill="rgb(0, 0, 0)" stroke="rgb(204, 204, 204)" stroke-width="1px"></line><line x1="51.41600036621094" y1="13.690384571368867" x2="46.41600036621094" y2="13.690384571368867" style="visibility: inherit;" fill="rgb(0, 0, 0)" stroke="rgb(204, 204, 204)" stroke-width="1px"></line><line x1="51.41600036621094" y1="0" x2="46.41600036621094" y2="0" style="visibility: inherit;" fill="rgb(0, 0, 0)" stroke="rgb(204, 204, 204)" stroke-width="1px"></line></g><g transform="translate(41.41600036621094, 0)"><text style="text-anchor: end; visibility: hidden; font-family: &quot;Helvetica Neue&quot;, sans-serif; font-size: 12px; font-weight: 200;" x="0" y="177.9749994277954" dx="0em" dy="0.3em" fill="rgb(50, 49, 63)" stroke="none" stroke-width="1px">-0.1</text><text style="text-anchor: end; visibility: inherit; font-family: &quot;Helvetica Neue&quot;, sans-serif; font-size: 12px; font-weight: 200;" x="0" y="164.28461485642654" dx="0em" dy="0.3em" fill="rgb(50, 49, 63)" stroke="none" stroke-width="1px">0</text><text style="text-anchor: end; visibility: hidden; font-family: &quot;Helvetica Neue&quot;, sans-serif; font-size: 12px; font-weight: 200;" x="0" y="150.59423028505765" dx="0em" dy="0.3em" fill="rgb(50, 49, 63)" stroke="none" stroke-width="1px">0.1</text><text style="text-anchor: end; visibility: inherit; font-family: &quot;Helvetica Neue&quot;, sans-serif; font-size: 12px; font-weight: 200;" x="0" y="136.90384571368878" dx="0em" dy="0.3em" fill="rgb(50, 49, 63)" stroke="none" stroke-width="1px">0.2</text><text style="text-anchor: end; visibility: hidden; font-family: &quot;Helvetica Neue&quot;, sans-serif; font-size: 12px; font-weight: 200;" x="0" y="123.21346114231989" dx="0em" dy="0.3em" fill="rgb(50, 49, 63)" stroke="none" stroke-width="1px">0.3</text><text style="text-anchor: end; visibility: inherit; font-family: &quot;Helvetica Neue&quot;, sans-serif; font-size: 12px; font-weight: 200;" x="0" y="109.52307657095103" dx="0em" dy="0.3em" fill="rgb(50, 49, 63)" stroke="none" stroke-width="1px">0.4</text><text style="text-anchor: end; visibility: hidden; font-family: &quot;Helvetica Neue&quot;, sans-serif; font-size: 12px; font-weight: 200;" x="0" y="95.83269199958215" dx="0em" dy="0.3em" fill="rgb(50, 49, 63)" stroke="none" stroke-width="1px">0.5</text><text style="text-anchor: end; visibility: inherit; font-family: &quot;Helvetica Neue&quot;, sans-serif; font-size: 12px; font-weight: 200;" x="0" y="82.14230742821327" dx="0em" dy="0.3em" fill="rgb(50, 49, 63)" stroke="none" stroke-width="1px">0.6</text><text style="text-anchor: end; visibility: hidden; font-family: &quot;Helvetica Neue&quot;, sans-serif; font-size: 12px; font-weight: 200;" x="0" y="68.4519228568444" dx="0em" dy="0.3em" fill="rgb(50, 49, 63)" stroke="none" stroke-width="1px">0.7</text><text style="text-anchor: end; visibility: inherit; font-family: &quot;Helvetica Neue&quot;, sans-serif; font-size: 12px; font-weight: 200;" x="0" y="54.76153828547551" dx="0em" dy="0.3em" fill="rgb(50, 49, 63)" stroke="none" stroke-width="1px">0.8</text><text style="text-anchor: end; visibility: hidden; font-family: &quot;Helvetica Neue&quot;, sans-serif; font-size: 12px; font-weight: 200;" x="0" y="41.07115371410666" dx="0em" dy="0.3em" fill="rgb(50, 49, 63)" stroke="none" stroke-width="1px">0.9</text><text style="text-anchor: end; visibility: inherit; font-family: &quot;Helvetica Neue&quot;, sans-serif; font-size: 12px; font-weight: 200;" x="0" y="27.380769142737762" dx="0em" dy="0.3em" fill="rgb(50, 49, 63)" stroke="none" stroke-width="1px">1</text><text style="text-anchor: end; visibility: hidden; font-family: &quot;Helvetica Neue&quot;, sans-serif; font-size: 12px; font-weight: 200;" x="0" y="13.690384571368867" dx="0em" dy="0.3em" fill="rgb(50, 49, 63)" stroke="none" stroke-width="1px">1.1</text><text style="text-anchor: end; visibility: hidden; font-family: &quot;Helvetica Neue&quot;, sans-serif; font-size: 12px; font-weight: 200;" x="0" y="0" dx="0em" dy="0.3em" fill="rgb(50, 49, 63)" stroke="none" stroke-width="1px">1.2</text></g><line x1="51.41600036621094" y1="0" x2="51.41600036621094" y2="177.9749994277954" fill="rgb(0, 0, 0)" stroke="rgb(204, 204, 204)" stroke-width="1px"></line></g></g><g transform="translate(51, 0)" clip-path="url(#clip_0)"><clipPath id="clip_0"><rect width="278" height="177"></rect></clipPath><g><g><g><line x1="0" y1="0" x2="0" y2="177.9749994277954" fill="rgb(0, 0, 0)" stroke="rgb(60, 60, 60)" stroke-width="1px" opacity="0.25"></line><line x1="34.82299995422363" y1="0" x2="34.82299995422363" y2="177.9749994277954" fill="rgb(0, 0, 0)" stroke="rgb(60, 60, 60)" stroke-width="1px" opacity="0.25"></line><line x1="69.64599990844727" y1="0" x2="69.64599990844727" y2="177.9749994277954" fill="rgb(0, 0, 0)" stroke="rgb(60, 60, 60)" stroke-width="1px" opacity="0.25"></line><line x1="104.4689998626709" y1="0" x2="104.4689998626709" y2="177.9749994277954" fill="rgb(0, 0, 0)" stroke="rgb(60, 60, 60)" stroke-width="1px" opacity="0.25"></line><line x1="139.29199981689453" y1="0" x2="139.29199981689453" y2="177.9749994277954" fill="rgb(0, 0, 0)" stroke="rgb(60, 60, 60)" stroke-width="1px" opacity="0.25"></line><line x1="174.11499977111816" y1="0" x2="174.11499977111816" y2="177.9749994277954" fill="rgb(0, 0, 0)" stroke="rgb(60, 60, 60)" stroke-width="1px" opacity="0.25"></line><line x1="208.9379997253418" y1="0" x2="208.9379997253418" y2="177.9749994277954" fill="rgb(0, 0, 0)" stroke="rgb(60, 60, 60)" stroke-width="1px" opacity="0.25"></line><line x1="243.76099967956543" y1="0" x2="243.76099967956543" y2="177.9749994277954" fill="rgb(0, 0, 0)" stroke="rgb(60, 60, 60)" stroke-width="1px" opacity="0.25"></line><line x1="278.58399963378906" y1="0" x2="278.58399963378906" y2="177.9749994277954" fill="rgb(0, 0, 0)" stroke="rgb(60, 60, 60)" stroke-width="1px" opacity="0.25"></line></g><g><line x1="0" y1="177.9749994277954" x2="278.58399963378906" y2="177.9749994277954" fill="rgb(0, 0, 0)" stroke="rgb(60, 60, 60)" stroke-width="1px" opacity="0.25"></line><line x1="0" y1="164.28461485642654" x2="278.58399963378906" y2="164.28461485642654" fill="rgb(0, 0, 0)" stroke="rgb(60, 60, 60)" stroke-width="1px" opacity="0.25"></line><line x1="0" y1="150.59423028505765" x2="278.58399963378906" y2="150.59423028505765" fill="rgb(0, 0, 0)" stroke="rgb(60, 60, 60)" stroke-width="1px" opacity="0.25"></line><line x1="0" y1="136.90384571368878" x2="278.58399963378906" y2="136.90384571368878" fill="rgb(0, 0, 0)" stroke="rgb(60, 60, 60)" stroke-width="1px" opacity="0.25"></line><line x1="0" y1="123.21346114231989" x2="278.58399963378906" y2="123.21346114231989" fill="rgb(0, 0, 0)" stroke="rgb(60, 60, 60)" stroke-width="1px" opacity="0.25"></line><line x1="0" y1="109.52307657095103" x2="278.58399963378906" y2="109.52307657095103" fill="rgb(0, 0, 0)" stroke="rgb(60, 60, 60)" stroke-width="1px" opacity="0.25"></line><line x1="0" y1="95.83269199958215" x2="278.58399963378906" y2="95.83269199958215" fill="rgb(0, 0, 0)" stroke="rgb(60, 60, 60)" stroke-width="1px" opacity="0.25"></line><line x1="0" y1="82.14230742821327" x2="278.58399963378906" y2="82.14230742821327" fill="rgb(0, 0, 0)" stroke="rgb(60, 60, 60)" stroke-width="1px" opacity="0.25"></line><line x1="0" y1="68.4519228568444" x2="278.58399963378906" y2="68.4519228568444" fill="rgb(0, 0, 0)" stroke="rgb(60, 60, 60)" stroke-width="1px" opacity="0.25"></line><line x1="0" y1="54.76153828547551" x2="278.58399963378906" y2="54.76153828547551" fill="rgb(0, 0, 0)" stroke="rgb(60, 60, 60)" stroke-width="1px" opacity="0.25"></line><line x1="0" y1="41.07115371410666" x2="278.58399963378906" y2="41.07115371410666" fill="rgb(0, 0, 0)" stroke="rgb(60, 60, 60)" stroke-width="1px" opacity="0.25"></line><line x1="0" y1="27.380769142737762" x2="278.58399963378906" y2="27.380769142737762" fill="rgb(0, 0, 0)" stroke="rgb(60, 60, 60)" stroke-width="1px" opacity="0.25"></line><line x1="0" y1="13.690384571368867" x2="278.58399963378906" y2="13.690384571368867" fill="rgb(0, 0, 0)" stroke="rgb(60, 60, 60)" stroke-width="1px" opacity="0.25"></line><line x1="0" y1="0" x2="278.58399963378906" y2="0" fill="rgb(0, 0, 0)" stroke="rgb(60, 60, 60)" stroke-width="1px" opacity="0.25"></line></g></g></g><g><g><line x1="0" y1="164.28461485642654" x2="278.58399963378906" y2="164.28461485642654" fill="rgb(0, 0, 0)" stroke="rgb(153, 153, 153)" stroke-width="1.5px"></line></g></g><g><g><line x1="34.82299995422363" y1="0" x2="34.82299995422363" y2="177.9749994277954" fill="rgb(0, 0, 0)" stroke="rgb(153, 153, 153)" stroke-width="1.5px"></line></g></g><g><g><g><g><g><path style="fill: none;" stroke="rgb(51, 187, 238)" stroke-width="2px" d="M34.82299995422363,163.02509944791223L35.51945995330811,151.1582738852477L36.21591995239258,146.06819005120838L36.91237995147705,140.8713190018806L37.608839950561524,136.58348977989712L38.305299949646,132.74470706108204L39.001759948730474,131.71792715741572L39.69821994781494,127.32057504491165L40.39467994689941,122.20037430300346L41.09113994598388,122.98893829874095L41.78759994506836,117.13493194631613L42.48405994415283,111.30282731595865L43.18051994323731,111.79020591279745L43.876979942321775,109.2602224497122L44.57343994140625,105.14215197401323L45.269899940490724,101.38551295310828L45.9663599395752,100.56956364468154L46.66281993865967,96.78280567588146L47.35927993774414,94.773053392736L48.05573993682861,93.59568078962035L48.75219993591308,97.93553476161884L49.44865993499756,90.15666161926966L50.14511993408203,88.56035738082814L50.8415799331665,90.82748753868508L51.538039932250975,86.73953601088122L52.23449993133545,84.29170032575863L52.930959930419924,84.27800766941402L53.6274199295044,84.62026695729404L54.323879928588866,85.5895487204548L55.02033992767334,79.71637020111598L55.716799926757815,79.41244708695888L56.41325992584229,79.11946667373036L57.10971992492676,78.43221446276445L57.806179924011225,78.31995589701174L58.5026399230957,74.65366963973963L59.199099922180174,74.3278366434101L59.89555992126465,70.97095709091698L60.592019920349124,73.48450610234666L61.28847991943359,70.71904648661726L61.984939918518066,68.48204343676053L62.68139991760254,69.8757241056589L63.377859916687015,71.17630613556094L64.07431991577148,69.44310797409351L64.77077991485596,67.06919468100072L65.46723991394043,66.77074699736045L66.1636999130249,64.32564494744373L66.86015991210937,64.08195156897179L67.55661991119385,64.44337894371327L68.25307991027832,64.31742772161593L68.9495399093628,60.56900184648623L69.64599990844727,62.55684424745927L70.34245990753173,61.3958979358941L71.03891990661621,63.120887031638816L71.73537990570068,60.93042922122771L72.43183990478516,59.843405301692314L73.12829990386963,59.43817448281618L73.8247599029541,57.704968161243684L74.52121990203858,55.613076260240646L75.21767990112305,58.556515928134914L75.91413990020753,55.17225106295257L76.610599899292,57.072478415551174L77.30705989837647,55.53641207289991L78.00351989746095,55.79378994761137L78.6999798965454,58.93162779911593L79.39643989562988,55.224271732915014L80.09289989471435,54.64653629239085L80.78935989379882,52.847624804616345L81.4858198928833,54.29332614347716L82.18227989196777,56.53307098864482L82.87873989105225,55.91153210398602L83.57519989013672,52.19048338144046L84.27165988922118,51.66203497567288L84.96811988830567,51.77976897194242L85.66457988739013,53.51571708882588L86.36103988647461,51.91393741986752L87.05749988555908,49.39490481781593L87.75395988464355,52.48893106508072L88.45041988372803,51.215726187762854L89.1468798828125,47.998490513711715L89.84333988189698,48.81169394677494L90.53979988098145,51.22667704879653L91.23625988006592,49.38395395678228L91.9327198791504,50.4463261988343L92.62917987823486,49.69883609207815L93.32563987731935,48.94586239470004L94.02209987640381,49.34014235254253L94.71855987548828,48.44205750631076L95.41501987457276,45.99968909159992L96.11147987365722,49.512646974190574L96.8079398727417,51.35263643099894L97.50439987182617,49.071813616797385L98.20085987091063,46.867663150041665L98.89731986999512,48.18193783628831L99.59377986907958,46.623969771569705L100.29023986816406,45.246723554326934L100.98669986724853,48.65562377678248L101.683159866333,49.35383500888716L102.37961986541748,46.82659334111287L103.07607986450195,46.476116827405065L103.77253986358643,45.95041021694843L104.4689998626709,47.73837084368927L105.16545986175537,45.241248123810095L105.86191986083985,46.333739313757235L106.55837985992432,51.20204169152332L107.2548398590088,46.87039678524752L107.95129985809326,46.84576142797434L108.64775985717773,44.63612737059668L109.34421985626221,44.19803580851445L110.04067985534668,45.67386425537549L110.73713985443116,43.8503010901176L111.43359985351563,43.56827969802782L112.1300598526001,47.396111555809256L112.82651985168458,47.08397121582436L113.52297985076903,44.458155478536895L114.21943984985352,44.340421482267374L114.91589984893798,44.72922600959302L115.61235984802245,45.035890919061075L116.30881984710693,42.3498372859834L117.0052798461914,47.015516094206305L117.70173984527588,43.12471270542878L118.39819984436035,46.12016488318042L119.09465984344482,42.64006774379584L119.7911198425293,44.655295457458124L120.48757984161377,43.65316111119637L121.18403984069825,43.253397562731976L121.88049983978271,41.23270257865795L122.57695983886718,42.13352922020067L123.27341983795166,44.54851232222228L123.96987983703613,45.8819550953304L124.66633983612061,45.320645946356734L125.36279983520508,44.70184069690376L126.05925983428955,43.655894746402254L126.75571983337403,39.918419732306205L127.4521798324585,43.28625830593808L128.14863983154297,41.060197957009905L128.84509983062745,47.812301395824136L129.54155982971193,44.085777242761765L130.23801982879638,43.37387335431248L130.93447982788086,41.005443651841574L131.63093982696532,44.91814876268646L132.3273998260498,42.327927403810946L133.02385982513428,41.104009561249654L133.72031982421873,39.92663695813397L134.41677982330322,39.73771420504056L135.1132398223877,38.70545275077856L135.80969982147215,42.11983656385607L136.50615982055663,42.29780845591583L137.20261981964111,42.95221624388583L137.8990798187256,38.65617387612707L138.59553981781005,39.14354431286077L139.29199981689453,42.229361494402895L139.98845981597898,40.531749551242314L140.68491981506347,40.769967499197435L141.38137981414795,38.79307595925806L142.07783981323243,41.95007373751898L142.77429981231688,39.458426448156644L143.47075981140136,43.913280781218816L144.16721981048582,39.94580504499544L144.86367980957033,40.45782715921254L145.56013980865478,40.8849678602611L146.25659980773926,40.70972960340717L146.95305980682372,40.90412778701747L147.6495198059082,39.094265438209305L148.34597980499268,35.759287607783534L149.04243980407716,36.249399839828186L149.73889980316162,38.62605492823195L150.4353598022461,39.63092290969959L151.13181980133055,36.73130300615017L151.82827980041506,37.88403209188755L152.5247397994995,38.899859094493934L153.221199798584,38.346767171348034L153.91765979766845,37.51439565142337L154.61411979675293,38.086647501325615L155.3105797958374,35.64976267723671L156.0070397949219,36.32606402716894L156.70349979400635,37.17761179406017L157.3999597930908,37.719744696067295L158.09641979217528,37.4404650992885L158.79287979125976,36.268567926689656L159.48933979034425,35.62237736454745L160.1857997894287,37.191296290299704L160.88225978851318,37.372009977670444L161.57871978759763,37.81831876558047L162.27517978668214,35.99202196511672L162.9716397857666,35.76202124298939L163.66809978485108,36.16726022197062L164.36455978393553,36.60535178405283L165.06101978302001,37.640346873520684L165.7574797821045,35.58678298613549L166.45393978118898,36.52594580140112L167.15039978027343,34.94607601461519L167.8468597793579,34.609292157252014L168.54331977844237,34.187626886720295L169.23977977752688,35.85511988198573L169.93623977661133,34.88036268830811L170.6326997756958,33.89191283828589L171.32915977478027,34.66405462252544L172.02561977386475,35.192503028293004L172.72207977294923,34.056200234106115L173.4185397720337,35.36499948983595L174.11499977111816,34.96524410147666L174.81145977020262,33.68108020302003L175.5079197692871,34.65036196618078L176.20437976837158,34.35191428254052L176.90083976745606,35.24179006304959L177.59729976654052,33.79334692887781L178.293759765625,34.80643213617324L178.99021976470945,36.298686874584774L179.68667976379396,33.01299607891556L180.38313976287841,37.1447510508541L181.0795997619629,33.92477358149199L181.77605976104735,33.88643740776905L182.47251976013183,33.16084902308023L183.1689797592163,33.15263179725244L183.8654397583008,32.8432332525785L184.56189975738525,33.511325536788036L185.25835975646973,33.79060513356686L185.95481975555418,34.100011838345864L186.6512797546387,32.42156798204678L187.34773975372315,31.145621309417947L188.04419975280763,32.01085357254874L188.74065975189208,33.262156727799265L189.43711975097656,32.46263779097558L190.13357975006105,31.52074134050406L190.83003974914553,32.32299391253363L191.52649974822998,31.778119215215526L192.22295974731443,32.22442800312555L192.91941974639892,31.988951850481385L193.6158797454834,32.008119937342855L194.31233974456788,30.707529747335712L195.00879974365233,30.98134207370279L195.7052597427368,31.85478340255628L196.40171974182127,30.915628747395715L197.09817974090578,30.29134806742593L197.79463973999023,30.92931324363525L198.4910997390747,30.21741751529106L199.18755973815917,29.957297845268613L199.88401973724365,30.54050871630963L200.58047973632813,29.88337545323884L201.2769397354126,30.003843084714248L201.97339973449706,30.127060671605705L202.66985973358155,29.773850522692015L203.366319732666,29.68896910952347L204.0627797317505,29.560276092115174L204.75923973083496,29.858731935860533L205.45569972991944,29.431591234812004L206.1521597290039,29.4398003005347L206.84861972808838,29.98194136264692L207.54507972717286,29.201590512684675L208.24153972625734,29.218016804235162L208.9379997253418,29.19884871737372L209.63445972442625,28.87575751635515L210.33091972351073,29.28099649533638L211.0273797225952,28.70873648532904L211.7238397216797,28.93326177693953L212.42029972076415,28.70051925950125L213.11675971984863,28.525289162752415L213.81321971893308,28.31719016269244L214.5096797180176,28.530764593269254L215.20613971710205,28.45956767634027L215.90259971618653,28.325407388520233L216.59905971527098,28.355526336415352L217.29551971435546,28.24874320117948L217.99197971343995,28.177546284250496L218.68843971252443,28.128267409598976L219.38489971160888,27.98040630532924L220.08135971069336,28.122791979082166L220.77781970977782,28.02421790956899L221.47427970886233,27.791483552235803L222.17073970794678,28.065287718497785L222.86719970703126,27.7996926179585L223.56365970611571,27.81612706961411L224.2601197052002,27.901000322677532L224.95657970428468,27.824336135336807L225.65303970336916,27.895524892160694L226.3494997024536,27.712077569584096L227.04595970153807,27.862672309059718L227.74241970062255,27.755889173823846L228.43887969970703,27.649097878482877L229.1353396987915,27.747671947996054L229.83179969787597,27.747671947996054L230.52825969696045,27.679216826378024L231.2247196960449,27.62172072589874L231.9211796951294,27.64088881276018L232.61763969421386,27.550531969074825L233.31409969329835,27.556007399591664L234.0105596923828,27.6162452953819L234.70701969146728,27.566958260625313L235.40347969055176,27.59707720852043L236.09993968963624,27.638147017449228L236.7963996887207,27.498503139007283L237.49285968780518,27.599819003831414L238.18931968688963,27.58338455217583L238.88577968597414,27.56421646531436L239.5822396850586,27.57790912165899L240.27869968414308,27.542314743247033L240.97515968322753,27.531363882213356L241.671619682312,27.605294434348252L242.3680796813965,27.547790173763843L243.06453968048098,27.539581108041148" fill="none"></path></g><g><path style="fill: none;" stroke="rgb(0, 119, 187)" stroke-width="2px" d="M34.82299995422363,162.87450521844318L35.51945995330811,151.12815493735258L36.21591995239258,145.62462101858304L36.91237995147705,140.14846629242393L37.608839950561524,135.9044466346539L38.305299949646,131.37293015427727L39.001759948730474,129.92175134487337L39.69821994781494,127.12891049650725L40.39467994689941,121.3789495640599L41.09113994598388,122.58370339981226L41.78759994506836,116.24505616580706L42.48405994415283,110.89211698651313L43.18051994323731,112.41174887750883L43.876979942321775,109.48200594601174L44.57343994140625,106.01833917823022L45.269899940490724,103.33502326041094L45.9663599395752,103.59513885038083L46.66281993865967,99.29635876736367L47.35927993774414,97.27018427272027L48.05573993682861,97.48923005376137L48.75219993591308,101.6237227409583L49.44865993499756,94.8606766012155L50.14511993408203,93.80651342488619L50.8415799331665,94.7100818617399L51.538039932250975,93.20413446698375L52.23449993133545,91.27379632659509L52.930959930419924,90.17856334133698L53.6274199295044,92.20474191603294L54.323879928588866,90.61665490341922L55.02033992767334,86.24942377883656L55.716799926757815,87.52262865615442L56.41325992584229,87.57739112142784L57.10971992492676,86.56429775402732L57.806179924011225,86.72858514984755L58.5026399230957,84.88038662731647L59.199099922180174,84.44229506523425L59.89555992126465,80.73219720372238L60.592019920349124,83.29229961470276L61.28847991943359,80.59529512059137L61.984939918518066,79.73279649266648L62.68139991760254,80.32148279422431L63.377859916687015,82.86790070896515L64.07431991577148,81.86849999790927L64.77077991485596,79.99291616268893L65.46723991394043,79.95184635376013L66.1636999130249,76.84412745015072L66.86015991210937,77.07686180748391L67.55661991119385,78.0215000532664L68.25307991027832,78.18578744908663L68.9495399093628,75.70782465596385L69.64599990844727,77.02210750231559L70.34245990753173,76.62508574916217L71.03891990661621,77.93936043540882L71.73537990570068,76.58400778012827L72.43183990478516,77.04948465489974L73.12829990386963,75.70782465596385L73.8247599029541,75.24235594129746L74.52121990203858,73.36677210607712L75.21767990112305,77.39174394277975L75.91413990020753,73.79117101181471L76.610599899292,75.85841939543946L77.30705989837647,75.119138354406L78.00351989746095,74.62628432705037L78.6999798965454,77.25484185964878L79.39643989562988,74.53045205284816L80.09289989471435,75.18759347602405L80.78935989379882,73.81855632450397L81.4858198928833,74.03759802549253L82.18227989196777,76.96734503704218L82.87873989105225,75.09176120182184L83.57519989013672,74.06498333818179L84.27165988922118,72.39475670771048L84.96811988830567,73.75010120288593L85.66457988739013,75.46139764228603L86.36103988647461,73.6816460812679L87.05749988555908,71.929279832939L87.75395988464355,73.85962613343276L88.45041988372803,73.91438859870618L89.1468798828125,71.47749561451215L89.84333988189698,72.40844120395002L90.53979988098145,73.92807309494572L91.23625988006592,72.98344300926833L91.9327198791504,72.53165879084148L92.62917987823486,74.1197458034552L93.32563987731935,73.01082016185248L94.02209987640381,73.02451281819711L94.71855987548828,72.46320366922342L95.41501987457276,70.57393533776356L96.11147987365722,73.29831698445908L96.8079398727417,75.37925802442844L97.50439987182617,72.86022542237686L98.20085987091063,71.72392262818997L98.89731986999512,73.43521906759008L99.59377986907958,71.55964339247483L100.29023986816406,70.97095709091698L100.98669986724853,73.03820547454173L101.683159866333,74.37985731337255L102.37961986541748,72.94236504023445L103.07607986450195,71.4911882708568L103.77253986358643,71.38166334030996L104.4689998626709,73.55843665448153L105.16545986175537,71.31321637879701L105.86191986083985,72.24416196823488L106.55837985992432,75.69414015972431L107.2548398590088,74.06498333818179L107.95129985809326,72.70963068290123L108.64775985717773,71.91558717659439L109.34421985626221,69.86203144931427L110.04067985534668,70.39595528559869L110.73713985443116,70.50548021614553L111.43359985351563,71.10785917404799L112.1300598526001,72.91498788765027L112.82651985168458,73.39414925866129L113.52297985076903,71.79237774980803L114.21943984985352,70.5328573687297L114.91589984893798,71.61439769764316L115.61235984802245,71.97034964186778L116.30881984710693,70.10845846299209L117.0052798461914,74.3114103518596L117.70173984527588,70.1632209282655L118.39819984436035,74.2566478865862L119.09465984344482,70.5328573687297L119.7911198425293,72.1209443813434L120.48757984161377,71.06678936511919L121.18403984069825,71.97034964186778L121.88049983978271,70.83404684768091L122.57695983886718,71.43642580558337L123.27341983795166,72.2167766555456L123.96987983703613,73.03820547454173L124.66633983612061,72.38106405136585L125.36279983520508,72.29892443350828L126.05925983428955,72.02511210714121L126.75571983337403,68.52037145037835L127.4521798324585,72.0114194507966L128.14863983154297,70.25905320246771L128.84509983062745,74.51675939650355L129.54155982971193,72.87391807872149L130.23801982879638,71.42273314923875L130.93447982788086,69.42393988723205L131.63093982696532,73.98283556021913L132.3273998260498,71.1215518303926L133.02385982513428,69.79358448780133L133.72031982421873,68.86263073825837L134.41677982330322,69.51977216143426L135.1132398223877,67.58942586094051L135.80969982147215,70.61500514669235L136.50615982055663,70.87512481671479L137.20261981964111,71.61439769764316L137.8990798187256,67.98644761409393L138.59553981781005,69.27334514775644L139.29199981689453,71.51856542344096L139.98845981597898,70.06738865406331L140.68491981506347,70.98464158715652L141.38137981414795,67.89061533989174L142.07783981323243,70.92987912188312L142.77429981231688,69.28703780410108L143.47075981140136,73.2572471755303L144.16721981048582,70.72453007723917L144.86367980957033,70.31381566774112L145.56013980865478,70.4507177508721L146.25659980773926,70.40964794194332L146.95305980682372,70.72453007723917L147.6495198059082,69.2596524914118L148.34597980499268,66.85014481990706L149.04243980407716,67.15133429885829L149.73889980316162,69.8757241056589L150.4353598022461,69.95786372351647L151.13181980133055,68.260259940461L151.82827980041506,68.1644276662588L152.5247397994995,68.99954098149445L153.221199798584,69.47870235250548L153.91765979766845,68.01383292678318L154.61411979675293,69.84833879296964L155.3105797958374,67.69895079148733L156.0070397949219,67.91800065258099L156.70349979400635,68.31502240573442L157.3999597930908,69.1638202172096L158.09641979217528,69.23227533882766L158.79287979125976,66.43943857051408L159.48933979034425,67.54835605201173L160.1857997894287,68.65728169361444L160.88225978851318,69.02691813407863L161.57871978759763,68.5888265719964L162.27517978668214,67.71264344783197L162.9716397857666,67.12395714627412L163.66809978485108,68.2465672841164L164.36455978393553,67.9727631178544L165.06101978302001,68.91739320353179L165.7574797821045,66.86383747625169L166.45393978118898,67.23348207682095L167.15039978027343,66.60371780622924L167.8468597793579,66.37098344889606L168.54331977844237,66.35729079255142L169.23977977752688,68.19180481884297L169.93623977661133,66.4942010357875L170.6326997756958,66.24777402210968L171.32915977478027,66.83646032366752L172.02561977386475,67.57574136470097L172.72207977294923,66.37098344889606L173.4185397720337,66.90490728518047L174.11499977111816,67.94537780516515L174.81145977020262,66.16562624414702L175.5079197692871,66.74062804946531L176.20437976837158,66.83646032366752L176.90083976745606,67.04180936831145L177.59729976654052,65.4400378594582L178.293759765625,66.6311031189185L178.99021976470945,68.56144941941224L179.68667976379396,66.27515117469386L180.38313976287841,69.90310125824305L181.0795997619629,67.79478306568954L181.77605976104735,66.74062804946531L182.47251976013183,67.1102644899295L183.1689797592163,65.94658454315845L183.8654397583008,66.46681572309825L184.56189975738525,66.6858655841919L185.25835975646973,66.75431254570485L185.95481975555418,67.06919468100072L186.6512797546387,66.35729079255142L187.34773975372315,65.23468065470917L188.04419975280763,65.48110766838698L188.74065975189208,66.83646032366752L189.43711975097656,66.27515117469386L190.13357975006105,65.59063259893382L190.83003974914553,66.24777402210968L191.52649974822998,65.41266070687404L192.22295974731443,65.90551473422967L192.91941974639892,66.71324273677607L193.6158797454834,66.0150315046714L194.31233974456788,64.05730805159351L195.00879974365233,64.08469336428276L195.7052597427368,65.207303502125L196.40171974182127,65.344205585256L197.09817974090578,62.98946037902465L197.79463973999023,64.39956733947352L198.4910997390747,63.60552383316666L199.18755973815917,63.934098624807135L199.88401973724365,65.64539506420724L200.58047973632813,62.86624279213321L201.2769397354126,63.16743227108444L201.97339973449706,64.35849753054474L202.66985973358155,63.30433435421541L203.366319732666,62.20910952906242L204.0627797317505,62.893628104822454L204.75923973083496,63.824573694260295L205.45569972991944,63.33171966690466L206.1521597290039,62.729340709002216L206.84861972808838,63.38648213217809L207.54507972717286,62.770410517931L208.24153972625734,62.606131282215856L208.9379997253418,62.66089374748927L209.63445972442625,62.387081421122204L210.33091972351073,62.33231895584879L211.0273797225952,62.2501793379912L211.7238397216797,62.20910952906242L212.42029972076415,62.66089374748927L213.11675971984863,62.33231895584879L213.81321971893308,61.990059667968765L214.5096797180176,61.866850241182405L215.20613971710205,61.49720564061313L215.90259971618653,62.085891942170974L216.59905971527098,61.83946492849316L217.29551971435546,61.27816393962456L217.99197971343995,61.428758679100184L218.68843971252443,61.1960161616619L219.38489971160888,60.579952707519894L220.08135971069336,61.2918484358641L220.77781970977782,60.47042777697308L221.47427970886233,60.004959062306696L222.17073970794678,60.92221199539992L222.86719970703126,60.05971336747501L223.56365970611571,60.18293095436647L224.2601197052002,60.99066711701796L224.95657970428468,60.4841204333177L225.65303970336916,60.7168547906509L226.3494997024536,59.93650394068865L227.04595970153807,61.11387654380431L227.74241970062255,60.6757849817221L228.43887969970703,60.03233621489085L229.1353396987915,60.33352569384208L229.83179969787597,60.33352569384208L230.52825969696045,59.95019659703328L231.2247196960449,59.41627276074887L231.9211796951294,60.40197265535504L232.61763969421386,59.32043232644156L233.31409969329835,59.265678021273246L234.0105596923828,59.922811284344036L234.70701969146728,59.32043232644156L235.40347969055176,59.75853204862888L236.09993968963624,59.97757374961745L236.7963996887207,58.54008147647933L237.49285968780518,59.86804881907062L238.18931968688963,59.087697969108376L238.88577968597414,58.89603342070396L239.5822396850586,59.34781763913081L240.27869968414308,59.0055583512508L240.97515968322753,59.06032081652421L241.671619682312,59.86804881907062L242.3680796813965,59.15615309072642L243.06453968048098,59.1972228996552" fill="none"></path></g></g></g></g></g></g><g transform="translate(51, 177)" clip-path="url(#clip_1)"><clipPath id="clip_1"><rect width="278" height="22"></rect></clipPath><g><g><line x1="0" y1="0" x2="0" y2="5" style="visibility: inherit;" fill="rgb(0, 0, 0)" stroke="rgb(204, 204, 204)" stroke-width="1px"></line><line x1="34.82299995422363" y1="0" x2="34.82299995422363" y2="5" style="visibility: inherit;" fill="rgb(0, 0, 0)" stroke="rgb(204, 204, 204)" stroke-width="1px"></line><line x1="69.64599990844727" y1="0" x2="69.64599990844727" y2="5" style="visibility: inherit;" fill="rgb(0, 0, 0)" stroke="rgb(204, 204, 204)" stroke-width="1px"></line><line x1="104.4689998626709" y1="0" x2="104.4689998626709" y2="5" style="visibility: inherit;" fill="rgb(0, 0, 0)" stroke="rgb(204, 204, 204)" stroke-width="1px"></line><line x1="139.29199981689453" y1="0" x2="139.29199981689453" y2="5" style="visibility: inherit;" fill="rgb(0, 0, 0)" stroke="rgb(204, 204, 204)" stroke-width="1px"></line><line x1="174.11499977111816" y1="0" x2="174.11499977111816" y2="5" style="visibility: inherit;" fill="rgb(0, 0, 0)" stroke="rgb(204, 204, 204)" stroke-width="1px"></line><line x1="208.9379997253418" y1="0" x2="208.9379997253418" y2="5" style="visibility: inherit;" fill="rgb(0, 0, 0)" stroke="rgb(204, 204, 204)" stroke-width="1px"></line><line x1="243.76099967956543" y1="0" x2="243.76099967956543" y2="5" style="visibility: inherit;" fill="rgb(0, 0, 0)" stroke="rgb(204, 204, 204)" stroke-width="1px"></line><line x1="278.58399963378906" y1="0" x2="278.58399963378906" y2="5" style="visibility: inherit;" fill="rgb(0, 0, 0)" stroke="rgb(204, 204, 204)" stroke-width="1px"></line></g><g transform="translate(0, 8)"><text style="text-anchor: middle; visibility: hidden; font-family: &quot;Helvetica Neue&quot;, sans-serif; font-size: 12px; font-weight: 200;" x="0" y="0" dx="0em" dy="0.95em" fill="rgb(50, 49, 63)" stroke="none" stroke-width="1px">-50</text><text style="text-anchor: middle; visibility: inherit; font-family: &quot;Helvetica Neue&quot;, sans-serif; font-size: 12px; font-weight: 200;" x="34.82299995422363" y="0" dx="0em" dy="0.95em" fill="rgb(50, 49, 63)" stroke="none" stroke-width="1px">0</text><text style="text-anchor: middle; visibility: inherit; font-family: &quot;Helvetica Neue&quot;, sans-serif; font-size: 12px; font-weight: 200;" x="69.64599990844727" y="0" dx="0em" dy="0.95em" fill="rgb(50, 49, 63)" stroke="none" stroke-width="1px">50</text><text style="text-anchor: middle; visibility: inherit; font-family: &quot;Helvetica Neue&quot;, sans-serif; font-size: 12px; font-weight: 200;" x="104.4689998626709" y="0" dx="0em" dy="0.95em" fill="rgb(50, 49, 63)" stroke="none" stroke-width="1px">100</text><text style="text-anchor: middle; visibility: inherit; font-family: &quot;Helvetica Neue&quot;, sans-serif; font-size: 12px; font-weight: 200;" x="139.29199981689453" y="0" dx="0em" dy="0.95em" fill="rgb(50, 49, 63)" stroke="none" stroke-width="1px">150</text><text style="text-anchor: middle; visibility: inherit; font-family: &quot;Helvetica Neue&quot;, sans-serif; font-size: 12px; font-weight: 200;" x="174.11499977111816" y="0" dx="0em" dy="0.95em" fill="rgb(50, 49, 63)" stroke="none" stroke-width="1px">200</text><text style="text-anchor: middle; visibility: inherit; font-family: &quot;Helvetica Neue&quot;, sans-serif; font-size: 12px; font-weight: 200;" x="208.9379997253418" y="0" dx="0em" dy="0.95em" fill="rgb(50, 49, 63)" stroke="none" stroke-width="1px">250</text><text style="text-anchor: middle; visibility: inherit; font-family: &quot;Helvetica Neue&quot;, sans-serif; font-size: 12px; font-weight: 200;" x="243.76099967956543" y="0" dx="0em" dy="0.95em" fill="rgb(50, 49, 63)" stroke="none" stroke-width="1px">300</text><text style="text-anchor: middle; visibility: hidden; font-family: &quot;Helvetica Neue&quot;, sans-serif; font-size: 12px; font-weight: 200;" x="278.58399963378906" y="0" dx="0em" dy="0.95em" fill="rgb(50, 49, 63)" stroke="none" stroke-width="1px">350</text></g><line x1="0" y1="0" x2="278.58399963378906" y2="0" fill="rgb(0, 0, 0)" stroke="rgb(204, 204, 204)" stroke-width="1px"></line></g></g></g></g></svg>