<svg viewBox="0 0 330 200" xmlns="http://www.w3.org/2000/svg"><g><g><g><g><g><line x1="51.41600036621094" y1="177.9749994277954" x2="46.41600036621094" y2="177.9749994277954" style="visibility: inherit;" fill="rgb(0, 0, 0)" stroke="rgb(204, 204, 204)" stroke-width="1px"></line><line x1="51.41600036621094" y1="166.1099994659424" x2="46.41600036621094" y2="166.1099994659424" style="visibility: inherit;" fill="rgb(0, 0, 0)" stroke="rgb(204, 204, 204)" stroke-width="1px"></line><line x1="51.41600036621094" y1="154.24499950408935" x2="46.41600036621094" y2="154.24499950408935" style="visibility: inherit;" fill="rgb(0, 0, 0)" stroke="rgb(204, 204, 204)" stroke-width="1px"></line><line x1="51.41600036621094" y1="142.3799995422363" x2="46.41600036621094" y2="142.3799995422363" style="visibility: inherit;" fill="rgb(0, 0, 0)" stroke="rgb(204, 204, 204)" stroke-width="1px"></line><line x1="51.41600036621094" y1="130.5149995803833" x2="46.41600036621094" y2="130.5149995803833" style="visibility: inherit;" fill="rgb(0, 0, 0)" stroke="rgb(204, 204, 204)" stroke-width="1px"></line><line x1="51.41600036621094" y1="118.64999961853027" x2="46.41600036621094" y2="118.64999961853027" style="visibility: inherit;" fill="rgb(0, 0, 0)" stroke="rgb(204, 204, 204)" stroke-width="1px"></line><line x1="51.41600036621094" y1="106.78499965667723" x2="46.41600036621094" y2="106.78499965667723" style="visibility: inherit;" fill="rgb(0, 0, 0)" stroke="rgb(204, 204, 204)" stroke-width="1px"></line><line x1="51.41600036621094" y1="94.91999969482423" x2="46.41600036621094" y2="94.91999969482423" style="visibility: inherit;" fill="rgb(0, 0, 0)" stroke="rgb(204, 204, 204)" stroke-width="1px"></line><line x1="51.41600036621094" y1="83.0549997329712" x2="46.41600036621094" y2="83.0549997329712" style="visibility: inherit;" fill="rgb(0, 0, 0)" stroke="rgb(204, 204, 204)" stroke-width="1px"></line><line x1="51.41600036621094" y1="71.18999977111817" x2="46.41600036621094" y2="71.18999977111817" style="visibility: inherit;" fill="rgb(0, 0, 0)" stroke="rgb(204, 204, 204)" stroke-width="1px"></line><line x1="51.41600036621094" y1="59.32499980926514" x2="46.41600036621094" y2="59.32499980926514" style="visibility: inherit;" fill="rgb(0, 0, 0)" stroke="rgb(204, 204, 204)" stroke-width="1px"></line><line x1="51.41600036621094" y1="47.45999984741209" x2="46.41600036621094" y2="47.45999984741209" style="visibility: inherit;" fill="rgb(0, 0, 0)" stroke="rgb(204, 204, 204)" stroke-width="1px"></line><line x1="51.41600036621094" y1="35.594999885559105" x2="46.41600036621094" y2="35.594999885559105" style="visibility: inherit;" fill="rgb(0, 0, 0)" stroke="rgb(204, 204, 204)" stroke-width="1px"></line><line x1="51.41600036621094" y1="23.72999992370606" x2="46.41600036621094" y2="23.72999992370606" style="visibility: inherit;" fill="rgb(0, 0, 0)" stroke="rgb(204, 204, 204)" stroke-width="1px"></line><line x1="51.41600036621094" y1="11.864999961853044" x2="46.41600036621094" y2="11.864999961853044" style="visibility: inherit;" fill="rgb(0, 0, 0)" stroke="rgb(204, 204, 204)" stroke-width="1px"></line><line x1="51.41600036621094" y1="0" x2="46.41600036621094" y2="0" style="visibility: inherit;" fill="rgb(0, 0, 0)" stroke="rgb(204, 204, 204)" stroke-width="1px"></line></g><g transform="translate(41.41600036621094, 0)"><text style="text-anchor: end; visibility: hidden; font-family: &quot;Helvetica Neue&quot;, sans-serif; font-size: 12px; font-weight: 200;" x="0" y="177.9749994277954" dx="0em" dy="0.3em" fill="rgb(50, 49, 63)" stroke="none" stroke-width="1px">-0.4</text><text style="text-anchor: end; visibility: inherit; font-family: &quot;Helvetica Neue&quot;, sans-serif; font-size: 12px; font-weight: 200;" x="0" y="166.1099994659424" dx="0em" dy="0.3em" fill="rgb(50, 49, 63)" stroke="none" stroke-width="1px">-0.2</text><text style="text-anchor: end; visibility: hidden; font-family: &quot;Helvetica Neue&quot;, sans-serif; font-size: 12px; font-weight: 200;" x="0" y="154.24499950408935" dx="0em" dy="0.3em" fill="rgb(50, 49, 63)" stroke="none" stroke-width="1px">0</text><text style="text-anchor: end; visibility: hidden; font-family: &quot;Helvetica Neue&quot;, sans-serif; font-size: 12px; font-weight: 200;" x="0" y="142.3799995422363" dx="0em" dy="0.3em" fill="rgb(50, 49, 63)" stroke="none" stroke-width="1px">0.2</text><text style="text-anchor: end; visibility: inherit; font-family: &quot;Helvetica Neue&quot;, sans-serif; font-size: 12px; font-weight: 200;" x="0" y="130.5149995803833" dx="0em" dy="0.3em" fill="rgb(50, 49, 63)" stroke="none" stroke-width="1px">0.4</text><text style="text-anchor: end; visibility: hidden; font-family: &quot;Helvetica Neue&quot;, sans-serif; font-size: 12px; font-weight: 200;" x="0" y="118.64999961853027" dx="0em" dy="0.3em" fill="rgb(50, 49, 63)" stroke="none" stroke-width="1px">0.6</text><text style="text-anchor: end; visibility: hidden; font-family: &quot;Helvetica Neue&quot;, sans-serif; font-size: 12px; font-weight: 200;" x="0" y="106.78499965667723" dx="0em" dy="0.3em" fill="rgb(50, 49, 63)" stroke="none" stroke-width="1px">0.8</text><text style="text-anchor: end; visibility: inherit; font-family: &quot;Helvetica Neue&quot;, sans-serif; font-size: 12px; font-weight: 200;" x="0" y="94.91999969482423" dx="0em" dy="0.3em" fill="rgb(50, 49, 63)" stroke="none" stroke-width="1px">1</text><text style="text-anchor: end; visibility: hidden; font-family: &quot;Helvetica Neue&quot;, sans-serif; font-size: 12px; font-weight: 200;" x="0" y="83.0549997329712" dx="0em" dy="0.3em" fill="rgb(50, 49, 63)" stroke="none" stroke-width="1px">1.2</text><text style="text-anchor: end; visibility: hidden; font-family: &quot;Helvetica Neue&quot;, sans-serif; font-size: 12px; font-weight: 200;" x="0" y="71.18999977111817" dx="0em" dy="0.3em" fill="rgb(50, 49, 63)" stroke="none" stroke-width="1px">1.4</text><text style="text-anchor: end; visibility: inherit; font-family: &quot;Helvetica Neue&quot;, sans-serif; font-size: 12px; font-weight: 200;" x="0" y="59.32499980926514" dx="0em" dy="0.3em" fill="rgb(50, 49, 63)" stroke="none" stroke-width="1px">1.6</text><text style="text-anchor: end; visibility: hidden; font-family: &quot;Helvetica Neue&quot;, sans-serif; font-size: 12px; font-weight: 200;" x="0" y="47.45999984741209" dx="0em" dy="0.3em" fill="rgb(50, 49, 63)" stroke="none" stroke-width="1px">1.8</text><text style="text-anchor: end; visibility: hidden; font-family: &quot;Helvetica Neue&quot;, sans-serif; font-size: 12px; font-weight: 200;" x="0" y="35.594999885559105" dx="0em" dy="0.3em" fill="rgb(50, 49, 63)" stroke="none" stroke-width="1px">2</text><text style="text-anchor: end; visibility: inherit; font-family: &quot;Helvetica Neue&quot;, sans-serif; font-size: 12px; font-weight: 200;" x="0" y="23.72999992370606" dx="0em" dy="0.3em" fill="rgb(50, 49, 63)" stroke="none" stroke-width="1px">2.2</text><text style="text-anchor: end; visibility: hidden; font-family: &quot;Helvetica Neue&quot;, sans-serif; font-size: 12px; font-weight: 200;" x="0" y="11.864999961853044" dx="0em" dy="0.3em" fill="rgb(50, 49, 63)" stroke="none" stroke-width="1px">2.4</text><text style="text-anchor: end; visibility: hidden; font-family: &quot;Helvetica Neue&quot;, sans-serif; font-size: 12px; font-weight: 200;" x="0" y="0" dx="0em" dy="0.3em" fill="rgb(50, 49, 63)" stroke="none" stroke-width="1px">2.6</text></g><line x1="51.41600036621094" y1="0" x2="51.41600036621094" y2="177.9749994277954" fill="rgb(0, 0, 0)" stroke="rgb(204, 204, 204)" stroke-width="1px"></line></g></g><g transform="translate(51, 0)" clip-path="url(#clip_0)"><clipPath id="clip_0"><rect width="278" height="177"></rect></clipPath><g><g><g><line x1="0" y1="0" x2="0" y2="177.9749994277954" fill="rgb(0, 0, 0)" stroke="rgb(60, 60, 60)" stroke-width="1px" opacity="0.25"></line><line x1="34.82299995422363" y1="0" x2="34.82299995422363" y2="177.9749994277954" fill="rgb(0, 0, 0)" stroke="rgb(60, 60, 60)" stroke-width="1px" opacity="0.25"></line><line x1="69.64599990844727" y1="0" x2="69.64599990844727" y2="177.9749994277954" fill="rgb(0, 0, 0)" stroke="rgb(60, 60, 60)" stroke-width="1px" opacity="0.25"></line><line x1="104.4689998626709" y1="0" x2="104.4689998626709" y2="177.9749994277954" fill="rgb(0, 0, 0)" stroke="rgb(60, 60, 60)" stroke-width="1px" opacity="0.25"></line><line x1="139.29199981689453" y1="0" x2="139.29199981689453" y2="177.9749994277954" fill="rgb(0, 0, 0)" stroke="rgb(60, 60, 60)" stroke-width="1px" opacity="0.25"></line><line x1="174.11499977111816" y1="0" x2="174.11499977111816" y2="177.9749994277954" fill="rgb(0, 0, 0)" stroke="rgb(60, 60, 60)" stroke-width="1px" opacity="0.25"></line><line x1="208.9379997253418" y1="0" x2="208.9379997253418" y2="177.9749994277954" fill="rgb(0, 0, 0)" stroke="rgb(60, 60, 60)" stroke-width="1px" opacity="0.25"></line><line x1="243.76099967956543" y1="0" x2="243.76099967956543" y2="177.9749994277954" fill="rgb(0, 0, 0)" stroke="rgb(60, 60, 60)" stroke-width="1px" opacity="0.25"></line><line x1="278.58399963378906" y1="0" x2="278.58399963378906" y2="177.9749994277954" fill="rgb(0, 0, 0)" stroke="rgb(60, 60, 60)" stroke-width="1px" opacity="0.25"></line></g><g><line x1="0" y1="177.9749994277954" x2="278.58399963378906" y2="177.9749994277954" fill="rgb(0, 0, 0)" stroke="rgb(60, 60, 60)" stroke-width="1px" opacity="0.25"></line><line x1="0" y1="166.1099994659424" x2="278.58399963378906" y2="166.1099994659424" fill="rgb(0, 0, 0)" stroke="rgb(60, 60, 60)" stroke-width="1px" opacity="0.25"></line><line x1="0" y1="154.24499950408935" x2="278.58399963378906" y2="154.24499950408935" fill="rgb(0, 0, 0)" stroke="rgb(60, 60, 60)" stroke-width="1px" opacity="0.25"></line><line x1="0" y1="142.3799995422363" x2="278.58399963378906" y2="142.3799995422363" fill="rgb(0, 0, 0)" stroke="rgb(60, 60, 60)" stroke-width="1px" opacity="0.25"></line><line x1="0" y1="130.5149995803833" x2="278.58399963378906" y2="130.5149995803833" fill="rgb(0, 0, 0)" stroke="rgb(60, 60, 60)" stroke-width="1px" opacity="0.25"></line><line x1="0" y1="118.64999961853027" x2="278.58399963378906" y2="118.64999961853027" fill="rgb(0, 0, 0)" stroke="rgb(60, 60, 60)" stroke-width="1px" opacity="0.25"></line><line x1="0" y1="106.78499965667723" x2="278.58399963378906" y2="106.78499965667723" fill="rgb(0, 0, 0)" stroke="rgb(60, 60, 60)" stroke-width="1px" opacity="0.25"></line><line x1="0" y1="94.91999969482423" x2="278.58399963378906" y2="94.91999969482423" fill="rgb(0, 0, 0)" stroke="rgb(60, 60, 60)" stroke-width="1px" opacity="0.25"></line><line x1="0" y1="83.0549997329712" x2="278.58399963378906" y2="83.0549997329712" fill="rgb(0, 0, 0)" stroke="rgb(60, 60, 60)" stroke-width="1px" opacity="0.25"></line><line x1="0" y1="71.18999977111817" x2="278.58399963378906" y2="71.18999977111817" fill="rgb(0, 0, 0)" stroke="rgb(60, 60, 60)" stroke-width="1px" opacity="0.25"></line><line x1="0" y1="59.32499980926514" x2="278.58399963378906" y2="59.32499980926514" fill="rgb(0, 0, 0)" stroke="rgb(60, 60, 60)" stroke-width="1px" opacity="0.25"></line><line x1="0" y1="47.45999984741209" x2="278.58399963378906" y2="47.45999984741209" fill="rgb(0, 0, 0)" stroke="rgb(60, 60, 60)" stroke-width="1px" opacity="0.25"></line><line x1="0" y1="35.594999885559105" x2="278.58399963378906" y2="35.594999885559105" fill="rgb(0, 0, 0)" stroke="rgb(60, 60, 60)" stroke-width="1px" opacity="0.25"></line><line x1="0" y1="23.72999992370606" x2="278.58399963378906" y2="23.72999992370606" fill="rgb(0, 0, 0)" stroke="rgb(60, 60, 60)" stroke-width="1px" opacity="0.25"></line><line x1="0" y1="11.864999961853044" x2="278.58399963378906" y2="11.864999961853044" fill="rgb(0, 0, 0)" stroke="rgb(60, 60, 60)" stroke-width="1px" opacity="0.25"></line><line x1="0" y1="0" x2="278.58399963378906" y2="0" fill="rgb(0, 0, 0)" stroke="rgb(60, 60, 60)" stroke-width="1px" opacity="0.25"></line></g></g></g><g><g><line x1="0" y1="154.24499950408935" x2="278.58399963378906" y2="154.24499950408935" fill="rgb(0, 0, 0)" stroke="rgb(153, 153, 153)" stroke-width="1.5px"></line></g></g><g><g><line x1="34.82299995422363" y1="0" x2="34.82299995422363" y2="177.9749994277954" fill="rgb(0, 0, 0)" stroke="rgb(153, 153, 153)" stroke-width="1.5px"></line></g></g><g><g><g><g><g><path style="fill: none;" stroke="rgb(238, 51, 119)" stroke-width="2px" d="M41.78759994506836,-1.1036224437040119L42.48405994415283,9.96224819914309L43.18051994323731,9.414161140453757L43.876979942321775,12.985340828869852L44.57343994140625,21.9638130685847L45.269899940490724,29.251334186922236L45.9663599395752,29.0807270617116L46.66281993865967,36.77186656215906L47.35927993774414,38.5758933478123L48.05573993682861,42.17051701815819L48.75219993591308,34.64460985370064L49.44865993499756,48.19084671262374L50.14511993408203,50.54180073402925L50.8415799331665,49.42101573969259L51.538039932250975,54.215023624636714L52.23449993133545,58.575116289284765L52.930959930419924,54.8671269989287L53.6274199295044,54.08211074488176L54.323879928588866,52.01694699610458L55.02033992767334,65.16229530007455L55.716799926757815,64.94984261194439L56.41325992584229,63.35776639595461L57.10971992492676,66.6888485922094L57.806179924011225,66.56341091272586L58.5026399230957,69.8094512137453L59.199099922180174,72.39315482468018L59.89555992126465,74.43060304851541L60.592019920349124,74.09332795282567L61.28847991943359,77.9263235251094L61.984939918518066,81.87433251462492L62.68139991760254,82.64530359578723L63.377859916687015,77.35932569487248L64.07431991577148,78.52218963113431L64.77077991485596,82.63747479096182L65.46723991394043,87.09120194150726L66.1636999130249,85.26037193066132L66.86015991210937,83.72902376077433L67.55661991119385,86.04790584913266L68.25307991027832,87.17751681313699L68.9495399093628,93.42050422316093L69.64599990844727,91.59278593239013L70.34245990753173,91.21798632143064L71.03891990661621,88.4276574254154L71.73537990570068,92.46145087972967L72.43183990478516,94.29076039099344L73.12829990386963,94.59877824588578L73.8247599029541,98.2956325288366L74.52121990203858,103.80917971256473L75.21767990112305,96.40316570818412L75.91413990020753,102.25281048443718L76.610599899292,97.95562760599005L77.30705989837647,101.79929142766774L78.00351989746095,102.72934919767157L78.6999798965454,96.689889496835L79.39643989562988,103.42337592788498L80.09289989471435,99.55667476951463L80.78935989379882,106.23174572824495L81.4858198928833,102.78416143958604L82.18227989196777,99.75213675882542L82.87873989105225,101.11492870991496L83.57519989013672,106.21252378468988L84.27165988922118,109.05629647299564L84.96811988830567,108.1571331328742L85.66457988739013,105.67776054559498L86.36103988647461,107.43724730162727L87.05749988555908,113.4433727011589L87.75395988464355,104.52907615194827L88.45041988372803,104.75164546636817L89.1468798828125,113.32974187773321L89.84333988189698,112.65282607188753L90.53979988098145,110.63765847099943L91.23625988006592,108.58436876314532L91.9327198791504,106.99197076701141L92.62917987823486,109.59382489970277L93.32563987731935,108.8479986383749L94.02209987640381,108.26351859898857L94.71855987548828,111.36883489565535L95.41501987457276,117.0487141255363L96.11147987365722,109.3076598062472L96.8079398727417,107.97723327998465L97.50439987182617,111.4316492086267L98.20085987091063,113.61215876291645L98.89731986999512,110.37720042861916L99.59377986907958,114.12163220430976L100.29023986816406,116.26395246676826L100.98669986724853,108.85420793434302L101.683159866333,109.16815573760583L102.37961986541748,114.66896608529912L103.07607986450195,114.04104572645471L103.77253986358643,114.82270627328424L104.4689998626709,109.71302145880831L105.16545986175537,114.50384690276647L105.86191986083985,111.61593375798576L106.55837985992432,107.71040328354142L107.2548398590088,110.40522358952312L107.95129985809326,112.48001599030555L108.64775985717773,115.43111473283929L109.34421985626221,118.42389991624331L110.04067985534668,116.57990167180665L110.73713985443116,117.94560378837556L111.43359985351563,119.3946717145939L112.1300598526001,111.59191693667854L112.82651985168458,109.89587744576924L113.52297985076903,118.00258009016048L114.21943984985352,119.23699590792282L114.91589984893798,121.17201903664838L115.61235984802245,118.93839454230331L116.30881984710693,121.45505826584665L117.0052798461914,112.8026730737332L117.70173984527588,120.49116761211675L118.39819984436035,114.22549646995417L119.09465984344482,119.87072598958932L119.7911198425293,115.80844968845092L120.48757984161377,117.89202562635454L121.18403984069825,118.73168439213L121.88049983978271,123.95490455680206L122.57695983886718,122.83642506415745L123.27341983795166,116.64047413190568L123.96987983703613,114.534709508239L124.66633983612061,117.94994251625306L125.36279983520508,113.71226067610637L126.05925983428955,118.20745856874412L126.75571983337403,121.43215176283897L127.4521798324585,119.24639471696796L128.14863983154297,124.50909836613889L128.84509983062745,110.06058291097371L129.54155982971193,115.19433405139442L130.23801982879638,119.92242651142865L130.93447982788086,122.91098612041245L131.63093982696532,114.39733767505821L132.3273998260498,119.80674124554426L133.02385982513428,122.0126820393572L133.72031982421873,123.53183085213143L134.41677982330322,124.73425429787125L135.1132398223877,126.94491217643446L135.80969982147215,120.2217315501106L136.50615982055663,120.71577015272211L137.20261981964111,116.29365171325813L137.8990798187256,127.8575796744729L138.59553981781005,126.69061746143029L139.29199981689453,118.97358526751671L139.98845981597898,121.58747963527154L140.68491981506347,122.57001232108794L141.38137981414795,125.82654053317881L142.07783981323243,121.50827928726815L142.77429981231688,124.46109301188878L143.47075981140136,118.16865754103445L144.16721981048582,123.72024903872668L144.86367980957033,123.34335608880755L145.56013980865478,122.08649345395773L146.25659980773926,122.25849024506553L146.95305980682372,120.97387672481833L147.6495198059082,126.29150753738378L148.34597980499268,134.35270657974442L149.04243980407716,131.05449546282884L149.73889980316162,124.81884534730025L150.4353598022461,124.0418665247656L151.13181980133055,131.17832600961447L151.82827980041506,125.84636714052121L152.5247397994995,122.53591423394639L153.221199798584,122.5126435182481L153.91765979766845,127.71327896005661L154.61411979675293,125.02116549693574L155.3105797958374,132.3110151012613L156.0070397949219,131.64105469699265L156.70349979400635,127.29834876826445L157.3999597930908,125.06261502275481L158.09641979217528,125.77071875026269L158.79287979125976,128.4429861577907L159.48933979034425,131.7686582043694L160.1857997894287,127.55949103545669L160.88225978851318,126.28015329515506L161.57871978759763,126.83879898582666L162.27517978668214,132.51998655255738L162.9716397857666,129.82366696326676L163.66809978485108,130.38664430972477L164.36455978393553,130.37907363622378L165.06101978302001,125.89890924119905L165.7574797821045,130.27512980955473L166.45393978118898,131.72693993908928L167.15039978027343,133.6112402625673L167.8468597793579,131.72878575486112L168.54331977844237,135.54645610577478L169.23977977752688,131.11411672667762L169.93623977661133,127.33636832990979L170.6326997756958,132.69578989668892L171.32915977478027,130.33469449667487L172.02561977386475,127.37816792423732L172.72207977294923,134.51279396947373L173.4185397720337,131.27620021411423L174.11499977111816,131.96592711295108L174.81145977020262,135.6021258387327L175.5079197692871,128.46325123478005L176.20437976837158,131.38741415041338L176.90083976745606,131.72565989060382L177.59729976654052,137.09670267104994L178.293759765625,133.90839184951543L178.99021976470945,127.53147671466658L179.68667976379396,135.36538935785705L180.38313976287841,125.92110853509874L181.0795997619629,133.56211221385826L181.77605976104735,133.418433843457L182.47251976013183,134.9115184645564L183.1689797592163,133.54259677852338L183.8654397583008,131.96427931572947L184.56189975738525,133.37364629064822L185.25835975646973,131.57415801944546L185.95481975555418,130.58798851079123L186.6512797546387,137.1275033957255L187.34773975372315,138.18853452450563L188.04419975280763,135.78636795554527L188.74065975189208,132.01338614816527L189.43711975097656,134.79267551000484L190.13357975006105,134.78033824711602L190.83003974914553,136.48870969684583L191.52649974822998,136.24740110908706L192.22295974731443,133.65466997388873L192.91941974639892,135.80153405486604L193.6158797454834,134.22913062823767L194.31233974456788,139.36471874431638L195.00879974365233,138.07523432133792L195.7052597427368,135.9145372302084L196.40171974182127,136.45592525062236L197.09817974090578,141.89883550463344L197.79463973999023,139.577567469547L198.4910997390747,139.44646681313128L199.18755973815917,140.55239334410913L199.88401973724365,136.64965457761858L200.58047973632813,140.220228718236L201.2769397354126,139.14780356671483L201.97339973449706,138.78916368387283L202.66985973358155,142.03680050945354L203.366319732666,140.1043551579266L204.0627797317505,143.44180400417602L204.75923973083496,138.69740860617992L205.45569972991944,141.35952844701973L206.1521597290039,141.09300873857262L206.84861972808838,140.04152581676172L207.54507972717286,139.43810760147488L208.24153972625734,141.86639759087285L208.9379997253418,140.18554541555758L209.63445972442625,141.3828636955491L210.33091972351073,142.32872670510505L211.0273797225952,143.10267248457782L211.7238397216797,141.56122183258324L212.42029972076415,141.14303847889434L213.11675971984863,142.35084909001424L213.81321971893308,145.49057376181872L214.5096797180176,144.08153829116932L215.20613971710205,144.61176831988203L215.90259971618653,144.10421229918276L216.59905971527098,143.2061981738618L217.29551971435546,141.70447764554248L217.99197971343995,145.31555718781982L218.68843971252443,143.87226627600234L219.38489971160888,145.54124706242868L220.08135971069336,144.60948315045187L220.77781970977782,145.0442054731424L221.47427970886233,147.68023858001703L222.17073970794678,143.186747271358L222.86719970703126,145.66969745271226L223.56365970611571,144.73489342558244L224.2601197052002,144.32404559836613L224.95657970428468,145.73966518581088L225.65303970336916,144.97385849915963L226.3494997024536,145.71233332180998L227.04595970153807,143.92266111302607L227.74241970062255,144.13215059499376L228.43887969970703,144.4835822490026L229.1353396987915,144.59350376065692L229.83179969787597,144.90638014212112L230.52825969696045,146.3058435374939L231.2247196960449,147.38878798249067L231.9211796951294,144.8082672545474L232.61763969421386,146.93118258309414L233.31409969329835,146.87015132108633L234.0105596923828,145.39309824645358L234.70701969146728,147.44447627968765L235.40347969055176,145.79002643040195L236.09993968963624,145.2706370333033L236.7963996887207,148.93800953656495L237.49285968780518,145.22995129332082L238.18931968688963,147.8706347420862L238.88577968597414,147.11739648730094L239.5822396850586,145.06804991222953L240.27869968414308,148.03259093188336L240.97515968322753,146.0063661165919L241.671619682312,145.31279995631004L242.3680796813965,146.24053189236L243.06453968048098,147.10854974336573" fill="none"></path></g><g><path style="fill: none;" stroke="rgb(204, 51, 17)" stroke-width="2px" d="M41.09113994598388,-9.374942152161253L41.78759994506836,2.3740783448184573L42.48405994415283,13.234236002334569L43.18051994323731,11.478688401033736L43.876979942321775,15.79983506010501L44.57343994140625,22.983099411743154L45.269899940490724,28.657349257124537L45.9663599395752,27.491161438055173L46.66281993865967,34.92227429367824L47.35927993774414,36.5150152862295L48.05573993682861,38.68080074689101L48.75219993591308,30.19643429465293L49.44865993499756,42.30507062304366L50.14511993408203,44.41640805448128L50.8415799331665,43.191564311995506L51.538039932250975,46.92133564287755L52.23449993133545,49.18966642419707L52.930959930419924,47.657844424207696L53.6274199295044,44.95647536188605L54.323879928588866,44.92035819274122L55.02033992767334,54.883201861953225L55.716799926757815,53.38241926971338L56.41325992584229,51.41172451358099L57.10971992492676,55.22842598801671L57.806179924011225,53.91197037768244L58.5026399230957,57.264495154091364L59.199099922180174,58.8415148881721L59.89555992126465,61.18258212624798L60.592019920349124,58.76375017465794L61.28847991943359,63.02703298451375L61.984939918518066,65.27060437496264L62.68139991760254,66.19165937302179L63.377859916687015,58.31749415542751L64.07431991577148,60.26296983476912L64.77077991485596,64.1427967941837L65.46723991394043,67.46736559455393L66.1636999130249,68.04186691342656L66.86015991210937,64.21933096384996L67.55661991119385,66.37865960535552L68.25307991027832,67.28621398154324L68.9495399093628,71.19762489972048L69.64599990844727,69.37398013341168L70.34245990753173,68.91122492569193L71.03891990661621,65.53121800334665L71.73537990570068,68.3828690011154L72.43183990478516,69.01473912282788L73.12829990386963,69.46807430522925L73.8247599029541,72.69137783342693L74.52121990203858,76.4228606103503L75.21767990112305,68.38158188053885L75.91413990020753,74.6459199335329L76.610599899292,69.88461339774209L77.30705989837647,71.50546595233581L78.00351989746095,73.70975894892716L78.6999798965454,68.48026583946726L79.39643989562988,73.68528244169975L80.09289989471435,69.80588687984105L80.78935989379882,74.45134549165263L81.4858198928833,72.48438479961041L82.18227989196777,67.1916459796233L82.87873989105225,71.05213784202553L83.57519989013672,72.69913591734152L84.27165988922118,77.27820173809536L84.96811988830567,74.54311294550494L85.66457988739013,71.95611374012684L86.36103988647461,73.05646746333376L87.05749988555908,79.28497123082614L87.75395988464355,71.86088096164539L88.45041988372803,70.56611545465304L89.1468798828125,77.68580877957433L89.84333988189698,76.6155609480944L90.53979988098145,75.2197352595708L91.23625988006592,72.08573102543855L91.9327198791504,72.61492145676253L92.62917987823486,71.77481361320348L93.32563987731935,72.23403984747436L94.02209987640381,72.99193463223001L94.71855987548828,73.94756508357861L95.41501987457276,78.65797377986767L96.11147987365722,72.0494370540167L96.8079398727417,69.91686920515734L97.50439987182617,74.66493678644666L98.20085987091063,75.64442140100763L98.89731986999512,72.65737521951495L99.59377986907958,76.31698433479367L100.29023986816406,77.82532699239786L100.98669986724853,70.22560134124875L101.683159866333,70.33705749666738L102.37961986541748,74.2506819793526L103.07607986450195,75.14862538376279L103.77253986358643,76.62316344600525L104.4689998626709,71.19942828294585L105.16545986175537,75.01621462247452L105.86191986083985,73.49688193533221L106.55837985992432,68.44051361550736L107.2548398590088,69.82018664800454L107.95129985809326,72.8640287929596L108.64775985717773,73.71050859058163L109.34421985626221,79.07473917929507L110.04067985534668,76.62558917324563L110.73713985443116,78.05893937703897L111.43359985351563,77.85422355655018L112.1300598526001,71.85346941019371L112.82651985168458,69.7652718607694L113.52297985076903,76.62677021245598L114.21943984985352,77.69883557134344L114.91589984893798,78.20265133987287L115.61235984802245,77.10826646153735L116.30881984710693,78.76032108197545L117.0052798461914,69.62717513825292L117.70173984527588,79.76835572822583L118.39819984436035,71.68569819350611L119.09465984344482,77.39371020170277L119.7911198425293,72.5683588090927L120.48757984161377,75.682264160376L121.18403984069825,75.36241469710703L121.88049983978271,79.47980734007636L122.57695983886718,78.65896387261886L123.27341983795166,73.34649391851893L123.96987983703613,72.22948542081893L124.66633983612061,73.81488558282932L125.36279983520508,72.63833715032796L126.05925983428955,75.04692164194329L126.75571983337403,79.28576330502709L127.4521798324585,74.5037921191009L128.14863983154297,80.12515686738708L128.84509983062745,68.49709034414626L129.54155982971193,70.50675232212868L130.23801982879638,77.68976915057907L130.93447982788086,80.4023474772623L131.63093982696532,70.75092333875203L132.3273998260498,76.46220265302756L133.02385982513428,78.62088773424487L133.72031982421873,80.17228528234328L134.41677982330322,79.34591143966132L135.1132398223877,83.85825208107666L135.80969982147215,76.7658358114504L136.50615982055663,77.03086242466824L137.20261981964111,71.92619879485902L137.8990798187256,83.03600126749424L138.59553981781005,81.47686685175448L139.29199981689453,74.33638865114948L139.98845981597898,76.49972009620625L140.68491981506347,76.2820977094967L141.38137981414795,81.79369653213233L142.07783981323243,77.05370527885621L142.77429981231688,80.23629477870712L143.47075981140136,73.00843382071933L144.16721981048582,78.25158313805443L144.86367980957033,77.03618063716031L145.56013980865478,76.62867260495646L146.25659980773926,76.79842400714641L146.95305980682372,76.18138406042837L147.6495198059082,81.32343783577686L148.34597980499268,86.61982585476117L149.04243980407716,85.031787802778L149.73889980316162,78.5262277951409L150.4353598022461,78.54232387443868L151.13181980133055,83.27735051977673L151.82827980041506,79.95607024175864L152.5247397994995,78.0217401779589L153.221199798584,75.98359888919786L153.91765979766845,81.48614543525126L154.61411979675293,77.84503691023744L155.3105797958374,82.71166809848066L156.0070397949219,83.49464051820551L156.70349979400635,79.93759086776696L157.3999597930908,77.9958563246066L158.09641979217528,78.4222044074472L158.79287979125976,82.44710824327409L159.48933979034425,82.75817416942184L160.1857997894287,78.75638899933504L160.88225978851318,78.33013992576956L161.57871978759763,79.34838667153927L162.27517978668214,83.3377603217809L162.9716397857666,82.5304386924681L163.66809978485108,81.2490747980721L164.36455978393553,82.14322756166347L165.06101978302001,77.70694725981205L165.7574797821045,82.42483115637252L166.45393978118898,83.81044474537678L167.15039978027343,85.98821740041863L167.8468597793579,83.26368016771936L168.54331977844237,86.34843435957143L169.23977977752688,81.76590321418847L169.93623977661133,80.41219890013654L170.6326997756958,82.80270005486067L171.32915977478027,81.22973970105976L172.02561977386475,79.76142507896758L172.72207977294923,85.15598786632255L173.4185397720337,82.40287231356955L174.11499977111816,83.30763321378069L174.81145977020262,85.68546118128971L175.5079197692871,80.06285174497349L176.20437976837158,82.11079495197122L176.90083976745606,83.66372007174287L177.59729976654052,87.82464850739983L178.293759765625,83.69369866583041L178.99021976470945,78.18086929934688L179.68667976379396,84.18686386519356L180.38313976287841,76.2755630973389L181.0795997619629,83.60195242825135L181.77605976104735,82.34333945085926L182.47251976013183,82.74265800159263L183.1689797592163,82.65077032219197L183.8654397583008,81.65556444916044L184.56189975738525,83.48345247011716L185.25835975646973,80.68557058082864L185.95481975555418,79.86116985155796L186.6512797546387,85.09335742771928L187.34773975372315,86.49752111162601L188.04419975280763,85.03743133145973L188.74065975189208,81.2263875298879L189.43711975097656,82.9176003186352L190.13357975006105,82.78514712480045L190.83003974914553,84.4085880647294L191.52649974822998,84.91422843275744L192.22295974731443,81.948723840694L192.91941974639892,82.92275587303241L193.6158797454834,82.05752088986661L194.31233974456788,87.6725844050006L195.00879974365233,86.56232268219081L195.7052597427368,83.56752548887458L196.40171974182127,84.04943191923859L197.09817974090578,90.4639528984046L197.79463973999023,86.98053078819848L198.4910997390747,87.30395872955386L199.18755973815917,87.49365342858901L199.88401973724365,83.49630953170035L200.58047973632813,87.65510926794228L201.2769397354126,86.69375749491006L201.97339973449706,85.7582329985015L202.66985973358155,89.71154605632692L203.366319732666,89.24480218923814L204.0627797317505,91.0655473982042L204.75923973083496,85.63124653107148L205.45569972991944,88.47120029019412L206.1521597290039,88.55005410573459L206.84861972808838,87.85713062172964L207.54507972717286,86.46667265033565L208.24153972625734,89.86829895511208L208.9379997253418,88.08716452828433L209.63445972442625,89.46022515562184L210.33091972351073,90.4138047005573L211.0273797225952,90.79784046246708L211.7238397216797,89.73660954711396L212.42029972076415,88.2908336792933L213.11675971984863,89.81612106712485L213.81321971893308,92.62142157995616L214.5096797180176,91.42012790076636L215.20613971710205,92.2061554638377L215.90259971618653,91.18454240271397L216.59905971527098,90.04018612880814L217.29551971435546,89.13416639638477L217.99197971343995,92.92562050566538L218.68843971252443,90.7647501483044L219.38489971160888,93.03001871418631L220.08135971069336,91.69715585254674L220.77781970977782,92.87807483733546L221.47427970886233,95.44280402790308L222.17073970794678,90.09529186250244L222.86719970703126,92.54668372142417L223.56365970611571,91.58877605674785L224.2601197052002,90.93638272672159L224.95657970428468,92.22334064516177L225.65303970336916,91.74634931809827L226.3494997024536,91.8836539664138L227.04595970153807,89.95406927572866L227.74241970062255,90.30326084488796L228.43887969970703,91.18782385297503L229.1353396987915,90.97881527320077L229.83179969787597,91.19458477204738L230.52825969696045,93.23849688712959L231.2247196960449,95.17071946778752L231.9211796951294,91.12112696200084L232.61763969421386,93.67925789159095L233.31409969329835,94.12322962540257L234.0105596923828,91.93677244251465L234.70701969146728,94.58628186094766L235.40347969055176,92.47424429249314L236.09993968963624,91.79344237259907L236.7963996887207,97.47843118828523L237.49285968780518,91.83795411385573L238.18931968688963,96.06595779735964L238.88577968597414,94.68100544887135L239.5822396850586,92.07042789183298L240.27869968414308,96.03664044378807L240.97515968322753,93.27306526832795L241.671619682312,91.88293261312366L242.3680796813965,93.55725724837224L243.06453968048098,94.41031409069852" fill="none"></path></g></g></g></g></g><g><g opacity="0.562939"><span fill="rgb(0, 0, 0)" stroke="none" stroke-width="1px">Alt + Scroll to Zoom</span></g></g></g><g transform="translate(51, 177)" clip-path="url(#clip_1)"><clipPath id="clip_1"><rect width="278" height="22"></rect></clipPath><g><g><line x1="0" y1="0" x2="0" y2="5" style="visibility: inherit;" fill="rgb(0, 0, 0)" stroke="rgb(204, 204, 204)" stroke-width="1px"></line><line x1="34.82299995422363" y1="0" x2="34.82299995422363" y2="5" style="visibility: inherit;" fill="rgb(0, 0, 0)" stroke="rgb(204, 204, 204)" stroke-width="1px"></line><line x1="69.64599990844727" y1="0" x2="69.64599990844727" y2="5" style="visibility: inherit;" fill="rgb(0, 0, 0)" stroke="rgb(204, 204, 204)" stroke-width="1px"></line><line x1="104.4689998626709" y1="0" x2="104.4689998626709" y2="5" style="visibility: inherit;" fill="rgb(0, 0, 0)" stroke="rgb(204, 204, 204)" stroke-width="1px"></line><line x1="139.29199981689453" y1="0" x2="139.29199981689453" y2="5" style="visibility: inherit;" fill="rgb(0, 0, 0)" stroke="rgb(204, 204, 204)" stroke-width="1px"></line><line x1="174.11499977111816" y1="0" x2="174.11499977111816" y2="5" style="visibility: inherit;" fill="rgb(0, 0, 0)" stroke="rgb(204, 204, 204)" stroke-width="1px"></line><line x1="208.9379997253418" y1="0" x2="208.9379997253418" y2="5" style="visibility: inherit;" fill="rgb(0, 0, 0)" stroke="rgb(204, 204, 204)" stroke-width="1px"></line><line x1="243.76099967956543" y1="0" x2="243.76099967956543" y2="5" style="visibility: inherit;" fill="rgb(0, 0, 0)" stroke="rgb(204, 204, 204)" stroke-width="1px"></line><line x1="278.58399963378906" y1="0" x2="278.58399963378906" y2="5" style="visibility: inherit;" fill="rgb(0, 0, 0)" stroke="rgb(204, 204, 204)" stroke-width="1px"></line></g><g transform="translate(0, 8)"><text style="text-anchor: middle; visibility: hidden; font-family: &quot;Helvetica Neue&quot;, sans-serif; font-size: 12px; font-weight: 200;" x="0" y="0" dx="0em" dy="0.95em" fill="rgb(50, 49, 63)" stroke="none" stroke-width="1px">-50</text><text style="text-anchor: middle; visibility: inherit; font-family: &quot;Helvetica Neue&quot;, sans-serif; font-size: 12px; font-weight: 200;" x="34.82299995422363" y="0" dx="0em" dy="0.95em" fill="rgb(50, 49, 63)" stroke="none" stroke-width="1px">0</text><text style="text-anchor: middle; visibility: inherit; font-family: &quot;Helvetica Neue&quot;, sans-serif; font-size: 12px; font-weight: 200;" x="69.64599990844727" y="0" dx="0em" dy="0.95em" fill="rgb(50, 49, 63)" stroke="none" stroke-width="1px">50</text><text style="text-anchor: middle; visibility: inherit; font-family: &quot;Helvetica Neue&quot;, sans-serif; font-size: 12px; font-weight: 200;" x="104.4689998626709" y="0" dx="0em" dy="0.95em" fill="rgb(50, 49, 63)" stroke="none" stroke-width="1px">100</text><text style="text-anchor: middle; visibility: inherit; font-family: &quot;Helvetica Neue&quot;, sans-serif; font-size: 12px; font-weight: 200;" x="139.29199981689453" y="0" dx="0em" dy="0.95em" fill="rgb(50, 49, 63)" stroke="none" stroke-width="1px">150</text><text style="text-anchor: middle; visibility: inherit; font-family: &quot;Helvetica Neue&quot;, sans-serif; font-size: 12px; font-weight: 200;" x="174.11499977111816" y="0" dx="0em" dy="0.95em" fill="rgb(50, 49, 63)" stroke="none" stroke-width="1px">200</text><text style="text-anchor: middle; visibility: inherit; font-family: &quot;Helvetica Neue&quot;, sans-serif; font-size: 12px; font-weight: 200;" x="208.9379997253418" y="0" dx="0em" dy="0.95em" fill="rgb(50, 49, 63)" stroke="none" stroke-width="1px">250</text><text style="text-anchor: middle; visibility: inherit; font-family: &quot;Helvetica Neue&quot;, sans-serif; font-size: 12px; font-weight: 200;" x="243.76099967956543" y="0" dx="0em" dy="0.95em" fill="rgb(50, 49, 63)" stroke="none" stroke-width="1px">300</text><text style="text-anchor: middle; visibility: hidden; font-family: &quot;Helvetica Neue&quot;, sans-serif; font-size: 12px; font-weight: 200;" x="278.58399963378906" y="0" dx="0em" dy="0.95em" fill="rgb(50, 49, 63)" stroke="none" stroke-width="1px">350</text></g><line x1="0" y1="0" x2="278.58399963378906" y2="0" fill="rgb(0, 0, 0)" stroke="rgb(204, 204, 204)" stroke-width="1px"></line></g></g></g></g></svg>