<svg viewBox="0 0 330 200" xmlns="http://www.w3.org/2000/svg"><g><g><g><g><g><line x1="51.41600036621094" y1="177.9749994277954" x2="46.41600036621094" y2="177.9749994277954" style="visibility: inherit;" fill="rgb(0, 0, 0)" stroke="rgb(204, 204, 204)" stroke-width="1px"></line><line x1="51.41600036621094" y1="158.1999994913737" x2="46.41600036621094" y2="158.1999994913737" style="visibility: inherit;" fill="rgb(0, 0, 0)" stroke="rgb(204, 204, 204)" stroke-width="1px"></line><line x1="51.41600036621094" y1="138.424999554952" x2="46.41600036621094" y2="138.424999554952" style="visibility: inherit;" fill="rgb(0, 0, 0)" stroke="rgb(204, 204, 204)" stroke-width="1px"></line><line x1="51.41600036621094" y1="118.64999961853027" x2="46.41600036621094" y2="118.64999961853027" style="visibility: inherit;" fill="rgb(0, 0, 0)" stroke="rgb(204, 204, 204)" stroke-width="1px"></line><line x1="51.41600036621094" y1="98.87499968210857" x2="46.41600036621094" y2="98.87499968210857" style="visibility: inherit;" fill="rgb(0, 0, 0)" stroke="rgb(204, 204, 204)" stroke-width="1px"></line><line x1="51.41600036621094" y1="79.09999974568684" x2="46.41600036621094" y2="79.09999974568684" style="visibility: inherit;" fill="rgb(0, 0, 0)" stroke="rgb(204, 204, 204)" stroke-width="1px"></line><line x1="51.41600036621094" y1="59.32499980926514" x2="46.41600036621094" y2="59.32499980926514" style="visibility: inherit;" fill="rgb(0, 0, 0)" stroke="rgb(204, 204, 204)" stroke-width="1px"></line><line x1="51.41600036621094" y1="39.549999872843415" x2="46.41600036621094" y2="39.549999872843415" style="visibility: inherit;" fill="rgb(0, 0, 0)" stroke="rgb(204, 204, 204)" stroke-width="1px"></line><line x1="51.41600036621094" y1="19.77499993642172" x2="46.41600036621094" y2="19.77499993642172" style="visibility: inherit;" fill="rgb(0, 0, 0)" stroke="rgb(204, 204, 204)" stroke-width="1px"></line><line x1="51.41600036621094" y1="0" x2="46.41600036621094" y2="0" style="visibility: inherit;" fill="rgb(0, 0, 0)" stroke="rgb(204, 204, 204)" stroke-width="1px"></line></g><g transform="translate(41.41600036621094, 0)"><text style="text-anchor: end; visibility: hidden; font-family: &quot;Helvetica Neue&quot;, sans-serif; font-size: 12px; font-weight: 200;" x="0" y="177.9749994277954" dx="0em" dy="0.3em" fill="rgb(50, 49, 63)" stroke="none" stroke-width="1px">-0.5</text><text style="text-anchor: end; visibility: inherit; font-family: &quot;Helvetica Neue&quot;, sans-serif; font-size: 12px; font-weight: 200;" x="0" y="158.1999994913737" dx="0em" dy="0.3em" fill="rgb(50, 49, 63)" stroke="none" stroke-width="1px">0</text><text style="text-anchor: end; visibility: hidden; font-family: &quot;Helvetica Neue&quot;, sans-serif; font-size: 12px; font-weight: 200;" x="0" y="138.424999554952" dx="0em" dy="0.3em" fill="rgb(50, 49, 63)" stroke="none" stroke-width="1px">0.5</text><text style="text-anchor: end; visibility: inherit; font-family: &quot;Helvetica Neue&quot;, sans-serif; font-size: 12px; font-weight: 200;" x="0" y="118.64999961853027" dx="0em" dy="0.3em" fill="rgb(50, 49, 63)" stroke="none" stroke-width="1px">1</text><text style="text-anchor: end; visibility: hidden; font-family: &quot;Helvetica Neue&quot;, sans-serif; font-size: 12px; font-weight: 200;" x="0" y="98.87499968210857" dx="0em" dy="0.3em" fill="rgb(50, 49, 63)" stroke="none" stroke-width="1px">1.5</text><text style="text-anchor: end; visibility: inherit; font-family: &quot;Helvetica Neue&quot;, sans-serif; font-size: 12px; font-weight: 200;" x="0" y="79.09999974568684" dx="0em" dy="0.3em" fill="rgb(50, 49, 63)" stroke="none" stroke-width="1px">2</text><text style="text-anchor: end; visibility: hidden; font-family: &quot;Helvetica Neue&quot;, sans-serif; font-size: 12px; font-weight: 200;" x="0" y="59.32499980926514" dx="0em" dy="0.3em" fill="rgb(50, 49, 63)" stroke="none" stroke-width="1px">2.5</text><text style="text-anchor: end; visibility: inherit; font-family: &quot;Helvetica Neue&quot;, sans-serif; font-size: 12px; font-weight: 200;" x="0" y="39.549999872843415" dx="0em" dy="0.3em" fill="rgb(50, 49, 63)" stroke="none" stroke-width="1px">3</text><text style="text-anchor: end; visibility: hidden; font-family: &quot;Helvetica Neue&quot;, sans-serif; font-size: 12px; font-weight: 200;" x="0" y="19.77499993642172" dx="0em" dy="0.3em" fill="rgb(50, 49, 63)" stroke="none" stroke-width="1px">3.5</text><text style="text-anchor: end; visibility: hidden; font-family: &quot;Helvetica Neue&quot;, sans-serif; font-size: 12px; font-weight: 200;" x="0" y="0" dx="0em" dy="0.3em" fill="rgb(50, 49, 63)" stroke="none" stroke-width="1px">4</text></g><line x1="51.41600036621094" y1="0" x2="51.41600036621094" y2="177.9749994277954" fill="rgb(0, 0, 0)" stroke="rgb(204, 204, 204)" stroke-width="1px"></line></g></g><g transform="translate(51, 0)" clip-path="url(#clip_0)"><clipPath id="clip_0"><rect width="278" height="177"></rect></clipPath><g><g><g><line x1="0" y1="0" x2="0" y2="177.9749994277954" fill="rgb(0, 0, 0)" stroke="rgb(60, 60, 60)" stroke-width="1px" opacity="0.25"></line><line x1="19.89885711669922" y1="0" x2="19.89885711669922" y2="177.9749994277954" fill="rgb(0, 0, 0)" stroke="rgb(60, 60, 60)" stroke-width="1px" opacity="0.25"></line><line x1="39.79771423339844" y1="0" x2="39.79771423339844" y2="177.9749994277954" fill="rgb(0, 0, 0)" stroke="rgb(60, 60, 60)" stroke-width="1px" opacity="0.25"></line><line x1="59.696571350097656" y1="0" x2="59.696571350097656" y2="177.9749994277954" fill="rgb(0, 0, 0)" stroke="rgb(60, 60, 60)" stroke-width="1px" opacity="0.25"></line><line x1="79.59542846679688" y1="0" x2="79.59542846679688" y2="177.9749994277954" fill="rgb(0, 0, 0)" stroke="rgb(60, 60, 60)" stroke-width="1px" opacity="0.25"></line><line x1="99.4942855834961" y1="0" x2="99.4942855834961" y2="177.9749994277954" fill="rgb(0, 0, 0)" stroke="rgb(60, 60, 60)" stroke-width="1px" opacity="0.25"></line><line x1="119.39314270019531" y1="0" x2="119.39314270019531" y2="177.9749994277954" fill="rgb(0, 0, 0)" stroke="rgb(60, 60, 60)" stroke-width="1px" opacity="0.25"></line><line x1="139.29199981689453" y1="0" x2="139.29199981689453" y2="177.9749994277954" fill="rgb(0, 0, 0)" stroke="rgb(60, 60, 60)" stroke-width="1px" opacity="0.25"></line><line x1="159.19085693359375" y1="0" x2="159.19085693359375" y2="177.9749994277954" fill="rgb(0, 0, 0)" stroke="rgb(60, 60, 60)" stroke-width="1px" opacity="0.25"></line><line x1="179.08971405029297" y1="0" x2="179.08971405029297" y2="177.9749994277954" fill="rgb(0, 0, 0)" stroke="rgb(60, 60, 60)" stroke-width="1px" opacity="0.25"></line><line x1="198.9885711669922" y1="0" x2="198.9885711669922" y2="177.9749994277954" fill="rgb(0, 0, 0)" stroke="rgb(60, 60, 60)" stroke-width="1px" opacity="0.25"></line><line x1="218.8874282836914" y1="0" x2="218.8874282836914" y2="177.9749994277954" fill="rgb(0, 0, 0)" stroke="rgb(60, 60, 60)" stroke-width="1px" opacity="0.25"></line><line x1="238.78628540039062" y1="0" x2="238.78628540039062" y2="177.9749994277954" fill="rgb(0, 0, 0)" stroke="rgb(60, 60, 60)" stroke-width="1px" opacity="0.25"></line><line x1="258.68514251708984" y1="0" x2="258.68514251708984" y2="177.9749994277954" fill="rgb(0, 0, 0)" stroke="rgb(60, 60, 60)" stroke-width="1px" opacity="0.25"></line><line x1="278.58399963378906" y1="0" x2="278.58399963378906" y2="177.9749994277954" fill="rgb(0, 0, 0)" stroke="rgb(60, 60, 60)" stroke-width="1px" opacity="0.25"></line></g><g><line x1="0" y1="177.9749994277954" x2="278.58399963378906" y2="177.9749994277954" fill="rgb(0, 0, 0)" stroke="rgb(60, 60, 60)" stroke-width="1px" opacity="0.25"></line><line x1="0" y1="158.1999994913737" x2="278.58399963378906" y2="158.1999994913737" fill="rgb(0, 0, 0)" stroke="rgb(60, 60, 60)" stroke-width="1px" opacity="0.25"></line><line x1="0" y1="138.424999554952" x2="278.58399963378906" y2="138.424999554952" fill="rgb(0, 0, 0)" stroke="rgb(60, 60, 60)" stroke-width="1px" opacity="0.25"></line><line x1="0" y1="118.64999961853027" x2="278.58399963378906" y2="118.64999961853027" fill="rgb(0, 0, 0)" stroke="rgb(60, 60, 60)" stroke-width="1px" opacity="0.25"></line><line x1="0" y1="98.87499968210857" x2="278.58399963378906" y2="98.87499968210857" fill="rgb(0, 0, 0)" stroke="rgb(60, 60, 60)" stroke-width="1px" opacity="0.25"></line><line x1="0" y1="79.09999974568684" x2="278.58399963378906" y2="79.09999974568684" fill="rgb(0, 0, 0)" stroke="rgb(60, 60, 60)" stroke-width="1px" opacity="0.25"></line><line x1="0" y1="59.32499980926514" x2="278.58399963378906" y2="59.32499980926514" fill="rgb(0, 0, 0)" stroke="rgb(60, 60, 60)" stroke-width="1px" opacity="0.25"></line><line x1="0" y1="39.549999872843415" x2="278.58399963378906" y2="39.549999872843415" fill="rgb(0, 0, 0)" stroke="rgb(60, 60, 60)" stroke-width="1px" opacity="0.25"></line><line x1="0" y1="19.77499993642172" x2="278.58399963378906" y2="19.77499993642172" fill="rgb(0, 0, 0)" stroke="rgb(60, 60, 60)" stroke-width="1px" opacity="0.25"></line><line x1="0" y1="0" x2="278.58399963378906" y2="0" fill="rgb(0, 0, 0)" stroke="rgb(60, 60, 60)" stroke-width="1px" opacity="0.25"></line></g></g></g><g><g><line x1="0" y1="158.1999994913737" x2="278.58399963378906" y2="158.1999994913737" fill="rgb(0, 0, 0)" stroke="rgb(153, 153, 153)" stroke-width="1.5px"></line></g></g><g><g><line x1="19.89885711669922" y1="0" x2="19.89885711669922" y2="177.9749994277954" fill="rgb(0, 0, 0)" stroke="rgb(153, 153, 153)" stroke-width="1.5px"></line></g></g><g><g><g><g><g><path style="fill: none;" stroke="rgb(0, 153, 136)" stroke-width="2px" d="M20.605266544342044,-16.95864810259627L20.826143858337403,3.9097536915008675L21.454947743225098,-8.815446396141851L21.544492600250244,11.058195066661796L22.16135717086792,4.021587025110421L22.211104313659668,13.792378631594005L22.41208277053833,2.3612109108350126L22.591172484588625,4.832567282875203L22.93940248413086,-2.848732581516458L22.95930134124756,7.883740828916416L23.030937226867678,12.030890473786116L23.51845922622681,18.484975087816565L24.04776882553101,4.184584580319097L24.43579653930664,1.324423499617609L24.567128996276853,2.8735320475698245L25.18399356689453,6.817627813354505L25.44466859512329,32.49200582786656L25.603859452056884,21.68994304120784L25.67350545196533,32.2781080757924L25.683454880523684,-1.1265558206578135L26.143118479919433,17.433383432605297L26.272461051177977,19.418377956901168L26.41175305099487,43.962946988858675L26.511247336578368,10.74203487757282L26.931113221740723,31.209854573996978L27.01070865020752,44.5821604249019L27.438534078216552,36.4057010314626L27.49823064956665,-6.485182955872318L27.637522649383545,28.193051390603927L27.657421506500242,33.492838728033945L27.79870339202881,-5.678719406943856L27.858399963378908,33.153265202743256L28.136983963012696,29.337428880782994L29.213512133026125,33.39726177445331L29.46423773269653,45.67209224322082L29.474187161254886,26.399644528388905L29.53388373260498,13.451862160825982L29.80251830368042,13.777942136336293L29.89206316070557,22.888096711958184L30.37162561721802,9.4682286911775L30.401473902893066,4.40150918737541L30.670108473968508,73.93633601736201L30.77955218811035,49.6574135852737L31.3387100730896,62.38465043514741L31.348659501647948,23.61937921798031L31.527749215698243,40.319518817970675L32.15655310058594,28.427175323166466L32.32569338607788,28.385855452350512L32.86495241394043,65.49896361034962L32.89480069961548,24.19117192596937L33.03409269943237,76.2716725042995L33.07389041366577,72.16578615351713L33.54350344161987,46.55641480021117L33.61314944152832,41.47718240992512L33.832036869812015,67.07518184077465L33.94347046966553,46.998665658526676L34.042964755249024,19.36513925525196L34.34144761199951,14.202437331313973L34.45089132614136,29.152149523945354L34.59018332595825,20.061297042244092L34.90060549697876,56.707769771884315L35.189138925170894,24.336677842573863L35.34832978210449,53.19427005831555L35.49956109619141,34.622704287317134L35.5393588104248,30.40520148038499L35.70849909591674,43.24328157111708L36.056729095458984,72.2497648777268L36.55619040908814,40.07550338735109L36.73528012313843,17.3096878448911L36.82482498016358,73.44278892508055L36.964116979980474,35.291356354735996L36.98401583709717,62.26890387780699L37.01386412277222,80.58257877548712L37.44367943649292,20.61655991601583L37.883444178771974,59.215938735358876L38.062533892822266,27.59172563026536L38.15207874984741,46.39956524951458L38.28142132110596,51.62479388805332L38.311269606781,74.01782536551157L38.3908650352478,24.546624653098064L38.78088263473511,72.24728493112146L38.950022920227056,21.73472352192553L39.049517205810545,47.12306845534886L39.079365491485596,76.99560946505335L39.608675090789795,20.85284319372144L39.728068233489985,64.53909226171679L39.956905090332036,26.005889355971703L40.35687211837769,97.52492335078061L40.43646754684448,96.13907166804331L40.47626526107788,36.48047660781367L40.54591126098633,20.49518397417583L41.44334971694946,103.91299706667162L41.48314743118286,41.15115901114345L41.56274285964966,72.42745352347204L41.68213600234986,34.053825280852976L41.873165030670165,66.08041208002639L41.92291217346191,25.711728084868497L41.93286160202027,84.15195272331418L42.13185017318725,85.97763660921767L42.181597315979005,29.887090658419453L42.62136205825806,70.32510000506954L42.740755200958255,35.354297965346774L42.999440343475335,29.21633582258619L43.08898520050049,70.75358385941627L43.429255657196045,98.76731530859918L43.43920508575439,57.60633080558213L43.459103942871096,22.202933669231555L43.89687879943848,43.91248997636754L44.05805954208375,20.8685526653735L44.07795839920044,48.303570186763864L44.12770554199219,45.533799859517785L44.37644125595093,30.37739401825897L44.38639068450928,51.67774970605933L44.485884970092776,29.752192878434784L44.50578382720947,35.84977809585675L44.55553097000122,54.28482422064947L44.69482296981812,35.04000480830291L44.75451954116821,46.42676922653513L44.836104855346676,84.72046398104219L44.98534628372192,48.90046410335904L45.04504285507202,48.09823437962373L46.35040788192749,60.81625865218409L46.5215380531311,90.15369696242185L46.889666909790044,89.46395120467544L47.028958909606935,29.216420687679147L47.36922936630249,29.907656299279694L48.425858679199216,25.177587189788625L49.12430856399536,41.86481786619456L49.20390399246216,24.082422024070638L49.554123877716066,115.05617509447643L49.822758448791504,52.02628121338452L49.852606734466555,94.93738195175304L50.421714048004155,104.75902189310084L51.03061907577515,22.23805838826152L51.37884907531738,68.91147386329794L51.71712964630127,41.947363313278714L51.808664389038086,74.75296451853592L51.84846210327148,52.60381645933042L51.86836096038819,46.48236529187761L51.87831038894653,88.99212957619132L52.455377245330816,79.05104201650465L52.84539484481812,99.73188724043644L53.15382713012695,85.09299345076504L53.46424930114746,37.17403186528841L53.683136729431155,43.365685323527345L53.8721758720398,89.75804646959523L54.02141730041504,36.113585952045156L54.17264861450195,32.70529066538043L55.358620498657224,81.51644840258298L55.537710212707516,64.83351755755363L55.55760906982422,77.91643344147056L55.907828955078124,58.130287889507L56.047120954895014,27.31135965149528L56.59632941131592,90.16812402822477L56.63612712554932,68.01362003870811L56.74557083969116,52.00510265796402L57.25498158187867,26.446376906244637L57.463919581604,48.95595644469904L57.51366672439575,37.153833973164325L57.533565581512455,73.87675129265048L57.63305986709595,80.48886413922415L57.961391009521485,59.16319036535788L58.59019489440918,96.00613521465145L58.86081935119629,82.24381297014688L59.13940335083007,110.00642389453863L59.517481636047364,66.17586645069498L59.61896580734253,51.597231591751395L59.64881409301758,71.62396025279713L60.21593152084351,51.071511199783956L60.265678663635256,45.67682582951693L60.36716283493042,64.95053709128842L61.09347111968994,66.31302729982524L61.20490471954346,89.71580251221151L61.22480357666015,44.7971331348202L61.28450014801025,54.8046512033837L61.53323586196899,37.09482444519395L61.58298300476075,105.36093227963534L61.612831290435786,56.09603389347619L61.891415290069574,43.36033882267097L61.91330403289795,72.570404057833L62.29138231811523,35.450949876771574L62.42072488937378,47.89172932009174L62.44062374649048,43.659252538979814L63.23856791687012,28.716254118146935L63.55893951644897,61.261762672396344L64.1459558013916,94.13075810209345L64.30713654403687,45.35901548584266L64.5160745437622,43.15911425781192L64.99364711456299,48.722558580154015L65.02349540023803,101.07794662403103L65.48315899963379,109.55381006542741L65.8333788848877,129.3996959281063L65.8731765991211,39.94560321839617L65.9527720275879,49.19695444979121L66.32090088424683,66.69079954640196L66.68107019805907,33.33709242354584L66.76066562652588,38.85083408977866L67.05914848327637,51.49323413505833L67.17854162597656,69.8534292478618L67.19844048309326,28.937902882044597L67.56855922546387,44.37671146430452L67.68795236816406,106.5330182226653L68.10582836761475,56.62683676156635L68.77442996673584,37.957534691844245L68.86397482376098,126.87688773609639L68.89382310943603,40.79531024691428L69.64202013702392,62.57256060986674L69.66191899414063,74.51104242687597L69.67186842269896,41.1704893934284L70.19122859344483,100.60764313776538L70.46981259307861,70.1348418961117L71.118515335083,41.62629980770771L71.49858350601195,90.55056385491419L72.38607253341675,45.38400354099153L72.54526339035034,49.648983652706505L72.68455539016723,77.11621219160195L73.28351098937989,42.23005836737775L73.50239841766358,60.49813713650231L74.22074715957642,83.33655476598815L74.24064601669312,36.608330585082825L74.55106818771362,42.96852611793702L74.92914647293091,41.88718453291645L75.64749521484374,115.30587648632422L75.68729292907716,84.03676250380538L75.8365343574524,88.62906727906072L76.23650138549806,36.810186923411635L76.2663496711731,42.841369920321085L76.78570984191894,104.63480768537413L77.10409155578613,53.98318539191118L77.27323184127808,76.11123033133435L77.30308012695312,96.35612357273908L77.63340115509033,110.02501877935129L77.65330001220703,35.59742702721769L77.72294601211549,68.65623738149831L78.08112544021607,40.68300544056606L78.28210389709473,56.05048962692187L78.52089018249512,131.23477390832753L78.57063732528687,127.18549493191206L78.63033389663697,118.30174628012091L78.8989684677124,37.444261180177364L79.08999749603271,40.8955359216981L79.13974463882445,132.55135210157388L79.2889860671997,84.87196703088239L79.76655863800049,46.89279174033376L80.18642452316284,53.080862005758874L80.28591880874633,39.066268842980804L80.77543069381713,59.71420055502692L80.96446983642578,44.564697074662035L81.09381240768433,40.82394750106036L81.15350897903443,135.42800058394621L81.28285155029297,133.92166168548133L81.84200943527222,51.520409823714544L82.07084629211425,33.38630474800689L82.12059343490601,25.86199587613342L82.35142017745972,90.3096035676411L82.57030760574341,42.277545101615345L82.69965017700196,110.87526328679148L82.93047691955566,127.49313560861347L83.87766251831054,39.96607456470869L83.91746023254393,63.399288057102694L84.11644880371094,116.22979803863441L84.64575840301514,47.44458457474897L84.74525268859864,50.416927878886625L84.93429183120728,88.413613666949L85.46360143051149,54.71707985690546L85.55314628753662,47.094563213569614L85.67253943023681,35.28907442668091L85.70238771591187,78.34380462015406L85.85162914428712,59.608930121939466L85.88147742996215,89.90815396012901L86.00087057266235,135.04160745834315L86.26154560089113,62.19185580285557L86.30134331512451,39.16343937441812L86.41078702926636,36.87067687578141L87.1888323425293,63.400938211687986L87.32812434234619,40.85746921277891L87.40771977081299,133.68016391928617L87.55696119918824,67.41200196527157L88.19571451263428,91.00586507863575L88.50613668365477,44.89088077417486L88.76482182617187,45.97375936032344L88.98370925445556,116.1720001956024L89.89109713897705,53.537426776420034L89.96273302459717,37.29347476889993L90.3706595954895,64.49903593784045L90.96961519470214,129.5870874828131L91.27804748001098,48.42108005214686L91.79740765075684,133.343145776239L91.90685136489867,56.140107165085894L92.08594107894898,105.4640197939428L92.18543536453247,107.63579767311262L92.19538479309082,123.88200332032352L92.37646439285278,75.48932950068077L92.60530124969482,67.88140965333378L92.79434039230347,43.50586359818499L93.17440856323242,105.51774411251283L93.20425684890746,94.82336569936349L93.27390284881592,95.60043292303665L93.37339713439941,59.20162482301325L93.40324542007446,81.41844336439824L93.55248684844972,54.49379979733203L93.87285844802857,76.85539347257661L94.0618975906372,45.211585960464475L94.83994290390015,90.06434344899147L95.18817290344238,41.08145648146032L95.35731318893431,120.77886876375487L95.49859507446288,50.335843997292315L95.60803878860473,73.4811196587334L95.66773535995483,131.83899215391776L96.01596535949707,65.7771891028862L96.18709553070069,106.17308650451939L96.32638753051758,112.95550944847832L96.52537610168457,123.94108828393209L96.60497153015136,61.424552779600006L96.70446581573486,123.13657191741429L97.04473627243041,137.38368836280713L97.09448341522216,81.63488235453374L97.70139855728151,68.45154277728277L97.70338844299316,58.285402420525315L98.02177015686036,38.76501662188821L98.6008268989563,89.60381830732558L98.94905689849853,44.27225196432755L99.05850061264037,86.07690047961462L99.17789375534058,66.57189412171253L99.33907449798583,44.793672524918435L100.46534981079101,110.75344416057715L100.50514752502441,49.39014511918353L100.81357981033325,89.95950677082358L100.86531683883668,44.24482168039245L101.44238369522095,58.725041319868666L101.55182740936279,56.387366328147436L101.91199672317505,68.89404823087716L101.9617438659668,116.27371100951298L101.9816427230835,130.95438199855684L102.04133929443358,60.38567202942295L102.27017615127563,103.69437044302875L102.31992329406738,81.01214230240535L102.40150860824585,84.66282172401391L103.28899763565063,114.95489332075803L103.31884592132569,40.0999445341231L103.59742992095947,141.07023153696352L103.64717706375122,133.73668407119644L103.69692420654296,36.69238474493068L104.26603152008057,70.2002634533278L104.52471666259765,59.17750427770352L104.6142615196228,58.08545083206066L104.93463311920165,79.68580462346881L104.94458254776,61.81584686432143L105.03412740478515,125.13636125624922L105.41220569000244,44.9035728202995L105.48384157562256,134.23218306061594L105.53358871841431,72.77759746756342L106.58026860275268,89.98049202242123L106.75935831680297,130.95946918940695L106.78920660247802,90.72256653943123L106.99814460220337,99.01077911611453L107.09962877349854,93.84148128856275L107.33841505889892,70.07154196621953L107.40806105880738,118.8578648769133L107.57720134429933,73.77154686574643L107.59710020141601,41.56180233705936L107.62694848709107,124.33085479698025L107.82792694396973,78.67831452823157L107.89757294387817,106.64422921225984L108.12640980072021,46.109270054868375L108.29555008621216,66.80725331285035L108.47463980026245,84.19385722032605L108.53433637161254,124.12302489905264L108.62587111434937,61.75400849991911L109.08354482803344,40.22533742369646L109.16314025650024,62.01130060285929L109.37207825622559,111.43781984383024L110.07052814102174,35.008048386076695L110.76897802581787,69.08391030273455L110.83862402572632,63.559918819163315L111.09929905395508,81.1750455630663L111.56692219619751,135.73075208834777L111.65646705322266,86.81041776641798L111.96688922424316,99.38285125728089L112.1758272239685,67.48717357872314L112.59569310913086,133.49333341713836L112.62554139480591,80.89895112730846L112.8245299659729,94.53455092911668L112.89417596588135,45.421438476440926L113.15286110839844,72.36889660933078L113.84136156463623,104.72938040202143L113.93090642166138,66.67751344462658L114.00055242156982,54.2036177561431L114.12193544998169,43.6671638515345L114.34082287826539,80.34210410513485L114.71890116348266,42.60431342732409L114.94972790603639,119.11824276892798L115.00942447738647,85.42876690578214L115.23826133422851,89.0237795411374L115.4173510482788,79.24960276039027L116.10585150451661,123.56072293729275L116.5356668182373,38.213638683483026L116.81425081787108,109.70631263747357L116.84409910354614,48.2376771568091L117.23411670303345,119.74836136941636L117.47290298843383,45.94987455138303L118.11165630187988,41.414127645857064L118.87975218658447,66.11671548090301L118.92949932937623,57.427208882711355L118.95934761505127,132.76384250752312L119.21803275756835,52.22063170571391L119.4468696144104,141.53865266832008L119.64784807128906,50.76346977125468L119.80703892822265,92.31788413049928L120.04582521362305,72.22169339086713L120.21496549911498,62.08370938606231L120.91341538391113,83.12907375788716L121.10444441223144,49.019605264417805L121.17409041213989,66.96166063476069L122.29041629638672,56.477097019768735L122.32026458206177,78.0476631635485L122.5292025817871,51.82549040344506L122.57894972457886,61.43529292858662L123.10825932388305,44.32415168339898L123.20775360946655,108.0646822792872L123.24755132369994,86.05826787698288L123.52812520904541,116.04741352441215L123.8465069229126,116.39475220570853L123.85645635147094,143.04732064211396L124.2763222366333,101.08226531431713L124.36586709365845,82.85810423079852L124.5350073791504,132.22018022048604L124.58475452194214,66.24378681342598L124.67429937896729,76.04865646945973L124.83349023590088,77.30300026120328L124.99467097854614,51.004147174884565L125.39264812088012,58.75176439469578L125.75281743469239,72.53747640176516L125.84236229171752,65.34400938006243L125.85231172027588,131.37135720335291L126.07119914855957,125.56788610976028L126.14084514846802,132.5620286017408L126.41942914810181,44.21714623063326L126.51096389083862,93.30238992972697L126.56071103363037,45.543351897202996L126.67015474777222,70.54830462900479L126.75969960479736,78.08431545425174L126.89899160461425,76.33252077595064L127.26911034698487,99.57078029090978L127.29895863265992,41.6359649988502L127.63723920364379,54.49682665231421L127.6770369178772,131.60402428515303L127.90587377471924,78.96384784821733L127.96557034606934,100.43291534081891L127.98546920318604,109.80610455733783L128.37548680267335,73.93562880825402L128.43518337402344,94.8467177441092L128.56452594528199,89.1369707162343L128.61427308807373,49.065338120067594L128.75356508789062,82.86198445143766L129.24307697296143,61.25269153690458L129.43211611557007,47.001984826606844L129.5216609725952,123.90076793532208L129.69279114379884,76.70780364646726L129.96142571487425,39.82903629849048L130.19026257171632,133.6888531618596L130.210161428833,79.53692296205554L130.22011085739135,128.35818436004752L130.7991675994873,67.85208404898928L130.9185607421875,115.15156817368901L131.28867948455812,46.49167216373871L131.79610034103393,64.62535291398157L132.36520765457152,120.05216190066142L132.71542753982544,84.22492727380359L132.8845678253174,61.88398410451221L133.08355639648437,77.51993429771437L133.3919886817932,50.38815861237374L133.48153353881835,60.13453736044964L133.6427142814636,97.49283963091496L133.7223097099304,112.81395447342379L133.81185456695556,35.879697755851936L134.1202868522644,55.27433234563432L134.50035502319335,83.05955038784471L134.61974816589355,111.47455699962643L134.73914130859376,91.62783663020014L134.8485850227356,108.94563852092354L134.98787702255248,65.29025205840071L135.0077758796692,47.37680565383957L135.3579957649231,63.577203009762485L135.71617519302367,115.6776940322117L135.97685022125245,70.90081536624423L136.12609164962768,76.57852582152736L136.42457450637818,36.94309508843921L136.6554012489319,43.90732263515187L136.83449096298216,52.85697846107996L137.4234971336365,64.56622080309913L137.552839704895,124.69350691282823L137.57273856201172,140.19756732211832L137.78167656173707,42.07833844007777L137.83142370452882,95.34161324842323L137.9707157043457,47.48513123027351L138.0702099899292,42.899021606804126L138.11995713272094,101.82908756180541L138.1816435897827,47.96137527304623L138.37068273239137,129.64741241972433L138.49007587509155,43.99274406594182L139.44721090240478,97.22653296921165L139.59645233078,103.2371691841704L139.70589604492187,81.57397750615398L139.7377342163086,59.754888652373054L139.8969250732422,55.111278213697005L140.2252562156677,60.39736455334166L140.31480107269286,141.92344278661173L140.94360495758056,50.73289947888013L140.97345324325562,70.94836810666523L141.1326441001892,115.09951758334121L141.99028484191894,112.1012008460309L142.0718701560974,63.82789449436146L142.38030244140623,53.85648180812436L142.59918986968992,62.74802390428552L142.81807729797362,81.47712757617894L143.4568306114197,71.06826362410584L143.53642603988646,47.679227127324026L143.95629192504884,79.79608209704081L144.24482535324097,76.722155276632L144.69453952407835,114.93675104977447L144.97312352371213,54.56901855805745L145.55218026580812,73.1507869991204L145.7113711227417,45.53361127042231L146.01184386520384,54.83346761717044L146.300377293396,45.69440233321407L146.54911300735475,53.827523952516L146.59886015014646,88.14567570956994L146.72024317855835,96.01538550978391L146.90928232116698,42.831223826985166L147.33710774917603,128.83549157384593L147.52813677749634,50.744592002798825L148.10520363388062,133.45546472676938L148.27434391937254,79.00317810407614L148.53501894760132,112.90309110939438L148.5449683761597,107.6820538635023L148.62456380462646,90.64340626661063L148.74395694732667,56.0347424374507L148.86335009002687,132.8791765262172L149.0125915184021,132.3543260014526L149.0523892326355,127.10046718085889L149.21356997528076,96.50567944016863L149.57174940338135,55.04253748840074L149.72099083175658,102.92232440402229L149.8204851173401,44.67557803333952L149.84237386016846,136.89353823160772L149.96176700286864,58.25800985440932L149.97171643142698,100.74393176232911L150.0115141456604,92.86119988507342L150.2900981452942,73.23069219886807L150.5487832878113,121.07179949101018L151.0183963157654,55.26729797237354L151.37657574386594,73.4258441948532L151.8959359146118,117.32344506213394L151.9357336288452,51.44042918832868L152.13472220001222,57.83361838343413L152.61428465652466,136.8179257911455L152.90281808471678,126.45022848124827L153.3127345413208,127.57839202394493L153.81219585494995,60.103759620070065L153.96143728332518,52.312682043209406L154.041032711792,59.16335066608903L154.1007292831421,74.34961016115965L154.59024116821288,53.678397125278636L154.62008945388794,77.14856465092862L154.64993773956297,139.5622672362321L154.77928031082152,65.71537902684818L155.047914881897,142.38706550417058L155.28869105300905,78.22630418422584L155.35833705291748,89.20475906659847L155.57722448120117,50.242728131407446L155.91550505218507,105.86495078144237L156.25577550888062,99.74811061737364L156.48461236572265,49.288269289814394L156.64380322265626,109.95415171200368L157.1631633934021,52.79136831476838L157.36215196456908,88.43643294750002L157.39200025024414,64.79937350182006L157.48154510726928,62.02918827856395L157.49149453582763,54.324126188143964L157.55119110717774,103.33397196687156L157.74222013549803,99.87976466491637L157.76211899261475,139.37932049076898L158.57001259155274,121.3008032296309L159.36795676193236,53.36637646683509L159.95696293258666,102.79221207233498L160.01665950393678,93.38273831384898L160.2454963607788,56.52737487261916L160.61362521743774,106.74585044635008L160.62357464599611,55.96888712531502L160.68327121734617,60.81668297764888L160.76485653152466,145.4443776252691L160.93399681701658,48.22624865762404L161.05338995971678,98.60090429076263L161.1130865310669,135.58869263746286L161.3120751022339,61.99762789343822L161.69214327316286,138.62370645538658L162.18961470108033,81.32837792713251L162.64927830047606,65.6506175314662L163.00745772857667,94.45031760962813L163.23828447113036,116.76237364422195L163.26813275680541,81.21929799431669L164.00638035583498,69.88782789887425L164.06607692718507,61.23536019903152L164.36455978393553,61.59455641970514L164.45410464096068,120.04909025576907L164.49390235519408,61.590152864326086L164.55359892654417,99.2888348784652L165.13265566864015,46.922249357045075L165.453027268219,72.35444125516355L165.46297669677733,48.94173682690112L165.54257212524413,76.37804618359542L165.58236983947754,60.072076652032294L165.75151012496949,49.45450114801028L165.8112066963196,51.793505692854524L166.11963898162844,56.128546653534L166.3803140098572,82.36266181810765L166.56935315246582,100.17258695344178L166.887734866333,66.75987973207006L166.89768429489135,54.72205860902568L166.90763372344972,46.28910861630189L167.1384604660034,145.1481336233429L167.89660692214966,111.61557921048627L168.515461378479,136.8098141026769L168.9333373779297,110.38363980328374L168.9731350921631,94.89762737042945L169.40295040588381,112.59162207405507L169.59198954849245,60.33000052844227L169.96011840515135,133.00508332107572L170.25064171905518,97.50095367674726L170.3202877189636,106.87320937724364L170.4197820045471,50.755907348526605L170.82770857543943,58.78857698613017L170.98888931808472,56.19957873634014L171.0485858894348,75.18710604574653L171.62764263153076,107.02764970224568L171.78683348846437,108.1407496909422L171.84653005981446,105.66182618144656L172.12511405944824,123.39101632501297L172.29425434494019,145.80707924575464L172.3141532020569,56.88795722314444L172.6245753730774,62.24813078894172L172.93300765838623,78.66735750178516L173.39267125778198,120.40867779881576L173.51206440048216,83.26129357271627L173.62150811462402,85.93944731738641L174.55874428482056,113.69415635867828L174.9189135986328,116.06305227515341L175.1576998840332,111.25339385264958L175.24724474105835,100.30825323399047L175.30694131240847,51.61606221293337L175.75665548324585,111.72764356573778L175.7865037689209,73.28130951209035L175.97554291152954,70.34564678702024L176.16458205413818,147.79583494382317L177.27294839553835,43.60532548713218L177.35254382400512,87.54964930281388L177.4122403953552,139.7403142012587L178.03109485168457,147.2148496961121L178.41912256546019,60.78622583873161L178.62010102233887,134.91746868625464L179.20711730728152,112.14154476827783L179.33645987854004,86.47594086143219L179.42799462127684,94.79549694578145L179.46779233551027,118.14369918866814L179.93541547775268,35.68799694031381L180.6438147911072,119.42161897470825L180.86270221939088,112.87915443845274L181.02388296203614,93.96894865818619L181.22287153320312,99.88865664076745L181.4815566757202,66.54547278943816L181.81187770385742,94.90630246882074L181.90142256088257,71.37325933874338L182.45859056015016,92.65518515718963L182.98790015945437,55.38365744427422L183.24658530197144,123.49082238905939L183.2883729019165,108.70806340791403L183.99478232955934,97.25847996198308L184.03458004379272,107.17620604746928L184.34500221481323,99.10590345586608L184.83252421417237,90.5717376956073L185.34193495635986,94.39446694900676L185.44142924194335,137.60645215973173L185.45137867050173,55.87721396601046L185.69215484161376,110.07216133848965L185.7816996986389,73.19201257538862L185.9209916984558,60.65535443593505L186.3388676979065,58.98914148915506L186.57964386901858,129.33092219971832L187.3178914680481,140.25115727095783L187.97654363861082,63.58358675064392L188.28497592391966,141.4783996310015L188.62325649490356,108.31177642689022L188.84413380889893,60.638183398793146L189.2222120941162,63.14932264052125L189.27195923690797,84.3821209995994L189.3217063796997,95.91620650447992L189.68187569351196,68.01289397069058L189.76147112197876,76.42869178518201L189.90076312179565,61.50625900520936L190.01020683593748,148.43204615077684L190.18929654998777,73.38691940554963L190.2091954071045,57.29808192904784L190.43007272109986,78.94962823041942L190.4400221496582,78.55958826318283L190.44997157821655,65.06289847436528L190.47981986389158,79.24437412771856L190.66885900650027,140.58425511818305L191.01708900604248,92.88237372576653L191.17826974868774,106.81075338355367L191.31756174850463,109.72693014033507L191.52649974822998,55.727097046021896L191.62599403381347,84.03658805889208L191.70558946228027,88.44433483059993L191.80508374786376,126.10258334267178L192.2846462043762,103.46721016281617L192.36424163284303,54.958294739457415L192.4040393470764,125.07609996815772L192.67466380386352,63.33504518173322L192.81395580368041,79.36512301081612L192.8736523750305,85.60618209733896L193.01294437484742,102.17887318661542L193.10248923187254,59.26302000304122L193.17213523178103,73.95529865091082L193.18208466033934,131.2416267645839L193.22188237457274,116.49712308145322L193.46265854568483,108.57030850313306L193.56215283126832,58.522345760065036L193.6019505455017,87.04969018128668L193.76114140243533,57.62309637616879L193.9004334022522,99.29116395379417L194.2506532875061,93.3590279498219L194.3302487159729,45.48900994934533L194.43969243011475,98.38680852013825L194.92721442947388,146.56799263471956L194.93716385803222,66.99538979448425L194.97895145797727,68.648269492215L195.24758602905274,81.32266367753996L195.62566431427,72.0986107177132L196.71413179855347,60.86750773887616L196.8036766555786,61.549766509532674L196.96286751251222,100.29842302738946L196.99271579818725,59.090526986875986L197.0822606552124,122.92392592546128L197.35288511199948,91.56855364804134L197.69116568298338,120.1766990672141L197.70111511154175,64.82461615224778L197.7906599685669,120.70225915845042L197.82050825424196,92.32792649983269L198.2005764251709,117.22651026706595L198.44931213912966,75.27482826350115L198.61845242462158,74.91705589049828L199.0482677383423,48.9827360962548L199.28705402374266,64.60555105895794L199.50594145202638,89.63522310644755L199.77656590881347,103.74329516911924L199.89595905151367,70.99003686730778L200.31383505096434,50.843440977185764L200.3436833366394,126.07256467340146L200.74365036468507,147.46159023916115L200.82324579315187,87.81778527874319L201.6211899635315,83.29463612479412L201.63113939208986,139.72010452231618L202.48878013381957,69.01136950716469L202.56837556228638,73.24617536360559L203.00814030456544,74.43734180836903L203.59714647521972,126.52265848072454L204.20406161727905,147.93241941753038L204.27370761718748,60.6406916337628L204.55428150253294,140.19432123231266L204.9224103591919,148.78067902474083L205.08359110183716,137.47311259714832L205.50146710128783,59.3081210852212L205.97108012924193,134.43945426334824L206.3690572715759,77.1518366717349L206.61779298553466,83.9790919584128L206.79887258529664,70.62302362862724L206.84861972808838,128.83437182609163L207.07745658493042,57.36600229177884L207.1272037277222,87.81988804715759L207.1769508705139,65.82813644702553L207.2963440132141,61.47243555093807L207.49732247009277,91.46042609015763L207.96494561233519,96.4844773111112L208.17388361206054,63.697947178132694L208.53405292587283,69.0135477112173L208.6932437828064,106.16983334262265L209.262351096344,62.5355217115178L209.63047995300295,57.24337223245402L209.70012595291138,74.60854298923036L209.73992366714478,65.65900974621431L209.98069983825684,94.7117539579411L210.2393849807739,92.52945752197184L211.03732915115359,132.30190059027757L211.06717743682862,83.59919808451211L211.11692457962036,68.84397782603173L211.60643646469117,72.64037061224977L211.80542503585815,146.6941033415375L211.95466646423338,74.21092174035614L211.98451474990844,73.52260925973528L212.00441360702516,101.23193904993134L212.19544263534547,115.76381324265489L212.25513920669556,75.68223728642988L212.4839760635376,62.46955324592484L212.73271177749635,124.67221520395044L212.75261063461303,64.80813346530431L212.8739936630249,108.51980905809546L213.27197080535888,69.19556447670341L213.33166737670896,54.40525721701215L213.47095937652588,78.50386018547351L213.58040309066772,65.78634510347092L213.6619884048462,112.14509024327253L214.11966211853027,122.19894700995499L214.18930811843873,62.680593873202724L214.22910583267213,60.85655071242975L214.28880240402222,58.820759715270924L214.86785914611815,92.41682739943394L215.1364937171936,90.63471702403717L215.35737103118896,60.83161923400955L216.04587148742675,106.34011043691619L216.14536577301024,95.17305231489838L216.26475891571044,89.21259494351496L216.593090058136,83.19751274063067L216.67268548660277,115.93763581194314L216.75427080078126,98.05443909829425L216.8239168006897,76.66172190099087L217.2218939430237,59.48091584393919L217.35123651428222,115.80710858424581L217.400983657074,89.92972855264998L217.46068022842405,100.59852485499975L217.4905285140991,68.14196434762546L218.238725541687,132.0811947718572L218.24867497024536,136.84347489885337L218.26857382736205,121.04086144989947L218.67849028396606,77.9602898356205L218.7083385696411,115.06762245257104L219.01677085494995,106.1943970723067L219.22769874038696,72.33878836024012L219.27744588317873,68.70312063063042L219.30729416885376,122.61694295323029L219.3570413116455,97.21075277664879L219.76496788253783,59.72956113685238L219.90624976806643,73.30952244077162L220.05549119644164,66.26525768194445L220.14503605346678,106.22409042538736L220.1649349105835,72.3336304484792L220.35397405319213,74.4436406841575L220.55296262435914,71.36831830444225L220.64449736709594,70.2140681751157L220.78378936691286,138.15335582184707L221.19171593780518,144.07844448705825L221.2116147949219,141.83100937751607L221.42254268035887,84.88154735693192L221.65137953720094,75.24651161081738L222.05930610809327,117.86544069303984L222.18864867935181,65.39823817446282L222.1906385650635,110.63526480390526L222.37967770767213,140.3499590980709L222.38962713623047,63.75356210238472L222.40952599334716,82.48691845838084L222.4592731361389,142.57258531210493L222.56871685028077,121.62172529338031L223.2870655921936,79.62275928885553L223.65519444885254,92.04743793815055L223.66514387741088,95.91244886675281L223.82632462005614,125.9206938748251L223.86612233428954,137.61288304788704L224.23425119094847,145.80139446320828L224.53472393341065,123.84888236043284L224.544673361969,69.35563890093242L224.57452164764405,66.22528622316106L224.5844710762024,77.91532076580734L224.92275164718626,67.20550633519437L224.97249878997803,82.16199830580763L225.06204364700318,53.85791508524987L225.1117907897949,79.33160601382497L225.3008299324036,83.96680537884336L225.62120153198242,148.29731810097806L225.8599878173828,145.74345399967282L225.86993724594117,105.68082653281446L226.22015713119507,64.29207826447934L226.59823541641236,102.98453994661554L226.98825301589966,95.32527200330135L227.04794958724975,135.86419301757L227.06784844436646,145.03804120282084L227.0777978729248,70.7448616137511L227.2568875869751,82.91617552801895L227.38623015823364,101.56882518061168L227.4757750152588,74.65488875944038L227.51557272949216,106.70901899600615L228.1443766143799,110.19275463558347L228.78312992782594,65.59842549929681L229.01196678466795,107.6964526409409L229.17115764160155,151.52657986591052L229.83975924072266,63.92727151821569L229.86960752639771,98.85645194456977L229.91935466918943,77.85105903152832L230.5780068397522,119.71195188717354L230.74913701095582,85.21763198395652L231.49534415283205,130.85011344503903L231.875412323761,60.34507822662454L231.88536175231934,80.13976686461258L232.50421620864867,74.16164340971167L232.63355877990722,67.5978093715765L232.74300249404908,122.01075395159248L233.12307066497803,71.57166449662523L233.26236266479492,90.7657723012018L233.43150295028687,87.73358967707372L233.56084552154542,111.4514265470679L233.84937894973754,108.90421964083248L233.8593283782959,87.77673886211565L234.25929540634155,116.2638383703655L234.49808169174193,65.71574677558435L234.55777826309205,90.71373114030878L234.74880729141236,113.02323650738647L234.80850386276245,119.71287125901392L235.0174418624878,147.3692322657037L235.07713843383792,70.55630080665242L235.53680203323364,79.03542683940032L235.6661446044922,134.42919501655504L236.24520134658815,63.63563734099171L236.56358306045533,68.38762050337557L236.63322906036376,62.85034291802897L237.46102151641847,97.7430172102288L237.66001008758545,69.9694586888454L238.73852814331056,72.97696442983215L238.98726385726928,70.94721771318291L239.00716271438597,81.78625339200714L239.11660642852783,72.03385865178598L239.37728145675658,93.49989928940538L239.44692745666504,79.10526609617764L239.5563711708069,87.70365115816898L239.6061183135986,87.77207128200294L239.6757643135071,72.48957477151755L239.68571374206542,148.84378329344645L239.82500574188234,90.34906583586674L240.09563019866943,130.95690437770864L240.6925959121704,146.3835972892669L240.78214076919554,145.67458479805526L240.8119890548706,86.05949370610338L241.14231008300783,85.45456589404148L241.2219055114746,121.90004036573723L241.55023665390016,115.15355778864614L241.57013551101684,119.39293457328833L241.6198826538086,90.56477875798471L241.9303048248291,72.27350824484559L242.11934396743774,146.12223755527395L242.82774328079225,79.45089804616009L242.84764213790893,69.64251120349596L242.98693413772583,125.65804584157377L243.31725516586303,96.86985912768985L244.03560390777588,69.01935625535755L244.10524990768434,82.94906075154032L244.22464305038451,93.90117916673155L244.71216504974365,88.74419620711349L244.73206390686036,115.19765463389278L244.83354807815553,124.12132995455715L244.84349750671387,123.41686010318249L244.89324464950562,109.2136141961217L245.53000807723998,116.00618794814395L245.73098653411867,98.7228507146164L245.76083481979373,135.44576567673883L245.77078424835204,142.60588071690893L245.99962110519408,76.35010670910258L247.20748173217774,77.00561411656766L247.24727944641114,106.2807897369383L247.25722887496946,87.97786913242695L247.42636916046143,130.7572969643432L247.57561058883667,124.69814384721292L247.67510487442016,75.71180805659847L247.784548588562,61.95523306477814L247.83429573135376,93.2987218718202L247.8442451599121,79.71065123679605L247.87608333129882,146.59280035154586L247.91588104553225,110.70580184033581L247.9755776168823,138.76929723708403L248.2143639022827,127.38429612689438L248.3138581878662,116.51216306181641L248.5725433303833,79.62288187176759L248.59244218749998,81.95488976117016L248.67402750167847,71.28547111480536L249.01230807266236,101.15678629538934L249.2411449295044,85.89385590355823L249.5714659576416,141.76329528410824L249.74060624313356,148.67525889905886L249.97939252853394,100.38820086628463L250.16843167114257,77.06882918136687L250.2997641281128,102.63742285750634L250.62809527053832,123.27225469950884L250.83703327026367,72.34091941701884L251.74442115478516,138.98341186661796L252.22398361129763,67.02914724257214L252.82293921051027,114.17562431939534L253.02192778167725,72.01764941903093L253.071674924469,107.68875820584601L253.1313714958191,69.38424786671416L253.31046120986937,136.53337784918355" fill="none"></path></g></g></g></g></g><g><g opacity="0.17087"><span fill="rgb(0, 0, 0)" stroke="none" stroke-width="1px">Alt + Scroll to Zoom</span></g></g></g><g transform="translate(51, 177)" clip-path="url(#clip_1)"><clipPath id="clip_1"><rect width="278" height="22"></rect></clipPath><g><g><line x1="0" y1="0" x2="0" y2="5" style="visibility: inherit;" fill="rgb(0, 0, 0)" stroke="rgb(204, 204, 204)" stroke-width="1px"></line><line x1="19.89885711669922" y1="0" x2="19.89885711669922" y2="5" style="visibility: inherit;" fill="rgb(0, 0, 0)" stroke="rgb(204, 204, 204)" stroke-width="1px"></line><line x1="39.79771423339844" y1="0" x2="39.79771423339844" y2="5" style="visibility: inherit;" fill="rgb(0, 0, 0)" stroke="rgb(204, 204, 204)" stroke-width="1px"></line><line x1="59.696571350097656" y1="0" x2="59.696571350097656" y2="5" style="visibility: inherit;" fill="rgb(0, 0, 0)" stroke="rgb(204, 204, 204)" stroke-width="1px"></line><line x1="79.59542846679688" y1="0" x2="79.59542846679688" y2="5" style="visibility: inherit;" fill="rgb(0, 0, 0)" stroke="rgb(204, 204, 204)" stroke-width="1px"></line><line x1="99.4942855834961" y1="0" x2="99.4942855834961" y2="5" style="visibility: inherit;" fill="rgb(0, 0, 0)" stroke="rgb(204, 204, 204)" stroke-width="1px"></line><line x1="119.39314270019531" y1="0" x2="119.39314270019531" y2="5" style="visibility: inherit;" fill="rgb(0, 0, 0)" stroke="rgb(204, 204, 204)" stroke-width="1px"></line><line x1="139.29199981689453" y1="0" x2="139.29199981689453" y2="5" style="visibility: inherit;" fill="rgb(0, 0, 0)" stroke="rgb(204, 204, 204)" stroke-width="1px"></line><line x1="159.19085693359375" y1="0" x2="159.19085693359375" y2="5" style="visibility: inherit;" fill="rgb(0, 0, 0)" stroke="rgb(204, 204, 204)" stroke-width="1px"></line><line x1="179.08971405029297" y1="0" x2="179.08971405029297" y2="5" style="visibility: inherit;" fill="rgb(0, 0, 0)" stroke="rgb(204, 204, 204)" stroke-width="1px"></line><line x1="198.9885711669922" y1="0" x2="198.9885711669922" y2="5" style="visibility: inherit;" fill="rgb(0, 0, 0)" stroke="rgb(204, 204, 204)" stroke-width="1px"></line><line x1="218.8874282836914" y1="0" x2="218.8874282836914" y2="5" style="visibility: inherit;" fill="rgb(0, 0, 0)" stroke="rgb(204, 204, 204)" stroke-width="1px"></line><line x1="238.78628540039062" y1="0" x2="238.78628540039062" y2="5" style="visibility: inherit;" fill="rgb(0, 0, 0)" stroke="rgb(204, 204, 204)" stroke-width="1px"></line><line x1="258.68514251708984" y1="0" x2="258.68514251708984" y2="5" style="visibility: inherit;" fill="rgb(0, 0, 0)" stroke="rgb(204, 204, 204)" stroke-width="1px"></line><line x1="278.58399963378906" y1="0" x2="278.58399963378906" y2="5" style="visibility: inherit;" fill="rgb(0, 0, 0)" stroke="rgb(204, 204, 204)" stroke-width="1px"></line></g><g transform="translate(0, 8)"><text style="text-anchor: middle; visibility: hidden; font-family: &quot;Helvetica Neue&quot;, sans-serif; font-size: 12px; font-weight: 200;" x="0" y="0" dx="0em" dy="0.95em" fill="rgb(50, 49, 63)" stroke="none" stroke-width="1px">-20k</text><text style="text-anchor: middle; visibility: inherit; font-family: &quot;Helvetica Neue&quot;, sans-serif; font-size: 12px; font-weight: 200;" x="19.89885711669922" y="0" dx="0em" dy="0.95em" fill="rgb(50, 49, 63)" stroke="none" stroke-width="1px">0</text><text style="text-anchor: middle; visibility: hidden; font-family: &quot;Helvetica Neue&quot;, sans-serif; font-size: 12px; font-weight: 200;" x="39.79771423339844" y="0" dx="0em" dy="0.95em" fill="rgb(50, 49, 63)" stroke="none" stroke-width="1px">20k</text><text style="text-anchor: middle; visibility: inherit; font-family: &quot;Helvetica Neue&quot;, sans-serif; font-size: 12px; font-weight: 200;" x="59.696571350097656" y="0" dx="0em" dy="0.95em" fill="rgb(50, 49, 63)" stroke="none" stroke-width="1px">40k</text><text style="text-anchor: middle; visibility: hidden; font-family: &quot;Helvetica Neue&quot;, sans-serif; font-size: 12px; font-weight: 200;" x="79.59542846679688" y="0" dx="0em" dy="0.95em" fill="rgb(50, 49, 63)" stroke="none" stroke-width="1px">60k</text><text style="text-anchor: middle; visibility: inherit; font-family: &quot;Helvetica Neue&quot;, sans-serif; font-size: 12px; font-weight: 200;" x="99.4942855834961" y="0" dx="0em" dy="0.95em" fill="rgb(50, 49, 63)" stroke="none" stroke-width="1px">80k</text><text style="text-anchor: middle; visibility: hidden; font-family: &quot;Helvetica Neue&quot;, sans-serif; font-size: 12px; font-weight: 200;" x="119.39314270019531" y="0" dx="0em" dy="0.95em" fill="rgb(50, 49, 63)" stroke="none" stroke-width="1px">100k</text><text style="text-anchor: middle; visibility: inherit; font-family: &quot;Helvetica Neue&quot;, sans-serif; font-size: 12px; font-weight: 200;" x="139.29199981689453" y="0" dx="0em" dy="0.95em" fill="rgb(50, 49, 63)" stroke="none" stroke-width="1px">120k</text><text style="text-anchor: middle; visibility: hidden; font-family: &quot;Helvetica Neue&quot;, sans-serif; font-size: 12px; font-weight: 200;" x="159.19085693359375" y="0" dx="0em" dy="0.95em" fill="rgb(50, 49, 63)" stroke="none" stroke-width="1px">140k</text><text style="text-anchor: middle; visibility: inherit; font-family: &quot;Helvetica Neue&quot;, sans-serif; font-size: 12px; font-weight: 200;" x="179.08971405029297" y="0" dx="0em" dy="0.95em" fill="rgb(50, 49, 63)" stroke="none" stroke-width="1px">160k</text><text style="text-anchor: middle; visibility: hidden; font-family: &quot;Helvetica Neue&quot;, sans-serif; font-size: 12px; font-weight: 200;" x="198.9885711669922" y="0" dx="0em" dy="0.95em" fill="rgb(50, 49, 63)" stroke="none" stroke-width="1px">180k</text><text style="text-anchor: middle; visibility: inherit; font-family: &quot;Helvetica Neue&quot;, sans-serif; font-size: 12px; font-weight: 200;" x="218.8874282836914" y="0" dx="0em" dy="0.95em" fill="rgb(50, 49, 63)" stroke="none" stroke-width="1px">200k</text><text style="text-anchor: middle; visibility: hidden; font-family: &quot;Helvetica Neue&quot;, sans-serif; font-size: 12px; font-weight: 200;" x="238.78628540039062" y="0" dx="0em" dy="0.95em" fill="rgb(50, 49, 63)" stroke="none" stroke-width="1px">220k</text><text style="text-anchor: middle; visibility: inherit; font-family: &quot;Helvetica Neue&quot;, sans-serif; font-size: 12px; font-weight: 200;" x="258.68514251708984" y="0" dx="0em" dy="0.95em" fill="rgb(50, 49, 63)" stroke="none" stroke-width="1px">240k</text><text style="text-anchor: middle; visibility: hidden; font-family: &quot;Helvetica Neue&quot;, sans-serif; font-size: 12px; font-weight: 200;" x="278.58399963378906" y="0" dx="0em" dy="0.95em" fill="rgb(50, 49, 63)" stroke="none" stroke-width="1px">260k</text></g><line x1="0" y1="0" x2="278.58399963378906" y2="0" fill="rgb(0, 0, 0)" stroke="rgb(204, 204, 204)" stroke-width="1px"></line></g></g></g></g></svg>