<svg viewBox="0 0 330 200" xmlns="http://www.w3.org/2000/svg"><g><g><g><g><g><line x1="61.77000045776367" y1="177.9749994277954" x2="56.77000045776367" y2="177.9749994277954" style="visibility: inherit;" fill="rgb(0, 0, 0)" stroke="rgb(204, 204, 204)" stroke-width="1px"></line><line x1="61.77000045776367" y1="164.28461485642654" x2="56.77000045776367" y2="164.28461485642654" style="visibility: inherit;" fill="rgb(0, 0, 0)" stroke="rgb(204, 204, 204)" stroke-width="1px"></line><line x1="61.77000045776367" y1="150.59423028505765" x2="56.77000045776367" y2="150.59423028505765" style="visibility: inherit;" fill="rgb(0, 0, 0)" stroke="rgb(204, 204, 204)" stroke-width="1px"></line><line x1="61.77000045776367" y1="136.90384571368878" x2="56.77000045776367" y2="136.90384571368878" style="visibility: inherit;" fill="rgb(0, 0, 0)" stroke="rgb(204, 204, 204)" stroke-width="1px"></line><line x1="61.77000045776367" y1="123.21346114231991" x2="56.77000045776367" y2="123.21346114231991" style="visibility: inherit;" fill="rgb(0, 0, 0)" stroke="rgb(204, 204, 204)" stroke-width="1px"></line><line x1="61.77000045776367" y1="109.52307657095103" x2="56.77000045776367" y2="109.52307657095103" style="visibility: inherit;" fill="rgb(0, 0, 0)" stroke="rgb(204, 204, 204)" stroke-width="1px"></line><line x1="61.77000045776367" y1="95.83269199958215" x2="56.77000045776367" y2="95.83269199958215" style="visibility: inherit;" fill="rgb(0, 0, 0)" stroke="rgb(204, 204, 204)" stroke-width="1px"></line><line x1="61.77000045776367" y1="82.14230742821327" x2="56.77000045776367" y2="82.14230742821327" style="visibility: inherit;" fill="rgb(0, 0, 0)" stroke="rgb(204, 204, 204)" stroke-width="1px"></line><line x1="61.77000045776367" y1="68.4519228568444" x2="56.77000045776367" y2="68.4519228568444" style="visibility: inherit;" fill="rgb(0, 0, 0)" stroke="rgb(204, 204, 204)" stroke-width="1px"></line><line x1="61.77000045776367" y1="54.76153828547551" x2="56.77000045776367" y2="54.76153828547551" style="visibility: inherit;" fill="rgb(0, 0, 0)" stroke="rgb(204, 204, 204)" stroke-width="1px"></line><line x1="61.77000045776367" y1="41.07115371410666" x2="56.77000045776367" y2="41.07115371410666" style="visibility: inherit;" fill="rgb(0, 0, 0)" stroke="rgb(204, 204, 204)" stroke-width="1px"></line><line x1="61.77000045776367" y1="27.38076914273779" x2="56.77000045776367" y2="27.38076914273779" style="visibility: inherit;" fill="rgb(0, 0, 0)" stroke="rgb(204, 204, 204)" stroke-width="1px"></line><line x1="61.77000045776367" y1="13.690384571368895" x2="56.77000045776367" y2="13.690384571368895" style="visibility: inherit;" fill="rgb(0, 0, 0)" stroke="rgb(204, 204, 204)" stroke-width="1px"></line><line x1="61.77000045776367" y1="0" x2="56.77000045776367" y2="0" style="visibility: inherit;" fill="rgb(0, 0, 0)" stroke="rgb(204, 204, 204)" stroke-width="1px"></line></g><g transform="translate(51.77000045776367, 0)"><text style="text-anchor: end; visibility: hidden; font-family: &quot;Helvetica Neue&quot;, sans-serif; font-size: 12px; font-weight: 200;" x="0" y="177.9749994277954" dx="0em" dy="0.3em" fill="rgb(50, 49, 63)" stroke="none" stroke-width="1px">-1e-3</text><text style="text-anchor: end; visibility: inherit; font-family: &quot;Helvetica Neue&quot;, sans-serif; font-size: 12px; font-weight: 200;" x="0" y="164.28461485642654" dx="0em" dy="0.3em" fill="rgb(50, 49, 63)" stroke="none" stroke-width="1px">0</text><text style="text-anchor: end; visibility: hidden; font-family: &quot;Helvetica Neue&quot;, sans-serif; font-size: 12px; font-weight: 200;" x="0" y="150.59423028505765" dx="0em" dy="0.3em" fill="rgb(50, 49, 63)" stroke="none" stroke-width="1px">1e-3</text><text style="text-anchor: end; visibility: inherit; font-family: &quot;Helvetica Neue&quot;, sans-serif; font-size: 12px; font-weight: 200;" x="0" y="136.90384571368878" dx="0em" dy="0.3em" fill="rgb(50, 49, 63)" stroke="none" stroke-width="1px">2e-3</text><text style="text-anchor: end; visibility: hidden; font-family: &quot;Helvetica Neue&quot;, sans-serif; font-size: 12px; font-weight: 200;" x="0" y="123.21346114231991" dx="0em" dy="0.3em" fill="rgb(50, 49, 63)" stroke="none" stroke-width="1px">3e-3</text><text style="text-anchor: end; visibility: inherit; font-family: &quot;Helvetica Neue&quot;, sans-serif; font-size: 12px; font-weight: 200;" x="0" y="109.52307657095103" dx="0em" dy="0.3em" fill="rgb(50, 49, 63)" stroke="none" stroke-width="1px">4e-3</text><text style="text-anchor: end; visibility: hidden; font-family: &quot;Helvetica Neue&quot;, sans-serif; font-size: 12px; font-weight: 200;" x="0" y="95.83269199958215" dx="0em" dy="0.3em" fill="rgb(50, 49, 63)" stroke="none" stroke-width="1px">5e-3</text><text style="text-anchor: end; visibility: inherit; font-family: &quot;Helvetica Neue&quot;, sans-serif; font-size: 12px; font-weight: 200;" x="0" y="82.14230742821327" dx="0em" dy="0.3em" fill="rgb(50, 49, 63)" stroke="none" stroke-width="1px">6e-3</text><text style="text-anchor: end; visibility: hidden; font-family: &quot;Helvetica Neue&quot;, sans-serif; font-size: 12px; font-weight: 200;" x="0" y="68.4519228568444" dx="0em" dy="0.3em" fill="rgb(50, 49, 63)" stroke="none" stroke-width="1px">7e-3</text><text style="text-anchor: end; visibility: inherit; font-family: &quot;Helvetica Neue&quot;, sans-serif; font-size: 12px; font-weight: 200;" x="0" y="54.76153828547551" dx="0em" dy="0.3em" fill="rgb(50, 49, 63)" stroke="none" stroke-width="1px">8e-3</text><text style="text-anchor: end; visibility: hidden; font-family: &quot;Helvetica Neue&quot;, sans-serif; font-size: 12px; font-weight: 200;" x="0" y="41.07115371410666" dx="0em" dy="0.3em" fill="rgb(50, 49, 63)" stroke="none" stroke-width="1px">9e-3</text><text style="text-anchor: end; visibility: inherit; font-family: &quot;Helvetica Neue&quot;, sans-serif; font-size: 12px; font-weight: 200;" x="0" y="27.38076914273779" dx="0em" dy="0.3em" fill="rgb(50, 49, 63)" stroke="none" stroke-width="1px">0.01</text><text style="text-anchor: end; visibility: hidden; font-family: &quot;Helvetica Neue&quot;, sans-serif; font-size: 12px; font-weight: 200;" x="0" y="13.690384571368895" dx="0em" dy="0.3em" fill="rgb(50, 49, 63)" stroke="none" stroke-width="1px">0.011</text><text style="text-anchor: end; visibility: hidden; font-family: &quot;Helvetica Neue&quot;, sans-serif; font-size: 12px; font-weight: 200;" x="0" y="0" dx="0em" dy="0.3em" fill="rgb(50, 49, 63)" stroke="none" stroke-width="1px">0.012</text></g><line x1="61.77000045776367" y1="0" x2="61.77000045776367" y2="177.9749994277954" fill="rgb(0, 0, 0)" stroke="rgb(204, 204, 204)" stroke-width="1px"></line></g></g><g transform="translate(61, 0)" clip-path="url(#clip_0)"><clipPath id="clip_0"><rect width="268" height="177"></rect></clipPath><g><g><g><line x1="0" y1="0" x2="0" y2="177.9749994277954" fill="rgb(0, 0, 0)" stroke="rgb(60, 60, 60)" stroke-width="1px" opacity="0.25"></line><line x1="19.159285681588308" y1="0" x2="19.159285681588308" y2="177.9749994277954" fill="rgb(0, 0, 0)" stroke="rgb(60, 60, 60)" stroke-width="1px" opacity="0.25"></line><line x1="38.318571363176616" y1="0" x2="38.318571363176616" y2="177.9749994277954" fill="rgb(0, 0, 0)" stroke="rgb(60, 60, 60)" stroke-width="1px" opacity="0.25"></line><line x1="57.477857044764924" y1="0" x2="57.477857044764924" y2="177.9749994277954" fill="rgb(0, 0, 0)" stroke="rgb(60, 60, 60)" stroke-width="1px" opacity="0.25"></line><line x1="76.63714272635323" y1="0" x2="76.63714272635323" y2="177.9749994277954" fill="rgb(0, 0, 0)" stroke="rgb(60, 60, 60)" stroke-width="1px" opacity="0.25"></line><line x1="95.79642840794155" y1="0" x2="95.79642840794155" y2="177.9749994277954" fill="rgb(0, 0, 0)" stroke="rgb(60, 60, 60)" stroke-width="1px" opacity="0.25"></line><line x1="114.95571408952985" y1="0" x2="114.95571408952985" y2="177.9749994277954" fill="rgb(0, 0, 0)" stroke="rgb(60, 60, 60)" stroke-width="1px" opacity="0.25"></line><line x1="134.11499977111816" y1="0" x2="134.11499977111816" y2="177.9749994277954" fill="rgb(0, 0, 0)" stroke="rgb(60, 60, 60)" stroke-width="1px" opacity="0.25"></line><line x1="153.27428545270647" y1="0" x2="153.27428545270647" y2="177.9749994277954" fill="rgb(0, 0, 0)" stroke="rgb(60, 60, 60)" stroke-width="1px" opacity="0.25"></line><line x1="172.4335711342948" y1="0" x2="172.4335711342948" y2="177.9749994277954" fill="rgb(0, 0, 0)" stroke="rgb(60, 60, 60)" stroke-width="1px" opacity="0.25"></line><line x1="191.5928568158831" y1="0" x2="191.5928568158831" y2="177.9749994277954" fill="rgb(0, 0, 0)" stroke="rgb(60, 60, 60)" stroke-width="1px" opacity="0.25"></line><line x1="210.7521424974714" y1="0" x2="210.7521424974714" y2="177.9749994277954" fill="rgb(0, 0, 0)" stroke="rgb(60, 60, 60)" stroke-width="1px" opacity="0.25"></line><line x1="229.9114281790597" y1="0" x2="229.9114281790597" y2="177.9749994277954" fill="rgb(0, 0, 0)" stroke="rgb(60, 60, 60)" stroke-width="1px" opacity="0.25"></line><line x1="249.07071386064803" y1="0" x2="249.07071386064803" y2="177.9749994277954" fill="rgb(0, 0, 0)" stroke="rgb(60, 60, 60)" stroke-width="1px" opacity="0.25"></line><line x1="268.2299995422363" y1="0" x2="268.2299995422363" y2="177.9749994277954" fill="rgb(0, 0, 0)" stroke="rgb(60, 60, 60)" stroke-width="1px" opacity="0.25"></line></g><g><line x1="0" y1="177.9749994277954" x2="268.2299995422363" y2="177.9749994277954" fill="rgb(0, 0, 0)" stroke="rgb(60, 60, 60)" stroke-width="1px" opacity="0.25"></line><line x1="0" y1="164.28461485642654" x2="268.2299995422363" y2="164.28461485642654" fill="rgb(0, 0, 0)" stroke="rgb(60, 60, 60)" stroke-width="1px" opacity="0.25"></line><line x1="0" y1="150.59423028505765" x2="268.2299995422363" y2="150.59423028505765" fill="rgb(0, 0, 0)" stroke="rgb(60, 60, 60)" stroke-width="1px" opacity="0.25"></line><line x1="0" y1="136.90384571368878" x2="268.2299995422363" y2="136.90384571368878" fill="rgb(0, 0, 0)" stroke="rgb(60, 60, 60)" stroke-width="1px" opacity="0.25"></line><line x1="0" y1="123.21346114231991" x2="268.2299995422363" y2="123.21346114231991" fill="rgb(0, 0, 0)" stroke="rgb(60, 60, 60)" stroke-width="1px" opacity="0.25"></line><line x1="0" y1="109.52307657095103" x2="268.2299995422363" y2="109.52307657095103" fill="rgb(0, 0, 0)" stroke="rgb(60, 60, 60)" stroke-width="1px" opacity="0.25"></line><line x1="0" y1="95.83269199958215" x2="268.2299995422363" y2="95.83269199958215" fill="rgb(0, 0, 0)" stroke="rgb(60, 60, 60)" stroke-width="1px" opacity="0.25"></line><line x1="0" y1="82.14230742821327" x2="268.2299995422363" y2="82.14230742821327" fill="rgb(0, 0, 0)" stroke="rgb(60, 60, 60)" stroke-width="1px" opacity="0.25"></line><line x1="0" y1="68.4519228568444" x2="268.2299995422363" y2="68.4519228568444" fill="rgb(0, 0, 0)" stroke="rgb(60, 60, 60)" stroke-width="1px" opacity="0.25"></line><line x1="0" y1="54.76153828547551" x2="268.2299995422363" y2="54.76153828547551" fill="rgb(0, 0, 0)" stroke="rgb(60, 60, 60)" stroke-width="1px" opacity="0.25"></line><line x1="0" y1="41.07115371410666" x2="268.2299995422363" y2="41.07115371410666" fill="rgb(0, 0, 0)" stroke="rgb(60, 60, 60)" stroke-width="1px" opacity="0.25"></line><line x1="0" y1="27.38076914273779" x2="268.2299995422363" y2="27.38076914273779" fill="rgb(0, 0, 0)" stroke="rgb(60, 60, 60)" stroke-width="1px" opacity="0.25"></line><line x1="0" y1="13.690384571368895" x2="268.2299995422363" y2="13.690384571368895" fill="rgb(0, 0, 0)" stroke="rgb(60, 60, 60)" stroke-width="1px" opacity="0.25"></line><line x1="0" y1="0" x2="268.2299995422363" y2="0" fill="rgb(0, 0, 0)" stroke="rgb(60, 60, 60)" stroke-width="1px" opacity="0.25"></line></g></g></g><g><g><line x1="0" y1="164.28461485642654" x2="268.2299995422363" y2="164.28461485642654" fill="rgb(0, 0, 0)" stroke="rgb(153, 153, 153)" stroke-width="1.5px"></line></g></g><g><g><line x1="19.159285681588308" y1="0" x2="19.159285681588308" y2="177.9749994277954" fill="rgb(0, 0, 0)" stroke="rgb(153, 153, 153)" stroke-width="1.5px"></line></g></g><g><g><g><g><g><path style="fill: none;" stroke="rgb(187, 187, 187)" stroke-width="2px" d="M19.19952018151964,150.59412125840353L19.319265717029573,150.59251792525455L19.378659502642495,150.59101181210767L19.613360752241952,150.58044033220997L19.672754537854875,150.57659775147224L19.720652752058847,150.5731552071365L19.779088573387693,150.56853805392322L20.130661465644838,150.53113225968247L20.436252072266168,150.48520138689912L20.4860662150383,150.4765312752387L20.534922393526347,150.4677065678373L20.823269643034255,150.40913550101376L20.957384642805373,150.3781143514994L21.36930928495952,150.26785093144173L21.447862356254035,150.24425834634815L21.540784891809736,150.21529156704156L21.73141978434154,150.15227228668047L22.26883774771009,149.94865216430293L22.325357640470777,149.92501335986412L23.294817495959148,149.4538979799756L23.37432853153774,149.40976966165698L23.462461245673044,149.35988783174017L23.478746638502397,149.3505594928526L23.921326137747084,149.08374477535614L24.07747431605203,148.98350298436478L24.279604779992784,148.849027002479L24.641715279374804,148.59484769771117L24.817980707645415,148.46497452510394L24.897491743224005,148.40507584743239L25.098664242880684,148.2498872237932L25.576688420636312,147.86026451843043L25.588183992045266,147.85053454937037L25.725172884668623,147.73328403932754L25.832464884485518,147.63978071011928L26.013520134176527,147.47867122897668L26.308573133672986,147.2072042953154L26.62949116883959,146.89945039432246L26.663019918782368,146.86654859558763L26.886225596972874,146.64391797837823L26.995433525357928,146.5327190150219L27.034710061005185,146.49236155776734L27.30006616769518,146.21466298135013L27.66409259564536,145.8194796106228L27.718696559837888,145.75878882899997L28.030034952163696,145.40573678212243L28.229291523252215,145.1735467292992L28.311676451683045,145.07612750590906L28.44962330859048,144.9111595063235L29.12115627173015,144.07520614651906L29.197793414456502,143.9763604985083L29.23898587867192,143.9229420917947L29.605886199474334,143.43822866178L29.66432202080318,143.35955696108493L29.716052092143467,143.28957609106715L30.206529805592126,142.6104322195267L30.23910059125083,142.56433718837923L30.625160197734832,142.00860374996387L30.629950019155228,142.00160072227345L30.811963233130317,141.73352851983213L30.932666732924325,141.55366195337126L31.494991767678943,140.69388491174706L31.64539216027941,140.45788415359664L31.671257195949554,140.41704378387274L32.206759230749945,139.5547884290809L32.85242715821947,138.47333065748066L33.21070580046517,137.85384799180343L33.31703983599799,137.66736090257834L33.40708847870145,137.5085018254182L33.98186704914911,136.47449219614185L34.26063465581622,135.96068289140794L34.59783808381217,135.32858712578943L35.30768961831502,133.96075269725895L35.50790415368761,133.56599167572097L35.53760104649408,133.50710504233334L35.74835318899155,133.08677356647925L35.96485311719349,132.65055219848284L37.869286113943375,128.6269701296787L37.973704220908026,128.3970400434611L38.060878970759255,128.2043659370548L38.31378154175622,127.64174581619743L38.36934347023283,127.51741896502L38.37796514878954,127.49810246624719L38.55231464849199,127.10617198116304L38.62799382693427,126.93526559259828L38.83491411229542,126.46556866847776L38.872274719374516,126.38039119649635L39.06482554047449,125.93960208217297L39.06769943332672,125.93300068465506L39.137630826064516,125.77215736319027L39.35317278998239,125.27396382206824L39.41448250416347,125.13158273837445L39.58212625387737,124.74076151757626L40.08888936015538,123.54619225798874L40.46920118093491,122.63700992383494L40.55062814508166,122.44096339899605L40.57745114503588,122.37627862843551L41.32466328661782,120.55373828135026L41.46644200066158,120.2035358961729L41.53828932196754,120.02554679139143L41.60151496471678,119.86863052050225L41.83430028574808,119.28858730025672L41.863997178554534,119.2143335314592L42.29124924925395,118.13968275377471L42.42057442760468,117.81209915989965L42.42249035617284,117.80723815979592L42.458892998967855,117.71483771979152L42.745324319907596,116.98491313175772L42.84686853402002,116.72493728358754L43.045167140824454,116.21546940976592L43.35075774744579,115.42581030242474L43.482956818648745,115.0825312564115L43.88625978224618,114.02921787852654L43.91978853218897,113.94124812058391L43.990677889210836,113.75505109759453L44.82985460206441,111.53092201603874L44.830812566348484,111.5283624205743L45.50809331519263,109.70798960140417L45.601973815032416,109.4539935802468L46.40187399223873,107.27443588521582L46.50246024206706,106.99849683145912L46.91151099136898,105.87233857792148L46.93641806275504,105.80357056727381L46.99964370550428,105.62888694256289L47.13280074099132,105.26052832355549L47.19219452660425,105.09601932988133L47.391451097692766,104.54322958562715L47.73440231139319,103.58868216722668L47.90300402539117,103.11802260570855L47.92791109677723,103.04841945930535L48.064899989400594,102.66526427473633L48.3484574174881,101.87039991285785L48.48448834582738,101.48827749158954L48.57453698853084,101.23504648028458L48.58794848850795,101.1973123693155L49.24511198738643,99.3427882353183L49.28055666589737,99.24246994334169L49.699187058040074,98.05560178293487L49.75283305794852,97.9032500708316L50.23085723570415,96.5433430568965L50.33335941410065,96.25122404476177L50.44352530676978,95.93708549904244L50.54411155659812,95.65010480308291L50.6705628420966,95.28911577898685L50.67822655636924,95.26723012212642L50.80467784186772,94.90601159507465L50.94549859162739,94.50350803632229L51.1313436627388,93.97194731547188L51.15816666269303,93.89519770203097L51.47812673357555,92.97909840379513L51.4896223049845,92.9461647296498L51.52410901921136,92.84736370721376L51.575839090551646,92.69914304831339L51.61128376906259,92.59757524024454L51.64672844757352,92.4959946820115L51.76455805451529,92.15823645709965L52.07685441112518,91.26262029766154L52.23300258943013,90.81461777793834L52.303891946452005,90.61119528310599L53.02715498093196,88.53512429585693L53.15073237357821,88.18039560238627L53.42662608739308,87.38854665434263L53.60097558709553,86.88826846137283L53.68144458695821,86.65742036333235L54.24855944313322,85.03157679946054L54.277298371655604,84.94924898917927L54.46026954991477,84.42528099111385L54.79747297791072,83.46053981643028L55.07240872744151,82.67493844884783L55.33584890556336,81.92316326690514L55.44314090538025,81.61728045250952L55.99780222586223,80.03909700244154L56.25166276114327,79.31871272477522L56.366618475232805,78.99293965421747L56.501691439288,78.61052397917241L56.80345018877302,77.75770374589337L57.19238368810926,76.66180800709982L57.3906822949137,76.10460033094807L57.49701633044651,75.80625286359849L57.76141447285244,75.0658444530459L57.956839186804636,74.51993979746321L58.116819222245894,74.07393905352042L58.167591329302105,73.93256523279894L58.237522722039905,73.7379786017617L58.47413990020752,73.08080326314902L58.69542964982986,72.4679474953181L58.952164077963154,71.75913399166916L59.5221528269904,70.19441471500322L59.824869540759494,69.36873320623768L59.84211289787292,69.32181260195782L60.84797539615631,66.60796565093626L60.96388907452992,66.29827053744289L61.03286250298364,66.11430479318965L61.062559395790096,66.0351708990421L61.122911145687105,65.8744805795478L61.303008431094035,65.39606254311002L61.37964557382038,65.19298430271127L61.50130703789847,64.87121478371435L61.508012787887026,64.85350480563156L61.55016321638652,64.74222137243736L61.600935323442734,64.60830002269456L62.091413036891396,63.321706452946756L62.23319175093514,62.9522704450639L62.62404117883955,61.93975440509864L62.75336635719027,61.60668824061477L62.89801896408626,61.23532695793676L63.53027539157868,59.62718062198353L63.54560282012394,59.58850937394527L63.62128199856622,59.397773292498385L64.47195428282875,57.27967776402474L64.7947882465635,56.48870857731134L64.85897185359683,56.33232781331884L64.89633246067592,56.24143189269081L65.11283238887786,55.71667338444459L65.21437660299028,55.47170447954542L65.31496285281862,55.22979561405583L65.64162867368971,54.44929431215593L66.36010188674928,52.76107056990391L66.43578106519153,52.58557730976585L66.55648456498555,52.30660371692801L67.06324767126355,51.14814929745536L67.11114588546752,51.039734651207624L67.2155639924322,50.80404786585079L67.24430292095458,50.73934078250288L67.84207263422013,49.409116150840475L67.99534691967283,49.072932571208156L68.14383138370513,48.749205902005514L68.23292206212452,48.555887912306815L68.77991966833387,47.38436457452252L68.97438641800198,46.97434479397043L69.2531540246691,46.39260580188542L69.31158984599796,46.27156849307329L69.62676009546007,45.624242656310116L69.84134409509386,45.18886279915134L69.87295691646848,45.12508647779052L70.01952545193264,44.83065968593439L70.03389491619383,44.801895315484586L70.3797200227465,44.11587273035474L70.6077155223574,43.66994848739719L70.61825312948227,43.64945897351737L70.75715795067379,43.38043050876058L70.79930837917328,43.29917371227265L71.0071866288185,42.90099883426839L71.66243419912882,41.674407537276295L71.78696955605916,41.44624334880126L71.83007794884274,41.3676385864683L72.13375262689591,40.819330524932695L72.36749591221128,40.403866424264436L72.3751596264839,40.390338500041366L72.58112194756099,40.02919009889271L73.12811955377035,39.09202752938779L73.29097348206385,38.81925051635426L73.30438498204096,38.796912228664524L73.38772787475587,38.65854744669576L73.55920348160608,38.37627156132842L73.5908163029807,38.32458239563533L74.0554289807592,37.57765227609113L74.22690458760943,37.30803730378085L75.14271844318935,35.92442773458589L75.4099904784475,35.53874801750399L75.43585551411766,35.50186179245463L75.452140906947,35.47866924376305L75.93208101327079,34.809298373086875L75.97710533462252,34.74789358226846L76.09301901299612,34.59090081039403L76.29227558408465,34.324728382419465L76.80861833320346,33.656964032433336L76.81436611890793,33.64970918899982L76.83544133315768,33.62315059695774L76.92165811872482,33.51502920448675L77.09217576129096,33.30384823473477L77.79148968866893,32.47467955605876L77.85950515283857,32.397222308504354L78.24652272360665,31.967325021954366L78.68622832999911,31.501408521521057L79.0770777579035,31.107504948525957L79.39033207879747,30.805670311265885L80.00247125632421,30.25166292633L80.15382961320877,30.12203200684266L80.33967468432019,29.966862508449765L80.96809925467626,29.475050424513086L81.3206301112175,29.221462408610336L81.70668971770151,28.96226432045674L82.00270068148204,28.776672930267154L82.04293518141337,28.75233286679699L82.43186868074962,28.527955477091297L83.13884632240023,28.171001879966582L83.31990157209124,28.090178589061708L83.3630099648748,28.071576099484417L83.76439699990408,27.910171770794562L84.57004496281488,27.650731429521016L84.66296749837058,27.62636586572245L84.86605592659542,27.57711198139279L85.42263317564556,27.4703166059993L85.43604467562267,27.468251079397845L85.69469503232412,27.433162627501616L85.94759760332109,27.407509297118168L86.02327678176334,27.401491219612694L86.13535860300064,27.39398137289507L86.65936506639208,27.3808614539266L86.77240485191345,27.381269459181226L86.8452101375035,27.381728465092664L87.17091799409049,27.38554076419038L87.5847585648128,27.394555130284374L87.7054620646068,27.398061425441142L88.04266549260277,27.409970078810005L88.0915216710908,27.411959104426217L88.11259688534055,27.41282611559228L88.14420970671517,27.414164882833944L88.16815881381716,27.415197646134658L88.41722952767782,27.426838546055194L88.41914545624596,27.426940547368844L88.51685781322207,27.431976862230414L88.51973170607431,27.432129864200874L88.66725820582253,27.44023896863621L88.82532231269565,27.449572088835367L89.09930009794235,27.46738406823181L89.26215402623585,27.478948467167072L89.85130206094469,27.526799833434012L89.97583741787503,27.538121979249382L90.2277820245879,27.562321790913273L91.47313559389114,27.707329408433623L92.17340748555318,27.807367196797685L92.42631005655016,27.846777954359936L92.5642569134576,27.869001490571804L92.60928123480933,27.876371085483157L92.72136305604663,27.894935324567797L92.83248691299984,27.913690816115547L92.8391926629884,27.91482558072991L93.11221248395103,27.9623709430559L93.78566137565886,28.088253314266524L94.00982501813344,28.132878888989183L94.07975641087123,28.147069821751018L94.62292215994425,28.26183404977357L94.68806373126166,28.276139734013242L94.76182698113577,28.29245994419756L94.7752384811129,28.295443482621863L94.81259908819199,28.30379484017709L94.84325394528253,28.310654428520195L95.41036880145755,28.442338124444746L95.77247930083956,28.53092626535141L95.82612530074802,28.54435218826083L95.89222483634948,28.561003902714504L95.95449251481465,28.576801356166328L96.17003447873252,28.632251820300326L96.1853619072778,28.636242621696965L96.32330876418523,28.67245308804337L96.3482158355713,28.679044922938118L96.38366051408224,28.68845454412252L96.75056083488465,28.78781657378363L96.76876215628215,28.792840138480983L96.86647451325825,28.819959737748178L97.11937708425522,28.891335156976083L97.2276270483562,28.922407307147267L98.41741868918282,29.284486470282985L98.44998947484153,29.294928854768102L98.5256686532838,29.31929441856667L98.92609772402899,29.450761361699733L99.4002900446483,29.611936187433884L100.02009293644768,29.83155776589055L100.20402207899093,29.89867463027349L100.28544904313769,29.928675766651338L100.67150864962169,30.07327537891706L100.74814579234804,30.102447754621494L101.07289568465096,30.22775636844281L101.10259257745743,30.239359017870726L101.13420539883204,30.251726677150998L101.2434133272171,30.294656480034234L101.55762561239514,30.419939593527147L102.29142625399997,30.7225137403112L102.37285321814673,30.75695193383291L102.50984211077008,30.81528393507756L102.87865836014066,30.974737488643854L102.93326232433319,30.998644046531012L103.14018260969435,31.089935222249437L103.2963307879993,31.159563868981024L103.59138378749574,31.292841335431405L104.1058106080464,31.530555396897086L104.2408835721016,31.5941022153022L104.75052057123185,31.83806385722903L104.76584799977712,31.845509953125628L105.13179035629545,32.024917513675064L105.35020621306556,32.13362541369952L105.40959999867847,32.163384296957446L105.60310878406253,32.26099955412229L105.80715517657144,32.36496439306197L106.42408417551859,32.685682023511845L106.62142481803895,32.79029712082604L106.93180524608067,32.95681426536271L106.9538384246145,32.968722918731544L107.03526538876125,33.0128512370502L107.0381392816135,33.014419507247595L107.40695553098405,33.216407608606715L107.99035577998843,33.542850062785305L108.04687567274911,33.5749294759288L108.37066760076796,33.760214862177435L108.46359013632366,33.8138675531583L108.70116527877535,33.95201558233555L109.1130899209295,34.194842459648015L109.72139724131992,34.561052675986645L109.95897238377162,34.70654479974681L110.22049663332531,34.868280632706075L110.47339920432228,35.026267917388594L110.52704520423072,35.05997935155054L110.55770006132126,35.07928310015916L110.62571552549089,35.122174652549745L111.07500077472413,35.40832658783589L111.09703395325796,35.42247927010507L111.4122042027201,35.62627789478148L111.63636784519468,35.77268803036455L111.69863552365985,35.813565056810546L112.29832116549356,36.21203318859156L112.48033437946864,36.3346642679295L112.65276795060294,36.45157052353875L112.84436080741882,36.58229795714783L112.92099795014518,36.634828633678524L113.02637402139392,36.707275066699765L113.24287394959586,36.85696199448387L113.42680309213911,36.98499914344538L113.49386059202467,37.03188149723263L113.54080084194456,37.064751420556945L114.05043784107481,37.42500731021113L114.48247973319462,37.735155054533834L114.58402394730705,37.8086852515126L114.5859398758752,37.81007501941113L114.84459023257664,37.9984331952335L115.4979218743188,38.48109066126992L115.51995505285262,38.49753837309629L115.77764744526999,38.690728861152934L115.83416733803068,38.73330165943838L115.91080448075704,38.79114915444319L115.98265180206299,38.845503104455446L116.13784201608385,38.96330187155914L116.23459640877587,39.037023321001016L116.3265609800475,39.107289475942935L116.3917025513649,39.1571808684829L116.79787940781456,39.470401402379366L116.81703869349616,39.48526809384413L117.35924647828512,39.90940230617281L117.38990133537564,39.933576617508294L117.52784819228309,40.04262877196635L117.71465122767856,40.19097693250879L117.74434812048503,40.21462848711181L117.7970361561094,40.25665302833636L117.83056490605217,40.283415623005794L117.84014454889298,40.29106572152966L118.02694758428846,40.44071439882117L118.32487447663716,40.680965742963934L118.73679911879131,41.01634606225127L119.05196936825344,41.275467649419625L119.10753129673004,41.321380990727164L119.63249572440557,41.75840561906861L119.64590722438268,41.76965126389871L119.66027668864388,41.781700169073844L119.6727302243369,41.79214255355896L119.83462618834632,41.92826330662737L120.1612920092174,42.204635865967106L120.32989372321538,42.34816446443949L120.48699986580439,42.48246194402637L120.50041136578152,42.493949841976416L120.90467229366303,42.84202932481341L120.95927625785556,42.889319683855234L121.07710586479732,42.991563250627024L121.2457075787953,43.1383686413005L121.34150400720323,43.22204796898765L121.76013439934594,43.58997945749414L122.46328018386023,44.216191022331344L123.04955432571683,44.7460878467528L123.18079543263572,44.865671636845406L123.80922000299182,45.44312657375704L123.81017796727589,45.444006335087266L123.8657398957525,45.495453247660436L124.05733275256837,45.67329253801245L124.36483928775787,45.96028598413619L124.71832810858318,46.292504262700334L124.74994092995779,46.322339646943504L124.9357860010692,46.49810066052987L125.09672400079454,46.65086037788774L125.14941203641892,46.70099402354765L125.24137660769054,46.788600401810385L125.67916628551484,47.207953302561634L125.80274367816108,47.32700158575756L126.16198028469086,47.67473681416098L126.36985853433609,47.87709467028208L127.08737378311157,48.58189824728805L127.12473439019067,48.618860973322654L127.31536928272247,48.807882157683764L127.71771428203583,49.209066074440756L127.97349074588503,49.46566312909624L128.11910131706512,49.6122900174708L128.34805478096007,49.84362899683322L128.64693963759285,50.147057404619105L128.80691967303412,50.310144754984236L129.4171429219927,50.93647107129932L129.80990827846526,51.343137558665106L129.82140384987423,51.35508446252658L130.05802102804185,51.601443135324246L130.1662709921428,51.714473341014724L130.3205032418796,51.87587766970459L130.92785259798595,52.51552790761545L130.96425524078097,52.55407165401165L131.0332286692347,52.627155595243224L131.07058927631377,52.66678310559696L131.2564343474252,52.864244898662776L131.28613124023164,52.89585255573064L131.38959138291222,53.006090475459885L131.84941423927035,53.49823406366593L132.03142745324544,53.6940383353849L132.14255131019866,53.813838878269024L132.3810844169344,54.07172369950936L132.82270595189502,54.5516653805698L133.06890277290344,54.82061734434136L133.09668373714175,54.85102648597383L133.1551195584706,54.915045060454574L133.44634070083075,55.234870179409995L133.60727870055607,55.412212213357975L134.0948825211525,55.95204141569627L135.25689319774082,57.253654678879315L135.2578511620249,57.25473844283688L135.39100819751195,57.40524138113021L135.41974712603434,57.43775429985675L135.45902366168158,57.482214122444745L135.87286423240388,57.95210867411049L136.22731101751327,58.35661400864326L136.62678212397438,58.814759283992714L136.63827769538335,58.82798120427485L136.73886394521168,58.9437271949413L137.05403419467382,59.30736825319231L137.57229287236078,59.908474744706965L137.59528401517866,59.93523096429428L137.6268968365533,59.97203431327628L138.13557587139948,60.566166464969996L138.6749097633362,61.200072753905815L138.7304716918128,61.265608597927155L138.94601365573067,61.52023575221273L139.1826308338983,61.80049711163544L140.5209069387572,63.39972470772622L140.7584820812089,63.68608064563962L140.80925418826513,63.74737068498018L140.91367229522976,63.873520809639146L141.21734697328296,64.2411972948615L141.3399664016451,64.38999171115115L141.43097300863266,64.50054838498556L141.57275172267643,64.67298160571406L141.60340657976695,64.71030133634643L141.66184240109578,64.78146637786492L141.88600604357038,65.05486177386243L142.0699351861136,65.27964716882272L142.16956347165788,65.40157698912932L142.59489961378915,65.9234730855112L142.8765411133085,66.27023930143493L143.04131097017014,66.47354704478941L143.12561182716914,66.57769038602798L143.1371073985781,66.59189406895399L143.14477111285072,66.60136744095941L143.21757639844077,66.69138997533928L143.25876886265618,66.74235238167259L143.62279529060635,67.19355519261163L143.76265807608195,67.36731443041758L144.36809150362012,68.12203490029195L144.58171753896985,68.38930384238826L145.12296735947473,69.06870271721282L145.1335049665996,69.08196288798756L145.30402260916574,69.29666927814263L145.35575268050601,69.36186724281248L145.4917836088453,69.53344620253912L146.25815503610883,70.50368907307778L146.4880664642879,70.79592921177249L146.76587610667093,71.14975264358452L146.8731681064878,71.2866065310948L147.39238474845885,71.95046295575166L147.53320549821854,72.13096065534074L147.88669431904384,72.58486012600946L147.89914785473687,72.60087433225279L147.9805748188836,72.70560418104483L148.36663442536764,73.20298808673975L148.46817863948004,73.334034274454L149.07361206701825,74.11728323674036L149.31980888802667,74.4367067255233L149.64264285176142,74.85634012988706L149.78537953008924,75.04214827286815L150.08713827957425,75.43553546421288L150.09192810099466,75.44178304467405L150.10629756525586,75.46053216113968L150.42242577900205,75.87349085454137L150.45308063609258,75.91357737080656L150.9416424209731,76.55346348675523L150.9598437423706,76.57733816923187L151.05851406363078,76.7068033365845L151.32578609888893,77.05787910801003L151.78369302667892,77.66059212021469L152.2578853472982,78.28633830405836L152.56347595391955,78.69044200841864L152.70238077511107,78.87433125168666L152.74644713217873,78.93269512834185L153.2503363456045,79.60102048555306L153.28865491696766,79.65190639090115L153.31739384549005,79.69008038253536L153.32697348833085,79.70281142149554L153.39977877392087,79.7995469173301L153.43234955957956,79.84283372481113L153.54538934510094,79.99311991031294L153.99275866576602,80.58868645547989L154.221712129661,80.8939508869115L154.4449178078515,81.19185847359599L155.04939327110563,82.00007863248076L155.0838799853325,82.04625335215454L155.17680252088817,82.17069495480982L155.37797502054485,82.44027167662749L155.37893298482894,82.44155306813023L155.6653643057687,82.8257473910821L155.90964519820895,83.15373899021176L156.04471816226413,83.33523120260897L156.3263596617835,83.71394933003413L156.47580209009988,83.91505767006299L156.69517591115408,84.21046622456302L156.88293691083365,84.46348048307645L156.90688601793562,84.49576389884729L157.0275895177296,84.65851974494304L157.32264251722606,85.05662449704417L157.37916240998675,85.13292785473786L157.4931601597922,85.28687333736694L157.61194773101806,85.44734052898765L158.66091862208503,86.86681631009543L158.74521947908403,86.98107690663183L158.7825800861631,87.03172055885997L158.82185662181035,87.08496524458624L159.32095601381576,87.76204358952525L159.68881429890226,88.26160139821735L160.33065036923543,89.13417801093435L160.4503959047454,89.29709960916479L161.11905497503278,90.20751233416453L161.2138934391567,90.33672249823303L161.34417658179146,90.5142557846441L161.46104822444914,90.6735499611578L161.51661015292575,90.74928593654431L161.58270968852725,90.83939772207364L161.58654154566355,90.84461891431619L161.68329593835557,90.97653848827856L161.76568086678643,91.08888018510189L162.3193842229843,91.84422541302237L162.55025361544745,92.15932022105719L162.74472036511557,92.4247913900004L162.79357654360362,92.4914938740466L162.85967607920512,92.5817459113822L163.36835511405127,93.27645773341874L163.3865564354488,93.30132055362138L163.58006522083284,93.56567608319651L163.68065147066116,93.70310372809608L163.8521270775114,93.93740712063654L163.8655385774885,93.95572910660124L163.90002529171534,94.0028537135084L163.9393018273626,94.0565255297356L164.02935047006608,94.17957736449236L164.07629071998596,94.2437298156973L164.24872429112028,94.47938472564363L164.33206718383516,94.59328831758224L164.34931054094858,94.61685699611792L164.47863571929932,94.7936125225124L165.27087218223298,95.87652859414375L165.5036575032643,96.19473444224495L166.26044928768704,97.22914888923484L166.32463289472034,97.31686364389333L166.3830687160492,97.39672429740064L167.1848848218237,98.492237531268L167.32187371444704,98.67934619099813L167.82480496358872,99.36608278532354L168.20320085580008,99.88254093667135L168.33348399843487,100.06030372603814L168.34785346269607,100.0799071035056L168.89772496175766,100.82983988672044L168.97723599733627,100.93823540772186L169.2263067111969,101.27768940447316L169.3929924966267,101.50478895423693L169.4629238893645,101.60005180610568L169.6027866748401,101.79053288426844L169.62098799623763,101.81531920348584L169.68421363898685,101.90140831220802L169.83844588872364,102.11137801636038L169.92562063857486,102.23003104446592L169.97160292421069,102.29260885039133L170.156490031038,102.54416959018525L170.33467138787677,102.78651833633998L170.44771117339815,102.94022794093124L170.55691910178322,103.08868447786942L171.33574406473977,104.14638709978246L171.46027942167012,104.31533315060047L171.61259574283872,104.5218985609097L171.86645627811978,104.86599999251428L171.97566420650483,105.0139528979663L172.22186102751326,105.34733781655532L172.62707991967883,105.89556300202358L172.67497813388277,105.96032108602832L172.83974799074446,106.18302182914086L172.8751926692554,106.23091144590042L173.11180984742302,106.55048793665381L173.54385173954282,107.1333808185995L173.57067473949704,107.16954028428908L173.7402344177791,107.39805510227978L174.30160148824964,108.15364258332019L174.32363466678348,108.18327396493605L174.48553063079288,108.40088101744811L174.48648859507696,108.40216878403297L174.546840344974,108.48325345330409L174.9079928800719,108.96809757250193L174.97600834424154,109.05933137248142L175.10533352259228,109.23273360568959L175.4300834148952,109.66778195857901L175.59102141462054,109.88316410743703L176.22327784211294,110.72788798644496L176.86128205530986,111.57788087081123L177.05000101927348,111.82882004010007L177.08831959063667,111.87974738348181L177.66693001822063,112.64755270937309L177.79529723228728,112.8175920867718L177.9897639819554,113.07497646406702L178.17848294591903,113.32450674021106L178.46683019542695,113.70528720669662L178.48886337396075,113.73435758108741L178.672792516504,113.97691032986944L179.01478576592035,114.42724931718348L179.08854901579448,114.52427169171273L179.28205780117852,114.77859602959839L179.36348476532527,114.88552846925711L179.4698188008581,115.02509495420233L179.51867497934612,115.08919321720938L179.75625012179785,115.40061279041169L180.13273008544104,115.89321219698812L180.2697189780644,116.0721735017903L180.46993351343698,116.33345624179167L180.6232077988897,116.53326087753041L180.7870196914673,116.7465902499512L180.93742008406775,116.9422542698639L181.3646721547672,117.49704897743953L181.5859619043895,117.78378104519703L181.83599058253424,118.10723358586921L181.89155251101084,118.17903613559801L181.977769296578,118.29039925731848L182.19331126049588,118.56851858915452L182.48740629570824,118.94731640510597L183.17426668739319,119.82886913342433L183.5651161152976,120.3285034431017L183.60247672237668,120.37618586969289L183.61205636521746,120.3884069020848L184.1504322928701,121.07392904326953L184.32765568542482,121.29895350380872L184.86028382737297,121.9733160637717L184.97619750574657,122.11968476132108L185.053792612757,122.21759008472162L185.1697062911306,122.36372290423319L185.41973496927534,122.67845433258812L185.60079021896632,122.90594276236018L186.24166832501547,123.70832334603838L186.46487400320598,123.98671043132275L186.90841146673475,124.53823790932049L186.96588932377952,124.6095463901863L187.0645596450397,124.73186827804224L187.16514589486803,124.85645332004485L187.33087371601377,125.0614632103209L187.83859478657587,125.68752814826973L188.0321035719599,125.92533783596696L188.0464730362211,125.94297768814663L188.31949285718375,126.27768862381312L188.8003909277916,126.86504087569003L189.37516949823925,127.56329724337598L189.46330221237457,127.66999699253795L189.58400571216856,127.81596724745586L189.8608573902675,128.1500693627815L190.31014263950075,128.69015356840393L190.31589042520523,128.6970482196986L190.34846121086392,128.73609559758094L190.47299656779424,128.88526933125576L190.82265353148324,129.30301252377592L191.12058042383194,129.65766471626134L191.2863082449777,129.85442843783684L191.56028603022438,130.17889780410448L191.8946155653681,130.57344844793306L191.92335449389049,130.60729375881917L192.17146724346705,130.89899520307614L192.5977613498824,131.3981736943831L192.6015932070187,131.4026490020196L192.6542812426431,131.4641621692338L192.80659756381172,131.64177514417113L192.93496477787835,131.79120069358902L192.9943585634913,131.86026195801344L193.16008638463703,132.0526874362177L193.59212827675682,132.5524619977013L193.9896834546498,133.00992832680677L194.3086855612482,133.37531297001303L194.36041563258854,133.4344195437332L194.4131036682129,133.49458119354153L194.4178934896333,133.50004782644504L194.68133366775513,133.80020900465303L194.72635798910687,133.85140728902417L194.72827391767504,133.85358437956242L194.93232031018394,134.08520386253738L195.03961231000085,134.20674161529465L195.24270073822566,134.4363115093734L195.3490347737585,134.5562586791459L195.56745063052858,134.80208503258797L196.13839734383993,135.44117107573268L196.43824016475676,135.77474405924374L196.97182627098903,136.3648025334735L197.34543234177997,136.77521438157493L197.562890234266,137.0130463820595L197.57534376995903,137.02664124464468L197.77651626961574,137.245931318832L197.85506934091023,137.33137654426173L197.99972194780622,137.48845537974455L198.02654494776044,137.51754487938163L198.22675948313304,137.73429288958027L198.3311775900977,137.8470680919866L198.38482359000616,137.9049378997788L198.4327218042101,137.95656490842137L198.87338537488665,138.42972668966502L198.94427473190854,138.50553757226623L199.2019671243259,138.78039604960645L199.24603348139357,138.8272847784758L199.32362858840398,138.90976718449807L199.61676565933226,139.2204344980122L200.43582512222017,140.08056216915207L200.45594237218586,140.1015409705833L200.4626481221744,140.10853124810953L200.48468130070825,140.13149588761593L200.5229998720714,140.1714150579759L200.90810151427132,140.571153424866L201.10831604964395,140.77793240042567L201.49629158469608,141.17658222204665L201.59591987024035,141.27851340979538L203.29439054591316,142.9882371164406L204.36539461551394,144.0385717372128L204.53112243665967,144.19914252391766L204.74762236486163,144.40810815263876L204.78210907908849,144.44131117400298L205.45076814937593,145.0805008122319L205.59925261340823,145.22125306244828L205.9211286128589,145.52487591023834L206.2324670051847,145.81660604236478L206.2468364694459,145.83002399642157L206.34550679070608,145.92204830658187L206.45375675480707,146.02278416643622L206.55530096891948,146.1170652556611L207.39543564605714,146.8891482616436L207.61576743139537,147.0892636826349L207.66366564559937,147.13263495995378L207.88303946665354,147.3306784792615L208.0008690735953,147.43664350021106L208.75478696516583,148.1078599571561L209.02876475041253,148.34885559213444L209.22897928578513,148.52397431619892L209.65144153506415,148.8907152581226L209.65527339220048,148.89402551950474L210.04229096296854,149.22665180332348L210.06911396292278,149.24958616118988L210.42835056945256,149.5552777231224L210.4312244623048,149.55771141071534L210.79812478310723,149.86704633206986L210.95427296141216,149.99781679748315L211.00696099703651,150.04182239547129L211.62197406741552,150.55104164109088L212.09425045946665,150.93647990193813L212.46210874455315,151.2333045215503L212.5914339229039,151.33694741884378L212.99665281506947,151.65929547654156L213.11065056487493,151.74932199534774L213.35109960017886,151.93825791298573L213.5963384569032,152.12962512756084L213.847325099332,152.3240802725297L214.7085349907194,152.9804921950605L214.79570974057063,153.04599775744182L215.30534673970084,153.42547611340783L215.4576630608695,153.53773573104905L215.82264745310374,153.80456080805394L215.9558044885908,153.901140114377L216.08704559550966,153.9959288195143L216.60530427319662,154.36632746479475L217.01531298678262,154.6549210565264L217.5057907002313,154.99497112345435L218.04129273503167,155.35975491517237L218.23480152041572,155.48990062253952L218.3056908774376,155.53735513994553L218.7367748052733,155.82334929194957L218.8210756622723,155.87875752116463L218.83352919796533,155.88692878265047L219.13241405459812,156.08191624697494L219.3105954114369,156.1971378871384L219.3431661970956,156.21811668856967L219.76850233922684,156.4897350304309L219.82885408912387,156.52792177222932L220.30975215973174,156.82904558783488L220.3202897668566,156.83558084387596L220.51475651652473,156.9557049221768L220.6258803734779,157.02393264461625L220.89411037302017,157.18737939023492L221.21598637247087,157.38119144879664L221.28016997950417,157.4195343801066L221.52061901480812,157.562278046595L221.61258358607975,157.61649732299782L221.8099242286001,157.73213892169483L221.95649276406425,157.8174060432683L222.78034204837255,158.2867830179558L223.30051665462767,158.57444704302827L223.37427990450178,158.61469174101813L224.03623322480067,158.9697419776924L224.24506943872996,159.0794686955255L224.27859818867276,159.0969826398336L224.74800068787164,159.3392002983626L224.80739447348458,159.36945085982774L224.86008250910893,159.39621106384135L225.43773497240883,159.68498116565874L226.0345467213903,159.97440431494908L226.10160422127586,160.00635542956525L226.12938518551417,160.01955822460107L226.17824136400222,160.0427296558332L226.7434402916091,160.3063400976875L226.77601107726778,160.32128129792434L227.03370346968512,160.43852941731137L227.47053518322534,160.63337503605908L227.5701634687696,160.67712363854992L227.70906828996112,160.7376905045144L227.8680903611183,160.80641588180052L228.20625175339833,160.95038197028222L228.2282849319322,160.95965930851298L228.3719795745441,161.01985363061704L228.74558564533507,161.1738459302553L229.2140301802499,161.36178833119178L229.4458575369971,161.45267827518032L229.54548582254137,161.49130649141438L229.71025567940305,161.55462121698667L229.77827114357268,161.58054947278583L230.0608706073761,161.68698027317154L230.16528871434073,161.72577483920423L230.60212042788095,161.88496362764192L230.7132442848342,161.92465767791512L231.12804281984057,162.06994878736774L231.18839456973757,162.0907096406796L231.5543369262559,162.21453086815768L231.7775426044464,162.28831507231402L231.86950717571804,162.3183315487332L232.65024806724276,162.56411526881368L232.77574138845713,162.6021097620424L233.2997478518486,162.7562251804538L233.45589603015355,162.80073331421087L233.68293356548037,162.86428591003414L233.80459502955847,162.89777451515445L234.30369442156382,163.03101173889905L234.47038020699364,163.0740230233004L234.5527651354245,163.0950064068219L234.5795881353787,163.1017988575816L234.896674313409,163.18063272442765L235.8958310617038,163.41136756515016L235.9897115615436,163.4316660257882L236.00120713295254,163.4341351747753L236.09508763279234,163.4541669278769L236.22920263256347,163.4823713868189L236.31829331098282,163.50083895376008L236.39588841799326,163.51674911667126L237.01090148837224,163.63709980921877L237.09616030965532,163.6529771504182L237.32798766640255,163.69515499244523L237.37971773774282,163.70436808180165L237.54161370175225,163.73273366098272L237.54352963032042,163.73306511544675L237.73895434427263,163.7663496183291L237.95641223675864,163.80217050739262L238.13363562931335,163.8304158067043L238.1365095221656,163.83086684376312L238.22751612915312,163.84503312288712L238.4842505572864,163.88378607656747L238.53214877149037,163.89081816566733L238.56376159286498,163.89542520839882L238.73427923543113,163.91980755659327L238.8109163781575,163.93050877937284L238.9584428779057,163.95065956721058L239.08202027055196,163.96708406975367L239.0973476990972,163.96909229532417L239.28127684164045,163.99269299868638L239.43071926995685,164.0111914947368L239.72385634088516,164.04571313708715L239.84647576924732,164.05946020475753L240.03232084035872,164.07951571500104L240.30438269703728,164.10717992308878L240.4710684824671,164.1231335536008L241.04584705291475,164.17234174154115L241.46447744505747,164.20251506739245L241.57368537344252,164.20960059761023L241.59092873055596,164.21068964093266L241.6484065876007,164.21426121219866L241.82371405158725,164.22459805296612L242.26150372941152,164.2467513169717L242.81520708560944,164.26728077939458L242.8171230141776,164.26733729132235L242.82957654987064,164.26770217138775L242.9703972996303,164.27153358950613L243.13995697791236,164.2754287319865L243.26257640627452,164.27775661671836L243.3152644418989,164.2786308204743L243.47045465591978,164.2807654484677L243.53080640581675,164.28141803874328L243.7616757982799,164.28299679646437L243.89674876233508,164.2832458179534" fill="none"></path></g></g></g></g></g><g><g><span fill="rgb(0, 0, 0)" stroke="none" stroke-width="1px">Alt + Scroll to Zoom</span></g></g></g><g transform="translate(61, 177)" clip-path="url(#clip_1)"><clipPath id="clip_1"><rect width="268" height="22"></rect></clipPath><g><g><line x1="0" y1="0" x2="0" y2="5" style="visibility: inherit;" fill="rgb(0, 0, 0)" stroke="rgb(204, 204, 204)" stroke-width="1px"></line><line x1="19.159285681588308" y1="0" x2="19.159285681588308" y2="5" style="visibility: inherit;" fill="rgb(0, 0, 0)" stroke="rgb(204, 204, 204)" stroke-width="1px"></line><line x1="38.318571363176616" y1="0" x2="38.318571363176616" y2="5" style="visibility: inherit;" fill="rgb(0, 0, 0)" stroke="rgb(204, 204, 204)" stroke-width="1px"></line><line x1="57.477857044764924" y1="0" x2="57.477857044764924" y2="5" style="visibility: inherit;" fill="rgb(0, 0, 0)" stroke="rgb(204, 204, 204)" stroke-width="1px"></line><line x1="76.63714272635323" y1="0" x2="76.63714272635323" y2="5" style="visibility: inherit;" fill="rgb(0, 0, 0)" stroke="rgb(204, 204, 204)" stroke-width="1px"></line><line x1="95.79642840794155" y1="0" x2="95.79642840794155" y2="5" style="visibility: inherit;" fill="rgb(0, 0, 0)" stroke="rgb(204, 204, 204)" stroke-width="1px"></line><line x1="114.95571408952985" y1="0" x2="114.95571408952985" y2="5" style="visibility: inherit;" fill="rgb(0, 0, 0)" stroke="rgb(204, 204, 204)" stroke-width="1px"></line><line x1="134.11499977111816" y1="0" x2="134.11499977111816" y2="5" style="visibility: inherit;" fill="rgb(0, 0, 0)" stroke="rgb(204, 204, 204)" stroke-width="1px"></line><line x1="153.27428545270647" y1="0" x2="153.27428545270647" y2="5" style="visibility: inherit;" fill="rgb(0, 0, 0)" stroke="rgb(204, 204, 204)" stroke-width="1px"></line><line x1="172.4335711342948" y1="0" x2="172.4335711342948" y2="5" style="visibility: inherit;" fill="rgb(0, 0, 0)" stroke="rgb(204, 204, 204)" stroke-width="1px"></line><line x1="191.5928568158831" y1="0" x2="191.5928568158831" y2="5" style="visibility: inherit;" fill="rgb(0, 0, 0)" stroke="rgb(204, 204, 204)" stroke-width="1px"></line><line x1="210.7521424974714" y1="0" x2="210.7521424974714" y2="5" style="visibility: inherit;" fill="rgb(0, 0, 0)" stroke="rgb(204, 204, 204)" stroke-width="1px"></line><line x1="229.9114281790597" y1="0" x2="229.9114281790597" y2="5" style="visibility: inherit;" fill="rgb(0, 0, 0)" stroke="rgb(204, 204, 204)" stroke-width="1px"></line><line x1="249.07071386064803" y1="0" x2="249.07071386064803" y2="5" style="visibility: inherit;" fill="rgb(0, 0, 0)" stroke="rgb(204, 204, 204)" stroke-width="1px"></line><line x1="268.2299995422363" y1="0" x2="268.2299995422363" y2="5" style="visibility: inherit;" fill="rgb(0, 0, 0)" stroke="rgb(204, 204, 204)" stroke-width="1px"></line></g><g transform="translate(0, 8)"><text style="text-anchor: middle; visibility: hidden; font-family: &quot;Helvetica Neue&quot;, sans-serif; font-size: 12px; font-weight: 200;" x="0" y="0" dx="0em" dy="0.95em" fill="rgb(50, 49, 63)" stroke="none" stroke-width="1px">-20k</text><text style="text-anchor: middle; visibility: inherit; font-family: &quot;Helvetica Neue&quot;, sans-serif; font-size: 12px; font-weight: 200;" x="19.159285681588308" y="0" dx="0em" dy="0.95em" fill="rgb(50, 49, 63)" stroke="none" stroke-width="1px">0</text><text style="text-anchor: middle; visibility: hidden; font-family: &quot;Helvetica Neue&quot;, sans-serif; font-size: 12px; font-weight: 200;" x="38.318571363176616" y="0" dx="0em" dy="0.95em" fill="rgb(50, 49, 63)" stroke="none" stroke-width="1px">20k</text><text style="text-anchor: middle; visibility: inherit; font-family: &quot;Helvetica Neue&quot;, sans-serif; font-size: 12px; font-weight: 200;" x="57.477857044764924" y="0" dx="0em" dy="0.95em" fill="rgb(50, 49, 63)" stroke="none" stroke-width="1px">40k</text><text style="text-anchor: middle; visibility: hidden; font-family: &quot;Helvetica Neue&quot;, sans-serif; font-size: 12px; font-weight: 200;" x="76.63714272635323" y="0" dx="0em" dy="0.95em" fill="rgb(50, 49, 63)" stroke="none" stroke-width="1px">60k</text><text style="text-anchor: middle; visibility: inherit; font-family: &quot;Helvetica Neue&quot;, sans-serif; font-size: 12px; font-weight: 200;" x="95.79642840794155" y="0" dx="0em" dy="0.95em" fill="rgb(50, 49, 63)" stroke="none" stroke-width="1px">80k</text><text style="text-anchor: middle; visibility: hidden; font-family: &quot;Helvetica Neue&quot;, sans-serif; font-size: 12px; font-weight: 200;" x="114.95571408952985" y="0" dx="0em" dy="0.95em" fill="rgb(50, 49, 63)" stroke="none" stroke-width="1px">100k</text><text style="text-anchor: middle; visibility: inherit; font-family: &quot;Helvetica Neue&quot;, sans-serif; font-size: 12px; font-weight: 200;" x="134.11499977111816" y="0" dx="0em" dy="0.95em" fill="rgb(50, 49, 63)" stroke="none" stroke-width="1px">120k</text><text style="text-anchor: middle; visibility: hidden; font-family: &quot;Helvetica Neue&quot;, sans-serif; font-size: 12px; font-weight: 200;" x="153.27428545270647" y="0" dx="0em" dy="0.95em" fill="rgb(50, 49, 63)" stroke="none" stroke-width="1px">140k</text><text style="text-anchor: middle; visibility: inherit; font-family: &quot;Helvetica Neue&quot;, sans-serif; font-size: 12px; font-weight: 200;" x="172.4335711342948" y="0" dx="0em" dy="0.95em" fill="rgb(50, 49, 63)" stroke="none" stroke-width="1px">160k</text><text style="text-anchor: middle; visibility: hidden; font-family: &quot;Helvetica Neue&quot;, sans-serif; font-size: 12px; font-weight: 200;" x="191.5928568158831" y="0" dx="0em" dy="0.95em" fill="rgb(50, 49, 63)" stroke="none" stroke-width="1px">180k</text><text style="text-anchor: middle; visibility: inherit; font-family: &quot;Helvetica Neue&quot;, sans-serif; font-size: 12px; font-weight: 200;" x="210.7521424974714" y="0" dx="0em" dy="0.95em" fill="rgb(50, 49, 63)" stroke="none" stroke-width="1px">200k</text><text style="text-anchor: middle; visibility: hidden; font-family: &quot;Helvetica Neue&quot;, sans-serif; font-size: 12px; font-weight: 200;" x="229.9114281790597" y="0" dx="0em" dy="0.95em" fill="rgb(50, 49, 63)" stroke="none" stroke-width="1px">220k</text><text style="text-anchor: middle; visibility: inherit; font-family: &quot;Helvetica Neue&quot;, sans-serif; font-size: 12px; font-weight: 200;" x="249.07071386064803" y="0" dx="0em" dy="0.95em" fill="rgb(50, 49, 63)" stroke="none" stroke-width="1px">240k</text><text style="text-anchor: middle; visibility: hidden; font-family: &quot;Helvetica Neue&quot;, sans-serif; font-size: 12px; font-weight: 200;" x="268.2299995422363" y="0" dx="0em" dy="0.95em" fill="rgb(50, 49, 63)" stroke="none" stroke-width="1px">260k</text></g><line x1="0" y1="0" x2="268.2299995422363" y2="0" fill="rgb(0, 0, 0)" stroke="rgb(204, 204, 204)" stroke-width="1px"></line></g></g></g></g></svg>