<svg viewBox="0 0 330 200" xmlns="http://www.w3.org/2000/svg"><g><g><g><g><g><line x1="51.41600036621094" y1="177.9749994277954" x2="46.41600036621094" y2="177.9749994277954" style="visibility: inherit;" fill="rgb(0, 0, 0)" stroke="rgb(204, 204, 204)" stroke-width="1px"></line><line x1="51.41600036621094" y1="164.28461485642654" x2="46.41600036621094" y2="164.28461485642654" style="visibility: inherit;" fill="rgb(0, 0, 0)" stroke="rgb(204, 204, 204)" stroke-width="1px"></line><line x1="51.41600036621094" y1="150.59423028505765" x2="46.41600036621094" y2="150.59423028505765" style="visibility: inherit;" fill="rgb(0, 0, 0)" stroke="rgb(204, 204, 204)" stroke-width="1px"></line><line x1="51.41600036621094" y1="136.90384571368878" x2="46.41600036621094" y2="136.90384571368878" style="visibility: inherit;" fill="rgb(0, 0, 0)" stroke="rgb(204, 204, 204)" stroke-width="1px"></line><line x1="51.41600036621094" y1="123.21346114231989" x2="46.41600036621094" y2="123.21346114231989" style="visibility: inherit;" fill="rgb(0, 0, 0)" stroke="rgb(204, 204, 204)" stroke-width="1px"></line><line x1="51.41600036621094" y1="109.52307657095103" x2="46.41600036621094" y2="109.52307657095103" style="visibility: inherit;" fill="rgb(0, 0, 0)" stroke="rgb(204, 204, 204)" stroke-width="1px"></line><line x1="51.41600036621094" y1="95.83269199958215" x2="46.41600036621094" y2="95.83269199958215" style="visibility: inherit;" fill="rgb(0, 0, 0)" stroke="rgb(204, 204, 204)" stroke-width="1px"></line><line x1="51.41600036621094" y1="82.14230742821327" x2="46.41600036621094" y2="82.14230742821327" style="visibility: inherit;" fill="rgb(0, 0, 0)" stroke="rgb(204, 204, 204)" stroke-width="1px"></line><line x1="51.41600036621094" y1="68.4519228568444" x2="46.41600036621094" y2="68.4519228568444" style="visibility: inherit;" fill="rgb(0, 0, 0)" stroke="rgb(204, 204, 204)" stroke-width="1px"></line><line x1="51.41600036621094" y1="54.76153828547551" x2="46.41600036621094" y2="54.76153828547551" style="visibility: inherit;" fill="rgb(0, 0, 0)" stroke="rgb(204, 204, 204)" stroke-width="1px"></line><line x1="51.41600036621094" y1="41.07115371410666" x2="46.41600036621094" y2="41.07115371410666" style="visibility: inherit;" fill="rgb(0, 0, 0)" stroke="rgb(204, 204, 204)" stroke-width="1px"></line><line x1="51.41600036621094" y1="27.380769142737762" x2="46.41600036621094" y2="27.380769142737762" style="visibility: inherit;" fill="rgb(0, 0, 0)" stroke="rgb(204, 204, 204)" stroke-width="1px"></line><line x1="51.41600036621094" y1="13.690384571368867" x2="46.41600036621094" y2="13.690384571368867" style="visibility: inherit;" fill="rgb(0, 0, 0)" stroke="rgb(204, 204, 204)" stroke-width="1px"></line><line x1="51.41600036621094" y1="0" x2="46.41600036621094" y2="0" style="visibility: inherit;" fill="rgb(0, 0, 0)" stroke="rgb(204, 204, 204)" stroke-width="1px"></line></g><g transform="translate(41.41600036621094, 0)"><text style="text-anchor: end; visibility: hidden; font-family: &quot;Helvetica Neue&quot;, sans-serif; font-size: 12px; font-weight: 200;" x="0" y="177.9749994277954" dx="0em" dy="0.3em" fill="rgb(50, 49, 63)" stroke="none" stroke-width="1px">-0.1</text><text style="text-anchor: end; visibility: inherit; font-family: &quot;Helvetica Neue&quot;, sans-serif; font-size: 12px; font-weight: 200;" x="0" y="164.28461485642654" dx="0em" dy="0.3em" fill="rgb(50, 49, 63)" stroke="none" stroke-width="1px">0</text><text style="text-anchor: end; visibility: hidden; font-family: &quot;Helvetica Neue&quot;, sans-serif; font-size: 12px; font-weight: 200;" x="0" y="150.59423028505765" dx="0em" dy="0.3em" fill="rgb(50, 49, 63)" stroke="none" stroke-width="1px">0.1</text><text style="text-anchor: end; visibility: inherit; font-family: &quot;Helvetica Neue&quot;, sans-serif; font-size: 12px; font-weight: 200;" x="0" y="136.90384571368878" dx="0em" dy="0.3em" fill="rgb(50, 49, 63)" stroke="none" stroke-width="1px">0.2</text><text style="text-anchor: end; visibility: hidden; font-family: &quot;Helvetica Neue&quot;, sans-serif; font-size: 12px; font-weight: 200;" x="0" y="123.21346114231989" dx="0em" dy="0.3em" fill="rgb(50, 49, 63)" stroke="none" stroke-width="1px">0.3</text><text style="text-anchor: end; visibility: inherit; font-family: &quot;Helvetica Neue&quot;, sans-serif; font-size: 12px; font-weight: 200;" x="0" y="109.52307657095103" dx="0em" dy="0.3em" fill="rgb(50, 49, 63)" stroke="none" stroke-width="1px">0.4</text><text style="text-anchor: end; visibility: hidden; font-family: &quot;Helvetica Neue&quot;, sans-serif; font-size: 12px; font-weight: 200;" x="0" y="95.83269199958215" dx="0em" dy="0.3em" fill="rgb(50, 49, 63)" stroke="none" stroke-width="1px">0.5</text><text style="text-anchor: end; visibility: inherit; font-family: &quot;Helvetica Neue&quot;, sans-serif; font-size: 12px; font-weight: 200;" x="0" y="82.14230742821327" dx="0em" dy="0.3em" fill="rgb(50, 49, 63)" stroke="none" stroke-width="1px">0.6</text><text style="text-anchor: end; visibility: hidden; font-family: &quot;Helvetica Neue&quot;, sans-serif; font-size: 12px; font-weight: 200;" x="0" y="68.4519228568444" dx="0em" dy="0.3em" fill="rgb(50, 49, 63)" stroke="none" stroke-width="1px">0.7</text><text style="text-anchor: end; visibility: inherit; font-family: &quot;Helvetica Neue&quot;, sans-serif; font-size: 12px; font-weight: 200;" x="0" y="54.76153828547551" dx="0em" dy="0.3em" fill="rgb(50, 49, 63)" stroke="none" stroke-width="1px">0.8</text><text style="text-anchor: end; visibility: hidden; font-family: &quot;Helvetica Neue&quot;, sans-serif; font-size: 12px; font-weight: 200;" x="0" y="41.07115371410666" dx="0em" dy="0.3em" fill="rgb(50, 49, 63)" stroke="none" stroke-width="1px">0.9</text><text style="text-anchor: end; visibility: inherit; font-family: &quot;Helvetica Neue&quot;, sans-serif; font-size: 12px; font-weight: 200;" x="0" y="27.380769142737762" dx="0em" dy="0.3em" fill="rgb(50, 49, 63)" stroke="none" stroke-width="1px">1</text><text style="text-anchor: end; visibility: hidden; font-family: &quot;Helvetica Neue&quot;, sans-serif; font-size: 12px; font-weight: 200;" x="0" y="13.690384571368867" dx="0em" dy="0.3em" fill="rgb(50, 49, 63)" stroke="none" stroke-width="1px">1.1</text><text style="text-anchor: end; visibility: hidden; font-family: &quot;Helvetica Neue&quot;, sans-serif; font-size: 12px; font-weight: 200;" x="0" y="0" dx="0em" dy="0.3em" fill="rgb(50, 49, 63)" stroke="none" stroke-width="1px">1.2</text></g><line x1="51.41600036621094" y1="0" x2="51.41600036621094" y2="177.9749994277954" fill="rgb(0, 0, 0)" stroke="rgb(204, 204, 204)" stroke-width="1px"></line></g></g><g transform="translate(51, 0)" clip-path="url(#clip_0)"><clipPath id="clip_0"><rect width="278" height="177"></rect></clipPath><g><g><g><line x1="0" y1="0" x2="0" y2="177.9749994277954" fill="rgb(0, 0, 0)" stroke="rgb(60, 60, 60)" stroke-width="1px" opacity="0.25"></line><line x1="23.215333302815754" y1="0" x2="23.215333302815754" y2="177.9749994277954" fill="rgb(0, 0, 0)" stroke="rgb(60, 60, 60)" stroke-width="1px" opacity="0.25"></line><line x1="46.43066660563151" y1="0" x2="46.43066660563151" y2="177.9749994277954" fill="rgb(0, 0, 0)" stroke="rgb(60, 60, 60)" stroke-width="1px" opacity="0.25"></line><line x1="69.64599990844727" y1="0" x2="69.64599990844727" y2="177.9749994277954" fill="rgb(0, 0, 0)" stroke="rgb(60, 60, 60)" stroke-width="1px" opacity="0.25"></line><line x1="92.86133321126302" y1="0" x2="92.86133321126302" y2="177.9749994277954" fill="rgb(0, 0, 0)" stroke="rgb(60, 60, 60)" stroke-width="1px" opacity="0.25"></line><line x1="116.07666651407878" y1="0" x2="116.07666651407878" y2="177.9749994277954" fill="rgb(0, 0, 0)" stroke="rgb(60, 60, 60)" stroke-width="1px" opacity="0.25"></line><line x1="139.29199981689453" y1="0" x2="139.29199981689453" y2="177.9749994277954" fill="rgb(0, 0, 0)" stroke="rgb(60, 60, 60)" stroke-width="1px" opacity="0.25"></line><line x1="162.5073331197103" y1="0" x2="162.5073331197103" y2="177.9749994277954" fill="rgb(0, 0, 0)" stroke="rgb(60, 60, 60)" stroke-width="1px" opacity="0.25"></line><line x1="185.72266642252603" y1="0" x2="185.72266642252603" y2="177.9749994277954" fill="rgb(0, 0, 0)" stroke="rgb(60, 60, 60)" stroke-width="1px" opacity="0.25"></line><line x1="208.9379997253418" y1="0" x2="208.9379997253418" y2="177.9749994277954" fill="rgb(0, 0, 0)" stroke="rgb(60, 60, 60)" stroke-width="1px" opacity="0.25"></line><line x1="232.15333302815756" y1="0" x2="232.15333302815756" y2="177.9749994277954" fill="rgb(0, 0, 0)" stroke="rgb(60, 60, 60)" stroke-width="1px" opacity="0.25"></line><line x1="255.3686663309733" y1="0" x2="255.3686663309733" y2="177.9749994277954" fill="rgb(0, 0, 0)" stroke="rgb(60, 60, 60)" stroke-width="1px" opacity="0.25"></line><line x1="278.58399963378906" y1="0" x2="278.58399963378906" y2="177.9749994277954" fill="rgb(0, 0, 0)" stroke="rgb(60, 60, 60)" stroke-width="1px" opacity="0.25"></line></g><g><line x1="0" y1="177.9749994277954" x2="278.58399963378906" y2="177.9749994277954" fill="rgb(0, 0, 0)" stroke="rgb(60, 60, 60)" stroke-width="1px" opacity="0.25"></line><line x1="0" y1="164.28461485642654" x2="278.58399963378906" y2="164.28461485642654" fill="rgb(0, 0, 0)" stroke="rgb(60, 60, 60)" stroke-width="1px" opacity="0.25"></line><line x1="0" y1="150.59423028505765" x2="278.58399963378906" y2="150.59423028505765" fill="rgb(0, 0, 0)" stroke="rgb(60, 60, 60)" stroke-width="1px" opacity="0.25"></line><line x1="0" y1="136.90384571368878" x2="278.58399963378906" y2="136.90384571368878" fill="rgb(0, 0, 0)" stroke="rgb(60, 60, 60)" stroke-width="1px" opacity="0.25"></line><line x1="0" y1="123.21346114231989" x2="278.58399963378906" y2="123.21346114231989" fill="rgb(0, 0, 0)" stroke="rgb(60, 60, 60)" stroke-width="1px" opacity="0.25"></line><line x1="0" y1="109.52307657095103" x2="278.58399963378906" y2="109.52307657095103" fill="rgb(0, 0, 0)" stroke="rgb(60, 60, 60)" stroke-width="1px" opacity="0.25"></line><line x1="0" y1="95.83269199958215" x2="278.58399963378906" y2="95.83269199958215" fill="rgb(0, 0, 0)" stroke="rgb(60, 60, 60)" stroke-width="1px" opacity="0.25"></line><line x1="0" y1="82.14230742821327" x2="278.58399963378906" y2="82.14230742821327" fill="rgb(0, 0, 0)" stroke="rgb(60, 60, 60)" stroke-width="1px" opacity="0.25"></line><line x1="0" y1="68.4519228568444" x2="278.58399963378906" y2="68.4519228568444" fill="rgb(0, 0, 0)" stroke="rgb(60, 60, 60)" stroke-width="1px" opacity="0.25"></line><line x1="0" y1="54.76153828547551" x2="278.58399963378906" y2="54.76153828547551" fill="rgb(0, 0, 0)" stroke="rgb(60, 60, 60)" stroke-width="1px" opacity="0.25"></line><line x1="0" y1="41.07115371410666" x2="278.58399963378906" y2="41.07115371410666" fill="rgb(0, 0, 0)" stroke="rgb(60, 60, 60)" stroke-width="1px" opacity="0.25"></line><line x1="0" y1="27.380769142737762" x2="278.58399963378906" y2="27.380769142737762" fill="rgb(0, 0, 0)" stroke="rgb(60, 60, 60)" stroke-width="1px" opacity="0.25"></line><line x1="0" y1="13.690384571368867" x2="278.58399963378906" y2="13.690384571368867" fill="rgb(0, 0, 0)" stroke="rgb(60, 60, 60)" stroke-width="1px" opacity="0.25"></line><line x1="0" y1="0" x2="278.58399963378906" y2="0" fill="rgb(0, 0, 0)" stroke="rgb(60, 60, 60)" stroke-width="1px" opacity="0.25"></line></g></g></g><g><g><line x1="0" y1="164.28461485642654" x2="278.58399963378906" y2="164.28461485642654" fill="rgb(0, 0, 0)" stroke="rgb(153, 153, 153)" stroke-width="1.5px"></line></g></g><g><g><line x1="23.215333302815754" y1="0" x2="23.215333302815754" y2="177.9749994277954" fill="rgb(0, 0, 0)" stroke="rgb(153, 153, 153)" stroke-width="1.5px"></line></g></g><g><g><g><g><g><path style="fill: none;" stroke="rgb(51, 187, 238)" stroke-width="2px" d="M23.215333302815754,162.9237905956784L24.37609996795654,146.78556529012195L25.53686663309733,138.8615707987877L26.69763329823812,131.4030491021724L27.858399963378908,124.9110673734069L29.019166628519695,120.02086327357347L30.179933293660483,113.18936201221264L31.34069995880127,111.91067762432539L32.50146662394206,105.78012531032765L33.66223328908285,101.13634822417204L34.82299995422363,98.12446159476482L35.983766619364424,94.62793408377722L37.14453328450521,94.00912883432426L38.305299949646,88.62333707192936L39.46606661478678,87.11738967717318L40.626833279927574,82.71183053897269L41.78759994506836,83.59074729834302L42.94836661020915,82.29837433416368L44.10913327534993,79.76839087107842L45.269899940490724,73.92533945973985L46.43066660563151,73.09844337033198L47.5914332707723,74.59343174394938L48.75219993591308,71.92654619773315L49.912966601053874,69.15561115148691L51.07373326619466,70.15227006723184L52.23449993133545,68.56692484992907L53.39526659647624,66.84741118470119L54.556033261617024,63.35088775376613L55.716799926757815,63.25231368425297L56.8775665918986,61.40137336641094L58.03833325703939,62.148871633272165L59.199099922180174,57.776156918067585L60.359866587320965,60.25686150650135L61.52063325246175,58.696151646471776L62.68139991760254,58.96174674701105L63.842166582743324,54.82999177507254L65.00293324788412,53.389757706623456L66.1636999130249,54.101661595072756L67.3244665781657,52.026195985620234L68.48523324330647,50.276571532602304L69.64599990844727,53.43631110617417L70.80676657358805,51.152754656766746L71.96753323872885,50.32037497673696L73.12829990386963,53.60880756771712L74.28906656901042,50.194423754639644L75.4498332341512,52.08643388141047L76.610599899292,45.41647822055893L77.77136656443278,44.986603884304486L78.93213322957357,46.4158789316148L80.09289989471435,44.81684105796742L81.25366655985515,48.704910811539065L82.41443322499593,44.781246679555466L83.57519989013672,44.11862982586274L84.7359665552775,43.80923128118883L85.8967332204183,43.40673409751855L87.05749988555908,42.700305639586105L88.21826655069987,42.79887970909928L89.37903321584066,42.43197690384096L90.53979988098145,42.1882916854741L91.70056654612223,40.917820443362075L92.86133321126302,42.09519304647776L94.02209987640381,43.571021493338804L95.1828665415446,40.657700773339656L96.34363320668538,41.2628215265531L97.50439987182617,39.4611682434676L98.66516653696696,41.774835480665075L99.82593320210775,41.24365343969163L100.98669986724853,40.03342009336984L102.14746653238932,37.31724751239702L103.30823319753011,38.97652328183469L104.4689998626709,39.00390859452392L105.62976652781168,39.60354575711543L106.79053319295248,38.59593598033683L107.95129985809326,40.80008644709255L109.11206652323405,40.90412778701747L110.27283318837483,37.88950752240439L111.43359985351563,36.950344707138726L112.59436651865641,38.56307523713076L113.7551331837972,36.7532047282175L114.91589984893798,39.08330641707053L116.07666651407878,36.15904299614283L117.23743317921956,36.90927489820993L118.39819984436035,36.317854961446216L119.55896650950113,37.191296290299704L120.71973317464193,36.59987635353602L121.88049983978271,35.726426864577434L123.0412665049235,35.93451770453234L124.2020331700643,37.571891751902655L125.36279983520508,35.46357355934913L126.52356650034586,39.06414649031419L127.68433316548665,36.70939312397775L128.84509983062745,38.56033344181978L130.00586649576823,37.596535269280935L131.16663316090902,35.26095814991106L132.3273998260498,35.734644090405226L133.4881664911906,35.91535777777597L134.6489331563314,33.47846479358196L135.80969982147215,36.33153945768575L136.97046648661293,35.2335728372218L138.13123315175375,34.91869886203105L139.29199981689453,34.653103761491764L140.45276648203532,35.206195684637635L141.6135331471761,32.80489707885559L142.77429981231688,33.77143704670539L143.9350664774577,37.46784225187264L145.09583314259848,34.08357738669031L146.25659980773926,33.79334692887781L147.41736647288005,34.505242657222L148.57813313802083,35.093928958779856L149.73889980316162,35.93451770453234L150.8996664683024,33.24573043624878L152.06043313344318,33.316919193072664L153.221199798584,33.319660988383646L154.38196646372478,32.388715398945806L155.54273312886556,33.38810794989661L156.70349979400635,31.953357472069456L157.86426645914713,33.634534963574424L159.02503312428792,32.536568343110446L160.1857997894287,32.82133153051117L161.3465664545695,32.11490307257873L162.5073331197103,32.05740697209944L163.66809978485108,31.89859500679603L164.82886644999186,32.355854655739705L165.98963311513265,33.579772498301L167.15039978027343,31.816455388938465L168.31116644541422,31.915021298346517L169.471933110555,33.06501674887804L170.6326997756958,31.060748056354498L171.7934664408366,31.55907751422697L172.95423310597738,31.120985952144764L174.11499977111816,30.784202094781563L175.27576643625895,30.181823136879103L176.43653310139973,31.063481691560384L177.59729976654052,30.195515793223734L178.75806643168133,30.485746251036204L179.9188330968221,30.47753718531351L181.0795997619629,29.54659159587564L182.24036642710368,30.288606272114976L183.40113309224446,30.269438185253506L184.56189975738525,29.349443456849315L185.72266642252603,29.469919248429818L186.88343308766682,29.27277926950856L188.04419975280763,28.57183440219805L189.2049664179484,28.749806294257837L190.3657330830892,28.85658942949368L191.52649974822998,28.766232585808325L192.68726641337076,28.90040103373343L193.84803307851155,28.20493159693973L195.00879974365233,28.065287718497785L196.16956640879314,27.879098600610206L197.33033307393393,28.059812287980947L198.4910997390747,27.922910204849956L199.6518664042155,27.821602500130922L200.81263306935628,27.709335774273143L201.97339973449706,27.64636424327702L203.13416639963785,27.654573308999716L204.29493306477863,27.59433541320948L205.45569972991944,27.553265604280682L206.61646639506023,27.542314743247033L207.777233060201,27.536839312730194L208.9379997253418,27.48481864276775L210.09876639048258,27.514937590662868L211.25953305562336,27.457433330078487L212.42029972076415,27.46017512538947L213.58106638590496,27.441007038528L214.74183305104575,27.45469969487263L215.90259971618653,27.45469969487263L217.0633663813273,27.46017512538947L218.2241330464681,27.441007038528L219.38489971160888,27.45195789956165L220.54566637674967,27.41088809063288L221.70643304189045,27.438265243217046L222.86719970703126,27.419105316460673L224.02796637217205,27.430056177494322L225.18873303731283,27.432789812700207L226.3494997024536,27.42458074697751L227.5102663675944,27.42183895166653L228.67103303273518,27.430056177494322L229.83179969787597,27.42731438218337L230.99256636301678,27.42183895166653L232.15333302815756,27.419105316460673L233.31409969329835,27.419105316460673L234.47486635843913,27.419105316460673L235.6356330235799,27.42183895166653L236.7963996887207,27.419105316460673L237.95716635386148,27.42458074697751L239.11793301900227,27.413629885943834L240.27869968414308,27.405412660116042L241.43946634928386,27.432789812700207L242.60023301442465,27.419105316460673L243.76099967956543,27.41088809063288L244.9217663447062,27.405412660116042L246.082533009847,27.41636352114972L247.24329967498778,27.41088809063288L248.4040663401286,27.42458074697751L249.56483300526938,27.42458074697751L250.72559967041016,27.42183895166653L251.88636633555095,27.4081462953219L253.04713300069173,27.43553160801116L254.2078996658325,27.413629885943834" fill="none"></path></g><g><path style="fill: none;" stroke="rgb(0, 119, 187)" stroke-width="2px" d="M23.215333302815754,162.91557642989005L24.37609996795654,146.93889774485598L25.53686663309733,138.14967099039097L26.69763329823812,131.85209356531456L27.858399963378908,125.28070789392362L29.019166628519695,120.51645501618754L30.179933293660483,113.8766183032311L31.34069995880127,112.64448323484201L32.50146662394206,107.19571178134588L33.66223328908285,103.74573358985644L34.82299995422363,102.08919961572977L35.983766619364424,97.55768109532687L37.14453328450521,98.17374862952141L38.305299949646,93.46425413700618L39.46606661478678,93.3273520538752L40.626833279927574,89.31607287351717L41.78759994506836,90.38392054608602L42.94836661020915,88.98749808187668L44.10913327534993,89.09702301242352L45.269899940490724,84.57919714836525L46.43066660563151,84.44229506523425L47.5914332707723,85.49645008145846L48.75219993591308,84.1274129299384L49.912966601053874,81.81373753263586L51.07373326619466,82.26552175106269L52.23449993133545,81.6494501368156L53.39526659647624,81.4577855884112L54.556033261617024,79.5000621353333L55.716799926757815,77.9804302443376L56.8775665918986,78.92506849012008L58.03833325703939,79.55482460060671L59.199099922180174,77.15900958544658L60.359866587320965,79.80125161428452L61.52063325246175,77.7887656959332L62.68139991760254,79.58220175319086L63.842166582743324,76.61139309281752L65.00293324788412,76.4471056969973L66.1636999130249,76.33758076645046L67.3244665781657,75.94056717340213L68.48523324330647,75.24235594129746L69.64599990844727,78.48697692803786L70.80676657358805,77.03579199855513L71.96753323872885,76.20067868331948L73.12829990386963,77.10424712017316L74.28906656901042,77.18638673803075L75.4498332341512,79.74648914901111L76.610599899292,74.54414470919279L77.77136656443278,74.74950191394183L78.93213322957357,76.46079835334191L80.09289989471435,74.21557807765741L81.25366655985515,77.41912109536393L82.41443322499593,75.94056717340213L83.57519989013672,75.62568503810625L84.7359665552775,74.39354996971717L85.8967332204183,74.29771769551498L87.05749988555908,75.95425166964166L88.21826655069987,75.85841939543946L89.37903321584066,75.77627977758188L90.53979988098145,74.46200509133523L91.70056654612223,74.18819276496814L92.86133321126302,74.83164153179939L94.02209987640381,76.26913380493751L95.1828665415446,75.98163698233091L96.34363320668538,74.54414470919279L97.50439987182617,73.22987002294614L98.66516653696696,75.99532147857045L99.82593320210775,75.18759347602405L100.98669986724853,74.91378114965698L102.14746653238932,73.73640854654131L103.30823319753011,74.72211660125258L104.4689998626709,75.37925802442844L105.62976652781168,74.81794887545477L106.79053319295248,74.98223627127501L107.95129985809326,75.51616010755943L109.11206652323405,75.88580470812872L110.27283318837483,73.87331878977739L111.43359985351563,74.46200509133523L112.59436651865641,74.62628432705037L113.7551331837972,73.58581380706569L114.91589984893798,75.51616010755943L116.07666651407878,72.6822535303171L117.23743317921956,74.76318641018136L118.39819984436035,73.61319911975494L119.55896650950113,74.68104679232377L120.71973317464193,73.31200964080371L121.88049983978271,72.6411837213883L123.0412665049235,73.29831698445908L124.2020331700643,75.33818821549966L125.36279983520508,72.72332333924588L126.52356650034586,75.7352099686531L127.68433316548665,73.59950646341031L128.84509983062745,76.31020361386629L130.00586649576823,74.90009665341745L131.16663316090902,72.62749106504367L132.3273998260498,73.14772224498347L133.4881664911906,73.38046476242175L134.6489331563314,72.29892443350828L135.80969982147215,74.81794887545477L136.97046648661293,72.79177846086391L138.13123315175375,73.58581380706569L139.29199981689453,74.09236049076594L140.45276648203532,74.35248016078839L141.6135331471761,72.25784646447441L142.77429981231688,71.68285281926119L143.9350664774577,75.47509029863065L145.09583314259848,73.05188997078126L146.25659980773926,72.54535144718609L147.41736647288005,72.07987457241462L148.57813313802083,73.14772224498347L149.73889980316162,74.95485911869086L150.8996664683024,72.62749106504367L152.06043313344318,72.29892443350828L153.221199798584,72.27153912081903L154.38196646372478,72.20309215930607L155.54273312886556,72.18939950296146L156.70349979400635,71.32690087503654L157.86426645914713,72.38106405136585L159.02503312428792,71.53225807978558L160.1857997894287,71.45011846192801L161.3465664545695,71.60071320140362L162.5073331197103,72.14832969403267L163.66809978485108,71.53225807978558L164.82886644999186,73.38046476242175L165.98963311513265,72.13463703768804L167.15039978027343,71.25845391352361L168.31116644541422,71.80607040615264L169.471933110555,72.24416196823488L170.6326997756958,70.39595528559869L171.7934664408366,71.08047386135873L172.95423310597738,71.54595073613021L174.11499977111816,70.27274585881234L175.27576643625895,70.12215111933672L176.43653310139973,69.71143670983865L177.59729976654052,70.10845846299209L178.75806643168133,71.1626216393214L179.9188330968221,69.82096164038549L181.0795997619629,69.82096164038549L182.24036642710368,71.46381111827262L183.40113309224446,71.0120268998458L184.56189975738525,69.24596799517226L185.72266642252603,69.28703780410108L186.88343308766682,70.14952827192087L188.04419975280763,68.397162023592L189.2049664179484,67.43883112146489L190.3657330830892,68.71204415888785L191.52649974822998,68.05490273571199L192.68726641337076,68.90370870729225L193.84803307851155,68.05490273571199L195.00879974365233,66.46681572309825L196.16956640879314,66.48050837944288L197.33033307393393,66.54895534095581L198.4910997390747,66.23408136576506L199.6518664042155,66.28884383103846L200.81263306935628,65.98765435208725L201.97339973449706,65.76860449099358L203.13416639963785,65.19361084578038L204.29493306477863,65.68646487313602L205.45569972991944,64.57754739163839L206.61646639506023,65.27575046363795L207.777233060201,64.57754739163839L208.9379997253418,64.55016207894914L210.09876639048258,64.41325999581815L211.25953305562336,64.19421013472449L212.42029972076415,64.20790279106912L213.58106638590496,64.01623824266471L214.74183305104575,63.61921648951129L215.90259971618653,63.824573694260295L217.0633663813273,63.09898530957149L218.2241330464681,63.851950846844474L219.38489971160888,63.26326454528663L220.54566637674967,62.57874596952661L221.70643304189045,62.92100525740662L222.86719970703126,63.14005511850027L224.02796637217205,62.729340709002216L225.18873303731283,62.85255829589367L226.3494997024536,62.23648668164658L227.5102663675944,62.729340709002216L228.67103303273518,62.40077407746682L229.83179969787597,62.387081421122204L230.99256636301678,62.52398350425318L232.15333302815756,62.44184388639562L233.31409969329835,62.277556490575364L234.47486635843913,62.277556490575364L235.6356330235799,62.23648668164658L236.7963996887207,62.22279402530195L237.95716635386148,62.277556490575364L239.11793301900227,62.2501793379912L240.27869968414308,62.2501793379912L241.43946634928386,62.00375232431338L242.60023301442465,62.26387199433583L243.76099967956543,62.07220744593144L244.9217663447062,62.11327725486022L246.082533009847,62.30494180326461L247.24329967498778,61.92161270645582L248.4040663401286,62.04482213324218L249.56483300526938,62.085891942170974L250.72559967041016,62.277556490575364L251.88636633555095,62.07220744593144L253.04713300069173,62.2501793379912L254.2078996658325,61.82578043225362" fill="none"></path></g></g></g></g></g></g><g transform="translate(51, 177)" clip-path="url(#clip_1)"><clipPath id="clip_1"><rect width="278" height="22"></rect></clipPath><g><g><line x1="0" y1="0" x2="0" y2="5" style="visibility: inherit;" fill="rgb(0, 0, 0)" stroke="rgb(204, 204, 204)" stroke-width="1px"></line><line x1="23.215333302815754" y1="0" x2="23.215333302815754" y2="5" style="visibility: inherit;" fill="rgb(0, 0, 0)" stroke="rgb(204, 204, 204)" stroke-width="1px"></line><line x1="46.43066660563151" y1="0" x2="46.43066660563151" y2="5" style="visibility: inherit;" fill="rgb(0, 0, 0)" stroke="rgb(204, 204, 204)" stroke-width="1px"></line><line x1="69.64599990844727" y1="0" x2="69.64599990844727" y2="5" style="visibility: inherit;" fill="rgb(0, 0, 0)" stroke="rgb(204, 204, 204)" stroke-width="1px"></line><line x1="92.86133321126302" y1="0" x2="92.86133321126302" y2="5" style="visibility: inherit;" fill="rgb(0, 0, 0)" stroke="rgb(204, 204, 204)" stroke-width="1px"></line><line x1="116.07666651407878" y1="0" x2="116.07666651407878" y2="5" style="visibility: inherit;" fill="rgb(0, 0, 0)" stroke="rgb(204, 204, 204)" stroke-width="1px"></line><line x1="139.29199981689453" y1="0" x2="139.29199981689453" y2="5" style="visibility: inherit;" fill="rgb(0, 0, 0)" stroke="rgb(204, 204, 204)" stroke-width="1px"></line><line x1="162.5073331197103" y1="0" x2="162.5073331197103" y2="5" style="visibility: inherit;" fill="rgb(0, 0, 0)" stroke="rgb(204, 204, 204)" stroke-width="1px"></line><line x1="185.72266642252603" y1="0" x2="185.72266642252603" y2="5" style="visibility: inherit;" fill="rgb(0, 0, 0)" stroke="rgb(204, 204, 204)" stroke-width="1px"></line><line x1="208.9379997253418" y1="0" x2="208.9379997253418" y2="5" style="visibility: inherit;" fill="rgb(0, 0, 0)" stroke="rgb(204, 204, 204)" stroke-width="1px"></line><line x1="232.15333302815756" y1="0" x2="232.15333302815756" y2="5" style="visibility: inherit;" fill="rgb(0, 0, 0)" stroke="rgb(204, 204, 204)" stroke-width="1px"></line><line x1="255.3686663309733" y1="0" x2="255.3686663309733" y2="5" style="visibility: inherit;" fill="rgb(0, 0, 0)" stroke="rgb(204, 204, 204)" stroke-width="1px"></line><line x1="278.58399963378906" y1="0" x2="278.58399963378906" y2="5" style="visibility: inherit;" fill="rgb(0, 0, 0)" stroke="rgb(204, 204, 204)" stroke-width="1px"></line></g><g transform="translate(0, 8)"><text style="text-anchor: middle; visibility: hidden; font-family: &quot;Helvetica Neue&quot;, sans-serif; font-size: 12px; font-weight: 200;" x="0" y="0" dx="0em" dy="0.95em" fill="rgb(50, 49, 63)" stroke="none" stroke-width="1px">-20</text><text style="text-anchor: middle; visibility: inherit; font-family: &quot;Helvetica Neue&quot;, sans-serif; font-size: 12px; font-weight: 200;" x="23.215333302815754" y="0" dx="0em" dy="0.95em" fill="rgb(50, 49, 63)" stroke="none" stroke-width="1px">0</text><text style="text-anchor: middle; visibility: hidden; font-family: &quot;Helvetica Neue&quot;, sans-serif; font-size: 12px; font-weight: 200;" x="46.43066660563151" y="0" dx="0em" dy="0.95em" fill="rgb(50, 49, 63)" stroke="none" stroke-width="1px">20</text><text style="text-anchor: middle; visibility: inherit; font-family: &quot;Helvetica Neue&quot;, sans-serif; font-size: 12px; font-weight: 200;" x="69.64599990844727" y="0" dx="0em" dy="0.95em" fill="rgb(50, 49, 63)" stroke="none" stroke-width="1px">40</text><text style="text-anchor: middle; visibility: hidden; font-family: &quot;Helvetica Neue&quot;, sans-serif; font-size: 12px; font-weight: 200;" x="92.86133321126302" y="0" dx="0em" dy="0.95em" fill="rgb(50, 49, 63)" stroke="none" stroke-width="1px">60</text><text style="text-anchor: middle; visibility: inherit; font-family: &quot;Helvetica Neue&quot;, sans-serif; font-size: 12px; font-weight: 200;" x="116.07666651407878" y="0" dx="0em" dy="0.95em" fill="rgb(50, 49, 63)" stroke="none" stroke-width="1px">80</text><text style="text-anchor: middle; visibility: hidden; font-family: &quot;Helvetica Neue&quot;, sans-serif; font-size: 12px; font-weight: 200;" x="139.29199981689453" y="0" dx="0em" dy="0.95em" fill="rgb(50, 49, 63)" stroke="none" stroke-width="1px">100</text><text style="text-anchor: middle; visibility: inherit; font-family: &quot;Helvetica Neue&quot;, sans-serif; font-size: 12px; font-weight: 200;" x="162.5073331197103" y="0" dx="0em" dy="0.95em" fill="rgb(50, 49, 63)" stroke="none" stroke-width="1px">120</text><text style="text-anchor: middle; visibility: hidden; font-family: &quot;Helvetica Neue&quot;, sans-serif; font-size: 12px; font-weight: 200;" x="185.72266642252603" y="0" dx="0em" dy="0.95em" fill="rgb(50, 49, 63)" stroke="none" stroke-width="1px">140</text><text style="text-anchor: middle; visibility: inherit; font-family: &quot;Helvetica Neue&quot;, sans-serif; font-size: 12px; font-weight: 200;" x="208.9379997253418" y="0" dx="0em" dy="0.95em" fill="rgb(50, 49, 63)" stroke="none" stroke-width="1px">160</text><text style="text-anchor: middle; visibility: hidden; font-family: &quot;Helvetica Neue&quot;, sans-serif; font-size: 12px; font-weight: 200;" x="232.15333302815756" y="0" dx="0em" dy="0.95em" fill="rgb(50, 49, 63)" stroke="none" stroke-width="1px">180</text><text style="text-anchor: middle; visibility: inherit; font-family: &quot;Helvetica Neue&quot;, sans-serif; font-size: 12px; font-weight: 200;" x="255.3686663309733" y="0" dx="0em" dy="0.95em" fill="rgb(50, 49, 63)" stroke="none" stroke-width="1px">200</text><text style="text-anchor: middle; visibility: hidden; font-family: &quot;Helvetica Neue&quot;, sans-serif; font-size: 12px; font-weight: 200;" x="278.58399963378906" y="0" dx="0em" dy="0.95em" fill="rgb(50, 49, 63)" stroke="none" stroke-width="1px">220</text></g><line x1="0" y1="0" x2="278.58399963378906" y2="0" fill="rgb(0, 0, 0)" stroke="rgb(204, 204, 204)" stroke-width="1px"></line></g></g></g></g></svg>