<svg viewBox="0 0 330 200" xmlns="http://www.w3.org/2000/svg"><g><g><g><g><g><line x1="51.41600036621094" y1="177.9749994277954" x2="46.41600036621094" y2="177.9749994277954" style="visibility: inherit;" fill="rgb(0, 0, 0)" stroke="rgb(204, 204, 204)" stroke-width="1px"></line><line x1="51.41600036621094" y1="163.14374947547913" x2="46.41600036621094" y2="163.14374947547913" style="visibility: inherit;" fill="rgb(0, 0, 0)" stroke="rgb(204, 204, 204)" stroke-width="1px"></line><line x1="51.41600036621094" y1="148.31249952316284" x2="46.41600036621094" y2="148.31249952316284" style="visibility: inherit;" fill="rgb(0, 0, 0)" stroke="rgb(204, 204, 204)" stroke-width="1px"></line><line x1="51.41600036621094" y1="133.48124957084656" x2="46.41600036621094" y2="133.48124957084656" style="visibility: inherit;" fill="rgb(0, 0, 0)" stroke="rgb(204, 204, 204)" stroke-width="1px"></line><line x1="51.41600036621094" y1="118.64999961853027" x2="46.41600036621094" y2="118.64999961853027" style="visibility: inherit;" fill="rgb(0, 0, 0)" stroke="rgb(204, 204, 204)" stroke-width="1px"></line><line x1="51.41600036621094" y1="103.81874966621399" x2="46.41600036621094" y2="103.81874966621399" style="visibility: inherit;" fill="rgb(0, 0, 0)" stroke="rgb(204, 204, 204)" stroke-width="1px"></line><line x1="51.41600036621094" y1="88.98749971389772" x2="46.41600036621094" y2="88.98749971389772" style="visibility: inherit;" fill="rgb(0, 0, 0)" stroke="rgb(204, 204, 204)" stroke-width="1px"></line><line x1="51.41600036621094" y1="74.15624976158144" x2="46.41600036621094" y2="74.15624976158144" style="visibility: inherit;" fill="rgb(0, 0, 0)" stroke="rgb(204, 204, 204)" stroke-width="1px"></line><line x1="51.41600036621094" y1="59.324999809265165" x2="46.41600036621094" y2="59.324999809265165" style="visibility: inherit;" fill="rgb(0, 0, 0)" stroke="rgb(204, 204, 204)" stroke-width="1px"></line><line x1="51.41600036621094" y1="44.49374985694888" x2="46.41600036621094" y2="44.49374985694888" style="visibility: inherit;" fill="rgb(0, 0, 0)" stroke="rgb(204, 204, 204)" stroke-width="1px"></line><line x1="51.41600036621094" y1="29.66249990463257" x2="46.41600036621094" y2="29.66249990463257" style="visibility: inherit;" fill="rgb(0, 0, 0)" stroke="rgb(204, 204, 204)" stroke-width="1px"></line><line x1="51.41600036621094" y1="14.831249952316284" x2="46.41600036621094" y2="14.831249952316284" style="visibility: inherit;" fill="rgb(0, 0, 0)" stroke="rgb(204, 204, 204)" stroke-width="1px"></line><line x1="51.41600036621094" y1="0" x2="46.41600036621094" y2="0" style="visibility: inherit;" fill="rgb(0, 0, 0)" stroke="rgb(204, 204, 204)" stroke-width="1px"></line></g><g transform="translate(41.41600036621094, 0)"><text style="text-anchor: end; visibility: hidden; font-family: &quot;Helvetica Neue&quot;, sans-serif; font-size: 12px; font-weight: 200;" x="0" y="177.9749994277954" dx="0em" dy="0.3em" fill="rgb(50, 49, 63)" stroke="none" stroke-width="1px">-0.2</text><text style="text-anchor: end; visibility: inherit; font-family: &quot;Helvetica Neue&quot;, sans-serif; font-size: 12px; font-weight: 200;" x="0" y="163.14374947547913" dx="0em" dy="0.3em" fill="rgb(50, 49, 63)" stroke="none" stroke-width="1px">0</text><text style="text-anchor: end; visibility: hidden; font-family: &quot;Helvetica Neue&quot;, sans-serif; font-size: 12px; font-weight: 200;" x="0" y="148.31249952316284" dx="0em" dy="0.3em" fill="rgb(50, 49, 63)" stroke="none" stroke-width="1px">0.2</text><text style="text-anchor: end; visibility: inherit; font-family: &quot;Helvetica Neue&quot;, sans-serif; font-size: 12px; font-weight: 200;" x="0" y="133.48124957084656" dx="0em" dy="0.3em" fill="rgb(50, 49, 63)" stroke="none" stroke-width="1px">0.4</text><text style="text-anchor: end; visibility: hidden; font-family: &quot;Helvetica Neue&quot;, sans-serif; font-size: 12px; font-weight: 200;" x="0" y="118.64999961853027" dx="0em" dy="0.3em" fill="rgb(50, 49, 63)" stroke="none" stroke-width="1px">0.6</text><text style="text-anchor: end; visibility: inherit; font-family: &quot;Helvetica Neue&quot;, sans-serif; font-size: 12px; font-weight: 200;" x="0" y="103.81874966621399" dx="0em" dy="0.3em" fill="rgb(50, 49, 63)" stroke="none" stroke-width="1px">0.8</text><text style="text-anchor: end; visibility: hidden; font-family: &quot;Helvetica Neue&quot;, sans-serif; font-size: 12px; font-weight: 200;" x="0" y="88.98749971389772" dx="0em" dy="0.3em" fill="rgb(50, 49, 63)" stroke="none" stroke-width="1px">1</text><text style="text-anchor: end; visibility: inherit; font-family: &quot;Helvetica Neue&quot;, sans-serif; font-size: 12px; font-weight: 200;" x="0" y="74.15624976158144" dx="0em" dy="0.3em" fill="rgb(50, 49, 63)" stroke="none" stroke-width="1px">1.2</text><text style="text-anchor: end; visibility: hidden; font-family: &quot;Helvetica Neue&quot;, sans-serif; font-size: 12px; font-weight: 200;" x="0" y="59.324999809265165" dx="0em" dy="0.3em" fill="rgb(50, 49, 63)" stroke="none" stroke-width="1px">1.4</text><text style="text-anchor: end; visibility: inherit; font-family: &quot;Helvetica Neue&quot;, sans-serif; font-size: 12px; font-weight: 200;" x="0" y="44.49374985694888" dx="0em" dy="0.3em" fill="rgb(50, 49, 63)" stroke="none" stroke-width="1px">1.6</text><text style="text-anchor: end; visibility: hidden; font-family: &quot;Helvetica Neue&quot;, sans-serif; font-size: 12px; font-weight: 200;" x="0" y="29.66249990463257" dx="0em" dy="0.3em" fill="rgb(50, 49, 63)" stroke="none" stroke-width="1px">1.8</text><text style="text-anchor: end; visibility: inherit; font-family: &quot;Helvetica Neue&quot;, sans-serif; font-size: 12px; font-weight: 200;" x="0" y="14.831249952316284" dx="0em" dy="0.3em" fill="rgb(50, 49, 63)" stroke="none" stroke-width="1px">2</text><text style="text-anchor: end; visibility: hidden; font-family: &quot;Helvetica Neue&quot;, sans-serif; font-size: 12px; font-weight: 200;" x="0" y="0" dx="0em" dy="0.3em" fill="rgb(50, 49, 63)" stroke="none" stroke-width="1px">2.2</text></g><line x1="51.41600036621094" y1="0" x2="51.41600036621094" y2="177.9749994277954" fill="rgb(0, 0, 0)" stroke="rgb(204, 204, 204)" stroke-width="1px"></line></g></g><g transform="translate(51, 0)" clip-path="url(#clip_0)"><clipPath id="clip_0"><rect width="278" height="177"></rect></clipPath><g><g><g><line x1="0" y1="0" x2="0" y2="177.9749994277954" fill="rgb(0, 0, 0)" stroke="rgb(60, 60, 60)" stroke-width="1px" opacity="0.25"></line><line x1="27.858399963378908" y1="0" x2="27.858399963378908" y2="177.9749994277954" fill="rgb(0, 0, 0)" stroke="rgb(60, 60, 60)" stroke-width="1px" opacity="0.25"></line><line x1="55.716799926757815" y1="0" x2="55.716799926757815" y2="177.9749994277954" fill="rgb(0, 0, 0)" stroke="rgb(60, 60, 60)" stroke-width="1px" opacity="0.25"></line><line x1="83.57519989013672" y1="0" x2="83.57519989013672" y2="177.9749994277954" fill="rgb(0, 0, 0)" stroke="rgb(60, 60, 60)" stroke-width="1px" opacity="0.25"></line><line x1="111.43359985351563" y1="0" x2="111.43359985351563" y2="177.9749994277954" fill="rgb(0, 0, 0)" stroke="rgb(60, 60, 60)" stroke-width="1px" opacity="0.25"></line><line x1="139.29199981689453" y1="0" x2="139.29199981689453" y2="177.9749994277954" fill="rgb(0, 0, 0)" stroke="rgb(60, 60, 60)" stroke-width="1px" opacity="0.25"></line><line x1="167.15039978027343" y1="0" x2="167.15039978027343" y2="177.9749994277954" fill="rgb(0, 0, 0)" stroke="rgb(60, 60, 60)" stroke-width="1px" opacity="0.25"></line><line x1="195.00879974365233" y1="0" x2="195.00879974365233" y2="177.9749994277954" fill="rgb(0, 0, 0)" stroke="rgb(60, 60, 60)" stroke-width="1px" opacity="0.25"></line><line x1="222.86719970703126" y1="0" x2="222.86719970703126" y2="177.9749994277954" fill="rgb(0, 0, 0)" stroke="rgb(60, 60, 60)" stroke-width="1px" opacity="0.25"></line><line x1="250.72559967041016" y1="0" x2="250.72559967041016" y2="177.9749994277954" fill="rgb(0, 0, 0)" stroke="rgb(60, 60, 60)" stroke-width="1px" opacity="0.25"></line><line x1="278.58399963378906" y1="0" x2="278.58399963378906" y2="177.9749994277954" fill="rgb(0, 0, 0)" stroke="rgb(60, 60, 60)" stroke-width="1px" opacity="0.25"></line></g><g><line x1="0" y1="177.9749994277954" x2="278.58399963378906" y2="177.9749994277954" fill="rgb(0, 0, 0)" stroke="rgb(60, 60, 60)" stroke-width="1px" opacity="0.25"></line><line x1="0" y1="163.14374947547913" x2="278.58399963378906" y2="163.14374947547913" fill="rgb(0, 0, 0)" stroke="rgb(60, 60, 60)" stroke-width="1px" opacity="0.25"></line><line x1="0" y1="148.31249952316284" x2="278.58399963378906" y2="148.31249952316284" fill="rgb(0, 0, 0)" stroke="rgb(60, 60, 60)" stroke-width="1px" opacity="0.25"></line><line x1="0" y1="133.48124957084656" x2="278.58399963378906" y2="133.48124957084656" fill="rgb(0, 0, 0)" stroke="rgb(60, 60, 60)" stroke-width="1px" opacity="0.25"></line><line x1="0" y1="118.64999961853027" x2="278.58399963378906" y2="118.64999961853027" fill="rgb(0, 0, 0)" stroke="rgb(60, 60, 60)" stroke-width="1px" opacity="0.25"></line><line x1="0" y1="103.81874966621399" x2="278.58399963378906" y2="103.81874966621399" fill="rgb(0, 0, 0)" stroke="rgb(60, 60, 60)" stroke-width="1px" opacity="0.25"></line><line x1="0" y1="88.98749971389772" x2="278.58399963378906" y2="88.98749971389772" fill="rgb(0, 0, 0)" stroke="rgb(60, 60, 60)" stroke-width="1px" opacity="0.25"></line><line x1="0" y1="74.15624976158144" x2="278.58399963378906" y2="74.15624976158144" fill="rgb(0, 0, 0)" stroke="rgb(60, 60, 60)" stroke-width="1px" opacity="0.25"></line><line x1="0" y1="59.324999809265165" x2="278.58399963378906" y2="59.324999809265165" fill="rgb(0, 0, 0)" stroke="rgb(60, 60, 60)" stroke-width="1px" opacity="0.25"></line><line x1="0" y1="44.49374985694888" x2="278.58399963378906" y2="44.49374985694888" fill="rgb(0, 0, 0)" stroke="rgb(60, 60, 60)" stroke-width="1px" opacity="0.25"></line><line x1="0" y1="29.66249990463257" x2="278.58399963378906" y2="29.66249990463257" fill="rgb(0, 0, 0)" stroke="rgb(60, 60, 60)" stroke-width="1px" opacity="0.25"></line><line x1="0" y1="14.831249952316284" x2="278.58399963378906" y2="14.831249952316284" fill="rgb(0, 0, 0)" stroke="rgb(60, 60, 60)" stroke-width="1px" opacity="0.25"></line><line x1="0" y1="0" x2="278.58399963378906" y2="0" fill="rgb(0, 0, 0)" stroke="rgb(60, 60, 60)" stroke-width="1px" opacity="0.25"></line></g></g></g><g><g><line x1="0" y1="163.14374947547913" x2="278.58399963378906" y2="163.14374947547913" fill="rgb(0, 0, 0)" stroke="rgb(153, 153, 153)" stroke-width="1.5px"></line></g></g><g><g><line x1="27.858399963378908" y1="0" x2="27.858399963378908" y2="177.9749994277954" fill="rgb(0, 0, 0)" stroke="rgb(153, 153, 153)" stroke-width="1.5px"></line></g></g><g><g><g><g><g><path style="fill: none;" stroke="rgb(0, 153, 136)" stroke-width="2px" d="M35.942907632751464,-5.090477015103033L35.95683683273315,17.75668230829845L36.416500432128906,23.865200978529884L36.600365871887206,-15.917954539739071L36.711799471740726,22.61863884433788L36.78144547164917,12.023205468145989L36.80930387161255,29.476180361065275L36.97645427139282,14.57688451640135L37.115746271209716,-0.07420745170099963L37.703558510437006,22.946120861904774L37.814992110290525,2.6828295755558145L37.926425710144045,8.954890352009073L38.28858490966797,22.028994410440504L38.41394770950318,29.269657621305583L38.469664509429926,-10.927232905363041L38.49752290939331,-10.03139344804913L38.692531709136965,24.33637904672574L38.72039010910034,22.716162980329187L38.80675114898682,27.36771596662885L38.91818474884033,29.953122183491246L39.001759948730474,19.131965340257835L39.391777548217775,46.017951678799676L40.39746578689575,29.540218145793432L40.857129386291504,46.155556890986105L40.89891698623657,38.44380401306364L41.12457002593994,49.82883635832221L41.24993282577515,46.93571461846116L41.263862025756836,22.911087490717904L41.34743722564697,23.91429013073798L41.431012425537105,43.02976335459758L41.68173802520752,35.42696487987425L41.72352562515258,33.96124748323115L41.84888842498779,55.91820734195491L42.52027586410522,84.27084812920792L42.56206346405029,49.67615875202182L42.64563866394043,46.908743431105336L42.729213863830566,52.48201972807121L42.9381518635559,72.6449315216554L43.02172706344605,30.11578911844194L43.091373063354496,36.73202204741057L43.80454810241699,42.706833995663345L43.87419410232544,25.486964064850156L43.888123302307136,50.23503074960797L44.13884890197754,30.867667321711394L44.30878514175415,87.40356347474086L44.489864741516115,58.36277286496181L45.019174340820314,68.33366987789101L45.255970740509035,63.11564239609436L45.52341138015747,67.71106949956145L46.0109333795166,49.48291386326457L46.052720979461675,55.82769341624652L46.24772977920532,18.422263320165882L46.30344657913208,37.00483680093012L46.96090481826782,40.58307620426672L47.058409218139644,73.21564043168645L47.36485161773682,69.52682888431622L47.52085865753174,88.68383296304226L47.66015065734864,90.68025775454596L48.07802665679932,71.82776907760494L48.2312478565979,88.73189666204378L48.342681456451416,64.4212741710309L48.42625665634156,70.0173491216155L48.86084769577026,68.70870286785615L49.26479449523926,52.030174988864914L49.48766169494629,49.824831786748234L49.69938553466797,89.48890655140306L49.75510233459473,90.11245282191456L49.991898734283446,38.48861455016842L50.47942073364258,80.09857075539055L50.5908543334961,63.94299749141365L51.053303772888185,98.1280713532541L51.178666572723394,74.55823272262914L51.26224177261353,79.4910692915165L51.33188777252197,50.870953179509215L51.4293921723938,75.33503120684126L51.554754972229006,84.83276112595841L51.74976377197266,101.80000712328503L51.77762217193604,65.99472603516186L51.819409771881105,79.29656910659257L51.93362921173096,90.6592050234126L52.42115121109009,87.94561273567079L52.755452010650636,72.96885981345464L53.03682185028076,75.24277577870446L53.28754744995118,92.28160901798698L53.41291024978638,87.15419270315105L53.593989849548336,72.4067081336302L53.63577744949341,79.70255133514596L53.74721104934692,83.20013353971672L54.29323568862915,101.52652936122674L54.53003208831787,57.39952753954296L54.669324088134765,72.4273409593557L54.71111168807984,74.36161091038126L54.98969568771363,102.85156518606367L55.2014195274353,110.26105247117587L55.452145127105716,104.33640374896395L55.619295526885985,112.76685788287746L55.85609192657471,91.12663930339305L55.93966712646485,79.39399600133153L56.443904165802,87.9174392928314L56.48569176574707,86.61195779983028L56.49962096572876,92.11681161559848L56.61105456558228,82.42620809250577L56.666771365509035,100.8432946420012L56.76427576538086,100.79240652662466L57.49138000442505,93.41803217372397L57.58888440429687,112.94590996884881L57.71424720413208,107.06175780818295L58.02068960372925,89.94445529831242L58.076406403656,99.57406203584131L58.18784000350952,85.56699446198363L58.29927360336304,93.4718463667848L58.35499040328979,109.98289828889102L58.62243104293823,99.85673351630342L58.692077042846684,101.43961336185522L58.706006242828366,96.57023997029579L58.77565224273682,91.58522904946675L58.94280264251709,77.3165073658249L58.98459024246216,114.439407423265L59.05423624237061,100.41823102770297L59.318891042022706,110.41700533965762L59.530614881744384,94.12299147273546L59.669906881561275,92.9153435197104L59.83705728134156,83.10400614171367L60.19921648086548,107.82393916414438L60.32457928070069,94.35014261816373L60.80095792007446,117.14008872472911L60.81488712005615,137.56393636884715L60.842745520019534,104.2780987780674L61.45563031921387,85.63484233578104L61.56706391906739,106.84566122512389L61.681283358917234,105.5250852377242L61.70914175888062,95.0964692299355L61.778787758789065,115.27421031450277L62.127017758331306,99.62531259588569L62.14094695831299,114.17353215911756L62.280238958129885,92.06923854291563L62.30809735809326,88.77367504009808L62.37774335800171,95.01026927978582L62.57275215774536,102.50604933624312L62.6563273576355,103.1304265774565L62.77054679748535,117.87249215718741L62.97948479721069,125.35188264256712L63.06305999710083,97.27199472803672L63.71773239624024,109.57651825521441L63.80130759613037,106.58920952234037L64.02696063583375,96.29024262427325L64.11053583572388,113.7230045968749L64.89057103469848,107.26197754676771L64.94907367462157,128.63967789533916L65.13015327438355,89.319786333342L65.64553367370605,84.28845763599678L65.8405424734497,96.91774926578947L66.3169211128235,107.81054639166189L67.46190135131836,126.3676294041401L67.71262695098876,117.74011145228621L67.7962021508789,130.66770388382753L68.13050295043945,118.3819611785238L68.77403198959351,123.78967098319623L68.88546558944702,109.15311216226303L69.37577342880249,125.30759809223642L69.59864062850951,118.91922793786097L69.6404282284546,122.65372077355019L69.75186182830811,109.64152403240912L69.79364942825316,128.2058028975611L70.18366702774047,113.14134720584082L70.59039966720582,129.8547139735142L71.37043486618042,116.07671584979019L71.44286670608521,110.24064948841047L71.66573390579224,132.54828340338614L71.91645950546264,95.21352117742107L71.93038870544433,116.32456612179783L72.40398150482179,96.67349250006178L72.53213014465331,97.78896458597468L72.57391774459839,121.6074402587399L72.58784694458008,127.51640219892532L72.61570534454346,130.85369766919945L72.62963454452515,127.86769506314673L72.97786454406739,128.43991784267456L73.43752814346314,129.12947545333122L73.98355278274535,137.09043556073726L74.41535798217774,117.61491775994496L74.780303021698,136.85727976797648L74.84994902160643,129.07629332841063L75.15639142120362,132.16022892572022L75.42104622085571,131.5171946242268L75.62998422058105,120.64215286702174L75.84170806030274,122.54766150763689L76.24565485977172,134.487362376346L76.28744245971679,138.44231881133612L76.63567245925903,101.50117591470543L77.22348469848633,130.34395460433373L77.50206869812011,109.34820905487182L77.75279429779053,124.12466267747855L77.78065269775391,123.97874333821636L77.80851109771729,131.75866896412023L77.89208629760742,140.19690681827853L78.27096053710937,141.7491888197676L78.46596933685304,134.03192413085978L79.23486117584228,131.57392605485805L79.29057797576904,122.44181440445597L79.44379917556762,133.5965971443819L79.875604375,127.53732674840786L79.98703797485351,129.78881534482065L80.15697421463013,139.85118543581098L80.22662021453858,132.07172612591268L80.4494874142456,134.26306658769124L80.51913341415406,142.64833889971828L80.54699181411743,137.06949112099855L80.68628381393432,126.19540630611775L80.74200061386108,131.20609333762363L81.14594741333008,121.98771985627491L81.30195445312499,130.45933356027322L82.02627285217285,128.18460872460616L82.17949405197143,126.57706054135639L82.4051470916748,135.1190857521686L82.79516469116211,131.56956787873008L83.15732389068603,125.98396846305755L83.3244742904663,129.16776419644327L83.46655213027954,132.55406925790086L83.50833973022462,129.28669908817886L84.30230412918091,133.10075957860195L84.37195012908936,126.3312390754773L84.51402796890258,116.69924992726588L85.53085956756593,123.43815711612858L85.67293740737915,141.83012448211971L85.68686660736084,130.1876282410418L85.71472500732422,136.633439245185L85.78437100723266,133.5028388968906L85.79830020721435,122.17667286975805L86.1465302067566,136.74878947075447L86.21617620666504,133.15931649274322L86.2579638066101,141.79353083083834L86.36939740646362,128.38635780288692L86.6479814060974,129.4070329279312L86.67862564605714,136.4163326791186L86.69255484603883,131.9746881961831L86.90149284576415,121.75956093786775L87.20793524536133,124.08556727397769L87.3890148451233,145.5094760026564L87.41687324508668,130.18436402900278L87.59795284484863,137.07750689423187L88.10218988418579,125.31996541151233L88.43649068374634,145.05276920083273L88.53399508361817,135.76474556747544L88.6175702835083,125.1439896851607L88.9407277230835,135.6516009503115L88.98251532302857,144.10570459880174L89.80433812194823,132.91200104762348L90.02999116165161,144.48910475652573L90.3225043612671,139.67497544644235L90.36429196121216,133.5592211430248L90.9911059603882,132.4653542953609L91.03289356033325,131.40393066552585L91.24461740005493,149.22684885286122L91.6764225994873,118.00310925937555L92.0664401989746,139.75381379178356L92.16673043884278,150.43921079659668L92.22244723876953,149.50999438442852L92.33388083862305,134.98140318898598L92.48710203842164,142.67578745322197L92.84926123794556,148.72503758014724L92.918907237854,139.77710749177788L93.14177443756104,137.01231989470324L93.35349827728271,140.33532974099606L93.46493187713624,146.7838038294365L93.59029467697144,144.25794682949504L93.71565747680664,128.70301068098777L93.86887867660523,127.05847546139036L93.88280787658692,140.7572484847922L94.04995827636719,136.05170008309778L94.07781667633057,140.374301382903L94.5959829156494,142.09808822316415L94.7631333154297,121.42015360671743L95.02778811508179,145.95919579949603L95.34815971466065,124.14843374362073L95.6156003543091,143.883850891598L96.28420195343017,122.78962868387747L96.40956475326537,129.24885235075928L96.45135235321045,135.25562573063613L97.17845659225463,144.9546925577258L97.22024419219971,134.95449609245557L97.4988281918335,132.82320873408736L97.52668659179687,118.99491257258627L97.54061579177856,139.7927346030359L97.87770243133545,138.019692858432L98.26772003082276,135.8324210590528L98.54630403045654,142.5672838958292L98.65773763031007,124.14790333678974L99.07839946975709,148.23668980082655L99.3151958694458,132.82488614569036L99.5659214691162,137.04837429903978L99.67735506896973,149.30549603074044L100.09801690841675,141.2463896643309L100.79447690750122,141.585838986022L101.18728034698486,148.67085320731894L101.34050154678344,139.5719085590672L101.56336874649048,138.48080424698134L101.75837754623413,135.2777790559438L102.03974738586426,148.32021782656514L102.59691538513184,141.8281752370158L102.903357784729,144.80763615881966L102.97300378463746,138.0570069789921L103.47724082397461,140.1018844345067L103.63046202377319,132.86735405262493L103.90904602340697,129.31114863305902L103.93690442337035,137.4242006892229L104.37149546279906,146.02719506024314L104.70579626235963,134.26951103068777L104.8729466621399,141.275493529153L104.90080506210327,125.56378901166137L104.98438026199341,136.41399888906224L105.48861730133056,150.50521108659953L105.87863490081787,122.97973533221801L105.90649330078125,143.13626898365956L105.962210100708,142.53231019541082L106.17114810043336,148.7911947821709L106.73110193969727,152.32302469281012L106.77288953964234,149.5379180940517L107.49999377868653,145.9971585634099L107.54178137863158,142.12636995739823L107.68107337844849,145.99331090385675L107.93179897811889,139.17357744905084L107.94572817810058,146.52447466959484L108.18252457778931,133.60882744189314L108.22431217773438,148.15066223289696L108.68676161712646,150.6347430648126L108.71462001708984,139.7960717460142L108.81212441696167,150.1174328624914L109.3135756163025,129.51221260251646L109.59494545593263,134.09862720991364L109.92924625549317,140.88322010715225L109.9988922554016,138.85542396162398L110.08246745529175,142.1272605988686L110.45855585479737,143.5389450096331L110.7259964944458,144.40538224828248L110.79564249435425,147.14211242901197L111.00458049407959,145.85124474921884L111.07422649398804,147.3660181476431L111.67318209320068,147.47019888936333L112.01026873275757,141.63056112198828L112.03812713272096,146.8892752277788L112.26099433242798,154.78625666871807L112.28885273239135,135.86723784745035L112.3724279322815,143.03195785026003L112.40028633224487,149.69008076372032L112.65101193191529,142.4590455418519L112.96024017150879,146.92498265764672L113.085602971344,147.97014379304076L113.3502577709961,149.3488081685477L113.50347897079469,155.4389974152186L113.53133737075805,148.93502453952183L113.6149125706482,144.5598057770682L113.79599217041016,139.70602192628294L114.03557441009521,141.10260521256345L114.5788132093811,141.47431210969256L114.89918480895996,120.1104995799792L114.95490160888671,145.75547095576982L114.9688308088684,132.61507267355006L115.2919882484436,147.71798065048864L115.44520944824218,144.84239769650566L115.59843064804076,147.25096185585915L115.6959350479126,139.8125033076326L115.77951024780275,135.7274557572284L116.10266768737793,152.55766120464074L116.92449048629761,139.02304799041596L117.41479832565308,150.74907446726087L117.42872752563477,154.14204939461817L117.48444432556151,146.47369042555604L117.76302832519531,148.9258440812888L117.776957525177,146.8695916092779L117.79088672515869,139.3017148993041L117.9023203250122,148.85060476729868L118.50406176422119,152.60346293951093L118.60156616409301,153.19810314274773L118.64335376403808,142.83850300879885L118.90800856369019,149.4424857500001L119.64904200271606,150.41105392897077L119.77440480255126,148.91720950008596L119.80226320251464,151.9410279031598L119.85798000244141,143.5851655448969L119.94155520233154,153.15396224426706L119.98334280227661,147.91246315518487L120.08084720214843,145.3291697255326L120.19228080200195,141.39719758655207L120.23406840194701,147.98631015124363L120.4012188017273,145.5036625227859L120.76616384124756,150.90689812483612L120.8218806411743,139.8501069419213L120.97510184097291,144.21061243988612L121.12832304077149,146.4253460529398L122.06436527954101,148.8212191238476L122.25937407928465,152.36508705952184L122.37080767913818,146.5295610501012L122.56581647888184,141.351697520567L122.57974567886353,149.74047383272125L122.9307615184021,141.4451242637889L123.12577031814574,140.28469135883577L123.474000317688,148.09786796797155L123.86680375717164,142.4264211016891L123.9085913571167,153.3381051308017L124.27075055664062,146.4414206949615L124.52147615631104,149.7833362297364L124.5771929562378,151.75067041658875L124.91427959579468,154.83759894494364L125.63859799484253,145.1523442432372L125.84753599456786,142.87770228363746L125.94782623443604,151.16376089291364L125.96175543441773,145.23597614031348L126.26819783401488,145.67784591605448L126.5189234336853,122.84386278234616L127.06494807296754,147.0211476261336L127.35746127258301,151.937970328782L127.66390367218018,141.53759627471504L127.78926647201538,144.16353441357887L128.51637071105958,136.93857566496797L128.66959191085814,140.35167069144745L128.92031751052858,151.4518513631657L129.05960951034547,137.95702087129362L129.07353871032714,144.02302080393582L129.32705014999388,150.24882015959872L129.64742174957277,147.149099433996L129.91207654922485,146.29944294146208L130.31880918869018,155.19628711690754L130.4441719885254,151.5203920808861L130.48595958847045,145.13960342915112L130.5834639883423,137.7330764771644L130.72275598815918,152.24753896064644L130.76454358810423,147.42333523581695L130.8341895880127,153.6939904341681L130.97348158782958,149.79554884701992L131.30778238739012,141.12347230130598L131.42200182724,151.85527106371686L131.6866566268921,148.29626885313172L131.92345302658083,139.8088103500718L132.7759200654602,151.30027545605384L133.26344206481934,147.06201436744712L133.50023846450807,140.24869441523927L133.6283871043396,146.1012818443901L133.69803310424805,147.82818371976907L133.85125430404662,154.96209868834768L133.93482950393675,141.24604710991923L134.0323339038086,148.2203079648486L134.283059503479,145.22280768571994L134.35270550338745,144.35164319618937L134.42235150329589,145.8615644771243L134.66193374298095,149.43842371768608L134.81515494277954,152.04233892292154L134.85694254272462,149.53153000678094L135.1355265423584,146.35006032835196L135.24696014221192,148.17204978334237L135.3862521420288,143.66445694607296L135.8626307814026,146.2407898910827L135.93227678131103,153.98296767834069L136.78195798019408,144.4585776333738L136.7847438201904,149.39226948327612L137.2304782196045,155.58285756046092L137.82943381881714,153.00044593216518L137.9297240586853,145.91307692554147L138.04115765853882,155.1861270635585L138.0550868585205,149.93484915103704L138.52867965789795,148.78863114915444L138.68190085769652,152.98849520325444L138.84905125747682,148.54258647040064L139.07470429718018,150.42725343760057L139.91045629608155,144.10653556950365L140.23361373565675,153.04418460546566L140.65148973510742,148.36578750844677L140.70720653503417,153.7204135344652L140.90221533477782,145.07228485717044L141.13901173446655,153.3928420107456L141.21144357437132,152.56881742831922L141.7964699736023,137.7105540771035L142.0193371733093,150.82695366024942L142.1725583731079,152.17333836003368L142.28677781295778,153.48211942552925L142.39821141281126,154.82831848292267L142.67679541244507,144.3691422015551L142.70465381240845,149.00472994224197L142.7464414123535,154.32206229046358L142.77429981231688,149.94966076179244L142.85787501220705,155.96101497816483L143.13645901184083,145.8069911392866L143.17824661178588,145.41225132552177L143.24789261169434,152.73851777885167L143.3621120515442,143.35427503131018L144.33715605026245,145.4390777560133L144.6045966899109,149.20081471757348L144.6185258898926,154.91666602823074L144.64638428985597,149.67812340472418L144.84139308959962,149.07145512158047L144.89710988952638,148.12834978554L145.02247268936156,146.45039783057598L145.03640188934327,150.43592448427302L145.10604788925173,144.92490689912304L145.17569388916016,151.04561387632492L145.38463188888548,146.26019283596884L145.80529372833252,153.74431278225822L145.97244412811278,156.57353707419847L146.06994852798462,146.6672745536823L146.13959452789308,156.36914369686235L146.3346033276367,144.7746404338752L146.45996612747194,142.59162072925778L146.8109819670105,154.5699335577416L146.90848636688233,144.99831188948932L146.92241556686403,150.86874419346023L147.04777836669922,152.100839481337L147.5770879660034,153.67725609865036L147.67737820587158,157.3388887159893L147.69130740585328,150.69689127520536L147.74702420578004,139.9247130827569L148.19275860519411,152.67191083603592L148.83628764434812,153.14988805679653L148.8920044442749,147.8559902978837L149.21237604385377,150.91969971470488L149.46310164352417,144.4363270668138L149.50488924346925,154.04648113381614L149.79740244308474,148.3035398467732L149.93948028289796,139.80152609625955L150.2737810824585,157.05464203774056L150.3712854823303,153.84789571127936L150.60808188201904,152.49414609164396L150.6359402819824,155.3638542374666L150.67772788192747,147.7327911562298L150.9590977215576,148.58143103567102L150.986956121521,151.6912250710056L151.05660212142945,147.30643136023835L151.20982332122804,152.34733500589715L151.37697372100828,158.1516023727448L151.613770120697,147.48480275744325L151.86449572036744,149.05596613710134L151.94807092025755,153.47499429376626L152.0762195600891,152.69332932687982L152.32694515975953,154.35033849962647L152.3408743597412,156.7303457762023L152.71696275924683,148.32830653073773L152.82839635910034,149.5120519209271L152.96768835891723,155.3711329662077L153.12090955871582,158.00550954624833L153.40227939834594,152.6282804541301L153.65300499801634,152.94497974282865L154.09873939743042,153.09744076633973L154.19624379730223,154.7095858087914L154.90941883636475,147.03064411843678L154.93727723632813,153.81724151149083L155.07656923614502,155.01993458070308L155.17407363601686,152.45703860874505L155.5390186755371,149.2804597233035L155.8315318751526,146.70637327222585L155.97082387496948,148.5290577811677L156.1936910746765,150.2829197937602L156.2215494746399,154.4166824490552L156.3190538745117,146.58079061487518L156.7536449139404,152.44897752992824L156.8232909138489,150.90321732243189L156.97651211364746,153.5582228606482L157.0461581135559,150.66118053029473L157.6339703527832,159.15939026931738L157.67575795272828,153.37213956912353L157.95434195236206,152.81586656500923L158.0379171522522,154.01796845160774L158.05184635223387,153.50158204118387L158.4140055517578,150.29364948194544L158.51150995162965,144.16338192161496L159.37790619049073,155.97854602894327L159.50326899032592,147.6467282278448L159.60077339019773,149.27819775917217L159.6425609901428,149.27501973824317L159.72892203002928,145.64629886476712L159.77070962997436,158.7443104585983L160.07715202957152,151.69889276475607L160.23037322937012,158.36045116746124L160.3835944291687,146.4070448072422L160.55074482894898,154.10964485228737L160.56467402893065,148.39310677528542L160.60646162887573,155.50785803455898L160.92961906845093,145.21968049544557L161.01319426834107,154.29240978607567L161.3335658679199,153.99039779403148L161.47285786773682,152.4994203245696L161.58429146759033,153.4747865510908L162.42282930648804,157.6442875766522L162.54819210632323,153.55792008674882L162.67355490615844,148.96795506862668L163.14993354553224,152.5247737710909L163.53995114501953,157.93928770089212L163.5817387449646,155.6159665493641L164.1277633842468,158.7390947914269L164.46206418380737,158.8140191763611L165.35631882263183,155.9546197083016L165.94134522186278,156.6743210021719L166.43165306121824,153.48902355444596L166.50129906112673,152.2941959765316L166.5152282611084,155.77513500925872L166.54308666107178,157.91618737838832L166.73809546081546,152.11685555760442L166.9052458605957,149.38348020008095L167.22561746017456,152.8945933039131L167.29804930007936,148.5396272422894L167.5069872998047,153.63845352392076L167.5905624996948,154.7872556015831L167.7298544995117,148.30251660359508L168.06415529907227,151.95904626521423L168.30095169876097,155.93187906793003L168.59625073837282,152.10739774079934L169.02805593780516,153.9163734431886L169.125560337677,158.23823438345892L169.27878153747557,152.09428895697428L169.54622217712404,155.73841317632653L169.64372657699585,158.25965011176723L169.71337257690428,158.13578022647496L170.29839897613525,156.7372488001048L170.78870681549074,153.86768209610375L171.17872441497803,150.17973908991922L171.2065828149414,158.1865086672951L171.2205120149231,156.1158462572019L171.24837041488647,154.4594122443626L171.3319456147766,157.97461997842856L171.45730841461182,154.26508886171564L171.54088361450195,160.2415842991497L171.61052961441038,150.20469031126038L172.00333305389404,159.09404801528925L172.1983418536377,150.24554158237467L172.35156305343628,148.22196548619544L172.49085505325317,154.2876593298956L172.54657185317993,147.02831916849428L172.5605010531616,152.26328320341298L172.93937529266358,156.3730443970986L173.06473809249877,150.90279410198133L173.38510969207766,148.2928256287872L173.39903889205934,154.88742458913683L173.56618929183958,154.15320285576107L173.9868511312866,154.25082478551184L174.11221393112183,156.7119843072291L174.34901033081053,153.23805714230625L174.41865633071902,156.17435786575967L174.5440191305542,154.4523500984108L174.65545273040772,156.3132437894401L174.76688633026123,152.06130980724328L174.9925393699646,157.2688379963219L175.4104153694153,158.5535800297242L175.54970736923218,146.73223171025083L176.05394440856932,157.9697916187452L176.17930720840454,159.53684268794177L176.19323640838624,161.3487157376453L176.27681160827638,156.88411900411296L176.4996788079834,158.73324374107256L176.5971832078552,158.1590650863554L176.98720080734253,160.79744016039172L177.00113000732424,156.22778033127554L177.11534944717405,160.12064104404885L177.1849954470825,158.9191071347652L177.3382166468811,148.54233121211323L177.46357944671632,154.1910335704743L177.65858824645994,155.76155051680712L178.17675448577882,157.17132988303695L178.2185420857239,154.29055391467432L178.34390488555908,157.1699900532816L178.6921348851013,147.46990827062052L178.74785168502808,156.17092182400765L178.87321448486327,156.7315204063301L179.06822328460694,159.7648629270629L179.15179848449708,153.12614130096742L179.17965688446043,159.8518910853789L179.64210632385252,158.72396935662985L179.72568152374268,160.06349578558797L179.8092567236328,151.21132181043996L179.8371151235962,160.6478499638534L179.85104432357787,158.01262694291165L179.99033632339479,156.50135864962886L180.05998232330322,160.712214832794L180.25499112304686,151.4741151898965L180.3692105628967,152.93902482113657L180.59207776260376,154.6529709571615L180.94030776214598,155.21799401646578L181.20496256179808,157.73304397722583L181.3303253616333,147.49149693365604L181.56990760131836,156.7945940661415L181.94599600082395,154.12514157186615L182.26636760040282,157.82729837610694L182.29422600036622,156.97280578879003L182.30815520034793,155.63392689817138L183.0074010394287,158.4086933262611L183.11883463928223,157.16659434454903L183.1606222392273,159.40790631239932L183.2859850390625,154.30230684603765L183.80415127838137,157.81317021665356L184.23595647781372,156.4155382718676L184.5145404774475,156.03409454184L184.76805191711426,159.24033256175485L185.19985711654664,159.14705831049687L185.31129071640012,160.59191690600417L185.33914911636353,157.39223935558013L185.80159855575562,158.38306196866063L185.8433861557007,161.2299570956796L186.03839495544432,160.37007535395696L186.233403755188,159.4506537879344L186.3169789550781,159.8711735837138L186.70699655456542,157.37928582625455L186.7487841545105,160.2504514858482L186.76271335449218,154.41919690893837L186.8462885543823,158.45005400893598L186.8741469543457,157.32413456597394L187.09979999404908,161.5133965610324L187.2112335939026,159.75202818676718L187.33659639373778,155.386369454935L187.54553439346313,155.02596685339134L187.76840159317015,155.7407442038473L188.3004970324707,156.17515789606307L188.46764743225097,160.3510646891229L188.49550583221435,160.04990853060082L188.63479783203127,160.32786546784538L188.78801903182983,161.6734910228528L188.88552343170164,161.28924663425616L188.98302783157348,159.36345656244106L189.01088623153686,156.6691760559113L189.23653927124025,160.8553257783875L189.50119407089232,161.55607276314956L190.00264527023316,161.27759867924476L190.3675903097534,159.95772990095307L190.45116550964357,161.450103003389L190.57652830947876,160.73457590077714L190.99440430892946,158.6472813689826L191.30363254852296,160.98716392130117L191.31756174850463,161.73887029485766L191.56828734817503,157.8752361034861L191.95830494766236,160.29492002104843L192.02795094757082,160.69242900047672L192.20903054733276,161.59631959147936L192.39289598709104,160.63498428315918L192.50432958694458,160.56046543844784L192.573975586853,158.78362520742405L192.6018339868164,158.89289011962217L192.6157631867981,159.98349165023282L192.89434718643187,162.2600397593814L192.96399318634036,159.74361239838214L193.15900198608398,160.09793631663982L193.2982939859009,158.23282865383973L193.36793998580933,160.56879890327264L193.4543010256958,160.29041764056328L193.7189558253479,159.4443552068164L193.88610622512817,158.7685704935378L194.3736282244873,160.39500005495654L194.4989910243225,160.91466614761873L195.15644926345826,162.16000945111367L195.2260952633667,160.88912319115676L195.43503326309204,159.30061274558972L195.58825446289063,161.453567775511L195.63282790283202,161.64486010412168L195.85569510253907,160.11459937873963L196.03677470230105,158.2762617907053L196.31535870193483,159.66800235211744L196.44072150177,160.52255737273842L196.55215510162353,160.13522557437972L197.04246294097902,161.04252071422877L197.3210469406128,161.0303522975145L197.36283454055786,162.61803121987253L197.5857017402649,160.53044883187073L197.7974255799866,162.4110929947619L198.7863987786865,161.84424831949744L198.90061821853638,162.16876337385347L198.91454741851805,161.80286222149522L199.33242341796876,161.07079084581343L199.59707821762086,162.04187016962456L199.63886581756591,161.30596715709598L199.9453082171631,160.77892619945462L200.54704965637205,162.17965218408798L200.83956285598754,162.2229455366533L200.9231380558777,162.05077326928557L200.95099645584108,161.82770736147017L201.2323662954712,162.033021768168L201.53880869506835,162.36472549260532L201.94275549453735,162.20147621515477L202.5723553337097,162.34020798934992L202.79522253341673,158.64384422221633L202.96237293319703,161.9083861080135L203.77305237213136,162.7268994319616L203.99591957183839,162.54177087273274L204.41658141128542,162.47752976538604L204.5280150111389,162.6567625211842L204.8205282107544,160.33396072634483L205.16875821029663,160.81238161031928L205.2384042102051,162.60310247760862L205.4083404499817,162.09809992379488L205.58942004974364,162.2891502542889L205.6729952496338,162.3057774034262L206.25802164886477,161.7715383830826L206.27195084884644,158.82087136960897L206.34159684875488,162.4413830923612L206.53939148849486,162.5356153909577L207.34728508743285,162.5320594551616L207.58408148712158,159.58272122130103L207.94902652664183,162.2190956670717L207.96295572662356,162.7037278360399L208.07438932647705,162.3404273346748L208.24153972625734,162.38166094071312L208.2833273262024,162.61048397267322L208.40869012603758,162.59243025016343L208.61762812576293,161.72355977017688L208.6733449256897,161.92352148793864L208.89899796539305,162.2034983911979L209.14972356506348,162.5979453761915L209.40044916473389,162.19698709484038L209.60938716445924,161.93496391030303L209.74867916427613,162.7207621829214L209.77932340423584,162.67116030411L209.9464738040161,162.2256384563348L209.96040300399778,162.20673663540254L210.01611980392457,162.4212911711019L210.40613740341186,161.28618242979294L210.76829660293578,162.3983654408466L211.2168168423462,162.17758359744712L211.42575484207154,162.58007453353693L211.92720604141235,162.45231113060095L211.98570868133544,162.28111072324958L212.65431028045654,162.75183297307507L212.7100270803833,162.61902573268063L212.98861108001708,162.25440860685907L213.65999851913452,162.58218345319725L214.02215771865843,162.0415883909956L214.06394531860352,162.6905588289392L214.63782835784912,162.5119537212244L214.86069555755614,162.40732213369782L215.33707419692993,162.1181675347411L215.54601219665525,162.1185995953055L215.6574457965088,162.2050940317478L215.74102099639893,162.28039412152063L216.20068459579468,162.41454284919178L216.42633763549804,162.6285818957523L216.46812523544313,162.73515499328315L216.50991283538818,162.72643753601298L216.69099243515015,162.54969713981336L217.06708083465577,162.64737929283973L217.31780643432617,162.15353959278983L217.40416747421264,162.77207904381964L217.50167187408448,160.41521131775283L217.80811427368164,162.12918618414778L218.10062747329712,162.70791086741218L218.2817070730591,162.84105182210445L218.75808571243286,161.53781240297852L219.07845731201172,161.77909447039573L219.12024491195677,162.55700459892446L219.30132451171875,162.18189149542758L219.3570413116455,162.46218995782812L219.44061651153564,162.40362254605168L220.02842875076294,162.3287208139092L220.04235795074464,162.32684670977304L220.30701275039672,161.57233912514036L220.3488003503418,162.30272811665512L220.4602339501953,161.51656187429776L220.474163150177,162.4079685670231L220.4880923501587,162.67287418118264L220.57166755004883,162.49398397979616L220.83910818969727,162.5067137437399L220.86696658966065,162.74864390200375L221.11769218933105,162.54050397391666L221.80300882843017,162.7823855115543L221.99801762817384,162.74833781306168L222.08159282806398,162.84961457738225L222.5551856274414,162.14513651206846L223.11513946670533,162.639519326613L223.50515706619262,162.75153461923264L223.88124546569824,162.56134067476782L223.93974810562133,162.44640482953503L224.0233233055115,162.7538905095736L224.34369490509033,162.69126824807566L224.69192490463257,162.47850107289528L224.85907530441284,161.72544160941266L224.87300450439454,162.3221531618259L224.95657970428468,161.04878559241274L225.07079914413453,162.61820028704992L225.30759554382325,161.7580003012287L225.4747459436035,161.23104995475427L225.55832114349366,162.76874190084132L225.83690514312747,162.43658180552652L225.8926219430542,162.45528030384025L226.2157793826294,162.47359757224422L226.24363778259277,162.24173188359842L226.369000582428,162.24834815630788L227.06546058151244,162.4319457183194L227.38861802108764,162.74564378836595L227.40254722106934,162.6426785623001L227.7089896206665,162.85646566561587L228.19651162002563,161.2446670451257L228.21044082000734,162.18631265736673L228.5335982595825,162.71816760950645L228.56145665954588,162.790144921486L228.57538585952761,162.70157803085303L228.99326185897826,161.83178431147627L229.3414918585205,162.5970121916732L229.39999449844362,162.6190986636199L229.60893249816897,161.35937470491973L229.69250769805907,162.22655340811826L230.11038369750975,162.72187272222376L230.12431289749145,162.59434634484037L230.23574649734496,162.44061897502033L230.29146329727172,162.62850785979882L230.37503849716185,162.67591518034698L230.58676233688354,162.723594334396L231.1857179360962,162.84032693276876L231.35286833587645,162.21737239737809L231.50608953567504,161.42125384434718L231.6342381755066,162.33205187930923L231.6481673754883,162.009557343475L231.70388417541506,162.4889185945602L231.75960097534178,162.7391275194444L231.81531777526854,162.53025551942912L232.05211417495727,162.8518699114282L232.1356893748474,161.05966666754765L232.1914061747742,162.45647813926692L232.21926457473756,162.68735097262595L232.56749457427978,162.71122591010587L232.82100601394652,162.32655609103023L232.91851041381838,162.82437826236946L232.93243961380006,162.53444297085835L233.15530681350705,162.59722822195542L233.19709441345216,162.4038142660208L233.6428288128662,162.01644986974227L233.6567580128479,162.1593795930019L233.6706872128296,162.475766162673L233.9938446524048,162.0666545338168L234.18885345214846,162.44918283531234L234.88809929122922,162.78823656190866L235.05524969100952,162.57986955339706L235.92164592987058,162.57059185391165L236.0609379296875,162.58939311854888L236.50667232910158,162.01502661141245L236.56238912902833,162.3016231024239L236.8409731286621,162.41086204678757L237.16413056823728,162.64608311114648L237.19198896820066,162.28535232037615L237.4287853678894,162.27463699737595L237.9441657672119,161.60317841481262L238.10017280700683,162.4290472659909L238.35089840667726,162.76663242867392L238.4205444065857,162.3520852348143L238.44840280654907,162.76621583830874L238.58769480636596,162.89250459975315L238.8384204060364,162.37433635388143L238.9498540058899,162.2726054287118L239.0612876057434,162.57818440669442L239.15879200561525,162.66304839463854L239.3844450453186,162.7380970936738L239.46802024520872,161.6247449775635L239.5655246450806,162.58575430668546L240.22019704421996,162.66932542797903L240.27869968414308,162.85811324183462L240.50156688385007,162.43909295036698L240.58514208374024,162.57862199233L240.72443408355713,162.25662084535L240.83586768341067,162.5617224571847L240.97515968322753,162.23201549346322L241.07266408309934,162.65548678225426L241.21195608291626,162.61006627729384L241.22588528289796,162.8183504097381L241.23981448287964,162.63828281568826L241.40975072265624,162.80157408367958L241.67440552230835,162.43098104089555L241.95298952194213,162.61638364365376L242.10621072174075,162.49238336668222L242.65223536102295,162.6996530960622L242.74973976089476,161.7287334468075L242.91689016067505,162.60152230725797L243.07011136047362,162.7058444907998L243.5158457598877,162.82346883565714L243.9504367993164,162.69294565967866L244.38224199874875,162.89218635565456L244.88647903808595,162.63585067936532L245.2207798376465,162.70720752585402L245.34614263748168,162.75086608562273L245.42971783737184,162.3650757821166L245.63865583709716,162.74099720352365L245.70830183700562,162.7769433164655" fill="none"></path></g></g></g></g></g><g><g><span fill="rgb(0, 0, 0)" stroke="none" stroke-width="1px">Alt + Scroll to Zoom</span></g></g></g><g transform="translate(51, 177)" clip-path="url(#clip_1)"><clipPath id="clip_1"><rect width="278" height="22"></rect></clipPath><g><g><line x1="0" y1="0" x2="0" y2="5" style="visibility: inherit;" fill="rgb(0, 0, 0)" stroke="rgb(204, 204, 204)" stroke-width="1px"></line><line x1="27.858399963378908" y1="0" x2="27.858399963378908" y2="5" style="visibility: inherit;" fill="rgb(0, 0, 0)" stroke="rgb(204, 204, 204)" stroke-width="1px"></line><line x1="55.716799926757815" y1="0" x2="55.716799926757815" y2="5" style="visibility: inherit;" fill="rgb(0, 0, 0)" stroke="rgb(204, 204, 204)" stroke-width="1px"></line><line x1="83.57519989013672" y1="0" x2="83.57519989013672" y2="5" style="visibility: inherit;" fill="rgb(0, 0, 0)" stroke="rgb(204, 204, 204)" stroke-width="1px"></line><line x1="111.43359985351563" y1="0" x2="111.43359985351563" y2="5" style="visibility: inherit;" fill="rgb(0, 0, 0)" stroke="rgb(204, 204, 204)" stroke-width="1px"></line><line x1="139.29199981689453" y1="0" x2="139.29199981689453" y2="5" style="visibility: inherit;" fill="rgb(0, 0, 0)" stroke="rgb(204, 204, 204)" stroke-width="1px"></line><line x1="167.15039978027343" y1="0" x2="167.15039978027343" y2="5" style="visibility: inherit;" fill="rgb(0, 0, 0)" stroke="rgb(204, 204, 204)" stroke-width="1px"></line><line x1="195.00879974365233" y1="0" x2="195.00879974365233" y2="5" style="visibility: inherit;" fill="rgb(0, 0, 0)" stroke="rgb(204, 204, 204)" stroke-width="1px"></line><line x1="222.86719970703126" y1="0" x2="222.86719970703126" y2="5" style="visibility: inherit;" fill="rgb(0, 0, 0)" stroke="rgb(204, 204, 204)" stroke-width="1px"></line><line x1="250.72559967041016" y1="0" x2="250.72559967041016" y2="5" style="visibility: inherit;" fill="rgb(0, 0, 0)" stroke="rgb(204, 204, 204)" stroke-width="1px"></line><line x1="278.58399963378906" y1="0" x2="278.58399963378906" y2="5" style="visibility: inherit;" fill="rgb(0, 0, 0)" stroke="rgb(204, 204, 204)" stroke-width="1px"></line></g><g transform="translate(0, 8)"><text style="text-anchor: middle; visibility: hidden; font-family: &quot;Helvetica Neue&quot;, sans-serif; font-size: 12px; font-weight: 200;" x="0" y="0" dx="0em" dy="0.95em" fill="rgb(50, 49, 63)" stroke="none" stroke-width="1px">-20k</text><text style="text-anchor: middle; visibility: inherit; font-family: &quot;Helvetica Neue&quot;, sans-serif; font-size: 12px; font-weight: 200;" x="27.858399963378908" y="0" dx="0em" dy="0.95em" fill="rgb(50, 49, 63)" stroke="none" stroke-width="1px">0</text><text style="text-anchor: middle; visibility: hidden; font-family: &quot;Helvetica Neue&quot;, sans-serif; font-size: 12px; font-weight: 200;" x="55.716799926757815" y="0" dx="0em" dy="0.95em" fill="rgb(50, 49, 63)" stroke="none" stroke-width="1px">20k</text><text style="text-anchor: middle; visibility: inherit; font-family: &quot;Helvetica Neue&quot;, sans-serif; font-size: 12px; font-weight: 200;" x="83.57519989013672" y="0" dx="0em" dy="0.95em" fill="rgb(50, 49, 63)" stroke="none" stroke-width="1px">40k</text><text style="text-anchor: middle; visibility: hidden; font-family: &quot;Helvetica Neue&quot;, sans-serif; font-size: 12px; font-weight: 200;" x="111.43359985351563" y="0" dx="0em" dy="0.95em" fill="rgb(50, 49, 63)" stroke="none" stroke-width="1px">60k</text><text style="text-anchor: middle; visibility: inherit; font-family: &quot;Helvetica Neue&quot;, sans-serif; font-size: 12px; font-weight: 200;" x="139.29199981689453" y="0" dx="0em" dy="0.95em" fill="rgb(50, 49, 63)" stroke="none" stroke-width="1px">80k</text><text style="text-anchor: middle; visibility: hidden; font-family: &quot;Helvetica Neue&quot;, sans-serif; font-size: 12px; font-weight: 200;" x="167.15039978027343" y="0" dx="0em" dy="0.95em" fill="rgb(50, 49, 63)" stroke="none" stroke-width="1px">100k</text><text style="text-anchor: middle; visibility: inherit; font-family: &quot;Helvetica Neue&quot;, sans-serif; font-size: 12px; font-weight: 200;" x="195.00879974365233" y="0" dx="0em" dy="0.95em" fill="rgb(50, 49, 63)" stroke="none" stroke-width="1px">120k</text><text style="text-anchor: middle; visibility: hidden; font-family: &quot;Helvetica Neue&quot;, sans-serif; font-size: 12px; font-weight: 200;" x="222.86719970703126" y="0" dx="0em" dy="0.95em" fill="rgb(50, 49, 63)" stroke="none" stroke-width="1px">140k</text><text style="text-anchor: middle; visibility: inherit; font-family: &quot;Helvetica Neue&quot;, sans-serif; font-size: 12px; font-weight: 200;" x="250.72559967041016" y="0" dx="0em" dy="0.95em" fill="rgb(50, 49, 63)" stroke="none" stroke-width="1px">160k</text><text style="text-anchor: middle; visibility: hidden; font-family: &quot;Helvetica Neue&quot;, sans-serif; font-size: 12px; font-weight: 200;" x="278.58399963378906" y="0" dx="0em" dy="0.95em" fill="rgb(50, 49, 63)" stroke="none" stroke-width="1px">180k</text></g><line x1="0" y1="0" x2="278.58399963378906" y2="0" fill="rgb(0, 0, 0)" stroke="rgb(204, 204, 204)" stroke-width="1px"></line></g></g></g></g></svg>