<svg viewBox="0 0 330 200" xmlns="http://www.w3.org/2000/svg"><g><g><g><g><g><line x1="51.41600036621094" y1="177.9749994277954" x2="46.41600036621094" y2="177.9749994277954" style="visibility: inherit;" fill="rgb(0, 0, 0)" stroke="rgb(204, 204, 204)" stroke-width="1px"></line><line x1="51.41600036621094" y1="164.28461485642654" x2="46.41600036621094" y2="164.28461485642654" style="visibility: inherit;" fill="rgb(0, 0, 0)" stroke="rgb(204, 204, 204)" stroke-width="1px"></line><line x1="51.41600036621094" y1="150.59423028505765" x2="46.41600036621094" y2="150.59423028505765" style="visibility: inherit;" fill="rgb(0, 0, 0)" stroke="rgb(204, 204, 204)" stroke-width="1px"></line><line x1="51.41600036621094" y1="136.90384571368878" x2="46.41600036621094" y2="136.90384571368878" style="visibility: inherit;" fill="rgb(0, 0, 0)" stroke="rgb(204, 204, 204)" stroke-width="1px"></line><line x1="51.41600036621094" y1="123.21346114231989" x2="46.41600036621094" y2="123.21346114231989" style="visibility: inherit;" fill="rgb(0, 0, 0)" stroke="rgb(204, 204, 204)" stroke-width="1px"></line><line x1="51.41600036621094" y1="109.52307657095103" x2="46.41600036621094" y2="109.52307657095103" style="visibility: inherit;" fill="rgb(0, 0, 0)" stroke="rgb(204, 204, 204)" stroke-width="1px"></line><line x1="51.41600036621094" y1="95.83269199958215" x2="46.41600036621094" y2="95.83269199958215" style="visibility: inherit;" fill="rgb(0, 0, 0)" stroke="rgb(204, 204, 204)" stroke-width="1px"></line><line x1="51.41600036621094" y1="82.14230742821327" x2="46.41600036621094" y2="82.14230742821327" style="visibility: inherit;" fill="rgb(0, 0, 0)" stroke="rgb(204, 204, 204)" stroke-width="1px"></line><line x1="51.41600036621094" y1="68.4519228568444" x2="46.41600036621094" y2="68.4519228568444" style="visibility: inherit;" fill="rgb(0, 0, 0)" stroke="rgb(204, 204, 204)" stroke-width="1px"></line><line x1="51.41600036621094" y1="54.76153828547551" x2="46.41600036621094" y2="54.76153828547551" style="visibility: inherit;" fill="rgb(0, 0, 0)" stroke="rgb(204, 204, 204)" stroke-width="1px"></line><line x1="51.41600036621094" y1="41.07115371410666" x2="46.41600036621094" y2="41.07115371410666" style="visibility: inherit;" fill="rgb(0, 0, 0)" stroke="rgb(204, 204, 204)" stroke-width="1px"></line><line x1="51.41600036621094" y1="27.380769142737762" x2="46.41600036621094" y2="27.380769142737762" style="visibility: inherit;" fill="rgb(0, 0, 0)" stroke="rgb(204, 204, 204)" stroke-width="1px"></line><line x1="51.41600036621094" y1="13.690384571368867" x2="46.41600036621094" y2="13.690384571368867" style="visibility: inherit;" fill="rgb(0, 0, 0)" stroke="rgb(204, 204, 204)" stroke-width="1px"></line><line x1="51.41600036621094" y1="0" x2="46.41600036621094" y2="0" style="visibility: inherit;" fill="rgb(0, 0, 0)" stroke="rgb(204, 204, 204)" stroke-width="1px"></line></g><g transform="translate(41.41600036621094, 0)"><text style="text-anchor: end; visibility: hidden; font-family: &quot;Helvetica Neue&quot;, sans-serif; font-size: 12px; font-weight: 200;" x="0" y="177.9749994277954" dx="0em" dy="0.3em" fill="rgb(50, 49, 63)" stroke="none" stroke-width="1px">-0.2</text><text style="text-anchor: end; visibility: inherit; font-family: &quot;Helvetica Neue&quot;, sans-serif; font-size: 12px; font-weight: 200;" x="0" y="164.28461485642654" dx="0em" dy="0.3em" fill="rgb(50, 49, 63)" stroke="none" stroke-width="1px">0</text><text style="text-anchor: end; visibility: hidden; font-family: &quot;Helvetica Neue&quot;, sans-serif; font-size: 12px; font-weight: 200;" x="0" y="150.59423028505765" dx="0em" dy="0.3em" fill="rgb(50, 49, 63)" stroke="none" stroke-width="1px">0.2</text><text style="text-anchor: end; visibility: inherit; font-family: &quot;Helvetica Neue&quot;, sans-serif; font-size: 12px; font-weight: 200;" x="0" y="136.90384571368878" dx="0em" dy="0.3em" fill="rgb(50, 49, 63)" stroke="none" stroke-width="1px">0.4</text><text style="text-anchor: end; visibility: hidden; font-family: &quot;Helvetica Neue&quot;, sans-serif; font-size: 12px; font-weight: 200;" x="0" y="123.21346114231989" dx="0em" dy="0.3em" fill="rgb(50, 49, 63)" stroke="none" stroke-width="1px">0.6</text><text style="text-anchor: end; visibility: inherit; font-family: &quot;Helvetica Neue&quot;, sans-serif; font-size: 12px; font-weight: 200;" x="0" y="109.52307657095103" dx="0em" dy="0.3em" fill="rgb(50, 49, 63)" stroke="none" stroke-width="1px">0.8</text><text style="text-anchor: end; visibility: hidden; font-family: &quot;Helvetica Neue&quot;, sans-serif; font-size: 12px; font-weight: 200;" x="0" y="95.83269199958215" dx="0em" dy="0.3em" fill="rgb(50, 49, 63)" stroke="none" stroke-width="1px">1</text><text style="text-anchor: end; visibility: inherit; font-family: &quot;Helvetica Neue&quot;, sans-serif; font-size: 12px; font-weight: 200;" x="0" y="82.14230742821327" dx="0em" dy="0.3em" fill="rgb(50, 49, 63)" stroke="none" stroke-width="1px">1.2</text><text style="text-anchor: end; visibility: hidden; font-family: &quot;Helvetica Neue&quot;, sans-serif; font-size: 12px; font-weight: 200;" x="0" y="68.4519228568444" dx="0em" dy="0.3em" fill="rgb(50, 49, 63)" stroke="none" stroke-width="1px">1.4</text><text style="text-anchor: end; visibility: inherit; font-family: &quot;Helvetica Neue&quot;, sans-serif; font-size: 12px; font-weight: 200;" x="0" y="54.76153828547551" dx="0em" dy="0.3em" fill="rgb(50, 49, 63)" stroke="none" stroke-width="1px">1.6</text><text style="text-anchor: end; visibility: hidden; font-family: &quot;Helvetica Neue&quot;, sans-serif; font-size: 12px; font-weight: 200;" x="0" y="41.07115371410666" dx="0em" dy="0.3em" fill="rgb(50, 49, 63)" stroke="none" stroke-width="1px">1.8</text><text style="text-anchor: end; visibility: inherit; font-family: &quot;Helvetica Neue&quot;, sans-serif; font-size: 12px; font-weight: 200;" x="0" y="27.380769142737762" dx="0em" dy="0.3em" fill="rgb(50, 49, 63)" stroke="none" stroke-width="1px">2</text><text style="text-anchor: end; visibility: hidden; font-family: &quot;Helvetica Neue&quot;, sans-serif; font-size: 12px; font-weight: 200;" x="0" y="13.690384571368867" dx="0em" dy="0.3em" fill="rgb(50, 49, 63)" stroke="none" stroke-width="1px">2.2</text><text style="text-anchor: end; visibility: hidden; font-family: &quot;Helvetica Neue&quot;, sans-serif; font-size: 12px; font-weight: 200;" x="0" y="0" dx="0em" dy="0.3em" fill="rgb(50, 49, 63)" stroke="none" stroke-width="1px">2.4</text></g><line x1="51.41600036621094" y1="0" x2="51.41600036621094" y2="177.9749994277954" fill="rgb(0, 0, 0)" stroke="rgb(204, 204, 204)" stroke-width="1px"></line></g></g><g transform="translate(51, 0)" clip-path="url(#clip_0)"><clipPath id="clip_0"><rect width="278" height="177"></rect></clipPath><g><g><g><line x1="0" y1="0" x2="0" y2="177.9749994277954" fill="rgb(0, 0, 0)" stroke="rgb(60, 60, 60)" stroke-width="1px" opacity="0.25"></line><line x1="23.215333302815754" y1="0" x2="23.215333302815754" y2="177.9749994277954" fill="rgb(0, 0, 0)" stroke="rgb(60, 60, 60)" stroke-width="1px" opacity="0.25"></line><line x1="46.43066660563151" y1="0" x2="46.43066660563151" y2="177.9749994277954" fill="rgb(0, 0, 0)" stroke="rgb(60, 60, 60)" stroke-width="1px" opacity="0.25"></line><line x1="69.64599990844727" y1="0" x2="69.64599990844727" y2="177.9749994277954" fill="rgb(0, 0, 0)" stroke="rgb(60, 60, 60)" stroke-width="1px" opacity="0.25"></line><line x1="92.86133321126302" y1="0" x2="92.86133321126302" y2="177.9749994277954" fill="rgb(0, 0, 0)" stroke="rgb(60, 60, 60)" stroke-width="1px" opacity="0.25"></line><line x1="116.07666651407878" y1="0" x2="116.07666651407878" y2="177.9749994277954" fill="rgb(0, 0, 0)" stroke="rgb(60, 60, 60)" stroke-width="1px" opacity="0.25"></line><line x1="139.29199981689453" y1="0" x2="139.29199981689453" y2="177.9749994277954" fill="rgb(0, 0, 0)" stroke="rgb(60, 60, 60)" stroke-width="1px" opacity="0.25"></line><line x1="162.5073331197103" y1="0" x2="162.5073331197103" y2="177.9749994277954" fill="rgb(0, 0, 0)" stroke="rgb(60, 60, 60)" stroke-width="1px" opacity="0.25"></line><line x1="185.72266642252603" y1="0" x2="185.72266642252603" y2="177.9749994277954" fill="rgb(0, 0, 0)" stroke="rgb(60, 60, 60)" stroke-width="1px" opacity="0.25"></line><line x1="208.9379997253418" y1="0" x2="208.9379997253418" y2="177.9749994277954" fill="rgb(0, 0, 0)" stroke="rgb(60, 60, 60)" stroke-width="1px" opacity="0.25"></line><line x1="232.15333302815756" y1="0" x2="232.15333302815756" y2="177.9749994277954" fill="rgb(0, 0, 0)" stroke="rgb(60, 60, 60)" stroke-width="1px" opacity="0.25"></line><line x1="255.3686663309733" y1="0" x2="255.3686663309733" y2="177.9749994277954" fill="rgb(0, 0, 0)" stroke="rgb(60, 60, 60)" stroke-width="1px" opacity="0.25"></line><line x1="278.58399963378906" y1="0" x2="278.58399963378906" y2="177.9749994277954" fill="rgb(0, 0, 0)" stroke="rgb(60, 60, 60)" stroke-width="1px" opacity="0.25"></line></g><g><line x1="0" y1="177.9749994277954" x2="278.58399963378906" y2="177.9749994277954" fill="rgb(0, 0, 0)" stroke="rgb(60, 60, 60)" stroke-width="1px" opacity="0.25"></line><line x1="0" y1="164.28461485642654" x2="278.58399963378906" y2="164.28461485642654" fill="rgb(0, 0, 0)" stroke="rgb(60, 60, 60)" stroke-width="1px" opacity="0.25"></line><line x1="0" y1="150.59423028505765" x2="278.58399963378906" y2="150.59423028505765" fill="rgb(0, 0, 0)" stroke="rgb(60, 60, 60)" stroke-width="1px" opacity="0.25"></line><line x1="0" y1="136.90384571368878" x2="278.58399963378906" y2="136.90384571368878" fill="rgb(0, 0, 0)" stroke="rgb(60, 60, 60)" stroke-width="1px" opacity="0.25"></line><line x1="0" y1="123.21346114231989" x2="278.58399963378906" y2="123.21346114231989" fill="rgb(0, 0, 0)" stroke="rgb(60, 60, 60)" stroke-width="1px" opacity="0.25"></line><line x1="0" y1="109.52307657095103" x2="278.58399963378906" y2="109.52307657095103" fill="rgb(0, 0, 0)" stroke="rgb(60, 60, 60)" stroke-width="1px" opacity="0.25"></line><line x1="0" y1="95.83269199958215" x2="278.58399963378906" y2="95.83269199958215" fill="rgb(0, 0, 0)" stroke="rgb(60, 60, 60)" stroke-width="1px" opacity="0.25"></line><line x1="0" y1="82.14230742821327" x2="278.58399963378906" y2="82.14230742821327" fill="rgb(0, 0, 0)" stroke="rgb(60, 60, 60)" stroke-width="1px" opacity="0.25"></line><line x1="0" y1="68.4519228568444" x2="278.58399963378906" y2="68.4519228568444" fill="rgb(0, 0, 0)" stroke="rgb(60, 60, 60)" stroke-width="1px" opacity="0.25"></line><line x1="0" y1="54.76153828547551" x2="278.58399963378906" y2="54.76153828547551" fill="rgb(0, 0, 0)" stroke="rgb(60, 60, 60)" stroke-width="1px" opacity="0.25"></line><line x1="0" y1="41.07115371410666" x2="278.58399963378906" y2="41.07115371410666" fill="rgb(0, 0, 0)" stroke="rgb(60, 60, 60)" stroke-width="1px" opacity="0.25"></line><line x1="0" y1="27.380769142737762" x2="278.58399963378906" y2="27.380769142737762" fill="rgb(0, 0, 0)" stroke="rgb(60, 60, 60)" stroke-width="1px" opacity="0.25"></line><line x1="0" y1="13.690384571368867" x2="278.58399963378906" y2="13.690384571368867" fill="rgb(0, 0, 0)" stroke="rgb(60, 60, 60)" stroke-width="1px" opacity="0.25"></line><line x1="0" y1="0" x2="278.58399963378906" y2="0" fill="rgb(0, 0, 0)" stroke="rgb(60, 60, 60)" stroke-width="1px" opacity="0.25"></line></g></g></g><g><g><line x1="0" y1="164.28461485642654" x2="278.58399963378906" y2="164.28461485642654" fill="rgb(0, 0, 0)" stroke="rgb(153, 153, 153)" stroke-width="1.5px"></line></g></g><g><g><line x1="23.215333302815754" y1="0" x2="23.215333302815754" y2="177.9749994277954" fill="rgb(0, 0, 0)" stroke="rgb(153, 153, 153)" stroke-width="1.5px"></line></g></g><g><g><g><g><g><path style="fill: none;" stroke="rgb(238, 51, 119)" stroke-width="2px" d="M30.179933293660483,-0.715729345716511L31.34069995880127,2.024009618762449L32.50146662394206,18.63953400634594L33.66223328908285,28.389194930025553L34.82299995422363,35.56416317482004L35.983766619364424,42.90053013823217L37.14453328450521,44.23848544945625L38.305299949646,54.18457642291409L39.46606661478678,58.15487555549933L40.626833279927574,66.27905986503299L41.78759994506836,65.83404037372753L42.94836661020915,68.63792592433587L44.10913327534993,73.49607713136731L45.269899940490724,84.07036563523918L46.43066660563151,86.309237349162L47.5914332707723,83.09581244418888L48.75219993591308,88.82047705085058L49.912966601053874,93.54586334803277L51.07373326619466,92.45409840743883L52.23449993133545,95.99777500564888L53.39526659647624,98.73239758423504L54.556033261617024,104.66365973161977L55.716799926757815,105.51853682138862L56.8775665918986,107.79686264343198L58.03833325703939,106.23042438962771L59.199099922180174,115.19000761807527L60.359866587320965,110.0380640673586L61.52063325246175,112.81764474494997L62.68139991760254,112.370985072521L63.842166582743324,120.4078521775161L65.00293324788412,121.21718364071312L66.1636999130249,121.67218294054626L67.3244665781657,124.48101759489299L68.48523324330647,127.06600424635187L69.64599990844727,121.97987602325594L70.80676657358805,126.97354617560526L71.96753323872885,127.14381084840551L73.12829990386963,122.4973409275695L74.28906656901042,127.62109131519279L75.4498332341512,124.54946455640594L76.610599899292,135.55394360060455L77.77136656443278,136.36366062876715L78.93213322957357,133.3885250726687L80.09289989471435,136.4369954932303L81.25366655985515,130.6596023274894L82.41443322499593,136.66576811954124L83.57519989013672,137.4456803638548L84.7359665552775,138.3544998283353L85.8967332204183,138.5658179898541L87.05749988555908,139.54019369861868L88.21826655069987,139.37604910463753L89.37903321584066,140.07886467604044L90.53979988098145,140.34102233230965L91.70056654612223,142.54221068091692L92.86133321126302,140.61373304448927L94.02209987640381,138.22955025913802L95.1828665415446,142.75127257337778L96.34363320668538,141.76590316302784L97.50439987182617,144.6606249634957L98.66516653696696,141.2962421943704L99.82593320210775,141.61491877853408L100.98669986724853,143.91153751616775L102.14746653238932,148.2185225848551L103.30823319753011,144.9399963614568L104.4689998626709,144.7770696631607L105.62976652781168,144.95856876064653L106.79053319295248,146.34601102920195L107.95129985809326,143.00345450117186L109.11206652323405,142.32814052395577L110.27283318837483,147.0265495137033L111.43359985351563,148.3933507964281L112.59436651865641,146.27280672642027L113.7551331837972,148.8835640097733L114.91589984893798,145.464070950895L116.07666651407878,149.71033973763105L117.23743317921956,148.48502345705958L118.39819984436035,149.47698113225832L119.55896650950113,147.8810379784671L120.71973317464193,148.70187416983092L121.88049983978271,150.59137098423338L123.0412665049235,150.1021165832365L124.2020331700643,147.7055171779744L125.36279983520508,150.85049206139516L126.52356650034586,145.49506507006126L127.68433316548665,148.95457426429832L128.84509983062745,145.88528945567293L130.00586649576823,147.00219568005576L131.16663316090902,151.26075970513944L132.3273998260498,150.24796418157476L133.4881664911906,149.96094268508978L134.6489331563314,153.61315786114363L135.80969982147215,149.528801879646L136.97046648661293,150.98606812744868L138.13123315175375,151.17745523227995L139.29199981689453,151.68091943628164L140.45276648203532,151.18415875861314L141.6135331471761,154.85203113631255L142.77429981231688,153.3837773070033L143.9350664774577,147.48108776759875L145.09583314259848,152.8958672833204L146.25659980773926,153.14471988823684L147.41736647288005,152.24426249144955L148.57813313802083,151.21817925675543L149.73889980316162,149.9657979476196L150.8996664683024,153.91184116781844L152.06043313344318,154.00435023922185L153.221199798584,154.10953399385966L154.38196646372478,155.49155897264703L155.54273312886556,153.86702791067862L156.70349979400635,155.97298120277514L157.86426645914713,153.96103436136644L159.02503312428792,155.33744518785042L160.1857997894287,154.69560192169607L161.3465664545695,156.01344665392054L162.5073331197103,156.18180186212922L163.66809978485108,156.15808910673798L164.82886644999186,155.30912044306243L165.98963311513265,153.87380487795767L167.15039978027343,156.08997109946156L168.31116644541422,156.3589990542118L169.471933110555,154.52616141951012L170.6326997756958,157.67795152070252L171.7934664408366,156.85557255946975L172.95423310597738,157.44994900430964L174.11499977111816,158.00785436944676L175.27576643625895,158.86289160127802L176.43653310139973,157.72394901309383L177.59729976654052,158.69738630977278L178.75806643168133,158.51450050442784L179.9188330968221,158.63327848414258L181.0795997619629,159.9018504617944L182.24036642710368,158.67956311023184L183.40113309224446,158.7946710826814L184.56189975738525,160.3580441970104L185.72266642252603,160.1712933068879L186.88343308766682,160.36912689474198L188.04419975280763,161.63912561576848L189.2049664179484,161.37225524380528L190.3657330830892,161.20314420586243L191.52649974822998,161.2943815758879L192.68726641337076,161.0361616803322L193.84803307851155,162.1800285094346L195.00879974365233,162.4412295208834L196.16956640879314,162.81712986201893L197.33033307393393,162.6470379539437L198.4910997390747,162.86358967536438L199.6518664042155,162.9624437384835L200.81263306935628,163.27007281536888L201.97339973449706,163.44486915153138L203.13416639963785,163.35378682350267L204.29493306477863,163.55463875772932L205.45569972991944,163.5927429422145L206.61646639506023,163.6092452247437L207.777233060201,163.6985922554239L208.9379997253418,163.77432223823322L210.09876639048258,163.81539797598836L211.25953305562336,163.87067522914163L212.42029972076415,163.88479492036095L213.58106638590496,163.92754198151567L214.74183305104575,163.9016221727003L215.90259971618653,163.92801625574873L217.0633663813273,163.97285173004968L218.2241330464681,163.96388173452715L219.38489971160888,163.99827871314307L220.54566637674967,164.02953048125252L221.70643304189045,164.03941926954548L222.86719970703126,164.0363907071038L224.02796637217205,164.0406093061217L225.18873303731283,164.03512963617527L226.3494997024536,164.0598029889378L227.5102663675944,164.04123470167602L228.67103303273518,164.05292540692548L229.83179969787597,164.06213040391205L230.99256636301678,164.07113021888114L232.15333302815756,164.06880755334305L233.31409969329835,164.06371316148352L234.47486635843913,164.07060951811263L235.6356330235799,164.07321628918467L236.7963996887207,164.08620070578303L237.95716635386148,164.072116093453L239.11793301900227,164.0778041967088L240.27869968414308,164.09114676541972L241.43946634928386,164.07901566949857L242.60023301442465,164.07746177511132L243.76099967956543,164.09433682462875L244.9217663447062,164.09103381490254L246.082533009847,164.08234547050733L247.24329967498778,164.0926719878752L248.4040663401286,164.0774647713999L249.56483300526938,164.0842904124308L250.72559967041016,164.0869568542713L251.88636633555095,164.0862658431844L253.04713300069173,164.08390118179298L254.2078996658325,164.0999210777971" fill="none"></path></g><g><path style="fill: none;" stroke="rgb(204, 51, 17)" stroke-width="2px" d="M31.34069995880127,-1.4719262846059848L32.50146662394206,11.409174968185937L33.66223328908285,19.73563196274381L34.82299995422363,24.728310662324446L35.983766619364424,32.339338603033184L37.14453328450521,31.125221046687585L38.305299949646,41.11957904176549L39.46606661478678,41.08588596784L40.626833279927574,48.817854826119515L41.78759994506836,45.734795760098564L42.94836661020915,49.36117910347011L44.10913327534993,48.8410621650016L45.269899940490724,59.922313517933404L46.43066660563151,59.45734256967765L47.5914332707723,56.01258684544719L48.75219993591308,57.57645466614741L49.912966601053874,63.73395572721199L51.07373326619466,61.08115452238481L52.23449993133545,61.32213874596616L53.39526659647624,62.62598481790505L54.556033261617024,66.93271692333451L55.716799926757815,68.953452707934L56.8775665918986,66.91910586804082L58.03833325703939,63.76951746520356L59.199099922180174,70.01789761667942L60.359866587320965,64.79104838126938L61.52063325246175,66.65815386729898L62.68139991760254,58.98454608063852L63.842166582743324,69.15854062921498L65.00293324788412,68.80508567714855L66.1636999130249,67.52120738237015L67.3244665781657,68.03477991655474L68.48523324330647,70.06809858320631L69.64599990844727,61.28799686626061L70.80676657358805,60.403751558265114L71.96753323872885,64.4079069668777L73.12829990386963,60.62884805723206L74.28906656901042,60.60236035610295L75.4498332341512,55.480678555120534L76.610599899292,66.76346818361826L77.77136656443278,67.40540733100745L78.93213322957357,62.471636430087045L80.09289989471435,66.81745543890791L81.25366655985515,61.638049054503625L82.41443322499593,65.85194364429971L83.57519989013672,64.10278431727204L84.7359665552775,67.26453943680167L85.8967332204183,65.33680436993743L87.05749988555908,61.740613415406855L88.21826655069987,61.010594093653L89.37903321584066,59.93428439210359L90.53979988098145,60.73770385916134L91.70056654612223,64.90958206783795L92.86133321126302,60.494459286469464L94.02209987640381,57.77547146923985L95.1828665415446,59.26114100284201L96.34363320668538,61.19531439262397L97.50439987182617,66.75444310738634L98.66516653696696,60.57181708274304L99.82593320210775,57.14070505422663L100.98669986724853,59.05594700019482L102.14746653238932,66.88864419573183L103.30823319753011,60.1737508361378L104.4689998626709,59.59460369743269L105.62976652781168,60.30445939950384L106.79053319295248,59.53651190928167L107.95129985809326,55.93243013312701L109.11206652323405,55.61390859096005L110.27283318837483,63.40916722433427L111.43359985351563,60.356063904106605L112.59436651865641,59.4483501338661L113.7551331837972,64.2669656317261L114.91589984893798,56.91640824555873L116.07666651407878,64.43459051052902L117.23743317921956,63.284113613797075L118.39819984436035,62.93771715263533L119.55896650950113,59.93659370184467L120.71973317464193,64.32293579255315L121.88049983978271,63.83638136632865L123.0412665049235,62.67204861115023L124.2020331700643,56.481760247825406L125.36279983520508,65.38015900829201L126.52356650034586,55.956616684620144L127.68433316548665,62.38835439751658L128.84509983062745,54.33217640382088L130.00586649576823,54.80565834168776L131.16663316090902,64.35913401874193L132.3273998260498,62.25452051390023L133.4881664911906,62.50454613392368L134.6489331563314,66.2989134007222L135.80969982147215,56.92582500683508L136.97046648661293,63.34243388489065L138.13123315175375,62.03268805697016L139.29199981689453,60.23677132776447L140.45276648203532,57.64941416577632L141.6135331471761,64.52028793420678L142.77429981231688,65.00761757041502L143.9350664774577,53.58933755696725L145.09583314259848,63.57126771198982L146.25659980773926,64.32646911805804L147.41736647288005,63.22432452378689L148.57813313802083,59.85076571648543L149.73889980316162,57.60606768752682L150.8996664683024,65.11638361118828L152.06043313344318,64.0206283792043L153.221199798584,63.89321649829547L154.38196646372478,64.53225064827187L155.54273312886556,63.061114261838824L156.70349979400635,65.80088586673814L157.86426645914713,62.96966396407109L159.02503312428792,62.22447500695094L160.1857997894287,63.018159468633755L161.3465664545695,65.6267165836513L162.5073331197103,65.90132860031738L163.66809978485108,65.96676448305134L164.82886644999186,60.14949900380394L165.98963311513265,62.2332307997148L167.15039978027343,66.53955489988968L168.31116644541422,64.87983032467196L169.471933110555,63.4066375917557L170.6326997756958,67.16925388964064L171.7934664408366,64.50422068728032L172.95423310597738,67.30499723784854L174.11499977111816,66.86200145260594L175.27576643625895,67.0839726313226L176.43653310139973,68.19329811807484L177.59729976654052,69.54619458172265L178.75806643168133,67.26737915337374L179.9188330968221,68.18082947749403L181.0795997619629,70.34051553160262L182.24036642710368,65.8385284315282L183.40113309224446,66.20906248355254L184.56189975738525,70.87735252540494L185.72266642252603,69.79542051144706L186.88343308766682,67.98667609703651L188.04419975280763,73.4648076086542L189.2049664179484,76.03244995673973L190.3657330830892,72.81376178398216L191.52649974822998,72.497435310085L192.68726641337076,73.21674857395796L193.84803307851155,74.79877262848822L195.00879974365233,78.44261043665185L196.16956640879314,79.27305617177478L197.33033307393393,77.90573264232407L198.4910997390747,79.10486008561541L199.6518664042155,78.64924877790035L200.81263306935628,82.6093396190153L201.97339973449706,81.52889274418419L203.13416639963785,82.43601898685804L204.29493306477863,82.32582492769367L205.45569972991944,83.895723066057L206.61646639506023,83.39210586008483L207.777233060201,84.4852743387546L208.9379997253418,85.5088779215138L210.09876639048258,86.28057089997328L211.25953305562336,86.37426522664134L212.42029972076415,86.17614603510906L213.58106638590496,87.25441416188056L214.74183305104575,87.71719004186654L215.90259971618653,88.20905669650601L217.0633663813273,88.86741397534061L218.2241330464681,88.56021049893648L219.38489971160888,90.09329840322913L220.54566637674967,90.41112633646324L221.70643304189045,90.24386866238946L222.86719970703126,90.33054529867826L224.02796637217205,90.33252004411057L225.18873303731283,91.26600342623207L226.3494997024536,91.4729273711588L227.5102663675944,91.30087971539594L228.67103303273518,91.4951799777451L229.83179969787597,92.1420967892405L230.99256636301678,91.74044009639474L232.15333302815756,92.02609273525051L233.31409969329835,91.7663647502725L234.47486635843913,92.18948251951062L235.6356330235799,92.32554411181711L236.7963996887207,92.1201705868579L237.95716635386148,92.38669593937769L239.11793301900227,92.5386289360884L240.27869968414308,92.00042104463061L241.43946634928386,92.56375389966713L242.60023301442465,92.59212658507253L243.76099967956543,92.69651064941131L244.9217663447062,92.59023344069116L246.082533009847,92.27744845240399L247.24329967498778,92.30605778085706L248.4040663401286,92.82642768258341L249.56483300526938,92.66675890624533L250.72559967041016,92.58095540120138L251.88636633555095,92.7246874922945L253.04713300069173,92.3550836922507L254.2078996658325,92.87785266487415" fill="none"></path></g></g></g></g></g></g><g transform="translate(51, 177)" clip-path="url(#clip_1)"><clipPath id="clip_1"><rect width="278" height="22"></rect></clipPath><g><g><line x1="0" y1="0" x2="0" y2="5" style="visibility: inherit;" fill="rgb(0, 0, 0)" stroke="rgb(204, 204, 204)" stroke-width="1px"></line><line x1="23.215333302815754" y1="0" x2="23.215333302815754" y2="5" style="visibility: inherit;" fill="rgb(0, 0, 0)" stroke="rgb(204, 204, 204)" stroke-width="1px"></line><line x1="46.43066660563151" y1="0" x2="46.43066660563151" y2="5" style="visibility: inherit;" fill="rgb(0, 0, 0)" stroke="rgb(204, 204, 204)" stroke-width="1px"></line><line x1="69.64599990844727" y1="0" x2="69.64599990844727" y2="5" style="visibility: inherit;" fill="rgb(0, 0, 0)" stroke="rgb(204, 204, 204)" stroke-width="1px"></line><line x1="92.86133321126302" y1="0" x2="92.86133321126302" y2="5" style="visibility: inherit;" fill="rgb(0, 0, 0)" stroke="rgb(204, 204, 204)" stroke-width="1px"></line><line x1="116.07666651407878" y1="0" x2="116.07666651407878" y2="5" style="visibility: inherit;" fill="rgb(0, 0, 0)" stroke="rgb(204, 204, 204)" stroke-width="1px"></line><line x1="139.29199981689453" y1="0" x2="139.29199981689453" y2="5" style="visibility: inherit;" fill="rgb(0, 0, 0)" stroke="rgb(204, 204, 204)" stroke-width="1px"></line><line x1="162.5073331197103" y1="0" x2="162.5073331197103" y2="5" style="visibility: inherit;" fill="rgb(0, 0, 0)" stroke="rgb(204, 204, 204)" stroke-width="1px"></line><line x1="185.72266642252603" y1="0" x2="185.72266642252603" y2="5" style="visibility: inherit;" fill="rgb(0, 0, 0)" stroke="rgb(204, 204, 204)" stroke-width="1px"></line><line x1="208.9379997253418" y1="0" x2="208.9379997253418" y2="5" style="visibility: inherit;" fill="rgb(0, 0, 0)" stroke="rgb(204, 204, 204)" stroke-width="1px"></line><line x1="232.15333302815756" y1="0" x2="232.15333302815756" y2="5" style="visibility: inherit;" fill="rgb(0, 0, 0)" stroke="rgb(204, 204, 204)" stroke-width="1px"></line><line x1="255.3686663309733" y1="0" x2="255.3686663309733" y2="5" style="visibility: inherit;" fill="rgb(0, 0, 0)" stroke="rgb(204, 204, 204)" stroke-width="1px"></line><line x1="278.58399963378906" y1="0" x2="278.58399963378906" y2="5" style="visibility: inherit;" fill="rgb(0, 0, 0)" stroke="rgb(204, 204, 204)" stroke-width="1px"></line></g><g transform="translate(0, 8)"><text style="text-anchor: middle; visibility: hidden; font-family: &quot;Helvetica Neue&quot;, sans-serif; font-size: 12px; font-weight: 200;" x="0" y="0" dx="0em" dy="0.95em" fill="rgb(50, 49, 63)" stroke="none" stroke-width="1px">-20</text><text style="text-anchor: middle; visibility: inherit; font-family: &quot;Helvetica Neue&quot;, sans-serif; font-size: 12px; font-weight: 200;" x="23.215333302815754" y="0" dx="0em" dy="0.95em" fill="rgb(50, 49, 63)" stroke="none" stroke-width="1px">0</text><text style="text-anchor: middle; visibility: hidden; font-family: &quot;Helvetica Neue&quot;, sans-serif; font-size: 12px; font-weight: 200;" x="46.43066660563151" y="0" dx="0em" dy="0.95em" fill="rgb(50, 49, 63)" stroke="none" stroke-width="1px">20</text><text style="text-anchor: middle; visibility: inherit; font-family: &quot;Helvetica Neue&quot;, sans-serif; font-size: 12px; font-weight: 200;" x="69.64599990844727" y="0" dx="0em" dy="0.95em" fill="rgb(50, 49, 63)" stroke="none" stroke-width="1px">40</text><text style="text-anchor: middle; visibility: hidden; font-family: &quot;Helvetica Neue&quot;, sans-serif; font-size: 12px; font-weight: 200;" x="92.86133321126302" y="0" dx="0em" dy="0.95em" fill="rgb(50, 49, 63)" stroke="none" stroke-width="1px">60</text><text style="text-anchor: middle; visibility: inherit; font-family: &quot;Helvetica Neue&quot;, sans-serif; font-size: 12px; font-weight: 200;" x="116.07666651407878" y="0" dx="0em" dy="0.95em" fill="rgb(50, 49, 63)" stroke="none" stroke-width="1px">80</text><text style="text-anchor: middle; visibility: hidden; font-family: &quot;Helvetica Neue&quot;, sans-serif; font-size: 12px; font-weight: 200;" x="139.29199981689453" y="0" dx="0em" dy="0.95em" fill="rgb(50, 49, 63)" stroke="none" stroke-width="1px">100</text><text style="text-anchor: middle; visibility: inherit; font-family: &quot;Helvetica Neue&quot;, sans-serif; font-size: 12px; font-weight: 200;" x="162.5073331197103" y="0" dx="0em" dy="0.95em" fill="rgb(50, 49, 63)" stroke="none" stroke-width="1px">120</text><text style="text-anchor: middle; visibility: hidden; font-family: &quot;Helvetica Neue&quot;, sans-serif; font-size: 12px; font-weight: 200;" x="185.72266642252603" y="0" dx="0em" dy="0.95em" fill="rgb(50, 49, 63)" stroke="none" stroke-width="1px">140</text><text style="text-anchor: middle; visibility: inherit; font-family: &quot;Helvetica Neue&quot;, sans-serif; font-size: 12px; font-weight: 200;" x="208.9379997253418" y="0" dx="0em" dy="0.95em" fill="rgb(50, 49, 63)" stroke="none" stroke-width="1px">160</text><text style="text-anchor: middle; visibility: hidden; font-family: &quot;Helvetica Neue&quot;, sans-serif; font-size: 12px; font-weight: 200;" x="232.15333302815756" y="0" dx="0em" dy="0.95em" fill="rgb(50, 49, 63)" stroke="none" stroke-width="1px">180</text><text style="text-anchor: middle; visibility: inherit; font-family: &quot;Helvetica Neue&quot;, sans-serif; font-size: 12px; font-weight: 200;" x="255.3686663309733" y="0" dx="0em" dy="0.95em" fill="rgb(50, 49, 63)" stroke="none" stroke-width="1px">200</text><text style="text-anchor: middle; visibility: hidden; font-family: &quot;Helvetica Neue&quot;, sans-serif; font-size: 12px; font-weight: 200;" x="278.58399963378906" y="0" dx="0em" dy="0.95em" fill="rgb(50, 49, 63)" stroke="none" stroke-width="1px">220</text></g><line x1="0" y1="0" x2="278.58399963378906" y2="0" fill="rgb(0, 0, 0)" stroke="rgb(204, 204, 204)" stroke-width="1px"></line></g></g></g></g></svg>