<svg viewBox="0 0 330 200" xmlns="http://www.w3.org/2000/svg"><g><g><g><g><g><line x1="41.0620002746582" y1="177.9749994277954" x2="36.0620002746582" y2="177.9749994277954" style="visibility: inherit;" fill="rgb(0, 0, 0)" stroke="rgb(204, 204, 204)" stroke-width="1px"></line><line x1="41.0620002746582" y1="164.28461485642654" x2="36.0620002746582" y2="164.28461485642654" style="visibility: inherit;" fill="rgb(0, 0, 0)" stroke="rgb(204, 204, 204)" stroke-width="1px"></line><line x1="41.0620002746582" y1="150.59423028505768" x2="36.0620002746582" y2="150.59423028505768" style="visibility: inherit;" fill="rgb(0, 0, 0)" stroke="rgb(204, 204, 204)" stroke-width="1px"></line><line x1="41.0620002746582" y1="136.90384571368878" x2="36.0620002746582" y2="136.90384571368878" style="visibility: inherit;" fill="rgb(0, 0, 0)" stroke="rgb(204, 204, 204)" stroke-width="1px"></line><line x1="41.0620002746582" y1="123.21346114231991" x2="36.0620002746582" y2="123.21346114231991" style="visibility: inherit;" fill="rgb(0, 0, 0)" stroke="rgb(204, 204, 204)" stroke-width="1px"></line><line x1="41.0620002746582" y1="109.52307657095103" x2="36.0620002746582" y2="109.52307657095103" style="visibility: inherit;" fill="rgb(0, 0, 0)" stroke="rgb(204, 204, 204)" stroke-width="1px"></line><line x1="41.0620002746582" y1="95.83269199958217" x2="36.0620002746582" y2="95.83269199958217" style="visibility: inherit;" fill="rgb(0, 0, 0)" stroke="rgb(204, 204, 204)" stroke-width="1px"></line><line x1="41.0620002746582" y1="82.14230742821327" x2="36.0620002746582" y2="82.14230742821327" style="visibility: inherit;" fill="rgb(0, 0, 0)" stroke="rgb(204, 204, 204)" stroke-width="1px"></line><line x1="41.0620002746582" y1="68.45192285684438" x2="36.0620002746582" y2="68.45192285684438" style="visibility: inherit;" fill="rgb(0, 0, 0)" stroke="rgb(204, 204, 204)" stroke-width="1px"></line><line x1="41.0620002746582" y1="54.76153828547554" x2="36.0620002746582" y2="54.76153828547554" style="visibility: inherit;" fill="rgb(0, 0, 0)" stroke="rgb(204, 204, 204)" stroke-width="1px"></line><line x1="41.0620002746582" y1="41.07115371410666" x2="36.0620002746582" y2="41.07115371410666" style="visibility: inherit;" fill="rgb(0, 0, 0)" stroke="rgb(204, 204, 204)" stroke-width="1px"></line><line x1="41.0620002746582" y1="27.38076914273779" x2="36.0620002746582" y2="27.38076914273779" style="visibility: inherit;" fill="rgb(0, 0, 0)" stroke="rgb(204, 204, 204)" stroke-width="1px"></line><line x1="41.0620002746582" y1="13.690384571368895" x2="36.0620002746582" y2="13.690384571368895" style="visibility: inherit;" fill="rgb(0, 0, 0)" stroke="rgb(204, 204, 204)" stroke-width="1px"></line><line x1="41.0620002746582" y1="0" x2="36.0620002746582" y2="0" style="visibility: inherit;" fill="rgb(0, 0, 0)" stroke="rgb(204, 204, 204)" stroke-width="1px"></line></g><g transform="translate(31.062000274658203, 0)"><text style="text-anchor: end; visibility: hidden; font-family: &quot;Helvetica Neue&quot;, sans-serif; font-size: 12px; font-weight: 200;" x="0" y="177.9749994277954" dx="0em" dy="0.3em" fill="rgb(50, 49, 63)" stroke="none" stroke-width="1px">1.6</text><text style="text-anchor: end; visibility: inherit; font-family: &quot;Helvetica Neue&quot;, sans-serif; font-size: 12px; font-weight: 200;" x="0" y="164.28461485642654" dx="0em" dy="0.3em" fill="rgb(50, 49, 63)" stroke="none" stroke-width="1px">1.8</text><text style="text-anchor: end; visibility: hidden; font-family: &quot;Helvetica Neue&quot;, sans-serif; font-size: 12px; font-weight: 200;" x="0" y="150.59423028505768" dx="0em" dy="0.3em" fill="rgb(50, 49, 63)" stroke="none" stroke-width="1px">2</text><text style="text-anchor: end; visibility: inherit; font-family: &quot;Helvetica Neue&quot;, sans-serif; font-size: 12px; font-weight: 200;" x="0" y="136.90384571368878" dx="0em" dy="0.3em" fill="rgb(50, 49, 63)" stroke="none" stroke-width="1px">2.2</text><text style="text-anchor: end; visibility: hidden; font-family: &quot;Helvetica Neue&quot;, sans-serif; font-size: 12px; font-weight: 200;" x="0" y="123.21346114231991" dx="0em" dy="0.3em" fill="rgb(50, 49, 63)" stroke="none" stroke-width="1px">2.4</text><text style="text-anchor: end; visibility: inherit; font-family: &quot;Helvetica Neue&quot;, sans-serif; font-size: 12px; font-weight: 200;" x="0" y="109.52307657095103" dx="0em" dy="0.3em" fill="rgb(50, 49, 63)" stroke="none" stroke-width="1px">2.6</text><text style="text-anchor: end; visibility: hidden; font-family: &quot;Helvetica Neue&quot;, sans-serif; font-size: 12px; font-weight: 200;" x="0" y="95.83269199958217" dx="0em" dy="0.3em" fill="rgb(50, 49, 63)" stroke="none" stroke-width="1px">2.8</text><text style="text-anchor: end; visibility: inherit; font-family: &quot;Helvetica Neue&quot;, sans-serif; font-size: 12px; font-weight: 200;" x="0" y="82.14230742821327" dx="0em" dy="0.3em" fill="rgb(50, 49, 63)" stroke="none" stroke-width="1px">3</text><text style="text-anchor: end; visibility: hidden; font-family: &quot;Helvetica Neue&quot;, sans-serif; font-size: 12px; font-weight: 200;" x="0" y="68.45192285684438" dx="0em" dy="0.3em" fill="rgb(50, 49, 63)" stroke="none" stroke-width="1px">3.2</text><text style="text-anchor: end; visibility: inherit; font-family: &quot;Helvetica Neue&quot;, sans-serif; font-size: 12px; font-weight: 200;" x="0" y="54.76153828547554" dx="0em" dy="0.3em" fill="rgb(50, 49, 63)" stroke="none" stroke-width="1px">3.4</text><text style="text-anchor: end; visibility: hidden; font-family: &quot;Helvetica Neue&quot;, sans-serif; font-size: 12px; font-weight: 200;" x="0" y="41.07115371410666" dx="0em" dy="0.3em" fill="rgb(50, 49, 63)" stroke="none" stroke-width="1px">3.6</text><text style="text-anchor: end; visibility: inherit; font-family: &quot;Helvetica Neue&quot;, sans-serif; font-size: 12px; font-weight: 200;" x="0" y="27.38076914273779" dx="0em" dy="0.3em" fill="rgb(50, 49, 63)" stroke="none" stroke-width="1px">3.8</text><text style="text-anchor: end; visibility: hidden; font-family: &quot;Helvetica Neue&quot;, sans-serif; font-size: 12px; font-weight: 200;" x="0" y="13.690384571368895" dx="0em" dy="0.3em" fill="rgb(50, 49, 63)" stroke="none" stroke-width="1px">4</text><text style="text-anchor: end; visibility: hidden; font-family: &quot;Helvetica Neue&quot;, sans-serif; font-size: 12px; font-weight: 200;" x="0" y="0" dx="0em" dy="0.3em" fill="rgb(50, 49, 63)" stroke="none" stroke-width="1px">4.2</text></g><line x1="41.0620002746582" y1="0" x2="41.0620002746582" y2="177.9749994277954" fill="rgb(0, 0, 0)" stroke="rgb(204, 204, 204)" stroke-width="1px"></line></g></g><g transform="translate(41, 0)" clip-path="url(#clip_0)"><clipPath id="clip_0"><rect width="288" height="177"></rect></clipPath><g><g><g><line x1="0" y1="0" x2="0" y2="177.9749994277954" fill="rgb(0, 0, 0)" stroke="rgb(60, 60, 60)" stroke-width="1px" opacity="0.25"></line><line x1="28.893799972534183" y1="0" x2="28.893799972534183" y2="177.9749994277954" fill="rgb(0, 0, 0)" stroke="rgb(60, 60, 60)" stroke-width="1px" opacity="0.25"></line><line x1="57.787599945068365" y1="0" x2="57.787599945068365" y2="177.9749994277954" fill="rgb(0, 0, 0)" stroke="rgb(60, 60, 60)" stroke-width="1px" opacity="0.25"></line><line x1="86.68139991760253" y1="0" x2="86.68139991760253" y2="177.9749994277954" fill="rgb(0, 0, 0)" stroke="rgb(60, 60, 60)" stroke-width="1px" opacity="0.25"></line><line x1="115.57519989013673" y1="0" x2="115.57519989013673" y2="177.9749994277954" fill="rgb(0, 0, 0)" stroke="rgb(60, 60, 60)" stroke-width="1px" opacity="0.25"></line><line x1="144.4689998626709" y1="0" x2="144.4689998626709" y2="177.9749994277954" fill="rgb(0, 0, 0)" stroke="rgb(60, 60, 60)" stroke-width="1px" opacity="0.25"></line><line x1="173.36279983520507" y1="0" x2="173.36279983520507" y2="177.9749994277954" fill="rgb(0, 0, 0)" stroke="rgb(60, 60, 60)" stroke-width="1px" opacity="0.25"></line><line x1="202.25659980773924" y1="0" x2="202.25659980773924" y2="177.9749994277954" fill="rgb(0, 0, 0)" stroke="rgb(60, 60, 60)" stroke-width="1px" opacity="0.25"></line><line x1="231.15039978027346" y1="0" x2="231.15039978027346" y2="177.9749994277954" fill="rgb(0, 0, 0)" stroke="rgb(60, 60, 60)" stroke-width="1px" opacity="0.25"></line><line x1="260.04419975280763" y1="0" x2="260.04419975280763" y2="177.9749994277954" fill="rgb(0, 0, 0)" stroke="rgb(60, 60, 60)" stroke-width="1px" opacity="0.25"></line><line x1="288.9379997253418" y1="0" x2="288.9379997253418" y2="177.9749994277954" fill="rgb(0, 0, 0)" stroke="rgb(60, 60, 60)" stroke-width="1px" opacity="0.25"></line></g><g><line x1="0" y1="177.9749994277954" x2="288.9379997253418" y2="177.9749994277954" fill="rgb(0, 0, 0)" stroke="rgb(60, 60, 60)" stroke-width="1px" opacity="0.25"></line><line x1="0" y1="164.28461485642654" x2="288.9379997253418" y2="164.28461485642654" fill="rgb(0, 0, 0)" stroke="rgb(60, 60, 60)" stroke-width="1px" opacity="0.25"></line><line x1="0" y1="150.59423028505768" x2="288.9379997253418" y2="150.59423028505768" fill="rgb(0, 0, 0)" stroke="rgb(60, 60, 60)" stroke-width="1px" opacity="0.25"></line><line x1="0" y1="136.90384571368878" x2="288.9379997253418" y2="136.90384571368878" fill="rgb(0, 0, 0)" stroke="rgb(60, 60, 60)" stroke-width="1px" opacity="0.25"></line><line x1="0" y1="123.21346114231991" x2="288.9379997253418" y2="123.21346114231991" fill="rgb(0, 0, 0)" stroke="rgb(60, 60, 60)" stroke-width="1px" opacity="0.25"></line><line x1="0" y1="109.52307657095103" x2="288.9379997253418" y2="109.52307657095103" fill="rgb(0, 0, 0)" stroke="rgb(60, 60, 60)" stroke-width="1px" opacity="0.25"></line><line x1="0" y1="95.83269199958217" x2="288.9379997253418" y2="95.83269199958217" fill="rgb(0, 0, 0)" stroke="rgb(60, 60, 60)" stroke-width="1px" opacity="0.25"></line><line x1="0" y1="82.14230742821327" x2="288.9379997253418" y2="82.14230742821327" fill="rgb(0, 0, 0)" stroke="rgb(60, 60, 60)" stroke-width="1px" opacity="0.25"></line><line x1="0" y1="68.45192285684438" x2="288.9379997253418" y2="68.45192285684438" fill="rgb(0, 0, 0)" stroke="rgb(60, 60, 60)" stroke-width="1px" opacity="0.25"></line><line x1="0" y1="54.76153828547554" x2="288.9379997253418" y2="54.76153828547554" fill="rgb(0, 0, 0)" stroke="rgb(60, 60, 60)" stroke-width="1px" opacity="0.25"></line><line x1="0" y1="41.07115371410666" x2="288.9379997253418" y2="41.07115371410666" fill="rgb(0, 0, 0)" stroke="rgb(60, 60, 60)" stroke-width="1px" opacity="0.25"></line><line x1="0" y1="27.38076914273779" x2="288.9379997253418" y2="27.38076914273779" fill="rgb(0, 0, 0)" stroke="rgb(60, 60, 60)" stroke-width="1px" opacity="0.25"></line><line x1="0" y1="13.690384571368895" x2="288.9379997253418" y2="13.690384571368895" fill="rgb(0, 0, 0)" stroke="rgb(60, 60, 60)" stroke-width="1px" opacity="0.25"></line><line x1="0" y1="0" x2="288.9379997253418" y2="0" fill="rgb(0, 0, 0)" stroke="rgb(60, 60, 60)" stroke-width="1px" opacity="0.25"></line></g></g></g><g><g><line x1="0" y1="287.49807599874646" x2="288.9379997253418" y2="287.49807599874646" fill="rgb(0, 0, 0)" stroke="rgb(153, 153, 153)" stroke-width="1.5px"></line></g></g><g><g><line x1="28.893799972534183" y1="0" x2="28.893799972534183" y2="177.9749994277954" fill="rgb(0, 0, 0)" stroke="rgb(153, 153, 153)" stroke-width="1.5px"></line></g></g><g><g><g><g><g><path style="fill: none;" stroke="rgb(0, 153, 136)" stroke-width="2px" d="M34.86036966686249,-12.499668564406505L35.13630545660019,0.6243590169786728L35.396349656352996,-9.67640276420434L36.468309635334016,-4.583713816614306L36.84537372497559,7.873241493697861L37.076524124755856,13.395380452077518L37.17765242465973,2.6555723765164885L37.192099324645994,7.829438049563208L37.65584481420517,2.571588574908077L37.85810141401291,5.448188821992574L37.960674403915405,22.808894006591146L38.03290890384674,3.4185422026324375L38.06180270381928,12.415253909249287L38.23516550365448,25.274796164387737L38.37963450351715,5.793295986549765L38.98784899293899,21.487495548599014L39.09042198284149,17.90721679899815L39.20599718273163,25.726245818505788L39.58161658237457,37.07951427468441L39.69863647226333,16.661984761936168L39.756424072208404,15.642412271092468L39.78531787218094,21.180789838605506L39.98757447198867,29.00381730960828L40.016468271961216,18.396806784316908L40.11759657186508,33.88326639093026L40.22016956176758,35.98215966210236L40.306850961685186,20.02053713597317L40.71136416130066,36.80154845482545L41.73998344032288,30.224014144247576L42.20372892988205,29.50270981473213L42.24706962984085,55.11842211370168L42.479664719619755,21.59989283613828L42.609686819496154,45.07398555367328L42.62413371948242,39.51687238486866L42.710815119400024,37.569169540843916L42.797496519317626,42.558339395234924L43.04453850908279,55.527732985123905L43.087879209041596,33.95928592996873L43.217901308918,45.78995317445845L43.91279719825745,40.10905121140593L43.95613789821624,47.881159626633746L44.04281929813385,49.97895944372348L44.12950069805145,56.30082134155411L44.33320198785781,53.09252914268397L44.41988338777542,55.88153882170931L44.49211788770676,48.332282876548135L45.23035447700501,45.05201855076518L45.2895867669487,65.22425530444345L45.30403366693496,49.144686619312324L45.564077866687775,67.7116185386324L45.751887566509254,61.69324726938896L45.92669505634308,63.65338611357414L46.46267504583359,58.46589306502355L46.70827234560013,58.05872014113548L46.98420813533783,55.04271265865674L47.48984963485718,94.08884816501151L47.53319033481598,64.77613497320297L47.72244472463608,65.84210582160063L47.78023232458115,62.7176505424472L48.46068131393433,80.83492803076949L48.56180961383819,67.502687207853L48.86663920354843,84.76202756699688L49.040002003383634,91.5030087825705L49.1844710032463,73.64499415323598L49.60487579284668,79.1163446175221L49.76379169269562,75.04117181429257L49.86636468259811,68.42574197566675L49.95304608251572,78.38332237709433L50.402344672088624,101.50765667016961L50.821304771690365,66.15507849230491L51.039452961483,85.05389820593288L51.27060336126327,93.71451150401425L51.32839096120834,106.6164699854217L51.560986050987246,80.25197012298634L52.053625340518956,109.29889237173339L52.647392929954535,94.23901041891725L52.77741502983093,115.63891866349917L52.864096429748535,86.54936802575071L52.936330929679876,98.74663615161035L53.03745922958374,114.4484409316055L53.167481329460145,104.73850339951447L53.356735719280245,90.86392567196356L53.38562951925278,105.97358426584181L53.42897021921158,101.64260848818357L53.558992319087984,109.1206267158903L54.05163160861969,100.33467420359352L54.38535499830246,112.03655866951893L54.68873989801407,107.36369080870982L54.935781887779235,116.06422334090198L55.06580398765564,105.05054581823825L55.25361368747711,111.41157622051122L55.29695438743591,90.29829982739614L55.41252958732605,94.1240998190096L55.97740337678909,112.14711177330737L56.20999846656799,116.06246075820208L56.35446746643066,111.97251816475574L56.39780816638947,113.51055109273423L56.67374395612717,97.90405634021538L56.904894355907444,113.06863244136379L57.15193634567261,91.1521079433979L57.32529914550781,124.32329418760887L57.57089644527436,113.67757212376034L57.65757784519196,109.94992187619525L58.1791109346962,100.1024865733015L58.222451634654995,111.80929974270258L58.23689853464127,109.49530610130142L58.33947152454376,118.72275293950386L58.39725912448883,104.33253817118003L58.4983874243927,121.90033050280717L59.25107091367722,99.65093899792232L59.35219921358108,111.38911961129762L59.46921910346985,91.29719461193632L59.787050903167724,125.1346371167111L59.84483850311279,118.51155309950886L59.960413703002935,109.69005516943066L60.062986692905426,123.21038641472119L60.1207742928505,130.24234065767067L60.40971229257584,124.82817620987034L60.48194679250717,103.45462510473607L60.49639369249344,107.68887099663198L60.55562598243713,113.62257301543926L60.72898878227234,116.91845578236854L60.772329482231136,125.03469214954245L60.84456398216247,127.41275893612715L61.10605287191391,118.86225809615925L61.337203271694186,135.32509059725845L61.48167227155685,126.16258187537933L61.65503507139206,92.98966568888882L62.01765226104736,107.23766614566667L62.147674360923766,103.86103097874548L62.64031365045547,125.87887134153547L62.65476055044174,126.97567106697127L62.68365435041427,145.59220010504143L63.30631573982239,128.97669203766813L63.408888729724886,132.24084831599913L63.538910829601285,137.23029561396328L63.56780462957382,126.1151063839532L63.64003912950516,123.04308794012195L63.98820941917419,133.68884264439083L64.00265631916047,125.10309015042485L64.14712531902313,137.49505838378315L64.17601911899567,133.0082898797056L64.24825361892701,131.28862933258605L64.45051021873475,145.58940934909992L64.52418940866471,118.27344123291994L64.65421150854111,111.4791582108844L64.87091500833512,126.4487730811712L64.95759640825271,118.02707133997777L65.69727768754959,123.58635509673687L65.94287498731613,124.8808088877147L66.8125783664894,142.4175601795713L66.88481286642075,112.7086738855389L67.07262256624222,139.5986681956985L67.59415565574646,147.4223321548985L67.7964122555542,118.32225498158118L68.28905154508591,137.58787141910125L69.4621398239708,130.2674574611443L69.70918181373597,136.37302761340243L69.79586321365356,139.70546765114455L70.12958660333634,138.70210112901387L70.79558869270325,118.47419613839699L70.91116389259338,133.07027403798554L71.41825008211136,108.25836473101306L71.64940048189163,121.46521737908358L71.69274118185044,132.62283915557282L71.80831638174057,125.55263033995135L71.83865487171173,136.87299725239842L72.2431680713272,134.71819094113494L72.66357286092759,108.26683492009872L73.4595970501709,152.83731261320804L73.53327624010088,143.81727932623784L73.76442663988114,147.40772556678354L74.02447083963395,115.4474173171966L74.0389177396202,134.82800963546507L74.51711012916566,144.78856031514619L74.64857691904068,156.2323896176375L74.69191761899948,123.0911509591147L74.70636451898574,126.68729295301472L74.73525831895829,146.2961234107106L74.74970521894456,120.96976843830865L75.11087771860123,109.04519470441848L75.5746232081604,130.92349727013274L76.13949699762344,127.78500661022082L76.57434868721008,133.26399493287317L76.95141277685165,138.81240942964956L77.023647276783,153.77902954136752L77.34147907648087,132.5157132959231L77.6029679662323,129.30283511799115L77.8196714660263,143.11746871353512L78.03781965581895,143.75209640676175L78.4567797554207,119.6894642695606L78.50012045537949,136.11510301164978L78.84829074504853,139.68480626505124L79.45650523447037,139.66014642746276L79.73244102420806,133.97986463239727L79.99248522396087,120.71806183663621L80.0213790239334,137.38329758444107L80.05027282390596,142.44006574941545L80.13695422382354,141.43418591491638L80.52846521345138,142.69443254534792L80.73072181325912,149.09087780372082L81.5137437925148,145.36099168736047L81.57153139245986,112.00447313629661L81.7304472923088,134.63077989538783L82.16529898189545,138.40208670519593L82.28087418178559,131.8002679218638L82.46868388160706,135.69882341047887L82.54091838153839,129.07818742480427L82.75906657133102,122.56924695763101L82.83130107126236,133.21082368809274L82.8601948712349,119.37081216571218L83.00466387109756,130.21472686203884L83.06245147104262,129.1307548218079L83.46840936065675,161.97933947130585L83.64177216049195,146.76276718051025L84.36700653980256,126.3377630114976L84.5259224396515,150.4934693073798L84.77151973941803,136.83094007075348L85.16303072904586,123.02462978240351L85.52564791870117,140.77199338668848L85.69901071853637,130.47870626176984L85.85792661838532,111.2697209535893L85.90126731834413,147.9449216052099L86.69873619758606,137.60903873171029L86.7709706975174,130.02658747903422L86.92988659736633,150.6056217917663L87.95850587638856,141.68390145094634L88.11742177623749,151.14390312416992L88.13186867622376,149.60860383139732L88.1607624761963,151.66366917811948L88.21999476613999,115.86668351683124L88.23444166612626,139.49787457760027L88.59561416578292,134.8386830529256L88.66784866571426,139.1157694965553L88.71118936567306,147.75240840587594L88.81376235557556,135.409531364752L89.1027003553009,142.92335613360308L89.14604105525972,134.33380103066415L89.16048795524598,118.02467226908067L89.36418924505233,148.18590582879128L89.68202104475021,125.38828582339546L89.86983074457169,153.05098496504596L89.89872454454422,151.17296941850816L90.07353203437806,144.79580648846803L90.59506512388229,149.42841239075247L90.9417907235527,146.3196897942167L91.02991681346893,134.95816331168484L91.11659821338654,140.32930768543937L91.46332381305695,147.18332267674944L91.50666451301574,140.6529700938144L92.33302719223023,158.1465299494182L92.57862449199676,138.44807705749525L92.86900718172073,147.55685964744765L92.91234788167954,132.5780564988271L93.54945617107391,112.20003821493505L93.5927968710327,137.33854756811573L93.823947270813,161.4897086854616L94.25879896039963,148.79484551118782L94.65030995002746,151.41924955029432L94.7658851499176,155.25663689113864L94.82367274986268,129.69228429361905L94.9392479497528,148.345631725865L95.08516163961411,131.35927952247388L95.46078103925704,112.25224656731463L95.53301553918838,132.15754996321846L95.75116372898103,134.16565390513531L95.98231412876129,151.76576025292735L96.09788932865143,152.65166206225655L96.21490921854019,144.46621984379613L96.3449313184166,135.98672823834008L96.50384721826553,131.23544176759543L96.51829411825179,140.11562717349634L96.67865470809937,129.35004948605433L96.7075485080719,144.7794046772328L97.24352849756241,152.07542808106933L97.41689129739761,130.2691221225831L97.69138239713668,142.31626063495736L98.0106588868332,137.85129593168602L98.29959688655853,131.252937032913L98.96704366592407,138.79298837953024L99.09706576580048,147.48216204543414L99.14040646575927,140.08652823873774L99.89308995504379,149.35270293570753L99.9364306550026,125.14940690692788L100.2123664447403,152.67891681326432L100.24126024471283,131.9310417660706L100.2557071446991,147.94064571014164L101.00839063398361,168.5221770150319L101.28432642372132,147.06837943642142L101.39990162361144,127.52414437063499L101.83475331319809,146.46619632104117L102.08035061296464,149.08492092700354L102.3273926027298,126.60685063701631L102.44296780261993,141.5149219946981L102.89082170219422,140.698895165273L103.58716228153229,147.72685095672733L104.00612238113403,146.93830736125255L104.15203607099532,146.762391815676L104.3831864707756,125.32659542889883L104.58544307058334,133.93943947177075L104.87582576030732,142.8789651619018L105.44069954977036,162.8290920150768L105.7455291394806,134.1619165770031L105.81776363941192,120.16139578745997L106.33929672891617,135.44070296620401L106.4982126287651,133.25266870700528L106.78715062849045,116.02595244801981L106.81604442846297,138.87977925729032L107.26534301803589,130.1327667664933L107.59906640771865,133.69031146330744L107.77242920755387,144.28976573128347L107.8013230075264,143.86444473367047L107.88800440744399,154.43834155249792L108.40953749694823,133.26474566254166L108.80104848657608,132.24899210088108L108.82994228654862,156.14909126485682L108.88772988649369,121.96216777919548L109.1044333862877,135.7242666181562L109.67075186574935,152.10682000535883L109.71409256570817,149.3774443743469L110.46677605499268,142.01569132399314L110.51011675495147,134.99946976366132L110.65458575481414,123.2858347464032L110.90162774457933,143.00290083804134L110.91607464456558,118.37713984843097L111.16167194433211,129.2644336634275L111.20501264429093,138.75886282003486L111.68320503383636,126.00811108598495L111.7120988338089,123.15636651901116L111.81322713371277,130.82056570450035L112.32031332323075,128.6095036287316L112.6106960129547,129.68609893395922L112.95742161262513,140.28834395787678L113.02965611255645,131.73570517037473L113.10333530248641,141.63314559727317L113.49340160211564,136.32641709311608L113.76933739185333,139.6026340067733L113.84157189178467,155.24530250516565L114.05827539157868,131.1413883963033L114.13050989151002,133.1595945483242L114.73872438093186,136.7583640960639L115.08689467060088,134.2650439851577L115.11578847057342,144.83972417407398L115.33393666036605,147.66571544937693L115.36283046033859,150.54019406913744L115.4495118602562,126.5419941217439L115.47840566022873,147.37511778683532L115.73844985998154,145.44048743116818L116.05772634967805,132.51209020926217L116.18774844955443,130.1739100163679L116.44923733930588,152.62995618271142L116.60815323915482,159.84188154346825L116.63704703912735,135.17957960325523L116.72372843904495,131.88869082064235L116.91153813886643,145.0705409067105L117.1585801286316,134.05510080134687L117.70900701810837,132.50422386795333L118.0412857177925,121.64222637874249L118.11352021772385,131.3814097274838L118.44724360740662,127.14106007697896L118.60615950725555,114.27311291359558L118.75207319711686,133.67118417697142L118.85320149702072,105.58325379886395L118.93988289693831,124.52140521903607L119.27360628662109,133.66790381472438L120.1129711758232,121.33398656899163L120.62005736534118,127.20500266048103L120.63450426532745,138.27744926001841L120.69229186527252,134.59813947501922L120.96822765501022,141.29792848008768L120.98267455499649,127.1005859557219L120.99712145498276,108.0771614373368L121.11269665487289,150.40937126430012L121.735358044281,147.8788247539635L121.83648634418488,131.61274870684622L121.87982704414367,149.8568342283005L122.14131593389511,139.03327083407368L122.90844632316589,156.80214447538154L123.03846842304229,146.91087308793277L123.06736222301483,147.88016301119862L123.1251498229599,129.0167255132502L123.21183122287749,124.27998034977975L123.24216971284866,133.9018703479265L123.34329801275254,130.79908830789782L123.45887321264267,142.58622955182602L123.50221391260148,143.09262935363463L123.67557671243668,136.31202266773352L124.05264080207824,154.9427829290844L124.1104284020233,108.09929164234671L124.26934430187225,123.5633599205872L124.41525799173355,133.91743982844233L125.38464498081207,147.99866405734682L125.57389937063218,147.25677994278897L125.68947457052231,120.6531074001027L125.89173117033005,142.19199855461412L125.90617807031632,120.48941569195418L126.26879525997163,133.96152071615012L126.47105185977935,116.31952038881496L126.8192221494484,131.31609624632623L127.2251800390625,136.16711552150713L127.2685207390213,127.88950491603089L127.64414013866424,133.7328582512579L127.8911821284294,136.03810426000027L127.9489697283745,141.12095212084915L128.31014222803117,125.62789914932134L129.03537660734176,127.01258738240816L129.25208010713575,138.99875358953386L129.3676553070259,129.43750949243199L129.38210220701217,135.15886925653135L129.6869317967224,135.03633711846766L129.9469759964752,129.81507755504572L130.51184978593827,125.23947814693503L130.80223247566224,128.3780993685284L131.2370841652489,149.6065311647039L131.98976765453338,127.62751658194233L132.14868355438233,124.59360582889141L132.3957255441475,141.23915940321402L132.54019454401015,123.79662468475138L132.55464144399642,140.4093093557628L132.8291325437355,153.57803799284278L133.14840903343202,143.84610081742332L133.40989792318345,133.61512425498836L133.84330492277147,110.4969100407322L133.96032481266022,147.28210890899499L134.00366551261902,129.19244521630455L134.10479381252287,132.41642113716182L134.24926281238555,124.87406864090858L134.29260351234436,133.1480888001443L134.3648380122757,126.20915975524531L134.50930701213838,134.41754002911978L134.84303040182115,126.03771594725926L134.97305250169754,118.38534891415367L135.23454139144897,127.42847529853464L135.4801386912155,117.58564229491284L136.3498420703888,113.11715242624172L136.8424813599205,119.50367499682255L137.08807865968706,117.3452945595287L137.2325476595497,137.60303289436246L137.30478215948105,129.3750030874261L137.45069584934234,141.2147443687783L137.53737724925995,149.10094737340452L137.63850554916382,150.9500761479161L137.89854974891662,119.09921122782507L137.9577820388603,129.65456828788314L138.03001653879167,130.12788702364819L138.29006073854447,110.70239780716271L138.44897663839342,121.20562811589213L138.47931512836456,140.08935163509963L138.7682531280899,134.79749084242044L138.88382832798004,109.70823588357598L139.02829732784272,136.30374832117008L139.52093661737442,144.26673791471345L139.59317111730576,117.26486856374046L140.44842759649276,139.7847022715893L140.46287449647903,116.17479276490062L140.91217308605195,122.03147971184819L141.5203875754738,143.77146849625052L141.6359627753639,131.3613032285367L141.75153797525405,140.01824447932663L141.76598487524032,132.7318908000243L142.24417726478578,144.34688646692854L142.4030931646347,127.42754504655413L142.56345375448225,153.51799593957475L142.8090510542488,130.40366593534245L143.64986063344955,141.04455721697644L143.99658623311996,133.07972343968225L144.41699102272034,120.46449473100276L144.4747786226654,130.59461239449874L144.67703522247317,126.70805226036914L144.90963031225203,107.24543456571439L144.99631171216964,130.28562185507943L145.59007930160521,128.059626786992L145.8212297013855,123.57398437741718L145.9671433912468,148.38656281300723L146.09716549112318,116.42888211725995L146.21274069101335,115.98138195400648L146.48867648075105,135.13606992290389L146.5175702807236,120.08855868940745L146.5609109806824,112.94787920621016L146.5898047806549,118.01696912987367L146.6764861805725,144.27558346863333L146.9524219703102,125.82586329885689L146.99576267026902,142.6803155635385L147.06799717020033,116.77865686192985L147.19801927007677,133.59802067471523L148.18329784914016,135.33130859733865L148.4722358488655,153.1850391714998L148.48668274885176,130.80809706391955L148.51557654882433,155.6482403345109L148.70483093864442,136.40806710466813L148.76261853858946,133.51046274707647L148.8926406384659,118.94163959849567L148.90708753845217,128.65549398103093L148.9793220383835,109.05426874128094L149.05155653831483,124.72535888570926L149.2552578281212,120.75052273469278L149.70311172769547,131.2661074425317L149.86347231754303,122.15742277384042L149.9646006174469,113.9767542168589L150.03683511737825,130.78572205575688L150.239091717186,136.8083692200686L150.35611160707475,112.90308022925427L150.7317310067177,113.11963309818972L150.83285930662154,128.30842839125165L150.8473062066078,129.42778264716213L150.9643260964966,113.99655063181245L151.5003060859871,129.08815907322688L151.6158812858772,140.9002212781065L151.63032818586348,139.88095887125633L151.68811578580858,130.97593410545488L152.13741437538147,112.19564807839548L152.80341646474838,123.9724749494872L152.86120406469345,128.51548289785984L153.18048055438996,152.16729454419675L153.44052475414276,143.39809472765415L153.48386545410156,121.53590020939177L153.77424814382553,138.13430469649194L153.93316404367445,139.51816059885937L154.27988964334486,112.32802130320033L154.3680157332611,129.56286502685757L154.61361303302763,120.86724487793089L154.64250683300017,104.33852768831767L154.68584753295897,144.74996301806033L154.97623022268294,145.0324005755098L155.00512402265548,131.90132266332498L155.07735852258685,128.425085253649L155.23627442243577,138.81722389165392L155.409637222271,116.00387120364044L155.64223231204986,97.96847220981279L155.90227651180268,138.07680859601265L155.98895791172026,141.7985835679114L156.1204247015953,122.78532654047112L156.3804689013481,117.69541202861245L156.39491580133438,125.1802684243864L156.77197989097593,138.68578091882958L156.8875550908661,122.1030927941369L157.03202409072875,136.41554176093254L157.17793778059007,111.91076248941836L157.48132268030167,120.44748907199073L157.72836467006684,149.41938731452055L158.1906654696274,129.15618170927505L158.2787915595436,130.3155531205574L159.01702814884186,120.79060517090542L159.0459219488144,135.642339163031L159.19039094867708,118.94038294231149L159.29151924858093,155.37083756190327L159.6685833382225,127.48553075333894L159.95896602794647,141.74423726799768L160.10343502780913,123.40985202359369L160.33458542758942,118.01137129778047L160.36347922756195,111.90777589095462L160.4646075274658,116.0183635502841L160.91390611703875,141.69738194455857L160.98614061697006,126.10817029462487L161.13205430683135,129.60647262847002L161.2042888067627,126.14967258912355L161.81250329618453,140.50894423893794L161.85584399614334,135.25710060163064L162.14478199586867,128.73668702669784L162.21846118579865,122.44953821592918L162.2329080857849,125.21083617806158L162.60852748542783,120.88035000670888L162.70965578533173,129.65548221965346L163.59380606449128,140.3228448822064L163.7238281643677,104.69497739895294L163.82495646427154,131.41615545496614L163.95642325414656,115.9442697960474L163.99976395410536,123.89955625038374L164.31759575380323,112.62757876113312L164.46350944366455,148.727916329222L164.62242534351347,132.02457289063682L164.7957881433487,140.1302500818215L164.81023504333496,142.28237987861476L164.85357574329376,117.19201514547775L165.18729913297653,122.50816041091119L165.27398053289414,146.4978575287987L165.59325702259065,119.74962056429993L165.7377260224533,135.76717245073073L165.85330122234345,124.97773461599925L166.72155991151809,111.05888015821834L166.83857980140687,98.94300092054782L166.96860190128325,119.5865490241384L167.46124119081495,127.95822932111696L167.8527521804428,138.96242480166362L167.89609288040162,128.33772316853248L168.46096666986463,145.77345235934825L168.80769226953504,139.496520000155L169.72073634866715,126.93532750739568L170.31450393810272,122.83947699786263L170.82159012762068,129.18041722139873L170.89382462755202,116.2865372440325L170.9082715275383,117.37723321085936L170.93716532751085,122.6370247905264L171.13942192731855,135.50582060483936L171.29978251716616,123.99222240381019L171.6320612168503,123.73060943455589L171.71874261676788,114.69680189019016L171.92244390657424,133.48417088846955L172.00912530649185,99.54647333253263L172.1535943063545,118.17876769364082L172.48731769603728,120.89727406467L172.73291499580384,129.89744565584587L173.03774458551408,135.8748695177369L173.48559848508833,125.12619956804582L173.57372457500458,137.36480678630227L173.73264047485353,121.35786303649127L174.02157847457886,138.91966585098075L174.1097045644951,139.1742937702762L174.18193906442642,125.71655053104246L174.77570665386202,126.3482405864359L175.28279284337998,133.10377942949393L175.68730604299543,141.68520706776107L175.716199842968,120.47136553949035L175.73064674295426,120.35041646181452L175.7595405429268,132.96588997364677L175.96324183273316,144.351798850194L176.04992323265074,126.7016384177667L176.1221577325821,124.230856517125L176.5281156221962,124.01409148545716L176.73037222200392,115.01649848749038L176.88928812185287,124.57092073673525L177.0207549117279,134.20945734926997L177.07854251167296,145.96097157436583L177.09298941165923,140.33952413701473L177.48450040128705,110.89154904319872L177.6145225011635,95.42296006673719L177.94680120084763,116.93019001349106L177.9612481008339,133.55141015442888L178.12160869068146,132.36151995010184L178.56946259025574,119.78640631805533L178.6864824801445,115.9277374231307L178.93207977991105,124.62311276890463L179.00431427984236,113.69297840217432L179.1343363797188,129.06426628551708L179.2369093696213,122.31332974173102L179.3524845695114,130.96996090852744L179.59808186927796,133.1290431148592L180.01848665887832,117.0001057939206L180.16295565874097,137.20400375535638L180.68448874824523,114.9159823129653L180.81451084812164,114.60573511736177L180.82895774810788,116.73436381148966L180.90263693803786,130.46886517502872L181.13378733781815,123.04137431805259L181.23491563772203,117.20681757611491L181.62642662734987,122.66551987750819L181.64087352733614,110.81742264854165L181.77089562721252,134.69801916134713L181.84313012714384,112.42630160893016L181.98904381700518,122.80229955906279L182.11906591688157,138.68000356442434L182.32132251668932,121.69908599102459L182.8573025061798,122.0476856805612L182.9006432061386,125.04384778745585L183.030665306015,110.8848251166028L183.37883559568405,134.54748154260716L183.43662319562912,132.3156111988534L183.5666452955055,103.73228084060153L183.75589968532563,126.91122255695348L183.84258108524324,122.69567962592878L183.87147488521575,126.66921016013052L184.34966727476117,113.11222372276605L184.4363486746788,115.00236518547078L184.5230300745964,134.08889995663856L184.55192387456893,126.44978493420263L184.5663707745552,115.91091128643069L184.71083977441788,141.0803474379106L184.78307427434922,125.58713126428097L184.9723286641693,127.1793636102815L185.10235076404572,133.98719240677002L185.33350116382599,122.58289065334509L185.681671453495,119.68616758710337L185.94316034324646,126.41900501779503L186.07318244312285,121.78380420209128L186.33322664287567,126.68541612884351L186.71029073251722,123.58057774233163L187.04256943220136,102.9941340541759L187.05846102218626,111.33150926934705L187.07290792217253,121.0234456096048L187.79669761148452,142.83543916134028L187.91227281137466,131.15375911562302L187.95561351133347,126.70181794007874L188.08563561120985,104.50864955927881L188.62161560070038,134.00292508938767L189.056467290287,112.11595649206555L189.33240308002473,115.49840165381235L189.6068941797638,133.6748399040527L190.04174586935042,131.46989790710305L190.15732106924057,123.43472402391455L190.1862148692131,121.17964634127873L190.66440725875856,140.13907931553118L190.9100045585251,118.90204676858856L191.09925894834518,124.62291692638242L191.1859403482628,109.33086366348444L191.5774513378906,139.84312862404911L191.6207920378494,131.8747044005144L191.6352389378357,129.7919191767942L191.7219203377533,117.16431974879501L191.75081413772583,124.9897462906949L191.99641143749238,116.2014110277112L192.1119866373825,111.14195002805641L192.22900652727125,123.35065862125523L192.44571002706527,120.03040978052078L192.67686042684556,123.02960744650971L193.2272873163223,128.82378798845144L193.3876479061699,108.19665801630623L193.41654170614243,113.63969291592258L193.56101070600508,123.73160496737714L193.71992660585403,111.89800008505424L193.8210549057579,105.49566323080481L193.90918099567412,119.54586274014896L193.93807479564666,110.99568830438473L194.18367209541321,113.88679721832305L194.44516098516465,125.4840854571773L194.96524938467024,117.17238193262605L195.34231347431182,110.90346279663326L195.42899487422943,121.60276411051686L195.5460147641182,134.12832958444383L195.9794217637062,144.6562523711821L196.2986982534027,133.09286120888063L196.31314515338897,113.99517973415698L196.57318935314177,116.42801714612018L196.96470034276962,130.25513570245516L197.03693484270096,140.07405959815694L197.22474454252242,127.39508414849756L197.4139989323425,133.2683524289924L197.52957413223268,118.07515067918071L197.601808632164,129.4009032609886L197.63070243213653,119.39669601906448L197.6451493321228,112.4049547740091L197.9210851218605,138.98716624030303L197.99331962179184,117.13187517094862L198.1955762215996,107.41780862568095L198.34004522146225,122.06813490392213L198.39927751140593,147.06875480125566L198.50040581130983,119.69834246390087L198.77489691104887,128.03136018295282L198.93525750089645,130.62842787000062L199.44089900041578,100.53172442135873L199.5579188903046,140.42290409084632L200.23836787965777,147.31233393825633L200.31060237958908,115.80811028247979L200.5273058793831,133.7351430806837L200.6732195692444,119.78009039671402L200.73100716918947,106.78809331571979L200.96215756896973,112.2010337477563L201.1499672687912,138.76716980701866L201.4259030585289,118.55201090055573L201.5559251584053,128.17035941309248L201.67150035829545,107.05393321941183L202.1785865478134,124.35843160013567L202.4545223375511,121.87656827677883L202.49786303750992,117.06458694435875L202.7290134372902,134.45829159394998L202.9471616270828,119.49848516998395L203.95988931612015,148.4713136644943L204.07690920600893,109.5486568683939L204.09135610599517,130.99522459389271L204.5247631055832,133.0281189350795L204.78625199533462,106.64659709342192L204.82959269529343,138.6131070228789L205.13442228500367,138.25696739623714L205.7570836744118,113.59394736677599L206.0604685741234,121.0687668332866L206.14714997404099,116.49404871652587L206.17604377401352,140.49051872163986L206.4664264637375,120.34393733837135L206.78425826343536,123.72843884660138L207.19021615304948,102.23963441714558L207.84177134243012,132.6861615710879L208.05991953222275,121.83736713191615L208.23328233205797,127.97813997754182L209.07264722126007,108.19476487192486L209.2907954110527,115.00363816186515L209.72564710063935,141.5179575537924L209.84122230052947,129.20047475971523L210.14460720024107,124.6658553993773L210.4927774899101,123.14907138505878L210.56501198984148,118.38758478294892L210.75282168966294,125.78143968673521L210.9276291794968,128.32504236521925L211.01431057941437,129.75490494009622L211.60807816884997,132.5287041832298L211.6225250688362,117.02270928502584L211.69475956876755,126.92734692461556L211.91146306856157,132.72374701514235L212.72337884778977,120.09769800711065L212.9689761475563,122.81932153828502L213.34604023719788,114.19298068159068L213.36048713718415,121.41253574060866L213.47606233707427,120.7263851438302L213.63642292692182,115.52941005316252L213.67976362688066,116.05306031713593L213.80978572675704,125.4604864332508L214.02648922655106,114.07963682186073L214.08427682649614,125.92690172010788L214.316871916275,134.46351406120894L214.57691611602783,136.628553144258L214.823958105793,132.50210224062937L215.04066160558702,90.36916218001636L215.18513060544967,131.1212166165155L215.22847130540848,114.84660509947184L215.38883189525603,117.45488477091625L215.40327879524233,118.9396485328532L215.46106639518737,113.14628400142068L215.86557959480285,129.26283428282943L216.22819678445816,127.91845696889783L216.69194227401732,136.84233157746212L216.90864577381134,120.17704686902671L217.41573196332934,123.18087947470798L217.48796646326065,122.46412848383395L218.15541324262617,115.16919037397469L218.21320084257127,122.22400923139236L218.5021388422966,133.55695902589153L219.19703473163605,121.32282354522557L219.55965192129136,129.46220197044082L219.60299262125017,120.2668569856709L220.19676021068574,116.36493953375788L220.41490840047837,116.65547191545875L220.92054989999772,129.77334677760447L221.12425118980408,115.23282287348326L221.23982638969423,122.73522349520533L221.3265077896118,120.64197701675701L221.790253279171,114.01176106770421L222.03585057893753,98.00798343866899L222.07919127889633,131.44990564962728L222.1095297688675,128.85564503873118L222.297339468689,125.45531292662238L222.67440355833054,97.47909438722643L222.93444775808334,116.73633855692196L223.0355760579872,122.04822424749727L223.1367043578911,137.92330069901914L223.44153394760133,133.28472159980726L223.74491884731293,154.80026669365L223.91972633714676,135.06633366478638L224.41236562667848,143.51990877646975L224.74464432636262,129.25950495995184L224.78798502632142,112.02613005521117L224.96279251615525,115.47878476117083L225.0205801161003,127.67406182138797L225.10726151601793,133.49626416421611L225.71547600543977,106.46115054509774L225.72992290542604,137.81225798892518L226.0044140051651,107.02769032143547L226.03475249513625,107.467846390106L226.15032769502642,140.01591068927027L226.16477459501266,112.58155576841341L226.17922149499893,105.61145512206241L226.26590289491654,122.56297999692023L226.55484089464187,139.40166693856384L226.5837346946144,132.74302118337L226.83077668437957,110.74894304660832L227.5401194737053,119.0144766965482L227.72937386352538,118.21899701174512L227.81605526344302,137.36575335849295L228.29424765298845,138.89502233360247L228.87356834243775,126.67945925212625L229.27808154205323,129.4479870673703L229.6551456316948,127.654493889377L229.72738013162612,126.63046598115298L229.81406153154376,128.60214321393846L230.13333802124023,114.85499368750656L230.49451052089694,108.26753668913665L230.6548711107445,105.98786444975308L230.66931801073073,117.57328789580333L230.75599941064834,123.35643597566047L230.88602151052476,133.87814076231854L231.11861660030365,129.10358167185103L231.29197940013887,124.88967076184477L231.37866080005645,132.3255012462251L231.6675987997818,131.45064005908557L231.71238418973923,105.72471738074144L232.05910978940963,118.26320846113438L232.08800358938217,127.11085136792781L232.21802568925858,135.47597094041228L232.91436626859664,121.50175832968623L233.26109186826707,107.48299154515703L233.58036835796355,136.63317176374017L234.07300764749527,118.08802732501613L234.08745454748154,130.71516978713015L234.43418014715195,104.79446540023642L234.46307394712449,117.54219789540225L234.47752084711075,117.03121211453185L234.8979256367111,130.8516067442709L235.24609592638015,138.72095097177674L235.3183304263115,120.94874800759126L235.53503392610548,123.15497930114549L235.6217153260231,114.39274005424649L236.04212011562348,123.26771931309862L236.05656701560974,139.56424887241982L236.1721422154999,120.2560530065289L236.2169276054573,128.16071416887357L236.3036090053749,132.79629034941155L236.53475940515517,109.15785311532069L237.14297389457704,113.43985194221585L237.31633669441223,136.3923997028912L237.46225038427355,114.46157870080387L237.6067193841362,132.2008474808374L237.62116628412247,132.10047818820397L237.67895388406754,128.69156164553823L237.7367414840126,122.51279535060353L237.79452908395768,114.78114473642262L238.02712417373655,128.53971840998352L238.1138055736542,132.9177290333929L238.17159317359926,115.66424762970519L238.20048697357177,111.2997501403284L238.5486572632408,136.39602278955212L238.8231483629799,137.7620407021881L238.92427666288376,126.85999341718497L238.93872356287002,115.72329415015199L239.15687175266265,112.06418878536095L239.20021245262149,121.07601300660843L239.64951104219438,132.30462769739938L239.66395794218064,130.71012684218323L239.6784048421669,124.6959988275877L240.02513044183732,134.1802278528299L240.2143848316574,148.10494126606696L240.9381745209694,133.2984632167824L241.1115373208046,114.96593847633943L241.99568759996416,128.35926584597573L242.1401565998268,126.44209811520581L242.5894551893997,125.32517557061279L242.6472427893448,129.4036940169301L242.93618078907014,135.91640445265594L243.2699041787529,142.81464721356548L243.29879797872545,124.07947024745545L243.54439527849195,146.16779759803146L244.0659283679962,105.17152753633447L244.22628895784376,111.22253922594649L244.4863331575966,116.83615296240913L244.5585676575279,133.32615861346517L244.58746145750044,113.29435726842283L244.71892824737552,136.24910825747307L244.97897244712829,100.3065055208154L245.09454764701843,107.2734890070212L245.21012284690855,119.63727223739122L245.2982489368248,111.43055662495556L245.54384623659135,121.08952614064103L245.63052763650893,138.22390265040374L245.7316559364128,107.31375096554586L246.38465581579206,130.30120765580543L246.45689031572343,123.30465194874569L246.6880407155037,134.27961793285226L246.7747221154213,112.92116302213847L246.91919111528395,120.26546976780523L247.02176410518646,138.41390253736935L247.16623310504914,131.17770086396337L247.267361404953,121.07363025592153L247.41183040481567,111.37031872916532L247.42627730480194,112.83824003419205L247.4407242047882,110.34717211229126L247.61553169462204,117.62019217987302L247.8900227943611,138.87759234912565L248.16595858409883,129.7513797746964L248.32487448394775,129.82367830581285L248.88974827341082,128.30405457492225L248.99087657331467,135.52994187549174L249.16423937314988,122.3824784722819L249.31015306301117,117.69426961389954L249.75945165258406,128.45673014119637L250.22175245214464,143.46282068124506L250.65660414173126,111.58656151410726L251.1781372312355,130.84842430328496L251.51186062091827,106.57986375397833L251.64188272079468,124.69067843906763L251.7285641207123,133.63133022370138L251.94526762050629,133.04669133426924L252.17786271028518,121.38967112614046L252.38011931009294,123.65631983779696L252.4234600100517,132.7517688160288L252.68494889980317,126.04683894475228L252.95943999954224,97.59382546482203L253.07501519943236,114.37160538205782L254.0891875784683,115.49255901856637L254.5529330680275,120.86913802231226L254.66850826791764,134.4836368803662L254.75518966783523,142.61986550501587L254.84187106775283,125.73040638948892" fill="none"></path></g></g></g></g></g></g><g transform="translate(41, 177)" clip-path="url(#clip_1)"><clipPath id="clip_1"><rect width="288" height="22"></rect></clipPath><g><g><line x1="0" y1="0" x2="0" y2="5" style="visibility: inherit;" fill="rgb(0, 0, 0)" stroke="rgb(204, 204, 204)" stroke-width="1px"></line><line x1="28.893799972534183" y1="0" x2="28.893799972534183" y2="5" style="visibility: inherit;" fill="rgb(0, 0, 0)" stroke="rgb(204, 204, 204)" stroke-width="1px"></line><line x1="57.787599945068365" y1="0" x2="57.787599945068365" y2="5" style="visibility: inherit;" fill="rgb(0, 0, 0)" stroke="rgb(204, 204, 204)" stroke-width="1px"></line><line x1="86.68139991760253" y1="0" x2="86.68139991760253" y2="5" style="visibility: inherit;" fill="rgb(0, 0, 0)" stroke="rgb(204, 204, 204)" stroke-width="1px"></line><line x1="115.57519989013673" y1="0" x2="115.57519989013673" y2="5" style="visibility: inherit;" fill="rgb(0, 0, 0)" stroke="rgb(204, 204, 204)" stroke-width="1px"></line><line x1="144.4689998626709" y1="0" x2="144.4689998626709" y2="5" style="visibility: inherit;" fill="rgb(0, 0, 0)" stroke="rgb(204, 204, 204)" stroke-width="1px"></line><line x1="173.36279983520507" y1="0" x2="173.36279983520507" y2="5" style="visibility: inherit;" fill="rgb(0, 0, 0)" stroke="rgb(204, 204, 204)" stroke-width="1px"></line><line x1="202.25659980773924" y1="0" x2="202.25659980773924" y2="5" style="visibility: inherit;" fill="rgb(0, 0, 0)" stroke="rgb(204, 204, 204)" stroke-width="1px"></line><line x1="231.15039978027346" y1="0" x2="231.15039978027346" y2="5" style="visibility: inherit;" fill="rgb(0, 0, 0)" stroke="rgb(204, 204, 204)" stroke-width="1px"></line><line x1="260.04419975280763" y1="0" x2="260.04419975280763" y2="5" style="visibility: inherit;" fill="rgb(0, 0, 0)" stroke="rgb(204, 204, 204)" stroke-width="1px"></line><line x1="288.9379997253418" y1="0" x2="288.9379997253418" y2="5" style="visibility: inherit;" fill="rgb(0, 0, 0)" stroke="rgb(204, 204, 204)" stroke-width="1px"></line></g><g transform="translate(0, 8)"><text style="text-anchor: middle; visibility: hidden; font-family: &quot;Helvetica Neue&quot;, sans-serif; font-size: 12px; font-weight: 200;" x="0" y="0" dx="0em" dy="0.95em" fill="rgb(50, 49, 63)" stroke="none" stroke-width="1px">-20k</text><text style="text-anchor: middle; visibility: inherit; font-family: &quot;Helvetica Neue&quot;, sans-serif; font-size: 12px; font-weight: 200;" x="28.893799972534183" y="0" dx="0em" dy="0.95em" fill="rgb(50, 49, 63)" stroke="none" stroke-width="1px">0</text><text style="text-anchor: middle; visibility: hidden; font-family: &quot;Helvetica Neue&quot;, sans-serif; font-size: 12px; font-weight: 200;" x="57.787599945068365" y="0" dx="0em" dy="0.95em" fill="rgb(50, 49, 63)" stroke="none" stroke-width="1px">20k</text><text style="text-anchor: middle; visibility: inherit; font-family: &quot;Helvetica Neue&quot;, sans-serif; font-size: 12px; font-weight: 200;" x="86.68139991760253" y="0" dx="0em" dy="0.95em" fill="rgb(50, 49, 63)" stroke="none" stroke-width="1px">40k</text><text style="text-anchor: middle; visibility: hidden; font-family: &quot;Helvetica Neue&quot;, sans-serif; font-size: 12px; font-weight: 200;" x="115.57519989013673" y="0" dx="0em" dy="0.95em" fill="rgb(50, 49, 63)" stroke="none" stroke-width="1px">60k</text><text style="text-anchor: middle; visibility: inherit; font-family: &quot;Helvetica Neue&quot;, sans-serif; font-size: 12px; font-weight: 200;" x="144.4689998626709" y="0" dx="0em" dy="0.95em" fill="rgb(50, 49, 63)" stroke="none" stroke-width="1px">80k</text><text style="text-anchor: middle; visibility: hidden; font-family: &quot;Helvetica Neue&quot;, sans-serif; font-size: 12px; font-weight: 200;" x="173.36279983520507" y="0" dx="0em" dy="0.95em" fill="rgb(50, 49, 63)" stroke="none" stroke-width="1px">100k</text><text style="text-anchor: middle; visibility: inherit; font-family: &quot;Helvetica Neue&quot;, sans-serif; font-size: 12px; font-weight: 200;" x="202.25659980773924" y="0" dx="0em" dy="0.95em" fill="rgb(50, 49, 63)" stroke="none" stroke-width="1px">120k</text><text style="text-anchor: middle; visibility: hidden; font-family: &quot;Helvetica Neue&quot;, sans-serif; font-size: 12px; font-weight: 200;" x="231.15039978027346" y="0" dx="0em" dy="0.95em" fill="rgb(50, 49, 63)" stroke="none" stroke-width="1px">140k</text><text style="text-anchor: middle; visibility: inherit; font-family: &quot;Helvetica Neue&quot;, sans-serif; font-size: 12px; font-weight: 200;" x="260.04419975280763" y="0" dx="0em" dy="0.95em" fill="rgb(50, 49, 63)" stroke="none" stroke-width="1px">160k</text><text style="text-anchor: middle; visibility: hidden; font-family: &quot;Helvetica Neue&quot;, sans-serif; font-size: 12px; font-weight: 200;" x="288.9379997253418" y="0" dx="0em" dy="0.95em" fill="rgb(50, 49, 63)" stroke="none" stroke-width="1px">180k</text></g><line x1="0" y1="0" x2="288.9379997253418" y2="0" fill="rgb(0, 0, 0)" stroke="rgb(204, 204, 204)" stroke-width="1px"></line></g></g></g></g></svg>