<svg viewBox="0 0 330 200" xmlns="http://www.w3.org/2000/svg"><g><g><g><g><g><line x1="51.41600036621094" y1="177.9749994277954" x2="46.41600036621094" y2="177.9749994277954" style="visibility: inherit;" fill="rgb(0, 0, 0)" stroke="rgb(204, 204, 204)" stroke-width="1px"></line><line x1="51.41600036621094" y1="158.1999994913737" x2="46.41600036621094" y2="158.1999994913737" style="visibility: inherit;" fill="rgb(0, 0, 0)" stroke="rgb(204, 204, 204)" stroke-width="1px"></line><line x1="51.41600036621094" y1="138.424999554952" x2="46.41600036621094" y2="138.424999554952" style="visibility: inherit;" fill="rgb(0, 0, 0)" stroke="rgb(204, 204, 204)" stroke-width="1px"></line><line x1="51.41600036621094" y1="118.64999961853027" x2="46.41600036621094" y2="118.64999961853027" style="visibility: inherit;" fill="rgb(0, 0, 0)" stroke="rgb(204, 204, 204)" stroke-width="1px"></line><line x1="51.41600036621094" y1="98.87499968210857" x2="46.41600036621094" y2="98.87499968210857" style="visibility: inherit;" fill="rgb(0, 0, 0)" stroke="rgb(204, 204, 204)" stroke-width="1px"></line><line x1="51.41600036621094" y1="79.09999974568684" x2="46.41600036621094" y2="79.09999974568684" style="visibility: inherit;" fill="rgb(0, 0, 0)" stroke="rgb(204, 204, 204)" stroke-width="1px"></line><line x1="51.41600036621094" y1="59.32499980926514" x2="46.41600036621094" y2="59.32499980926514" style="visibility: inherit;" fill="rgb(0, 0, 0)" stroke="rgb(204, 204, 204)" stroke-width="1px"></line><line x1="51.41600036621094" y1="39.549999872843415" x2="46.41600036621094" y2="39.549999872843415" style="visibility: inherit;" fill="rgb(0, 0, 0)" stroke="rgb(204, 204, 204)" stroke-width="1px"></line><line x1="51.41600036621094" y1="19.77499993642172" x2="46.41600036621094" y2="19.77499993642172" style="visibility: inherit;" fill="rgb(0, 0, 0)" stroke="rgb(204, 204, 204)" stroke-width="1px"></line><line x1="51.41600036621094" y1="0" x2="46.41600036621094" y2="0" style="visibility: inherit;" fill="rgb(0, 0, 0)" stroke="rgb(204, 204, 204)" stroke-width="1px"></line></g><g transform="translate(41.41600036621094, 0)"><text style="text-anchor: end; visibility: hidden; font-family: &quot;Helvetica Neue&quot;, sans-serif; font-size: 12px; font-weight: 200;" x="0" y="177.9749994277954" dx="0em" dy="0.3em" fill="rgb(50, 49, 63)" stroke="none" stroke-width="1px">-0.5</text><text style="text-anchor: end; visibility: inherit; font-family: &quot;Helvetica Neue&quot;, sans-serif; font-size: 12px; font-weight: 200;" x="0" y="158.1999994913737" dx="0em" dy="0.3em" fill="rgb(50, 49, 63)" stroke="none" stroke-width="1px">0</text><text style="text-anchor: end; visibility: hidden; font-family: &quot;Helvetica Neue&quot;, sans-serif; font-size: 12px; font-weight: 200;" x="0" y="138.424999554952" dx="0em" dy="0.3em" fill="rgb(50, 49, 63)" stroke="none" stroke-width="1px">0.5</text><text style="text-anchor: end; visibility: inherit; font-family: &quot;Helvetica Neue&quot;, sans-serif; font-size: 12px; font-weight: 200;" x="0" y="118.64999961853027" dx="0em" dy="0.3em" fill="rgb(50, 49, 63)" stroke="none" stroke-width="1px">1</text><text style="text-anchor: end; visibility: hidden; font-family: &quot;Helvetica Neue&quot;, sans-serif; font-size: 12px; font-weight: 200;" x="0" y="98.87499968210857" dx="0em" dy="0.3em" fill="rgb(50, 49, 63)" stroke="none" stroke-width="1px">1.5</text><text style="text-anchor: end; visibility: inherit; font-family: &quot;Helvetica Neue&quot;, sans-serif; font-size: 12px; font-weight: 200;" x="0" y="79.09999974568684" dx="0em" dy="0.3em" fill="rgb(50, 49, 63)" stroke="none" stroke-width="1px">2</text><text style="text-anchor: end; visibility: hidden; font-family: &quot;Helvetica Neue&quot;, sans-serif; font-size: 12px; font-weight: 200;" x="0" y="59.32499980926514" dx="0em" dy="0.3em" fill="rgb(50, 49, 63)" stroke="none" stroke-width="1px">2.5</text><text style="text-anchor: end; visibility: inherit; font-family: &quot;Helvetica Neue&quot;, sans-serif; font-size: 12px; font-weight: 200;" x="0" y="39.549999872843415" dx="0em" dy="0.3em" fill="rgb(50, 49, 63)" stroke="none" stroke-width="1px">3</text><text style="text-anchor: end; visibility: hidden; font-family: &quot;Helvetica Neue&quot;, sans-serif; font-size: 12px; font-weight: 200;" x="0" y="19.77499993642172" dx="0em" dy="0.3em" fill="rgb(50, 49, 63)" stroke="none" stroke-width="1px">3.5</text><text style="text-anchor: end; visibility: hidden; font-family: &quot;Helvetica Neue&quot;, sans-serif; font-size: 12px; font-weight: 200;" x="0" y="0" dx="0em" dy="0.3em" fill="rgb(50, 49, 63)" stroke="none" stroke-width="1px">4</text></g><line x1="51.41600036621094" y1="0" x2="51.41600036621094" y2="177.9749994277954" fill="rgb(0, 0, 0)" stroke="rgb(204, 204, 204)" stroke-width="1px"></line></g></g><g transform="translate(51, 0)" clip-path="url(#clip_0)"><clipPath id="clip_0"><rect width="278" height="177"></rect></clipPath><g><g><g><line x1="0" y1="0" x2="0" y2="177.9749994277954" fill="rgb(0, 0, 0)" stroke="rgb(60, 60, 60)" stroke-width="1px" opacity="0.25"></line><line x1="27.858399963378908" y1="0" x2="27.858399963378908" y2="177.9749994277954" fill="rgb(0, 0, 0)" stroke="rgb(60, 60, 60)" stroke-width="1px" opacity="0.25"></line><line x1="55.716799926757815" y1="0" x2="55.716799926757815" y2="177.9749994277954" fill="rgb(0, 0, 0)" stroke="rgb(60, 60, 60)" stroke-width="1px" opacity="0.25"></line><line x1="83.57519989013672" y1="0" x2="83.57519989013672" y2="177.9749994277954" fill="rgb(0, 0, 0)" stroke="rgb(60, 60, 60)" stroke-width="1px" opacity="0.25"></line><line x1="111.43359985351563" y1="0" x2="111.43359985351563" y2="177.9749994277954" fill="rgb(0, 0, 0)" stroke="rgb(60, 60, 60)" stroke-width="1px" opacity="0.25"></line><line x1="139.29199981689453" y1="0" x2="139.29199981689453" y2="177.9749994277954" fill="rgb(0, 0, 0)" stroke="rgb(60, 60, 60)" stroke-width="1px" opacity="0.25"></line><line x1="167.15039978027343" y1="0" x2="167.15039978027343" y2="177.9749994277954" fill="rgb(0, 0, 0)" stroke="rgb(60, 60, 60)" stroke-width="1px" opacity="0.25"></line><line x1="195.00879974365233" y1="0" x2="195.00879974365233" y2="177.9749994277954" fill="rgb(0, 0, 0)" stroke="rgb(60, 60, 60)" stroke-width="1px" opacity="0.25"></line><line x1="222.86719970703126" y1="0" x2="222.86719970703126" y2="177.9749994277954" fill="rgb(0, 0, 0)" stroke="rgb(60, 60, 60)" stroke-width="1px" opacity="0.25"></line><line x1="250.72559967041016" y1="0" x2="250.72559967041016" y2="177.9749994277954" fill="rgb(0, 0, 0)" stroke="rgb(60, 60, 60)" stroke-width="1px" opacity="0.25"></line><line x1="278.58399963378906" y1="0" x2="278.58399963378906" y2="177.9749994277954" fill="rgb(0, 0, 0)" stroke="rgb(60, 60, 60)" stroke-width="1px" opacity="0.25"></line></g><g><line x1="0" y1="177.9749994277954" x2="278.58399963378906" y2="177.9749994277954" fill="rgb(0, 0, 0)" stroke="rgb(60, 60, 60)" stroke-width="1px" opacity="0.25"></line><line x1="0" y1="158.1999994913737" x2="278.58399963378906" y2="158.1999994913737" fill="rgb(0, 0, 0)" stroke="rgb(60, 60, 60)" stroke-width="1px" opacity="0.25"></line><line x1="0" y1="138.424999554952" x2="278.58399963378906" y2="138.424999554952" fill="rgb(0, 0, 0)" stroke="rgb(60, 60, 60)" stroke-width="1px" opacity="0.25"></line><line x1="0" y1="118.64999961853027" x2="278.58399963378906" y2="118.64999961853027" fill="rgb(0, 0, 0)" stroke="rgb(60, 60, 60)" stroke-width="1px" opacity="0.25"></line><line x1="0" y1="98.87499968210857" x2="278.58399963378906" y2="98.87499968210857" fill="rgb(0, 0, 0)" stroke="rgb(60, 60, 60)" stroke-width="1px" opacity="0.25"></line><line x1="0" y1="79.09999974568684" x2="278.58399963378906" y2="79.09999974568684" fill="rgb(0, 0, 0)" stroke="rgb(60, 60, 60)" stroke-width="1px" opacity="0.25"></line><line x1="0" y1="59.32499980926514" x2="278.58399963378906" y2="59.32499980926514" fill="rgb(0, 0, 0)" stroke="rgb(60, 60, 60)" stroke-width="1px" opacity="0.25"></line><line x1="0" y1="39.549999872843415" x2="278.58399963378906" y2="39.549999872843415" fill="rgb(0, 0, 0)" stroke="rgb(60, 60, 60)" stroke-width="1px" opacity="0.25"></line><line x1="0" y1="19.77499993642172" x2="278.58399963378906" y2="19.77499993642172" fill="rgb(0, 0, 0)" stroke="rgb(60, 60, 60)" stroke-width="1px" opacity="0.25"></line><line x1="0" y1="0" x2="278.58399963378906" y2="0" fill="rgb(0, 0, 0)" stroke="rgb(60, 60, 60)" stroke-width="1px" opacity="0.25"></line></g></g></g><g><g><line x1="0" y1="158.1999994913737" x2="278.58399963378906" y2="158.1999994913737" fill="rgb(0, 0, 0)" stroke="rgb(153, 153, 153)" stroke-width="1.5px"></line></g></g><g><g><line x1="27.858399963378908" y1="0" x2="27.858399963378908" y2="177.9749994277954" fill="rgb(0, 0, 0)" stroke="rgb(153, 153, 153)" stroke-width="1.5px"></line></g></g><g><g><g><g><g><path style="fill: none;" stroke="rgb(238, 51, 119)" stroke-width="2px" d="M34.544415954589844,-0.22027206350080064L35.10158395385742,2.45471338436559L35.658751953125,5.065653975412715L36.21591995239258,7.2177101499245L36.77308795166016,10.101482585377966L37.330255950927736,12.427936525919137L37.88742395019531,15.132162713037047L38.4445919494629,17.755333306924967L39.001759948730474,20.457277565987766L39.55892794799804,22.924315247741873L40.11609594726562,25.635123194291424L40.6732639465332,26.936387952986166L41.23043194580078,30.638382467470223L41.78759994506836,32.15919322164822L42.344767944335935,35.72400802809247L42.90193594360351,36.86991308994479L43.459103942871096,39.18701301135101L44.01627194213867,41.73534202270443L44.57343994140625,44.159984875798415L45.130607940673826,47.17211104962402L45.68777593994141,48.659286938626195L46.24494393920899,50.36861135262902L46.802111938476564,52.57109625126759L47.35927993774414,54.62131431422934L47.91644793701172,57.12415563575708L48.473615936279295,59.24343502547738L49.03078393554687,60.58773581575679L49.58795193481445,62.70878794297444L50.14511993408203,64.0752290930612L50.70228793334961,65.5661579050631L51.259455932617186,68.46854408423876L51.81662393188476,70.2678349262322L52.37379193115235,70.92121127691856L52.930959930419924,72.63213869823281L53.4881279296875,75.366822024268L54.04529592895508,75.02751252371097L54.60246392822266,77.78378930117665L55.15963192749024,76.89765628886987L55.716799926757815,78.97444655538234L56.27396792602539,80.74916895296437L56.83113592529296,82.21643926294041L57.388303924560546,82.00329115252073L57.94547192382812,84.47434106728079L58.5026399230957,85.2340062321701L59.05980792236328,84.3130408139313L59.61697592163086,86.8158915649138L60.17414392089844,86.63518077891376L60.731311920166014,87.9431168768605L61.28847991943359,87.82417373435199L61.845647918701175,89.28312726521813L62.40281591796875,90.59023357114484L62.95998391723633,91.30743790119065L63.517151916503906,90.60419859366387L64.07431991577148,91.74857608384293L64.63148791503906,91.38541477743722L65.18865591430665,93.76940253627679L65.74582391357421,93.38180008309905L66.30299191284179,94.78520469589655L66.86015991210937,94.69934479545964L67.41732791137696,94.46316524175654L67.97449591064454,96.28399767317926L68.53166390991211,96.5007054027758L69.08883190917969,97.10733051669688L69.64599990844727,96.53575468616759L70.20316790771484,96.15398435076706L70.76033590698242,97.85484111438359L71.31750390625,97.71616212303486L71.87467190551757,97.81265373372851L72.43183990478516,98.50361117641326L72.98900790405274,98.87563145557836L73.54617590332032,98.56036234996547L74.1033439025879,98.60078642257797L74.66051190185547,99.72802116397945L75.21767990112305,99.52904080935643L75.77484790039063,100.87265324943739L76.3320158996582,100.54166052799026L76.8891838989258,100.29062958301945L77.44635189819337,100.315443193255L78.00351989746095,100.57662023156172L78.56068789672851,100.9889985771559L79.11785589599609,101.0555469542174L79.67502389526366,101.45591688915799L80.23219189453124,101.22172223568464L80.78935989379882,100.88713217724155L81.3465278930664,102.50213375514856L81.90369589233399,102.70867653249964L82.46086389160156,102.78614421818845L83.01803189086914,103.20564180213637L83.57519989013672,104.07879516994792L84.13236788940429,102.47840453221193L84.68953588867187,104.12498063942682L85.24670388793945,102.92292788912778L85.80387188720702,102.85795894574078L86.36103988647461,104.6298289332539L86.91820788574219,103.29698493052388L87.47537588500977,104.09992186336717L88.03254388427735,103.71765176686365L88.58971188354492,103.2471785504121L89.1468798828125,104.31173570593644L89.70404788208008,104.03609859873511L90.26121588134765,104.28178304284954L90.81838388061524,104.76202517444608L91.37555187988282,103.96285059405727L91.9327198791504,104.62450129130707L92.48988787841797,105.21098980456009L93.04705587768555,104.97680458054151L93.60422387695313,105.46735310620511L94.1613918762207,105.4423886246932L94.71855987548828,103.98548600024021L95.27572787475587,104.74616483151765L95.83289587402344,104.61454378706662L96.39006387329101,105.86591730055663L96.94723187255859,105.64788001783707L97.50439987182617,105.474279040736L98.06156787109374,105.39436441153354L98.61873587036132,106.12195528601198L99.1759038696289,105.88016992144624L99.73307186889647,106.37521629703663L100.29023986816406,106.99091254644948L100.84740786743164,105.71875179991207L101.40457586669922,106.60744962391716L101.9617438659668,106.34786616346712L102.51891186523437,106.49630464050604L103.07607986450195,106.99879557063984L103.63324786376953,106.84297383051353L104.1904158630371,107.16182612894022L104.7475838623047,106.99762160352059L105.30475186157227,107.39131548448177L105.86191986083985,104.81822943962145L106.41908786010742,106.54252782780402L106.976255859375,106.76091400035018L107.53342385864258,106.78035282136504L108.09059185791016,108.02156138260959L108.64775985717773,106.71112176442057L109.20492785644532,106.70805719161929L109.7620958557129,107.88285410289654L110.31926385498048,105.68030791280194L110.87643185424805,105.72156177743447L111.43359985351563,105.46732481784079L111.99076785278321,107.44696341182551L112.54793585205078,106.70748199487814L113.10510385131836,107.74552823830777L113.66227185058592,107.0539107337889L114.21943984985352,108.32307762843584L114.77660784912109,107.19693198906066L115.33377584838867,107.8327884127785L115.89094384765625,106.35483453054447L116.44811184692382,107.67328918529067L117.0052798461914,108.13270636602071L117.56244784545898,107.40334275404491L118.11961584472655,106.9907286720814L118.67678384399414,107.34646428285328L119.23395184326172,108.21814665572022L119.7911198425293,108.18028268007863L120.34828784179687,107.02629186075835L120.90545584106445,107.14295778993915L121.46262384033203,107.02102079554015L122.0197918395996,108.5929109062243L122.57695983886718,107.41095232404685L123.13412783813477,107.50032941111415L123.69129583740235,108.06285767978859L124.24846383666993,108.13104678198063L124.8056318359375,107.21121761304198L125.36279983520508,108.66480578414219L125.91996783447266,107.90124625443157L126.47713583374023,107.04590512668649L127.03430383300781,108.13743995231683L127.5914718322754,108.29485998502719L128.14863983154297,108.29289865843437L128.70580783081056,108.5778850700433L129.26297583007812,109.04591605770861L129.8201438293457,108.1730267146307L130.3773118286133,107.60314818596059L130.93447982788086,106.72289915343224L131.49164782714843,107.6862688297859L132.04881582641602,108.73386711090075L132.60598382568358,106.98456180865976L133.16315182495117,108.90465811047943L133.72031982421873,108.42848950334489L134.27748782348633,108.16665711793144L134.83465582275392,108.76786029535795L135.39182382202148,108.57934192080575L135.94899182128907,108.54362786085244L136.50615982055663,107.9028209733787L137.06332781982422,109.309247726431L137.6204958190918,108.44159644547956L138.17766381835938,108.35404867263826L138.73483181762694,108.31324270710745L139.29199981689453,109.39874268168296L139.84916781616212,108.52020980992332L140.40633581542968,106.89777310692769L140.96350381469728,108.45554260908905L141.52067181396484,108.97692073713347L142.07783981323243,107.52954186200138L142.6350078125,107.25947284784358L143.19217581176758,108.21235225576213L143.74934381103515,108.15619042313324L144.30651181030274,108.75431016884893L144.86367980957033,107.59978658533396L145.4208478088379,108.68035495506312L145.97801580810548,108.09851516301326L146.53518380737304,108.78654475999095L147.09235180664064,108.28805191868098L147.6495198059082,108.8160636681583L148.2066878051758,107.85665907753673L148.76385580444338,108.52318008817686L149.32102380371094,108.65265593166698L149.87819180297853,109.15703275275541L150.4353598022461,108.26676963925797L150.9925278015137,107.79645200881016L151.54969580078125,108.52758835828331L152.10686380004884,108.33709922768351L152.6640317993164,108.34924908015871L153.221199798584,108.95823155777309L153.7783677978516,109.0657226274596L154.33553579711915,107.4009618167147L154.89270379638674,107.97873279902994L155.4498717956543,108.68175051436954L156.0070397949219,108.85356460979112L156.56420779418946,108.59883260382185L157.12137579345702,108.42225663373983L157.67854379272458,108.11184369733512L158.23571179199217,108.33189416864873L158.79287979125976,108.17373863846608L159.35004779052733,107.71994141278083L159.90721578979492,108.205581907235L160.46438378906248,108.72058100912538L161.02155178833007,108.23965995678516L161.57871978759763,108.13430937333214L162.13588778686523,109.31416990182258L162.6930557861328,108.11505442668538L163.25022378540038,109.40225986831335L163.80739178466797,107.78731958186238L164.36455978393553,108.56870549582163L164.92172778320312,108.40319027618852L165.4788957824707,108.44659405650934L166.03606378173828,108.00498440111839L166.59323178100584,108.13655358356816L167.15039978027343,109.43952978830423L167.70756777954102,108.68409373388067L168.26473577880859,108.29919753422284L168.82190377807618,109.5460213357848L169.37907177734374,108.9670433832586L169.93623977661133,109.16811236211386L170.4934077758789,109.46595583530598L171.05057577514648,108.4900166957397L171.60774377441405,108.51946016826885L172.16491177368164,109.79204052554367L172.72207977294923,109.25640977660964L173.2792477722168,108.51210047881841L173.83641577148438,109.19434982002015L174.39358377075195,109.30419825339997L174.95075177001954,109.1615683205013L175.5079197692871,108.53711682233158L176.0650877685547,108.76889282065561L176.62225576782228,108.98594944007876L177.17942376708984,108.82771375953052L177.73659176635744,108.25885361197591L178.293759765625,107.89532455683404L178.8509277648926,108.8486188607626L179.40809576416015,109.59625675608875L179.96526376342774,109.1424972482226L180.5224317626953,109.15818786096513L181.0795997619629,108.00339082326173L181.6367677612305,109.70996183647078L182.19393576049805,109.0863071272294L182.75110375976564,108.06565822785622L183.3082717590332,109.00310161831112L183.8654397583008,109.02442161555321L184.42260775756836,108.83893952543797L184.97977575683595,109.07796677448255L185.53694375610354,109.47153335780429L186.0941117553711,109.24161496207057L186.6512797546387,109.19476000130278L187.20844775390626,109.65266846926913L187.76561575317385,110.29939705434042L188.3227837524414,108.6164798284298L188.879951751709,109.54215054460042L189.43711975097656,108.98956563598426L189.99428775024415,108.95122547287663L190.55145574951175,109.90630194375733L191.1086237487793,109.4008360206426L191.66579174804687,110.16697922096107L192.22295974731443,109.21054962332043L192.78012774658202,109.37042602899919L193.3372957458496,110.15774778473815L193.89446374511718,109.01882051941796L194.45163174438474,108.29983873714741L195.00879974365233,109.82424682832136L195.56596774291992,110.17895462852296L196.1231357421875,110.40512010125697L196.68030374145508,109.34294859779023L197.23747174072264,109.73627001528787L197.79463973999023,109.83733962627389L198.3518077392578,110.5292588733455L198.90897573852538,109.99020051760142L199.46614373779295,109.56135362924594L200.02331173706054,110.13183564302153L200.58047973632813,110.39759068162061L201.1376477355957,110.3178740709684L201.69481573486328,109.27987497481263L202.25198373413085,110.81771532431094L202.80915173339844,110.48619926812391L203.366319732666,110.18262268642972L203.9234877319336,110.29513965551034L204.48065573120118,110.11978479982145L205.03782373046874,109.52422043634927L205.59499172973634,111.29153128247958L206.1521597290039,110.2467571230693L206.7093277282715,110.19873290990965L207.26649572753905,111.28335123046388L207.82366372680664,111.15659106994842L208.3808317260742,111.61554149266719L208.9379997253418,110.88282099479216L209.4951677246094,110.37879306353034L210.05233572387695,111.05951011833145L210.60950372314454,110.95274511666246L211.1666717224121,110.62507627802286L211.7238397216797,111.084884781126L212.28100772094726,110.78591920281588L212.83817572021485,111.35390241107659L213.3953437194824,110.85638080360825L213.95251171875,111.61202902076418L214.5096797180176,111.08024077465022L215.06684771728516,110.96285349217926L215.62401571655275,111.20873124011655L216.1811837158203,111.15212622311333L216.7383517150879,111.264765775106L217.29551971435546,112.05976782175769L217.85268771362306,111.63368376365072L218.40985571289065,111.3195886251571L218.9670237121582,112.09816927632134L219.5241917114258,112.07291719643884L220.08135971069336,111.90217334413403L220.63852770996095,111.55362769262668L221.19569570922852,111.80287175591798L221.7528637084961,112.06414308877243L222.31003170776367,112.36342926854483L222.86719970703126,111.90093337083135L223.42436770629885,111.90651560805706L223.98153570556642,112.22273708860205L224.538703704834,112.04926812386778L225.09587170410157,111.62833254806696L225.65303970336916,112.51382907217658L226.21020770263672,112.9622609380959L226.76737570190429,112.55809564760914L227.32454370117185,112.9927416506501L227.88171170043944,113.35007083927864L228.43887969970703,112.69579397566145L228.9960476989746,112.91189350542511L229.55321569824218,113.0669844628065L230.11038369750975,112.62350306064309L230.66755169677734,112.81421378343005L231.2247196960449,112.68076342475304L231.7818876953125,112.53379122793133L232.33905569458005,113.12034103264038L232.89622369384765,113.08599895835657L233.45339169311524,113.38396029973335L234.0105596923828,113.31765237376855L234.5677276916504,113.31998144909751L235.12489569091795,113.00772033955725L235.68206369018554,113.31465380715069L236.2392316894531,113.49227644671252L236.7963996887207,113.26750181855755L237.3535676879883,112.99366102249049L237.91073568725585,113.6192393405056L238.46790368652344,113.28963746363752L239.025071685791,113.40240431326963L239.5822396850586,113.41268713369975L240.13940768432616,113.14483404141363L240.69657568359375,113.2576150352279L241.2537436828613,113.30466801454592L241.8109116821289,113.47668012851773L242.3680796813965,113.52267229417377L242.92524768066406,113.56963569367144L243.48241567993165,113.6766600053467L244.0395836791992,113.75945061825496L244.5967516784668,113.56246459331646L245.15391967773436,113.51799528460629L245.71108767700196,113.52888630486927L246.26825567626955,113.42728864441597L246.8254236755371,113.44752425435915L247.3825916748047,113.47469051356059L247.93975967407226,113.42101334226443L248.49692767333985,113.49594921934666L249.05409567260742,113.4464870143341L249.611263671875,113.55071549266911L250.16843167114257,113.42736879478154" fill="none"></path></g><g><path style="fill: none;" stroke="rgb(204, 51, 17)" stroke-width="2px" d="M33.98724795532227,-1.0960421050118896L34.544415954589844,1.2830187637086965L35.10158395385742,4.008432935701876L35.658751953125,6.555686989211154L36.21591995239258,9.00221560683363L36.77308795166016,11.716738758563821L37.330255950927736,13.826258662593915L37.88742395019531,16.856083923028706L38.4445919494629,19.407496366092943L39.001759948730474,22.358576249717174L39.55892794799804,24.981115070135274L40.11609594726562,27.882680886745675L40.6732639465332,28.91762012482755L41.23043194580078,32.77672821474184L41.78759994506836,34.63774426768032L42.344767944335935,38.23526042327785L42.90193594360351,39.32699326745842L43.459103942871096,42.169521267734126L44.01627194213867,44.57300442431719L44.57343994140625,46.772047571963554L45.130607940673826,49.598932106770604L45.68777593994141,51.29145323236767L46.24494393920899,53.077655991136L46.802111938476564,54.96303775520832L47.35927993774414,57.39379089499532L47.91644793701172,59.62102811241343L48.473615936279295,61.8320466676217L49.03078393554687,63.54378502204645L49.58795193481445,65.10903679657031L50.14511993408203,66.15035977553362L50.70228793334961,67.48517453431123L51.259455932617186,70.52392005896141L51.81662393188476,72.17216046494377L52.37379193115235,72.7312894151725L52.930959930419924,73.93801446031163L53.4881279296875,76.51740409568781L54.04529592895508,76.43513210279207L54.60246392822266,78.71349582399019L55.15963192749024,77.73999891321014L55.716799926757815,79.57744604394316L56.27396792602539,81.5514929712474L56.83113592529296,82.32210101840096L57.388303924560546,82.76770404788832L57.94547192382812,84.10320244213699L58.5026399230957,85.21028172396086L59.05980792236328,84.1541545010037L59.61697592163086,86.03204456325875L60.17414392089844,85.3866361018557L60.731311920166014,86.94424058855854L61.28847991943359,86.92193521329264L61.845647918701175,88.53390050676269L62.40281591796875,88.54566846631958L62.95998391723633,89.52983480517544L63.517151916503906,89.51221115420442L64.07431991577148,90.63700838154705L64.63148791503906,89.37407435650516L65.18865591430665,91.40231707511809L65.74582391357421,91.3411340578225L66.30299191284179,91.92870695837443L66.86015991210937,92.6179718139274L67.41732791137696,92.26285383244317L67.97449591064454,93.53495800225194L68.53166390991211,93.20930235220642L69.08883190917969,94.4806333067238L69.64599990844727,93.77025590193375L70.20316790771484,92.82133215029255L70.76033590698242,94.99967764471187L71.31750390625,94.24128074148955L71.87467190551757,94.21942326532537L72.43183990478516,94.54554567338216L72.98900790405274,95.55272931133929L73.54617590332032,94.70872238823154L74.1033439025879,95.0340810104517L74.66051190185547,95.79890880182931L75.21767990112305,96.26390350505767L75.77484790039063,96.89021732054509L76.3320158996582,96.64598029773833L76.8891838989258,95.60337019819849L77.44635189819337,96.61261888675092L78.00351989746095,96.33432267330356L78.56068789672851,96.69577253366795L79.11785589599609,97.40127962506767L79.67502389526366,97.32564596833224L80.23219189453124,97.27310033160886L80.78935989379882,96.90428606706662L81.3465278930664,97.88854670047022L81.90369589233399,97.58472495295193L82.46086389160156,98.30234889373514L83.01803189086914,98.65438815823593L83.57519989013672,99.0008546149658L84.13236788940429,97.86802349215645L84.68953588867187,98.94982240573351L85.24670388793945,98.30182555899523L85.80387188720702,98.58659980787176L86.36103988647461,99.0815943214609L86.91820788574219,98.82582507546658L87.47537588500977,98.55937697194167L88.03254388427735,98.06491522254721L88.58971188354492,98.35849658218187L89.1468798828125,98.93778570671559L89.70404788208008,99.02349473587613L90.26121588134765,99.73781836748874L90.81838388061524,99.54076633636684L91.37555187988282,98.94192523736099L91.9327198791504,99.57089344436706L92.48988787841797,100.28580641690299L93.04705587768555,99.60601344866966L93.60422387695313,100.53763886552952L94.1613918762207,99.81203289128082L94.71855987548828,98.0439582593139L95.27572787475587,99.5470652121553L95.83289587402344,99.3306969429306L96.39006387329101,100.05007476230162L96.94723187255859,100.58414965119808L97.50439987182617,100.22654229365374L98.06156787109374,100.53498918873827L98.61873587036132,100.39242997675039L99.1759038696289,100.15697649106482L99.73307186889647,100.89890013679845L100.29023986816406,100.45721504576932L100.84740786743164,100.0715031982736L101.40457586669922,100.27399131007223L101.9617438659668,100.51058104505796L102.51891186523437,100.89318588720592L103.07607986450195,100.10569911600844L103.63324786376953,100.46439086085168L104.1904158630371,101.05224664504681L104.7475838623047,100.90917824250118L105.30475186157227,101.20686141496215L105.86191986083985,99.38968761199142L106.41908786010742,101.13508440522894L106.976255859375,101.24215114945066L107.53342385864258,100.85303055405446L108.09059185791016,101.78106334864576L108.64775985717773,100.55177361823446L109.20492785644532,100.32947893668484L109.7620958557129,101.5316259815316L110.31926385498048,100.24908340528896L110.87643185424805,100.67983504350862L111.43359985351563,100.11287964581818L111.99076785278321,101.14690422678707L112.54793585205078,100.4652630854182L113.10510385131836,101.44347000885743L113.66227185058592,100.97894206364033L114.21943984985352,101.73228949383163L114.77660784912109,100.42083149452712L115.33377584838867,101.21083593014903L115.89094384765625,100.69330501965207L116.44811184692382,101.41431884942624L117.0052798461914,101.86476861866701L117.56244784545898,101.2739897034922L118.11961584472655,101.24341941111766L118.67678384399414,101.7778526192955L119.23395184326172,101.53912239807626L119.7911198425293,101.21450870278318L120.34828784179687,100.83473269706717L120.90545584106445,100.91077182035785L121.46262384033203,101.00893244454635L122.0197918395996,102.0018115996126L122.57695983886718,100.05507237333138L123.13412783813477,101.53012198349529L123.69129583740235,101.4008441585554L124.24846383666993,102.03059501030764L124.8056318359375,101.00884286472599L125.36279983520508,101.05311415488593L125.91996783447266,101.81830498027232L126.47713583374023,100.61124047476135L127.03430383300781,101.35097648698759L127.5914718322754,101.39769000593378L128.14863983154297,100.94110637636307L128.70580783081056,101.52078210854249L129.26297583007812,102.24638336806379L129.8201438293457,102.03093447067947L130.3773118286133,100.67193316040873L130.93447982788086,100.73712841071028L131.49164782714843,101.21023244504356L132.04881582641602,101.94644184118465L132.60598382568358,100.67485157666101L133.16315182495117,101.31926994531288L133.72031982421873,101.92977527987311L134.27748782348633,101.82048318432491L134.83465582275392,101.89720594308665L135.39182382202148,101.53378061194728L135.94899182128907,101.96477270126366L136.50615982055663,101.35675674276354L137.06332781982422,101.85338726675582L137.6204958190918,101.78679174242045L138.17766381835938,101.24079802269073L138.73483181762694,101.91802146449838L139.29199981689453,101.42815185957845L139.84916781616212,101.34126414857126L140.40633581542968,101.06383073023562L140.96350381469728,101.33134436214989L141.52067181396484,101.86934190423199L142.07783981323243,101.37984947750299L142.6350078125,100.99521258785141L143.19217581176758,101.43584157994594L143.74934381103515,101.15534830353643L144.30651181030274,101.52325734042044L144.86367980957033,101.00870613763179L145.4208478088379,101.75142185756636L145.97801580810548,101.51776468301507L146.53518380737304,101.86908730895311L147.09235180664064,101.68689609855369L147.6495198059082,101.81269445468229L148.2066878051758,101.44290424157104L148.76385580444338,101.366921695009L149.32102380371094,102.33539742112232L149.87819180297853,101.89979904314926L150.4353598022461,101.34445130428458L150.9925278015137,101.61421857588964L151.54969580078125,101.26251877176067L152.10686380004884,101.38934965318693L152.6640317993164,101.40785495817924L153.221199798584,102.11729884694675L153.7783677978516,101.98581452958994L154.33553579711915,100.92140824534196L154.89270379638674,100.94046045871112L155.4498717956543,101.89379248045877L156.0070397949219,101.79572143609062L156.56420779418946,101.5796030474174L157.12137579345702,101.41600200710324L157.67854379272458,101.28616784433173L158.23571179199217,101.24616809718403L158.79287979125976,101.24340055220812L159.35004779052733,100.9023277436085L159.90721578979492,101.0724115340792L160.46438378906248,101.3443051477356L161.02155178833007,101.5841669035276L161.57871978759763,101.99101015916995L162.13588778686523,101.88944078708096L162.6930557861328,100.92073875405306L163.25022378540038,101.4842193976596L163.80739178466797,100.8568824863293L164.36455978393553,101.04263331590558L164.92172778320312,101.37464913319559L165.4788957824707,101.54837740793612L166.03606378173828,101.06019567542057L166.59323178100584,101.21800703050401L167.15039978027343,102.78355111812584L167.70756777954102,101.60279007670458L168.26473577880859,101.42350313837528L168.82190377807618,102.00590869771152L169.37907177734374,102.04894944402356L169.93623977661133,101.50900000480344L170.4934077758789,102.04729457471088L171.05057577514648,101.47575646200069L171.60774377441405,100.89821178660002L172.16491177368164,102.4334967538548L172.72207977294923,101.4351579444749L173.2792477722168,101.3141356071889L173.83641577148438,101.94898307924602L174.39358377075195,101.85199642217678L174.95075177001954,101.60460053202102L175.5079197692871,101.27362195475605L176.0650877685547,101.5793955994124L176.62225576782228,101.6855241128842L177.17942376708984,101.30011872266861L177.73659176635744,100.93096499775454L178.293759765625,101.01917754715737L178.8509277648926,101.12885153562388L179.40809576416015,101.99648867239314L179.96526376342774,100.92055959441238L180.5224317626953,101.36098113850191L181.0795997619629,100.85555293320628L181.6367677612305,102.42954109757746L182.19393576049805,101.48678892408527L182.75110375976564,100.66950036107725L183.3082717590332,101.15925681253991L183.8654397583008,100.9072404895453L184.42260775756836,101.68251611681156L184.97977575683595,101.6996730097713L185.53694375610354,101.63867858157118L186.0941117553711,101.59760859130672L186.6512797546387,101.40594077886028L187.20844775390626,101.7530201501504L187.76561575317385,102.22657679831279L188.3227837524414,100.89006473767601L188.879951751709,101.69198328940381L189.43711975097656,100.97175681910319L189.99428775024415,101.2710807166947L190.55145574951175,101.98397578590918L191.1086237487793,101.22593248724085L191.66579174804687,101.41691666421623L192.22295974731443,100.90151209577061L192.78012774658202,101.65396844248585L193.3372957458496,101.96618240475225L193.89446374511718,101.18994025837173L194.45163174438474,100.60529048879948L195.00879974365233,101.5584574950886L195.56596774291992,101.65191753607269L196.1231357421875,101.93356592069192L196.68030374145508,101.70028120960417L197.23747174072264,102.00515434132967L197.79463973999023,101.79962051563932L198.3518077392578,101.79964408927624L198.90897573852538,101.75944160885092L199.46614373779295,101.32177818028254L200.02331173706054,101.76473624770604L200.58047973632813,101.8111480240995L201.1376477355957,101.90022808334145L201.69481573486328,100.67036787091638L202.25198373413085,102.0839892979606L202.80915173339844,101.74051197839383L203.366319732666,101.34901516039479L203.9234877319336,101.60413377400975L204.48065573120118,101.40729862034762L205.03782373046874,101.19403735647067L205.59499172973634,101.79263328965241L206.1521597290039,101.58327582005154L206.7093277282715,101.63998456105726L207.26649572753905,102.26894805333593L207.82366372680664,102.39382703762415L208.3808317260742,102.07850607001001L208.9379997253418,102.13670937959728L209.4951677246094,101.74780566166085L210.05233572387695,101.935640400742L210.60950372314454,101.76220915382684L211.1666717224121,101.92114732875568L211.7238397216797,102.22498322045612L212.28100772094726,101.74856944749747L212.83817572021485,102.02147201281461L213.3953437194824,101.57873082285089L213.95251171875,102.25249365475679L214.5096797180176,102.10293778732724L215.06684771728516,101.5218664958414L215.62401571655275,102.0014579950586L216.1811837158203,102.24518111258021L216.7383517150879,101.81634836840688L217.29551971435546,102.54116698318201L217.85268771362306,102.64176040670198L218.40985571289065,102.16821318799437L218.9670237121582,102.55614567208916L219.5241917114258,102.00521091805831L220.08135971069336,102.19282877967969L220.63852770996095,101.94974686508264L221.19569570922852,102.13489420955345L221.7528637084961,102.59272252715421L222.31003170776367,102.50235063260834L222.86719970703126,102.36527936329844L223.42436770629885,101.99147691718122L223.98153570556642,102.15606805024656L224.538703704834,102.20923603098497L225.09587170410157,102.16442254717556L225.65303970336916,102.25383735206196L226.21020770263672,102.47361436918716L226.76737570190429,102.38138487205099L227.32454370117185,102.62202455786178L227.88171170043944,102.78085429406072L228.43887969970703,102.33079113246565L228.9960476989746,102.33011221172198L229.55321569824218,102.61252438217782L230.11038369750975,102.5446511667207L230.66755169677734,102.57129880590962L231.2247196960449,102.42361468525253L231.7818876953125,102.65714456216438L232.33905569458005,102.58582016626026L232.89622369384765,102.45268569431816L233.45339169311524,102.69125090007886L234.0105596923828,102.45240281067497L234.5677276916504,102.48986603448868L235.12489569091795,102.70522535205266L235.68206369018554,102.58590031662584L236.2392316894531,102.89437078534729L236.7963996887207,102.56166190313145L237.3535676879883,102.50772070710165L237.91073568725585,102.86099051545034L238.46790368652344,102.65017619508701L239.025071685791,102.73293851963096L239.5822396850586,102.62656484033505L240.13940768432616,102.61653190045642L240.69657568359375,102.54360921196826L241.2537436828613,102.65744630471711L241.8109116821289,102.77958131766634L242.3680796813965,102.67788936266531L242.92524768066406,102.76663939099019L243.48241567993165,102.72834637515643L244.0395836791992,102.74267443168424L244.5967516784668,102.82996289451928L245.15391967773436,102.78771893713558L245.71108767700196,102.74157118547578L246.26825567626955,102.66102478280352L246.8254236755371,102.75663473947588L247.3825916748047,102.65965279713403L247.93975967407226,102.65890787020696L248.49692767333985,102.6742401636681L249.05409567260742,102.67914819487753L249.611263671875,102.67131231796104L250.16843167114257,102.67163763415071" fill="none"></path></g></g></g></g></g></g><g transform="translate(51, 177)" clip-path="url(#clip_1)"><clipPath id="clip_1"><rect width="278" height="22"></rect></clipPath><g><g><line x1="0" y1="0" x2="0" y2="5" style="visibility: inherit;" fill="rgb(0, 0, 0)" stroke="rgb(204, 204, 204)" stroke-width="1px"></line><line x1="27.858399963378908" y1="0" x2="27.858399963378908" y2="5" style="visibility: inherit;" fill="rgb(0, 0, 0)" stroke="rgb(204, 204, 204)" stroke-width="1px"></line><line x1="55.716799926757815" y1="0" x2="55.716799926757815" y2="5" style="visibility: inherit;" fill="rgb(0, 0, 0)" stroke="rgb(204, 204, 204)" stroke-width="1px"></line><line x1="83.57519989013672" y1="0" x2="83.57519989013672" y2="5" style="visibility: inherit;" fill="rgb(0, 0, 0)" stroke="rgb(204, 204, 204)" stroke-width="1px"></line><line x1="111.43359985351563" y1="0" x2="111.43359985351563" y2="5" style="visibility: inherit;" fill="rgb(0, 0, 0)" stroke="rgb(204, 204, 204)" stroke-width="1px"></line><line x1="139.29199981689453" y1="0" x2="139.29199981689453" y2="5" style="visibility: inherit;" fill="rgb(0, 0, 0)" stroke="rgb(204, 204, 204)" stroke-width="1px"></line><line x1="167.15039978027343" y1="0" x2="167.15039978027343" y2="5" style="visibility: inherit;" fill="rgb(0, 0, 0)" stroke="rgb(204, 204, 204)" stroke-width="1px"></line><line x1="195.00879974365233" y1="0" x2="195.00879974365233" y2="5" style="visibility: inherit;" fill="rgb(0, 0, 0)" stroke="rgb(204, 204, 204)" stroke-width="1px"></line><line x1="222.86719970703126" y1="0" x2="222.86719970703126" y2="5" style="visibility: inherit;" fill="rgb(0, 0, 0)" stroke="rgb(204, 204, 204)" stroke-width="1px"></line><line x1="250.72559967041016" y1="0" x2="250.72559967041016" y2="5" style="visibility: inherit;" fill="rgb(0, 0, 0)" stroke="rgb(204, 204, 204)" stroke-width="1px"></line><line x1="278.58399963378906" y1="0" x2="278.58399963378906" y2="5" style="visibility: inherit;" fill="rgb(0, 0, 0)" stroke="rgb(204, 204, 204)" stroke-width="1px"></line></g><g transform="translate(0, 8)"><text style="text-anchor: middle; visibility: hidden; font-family: &quot;Helvetica Neue&quot;, sans-serif; font-size: 12px; font-weight: 200;" x="0" y="0" dx="0em" dy="0.95em" fill="rgb(50, 49, 63)" stroke="none" stroke-width="1px">-50</text><text style="text-anchor: middle; visibility: inherit; font-family: &quot;Helvetica Neue&quot;, sans-serif; font-size: 12px; font-weight: 200;" x="27.858399963378908" y="0" dx="0em" dy="0.95em" fill="rgb(50, 49, 63)" stroke="none" stroke-width="1px">0</text><text style="text-anchor: middle; visibility: hidden; font-family: &quot;Helvetica Neue&quot;, sans-serif; font-size: 12px; font-weight: 200;" x="55.716799926757815" y="0" dx="0em" dy="0.95em" fill="rgb(50, 49, 63)" stroke="none" stroke-width="1px">50</text><text style="text-anchor: middle; visibility: inherit; font-family: &quot;Helvetica Neue&quot;, sans-serif; font-size: 12px; font-weight: 200;" x="83.57519989013672" y="0" dx="0em" dy="0.95em" fill="rgb(50, 49, 63)" stroke="none" stroke-width="1px">100</text><text style="text-anchor: middle; visibility: hidden; font-family: &quot;Helvetica Neue&quot;, sans-serif; font-size: 12px; font-weight: 200;" x="111.43359985351563" y="0" dx="0em" dy="0.95em" fill="rgb(50, 49, 63)" stroke="none" stroke-width="1px">150</text><text style="text-anchor: middle; visibility: inherit; font-family: &quot;Helvetica Neue&quot;, sans-serif; font-size: 12px; font-weight: 200;" x="139.29199981689453" y="0" dx="0em" dy="0.95em" fill="rgb(50, 49, 63)" stroke="none" stroke-width="1px">200</text><text style="text-anchor: middle; visibility: hidden; font-family: &quot;Helvetica Neue&quot;, sans-serif; font-size: 12px; font-weight: 200;" x="167.15039978027343" y="0" dx="0em" dy="0.95em" fill="rgb(50, 49, 63)" stroke="none" stroke-width="1px">250</text><text style="text-anchor: middle; visibility: inherit; font-family: &quot;Helvetica Neue&quot;, sans-serif; font-size: 12px; font-weight: 200;" x="195.00879974365233" y="0" dx="0em" dy="0.95em" fill="rgb(50, 49, 63)" stroke="none" stroke-width="1px">300</text><text style="text-anchor: middle; visibility: hidden; font-family: &quot;Helvetica Neue&quot;, sans-serif; font-size: 12px; font-weight: 200;" x="222.86719970703126" y="0" dx="0em" dy="0.95em" fill="rgb(50, 49, 63)" stroke="none" stroke-width="1px">350</text><text style="text-anchor: middle; visibility: inherit; font-family: &quot;Helvetica Neue&quot;, sans-serif; font-size: 12px; font-weight: 200;" x="250.72559967041016" y="0" dx="0em" dy="0.95em" fill="rgb(50, 49, 63)" stroke="none" stroke-width="1px">400</text><text style="text-anchor: middle; visibility: hidden; font-family: &quot;Helvetica Neue&quot;, sans-serif; font-size: 12px; font-weight: 200;" x="278.58399963378906" y="0" dx="0em" dy="0.95em" fill="rgb(50, 49, 63)" stroke="none" stroke-width="1px">450</text></g><line x1="0" y1="0" x2="278.58399963378906" y2="0" fill="rgb(0, 0, 0)" stroke="rgb(204, 204, 204)" stroke-width="1px"></line></g></g></g></g></svg>