<svg viewBox="0 0 330 200" xmlns="http://www.w3.org/2000/svg"><g><g><g><g><g><line x1="61.77000045776367" y1="177.9749994277954" x2="56.77000045776367" y2="177.9749994277954" style="visibility: inherit;" fill="rgb(0, 0, 0)" stroke="rgb(204, 204, 204)" stroke-width="1px"></line><line x1="61.77000045776367" y1="164.28461485642654" x2="56.77000045776367" y2="164.28461485642654" style="visibility: inherit;" fill="rgb(0, 0, 0)" stroke="rgb(204, 204, 204)" stroke-width="1px"></line><line x1="61.77000045776367" y1="150.59423028505765" x2="56.77000045776367" y2="150.59423028505765" style="visibility: inherit;" fill="rgb(0, 0, 0)" stroke="rgb(204, 204, 204)" stroke-width="1px"></line><line x1="61.77000045776367" y1="136.90384571368878" x2="56.77000045776367" y2="136.90384571368878" style="visibility: inherit;" fill="rgb(0, 0, 0)" stroke="rgb(204, 204, 204)" stroke-width="1px"></line><line x1="61.77000045776367" y1="123.21346114231991" x2="56.77000045776367" y2="123.21346114231991" style="visibility: inherit;" fill="rgb(0, 0, 0)" stroke="rgb(204, 204, 204)" stroke-width="1px"></line><line x1="61.77000045776367" y1="109.52307657095103" x2="56.77000045776367" y2="109.52307657095103" style="visibility: inherit;" fill="rgb(0, 0, 0)" stroke="rgb(204, 204, 204)" stroke-width="1px"></line><line x1="61.77000045776367" y1="95.83269199958215" x2="56.77000045776367" y2="95.83269199958215" style="visibility: inherit;" fill="rgb(0, 0, 0)" stroke="rgb(204, 204, 204)" stroke-width="1px"></line><line x1="61.77000045776367" y1="82.14230742821327" x2="56.77000045776367" y2="82.14230742821327" style="visibility: inherit;" fill="rgb(0, 0, 0)" stroke="rgb(204, 204, 204)" stroke-width="1px"></line><line x1="61.77000045776367" y1="68.4519228568444" x2="56.77000045776367" y2="68.4519228568444" style="visibility: inherit;" fill="rgb(0, 0, 0)" stroke="rgb(204, 204, 204)" stroke-width="1px"></line><line x1="61.77000045776367" y1="54.76153828547551" x2="56.77000045776367" y2="54.76153828547551" style="visibility: inherit;" fill="rgb(0, 0, 0)" stroke="rgb(204, 204, 204)" stroke-width="1px"></line><line x1="61.77000045776367" y1="41.07115371410666" x2="56.77000045776367" y2="41.07115371410666" style="visibility: inherit;" fill="rgb(0, 0, 0)" stroke="rgb(204, 204, 204)" stroke-width="1px"></line><line x1="61.77000045776367" y1="27.38076914273779" x2="56.77000045776367" y2="27.38076914273779" style="visibility: inherit;" fill="rgb(0, 0, 0)" stroke="rgb(204, 204, 204)" stroke-width="1px"></line><line x1="61.77000045776367" y1="13.690384571368895" x2="56.77000045776367" y2="13.690384571368895" style="visibility: inherit;" fill="rgb(0, 0, 0)" stroke="rgb(204, 204, 204)" stroke-width="1px"></line><line x1="61.77000045776367" y1="0" x2="56.77000045776367" y2="0" style="visibility: inherit;" fill="rgb(0, 0, 0)" stroke="rgb(204, 204, 204)" stroke-width="1px"></line></g><g transform="translate(51.77000045776367, 0)"><text style="text-anchor: end; visibility: hidden; font-family: &quot;Helvetica Neue&quot;, sans-serif; font-size: 12px; font-weight: 200;" x="0" y="177.9749994277954" dx="0em" dy="0.3em" fill="rgb(50, 49, 63)" stroke="none" stroke-width="1px">-1e-3</text><text style="text-anchor: end; visibility: inherit; font-family: &quot;Helvetica Neue&quot;, sans-serif; font-size: 12px; font-weight: 200;" x="0" y="164.28461485642654" dx="0em" dy="0.3em" fill="rgb(50, 49, 63)" stroke="none" stroke-width="1px">0</text><text style="text-anchor: end; visibility: hidden; font-family: &quot;Helvetica Neue&quot;, sans-serif; font-size: 12px; font-weight: 200;" x="0" y="150.59423028505765" dx="0em" dy="0.3em" fill="rgb(50, 49, 63)" stroke="none" stroke-width="1px">1e-3</text><text style="text-anchor: end; visibility: inherit; font-family: &quot;Helvetica Neue&quot;, sans-serif; font-size: 12px; font-weight: 200;" x="0" y="136.90384571368878" dx="0em" dy="0.3em" fill="rgb(50, 49, 63)" stroke="none" stroke-width="1px">2e-3</text><text style="text-anchor: end; visibility: hidden; font-family: &quot;Helvetica Neue&quot;, sans-serif; font-size: 12px; font-weight: 200;" x="0" y="123.21346114231991" dx="0em" dy="0.3em" fill="rgb(50, 49, 63)" stroke="none" stroke-width="1px">3e-3</text><text style="text-anchor: end; visibility: inherit; font-family: &quot;Helvetica Neue&quot;, sans-serif; font-size: 12px; font-weight: 200;" x="0" y="109.52307657095103" dx="0em" dy="0.3em" fill="rgb(50, 49, 63)" stroke="none" stroke-width="1px">4e-3</text><text style="text-anchor: end; visibility: hidden; font-family: &quot;Helvetica Neue&quot;, sans-serif; font-size: 12px; font-weight: 200;" x="0" y="95.83269199958215" dx="0em" dy="0.3em" fill="rgb(50, 49, 63)" stroke="none" stroke-width="1px">5e-3</text><text style="text-anchor: end; visibility: inherit; font-family: &quot;Helvetica Neue&quot;, sans-serif; font-size: 12px; font-weight: 200;" x="0" y="82.14230742821327" dx="0em" dy="0.3em" fill="rgb(50, 49, 63)" stroke="none" stroke-width="1px">6e-3</text><text style="text-anchor: end; visibility: hidden; font-family: &quot;Helvetica Neue&quot;, sans-serif; font-size: 12px; font-weight: 200;" x="0" y="68.4519228568444" dx="0em" dy="0.3em" fill="rgb(50, 49, 63)" stroke="none" stroke-width="1px">7e-3</text><text style="text-anchor: end; visibility: inherit; font-family: &quot;Helvetica Neue&quot;, sans-serif; font-size: 12px; font-weight: 200;" x="0" y="54.76153828547551" dx="0em" dy="0.3em" fill="rgb(50, 49, 63)" stroke="none" stroke-width="1px">8e-3</text><text style="text-anchor: end; visibility: hidden; font-family: &quot;Helvetica Neue&quot;, sans-serif; font-size: 12px; font-weight: 200;" x="0" y="41.07115371410666" dx="0em" dy="0.3em" fill="rgb(50, 49, 63)" stroke="none" stroke-width="1px">9e-3</text><text style="text-anchor: end; visibility: inherit; font-family: &quot;Helvetica Neue&quot;, sans-serif; font-size: 12px; font-weight: 200;" x="0" y="27.38076914273779" dx="0em" dy="0.3em" fill="rgb(50, 49, 63)" stroke="none" stroke-width="1px">0.01</text><text style="text-anchor: end; visibility: hidden; font-family: &quot;Helvetica Neue&quot;, sans-serif; font-size: 12px; font-weight: 200;" x="0" y="13.690384571368895" dx="0em" dy="0.3em" fill="rgb(50, 49, 63)" stroke="none" stroke-width="1px">0.011</text><text style="text-anchor: end; visibility: hidden; font-family: &quot;Helvetica Neue&quot;, sans-serif; font-size: 12px; font-weight: 200;" x="0" y="0" dx="0em" dy="0.3em" fill="rgb(50, 49, 63)" stroke="none" stroke-width="1px">0.012</text></g><line x1="61.77000045776367" y1="0" x2="61.77000045776367" y2="177.9749994277954" fill="rgb(0, 0, 0)" stroke="rgb(204, 204, 204)" stroke-width="1px"></line></g></g><g transform="translate(61, 0)" clip-path="url(#clip_0)"><clipPath id="clip_0"><rect width="268" height="177"></rect></clipPath><g><g><g><line x1="0" y1="0" x2="0" y2="177.9749994277954" fill="rgb(0, 0, 0)" stroke="rgb(60, 60, 60)" stroke-width="1px" opacity="0.25"></line><line x1="26.822999954223633" y1="0" x2="26.822999954223633" y2="177.9749994277954" fill="rgb(0, 0, 0)" stroke="rgb(60, 60, 60)" stroke-width="1px" opacity="0.25"></line><line x1="53.645999908447266" y1="0" x2="53.645999908447266" y2="177.9749994277954" fill="rgb(0, 0, 0)" stroke="rgb(60, 60, 60)" stroke-width="1px" opacity="0.25"></line><line x1="80.4689998626709" y1="0" x2="80.4689998626709" y2="177.9749994277954" fill="rgb(0, 0, 0)" stroke="rgb(60, 60, 60)" stroke-width="1px" opacity="0.25"></line><line x1="107.29199981689453" y1="0" x2="107.29199981689453" y2="177.9749994277954" fill="rgb(0, 0, 0)" stroke="rgb(60, 60, 60)" stroke-width="1px" opacity="0.25"></line><line x1="134.11499977111816" y1="0" x2="134.11499977111816" y2="177.9749994277954" fill="rgb(0, 0, 0)" stroke="rgb(60, 60, 60)" stroke-width="1px" opacity="0.25"></line><line x1="160.9379997253418" y1="0" x2="160.9379997253418" y2="177.9749994277954" fill="rgb(0, 0, 0)" stroke="rgb(60, 60, 60)" stroke-width="1px" opacity="0.25"></line><line x1="187.76099967956543" y1="0" x2="187.76099967956543" y2="177.9749994277954" fill="rgb(0, 0, 0)" stroke="rgb(60, 60, 60)" stroke-width="1px" opacity="0.25"></line><line x1="214.58399963378906" y1="0" x2="214.58399963378906" y2="177.9749994277954" fill="rgb(0, 0, 0)" stroke="rgb(60, 60, 60)" stroke-width="1px" opacity="0.25"></line><line x1="241.4069995880127" y1="0" x2="241.4069995880127" y2="177.9749994277954" fill="rgb(0, 0, 0)" stroke="rgb(60, 60, 60)" stroke-width="1px" opacity="0.25"></line><line x1="268.2299995422363" y1="0" x2="268.2299995422363" y2="177.9749994277954" fill="rgb(0, 0, 0)" stroke="rgb(60, 60, 60)" stroke-width="1px" opacity="0.25"></line></g><g><line x1="0" y1="177.9749994277954" x2="268.2299995422363" y2="177.9749994277954" fill="rgb(0, 0, 0)" stroke="rgb(60, 60, 60)" stroke-width="1px" opacity="0.25"></line><line x1="0" y1="164.28461485642654" x2="268.2299995422363" y2="164.28461485642654" fill="rgb(0, 0, 0)" stroke="rgb(60, 60, 60)" stroke-width="1px" opacity="0.25"></line><line x1="0" y1="150.59423028505765" x2="268.2299995422363" y2="150.59423028505765" fill="rgb(0, 0, 0)" stroke="rgb(60, 60, 60)" stroke-width="1px" opacity="0.25"></line><line x1="0" y1="136.90384571368878" x2="268.2299995422363" y2="136.90384571368878" fill="rgb(0, 0, 0)" stroke="rgb(60, 60, 60)" stroke-width="1px" opacity="0.25"></line><line x1="0" y1="123.21346114231991" x2="268.2299995422363" y2="123.21346114231991" fill="rgb(0, 0, 0)" stroke="rgb(60, 60, 60)" stroke-width="1px" opacity="0.25"></line><line x1="0" y1="109.52307657095103" x2="268.2299995422363" y2="109.52307657095103" fill="rgb(0, 0, 0)" stroke="rgb(60, 60, 60)" stroke-width="1px" opacity="0.25"></line><line x1="0" y1="95.83269199958215" x2="268.2299995422363" y2="95.83269199958215" fill="rgb(0, 0, 0)" stroke="rgb(60, 60, 60)" stroke-width="1px" opacity="0.25"></line><line x1="0" y1="82.14230742821327" x2="268.2299995422363" y2="82.14230742821327" fill="rgb(0, 0, 0)" stroke="rgb(60, 60, 60)" stroke-width="1px" opacity="0.25"></line><line x1="0" y1="68.4519228568444" x2="268.2299995422363" y2="68.4519228568444" fill="rgb(0, 0, 0)" stroke="rgb(60, 60, 60)" stroke-width="1px" opacity="0.25"></line><line x1="0" y1="54.76153828547551" x2="268.2299995422363" y2="54.76153828547551" fill="rgb(0, 0, 0)" stroke="rgb(60, 60, 60)" stroke-width="1px" opacity="0.25"></line><line x1="0" y1="41.07115371410666" x2="268.2299995422363" y2="41.07115371410666" fill="rgb(0, 0, 0)" stroke="rgb(60, 60, 60)" stroke-width="1px" opacity="0.25"></line><line x1="0" y1="27.38076914273779" x2="268.2299995422363" y2="27.38076914273779" fill="rgb(0, 0, 0)" stroke="rgb(60, 60, 60)" stroke-width="1px" opacity="0.25"></line><line x1="0" y1="13.690384571368895" x2="268.2299995422363" y2="13.690384571368895" fill="rgb(0, 0, 0)" stroke="rgb(60, 60, 60)" stroke-width="1px" opacity="0.25"></line><line x1="0" y1="0" x2="268.2299995422363" y2="0" fill="rgb(0, 0, 0)" stroke="rgb(60, 60, 60)" stroke-width="1px" opacity="0.25"></line></g></g></g><g><g><line x1="0" y1="164.28461485642654" x2="268.2299995422363" y2="164.28461485642654" fill="rgb(0, 0, 0)" stroke="rgb(153, 153, 153)" stroke-width="1.5px"></line></g></g><g><g><line x1="26.822999954223633" y1="0" x2="26.822999954223633" y2="177.9749994277954" fill="rgb(0, 0, 0)" stroke="rgb(153, 153, 153)" stroke-width="1.5px"></line></g></g><g><g><g><g><g><path style="fill: none;" stroke="rgb(187, 187, 187)" stroke-width="2px" d="M26.8793282541275,162.91530838159414L27.0469720038414,162.91133979337422L27.13012330369949,162.90761007151187L27.458705053138733,162.88144822872002L27.541856352996824,162.8719373034966L27.599525802898405,162.86465556518547L27.608913852882385,162.86341700626562L27.67328905277252,162.8545234678996L27.690724002742765,162.85199445290712L27.780581052589415,162.83814687808297L27.906649152374264,162.8164224908776L28.18292605190277,162.7594407121003L28.61075290117264,162.64582419807763L28.68049270105362,162.62438310358326L28.6898807510376,162.62143432927851L28.74889135093689,162.60255980299465L29.148554050254823,162.45932585284822L29.152577500247958,162.45774762158504L29.34033849992752,162.38107371224407L29.39398449983597,162.3580813809748L29.553581349563597,162.28682947896266L29.917032998943327,162.10866745007914L30.027007298755645,162.05041095371314L30.15575769853592,161.97964574937532L30.157098848533632,161.97889408735108L30.423987698078154,161.82335264276173L30.897413647270202,161.5183378356387L31.15491444683075,161.3368579749631L31.176372846794127,161.32124041835937L31.255500696659087,161.26299467994443L31.67528064594269,160.93676120892601L31.67796294593811,160.93458371994512L31.74502044582367,160.8797596076278L31.94753409547806,160.7097218239996L32.12858934516907,160.55202619932328L32.612744494342806,160.1041212980448L32.724059944152835,159.99576442597862L32.84744574394226,159.87331822402166L32.87024529390335,159.85042331197576L33.094217343521116,159.62106180339322L33.48985659284592,159.19622354293477L33.70846404247284,158.95075299876262L33.9914466919899,158.62171508928276L34.01022279195785,158.59943417733191L34.49840139112473,158.00061992627602L34.687503540802,157.75860905947275L34.74517299070359,157.68369307902177L34.856488440513616,157.5376224165607L35.13812994003296,157.15945015554064L35.16361178998947,157.12462866020746L35.80736378889084,156.2118045604022L35.82345758886338,156.1881713341602L36.01524203853607,155.90351913693888L36.165450838279725,155.67668335619715L36.418928187847136,155.28618646770096L36.82797893714905,154.6357352469367L36.83200238714218,154.62921353794508L37.28128763637543,153.88593793421654L37.32822788629532,153.806570552687L37.64071583576202,153.2700213300908L37.793606935501096,153.0023419920841L37.84859408540726,152.90524630411068L38.22009263477326,152.23788995937915L38.23350413475037,152.213428769349L38.35823108453751,151.98471791758362L38.7297296339035,151.2904802422785L38.80617518377304,151.14521921524457L39.24204893302918,150.30145398920791L39.5210081325531,149.7477127639498L39.63634703235626,149.51566136916233L39.65378198232651,149.48042788414824L39.82947263202667,149.12307743816262L40.769618780422206,147.14097516111536L40.87691078023911,146.9074064967873L40.93458023014068,146.78124999704625L41.04857797994614,146.5306120503868L41.28059692955017,146.01535560201543L41.44421722927094,145.6478894945025L41.44824067926407,145.63880978381695L41.53005082912445,145.4537698382293L41.602472929000854,145.2892640320962L41.712447228813176,145.03820533001792L42.28914172782898,143.69723230992946L42.33474082775116,143.5894711095973L42.494337677478796,143.2103306329828L42.593582777309415,142.97302138923067L42.87522427682876,142.29320494652836L42.88193002681732,142.2769054553609L43.13674852638244,141.6535977404217L43.30573342609406,141.23609042593935L44.09298847475052,139.24827607532757L44.303549024391174,138.70493739029143L44.33976007432938,138.61101011812332L45.05861647310257,136.7173796367343L45.08946292304993,136.63490838710572L45.344281422615055,135.94987075216085L45.89549407167435,134.44558725383365L45.99339802150727,134.17525508478673L46.052408621406556,134.01186810556274L46.198593971157074,133.60565743656736L46.45475362071991,132.8889324560283L46.49498812065124,132.77579387394206L46.64385577039719,132.3558640282605L46.76992387018203,131.9986394901464L47.57461386880875,129.68469187683803L47.9648885181427,128.54212097442561L48.436973317337035,127.14314108227975L48.711909066867825,126.32015623324386L49.430765465641024,124.1409937933033L49.711065815162655,123.28100796774021L49.752641465091706,123.1529771938608L50.04769446458817,122.24093563538369L50.07719976453781,122.1494053940864L50.35079436407089,121.29790161526167L50.36957046403885,121.23928273532238L51.568558561992646,117.45092207088155L52.46042331047058,114.58037878930335L52.53150426034927,114.34986857061435L53.01700055952072,112.76910321229454L53.163185909271235,112.29105811815981L53.1819620092392,112.22958957652035L53.28523055906296,111.89125440667817L53.63929415845871,110.72791986185548L53.71708085832596,110.47167343671568L53.72915120830535,110.43189292439145L53.83107860813141,110.09572847000541L53.9732405078888,109.62622279834798L53.98396970787048,109.59075821660764L54.07919135770798,109.2758291607075L54.236105907440184,108.75617071814388L54.36887975721359,108.31580554678034L54.421184607124324,108.14216743553435L54.690755756664274,107.24589464263961L54.694779206657415,107.2325005951407L54.79268315649033,106.9064278957241L55.094441905975344,105.89966217981598L55.18027550582885,105.61284086090903L55.29829670562744,105.21814677773312L55.41497675542831,104.82759012284224L55.6885713549614,103.91054731245514L56.12444510421753,102.44626107924365L56.656881653308865,100.652963233766L56.77087940311432,100.26845653179107L56.80843160305023,100.14175815007125L57.85452860126495,96.60688350021952L57.86794010124206,96.56151841597286L57.92695070114136,96.36190184515615L57.96182060108185,96.24394370099988L58.05301880092621,95.9354216026135L58.15360505075455,95.59511971994246L58.242120950603486,95.29564386306056L58.39367090034485,94.78290238457895L58.5680204000473,94.19304791297652L58.58277305002212,94.14314377027235L58.60959604997635,94.0524008516148L58.927448599433895,92.97732613097044L59.20774894895553,92.02970205173408L59.38880419864655,91.4179172976965L59.39148649864197,91.4088583060278L59.442450198554994,91.23670558891186L59.84345404787064,89.88310990625898L59.97488674764633,89.4398950731953L59.98561594762802,89.40372285734152L60.218976047229766,88.617439355974L60.26323399715424,88.46840906164651L60.6910608464241,87.02961040668382L60.79701169624329,86.6738425748303L60.87613954610824,86.40829490490188L61.44076369514466,84.51766230587192L61.487703945064546,84.36084166121428L61.58694904489517,84.02947764365197L62.09926834402084,82.32344192200348L62.761796442890166,80.12981442077066L62.76313759288788,80.125390113791L63.24058699207306,78.5546272592912L63.24729274206162,78.53263322603502L63.71133064126968,77.01515330775409L63.842763341045384,76.58708566976773L63.889703590965276,76.43438970323088L64.14049864053726,75.62035546946795L64.26254329032898,75.22531713185849L64.96262358913421,72.97400788775552L65.10344433889388,72.52434784668547L65.67611538791657,70.7074685725079L65.71098528785706,70.59746653081648L65.799501187706,70.31856943896385L65.98592103738785,69.7327950199075L66.06907233724594,69.4722199140196L66.34803153676987,68.60129444756734L66.36948993673325,68.53450908745378L66.53579253644943,68.01798081020283L66.82816323595047,67.11444679879251L67.06420563554764,66.3893385852877L67.09907553548814,66.28255596005839L67.29085998516082,65.69682616657677L67.49605593481064,65.07312638408823L67.68784038448334,64.49304491335005L67.87828368415833,63.91979753062657L68.00435178394316,63.541876288464294L68.02312788391113,63.48569268988844L68.94315678234099,60.767944188619694L68.99277933225632,60.62337007668239L69.33209028167724,59.640517293743514L69.5788618812561,58.93210542026709L69.65396628112794,58.71759028257512L69.74516448097228,58.457792936703825L70.01741793050766,57.68676500680934L70.3232001299858,56.82904871047501L70.4667031797409,56.429586065885886L70.62093542947768,56.0024683151329L70.76175617923737,55.614531818986435L70.93878797893524,55.12960482372128L70.94951717891693,55.100317696538994L71.1265489786148,54.618705743967496L71.32369802827836,54.08609313457006L71.44440152807236,53.76197121027704L71.58388112783432,53.389296660685744L71.62143332777023,53.28930987297852L72.06937742700578,52.10800715924783L72.0854712269783,52.06596986785905L72.11095307693482,51.99945226119384L72.13375262689591,51.939998245499L72.20617472677232,51.75151256803454L72.25579727668763,51.62269765905647L72.30541982660293,51.49415050352668L72.4703812763214,51.06874127477738L72.90759617557525,49.95577944119344L72.9357603255272,49.884812027220164L73.12620362520218,49.40734387801578L73.2254487250328,49.16014369438048L73.47222032461167,48.55041809186224L74.20985282335282,46.770380417159316L74.23801697330475,46.70369705835941L74.2688634232521,46.63077886926254L74.4110253230095,46.29620181032021L74.53172882280349,46.01405342659493L74.79727652235032,45.39963576364872L74.90188622217178,45.159983677223664L75.04136582193374,44.84258108946747L75.15402242174149,44.587985810592414L75.43432277126311,43.961493742142636L75.47321612119674,43.87535363276362L75.9479832203865,42.83953029262892L75.98821772031785,42.75309692947317L76.13306192007065,42.44367594451026L76.24437736988068,42.207746906033464L76.32082291975021,42.04667408161299L76.71646216907502,41.22543600507339L77.10137221841812,40.44666872550562L77.4701884677887,39.719412109331984L77.62039726753235,39.42859361394633L78.37546471624374,38.014485651969466L78.39692311620712,37.97548289966184L78.75232786560059,37.33894370181736L78.91326586532593,37.05668056661423L79.1023680150032,36.72980460685261L79.52483026428223,36.0184219451161L80.06933716335297,35.14035638670819L80.17528801317215,34.97464250251656L80.30537956295014,34.773470411666665L80.34695521287918,34.709706840470034L80.49582286262512,34.483557177939645L80.86598026199341,33.93578462330072L81.13957486152648,33.54432908183324L81.35818231115341,33.239816910089814L81.36354691114427,33.232434565014245L81.40780486106873,33.17171828306297L81.43462786102295,33.13506156096935L81.53253181085586,33.00223035026619L81.86379586029054,32.56381595402627L82.1373904598236,32.21461445673913L82.17360150976181,32.169274872820836L82.2674820096016,32.05268737131678L82.53302970914841,31.7304397211621L82.55448810911179,31.70488839209233L83.33101395778657,30.829334616033094L83.7548173570633,30.39218248604962L83.7789580570221,30.368161176684623L84.06059955654145,30.094759405605004L85.18716555461883,29.1303242348624L85.30652790441513,29.040333575893044L85.34944470434189,29.008547416526255L85.44600750417709,28.938141009778064L85.48221855411529,28.912130674796828L85.48758315410613,28.908292875370677L85.57207560396195,28.848532855734902L85.82421180353164,28.677208899292367L85.93150380334855,28.607491001411347L86.10182985305786,28.50074662667467L86.11121790304185,28.49500905278174L86.17022850294113,28.459244842182557L86.24130945281982,28.416927047181247L86.92797825164794,28.051507341023438L87.12646845130921,27.960547669574368L87.59050635051727,27.773668512799958L87.60257670049668,27.769295206477125L87.67365765037536,27.743998880691464L87.85471290006637,27.683422850546464L88.05722654972077,27.622183811862726L88.94238554821014,27.43563615935767L88.96384394817353,27.43275462224699L89.0697947979927,27.419660203606952L89.18513369779586,27.407560297774978L90.26073599596023,27.384877755651644L90.64162259531021,27.393267363699522L90.7127035451889,27.395332890300978L90.75427919511795,27.39662065688583L90.80256059503556,27.39817617691901L90.8548654449463,27.399948449743704L91.03994414463043,27.40689728923624L91.12711889448165,27.41054383619931L91.15796534442902,27.41189535360519L91.3001272441864,27.418487188499938L91.44094799394608,27.42565278078399L91.50264089384079,27.428980573641866L91.8982801431656,27.453180385305785L92.3301304424286,27.485170547299845L92.90414264144897,27.53674496151507L93.01009349126815,27.547391348627485L93.17907839097977,27.565101326710305L93.88854673976898,27.64916315932365L93.95560423965453,27.657922522133504L94.08033118944168,27.674586986751365L94.10178958940506,27.67750677435467L94.14202408933639,27.683002095127648L94.23992803916931,27.69661927050015L94.72408318834304,27.76831344383322L94.97890168790818,27.808973717487703L95.19348568754197,27.844788928743725L95.40136393718718,27.880859143283857L95.52609088697433,27.90314643031678L95.59985413684845,27.916546852897824L96.29188753566741,28.05055107870794L96.50110693531036,28.093990888159425L96.5641409852028,28.10734031008363L96.95441563453674,28.19276641026704L97.03622578439713,28.211266898530653L97.24678633403778,28.259845024157357L97.4774641336441,28.314645229916835L97.77788173313141,28.38846868067236L97.82213968305588,28.39958682386043L98.02733563270569,28.45188799743542L98.04745288267135,28.45709006443164L98.5316080318451,28.585955974066593L98.85080173130036,28.674862869078396L98.86018978128432,28.677514903233345L98.86555438127517,28.679044922938118L98.87091898126603,28.680562192478703L99.06002113094331,28.73482689134147L99.1190317308426,28.75198861236339L99.34166263046265,28.817690208519423L99.38994403038025,28.832136144565368L99.41006128034593,28.838179722399218L99.56831698007583,28.886133089979808L100.17183447904586,29.07607228616382L100.32740787878036,29.12683068986982L100.50175737848282,29.184601683889383L100.56210912837983,29.20482344432085L100.84509177789688,29.30107443391563L100.98725367765427,29.350353818573666L101.3144942770958,29.466125309568525L101.32522347707749,29.46997585915892L101.54248977670669,29.54872087329815L101.6135707265854,29.57478220893617L102.37936737527848,29.865358451201956L102.60736287488938,29.955285359350285L102.62613897485733,29.962769705739476L102.7428190246582,30.00946080706362L102.98288487424851,30.106833811108544L103.02714282417297,30.124977294774368L103.26720867376326,30.224390325092315L103.66955367307662,30.394911021189813L103.6776005730629,30.39836631568977L103.9176664226532,30.50247140643569L104.28782382202148,30.66637476731003L105.00533907079698,30.995698758599303L105.19980582046509,31.087601942199626L105.3553792201996,31.16192264935924L105.46937697000504,31.216837606596556L105.5739866698265,31.26757050997415L105.61019771976471,31.285203987071725L105.6329972697258,31.296322130259767L106.3049134185791,31.631052191172557L106.36794746847153,31.663131604316106L106.53022661819459,31.746262674942358L106.8091858177185,31.890977038685946L106.84942031764983,31.91202755979083L107.53206566648484,32.276554754454196L107.5401125664711,32.28092806077703L107.56961786642074,32.2970060178414L107.69032136621475,32.36300086777416L107.92904606580734,32.49477381484817L108.90808556413651,33.05245324707553L109.003307213974,33.10817146465786L109.22057351360321,33.23625961427621L109.34932391338347,33.312811600171926L109.54513181304931,33.43013861119999L110.16071966199874,33.80611545332076L110.26801166181563,33.87274781146385L110.66633321113586,34.12296978401608L110.70790886106492,34.14934987375929L111.14646491031647,34.430554745333296L111.34763740997315,34.56134592976338L111.61050280952455,34.73397040295498L111.88946200904846,34.919281289531995L111.89080315904617,34.920173801026436L112.00345975885392,34.995629272800414L112.21536145849227,35.13852036306247L112.47554455804826,35.31565839438315L112.64050600776672,35.428943603357766L112.78803250751494,35.530893916352795L112.95835855722429,35.649355691995225L113.34192745656968,35.91903441512656L113.35533895654679,35.92853328746037L113.57796985616685,36.08699232821854L113.8488821557045,36.28164908515896L114.32633155488969,36.62956281586125L114.3893656047821,36.67596066340863L114.60126730442047,36.83271118216314L114.64284295434952,36.86361758019967L114.80378095407487,36.983660376203716L114.86010925397873,37.025837919398754L114.94862515382766,37.092304525407144L115.21417285337448,37.292941109360356L115.40461615304946,37.43798697737333L115.73856250247955,37.694686033342464L116.39438485136033,38.20742113674197L116.61031000099183,38.37871959285607L116.64786220092773,38.408644228248704L116.70821395082474,38.456801598456565L117.27015579986572,38.909789432384514L118.37392224798202,39.8234534492569L118.39806294794083,39.84378996116624L118.52815449771882,39.9536198756409L118.59655314760208,40.01154387163095L118.81247829723358,40.19517173653273L119.26712814645768,40.585709266177304L119.34625599632263,40.654215898458745L119.59168644590378,40.867691897767884L119.61046254587174,40.88408860893742L119.97257304525375,41.20200120326189L120.00073719520569,41.226864023464515L120.32663664464951,41.516024997503365L120.43258749446869,41.61060571558704L120.5895020442009,41.75117627596353L121.3231110929489,42.41647984425782L121.48136679267884,42.56172971489809L121.5832941925049,42.65559642378622L121.93065204191208,42.97741056835784L122.03928519172668,43.07865962232154L122.61866199073792,43.62342313820773L122.78764689044952,43.78383295408949L122.82251679039001,43.81700888135475L122.9780901901245,43.96542079271825L123.18462728977204,44.16332884153127L123.25973168964386,44.235545771596804L123.32813033952714,44.3014258700517L123.35763563947677,44.32988423656056L123.40189358940125,44.37261003681647L123.43542233934403,44.405008204065155L123.78412133874893,44.743474063090474L123.78680363874435,44.7460878467528L123.9236009385109,44.8796713171441L123.92762438850403,44.88359836771971L124.13416148815155,45.086121975975516L124.35545123777389,45.30420078456319L124.55662373743058,45.503434850453715L124.73902013711928,45.68488243727617L124.9670156367302,45.912766122138635L125.15343548641205,46.09997678318243L125.78511713533402,46.74021352864676L125.79182288532257,46.74706036682565L125.854856935215,46.811448696068396L125.93532593507767,46.89377650634967L125.96617238502502,46.925371413253345L126.31889483442306,47.28820283607723L127.27647593278886,48.28711445083417L127.63858643217085,48.67007838294009L128.0382491314888,49.096048618914494L128.0623898314476,49.12188045159681L128.1696818312645,49.23687418257509L128.65383698043823,49.758814904531704L128.88317363004685,50.0077873609917L129.04277047977448,50.181686850603924L129.32843542928697,50.49429537661848L129.39683407917022,50.569406593958874L129.58995967884064,50.78197733160937L129.65299372873307,50.851529477355726L129.80990827846526,51.025008211549135L129.96548167819978,51.19751793326287L129.97486972818376,51.207934817419556L130.35709747753143,51.633930553722365L130.80235927677154,52.13388999258699L131.167152076149,52.54645980598036L131.2999259259224,52.69728149837887L131.6137550253868,53.05514035716223L131.71165897521973,53.16717605004462L131.78810452508927,53.254795178471554L132.47209102392196,54.04371158874771L132.56328922376633,54.149588952318354L132.66655777359009,54.2696572486508L132.68533387355805,54.29151103010071L132.7376387234688,54.35243131467929L132.78055552339555,54.402450208861325L133.33445047245024,55.051114812866174L133.57451632204055,55.33404095660802L134.0814710211754,55.935007196316405L134.15657542104722,56.02444959822489L134.16194002103808,56.03083743049234L134.24911477088926,56.134776769103595L134.3362895207405,56.238869109685325L134.63804827022554,56.60020876329706L134.6595066701889,56.625964094994146L134.85263226985933,56.85815733535841L134.8875021697998,56.90015637625457L134.93712471971511,56.95995464638298L135.4507851688385,57.58152515144904L135.47626701879503,57.61248255014239L135.61306431856153,57.778859442872786L135.96712791795733,58.210994383241015L136.11867786769866,58.396624023923195L136.16561811761858,58.45419739039757L136.73292456665038,59.15300201514441L137.78438616485596,60.462405628657635L137.82998526477814,60.519596490205814L137.9359361145973,60.65261895337204L138.23903601408006,61.03416761725107L138.308775813961,61.12216287552211L138.4965368136406,61.35946255665107L138.8224362630844,61.772663503172666L139.16040606250763,62.202917794320456L139.37633121213915,62.47872297135301L139.70088951158522,62.89462695268638L139.743806311512,62.9497395374689L140.02813011102677,63.31557362396343L140.28563091058732,63.64793215433383L140.39962866039275,63.795381428299706L140.57666046009064,64.02474413221015L140.8475727596283,64.37661678889856L140.89048955955505,64.43245613304084L140.9401121094704,64.497054839993L141.04740410928727,64.63684126527077L141.24991775894165,64.90114579418906L141.50205395851137,65.2310244176213L141.5436296084404,65.2855058692756L141.58788755836486,65.34352549149722L141.74077865810392,65.54417482561465L141.82527110795976,65.6551968804426L142.14178250741958,66.0719742480241L142.1806758573532,66.12328090879102L143.2079967556,67.48586545720946L143.22543170557023,67.50910900655789L143.32199450540543,67.63792391553599L143.51377895507812,67.89411296493684L144.03012170419694,68.58618550298266L144.10656725406648,68.68893270124062L144.24872915382386,68.88019791450206L144.3359039036751,68.99760780159745L144.39625565357207,69.07894747415273L144.614863103199,69.37394164831602L145.02793730249405,69.93294072253876L145.74813485126495,70.9123637113061L145.93723700094222,71.17051628599476L146.53673104991913,71.99158223531758L146.65072879972456,72.1481606268553L146.67218719968798,72.17765175666489L147.18450649881365,72.88317571794853L147.2073060487747,72.91463674812803L147.38165554847717,73.15541084900327L147.49028869829178,73.30558865810933L147.57343999814987,73.42062701466232L147.84435229768755,73.79590897283386L148.13001724720002,74.19243270457338L148.9668948457718,75.3586710992941L148.99371784572602,75.39616295714326L149.2699947452545,75.78269693522701L149.50335484485626,76.1097386471233L149.70452734451294,76.39205915806535L149.7313503444672,76.42972951821342L149.73537379446032,76.43538421603898L149.84937154426575,76.59555815388292L149.85339499425888,76.60121285170851L150.3348678434372,77.27898608059675L150.36973774337767,77.32815071377694L151.1864980919838,78.48260795677088L151.26562594184875,78.59473927588479L151.71893464107512,79.23806156108711L151.84902619085312,79.42297719257374L152.1816313902855,79.89631428857521L152.75832588930132,80.71892938284911L153.40073673820496,81.63798034409874L153.6099561378479,81.93788970656362L153.94256133728027,82.41523035412595L154.08606438703538,82.62138775918058L154.30869528665545,82.94147425650225L154.47902133636475,83.18655153779716L154.6627588860512,83.45112382016379L154.737863285923,83.55932171362001L154.78078008584978,83.62116001002144L154.87600173568725,83.75841552770424L155.38563873481752,84.4938258738879L155.50500108461378,84.66626546969849L155.53584753456116,84.71084641884646L155.97708588380814,85.34897938721673L156.29091498327256,85.80342711494632L156.37808973312377,85.92974299173994L156.93869043216705,86.74285283859788L157.1237691318512,87.01158804957794L157.217649631691,87.1479574308484L157.31153013153076,87.28436506261144L157.4724681312561,87.5182795751436L157.5314787311554,87.6040690550069L157.71387513084412,87.8693362213228L157.90968303050994,88.15423864051667L157.98210513038634,88.25964424801165L158.08939713020325,88.41584013462318L158.23692362995146,88.63067402642032L158.44211957960127,88.92960162624134L158.54002352943422,89.07227596371187L158.79752432899474,89.44767267336125L158.8914048288345,89.58458393661047L158.9571211787224,89.68043329603272L159.67061297750473,90.72186033333617L160.27547162647247,91.60566984071907L160.41763352622988,91.81350389236685L160.42031582622528,91.81742456786034L160.78242632560728,92.34697713784821L161.31888632469176,93.13186449623512L161.69709062404633,93.685438375588L161.72793707399367,93.73059308212527L161.94520337362292,94.0486714285844L162.088706423378,94.25878138454304L162.16783427324296,94.37464850176946L162.17990462322234,94.39232022935964L162.27512627305984,94.53175602512175L162.3757125228882,94.67904592203503L162.4870279726982,94.84206314649703L162.59297882251738,94.99721989472573L162.7284349722862,95.1955996996144L162.75525797224043,95.23488295553459L162.8571853720665,95.38416187806408L162.93363092193604,95.4961210699612L162.94838357191085,95.51772622320911L163.5170311709404,96.35056694917658L163.54385417089463,96.38985020509676L164.0320327700615,97.10476466231849L164.30294506959916,97.5014541461927L164.34586186952592,97.56428695540225L164.41828396940232,97.67032369602546L164.53898746919631,97.84703459684522L164.80051171875,98.22986465222698L164.84208736867905,98.29071481090243L164.91585061855315,98.39867682632082L164.96279086847306,98.46737471106536L164.97620236845017,98.48700358886124L165.23772661800385,98.86969976751882L165.5810610174179,99.37196698610482L165.65482426729204,99.47985250053799L166.23151876630783,100.3229826090201L166.67275711555482,100.9676181611357L166.75054381542205,101.08121574913336L167.24676931457518,101.80553345245737L167.38624891433716,102.00901332302863L167.40502501430512,102.03640067574416L167.43050686426162,102.07356102932395L167.48549401416778,102.15375956218273L167.50427011413575,102.18114053981616L167.52438736410141,102.21047866765527L167.54182231407165,102.235902495083L167.5941271639824,102.31216760228408L167.76847666368485,102.56632300049402L167.99915446329118,102.90245557946953L168.22580881290435,103.23255095569328L168.46185121250153,103.57613600564748L168.58523701229095,103.75565831767477L168.68179981212617,103.8961205016555L168.70057591209414,103.92342497830369L169.26654121112824,104.7459125709355L169.34298676099777,104.85690912543505L169.50794821071625,105.09634445906859L169.7439906103134,105.4387564939158L169.87810561008453,105.63319649806468L170.0162440598488,105.83338682627067L170.46418815908433,106.48193667879765L171.35068830757143,107.76249942087581L171.40433430747987,107.83986104219863L171.44859225740433,107.90366923896998L171.6953638569832,108.2592585685246L172.26937605600355,109.0850229533575L172.45311360569,109.34893222718539L173.3329080041885,110.60963658851193L173.33424915418624,110.61155548822501L173.4120358540535,110.72277517059815L173.68026585359573,111.10596860565981L173.78621670341494,111.25719192823081L174.110775002861,111.71993682531776L174.4339921523094,112.18001056300345L174.60565935201643,112.42404870591554L174.64991730194092,112.48692614069981L174.91010040149686,112.85627927251532L174.99056940135955,112.97040599232756L175.13541360111236,113.1757059488393L175.18369500102995,113.24410101718392L175.2091768509865,113.28019354451142L175.33792725076674,113.4624635169252L175.95083279972079,114.32829848031801L176.0058199496269,114.40582585377554L176.1238411494255,114.57213580814386L176.4215764489174,114.99115401708468L176.6267723985672,115.27948623045009L176.88024974813462,115.63514568590783L176.91780194807052,115.6877847388343L177.66214019680024,116.7285105171064L177.9223232963562,117.0910582487767L177.97462814626692,117.1638616863957L178.24151699581148,117.53493290283805L178.80479999485016,118.31575614638413L178.99390214452742,118.57716320048651L179.16288704423906,118.81044657989042L179.36674184389113,119.09146976162448L179.68727669334413,119.53244056578781L180.10571549263,120.10642108295316L180.32968754224777,120.41285215440968L180.34041674222948,120.42751803078819L180.8138426914215,121.07332022292867L181.1840000907898,121.57645126513967L181.2550810406685,121.67288075703328L181.73387158985136,122.32086322725308L181.74996538982393,122.34259588214303L182.08122943925858,122.78923413429615L182.09061748924256,122.80186954702478L182.23277938899994,122.99311563503991L182.44870453863143,123.28310536975218L182.56940803842542,123.44495914173032L183.00394063768388,124.02609250101551L183.23327728729248,124.33182550098172L183.29899363718033,124.4193043776024L183.34995733709337,124.48710975085248L183.39555643701553,124.54774634427747L183.44652013692857,124.61548477916546L183.49882498683928,124.68496998654976L183.6543983865738,124.89143339554533L183.75900808639528,125.03007868112664L183.77778418636322,125.05495106395242L183.8005837363243,125.08514345279337L183.94542793607712,125.27679435852208L184.5891799349785,126.12512653400044L184.8439984345436,126.45934340080395L184.9995718342781,126.66294758547622L185.29462483377458,127.04814917140038L185.33351818370818,127.09883426166222L185.95178833265302,127.90160691288976L186.29646388206484,128.3467151453381L186.33535723199844,128.39682966575168L186.41716738185883,128.50217152242564L186.82487698116302,129.02565182671017L187.05019018077851,129.31386291351564L187.7328355296135,130.18229572286552L187.75295277957915,130.20778011357322L188.1512743288994,130.71100678201574L188.90634177761078,131.65795510254918L189.35965047683717,132.22198411655137L189.36099162683485,132.2236480129803L189.5098592765808,132.40812695134287L189.54741147651671,132.45460448741656L189.58764597644807,132.50437475339658L189.6426331263542,132.57235225386341L189.7982065260887,132.76439841468252L190.22200992536546,133.2854785005552L190.27833822526932,133.35450470202804L190.71823542451858,133.8916882452935L190.75981107444764,133.94228408440586L191.152768023777,134.41900634900418L191.27749497356416,134.56975472795847L191.29358877353667,134.58918597820917L191.43440952329635,134.75901179035742L191.87564787254334,135.28883530133467L192.6012100213051,136.15240073549873L192.63339762125017,136.1904854759835L192.67765557117463,136.24282171251005L193.26373812017442,136.93245896919242L193.35225402002334,137.0360540533701L193.38980621995927,137.07995924381513L193.8390914691925,137.60318295104503L194.0791573187828,137.8811763750095L194.14487366867064,137.95708129007173L194.1488971186638,137.96172553738396L194.1636497686386,137.9787533816817L194.2226603685379,138.04682172706853L194.52441911802293,138.3938413525059L194.85568316745758,138.77274754485308L196.4033702648163,140.51413787807564L196.72926971426008,140.87464398970238L197.06187491369246,141.2403107302917L197.13295586357117,141.31816004539542L197.2791412133217,141.47793235306688L197.45751416301727,141.67227991852525L197.70428576259613,141.94004930456666L197.87595296230316,142.12556738131204L197.94703391218187,142.20220064950456L198.0033622120857,142.2628515868643L198.14954756183624,142.41994317251132L198.15893561182023,142.43001580223444L198.20185241174698,142.4760407074788L198.24476921167374,142.52202417468948L198.32657936153413,142.60957158344277L198.35072006149292,142.6353795095672L198.64040846099854,142.944081704023L198.89790926055906,143.2169639059112L199.03738886032104,143.36417570806876L199.12054016017913,143.45173427321572L199.3539002597809,143.69666014631068L199.63285945930483,143.9878770843278L200.0271575586319,144.3965740353435L200.08080355854034,144.45191293554066L200.25783535823822,144.6340745315587L200.3758565580368,144.7551277780761L200.39195035800935,144.77161055285404L200.402679557991,144.78259641308844L200.5046069578171,144.88682900547644L200.56227640771866,144.94569970115884L200.732602457428,145.11913699731858L200.9364572570801,145.32585381582777L201.0719134068489,145.4626917656328L201.26772130651474,145.6597598973787L201.3937894062996,145.78617618171546L201.596303055954,145.98848781849134L202.11532810506822,146.5026891907746L202.41440455455782,146.7961517514626L202.49487355442048,146.87475492002503L202.52840230436325,146.90746068498518L203.17215430326462,147.53030939401293L203.18690695323946,147.54446845136425L203.425631652832,147.77287011164762L203.4564781027794,147.80228474047198L203.49805375270842,147.84189312557942L203.68849705238344,148.02280201796415L203.70727315235138,148.04059168457323L204.53342155094148,148.81493306339087L204.76141705055235,149.02572674690506L205.08329305000305,149.3211608017335L205.10475144996644,149.340767366742L205.4722265493393,149.67475791813084L205.62243534908293,149.81032403905627L205.86116004867554,150.02462720526833L205.9040768486023,150.06300360575932L206.0006396484375,150.14918515317197L206.34933864784242,150.458457917476L206.54648769750597,150.63197330839154L207.0413720466614,151.063226893659L207.05880699663163,151.0783071503742L207.17280474643707,151.17672088657247L207.64891299562453,151.5841794778896L207.67975944557188,151.61037867467812L207.68646519556046,151.61607162299632L207.71328819551468,151.63882907233437L207.85545009527206,151.75913882490147L208.3168056944847,152.14600829168091L208.70305689382553,152.46568040866586L209.04773244323732,152.74767738419118L209.49969999246596,153.11276319542384L209.59492164230346,153.18899881787019L209.69953134212494,153.27247573670056L210.12199359140396,153.6066615249788L210.12869934139252,153.61192813968134L210.14881659135818,153.62772081182158L210.59139609060287,153.97244142327543L210.63431289052963,154.00559264709756L210.89851944007873,154.20859518339634L211.20698393955232,154.4432420334851L211.31829938936232,154.52729270970474L211.34378123931884,154.54648648814708L211.4819196890831,154.65023218363945L211.55836523895263,154.70742463895817L211.85610053844454,154.92866947269536L212.11091903800965,155.11611919931804L212.49717023735047,155.39689215907953L212.53472243728638,155.42397271096883L212.65006133708954,155.5069085447057L213.1610394862175,155.86995432966532L213.19054478616715,155.89069884682925L213.58886633548738,156.16840379832857L213.7833330851555,156.3023928833187L213.8450259850502,156.3446811935653L214.5504708838463,156.82072371503435L214.60411688375473,156.85635803333568L214.61484608373644,156.8634750156187L214.64435138368606,156.88303057997038L214.65776288366317,156.8919110693402L214.75969028348922,156.95924070208832L214.8052893834114,156.98926813567985L214.92196943321227,157.0658368561661L214.96354508314133,157.09302817510695L215.58986213207243,157.49677009355787L215.82724568166734,157.6469040739745L215.91039698152542,157.69911639484266L216.22288493099214,157.89358189931994L216.2309318309784,157.89855286958996L217.06915057954788,158.4062691896037L217.11743197946547,158.43490207398514L217.24752352924347,158.51171942267342L217.50636547880174,158.663117263117L217.52916502876283,158.6763606993012L217.5305061787605,158.67713925620308L217.93151002807616,158.9076016617763L217.97979142799377,158.9350368276076L218.27350327749252,159.10048216146566L218.4626054271698,159.20568018034967L218.8569035264969,159.4216894779096L219.06612292613985,159.53446986007015L219.25790737581252,159.6367305598751L219.37324627561568,159.69771260306155L219.3866577755928,159.70477858468774L219.57575992527006,159.80384496991633L219.6361116751671,159.8352414523895L219.66964042510986,159.85263785612136L219.8386253248215,159.93981431478477L219.93250582466126,159.98788323072847L220.15916017427443,160.10286899285413L220.25169952411653,160.14938119343674L220.33082737398146,160.18895292182208L220.4904242237091,160.26820515343118L220.65672682342532,160.34998789419262L221.6652716217041,160.82842585276194L222.11053342094422,161.03003344140802L222.12528607091906,161.03661192847463L222.24330727071762,161.089006736068L222.29561212062836,161.1120940959049L222.3505992705345,161.1362773721996L222.53970142021177,161.21875360236106L223.04933841934204,161.43569684944913L223.16601846914293,161.48426879921504L223.56434001846313,161.6469993442037L224.36903001708984,161.9611524330791L224.4494990169525,161.99149105036577L224.4629105169296,161.99652836133393L224.63055426664351,162.05903564291359L225.39769206533433,162.33418657714526L225.56667696504596,162.39239107674786L225.69945081481933,162.43751311098936L225.88184721450804,162.49862205815393L226.04546751422882,162.5525765694281L226.12325421409608,162.57794043123982L226.21579356393815,162.607873633149L226.221158163929,162.60960088195637L226.35661431369783,162.65292195550367L226.47195321350097,162.6893669053387L226.49207046346663,162.6956818226046L227.24713791217803,162.9237351444174L227.3986878619194,162.96739957590236L227.57035506162643,163.01600758472642L227.5904723115921,163.0216445518549L227.6843528114319,163.04778557601927L227.8426085111618,163.09123793641362L227.9110071610451,163.10977956387893L228.00354651088713,163.1346359093888L228.008911110878,163.13606870909152L228.71569715967178,163.31708637631465L228.7411790096283,163.323324593374L228.8484710094452,163.3493708878027L229.01209130916598,163.38840621279545L229.15291205892564,163.4213393888875L229.39297790851595,163.476067675752L229.4117540084839,163.4802728890897L229.4600354084015,163.49103611950378L229.51502255830766,163.5032062508495L229.64109065809248,163.5307550226361L229.70680700798036,163.54492025584818L229.72826540794372,163.5495166402393L229.83689855775833,163.57256674569015L229.94821400756837,163.59580636041758L230.06489405736923,163.61975336023184L230.08903475732805,163.62465515089994L230.27009000701904,163.66084205932577L230.45248640670778,163.69626779290954L230.971511455822,163.79141778590292L231.0211340057373,163.80007604389505L231.3792210551262,163.8602839130486L231.6554979546547,163.90400751326433L231.70512050457,163.9116088523712L232.76462900276184,164.05558183889096L232.85448605260848,164.0661803381796L232.93629620246887,164.07561037954886L233.0717523522377,164.0907643107969L233.41911020164488,164.12700373894208L233.5049438014984,164.13537745909002L234.05883875055312,164.18387301370703L234.25062320022582,164.19842728879473L234.68515579948428,164.22714409515544L234.9547269490242,164.24198777967104L235.05933664884566,164.24713509815948L235.0714069988251,164.2477069660591L235.48448119812014,164.26452706610422L235.66687759780885,164.27025288282667L235.6869948477745,164.27082058575567L236.00350624723436,164.2780832766413L236.08665754709244,164.27947062042105L236.45681494646072,164.28301753882747L236.56813039627073,164.28324443702283L236.57751844625471,164.2832458179534" fill="none"></path></g></g></g></g></g></g><g transform="translate(61, 177)" clip-path="url(#clip_1)"><clipPath id="clip_1"><rect width="268" height="22"></rect></clipPath><g><g><line x1="0" y1="0" x2="0" y2="5" style="visibility: inherit;" fill="rgb(0, 0, 0)" stroke="rgb(204, 204, 204)" stroke-width="1px"></line><line x1="26.822999954223633" y1="0" x2="26.822999954223633" y2="5" style="visibility: inherit;" fill="rgb(0, 0, 0)" stroke="rgb(204, 204, 204)" stroke-width="1px"></line><line x1="53.645999908447266" y1="0" x2="53.645999908447266" y2="5" style="visibility: inherit;" fill="rgb(0, 0, 0)" stroke="rgb(204, 204, 204)" stroke-width="1px"></line><line x1="80.4689998626709" y1="0" x2="80.4689998626709" y2="5" style="visibility: inherit;" fill="rgb(0, 0, 0)" stroke="rgb(204, 204, 204)" stroke-width="1px"></line><line x1="107.29199981689453" y1="0" x2="107.29199981689453" y2="5" style="visibility: inherit;" fill="rgb(0, 0, 0)" stroke="rgb(204, 204, 204)" stroke-width="1px"></line><line x1="134.11499977111816" y1="0" x2="134.11499977111816" y2="5" style="visibility: inherit;" fill="rgb(0, 0, 0)" stroke="rgb(204, 204, 204)" stroke-width="1px"></line><line x1="160.9379997253418" y1="0" x2="160.9379997253418" y2="5" style="visibility: inherit;" fill="rgb(0, 0, 0)" stroke="rgb(204, 204, 204)" stroke-width="1px"></line><line x1="187.76099967956543" y1="0" x2="187.76099967956543" y2="5" style="visibility: inherit;" fill="rgb(0, 0, 0)" stroke="rgb(204, 204, 204)" stroke-width="1px"></line><line x1="214.58399963378906" y1="0" x2="214.58399963378906" y2="5" style="visibility: inherit;" fill="rgb(0, 0, 0)" stroke="rgb(204, 204, 204)" stroke-width="1px"></line><line x1="241.4069995880127" y1="0" x2="241.4069995880127" y2="5" style="visibility: inherit;" fill="rgb(0, 0, 0)" stroke="rgb(204, 204, 204)" stroke-width="1px"></line><line x1="268.2299995422363" y1="0" x2="268.2299995422363" y2="5" style="visibility: inherit;" fill="rgb(0, 0, 0)" stroke="rgb(204, 204, 204)" stroke-width="1px"></line></g><g transform="translate(0, 8)"><text style="text-anchor: middle; visibility: hidden; font-family: &quot;Helvetica Neue&quot;, sans-serif; font-size: 12px; font-weight: 200;" x="0" y="0" dx="0em" dy="0.95em" fill="rgb(50, 49, 63)" stroke="none" stroke-width="1px">-20k</text><text style="text-anchor: middle; visibility: inherit; font-family: &quot;Helvetica Neue&quot;, sans-serif; font-size: 12px; font-weight: 200;" x="26.822999954223633" y="0" dx="0em" dy="0.95em" fill="rgb(50, 49, 63)" stroke="none" stroke-width="1px">0</text><text style="text-anchor: middle; visibility: hidden; font-family: &quot;Helvetica Neue&quot;, sans-serif; font-size: 12px; font-weight: 200;" x="53.645999908447266" y="0" dx="0em" dy="0.95em" fill="rgb(50, 49, 63)" stroke="none" stroke-width="1px">20k</text><text style="text-anchor: middle; visibility: inherit; font-family: &quot;Helvetica Neue&quot;, sans-serif; font-size: 12px; font-weight: 200;" x="80.4689998626709" y="0" dx="0em" dy="0.95em" fill="rgb(50, 49, 63)" stroke="none" stroke-width="1px">40k</text><text style="text-anchor: middle; visibility: hidden; font-family: &quot;Helvetica Neue&quot;, sans-serif; font-size: 12px; font-weight: 200;" x="107.29199981689453" y="0" dx="0em" dy="0.95em" fill="rgb(50, 49, 63)" stroke="none" stroke-width="1px">60k</text><text style="text-anchor: middle; visibility: inherit; font-family: &quot;Helvetica Neue&quot;, sans-serif; font-size: 12px; font-weight: 200;" x="134.11499977111816" y="0" dx="0em" dy="0.95em" fill="rgb(50, 49, 63)" stroke="none" stroke-width="1px">80k</text><text style="text-anchor: middle; visibility: hidden; font-family: &quot;Helvetica Neue&quot;, sans-serif; font-size: 12px; font-weight: 200;" x="160.9379997253418" y="0" dx="0em" dy="0.95em" fill="rgb(50, 49, 63)" stroke="none" stroke-width="1px">100k</text><text style="text-anchor: middle; visibility: inherit; font-family: &quot;Helvetica Neue&quot;, sans-serif; font-size: 12px; font-weight: 200;" x="187.76099967956543" y="0" dx="0em" dy="0.95em" fill="rgb(50, 49, 63)" stroke="none" stroke-width="1px">120k</text><text style="text-anchor: middle; visibility: hidden; font-family: &quot;Helvetica Neue&quot;, sans-serif; font-size: 12px; font-weight: 200;" x="214.58399963378906" y="0" dx="0em" dy="0.95em" fill="rgb(50, 49, 63)" stroke="none" stroke-width="1px">140k</text><text style="text-anchor: middle; visibility: inherit; font-family: &quot;Helvetica Neue&quot;, sans-serif; font-size: 12px; font-weight: 200;" x="241.4069995880127" y="0" dx="0em" dy="0.95em" fill="rgb(50, 49, 63)" stroke="none" stroke-width="1px">160k</text><text style="text-anchor: middle; visibility: hidden; font-family: &quot;Helvetica Neue&quot;, sans-serif; font-size: 12px; font-weight: 200;" x="268.2299995422363" y="0" dx="0em" dy="0.95em" fill="rgb(50, 49, 63)" stroke="none" stroke-width="1px">180k</text></g><line x1="0" y1="0" x2="268.2299995422363" y2="0" fill="rgb(0, 0, 0)" stroke="rgb(204, 204, 204)" stroke-width="1px"></line></g></g></g></g></svg>