<svg viewBox="0 0 330 200" xmlns="http://www.w3.org/2000/svg"><g><g><g><g><g><line x1="51.41600036621094" y1="177.9749994277954" x2="46.41600036621094" y2="177.9749994277954" style="visibility: inherit;" fill="rgb(0, 0, 0)" stroke="rgb(204, 204, 204)" stroke-width="1px"></line><line x1="51.41600036621094" y1="160.17749948501586" x2="46.41600036621094" y2="160.17749948501586" style="visibility: inherit;" fill="rgb(0, 0, 0)" stroke="rgb(204, 204, 204)" stroke-width="1px"></line><line x1="51.41600036621094" y1="142.37999954223633" x2="46.41600036621094" y2="142.37999954223633" style="visibility: inherit;" fill="rgb(0, 0, 0)" stroke="rgb(204, 204, 204)" stroke-width="1px"></line><line x1="51.41600036621094" y1="124.58249959945678" x2="46.41600036621094" y2="124.58249959945678" style="visibility: inherit;" fill="rgb(0, 0, 0)" stroke="rgb(204, 204, 204)" stroke-width="1px"></line><line x1="51.41600036621094" y1="106.78499965667724" x2="46.41600036621094" y2="106.78499965667724" style="visibility: inherit;" fill="rgb(0, 0, 0)" stroke="rgb(204, 204, 204)" stroke-width="1px"></line><line x1="51.41600036621094" y1="88.9874997138977" x2="46.41600036621094" y2="88.9874997138977" style="visibility: inherit;" fill="rgb(0, 0, 0)" stroke="rgb(204, 204, 204)" stroke-width="1px"></line><line x1="51.41600036621094" y1="71.18999977111817" x2="46.41600036621094" y2="71.18999977111817" style="visibility: inherit;" fill="rgb(0, 0, 0)" stroke="rgb(204, 204, 204)" stroke-width="1px"></line><line x1="51.41600036621094" y1="53.39249982833863" x2="46.41600036621094" y2="53.39249982833863" style="visibility: inherit;" fill="rgb(0, 0, 0)" stroke="rgb(204, 204, 204)" stroke-width="1px"></line><line x1="51.41600036621094" y1="35.594999885559105" x2="46.41600036621094" y2="35.594999885559105" style="visibility: inherit;" fill="rgb(0, 0, 0)" stroke="rgb(204, 204, 204)" stroke-width="1px"></line><line x1="51.41600036621094" y1="17.797499942779524" x2="46.41600036621094" y2="17.797499942779524" style="visibility: inherit;" fill="rgb(0, 0, 0)" stroke="rgb(204, 204, 204)" stroke-width="1px"></line><line x1="51.41600036621094" y1="0" x2="46.41600036621094" y2="0" style="visibility: inherit;" fill="rgb(0, 0, 0)" stroke="rgb(204, 204, 204)" stroke-width="1px"></line></g><g transform="translate(41.41600036621094, 0)"><text style="text-anchor: end; visibility: hidden; font-family: &quot;Helvetica Neue&quot;, sans-serif; font-size: 12px; font-weight: 200;" x="0" y="177.9749994277954" dx="0em" dy="0.3em" fill="rgb(50, 49, 63)" stroke="none" stroke-width="1px">-0.1</text><text style="text-anchor: end; visibility: inherit; font-family: &quot;Helvetica Neue&quot;, sans-serif; font-size: 12px; font-weight: 200;" x="0" y="160.17749948501586" dx="0em" dy="0.3em" fill="rgb(50, 49, 63)" stroke="none" stroke-width="1px">0</text><text style="text-anchor: end; visibility: hidden; font-family: &quot;Helvetica Neue&quot;, sans-serif; font-size: 12px; font-weight: 200;" x="0" y="142.37999954223633" dx="0em" dy="0.3em" fill="rgb(50, 49, 63)" stroke="none" stroke-width="1px">0.1</text><text style="text-anchor: end; visibility: inherit; font-family: &quot;Helvetica Neue&quot;, sans-serif; font-size: 12px; font-weight: 200;" x="0" y="124.58249959945678" dx="0em" dy="0.3em" fill="rgb(50, 49, 63)" stroke="none" stroke-width="1px">0.2</text><text style="text-anchor: end; visibility: hidden; font-family: &quot;Helvetica Neue&quot;, sans-serif; font-size: 12px; font-weight: 200;" x="0" y="106.78499965667724" dx="0em" dy="0.3em" fill="rgb(50, 49, 63)" stroke="none" stroke-width="1px">0.3</text><text style="text-anchor: end; visibility: inherit; font-family: &quot;Helvetica Neue&quot;, sans-serif; font-size: 12px; font-weight: 200;" x="0" y="88.9874997138977" dx="0em" dy="0.3em" fill="rgb(50, 49, 63)" stroke="none" stroke-width="1px">0.4</text><text style="text-anchor: end; visibility: hidden; font-family: &quot;Helvetica Neue&quot;, sans-serif; font-size: 12px; font-weight: 200;" x="0" y="71.18999977111817" dx="0em" dy="0.3em" fill="rgb(50, 49, 63)" stroke="none" stroke-width="1px">0.5</text><text style="text-anchor: end; visibility: inherit; font-family: &quot;Helvetica Neue&quot;, sans-serif; font-size: 12px; font-weight: 200;" x="0" y="53.39249982833863" dx="0em" dy="0.3em" fill="rgb(50, 49, 63)" stroke="none" stroke-width="1px">0.6</text><text style="text-anchor: end; visibility: hidden; font-family: &quot;Helvetica Neue&quot;, sans-serif; font-size: 12px; font-weight: 200;" x="0" y="35.594999885559105" dx="0em" dy="0.3em" fill="rgb(50, 49, 63)" stroke="none" stroke-width="1px">0.7</text><text style="text-anchor: end; visibility: inherit; font-family: &quot;Helvetica Neue&quot;, sans-serif; font-size: 12px; font-weight: 200;" x="0" y="17.797499942779524" dx="0em" dy="0.3em" fill="rgb(50, 49, 63)" stroke="none" stroke-width="1px">0.8</text><text style="text-anchor: end; visibility: hidden; font-family: &quot;Helvetica Neue&quot;, sans-serif; font-size: 12px; font-weight: 200;" x="0" y="0" dx="0em" dy="0.3em" fill="rgb(50, 49, 63)" stroke="none" stroke-width="1px">0.9</text></g><line x1="51.41600036621094" y1="0" x2="51.41600036621094" y2="177.9749994277954" fill="rgb(0, 0, 0)" stroke="rgb(204, 204, 204)" stroke-width="1px"></line></g></g><g transform="translate(51, 0)" clip-path="url(#clip_0)"><clipPath id="clip_0"><rect width="278" height="177"></rect></clipPath><g><g><g><line x1="0" y1="0" x2="0" y2="177.9749994277954" fill="rgb(0, 0, 0)" stroke="rgb(60, 60, 60)" stroke-width="1px" opacity="0.25"></line><line x1="23.215333302815754" y1="0" x2="23.215333302815754" y2="177.9749994277954" fill="rgb(0, 0, 0)" stroke="rgb(60, 60, 60)" stroke-width="1px" opacity="0.25"></line><line x1="46.43066660563151" y1="0" x2="46.43066660563151" y2="177.9749994277954" fill="rgb(0, 0, 0)" stroke="rgb(60, 60, 60)" stroke-width="1px" opacity="0.25"></line><line x1="69.64599990844727" y1="0" x2="69.64599990844727" y2="177.9749994277954" fill="rgb(0, 0, 0)" stroke="rgb(60, 60, 60)" stroke-width="1px" opacity="0.25"></line><line x1="92.86133321126302" y1="0" x2="92.86133321126302" y2="177.9749994277954" fill="rgb(0, 0, 0)" stroke="rgb(60, 60, 60)" stroke-width="1px" opacity="0.25"></line><line x1="116.07666651407878" y1="0" x2="116.07666651407878" y2="177.9749994277954" fill="rgb(0, 0, 0)" stroke="rgb(60, 60, 60)" stroke-width="1px" opacity="0.25"></line><line x1="139.29199981689453" y1="0" x2="139.29199981689453" y2="177.9749994277954" fill="rgb(0, 0, 0)" stroke="rgb(60, 60, 60)" stroke-width="1px" opacity="0.25"></line><line x1="162.5073331197103" y1="0" x2="162.5073331197103" y2="177.9749994277954" fill="rgb(0, 0, 0)" stroke="rgb(60, 60, 60)" stroke-width="1px" opacity="0.25"></line><line x1="185.72266642252603" y1="0" x2="185.72266642252603" y2="177.9749994277954" fill="rgb(0, 0, 0)" stroke="rgb(60, 60, 60)" stroke-width="1px" opacity="0.25"></line><line x1="208.9379997253418" y1="0" x2="208.9379997253418" y2="177.9749994277954" fill="rgb(0, 0, 0)" stroke="rgb(60, 60, 60)" stroke-width="1px" opacity="0.25"></line><line x1="232.15333302815756" y1="0" x2="232.15333302815756" y2="177.9749994277954" fill="rgb(0, 0, 0)" stroke="rgb(60, 60, 60)" stroke-width="1px" opacity="0.25"></line><line x1="255.3686663309733" y1="0" x2="255.3686663309733" y2="177.9749994277954" fill="rgb(0, 0, 0)" stroke="rgb(60, 60, 60)" stroke-width="1px" opacity="0.25"></line><line x1="278.58399963378906" y1="0" x2="278.58399963378906" y2="177.9749994277954" fill="rgb(0, 0, 0)" stroke="rgb(60, 60, 60)" stroke-width="1px" opacity="0.25"></line></g><g><line x1="0" y1="177.9749994277954" x2="278.58399963378906" y2="177.9749994277954" fill="rgb(0, 0, 0)" stroke="rgb(60, 60, 60)" stroke-width="1px" opacity="0.25"></line><line x1="0" y1="160.17749948501586" x2="278.58399963378906" y2="160.17749948501586" fill="rgb(0, 0, 0)" stroke="rgb(60, 60, 60)" stroke-width="1px" opacity="0.25"></line><line x1="0" y1="142.37999954223633" x2="278.58399963378906" y2="142.37999954223633" fill="rgb(0, 0, 0)" stroke="rgb(60, 60, 60)" stroke-width="1px" opacity="0.25"></line><line x1="0" y1="124.58249959945678" x2="278.58399963378906" y2="124.58249959945678" fill="rgb(0, 0, 0)" stroke="rgb(60, 60, 60)" stroke-width="1px" opacity="0.25"></line><line x1="0" y1="106.78499965667724" x2="278.58399963378906" y2="106.78499965667724" fill="rgb(0, 0, 0)" stroke="rgb(60, 60, 60)" stroke-width="1px" opacity="0.25"></line><line x1="0" y1="88.9874997138977" x2="278.58399963378906" y2="88.9874997138977" fill="rgb(0, 0, 0)" stroke="rgb(60, 60, 60)" stroke-width="1px" opacity="0.25"></line><line x1="0" y1="71.18999977111817" x2="278.58399963378906" y2="71.18999977111817" fill="rgb(0, 0, 0)" stroke="rgb(60, 60, 60)" stroke-width="1px" opacity="0.25"></line><line x1="0" y1="53.39249982833863" x2="278.58399963378906" y2="53.39249982833863" fill="rgb(0, 0, 0)" stroke="rgb(60, 60, 60)" stroke-width="1px" opacity="0.25"></line><line x1="0" y1="35.594999885559105" x2="278.58399963378906" y2="35.594999885559105" fill="rgb(0, 0, 0)" stroke="rgb(60, 60, 60)" stroke-width="1px" opacity="0.25"></line><line x1="0" y1="17.797499942779524" x2="278.58399963378906" y2="17.797499942779524" fill="rgb(0, 0, 0)" stroke="rgb(60, 60, 60)" stroke-width="1px" opacity="0.25"></line><line x1="0" y1="0" x2="278.58399963378906" y2="0" fill="rgb(0, 0, 0)" stroke="rgb(60, 60, 60)" stroke-width="1px" opacity="0.25"></line></g></g></g><g><g><line x1="0" y1="160.17749948501586" x2="278.58399963378906" y2="160.17749948501586" fill="rgb(0, 0, 0)" stroke="rgb(153, 153, 153)" stroke-width="1.5px"></line></g></g><g><g><line x1="23.215333302815754" y1="0" x2="23.215333302815754" y2="177.9749994277954" fill="rgb(0, 0, 0)" stroke="rgb(153, 153, 153)" stroke-width="1.5px"></line></g></g><g><g><g><g><g><path style="fill: none;" stroke="rgb(51, 187, 238)" stroke-width="2px" d="M23.215333302815754,158.57216503202625L23.67963996887207,158.40842794604333L24.143946634928387,153.3717353991183L24.6082533009847,146.9076832620517L25.072559967041016,141.9599780636746L25.53686663309733,137.30415309235704L26.001173299153646,132.8476589861766L26.465479965209962,129.16713681356333L26.929786631266275,126.34801124668229L27.39409329732259,124.12688490529811L27.858399963378908,121.25080690493954L28.32270662943522,118.01166277673435L28.787013295491537,115.23525352398705L29.25131996154785,113.56228673022581L29.71562662760417,111.33760135900569L30.179933293660483,109.47597946359802L30.644239959716796,107.25841215204979L31.108546625773112,105.4110316800542L31.572853291829425,102.958536574924L32.03715995788574,101.33540680700254L32.50146662394206,100.71605075045586L32.965773289998374,99.65176292373347L33.43007995605468,97.03197220004081L33.89438662211101,95.62240543854905L34.358693288167316,94.4513308045435L34.82299995422363,93.08092397938371L35.28730662027995,91.77103126957154L35.75161328633626,89.15835330148245L36.21591995239258,88.79884885550594L36.68022661844889,86.88739523832679L37.14453328450521,85.86581576963569L37.608839950561524,84.04335381055999L38.073146616617834,82.03223674983788L38.53745328267416,82.85804305721068L39.001759948730474,79.85738310038924L39.46606661478678,79.46939580758858L39.9303732808431,78.48341724539351L40.39467994689941,78.02779777757335L40.85898661295573,75.74615732084156L41.32329327901205,75.81023046602512L41.78759994506836,74.41134609810949L42.251906611124674,73.57130367139293L42.716213277180984,75.16240217079091L43.18051994323731,72.96263000842238L43.644826609293624,70.9550719775362L44.10913327534993,70.13994275967123L44.57343994140625,69.57042372896434L45.03774660746256,68.89412319504261L45.50205327351888,68.6805495804763L45.9663599395752,68.23561250623227L46.43066660563151,69.62381448057177L46.894973271687824,67.00402906094742L47.35927993774414,66.1675456640668L47.82358660380046,65.72972664949465L48.287893269856774,65.56242572686388L48.75219993591308,63.978450591206084L49.2165066019694,65.2741071816745L49.680813268025716,63.982014925110335L50.14511993408203,62.50837501843502L50.60942660013835,62.11683930393504L51.07373326619466,62.6080490701146L51.538039932250975,62.63295697489788L52.00234659830729,61.38357307636501L52.46665326436361,60.11995305848838L52.930959930419924,60.771345687626834L53.39526659647624,61.639865657099236L53.85957326253255,59.4151696777425L54.323879928588866,60.18046186976768L54.78818659464518,59.326188627775664L55.2524932607015,57.89883202117251L55.716799926757815,58.06256860989903L56.181106592814125,59.721288676179896L56.64541325887044,58.09815890825844L57.10971992492676,58.36867700019981L57.574026590983074,57.11217504199506L58.03833325703939,57.293712083969595L58.5026399230957,58.696150177652854L58.966946589152016,57.98781307113934L59.43125325520834,56.161792082227706L59.89555992126465,56.5960467628956L60.359866587320965,56.61384721614361L60.824173253377275,56.902165761332995L61.28847991943359,56.41807405482531L61.752786585489915,55.9909374338293L62.217093251546224,57.11573937589931L62.68139991760254,55.54955408535291L63.14570658365885,54.95868087563038L63.610013249715166,54.74155353529643L64.07431991577148,54.705952628800404L64.5386265818278,55.061908653077595L65.00293324788412,55.684818435391904L65.46723991394043,54.22186092229272L65.93154657999675,53.962014615790864L66.39585324605306,53.27859602219725L66.86015991210937,54.823416525591384L67.3244665781657,55.029872080485816L67.78877324422201,53.47436918351555L68.25307991027832,54.951562815958496L68.71738657633463,53.39605991898823L69.18169324239095,53.87658729159166L69.64599990844727,51.584275049420356L70.11030657450358,53.39961364475586L70.5746132405599,54.14711599166965L71.03891990661621,54.912408183694836L71.50322657267252,51.87615792851399L71.96753323872885,52.993831202775496L72.43183990478516,52.30684827527763L72.89614657084147,53.79115996739246L73.36045323689778,53.6665780109296L73.8247599029541,52.4741491979084L74.28906656901042,51.776483876834405L74.75337323506673,51.694620886539454L75.21767990112305,51.659019980043425L75.68198656717937,52.33888484786941L76.14629323323567,51.16069215419198L76.610599899292,53.307068260884776L77.07490656534831,51.4952833913169L77.53921323140462,54.07236045290996L78.00351989746095,51.47749354620551L78.46782656351725,52.125321841439714L78.93213322957357,51.9117482268734L79.39643989562988,51.96158525271319L79.8607465616862,50.55201849122143L80.32505322774252,51.737329244570745L80.78935989379882,51.655466254275794L81.25366655985515,51.851239415594094L81.71797322591146,54.15423405134153L82.18227989196777,51.19984678645564L82.6465865580241,51.44189263970948L83.1108932240804,51.17492827353574L83.57519989013672,50.31353697187184L84.03950655619305,50.050126331465734L84.50381322224935,51.25323753806306L84.96811988830567,50.10351708307316L85.43242655436197,49.30975265236046L85.8967332204183,50.69440090093231L86.36103988647461,50.27081800570393L86.82534655253092,49.882836016971595L87.28965321858725,52.321095002758014L87.75395988464355,51.68393849296332L88.21826655069987,49.23144338783314L88.6825732167562,51.28527411065484L89.1468798828125,51.157138428424346L89.61118654886882,50.58760878958084L90.07549321492512,50.42031847508669L90.53979988098145,49.38806191688778L91.00410654703776,51.153574094520096L91.46841321309407,50.722873139619836L91.9327198791504,49.34535355885649L92.3970265452067,50.993401839697825L92.86133321126302,49.252797566848784L93.32563987731935,49.174488302321464L93.78994654337565,50.14623604924107L94.25425320943197,50.30640830406334L94.71855987548828,48.77227019424535L95.1828665415446,49.03567022651484L95.64717320760091,49.765372120180615L96.11147987365722,48.476833589384086L96.57578653971355,48.97516141523553L97.04009320576985,48.84346139910079L97.50439987182617,48.665488691030504L97.9687065378825,47.66526870542336L98.4330132039388,48.88616975713208L98.89731986999512,49.057024405530484L99.36162653605143,50.61964536217262L99.82593320210775,48.95736096198752L100.29023986816406,47.501532116696836L100.75454653422038,48.156478471602924L101.2188532002767,49.22432532816126L101.683159866333,49.87215362339546L102.14746653238932,47.608313619911684L102.61177319844565,51.08238288966466L103.07607986450195,46.907094573070054L103.54038653055827,48.85769751844455L104.00469319661458,46.985403837597374L104.4689998626709,48.156478471602924L104.93330652872721,49.89350780241111L105.39761319478353,49.01431604749919L105.86191986083985,48.40564238452865L106.32622652689615,49.096179037794144L106.79053319295248,47.24880386986686L107.2548398590088,48.5729326990228L107.7191465250651,48.06748681349947L108.18345319112142,48.48038731515172L108.64775985717773,48.508870161975864L109.11206652323405,47.71865945703078L109.57637318929036,46.05637505684567L110.04067985534668,46.97115711011699L110.504986521403,46.828785308542734L110.9692931874593,46.77894828270294L111.43359985351563,46.31265702944327L111.89790651957195,47.16693027143529L112.36221318562825,47.7115413973589L112.82651985168458,47.35558537308171L113.29082651774088,48.58005075869468L113.7551331837972,47.334231194066064L114.21943984985352,47.71509512312653L114.68374651590983,46.81453858106235L115.14805318196615,46.05637505684567L115.61235984802245,48.551578520007155L116.07666651407878,45.95314727939845L116.5409731801351,49.651461949157266L117.0052798461914,45.892638468119145L117.46958651224773,47.58695944089604L117.93389317830403,47.811204840901866L118.39819984436035,49.90062586208299L118.86250651041668,47.68305855053475L119.32681317647298,47.298640895706654L119.7911198425293,46.77539455693531L120.2554265085856,45.24479956474832L120.71973317464193,46.80742052139047L121.18403984069825,46.875058000478276L121.64834650675455,48.355805358688855L122.11265317281088,47.2096492376032L122.57695983886718,46.56893900204088L123.0412665049235,46.597411240728405L123.50557317097983,45.935346826150436L123.96987983703613,44.62188978243401L124.43418650309245,45.61143798260164L124.89849316914875,46.35536538747456L125.36279983520508,46.2557019439316L125.8271065012614,45.931793100382805L126.2914131673177,46.70063901817562L126.75571983337403,45.59719125512126L127.22002649943033,45.92111070680667L127.68433316548665,45.383628248691565L128.14863983154297,45.60787364869739L128.6129464975993,45.76092784384778L129.0772531636556,45.48329169223453L129.54155982971193,46.50131213108969L130.00586649576823,46.08128296162894L130.47017316182453,46.21299358590031L130.93447982788086,44.59341754374648L131.39878649393717,44.77850831148865L131.8630931599935,46.10976580845309L132.3273998260498,45.3693921293478L132.79170649210613,45.9246644325743L133.25601315816243,44.74647173889687L133.72031982421873,43.70709712102607L134.18462649027506,44.31221705822898L134.6489331563314,45.575837076105614L135.1132398223877,45.458373179314634L135.57754648844403,44.596971269514114L136.04185315450033,44.956481019558936L136.50615982055663,43.037914646776215L136.97046648661293,45.56160095676185L137.43477315266927,44.92800878087141L137.8990798187256,44.88173608893587L138.3633864847819,43.09842345805552L138.82769315083823,43.96694342752792L139.29199981689453,44.58985320984223L139.75630648295086,44.58985320984223L140.22061314900716,43.84236147106506L140.68491981506347,45.19852687281278L141.1492264811198,43.112659577399285L141.6135331471761,42.10532153212026L142.07783981323243,45.775174571328165L142.54214647928876,44.522226338891045L143.00645314534503,43.39386006291679L143.47075981140136,44.34068929691651L143.9350664774577,43.87083370975259L144.399373143514,44.07372493074277L144.86367980957033,43.94558924851228L145.3279864756266,43.24437020167065L145.79229314168293,43.90287028234437L146.25659980773926,42.4577132224932L146.72090647379557,43.5220063532839L147.1852131398519,44.34780735658839L147.6495198059082,43.977625821104056L148.1138264719645,44.016780453367716L148.57813313802083,44.22322540012553L149.04243980407716,42.77806834027436L149.50674647013346,42.642814598371984L149.97105313618977,43.20876929517462L150.4353598022461,41.92023076437809L150.8996664683024,42.368732172526364L151.36397313435873,41.94870300306562L151.82827980041506,43.05215076611998L152.29258646647133,42.835023425786034L152.75689313252767,43.35826976455738L153.221199798584,41.83123910627464L153.6855064646403,42.07684929343273L154.14981313069663,41.52513071597386L154.61411979675293,42.59297757253219L155.07842646280923,41.09086542716935L155.54273312886556,42.09108541277649L156.0070397949219,41.34359367399932L156.4713464609782,42.78163267417861L156.9356531270345,40.95204735136272L157.3999597930908,41.87395807244255L157.86426645914713,42.16939467730381L158.32857312520346,41.48952980947783L158.79287979125976,41.05527512880994L159.25718645731607,40.962729744938855L159.7214931233724,41.631912219188706L160.1857997894287,43.12334197097542L160.65010645548503,40.75983852394867L161.11441312154136,41.99854002890541L161.57871978759763,40.4821917641988L162.04302645365397,40.297100996456635L162.5073331197103,42.23703215639162L162.9716397857666,40.218791731929315L163.43594645182293,41.2047755981927L163.90025311787923,39.9197907931638L164.36455978393553,41.08731170140172L164.82886644999186,40.58185520774177L165.2931731160482,39.89843661414815L165.7574797821045,40.67441119974947L166.2217864481608,40.07997365612269L166.68609311421713,39.01923425109962L167.15039978027343,40.86662002716352L167.61470644632976,40.94492929169084L168.0790131123861,40.36117414164019L168.54331977844237,40.14760052707388L169.0076264444987,39.30756340442562L169.471933110555,39.56384537702323L169.93623977661133,38.81634303010944L170.40054644266766,38.78075273175003L170.86485310872393,39.65994448666194L171.32915977478027,40.04793708353091L171.7934664408366,38.00477814614871L172.2577731068929,39.30043473661712L172.72207977294923,38.923135141460904L173.18638643900553,39.553162983447095L173.65069310506183,39.49620789793542L174.11499977111816,38.930253201132786L174.5793064371745,38.77718839784578L175.0436131032308,39.7240176318455L175.5079197692871,39.03348097858L175.97222643534343,37.47086002193785L176.43653310139973,38.335815657506004L176.90083976745606,38.13647816228345L177.3651464335124,37.403222542850045L177.82945309956867,39.23280786566593L178.293759765625,38.70956152689459L178.75806643168133,38.73803376558212L179.22237309773763,37.595441978400714L179.68667976379396,37.27864058638718L180.15098642985024,37.57407719124845L180.61529309590657,37.59187764449646L181.0795997619629,38.91601708178902L181.5439064280192,37.14338684448481L182.00821309407553,37.85172395099832L182.47251976013183,37.45661329445747L182.93682642618813,36.35317613953973L183.40113309224446,36.80166693955138L183.8654397583008,36.385212712131505L184.3297464243571,37.15762296382857L184.7940530904134,37.3818683638344L185.25835975646973,35.81924740719225L185.72266642252603,36.84082157181504L186.18697308858236,35.481091836163074L186.6512797546387,35.85840203945591L187.11558642069497,36.47775809600259L187.5798930867513,36.08621177336599L188.04419975280763,36.13960252497341L188.50850641886393,36.16452103789331L188.97281308492026,34.86530011352065L189.43711975097656,35.03615476191905L189.90142641703287,35.096674181334976L190.3657330830892,34.83326354092887L190.83003974914553,35.872638158799674L191.29434641520183,33.66218890692332L191.75865308125813,35.38499272652436L192.22295974731443,34.7336000973859L192.68726641337076,34.665973226434716L193.1515730794271,33.62659860856391L193.6158797454834,35.370756607180596L194.0801864115397,33.103352269792566L194.54449307759603,34.08220746824745L195.00879974365233,33.11758838913633L195.47310640970866,33.65507084725144L195.937413075765,33.54117128436471L196.40171974182127,33.21013377300741L196.8660264078776,32.708241613251715L197.33033307393393,33.87219818758538L197.79463973999023,32.48044248747826L198.25894640604656,32.41280500839045L198.72325307210286,33.405906934325714L199.18755973815917,33.804571316634195L199.6518664042155,32.45552397455836L200.11617307027183,32.039059139001864L200.58047973632813,31.75429431958011L201.04478640238443,32.26330453900769L201.50909306844076,31.8290498583398L201.97339973449706,32.83638790361883L202.4377064005534,31.522930859902402L202.90201306660973,31.47309383406261L203.366319732666,31.20614007602549L203.83062639872233,31.611922518005855L204.29493306477863,30.5689835662308L204.75923973083496,30.718484035613557L205.2235463968913,30.487120575935847L205.68785306294757,30.522710874295257L206.1521597290039,30.252192782353887L206.61646639506023,30.45151966943982L207.08077306111653,30.487120575935847L207.54507972717286,30.273546961369533L208.00938639322916,29.422827445145145L208.47369305928547,29.426381170912776L208.9379997253418,28.58277971436027L209.40230639139813,30.042183501691824L209.86661305745443,29.041963516084678L210.33091972351073,29.369436693537722L210.79522638956706,29.187899651563185L211.25953305562336,28.682453766039856L211.7238397216797,28.34786252891493L212.18814638773603,28.842626020862127L212.6524530537923,28.27310699015524L213.11675971984863,28.451079698225527L213.58106638590496,27.83885230948735L214.04537305196126,27.650197207840932L214.5096797180176,26.682013794825565L214.97398638407387,27.340524483635903L215.4382930501302,27.415269414258972L215.90259971618653,27.87444260784676L216.36690638224283,27.04864160454227L216.83121304829916,26.23707672058154L217.29551971435546,25.948758175392157L217.75982638041177,26.439967941571723L218.2241330464681,26.475558239931132L218.68843971252443,26.365212402812034L219.15274637858073,26.190804028646L219.61705304463703,26.215722541565896L220.08135971069336,25.938075781816025L220.54566637674967,25.88112069630435L221.009973042806,25.99858459309533L221.47427970886233,25.48245631399587L221.9385863749186,25.738748894730094L222.40289304097493,24.35053631225398L222.86719970703126,24.727846515546815L223.33150637308756,24.225954355791117L223.7958130391439,24.414609457437535L224.2601197052002,24.873782651025323L224.7244263712565,23.916281631586088L225.18873303731283,23.677789504099877L225.65303970336916,23.991026562209157L226.11734636942546,23.485580676685828L226.58165303548176,23.76321682829908L227.04595970153807,23.95898998961738L227.5102663675944,23.193697797592193L227.97457303365073,23.471344557342064L228.43887969970703,22.624178766885308L228.90318636576333,23.033525542769922L229.36749303181966,22.029741223258526L229.83179969787597,22.602824587869662L230.2961063639323,22.641979220133322L230.76041302998863,22.63486116046144L231.2247196960449,22.43196993947126L231.68902636210123,21.663113413541822L232.15333302815756,21.69159626036597L232.61763969421386,21.6097226619344L233.0819463602702,21.399713381272335L233.5462530263265,21.328522176416897L234.0105596923828,21.53141339740708L234.47486635843913,21.06867586991504L234.93917302449546,20.965458700604444L235.40347969055176,20.702048060198337L235.86778635660806,20.55967625862408L236.3320930226644,20.666457761838927L236.7963996887207,20.28202949887421L237.26070635477703,20.175247995659362L237.72501302083336,20.502721173112405L238.18931968688963,19.54165581976892L238.65362635294596,20.609502676327253L239.11793301900227,20.082702611788278L239.5822396850586,19.9403202020774L240.04654635111493,20.09337439722779L240.5108530171712,19.66267344232753L240.97515968322753,19.81217391171029L241.43946634928386,20.12541096981957L241.90377301534016,19.210618308411625L242.3680796813965,19.58436417780021L242.8323863474528,19.221300701987758L243.2966930135091,19.602164631048225L243.76099967956543,19.071800232605L244.22530634562176,19.634201203640004L244.68961301167806,19.160791890708452L245.15391967773436,19.007727087421443L245.6182263437907,18.776363627743734L246.082533009847,18.87247334551907L246.54683967590333,19.23553682133152L247.01114634195966,18.587708526097316L247.47545300801593,18.395499698683267L247.93975967407226,18.91162797778273L248.4040663401286,18.815518260007394L248.8683730061849,18.705172422888296L249.33267967224123,18.164125630868938L249.7969863382975,18.466690903538705L250.26129300435383,18.48092702288247L250.72559967041016,17.98259919703102L251.18990633646646,18.352780732515356L251.6542130025228,18.498716867993863L252.1185196685791,18.40617148412278L252.5828263346354,18.626863158360976L253.04713300069173,18.2887075873318L253.51143966674806,18.299389980907932L253.97574633280436,18.075144580902105L254.44005299886066,18.537871500257523L254.904359664917,18.16768996477319" fill="none"></path></g><g><path style="fill: none;" stroke="rgb(0, 119, 187)" stroke-width="2px" d="M23.215333302815754,158.64691443795695L23.67963996887207,158.3977495305184L24.143946634928387,152.9339170475547L24.6082533009847,146.6691964386338L25.072559967041016,141.24095988960207L25.53686663309733,136.57801553259551L26.001173299153646,131.55912045538008L26.465479965209962,128.51574683645904L26.929786631266275,125.29440050946772L27.39409329732259,123.74601832420349L27.858399963378908,121.9840651764071L28.32270662943522,116.28886426120162L28.787013295491537,113.24549064228059L29.25131996154785,110.91401846377731L29.71562662760417,107.46130337303997L30.179933293660483,106.64262042940736L30.644239959716796,104.27555264847636L31.108546625773112,102.78056386685371L31.572853291829425,100.82283755773902L32.03715995788574,98.50916052841545L32.50146662394206,97.99303224931599L32.965773289998374,97.77946393881798L33.43007995605468,94.0419893327272L33.89438662211101,92.79616446403027L34.358693288167316,91.97748152039766L34.82299995422363,91.17659372594476L35.28730662027995,89.73499569592953L35.75161328633626,87.83066013842226L36.21591995239258,86.54923966729761L36.68022661844889,84.80508697274924L37.14453328450521,83.71943966294289L37.608839950561524,83.50587135244488L38.073146616617834,81.44135823604704L38.53745328267416,79.92857430524468L39.001759948730474,78.71833973490716L39.46606661478678,79.07429045511604L39.9303732808431,76.97418704035879L40.39467994689941,76.93859143793107L40.85898661295573,75.12324753852725L41.32329327901205,74.73170121589065L41.78759994506836,74.60711925942779L42.251906611124674,73.50367680044174L42.716213277180984,74.50033245214463L43.18051994323731,73.00534367052198L43.644826609293624,70.56708998880386L44.10913327534993,70.49589878394842L44.57343994140625,69.57042372896434L45.03774660746256,70.26452471613409L45.50205327351888,70.2823251693821L45.9663599395752,68.4669865740466L46.43066660563151,68.82293199018717L46.894973271687824,69.00090469825746L47.35927993774414,67.77287497874023L47.82358660380046,68.52037732565402L48.287893269856774,66.56264571247102L48.75219993591308,65.77956367533444L49.2165066019694,66.63383691732646L49.680813268025716,67.00758278671505L50.14511993408203,64.90747937195779L50.60942660013835,63.430285739514844L51.07373326619466,64.65831545903207L51.538039932250975,64.64051500578405L52.00234659830729,64.48034275096178L52.46665326436361,63.18112182658912L52.930959930419924,63.18112182658912L53.39526659647624,63.003149118518834L53.85957326253255,63.48368709925889L54.323879928588866,61.86411105710506L54.78818659464518,62.771785658841125L55.2524932607015,61.3479827780056L55.716799926757815,60.618280884339825L56.181106592814125,63.14553152822971L56.64541325887044,61.170010069935316L57.10971992492676,61.170010069935316L57.574026590983074,60.70727254244328L58.03833325703939,61.632747597427354L58.5026399230957,61.65053744253875L58.966946589152016,60.422507723021525L59.43125325520834,59.799597940707216L59.89555992126465,61.18779991504671L60.359866587320965,61.45476428122045L60.824173253377275,61.22340082154274L61.28847991943359,60.51149938112498L61.752786585489915,60.814054045658125L62.217093251546224,61.57934623768331L62.68139991760254,59.49704327617407L63.14570658365885,59.372461319711206L63.610013249715166,57.9664588921237L64.07431991577148,59.90639005205868L64.5386265818278,59.247879363248344L65.00293324788412,59.39026177295922L65.46723991394043,58.32240430826427L65.93154657999675,58.10884130183457L66.39585324605306,58.269013556656844L66.86015991210937,58.80294228900432L67.3244665781657,60.04876185363294L67.78877324422201,57.71729497919797L68.25307991027832,60.01317155527353L68.71738657633463,59.087696500289454L69.18169324239095,59.74620718909979L69.64599990844727,57.52152181787967L70.11030657450358,57.450330613024235L70.5746132405599,58.162232053442L71.03891990661621,59.23007891000033L71.50322657267252,58.037650096979135L71.96753323872885,58.12663114694597L72.43183990478516,58.57156822118999L72.89614657084147,59.870789145562654L73.36045323689778,59.58603493427752L73.8247599029541,58.14443160019398L74.28906656901042,57.30794820331336L74.75337323506673,57.14777594849109L75.21767990112305,57.23675699845792L75.68198656717937,59.74620718909979L76.14629323323567,57.52152181787967L76.610599899292,57.78848618405341L77.07490656534831,56.64943751450302L77.53921323140462,57.841876935660835L78.00351989746095,57.07658474363565L78.46782656351725,56.93420233392477L78.93213322957357,57.7706857308054L79.39643989562988,58.10884130183457L79.8607465616862,55.19004433530809L80.32505322774252,58.09104084858656L80.78935989379882,56.93420233392477L81.25366655985515,56.96979263228418L81.71797322591146,59.995371102025516L82.18227989196777,57.53932227112769L82.6465865580241,58.14443160019398L83.1108932240804,58.34020476151228L83.57519989013672,57.14777594849109L84.03950655619305,57.254557451705935L84.50381322224935,57.85967738890885L84.96811988830567,56.311292551610464L85.43242655436197,57.058784290387635L85.8967332204183,56.36468330321789L86.36103988647461,58.25121310340883L86.82534655253092,56.667237967751035L87.28965321858725,57.058784290387635L87.75395988464355,58.57156822118999L88.21826655069987,55.93754668222188L88.6825732167562,56.863011129069335L89.1468798828125,56.3824837564659L89.61118654886882,57.877467234020244L90.07549321492512,55.884145322477835L90.53979988098145,56.667237967751035L91.00410654703776,57.414729706528206L91.46841321309407,56.56045646453619L91.9327198791504,55.77736381926299L92.3970265452067,58.393595513119706L92.86133321126302,55.225645241804116L93.32563987731935,55.90194577572585L93.78994654337565,55.652781862800126L94.25425320943197,55.795164272511L94.71855987548828,55.27903599341154L95.1828665415446,54.709516962704654L95.64717320760091,56.91640188067676L96.11147987365722,55.17225449019669L96.57578653971355,56.0087272789407L97.04009320576985,57.50372136463166L97.50439987182617,55.35022719826698L97.9687065378825,55.24343508691551L98.4330132039388,55.08326283209324L98.89731986999512,56.15110968865157L99.36162653605143,57.46813106627225L99.82593320210775,56.52485555804016L100.29023986816406,54.638325757849216L100.75454653422038,55.08326283209324L101.2188532002767,55.97313698058129L101.683159866333,56.84521067582132L102.14746653238932,55.884145322477835L102.61177319844565,56.471464806432735L103.07607986450195,54.65612621109723L103.54038653055827,56.667237967751035L104.00469319661458,54.40696229817151L104.4689998626709,55.617191564440716L104.93330652872721,55.101063285341255L105.39761319478353,54.38916184492349L105.86191986083985,55.261235540163526L106.32622652689615,54.78070816756009L106.79053319295248,55.08326283209324L107.2548398590088,56.240101346755026L107.7191465250651,55.83075457087041L108.18345319112142,55.261235540163526L108.64775985717773,55.77736381926299L109.11206652323405,55.15445403694868L109.57637318929036,54.78070816756009L110.04067985534668,55.86635547736644L110.504986521403,54.85189937241553L110.9692931874593,53.94422477067947L111.43359985351563,54.0332058206463L111.89790651957195,55.04767253373383L112.36221318562825,56.240101346755026L112.82651985168458,55.35022719826698L113.29082651774088,55.5993911111927L113.7551331837972,54.69171650945664L114.21943984985352,55.688372161159535L114.68374651590983,54.49594334813834L115.14805318196615,53.42809649158001L115.61235984802245,55.4036179498744L116.07666651407878,52.716195051162245L116.5409731801351,55.15445403694868L117.0052798461914,54.051006273894316L117.46958651224773,55.81296472575902L117.93389317830403,55.848555024118426L118.39819984436035,56.311292551610464L118.86250651041668,55.93754668222188L119.32681317647298,54.97648132887839L119.7911198425293,56.02652773218871L120.2554265085856,53.695060857753745L120.71973317464193,54.745107261064064L121.18403984069825,55.0120716272378L121.64834650675455,56.02652773218871L122.11265317281088,54.317970640068054L122.57695983886718,55.9909374338293L123.0412665049235,55.101063285341255L123.50557317097983,54.2289789819646L123.96987983703613,54.72731741595267L124.43418650309245,55.15445403694868L124.89849316914875,54.513743801386354L125.36279983520508,54.17558823035718L125.8271065012614,54.834098919167516L126.2914131673177,54.4247521432829L126.75571983337403,54.673916056208625L127.22002649943033,54.76290771431208L127.68433316548665,53.58826874640228L128.14863983154297,53.463686789939416L128.6129464975993,54.78070816756009L129.0772531636556,53.926424317431454L129.54155982971193,54.086607180390345L130.00586649576823,54.49594334813834L130.47017316182453,53.94422477067947L130.93447982788086,52.96535896408797L131.39878649393717,52.82297655437709L131.8630931599935,53.01874971569539L132.3273998260498,52.44923068498851L132.79170649210613,54.19338868360519L133.25601315816243,53.48148724318743L133.72031982421873,52.34244918177366L134.18462649027506,51.55935653650046L134.6489331563314,53.926424317431454L135.1132398223877,52.96535896408797L135.57754648844403,53.39249558508398L136.04185315450033,53.143331672158254L136.50615982055663,52.484831591484536L136.97046648661293,55.47480915472984L137.43477315266927,53.01874971569539L137.8990798187256,54.06880672714233L138.3633864847819,52.093285268847936L138.82769315083823,53.12554182704686L139.29199981689453,53.25012378350972L139.75630648295086,53.62386965289831L140.22061314900716,54.38916184492349L140.68491981506347,54.06880672714233L141.1492264811198,53.37470573997258L141.6135331471761,52.82297655437709L142.07783981323243,55.54600035958528L142.54214647928876,53.03655016894341L143.00645314534503,53.05435062219142L143.47075981140136,52.23565707042219L143.9350664774577,53.05435062219142L144.399373143514,52.96535896408797L144.86367980957033,53.62386965289831L145.3279864756266,52.84077700762511L145.79229314168293,54.549334099745764L146.25659980773926,53.000959870584L146.72090647379557,51.87971165428162L147.1852131398519,53.48148724318743L147.6495198059082,53.890834019072045L148.1138264719645,52.84077700762511L148.57813313802083,53.855233112576016L149.04243980407716,52.876367305984516L149.50674647013346,51.39918428167819L149.97105313618977,52.84077700762511L150.4353598022461,52.6094135479474L150.8996664683024,52.84077700762511L151.36397313435873,52.57381264145137L151.82827980041506,52.89416775923253L152.29258646647133,53.143331672158254L152.75689313252767,53.60606919965029L153.221199798584,51.41697412678958L153.6855064646403,51.59495744299649L154.14981313069663,51.968703312385074L154.61411979675293,52.46703113823652L155.07842646280923,53.05435062219142L155.54273312886556,52.92976866572856L156.0070397949219,52.14667602045536L156.4713464609782,52.76958580276967L156.9356531270345,53.03655016894341L157.3999597930908,53.695060857753745L157.86426645914713,51.71953939945935L158.32857312520346,52.27125797691822L158.79287979125976,52.14667602045536L159.25718645731607,51.701738946211336L159.7214931233724,52.128875567207345L160.1857997894287,52.57381264145137L160.65010645548503,51.32799307682275L161.11441312154136,52.484831591484536L161.57871978759763,52.85857746087312L162.04302645365397,50.82965464283468L162.5073331197103,53.16113212540627L162.9716397857666,51.737329244570745L163.43594645182293,52.96535896408797L163.90025311787923,50.11776381055354L164.36455978393553,51.52376623814105L164.82886644999186,52.62720339305879L165.2931731160482,52.00429361074448L165.7574797821045,51.64834819460391L166.2217864481608,51.16781021386386L166.68609311421713,50.08216290405751L167.15039978027343,50.633892089653L167.61470644632976,51.75512969781876L168.0790131123861,51.310192623574736L168.54331977844237,52.66280429955482L169.0076264444987,49.886389742739226L169.471933110555,52.18226631881477L169.93623977661133,51.00763795904159L170.40054644266766,50.74067359286785L170.86485310872393,49.93978049434665L171.32915977478027,52.00429361074448L171.7934664408366,50.331326816983236L172.2577731068929,51.897512107529636L172.72207977294923,50.50931013319014L173.18638643900553,51.737329244570745L173.65069310506183,50.918646300938136L174.11499977111816,51.45257503328561L174.5793064371745,50.08216290405751L175.0436131032308,51.185610667111874L175.5079197692871,50.794064344475274L175.97222643534343,51.00763795904159L176.43653310139973,50.883056002578726L176.90083976745606,50.02877215245009L177.3651464335124,50.0643624508095L177.82945309956867,50.794064344475274L178.293759765625,50.527099978301536L178.75806643168133,49.58383507820608L179.22237309773763,50.66948238801241L179.68667976379396,50.010971699202074L180.15098642985024,50.42031847508669L180.61529309590657,50.61609163640499L181.0795997619629,51.66613803971531L181.5439064280192,49.530444326598655L182.00821309407553,50.0643624508095L182.47251976013183,50.61609163640499L182.93682642618813,49.51264387335064L183.40113309224446,48.87193363778832L183.8654397583008,49.690616581420926L184.3297464243571,49.70841703466894L184.7940530904134,49.138898003962055L185.25835975646973,49.61942537656549L185.72266642252603,49.761807786276364L186.18697308858236,49.42365221524719L186.6512797546387,49.761807786276364L187.11558642069497,49.58383507820608L187.5798930867513,49.8329989911318L188.04419975280763,48.44479701679231L188.50850641886393,50.366927723479265L188.97281308492026,49.08550725235463L189.43711975097656,48.658360023222L189.90142641703287,49.21008920881749L190.3657330830892,48.08884099251512L190.83003974914553,49.51264387335064L191.29434641520183,47.89306783119682L191.75865308125813,48.28461415383342L192.22295974731443,48.320215060329446L192.68726641337076,48.92532438939574L193.1515730794271,47.46593121020081L193.6158797454834,48.80074243293288L194.0801864115397,47.94646919094086L194.54449307759603,47.51932196180823L195.00879974365233,48.658360023222L195.47310640970866,48.515988221647746L195.937413075765,47.83967707958939L196.40171974182127,48.24902385547401L196.8660264078776,47.89306783119682L197.33033307393393,49.85079944437982L197.79463973999023,48.658360023222L198.25894640604656,47.89306783119682L198.72325307210286,48.72955122807744L199.18755973815917,49.494843420102626L199.6518664042155,48.14224235225916L200.11617307027183,47.732895576374545L200.58047973632813,47.44813075695279L201.04478640238443,48.21342294897798L201.50909306844076,48.28461415383342L201.97339973449706,49.01431604749919L202.4377064005534,47.305758955378536L202.90201306660973,47.66170437151911L203.366319732666,47.75069602962256L203.83062639872233,47.87527798608542L204.29493306477863,47.64390391827109L204.75923973083496,48.23122340222599L205.2235463968913,47.16337654566766L205.68785306294757,46.8430214278865L206.1521597290039,47.181176998915674L206.61646639506023,46.68283856492761L207.08077306111653,47.59051316666367L207.54507972717286,47.35914970698596L208.00938639322916,47.28795850213052L208.47369305928547,47.83967707958939L208.9379997253418,46.73623992467165L209.40230639139813,46.70063901817562L209.86661305745443,46.09552968910933L210.33091972351073,47.05659504245281L210.79522638956706,47.05659504245281L211.25953305562336,47.4303409118414L211.7238397216797,45.970937124509845L212.18814638773603,46.68283856492761L212.6524530537923,46.93200247785333L213.11675971984863,47.55492286830426L213.58106638590496,47.305758955378536L214.04537305196126,46.23790149068358L214.5096797180176,46.398084353642474L214.97398638407387,45.6683824599767L215.4382930501302,47.216767297275084L215.90259971618653,46.38028390039446L216.36690638224283,46.14892044071675L216.83121304829916,46.789630676279074L217.29551971435546,45.935346826150436L217.75982638041177,45.970937124509845L218.2241330464681,45.88195607454301L218.68843971252443,45.91754637290242L219.15274637858073,45.79296441643956L219.61705304463703,45.6683824599767L220.08135971069336,45.187855087373265L220.54566637674967,44.92089072119953L221.009973042806,44.796308764736665L221.47427970886233,45.91754637290242L221.9385863749186,45.68618291322471L222.40289304097493,44.8674999695921L222.86719970703126,44.600535603418365L223.33150637308756,44.760707858240636L223.7958130391439,45.864155621295L224.2601197052002,45.20564493248466L224.7244263712565,45.187855087373265L225.18873303731283,46.0599287826133L225.65303970336916,45.348027342195536L226.11734636942546,44.22678973402978L226.58165303548176,45.33023749708414L227.04595970153807,45.11666388251783L227.5102663675944,45.09886342926981L227.97457303365073,45.72177321158412L228.43887969970703,45.0810629760218L228.90318636576333,45.56160095676185L229.36749303181966,44.81410921798468L229.83179969787597,44.600535603418365L230.2961063639323,44.38696198885205L230.76041302998863,45.027672224414374L231.2247196960449,44.831899063096074L231.68902636210123,44.68952726152182L232.15333302815756,43.657270703322894L232.61763969421386,44.369172143740656L233.0819463602702,44.35137169049264L233.5462530263265,44.33357123724463L234.0105596923828,44.61833605666638L234.47486635843913,44.8852898147035L234.93917302449546,45.187855087373265L235.40347969055176,45.17005463412525L235.86778635660806,44.49375410020352L236.3320930226644,44.992081926054965L236.7963996887207,44.173398982422356L237.26070635477703,44.048817025959494L237.72501302083336,44.03101657271148L238.18931968688963,44.19118882753375L238.65362635294596,44.35137169049264L239.11793301900227,44.6717268082738L239.5822396850586,44.35137169049264L240.04654635111493,44.70731710663321L240.5108530171712,44.42256289534808L240.97515968322753,44.06660687107089L241.43946634928386,44.31577078399661L241.90377301534016,44.52934439856293L242.3680796813965,44.440352740459474L242.8323863474528,43.71066145493032L243.2966930135091,44.048817025959494L243.76099967956543,43.74625175328973L244.22530634562176,43.74625175328973L244.68961301167806,43.79964250489715L245.15391967773436,44.06660687107089L245.6182263437907,44.11999762267831L246.082533009847,43.92423506949663L246.54683967590333,44.51154394531491L247.01114634195966,43.853043864641194L247.47545300801593,43.72846190817833L247.93975967407226,44.10220777756692L248.4040663401286,44.29798093888522L248.8683730061849,44.06660687107089L249.33267967224123,44.10220777756692L249.7969863382975,44.13779807592633L250.26129300435383,44.15559852917434L250.72559967041016,44.42256289534808L251.18990633646646,44.404762442100065L251.6542130025228,44.11999762267831L252.1185196685791,44.19118882753375L252.5828263346354,43.8886341630006L253.04713300069173,44.013216119463465L253.51143966674806,44.013216119463465L253.97574633280436,43.99541566621545L254.44005299886066,44.15559852917434L254.904359664917,44.19118882753375" fill="none"></path></g></g></g></g></g></g><g transform="translate(51, 177)" clip-path="url(#clip_1)"><clipPath id="clip_1"><rect width="278" height="22"></rect></clipPath><g><g><line x1="0" y1="0" x2="0" y2="5" style="visibility: inherit;" fill="rgb(0, 0, 0)" stroke="rgb(204, 204, 204)" stroke-width="1px"></line><line x1="23.215333302815754" y1="0" x2="23.215333302815754" y2="5" style="visibility: inherit;" fill="rgb(0, 0, 0)" stroke="rgb(204, 204, 204)" stroke-width="1px"></line><line x1="46.43066660563151" y1="0" x2="46.43066660563151" y2="5" style="visibility: inherit;" fill="rgb(0, 0, 0)" stroke="rgb(204, 204, 204)" stroke-width="1px"></line><line x1="69.64599990844727" y1="0" x2="69.64599990844727" y2="5" style="visibility: inherit;" fill="rgb(0, 0, 0)" stroke="rgb(204, 204, 204)" stroke-width="1px"></line><line x1="92.86133321126302" y1="0" x2="92.86133321126302" y2="5" style="visibility: inherit;" fill="rgb(0, 0, 0)" stroke="rgb(204, 204, 204)" stroke-width="1px"></line><line x1="116.07666651407878" y1="0" x2="116.07666651407878" y2="5" style="visibility: inherit;" fill="rgb(0, 0, 0)" stroke="rgb(204, 204, 204)" stroke-width="1px"></line><line x1="139.29199981689453" y1="0" x2="139.29199981689453" y2="5" style="visibility: inherit;" fill="rgb(0, 0, 0)" stroke="rgb(204, 204, 204)" stroke-width="1px"></line><line x1="162.5073331197103" y1="0" x2="162.5073331197103" y2="5" style="visibility: inherit;" fill="rgb(0, 0, 0)" stroke="rgb(204, 204, 204)" stroke-width="1px"></line><line x1="185.72266642252603" y1="0" x2="185.72266642252603" y2="5" style="visibility: inherit;" fill="rgb(0, 0, 0)" stroke="rgb(204, 204, 204)" stroke-width="1px"></line><line x1="208.9379997253418" y1="0" x2="208.9379997253418" y2="5" style="visibility: inherit;" fill="rgb(0, 0, 0)" stroke="rgb(204, 204, 204)" stroke-width="1px"></line><line x1="232.15333302815756" y1="0" x2="232.15333302815756" y2="5" style="visibility: inherit;" fill="rgb(0, 0, 0)" stroke="rgb(204, 204, 204)" stroke-width="1px"></line><line x1="255.3686663309733" y1="0" x2="255.3686663309733" y2="5" style="visibility: inherit;" fill="rgb(0, 0, 0)" stroke="rgb(204, 204, 204)" stroke-width="1px"></line><line x1="278.58399963378906" y1="0" x2="278.58399963378906" y2="5" style="visibility: inherit;" fill="rgb(0, 0, 0)" stroke="rgb(204, 204, 204)" stroke-width="1px"></line></g><g transform="translate(0, 8)"><text style="text-anchor: middle; visibility: hidden; font-family: &quot;Helvetica Neue&quot;, sans-serif; font-size: 12px; font-weight: 200;" x="0" y="0" dx="0em" dy="0.95em" fill="rgb(50, 49, 63)" stroke="none" stroke-width="1px">-50</text><text style="text-anchor: middle; visibility: inherit; font-family: &quot;Helvetica Neue&quot;, sans-serif; font-size: 12px; font-weight: 200;" x="23.215333302815754" y="0" dx="0em" dy="0.95em" fill="rgb(50, 49, 63)" stroke="none" stroke-width="1px">0</text><text style="text-anchor: middle; visibility: hidden; font-family: &quot;Helvetica Neue&quot;, sans-serif; font-size: 12px; font-weight: 200;" x="46.43066660563151" y="0" dx="0em" dy="0.95em" fill="rgb(50, 49, 63)" stroke="none" stroke-width="1px">50</text><text style="text-anchor: middle; visibility: inherit; font-family: &quot;Helvetica Neue&quot;, sans-serif; font-size: 12px; font-weight: 200;" x="69.64599990844727" y="0" dx="0em" dy="0.95em" fill="rgb(50, 49, 63)" stroke="none" stroke-width="1px">100</text><text style="text-anchor: middle; visibility: hidden; font-family: &quot;Helvetica Neue&quot;, sans-serif; font-size: 12px; font-weight: 200;" x="92.86133321126302" y="0" dx="0em" dy="0.95em" fill="rgb(50, 49, 63)" stroke="none" stroke-width="1px">150</text><text style="text-anchor: middle; visibility: inherit; font-family: &quot;Helvetica Neue&quot;, sans-serif; font-size: 12px; font-weight: 200;" x="116.07666651407878" y="0" dx="0em" dy="0.95em" fill="rgb(50, 49, 63)" stroke="none" stroke-width="1px">200</text><text style="text-anchor: middle; visibility: hidden; font-family: &quot;Helvetica Neue&quot;, sans-serif; font-size: 12px; font-weight: 200;" x="139.29199981689453" y="0" dx="0em" dy="0.95em" fill="rgb(50, 49, 63)" stroke="none" stroke-width="1px">250</text><text style="text-anchor: middle; visibility: inherit; font-family: &quot;Helvetica Neue&quot;, sans-serif; font-size: 12px; font-weight: 200;" x="162.5073331197103" y="0" dx="0em" dy="0.95em" fill="rgb(50, 49, 63)" stroke="none" stroke-width="1px">300</text><text style="text-anchor: middle; visibility: hidden; font-family: &quot;Helvetica Neue&quot;, sans-serif; font-size: 12px; font-weight: 200;" x="185.72266642252603" y="0" dx="0em" dy="0.95em" fill="rgb(50, 49, 63)" stroke="none" stroke-width="1px">350</text><text style="text-anchor: middle; visibility: inherit; font-family: &quot;Helvetica Neue&quot;, sans-serif; font-size: 12px; font-weight: 200;" x="208.9379997253418" y="0" dx="0em" dy="0.95em" fill="rgb(50, 49, 63)" stroke="none" stroke-width="1px">400</text><text style="text-anchor: middle; visibility: hidden; font-family: &quot;Helvetica Neue&quot;, sans-serif; font-size: 12px; font-weight: 200;" x="232.15333302815756" y="0" dx="0em" dy="0.95em" fill="rgb(50, 49, 63)" stroke="none" stroke-width="1px">450</text><text style="text-anchor: middle; visibility: inherit; font-family: &quot;Helvetica Neue&quot;, sans-serif; font-size: 12px; font-weight: 200;" x="255.3686663309733" y="0" dx="0em" dy="0.95em" fill="rgb(50, 49, 63)" stroke="none" stroke-width="1px">500</text><text style="text-anchor: middle; visibility: hidden; font-family: &quot;Helvetica Neue&quot;, sans-serif; font-size: 12px; font-weight: 200;" x="278.58399963378906" y="0" dx="0em" dy="0.95em" fill="rgb(50, 49, 63)" stroke="none" stroke-width="1px">550</text></g><line x1="0" y1="0" x2="278.58399963378906" y2="0" fill="rgb(0, 0, 0)" stroke="rgb(204, 204, 204)" stroke-width="1px"></line></g></g></g></g></svg>