<svg viewBox="0 0 330 200" xmlns="http://www.w3.org/2000/svg"><g><g><g><g><g><line x1="51.41600036621094" y1="177.9749994277954" x2="46.41600036621094" y2="177.9749994277954" style="visibility: inherit;" fill="rgb(0, 0, 0)" stroke="rgb(204, 204, 204)" stroke-width="1px"></line><line x1="51.41600036621094" y1="152.54999950953894" x2="46.41600036621094" y2="152.54999950953894" style="visibility: inherit;" fill="rgb(0, 0, 0)" stroke="rgb(204, 204, 204)" stroke-width="1px"></line><line x1="51.41600036621094" y1="127.12499959128243" x2="46.41600036621094" y2="127.12499959128243" style="visibility: inherit;" fill="rgb(0, 0, 0)" stroke="rgb(204, 204, 204)" stroke-width="1px"></line><line x1="51.41600036621094" y1="101.69999967302596" x2="46.41600036621094" y2="101.69999967302596" style="visibility: inherit;" fill="rgb(0, 0, 0)" stroke="rgb(204, 204, 204)" stroke-width="1px"></line><line x1="51.41600036621094" y1="76.27499975476947" x2="46.41600036621094" y2="76.27499975476947" style="visibility: inherit;" fill="rgb(0, 0, 0)" stroke="rgb(204, 204, 204)" stroke-width="1px"></line><line x1="51.41600036621094" y1="50.84999983651298" x2="46.41600036621094" y2="50.84999983651298" style="visibility: inherit;" fill="rgb(0, 0, 0)" stroke="rgb(204, 204, 204)" stroke-width="1px"></line><line x1="51.41600036621094" y1="25.424999918256503" x2="46.41600036621094" y2="25.424999918256503" style="visibility: inherit;" fill="rgb(0, 0, 0)" stroke="rgb(204, 204, 204)" stroke-width="1px"></line><line x1="51.41600036621094" y1="0" x2="46.41600036621094" y2="0" style="visibility: inherit;" fill="rgb(0, 0, 0)" stroke="rgb(204, 204, 204)" stroke-width="1px"></line></g><g transform="translate(41.41600036621094, 0)"><text style="text-anchor: end; visibility: hidden; font-family: &quot;Helvetica Neue&quot;, sans-serif; font-size: 12px; font-weight: 200;" x="0" y="177.9749994277954" dx="0em" dy="0.3em" fill="rgb(50, 49, 63)" stroke="none" stroke-width="1px">-0.5</text><text style="text-anchor: end; visibility: inherit; font-family: &quot;Helvetica Neue&quot;, sans-serif; font-size: 12px; font-weight: 200;" x="0" y="152.54999950953894" dx="0em" dy="0.3em" fill="rgb(50, 49, 63)" stroke="none" stroke-width="1px">0</text><text style="text-anchor: end; visibility: inherit; font-family: &quot;Helvetica Neue&quot;, sans-serif; font-size: 12px; font-weight: 200;" x="0" y="127.12499959128243" dx="0em" dy="0.3em" fill="rgb(50, 49, 63)" stroke="none" stroke-width="1px">0.5</text><text style="text-anchor: end; visibility: inherit; font-family: &quot;Helvetica Neue&quot;, sans-serif; font-size: 12px; font-weight: 200;" x="0" y="101.69999967302596" dx="0em" dy="0.3em" fill="rgb(50, 49, 63)" stroke="none" stroke-width="1px">1</text><text style="text-anchor: end; visibility: inherit; font-family: &quot;Helvetica Neue&quot;, sans-serif; font-size: 12px; font-weight: 200;" x="0" y="76.27499975476947" dx="0em" dy="0.3em" fill="rgb(50, 49, 63)" stroke="none" stroke-width="1px">1.5</text><text style="text-anchor: end; visibility: inherit; font-family: &quot;Helvetica Neue&quot;, sans-serif; font-size: 12px; font-weight: 200;" x="0" y="50.84999983651298" dx="0em" dy="0.3em" fill="rgb(50, 49, 63)" stroke="none" stroke-width="1px">2</text><text style="text-anchor: end; visibility: inherit; font-family: &quot;Helvetica Neue&quot;, sans-serif; font-size: 12px; font-weight: 200;" x="0" y="25.424999918256503" dx="0em" dy="0.3em" fill="rgb(50, 49, 63)" stroke="none" stroke-width="1px">2.5</text><text style="text-anchor: end; visibility: hidden; font-family: &quot;Helvetica Neue&quot;, sans-serif; font-size: 12px; font-weight: 200;" x="0" y="0" dx="0em" dy="0.3em" fill="rgb(50, 49, 63)" stroke="none" stroke-width="1px">3</text></g><line x1="51.41600036621094" y1="0" x2="51.41600036621094" y2="177.9749994277954" fill="rgb(0, 0, 0)" stroke="rgb(204, 204, 204)" stroke-width="1px"></line></g></g><g transform="translate(51, 0)" clip-path="url(#clip_0)"><clipPath id="clip_0"><rect width="278" height="177"></rect></clipPath><g><g><g><line x1="0" y1="0" x2="0" y2="177.9749994277954" fill="rgb(0, 0, 0)" stroke="rgb(60, 60, 60)" stroke-width="1px" opacity="0.25"></line><line x1="23.215333302815754" y1="0" x2="23.215333302815754" y2="177.9749994277954" fill="rgb(0, 0, 0)" stroke="rgb(60, 60, 60)" stroke-width="1px" opacity="0.25"></line><line x1="46.43066660563151" y1="0" x2="46.43066660563151" y2="177.9749994277954" fill="rgb(0, 0, 0)" stroke="rgb(60, 60, 60)" stroke-width="1px" opacity="0.25"></line><line x1="69.64599990844727" y1="0" x2="69.64599990844727" y2="177.9749994277954" fill="rgb(0, 0, 0)" stroke="rgb(60, 60, 60)" stroke-width="1px" opacity="0.25"></line><line x1="92.86133321126302" y1="0" x2="92.86133321126302" y2="177.9749994277954" fill="rgb(0, 0, 0)" stroke="rgb(60, 60, 60)" stroke-width="1px" opacity="0.25"></line><line x1="116.07666651407878" y1="0" x2="116.07666651407878" y2="177.9749994277954" fill="rgb(0, 0, 0)" stroke="rgb(60, 60, 60)" stroke-width="1px" opacity="0.25"></line><line x1="139.29199981689453" y1="0" x2="139.29199981689453" y2="177.9749994277954" fill="rgb(0, 0, 0)" stroke="rgb(60, 60, 60)" stroke-width="1px" opacity="0.25"></line><line x1="162.5073331197103" y1="0" x2="162.5073331197103" y2="177.9749994277954" fill="rgb(0, 0, 0)" stroke="rgb(60, 60, 60)" stroke-width="1px" opacity="0.25"></line><line x1="185.72266642252603" y1="0" x2="185.72266642252603" y2="177.9749994277954" fill="rgb(0, 0, 0)" stroke="rgb(60, 60, 60)" stroke-width="1px" opacity="0.25"></line><line x1="208.9379997253418" y1="0" x2="208.9379997253418" y2="177.9749994277954" fill="rgb(0, 0, 0)" stroke="rgb(60, 60, 60)" stroke-width="1px" opacity="0.25"></line><line x1="232.15333302815756" y1="0" x2="232.15333302815756" y2="177.9749994277954" fill="rgb(0, 0, 0)" stroke="rgb(60, 60, 60)" stroke-width="1px" opacity="0.25"></line><line x1="255.3686663309733" y1="0" x2="255.3686663309733" y2="177.9749994277954" fill="rgb(0, 0, 0)" stroke="rgb(60, 60, 60)" stroke-width="1px" opacity="0.25"></line><line x1="278.58399963378906" y1="0" x2="278.58399963378906" y2="177.9749994277954" fill="rgb(0, 0, 0)" stroke="rgb(60, 60, 60)" stroke-width="1px" opacity="0.25"></line></g><g><line x1="0" y1="177.9749994277954" x2="278.58399963378906" y2="177.9749994277954" fill="rgb(0, 0, 0)" stroke="rgb(60, 60, 60)" stroke-width="1px" opacity="0.25"></line><line x1="0" y1="152.54999950953894" x2="278.58399963378906" y2="152.54999950953894" fill="rgb(0, 0, 0)" stroke="rgb(60, 60, 60)" stroke-width="1px" opacity="0.25"></line><line x1="0" y1="127.12499959128243" x2="278.58399963378906" y2="127.12499959128243" fill="rgb(0, 0, 0)" stroke="rgb(60, 60, 60)" stroke-width="1px" opacity="0.25"></line><line x1="0" y1="101.69999967302596" x2="278.58399963378906" y2="101.69999967302596" fill="rgb(0, 0, 0)" stroke="rgb(60, 60, 60)" stroke-width="1px" opacity="0.25"></line><line x1="0" y1="76.27499975476947" x2="278.58399963378906" y2="76.27499975476947" fill="rgb(0, 0, 0)" stroke="rgb(60, 60, 60)" stroke-width="1px" opacity="0.25"></line><line x1="0" y1="50.84999983651298" x2="278.58399963378906" y2="50.84999983651298" fill="rgb(0, 0, 0)" stroke="rgb(60, 60, 60)" stroke-width="1px" opacity="0.25"></line><line x1="0" y1="25.424999918256503" x2="278.58399963378906" y2="25.424999918256503" fill="rgb(0, 0, 0)" stroke="rgb(60, 60, 60)" stroke-width="1px" opacity="0.25"></line><line x1="0" y1="0" x2="278.58399963378906" y2="0" fill="rgb(0, 0, 0)" stroke="rgb(60, 60, 60)" stroke-width="1px" opacity="0.25"></line></g></g></g><g><g><line x1="0" y1="152.54999950953894" x2="278.58399963378906" y2="152.54999950953894" fill="rgb(0, 0, 0)" stroke="rgb(153, 153, 153)" stroke-width="1.5px"></line></g></g><g><g><line x1="23.215333302815754" y1="0" x2="23.215333302815754" y2="177.9749994277954" fill="rgb(0, 0, 0)" stroke="rgb(153, 153, 153)" stroke-width="1.5px"></line></g></g><g><g><g><g><g><path style="fill: none;" stroke="rgb(238, 51, 119)" stroke-width="2px" d="M28.787013295491537,-2.9395813370608437L29.25131996154785,0.4678612574793988L29.71562662760417,2.708748284214124L30.179933293660483,4.964013882412928L30.644239959716796,9.199169975745406L31.108546625773112,10.821572328584352L31.572853291829425,14.464818645701712L32.03715995788574,15.867177936084374L32.50146662394206,17.46050793279275L32.965773289998374,18.780972408470575L33.43007995605468,22.42138180676622L33.89438662211101,24.438709931479224L34.358693288167316,25.853762615051494L34.82299995422363,28.593025961976508L35.28730662027995,31.38423886937673L35.75161328633626,33.180008483544896L36.21591995239258,33.41627290234095L36.68022661844889,36.839585269264376L37.14453328450521,38.69135372120036L37.608839950561524,39.92313417473673L38.073146616617834,42.57561690231944L38.53745328267416,42.84871277145942L39.001759948730474,46.22212446372339L39.46606661478678,45.78260814729208L39.9303732808431,47.89810093738845L40.39467994689941,48.79919849442024L40.85898661295573,51.04113421123225L41.32329327901205,51.49200426474292L41.78759994506836,53.33465578097821L42.251906611124674,54.51816618199834L42.716213277180984,52.931007089906515L43.18051994323731,56.31584526075805L43.644826609293624,57.47592683432933L44.10913327534993,59.18523104235763L44.57343994140625,59.28314111246216L45.03774660746256,60.10226505148853L45.50205327351888,61.329820435754044L45.9663599395752,61.05029906671864L46.43066660563151,61.39643347193399L46.894973271687824,62.7550205597272L47.35927993774414,63.24661373427317L47.82358660380046,63.999148884289L48.287893269856774,65.54734883692059L48.75219993591308,65.72825696793838L49.2165066019694,66.14401712013371L49.680813268025716,66.78192377673223L50.14511993408203,68.0848999814683L50.60942660013835,67.96100300754145L51.07373326619466,68.61902269117111L51.538039932250975,68.9387519288917L52.00234659830729,69.71896522279667L52.46665326436361,70.59542765570112L52.930959930419924,70.80567486171309L53.39526659647624,69.24534526258081L53.85957326253255,72.27639298447369L54.323879928588866,71.66425500717274L54.78818659464518,72.1495924120092L55.2524932607015,73.76706652766423L55.716799926757815,73.87767605275073L56.181106592814125,72.35614798647748L56.64541325887044,73.91541677194778L57.10971992492676,73.90492987117507L57.574026590983074,74.82432797932408L58.03833325703939,75.1595814672637L58.5026399230957,73.085314926968L58.966946589152016,74.26493365729675L59.43125325520834,75.88538411299767L59.89555992126465,75.05266963551324L60.359866587320965,75.00320540990323L60.824173253377275,75.68655732378095L61.28847991943359,76.06121246202267L61.752786585489915,75.5301509574587L62.217093251546224,75.2554729605143L62.68139991760254,76.63732520736279L63.14570658365885,76.78120791068133L63.610013249715166,77.92570461611002L64.07431991577148,77.88301747435197L64.5386265818278,78.36433591085763L65.00293324788412,77.51743683926445L65.46723991394043,78.85151610056975L65.93154657999675,78.74713203623098L66.39585324605306,78.98607576724758L66.86015991210937,76.7331742680669L67.3244665781657,77.66669029060878L67.78877324422201,78.61636705156687L68.25307991027832,77.40308112650307L68.71738657633463,79.0725048026333L69.18169324239095,78.61700960155642L69.64599990844727,81.73946915215015L70.11030657450358,79.60659720337435L70.5746132405599,78.6407112096612L71.03891990661621,77.96617920365881L71.50322657267252,81.16976372132838L71.96753323872885,80.02101163766704L72.43183990478516,81.27185642815728L72.89614657084147,78.78298147621354L73.36045323689778,78.76625699110839L73.8247599029541,80.65092885194278L74.28906656901042,81.64931211446661L74.75337323506673,80.51405358058567L75.21767990112305,81.25157367094023L75.68198656717937,80.0836299526856L76.14629323323567,81.65521630021956L76.610599899292,79.14243363923099L77.07490656534831,81.95189860340962L77.53921323140462,79.05842932078693L78.00351989746095,81.8144535235712L78.46782656351725,80.83318876265555L78.93213322957357,81.39025535641888L79.39643989562988,80.50970727546772L79.8607465616862,82.60892415309318L80.32505322774252,81.40211222226364L80.78935989379882,81.0256627934851L81.25366655985515,81.92200184351886L81.71797322591146,79.03244847875696L82.18227989196777,81.78726032307041L82.6465865580241,82.43864234407225L83.1108932240804,81.74276676719082L83.57519989013672,82.74549027304023L84.03950655619305,83.68333441532299L84.50381322224935,81.6486513791L84.96811988830567,83.12267317869363L85.43242655436197,83.82535614838879L85.8967332204183,83.21790999836996L86.36103988647461,82.6618799710992L86.82534655253092,83.7242272665442L87.28965321858725,81.10967923551387L87.75395988464355,81.46077824866727L88.21826655069987,83.86901923871586L88.6825732167562,82.67591908219144L89.1468798828125,81.74328808133328L89.61118654886882,82.4560942442599L90.07549321492512,83.02904273399115L90.53979988098145,84.3397840947329L91.00410654703776,81.17099426517628L91.46841321309407,82.52309523515052L91.9327198791504,84.58000080214389L92.3970265452067,82.5533072082437L92.86133321126302,85.17131046091592L93.32563987731935,84.47591982742281L93.78994654337565,83.55654596644321L94.25425320943197,83.83245450723552L94.71855987548828,84.4151079265258L95.1828665415446,84.33190376467249L95.64717320760091,83.73988487619502L96.11147987365722,84.67372823552402L96.57578653971355,84.518061407869L97.04009320576985,83.87834833714894L97.50439987182617,84.1122971512657L97.9687065378825,85.975025323778L98.4330132039388,84.9476060758777L98.89731986999512,84.5490614139682L99.36162653605143,83.11174982887142L99.82593320210775,84.61690499399606L100.29023986816406,86.35112923039235L100.75454653422038,85.07016339369427L101.2188532002767,84.18725121372498L101.683159866333,83.84393554195432L102.14746653238932,86.59637116366493L102.61177319844565,82.42454261505645L103.07607986450195,86.52887916759362L103.54038653055827,84.16100971462379L104.00469319661458,86.41763315430993L104.4689998626709,85.36307526204003L104.93330652872721,83.98373259722614L105.39761319478353,84.84905951757598L105.86191986083985,85.65441106437369L106.32622652689615,84.32127744267564L106.79053319295248,85.38969865405953L107.2548398590088,85.10280008372911L107.7191465250651,84.88189018496617L108.18345319112142,85.36796106667748L108.64775985717773,85.75881937588188L109.11206652323405,86.05127054800872L109.57637318929036,87.91824803696129L110.04067985534668,86.67877516892749L110.504986521403,87.94927229022993L110.9692931874593,87.56905848839945L111.43359985351563,87.77803271801703L111.89790651957195,86.42416776646772L112.36221318562825,85.878818617325L112.82651985168458,86.19298312966446L113.29082651774088,85.99059806833586L113.7551331837972,86.31096985604599L114.21943984985352,86.45303402165827L114.68374651590983,87.58878962251227L115.14805318196615,86.84757790061401L115.61235984802245,85.64029921177318L116.07666651407878,87.85430825120953L116.5409731801351,84.02063678907832L117.0052798461914,88.03269467660799L117.46958651224773,86.27428995051092L117.93389317830403,86.10851811500149L118.39819984436035,83.69033578549205L118.86250651041668,85.7887343211497L119.32681317647298,86.82254875998365L119.7911198425293,87.1623607157736L120.2554265085856,89.05150011757301L120.71973317464193,87.03849405080852L121.18403984069825,86.5119910140949L121.64834650675455,84.37045070225265L122.11265317281088,86.60662165453583L122.57695983886718,87.6020103916367L123.0412665049235,87.0617228391097L123.50557317097983,88.36528703770412L123.96987983703613,89.14417279908353L124.43418650309245,87.96481472582602L124.89849316914875,87.6737213951865L125.36279983520508,87.28657290290286L125.8271065012614,88.20511629832994L126.2914131673177,87.78370655566053L126.75571983337403,88.57665567530161L127.22002649943033,88.25412588951339L127.68433316548665,88.96267061241504L128.14863983154297,88.19220468061556L128.6129464975993,88.1798083152513L129.0772531636556,88.66463652953L129.54155982971193,87.52037017221076L130.00586649576823,88.43831345019478L130.47017316182453,88.41777003590651L130.93447982788086,88.78706654970713L131.39878649393717,89.77433854684578L131.8630931599935,88.64970027316933L132.3273998260498,88.4022700328569L132.79170649210613,87.9039240216284L133.25601315816243,89.6366509953132L133.72031982421873,90.0468464221274L134.18462649027506,89.04868744592068L134.6489331563314,88.79968720138852L135.1132398223877,88.38623053028778L135.57754648844403,89.12356876687171L136.04185315450033,89.44362534137943L136.50615982055663,91.15132923622625L136.97046648661293,88.66774016721534L137.43477315266927,89.12078640418116L137.8990798187256,89.24508951819573L138.3633864847819,91.14041800998874L138.82769315083823,90.88708358392336L139.29199981689453,89.82362091868517L139.75630648295086,89.54348124682964L140.22061314900716,90.95650322996329L140.68491981506347,88.88556461367001L141.1492264811198,91.80907613919996L141.6135331471761,91.74786416000757L142.07783981323243,88.79288587036714L142.54214647928876,89.7891232583976L143.00645314534503,91.05059437088468L143.47075981140136,90.63033030697021L143.9350664774577,89.99343596969483L144.399373143514,90.68424994996053L144.86367980957033,90.29351893839556L145.3279864756266,91.28451287603967L145.79229314168293,90.78511211294153L146.25659980773926,91.52308683772266L146.72090647379557,90.53919125892529L147.1852131398519,90.02400558853691L147.6495198059082,90.5042995821347L148.1138264719645,90.14017983900453L148.57813313802083,90.51036137448887L149.04243980407716,91.76671027243668L149.50674647013346,91.75400475566234L149.97105313618977,91.46557255186632L150.4353598022461,92.00814540011083L150.8996664683024,91.14550385377389L151.36397313435873,92.11659692711925L151.82827980041506,91.51007216953826L152.29258646647133,91.16106447474704L152.75689313252767,91.1143280556964L153.221199798584,93.29263313816669L153.6855064646403,92.34319884890277L154.14981313069663,93.08961765043324L154.61411979675293,92.39465134240494L155.07842646280923,92.79503272739774L155.54273312886556,92.36802795038544L156.0070397949219,92.83513754561292L156.4713464609782,91.58192865610457L156.9356531270345,92.94550459900526L157.3999597930908,92.04370387406038L157.86426645914713,91.82589155119041L158.32857312520346,92.55867131992403L158.79287979125976,93.4496274983473L159.25718645731607,93.78475368864747L159.7214931233724,92.99355036520438L160.1857997894287,91.15108070273972L160.65010645548503,93.48358565911533L161.11441312154136,92.71171945328206L161.57871978759763,93.97862193171846L162.04302645365397,94.36139987171477L162.5073331197103,92.05260864702865L162.9716397857666,94.66614435873586L163.43594645182293,93.01222674744758L163.90025311787923,94.92117002486806L164.36455978393553,93.21038673950534L164.82886644999186,94.272146041092L165.2931731160482,94.67496426661117L165.7574797821045,93.98362897220301L166.2217864481608,95.17337089576323L166.68609311421713,95.6736930512992L167.15039978027343,93.50036470035167L167.61470644632976,94.36362454950876L168.0790131123861,94.06589355624143L168.54331977844237,94.80111622729376L169.0076264444987,96.20021427338988L169.471933110555,94.86623200076224L169.93623977661133,95.97972263829936L170.40054644266766,95.87285323909538L170.86485310872393,95.43775596929027L171.32915977478027,93.82539194458981L171.7934664408366,96.7755753564781L172.2577731068929,95.86570032411747L172.72207977294923,96.18455060194671L173.18638643900553,95.30474205966276L173.65069310506183,95.66249692082104L174.11499977111816,96.02975667239068L174.5793064371745,95.88236419129908L175.0436131032308,94.85914576550022L175.5079197692871,95.66301217317115L175.97222643534343,96.71878242391189L176.43653310139973,96.63009233997806L176.90083976745606,97.12749877339166L177.3651464335124,97.12507405645L177.82945309956867,95.88621949123632L178.293759765625,95.90886028567914L178.75806643168133,96.45096031412004L179.22237309773763,97.36078079034948L179.68667976379396,96.83298053007206L180.15098642985024,97.05381768732676L180.61529309590657,96.75732329969969L181.0795997619629,96.14088751161964L181.5439064280192,97.91667745818846L182.00821309407553,96.63217759654789L182.47251976013183,96.91198993161629L182.93682642618813,98.45056375798946L183.40113309224446,98.11660143182127L183.8654397583008,98.5691021074752L184.3297464243571,97.71635946805262L184.7940530904134,97.77591657793232L185.25835975646973,98.68494902115572L185.72266642252603,98.23904963737547L186.18697308858236,99.13397628979072L186.6512797546387,98.80602726163787L187.11558642069497,98.75313206155539L187.5798930867513,99.2394696621303L188.04419975280763,99.11128700100906L188.50850641886393,98.81181627333609L188.97281308492026,100.18391509628674L189.43711975097656,99.88094671442542L189.90142641703287,100.49196932193321L190.3657330830892,100.15307269678874L190.83003974914553,99.44566152905733L191.29434641520183,101.03396023811173L191.75865308125813,100.33986076639007L192.22295974731443,100.88580397118352L192.68726641337076,100.84871186376836L193.1515730794271,100.63096622061428L193.6158797454834,100.26787698218433L194.0801864115397,101.97550813552289L194.54449307759603,101.30618927094507L195.00879974365233,102.29935939204432L195.47310640970866,101.407324214582L195.937413075765,101.60879394526513L196.40171974182127,101.99641222645624L196.8660264078776,102.23241598818106L197.33033307393393,101.24525007240862L197.79463973999023,102.10543356194594L198.25894640604656,102.48071306480014L198.72325307210286,102.21526111581876L199.18755973815917,101.6057024311645L199.6518664042155,102.3880161361202L200.11617307027183,103.18045303430735L200.58047973632813,103.34778578134798L201.04478640238443,102.83803753870129L201.50909306844076,104.04560113178275L201.97339973449706,102.42541739494541L202.4377064005534,103.6498024618097L202.90201306660973,103.89269848144122L203.366319732666,104.29042480138288L203.83062639872233,103.91425421505264L204.29493306477863,104.69135780947991L204.75923973083496,104.32293722467446L205.2235463968913,104.7494085639596L205.68785306294757,104.99039814989573L206.1521597290039,105.14372209480588L206.61646639506023,104.7567221164349L207.08077306111653,105.16926951868253L207.54507972717286,105.29815231682068L208.00938639322916,105.75491140160341L208.47369305928547,105.78753293715737L208.9379997253418,106.70473667647417L209.40230639139813,105.06353367464877L209.86661305745443,106.27403723702201L210.33091972351073,106.21118251210163L210.79522638956706,106.22009031596609L211.25953305562336,106.68459940227363L211.7238397216797,106.97948741492684L212.18814638773603,107.14889026405643L212.6524530537923,106.96268715741726L213.11675971984863,106.71171379947383L213.58106638590496,107.16816979463886L214.04537305196126,107.64745146891352L214.5096797180176,108.40338425354386L214.97398638407387,108.01381710611089L215.4382930501302,107.82460128867172L215.90259971618653,107.77097564261057L216.36690638224283,108.03587293759153L216.83121304829916,108.5086594013587L217.29551971435546,109.06904785733212L217.75982638041177,108.82811282752718L218.2241330464681,109.13706722933824L218.68843971252443,109.39582392866443L219.15274637858073,109.2843839380254L219.61705304463703,109.21391863280438L220.08135971069336,109.75800692913744L220.54566637674967,109.88144623774154L221.009973042806,109.93318363548437L221.47427970886233,109.66294893233555L221.9385863749186,110.04510856951173L222.40289304097493,110.9566687801468L222.86719970703126,111.04471025229874L223.33150637308756,111.31527835402704L223.7958130391439,111.03956379059005L224.2601197052002,110.92035258215299L224.7244263712565,111.5070219388779L225.18873303731283,111.53134488069901L225.65303970336916,111.3096621034109L226.11734636942546,112.00610142698127L226.58165303548176,111.8193982224729L227.04595970153807,111.47464893681047L227.5102663675944,112.38747909294375L227.97457303365073,112.26409737136701L228.43887969970703,112.64325945222404L228.90318636576333,112.19566276658463L229.36749303181966,113.05115745973602L229.83179969787597,112.87196481595446L230.2961063639323,112.96160357039172L230.76041302998863,112.70501396183214L231.2247196960449,113.083933570995L231.68902636210123,113.59667027727231L232.15333302815756,113.86006727864562L232.61763969421386,113.79393009316547L233.0819463602702,114.29710735290024L233.5462530263265,113.96958568110837L234.0105596923828,114.13955530782306L234.47486635843913,114.39573877629492L234.93917302449546,114.50669685444178L235.40347969055176,114.65101903770599L235.86778635660806,114.84661792249412L236.3320930226644,114.97159692635617L236.7963996887207,114.9945529340014L237.26070635477703,115.24575967095049L237.72501302083336,115.2285381188723L238.18931968688963,115.4486751391101L238.65362635294596,115.33615311853583L239.11793301900227,115.39881386610088L239.5822396850586,115.77067148717114L240.04654635111493,115.54341489181337L240.5108530171712,115.7989800574651L240.97515968322753,115.99920712071562L241.43946634928386,115.81032773275211L241.90377301534016,116.23592314304207L242.3680796813965,116.10153017565398L242.8323863474528,116.35588904462723L243.2966930135091,116.34661147142918L243.76099967956543,116.70900966553076L244.22530634562176,116.30390917519024L244.68961301167806,116.64002040674796L245.15391967773436,116.7353905858561L245.6182263437907,116.74300722794911L246.082533009847,116.6092659032391L246.54683967590333,116.61430022178924L247.01114634195966,117.130707343337L247.47545300801593,116.98463027118625L247.93975967407226,116.89499454764517L248.4040663401286,117.1371873993636L248.8683730061849,116.83503129767774L249.33267967224123,117.27965770506361L249.7969863382975,117.1429127622421L250.26129300435383,117.09713107548725L250.72559967041016,117.30551428035031L251.18990633646646,117.12149948075101L251.6542130025228,117.12851297450479L252.1185196685791,117.19656871726502L252.5828263346354,117.26678548899953L253.04713300069173,117.36610492582639L253.51143966674806,117.22103411120645L253.97574633280436,117.28627415141818L254.44005299886066,117.34273974719726L254.904359664917,117.32679420240962" fill="none"></path></g><g><path style="fill: none;" stroke="rgb(204, 51, 17)" stroke-width="2px" d="M28.787013295491537,-1.0361057963438327L29.25131996154785,2.462675885389018L29.71562662760417,5.2397163222651955L30.179933293660483,8.635241433037152L30.644239959716796,11.945428631047093L31.108546625773112,13.502557603816399L31.572853291829425,16.731431919187543L32.03715995788574,19.069368241512507L32.50146662394206,20.802361934060883L32.965773289998374,21.97672509041857L33.43007995605468,26.167023920330195L33.89438662211101,27.366761739482428L34.358693288167316,29.086334623758717L34.82299995422363,30.930392475820156L35.28730662027995,33.88323701455192L35.75161328633626,35.65360771875612L36.21591995239258,37.03580548776881L36.68022661844889,39.81514940573959L37.14453328450521,41.09082935950482L37.608839950561524,42.42318707178154L38.073146616617834,44.5128808736186L38.53745328267416,45.91074231407447L39.001759948730474,47.717423154480116L39.46606661478678,47.59587209419436L39.9303732808431,49.549430163341526L40.39467994689941,50.79179450632826L40.85898661295573,52.48444697075966L41.32329327901205,53.076308252635926L41.78759994506836,53.814658808543L42.251906611124674,54.97252176611265L42.716213277180984,53.76221218109474L43.18051994323731,56.38544676056861L43.644826609293624,58.37332669802507L44.10913327534993,58.89827791589603L44.57343994140625,59.574379926118155L45.03774660746256,58.83899358667226L45.50205327351888,59.743388758744715L45.9663599395752,61.735627124903814L46.43066660563151,61.0048598712318L46.894973271687824,61.50018710986794L47.35927993774414,62.10787573158093L47.82358660380046,61.88140110743686L48.287893269856774,62.89674526496765L48.75219993591308,64.84699965728178L49.2165066019694,63.718124190749776L49.680813268025716,63.909931424420364L50.14511993408203,65.73590694988934L50.60942660013835,67.14737711418032L51.07373326619466,66.39534509292987L51.538039932250975,65.94971848980556L52.00234659830729,66.46218847721927L52.46665326436361,67.47089497212225L52.930959930419924,67.8919955633816L53.39526659647624,67.35653319756852L53.85957326253255,68.2292615663828L54.323879928588866,69.12507930227412L54.78818659464518,68.48749998246272L55.2524932607015,70.93256636106288L55.716799926757815,70.64266720351715L56.181106592814125,68.18916887175234L56.64541325887044,69.9860356703366L57.10971992492676,70.37545733475307L57.574026590983074,71.69487312035365L58.03833325703939,70.80185593252996L58.5026399230957,69.55572115469893L58.966946589152016,71.32165462689987L59.43125325520834,72.13294673020467L59.89555992126465,70.63643568097707L60.359866587320965,70.74312928820278L60.824173253377275,70.66778727103282L61.28847991943359,71.6548167964773L61.752786585489915,71.58220258586672L62.217093251546224,70.85028359164741L62.68139991760254,72.44321957185275L63.14570658365885,72.55664783038394L63.610013249715166,74.17096375222243L64.07431991577148,72.30793855188479L64.5386265818278,72.86030119478129L65.00293324788412,72.92076151172175L65.46723991394043,74.29738243176861L65.93154657999675,74.51148493771782L66.39585324605306,73.50237230272712L66.86015991210937,73.71370456957048L67.3244665781657,72.88288743309292L67.78877324422201,74.64804499587252L68.25307991027832,72.92922983564053L68.71738657633463,73.93160781932576L69.18169324239095,72.9011940460025L69.64599990844727,75.51308701198172L70.11030657450358,75.1459727434286L70.5746132405599,73.68374112996382L71.03891990661621,73.5431378563089L71.50322657267252,75.70442748764104L71.96753323872885,74.73484986238421L72.43183990478516,74.75096816825395L72.89614657084147,72.8798868458776L73.36045323689778,72.9645337143112L73.8247599029541,75.2177383031096L74.28906656901042,75.7008752773215L74.75337323506673,76.35751893408676L75.21767990112305,75.60786313543915L75.68198656717937,73.63629548120775L76.14629323323567,75.44260655227981L76.610599899292,74.99771342603036L77.07490656534831,76.44597866991113L77.53921323140462,74.30918474148218L78.00351989746095,76.72573644884834L78.46782656351725,75.50066639944804L78.93213322957357,75.25655802134568L79.39643989562988,74.99547662465167L79.8607465616862,76.98030748055398L80.32505322774252,75.73587000458211L80.78935989379882,75.59633360638152L81.25366655985515,76.17562879270758L81.71797322591146,73.66684691467276L82.18227989196777,75.6047594977538L82.6465865580241,76.33981243862023L83.1108932240804,74.79828651937058L83.57519989013672,75.78426735473779L84.03950655619305,76.61894585294496L84.50381322224935,75.36648862568852L84.96811988830567,77.02750459582353L85.43242655436197,76.69050531168591L85.8967332204183,76.48613804425749L86.36103988647461,74.88374566797964L86.82534655253092,75.903327018366L87.28965321858725,75.3795578500041L87.75395988464355,74.42009129439404L88.21826655069987,77.87211230990683L88.6825732167562,76.15349718882251L89.1468798828125,76.50287465294734L89.61118654886882,76.00198875072245L90.07549321492512,76.21278151804628L90.53979988098145,77.18975452997519L91.00410654703776,74.57119965419874L91.46841321309407,76.80976501446182L91.9327198791504,77.42393369220142L92.3970265452067,75.38822015127822L92.86133321126302,77.967397623922L93.32563987731935,77.36002421541141L93.78994654337565,77.03718527821313L94.25425320943197,76.94309413729174L94.71855987548828,78.31870879980781L95.1828665415446,78.47926749389265L95.64717320760091,75.96943692578056L96.11147987365722,78.52940457845398L96.57578653971355,77.1592273436796L97.04009320576985,76.81538429597413L97.50439987182617,77.41936310076638L97.9687065378825,78.15963524484972L98.4330132039388,77.96857967343105L98.89731986999512,76.3218149771207L99.36162653605143,76.21801890664028L99.82593320210775,76.41216599215957L100.29023986816406,78.94561936507587L100.75454653422038,77.7368252281465L101.2188532002767,77.80862109678927L101.683159866333,77.34321486521331L102.14746653238932,78.13590938957552L102.61177319844565,76.77924388995858L103.07607986450195,78.81293279223549L103.54038653055827,76.41209931244369L104.00469319661458,78.84147777243126L104.4689998626709,77.11347899678269L104.93330652872721,77.7889627041847L105.39761319478353,77.75848401222795L105.86191986083985,78.31482925270113L106.32622652689615,78.25088340515701L106.79053319295248,78.80009391602935L107.2548398590088,77.56218499042292L107.7191465250651,77.57632109019285L108.18345319112142,77.52077082505924L108.64775985717773,77.27144930553231L109.11206652323405,77.95183700294885L109.57637318929036,78.89225134518976L110.04067985534668,78.22129579667633L110.504986521403,78.73495995718382L110.9692931874593,78.71393766129957L111.43359985351563,80.10990176074857L111.89790651957195,77.64618324707463L112.36221318562825,77.52574755658202L112.82651985168458,78.30915541505763L113.29082651774088,77.85452705028739L113.7551331837972,77.79867975732843L114.21943984985352,77.99784600691699L114.68374651590983,79.10640234547782L115.14805318196615,79.56404342104808L115.61235984802245,77.97549011671481L116.07666651407878,79.72292906044319L116.5409731801351,77.5476003180188L117.0052798461914,79.48505220488093L117.46958651224773,77.84490092402896L117.93389317830403,77.28775552696503L118.39819984436035,76.03562563649572L118.86250651041668,77.82302997721513L119.32681317647298,78.67722138501037L119.7911198425293,77.90619170652197L120.2554265085856,79.883863585654L120.71973317464193,78.5705883957082L121.18403984069825,78.17724475163858L121.64834650675455,76.24425434394912L122.11265317281088,78.84376306814877L122.57695983886718,78.41693408311474L123.0412665049235,78.5690002061114L123.50557317097983,80.0630380440585L123.96987983703613,79.09751575788661L124.43418650309245,78.32578897327747L124.89849316914875,78.74333735421727L125.36279983520508,78.5438316442569L125.8271065012614,78.94960802444491L126.2914131673177,78.47590926092845L126.75571983337403,78.2286790597637L127.22002649943033,78.88258278638487L127.68433316548665,80.23534449172573L128.14863983154297,79.49245365334536L128.6129464975993,78.87220499787453L129.0772531636556,79.26851892019769L129.54155982971193,79.20326978729743L130.00586649576823,78.82391675998123L130.47017316182453,79.56022449186496L130.93447982788086,80.16973771307656L131.39878649393717,80.87025056110893L131.8630931599935,79.76340970978433L132.3273998260498,80.67961931515505L132.79170649210613,79.11993832780468L133.25601315816243,80.01261605525653L133.72031982421873,80.54265917870498L134.18462649027506,81.96068820232315L134.6489331563314,79.4426257201941L135.1132398223877,80.25112939901598L135.57754648844403,80.07412506227426L136.04185315450033,81.00919290365881L136.50615982055663,81.34876844954695L136.97046648661293,79.06584289283607L137.43477315266927,80.65700882967401L137.8990798187256,79.46190221988036L138.3633864847819,81.58294154998082L138.82769315083823,80.63017933671446L139.29199981689453,79.85528223470409L139.75630648295086,80.48876984467643L140.22061314900716,80.51270180089068L140.68491981506347,78.92705209509505L141.1492264811198,80.78159684792922L141.6135331471761,81.57414588927493L142.07783981323243,78.3317901477081L142.54214647928876,79.88023863382621L143.00645314534503,80.1282023118658L143.47075981140136,81.89352960483133L143.9350664774577,80.77252840656739L144.399373143514,80.57348945461828L144.86367980957033,80.33819492259889L145.3279864756266,81.12840411209588L145.79229314168293,79.97556638038785L146.25659980773926,81.46358485852726L146.72090647379557,81.66583049863172L147.1852131398519,80.01137944961627L147.6495198059082,79.42427667473804L148.1138264719645,80.47535509819666L148.57813313802083,80.31921545073799L149.04243980407716,80.49309190262495L149.50674647013346,82.06070171437457L149.97105313618977,81.00979908289423L150.4353598022461,81.45334042944872L150.8996664683024,79.76325210318312L151.36397313435873,81.67026773063496L151.82827980041506,80.35257955585533L152.29258646647133,80.71688115275613L152.75689313252767,79.82418523992722L153.221199798584,82.27607719671816L153.6855064646403,82.48582127396473L154.14981313069663,81.69374505242266L154.61411979675293,80.45248395564438L155.07842646280923,81.62111265643502L155.54273312886556,81.02120737610478L156.0070397949219,81.57815879581338L156.4713464609782,80.6455156713705L156.9356531270345,81.48514059213868L157.3999597930908,81.2736385951094L157.86426645914713,81.13415675303999L158.32857312520346,81.79932935164756L158.79287979125976,82.63591125265394L159.25718645731607,82.55915077607311L159.7214931233724,81.50266523383458L160.1857997894287,81.53621119272255L160.65010645548503,82.31320567488744L161.11441312154136,82.18554432790867L161.57871978759763,82.3785881672195L162.04302645365397,82.59749767450558L162.5073331197103,81.02286830720982L162.9716397857666,81.67580214705433L163.43594645182293,81.09430046831133L163.90025311787923,83.266604376351L164.36455978393553,82.12757540762576L164.82886644999186,82.12778757035815L165.2931731160482,82.33767713062123L165.7574797821045,82.1424631696476L166.2217864481608,82.78352802006263L166.68609311421713,84.3141669602442L167.15039978027343,83.63291848831338L167.61470644632976,82.56235140243611L168.0790131123861,83.14717494338917L168.54331977844237,81.96053665751431L169.0076264444987,83.63116056853066L169.471933110555,82.54516622111204L169.93623977661133,83.56477181866782L170.40054644266766,83.0709236573661L170.86485310872393,83.80507945296411L171.32915977478027,82.75341303564713L171.7934664408366,83.99223123010668L172.2577731068929,82.7953303297762L172.72207977294923,83.51357392044451L173.18638643900553,82.56658859529168L173.65069310506183,82.87011466204957L174.11499977111816,82.93005972663994L174.5793064371745,83.82667761912201L175.0436131032308,82.37533904651767L175.5079197692871,84.12257795109836L175.97222643534343,83.41329368952951L176.43653310139973,83.01089978947513L176.90083976745606,84.50027610910186L177.3651464335124,84.26193855732069L177.82945309956867,82.94397760188511L178.293759765625,82.9433835462344L178.75806643168133,83.96625038807672L179.22237309773763,83.79581703424694L179.68667976379396,83.6573050789542L180.15098642985024,83.35411847256812L180.61529309590657,83.42355630398512L181.0795997619629,83.12594048477253L181.5439064280192,84.09306914591828L182.00821309407553,83.56120748476357L182.47251976013183,83.52872233953758L182.93682642618813,84.52823309543929L183.40113309224446,85.33603360634808L183.8654397583008,85.36775496573743L184.3297464243571,84.24780851934312L184.7940530904134,84.21668727739682L185.25835975646973,84.24034039116279L185.72266642252603,84.39717714474217L186.18697308858236,85.43237973402522L186.6512797546387,84.24825709197732L187.11558642069497,84.70601940339468L187.5798930867513,84.38492020060205L188.04419975280763,84.98771089409287L188.50850641886393,83.8352611170955L188.97281308492026,85.3152780293274L189.43711975097656,85.44388501591344L189.90142641703287,84.94378714669458L190.3657330830892,85.99771461255965L190.83003974914553,84.18202594871569L191.29434641520183,86.4031151616217L191.75865308125813,85.91996606382509L192.22295974731443,85.96279868859963L192.68726641337076,85.26771720651661L193.1515730794271,86.11883528558828L193.6158797454834,84.46160793567462L194.0801864115397,86.13174690330266L194.54449307759603,85.94719563508L195.00879974365233,86.16397745324977L195.47310640970866,86.27608424104776L195.937413075765,86.07358400566442L196.40171974182127,86.34612825170016L196.8660264078776,86.14398566206572L197.33033307393393,84.68813105415754L197.79463973999023,86.05740508187114L198.25894640604656,86.52144134837506L198.72325307210286,85.95024471663416L199.18755973815917,84.77539661688813L199.6518664042155,86.39804750321362L200.11617307027183,85.97594065442347L200.58047973632813,86.76522238969028L201.04478640238443,85.94443145776651L201.50909306844076,86.48648299186857L201.97339973449706,85.61177241695448L202.4377064005534,86.93895942035309L202.90201306660973,86.7632341217981L203.366319732666,86.9055225737275L203.83062639872233,86.85374274343819L204.29493306477863,87.01759905256371L204.75923973083496,86.4227674924339L205.2235463968913,86.85687062829295L205.68785306294757,87.17404178964009L206.1521597290039,87.76469677483786L206.61646639506023,86.54002074194058L207.08077306111653,86.32885820528314L207.54507972717286,86.88423962077202L208.00938639322916,86.98422282386166L208.47369305928547,86.5841930228254L208.9379997253418,87.33037541445408L209.40230639139813,87.5969184860592L209.86661305745443,87.79131410506501L210.33091972351073,86.9218833512914L210.79522638956706,87.54015586245477L211.25953305562336,87.50554908990482L211.7238397216797,87.69440423069894L212.18814638773603,87.32393779097394L212.6524530537923,87.41653773097622L213.11675971984863,86.68307904149894L213.58106638590496,87.5490666972154L214.04537305196126,87.68708764732744L214.5096797180176,88.20324926628486L214.97398638407387,87.59780956953526L215.4382930501302,87.25956761796503L215.90259971618653,87.61889248334306L216.36690638224283,87.9035542522948L216.83121304829916,87.59482110590466L217.29551971435546,88.08864502003696L217.75982638041177,88.18831907171655L218.2241330464681,87.75288234153959L218.68843971252443,88.26675866477947L219.15274637858073,87.98614011132797L219.61705304463703,88.31141588905264L220.08135971069336,88.23289749268909L220.54566637674967,88.4698044614747L221.009973042806,88.09143344451988L221.47427970886233,88.12889532126863L221.9385863749186,87.8274363257035L222.40289304097493,88.23877136948029L222.86719970703126,88.82040034586271L223.33150637308756,89.36449470398813L223.7958130391439,88.6361339818807L224.2601197052002,88.69390892480828L224.7244263712565,88.41984316889163L225.18873303731283,88.16402340796104L225.65303970336916,89.00829772346486L226.11734636942546,89.04162545782808L226.58165303548176,88.72417545403265L227.04595970153807,88.29637658222194L227.5102663675944,88.78325368231637L227.97457303365073,88.49563982048815L228.43887969970703,88.88906226785836L228.90318636576333,88.47503578827634L229.36749303181966,89.19647394351529L229.83179969787597,88.6281990956891L230.2961063639323,89.04825705866352L230.76041302998863,89.04492913466109L231.2247196960449,89.25600074443322L231.68902636210123,88.67682679395423L232.15333302815756,89.10517122707682L232.61763969421386,89.4535363718785L233.0819463602702,89.2835273435135L233.5462530263265,89.44951740354769L234.0105596923828,89.10860826334164L234.47486635843913,89.26616030841882L234.93917302449546,89.10385581813597L235.40347969055176,89.24400445736433L235.86778635660806,89.170008158097L236.3320930226644,88.99845943447404L236.7963996887207,89.60540245572747L237.26070635477703,89.6571398534703L237.72501302083336,89.6817264832588L238.18931968688963,89.74707260483673L238.65362635294596,89.59605517191734L239.11793301900227,88.94383662357063L239.5822396850586,89.81083053681787L240.04654635111493,89.48842804866909L240.5108530171712,89.68799437655301L240.97515968322753,89.72004913452184L241.43946634928386,89.83061622706188L241.90377301534016,89.78114593965951L242.3680796813965,89.59884359640026L242.8323863474528,89.87899539184049L243.2966930135091,89.90860724749061L243.76099967956543,89.52168910331642L244.22530634562176,89.86961779906859L244.68961301167806,89.98042130151043L245.15391967773436,90.02304176355258L245.6182263437907,89.96864323896628L246.082533009847,89.97731160203274L246.54683967590333,89.96977073234416L247.01114634195966,89.90606129470186L247.47545300801593,90.1365730725538L247.93975967407226,90.00444418461001L248.4040663401286,90.03442580959371L248.8683730061849,90.14496865496432L249.33267967224123,90.0490832235061L249.7969863382975,90.09834134817606L250.26129300435383,90.09264932515549L250.72559967041016,90.03453492185609L251.18990633646646,89.99229029093989L251.6542130025228,90.09325550439092L252.1185196685791,90.06312839639071L252.5828263346354,90.07211803445193L253.04713300069173,90.01962291266483L253.51143966674806,90.10128131746784L253.97574633280436,90.07207560190545L254.44005299886066,90.07026312599156L254.904359664917,90.02103531028337" fill="none"></path></g></g></g></g></g></g><g transform="translate(51, 177)" clip-path="url(#clip_1)"><clipPath id="clip_1"><rect width="278" height="22"></rect></clipPath><g><g><line x1="0" y1="0" x2="0" y2="5" style="visibility: inherit;" fill="rgb(0, 0, 0)" stroke="rgb(204, 204, 204)" stroke-width="1px"></line><line x1="23.215333302815754" y1="0" x2="23.215333302815754" y2="5" style="visibility: inherit;" fill="rgb(0, 0, 0)" stroke="rgb(204, 204, 204)" stroke-width="1px"></line><line x1="46.43066660563151" y1="0" x2="46.43066660563151" y2="5" style="visibility: inherit;" fill="rgb(0, 0, 0)" stroke="rgb(204, 204, 204)" stroke-width="1px"></line><line x1="69.64599990844727" y1="0" x2="69.64599990844727" y2="5" style="visibility: inherit;" fill="rgb(0, 0, 0)" stroke="rgb(204, 204, 204)" stroke-width="1px"></line><line x1="92.86133321126302" y1="0" x2="92.86133321126302" y2="5" style="visibility: inherit;" fill="rgb(0, 0, 0)" stroke="rgb(204, 204, 204)" stroke-width="1px"></line><line x1="116.07666651407878" y1="0" x2="116.07666651407878" y2="5" style="visibility: inherit;" fill="rgb(0, 0, 0)" stroke="rgb(204, 204, 204)" stroke-width="1px"></line><line x1="139.29199981689453" y1="0" x2="139.29199981689453" y2="5" style="visibility: inherit;" fill="rgb(0, 0, 0)" stroke="rgb(204, 204, 204)" stroke-width="1px"></line><line x1="162.5073331197103" y1="0" x2="162.5073331197103" y2="5" style="visibility: inherit;" fill="rgb(0, 0, 0)" stroke="rgb(204, 204, 204)" stroke-width="1px"></line><line x1="185.72266642252603" y1="0" x2="185.72266642252603" y2="5" style="visibility: inherit;" fill="rgb(0, 0, 0)" stroke="rgb(204, 204, 204)" stroke-width="1px"></line><line x1="208.9379997253418" y1="0" x2="208.9379997253418" y2="5" style="visibility: inherit;" fill="rgb(0, 0, 0)" stroke="rgb(204, 204, 204)" stroke-width="1px"></line><line x1="232.15333302815756" y1="0" x2="232.15333302815756" y2="5" style="visibility: inherit;" fill="rgb(0, 0, 0)" stroke="rgb(204, 204, 204)" stroke-width="1px"></line><line x1="255.3686663309733" y1="0" x2="255.3686663309733" y2="5" style="visibility: inherit;" fill="rgb(0, 0, 0)" stroke="rgb(204, 204, 204)" stroke-width="1px"></line><line x1="278.58399963378906" y1="0" x2="278.58399963378906" y2="5" style="visibility: inherit;" fill="rgb(0, 0, 0)" stroke="rgb(204, 204, 204)" stroke-width="1px"></line></g><g transform="translate(0, 8)"><text style="text-anchor: middle; visibility: hidden; font-family: &quot;Helvetica Neue&quot;, sans-serif; font-size: 12px; font-weight: 200;" x="0" y="0" dx="0em" dy="0.95em" fill="rgb(50, 49, 63)" stroke="none" stroke-width="1px">-50</text><text style="text-anchor: middle; visibility: inherit; font-family: &quot;Helvetica Neue&quot;, sans-serif; font-size: 12px; font-weight: 200;" x="23.215333302815754" y="0" dx="0em" dy="0.95em" fill="rgb(50, 49, 63)" stroke="none" stroke-width="1px">0</text><text style="text-anchor: middle; visibility: hidden; font-family: &quot;Helvetica Neue&quot;, sans-serif; font-size: 12px; font-weight: 200;" x="46.43066660563151" y="0" dx="0em" dy="0.95em" fill="rgb(50, 49, 63)" stroke="none" stroke-width="1px">50</text><text style="text-anchor: middle; visibility: inherit; font-family: &quot;Helvetica Neue&quot;, sans-serif; font-size: 12px; font-weight: 200;" x="69.64599990844727" y="0" dx="0em" dy="0.95em" fill="rgb(50, 49, 63)" stroke="none" stroke-width="1px">100</text><text style="text-anchor: middle; visibility: hidden; font-family: &quot;Helvetica Neue&quot;, sans-serif; font-size: 12px; font-weight: 200;" x="92.86133321126302" y="0" dx="0em" dy="0.95em" fill="rgb(50, 49, 63)" stroke="none" stroke-width="1px">150</text><text style="text-anchor: middle; visibility: inherit; font-family: &quot;Helvetica Neue&quot;, sans-serif; font-size: 12px; font-weight: 200;" x="116.07666651407878" y="0" dx="0em" dy="0.95em" fill="rgb(50, 49, 63)" stroke="none" stroke-width="1px">200</text><text style="text-anchor: middle; visibility: hidden; font-family: &quot;Helvetica Neue&quot;, sans-serif; font-size: 12px; font-weight: 200;" x="139.29199981689453" y="0" dx="0em" dy="0.95em" fill="rgb(50, 49, 63)" stroke="none" stroke-width="1px">250</text><text style="text-anchor: middle; visibility: inherit; font-family: &quot;Helvetica Neue&quot;, sans-serif; font-size: 12px; font-weight: 200;" x="162.5073331197103" y="0" dx="0em" dy="0.95em" fill="rgb(50, 49, 63)" stroke="none" stroke-width="1px">300</text><text style="text-anchor: middle; visibility: hidden; font-family: &quot;Helvetica Neue&quot;, sans-serif; font-size: 12px; font-weight: 200;" x="185.72266642252603" y="0" dx="0em" dy="0.95em" fill="rgb(50, 49, 63)" stroke="none" stroke-width="1px">350</text><text style="text-anchor: middle; visibility: inherit; font-family: &quot;Helvetica Neue&quot;, sans-serif; font-size: 12px; font-weight: 200;" x="208.9379997253418" y="0" dx="0em" dy="0.95em" fill="rgb(50, 49, 63)" stroke="none" stroke-width="1px">400</text><text style="text-anchor: middle; visibility: hidden; font-family: &quot;Helvetica Neue&quot;, sans-serif; font-size: 12px; font-weight: 200;" x="232.15333302815756" y="0" dx="0em" dy="0.95em" fill="rgb(50, 49, 63)" stroke="none" stroke-width="1px">450</text><text style="text-anchor: middle; visibility: inherit; font-family: &quot;Helvetica Neue&quot;, sans-serif; font-size: 12px; font-weight: 200;" x="255.3686663309733" y="0" dx="0em" dy="0.95em" fill="rgb(50, 49, 63)" stroke="none" stroke-width="1px">500</text><text style="text-anchor: middle; visibility: hidden; font-family: &quot;Helvetica Neue&quot;, sans-serif; font-size: 12px; font-weight: 200;" x="278.58399963378906" y="0" dx="0em" dy="0.95em" fill="rgb(50, 49, 63)" stroke="none" stroke-width="1px">550</text></g><line x1="0" y1="0" x2="278.58399963378906" y2="0" fill="rgb(0, 0, 0)" stroke="rgb(204, 204, 204)" stroke-width="1px"></line></g></g></g></g></svg>