<svg viewBox="0 0 330 200" xmlns="http://www.w3.org/2000/svg"><g><g><g><g><g><line x1="61.77000045776367" y1="177.9749994277954" x2="56.77000045776367" y2="177.9749994277954" style="visibility: inherit;" fill="rgb(0, 0, 0)" stroke="rgb(204, 204, 204)" stroke-width="1px"></line><line x1="61.77000045776367" y1="164.28461485642654" x2="56.77000045776367" y2="164.28461485642654" style="visibility: inherit;" fill="rgb(0, 0, 0)" stroke="rgb(204, 204, 204)" stroke-width="1px"></line><line x1="61.77000045776367" y1="150.59423028505765" x2="56.77000045776367" y2="150.59423028505765" style="visibility: inherit;" fill="rgb(0, 0, 0)" stroke="rgb(204, 204, 204)" stroke-width="1px"></line><line x1="61.77000045776367" y1="136.90384571368878" x2="56.77000045776367" y2="136.90384571368878" style="visibility: inherit;" fill="rgb(0, 0, 0)" stroke="rgb(204, 204, 204)" stroke-width="1px"></line><line x1="61.77000045776367" y1="123.21346114231991" x2="56.77000045776367" y2="123.21346114231991" style="visibility: inherit;" fill="rgb(0, 0, 0)" stroke="rgb(204, 204, 204)" stroke-width="1px"></line><line x1="61.77000045776367" y1="109.52307657095103" x2="56.77000045776367" y2="109.52307657095103" style="visibility: inherit;" fill="rgb(0, 0, 0)" stroke="rgb(204, 204, 204)" stroke-width="1px"></line><line x1="61.77000045776367" y1="95.83269199958215" x2="56.77000045776367" y2="95.83269199958215" style="visibility: inherit;" fill="rgb(0, 0, 0)" stroke="rgb(204, 204, 204)" stroke-width="1px"></line><line x1="61.77000045776367" y1="82.14230742821327" x2="56.77000045776367" y2="82.14230742821327" style="visibility: inherit;" fill="rgb(0, 0, 0)" stroke="rgb(204, 204, 204)" stroke-width="1px"></line><line x1="61.77000045776367" y1="68.4519228568444" x2="56.77000045776367" y2="68.4519228568444" style="visibility: inherit;" fill="rgb(0, 0, 0)" stroke="rgb(204, 204, 204)" stroke-width="1px"></line><line x1="61.77000045776367" y1="54.76153828547551" x2="56.77000045776367" y2="54.76153828547551" style="visibility: inherit;" fill="rgb(0, 0, 0)" stroke="rgb(204, 204, 204)" stroke-width="1px"></line><line x1="61.77000045776367" y1="41.07115371410666" x2="56.77000045776367" y2="41.07115371410666" style="visibility: inherit;" fill="rgb(0, 0, 0)" stroke="rgb(204, 204, 204)" stroke-width="1px"></line><line x1="61.77000045776367" y1="27.38076914273779" x2="56.77000045776367" y2="27.38076914273779" style="visibility: inherit;" fill="rgb(0, 0, 0)" stroke="rgb(204, 204, 204)" stroke-width="1px"></line><line x1="61.77000045776367" y1="13.690384571368895" x2="56.77000045776367" y2="13.690384571368895" style="visibility: inherit;" fill="rgb(0, 0, 0)" stroke="rgb(204, 204, 204)" stroke-width="1px"></line><line x1="61.77000045776367" y1="0" x2="56.77000045776367" y2="0" style="visibility: inherit;" fill="rgb(0, 0, 0)" stroke="rgb(204, 204, 204)" stroke-width="1px"></line></g><g transform="translate(51.77000045776367, 0)"><text style="text-anchor: end; visibility: hidden; font-family: &quot;Helvetica Neue&quot;, sans-serif; font-size: 12px; font-weight: 200;" x="0" y="177.9749994277954" dx="0em" dy="0.3em" fill="rgb(50, 49, 63)" stroke="none" stroke-width="1px">-1e-3</text><text style="text-anchor: end; visibility: inherit; font-family: &quot;Helvetica Neue&quot;, sans-serif; font-size: 12px; font-weight: 200;" x="0" y="164.28461485642654" dx="0em" dy="0.3em" fill="rgb(50, 49, 63)" stroke="none" stroke-width="1px">0</text><text style="text-anchor: end; visibility: hidden; font-family: &quot;Helvetica Neue&quot;, sans-serif; font-size: 12px; font-weight: 200;" x="0" y="150.59423028505765" dx="0em" dy="0.3em" fill="rgb(50, 49, 63)" stroke="none" stroke-width="1px">1e-3</text><text style="text-anchor: end; visibility: inherit; font-family: &quot;Helvetica Neue&quot;, sans-serif; font-size: 12px; font-weight: 200;" x="0" y="136.90384571368878" dx="0em" dy="0.3em" fill="rgb(50, 49, 63)" stroke="none" stroke-width="1px">2e-3</text><text style="text-anchor: end; visibility: hidden; font-family: &quot;Helvetica Neue&quot;, sans-serif; font-size: 12px; font-weight: 200;" x="0" y="123.21346114231991" dx="0em" dy="0.3em" fill="rgb(50, 49, 63)" stroke="none" stroke-width="1px">3e-3</text><text style="text-anchor: end; visibility: inherit; font-family: &quot;Helvetica Neue&quot;, sans-serif; font-size: 12px; font-weight: 200;" x="0" y="109.52307657095103" dx="0em" dy="0.3em" fill="rgb(50, 49, 63)" stroke="none" stroke-width="1px">4e-3</text><text style="text-anchor: end; visibility: hidden; font-family: &quot;Helvetica Neue&quot;, sans-serif; font-size: 12px; font-weight: 200;" x="0" y="95.83269199958215" dx="0em" dy="0.3em" fill="rgb(50, 49, 63)" stroke="none" stroke-width="1px">5e-3</text><text style="text-anchor: end; visibility: inherit; font-family: &quot;Helvetica Neue&quot;, sans-serif; font-size: 12px; font-weight: 200;" x="0" y="82.14230742821327" dx="0em" dy="0.3em" fill="rgb(50, 49, 63)" stroke="none" stroke-width="1px">6e-3</text><text style="text-anchor: end; visibility: hidden; font-family: &quot;Helvetica Neue&quot;, sans-serif; font-size: 12px; font-weight: 200;" x="0" y="68.4519228568444" dx="0em" dy="0.3em" fill="rgb(50, 49, 63)" stroke="none" stroke-width="1px">7e-3</text><text style="text-anchor: end; visibility: inherit; font-family: &quot;Helvetica Neue&quot;, sans-serif; font-size: 12px; font-weight: 200;" x="0" y="54.76153828547551" dx="0em" dy="0.3em" fill="rgb(50, 49, 63)" stroke="none" stroke-width="1px">8e-3</text><text style="text-anchor: end; visibility: hidden; font-family: &quot;Helvetica Neue&quot;, sans-serif; font-size: 12px; font-weight: 200;" x="0" y="41.07115371410666" dx="0em" dy="0.3em" fill="rgb(50, 49, 63)" stroke="none" stroke-width="1px">9e-3</text><text style="text-anchor: end; visibility: inherit; font-family: &quot;Helvetica Neue&quot;, sans-serif; font-size: 12px; font-weight: 200;" x="0" y="27.38076914273779" dx="0em" dy="0.3em" fill="rgb(50, 49, 63)" stroke="none" stroke-width="1px">0.01</text><text style="text-anchor: end; visibility: hidden; font-family: &quot;Helvetica Neue&quot;, sans-serif; font-size: 12px; font-weight: 200;" x="0" y="13.690384571368895" dx="0em" dy="0.3em" fill="rgb(50, 49, 63)" stroke="none" stroke-width="1px">0.011</text><text style="text-anchor: end; visibility: hidden; font-family: &quot;Helvetica Neue&quot;, sans-serif; font-size: 12px; font-weight: 200;" x="0" y="0" dx="0em" dy="0.3em" fill="rgb(50, 49, 63)" stroke="none" stroke-width="1px">0.012</text></g><line x1="61.77000045776367" y1="0" x2="61.77000045776367" y2="177.9749994277954" fill="rgb(0, 0, 0)" stroke="rgb(204, 204, 204)" stroke-width="1px"></line></g></g><g transform="translate(61, 0)" clip-path="url(#clip_0)"><clipPath id="clip_0"><rect width="268" height="177"></rect></clipPath><g><g><g><line x1="0" y1="0" x2="0" y2="177.9749994277954" fill="rgb(0, 0, 0)" stroke="rgb(60, 60, 60)" stroke-width="1px" opacity="0.25"></line><line x1="22.352499961853027" y1="0" x2="22.352499961853027" y2="177.9749994277954" fill="rgb(0, 0, 0)" stroke="rgb(60, 60, 60)" stroke-width="1px" opacity="0.25"></line><line x1="44.704999923706055" y1="0" x2="44.704999923706055" y2="177.9749994277954" fill="rgb(0, 0, 0)" stroke="rgb(60, 60, 60)" stroke-width="1px" opacity="0.25"></line><line x1="67.05749988555908" y1="0" x2="67.05749988555908" y2="177.9749994277954" fill="rgb(0, 0, 0)" stroke="rgb(60, 60, 60)" stroke-width="1px" opacity="0.25"></line><line x1="89.40999984741211" y1="0" x2="89.40999984741211" y2="177.9749994277954" fill="rgb(0, 0, 0)" stroke="rgb(60, 60, 60)" stroke-width="1px" opacity="0.25"></line><line x1="111.76249980926514" y1="0" x2="111.76249980926514" y2="177.9749994277954" fill="rgb(0, 0, 0)" stroke="rgb(60, 60, 60)" stroke-width="1px" opacity="0.25"></line><line x1="134.11499977111816" y1="0" x2="134.11499977111816" y2="177.9749994277954" fill="rgb(0, 0, 0)" stroke="rgb(60, 60, 60)" stroke-width="1px" opacity="0.25"></line><line x1="156.4674997329712" y1="0" x2="156.4674997329712" y2="177.9749994277954" fill="rgb(0, 0, 0)" stroke="rgb(60, 60, 60)" stroke-width="1px" opacity="0.25"></line><line x1="178.81999969482422" y1="0" x2="178.81999969482422" y2="177.9749994277954" fill="rgb(0, 0, 0)" stroke="rgb(60, 60, 60)" stroke-width="1px" opacity="0.25"></line><line x1="201.17249965667725" y1="0" x2="201.17249965667725" y2="177.9749994277954" fill="rgb(0, 0, 0)" stroke="rgb(60, 60, 60)" stroke-width="1px" opacity="0.25"></line><line x1="223.52499961853027" y1="0" x2="223.52499961853027" y2="177.9749994277954" fill="rgb(0, 0, 0)" stroke="rgb(60, 60, 60)" stroke-width="1px" opacity="0.25"></line><line x1="245.8774995803833" y1="0" x2="245.8774995803833" y2="177.9749994277954" fill="rgb(0, 0, 0)" stroke="rgb(60, 60, 60)" stroke-width="1px" opacity="0.25"></line><line x1="268.2299995422363" y1="0" x2="268.2299995422363" y2="177.9749994277954" fill="rgb(0, 0, 0)" stroke="rgb(60, 60, 60)" stroke-width="1px" opacity="0.25"></line></g><g><line x1="0" y1="177.9749994277954" x2="268.2299995422363" y2="177.9749994277954" fill="rgb(0, 0, 0)" stroke="rgb(60, 60, 60)" stroke-width="1px" opacity="0.25"></line><line x1="0" y1="164.28461485642654" x2="268.2299995422363" y2="164.28461485642654" fill="rgb(0, 0, 0)" stroke="rgb(60, 60, 60)" stroke-width="1px" opacity="0.25"></line><line x1="0" y1="150.59423028505765" x2="268.2299995422363" y2="150.59423028505765" fill="rgb(0, 0, 0)" stroke="rgb(60, 60, 60)" stroke-width="1px" opacity="0.25"></line><line x1="0" y1="136.90384571368878" x2="268.2299995422363" y2="136.90384571368878" fill="rgb(0, 0, 0)" stroke="rgb(60, 60, 60)" stroke-width="1px" opacity="0.25"></line><line x1="0" y1="123.21346114231991" x2="268.2299995422363" y2="123.21346114231991" fill="rgb(0, 0, 0)" stroke="rgb(60, 60, 60)" stroke-width="1px" opacity="0.25"></line><line x1="0" y1="109.52307657095103" x2="268.2299995422363" y2="109.52307657095103" fill="rgb(0, 0, 0)" stroke="rgb(60, 60, 60)" stroke-width="1px" opacity="0.25"></line><line x1="0" y1="95.83269199958215" x2="268.2299995422363" y2="95.83269199958215" fill="rgb(0, 0, 0)" stroke="rgb(60, 60, 60)" stroke-width="1px" opacity="0.25"></line><line x1="0" y1="82.14230742821327" x2="268.2299995422363" y2="82.14230742821327" fill="rgb(0, 0, 0)" stroke="rgb(60, 60, 60)" stroke-width="1px" opacity="0.25"></line><line x1="0" y1="68.4519228568444" x2="268.2299995422363" y2="68.4519228568444" fill="rgb(0, 0, 0)" stroke="rgb(60, 60, 60)" stroke-width="1px" opacity="0.25"></line><line x1="0" y1="54.76153828547551" x2="268.2299995422363" y2="54.76153828547551" fill="rgb(0, 0, 0)" stroke="rgb(60, 60, 60)" stroke-width="1px" opacity="0.25"></line><line x1="0" y1="41.07115371410666" x2="268.2299995422363" y2="41.07115371410666" fill="rgb(0, 0, 0)" stroke="rgb(60, 60, 60)" stroke-width="1px" opacity="0.25"></line><line x1="0" y1="27.38076914273779" x2="268.2299995422363" y2="27.38076914273779" fill="rgb(0, 0, 0)" stroke="rgb(60, 60, 60)" stroke-width="1px" opacity="0.25"></line><line x1="0" y1="13.690384571368895" x2="268.2299995422363" y2="13.690384571368895" fill="rgb(0, 0, 0)" stroke="rgb(60, 60, 60)" stroke-width="1px" opacity="0.25"></line><line x1="0" y1="0" x2="268.2299995422363" y2="0" fill="rgb(0, 0, 0)" stroke="rgb(60, 60, 60)" stroke-width="1px" opacity="0.25"></line></g></g></g><g><g><line x1="0" y1="164.28461485642654" x2="268.2299995422363" y2="164.28461485642654" fill="rgb(0, 0, 0)" stroke="rgb(153, 153, 153)" stroke-width="1.5px"></line></g></g><g><g><line x1="22.352499961853027" y1="0" x2="22.352499961853027" y2="177.9749994277954" fill="rgb(0, 0, 0)" stroke="rgb(153, 153, 153)" stroke-width="1.5px"></line></g></g><g><g><g><g><g><path style="fill: none;" stroke="rgb(187, 187, 187)" stroke-width="2px" d="M22.39944021177292,150.59407503905828L22.5391433365345,150.59176566556638L22.608436086416244,150.5895949501102L22.882254210948943,150.5743728478182L22.951546960830687,150.5688392765526L22.99960483574867,150.564603034495L23.007428210735323,150.5638810564468L23.075603335618975,150.55723503335417L23.150484210491182,150.54917692957568L23.25554096031189,150.53653673553546L23.485771709918975,150.50337515220494L23.84229408431053,150.43724801931853L23.90041058421135,150.4247672023309L23.957409459114075,150.41206325746967L24.290461708545685,150.32867080847717L24.293814583539962,150.32775120288377L24.45028208327293,150.2831017216032L24.930860832452776,150.124424334283L25.02250608229637,150.09047861585375L25.12979808211327,150.04924139726893L25.13091570711136,150.04880311037434L25.353323081731794,149.95814306778414L25.96242870569229,149.67442003877937L25.980310705661775,149.66530845268332L26.04625058054924,149.6313212962204L26.39606720495224,149.4408991875671L26.398302454948425,149.43962735868752L27.177287078619003,148.9543784217761L27.270049953460695,148.8910101056699L27.372871453285217,148.8193876520105L27.39187107825279,148.8059936045116L27.908213827371597,148.4230456101109L28.090386702060698,148.27923810179652L28.32620557665825,148.08636955538609L28.74866782593727,147.72199217515217L28.95431082558632,147.535901934788L29.047073700428008,147.45009492344892L29.281774950027465,147.22783884231308L29.8394698240757,146.67020722320146L29.85288132405281,146.65628882519957L30.01270169878006,146.48858750916222L30.13787569856644,146.35488609975198L30.349106823205947,146.1245830712313L30.689982447624207,145.74059115713624L30.693335322618484,145.73673742000483L31.067739696979523,145.2973603863673L31.106856571912765,145.25040631290642L31.367263196468354,144.9327965349819L31.494672446250917,144.7742211489753L31.540495071172714,144.71667965791147L31.850077195644378,144.32090340454852L31.861253445625305,144.30638734259946L32.274774694919586,143.7581589695901L32.338479319810865,143.6717829821733L32.70170744419098,143.16958110817887L32.93417344379425,142.83954310769406L33.03028919363022,142.70113051260952L33.19122719335556,142.46681755744592L33.97468231701851,141.2809853478809L34.064092316865924,141.14093435669582L34.11215019178391,141.06526213213036L34.54020056605339,140.37910567027635L34.608375690937045,140.2678174557706L34.66872744083405,140.16884271234724L35.24095143985748,139.20926057285573L35.27895068979264,139.144193297369L35.41194806456566,138.9151477537932L35.729353564023974,138.36033551474176L35.734941689014434,138.3504652938754L35.94729043865204,137.97276717958675L36.088111188411716,137.7194931364776L36.7441570622921,136.51048590969677L36.91962418699264,136.17910914197026L36.94980006194115,136.12178121615688L37.5488470609188,134.9635180491473L37.57455243587494,134.91296046052753L38.327831684589384,133.40080692334388L38.74582343387603,132.5366167311337L38.86987980866432,132.27675244690033L38.974936558485034,132.0554924723431L39.64551155734062,130.6176947052706L39.97074043178558,129.90478521137035L40.3641444311142,129.02916449694908L41.19230455470085,127.13973997597766L41.42588817930222,126.59583072109331L41.46053455424308,126.51474923936323L41.70641205382347,125.93639222833397L41.73099980378151,125.87827060479873L41.95899530339241,125.3369145702967L41.974642053365706,125.29960440228749L42.97379880166054,122.87561330925402L43.77625355029107,120.87229475896716L44.180833799600606,119.84419801834159L44.3026549243927,119.53234175201521L44.40435879921913,119.27118651365592L44.69941179871559,118.50950126658375L44.76423404860496,118.34136485119285L44.774292673587794,118.31524932735694L44.977700423240655,117.78568081966381L44.9866414232254,117.76233845654278L45.06599279808999,117.55495703572433L45.19675492286682,117.2123154979214L45.307399797677995,116.92152250286415L45.35098717260361,116.80674871221842L45.57562979722023,116.21332100709714L45.57898267221451,116.2044405177273L45.66056929707527,115.98811485671801L45.91203492164612,115.31877586145237L45.98356292152405,115.12768277540769L46.081913921356204,114.86442694749539L46.17914729619026,114.60360002586441L46.77037092018128,113.00588013669105L47.21406804442405,111.79409496788371L47.30906616926193,111.53328717149904L47.340359669208524,111.44727137622105L48.212107167720795,109.03149776401868L48.223283417701715,109.0002917371233L48.2724589176178,108.86290871779845L48.37751566743851,108.56904293316742L48.46133754229545,108.3342167838945L48.53510079216957,108.1273134942338L48.661392416954044,107.77251467485999L48.806683666706085,107.363489407116L48.84133004164696,107.26581677421224L49.33979079079628,105.85519598214586L49.49067016553879,105.42628045823977L49.49290541553497,105.41991812630073L49.5353751654625,105.29902744437696L49.8695450398922,104.3454809138667L49.98801328969002,104.00647954794472L50.2193616642952,103.34306937903509L50.57588403868675,102.3172931682951L50.73011628842354,101.87231881257092L51.20063641262054,100.51057577499009L51.23975328755379,100.3970929384703L51.32245753741264,100.15702647170852L51.74939028668404,98.91505210160129L52.30149703574181,97.30285758851251L52.3026146607399,97.29958717139354L52.70048916006088,96.1340819111147L53.0927755343914,94.98239782883569L53.202302784204484,94.66044980753989L53.241419659137726,94.5454242011511L53.450415533781054,93.93057303262185L53.55211940860748,93.63118005180732L54.13551965761185,91.91187140921987L54.25287028241158,91.56571720117806L54.73009615659714,90.15728943735519L54.759154406547545,90.07149995749187L54.83291765642166,89.85372715284514L54.98826753115654,89.3950527456811L55.05756028103828,89.19045086065967L55.290026280641555,88.50405214568573L55.446493780374524,88.04208182107433L55.69013602995873,87.32283868310451L55.886838029623036,86.74233008186543L55.91589627957344,86.65658522757684L56.07571665430069,86.18509690538528L56.246713279008866,85.68081516085466L56.40653365373611,85.209690218343L56.56523640346527,84.74208432115232L56.670293153285975,84.4326760863536L56.68593990325928,84.38660336799346L57.452630651950834,82.1327185907208L57.493982776880266,82.0113880281319L57.98238490104676,80.58059647629086L58.04497190093994,80.3975614940247L58.34784827542305,79.51292322596838L58.60266677498817,78.7701942855302L58.72225264978409,78.42215305318584L58.85077952456474,78.04847124062222L58.96813014936447,77.70765297630082L59.11565664911271,77.2797000897923L59.124597649097446,77.25377900596052L59.27212414884568,76.82644450241604L59.43641502356529,76.35127138276883L59.65323427319527,75.72537219695465L59.68452777314186,75.63515203502958L60.057814522504806,74.56133320555955L60.07122602248192,74.52284045982019L60.11146052241325,74.40738772293048L60.171812272310255,74.23431061890956L60.21316439723969,74.1157914675282L60.25451652216911,73.99732969188577L60.391984396934504,73.60395525070524L60.75633014631271,72.56461924033165L60.938503021001814,72.04681594666006L61.02120727086067,71.81216192460394L61.84154401946068,69.49984951985505L61.86501414442062,69.43412242337064L62.009187769174574,69.03089848034058L62.331063768625256,68.1341475562881L62.534471518278124,67.56999741572595L62.6283520181179,67.3103020711683L63.28998601698875,65.49282353927303L63.32351476693154,65.4013347360094L63.44421826672554,65.07248250079579L63.53698114156723,64.82029700295577L63.930385140895844,63.75615554811846L64.25114351534843,62.89513695925463L64.55849038982392,62.075907033577565L64.68366438961029,61.74391825796917L65.33076926350593,60.043556359392554L65.62693988800049,59.27451745511431L65.7610548877716,58.92823574543043L65.91864001250266,58.52293352563474L66.27069188690186,57.623798320875636L66.72444763612746,56.478113190855765L66.95579601073264,55.899880493927554L67.07985238552094,55.591466771936936L67.3883168849945,54.82977196224161L67.61631238460541,54.27156977328177L67.80295575928687,53.81768942785938L67.8621898841858,53.67423733037222L67.94377650904656,53.477107041575806L68.21982988357544,52.8141622536597L68.47800125813484,52.19988484251975L68.55623500800134,52.014841709391064L68.77752475762367,51.49427800516875L69.4425116314888,49.955562688401955L69.79568113088608,49.154380620159145L69.81579838085175,49.10909203689772L70.0504996304512,48.5833900165002L70.98930462884903,46.53239860224531L71.12453725361824,46.243938887237846L71.2050062534809,46.07315043769199L71.23518212842941,46.00925936485331L71.23965262842178,45.99981149317631L71.31006300330162,45.85113182836449L71.52017650294304,45.41038415207478L71.60958650279045,45.22416800383911L71.75152487754822,44.930200217894395L71.75934825253486,44.914058510009L71.80852375245095,44.812732955060085L71.86775787734986,44.69099438721656L72.4399818763733,43.53353448055202L72.60539037609101,43.20529425322033L73.0613813753128,42.31535829193621L73.21226075005531,42.02578931264276L73.38102212476731,41.704803928744525L74.11865462350845,40.33839433106414L74.13653662347794,40.306021664143884L74.22482899832727,40.14668286205546L75.21727999663354,38.41649832939987L75.59391962099075,37.789636506188145L75.66880049586295,37.666979926521776L75.71238787078858,37.59589776107063L75.86662012052535,37.34616029475825L75.93926574540139,37.22949629226889L75.96497112035752,37.188377012703L76.08343937015533,36.999840334581734L76.20078999495506,36.81474620079621L76.25220074486734,36.734177913175444L76.58190011930465,36.22503835608214L77.42011886787415,34.990235953341056L77.50841124272347,34.86520784313228L77.64923199248314,34.66780980088754L78.24045561647415,33.86613047624067L78.29633686637878,33.79263852975453L78.41815799117089,33.63379698407013L78.45168674111366,33.590408175275485L79.14908473992348,32.720566472780774L79.3279047396183,32.5076132302041L79.50113661432266,32.30526812424719L79.60507573914528,32.185735334811426L80.24323961305619,31.482857032600634L80.470117487669,31.245895230823123L80.79534636211396,30.918139509731276L80.86352148699761,30.85121389781142L81.03898861169814,30.681840716492502L81.23122011137009,30.501005137551942L81.48156811094285,30.272955700554803L81.5184497358799,30.240073027066273L81.68944636058806,30.090016344520166L81.70621073555947,30.07551940781741L82.10967335987091,29.738073561928616L82.37566810941696,29.527708602685834L82.3834914844036,29.521665024851984L82.38796198439599,29.518222480516243L82.55001760911942,29.395055894281626L82.5991931090355,29.358399172187973L82.84171773362159,29.182446906138495L83.47652873253823,28.760199718112403L83.60617323231698,28.680817195762813L83.75146448206901,28.594613335562798L83.80175760698319,28.565453710022553L84.15604473137856,28.37000644290137L84.42874523091317,28.23147590879796L84.4376862308979,28.2271026024751L84.61874148058891,28.141089994738195L84.67797560548782,28.113932144978378L85.31613947939873,27.852617529566487L85.50613572907447,27.785844919617148L85.52178247904777,27.780579101799873L85.61901585388183,27.748588939805813L85.81907072854041,27.686954646031666L85.85595235347748,27.6762062576056L86.39800047755242,27.540353257985515L86.598055352211,27.500687497139154L87.66650485038757,27.384635502531722L87.79614935016632,27.381537212629553L87.97832222485542,27.3808614539266L88.00849809980393,27.380937954911843L88.02749772477151,27.3810017057329L88.58742784881592,27.38758079046343L88.63995622372627,27.388664554420984L88.77518884849549,27.391813844979993L89.00765484809875,27.39846943069577L89.04118359804154,27.399553194653322L89.61005472207069,27.422949745972204L89.61676047205924,27.423281250241587L89.6413482220173,27.42450526600541L89.74193447184562,27.42970733300166L89.94087172150613,27.440838226353918L90.75673797011376,27.498456218402993L90.83608934497833,27.505086303790364L91.01714459466933,27.520883757242217L91.28760984420776,27.546243833848905L91.8005997183323,27.600126027785507L91.8900097181797,27.61028790865805L92.22194434261321,27.650042920653874L92.25659071755409,27.654377976484085L92.6220540919304,27.702165591929997L92.78969784164428,27.725370890785797L93.00875234127045,27.756914797032636L93.3362164657116,27.806627687273703L93.51280121541024,27.834716299020585L93.72962046504021,27.87041675879874L94.13196546435357,27.940249408157655L94.46278246378898,28.001131442243604L94.64830821347238,28.036640649558677L94.87406846308708,28.08118972329612L95.27194296240806,28.16322427980063L95.32447133731841,28.174393423645512L95.66981746172905,28.249785144598434L95.71675771164894,28.260291279904607L96.17051346087456,28.36512313001029L96.44880208539962,28.432303745214256L96.99532070946694,28.57064302685461L97.20655183410645,28.62638674476534L97.25684495902061,28.639850918167383L97.72512983322144,28.768589326160253L98.64493520665168,29.0395048152196L98.66505245661735,29.04568864485975L98.77346208143234,29.079259827215424L98.83046095633507,29.09703355611927L99.01039858102799,29.153759036673904L99.65973870491982,29.366023770383435L99.67538545489312,29.371276838036522L99.97714420437813,29.47408141203337L100.27219720387458,29.577051738164954L100.3604895787239,29.608340641127654L100.49125170350075,29.65506999294442L101.10259257745743,29.879893638397334L101.23447232723237,29.92975953060889L101.3194118270874,29.962132197529144L101.6088767015934,30.073951137620014L101.6994043264389,30.10939659411403L102.18221832561493,30.302281078229726L102.32303907537461,30.359758818472528L102.352097325325,30.371680222005608L102.48174182510375,30.425179911016016L102.71644307470322,30.52321592359965L102.77344194960595,30.547249983128864L102.79802969956398,30.557641366957142L102.83491132450105,30.57327306827429L102.86285194945334,30.585130720986342L103.15343444895744,30.709763576104706L103.15566969895363,30.710732588584392L103.26966744875908,30.76027972669081L103.27302032375336,30.76173324541034L103.44513457345963,30.837214217512724L103.62954269814492,30.918993770733096L103.7971864478588,30.994143238566124L103.94918344759941,31.062943124624297L104.13917969727517,31.149822743527295L104.82651907110214,31.47235089729449L104.87904744601249,31.497519721438067L104.94610494589806,31.529764886716265L104.97181032085417,31.542170796489188L105.26574569535255,31.685163888064892L106.06372994399071,32.085136539222276L106.36548869347573,32.24085429467604L106.69854094290734,32.41555704463329L106.71865819287301,32.426203431745705L106.80806819272043,32.47364679275802L107.21153081703186,32.690425084596654L107.53564206647873,32.86770336772361L107.77369619107247,32.99969306758911L107.83069506597519,33.03151747744849L107.99163306570054,33.12183964068723L108.04416144061089,33.1514710223031L108.17492356538773,33.22554947634276L108.30456806516648,33.299436677919346L108.31239144015312,33.30389923539158L108.63091456460954,33.4873740983229L109.00196606397628,33.70447114426668L109.41660493826866,33.951327073468406L109.67812918782235,34.10933985847936L109.75971581268311,34.1589889978994L110.39340918660164,34.550572041008905L110.46940768647194,34.598232154812735L110.55546481132508,34.652369352033475L110.57111156129837,34.66223797912929L110.61469893622399,34.68975283348689L110.65046293616295,34.71237162478917L111.11204206037522,35.00716817140727L111.31209693503381,35.136646088924124L111.73455918431281,35.41341390335427L111.797146184206,35.454800936368514L111.80161668419838,35.45775897446441L111.8742623090744,35.505941845000706L111.94690793395043,35.554252217179084L112.19837355852127,35.722503384047826L112.21625555849076,35.734526788894556L112.37719355821609,35.84313268760536L112.4062518081665,35.86280619097596L112.44760393309593,35.89084380206603L112.87565430736542,36.1836385729037L112.89688918232919,36.19827576141276L113.01088693213462,36.27709727653723L113.3059399316311,36.48259167305312L113.43223155641556,36.57121806445238L113.4713484313488,36.598745668974175L114.82032180404663,37.57144294612257L114.85832105398178,37.59949330737686L114.9466134288311,37.664799648442454L115.41378067803383,38.01355488998237L115.96700505208969,38.4334177973019L116.14694267678261,38.57157857664333L116.45317192626,38.80851487809241L116.69010842585564,38.99337950892223L116.90469242548943,39.16196218006033L116.9996905503273,39.23694589575865L117.14721705007553,39.35381390087531L117.37297729969025,39.53366771717194L117.45009342455863,39.59537851193133L117.53950342440605,39.667110935756995L117.91837829875946,39.97315312720522L117.95302467370033,40.00130548977313L117.9899062986374,40.03130662615098L118.11731554841995,40.13519496410541L118.1877259232998,40.19277470566189L118.48389654779433,40.43623909118469L119.33999729633332,41.151459552347376L119.4349954211712,41.23186208783346L119.59481579589844,41.3676130861399L120.0251014201641,41.735990830393604L120.08880604505539,41.79089303746673L120.3302130446434,41.99976622749733L120.5123859193325,42.15826351874813L120.85661441874504,42.45980490223144L121.45677904272078,42.991907505060624L121.61436416745185,43.132962571676956L122.11394254159927,43.58374462719718L122.20894066643714,43.670088739203464L122.22682266640663,43.686357948730944L122.65375541567803,44.077010229853386L122.6727550406456,44.09449070498047L122.90857391524315,44.31207225716412L122.97786666512489,44.37623108345113L123.20362691473962,44.58600953514039L123.44168103933335,44.808385149065685L124.161431538105,45.48816015373433L124.3916622877121,45.70792198399727L124.75377278709412,46.05583571469958L124.77612528705598,46.07740899253696L124.77947816205024,46.08063478408121L124.87447628688813,46.17242321620367L124.8778291618824,46.17566175791211L125.30811478614807,46.5937651425711L125.98874840998648,47.2629702611126L126.05468828487396,47.3283021025066L126.43244553422927,47.70431719512001L126.54085515904426,47.81277009186036L126.81802615857126,48.0911061764879L127.29860490775108,48.57737193899476L128.0082967815399,49.30386354531595L128.2854677810669,49.59028323405039L128.40505365586282,49.71431683145107L128.59057940554618,49.907303316880416L128.73251778030397,50.0553964741387L128.88563240504266,50.215589537228965L128.94821940493583,50.28120188223552L128.9839834048748,50.31872561549521L129.0633347797394,50.402060688748776L129.4880322790146,50.85017795994983L129.58750090384484,50.95563456810167L129.61320627880096,50.98291991950353L129.98090490317344,51.37451571277727L130.24242915272714,51.65458581973688L130.31507477760314,51.732604074516345L130.93647427654267,52.40400222130134L131.01470802640915,52.48902031623017L131.22705677604677,52.72038479592101L131.42822927570342,52.940325128482854L131.65175427532196,53.18554903666616L131.74116427516935,53.28390380335496L131.86410302495955,53.419361547884634L132.1166862745285,53.69850089285718L132.3312702741623,53.93654645859222L132.40950402402876,54.023540828973054L132.4642676489353,54.08449936404425L133.0588441479206,54.74968818086069L133.5628930220604,55.31839650512667L133.6813612718582,55.45269398471356L133.6835965218544,55.455231267390644L133.98535527133942,55.79838918684395L134.74757552003862,56.67200493794377L134.77328089499474,56.701636319559626L134.95433614468573,56.91064976139651L135.07392201948167,57.048989043036855L135.13986189436915,57.1253752767979L135.22927189421654,57.22905961212501L135.31309376907348,57.3263816155131L135.40585664391517,57.43421612928944L135.49414901876452,57.536982452793694L135.60702914357185,57.66855139724039L135.71432114338873,57.79379626024068L135.79031964325904,57.88262027918515L136.26419264245033,58.438559313998326L136.28654514241217,58.46487565292051L136.69336064171793,58.945104212675616L136.91912089133262,59.21271740920548L136.95488489127158,59.255188206177266L137.0152366411686,59.32689512967454L137.11582289099692,59.446529920423984L137.333759765625,59.70626989055636L137.36840614056587,59.74763142324218L137.42987551546096,59.82105324382522L137.46899239039422,59.867808095970375L137.48016864037515,59.88117026805878L137.69810551500322,60.142121503790776L137.98421751451494,60.48578305473022L138.04568688941,60.55977225762044L138.52626563858988,61.14019160771008L138.89396426296236,61.58655573133275L138.9587865128517,61.66544737236036L139.372307762146,62.17014987230979L139.50418751192092,62.331617951820704L139.5712450118065,62.41381826045989L139.58689176177978,62.43300725759066L139.6036561367512,62.4535732724557L139.61818526172638,62.471398002016386L139.80706388640405,62.70338086467123L140.18817401075364,63.172988537642325L140.38487601041794,63.41614691922416L140.56816651010513,63.64320821849533L140.58381326007844,63.662607593335494L141.05545100927353,64.24905139601269L141.1191556341648,64.32848491901909L141.2566235089302,64.50008937907413L141.45332550859453,64.74607192202772L141.56508800840376,64.8860623499328L142.0534901325703,65.49970225286242L142.7922402563095,66.43366453115154L142.87382688117026,66.53722773991869L143.55781338000298,67.40865683785711L143.71092800474167,67.6045057351508L144.44409000349046,68.54611173688168L144.44520762848853,68.54755250543701L144.5100298783779,68.63110433148209L144.73355487799645,68.9195831717359L145.09231250238417,69.38377840000132L145.3616601269245,69.73322852549052L145.50471612668036,69.91915141994946L145.54159775161742,69.96711753769424L145.7584170012474,70.24942529847209L145.94617800092698,70.49429857713972L145.9864125008583,70.54682287858833L146.00764737582207,70.57454811065531L146.11493937563895,70.71471704085928L146.62569399976732,71.38363528070614L146.6715166246891,71.44378418035022L146.76986762452125,71.572949718844L147.01798037409782,71.89922642088791L147.188976998806,72.12445807159544L147.43150162339208,72.44440431711082L148.05178349733353,73.26531726446315L148.2686027469635,73.5531330961782L148.31219012188913,73.61104434200405L148.53459749650955,73.90682265126605L149.00399999570848,74.53258158527393L149.3024058701992,74.93140672165272L149.4722848699093,75.15880590027537L149.73939724445344,75.51686876168603L150.08809624385833,75.98521416840069L150.2747396185398,76.23632227736528L150.67820224285126,76.78009765552545L150.98666674232481,77.19672202113652L151.04590086722374,77.27681217759954L151.44489299154282,77.81699200945353L151.45830449151993,77.83517374361196L151.7343578660488,78.20964606635637L151.86064949083328,78.38114852509777L152.04058711552622,78.62570942474234L152.14117336535452,78.76252506176002L152.50328386473657,79.25565041260995L152.74916136431696,79.59100523156887L152.79163111424444,79.64897385313365L152.87210011410716,79.75884201810092L152.91568748903273,79.81837253478099L153.1325067386627,80.11468635093966L153.148153488636,80.13608112647813L153.1671531136036,80.16205958604885L153.2878566133976,80.32718058760491L153.82431661248208,81.06217655345185L154.03666536211966,81.35361343180153L154.1663098618984,81.53167585002718L154.4121873614788,81.86965720281263L154.4445984864235,81.9142381519606L154.9598236105442,82.62369553890197L155.247053235054,83.0198558909616L155.2794643599987,83.06458346699795L155.34763948488236,83.158692429006L155.68739748430252,83.62805147377506L155.8751584839821,83.88768306751167L156.44402960801125,84.67538821218821L157.79970873069763,86.55845996384375L157.8008263556957,86.56001548387692L157.9561762304306,86.7762837691473L157.98970498037338,86.82297487047144L158.0355276052952,86.88678944232488L158.51834160447123,87.55964748291152L158.5652818543911,87.62510682594761L158.9318628537655,88.13657966309067L159.39791247797012,88.78746279566747L159.41132397794723,88.80619916196888L159.52867460274695,88.97019814907476L159.89637322711943,89.4843102702086L160.50100835108756,90.33046854268974L160.52783135104178,90.36802415135995L160.56471297597884,90.41966869147831L161.05311510014533,91.1038488778803L161.15817184996607,91.25108777413678L161.53257622432707,91.77596103386087L161.7873947238922,92.13332901132229L161.8522169737816,92.22425680736082L162.10368259835244,92.57704110079L162.37973597288132,92.96442296479347L163.66947522068023,94.77527141130138L163.94105809521676,95.15671807386674L164.21822909474375,95.54603158774749L164.27746321964264,95.6292327842769L164.39928434443473,95.80034636301001L164.54792846918107,96.00913667697327L164.7535714688301,96.29797889690695L164.89662746858596,96.49891510971902L165.00280184340477,96.64803465519594L165.1682103431225,96.88034902212017L165.20397434306145,96.93057829401161L165.2721494679451,97.0263192770381L165.29226671791076,97.05457364091967L165.53367371749877,97.39358138192374L165.74825771713256,97.69489326245136L165.8644907169342,97.85808261413014L166.36071621608733,98.55464320997663L166.68929796552658,99.01572739817568L166.88152946519853,99.28541249638911L166.97988046503067,99.42336289802117L166.99329196500778,99.44217576530782L167.00223296499252,99.45471555180491L167.08717246484755,99.57384671106819L167.13523033976554,99.64124407906365L167.55992783904074,100.23667037242431L167.7231010887623,100.4653509425497L168.42944008755683,101.45461068300233L168.6786704621315,101.80339779995278L169.31012858605385,102.68635942141596L169.3224224610329,102.70354026768419L169.52135971069336,102.98146834705712L169.58171146059038,103.06576605770827L169.74041421031953,103.28737028669906L170.63451420879363,104.5342789703542L170.90274420833586,104.90779503078312L171.22685545778276,105.35875558860224L171.3520294575691,105.53280808018494L171.58673070716858,105.85897640583309L171.66719970703124,105.97075709543132L171.95778220653534,106.37415954076026L172.12207308125497,106.60206872595114L172.53447670555116,107.17362671191727L172.54900583052637,107.1937464710351L172.64400395536424,107.32528354007128L173.09440682959556,107.94832031402109L173.2128750793934,108.11202604735023L173.91921407818793,109.08652747273386L174.20644370269775,109.48201206609056L174.58308332705496,109.99987911058318L174.66243470191955,110.1088738893023L174.7496094517708,110.22857880595487L175.10166132616996,110.71150402543962L175.10724945116044,110.71916687412772L175.1240138261318,110.7421426700278L175.49283007550238,111.24717667424662L175.52859407544136,111.29610224184795L175.7487662000656,111.59711768105775L176.0058199496269,111.94814882690855L176.09858282446862,112.07471651944525L176.11981769943236,112.10367851744029L176.23493307423593,112.2606457889863L176.54675044870376,112.68535375870425L177.08097519779204,113.41137042140878L177.11226869773864,113.45383484329847L177.20838444757462,113.58421164739185L177.63419957184792,114.16096532527214L177.65878732180596,114.1942273161458L177.9907219462395,114.64278765555304L178.1527775709629,114.86146253431738L178.20418832087518,114.93079155219013L178.7920590698719,115.72201574218766L178.8367640697956,115.7820690156002L178.84570506978037,115.79407648274164L178.87029281973838,115.82709622049538L178.88146906971932,115.84210316376642L178.96640856957436,115.9561215071829L179.0044078195095,116.00710941384463L179.10164119434356,116.13752446843063L179.13628756928443,116.18397331663485L179.6582184433937,116.88245599973547L179.92533081793783,117.23899202898242L180.18573744249343,117.5859526849103L180.8909588162899,118.52241080784282L180.93119331622125,118.57569693160276L181.03960294103624,118.71919365466462L181.27430419063566,119.0294625255473L181.27542181563376,119.0309383570542L181.6095916900635,119.47176572187021L181.8945860645771,119.84684048987339L182.05217118930815,120.05388403134035L182.3807529387474,120.48476308053424L182.55510243844986,120.71294001917349L182.71492281317708,120.92181958428618L182.81103856301306,121.0473067004064L183.03009306263922,121.33293587896003L183.05803368759155,121.36933122268744L183.19885443735123,121.55263714594301L183.27708818721771,121.65437708122863L183.54308293676377,121.99980134236964L183.60902281165124,122.0853103186204L183.74202018642427,122.25762878787103L183.88060568618775,122.43697897268152L185.1044050590992,124.01121305938656L185.20275605893136,124.13696474141405L185.24634343385696,124.19266064620902L185.29216605877878,124.25118389991678L185.87444868278502,124.99267288688586L185.9716820576191,125.11608491378146L186.30361668205262,125.53651201586709L187.0524254307747,126.47982972714271L187.19212855553627,126.65502654596295L187.97223080420494,127.6285972093595L188.08287567901613,127.76602804180013L188.23487267875672,127.95454878221614L188.37122292852402,128.12339601926152L188.4360451784134,128.20357861441505L188.51316130328178,128.29889246694063L188.51763180327416,128.30441647558308L188.63051192808152,128.44378214544204L188.7266276779175,128.56231085944657L189.37261492681503,129.35559420096345L189.4989065515995,129.50999550196292L189.64196255135536,129.68461856339385L189.8688404259682,129.96095924732307L189.9258393008709,130.0302691399495L190.0029554257393,130.1239669091619L190.00742592573167,130.12939529157282L190.5964142997265,130.84211672055102L190.61764917469026,130.8677158627366L190.70705917453765,130.97543562503506L190.84340942430495,131.1394760501746L190.96076004910466,131.28043867810047L191.16081492376327,131.5202692668244L191.17646167373658,131.53899925804373L191.2166961736679,131.58715344071055L191.2625187985897,131.64196320909318L191.36757554841043,131.76750132587023L191.42233917331697,131.83287779283896L191.53074879813195,131.9621580828106L191.62351167297365,132.0726382556598L191.7207450478077,132.1883013702589L191.74086229777336,132.21221430322817L191.89174167251588,132.39135411032925L192.81601754593848,133.48102139390792L193.087600420475,133.79863435937352L193.97052416896818,134.82297617664028L194.04540504384042,134.90926291290765L194.11358016872407,134.98774336113962L194.5159251680374,135.44933755590694L195.0490322921276,136.05676494132695L195.20885266685485,136.23792883699582L195.7956057908535,136.89928304192716L195.88278054070474,136.9970353633572L196.2370676651001,137.3929407121327L196.3890646648407,137.562117859677L196.4058290398121,137.58075222466476L197.04734578871725,138.29008370373458L197.14010866355895,138.39204517312328L197.43069116306305,138.71043589860548L197.62515791273117,138.92265919428135L197.70674453759193,139.01149118207843L197.86991778731348,139.18878859045168L197.89115266227722,139.21182654340228L197.96491591215135,139.2917860106822L198.14485353684424,139.4864204548352L198.2465574116707,139.596165899472L198.30020341157913,139.65397833152525L198.515905036211,139.8858878807359L198.72378328585626,140.1085679048316L198.85566303563118,140.24941896882063L198.90483853554727,140.30185720666086L198.9316615355015,140.33043988727073L198.98307228541375,140.38518590483233L199.7173519091606,141.16164540467875L199.89170140886307,141.34449869710497L200.0369926586151,141.49643124755994L200.21469503331184,141.68170228987384L200.51086565780642,141.9891246865974L200.63827490758896,142.12084982055563L200.92550453209876,142.41664247375235L201.39825990629194,142.8999501981633L201.45414115619658,142.95678564888425L201.64637265586853,143.1518249107508L201.68772478079796,143.19368529361122L201.96377815532685,143.47224928742395L202.23871390485763,143.74816124708173L202.46782702946663,143.97691831819236L202.49912052941323,144.00807971951298L202.69694015407563,144.20460756305067L203.35186840295793,144.8495347751725L203.37757377791405,144.874666942594L203.5664524025917,145.0589147842303L203.5675700275898,145.0600033294994L203.63798040246965,145.12849561784614L203.72962565231322,145.21749017023686L203.87379927706718,145.3571395312494L203.93750390195848,145.41870688666148L204.05932502675057,145.53620283736527L204.13867640161513,145.61256994588L204.28955577635764,145.75741021749513L204.66843065071106,146.11899690553835L204.85619165039063,146.29706251130506L205.59382414913176,146.98930080148554L205.7245862739086,147.11079392866807L206.33816239786148,147.67591308170992L206.55833452248572,147.87669310501047L206.60303952240943,147.91732947210707L206.74050739717484,148.04201332788227L207.2780850212574,148.52558721197104L207.4278467710018,148.65915952596868L207.65472464561464,148.86056111977427L207.87489677023888,149.0549054976916L208.21130189466479,149.34974188857285L208.2370072696209,149.372166239871L208.43817976927758,149.5471431183587L208.4515912692547,149.55877445565605L208.85058339357377,149.90296832595112L208.93664051842688,149.97673121342666L209.1624007680416,150.16943082016135L209.25739889287948,150.25016804745786L209.38145526766777,150.35528837002875L209.43845414257052,150.40346805302397L209.71562514209748,150.63668608783635L210.1548517663479,151.0026158005624L210.31467214107514,151.1346517197732L210.5482557656765,151.3265536443597L210.72707576537132,151.4725996033776L210.91818964004517,151.62785596226416L211.0813628897667,151.75973250442235L211.0936567647457,151.76964256955182L211.23783038949966,151.88559814104244L211.26018288946153,151.9035320438841L211.59211751389503,152.1684509713401L211.85028888845443,152.37268788291112L212.14198901295663,152.6015318145154L212.206811262846,152.652110122152L212.30739751267433,152.7303921459535L212.55886313724517,152.92503455895914L212.90197401165963,153.18815252572097L213.70331113529204,153.7915325308907L214.15930213451387,154.12787070626405L214.20288950943944,154.15975328874762L214.2140657594204,154.16792056580712L214.84217100834846,154.62197064779053L215.0489316329956,154.76929560765538L215.67033113193514,155.20565085237598L215.80556375670434,155.2993326838831L215.89609138154984,155.3617885663633L215.91285575652122,155.37333224628173L216.03132400631904,155.45470299736226L216.22690838098526,155.58826813939254L216.32302413082124,155.65355216767077L216.53425525546075,155.79620498923924L217.28194637918472,156.2920532970325L217.54235300374032,156.46140097802305L217.84969987821577,156.65904127338774L218.0598133778572,156.79275862050324L218.12687087774276,156.83519515140873L218.24198625254633,156.90777466426886L218.35933687734604,156.9814116438729L218.5526860020161,157.1019612589041L219.14502725100516,157.46524451567208L219.3551407506466,157.59191580329298L219.3707875006199,157.60130231480474L219.38755187559127,157.6113526317405L219.46578562545778,157.6581572892146L219.7060750000477,157.80091370586723L220.2671227490902,158.12834429777183L220.93769774794578,158.50882633072644L221.0405192477703,158.56611640448983L221.18133999753,158.64412390131827L221.50433362197876,158.821057531569L222.0284997460842,159.10228232527456L222.03520549607276,159.1058324491208L222.07320474600792,159.12592790323814L222.21849599575995,159.20240737257492L222.2743772456646,159.23167218696986L222.5940179951191,159.39745858772045L222.62642912006376,159.41411588037096L222.91924686956406,159.56332746609573L222.9740104944706,159.59097779094802L223.16735961914063,159.68795275080413L223.32941524386408,159.76845609227595L223.48700036859512,159.8460583729482L223.87705149292944,160.03524889542769L223.91058024287224,160.05131928208206L224.20004511737824,160.18879155255635L224.69738824152947,160.4196683384663L224.70185874152185,160.42171314605093L224.76332811641691,160.4497726714857L224.94103049111365,160.5303110759091L224.97455924105645,160.545410059428L225.09079224085806,160.5975159961136L225.16008499073982,160.6284032689038L225.35343411540984,160.71389391679352L225.85748298954965,160.9319420452986L226.3212973637581,161.12641472174326L226.69346648812297,161.2781721566617L226.75381823801993,161.30242097676927L226.81528761291506,161.32701524663833L226.8208757379055,161.3292459277105L227.128222612381,161.45060139296388L227.18075098729133,161.47108034811396L227.18298623728754,161.47195014837843L227.42104036188127,161.56378499906745L227.54621436166764,161.61144292143683L227.78315086126327,161.70046018505752L227.90720723605156,161.74644564448138L227.91838348603247,161.75056733428244L228.1620257356167,161.83955790224684L228.82813023447991,162.0743997900037L228.83930648446085,162.0782344018888L228.9175402343273,162.10497826975453L229.1779468588829,162.19276275187354L229.8004639828205,162.3949098318426L230.23633773207663,162.5299665438637L230.49003860664365,162.60611331360326L230.50456773161886,162.61041908390004L230.73926898121834,162.67915063704694L230.8309142310619,162.705566586627L230.99967560577392,162.7535898808894L231.03096910572052,162.76240642021685L231.2645527303219,162.82734091469666L231.386373855114,162.86059384100045L231.44896085500716,162.87751450423036L231.5048421049118,162.8925285198581L231.5171359798908,162.89581975560455L232.01894960403442,163.0265056515693L232.10165385389328,163.047358545129L232.4022949783802,163.12152525421152L232.45370572829245,163.1339508868947L232.544233353138,163.15564827961177L232.8862266025543,163.23551271832406L233.84179597592353,163.44100332963495L233.86526610088347,163.44572278299387L233.87308947587013,163.44729234812982L233.89879485082628,163.45243743782976L233.94349985075,163.46134043920824L234.2296118502617,163.51696771225994L234.39278509998323,163.54764490617274L234.6230158495903,163.5896339860031L234.62636872458455,163.5902342896327L234.94936234903335,163.64655345831392L235.0790068488121,163.66831883530497L235.19523984861374,163.68742331279253L236.47268522143364,163.87185610651784L237.176788970232,163.95347404144584L238.38829446816445,164.06051747228008L238.4262937180996,164.06319117175312L238.61964284276962,164.07615104129707L238.87222609233854,164.09145812393157L238.91246059226992,164.09372660724844L239.58974134111406,164.1249069470454L239.69256284093856,164.12848400312328L239.86579471564292,164.13382090559625L240.24131671500206,164.14241774116647L240.60454483938216,164.14686251813632L240.62130921435357,164.14697576300298L240.73642458915708,164.14753440447492L240.84706946396827,164.14771101417134" fill="none"></path></g></g></g></g></g></g><g transform="translate(61, 177)" clip-path="url(#clip_1)"><clipPath id="clip_1"><rect width="268" height="22"></rect></clipPath><g><g><line x1="0" y1="0" x2="0" y2="5" style="visibility: inherit;" fill="rgb(0, 0, 0)" stroke="rgb(204, 204, 204)" stroke-width="1px"></line><line x1="22.352499961853027" y1="0" x2="22.352499961853027" y2="5" style="visibility: inherit;" fill="rgb(0, 0, 0)" stroke="rgb(204, 204, 204)" stroke-width="1px"></line><line x1="44.704999923706055" y1="0" x2="44.704999923706055" y2="5" style="visibility: inherit;" fill="rgb(0, 0, 0)" stroke="rgb(204, 204, 204)" stroke-width="1px"></line><line x1="67.05749988555908" y1="0" x2="67.05749988555908" y2="5" style="visibility: inherit;" fill="rgb(0, 0, 0)" stroke="rgb(204, 204, 204)" stroke-width="1px"></line><line x1="89.40999984741211" y1="0" x2="89.40999984741211" y2="5" style="visibility: inherit;" fill="rgb(0, 0, 0)" stroke="rgb(204, 204, 204)" stroke-width="1px"></line><line x1="111.76249980926514" y1="0" x2="111.76249980926514" y2="5" style="visibility: inherit;" fill="rgb(0, 0, 0)" stroke="rgb(204, 204, 204)" stroke-width="1px"></line><line x1="134.11499977111816" y1="0" x2="134.11499977111816" y2="5" style="visibility: inherit;" fill="rgb(0, 0, 0)" stroke="rgb(204, 204, 204)" stroke-width="1px"></line><line x1="156.4674997329712" y1="0" x2="156.4674997329712" y2="5" style="visibility: inherit;" fill="rgb(0, 0, 0)" stroke="rgb(204, 204, 204)" stroke-width="1px"></line><line x1="178.81999969482422" y1="0" x2="178.81999969482422" y2="5" style="visibility: inherit;" fill="rgb(0, 0, 0)" stroke="rgb(204, 204, 204)" stroke-width="1px"></line><line x1="201.17249965667725" y1="0" x2="201.17249965667725" y2="5" style="visibility: inherit;" fill="rgb(0, 0, 0)" stroke="rgb(204, 204, 204)" stroke-width="1px"></line><line x1="223.52499961853027" y1="0" x2="223.52499961853027" y2="5" style="visibility: inherit;" fill="rgb(0, 0, 0)" stroke="rgb(204, 204, 204)" stroke-width="1px"></line><line x1="245.8774995803833" y1="0" x2="245.8774995803833" y2="5" style="visibility: inherit;" fill="rgb(0, 0, 0)" stroke="rgb(204, 204, 204)" stroke-width="1px"></line><line x1="268.2299995422363" y1="0" x2="268.2299995422363" y2="5" style="visibility: inherit;" fill="rgb(0, 0, 0)" stroke="rgb(204, 204, 204)" stroke-width="1px"></line></g><g transform="translate(0, 8)"><text style="text-anchor: middle; visibility: hidden; font-family: &quot;Helvetica Neue&quot;, sans-serif; font-size: 12px; font-weight: 200;" x="0" y="0" dx="0em" dy="0.95em" fill="rgb(50, 49, 63)" stroke="none" stroke-width="1px">-20k</text><text style="text-anchor: middle; visibility: inherit; font-family: &quot;Helvetica Neue&quot;, sans-serif; font-size: 12px; font-weight: 200;" x="22.352499961853027" y="0" dx="0em" dy="0.95em" fill="rgb(50, 49, 63)" stroke="none" stroke-width="1px">0</text><text style="text-anchor: middle; visibility: hidden; font-family: &quot;Helvetica Neue&quot;, sans-serif; font-size: 12px; font-weight: 200;" x="44.704999923706055" y="0" dx="0em" dy="0.95em" fill="rgb(50, 49, 63)" stroke="none" stroke-width="1px">20k</text><text style="text-anchor: middle; visibility: inherit; font-family: &quot;Helvetica Neue&quot;, sans-serif; font-size: 12px; font-weight: 200;" x="67.05749988555908" y="0" dx="0em" dy="0.95em" fill="rgb(50, 49, 63)" stroke="none" stroke-width="1px">40k</text><text style="text-anchor: middle; visibility: hidden; font-family: &quot;Helvetica Neue&quot;, sans-serif; font-size: 12px; font-weight: 200;" x="89.40999984741211" y="0" dx="0em" dy="0.95em" fill="rgb(50, 49, 63)" stroke="none" stroke-width="1px">60k</text><text style="text-anchor: middle; visibility: inherit; font-family: &quot;Helvetica Neue&quot;, sans-serif; font-size: 12px; font-weight: 200;" x="111.76249980926514" y="0" dx="0em" dy="0.95em" fill="rgb(50, 49, 63)" stroke="none" stroke-width="1px">80k</text><text style="text-anchor: middle; visibility: hidden; font-family: &quot;Helvetica Neue&quot;, sans-serif; font-size: 12px; font-weight: 200;" x="134.11499977111816" y="0" dx="0em" dy="0.95em" fill="rgb(50, 49, 63)" stroke="none" stroke-width="1px">100k</text><text style="text-anchor: middle; visibility: inherit; font-family: &quot;Helvetica Neue&quot;, sans-serif; font-size: 12px; font-weight: 200;" x="156.4674997329712" y="0" dx="0em" dy="0.95em" fill="rgb(50, 49, 63)" stroke="none" stroke-width="1px">120k</text><text style="text-anchor: middle; visibility: hidden; font-family: &quot;Helvetica Neue&quot;, sans-serif; font-size: 12px; font-weight: 200;" x="178.81999969482422" y="0" dx="0em" dy="0.95em" fill="rgb(50, 49, 63)" stroke="none" stroke-width="1px">140k</text><text style="text-anchor: middle; visibility: inherit; font-family: &quot;Helvetica Neue&quot;, sans-serif; font-size: 12px; font-weight: 200;" x="201.17249965667725" y="0" dx="0em" dy="0.95em" fill="rgb(50, 49, 63)" stroke="none" stroke-width="1px">160k</text><text style="text-anchor: middle; visibility: hidden; font-family: &quot;Helvetica Neue&quot;, sans-serif; font-size: 12px; font-weight: 200;" x="223.52499961853027" y="0" dx="0em" dy="0.95em" fill="rgb(50, 49, 63)" stroke="none" stroke-width="1px">180k</text><text style="text-anchor: middle; visibility: inherit; font-family: &quot;Helvetica Neue&quot;, sans-serif; font-size: 12px; font-weight: 200;" x="245.8774995803833" y="0" dx="0em" dy="0.95em" fill="rgb(50, 49, 63)" stroke="none" stroke-width="1px">200k</text><text style="text-anchor: middle; visibility: hidden; font-family: &quot;Helvetica Neue&quot;, sans-serif; font-size: 12px; font-weight: 200;" x="268.2299995422363" y="0" dx="0em" dy="0.95em" fill="rgb(50, 49, 63)" stroke="none" stroke-width="1px">220k</text></g><line x1="0" y1="0" x2="268.2299995422363" y2="0" fill="rgb(0, 0, 0)" stroke="rgb(204, 204, 204)" stroke-width="1px"></line></g></g></g></g></svg>