<svg viewBox="0 0 330 200" xmlns="http://www.w3.org/2000/svg"><g><g><g><g><g><line x1="51.41600036621094" y1="177.9749994277954" x2="46.41600036621094" y2="177.9749994277954" style="visibility: inherit;" fill="rgb(0, 0, 0)" stroke="rgb(204, 204, 204)" stroke-width="1px"></line><line x1="51.41600036621094" y1="163.14374947547913" x2="46.41600036621094" y2="163.14374947547913" style="visibility: inherit;" fill="rgb(0, 0, 0)" stroke="rgb(204, 204, 204)" stroke-width="1px"></line><line x1="51.41600036621094" y1="148.31249952316284" x2="46.41600036621094" y2="148.31249952316284" style="visibility: inherit;" fill="rgb(0, 0, 0)" stroke="rgb(204, 204, 204)" stroke-width="1px"></line><line x1="51.41600036621094" y1="133.48124957084656" x2="46.41600036621094" y2="133.48124957084656" style="visibility: inherit;" fill="rgb(0, 0, 0)" stroke="rgb(204, 204, 204)" stroke-width="1px"></line><line x1="51.41600036621094" y1="118.64999961853027" x2="46.41600036621094" y2="118.64999961853027" style="visibility: inherit;" fill="rgb(0, 0, 0)" stroke="rgb(204, 204, 204)" stroke-width="1px"></line><line x1="51.41600036621094" y1="103.81874966621399" x2="46.41600036621094" y2="103.81874966621399" style="visibility: inherit;" fill="rgb(0, 0, 0)" stroke="rgb(204, 204, 204)" stroke-width="1px"></line><line x1="51.41600036621094" y1="88.98749971389772" x2="46.41600036621094" y2="88.98749971389772" style="visibility: inherit;" fill="rgb(0, 0, 0)" stroke="rgb(204, 204, 204)" stroke-width="1px"></line><line x1="51.41600036621094" y1="74.15624976158144" x2="46.41600036621094" y2="74.15624976158144" style="visibility: inherit;" fill="rgb(0, 0, 0)" stroke="rgb(204, 204, 204)" stroke-width="1px"></line><line x1="51.41600036621094" y1="59.324999809265165" x2="46.41600036621094" y2="59.324999809265165" style="visibility: inherit;" fill="rgb(0, 0, 0)" stroke="rgb(204, 204, 204)" stroke-width="1px"></line><line x1="51.41600036621094" y1="44.49374985694888" x2="46.41600036621094" y2="44.49374985694888" style="visibility: inherit;" fill="rgb(0, 0, 0)" stroke="rgb(204, 204, 204)" stroke-width="1px"></line><line x1="51.41600036621094" y1="29.66249990463257" x2="46.41600036621094" y2="29.66249990463257" style="visibility: inherit;" fill="rgb(0, 0, 0)" stroke="rgb(204, 204, 204)" stroke-width="1px"></line><line x1="51.41600036621094" y1="14.831249952316284" x2="46.41600036621094" y2="14.831249952316284" style="visibility: inherit;" fill="rgb(0, 0, 0)" stroke="rgb(204, 204, 204)" stroke-width="1px"></line><line x1="51.41600036621094" y1="0" x2="46.41600036621094" y2="0" style="visibility: inherit;" fill="rgb(0, 0, 0)" stroke="rgb(204, 204, 204)" stroke-width="1px"></line></g><g transform="translate(41.41600036621094, 0)"><text style="text-anchor: end; visibility: hidden; font-family: &quot;Helvetica Neue&quot;, sans-serif; font-size: 12px; font-weight: 200;" x="0" y="177.9749994277954" dx="0em" dy="0.3em" fill="rgb(50, 49, 63)" stroke="none" stroke-width="1px">-0.2</text><text style="text-anchor: end; visibility: inherit; font-family: &quot;Helvetica Neue&quot;, sans-serif; font-size: 12px; font-weight: 200;" x="0" y="163.14374947547913" dx="0em" dy="0.3em" fill="rgb(50, 49, 63)" stroke="none" stroke-width="1px">0</text><text style="text-anchor: end; visibility: hidden; font-family: &quot;Helvetica Neue&quot;, sans-serif; font-size: 12px; font-weight: 200;" x="0" y="148.31249952316284" dx="0em" dy="0.3em" fill="rgb(50, 49, 63)" stroke="none" stroke-width="1px">0.2</text><text style="text-anchor: end; visibility: inherit; font-family: &quot;Helvetica Neue&quot;, sans-serif; font-size: 12px; font-weight: 200;" x="0" y="133.48124957084656" dx="0em" dy="0.3em" fill="rgb(50, 49, 63)" stroke="none" stroke-width="1px">0.4</text><text style="text-anchor: end; visibility: hidden; font-family: &quot;Helvetica Neue&quot;, sans-serif; font-size: 12px; font-weight: 200;" x="0" y="118.64999961853027" dx="0em" dy="0.3em" fill="rgb(50, 49, 63)" stroke="none" stroke-width="1px">0.6</text><text style="text-anchor: end; visibility: inherit; font-family: &quot;Helvetica Neue&quot;, sans-serif; font-size: 12px; font-weight: 200;" x="0" y="103.81874966621399" dx="0em" dy="0.3em" fill="rgb(50, 49, 63)" stroke="none" stroke-width="1px">0.8</text><text style="text-anchor: end; visibility: hidden; font-family: &quot;Helvetica Neue&quot;, sans-serif; font-size: 12px; font-weight: 200;" x="0" y="88.98749971389772" dx="0em" dy="0.3em" fill="rgb(50, 49, 63)" stroke="none" stroke-width="1px">1</text><text style="text-anchor: end; visibility: inherit; font-family: &quot;Helvetica Neue&quot;, sans-serif; font-size: 12px; font-weight: 200;" x="0" y="74.15624976158144" dx="0em" dy="0.3em" fill="rgb(50, 49, 63)" stroke="none" stroke-width="1px">1.2</text><text style="text-anchor: end; visibility: hidden; font-family: &quot;Helvetica Neue&quot;, sans-serif; font-size: 12px; font-weight: 200;" x="0" y="59.324999809265165" dx="0em" dy="0.3em" fill="rgb(50, 49, 63)" stroke="none" stroke-width="1px">1.4</text><text style="text-anchor: end; visibility: inherit; font-family: &quot;Helvetica Neue&quot;, sans-serif; font-size: 12px; font-weight: 200;" x="0" y="44.49374985694888" dx="0em" dy="0.3em" fill="rgb(50, 49, 63)" stroke="none" stroke-width="1px">1.6</text><text style="text-anchor: end; visibility: hidden; font-family: &quot;Helvetica Neue&quot;, sans-serif; font-size: 12px; font-weight: 200;" x="0" y="29.66249990463257" dx="0em" dy="0.3em" fill="rgb(50, 49, 63)" stroke="none" stroke-width="1px">1.8</text><text style="text-anchor: end; visibility: inherit; font-family: &quot;Helvetica Neue&quot;, sans-serif; font-size: 12px; font-weight: 200;" x="0" y="14.831249952316284" dx="0em" dy="0.3em" fill="rgb(50, 49, 63)" stroke="none" stroke-width="1px">2</text><text style="text-anchor: end; visibility: hidden; font-family: &quot;Helvetica Neue&quot;, sans-serif; font-size: 12px; font-weight: 200;" x="0" y="0" dx="0em" dy="0.3em" fill="rgb(50, 49, 63)" stroke="none" stroke-width="1px">2.2</text></g><line x1="51.41600036621094" y1="0" x2="51.41600036621094" y2="177.9749994277954" fill="rgb(0, 0, 0)" stroke="rgb(204, 204, 204)" stroke-width="1px"></line></g></g><g transform="translate(51, 0)" clip-path="url(#clip_0)"><clipPath id="clip_0"><rect width="278" height="177"></rect></clipPath><g><g><g><line x1="0" y1="0" x2="0" y2="177.9749994277954" fill="rgb(0, 0, 0)" stroke="rgb(60, 60, 60)" stroke-width="1px" opacity="0.25"></line><line x1="34.82299995422363" y1="0" x2="34.82299995422363" y2="177.9749994277954" fill="rgb(0, 0, 0)" stroke="rgb(60, 60, 60)" stroke-width="1px" opacity="0.25"></line><line x1="69.64599990844727" y1="0" x2="69.64599990844727" y2="177.9749994277954" fill="rgb(0, 0, 0)" stroke="rgb(60, 60, 60)" stroke-width="1px" opacity="0.25"></line><line x1="104.4689998626709" y1="0" x2="104.4689998626709" y2="177.9749994277954" fill="rgb(0, 0, 0)" stroke="rgb(60, 60, 60)" stroke-width="1px" opacity="0.25"></line><line x1="139.29199981689453" y1="0" x2="139.29199981689453" y2="177.9749994277954" fill="rgb(0, 0, 0)" stroke="rgb(60, 60, 60)" stroke-width="1px" opacity="0.25"></line><line x1="174.11499977111816" y1="0" x2="174.11499977111816" y2="177.9749994277954" fill="rgb(0, 0, 0)" stroke="rgb(60, 60, 60)" stroke-width="1px" opacity="0.25"></line><line x1="208.9379997253418" y1="0" x2="208.9379997253418" y2="177.9749994277954" fill="rgb(0, 0, 0)" stroke="rgb(60, 60, 60)" stroke-width="1px" opacity="0.25"></line><line x1="243.76099967956543" y1="0" x2="243.76099967956543" y2="177.9749994277954" fill="rgb(0, 0, 0)" stroke="rgb(60, 60, 60)" stroke-width="1px" opacity="0.25"></line><line x1="278.58399963378906" y1="0" x2="278.58399963378906" y2="177.9749994277954" fill="rgb(0, 0, 0)" stroke="rgb(60, 60, 60)" stroke-width="1px" opacity="0.25"></line></g><g><line x1="0" y1="177.9749994277954" x2="278.58399963378906" y2="177.9749994277954" fill="rgb(0, 0, 0)" stroke="rgb(60, 60, 60)" stroke-width="1px" opacity="0.25"></line><line x1="0" y1="163.14374947547913" x2="278.58399963378906" y2="163.14374947547913" fill="rgb(0, 0, 0)" stroke="rgb(60, 60, 60)" stroke-width="1px" opacity="0.25"></line><line x1="0" y1="148.31249952316284" x2="278.58399963378906" y2="148.31249952316284" fill="rgb(0, 0, 0)" stroke="rgb(60, 60, 60)" stroke-width="1px" opacity="0.25"></line><line x1="0" y1="133.48124957084656" x2="278.58399963378906" y2="133.48124957084656" fill="rgb(0, 0, 0)" stroke="rgb(60, 60, 60)" stroke-width="1px" opacity="0.25"></line><line x1="0" y1="118.64999961853027" x2="278.58399963378906" y2="118.64999961853027" fill="rgb(0, 0, 0)" stroke="rgb(60, 60, 60)" stroke-width="1px" opacity="0.25"></line><line x1="0" y1="103.81874966621399" x2="278.58399963378906" y2="103.81874966621399" fill="rgb(0, 0, 0)" stroke="rgb(60, 60, 60)" stroke-width="1px" opacity="0.25"></line><line x1="0" y1="88.98749971389772" x2="278.58399963378906" y2="88.98749971389772" fill="rgb(0, 0, 0)" stroke="rgb(60, 60, 60)" stroke-width="1px" opacity="0.25"></line><line x1="0" y1="74.15624976158144" x2="278.58399963378906" y2="74.15624976158144" fill="rgb(0, 0, 0)" stroke="rgb(60, 60, 60)" stroke-width="1px" opacity="0.25"></line><line x1="0" y1="59.324999809265165" x2="278.58399963378906" y2="59.324999809265165" fill="rgb(0, 0, 0)" stroke="rgb(60, 60, 60)" stroke-width="1px" opacity="0.25"></line><line x1="0" y1="44.49374985694888" x2="278.58399963378906" y2="44.49374985694888" fill="rgb(0, 0, 0)" stroke="rgb(60, 60, 60)" stroke-width="1px" opacity="0.25"></line><line x1="0" y1="29.66249990463257" x2="278.58399963378906" y2="29.66249990463257" fill="rgb(0, 0, 0)" stroke="rgb(60, 60, 60)" stroke-width="1px" opacity="0.25"></line><line x1="0" y1="14.831249952316284" x2="278.58399963378906" y2="14.831249952316284" fill="rgb(0, 0, 0)" stroke="rgb(60, 60, 60)" stroke-width="1px" opacity="0.25"></line><line x1="0" y1="0" x2="278.58399963378906" y2="0" fill="rgb(0, 0, 0)" stroke="rgb(60, 60, 60)" stroke-width="1px" opacity="0.25"></line></g></g></g><g><g><line x1="0" y1="163.14374947547913" x2="278.58399963378906" y2="163.14374947547913" fill="rgb(0, 0, 0)" stroke="rgb(153, 153, 153)" stroke-width="1.5px"></line></g></g><g><g><line x1="34.82299995422363" y1="0" x2="34.82299995422363" y2="177.9749994277954" fill="rgb(0, 0, 0)" stroke="rgb(153, 153, 153)" stroke-width="1.5px"></line></g></g><g><g><g><g><g><path style="fill: none;" stroke="rgb(0, 153, 136)" stroke-width="2px" d="M49.34419093513489,-11.362060425408401L49.379013935089105,19.9014795706577L49.97100493431091,37.29592406977727L50.040650934219364,54.29855704284475L50.07547393417358,38.36024725695506L50.179942934036255,44.511065871957925L50.70228793334961,57.37492550269887L50.806756933212284,45.02751416317875L50.8415799331665,52.84604677629328L51.16195153274536,73.46186412274574L51.75394253196716,77.83555465051758L51.82358853187561,65.562577069613L52.48522553100586,73.27898868753432L52.55487153091431,49.95601907627966L52.65934053077698,52.49984139759246L52.93792453041077,76.75212797731031L53.14686253013611,87.3200420790877L53.21650853004456,79.33284009371842L53.320977529907225,87.19511359016191L53.52991552963257,57.89317717714508L53.70403052940369,72.32652830101227L54.02440212898254,92.46638065761917L54.23334012870788,83.98961758730334L54.44227812843322,96.86740923747162L54.58157012825012,89.46422495353434L54.790508127975464,75.53126405407976L54.86015412788391,86.11356986120465L54.964623127746584,75.84730696432497L55.03426912765503,87.6084242730968L55.06909212760925,88.36437776885101L55.278030127334596,105.49787536729443L55.59143712692261,83.61190604284171L56.218251126098636,70.86022745685507L56.28789712600708,76.21426009023135L56.67791472549438,73.27894448696507L56.921675725173955,112.98454568642948L56.95649872512817,80.96048185574882L57.026144725036616,77.24429247578566L57.13061372489929,85.20598189258432L57.200259724807744,93.77649879033451L57.61813572425842,99.66157032284076L57.72260472412109,88.16761451478153L57.86189672393799,88.1986875149637L57.96636572380066,81.79751687573368L58.07083472366333,84.14057137140301L58.21012672348022,103.76313562597335L58.24494972343445,97.13012858097467L58.38424172325134,87.23150833888165L58.55835672302246,85.83835059671796L59.4358963218689,100.22523808219044L59.57518832168579,98.93646882442243L59.71448032150269,93.33129297662946L59.74930332145691,87.52283429080275L59.99306432113648,106.72723463993466L60.30647132072449,72.29805429430196L60.44576332054138,86.8042037557225L60.58505532035828,109.92917691702561L60.75917032012939,90.05957568092181L60.89846231994628,115.04648014161734L61.2118693195343,98.17990094075564L61.3511613193512,72.49418990028812L61.385984319305415,86.50277355367105L61.420807319259644,80.05706642086561L61.49045331916809,104.44346194774229L61.52527631912231,78.43260709982114L61.734214318847656,93.52801645018661L61.908329318618776,104.2061932920129L61.97797531852722,102.28984225176094L62.124231918334964,94.7276862004622L62.15905491828918,111.74003003859372L62.19387791824341,101.16985286767078L62.33316991806031,101.3480828230541L62.4724619178772,102.58583136373782L62.64657691764831,110.05845916202243L62.68139991760254,79.63337744427103L62.71622291755676,117.20024127942028L63.517151916503906,76.3638082962289L63.656443916320804,106.13994609637824L64.7777445148468,103.88616349042141L64.95185951461792,98.14929204655061L65.02150551452637,105.67429751939545L65.2304435142517,96.3389693318135L65.5090275138855,109.07063390004413L65.71796551361084,100.64680543146106L65.85725751342774,112.85425566845379L66.1010185131073,110.90132423709125L66.17066451301574,95.14510311628032L66.37960251274109,109.59158180921452L66.44924851264953,89.29405718198207L66.93677051200866,111.13327998439689L66.9715935119629,109.4312177239217L67.31982351150513,116.84919593838667L67.4242925113678,117.23986708975214L67.70984111099243,122.77441926799884L67.84913311080932,112.0538142997503L67.98842511062622,115.51902400740299L68.30183211021424,99.50486162462485L68.33665511016845,98.8418663460585L68.5455931098938,116.34256459359608L68.58041610984803,93.71664237945733L68.75453110961914,113.82869699806345L69.17240710906982,111.66717424030035L69.38134510879516,111.93325724712327L69.48581410865783,100.49851694168711L69.79922110824585,113.02856945340163L69.90369010810852,103.23828480653826L70.18227410774232,119.69810826888471L70.57229170722962,123.79063897566279L70.81605270690918,94.68020594897477L71.26875170631409,107.00256882590142L71.47768970603943,128.84523927271766L71.5821587059021,116.05008058676066L71.65180470581055,98.5003329675273L71.79109670562744,96.34903822148846L71.93038870544433,119.69904974100973L72.00003470535279,114.87946387065253L72.1741497051239,116.75457577979503L72.20897270507812,97.07613758563684L72.52237970466614,103.24210373572139L72.73131770439149,100.99917678957215L72.87060970420838,115.16454428213872L72.90543270416259,128.11286236060093L73.22580430374144,125.60936863867107L73.39991930351258,110.74328068168401L73.88744130287171,119.2910696467263L74.65354730186463,111.7936762694914L74.68837030181885,118.88359785898923L74.82766230163574,104.9824569493371L74.86248530158997,105.56510001306545L74.89730830154419,109.49329742343213L75.52412230072022,111.86590883975835L75.91413990020753,120.08831089421615L75.94896290016175,122.17047152989241L76.15790089988708,133.89268791766804L76.22754689979553,129.99941558709358L76.40166189956665,129.96390042970188L77.30705989837647,114.71018895059908L77.37670589828491,141.50464033028288L77.72493589782715,125.31817528845772L78.10798889732361,129.70163856209058L78.21245789718628,121.1075318205321L78.31692689704896,109.22756360110628L78.98552849617005,116.02625647993537L79.19446649589538,112.62729900553022L79.43822749557495,109.71644399728642L79.64716549530029,130.2332211282223L79.99539549484254,113.54949084223047L80.20433349456786,113.69784563285829L80.30880249443054,108.72198864992075L80.58738649406433,113.4863193886596L80.69185549392701,107.23702632542657L80.79632449378967,118.49499971432155L80.90079349365234,109.196910506332L80.93561649360656,108.27723810207895L81.53457209281922,117.56987295982316L82.05691709213257,129.45276725693327L82.57926209144593,137.64356148432103L82.6837310913086,119.92660311161816L82.71855409126282,136.03940569476114L82.78820009117128,112.48945511026984L82.82302309112549,124.64054520141298L83.5891290901184,144.26401998770987L83.76324408988954,110.51970094225108L83.83985468978882,124.71427617097748L83.97914668960571,136.04218812059537L84.04879268951417,115.28259958254625L84.18808468933106,133.02003165892532L84.32737668914795,111.77599604179174L84.46666868896484,133.88900380022113L85.33724368782043,107.99709931423482L85.37206668777466,120.87439149797058L85.75511968727112,127.84774734624459L86.03370368690491,114.42528092133296L86.06852668685913,131.43567109430367L86.1729956867218,109.92398335013884L86.24264168663025,123.82688786250401L86.5630132862091,136.2721548422848L86.80677428588866,124.96720950844878L87.32911928520203,134.72524763001644L87.36394228515624,125.1830718284908L87.46841128501892,129.20233125162457L88.30416328392029,130.8031697884623L88.3389862838745,129.09617032440198L88.40863228378296,141.1717349028691L88.89615428314208,119.8257860332178L88.93097728309631,126.25229464876986L89.24438428268434,114.35966959633953L89.4254638824463,123.50848906191781L89.56475588226319,127.85723278840544L89.8781628818512,123.62917429619566L90.12192388153076,125.46939427597289L90.15674688148498,122.60704939248004L90.3308618812561,126.80085686357866L90.6094458808899,116.05511945165506L90.92285288047792,139.45630418022452L90.95767588043213,131.76985833822565L91.09696788024903,126.43284292401029L91.27108288002015,134.65664392648483L91.37555187988282,131.72175485871182L91.54966687965393,134.25208274623282L91.6541358795166,131.74732930807937L91.7934278793335,129.12764554976428L92.04415347900391,112.82850441680924L92.32273747863769,131.8334850576598L92.56649847831726,135.33264080249583L92.81025947799682,132.24169499490333L93.12366647758483,128.62865206333996L93.26295847740172,131.94802641281203L93.29778147735595,130.78918914840878L93.33260447731018,127.34036238174829L93.40225047721863,126.26254918083566L93.5067194770813,118.44307288556766L93.75048047676087,135.39826538766005L94.06388747634888,119.08070587749886L94.41211747589111,108.14284185122001L94.551409475708,134.33660749480796L94.62105547561646,123.84154035121009L94.72552447547913,130.0480207430684L94.87178107528688,132.32049134970376L94.97625007514954,120.9967563538799L95.01107307510377,132.35262074349097L95.04589607505798,129.85048618906552L95.2200110748291,127.15081929066567L95.70753307418823,147.421978278341L96.02094007377625,132.32666616922788L96.22987807350158,128.90737422293967L96.47363907318115,141.4091052199078L96.50846207313538,123.38030299103838L96.8218690727234,106.367185642945L97.06563007240295,118.21749086034774L97.45564767189026,140.2504712781231L97.76905467147827,126.13756986125526L97.90834667129516,131.4658976535847L98.2565766708374,120.94022824586719L98.3958686706543,131.8643547352234L98.56998367042542,128.1362820322176L98.7092756702423,127.57685973754428L99.16197466964721,125.28795093920517L99.26644366950988,123.02609288924651L99.47538166923522,126.27193959177265L99.51020466918946,115.79027406077113L99.54502766914368,119.85442800209124L100.7011512676239,138.8382100499299L100.91008926734925,130.96041110353764L101.1538502670288,129.35096008578174L101.36278826675415,124.24820326852989L101.50208026657104,134.12998530376746L101.57172626647949,133.00210832809478L101.64137226638795,119.89192334498529L101.85031026611328,128.49892781265066L101.95477926597594,131.707027229038L102.0244252658844,132.60782820025014L102.12889426574706,141.766471242344L102.65123926506043,126.0929869570821L102.72088526496889,137.4665382044782L103.11090286445616,123.99821810902753L103.14572586441041,141.06633201540916L103.18054886436462,135.80858148202827L103.66807086372376,139.43834548893858L103.80736286354065,131.44547478056313L103.94665486335754,138.48809292085053L104.22523886299133,142.31848552161117L104.36453086280822,133.63427370960986L104.64311486244202,139.4090825020672L104.71276086235046,131.64163690689082L104.81722986221313,139.27888088523L104.9216988620758,126.98281292694968L105.02616786193848,127.95976042883575L105.2002828617096,133.36212638468598L105.83406146087647,147.06992626934272L106.25193746032716,135.6551126855383L106.28676046028137,134.85452766498477L106.39122946014405,132.60648450294497L106.42605246009826,134.3070770944926L106.49569846000671,134.1553188600326L106.56534445991517,146.06360527916212L106.70463645973206,132.77373945698372L106.84392845954895,139.03566946296507L107.01804345932007,131.67301047094386L107.08768945922851,138.45044287596411L107.61003445854186,139.1060301391243L107.74932645835877,142.997817330572L107.99308745803833,145.21570907429853L108.02791045799255,125.54761160331618L108.6268660572052,139.65025627808976L108.73133505706787,144.40486731165072L108.7661580570221,138.95304312883917L108.905450056839,148.22127816734363L108.97509605674743,140.30260142949552L109.14921105651855,137.38760040785616L109.46261805610658,141.7816364576534L109.60191005592347,140.0839721538185L109.67155605583191,139.96827716380886L109.74120205574036,115.90114234861875L109.88049405555726,134.80933258292754L110.22872405509949,144.27764260315246L110.29837005500794,137.866109140462L110.36801605491638,137.8026570132764L110.4028390548706,141.39567266691296L110.5421310546875,140.27125438578403L110.64660005455018,125.96347265909674L110.92518405418396,130.9440082722893L111.06447605400085,120.94159404345697L111.5241396533966,137.08291262385106L111.6634316532135,138.73623933667213L111.73307765312195,133.98241949330074L111.90719265289307,128.2297021453541L111.94201565284729,132.79795031878993L112.01166165275575,143.0294052673859L112.1161306526184,137.26093041650196L112.18577665252685,129.32666966295085L112.2554226524353,140.6716143019289L112.29024565238953,138.73537742557178L112.53400665206908,121.26114647890059L112.63847565193176,126.72208260906282L112.81259065170288,142.7145734527381L113.47422765083313,137.99006742689275L113.79459925041198,145.02852297857112L114.00353725013733,141.80485943673688L114.21247524986266,149.93762936684283L114.35176724967955,148.88839846403516L114.3865902496338,132.8594377306724L114.76964324913024,138.2348855398499L114.80446624908448,143.92096168953958L114.87411224899292,122.95317521015622L115.32681124839782,139.67625284289363L115.67504124794007,132.90628591401958L115.98844824752807,122.53354826587564L116.5525808467865,140.9576317654832L117.17939484596253,147.73561778263328L117.21421784591675,141.73967685726518L117.2838638458252,142.4132581721667L117.56244784545898,150.17138849737384L117.63209384536744,152.57901228961654L117.77138584518433,151.36676637237534L118.11961584472655,155.85845639733606L118.39819984436035,157.3207145469283L118.43302284431456,150.21218672780503L118.81607584381103,148.47391315097246L119.09465984344482,155.09206990971768L119.27573944320677,151.16789364613842L119.31056244316102,156.69537649584086L119.38020844306945,157.26972698027095L119.44985444297791,152.2234761707472L119.62396944274903,154.96978792987568L120.49454444160462,156.02792745741553L120.52936744155883,158.14708120701775L120.87759744110107,152.59702402158555L120.94724344100952,154.05935786465264L121.08653544082641,155.07947993007417L121.12135844078064,155.97175019142122L121.60888044013977,154.7709820569998L121.81781843986512,155.9294784245127L121.96407503967286,158.61923776531535L122.0337210395813,152.05567644469247L122.10336703948975,154.8084188341396L122.17301303939819,155.96453665851976L122.6257120388031,152.39505504547276L122.76500403861999,155.42406701543337L122.83465003852845,154.26524190618667L122.93911903839113,153.0277884043027L123.25252603797912,156.91881424094507L123.28734903793335,156.65432466464358L123.63557903747558,158.8449341595082L123.70522503738404,154.38246015831407L124.12310103683471,157.10965682876363L124.15792403678894,159.17832689819795L124.19274703674316,158.2511989629268L124.33203903656005,155.85135944343597L124.47133103637695,159.8496208336408L124.6802690361023,151.80856321717704L125.24440163536072,159.63799292813286L125.45333963508605,157.574476645073L125.48816263504028,157.9256877382413L125.76674663467408,150.08759747824823L125.97568463439941,156.1481535582803L126.18462263412476,157.9247611838084L126.35873763389587,156.50083376786904L127.02037463302612,155.9331343640967L127.15966663284303,159.0879389441119L127.22931263275146,155.29259021217334L127.40342763252258,156.13315906766965L127.54968423233032,157.63330152516534L128.00238323173522,155.99074870109874L128.2461442314148,158.5145614247124L128.76848923072814,157.26676554213125L129.18636523017884,154.4313520654819L129.2908342300415,158.5213053265656L129.49977222976685,158.7656195530333L129.77835622940063,155.38662471322243L129.81317922935486,156.39757295049628L129.8480022293091,155.627229959423L129.88282522926332,154.53071770768952L130.16837382888795,160.48663888515233L130.9693028278351,158.447970504603L131.0041258277893,160.16185752236657L131.03894882774352,158.84594193248708L131.2827098274231,160.99648361132733L131.66576282691955,160.44818770494828L131.735408826828,159.27366642105412L132.15328482627868,159.26516499406614L132.1881078262329,157.63247110697057L132.29257682609557,157.4003302697812L132.36222282600403,159.8006228451068L132.39704582595826,156.29309164490516L132.4666918258667,154.08024981621537L133.10047042503356,158.79726881813704L133.37905442466737,159.61684682329695L133.79693042411805,157.98207495693953L133.83175342407228,159.71026914646194L134.11033742370606,159.14643784500603L134.1451604236603,155.69596239711254L134.35409842338564,155.49507191488942L134.4585674232483,160.0404109332834L134.66750542297362,158.0886071689438L134.73715142288208,157.06893318679306L134.80679742279054,156.7544566342206L135.39878842201233,156.83026889808963L135.4684344219208,159.22819508543904L135.503257421875,152.69066513756832L135.53808042182922,155.94973112534265L135.8932750213623,159.80970164203057L136.52008902053834,159.1027544224171L137.11208001976013,160.8085289782021L137.35584101943968,158.41014531496094L137.3906640193939,158.1393516324703L137.4951330192566,158.78525620842936L138.05230101852416,160.13932407216336L138.19159301834105,155.25298815964746L138.3378496181488,157.77846669221472L138.40749561805725,154.30008410991155L138.47714161796569,158.55503257093116L138.54678761787414,158.3246713591612L138.61643361778258,159.43519242881106L138.7557256175995,152.04581529769297L138.7905486175537,155.7459200905064L139.17360161705017,160.82249359554925L139.27807061691286,159.5521366374091L139.55665461654664,160.11368000689924L139.6611236164093,156.20282026982053L139.6959466163635,156.41300889429232L139.9745306159973,155.54199081914737L140.49687561531067,158.10608241650357L140.63616761512756,157.16010293844766L140.70581361503602,157.21531552701813L141.200300214386,159.392186932453L141.6529992137909,156.56345437184564L142.45392821273802,161.18920693336744L142.9762732120514,160.2318038181891L143.0110962120056,158.36460823099912L143.22003421173096,160.16141938422388L143.2548572116852,157.73032232717432L143.4289722114563,153.4508276325293L143.60308721122743,154.57002030135874L143.7423792110443,159.96558599962998L143.78416681098938,160.13366639929947L144.34133481025694,159.5443667298422L144.7243878097534,157.3196537332663L144.968148809433,159.01045534621815L145.0029718093872,159.8436974048543L145.24673280906677,159.73064450387156L145.35120180892946,156.32291597900604L146.18695380783083,159.73844479932978L146.29142280769346,159.98879129848578L146.50732540740967,160.1975411944285L146.61179440727236,159.718374425848L146.64661740722656,160.47852476565242L146.716263407135,158.57669140237036L146.75108640708922,158.34930157386816L147.44754640617373,159.2821661905207L147.62166140594485,160.8823489014122L147.93506840553283,159.99649214266321L148.0047144054413,153.33366960367752L148.07436040534975,157.91016726085658L148.3181214050293,158.7450535806688L148.7708204044342,158.71184679800615L148.84046640434266,159.94913399524833L149.04940440406799,153.54815507598747L149.3001300037384,159.18577469411642L149.50906800346374,160.49922444473893L149.543891003418,159.60350432896198L149.7180060031891,160.8005137574759L149.8921210029602,158.45110100992008L150.13588200263976,160.27377446871964L150.55375800209046,157.89917623680566L150.69305000190735,161.47515588603937L151.14574900131225,158.11216551984649L151.21539500122068,157.74145866059663L151.28504100112917,157.266926874209L151.38951000099183,160.62003951818895L151.56362500076295,161.12387517697454L152.12775760002137,157.3798504885267L152.30187259979246,159.50675591296098L152.9286865989685,159.42701808603553L153.0679785987854,161.52605726158671L153.17244759864806,159.90944243656972L153.34656259841918,159.64143173242044L153.59032359809873,157.57897405299408L153.72961559791565,158.9853516329131L153.79926159782408,160.44212946442556L154.00819959754944,159.97697482880415L154.04302259750366,158.5169709082436L154.251960597229,161.16380044616304L154.49572159690857,157.96011887667214L154.6768011966705,159.75435921428794L154.7812701965332,160.6712370375502L154.99020819625855,160.32045910996058L155.37326119575502,159.75672560226414L155.44290719566345,160.9080736327152L155.7911371952057,160.1676400618386L155.89560619506835,159.72157288954028L155.96525219497678,160.75008367049819L156.1393671947479,160.3744788356684L156.6965351940155,160.07275027977454L156.76618119392396,160.99364924982424L156.97511919364928,160.05754473144572L157.1144111934662,159.00759722690907L157.18405719337463,160.6272983566739L157.64372079277038,161.55322845651838L158.06159679222105,159.32498493947372L158.23571179199217,157.5572019575962L158.65358779144287,159.2682308560507L158.6884107913971,160.52617739935994L158.89734879112243,158.27489544060836L158.93217179107666,159.71111337733458L159.41969379043582,159.97851742867093L159.55898579025268,161.16698841222015L159.6286317901611,157.06612479312437L159.6982777900696,159.1680353481554L159.80274678993226,157.95752430325723L159.90721578979492,161.11833574063337L160.47134838905336,159.0184573067736L160.8544013885498,160.63899272228298L160.889224388504,160.5819850380939L161.09816238822935,161.68861203759292L161.34192338790896,159.71813077021L162.17767538681028,160.05267769626425L162.38661338653563,160.17232753220745L162.4562593864441,160.4128134368711L163.1596839855194,161.860212460096L163.26415298538208,161.29192463624554L163.40344498519897,155.2786405125183L163.43826798515317,161.2701547508761L163.4730909851074,158.65769115554787L163.68202898483275,160.71463315643902L163.78649798469544,157.7226855738223L163.85614398460388,160.41361733472428L164.16955098419191,160.59552809251184L164.41331198387147,157.8876459658099L164.5874269836426,161.88358516860782L164.86601098327637,160.30119484436045L165.0053029830933,160.88799773416224L165.14459498291015,160.8832086024841L165.56943558235167,161.06835152689797L165.63908158226013,160.94279759991733L165.7435505821228,159.4372952708931L166.1614265815735,161.1839503806695L166.30071858139038,160.84624753397085L166.47483358116148,162.11349166702166L166.54447958106996,156.7377974396706L166.89270958061218,158.04350214554643L166.96235558052064,159.74668820549476L167.03200158042907,160.11165230578493L167.48470057983397,160.09596662877263L168.04186857910156,160.51272827115164L168.21598357887265,159.78443714915488L168.43188617858888,159.49540741680627L169.30246117744446,161.23048418746788L169.3372841773987,158.72035817012218L169.37210717735292,160.55467350635485L169.61586817703247,157.49953236988262L169.9640981765747,160.31519040210608L170.2426821762085,160.5690696317593L170.48644317588807,161.04565232456008L170.62573517570496,160.78563032079546L170.98092977523805,157.69718847545093L171.1898677749634,158.1258599612141L171.3988057746887,158.30576567067908L172.02561977386475,160.5244458420596L172.16491177368164,156.8593048045365L172.5479647731781,159.90396488102553L172.72207977294923,160.55163305969762L172.89619477272032,160.44734015903293L173.03548677253724,159.90171949210767L173.07030977249144,156.96712380561303L173.4533627719879,160.67278571499529L173.48818577194214,158.85602187230435L173.84338037147523,161.35133130633062L173.91302637138367,157.43019990946553L173.94784937133787,159.24401612669467L174.19161037101748,161.01548764607602L174.29607937088014,159.05060272326716L174.33090237083434,161.02545045438478L174.36572537078857,161.25898139947702L174.57466337051392,157.69261813659057L175.34076936950683,159.5082067966466L175.93276036872865,161.8902964725412L176.10687536849974,160.40241691047657L176.141698368454,159.97976940979493L176.21134436836243,161.2813253397396L176.46206996803284,160.46189209144399L178.4818039653778,161.19733928560217L178.96932596473695,158.69103274994674L179.00414896469115,159.5273926062363L179.35934356422425,161.8973564084645L179.39416656417848,161.2343456596989L179.4638125640869,161.73471820388383L179.53345856399534,160.76884073456617L179.63792756385803,157.74595164846082L179.67275056381226,158.7776144825133L179.7423965637207,157.7767218747436L180.54332556266783,160.30493089747623L180.71744056243898,160.68534254421186L180.8219095623016,161.4486394120397L180.9263785621643,161.31129111566204L181.10049356193542,160.41264713222927L181.48354656143187,161.05701408088558L181.7969535610199,160.231956310153L181.8735641609192,160.51934841141093L181.90838716087342,161.13537616509316L182.22179416046143,158.9780303611241L182.43073216018678,161.4374185450287L182.98790015945437,161.00328884147035L183.19683815917966,160.95067414135752L183.33613015899658,161.0096178104797L183.6495371585846,160.78836744104623L183.71918315849305,159.40213482306962L184.03259015808104,155.03272898797937L184.17188215789795,159.5648371184757L184.3808201576233,160.83461891670854L184.55493515739443,160.57787549016797L184.73601475715637,160.54230397705047L185.04942175674438,159.23619594098025L185.29318275642393,161.13770774512105L185.43247475624085,160.52422041915642L185.74588175582883,160.73738484695292L186.26822675514222,160.77011757851037L186.51198775482177,161.035621005369L186.61645675468444,161.68899271499558L186.6861027545929,158.02521968509075L186.72092575454712,161.3324002025212L186.86021775436402,161.02993957469914L186.89504075431825,161.55156541010038L187.52881935348512,161.55272180749336L187.56364235343932,161.36377321406712L187.63328835334778,158.8680112767132L187.8422263530731,161.9179848141331L187.9466953529358,160.00438415430264L188.88691635169982,159.79543314576983L189.09585435142517,161.58636396576313L189.23514635124207,160.90150542812478L189.33961535110473,160.7911156114393L189.6181993507385,159.9223462402549L189.68784535064697,157.54249477068566L190.2519779499054,159.72167731338513L190.28680094985964,161.62452728975995L190.94843794898986,160.41956894137368L190.9832609489441,160.45274423113074L191.08772994880675,161.4475023523958L191.3314909484863,161.4662356586578L191.4011369483948,160.43571706684176L191.67972094802857,161.02462998131807L191.749366947937,160.60372398306487L191.78418994789124,159.3015630578286L192.23688894729617,161.44156234839582L192.3065349472046,161.54701164645348L192.65476494674684,160.57899100203437L192.7592339466095,160.3505508575054L193.1144285461426,159.7732952906614L193.21889754600525,161.5029370488267L193.2885435459137,161.56866163777883L193.35818954582214,160.40772760887185L193.77606554527284,160.7706772682185L194.36805654449464,160.96679519397694L194.89040154380797,160.30217775451914L195.09933954353332,162.22476549509213L195.3431005432129,159.7144328400852L195.59382614288327,157.85744758439176L195.7331181427002,160.05978404278528L195.97687914237974,162.13161611044225L196.01170214233397,160.79292175720022L196.04652514228823,161.64279980508755L196.39475514183044,161.99344955102637L197.12603814086916,160.8433054335802L197.30015314064025,160.86753839567106L197.47426814041137,159.9445818891228L197.68320614013672,161.30656717982353L198.03143613967896,157.20454882085616L198.20555113945005,159.82964991143982L198.38663073921205,160.65781221965503L198.5259227390289,160.88796900379225L198.56074573898314,161.3205003042651L198.83932973861695,161.12648964064562L198.94379873847961,161.38294134342914L198.97862173843384,161.62595607316092L199.0482677383423,160.64653886446803L199.15273673820496,161.76529836771883L199.18755973815917,160.40796850197427L199.2223827381134,161.92954657803443L199.46614373779295,162.03829323855808L199.57061273765564,161.63854052773326L199.60543573760987,159.07882865428255L199.64025873756407,161.25107447014548L199.6750817375183,161.7467026357286L199.74472773742676,161.68277369490224L199.84919673728942,160.70727376165905L199.88401973724365,160.5725437965023L200.092957736969,161.0682636782666L200.30189573669432,157.70044163734767L200.37154173660278,159.90240239090258L200.47601073646544,160.50799107514237L201.14461233558654,160.8462663192128L201.214258335495,161.27453392227446L201.42319633522035,161.1931894046568L201.6669573348999,161.5973721175346L202.0848333343506,161.1812364657176L202.74647033348083,160.54748704630205L202.8161163333893,161.3804456687879L203.37328433265688,158.15393947784386L203.47775333251954,158.71431318977025L203.54739933242797,161.29091962580225L203.5822223323822,161.7618540383601L204.21600093154908,161.01871981270236L205.05175293045045,161.51586737285342L205.1562219303131,161.51235453261236L205.608920929718,161.7587544734415L205.8875049293518,161.0789491658826L206.1660889289856,161.9027566130125L206.20091192893983,161.39449426721663L206.3053809288025,161.65692962206225L206.37502692871095,161.17988392829858L206.38199152870177,162.1874259592047L206.8695135280609,160.58120821308933L207.1480975276947,160.6913173561601L207.91420352668763,161.33089848818096L208.12314152641298,161.31961850290858L208.2276105262756,159.80897564768065L208.4713715259552,161.87994580423725L208.92407052536012,161.46736995576615L208.99371652526855,160.77044521522993L209.02853952522278,161.11760974628345L209.24444212493896,161.61642753544504L209.87125612411498,161.10754251412985L210.42842412338257,161.05916001852262L210.67218512306215,162.30090760570917L210.84630012283327,161.26256661815026L210.88112312278747,159.67202349890488L211.09006112251282,160.66309695021587L211.54276012191772,161.3876354438834L211.61240612182618,160.82621859852273L211.8213441215515,159.87142000188737L211.89795472145082,160.83932848736202L212.69888372039793,161.6311325123271L212.87299872016908,161.96658776007942L213.32569771957398,161.02970696920346L213.46498971939087,161.63367349255182L214.0918037185669,161.34505703552568L214.37038771820067,161.23622584141333L214.5096797180176,161.43285925631065L215.14345831718447,161.33211510884954L215.2479273170471,160.4202164797132L215.28275031700133,161.4074190661722L215.3523963169098,160.82599925319784L215.42204231681825,161.6666902127667L215.45686531677245,161.8441477632024L215.59615731658937,159.39236925980114L215.63098031654357,159.00723367722702L216.01403331604004,160.75621815700285L216.2229713157654,161.20680317998554L216.36226331558225,160.4607539267858L217.16319231452943,161.80302244855875L217.58803291397095,160.78983047988837L217.86661691360473,160.66455059643707L218.14520091323854,160.19400293886014L218.52825391273498,160.00362169448312L218.5630769126892,161.2436730848247L219.08542191200257,160.8984555888466L219.18989091186526,160.61816044148873L219.57294391136168,161.00096610155632L219.6077669113159,160.73543725937037L219.7122359111786,162.01048334540076L220.276368510437,161.77209752028358L220.4156605102539,161.27643344173794L220.5549525100708,161.20770652911958L220.8683595096588,161.23996686709316L221.04247450942992,161.85206850521183L221.11212050933838,158.69391959962581L221.18176650924684,159.53357902840983L221.49517350883482,160.64106407145943L221.66928850860594,161.8854316473882L221.84340350837707,162.10938985419534L222.3309255077362,161.5638200179247L222.36574850769043,160.671661363015L222.4353945075989,160.94216829431264L222.60950950736998,160.4835028547641L222.89505810699464,161.76521051908745L223.10399610671996,160.98436381523922L223.5566951061249,159.36532569401317L223.87010210571287,157.4552367694096L224.11386310539248,160.07781511250337L224.25315510520934,159.8679314719594L224.4620931049347,160.13695602666584L224.67103110466005,160.8599497104381L224.84514610443117,162.31879005101314L224.94961510429383,162.03173718912421L225.0192611042023,161.68737386914682L225.40231410369873,161.21813123337697L225.51374770355224,159.64184279771445L225.82715470314028,161.03918799130741L226.10573870277406,160.74548681129627L226.27985370254518,161.87404281821404L226.45396870231627,160.3685548543748L226.69772970199585,160.28377595252647L226.87184470176695,161.5182122130521L226.94149070167543,160.97604084804962L227.01113670158387,161.0897208446086L227.04595970153807,160.19793402698772L227.3593667011261,159.89879009938068L227.39418970108034,157.89709604751536L227.42901270103454,161.2158604291318L227.6379507007599,161.05488969102603L228.0558267002106,159.03421204717534L228.20208330001833,161.29828399314624L228.4806672996521,161.6186198836798L228.55031329956054,160.85475061848015L228.89854329910278,160.40640711686552L228.96818929901121,161.47615150386173L229.4905342983246,159.54777238370286L229.87358729782105,160.32756379896026L229.9432332977295,160.42060489221547L230.08252529754637,161.06572104052054L230.15217129745486,160.4277001885942L230.50040129699707,160.8579192467882L230.60487029685976,159.80642085477805L230.88345429649354,156.64472927356672L231.76099389533996,161.17636887802905L232.00475489501952,161.67432475609024L232.1092238948822,160.645893536157L232.24851589469912,160.4079917072731L232.73603789405823,160.6156039910648L233.11909089355467,162.11137501226173L233.36285189323425,160.6415204423369L233.60661289291383,162.0200317733728L233.92698449249266,162.45365040784918L234.03145349235535,161.69574656197685L234.20556849212647,160.1427054157109L234.37968349189757,160.2391853132537L234.58862149162292,160.78813483555055L234.65826749153138,161.26152679975866L235.0064974910736,161.55842644346208L235.04132049102785,160.8850340859941L235.63331149024964,161.33067803784184L235.7377804901123,161.75330343823885L235.98154148979188,160.68491490370437L236.3297714893341,160.91595404170522L236.37155908927917,162.05906861111941L236.78943508872987,161.94567094569652L236.89390408859254,161.93844415262427L236.963550088501,161.44624429369352L237.20731108818055,161.24416150111492L237.55554108772276,161.3950622445315L237.83412508735657,160.02814527531677L237.90377108726503,161.75298464163313L237.97341708717346,161.4008409164537L238.07788608703615,160.98237976218707L238.14753208694458,161.50209171293983L238.4609390865326,160.663288670185L238.80916908607483,161.43337585046376L238.84399208602903,161.73371098341207L239.09471768569946,161.46792633043157L239.16436368560792,159.90615501923182L239.30365568542481,162.0201024942836L239.33847868537904,160.7897398687214L240.0001156845093,159.47753602164462L240.17423068428042,158.76980120313783L240.24387668418885,161.65878715098495L240.27869968414308,161.36329308538365L240.3831686840057,160.9574031255186L240.69657568359375,159.9974435599163L241.32338968276977,160.95268195221567L241.671619682312,161.65012383941212L241.99199128189088,161.13381201744886L242.166106281662,160.95403393712758L242.30539828147886,160.37064443628606L242.34022128143312,160.9352448276469L242.47951328124998,158.2100819358899L242.68845128097533,161.43283328847622L242.72327428092956,161.46645666150405L242.7580972808838,160.88980995750146L242.86256628074645,161.61310973021577L242.96703528060914,161.44293035601407L243.45455727996827,161.9636594723667L243.6286722797394,161.43689587329735L243.73314127960205,158.6160409591444L244.32513227882387,161.9390077098822L244.35995527877807,161.72237850996368L244.499247278595,162.33247123220997L244.6455038784027,162.40595136354398L244.8892648780823,162.35445770036873L245.2026718776703,161.03733101489183L245.27231787757873,157.93835672640233L245.62054787712097,158.06437641688143L245.82948587684632,161.24946667443905L245.89913187675475,160.24459933047962L246.1080698764801,160.66208751971567L246.17771587638853,160.95934076797306L246.247361876297,160.41007079154917L246.49112287597657,161.2856603105687L246.6652378757477,159.70961111048723L246.73488387565612,161.67066605397065L246.80452987556455,161.0796005717719L246.8393528755188,161.22397399612458L247.08311387519836,161.28633105420704L247.33383947486877,161.66532275765556L247.57760047454835,161.66628909260075L247.71689247436524,162.09206212603544L247.89100747413636,161.50968316070836L247.99547647399902,161.9937865803669L248.5526444732666,161.45785246819258L248.90087447280882,161.51146996872026L248.93569747276305,161.99649110269783L249.0053434726715,160.6674501537798L249.21428147239686,161.23149472298235L249.2491044723511,159.58641252134046L249.4232194721222,161.17448206622922L249.66698047180176,161.03133355015183L249.84109547157288,161.18211274200297L249.94556447143555,161.55300690116502L250.05699807128906,162.05879898764698L250.2659360710144,160.63707883763448L250.7186350704193,160.63730370803054L250.9623960700989,161.3678380089167L251.38027206954956,161.3578774106364L251.6240330692291,161.39375998525998L252.3204930683136,161.26015602960484L252.42496206817628,161.18189615921364L252.56425406799315,160.67774115131525L252.59907706794738,161.17716283075418L252.81497966766358,161.3903217334795L253.40697066688537,161.17481633303416L253.79002366638184,161.89867690047083L254.1730766658783,161.54058046362775L254.41683766555786,160.5285791477915L254.62577566528321,160.44788493104892L255.4336692642212,160.45080437864783L256.2345982631683,160.51809919282255L256.54800526275636,162.17585425017526L257.0703502620697,159.20380852637007L257.1051732620239,160.72317933650336L257.3489342617035,162.20023196913039L257.48822626152037,161.82062753529067L257.592695261383,160.33485247282943" fill="none"></path></g></g></g></g></g></g><g transform="translate(51, 177)" clip-path="url(#clip_1)"><clipPath id="clip_1"><rect width="278" height="22"></rect></clipPath><g><g><line x1="0" y1="0" x2="0" y2="5" style="visibility: inherit;" fill="rgb(0, 0, 0)" stroke="rgb(204, 204, 204)" stroke-width="1px"></line><line x1="34.82299995422363" y1="0" x2="34.82299995422363" y2="5" style="visibility: inherit;" fill="rgb(0, 0, 0)" stroke="rgb(204, 204, 204)" stroke-width="1px"></line><line x1="69.64599990844727" y1="0" x2="69.64599990844727" y2="5" style="visibility: inherit;" fill="rgb(0, 0, 0)" stroke="rgb(204, 204, 204)" stroke-width="1px"></line><line x1="104.4689998626709" y1="0" x2="104.4689998626709" y2="5" style="visibility: inherit;" fill="rgb(0, 0, 0)" stroke="rgb(204, 204, 204)" stroke-width="1px"></line><line x1="139.29199981689453" y1="0" x2="139.29199981689453" y2="5" style="visibility: inherit;" fill="rgb(0, 0, 0)" stroke="rgb(204, 204, 204)" stroke-width="1px"></line><line x1="174.11499977111816" y1="0" x2="174.11499977111816" y2="5" style="visibility: inherit;" fill="rgb(0, 0, 0)" stroke="rgb(204, 204, 204)" stroke-width="1px"></line><line x1="208.9379997253418" y1="0" x2="208.9379997253418" y2="5" style="visibility: inherit;" fill="rgb(0, 0, 0)" stroke="rgb(204, 204, 204)" stroke-width="1px"></line><line x1="243.76099967956543" y1="0" x2="243.76099967956543" y2="5" style="visibility: inherit;" fill="rgb(0, 0, 0)" stroke="rgb(204, 204, 204)" stroke-width="1px"></line><line x1="278.58399963378906" y1="0" x2="278.58399963378906" y2="5" style="visibility: inherit;" fill="rgb(0, 0, 0)" stroke="rgb(204, 204, 204)" stroke-width="1px"></line></g><g transform="translate(0, 8)"><text style="text-anchor: middle; visibility: hidden; font-family: &quot;Helvetica Neue&quot;, sans-serif; font-size: 12px; font-weight: 200;" x="0" y="0" dx="0em" dy="0.95em" fill="rgb(50, 49, 63)" stroke="none" stroke-width="1px">-10k</text><text style="text-anchor: middle; visibility: inherit; font-family: &quot;Helvetica Neue&quot;, sans-serif; font-size: 12px; font-weight: 200;" x="34.82299995422363" y="0" dx="0em" dy="0.95em" fill="rgb(50, 49, 63)" stroke="none" stroke-width="1px">0</text><text style="text-anchor: middle; visibility: inherit; font-family: &quot;Helvetica Neue&quot;, sans-serif; font-size: 12px; font-weight: 200;" x="69.64599990844727" y="0" dx="0em" dy="0.95em" fill="rgb(50, 49, 63)" stroke="none" stroke-width="1px">10k</text><text style="text-anchor: middle; visibility: inherit; font-family: &quot;Helvetica Neue&quot;, sans-serif; font-size: 12px; font-weight: 200;" x="104.4689998626709" y="0" dx="0em" dy="0.95em" fill="rgb(50, 49, 63)" stroke="none" stroke-width="1px">20k</text><text style="text-anchor: middle; visibility: inherit; font-family: &quot;Helvetica Neue&quot;, sans-serif; font-size: 12px; font-weight: 200;" x="139.29199981689453" y="0" dx="0em" dy="0.95em" fill="rgb(50, 49, 63)" stroke="none" stroke-width="1px">30k</text><text style="text-anchor: middle; visibility: inherit; font-family: &quot;Helvetica Neue&quot;, sans-serif; font-size: 12px; font-weight: 200;" x="174.11499977111816" y="0" dx="0em" dy="0.95em" fill="rgb(50, 49, 63)" stroke="none" stroke-width="1px">40k</text><text style="text-anchor: middle; visibility: inherit; font-family: &quot;Helvetica Neue&quot;, sans-serif; font-size: 12px; font-weight: 200;" x="208.9379997253418" y="0" dx="0em" dy="0.95em" fill="rgb(50, 49, 63)" stroke="none" stroke-width="1px">50k</text><text style="text-anchor: middle; visibility: inherit; font-family: &quot;Helvetica Neue&quot;, sans-serif; font-size: 12px; font-weight: 200;" x="243.76099967956543" y="0" dx="0em" dy="0.95em" fill="rgb(50, 49, 63)" stroke="none" stroke-width="1px">60k</text><text style="text-anchor: middle; visibility: hidden; font-family: &quot;Helvetica Neue&quot;, sans-serif; font-size: 12px; font-weight: 200;" x="278.58399963378906" y="0" dx="0em" dy="0.95em" fill="rgb(50, 49, 63)" stroke="none" stroke-width="1px">70k</text></g><line x1="0" y1="0" x2="278.58399963378906" y2="0" fill="rgb(0, 0, 0)" stroke="rgb(204, 204, 204)" stroke-width="1px"></line></g></g></g></g></svg>