<svg viewBox="0 0 330 200" xmlns="http://www.w3.org/2000/svg"><g><g><g><g><g><line x1="51.41600036621094" y1="177.9749994277954" x2="46.41600036621094" y2="177.9749994277954" style="visibility: inherit;" fill="rgb(0, 0, 0)" stroke="rgb(204, 204, 204)" stroke-width="1px"></line><line x1="51.41600036621094" y1="163.14374947547913" x2="46.41600036621094" y2="163.14374947547913" style="visibility: inherit;" fill="rgb(0, 0, 0)" stroke="rgb(204, 204, 204)" stroke-width="1px"></line><line x1="51.41600036621094" y1="148.31249952316284" x2="46.41600036621094" y2="148.31249952316284" style="visibility: inherit;" fill="rgb(0, 0, 0)" stroke="rgb(204, 204, 204)" stroke-width="1px"></line><line x1="51.41600036621094" y1="133.48124957084656" x2="46.41600036621094" y2="133.48124957084656" style="visibility: inherit;" fill="rgb(0, 0, 0)" stroke="rgb(204, 204, 204)" stroke-width="1px"></line><line x1="51.41600036621094" y1="118.64999961853027" x2="46.41600036621094" y2="118.64999961853027" style="visibility: inherit;" fill="rgb(0, 0, 0)" stroke="rgb(204, 204, 204)" stroke-width="1px"></line><line x1="51.41600036621094" y1="103.81874966621399" x2="46.41600036621094" y2="103.81874966621399" style="visibility: inherit;" fill="rgb(0, 0, 0)" stroke="rgb(204, 204, 204)" stroke-width="1px"></line><line x1="51.41600036621094" y1="88.98749971389772" x2="46.41600036621094" y2="88.98749971389772" style="visibility: inherit;" fill="rgb(0, 0, 0)" stroke="rgb(204, 204, 204)" stroke-width="1px"></line><line x1="51.41600036621094" y1="74.15624976158144" x2="46.41600036621094" y2="74.15624976158144" style="visibility: inherit;" fill="rgb(0, 0, 0)" stroke="rgb(204, 204, 204)" stroke-width="1px"></line><line x1="51.41600036621094" y1="59.324999809265165" x2="46.41600036621094" y2="59.324999809265165" style="visibility: inherit;" fill="rgb(0, 0, 0)" stroke="rgb(204, 204, 204)" stroke-width="1px"></line><line x1="51.41600036621094" y1="44.49374985694888" x2="46.41600036621094" y2="44.49374985694888" style="visibility: inherit;" fill="rgb(0, 0, 0)" stroke="rgb(204, 204, 204)" stroke-width="1px"></line><line x1="51.41600036621094" y1="29.66249990463257" x2="46.41600036621094" y2="29.66249990463257" style="visibility: inherit;" fill="rgb(0, 0, 0)" stroke="rgb(204, 204, 204)" stroke-width="1px"></line><line x1="51.41600036621094" y1="14.831249952316284" x2="46.41600036621094" y2="14.831249952316284" style="visibility: inherit;" fill="rgb(0, 0, 0)" stroke="rgb(204, 204, 204)" stroke-width="1px"></line><line x1="51.41600036621094" y1="0" x2="46.41600036621094" y2="0" style="visibility: inherit;" fill="rgb(0, 0, 0)" stroke="rgb(204, 204, 204)" stroke-width="1px"></line></g><g transform="translate(41.41600036621094, 0)"><text style="text-anchor: end; visibility: hidden; font-family: &quot;Helvetica Neue&quot;, sans-serif; font-size: 12px; font-weight: 200;" x="0" y="177.9749994277954" dx="0em" dy="0.3em" fill="rgb(50, 49, 63)" stroke="none" stroke-width="1px">-0.1</text><text style="text-anchor: end; visibility: inherit; font-family: &quot;Helvetica Neue&quot;, sans-serif; font-size: 12px; font-weight: 200;" x="0" y="163.14374947547913" dx="0em" dy="0.3em" fill="rgb(50, 49, 63)" stroke="none" stroke-width="1px">0</text><text style="text-anchor: end; visibility: hidden; font-family: &quot;Helvetica Neue&quot;, sans-serif; font-size: 12px; font-weight: 200;" x="0" y="148.31249952316284" dx="0em" dy="0.3em" fill="rgb(50, 49, 63)" stroke="none" stroke-width="1px">0.1</text><text style="text-anchor: end; visibility: inherit; font-family: &quot;Helvetica Neue&quot;, sans-serif; font-size: 12px; font-weight: 200;" x="0" y="133.48124957084656" dx="0em" dy="0.3em" fill="rgb(50, 49, 63)" stroke="none" stroke-width="1px">0.2</text><text style="text-anchor: end; visibility: hidden; font-family: &quot;Helvetica Neue&quot;, sans-serif; font-size: 12px; font-weight: 200;" x="0" y="118.64999961853027" dx="0em" dy="0.3em" fill="rgb(50, 49, 63)" stroke="none" stroke-width="1px">0.3</text><text style="text-anchor: end; visibility: inherit; font-family: &quot;Helvetica Neue&quot;, sans-serif; font-size: 12px; font-weight: 200;" x="0" y="103.81874966621399" dx="0em" dy="0.3em" fill="rgb(50, 49, 63)" stroke="none" stroke-width="1px">0.4</text><text style="text-anchor: end; visibility: hidden; font-family: &quot;Helvetica Neue&quot;, sans-serif; font-size: 12px; font-weight: 200;" x="0" y="88.98749971389772" dx="0em" dy="0.3em" fill="rgb(50, 49, 63)" stroke="none" stroke-width="1px">0.5</text><text style="text-anchor: end; visibility: inherit; font-family: &quot;Helvetica Neue&quot;, sans-serif; font-size: 12px; font-weight: 200;" x="0" y="74.15624976158144" dx="0em" dy="0.3em" fill="rgb(50, 49, 63)" stroke="none" stroke-width="1px">0.6</text><text style="text-anchor: end; visibility: hidden; font-family: &quot;Helvetica Neue&quot;, sans-serif; font-size: 12px; font-weight: 200;" x="0" y="59.324999809265165" dx="0em" dy="0.3em" fill="rgb(50, 49, 63)" stroke="none" stroke-width="1px">0.7</text><text style="text-anchor: end; visibility: inherit; font-family: &quot;Helvetica Neue&quot;, sans-serif; font-size: 12px; font-weight: 200;" x="0" y="44.49374985694888" dx="0em" dy="0.3em" fill="rgb(50, 49, 63)" stroke="none" stroke-width="1px">0.8</text><text style="text-anchor: end; visibility: hidden; font-family: &quot;Helvetica Neue&quot;, sans-serif; font-size: 12px; font-weight: 200;" x="0" y="29.66249990463257" dx="0em" dy="0.3em" fill="rgb(50, 49, 63)" stroke="none" stroke-width="1px">0.9</text><text style="text-anchor: end; visibility: inherit; font-family: &quot;Helvetica Neue&quot;, sans-serif; font-size: 12px; font-weight: 200;" x="0" y="14.831249952316284" dx="0em" dy="0.3em" fill="rgb(50, 49, 63)" stroke="none" stroke-width="1px">1</text><text style="text-anchor: end; visibility: hidden; font-family: &quot;Helvetica Neue&quot;, sans-serif; font-size: 12px; font-weight: 200;" x="0" y="0" dx="0em" dy="0.3em" fill="rgb(50, 49, 63)" stroke="none" stroke-width="1px">1.1</text></g><line x1="51.41600036621094" y1="0" x2="51.41600036621094" y2="177.9749994277954" fill="rgb(0, 0, 0)" stroke="rgb(204, 204, 204)" stroke-width="1px"></line></g></g><g transform="translate(51, 0)" clip-path="url(#clip_0)"><clipPath id="clip_0"><rect width="278" height="177"></rect></clipPath><g><g><g><line x1="0" y1="0" x2="0" y2="177.9749994277954" fill="rgb(0, 0, 0)" stroke="rgb(60, 60, 60)" stroke-width="1px" opacity="0.25"></line><line x1="34.82299995422363" y1="0" x2="34.82299995422363" y2="177.9749994277954" fill="rgb(0, 0, 0)" stroke="rgb(60, 60, 60)" stroke-width="1px" opacity="0.25"></line><line x1="69.64599990844727" y1="0" x2="69.64599990844727" y2="177.9749994277954" fill="rgb(0, 0, 0)" stroke="rgb(60, 60, 60)" stroke-width="1px" opacity="0.25"></line><line x1="104.4689998626709" y1="0" x2="104.4689998626709" y2="177.9749994277954" fill="rgb(0, 0, 0)" stroke="rgb(60, 60, 60)" stroke-width="1px" opacity="0.25"></line><line x1="139.29199981689453" y1="0" x2="139.29199981689453" y2="177.9749994277954" fill="rgb(0, 0, 0)" stroke="rgb(60, 60, 60)" stroke-width="1px" opacity="0.25"></line><line x1="174.11499977111816" y1="0" x2="174.11499977111816" y2="177.9749994277954" fill="rgb(0, 0, 0)" stroke="rgb(60, 60, 60)" stroke-width="1px" opacity="0.25"></line><line x1="208.9379997253418" y1="0" x2="208.9379997253418" y2="177.9749994277954" fill="rgb(0, 0, 0)" stroke="rgb(60, 60, 60)" stroke-width="1px" opacity="0.25"></line><line x1="243.76099967956543" y1="0" x2="243.76099967956543" y2="177.9749994277954" fill="rgb(0, 0, 0)" stroke="rgb(60, 60, 60)" stroke-width="1px" opacity="0.25"></line><line x1="278.58399963378906" y1="0" x2="278.58399963378906" y2="177.9749994277954" fill="rgb(0, 0, 0)" stroke="rgb(60, 60, 60)" stroke-width="1px" opacity="0.25"></line></g><g><line x1="0" y1="177.9749994277954" x2="278.58399963378906" y2="177.9749994277954" fill="rgb(0, 0, 0)" stroke="rgb(60, 60, 60)" stroke-width="1px" opacity="0.25"></line><line x1="0" y1="163.14374947547913" x2="278.58399963378906" y2="163.14374947547913" fill="rgb(0, 0, 0)" stroke="rgb(60, 60, 60)" stroke-width="1px" opacity="0.25"></line><line x1="0" y1="148.31249952316284" x2="278.58399963378906" y2="148.31249952316284" fill="rgb(0, 0, 0)" stroke="rgb(60, 60, 60)" stroke-width="1px" opacity="0.25"></line><line x1="0" y1="133.48124957084656" x2="278.58399963378906" y2="133.48124957084656" fill="rgb(0, 0, 0)" stroke="rgb(60, 60, 60)" stroke-width="1px" opacity="0.25"></line><line x1="0" y1="118.64999961853027" x2="278.58399963378906" y2="118.64999961853027" fill="rgb(0, 0, 0)" stroke="rgb(60, 60, 60)" stroke-width="1px" opacity="0.25"></line><line x1="0" y1="103.81874966621399" x2="278.58399963378906" y2="103.81874966621399" fill="rgb(0, 0, 0)" stroke="rgb(60, 60, 60)" stroke-width="1px" opacity="0.25"></line><line x1="0" y1="88.98749971389772" x2="278.58399963378906" y2="88.98749971389772" fill="rgb(0, 0, 0)" stroke="rgb(60, 60, 60)" stroke-width="1px" opacity="0.25"></line><line x1="0" y1="74.15624976158144" x2="278.58399963378906" y2="74.15624976158144" fill="rgb(0, 0, 0)" stroke="rgb(60, 60, 60)" stroke-width="1px" opacity="0.25"></line><line x1="0" y1="59.324999809265165" x2="278.58399963378906" y2="59.324999809265165" fill="rgb(0, 0, 0)" stroke="rgb(60, 60, 60)" stroke-width="1px" opacity="0.25"></line><line x1="0" y1="44.49374985694888" x2="278.58399963378906" y2="44.49374985694888" fill="rgb(0, 0, 0)" stroke="rgb(60, 60, 60)" stroke-width="1px" opacity="0.25"></line><line x1="0" y1="29.66249990463257" x2="278.58399963378906" y2="29.66249990463257" fill="rgb(0, 0, 0)" stroke="rgb(60, 60, 60)" stroke-width="1px" opacity="0.25"></line><line x1="0" y1="14.831249952316284" x2="278.58399963378906" y2="14.831249952316284" fill="rgb(0, 0, 0)" stroke="rgb(60, 60, 60)" stroke-width="1px" opacity="0.25"></line><line x1="0" y1="0" x2="278.58399963378906" y2="0" fill="rgb(0, 0, 0)" stroke="rgb(60, 60, 60)" stroke-width="1px" opacity="0.25"></line></g></g></g><g><g><line x1="0" y1="163.14374947547913" x2="278.58399963378906" y2="163.14374947547913" fill="rgb(0, 0, 0)" stroke="rgb(153, 153, 153)" stroke-width="1.5px"></line></g></g><g><g><line x1="34.82299995422363" y1="0" x2="34.82299995422363" y2="177.9749994277954" fill="rgb(0, 0, 0)" stroke="rgb(153, 153, 153)" stroke-width="1.5px"></line></g></g><g><g><g><g><g><path style="fill: none;" stroke="rgb(51, 187, 238)" stroke-width="2px" d="M34.82299995422363,161.51824453471835L35.51945995330811,141.22316226519047L36.21591995239258,132.8583371364981L36.91237995147705,125.62068840445579L37.608839950561524,122.06712175887407L38.305299949646,116.96516939198257L39.001759948730474,115.46424624193253L39.69821994781494,112.04119503722967L40.39467994689941,109.76311537835659L41.09113994598388,107.53545972888293L41.78759994506836,105.89512356336417L42.48405994415283,105.2959406466228L43.18051994323731,102.70937195478918L43.876979942321775,102.64114837615313L44.57343994140625,102.16654918389739L45.269899940490724,98.79392198859395L45.9663599395752,97.43834799046279L46.66281993865967,95.22552163197221L47.35927993774414,95.1009423275435L48.05573993682861,94.05681880051257L48.75219993591308,96.99340738017322L49.44865993499756,93.32712486294926L50.14511993408203,92.57369521969916L50.8415799331665,95.27595006142856L51.538039932250975,91.45542081769587L52.23449993133545,91.81433386005583L52.930959930419924,91.43762124845924L53.6274199295044,93.41314359076502L54.323879928588866,92.52623706849636L55.02033992767334,89.5896484888357L55.716799926757815,88.75316597596647L56.41325992584229,90.07017939748468L57.10971992492676,88.84215056197885L57.806179924011225,89.17437530062617L58.5026399230957,90.84140418991448L59.199099922180174,89.92483466562273L59.89555992126465,90.20662655475678L60.592019920349124,89.91890294922949L61.28847991943359,92.51436921565296L61.984939918518066,91.63932612617077L62.68139991760254,87.06536723918799L63.377859916687015,88.54255910360816L64.07431991577148,88.11542248261215L64.77077991485596,88.21924077966455L65.46723991394043,86.67679119480493L66.1636999130249,85.69199367182019L66.86015991210937,89.77355379731061L67.55661991119385,87.77430016937497L68.25307991027832,84.30972694991947L68.9495399093628,87.82769445702795L69.64599990844727,86.18439685336948L70.34245990753173,87.53107327691079L71.03891990661621,93.7720610531819L71.73537990570068,88.98749971389772L72.43183990478516,86.99417780235531L73.12829990386963,91.16176107571842L73.8247599029541,86.81917006847026L74.52121990203858,90.45579400372804L75.21767990112305,92.51733507384958L75.91413990020753,90.83250661532463L76.610599899292,89.02902614870729L77.30705989837647,91.74017856502654L78.00351989746095,85.94709283718468L78.6999798965454,88.7086736829603L79.39643989562988,87.37979240859869L80.09289989471435,85.58521393662812L80.78935989379882,83.96563435842874L81.4858198928833,87.53107327691079L82.18227989196777,85.88183511674525L82.87873989105225,89.01123099952758L83.57519989013672,89.04089400155068L84.27165988922118,85.65047165706754L84.96811988830567,90.71088874903562L85.66457988739013,86.43652574048043L86.36103988647461,85.3746070642698L87.05749988555908,84.73983384916902L87.75395988464355,88.4090822245896L88.45041988372803,84.35124896467212L89.1468798828125,84.54702212599042L89.84333988189698,86.58780660879255L90.53979988098145,90.53291515695395L91.23625988006592,89.72312978791119L91.9327198791504,89.52142491019966L92.62917987823486,85.03645502928617L93.32563987731935,91.20032165233137L94.02209987640381,84.98009930349352L94.71855987548828,84.29489323887947L95.41501987457276,83.0016111029911L96.11147987365722,85.34494848230362L96.8079398727417,84.85847701714758L97.50439987182617,83.61561889065864L98.20085987091063,86.2526160119486L98.89731986999512,84.56185583703042L99.59377986907958,80.6167428688121L100.29023986816406,88.02346761834625L100.98669986724853,83.23594484092236L101.683159866333,84.18810466357353L102.37961986541748,84.6686355722225L103.07607986450195,80.42987170214059L103.77253986358643,82.07910102219226L104.4689998626709,85.32714449301008L105.16545986175537,90.50621801312747L105.86191986083985,84.12284694313409L106.55837985992432,84.21184036926032L107.2548398590088,84.53515869320394L107.95129985809326,84.60931840829016L108.64775985717773,82.81176965806605L109.34421985626221,81.16550177615404L110.04067985534668,84.48176440555098L110.73713985443116,87.6853155833626L111.43359985351563,82.34903389859677L112.1300598526001,81.66086639584304L112.82651985168458,83.05796682878376L113.52297985076903,85.74538795947315L114.21943984985352,81.4769566673112L114.91589984893798,91.17956064495505L115.61235984802245,84.49362783833745L116.30881984710693,83.56816515951276L117.0052798461914,82.31343476012351L117.70173984527588,80.00569651928426L118.39819984436035,81.80324526950837L119.09465984344482,82.54183678166153L119.7911198425293,82.13546558809877L120.48757984161377,80.06205224507691L121.18403984069825,82.14435874263171L121.88049983978271,84.90593958840729L122.57695983886718,80.6345380179918L123.27341983795166,76.99198678639772L123.96987983703613,84.05165750630142L124.66633983612061,84.62711355746987L125.36279983520508,83.85885462323667L126.05925983428955,83.65714974552513L126.75571983337403,79.73576364287975L127.4521798324585,74.96306573638203L128.14863983154297,79.61415019664766L128.84509983062745,81.16846321429375L129.54155982971193,80.29045426661494L130.23801982879638,82.41132134078266L130.93447982788086,79.43617218450906L131.63093982696532,81.12397092128755L132.3273998260498,77.26191082268838L133.02385982513428,79.047596140126L133.72031982421873,77.4636157003999L134.41677982330322,79.8010213633192L135.1132398223877,76.55890960889462L135.80969982147215,80.4832571496797L136.50615982055663,81.25448636216642L137.20261981964111,81.42356237965825L137.8990798187256,74.37278481428746L138.59553981781005,79.62601362943414L139.29199981689453,73.6875787496734L139.98845981597898,81.15362950325373L140.68491981506347,77.37463111438753L141.38137981414795,77.74244173133734L142.07783981323243,77.21445709154249L142.77429981231688,87.18698952553393L143.47075981140136,78.64121610644939L144.16721981048582,81.11803920489432L144.86367980957033,74.31345881024126L145.56013980865478,75.83514296766762L146.25659980773926,78.21704976370692L146.95305980682372,72.87779780068756L147.6495198059082,80.27562055557492L148.34597980499268,79.53109732702853L149.04243980407716,77.20258481864218L149.73889980316162,74.45880796216012L150.4353598022461,73.30493442168357L151.13181980133055,74.07023191777706L151.82827980041506,77.52887342083933L152.5247397994995,78.27933720589283L153.221199798584,71.91376570513609L153.91765979766845,76.02498441259267L154.61411979675293,74.40245223636747L155.3105797958374,69.19371571422697L156.0070397949219,75.45546891793133L156.70349979400635,72.36166775356534L157.3999597930908,70.96752875876429L158.09641979217528,71.12474134346964L158.79287979125976,70.34164869819644L159.48933979034425,70.61158157460095L160.1857997894287,68.31273648829462L160.88225978851318,71.11583934882286L161.57871978759763,70.93193846040488L162.27517978668214,67.82330358499887L162.9716397857666,72.8095698019946L163.66809978485108,71.40356737440709L164.36455978393553,70.62641528564097L165.06101978302001,69.81662549654128L165.7574797821045,66.64570317894938L166.45393978118898,69.58526203686357L167.15039978027343,66.17703570308687L167.8468597793579,71.69129539999129L168.54331977844237,68.16145561998252L169.23977977752688,69.31532916045907L169.93623977661133,64.90451899463179L170.6326997756958,68.05763732293012L171.32915977478027,65.03799587365035L172.02561977386475,64.0324417633462L172.72207977294923,69.57042832582357L173.4185397720337,63.85149347295406L174.11499977111816,62.79254507499698L174.81145977020262,64.5011092392087L175.5079197692871,64.78882842467907L176.20437976837158,64.02353976869944L176.90083976745606,69.62975432986977L177.59729976654052,60.351321115025314L178.293759765625,62.52855275509954L178.99021976470945,61.47256579528214L179.68667976379396,61.05432232881907L180.38313976287841,60.82592030728104L181.0795997619629,58.316477188730246L181.77605976104735,60.689473150008936L182.47251976013183,59.50297074931267L183.1689797592163,55.952374381984484L183.8654397583008,58.53300693736796L184.56189975738525,58.716916665899774L185.25835975646973,64.27863893406393L185.95481975555418,57.067687345848086L186.6512797546387,56.774027603870636L187.34773975372315,54.982410570039775L188.04419975280763,54.62942482401613L188.74065975189208,56.01170038603068L189.43711975097656,54.457387368384616L190.13357975006105,52.06065570141912L190.83003974914553,55.080297150698925L191.52649974822998,50.533030987485674L192.22295974731443,54.223053630453364L192.91941974639892,52.82891463565231L193.6158797454834,50.1889472361088L194.31233974456788,52.087352845245604L195.00879974365233,47.80408784204366L195.7052597427368,47.55195011481882L196.40171974182127,48.57827849267008L197.09817974090578,45.97687166973952L197.79463973999023,45.11962814949396L198.4910997390747,46.7688663096595L199.18755973815917,44.363232648047244L199.88401973724365,44.67765781745794L200.58047973632813,44.01618745853068L201.2769397354126,39.39180014209154L201.97339973449706,40.34693024299625L202.66985973358155,43.05215536297919L203.366319732666,39.9761493477929L204.0627797317505,39.09814040011409L204.75923973083496,38.87567009496931L205.45569972991944,35.93908151530866L206.1521597290039,36.499703855437076L206.84861972808838,36.695477016755376L207.54507972717286,33.58981241960291L208.24153972625734,33.72922985512855L208.9379997253418,32.780031470617075L209.63445972442625,32.89867463859562L210.33091972351073,34.37587534312965L211.0273797225952,28.781524214745758L211.7238397216797,29.772253454123756L212.42029972076415,30.232018935339482L213.11675971984863,27.114490905400515L213.81321971893308,26.369958836740267L214.5096797180176,26.722944582763915L215.20613971710205,25.770775919998897L215.90259971618653,23.700341695344434L216.59905971527098,22.540536438474646L217.29551971435546,22.676983595746748L217.99197971343995,23.4393108135867L218.68843971252443,22.270603562070136L219.38489971160888,21.1493588818133L220.08135971069336,20.244652790308038L220.77781970977782,19.028491807645565L221.47427970886233,19.028491807645565L222.17073970794678,17.966573131434927L222.86719970703126,17.595792236231574L223.56365970611571,17.079671029223192L224.2601197052002,16.86906415686491L224.95657970428468,16.519048689094802L225.65303970336916,15.931729205139902L226.3494997024536,15.771555182294833L227.04595970153807,15.703327183601857L227.74241970062255,15.439334863704431L228.43887969970703,15.344409721185002L229.1353396987915,15.341448283045281L229.83179969787597,15.18126542008639L230.52825969696045,15.166440549160228L231.2247196960449,15.104144266860487L231.9211796951294,15.071515406640799L232.61763969421386,15.050749979207552L233.31409969329835,14.976599104235191L234.0105596923828,15.0121894025946L234.70701969146728,14.93803852762224L235.40347969055176,14.96176539319515L236.09993968963624,14.99735569155456L236.7963996887207,14.935068249368697L237.49285968780518,14.926166254721892L238.18931968688963,14.96176539319515L238.88577968597414,14.93803852762224L239.5822396850586,14.9232048165822L240.27869968414308,14.9232048165822L240.97515968322753,14.949901960408681L241.671619682312,14.935068249368697L242.3680796813965,14.908371105542187L243.06453968048098,14.943970244015446" fill="none"></path></g><g><path style="fill: none;" stroke="rgb(0, 119, 187)" stroke-width="2px" d="M34.82299995422363,161.4529869524057L35.51945995330811,139.94767527848185L36.21591995239258,130.78196235533656L36.91237995147705,124.16722340560855L37.608839950561524,119.7623449561745L38.305299949646,117.37451086379887L39.001759948730474,115.22398078760804L39.69821994781494,112.12424790684881L40.39467994689941,109.57327393343152L41.09113994598388,108.2532946537167L41.78759994506836,106.35489346463682L42.48405994415283,105.73197926226558L43.18051994323731,104.97558818087579L43.876979942321775,105.21288777700366L44.57343994140625,104.73828858474792L45.269899940490724,101.14912280069294L45.9663599395752,100.22958741820456L46.66281993865967,99.0282557265252L47.35927993774414,98.46466752820017L48.05573993682861,99.63633621785642L48.75219993591308,99.63633621785642L49.44865993499756,97.64895044276417L50.14511993408203,98.21253864108921L50.8415799331665,100.68935731947721L51.538039932250975,98.12354963501991L52.23449993133545,97.05569924241604L52.930959930419924,97.48580614166559L53.6274199295044,98.33118622912468L54.323879928588866,98.59814882727565L55.02033992767334,95.6912232496381L55.716799926757815,95.33527606547476L56.41325992584229,96.89255494131746L57.10971992492676,95.7208862516612L57.806179924011225,95.63190166564883L58.5026399230957,96.75907364224197L59.199099922180174,95.6912232496381L59.89555992126465,96.16582686195076L60.592019920349124,97.45614313964249L61.28847991943359,96.6404260542065L61.984939918518066,97.4264801376194L62.68139991760254,95.26111635038855L63.377859916687015,95.7208862516612L64.07431991577148,95.88403055275978L64.77077991485596,95.60223866362573L65.46723991394043,94.1339443737954L66.1636999130249,93.2440675732732L66.86015991210937,95.37976835848094L67.55661991119385,95.43909436252714L68.25307991027832,93.43687487639488L68.9495399093628,93.97080007269682L69.64599990844727,94.87550616420211L70.34245990753173,94.87550616420211L71.03891990661621,98.90960813848973L71.73537990570068,96.83322893727126L72.43183990478516,94.25259196183087L73.12829990386963,98.65747483132185L73.8247599029541,95.09797646934689L74.52121990203858,96.6107630521834L75.21767990112305,98.82061913242043L75.91413990020753,96.83322893727126L76.610599899292,97.3671541335732L77.30705989837647,98.52399353224637L78.00351989746095,95.27595006142856L78.6999798965454,95.32044235443475L79.39643989562988,96.21031915495695L80.09289989471435,95.00898746327759L80.78935989379882,92.87328667806985L81.4858198928833,94.9496614592314L82.18227989196777,92.78429767200055L82.87873989105225,94.9496614592314L83.57519989013672,95.6912232496381L84.27165988922118,94.9644951702714L84.96811988830567,96.89255494131746L85.66457988739013,94.53438827102185L86.36103988647461,95.14246876235308L87.05749988555908,93.31822286830248L87.75395988464355,96.15099315091075L88.45041988372803,91.99824358858766L89.1468798828125,93.91147406865062L89.84333988189698,94.62337285703423L90.53979988098145,98.1977049300492L91.23625988006592,98.1680419280261L91.9327198791504,95.63190166564883L92.62917987823486,95.08314275830688L93.32563987731935,98.2273679320723L94.02209987640381,95.24628705940546L94.71855987548828,92.29486918876172L95.41501987457276,93.11058627419771L96.11147987365722,93.55552688448728L96.8079398727417,94.26742567287089L97.50439987182617,92.4580134898603L98.20085987091063,95.82470454871358L98.89731986999512,93.184741569227L99.59377986907958,91.49398139430882L100.29023986816406,96.07683785588146L100.98669986724853,94.0449553677261L101.683159866333,94.75685415610971L102.37961986541748,93.54069317344727L103.07607986450195,91.7164516994536L103.77253986358643,94.1339443737954L104.4689998626709,95.51324965755643L105.16545986175537,97.04086995143295L105.86191986083985,95.64673095663191L106.55837985992432,95.42426065148713L107.2548398590088,96.13616385992766L107.95129985809326,94.56405127304495L108.64775985717773,93.25890128431321L109.34421985626221,92.07239888361694L110.04067985534668,94.35641025888326L110.73713985443116,96.90738865235747L111.43359985351563,94.41573626292946L112.1300598526001,92.60632407991888L112.82651985168458,94.25259196183087L113.52297985076903,94.9051691662252L114.21943984985352,92.14655417864623L114.91589984893798,100.06644311710598L115.61235984802245,94.60854356605114L116.30881984710693,93.83731877362133L117.0052798461914,93.3033935773194L117.70173984527588,91.30117409118714L118.39819984436035,94.83101387119592L119.09465984344482,93.77799276957514L119.7911198425293,93.34788587032558L120.48757984161377,91.538473687315L121.18403984069825,92.87328667806985L121.88049983978271,94.87550616420211L122.57695983886718,94.11911066275539L123.27341983795166,89.78838750835062L123.96987983703613,93.91147406865062L124.66633983612061,96.38829274703862L125.36279983520508,94.23776267084779L126.05925983428955,95.42426065148713L126.75571983337403,91.09353749708237L127.4521798324585,90.51512000777424L128.14863983154297,92.22071389373244L128.84509983062745,93.4220455854118L129.54155982971193,93.60001917749346L130.23801982879638,94.37124396992327L130.93447982788086,91.00454849101307L131.63093982696532,94.8903354551852L132.3273998260498,90.72275660187901L133.02385982513428,93.52586388246418L133.72031982421873,91.6867886974305L134.41677982330322,93.03643097916843L135.1132398223877,90.8562379009545L135.80969982147215,94.47506226697566L136.50615982055663,95.32044235443475L137.20261981964111,94.26742567287089L137.8990798187256,90.8562379009545L138.59553981781005,92.65081637292506L139.29199981689453,89.47693261719347L139.98845981597898,93.85214806460442L140.68491981506347,90.8265748989314L141.38137981414795,92.85845738708676L142.07783981323243,91.538473687315L142.77429981231688,99.41387033276857L143.47075981140136,93.4220455854118L144.16721981048582,93.3923825833887L144.86367980957033,90.7969118969083L145.56013980865478,92.4580134898603L146.25659980773926,94.08944766073229L146.95305980682372,90.96005619800688L147.6495198059082,94.97932446125449L148.34597980499268,94.41573626292946L149.04243980407716,94.44539926495256L149.73889980316162,91.01938220205308L150.4353598022461,90.20366069656016L151.13181980133055,91.74611028141977L151.82827980041506,94.54921756200494L152.5247397994995,94.20809966882469L153.221199798584,90.7375858928621L153.91765979766845,94.05978907876612L154.61411979675293,93.49620088044108L155.3105797958374,88.42391593562961L156.0070397949219,92.93261268211604L156.70349979400635,92.85845738708676L157.3999597930908,89.75872450632752L158.09641979217528,90.05535010650159L158.79287979125976,90.26298670060636L159.48933979034425,89.19513630800249L160.1857997894287,89.9811948114723L160.88225978851318,92.4135167767972L161.57871978759763,89.9663611004323L162.27517978668214,87.66752043418289L162.9716397857666,92.56183178691269L163.66809978485108,92.78429767200055L164.36455978393553,91.19735579413475L165.06101978302001,91.13802979008855L165.7574797821045,89.81805051037372L166.45393978118898,90.8265748989314L167.15039978027343,89.41760661314727L167.8468597793579,92.08723259465695L168.54331977844237,91.6867886974305L169.23977977752688,91.70161798841359L169.93623977661133,89.78838750835062L170.6326997756958,91.34566638419332L171.32915977478027,88.77986311979295L172.02561977386475,89.41760661314727L172.72207977294923,91.25668179818095L173.4185397720337,89.78838750835062L174.11499977111816,89.58075091424585L174.81145977020262,89.9811948114723L175.5079197692871,91.22701879615785L176.20437976837158,90.67826430887283L176.90083976745606,94.9051691662252L177.59729976654052,88.64637740066055L178.293759765625,90.21849440760018L178.99021976470945,90.51512000777424L179.68667976379396,90.36680499765875L180.38313976287841,91.00454849101307L181.0795997619629,89.2396330210656L181.77605976104735,90.14433911257089L182.47251976013183,90.12950540153088L183.1689797592163,89.47693261719347L183.8654397583008,90.47062329471113L184.56189975738525,89.49176190817656L185.25835975646973,93.3330565793425L185.95481975555418,90.21849440760018L186.6512797546387,89.52142491019966L187.34773975372315,89.19513630800249L188.04419975280763,88.4535745175958L188.74065975189208,89.9070350963861L189.43711975097656,90.26298670060636L190.13357975006105,88.54255910360816L190.83003974914553,90.87106719193758L191.52649974822998,89.61041391626895L192.22295974731443,89.9070350963861L192.91941974639892,89.49176190817656L193.6158797454834,90.44096029268803L194.31233974456788,90.7672488948852L195.00879974365233,88.66121111170055L195.7052597427368,88.66121111170055L196.40171974182127,89.87737651441992L197.09817974090578,89.80321679933371L197.79463973999023,89.46209890615346L198.4910997390747,90.07017939748468L199.18755973815917,90.05535010650159L199.88401973724365,90.17399769453706L200.58047973632813,89.37311432014108L201.2769397354126,87.5340347150505L201.97339973449706,89.1209810129732L202.66985973358155,90.7969118969083L203.366319732666,88.26077163453104L204.0627797317505,89.0913180109501L204.75923973083496,88.3349225095034L205.45569972991944,88.54255910360816L206.1521597290039,87.38572412499191L206.84861972808838,88.79469683083296L207.54507972717286,87.99380903638006L208.24153972625734,87.97897532534004L208.9379997253418,86.5106766154528L209.63445972442625,88.98749971389772L210.33091972351073,89.34345131811799L211.0273797225952,86.45135945152045L211.7238397216797,87.3115644099057L212.42029972076415,88.09762733343244L213.11675971984863,86.61450375261903L213.81321971893308,86.92595864377618L214.5096797180176,87.29673953897954L215.20613971710205,86.95561722574236L215.90259971618653,86.06574484527708L216.59905971527098,86.27338143938185L217.29551971435546,85.14620504273178L217.99197971343995,87.51920984412433L218.68843971252443,86.13989572024944L219.38489971160888,85.9619265482247L220.08135971069336,85.33900792579654L220.77781970977782,84.96822703059318L221.47427970886233,85.33900792579654L222.17073970794678,85.13137133169178L222.86719970703126,84.09318836116792L223.56365970611571,84.03386235712172L224.2601197052002,83.93004406006933L224.95657970428468,83.49993716081978L225.65303970336916,83.20331598070265L226.3494997024536,83.04017167960406L227.04595970153807,82.69904936636688L227.74241970062255,82.12063187705876L228.43887969970703,82.63972336232068L229.1353396987915,81.94265386492016L229.83179969787597,81.43839609069825L230.52825969696045,80.9934554804087L231.2247196960449,81.34940266457203L231.9211796951294,80.63750829624534L232.61763969421386,80.78581888630391L233.31409969329835,81.31974408260585L234.0105596923828,80.68200058925154L234.70701969146728,80.42987170214059L235.40347969055176,80.66716687821152L236.09993968963624,80.50402257711295L236.7963996887207,80.54851487011912L237.49285968780518,80.38537056902055L238.18931968688963,80.31121969404819L238.88577968597414,80.31121969404819L239.5822396850586,80.1480753929496L240.27869968414308,80.38537056902055L240.97515968322753,80.28155227196815L241.671619682312,80.31121969404819L242.3680796813965,80.0294233848572L243.06453968048098,80.1925676859558" fill="none"></path></g></g></g></g></g></g><g transform="translate(51, 177)" clip-path="url(#clip_1)"><clipPath id="clip_1"><rect width="278" height="22"></rect></clipPath><g><g><line x1="0" y1="0" x2="0" y2="5" style="visibility: inherit;" fill="rgb(0, 0, 0)" stroke="rgb(204, 204, 204)" stroke-width="1px"></line><line x1="34.82299995422363" y1="0" x2="34.82299995422363" y2="5" style="visibility: inherit;" fill="rgb(0, 0, 0)" stroke="rgb(204, 204, 204)" stroke-width="1px"></line><line x1="69.64599990844727" y1="0" x2="69.64599990844727" y2="5" style="visibility: inherit;" fill="rgb(0, 0, 0)" stroke="rgb(204, 204, 204)" stroke-width="1px"></line><line x1="104.4689998626709" y1="0" x2="104.4689998626709" y2="5" style="visibility: inherit;" fill="rgb(0, 0, 0)" stroke="rgb(204, 204, 204)" stroke-width="1px"></line><line x1="139.29199981689453" y1="0" x2="139.29199981689453" y2="5" style="visibility: inherit;" fill="rgb(0, 0, 0)" stroke="rgb(204, 204, 204)" stroke-width="1px"></line><line x1="174.11499977111816" y1="0" x2="174.11499977111816" y2="5" style="visibility: inherit;" fill="rgb(0, 0, 0)" stroke="rgb(204, 204, 204)" stroke-width="1px"></line><line x1="208.9379997253418" y1="0" x2="208.9379997253418" y2="5" style="visibility: inherit;" fill="rgb(0, 0, 0)" stroke="rgb(204, 204, 204)" stroke-width="1px"></line><line x1="243.76099967956543" y1="0" x2="243.76099967956543" y2="5" style="visibility: inherit;" fill="rgb(0, 0, 0)" stroke="rgb(204, 204, 204)" stroke-width="1px"></line><line x1="278.58399963378906" y1="0" x2="278.58399963378906" y2="5" style="visibility: inherit;" fill="rgb(0, 0, 0)" stroke="rgb(204, 204, 204)" stroke-width="1px"></line></g><g transform="translate(0, 8)"><text style="text-anchor: middle; visibility: hidden; font-family: &quot;Helvetica Neue&quot;, sans-serif; font-size: 12px; font-weight: 200;" x="0" y="0" dx="0em" dy="0.95em" fill="rgb(50, 49, 63)" stroke="none" stroke-width="1px">-50</text><text style="text-anchor: middle; visibility: inherit; font-family: &quot;Helvetica Neue&quot;, sans-serif; font-size: 12px; font-weight: 200;" x="34.82299995422363" y="0" dx="0em" dy="0.95em" fill="rgb(50, 49, 63)" stroke="none" stroke-width="1px">0</text><text style="text-anchor: middle; visibility: inherit; font-family: &quot;Helvetica Neue&quot;, sans-serif; font-size: 12px; font-weight: 200;" x="69.64599990844727" y="0" dx="0em" dy="0.95em" fill="rgb(50, 49, 63)" stroke="none" stroke-width="1px">50</text><text style="text-anchor: middle; visibility: inherit; font-family: &quot;Helvetica Neue&quot;, sans-serif; font-size: 12px; font-weight: 200;" x="104.4689998626709" y="0" dx="0em" dy="0.95em" fill="rgb(50, 49, 63)" stroke="none" stroke-width="1px">100</text><text style="text-anchor: middle; visibility: inherit; font-family: &quot;Helvetica Neue&quot;, sans-serif; font-size: 12px; font-weight: 200;" x="139.29199981689453" y="0" dx="0em" dy="0.95em" fill="rgb(50, 49, 63)" stroke="none" stroke-width="1px">150</text><text style="text-anchor: middle; visibility: inherit; font-family: &quot;Helvetica Neue&quot;, sans-serif; font-size: 12px; font-weight: 200;" x="174.11499977111816" y="0" dx="0em" dy="0.95em" fill="rgb(50, 49, 63)" stroke="none" stroke-width="1px">200</text><text style="text-anchor: middle; visibility: inherit; font-family: &quot;Helvetica Neue&quot;, sans-serif; font-size: 12px; font-weight: 200;" x="208.9379997253418" y="0" dx="0em" dy="0.95em" fill="rgb(50, 49, 63)" stroke="none" stroke-width="1px">250</text><text style="text-anchor: middle; visibility: inherit; font-family: &quot;Helvetica Neue&quot;, sans-serif; font-size: 12px; font-weight: 200;" x="243.76099967956543" y="0" dx="0em" dy="0.95em" fill="rgb(50, 49, 63)" stroke="none" stroke-width="1px">300</text><text style="text-anchor: middle; visibility: hidden; font-family: &quot;Helvetica Neue&quot;, sans-serif; font-size: 12px; font-weight: 200;" x="278.58399963378906" y="0" dx="0em" dy="0.95em" fill="rgb(50, 49, 63)" stroke="none" stroke-width="1px">350</text></g><line x1="0" y1="0" x2="278.58399963378906" y2="0" fill="rgb(0, 0, 0)" stroke="rgb(204, 204, 204)" stroke-width="1px"></line></g></g></g></g></svg>