<svg viewBox="0 0 330 200" xmlns="http://www.w3.org/2000/svg"><g><g><g><g><g><line x1="51.41600036621094" y1="177.9749994277954" x2="46.41600036621094" y2="177.9749994277954" style="visibility: inherit;" fill="rgb(0, 0, 0)" stroke="rgb(204, 204, 204)" stroke-width="1px"></line><line x1="51.41600036621094" y1="152.54999950953894" x2="46.41600036621094" y2="152.54999950953894" style="visibility: inherit;" fill="rgb(0, 0, 0)" stroke="rgb(204, 204, 204)" stroke-width="1px"></line><line x1="51.41600036621094" y1="127.12499959128243" x2="46.41600036621094" y2="127.12499959128243" style="visibility: inherit;" fill="rgb(0, 0, 0)" stroke="rgb(204, 204, 204)" stroke-width="1px"></line><line x1="51.41600036621094" y1="101.69999967302596" x2="46.41600036621094" y2="101.69999967302596" style="visibility: inherit;" fill="rgb(0, 0, 0)" stroke="rgb(204, 204, 204)" stroke-width="1px"></line><line x1="51.41600036621094" y1="76.27499975476947" x2="46.41600036621094" y2="76.27499975476947" style="visibility: inherit;" fill="rgb(0, 0, 0)" stroke="rgb(204, 204, 204)" stroke-width="1px"></line><line x1="51.41600036621094" y1="50.84999983651298" x2="46.41600036621094" y2="50.84999983651298" style="visibility: inherit;" fill="rgb(0, 0, 0)" stroke="rgb(204, 204, 204)" stroke-width="1px"></line><line x1="51.41600036621094" y1="25.424999918256503" x2="46.41600036621094" y2="25.424999918256503" style="visibility: inherit;" fill="rgb(0, 0, 0)" stroke="rgb(204, 204, 204)" stroke-width="1px"></line><line x1="51.41600036621094" y1="0" x2="46.41600036621094" y2="0" style="visibility: inherit;" fill="rgb(0, 0, 0)" stroke="rgb(204, 204, 204)" stroke-width="1px"></line></g><g transform="translate(41.41600036621094, 0)"><text style="text-anchor: end; visibility: hidden; font-family: &quot;Helvetica Neue&quot;, sans-serif; font-size: 12px; font-weight: 200;" x="0" y="177.9749994277954" dx="0em" dy="0.3em" fill="rgb(50, 49, 63)" stroke="none" stroke-width="1px">-0.5</text><text style="text-anchor: end; visibility: inherit; font-family: &quot;Helvetica Neue&quot;, sans-serif; font-size: 12px; font-weight: 200;" x="0" y="152.54999950953894" dx="0em" dy="0.3em" fill="rgb(50, 49, 63)" stroke="none" stroke-width="1px">0</text><text style="text-anchor: end; visibility: inherit; font-family: &quot;Helvetica Neue&quot;, sans-serif; font-size: 12px; font-weight: 200;" x="0" y="127.12499959128243" dx="0em" dy="0.3em" fill="rgb(50, 49, 63)" stroke="none" stroke-width="1px">0.5</text><text style="text-anchor: end; visibility: inherit; font-family: &quot;Helvetica Neue&quot;, sans-serif; font-size: 12px; font-weight: 200;" x="0" y="101.69999967302596" dx="0em" dy="0.3em" fill="rgb(50, 49, 63)" stroke="none" stroke-width="1px">1</text><text style="text-anchor: end; visibility: inherit; font-family: &quot;Helvetica Neue&quot;, sans-serif; font-size: 12px; font-weight: 200;" x="0" y="76.27499975476947" dx="0em" dy="0.3em" fill="rgb(50, 49, 63)" stroke="none" stroke-width="1px">1.5</text><text style="text-anchor: end; visibility: inherit; font-family: &quot;Helvetica Neue&quot;, sans-serif; font-size: 12px; font-weight: 200;" x="0" y="50.84999983651298" dx="0em" dy="0.3em" fill="rgb(50, 49, 63)" stroke="none" stroke-width="1px">2</text><text style="text-anchor: end; visibility: inherit; font-family: &quot;Helvetica Neue&quot;, sans-serif; font-size: 12px; font-weight: 200;" x="0" y="25.424999918256503" dx="0em" dy="0.3em" fill="rgb(50, 49, 63)" stroke="none" stroke-width="1px">2.5</text><text style="text-anchor: end; visibility: hidden; font-family: &quot;Helvetica Neue&quot;, sans-serif; font-size: 12px; font-weight: 200;" x="0" y="0" dx="0em" dy="0.3em" fill="rgb(50, 49, 63)" stroke="none" stroke-width="1px">3</text></g><line x1="51.41600036621094" y1="0" x2="51.41600036621094" y2="177.9749994277954" fill="rgb(0, 0, 0)" stroke="rgb(204, 204, 204)" stroke-width="1px"></line></g></g><g transform="translate(51, 0)" clip-path="url(#clip_0)"><clipPath id="clip_0"><rect width="278" height="177"></rect></clipPath><g><g><g><line x1="0" y1="0" x2="0" y2="177.9749994277954" fill="rgb(0, 0, 0)" stroke="rgb(60, 60, 60)" stroke-width="1px" opacity="0.25"></line><line x1="34.82299995422363" y1="0" x2="34.82299995422363" y2="177.9749994277954" fill="rgb(0, 0, 0)" stroke="rgb(60, 60, 60)" stroke-width="1px" opacity="0.25"></line><line x1="69.64599990844727" y1="0" x2="69.64599990844727" y2="177.9749994277954" fill="rgb(0, 0, 0)" stroke="rgb(60, 60, 60)" stroke-width="1px" opacity="0.25"></line><line x1="104.4689998626709" y1="0" x2="104.4689998626709" y2="177.9749994277954" fill="rgb(0, 0, 0)" stroke="rgb(60, 60, 60)" stroke-width="1px" opacity="0.25"></line><line x1="139.29199981689453" y1="0" x2="139.29199981689453" y2="177.9749994277954" fill="rgb(0, 0, 0)" stroke="rgb(60, 60, 60)" stroke-width="1px" opacity="0.25"></line><line x1="174.11499977111816" y1="0" x2="174.11499977111816" y2="177.9749994277954" fill="rgb(0, 0, 0)" stroke="rgb(60, 60, 60)" stroke-width="1px" opacity="0.25"></line><line x1="208.9379997253418" y1="0" x2="208.9379997253418" y2="177.9749994277954" fill="rgb(0, 0, 0)" stroke="rgb(60, 60, 60)" stroke-width="1px" opacity="0.25"></line><line x1="243.76099967956543" y1="0" x2="243.76099967956543" y2="177.9749994277954" fill="rgb(0, 0, 0)" stroke="rgb(60, 60, 60)" stroke-width="1px" opacity="0.25"></line><line x1="278.58399963378906" y1="0" x2="278.58399963378906" y2="177.9749994277954" fill="rgb(0, 0, 0)" stroke="rgb(60, 60, 60)" stroke-width="1px" opacity="0.25"></line></g><g><line x1="0" y1="177.9749994277954" x2="278.58399963378906" y2="177.9749994277954" fill="rgb(0, 0, 0)" stroke="rgb(60, 60, 60)" stroke-width="1px" opacity="0.25"></line><line x1="0" y1="152.54999950953894" x2="278.58399963378906" y2="152.54999950953894" fill="rgb(0, 0, 0)" stroke="rgb(60, 60, 60)" stroke-width="1px" opacity="0.25"></line><line x1="0" y1="127.12499959128243" x2="278.58399963378906" y2="127.12499959128243" fill="rgb(0, 0, 0)" stroke="rgb(60, 60, 60)" stroke-width="1px" opacity="0.25"></line><line x1="0" y1="101.69999967302596" x2="278.58399963378906" y2="101.69999967302596" fill="rgb(0, 0, 0)" stroke="rgb(60, 60, 60)" stroke-width="1px" opacity="0.25"></line><line x1="0" y1="76.27499975476947" x2="278.58399963378906" y2="76.27499975476947" fill="rgb(0, 0, 0)" stroke="rgb(60, 60, 60)" stroke-width="1px" opacity="0.25"></line><line x1="0" y1="50.84999983651298" x2="278.58399963378906" y2="50.84999983651298" fill="rgb(0, 0, 0)" stroke="rgb(60, 60, 60)" stroke-width="1px" opacity="0.25"></line><line x1="0" y1="25.424999918256503" x2="278.58399963378906" y2="25.424999918256503" fill="rgb(0, 0, 0)" stroke="rgb(60, 60, 60)" stroke-width="1px" opacity="0.25"></line><line x1="0" y1="0" x2="278.58399963378906" y2="0" fill="rgb(0, 0, 0)" stroke="rgb(60, 60, 60)" stroke-width="1px" opacity="0.25"></line></g></g></g><g><g><line x1="0" y1="152.54999950953894" x2="278.58399963378906" y2="152.54999950953894" fill="rgb(0, 0, 0)" stroke="rgb(153, 153, 153)" stroke-width="1.5px"></line></g></g><g><g><line x1="34.82299995422363" y1="0" x2="34.82299995422363" y2="177.9749994277954" fill="rgb(0, 0, 0)" stroke="rgb(153, 153, 153)" stroke-width="1.5px"></line></g></g><g><g><g><g><g><path style="fill: none;" stroke="rgb(238, 51, 119)" stroke-width="2px" d="M36.21591995239258,-12.604066617496898L36.91237995147705,0.6427924612359845L37.608839950561524,6.851789380932644L38.305299949646,15.245250164131448L39.001759948730474,18.441778755500764L39.69821994781494,24.25900203534755L40.39467994689941,27.436617834571848L41.09113994598388,31.570917826715686L41.78759994506836,33.40607696760122L42.48405994415283,33.325940072679145L43.18051994323731,39.10065806453849L43.876979942321775,38.25518351414854L44.57343994140625,39.905639842002586L45.269899940490724,45.230403110996775L45.9663599395752,46.86987547110505L46.66281993865967,49.55556469720392L47.35927993774414,50.2643822007615L48.05573993682861,51.00598187737043L48.75219993591308,46.63449607399272L49.44865993499756,52.19023787885011L50.14511993408203,53.79314550747806L50.8415799331665,49.83481934737574L51.538039932250975,55.05156753841099L52.23449993133545,54.04004231006333L52.930959930419924,55.01204465226182L53.6274199295044,51.982463884118644L54.323879928588866,53.20511527836963L55.02033992767334,57.48314642902314L55.716799926757815,58.71672117309633L56.41325992584229,56.2900765814605L57.10971992492676,58.56190905816324L57.806179924011225,58.320049605024295L58.5026399230957,55.44384430702628L59.199099922180174,56.990165104028065L59.89555992126465,57.02148638512206L60.592019920349124,56.885556753372185L61.28847991943359,53.016096469181974L61.984939918518066,54.50788538216567L62.68139991760254,60.74177808306091L63.377859916687015,58.86116156131145L64.07431991577148,59.54111280967848L64.77077991485596,58.950172920240064L65.46723991394043,60.911944718027115L66.1636999130249,62.750704563571034L66.86015991210937,56.71896051410259L67.55661991119385,60.26450286205548L68.25307991027832,65.12170796318797L68.9495399093628,58.84387939130973L69.64599990844727,62.0250049683071L70.34245990753173,60.65130583217494L71.03891990661621,49.50989515360763L71.73537990570068,55.802781217693635L72.43183990478516,61.61789499380117L73.12829990386963,54.191708354764614L73.8247599029541,61.8233048895145L74.52121990203858,53.79458821405835L75.21767990112305,52.8936846343819L75.91413990020753,54.007187395503735L76.610599899292,57.215985054597894L77.30705989837647,52.03683209974318L78.00351989746095,62.8617687230841L78.6999798965454,57.95112286055726L79.39643989562988,61.147457474571254L80.09289989471435,62.73145837284655L80.78935989379882,64.82672296185709L81.4858198928833,60.6824998156295L82.18227989196777,62.679011745398284L82.87873989105225,56.92419461783766L83.57519989013672,57.05396546855569L84.27165988922118,62.43975886297163L84.96811988830567,53.86154071061014L85.66457988739013,60.75596267716966L86.36103988647461,63.233926402875895L87.05749988555908,63.763545200859554L87.75395988464355,58.609566869651715L88.45041988372803,64.5012532067771L89.1468798828125,63.814530936350465L89.84333988189698,61.44989848049775L90.53979988098145,53.59473092014143L91.23625988006592,56.126650659592116L91.9327198791504,54.876842435594455L92.62917987823486,62.86434498483462L93.32563987731935,53.50013665045465L94.02209987640381,63.06699070323445L94.71855987548828,64.3610439496252L95.41501987457276,66.9373602562778L96.11147987365722,62.88790717171527L96.8079398727417,62.409989400720306L97.50439987182617,64.97298794957081L98.20085987091063,60.37668239136171L98.89731986999512,63.65896715916544L99.59377986907958,69.3543302273164L100.29023986816406,58.37740628427943L100.98669986724853,66.19215381321816L101.683159866333,64.26074553333312L102.37961986541748,63.346657555286356L103.07607986450195,69.9297579901205L103.77253986358643,68.38442526527244L104.4689998626709,62.970541525087285L105.16545986175537,56.30143031853984L105.86191986083985,64.44720020435498L106.55837985992432,64.1952660523234L107.2548398590088,62.903498101650186L107.95129985809326,63.70861323854608L108.64775985717773,66.11007108295037L109.34421985626221,68.36179053262198L110.04067985534668,63.57174402898133L110.73713985443116,58.87761326576067L111.43359985351563,67.7292485622569L112.1300598526001,68.30363369677609L112.82651985168458,65.84223684957381L113.52297985076903,61.86216704029708L114.21943984985352,67.97091403804052L114.91589984893798,52.43925630875934L115.61235984802245,63.99401454616502L116.30881984710693,64.78430860075498L117.0052798461914,67.13154977434358L117.70173984527588,69.925829948675L118.39819984436035,67.20760708301133L119.09465984344482,65.99415748955396L119.7911198425293,67.0861408878185L120.48757984161377,69.85277928901493L121.18403984069825,67.20103003830705L121.88049983978271,64.19021657929238L122.57695983886718,69.74289717901092L123.27341983795166,75.22656427277727L123.96987983703613,64.45275886794376L124.66633983612061,64.10109004630905L125.36279983520508,63.93330569573803L126.05925983428955,65.42315483516839L126.75571983337403,71.0041318815962L127.4521798324585,77.01690858278845L128.14863983154297,70.82963106509676L128.84509983062745,68.56007782231917L129.54155982971193,70.08436400411357L130.23801982879638,65.68680037002822L130.93447982788086,71.79819637103044L131.63093982696532,67.7740452077542L132.3273998260498,73.57049472520326L133.02385982513428,71.78393903541344L133.72031982421873,74.03014831583512L134.41677982330322,70.55762025678817L135.1132398223877,74.82705578588346L135.80969982147215,69.28316478507847L136.50615982055663,68.25124768725138L137.20261981964111,67.06310001508031L137.8990798187256,79.18223536782845L138.59553981781005,69.47442039564483L139.29199981689453,79.20482766793245L139.98845981597898,68.5353275241371L140.68491981506347,74.22147666790973L141.38137981414795,72.91568779152132L142.07783981323243,74.21812449673787L142.77429981231688,57.18838571400936L143.47075981140136,73.00310489906077L144.16721981048582,68.80297384195069L144.86367980957033,78.60055183531485L145.56013980865478,76.38766422746403L146.25659980773926,72.19148545896886L146.95305980682372,80.30442467739383L147.6495198059082,69.8592775304186L148.34597980499268,70.781403445127L149.04243980407716,73.36828545585293L149.73889980316162,78.30817946648861L150.4353598022461,79.0676129362035L151.13181980133055,78.0341622049108L151.82827980041506,73.05552121754727L152.5247397994995,72.40695792999011L153.221199798584,81.64120143629673L153.91765979766845,75.84356380754626L154.61411979675293,78.77927165929279L155.3105797958374,85.41046029287256L156.0070397949219,76.01470639108149L156.70349979400635,81.16605390440762L157.3999597930908,83.00937221780188L158.09641979217528,82.520228007367L158.79287979125976,84.27517145002983L159.48933979034425,83.60298535766849L160.1857997894287,86.88144513449674L160.88225978851318,83.18797686772508L161.57871978759763,82.27616812360348L162.27517978668214,86.81132838233609L162.9716397857666,80.45649080039048L163.66809978485108,82.28898881443254L164.36455978393553,82.57911832008774L165.06101978302001,84.3086264820325L165.7574797821045,89.02142756570399L166.45393978118898,84.12394185437805L167.15039978027343,89.63903934150075L167.8468597793579,81.21705782527559L168.54331977844237,87.21876569362914L169.23977977752688,85.51058291718634L169.93623977661133,91.51586724302885L170.6326997756958,86.9406506604199L171.32915977478027,90.77365532539216L172.02561977386475,92.57846307196039L172.72207977294923,85.05288728548489L173.4185397720337,92.28730306160497L174.11499977111816,94.33985626168806L174.81145977020262,92.04797137587772L175.5079197692871,91.55409896740659L176.20437976837158,92.33048120854372L176.90083976745606,84.10223457595778L177.59729976654052,97.33365426956458L178.293759765625,94.82806089430804L178.99021976470945,95.59053132199236L179.68667976379396,96.20388165776416L180.38313976287841,96.49132578940645L181.0795997619629,100.2124237057284L181.77605976104735,96.8181109534273L182.47251976013183,98.1860210778612L183.1689797592163,102.8446479232635L183.8654397583008,99.6600853100013L184.56189975738525,99.44605554556034L185.25835975646973,91.60433910243793L185.95481975555418,101.76533973281153L186.6512797546387,101.80977267076759L187.34773975372315,104.48942435168169L188.04419975280763,104.64023265276487L188.74065975189208,103.13358022492875L189.43711975097656,104.93615117011828L190.13357975006105,108.35316230388958L190.83003974914553,104.73453898731483L191.52649974822998,110.11251873138625L192.22295974731443,105.67687491773202L192.91941974639892,107.34637133537052L193.6158797454834,110.79749217471871L194.31233974456788,108.31631872996094L195.00879974365233,113.73884355514696L195.7052597427368,114.19423873665002L196.40171974182127,113.25093595035233L197.09817974090578,116.50007483756347L197.79463973999023,116.97293404283889L198.4910997390747,115.01780900036817L199.18755973815917,118.1005516874574L199.88401973724365,117.6996671736992L200.58047973632813,118.50672208414844L201.2769397354126,123.82718148057114L201.97339973449706,122.99484586510886L202.66985973358155,119.90847216439948L203.366319732666,123.42024729804349L204.0627797317505,124.60643094949181L204.75923973083496,124.76762613177385L205.45569972991944,128.32586490381254L206.1521597290039,127.45644324272746L206.84861972808838,127.35643730791648L207.54507972717286,131.02420509055457L208.24153972625734,130.4443507038838L208.9379997253418,132.07440152322565L209.63445972442625,132.06033816496398L210.33091972351073,129.98065541319983L211.0273797225952,136.5365186995386L211.7238397216797,135.39661834816246L212.42029972076415,134.957424822174L213.11675971984863,138.5863834947126L213.81321971893308,139.33089131620343L214.5096797180176,139.18761327667224L215.20613971710205,140.3369101639214L215.90259971618653,142.6305832784762L216.59905971527098,143.76473023118422L217.29551971435546,143.74753444172353L217.99197971343995,142.77135325142086L218.68843971252443,143.9704848913377L219.38489971160888,145.50230436558022L220.08135971069336,146.33157498728343L220.77781970977782,147.60613199401507L221.47427970886233,147.59306655831972L222.17073970794678,148.70170056359507L222.86719970703126,149.1773137169094L223.56365970611571,149.83777213537553L224.2601197052002,149.9663901089602L224.95657970428468,150.43740046756758L225.65303970336916,151.0925644787054L226.3494997024536,151.2539811058394L227.04595970153807,151.36453418048458L227.74241970062255,151.6393902425794L228.43887969970703,151.75236538213213L229.1353396987915,151.8287352519681L229.83179969787597,151.97886771056156L230.52825969696045,152.0146185990606L231.2247196960449,152.09191961703152L231.9211796951294,152.176128236821L232.61763969421386,152.20407911400832L233.31409969329835,152.2712495035806L234.0105596923828,152.24179482831192L234.70701969146728,152.28700213656234L235.40347969055176,152.3082210381572L236.09993968963624,152.28978433350076L236.7963996887207,152.30939174548448L237.49285968780518,152.3507934320803L238.18931968688963,152.32103038680447L238.88577968597414,152.33311696142903L239.5822396850586,152.35330963236086L240.27869968414308,152.3469618346983L240.97515968322753,152.33642686580654L241.671619682312,152.34122449030835L242.3680796813965,152.36618418079428L243.06453968048098,152.35448704081017" fill="none"></path></g><g><path style="fill: none;" stroke="rgb(204, 51, 17)" stroke-width="2px" d="M36.21591995239258,-9.714385955095565L36.91237995147705,2.530725566356921L37.608839950561524,9.602885346532986L38.305299949646,14.476142073819318L39.001759948730474,16.95128100428849L39.69821994781494,23.605613561076495L40.39467994689941,26.127197944563306L41.09113994598388,28.980847313211484L41.78759994506836,30.887923558586863L42.48405994415283,31.241107828310106L43.18051994323731,34.17358474473187L43.876979942321775,32.973822678410215L44.57343994140625,33.09057279915149L45.269899940490724,40.42494146939947L45.9663599395752,40.30134152329799L46.66281993865967,41.75471685813329L47.35927993774414,41.91646972531191L48.05573993682861,41.487973747380494L48.75219993591308,39.77275323001453L49.44865993499756,44.05064495944387L50.14511993408203,44.05871926685961L50.8415799331665,38.612574667765585L51.538039932250975,43.90458001087785L52.23449993133545,44.20566923710936L52.930959930419924,43.22382860592006L53.6274199295044,41.577082094986764L54.323879928588866,40.62603536895665L55.02033992767334,45.912257762162994L55.716799926757815,46.99897952466415L56.41325992584229,44.12030707717798L57.10971992492676,46.64715309642821L57.806179924011225,45.13318408522062L58.5026399230957,43.801941742737085L59.199099922180174,43.859977342735874L59.89555992126465,44.166510058501444L60.592019920349124,43.28734406620703L61.28847991943359,42.88290128033694L61.984939918518066,41.25694671717844L62.68139991760254,44.72389186546718L63.377859916687015,46.31322107922182L64.07431991577148,46.00961014737095L64.77077991485596,43.10892127005445L65.46723991394043,47.31308948087241L66.1636999130249,48.689504299979234L66.86015991210937,45.01535496544031L67.55661991119385,44.52043386689189L68.25307991027832,47.31179225730864L68.9495399093628,45.17413755436539L69.64599990844727,46.235702878596726L70.34245990753173,46.46212294660961L71.03891990661621,35.65165582161808L71.73537990570068,40.24259063180136L72.43183990478516,45.9733000111695L73.12829990386963,38.7372536129061L73.8247599029541,46.07362267463097L74.52121990203858,42.34593559002002L75.21767990112305,39.431025747840636L75.91413990020753,41.94430547580225L76.610599899292,40.50198685022093L77.30705989837647,37.904848286831765L78.00351989746095,45.57701639780811L78.6999798965454,43.17768624252014L79.39643989562988,44.37018628160149L80.09289989471435,46.29053785223252L80.78935989379882,48.07298364680622L81.4858198928833,45.15758886123851L82.18227989196777,49.23998778724592L82.87873989105225,43.35342972645219L83.57519989013672,41.090126191591736L84.27165988922118,45.593843933383255L84.96811988830567,40.39566301232884L85.66457988739013,44.529732656363194L86.36103988647461,45.814214332626705L87.05749988555908,46.95866860550893L87.75395988464355,41.494326505767674L88.45041988372803,47.061234132141436L89.1468798828125,46.202884334791236L89.84333988189698,44.98134831033343L90.53979988098145,37.40094361201449L91.23625988006592,36.57652772826293L91.9327198791504,42.72667676778531L92.62917987823486,43.736886587192146L93.32563987731935,37.49450131520871L94.02209987640381,43.26664910710991L94.71855987548828,47.93164689627645L95.41501987457276,47.68384082483806L96.11147987365722,46.16499813257769L96.8079398727417,44.22795238580329L97.50439987182617,48.82085121670934L98.20085987091063,41.530042586318416L98.89731986999512,47.825274564045486L99.59377986907958,50.97563048305311L100.29023986816406,40.538951659996656L100.98669986724853,45.53278956079208L101.683159866333,45.90729921601729L102.37961986541748,45.201282260527364L103.07607986450195,49.42870350681591L103.77253986358643,45.70272584764882L104.4689998626709,43.83914902420696L105.16545986175537,40.83196657881243L105.86191986083985,43.25011253756773L106.55837985992432,40.90981211622466L107.2548398590088,41.860737606407724L107.95129985809326,43.87838094432311L108.64775985717773,47.55083297700287L109.34421985626221,48.596904359976975L110.04067985534668,44.80410150189755L110.73713985443116,38.07718504346076L111.43359985351563,45.04043866220184L112.1300598526001,46.79467287515925L112.82651985168458,46.48489103869184L113.52297985076903,42.45630870520472L114.21943984985352,46.647625916231846L114.91589984893798,34.680605180819185L115.61235984802245,43.84930858819254L116.30881984710693,44.19547330236966L117.0052798461914,45.55935233488805L117.70173984527588,49.117272862828145L118.39819984436035,42.56309323931575L119.09465984344482,43.80799141150652L119.7911198425293,46.19118507554771L120.48757984161377,50.01811582458107L121.18403984069825,46.215080661007846L121.88049983978271,42.139276965081734L122.57695983886718,44.88315939778062L123.27341983795166,50.56276786760307L123.96987983703613,46.655966942511185L124.66633983612061,40.104878833099406L125.36279983520508,43.83706376763712L126.05925983428955,41.05993846566798L126.75571983337403,48.24836342319702L127.4521798324585,50.51226101370814L128.14863983154297,46.460207420225686L128.84509983062745,45.45765970635455L129.54155982971193,43.34307618511127L130.23801982879638,44.54609949571943L130.93447982788086,48.87944450160472L131.63093982696532,40.0875663541359L132.3273998260498,48.69345658859413L133.02385982513428,46.21118899031646L133.72031982421873,48.38030439557781L134.41677982330322,44.95025131555656L135.1132398223877,50.71419144061019L135.80969982147215,41.99370908348874L136.50615982055663,41.673258492478L137.20261981964111,42.98166000137104L137.8990798187256,50.16250771845736L138.59553981781005,43.66595149306366L139.29199981689453,50.63704907111105L139.98845981597898,43.99878026406162L140.68491981506347,47.86913769352026L141.38137981414795,42.45684214293189L142.07783981323243,48.87204911493265L142.77429981231688,31.11071867477196L143.47075981140136,45.48810202755715L144.16721981048582,42.457120985380186L144.86367980957033,49.177199742041466L145.56013980865478,45.508239301757726L146.25659980773926,42.701362722914325L146.95305980682372,47.57255844080021L147.6495198059082,40.39659652835138L148.34597980499268,42.894867258444066L149.04243980407716,41.83114393613465L149.73889980316162,47.37515011099438L150.4353598022461,49.10462796397735L151.13181980133055,48.4229066722429L151.82827980041506,40.30788825904048L152.5247397994995,42.249492473665214L153.221199798584,49.50500934897016L153.91765979766845,41.988059493014646L154.61411979675293,44.289564443291056L155.3105797958374,51.91997286673953L156.0070397949219,43.99688898484712L156.70349979400635,44.840738974886136L157.3999597930908,50.646008400210505L158.09641979217528,46.934615413447574L158.79287979125976,48.2223340868282L159.48933979034425,49.045961937573736L160.1857997894287,50.05099498631009L160.88225978851318,47.20206169211349L161.57871978759763,47.80426439174596L162.27517978668214,51.07238881261034L162.9716397857666,43.43642778736546L163.66809978485108,43.1745826048348L164.36455978393553,45.14584110765611L165.06101978302001,46.62893134861159L165.7574797821045,48.63295990089955L166.45393978118898,45.93577751649718L167.15039978027343,49.94096133149722L167.8468597793579,41.30242228341942L168.54331977844237,44.965005718146585L169.23977977752688,44.14713657013752L169.93623977661133,46.99158413799205L170.6326997756958,44.10040015108689L171.32915977478027,47.87241106139152L172.02561977386475,48.006194818648L172.72207977294923,43.26560647882499L173.4185397720337,46.06763362378504L174.11499977111816,48.51544599432165L174.81145977020262,46.19724686790187L175.5079197692871,44.029853011669076L176.20437976837158,45.23314304114086L176.90083976745606,37.38357051512742L177.59729976654052,48.603802679675994L178.293759765625,44.08724606167834L178.99021976470945,45.42230733334503L179.68667976379396,45.07282075695781L180.38313976287841,45.479385170151886L181.0795997619629,45.261087903893554L181.77605976104735,43.144310013818085L182.47251976013183,43.12591853581554L183.1689797592163,45.52646104957432L183.8654397583008,41.25918958034947L184.56189975738525,43.620912375872194L185.25835975646973,35.20167685158347L185.95481975555418,42.299720485111834L186.6512797546387,42.260755283859254L187.34773975372315,42.16111154114145L188.04419975280763,44.38780185018271L188.74065975189208,40.74293097271442L189.43711975097656,40.74120942368583L190.13357975006105,44.18545922140058L190.83003974914553,40.5365633138091L191.52649974822998,42.032819767757815L192.22295974731443,37.67631871507962L192.91941974639892,40.62630208782022L193.6158797454834,40.595884013786986L194.31233974456788,38.373242982038335L195.00879974365233,42.697689276747695L195.7052597427368,41.524199018489014L196.40171974182127,39.72035509690511L197.09817974090578,38.41820935772154L197.79463973999023,38.07802157080562L198.4910997390747,38.06123040598459L199.18755973815917,35.05512695962909L199.88401973724365,35.767569415014464L200.58047973632813,36.47970878078215L201.2769397354126,40.218585934078874L201.97339973449706,36.35589061015591L202.66985973358155,34.28326681558818L203.366319732666,35.5599166561301L204.0627797317505,32.73176318612357L204.75923973083496,34.77910930657441L205.45569972991944,34.50370995633986L206.1521597290039,36.8378273494817L206.84861972808838,34.275204631757134L207.54507972717286,34.97369284114322L208.24153972625734,35.04984107669628L208.9379997253418,37.20163187940943L209.63445972442625,32.23628440267859L210.33091972351073,30.511268028868272L211.0273797225952,36.63664858483156L211.7238397216797,32.91474445012648L212.42029972076415,29.41251967033648L213.11675971984863,32.40916672061945L213.81321971893308,31.982659010580193L214.5096797180176,30.95819185555638L215.20613971710205,31.881924145238628L215.90259971618653,32.97986022359498L216.59905971527098,30.398906645791413L217.29551971435546,33.91205477540365L217.99197971343995,29.115516092151665L218.68843971252443,30.778774925457697L219.38489971160888,32.6817897699558L220.08135971069336,31.856137280563985L220.77781970977782,34.028416941434244L221.47427970886233,33.455516946041826L222.17073970794678,33.59349546360738L222.86719970703126,36.1986719636582L223.56365970611571,34.477256294506276L224.2601197052002,34.6099368055543L224.95657970428468,35.66009383657507L225.65303970336916,37.0735947013047L226.3494997024536,38.54337324625041L227.04595970153807,39.07739290548318L227.74241970062255,40.130811180790516L228.43887969970703,40.29612838187339L229.1353396987915,41.48229990973698L229.83179969787597,42.210818238445626L230.52825969696045,41.93538251745693L231.2247196960449,42.93950629734016L231.9211796951294,44.208712256871166L232.61763969421386,44.14682135693511L233.31409969329835,44.03977010396051L234.0105596923828,45.03476482455835L234.70701969146728,45.51964759496826L235.40347969055176,45.147247443482286L236.09993968963624,45.972269506469274L236.7963996887207,46.12153508139829L237.49285968780518,46.11550965979825L238.18931968688963,46.753925506954545L238.88577968597414,46.70813472751115L239.5822396850586,46.47136111815735L240.27869968414308,47.001089028403385L240.97515968322753,46.571950500482416L241.671619682312,47.139540365772575L242.3680796813965,46.953843418795L243.06453968048098,46.381367748867376" fill="none"></path></g></g></g></g></g></g><g transform="translate(51, 177)" clip-path="url(#clip_1)"><clipPath id="clip_1"><rect width="278" height="22"></rect></clipPath><g><g><line x1="0" y1="0" x2="0" y2="5" style="visibility: inherit;" fill="rgb(0, 0, 0)" stroke="rgb(204, 204, 204)" stroke-width="1px"></line><line x1="34.82299995422363" y1="0" x2="34.82299995422363" y2="5" style="visibility: inherit;" fill="rgb(0, 0, 0)" stroke="rgb(204, 204, 204)" stroke-width="1px"></line><line x1="69.64599990844727" y1="0" x2="69.64599990844727" y2="5" style="visibility: inherit;" fill="rgb(0, 0, 0)" stroke="rgb(204, 204, 204)" stroke-width="1px"></line><line x1="104.4689998626709" y1="0" x2="104.4689998626709" y2="5" style="visibility: inherit;" fill="rgb(0, 0, 0)" stroke="rgb(204, 204, 204)" stroke-width="1px"></line><line x1="139.29199981689453" y1="0" x2="139.29199981689453" y2="5" style="visibility: inherit;" fill="rgb(0, 0, 0)" stroke="rgb(204, 204, 204)" stroke-width="1px"></line><line x1="174.11499977111816" y1="0" x2="174.11499977111816" y2="5" style="visibility: inherit;" fill="rgb(0, 0, 0)" stroke="rgb(204, 204, 204)" stroke-width="1px"></line><line x1="208.9379997253418" y1="0" x2="208.9379997253418" y2="5" style="visibility: inherit;" fill="rgb(0, 0, 0)" stroke="rgb(204, 204, 204)" stroke-width="1px"></line><line x1="243.76099967956543" y1="0" x2="243.76099967956543" y2="5" style="visibility: inherit;" fill="rgb(0, 0, 0)" stroke="rgb(204, 204, 204)" stroke-width="1px"></line><line x1="278.58399963378906" y1="0" x2="278.58399963378906" y2="5" style="visibility: inherit;" fill="rgb(0, 0, 0)" stroke="rgb(204, 204, 204)" stroke-width="1px"></line></g><g transform="translate(0, 8)"><text style="text-anchor: middle; visibility: hidden; font-family: &quot;Helvetica Neue&quot;, sans-serif; font-size: 12px; font-weight: 200;" x="0" y="0" dx="0em" dy="0.95em" fill="rgb(50, 49, 63)" stroke="none" stroke-width="1px">-50</text><text style="text-anchor: middle; visibility: inherit; font-family: &quot;Helvetica Neue&quot;, sans-serif; font-size: 12px; font-weight: 200;" x="34.82299995422363" y="0" dx="0em" dy="0.95em" fill="rgb(50, 49, 63)" stroke="none" stroke-width="1px">0</text><text style="text-anchor: middle; visibility: inherit; font-family: &quot;Helvetica Neue&quot;, sans-serif; font-size: 12px; font-weight: 200;" x="69.64599990844727" y="0" dx="0em" dy="0.95em" fill="rgb(50, 49, 63)" stroke="none" stroke-width="1px">50</text><text style="text-anchor: middle; visibility: inherit; font-family: &quot;Helvetica Neue&quot;, sans-serif; font-size: 12px; font-weight: 200;" x="104.4689998626709" y="0" dx="0em" dy="0.95em" fill="rgb(50, 49, 63)" stroke="none" stroke-width="1px">100</text><text style="text-anchor: middle; visibility: inherit; font-family: &quot;Helvetica Neue&quot;, sans-serif; font-size: 12px; font-weight: 200;" x="139.29199981689453" y="0" dx="0em" dy="0.95em" fill="rgb(50, 49, 63)" stroke="none" stroke-width="1px">150</text><text style="text-anchor: middle; visibility: inherit; font-family: &quot;Helvetica Neue&quot;, sans-serif; font-size: 12px; font-weight: 200;" x="174.11499977111816" y="0" dx="0em" dy="0.95em" fill="rgb(50, 49, 63)" stroke="none" stroke-width="1px">200</text><text style="text-anchor: middle; visibility: inherit; font-family: &quot;Helvetica Neue&quot;, sans-serif; font-size: 12px; font-weight: 200;" x="208.9379997253418" y="0" dx="0em" dy="0.95em" fill="rgb(50, 49, 63)" stroke="none" stroke-width="1px">250</text><text style="text-anchor: middle; visibility: inherit; font-family: &quot;Helvetica Neue&quot;, sans-serif; font-size: 12px; font-weight: 200;" x="243.76099967956543" y="0" dx="0em" dy="0.95em" fill="rgb(50, 49, 63)" stroke="none" stroke-width="1px">300</text><text style="text-anchor: middle; visibility: hidden; font-family: &quot;Helvetica Neue&quot;, sans-serif; font-size: 12px; font-weight: 200;" x="278.58399963378906" y="0" dx="0em" dy="0.95em" fill="rgb(50, 49, 63)" stroke="none" stroke-width="1px">350</text></g><line x1="0" y1="0" x2="278.58399963378906" y2="0" fill="rgb(0, 0, 0)" stroke="rgb(204, 204, 204)" stroke-width="1px"></line></g></g></g></g></svg>