<svg viewBox="0 0 330 200" xmlns="http://www.w3.org/2000/svg"><g><g><g><g><g><line x1="51.41600036621094" y1="177.9749994277954" x2="46.41600036621094" y2="177.9749994277954" style="visibility: inherit;" fill="rgb(0, 0, 0)" stroke="rgb(204, 204, 204)" stroke-width="1px"></line><line x1="51.41600036621094" y1="160.17749948501586" x2="46.41600036621094" y2="160.17749948501586" style="visibility: inherit;" fill="rgb(0, 0, 0)" stroke="rgb(204, 204, 204)" stroke-width="1px"></line><line x1="51.41600036621094" y1="142.3799995422363" x2="46.41600036621094" y2="142.3799995422363" style="visibility: inherit;" fill="rgb(0, 0, 0)" stroke="rgb(204, 204, 204)" stroke-width="1px"></line><line x1="51.41600036621094" y1="124.58249959945678" x2="46.41600036621094" y2="124.58249959945678" style="visibility: inherit;" fill="rgb(0, 0, 0)" stroke="rgb(204, 204, 204)" stroke-width="1px"></line><line x1="51.41600036621094" y1="106.78499965667724" x2="46.41600036621094" y2="106.78499965667724" style="visibility: inherit;" fill="rgb(0, 0, 0)" stroke="rgb(204, 204, 204)" stroke-width="1px"></line><line x1="51.41600036621094" y1="88.98749971389769" x2="46.41600036621094" y2="88.98749971389769" style="visibility: inherit;" fill="rgb(0, 0, 0)" stroke="rgb(204, 204, 204)" stroke-width="1px"></line><line x1="51.41600036621094" y1="71.18999977111817" x2="46.41600036621094" y2="71.18999977111817" style="visibility: inherit;" fill="rgb(0, 0, 0)" stroke="rgb(204, 204, 204)" stroke-width="1px"></line><line x1="51.41600036621094" y1="53.392499828338615" x2="46.41600036621094" y2="53.392499828338615" style="visibility: inherit;" fill="rgb(0, 0, 0)" stroke="rgb(204, 204, 204)" stroke-width="1px"></line><line x1="51.41600036621094" y1="35.594999885559105" x2="46.41600036621094" y2="35.594999885559105" style="visibility: inherit;" fill="rgb(0, 0, 0)" stroke="rgb(204, 204, 204)" stroke-width="1px"></line><line x1="51.41600036621094" y1="17.797499942779524" x2="46.41600036621094" y2="17.797499942779524" style="visibility: inherit;" fill="rgb(0, 0, 0)" stroke="rgb(204, 204, 204)" stroke-width="1px"></line><line x1="51.41600036621094" y1="0" x2="46.41600036621094" y2="0" style="visibility: inherit;" fill="rgb(0, 0, 0)" stroke="rgb(204, 204, 204)" stroke-width="1px"></line></g><g transform="translate(41.41600036621094, 0)"><text style="text-anchor: end; visibility: hidden; font-family: &quot;Helvetica Neue&quot;, sans-serif; font-size: 12px; font-weight: 200;" x="0" y="177.9749994277954" dx="0em" dy="0.3em" fill="rgb(50, 49, 63)" stroke="none" stroke-width="1px">0.3</text><text style="text-anchor: end; visibility: inherit; font-family: &quot;Helvetica Neue&quot;, sans-serif; font-size: 12px; font-weight: 200;" x="0" y="160.17749948501586" dx="0em" dy="0.3em" fill="rgb(50, 49, 63)" stroke="none" stroke-width="1px">0.35</text><text style="text-anchor: end; visibility: hidden; font-family: &quot;Helvetica Neue&quot;, sans-serif; font-size: 12px; font-weight: 200;" x="0" y="142.3799995422363" dx="0em" dy="0.3em" fill="rgb(50, 49, 63)" stroke="none" stroke-width="1px">0.4</text><text style="text-anchor: end; visibility: inherit; font-family: &quot;Helvetica Neue&quot;, sans-serif; font-size: 12px; font-weight: 200;" x="0" y="124.58249959945678" dx="0em" dy="0.3em" fill="rgb(50, 49, 63)" stroke="none" stroke-width="1px">0.45</text><text style="text-anchor: end; visibility: hidden; font-family: &quot;Helvetica Neue&quot;, sans-serif; font-size: 12px; font-weight: 200;" x="0" y="106.78499965667724" dx="0em" dy="0.3em" fill="rgb(50, 49, 63)" stroke="none" stroke-width="1px">0.5</text><text style="text-anchor: end; visibility: inherit; font-family: &quot;Helvetica Neue&quot;, sans-serif; font-size: 12px; font-weight: 200;" x="0" y="88.98749971389769" dx="0em" dy="0.3em" fill="rgb(50, 49, 63)" stroke="none" stroke-width="1px">0.55</text><text style="text-anchor: end; visibility: hidden; font-family: &quot;Helvetica Neue&quot;, sans-serif; font-size: 12px; font-weight: 200;" x="0" y="71.18999977111817" dx="0em" dy="0.3em" fill="rgb(50, 49, 63)" stroke="none" stroke-width="1px">0.6</text><text style="text-anchor: end; visibility: inherit; font-family: &quot;Helvetica Neue&quot;, sans-serif; font-size: 12px; font-weight: 200;" x="0" y="53.392499828338615" dx="0em" dy="0.3em" fill="rgb(50, 49, 63)" stroke="none" stroke-width="1px">0.65</text><text style="text-anchor: end; visibility: hidden; font-family: &quot;Helvetica Neue&quot;, sans-serif; font-size: 12px; font-weight: 200;" x="0" y="35.594999885559105" dx="0em" dy="0.3em" fill="rgb(50, 49, 63)" stroke="none" stroke-width="1px">0.7</text><text style="text-anchor: end; visibility: inherit; font-family: &quot;Helvetica Neue&quot;, sans-serif; font-size: 12px; font-weight: 200;" x="0" y="17.797499942779524" dx="0em" dy="0.3em" fill="rgb(50, 49, 63)" stroke="none" stroke-width="1px">0.75</text><text style="text-anchor: end; visibility: hidden; font-family: &quot;Helvetica Neue&quot;, sans-serif; font-size: 12px; font-weight: 200;" x="0" y="0" dx="0em" dy="0.3em" fill="rgb(50, 49, 63)" stroke="none" stroke-width="1px">0.8</text></g><line x1="51.41600036621094" y1="0" x2="51.41600036621094" y2="177.9749994277954" fill="rgb(0, 0, 0)" stroke="rgb(204, 204, 204)" stroke-width="1px"></line></g></g><g transform="translate(51, 0)" clip-path="url(#clip_0)"><clipPath id="clip_0"><rect width="278" height="177"></rect></clipPath><g><g><g><line x1="0" y1="0" x2="0" y2="177.9749994277954" fill="rgb(0, 0, 0)" stroke="rgb(60, 60, 60)" stroke-width="1px" opacity="0.25"></line><line x1="34.82299995422363" y1="0" x2="34.82299995422363" y2="177.9749994277954" fill="rgb(0, 0, 0)" stroke="rgb(60, 60, 60)" stroke-width="1px" opacity="0.25"></line><line x1="69.64599990844727" y1="0" x2="69.64599990844727" y2="177.9749994277954" fill="rgb(0, 0, 0)" stroke="rgb(60, 60, 60)" stroke-width="1px" opacity="0.25"></line><line x1="104.4689998626709" y1="0" x2="104.4689998626709" y2="177.9749994277954" fill="rgb(0, 0, 0)" stroke="rgb(60, 60, 60)" stroke-width="1px" opacity="0.25"></line><line x1="139.29199981689453" y1="0" x2="139.29199981689453" y2="177.9749994277954" fill="rgb(0, 0, 0)" stroke="rgb(60, 60, 60)" stroke-width="1px" opacity="0.25"></line><line x1="174.11499977111816" y1="0" x2="174.11499977111816" y2="177.9749994277954" fill="rgb(0, 0, 0)" stroke="rgb(60, 60, 60)" stroke-width="1px" opacity="0.25"></line><line x1="208.9379997253418" y1="0" x2="208.9379997253418" y2="177.9749994277954" fill="rgb(0, 0, 0)" stroke="rgb(60, 60, 60)" stroke-width="1px" opacity="0.25"></line><line x1="243.76099967956543" y1="0" x2="243.76099967956543" y2="177.9749994277954" fill="rgb(0, 0, 0)" stroke="rgb(60, 60, 60)" stroke-width="1px" opacity="0.25"></line><line x1="278.58399963378906" y1="0" x2="278.58399963378906" y2="177.9749994277954" fill="rgb(0, 0, 0)" stroke="rgb(60, 60, 60)" stroke-width="1px" opacity="0.25"></line></g><g><line x1="0" y1="177.9749994277954" x2="278.58399963378906" y2="177.9749994277954" fill="rgb(0, 0, 0)" stroke="rgb(60, 60, 60)" stroke-width="1px" opacity="0.25"></line><line x1="0" y1="160.17749948501586" x2="278.58399963378906" y2="160.17749948501586" fill="rgb(0, 0, 0)" stroke="rgb(60, 60, 60)" stroke-width="1px" opacity="0.25"></line><line x1="0" y1="142.3799995422363" x2="278.58399963378906" y2="142.3799995422363" fill="rgb(0, 0, 0)" stroke="rgb(60, 60, 60)" stroke-width="1px" opacity="0.25"></line><line x1="0" y1="124.58249959945678" x2="278.58399963378906" y2="124.58249959945678" fill="rgb(0, 0, 0)" stroke="rgb(60, 60, 60)" stroke-width="1px" opacity="0.25"></line><line x1="0" y1="106.78499965667724" x2="278.58399963378906" y2="106.78499965667724" fill="rgb(0, 0, 0)" stroke="rgb(60, 60, 60)" stroke-width="1px" opacity="0.25"></line><line x1="0" y1="88.98749971389769" x2="278.58399963378906" y2="88.98749971389769" fill="rgb(0, 0, 0)" stroke="rgb(60, 60, 60)" stroke-width="1px" opacity="0.25"></line><line x1="0" y1="71.18999977111817" x2="278.58399963378906" y2="71.18999977111817" fill="rgb(0, 0, 0)" stroke="rgb(60, 60, 60)" stroke-width="1px" opacity="0.25"></line><line x1="0" y1="53.392499828338615" x2="278.58399963378906" y2="53.392499828338615" fill="rgb(0, 0, 0)" stroke="rgb(60, 60, 60)" stroke-width="1px" opacity="0.25"></line><line x1="0" y1="35.594999885559105" x2="278.58399963378906" y2="35.594999885559105" fill="rgb(0, 0, 0)" stroke="rgb(60, 60, 60)" stroke-width="1px" opacity="0.25"></line><line x1="0" y1="17.797499942779524" x2="278.58399963378906" y2="17.797499942779524" fill="rgb(0, 0, 0)" stroke="rgb(60, 60, 60)" stroke-width="1px" opacity="0.25"></line><line x1="0" y1="0" x2="278.58399963378906" y2="0" fill="rgb(0, 0, 0)" stroke="rgb(60, 60, 60)" stroke-width="1px" opacity="0.25"></line></g></g></g><g><g><line x1="0" y1="284.75999908447267" x2="278.58399963378906" y2="284.75999908447267" fill="rgb(0, 0, 0)" stroke="rgb(153, 153, 153)" stroke-width="1.5px"></line></g></g><g><g><line x1="34.82299995422363" y1="0" x2="34.82299995422363" y2="177.9749994277954" fill="rgb(0, 0, 0)" stroke="rgb(153, 153, 153)" stroke-width="1.5px"></line></g></g><g><g><g><g><g><path style="fill: none;" stroke="rgb(51, 187, 238)" stroke-width="2px" d="M41.09113994598388,182.36030338993405L41.78759994506836,175.71115518105697L42.48405994415283,167.62397858013722L43.18051994323731,165.8584664025049L43.876979942321775,160.6046382276392L44.57343994140625,156.6607133707223L45.269899940490724,147.69788813252165L45.9663599395752,147.82603442288877L46.66281993865967,140.6073671833048L47.35927993774414,137.55331647487594L48.05573993682861,137.4465349716611L48.75219993591308,138.39336420566082L49.44865993499756,129.03899264482357L50.14511993408203,128.76135649321031L50.8415799331665,127.55112722694109L51.538039932250975,122.58918193116902L52.23449993133545,122.2047536682043L52.930959930419924,120.34669610670089L53.6274199295044,115.4417058964405L54.323879928588866,114.56606786729621L55.02033992767334,113.06395572193337L55.716799926757815,113.79721134136678L56.41325992584229,112.77208345097635L57.10971992492676,112.1811996331172L57.806179924011225,110.01702307317639L58.5026399230957,109.66107765703582L59.199099922180174,111.30556160397292L59.89555992126465,104.6706495144396L60.592019920349124,108.67865812467669L61.28847991943359,104.54963189188099L61.984939918518066,102.27866322058871L62.68139991760254,107.57521036162233L63.377859916687015,106.54294319528678L64.07431991577148,104.10114109186934L64.77077991485596,104.31470409829903L65.46723991394043,102.17901038518237L66.1636999130249,99.77278797198771L66.86015991210937,97.95031010070709L67.55661991119385,102.42104563029959L68.25307991027832,101.40302519144443L68.9495399093628,96.43398305227372L69.64599990844727,100.37078984951874L70.34245990753173,100.82638810106566L71.03891990661621,101.0328436559601L71.73537990570068,103.31804844659614L72.43183990478516,102.69157433037758L73.12829990386963,100.18567786550334L73.8247599029541,106.53583574375152L74.52121990203858,99.39547776869487L75.21767990112305,102.10070112065505L75.91413990020753,102.25019098190118L76.610599899292,110.65061524906683L77.30705989837647,98.27067582662487L78.00351989746095,100.35653251390174L78.6999798965454,100.61282509463597L79.39643989562988,99.17478609445668L80.09289989471435,100.0433166720657L80.78935989379882,99.33853329131982L81.4858198928833,94.63997741968062L82.18227989196777,99.70158615899565L82.87873989105225,103.3821215917797L83.57519989013672,106.34361630820085L84.27165988922118,105.5107078533611L84.96811988830567,102.18611783671763L85.66457988739013,100.34942506236648L86.36103988647461,92.71073926145839L87.05749988555908,100.74097138500308L87.75395988464355,101.30337235603808L88.45041988372803,101.27490011735055L89.1468798828125,101.71626224955371L89.84333988189698,106.03750791790007L90.53979988098145,108.50067480846978L91.23625988006592,102.06510021415902L91.9327198791504,103.19703082403753L92.62917987823486,101.75899182385824L93.32563987731935,101.09691680114365L94.02209987640381,102.59190027869799L94.71855987548828,98.28491194596863L95.41501987457276,106.79211771634913L96.11147987365722,103.01194005629536L96.8079398727417,96.9038174231644L97.50439987182617,100.32806027521421L98.20085987091063,99.15342130730441L98.89731986999512,104.00859570799825L99.59377986907958,97.5160554200392L100.29023986816406,98.98256665890601L100.98669986724853,96.28447197475434L101.683159866333,107.73894695034885L102.37961986541748,97.00349147484398L103.07607986450195,100.18567786550334L103.77253986358643,96.49803498118403L104.4689998626709,95.45154230364135L105.16545986175537,91.07337337419317L105.86191986083985,106.71381905995842L106.55837985992432,98.0855850588827L107.2548398590088,98.44153047502327L107.95129985809326,98.23507492012884L108.64775985717773,96.44821917161748L109.34421985626221,95.02441629078196L110.04067985534668,98.4771313815193L110.73713985443116,92.48291891941169L111.43359985351563,93.75010327119257L112.1300598526001,90.35435387410352L112.82651985168458,100.9830066301203L113.52297985076903,95.57968859400846L114.21943984985352,98.75476753313255L114.91589984893798,98.18523789428905L115.61235984802245,96.732962774766L116.30881984710693,95.1810348198366L117.0052798461914,94.1843791681337L117.70173984527588,97.5231840878477L118.39819984436035,92.831756884017L119.09465984344482,92.35479384531781L119.7911198425293,95.38749037473103L120.48757984161377,97.04619983287527L121.18403984069825,95.30205244239521L121.88049983978271,101.1538612785187L122.57695983886718,93.58637729060267L123.27341983795166,96.17769047153949L123.96987983703613,94.61150518099309L124.66633983612061,97.98591100720311L125.36279983520508,93.18770230015757L126.05925983428955,89.67804273204517L126.75571983337403,97.53029153938296L127.4521798324585,88.61731393515872L128.14863983154297,91.89917437749766L128.84509983062745,86.28227211868288L129.54155982971193,92.63953744846633L130.23801982879638,93.57924862279417L130.93447982788086,95.07425331662175L131.63093982696532,88.01220460609242L132.3273998260498,91.89204570968916L133.02385982513428,90.38993356432631L133.72031982421873,91.8279725645056L134.41677982330322,95.98547103598882L135.1132398223877,88.30407687704944L135.80969982147215,89.64957049335764L136.50615982055663,91.34388085799792L137.20261981964111,93.0097402002239L137.8990798187256,89.85602604825208L138.59553981781005,84.38863486695668L139.29199981689453,89.18682235772899L139.98845981597898,89.20818714488125L140.68491981506347,88.01931205762769L141.38137981414795,91.8279725645056L142.07783981323243,88.41798704807279L142.77429981231688,87.5779287091513L143.47075981140136,91.16591875806425L144.16721981048582,90.14789831920909L144.86367980957033,85.15036272507761L145.56013980865478,96.05667284898088L146.25659980773926,84.53099606039432L146.95305980682372,82.6729384988909L147.6495198059082,81.71188375368403L148.34597980499268,89.28649640940857L149.04243980407716,84.47405158301926L149.73889980316162,85.86225355735876L150.4353598022461,83.87604970548823L151.13181980133055,86.49585634138582L151.82827980041506,85.89072579604628L152.5247397994995,84.27472469593333L153.221199798584,76.87807414014246L153.91765979766845,78.07407789520452L154.61411979675293,78.61511407908726L155.3105797958374,78.75036782098964L156.0070397949219,79.43380763085649L156.70349979400635,81.46271984075831L157.3999597930908,79.02802518887613L158.09641979217528,79.84669752437212L158.79287979125976,80.90742632125857L159.48933979034425,77.3764019659939L160.1857997894287,75.04138136579131L160.88225978851318,79.50498822757531L161.57871978759763,81.44848372141455L162.27517978668214,76.24449257238864L162.9716397857666,79.3768419372082L163.66809978485108,80.62268271811006L164.36455978393553,73.00534048808099L165.06101978302001,78.74326036945438L165.7574797821045,74.32236186570167L166.45393978118898,74.5288174205961L167.15039978027343,73.90234330437754L167.8468597793579,77.71813247906395L168.54331977844237,71.1828838330736L169.23977977752688,73.3470497848778L169.93623977661133,71.70257644607732L170.6326997756958,73.70301641729161L171.32915977478027,74.67119983030697L172.02561977386475,70.50657269101525L172.72207977294923,71.80935794929216L173.4185397720337,70.72013569744495L174.11499977111816,71.90190333316325L174.81145977020262,71.45341253315159L175.5079197692871,70.4424995458317L176.20437976837158,69.86586245545293L176.90083976745606,69.4529725619373L177.59729976654052,66.77622144866466L178.293759765625,67.45253259072301L178.99021976470945,64.7544166902981L179.68667976379396,67.92949562942219L180.38313976287841,64.35576291612624L181.0795997619629,67.08945850677394L181.77605976104735,66.08567418726254L182.47251976013183,63.2024887353687L183.1689797592163,65.97176401623919L183.8654397583008,64.96800091300103L184.56189975738525,61.65053956416607L185.25835975646973,62.64719521586896L185.95481975555418,59.77111721551039L186.6512797546387,62.71126836105252L187.34773975372315,59.59315511557672L188.04419975280763,59.98470143821332L188.74065975189208,61.72884882869339L189.43711975097656,57.86322262816718L190.13357975006105,59.7355375252876L190.83003974914553,58.93108009286213L191.52649974822998,56.83809473777676L192.22295974731443,56.361131699077575L192.91941974639892,56.98047714748763L193.6158797454834,55.613618744027164L194.31233974456788,54.908856579554524L195.00879974365233,53.64167222777364L195.7052597427368,53.976252856761946L196.40171974182127,52.28194249212167L197.09817974090578,51.61276001787182L197.79463973999023,50.801173917637854L198.4910997390747,49.27771820139597L199.18755973815917,48.95735247547819L199.88401973724365,45.98875030752177L200.58047973632813,49.135335791685094L201.2769397354126,48.85057097226334L201.97339973449706,48.38784405290792L202.66985973358155,44.130671529745115L203.366319732666,45.974492971904766L204.0627797317505,43.96694554915521L204.75923973083496,43.461489055495264L205.45569972991944,42.45772595225711L206.1521597290039,41.40410460690592L206.84861972808838,41.68174075851917L207.54507972717286,40.023010084101685L208.24153972625734,39.70266557445714L208.9379997253418,39.830811864824256L209.63445972442625,37.011678341840735L210.33091972351073,36.819458906290066L211.0273797225952,40.19386473250009L211.7238397216797,36.44927737080573L212.42029972076415,37.033043128993L213.11675971984863,33.1247085704355L213.81321971893308,36.2499504837198L214.5096797180176,35.78009489655588L215.20613971710205,32.18499739610766L215.90259971618653,32.48399833487318L216.59905971527098,31.3947972992992L217.29551971435546,32.38432428319359L217.99197971343995,28.561427656971915L218.68843971252443,29.51537495064352L219.38489971160888,27.507806311620726L220.08135971069336,27.75699144081969L220.77781970977782,26.845752505179377L221.47427970886233,25.64974875011731L222.17073970794678,24.873784772652613L222.86719970703126,24.418165304832456L223.56365970611571,23.905601359637245L224.2601197052002,22.232634565875998L224.95657970428468,22.48179847880172L225.65303970336916,22.382145643395376L226.3494997024536,20.182357568821914L227.04595970153807,19.876249178521135L227.74241970062255,20.303396407653764L228.43887969970703,19.97592323020072L229.1353396987915,20.474251056052168L229.83179969787597,18.423974058998084L230.52825969696045,18.110737000888804L231.2247196960449,17.163918375025702L231.9211796951294,17.946989804025662L232.61763969421386,16.587260068373695L233.31409969329835,16.580152616838433L234.0105596923828,16.57302394902993L234.70701969146728,15.626205323166829L235.40347969055176,14.92855061022945L236.09993968963624,14.836005226358367L236.7963996887207,14.985495087604505L237.49285968780518,14.373257090729709L238.18931968688963,14.480038593944556L238.88577968597414,13.689838497136094L239.5822396850586,13.981710768093109L240.27869968414308,13.967474648749345L240.97515968322753,13.939002410061818L241.671619682312,13.4762754907064L242.3680796813965,13.00641990354248L243.06453968048098,12.920981971206658" fill="none"></path></g><g><path style="fill: none;" stroke="rgb(0, 119, 187)" stroke-width="2px" d="M40.39467994689941,181.6412838898444L41.09113994598388,177.79702247647046L41.78759994506836,170.60683808371064L42.48405994415283,162.52676893432616L43.18051994323731,159.7859552840066L43.876979942321775,154.16194557365657L44.57343994140625,150.35327445864203L45.269899940490724,140.10192129778147L45.9663599395752,142.7359534448862L46.66281993865967,135.47456723913433L47.35927993774414,131.4523331176901L48.05573993682861,131.8082891419673L48.75219993591308,129.88615843528032L49.44865993499756,123.69262969422338L50.14511993408203,122.87393614245416L50.8415799331665,124.9028589604926L51.538039932250975,119.42122105171681L52.23449993133545,119.20765804528712L52.930959930419924,117.57028154988528L53.6274199295044,113.15650110580445L54.323879928588866,111.12758889590263L55.02033992767334,109.06307577950479L55.716799926757815,109.81057812641858L56.41325992584229,108.35118494722364L57.10971992492676,107.67487380516529L57.806179924011225,110.98520648619176L58.5026399230957,108.45796645043849L59.199099922180174,107.28332748252869L59.89555992126465,104.64930594356058L60.592019920349124,105.75274309847832L61.28847991943359,98.84731291700363L61.984939918518066,102.01526318831922L62.68139991760254,103.9373938950062L63.377859916687015,105.71714219198229L64.07431991577148,99.09647682992936L64.77077991485596,103.58144847886562L65.46723991394043,100.19993520112034L66.1636999130249,97.74387576208589L66.86015991210937,95.85732474562171L67.55661991119385,101.30337235603808L68.25307991027832,100.23551489134313L68.9495399093628,95.75054324240686L69.64599990844727,98.52696840735909L70.34245990753173,100.23551489134313L71.03891990661621,96.99638402330872L71.73537990570068,101.51693536246778L72.43183990478516,99.13207773642539L73.12829990386963,101.65931777217865L73.8247599029541,103.75943179507253L74.52121990203858,95.03865241012572L75.21767990112305,97.81505635880471L75.91413990020753,97.77945545230868L76.610599899292,108.06642012780189L77.30705989837647,94.36234126806737L78.00351989746095,99.13207773642539L78.6999798965454,99.31003983635905L79.39643989562988,96.24887106825831L80.09289989471435,96.14208956504346L80.78935989379882,95.82174505539892L81.4858198928833,91.51473550639632L82.18227989196777,94.04199675842283L82.87873989105225,98.27780449443337L83.57519989013672,102.69157433037758L84.27165988922118,101.73051958517071L84.96811988830567,101.23217054304602L85.66457988739013,94.86066909391882L86.36103988647461,90.58928166768548L87.05749988555908,99.09647682992936L87.75395988464355,98.91851472999569L88.45041988372803,97.70827485558986L89.1468798828125,97.49471184916017L89.84333988189698,101.80170018188953L90.53979988098145,105.25441527262687L91.23625988006592,98.84731291700363L91.9327198791504,95.64376173919202L92.62917987823486,97.63709425887104L93.32563987731935,98.66932960079673L94.02209987640381,96.96078311681269L94.71855987548828,97.10316552652357L95.41501987457276,103.26110396922108L96.11147987365722,100.23551489134313L96.8079398727417,96.85400161359784L97.50439987182617,97.03196371353151L98.20085987091063,96.78279980060579L98.89731986999512,97.42351003616811L99.59377986907958,90.90962617733003L100.29023986816406,93.54366893257138L100.98669986724853,93.36568561636447L101.683159866333,101.30337235603808L102.37961986541748,93.82841253571989L103.07607986450195,99.31003983635905L103.77253986358643,94.1843791681337L104.4689998626709,92.40460965488437L105.16545986175537,89.98415112234595L105.86191986083985,101.05420844311236L106.55837985992432,96.85400161359784L107.2548398590088,96.24887106825831L107.95129985809326,95.43019873276232L108.64775985717773,95.82174505539892L109.34421985626221,91.37237431295868L110.04067985534668,98.13542208472249L110.73713985443116,90.51807985469343L111.43359985351563,93.57924862279417L112.1300598526001,90.34011775475976L112.82651985168458,95.21661451005939L113.52297985076903,93.54366893257138L114.21943984985352,98.09982117822646L114.91589984893798,96.14208956504346L115.61235984802245,95.99970715533259L116.30881984710693,93.29450501964565L117.0052798461914,93.2233032066536L117.70173984527588,93.0097402002239L118.39819984436035,93.0097402002239L119.09465984344482,93.65045043578623L119.7911198425293,95.1810348198366L120.48757984161377,94.7894884972L121.18403984069825,95.5725811424732L121.88049983978271,101.01860753661633L122.57695983886718,94.54032458427427L123.27341983795166,92.97413929372787L123.96987983703613,94.57590427449706L124.66633983612061,95.50137932948114L125.36279983520508,88.91631487392424L126.05925983428955,91.2655715934706L126.75571983337403,95.39459782626629L127.4521798324585,84.6805071379137L128.14863983154297,91.6571179161072L128.84509983062745,87.7060749995184L129.54155982971193,90.83844558061121L130.23801982879638,95.64376173919202L130.93447982788086,93.04531989044669L131.63093982696532,88.84511306093218L132.3273998260498,91.12318918375972L133.02385982513428,88.4891676447916L133.72031982421873,90.76724376761915L134.41677982330322,92.51141237437245L135.1132398223877,84.14657840556622L135.80969982147215,92.65379478408333L136.50615982055663,88.77393246421336L137.20261981964111,91.47915581617353L137.8990798187256,88.24000373186588L138.59553981781005,85.92632670254231L139.29199981689453,89.55702510948656L139.98845981597898,88.4891676447916L140.68491981506347,85.96192760903834L141.38137981414795,92.47581146787643L142.07783981323243,87.38573048987386L142.77429981231688,86.03310820575716L143.47075981140136,90.94522708382605L144.16721981048582,91.12318918375972L144.86367980957033,88.24000373186588L145.56013980865478,97.88625817179677L146.25659980773926,84.57372563469885L146.95305980682372,84.71610804440972L147.6495198059082,83.43468757328507L148.34597980499268,88.66715096099851L149.04243980407716,86.46025543488979L149.73889980316162,85.42799887669086L150.4353598022461,86.78059994453433L151.13181980133055,85.28561646697999L151.82827980041506,85.74836460260865L152.5247397994995,83.54146907649992L153.221199798584,80.62268271811006L153.91765979766845,80.23113639547346L154.61411979675293,82.79397733772275L155.3105797958374,82.43801070530894L156.0070397949219,81.65493927630898L156.70349979400635,81.86850228273867L157.3999597930908,80.9430272277546L158.09641979217528,82.9007588409376L158.79287979125976,82.08206528916837L159.48933979034425,82.3312292020941L160.1857997894287,81.15659023418429L160.88225978851318,80.9430272277546L161.57871978759763,82.86515793444157L162.27517978668214,77.45471123052123L162.9716397857666,83.82623389592167L163.66809978485108,84.6805071379137L164.36455978393553,78.62935019843103L165.06101978302001,82.3312292020941L165.7574797821045,76.77842130473611L166.45393978118898,77.02758521766184L167.15039978027343,78.94971592434881L167.8468597793579,81.29897264389517L168.54331977844237,76.70721949174406L169.23977977752688,78.48696778872015L169.93623977661133,77.81067786293504L170.6326997756958,78.62935019843103L171.32915977478027,80.83624572453975L172.02561977386475,75.60378233682631L172.72207977294923,78.34458537900927L173.4185397720337,80.51587999862197L174.11499977111816,77.5970936402321L174.81145977020262,78.13102237257958L175.5079197692871,79.48364465669628L176.20437976837158,75.92412684647086L176.90083976745606,75.95972775296688L177.59729976654052,73.68165163013934L178.293759765625,73.25450440100671L178.99021976470945,72.36463025251867L179.68667976379396,76.31567316910746L180.38313976287841,70.90524768146035L181.0795997619629,76.77842130473611L181.77605976104735,73.00534048808099L182.47251976013183,73.61044981714728L183.1689797592163,74.42914336891651L183.8654397583008,71.18999128460887L184.56189975738525,71.18999128460887L185.25835975646973,72.61379416544439L185.95481975555418,70.15773472640994L186.6512797546387,69.41024298763277L187.34773975372315,71.2255921911049L188.04419975280763,68.09324282628533L188.74065975189208,70.0509532231951L189.43711975097656,69.90857081348422L190.13357975006105,68.37798642943385L190.83003974914553,71.47475610403062L191.52649974822998,67.91525951007843L192.22295974731443,70.4069198556089L192.91941974639892,68.62715034235957L193.6158797454834,66.45585572274688L194.31233974456788,68.16442342300415L195.00879974365233,65.81514548718455L195.7052597427368,66.31349452930924L196.40171974182127,63.00314063200953L197.09817974090578,63.679451774067886L197.79463973999023,62.36243039644721L198.4910997390747,62.18446829651354L199.18755973815917,61.50815715445519L199.88401973724365,60.33351818654539L200.58047973632813,61.86410257059576L201.2769397354126,61.686140470662096L201.97339973449706,63.82183418377876L202.66985973358155,59.26568193812368L203.366319732666,60.79626632217405L204.0627797317505,59.906392173686L204.75923973083496,60.44029968976024L205.45569972991944,59.47924494455337L206.1521597290039,60.2979384963226L206.84861972808838,60.938648731884925L207.54507972717286,59.30126162834647L208.24153972625734,57.1655679152298L208.9379997253418,59.23008103162765L209.63445972442625,58.44698838635445L210.33091972351073,56.09771045053485L211.0273797225952,58.69615229928017L211.7238397216797,56.7740215925932L212.42029972076415,55.35021871175768L213.11675971984863,55.95534925709721L213.81321971893308,57.30795032494068L214.5096797180176,57.69949664757728L215.20613971710205,55.5993826246834L215.90259971618653,54.95867238912108L216.59905971527098,53.53486950828555L217.29551971435546,53.60607132127761L217.99197971343995,51.75512121130946L218.68843971252443,54.46034456326963L219.38489971160888,53.14334440192219L220.08135971069336,52.71619717278956L220.77781970977782,52.75179807928559L221.47427970886233,52.609415669574716L222.17073970794678,49.93979322411056L222.86719970703126,49.0854987658453L223.56365970611571,50.651684056391716L224.2601197052002,48.37360793356416L224.95657970428468,49.22788117555618L225.65303970336916,50.5805034596729L226.3494997024536,48.33800702706813L227.04595970153807,47.87528010771271L227.74241970062255,48.62277184648988L228.43887969970703,47.59051528829096L229.1353396987915,47.27014956237318L229.83179969787597,48.26682643034931L230.52825969696045,47.19896896565436L231.2247196960449,48.33800702706813L231.9211796951294,47.19896896565436L232.61763969421386,46.41587632038116L233.31409969329835,45.88194758803368L234.0105596923828,46.73624204629894L234.70701969146728,45.98875030752177L235.40347969055176,46.629439326810854L236.09993968963624,47.305750468869206L236.7963996887207,45.95314940102574L237.49285968780518,46.38027541388513L238.18931968688963,45.84636789781089L238.88577968597414,45.84636789781089L239.5822396850586,45.66838458160399L240.27869968414308,45.63278367510796L240.97515968322753,45.419220668678264L241.671619682312,45.739565178322806L242.3680796813965,45.49040126539708L243.06453968048098,45.70398548810002" fill="none"></path></g></g></g></g></g></g><g transform="translate(51, 177)" clip-path="url(#clip_1)"><clipPath id="clip_1"><rect width="278" height="22"></rect></clipPath><g><g><line x1="0" y1="0" x2="0" y2="5" style="visibility: inherit;" fill="rgb(0, 0, 0)" stroke="rgb(204, 204, 204)" stroke-width="1px"></line><line x1="34.82299995422363" y1="0" x2="34.82299995422363" y2="5" style="visibility: inherit;" fill="rgb(0, 0, 0)" stroke="rgb(204, 204, 204)" stroke-width="1px"></line><line x1="69.64599990844727" y1="0" x2="69.64599990844727" y2="5" style="visibility: inherit;" fill="rgb(0, 0, 0)" stroke="rgb(204, 204, 204)" stroke-width="1px"></line><line x1="104.4689998626709" y1="0" x2="104.4689998626709" y2="5" style="visibility: inherit;" fill="rgb(0, 0, 0)" stroke="rgb(204, 204, 204)" stroke-width="1px"></line><line x1="139.29199981689453" y1="0" x2="139.29199981689453" y2="5" style="visibility: inherit;" fill="rgb(0, 0, 0)" stroke="rgb(204, 204, 204)" stroke-width="1px"></line><line x1="174.11499977111816" y1="0" x2="174.11499977111816" y2="5" style="visibility: inherit;" fill="rgb(0, 0, 0)" stroke="rgb(204, 204, 204)" stroke-width="1px"></line><line x1="208.9379997253418" y1="0" x2="208.9379997253418" y2="5" style="visibility: inherit;" fill="rgb(0, 0, 0)" stroke="rgb(204, 204, 204)" stroke-width="1px"></line><line x1="243.76099967956543" y1="0" x2="243.76099967956543" y2="5" style="visibility: inherit;" fill="rgb(0, 0, 0)" stroke="rgb(204, 204, 204)" stroke-width="1px"></line><line x1="278.58399963378906" y1="0" x2="278.58399963378906" y2="5" style="visibility: inherit;" fill="rgb(0, 0, 0)" stroke="rgb(204, 204, 204)" stroke-width="1px"></line></g><g transform="translate(0, 8)"><text style="text-anchor: middle; visibility: hidden; font-family: &quot;Helvetica Neue&quot;, sans-serif; font-size: 12px; font-weight: 200;" x="0" y="0" dx="0em" dy="0.95em" fill="rgb(50, 49, 63)" stroke="none" stroke-width="1px">-50</text><text style="text-anchor: middle; visibility: inherit; font-family: &quot;Helvetica Neue&quot;, sans-serif; font-size: 12px; font-weight: 200;" x="34.82299995422363" y="0" dx="0em" dy="0.95em" fill="rgb(50, 49, 63)" stroke="none" stroke-width="1px">0</text><text style="text-anchor: middle; visibility: inherit; font-family: &quot;Helvetica Neue&quot;, sans-serif; font-size: 12px; font-weight: 200;" x="69.64599990844727" y="0" dx="0em" dy="0.95em" fill="rgb(50, 49, 63)" stroke="none" stroke-width="1px">50</text><text style="text-anchor: middle; visibility: inherit; font-family: &quot;Helvetica Neue&quot;, sans-serif; font-size: 12px; font-weight: 200;" x="104.4689998626709" y="0" dx="0em" dy="0.95em" fill="rgb(50, 49, 63)" stroke="none" stroke-width="1px">100</text><text style="text-anchor: middle; visibility: inherit; font-family: &quot;Helvetica Neue&quot;, sans-serif; font-size: 12px; font-weight: 200;" x="139.29199981689453" y="0" dx="0em" dy="0.95em" fill="rgb(50, 49, 63)" stroke="none" stroke-width="1px">150</text><text style="text-anchor: middle; visibility: inherit; font-family: &quot;Helvetica Neue&quot;, sans-serif; font-size: 12px; font-weight: 200;" x="174.11499977111816" y="0" dx="0em" dy="0.95em" fill="rgb(50, 49, 63)" stroke="none" stroke-width="1px">200</text><text style="text-anchor: middle; visibility: inherit; font-family: &quot;Helvetica Neue&quot;, sans-serif; font-size: 12px; font-weight: 200;" x="208.9379997253418" y="0" dx="0em" dy="0.95em" fill="rgb(50, 49, 63)" stroke="none" stroke-width="1px">250</text><text style="text-anchor: middle; visibility: inherit; font-family: &quot;Helvetica Neue&quot;, sans-serif; font-size: 12px; font-weight: 200;" x="243.76099967956543" y="0" dx="0em" dy="0.95em" fill="rgb(50, 49, 63)" stroke="none" stroke-width="1px">300</text><text style="text-anchor: middle; visibility: hidden; font-family: &quot;Helvetica Neue&quot;, sans-serif; font-size: 12px; font-weight: 200;" x="278.58399963378906" y="0" dx="0em" dy="0.95em" fill="rgb(50, 49, 63)" stroke="none" stroke-width="1px">350</text></g><line x1="0" y1="0" x2="278.58399963378906" y2="0" fill="rgb(0, 0, 0)" stroke="rgb(204, 204, 204)" stroke-width="1px"></line></g></g></g></g></svg>