<svg viewBox="0 0 330 200" xmlns="http://www.w3.org/2000/svg"><g><g><g><g><g><line x1="51.41600036621094" y1="177.9749994277954" x2="46.41600036621094" y2="177.9749994277954" style="visibility: inherit;" fill="rgb(0, 0, 0)" stroke="rgb(204, 204, 204)" stroke-width="1px"></line><line x1="51.41600036621094" y1="155.72812449932096" x2="46.41600036621094" y2="155.72812449932096" style="visibility: inherit;" fill="rgb(0, 0, 0)" stroke="rgb(204, 204, 204)" stroke-width="1px"></line><line x1="51.41600036621094" y1="133.48124957084656" x2="46.41600036621094" y2="133.48124957084656" style="visibility: inherit;" fill="rgb(0, 0, 0)" stroke="rgb(204, 204, 204)" stroke-width="1px"></line><line x1="51.41600036621094" y1="111.23437464237212" x2="46.41600036621094" y2="111.23437464237212" style="visibility: inherit;" fill="rgb(0, 0, 0)" stroke="rgb(204, 204, 204)" stroke-width="1px"></line><line x1="51.41600036621094" y1="88.98749971389769" x2="46.41600036621094" y2="88.98749971389769" style="visibility: inherit;" fill="rgb(0, 0, 0)" stroke="rgb(204, 204, 204)" stroke-width="1px"></line><line x1="51.41600036621094" y1="66.74062478542328" x2="46.41600036621094" y2="66.74062478542328" style="visibility: inherit;" fill="rgb(0, 0, 0)" stroke="rgb(204, 204, 204)" stroke-width="1px"></line><line x1="51.41600036621094" y1="44.493749856948824" x2="46.41600036621094" y2="44.493749856948824" style="visibility: inherit;" fill="rgb(0, 0, 0)" stroke="rgb(204, 204, 204)" stroke-width="1px"></line><line x1="51.41600036621094" y1="22.246874928474455" x2="46.41600036621094" y2="22.246874928474455" style="visibility: inherit;" fill="rgb(0, 0, 0)" stroke="rgb(204, 204, 204)" stroke-width="1px"></line><line x1="51.41600036621094" y1="0" x2="46.41600036621094" y2="0" style="visibility: inherit;" fill="rgb(0, 0, 0)" stroke="rgb(204, 204, 204)" stroke-width="1px"></line></g><g transform="translate(41.41600036621094, 0)"><text style="text-anchor: end; visibility: hidden; font-family: &quot;Helvetica Neue&quot;, sans-serif; font-size: 12px; font-weight: 200;" x="0" y="177.9749994277954" dx="0em" dy="0.3em" fill="rgb(50, 49, 63)" stroke="none" stroke-width="1px">0.35</text><text style="text-anchor: end; visibility: inherit; font-family: &quot;Helvetica Neue&quot;, sans-serif; font-size: 12px; font-weight: 200;" x="0" y="155.72812449932096" dx="0em" dy="0.3em" fill="rgb(50, 49, 63)" stroke="none" stroke-width="1px">0.4</text><text style="text-anchor: end; visibility: hidden; font-family: &quot;Helvetica Neue&quot;, sans-serif; font-size: 12px; font-weight: 200;" x="0" y="133.48124957084656" dx="0em" dy="0.3em" fill="rgb(50, 49, 63)" stroke="none" stroke-width="1px">0.45</text><text style="text-anchor: end; visibility: inherit; font-family: &quot;Helvetica Neue&quot;, sans-serif; font-size: 12px; font-weight: 200;" x="0" y="111.23437464237212" dx="0em" dy="0.3em" fill="rgb(50, 49, 63)" stroke="none" stroke-width="1px">0.5</text><text style="text-anchor: end; visibility: hidden; font-family: &quot;Helvetica Neue&quot;, sans-serif; font-size: 12px; font-weight: 200;" x="0" y="88.98749971389769" dx="0em" dy="0.3em" fill="rgb(50, 49, 63)" stroke="none" stroke-width="1px">0.55</text><text style="text-anchor: end; visibility: inherit; font-family: &quot;Helvetica Neue&quot;, sans-serif; font-size: 12px; font-weight: 200;" x="0" y="66.74062478542328" dx="0em" dy="0.3em" fill="rgb(50, 49, 63)" stroke="none" stroke-width="1px">0.6</text><text style="text-anchor: end; visibility: hidden; font-family: &quot;Helvetica Neue&quot;, sans-serif; font-size: 12px; font-weight: 200;" x="0" y="44.493749856948824" dx="0em" dy="0.3em" fill="rgb(50, 49, 63)" stroke="none" stroke-width="1px">0.65</text><text style="text-anchor: end; visibility: inherit; font-family: &quot;Helvetica Neue&quot;, sans-serif; font-size: 12px; font-weight: 200;" x="0" y="22.246874928474455" dx="0em" dy="0.3em" fill="rgb(50, 49, 63)" stroke="none" stroke-width="1px">0.7</text><text style="text-anchor: end; visibility: hidden; font-family: &quot;Helvetica Neue&quot;, sans-serif; font-size: 12px; font-weight: 200;" x="0" y="0" dx="0em" dy="0.3em" fill="rgb(50, 49, 63)" stroke="none" stroke-width="1px">0.75</text></g><line x1="51.41600036621094" y1="0" x2="51.41600036621094" y2="177.9749994277954" fill="rgb(0, 0, 0)" stroke="rgb(204, 204, 204)" stroke-width="1px"></line></g></g><g transform="translate(51, 0)" clip-path="url(#clip_0)"><clipPath id="clip_0"><rect width="278" height="177"></rect></clipPath><g><g><g><line x1="0" y1="0" x2="0" y2="177.9749994277954" fill="rgb(0, 0, 0)" stroke="rgb(60, 60, 60)" stroke-width="1px" opacity="0.25"></line><line x1="23.215333302815754" y1="0" x2="23.215333302815754" y2="177.9749994277954" fill="rgb(0, 0, 0)" stroke="rgb(60, 60, 60)" stroke-width="1px" opacity="0.25"></line><line x1="46.43066660563151" y1="0" x2="46.43066660563151" y2="177.9749994277954" fill="rgb(0, 0, 0)" stroke="rgb(60, 60, 60)" stroke-width="1px" opacity="0.25"></line><line x1="69.64599990844727" y1="0" x2="69.64599990844727" y2="177.9749994277954" fill="rgb(0, 0, 0)" stroke="rgb(60, 60, 60)" stroke-width="1px" opacity="0.25"></line><line x1="92.86133321126302" y1="0" x2="92.86133321126302" y2="177.9749994277954" fill="rgb(0, 0, 0)" stroke="rgb(60, 60, 60)" stroke-width="1px" opacity="0.25"></line><line x1="116.07666651407878" y1="0" x2="116.07666651407878" y2="177.9749994277954" fill="rgb(0, 0, 0)" stroke="rgb(60, 60, 60)" stroke-width="1px" opacity="0.25"></line><line x1="139.29199981689453" y1="0" x2="139.29199981689453" y2="177.9749994277954" fill="rgb(0, 0, 0)" stroke="rgb(60, 60, 60)" stroke-width="1px" opacity="0.25"></line><line x1="162.5073331197103" y1="0" x2="162.5073331197103" y2="177.9749994277954" fill="rgb(0, 0, 0)" stroke="rgb(60, 60, 60)" stroke-width="1px" opacity="0.25"></line><line x1="185.72266642252603" y1="0" x2="185.72266642252603" y2="177.9749994277954" fill="rgb(0, 0, 0)" stroke="rgb(60, 60, 60)" stroke-width="1px" opacity="0.25"></line><line x1="208.9379997253418" y1="0" x2="208.9379997253418" y2="177.9749994277954" fill="rgb(0, 0, 0)" stroke="rgb(60, 60, 60)" stroke-width="1px" opacity="0.25"></line><line x1="232.15333302815756" y1="0" x2="232.15333302815756" y2="177.9749994277954" fill="rgb(0, 0, 0)" stroke="rgb(60, 60, 60)" stroke-width="1px" opacity="0.25"></line><line x1="255.3686663309733" y1="0" x2="255.3686663309733" y2="177.9749994277954" fill="rgb(0, 0, 0)" stroke="rgb(60, 60, 60)" stroke-width="1px" opacity="0.25"></line><line x1="278.58399963378906" y1="0" x2="278.58399963378906" y2="177.9749994277954" fill="rgb(0, 0, 0)" stroke="rgb(60, 60, 60)" stroke-width="1px" opacity="0.25"></line></g><g><line x1="0" y1="177.9749994277954" x2="278.58399963378906" y2="177.9749994277954" fill="rgb(0, 0, 0)" stroke="rgb(60, 60, 60)" stroke-width="1px" opacity="0.25"></line><line x1="0" y1="155.72812449932096" x2="278.58399963378906" y2="155.72812449932096" fill="rgb(0, 0, 0)" stroke="rgb(60, 60, 60)" stroke-width="1px" opacity="0.25"></line><line x1="0" y1="133.48124957084656" x2="278.58399963378906" y2="133.48124957084656" fill="rgb(0, 0, 0)" stroke="rgb(60, 60, 60)" stroke-width="1px" opacity="0.25"></line><line x1="0" y1="111.23437464237212" x2="278.58399963378906" y2="111.23437464237212" fill="rgb(0, 0, 0)" stroke="rgb(60, 60, 60)" stroke-width="1px" opacity="0.25"></line><line x1="0" y1="88.98749971389769" x2="278.58399963378906" y2="88.98749971389769" fill="rgb(0, 0, 0)" stroke="rgb(60, 60, 60)" stroke-width="1px" opacity="0.25"></line><line x1="0" y1="66.74062478542328" x2="278.58399963378906" y2="66.74062478542328" fill="rgb(0, 0, 0)" stroke="rgb(60, 60, 60)" stroke-width="1px" opacity="0.25"></line><line x1="0" y1="44.493749856948824" x2="278.58399963378906" y2="44.493749856948824" fill="rgb(0, 0, 0)" stroke="rgb(60, 60, 60)" stroke-width="1px" opacity="0.25"></line><line x1="0" y1="22.246874928474455" x2="278.58399963378906" y2="22.246874928474455" fill="rgb(0, 0, 0)" stroke="rgb(60, 60, 60)" stroke-width="1px" opacity="0.25"></line><line x1="0" y1="0" x2="278.58399963378906" y2="0" fill="rgb(0, 0, 0)" stroke="rgb(60, 60, 60)" stroke-width="1px" opacity="0.25"></line></g></g></g><g><g><line x1="0" y1="333.7031239271164" x2="278.58399963378906" y2="333.7031239271164" fill="rgb(0, 0, 0)" stroke="rgb(153, 153, 153)" stroke-width="1.5px"></line></g></g><g><g><line x1="23.215333302815754" y1="0" x2="23.215333302815754" y2="177.9749994277954" fill="rgb(0, 0, 0)" stroke="rgb(153, 153, 153)" stroke-width="1.5px"></line></g></g><g><g><g><g><g><path style="fill: none;" stroke="rgb(51, 187, 238)" stroke-width="2px" d="M25.53686663309733,196.87594342078148L26.69763329823812,169.5211923651248L27.858399963378908,158.75369501295984L29.019166628519695,156.96505709749636L30.179933293660483,150.23760227612613L31.34069995880127,142.52238407357453L32.50146662394206,146.90945853371502L33.66223328908285,141.16976709352613L34.82299995422363,145.0407291867721L35.983766619364424,146.5713109187883L37.14453328450521,154.65136946003616L38.305299949646,152.6135596755445L39.46606661478678,150.5401595926934L40.626833279927574,152.14192192142846L41.78759994506836,140.23540242005467L42.94836661020915,149.97953283250808L44.10913327534993,152.94280971588137L45.269899940490724,141.57021099075257L46.43066660563151,139.39001349248173L47.5914332707723,140.88500492613852L48.75219993591308,132.80494638489066L49.912966601053874,137.01405609306335L51.07373326619466,137.39670484111008L52.23449993133545,130.9629097617173L53.39526659647624,132.86722940701964L54.556033261617024,138.88278544000627L55.716799926757815,127.26102810602006L56.8775665918986,128.31107450933038L58.03833325703939,127.92842576128365L59.199099922180174,123.5858391740924L60.359866587320965,125.62364895858408L61.52063325246175,131.34554524959327L62.68139991760254,115.5324733566141L63.842166582743324,117.62368184881566L65.00293324788412,117.59697586487533L66.1636999130249,119.30553560903013L67.3244665781657,112.57808078765989L68.48523324330647,114.40233552182434L69.64599990844727,111.60812581582901L70.80676657358805,114.33114166493473L71.96753323872885,112.78275152356804L73.12829990386963,113.93069776770828L74.28906656901042,108.68932354523422L75.4498332341512,111.54582953352927L76.610599899292,102.74497462930795L77.77136656443278,103.43906500834107L78.93213322957357,100.57367470562694L80.09289989471435,106.18877358121635L81.25366655985515,105.0141611336481L82.41443322499593,106.02861723859901L83.57519989013672,104.88956856904862L84.7359665552775,105.25440890774489L85.8967332204183,97.63707728585244L87.05749988555908,100.44908214102746L88.21826655069987,105.45018206906319L89.37903321584066,101.4902442299187L90.53979988098145,101.35676735090014L91.70056654612223,95.84843937038896L92.86133321126302,96.33787227368471L94.02209987640381,93.43686515226962L95.1828665415446,98.9629882819605L96.34363320668538,97.32562239469529L97.50439987182617,93.39239053949113L98.66516653696696,93.03643451521394L99.82593320210775,97.32562239469529L100.98669986724853,95.56366394283059L102.14746653238932,90.71386256333467L103.30823319753011,93.09873079751368L104.4689998626709,98.63373824162365L105.62976652781168,95.15432247101428L106.79053319295248,95.84843937038896L107.95129985809326,92.55588592633727L109.11206652323405,96.20439539466615L110.27283318837483,91.0164066197312L111.43359985351563,90.36681737381811L112.59436651865641,91.09649805121065L113.7551331837972,92.404613898139L114.91589984893798,96.15098342678549L116.07666651407878,101.74831367353674L117.23743317921956,96.23107485826493L118.39819984436035,94.39793580968141L119.55896650950113,95.57257477759121L120.71973317464193,99.73719661281463L121.88049983978271,93.53475173292877L123.0412665049235,89.69940645838376L124.2020331700643,94.38014066050171L125.36279983520508,91.12320403515098L126.52356650034586,90.86513459153294L127.68433316548665,90.13542739379885L128.84509983062745,94.76277614837768L130.00586649576823,89.87738447052236L131.16663316090902,90.35790653905748L132.3273998260498,92.26225270470137L133.4881664911906,84.98305543756487L134.6489331563314,86.88740160320876L135.80969982147215,83.87071275195481L136.97046648661293,88.10651518389705L138.13123315175375,85.7750589175987L139.29199981689453,90.65156628103493L140.45276648203532,87.11876506288647L141.6135331471761,85.89962496185663L142.77429981231688,87.421309119283L143.9350664774577,84.80507742542628L145.09583314259848,85.90853579661726L146.25659980773926,93.89070775720596L147.41736647288005,87.79506029273989L148.57813313802083,86.78951502254961L149.73889980316162,82.73169060274597L150.8996664683024,82.13546028403044L152.06043313344318,79.51922859017373L153.221199798584,81.77061994533418L154.38196646372478,87.31453822420477L155.54273312886556,84.8139882601869L156.70349979400635,82.58930288896678L157.86426645914713,82.52700660666704L159.02503312428792,80.58707014266375L160.1857997894287,79.75059204985143L161.3465664545695,78.30899932390452L162.5073331197103,83.00752867520217L163.66809978485108,81.12100417907953L164.82886644999186,82.055368852551L165.98963311513265,85.44580887726184L167.15039978027343,77.8640675537288L168.31116644541422,78.78063707802056L169.471933110555,78.41579673932429L170.6326997756958,76.04872365432499L171.7934664408366,77.35683950125335L172.95423310597738,73.76174200080513L174.11499977111816,78.55815793276193L175.27576643625895,74.47362752901796L176.43653310139973,72.72949074667451L177.59729976654052,71.38578460138675L178.75806643168133,72.34682873845699L179.9188330968221,73.71724086768509L181.0795997619629,68.42248119767191L182.24036642710368,75.3190164565909L183.40113309224446,72.32903358927729L184.56189975738525,68.938620084908L185.72266642252603,68.41359688325284L186.88343308766682,70.19335048429724L188.04419975280763,69.25007497606515L189.2049664179484,68.1555274396348L190.3657330830892,64.32015564474824L191.52649974822998,64.4358373745871L192.68726641337076,66.40247982253072L193.84803307851155,63.715041011613636L195.00879974365233,62.4158359994459L196.16956640879314,61.60603737023237L197.33033307393393,58.92750939407591L198.4910997390747,59.141104224915466L199.6518664042155,60.23565176134582L200.81263306935628,59.49703372885111L201.97339973449706,56.106620224481816L203.13416639963785,55.4659152929878L204.29493306477863,58.08214698684452L205.45569972991944,56.31127770021919L206.61646639506023,53.855228869321365L207.777233060201,56.400279966459266L208.9379997253418,56.2312127890813L210.09876639048258,52.14668238533733L211.25953305562336,52.34245554665563L212.42029972076415,51.1589057439852L213.58106638590496,50.375813098712L214.74183305104575,49.95758731247662L215.90259971618653,46.45146555792692L217.0633663813273,46.14001066676977L218.2241330464681,45.50821657003638L219.38489971160888,44.88530678772207L220.54566637674967,44.520439928684254L221.70643304189045,43.65725585193161L222.86719970703126,44.44034849720481L224.02796637217205,40.240136363621986L225.18873303731283,40.61388753707888L226.3494997024536,39.73290831114653L227.5102663675944,38.36252270225998L228.67103303273518,39.029907097352776L229.83179969787597,37.6506106537056L230.99256636301678,35.016583810669175L232.15333302815756,34.758514367051134L233.31409969329835,34.01992285489797L234.47486635843913,31.750736350557816L235.6356330235799,33.10335333060621L236.7963996887207,33.03217273388739L237.95716635386148,31.457076608580365L239.11793301900227,30.504916785929197L240.27869968414308,31.136737403004133L241.43946634928386,28.057752269450447L242.60023301442465,28.67177773734568L243.76099967956543,28.20902429764871L244.9217663447062,27.701796245173256L246.082533009847,27.514933918615583L247.24329967498778,26.83863868876216L248.4040663401286,26.108931491028073L249.56483300526938,25.99324976118922L250.72559967041016,26.1178423257887L251.88636633555095,26.197907236926596L253.04713300069173,25.948748628069183L254.2078996658325,26.571658410383492" fill="none"></path></g><g><path style="fill: none;" stroke="rgb(0, 119, 187)" stroke-width="2px" d="M25.53686663309733,185.85038988516928L26.69763329823812,163.11409000950155L27.858399963378908,151.634693868953L29.019166628519695,153.7704034942746L30.179933293660483,145.85051455581484L31.34069995880127,138.2865683814615L32.50146662394206,143.80379393656256L33.66223328908285,138.95397929689585L34.82299995422363,143.31437429343757L35.983766619364424,144.87164874922334L37.14453328450521,149.81045239495933L38.305299949646,149.76596452201008L39.46606661478678,151.634693868953L40.626833279927574,148.16418893310427L41.78759994506836,140.77822077088953L42.94836661020915,149.27653161871433L44.10913327534993,152.30210478438735L45.269899940490724,142.42449749291538L46.43066660563151,138.77600128475726L47.5914332707723,141.71259870453176L48.75219993591308,134.46010742133558L49.912966601053874,136.90727193781433L51.07373326619466,138.68701227868797L52.23449993133545,131.3900463827133L53.39526659647624,135.21650734283924L54.556033261617024,139.17644518198372L55.716799926757815,129.343325763461L56.8775665918986,130.9451013523668L58.03833325703939,132.99182197161912L59.199099922180174,129.12085987837315L60.359866587320965,132.7248549534112L61.52063325246175,138.06410249637366L62.68139991760254,121.64591597025989L63.842166582743324,125.16092203922867L65.00293324788412,125.38338792431651L66.1636999130249,125.96180983368157L67.3244665781657,120.13312938742337L68.48523324330647,122.58028064373136L69.64599990844727,120.71153803661764L70.80676657358805,125.60585380940438L71.96753323872885,121.69040384320914L73.12829990386963,122.31331362552345L74.28906656901042,117.73046600406465L75.4498332341512,121.60141483713986L76.610599899292,113.37007100752294L77.77136656443278,116.0841892820388L78.93213322957357,112.92513923734722L80.09289989471435,117.73046600406465L81.25366655985515,118.70931855048539L82.41443322499593,118.44236479244827L83.57519989013672,116.48463317926527L84.7359665552775,119.46571847198902L85.8967332204183,113.72602703180013L87.05749988555908,113.81501603786943L88.21826655069987,119.28774045985043L89.37903321584066,117.19653196764887L90.53979988098145,116.17317828810812L91.70056654612223,111.23437464237212L92.86133321126302,110.21100770266058L94.02209987640381,111.90178555780646L95.1828665415446,111.67930641254783L96.34363320668538,112.25772832191288L97.50439987182617,110.30000996890065L98.66516653696696,109.72157479936483L99.82593320210775,113.54804901966153L100.98669986724853,111.81279655173716L102.14746653238932,108.74273551311488L103.30823319753011,111.59033066664931L104.4689998626709,111.94627343075572L105.62976652781168,108.69823437999484L106.79053319295248,110.74494173907637L107.95129985809326,108.2088014766991L109.11206652323405,113.72602703180013L110.27283318837483,107.27443680322763L111.43359985351563,107.00745652484896L112.59436651865641,110.25550883578062L113.7551331837972,108.11979921045902L114.91589984893798,114.79386858429015L116.07666651407878,117.95293188915252L117.23743317921956,113.50356114671227L118.39819984436035,110.967420884335L119.55896650950113,111.85728442468643L120.71973317464193,116.57362218533456L121.88049983978271,112.12425144289432L123.0412665049235,106.38454674253465L124.2020331700643,110.52246259381774L125.36279983520508,109.09866501705052L126.52356650034586,109.32114416230915L127.68433316548665,110.87841861809493L128.84509983062745,112.79166235832867L130.00586649576823,109.49912217444775L131.16663316090902,110.25550883578062L132.3273998260498,111.27886251532138L133.4881664911906,104.78277115362884L134.6489331563314,109.85507819872494L135.80969982147215,102.33563315749164L136.97046648661293,107.94184771866198L138.13123315175375,107.14095992420907L139.29199981689453,110.38898571479918L140.45276648203532,106.74050276681184L141.6135331471761,106.65152702091332L142.77429981231688,106.02861723859901L143.9350664774577,107.00745652484896L145.09583314259848,102.15765514535305L146.25659980773926,110.43348684791921L147.41736647288005,107.36341254912615L148.57813313802083,107.14095992420907L149.73889980316162,103.53695158900022L150.8996664683024,99.7104906288743L152.06043313344318,100.02194552003145L153.221199798584,104.87177341986892L154.38196646372478,108.92068700491193L155.54273312886556,103.89290761327742L156.70349979400635,102.38010777027013L157.86426645914713,104.64929427461028L159.02503312428792,104.2488636375546L160.1857997894287,101.44574309679867L161.3465664545695,100.46687729020717L162.5073331197103,102.20215627847308L163.66809978485108,103.71492960113882L164.82886644999186,103.80390534703734L165.98963311513265,105.53918433530326L167.15039978027343,102.11315401223301L168.31116644541422,102.55808578240872L169.471933110555,102.60258691552876L170.6326997756958,99.04307971343995L171.7934664408366,102.33563315749164L172.95423310597738,97.84176128193137L174.11499977111816,103.35897357686163L175.27576643625895,100.82283331448436L176.43653310139973,99.66598949575426L177.59729976654052,95.75055278972981L178.75806643168133,97.53030639077421L179.9188330968221,98.7316248222828L181.0795997619629,93.9707991886854L182.24036642710368,98.86510170130136L183.40113309224446,98.68715020950431L184.56189975738525,96.55144058418271L185.72266642252603,95.03864074117543L186.88343308766682,96.86289547533987L188.04419975280763,97.04087348747846L189.2049664179484,95.57257477759121L190.3657330830892,92.50250047879815L191.52649974822998,93.12541026111246L192.68726641337076,96.19548455990552L193.84803307851155,93.21441252735254L195.00879974365233,90.54476886561515L196.16956640879314,91.52363467220665L197.33033307393393,88.14210548225645L198.4910997390747,92.90295763619538L199.6518664042155,93.1699113942325L200.81263306935628,90.76724801087379L201.97339973449706,89.61040419214369L203.13416639963785,88.72054065179228L204.29493306477863,89.96636021642088L205.45569972991944,89.47692731312513L206.61646639506023,88.8095163976908L207.777233060201,88.27560888161656L208.9379997253418,89.16547242196798L210.09876639048258,87.91965285733937L211.25953305562336,88.36458462751509L212.42029972076415,88.58706377277372L213.58106638590496,84.62709941328768L214.74183305104575,88.54256263965368L215.90259971618653,83.06982495750191L217.0633663813273,85.82844436513781L218.2241330464681,85.11653231658343L219.38489971160888,84.67160054640772L220.54566637674967,85.33901146184206L221.70643304189045,84.5826248005092L222.86719970703126,85.87294549825785L224.02796637217205,82.89184694536331L225.18873303731283,83.20330183652047L226.3494997024536,82.53591744142767L227.5102663675944,81.73502964697477L228.67103303273518,83.6037589939177L229.83179969787597,81.91298113877181L230.99256636301678,80.75616384038327L232.15333302815756,80.26673093708752L233.31409969329835,77.90856868684884L234.47486635843913,79.10988711835742L235.6356330235799,78.93190910621882L236.7963996887207,78.57595308194163L237.95716635386148,78.22002357800599L239.11793301900227,77.0631797592759L240.27869968414308,78.6649553481817L241.43946634928386,76.26229196482299L242.60023301442465,76.17328969858292L243.76099967956543,75.7283579284072L244.9217663447062,75.23892502511146L246.082533009847,74.83849438805578L247.24329967498778,75.19445041233297L248.4040663401286,74.9274701339543L249.56483300526938,74.7494921218157L250.72559967041016,74.97197126707434L251.88636633555095,74.83849438805578L253.04713300069173,74.7494921218157L254.2078996658325,74.61601524279715" fill="none"></path></g></g></g></g></g></g><g transform="translate(51, 177)" clip-path="url(#clip_1)"><clipPath id="clip_1"><rect width="278" height="22"></rect></clipPath><g><g><line x1="0" y1="0" x2="0" y2="5" style="visibility: inherit;" fill="rgb(0, 0, 0)" stroke="rgb(204, 204, 204)" stroke-width="1px"></line><line x1="23.215333302815754" y1="0" x2="23.215333302815754" y2="5" style="visibility: inherit;" fill="rgb(0, 0, 0)" stroke="rgb(204, 204, 204)" stroke-width="1px"></line><line x1="46.43066660563151" y1="0" x2="46.43066660563151" y2="5" style="visibility: inherit;" fill="rgb(0, 0, 0)" stroke="rgb(204, 204, 204)" stroke-width="1px"></line><line x1="69.64599990844727" y1="0" x2="69.64599990844727" y2="5" style="visibility: inherit;" fill="rgb(0, 0, 0)" stroke="rgb(204, 204, 204)" stroke-width="1px"></line><line x1="92.86133321126302" y1="0" x2="92.86133321126302" y2="5" style="visibility: inherit;" fill="rgb(0, 0, 0)" stroke="rgb(204, 204, 204)" stroke-width="1px"></line><line x1="116.07666651407878" y1="0" x2="116.07666651407878" y2="5" style="visibility: inherit;" fill="rgb(0, 0, 0)" stroke="rgb(204, 204, 204)" stroke-width="1px"></line><line x1="139.29199981689453" y1="0" x2="139.29199981689453" y2="5" style="visibility: inherit;" fill="rgb(0, 0, 0)" stroke="rgb(204, 204, 204)" stroke-width="1px"></line><line x1="162.5073331197103" y1="0" x2="162.5073331197103" y2="5" style="visibility: inherit;" fill="rgb(0, 0, 0)" stroke="rgb(204, 204, 204)" stroke-width="1px"></line><line x1="185.72266642252603" y1="0" x2="185.72266642252603" y2="5" style="visibility: inherit;" fill="rgb(0, 0, 0)" stroke="rgb(204, 204, 204)" stroke-width="1px"></line><line x1="208.9379997253418" y1="0" x2="208.9379997253418" y2="5" style="visibility: inherit;" fill="rgb(0, 0, 0)" stroke="rgb(204, 204, 204)" stroke-width="1px"></line><line x1="232.15333302815756" y1="0" x2="232.15333302815756" y2="5" style="visibility: inherit;" fill="rgb(0, 0, 0)" stroke="rgb(204, 204, 204)" stroke-width="1px"></line><line x1="255.3686663309733" y1="0" x2="255.3686663309733" y2="5" style="visibility: inherit;" fill="rgb(0, 0, 0)" stroke="rgb(204, 204, 204)" stroke-width="1px"></line><line x1="278.58399963378906" y1="0" x2="278.58399963378906" y2="5" style="visibility: inherit;" fill="rgb(0, 0, 0)" stroke="rgb(204, 204, 204)" stroke-width="1px"></line></g><g transform="translate(0, 8)"><text style="text-anchor: middle; visibility: hidden; font-family: &quot;Helvetica Neue&quot;, sans-serif; font-size: 12px; font-weight: 200;" x="0" y="0" dx="0em" dy="0.95em" fill="rgb(50, 49, 63)" stroke="none" stroke-width="1px">-20</text><text style="text-anchor: middle; visibility: inherit; font-family: &quot;Helvetica Neue&quot;, sans-serif; font-size: 12px; font-weight: 200;" x="23.215333302815754" y="0" dx="0em" dy="0.95em" fill="rgb(50, 49, 63)" stroke="none" stroke-width="1px">0</text><text style="text-anchor: middle; visibility: hidden; font-family: &quot;Helvetica Neue&quot;, sans-serif; font-size: 12px; font-weight: 200;" x="46.43066660563151" y="0" dx="0em" dy="0.95em" fill="rgb(50, 49, 63)" stroke="none" stroke-width="1px">20</text><text style="text-anchor: middle; visibility: inherit; font-family: &quot;Helvetica Neue&quot;, sans-serif; font-size: 12px; font-weight: 200;" x="69.64599990844727" y="0" dx="0em" dy="0.95em" fill="rgb(50, 49, 63)" stroke="none" stroke-width="1px">40</text><text style="text-anchor: middle; visibility: hidden; font-family: &quot;Helvetica Neue&quot;, sans-serif; font-size: 12px; font-weight: 200;" x="92.86133321126302" y="0" dx="0em" dy="0.95em" fill="rgb(50, 49, 63)" stroke="none" stroke-width="1px">60</text><text style="text-anchor: middle; visibility: inherit; font-family: &quot;Helvetica Neue&quot;, sans-serif; font-size: 12px; font-weight: 200;" x="116.07666651407878" y="0" dx="0em" dy="0.95em" fill="rgb(50, 49, 63)" stroke="none" stroke-width="1px">80</text><text style="text-anchor: middle; visibility: hidden; font-family: &quot;Helvetica Neue&quot;, sans-serif; font-size: 12px; font-weight: 200;" x="139.29199981689453" y="0" dx="0em" dy="0.95em" fill="rgb(50, 49, 63)" stroke="none" stroke-width="1px">100</text><text style="text-anchor: middle; visibility: inherit; font-family: &quot;Helvetica Neue&quot;, sans-serif; font-size: 12px; font-weight: 200;" x="162.5073331197103" y="0" dx="0em" dy="0.95em" fill="rgb(50, 49, 63)" stroke="none" stroke-width="1px">120</text><text style="text-anchor: middle; visibility: hidden; font-family: &quot;Helvetica Neue&quot;, sans-serif; font-size: 12px; font-weight: 200;" x="185.72266642252603" y="0" dx="0em" dy="0.95em" fill="rgb(50, 49, 63)" stroke="none" stroke-width="1px">140</text><text style="text-anchor: middle; visibility: inherit; font-family: &quot;Helvetica Neue&quot;, sans-serif; font-size: 12px; font-weight: 200;" x="208.9379997253418" y="0" dx="0em" dy="0.95em" fill="rgb(50, 49, 63)" stroke="none" stroke-width="1px">160</text><text style="text-anchor: middle; visibility: hidden; font-family: &quot;Helvetica Neue&quot;, sans-serif; font-size: 12px; font-weight: 200;" x="232.15333302815756" y="0" dx="0em" dy="0.95em" fill="rgb(50, 49, 63)" stroke="none" stroke-width="1px">180</text><text style="text-anchor: middle; visibility: inherit; font-family: &quot;Helvetica Neue&quot;, sans-serif; font-size: 12px; font-weight: 200;" x="255.3686663309733" y="0" dx="0em" dy="0.95em" fill="rgb(50, 49, 63)" stroke="none" stroke-width="1px">200</text><text style="text-anchor: middle; visibility: hidden; font-family: &quot;Helvetica Neue&quot;, sans-serif; font-size: 12px; font-weight: 200;" x="278.58399963378906" y="0" dx="0em" dy="0.95em" fill="rgb(50, 49, 63)" stroke="none" stroke-width="1px">220</text></g><line x1="0" y1="0" x2="278.58399963378906" y2="0" fill="rgb(0, 0, 0)" stroke="rgb(204, 204, 204)" stroke-width="1px"></line></g></g></g></g></svg>