<svg viewBox="0 0 330 200" xmlns="http://www.w3.org/2000/svg"><g><g><g><g><g><line x1="41.0620002746582" y1="177.9749994277954" x2="36.0620002746582" y2="177.9749994277954" style="visibility: inherit;" fill="rgb(0, 0, 0)" stroke="rgb(204, 204, 204)" stroke-width="1px"></line><line x1="41.0620002746582" y1="158.19999949137372" x2="36.0620002746582" y2="158.19999949137372" style="visibility: inherit;" fill="rgb(0, 0, 0)" stroke="rgb(204, 204, 204)" stroke-width="1px"></line><line x1="41.0620002746582" y1="138.424999554952" x2="36.0620002746582" y2="138.424999554952" style="visibility: inherit;" fill="rgb(0, 0, 0)" stroke="rgb(204, 204, 204)" stroke-width="1px"></line><line x1="41.0620002746582" y1="118.64999961853026" x2="36.0620002746582" y2="118.64999961853026" style="visibility: inherit;" fill="rgb(0, 0, 0)" stroke="rgb(204, 204, 204)" stroke-width="1px"></line><line x1="41.0620002746582" y1="98.87499968210855" x2="36.0620002746582" y2="98.87499968210855" style="visibility: inherit;" fill="rgb(0, 0, 0)" stroke="rgb(204, 204, 204)" stroke-width="1px"></line><line x1="41.0620002746582" y1="79.09999974568684" x2="36.0620002746582" y2="79.09999974568684" style="visibility: inherit;" fill="rgb(0, 0, 0)" stroke="rgb(204, 204, 204)" stroke-width="1px"></line><line x1="41.0620002746582" y1="59.32499980926511" x2="36.0620002746582" y2="59.32499980926511" style="visibility: inherit;" fill="rgb(0, 0, 0)" stroke="rgb(204, 204, 204)" stroke-width="1px"></line><line x1="41.0620002746582" y1="39.549999872843415" x2="36.0620002746582" y2="39.549999872843415" style="visibility: inherit;" fill="rgb(0, 0, 0)" stroke="rgb(204, 204, 204)" stroke-width="1px"></line><line x1="41.0620002746582" y1="19.774999936421693" x2="36.0620002746582" y2="19.774999936421693" style="visibility: inherit;" fill="rgb(0, 0, 0)" stroke="rgb(204, 204, 204)" stroke-width="1px"></line><line x1="41.0620002746582" y1="0" x2="36.0620002746582" y2="0" style="visibility: inherit;" fill="rgb(0, 0, 0)" stroke="rgb(204, 204, 204)" stroke-width="1px"></line></g><g transform="translate(31.062000274658203, 0)"><text style="text-anchor: end; visibility: hidden; font-family: &quot;Helvetica Neue&quot;, sans-serif; font-size: 12px; font-weight: 200;" x="0" y="177.9749994277954" dx="0em" dy="0.3em" fill="rgb(50, 49, 63)" stroke="none" stroke-width="1px">1</text><text style="text-anchor: end; visibility: inherit; font-family: &quot;Helvetica Neue&quot;, sans-serif; font-size: 12px; font-weight: 200;" x="0" y="158.19999949137372" dx="0em" dy="0.3em" fill="rgb(50, 49, 63)" stroke="none" stroke-width="1px">1.2</text><text style="text-anchor: end; visibility: hidden; font-family: &quot;Helvetica Neue&quot;, sans-serif; font-size: 12px; font-weight: 200;" x="0" y="138.424999554952" dx="0em" dy="0.3em" fill="rgb(50, 49, 63)" stroke="none" stroke-width="1px">1.4</text><text style="text-anchor: end; visibility: inherit; font-family: &quot;Helvetica Neue&quot;, sans-serif; font-size: 12px; font-weight: 200;" x="0" y="118.64999961853026" dx="0em" dy="0.3em" fill="rgb(50, 49, 63)" stroke="none" stroke-width="1px">1.6</text><text style="text-anchor: end; visibility: hidden; font-family: &quot;Helvetica Neue&quot;, sans-serif; font-size: 12px; font-weight: 200;" x="0" y="98.87499968210855" dx="0em" dy="0.3em" fill="rgb(50, 49, 63)" stroke="none" stroke-width="1px">1.8</text><text style="text-anchor: end; visibility: inherit; font-family: &quot;Helvetica Neue&quot;, sans-serif; font-size: 12px; font-weight: 200;" x="0" y="79.09999974568684" dx="0em" dy="0.3em" fill="rgb(50, 49, 63)" stroke="none" stroke-width="1px">2</text><text style="text-anchor: end; visibility: hidden; font-family: &quot;Helvetica Neue&quot;, sans-serif; font-size: 12px; font-weight: 200;" x="0" y="59.32499980926511" dx="0em" dy="0.3em" fill="rgb(50, 49, 63)" stroke="none" stroke-width="1px">2.2</text><text style="text-anchor: end; visibility: inherit; font-family: &quot;Helvetica Neue&quot;, sans-serif; font-size: 12px; font-weight: 200;" x="0" y="39.549999872843415" dx="0em" dy="0.3em" fill="rgb(50, 49, 63)" stroke="none" stroke-width="1px">2.4</text><text style="text-anchor: end; visibility: hidden; font-family: &quot;Helvetica Neue&quot;, sans-serif; font-size: 12px; font-weight: 200;" x="0" y="19.774999936421693" dx="0em" dy="0.3em" fill="rgb(50, 49, 63)" stroke="none" stroke-width="1px">2.6</text><text style="text-anchor: end; visibility: hidden; font-family: &quot;Helvetica Neue&quot;, sans-serif; font-size: 12px; font-weight: 200;" x="0" y="0" dx="0em" dy="0.3em" fill="rgb(50, 49, 63)" stroke="none" stroke-width="1px">2.8</text></g><line x1="41.0620002746582" y1="0" x2="41.0620002746582" y2="177.9749994277954" fill="rgb(0, 0, 0)" stroke="rgb(204, 204, 204)" stroke-width="1px"></line></g></g><g transform="translate(41, 0)" clip-path="url(#clip_0)"><clipPath id="clip_0"><rect width="288" height="177"></rect></clipPath><g><g><g><line x1="0" y1="0" x2="0" y2="177.9749994277954" fill="rgb(0, 0, 0)" stroke="rgb(60, 60, 60)" stroke-width="1px" opacity="0.25"></line><line x1="24.07816664377848" y1="0" x2="24.07816664377848" y2="177.9749994277954" fill="rgb(0, 0, 0)" stroke="rgb(60, 60, 60)" stroke-width="1px" opacity="0.25"></line><line x1="48.15633328755696" y1="0" x2="48.15633328755696" y2="177.9749994277954" fill="rgb(0, 0, 0)" stroke="rgb(60, 60, 60)" stroke-width="1px" opacity="0.25"></line><line x1="72.23449993133545" y1="0" x2="72.23449993133545" y2="177.9749994277954" fill="rgb(0, 0, 0)" stroke="rgb(60, 60, 60)" stroke-width="1px" opacity="0.25"></line><line x1="96.31266657511392" y1="0" x2="96.31266657511392" y2="177.9749994277954" fill="rgb(0, 0, 0)" stroke="rgb(60, 60, 60)" stroke-width="1px" opacity="0.25"></line><line x1="120.39083321889242" y1="0" x2="120.39083321889242" y2="177.9749994277954" fill="rgb(0, 0, 0)" stroke="rgb(60, 60, 60)" stroke-width="1px" opacity="0.25"></line><line x1="144.4689998626709" y1="0" x2="144.4689998626709" y2="177.9749994277954" fill="rgb(0, 0, 0)" stroke="rgb(60, 60, 60)" stroke-width="1px" opacity="0.25"></line><line x1="168.5471665064494" y1="0" x2="168.5471665064494" y2="177.9749994277954" fill="rgb(0, 0, 0)" stroke="rgb(60, 60, 60)" stroke-width="1px" opacity="0.25"></line><line x1="192.62533315022785" y1="0" x2="192.62533315022785" y2="177.9749994277954" fill="rgb(0, 0, 0)" stroke="rgb(60, 60, 60)" stroke-width="1px" opacity="0.25"></line><line x1="216.70349979400635" y1="0" x2="216.70349979400635" y2="177.9749994277954" fill="rgb(0, 0, 0)" stroke="rgb(60, 60, 60)" stroke-width="1px" opacity="0.25"></line><line x1="240.78166643778485" y1="0" x2="240.78166643778485" y2="177.9749994277954" fill="rgb(0, 0, 0)" stroke="rgb(60, 60, 60)" stroke-width="1px" opacity="0.25"></line><line x1="264.8598330815633" y1="0" x2="264.8598330815633" y2="177.9749994277954" fill="rgb(0, 0, 0)" stroke="rgb(60, 60, 60)" stroke-width="1px" opacity="0.25"></line><line x1="288.9379997253418" y1="0" x2="288.9379997253418" y2="177.9749994277954" fill="rgb(0, 0, 0)" stroke="rgb(60, 60, 60)" stroke-width="1px" opacity="0.25"></line></g><g><line x1="0" y1="177.9749994277954" x2="288.9379997253418" y2="177.9749994277954" fill="rgb(0, 0, 0)" stroke="rgb(60, 60, 60)" stroke-width="1px" opacity="0.25"></line><line x1="0" y1="158.19999949137372" x2="288.9379997253418" y2="158.19999949137372" fill="rgb(0, 0, 0)" stroke="rgb(60, 60, 60)" stroke-width="1px" opacity="0.25"></line><line x1="0" y1="138.424999554952" x2="288.9379997253418" y2="138.424999554952" fill="rgb(0, 0, 0)" stroke="rgb(60, 60, 60)" stroke-width="1px" opacity="0.25"></line><line x1="0" y1="118.64999961853026" x2="288.9379997253418" y2="118.64999961853026" fill="rgb(0, 0, 0)" stroke="rgb(60, 60, 60)" stroke-width="1px" opacity="0.25"></line><line x1="0" y1="98.87499968210855" x2="288.9379997253418" y2="98.87499968210855" fill="rgb(0, 0, 0)" stroke="rgb(60, 60, 60)" stroke-width="1px" opacity="0.25"></line><line x1="0" y1="79.09999974568684" x2="288.9379997253418" y2="79.09999974568684" fill="rgb(0, 0, 0)" stroke="rgb(60, 60, 60)" stroke-width="1px" opacity="0.25"></line><line x1="0" y1="59.32499980926511" x2="288.9379997253418" y2="59.32499980926511" fill="rgb(0, 0, 0)" stroke="rgb(60, 60, 60)" stroke-width="1px" opacity="0.25"></line><line x1="0" y1="39.549999872843415" x2="288.9379997253418" y2="39.549999872843415" fill="rgb(0, 0, 0)" stroke="rgb(60, 60, 60)" stroke-width="1px" opacity="0.25"></line><line x1="0" y1="19.774999936421693" x2="288.9379997253418" y2="19.774999936421693" fill="rgb(0, 0, 0)" stroke="rgb(60, 60, 60)" stroke-width="1px" opacity="0.25"></line><line x1="0" y1="0" x2="288.9379997253418" y2="0" fill="rgb(0, 0, 0)" stroke="rgb(60, 60, 60)" stroke-width="1px" opacity="0.25"></line></g></g></g><g><g><line x1="0" y1="276.849999109904" x2="288.9379997253418" y2="276.849999109904" fill="rgb(0, 0, 0)" stroke="rgb(153, 153, 153)" stroke-width="1.5px"></line></g></g><g><g><line x1="24.07816664377848" y1="0" x2="24.07816664377848" y2="177.9749994277954" fill="rgb(0, 0, 0)" stroke="rgb(153, 153, 153)" stroke-width="1.5px"></line></g></g><g><g><g><g><g><path style="fill: none;" stroke="rgb(238, 51, 119)" stroke-width="2px" d="M26.485983308156328,-0.781461349597464L27.68989164034526,30.586562898764356L28.893799972534183,38.085643264392274L30.097708304723106,41.79309271846259L31.30161663691203,46.3929457722638L32.505524969100954,51.983740228175435L33.70943330128988,46.84501740772558L34.9133416334788,53.248795880541266L36.117249965667725,48.6030449556317L37.321158297856655,46.79713935111491L38.52506663004557,34.120510385008686L39.7289749622345,39.29053899530541L40.93288329442342,40.29003762762241L42.13679162661235,32.526696791976974L43.34069995880127,41.8050916996614L44.5446082909902,39.623728779714696L45.748516623179114,31.539102846311067L46.952424955368045,31.268076742493776L48.15633328755696,37.49144617186218L49.36024161974589,36.29343394293346L50.56414995193481,42.43988259498988L51.76805828412374,39.897512999053106L52.971966616312656,34.884814841646374L54.17587494850159,46.23622823393407L55.37978328069052,44.02478535326097L56.583691612879434,34.78783289930453L57.787599945068365,45.53184796237974L58.99150827725728,43.91045321413654L60.19541660944621,46.54598582323206L61.39932494163513,45.540216603490904L62.60323327382406,45.12213815248637L63.807141606012976,47.26352018419493L65.01104993820191,60.98354189458715L66.21495827039082,59.500170790585955L67.41886660257975,56.4368238184326L68.62277493476867,58.62919562682697L69.8266832669576,61.81493692193581L71.03059159914652,58.17104199303654L72.23449993133545,60.90744619456784L73.43840826352437,60.062142721428756L74.64231659571331,63.32636065388715L75.84622492790223,57.7454435518504L77.05013326009114,64.50447673324454L78.25404159228006,63.53086195427984L79.457949924469,68.4438672010974L80.66185825665792,64.82906214017332L81.86576658884684,71.78154058623862L83.06967492103576,71.69514320687964L84.2735832532247,66.5553595727678L85.47749158541362,67.5502613458829L86.68139991760253,68.14959749126432L87.88530824979145,68.98865395061617L89.0892165819804,76.643343893638L90.29312491416931,76.62995406786011L91.49703324635823,66.68348228949797L92.70094157854717,67.464877632912L93.90484991073609,71.36438150707446L95.108758242925,77.75311999952697L96.31266657511392,70.09246592636114L97.51657490730287,76.87592139561775L98.72048323949178,77.92407601456419L99.9243915716807,74.79906040819446L101.12829990386962,74.38753542825724L102.33220823605856,77.96181740729374L103.53611656824748,69.85420717788057L104.7400249004364,79.14322200900327L105.94393323262531,82.51129359896942L107.14784156481426,76.83568119737332L108.35174989700317,78.44104587250217L109.55565822919209,72.22255618597887L110.75956656138104,84.74559112064892L111.96347489356995,79.4777908511731L113.16738322575887,77.92982798197582L114.37129155794779,84.21024561272178L115.57519989013673,84.91184419511804L116.77910822232565,84.32596859642528L117.98301655451456,81.7449971700109L119.18692488670348,78.90384351276838L120.39083321889242,67.74170285141477L121.59474155108134,73.77912343265665L122.79864988327026,79.78816135503135L124.00255821545917,76.969249424235L125.20646654764812,71.48988755010508L126.41037487983704,81.11076025515034L127.61428321202595,83.03119837470553L128.8181915442149,81.06948281688089L130.02209987640381,77.11458089592618L131.22600820859273,81.05478465425324L132.42991654078165,86.4849247744673L133.6338248729706,76.5278330726669L134.8377332051595,78.73342969138062L136.04164153734843,80.63941717149596L137.24554986953734,78.6538215194583L138.4494582017263,83.47755340321108L139.6533665339152,84.74295087331245L140.85727486610412,88.49473055163503L142.06118319829304,77.96422191826088L143.26509153048198,83.8865088567226L144.4689998626709,89.09137930240611L145.67290819485982,83.46353887605447L146.87681652704873,89.77639383122008L148.08072485923765,85.00487755327363L149.28463319142662,87.5703964606785L150.48854152361554,90.04944726781358L151.69244985580445,77.0224551227925L152.89635818799337,88.56209221917072L154.1002665201823,86.20492890179708L155.3041748523712,87.92962332708012L156.50808318456012,93.33287771437224L157.71199151674904,95.28714400292611L158.915899848938,86.33781349318768L160.11980818112693,89.18225567278235L161.32371651331584,87.61715476953485L162.52762484550476,89.66275711438516L163.73153317769368,90.76937435292514L164.9354415098826,90.15847533862814L166.1393498420715,93.24683393956725L167.34325817426048,92.25448990605938L168.5471665064494,91.33339719018112L169.75107483863832,96.24697999110356L170.95498317082723,89.58485803114046L172.15889150301615,89.49455921486908L173.36279983520507,94.33304819534183L174.56670816739398,94.12219379979572L175.7706164995829,98.32916862047367L176.97452483177187,97.35195886187671L178.1784331639608,96.01262267953537L179.3823414961497,100.31334985429535L180.58624982833862,98.94814160542019L181.79015816052754,95.26915731794634L182.99406649271646,99.94233616942729L184.19797482490537,101.33250889981437L185.40188315709435,98.96780201862221L186.60579148928326,99.68293186861793L187.80969982147218,104.30989460489198L189.0136081536611,99.03567051935195L190.21751648585,97.0188162247413L191.42142481803893,108.63955841898708L192.62533315022785,102.56469111547733L193.82924148241676,105.00178084887189L195.03314981460574,102.80693380859955L196.23705814679465,104.58069675915839L197.44096647898357,108.83078776178657L198.64487481117249,110.05944571872806L199.8487831433614,108.49594782279199L201.05269147555032,103.36864642943613L202.25659980773924,111.07103762679162L203.4605081399282,111.65304714902739L204.66441647211713,115.50962343033507L205.86832480430604,114.15700350358205L207.07223313649496,114.37111106102489L208.27614146868387,112.34928272902141L209.4800498008728,116.91160655282553L210.6839581330617,120.66356303342509L211.88786646525062,117.89874081257122L213.0917747974396,119.39732869921261L214.29568312962851,118.26071400767553L215.49959146181743,121.91730334006316L216.70349979400635,117.08213824239795L217.90740812619526,119.36978290445654L219.11131645838418,124.30617319911153L220.3152247905731,123.77200637303102L221.51913312276207,125.68160061959709L222.723041454951,124.4909787258468L223.9269497871399,127.60661202471726L225.13085811932882,127.58065745045417L226.33476645151774,130.06527163590542L227.53867478370665,129.40403111993822L228.74258311589557,129.601660705165L229.9464914480845,131.9738757897203L231.15039978027346,133.85955458161794L232.35430811246238,132.8132622799892L233.5582164446513,133.4225465001563L234.7621247768402,137.6980498833981L235.96603310902913,138.03637872065875L237.16994144121804,135.33428594768327L238.37384977340696,138.22763163709516L239.57775810559593,139.94712807543453L240.78166643778485,140.14291891698053L241.98557476997377,142.77921766927636L243.18948310216268,142.37647386909663L244.3933914343516,143.20450965318238L245.59729976654052,142.51045463460463L246.80120809872943,143.0158026895347L248.00511643091835,144.69310231776421L249.20902476310732,145.59139932672838L250.41293309529624,145.19101289024195L251.61684142748516,146.9618880702765L252.82074975967407,146.16504020785297L254.024658091863,147.4041177123188L255.2285664240519,148.51113570268663L256.4324747562408,147.47489755720974L257.6363830884298,149.23739230931466L258.8402914206187,148.62702370184866L260.04419975280763,148.27063745869745L261.24810808499655,148.7697738602957L262.45201641718546,149.02693866559642L263.6559247493744,149.1410114947146" fill="none"></path></g><g><path style="fill: none;" stroke="rgb(204, 51, 17)" stroke-width="2px" d="M25.282074975967404,-46.48996543242478L26.485983308156328,11.267425238623218L27.68989164034526,41.041447304857826L28.893799972534183,49.12190070452431L30.097708304723106,50.15084280937049L31.30161663691203,56.28602326297299L32.505524969100954,60.09547584405185L33.70943330128988,56.84257325732125L34.9133416334788,62.4563284356055L36.117249965667725,55.11469639105226L37.321158297856655,53.68097136643168L38.52506663004557,44.24948926050516L39.7289749622345,47.62018931098933L40.93288329442342,47.061800572960294L42.13679162661235,41.69863315527252L43.34069995880127,48.33423477368612L44.5446082909902,43.32613347548133L45.748516623179114,35.48827637349109L46.952424955368045,38.421072544310164L48.15633328755696,44.091498745781024L49.36024161974589,40.395906831087956L50.56414995193481,45.78875345767423L51.76805828412374,46.42179990386964L52.971966616312656,39.27243444214096L54.17587494850159,48.99005335315874L55.37978328069052,46.5914122216017L56.583691612879434,38.61223116619885L57.787599945068365,47.221346947722L58.99150827725728,45.05655629453909L60.19541660944621,48.31629523598022L61.39932494163513,49.04707798089936L62.60323327382406,45.00111110047297L63.807141606012976,45.77600012009353L65.01104993820191,61.13905717743333L66.21495827039082,57.62785825082922L67.41886660257975,56.133596126565024L68.62277493476867,56.805326910967324L69.8266832669576,60.349953254742246L71.03059159914652,58.1607638873338L72.23449993133545,58.26495936257713L73.43840826352437,56.29375541588699L74.64231659571331,58.133135584848475L75.84622492790223,55.53763101126499L77.05013326009114,59.61794468070259L78.25404159228006,60.40961812981935L79.457949924469,64.33495871006023L80.66185825665792,60.334111770723354L81.86576658884684,63.42572353355921L83.06967492103576,63.42720867268598L84.2735832532247,59.486757391171125L85.47749158541362,60.41869398003851L86.68139991760253,62.14355342078011L87.88530824979145,59.33508461114501L89.0892165819804,67.58842706407721L90.29312491416931,68.85843318019896L91.49703324635823,59.87906985700805L92.70094157854717,59.12572714154415L93.90484991073609,64.04554516943533L95.108758242925,66.7149059475295L96.31266657511392,64.13140035514485L97.51657490730287,65.29207194317192L98.72048323949178,69.7410772942397L99.9243915716807,64.45042238375746L101.12829990386962,62.65651576043949L102.33220823605856,69.02033691865397L103.53611656824748,61.762108401569236L104.7400249004364,69.60208713088348L105.94393323262531,70.31311516805286L107.14784156481426,66.3816218685725L108.35174989700317,68.3520714588808L109.55565822919209,63.26471559330767L110.75956656138104,70.71445633683508L111.96347489356995,69.1464323026079L113.16738322575887,64.7797225180728L114.37129155794779,71.54693575148264L115.57519989013673,71.73085726683294L116.77910822232565,70.84446494451987L117.98301655451456,69.8989735144161L119.18692488670348,65.64911824815727L120.39083321889242,57.48478984828358L121.59474155108134,63.78161473033485L122.79864988327026,69.1761115115064L124.00255821545917,67.420983520943L125.20646654764812,60.099978408706036L126.41037487983704,69.58966382421984L127.61428321202595,70.51115729192594L128.8181915442149,69.74692355619905L130.02209987640381,67.62553196860955L131.22600820859273,67.87826493016694L132.42991654078165,70.74675221943312L133.6338248729706,64.95376667954821L134.8377332051595,66.11495688758781L136.04164153734843,68.12741469891048L137.24554986953734,65.64951899998512L138.4494582017263,72.0379274615206L139.6533665339152,68.69240405528072L140.85727486610412,73.88414398519261L142.06118319829304,64.1244697058866L143.26509153048198,69.07047804441018L144.4689998626709,74.54760042303148L145.67290819485982,69.43014102309506L146.87681652704873,74.76761317652601L148.08072485923765,71.83868308216391L149.28463319142662,72.93985481057241L150.48854152361554,76.16161662291468L151.69244985580445,62.3673379561839L152.89635818799337,70.656182306337L154.1002665201823,70.28503896646582L155.3041748523712,72.84678609196142L156.50808318456012,78.78366511168458L157.71199151674904,77.96507056919046L158.915899848938,70.58817236378565L160.11980818112693,71.20643813962418L161.32371651331584,72.35548792464334L162.52762484550476,74.15828180908504L163.73153317769368,72.8692989152323L164.9354415098826,71.3231747897158L166.1393498420715,77.00642504967814L167.34325817426048,75.79429221222661L168.5471665064494,73.68390951308477L169.75107483863832,77.90290688859847L170.95498317082723,72.46932501739221L172.15889150301615,72.01369376275358L173.36279983520507,74.86923912534364L174.56670816739398,74.71782565532376L175.7706164995829,78.35502567133409L176.97452483177187,78.91838844675597L178.1784331639608,77.24407088359847L179.3823414961497,80.8892034284367L180.58624982833862,78.19663440478212L181.79015816052754,73.98852804953138L182.99406649271646,80.24946206935233L184.19797482490537,81.84177873643883L185.40188315709435,78.19585647476332L186.60579148928326,77.70349749378327L187.80969982147218,82.1465858619809L189.0136081536611,78.19036381735796L190.21751648585,77.32398551280092L191.42142481803893,83.82984962035444L192.62533315022785,80.0279052426387L193.82924148241676,81.82431067147155L195.03314981460574,80.49329598296754L196.23705814679465,81.266464127092L197.44096647898357,83.03201166517972L198.64487481117249,84.5856322072409L199.8487831433614,83.36006239673762L201.05269147555032,80.44812889460414L202.25659980773924,85.5823962976737L203.4605081399282,84.63950975445098L204.66441647211713,87.31606049180971L205.86832480430604,87.75167772869231L207.07223313649496,86.79464700330988L208.27614146868387,85.46497601211102L209.4800498008728,88.55270991167143L210.6839581330617,89.24380643881408L211.88786646525062,87.08518029168911L213.0917747974396,87.90101671866209L214.29568312962851,88.14784448416776L215.49959146181743,88.81832586581261L216.70349979400635,87.40779729993397L217.90740812619526,88.73683180293567L219.11131645838418,89.49539607898019L220.3152247905731,91.47304741537148L221.51913312276207,91.24966363179554L222.723041454951,89.05620743610226L223.9269497871399,94.44653168353669L225.13085811932882,91.25331754552015L226.33476645151774,91.3487200541875L227.53867478370665,90.39739414894282L228.74258311589557,91.37369632251787L229.9464914480845,92.60795301823092L231.15039978027346,93.33785175176509L232.35430811246238,92.8612399602562L233.5582164446513,92.10306464922105L234.7621247768402,95.06754378807791L235.96603310902913,96.4970137712321L237.16994144121804,93.21082520915228L238.37384977340696,94.09514305141525L239.57775810559593,95.16052999895965L240.78166643778485,95.24891935063945L241.98557476997377,96.20433528189199L243.18948310216268,95.04669290621078L244.3933914343516,96.04878463859039L245.59729976654052,96.0491382431444L246.80120809872943,95.50029682807317L248.00511643091835,96.96375999568457L249.20902476310732,96.60164535875867L250.41293309529624,96.67230733546496L251.61684142748516,97.10530789864802L252.82074975967407,96.41734666521745L254.024658091863,96.83476505438787L255.2285664240519,97.27730115371028L256.4324747562408,96.85230384026593L257.6363830884298,96.97634831780672L258.8402914206187,96.91561084224918L260.04419975280763,96.54267590597108L261.24810808499655,96.93082762488935L262.45201641718546,97.03573030924065L263.6559247493744,97.06690644408437" fill="none"></path></g></g></g></g></g></g><g transform="translate(41, 177)" clip-path="url(#clip_1)"><clipPath id="clip_1"><rect width="288" height="22"></rect></clipPath><g><g><line x1="0" y1="0" x2="0" y2="5" style="visibility: inherit;" fill="rgb(0, 0, 0)" stroke="rgb(204, 204, 204)" stroke-width="1px"></line><line x1="24.07816664377848" y1="0" x2="24.07816664377848" y2="5" style="visibility: inherit;" fill="rgb(0, 0, 0)" stroke="rgb(204, 204, 204)" stroke-width="1px"></line><line x1="48.15633328755696" y1="0" x2="48.15633328755696" y2="5" style="visibility: inherit;" fill="rgb(0, 0, 0)" stroke="rgb(204, 204, 204)" stroke-width="1px"></line><line x1="72.23449993133545" y1="0" x2="72.23449993133545" y2="5" style="visibility: inherit;" fill="rgb(0, 0, 0)" stroke="rgb(204, 204, 204)" stroke-width="1px"></line><line x1="96.31266657511392" y1="0" x2="96.31266657511392" y2="5" style="visibility: inherit;" fill="rgb(0, 0, 0)" stroke="rgb(204, 204, 204)" stroke-width="1px"></line><line x1="120.39083321889242" y1="0" x2="120.39083321889242" y2="5" style="visibility: inherit;" fill="rgb(0, 0, 0)" stroke="rgb(204, 204, 204)" stroke-width="1px"></line><line x1="144.4689998626709" y1="0" x2="144.4689998626709" y2="5" style="visibility: inherit;" fill="rgb(0, 0, 0)" stroke="rgb(204, 204, 204)" stroke-width="1px"></line><line x1="168.5471665064494" y1="0" x2="168.5471665064494" y2="5" style="visibility: inherit;" fill="rgb(0, 0, 0)" stroke="rgb(204, 204, 204)" stroke-width="1px"></line><line x1="192.62533315022785" y1="0" x2="192.62533315022785" y2="5" style="visibility: inherit;" fill="rgb(0, 0, 0)" stroke="rgb(204, 204, 204)" stroke-width="1px"></line><line x1="216.70349979400635" y1="0" x2="216.70349979400635" y2="5" style="visibility: inherit;" fill="rgb(0, 0, 0)" stroke="rgb(204, 204, 204)" stroke-width="1px"></line><line x1="240.78166643778485" y1="0" x2="240.78166643778485" y2="5" style="visibility: inherit;" fill="rgb(0, 0, 0)" stroke="rgb(204, 204, 204)" stroke-width="1px"></line><line x1="264.8598330815633" y1="0" x2="264.8598330815633" y2="5" style="visibility: inherit;" fill="rgb(0, 0, 0)" stroke="rgb(204, 204, 204)" stroke-width="1px"></line><line x1="288.9379997253418" y1="0" x2="288.9379997253418" y2="5" style="visibility: inherit;" fill="rgb(0, 0, 0)" stroke="rgb(204, 204, 204)" stroke-width="1px"></line></g><g transform="translate(0, 8)"><text style="text-anchor: middle; visibility: hidden; font-family: &quot;Helvetica Neue&quot;, sans-serif; font-size: 12px; font-weight: 200;" x="0" y="0" dx="0em" dy="0.95em" fill="rgb(50, 49, 63)" stroke="none" stroke-width="1px">-20</text><text style="text-anchor: middle; visibility: inherit; font-family: &quot;Helvetica Neue&quot;, sans-serif; font-size: 12px; font-weight: 200;" x="24.07816664377848" y="0" dx="0em" dy="0.95em" fill="rgb(50, 49, 63)" stroke="none" stroke-width="1px">0</text><text style="text-anchor: middle; visibility: hidden; font-family: &quot;Helvetica Neue&quot;, sans-serif; font-size: 12px; font-weight: 200;" x="48.15633328755696" y="0" dx="0em" dy="0.95em" fill="rgb(50, 49, 63)" stroke="none" stroke-width="1px">20</text><text style="text-anchor: middle; visibility: inherit; font-family: &quot;Helvetica Neue&quot;, sans-serif; font-size: 12px; font-weight: 200;" x="72.23449993133545" y="0" dx="0em" dy="0.95em" fill="rgb(50, 49, 63)" stroke="none" stroke-width="1px">40</text><text style="text-anchor: middle; visibility: hidden; font-family: &quot;Helvetica Neue&quot;, sans-serif; font-size: 12px; font-weight: 200;" x="96.31266657511392" y="0" dx="0em" dy="0.95em" fill="rgb(50, 49, 63)" stroke="none" stroke-width="1px">60</text><text style="text-anchor: middle; visibility: inherit; font-family: &quot;Helvetica Neue&quot;, sans-serif; font-size: 12px; font-weight: 200;" x="120.39083321889242" y="0" dx="0em" dy="0.95em" fill="rgb(50, 49, 63)" stroke="none" stroke-width="1px">80</text><text style="text-anchor: middle; visibility: hidden; font-family: &quot;Helvetica Neue&quot;, sans-serif; font-size: 12px; font-weight: 200;" x="144.4689998626709" y="0" dx="0em" dy="0.95em" fill="rgb(50, 49, 63)" stroke="none" stroke-width="1px">100</text><text style="text-anchor: middle; visibility: inherit; font-family: &quot;Helvetica Neue&quot;, sans-serif; font-size: 12px; font-weight: 200;" x="168.5471665064494" y="0" dx="0em" dy="0.95em" fill="rgb(50, 49, 63)" stroke="none" stroke-width="1px">120</text><text style="text-anchor: middle; visibility: hidden; font-family: &quot;Helvetica Neue&quot;, sans-serif; font-size: 12px; font-weight: 200;" x="192.62533315022785" y="0" dx="0em" dy="0.95em" fill="rgb(50, 49, 63)" stroke="none" stroke-width="1px">140</text><text style="text-anchor: middle; visibility: inherit; font-family: &quot;Helvetica Neue&quot;, sans-serif; font-size: 12px; font-weight: 200;" x="216.70349979400635" y="0" dx="0em" dy="0.95em" fill="rgb(50, 49, 63)" stroke="none" stroke-width="1px">160</text><text style="text-anchor: middle; visibility: hidden; font-family: &quot;Helvetica Neue&quot;, sans-serif; font-size: 12px; font-weight: 200;" x="240.78166643778485" y="0" dx="0em" dy="0.95em" fill="rgb(50, 49, 63)" stroke="none" stroke-width="1px">180</text><text style="text-anchor: middle; visibility: inherit; font-family: &quot;Helvetica Neue&quot;, sans-serif; font-size: 12px; font-weight: 200;" x="264.8598330815633" y="0" dx="0em" dy="0.95em" fill="rgb(50, 49, 63)" stroke="none" stroke-width="1px">200</text><text style="text-anchor: middle; visibility: hidden; font-family: &quot;Helvetica Neue&quot;, sans-serif; font-size: 12px; font-weight: 200;" x="288.9379997253418" y="0" dx="0em" dy="0.95em" fill="rgb(50, 49, 63)" stroke="none" stroke-width="1px">220</text></g><line x1="0" y1="0" x2="288.9379997253418" y2="0" fill="rgb(0, 0, 0)" stroke="rgb(204, 204, 204)" stroke-width="1px"></line></g></g></g></g></svg>