<svg viewBox="0 0 330 200" xmlns="http://www.w3.org/2000/svg"><g><g><g><g><g><line x1="58" y1="178" x2="53" y2="178" style="visibility: inherit;" fill="rgb(0, 0, 0)" stroke="rgb(204, 204, 204)" stroke-width="1px"></line><line x1="58" y1="160.2" x2="53" y2="160.2" style="visibility: inherit;" fill="rgb(0, 0, 0)" stroke="rgb(204, 204, 204)" stroke-width="1px"></line><line x1="58" y1="142.4" x2="53" y2="142.4" style="visibility: inherit;" fill="rgb(0, 0, 0)" stroke="rgb(204, 204, 204)" stroke-width="1px"></line><line x1="58" y1="124.6" x2="53" y2="124.6" style="visibility: inherit;" fill="rgb(0, 0, 0)" stroke="rgb(204, 204, 204)" stroke-width="1px"></line><line x1="58" y1="106.8" x2="53" y2="106.8" style="visibility: inherit;" fill="rgb(0, 0, 0)" stroke="rgb(204, 204, 204)" stroke-width="1px"></line><line x1="58" y1="89" x2="53" y2="89" style="visibility: inherit;" fill="rgb(0, 0, 0)" stroke="rgb(204, 204, 204)" stroke-width="1px"></line><line x1="58" y1="71.19999999999999" x2="53" y2="71.19999999999999" style="visibility: inherit;" fill="rgb(0, 0, 0)" stroke="rgb(204, 204, 204)" stroke-width="1px"></line><line x1="58" y1="53.400000000000006" x2="53" y2="53.400000000000006" style="visibility: inherit;" fill="rgb(0, 0, 0)" stroke="rgb(204, 204, 204)" stroke-width="1px"></line><line x1="58" y1="35.599999999999994" x2="53" y2="35.599999999999994" style="visibility: inherit;" fill="rgb(0, 0, 0)" stroke="rgb(204, 204, 204)" stroke-width="1px"></line><line x1="58" y1="17.80000000000001" x2="53" y2="17.80000000000001" style="visibility: inherit;" fill="rgb(0, 0, 0)" stroke="rgb(204, 204, 204)" stroke-width="1px"></line><line x1="58" y1="0" x2="53" y2="0" style="visibility: inherit;" fill="rgb(0, 0, 0)" stroke="rgb(204, 204, 204)" stroke-width="1px"></line></g><g transform="translate(48, 0)"><text x="0" y="178" dx="0em" dy="0.3em" style="text-anchor: end; visibility: hidden; font-family: &quot;Helvetica Neue&quot;, sans-serif; font-size: 12px; font-weight: 200;" fill="rgb(50, 49, 63)" stroke="none" stroke-width="1px">0.25</text><text x="0" y="160.2" dx="0em" dy="0.3em" style="text-anchor: end; visibility: inherit; font-family: &quot;Helvetica Neue&quot;, sans-serif; font-size: 12px; font-weight: 200;" fill="rgb(50, 49, 63)" stroke="none" stroke-width="1px">0.3</text><text x="0" y="142.4" dx="0em" dy="0.3em" style="text-anchor: end; visibility: hidden; font-family: &quot;Helvetica Neue&quot;, sans-serif; font-size: 12px; font-weight: 200;" fill="rgb(50, 49, 63)" stroke="none" stroke-width="1px">0.35</text><text x="0" y="124.6" dx="0em" dy="0.3em" style="text-anchor: end; visibility: inherit; font-family: &quot;Helvetica Neue&quot;, sans-serif; font-size: 12px; font-weight: 200;" fill="rgb(50, 49, 63)" stroke="none" stroke-width="1px">0.4</text><text x="0" y="106.8" dx="0em" dy="0.3em" style="text-anchor: end; visibility: hidden; font-family: &quot;Helvetica Neue&quot;, sans-serif; font-size: 12px; font-weight: 200;" fill="rgb(50, 49, 63)" stroke="none" stroke-width="1px">0.45</text><text x="0" y="89" dx="0em" dy="0.3em" style="text-anchor: end; visibility: inherit; font-family: &quot;Helvetica Neue&quot;, sans-serif; font-size: 12px; font-weight: 200;" fill="rgb(50, 49, 63)" stroke="none" stroke-width="1px">0.5</text><text x="0" y="71.19999999999999" dx="0em" dy="0.3em" style="text-anchor: end; visibility: hidden; font-family: &quot;Helvetica Neue&quot;, sans-serif; font-size: 12px; font-weight: 200;" fill="rgb(50, 49, 63)" stroke="none" stroke-width="1px">0.55</text><text x="0" y="53.400000000000006" dx="0em" dy="0.3em" style="text-anchor: end; visibility: inherit; font-family: &quot;Helvetica Neue&quot;, sans-serif; font-size: 12px; font-weight: 200;" fill="rgb(50, 49, 63)" stroke="none" stroke-width="1px">0.6</text><text x="0" y="35.599999999999994" dx="0em" dy="0.3em" style="text-anchor: end; visibility: hidden; font-family: &quot;Helvetica Neue&quot;, sans-serif; font-size: 12px; font-weight: 200;" fill="rgb(50, 49, 63)" stroke="none" stroke-width="1px">0.65</text><text x="0" y="17.80000000000001" dx="0em" dy="0.3em" style="text-anchor: end; visibility: inherit; font-family: &quot;Helvetica Neue&quot;, sans-serif; font-size: 12px; font-weight: 200;" fill="rgb(50, 49, 63)" stroke="none" stroke-width="1px">0.7</text><text x="0" y="0" dx="0em" dy="0.3em" style="text-anchor: end; visibility: hidden; font-family: &quot;Helvetica Neue&quot;, sans-serif; font-size: 12px; font-weight: 200;" fill="rgb(50, 49, 63)" stroke="none" stroke-width="1px">0.75</text></g><line x1="58" y1="0" x2="58" y2="178" fill="rgb(0, 0, 0)" stroke="rgb(204, 204, 204)" stroke-width="1px"></line></g></g><g transform="translate(58, 0)" clip-path="url(#clip_0)"><clipPath id="clip_0"><rect width="272" height="178"></rect></clipPath><g><g><g><line x1="0" y1="0" x2="0" y2="178" fill="rgb(0, 0, 0)" stroke="rgb(60, 60, 60)" stroke-width="1px" opacity="0.25"></line><line x1="20.923076923076923" y1="0" x2="20.923076923076923" y2="178" fill="rgb(0, 0, 0)" stroke="rgb(60, 60, 60)" stroke-width="1px" opacity="0.25"></line><line x1="41.84615384615385" y1="0" x2="41.84615384615385" y2="178" fill="rgb(0, 0, 0)" stroke="rgb(60, 60, 60)" stroke-width="1px" opacity="0.25"></line><line x1="62.769230769230774" y1="0" x2="62.769230769230774" y2="178" fill="rgb(0, 0, 0)" stroke="rgb(60, 60, 60)" stroke-width="1px" opacity="0.25"></line><line x1="83.6923076923077" y1="0" x2="83.6923076923077" y2="178" fill="rgb(0, 0, 0)" stroke="rgb(60, 60, 60)" stroke-width="1px" opacity="0.25"></line><line x1="104.61538461538463" y1="0" x2="104.61538461538463" y2="178" fill="rgb(0, 0, 0)" stroke="rgb(60, 60, 60)" stroke-width="1px" opacity="0.25"></line><line x1="125.53846153846155" y1="0" x2="125.53846153846155" y2="178" fill="rgb(0, 0, 0)" stroke="rgb(60, 60, 60)" stroke-width="1px" opacity="0.25"></line><line x1="146.46153846153845" y1="0" x2="146.46153846153845" y2="178" fill="rgb(0, 0, 0)" stroke="rgb(60, 60, 60)" stroke-width="1px" opacity="0.25"></line><line x1="167.3846153846154" y1="0" x2="167.3846153846154" y2="178" fill="rgb(0, 0, 0)" stroke="rgb(60, 60, 60)" stroke-width="1px" opacity="0.25"></line><line x1="188.3076923076923" y1="0" x2="188.3076923076923" y2="178" fill="rgb(0, 0, 0)" stroke="rgb(60, 60, 60)" stroke-width="1px" opacity="0.25"></line><line x1="209.23076923076925" y1="0" x2="209.23076923076925" y2="178" fill="rgb(0, 0, 0)" stroke="rgb(60, 60, 60)" stroke-width="1px" opacity="0.25"></line><line x1="230.15384615384616" y1="0" x2="230.15384615384616" y2="178" fill="rgb(0, 0, 0)" stroke="rgb(60, 60, 60)" stroke-width="1px" opacity="0.25"></line><line x1="251.0769230769231" y1="0" x2="251.0769230769231" y2="178" fill="rgb(0, 0, 0)" stroke="rgb(60, 60, 60)" stroke-width="1px" opacity="0.25"></line><line x1="272" y1="0" x2="272" y2="178" fill="rgb(0, 0, 0)" stroke="rgb(60, 60, 60)" stroke-width="1px" opacity="0.25"></line></g><g><line x1="0" y1="178" x2="272" y2="178" fill="rgb(0, 0, 0)" stroke="rgb(60, 60, 60)" stroke-width="1px" opacity="0.25"></line><line x1="0" y1="160.2" x2="272" y2="160.2" fill="rgb(0, 0, 0)" stroke="rgb(60, 60, 60)" stroke-width="1px" opacity="0.25"></line><line x1="0" y1="142.4" x2="272" y2="142.4" fill="rgb(0, 0, 0)" stroke="rgb(60, 60, 60)" stroke-width="1px" opacity="0.25"></line><line x1="0" y1="124.6" x2="272" y2="124.6" fill="rgb(0, 0, 0)" stroke="rgb(60, 60, 60)" stroke-width="1px" opacity="0.25"></line><line x1="0" y1="106.8" x2="272" y2="106.8" fill="rgb(0, 0, 0)" stroke="rgb(60, 60, 60)" stroke-width="1px" opacity="0.25"></line><line x1="0" y1="89" x2="272" y2="89" fill="rgb(0, 0, 0)" stroke="rgb(60, 60, 60)" stroke-width="1px" opacity="0.25"></line><line x1="0" y1="71.19999999999999" x2="272" y2="71.19999999999999" fill="rgb(0, 0, 0)" stroke="rgb(60, 60, 60)" stroke-width="1px" opacity="0.25"></line><line x1="0" y1="53.400000000000006" x2="272" y2="53.400000000000006" fill="rgb(0, 0, 0)" stroke="rgb(60, 60, 60)" stroke-width="1px" opacity="0.25"></line><line x1="0" y1="35.599999999999994" x2="272" y2="35.599999999999994" fill="rgb(0, 0, 0)" stroke="rgb(60, 60, 60)" stroke-width="1px" opacity="0.25"></line><line x1="0" y1="17.80000000000001" x2="272" y2="17.80000000000001" fill="rgb(0, 0, 0)" stroke="rgb(60, 60, 60)" stroke-width="1px" opacity="0.25"></line><line x1="0" y1="0" x2="272" y2="0" fill="rgb(0, 0, 0)" stroke="rgb(60, 60, 60)" stroke-width="1px" opacity="0.25"></line></g></g></g><g><g><line x1="0" y1="267" x2="272" y2="267" fill="rgb(0, 0, 0)" stroke="rgb(153, 153, 153)" stroke-width="1.5px"></line></g></g><g><g><line x1="20.923076923076923" y1="0" x2="20.923076923076923" y2="178" fill="rgb(0, 0, 0)" stroke="rgb(153, 153, 153)" stroke-width="1.5px"></line></g></g><g><g><g><g><g><path stroke="rgb(51, 187, 238)" stroke-width="2px" d="M27.200000000000003,180.37807887792587L28.24615384615385,172.11888229846954L29.292307692307695,163.97359597682953L30.33846153846154,161.55279743671417L31.384615384615387,159.5022430419922L32.43076923076923,157.66528165340424L33.47692307692308,142.58511888980865L34.52307692307692,143.6602348089218L35.56923076923077,138.83999490737915L36.61538461538461,139.27432119846344L37.66153846153846,138.81151866912842L38.707692307692305,133.0585652589798L39.753846153846155,124.9061598777771L40.8,126.3942449092865L41.84615384615385,118.34151697158813L42.89230769230769,119.63735556602478L43.93846153846154,114.38991904258728L44.98461538461538,115.47216463088989L46.03076923076923,111.49207985401154L47.07692307692307,108.67256093025208L48.12307692307692,110.72311532497406L49.169230769230765,115.07344424724579L50.21538461538462,105.03424406051636L51.261538461538464,107.73271775245667L52.307692307692314,110.08944475650787L53.353846153846156,98.44112491607666L54.400000000000006,107.22720086574554L55.44615384615385,99.22431695461273L56.4923076923077,97.28055906295776L57.53846153846154,96.07015979290009L58.58461538461539,100.7978413105011L59.63076923076923,92.07583689689636L60.67692307692308,98.39128088951111L61.723076923076924,93.72056245803833L62.769230769230774,92.37487983703613L63.815384615384616,89.51975500583649L64.86153846153846,97.4799245595932L65.9076923076923,86.03095960617065L66.95384615384616,93.62800407409668L68,88.39480566978455L69.04615384615384,86.76431822776794L70.09230769230768,89.82591700553894L71.13846153846154,88.41615223884583L72.18461538461538,84.50016021728516L73.23076923076923,87.68279361724854L74.27692307692307,83.43928241729736L75.32307692307693,80.37055397033691L76.36923076923077,81.3816089630127L77.41538461538461,83.4677586555481L78.46153846153845,79.95760607719421L79.50769230769231,83.20432162284851L80.55384615384615,85.53967022895813L81.6,77.77176833152771L82.64615384615384,77.16655278205872L83.6923076923077,77.49407196044922L84.73846153846154,79.103191614151L85.78461538461538,75.92768788337708L86.83076923076922,80.84047555923462L87.87692307692308,76.46880006790161L88.92307692307692,74.28296232223511L89.96923076923076,72.86608910560608L91.0153846153846,74.47520875930786L92.06153846153846,82.6347119808197L93.1076923076923,83.5104730129242L94.15384615384615,82.5065689086914L95.19999999999999,78.6902437210083L96.24615384615385,82.00104141235352L97.29230769230769,82.67744755744934L98.33846153846153,79.00352478027344L99.38461538461537,72.53144025802612L100.43076923076924,72.84472131729126L101.47692307692307,67.89632773399353L102.52307692307693,70.77280974388123L103.56923076923076,71.83368754386902L104.61538461538463,68.8504090309143L105.66153846153847,68.62968635559082L106.70769230769231,68.13128852844238L107.75384615384615,66.52927732467651L108.80000000000001,82.72727036476135L109.84615384615385,69.13519263267517L110.8923076923077,70.8368706703186L111.93846153846154,70.29575848579407L112.9846153846154,70.41679310798645L114.03076923076924,67.45488238334656L115.07692307692308,66.40111303329468L116.12307692307692,67.04191327095032L117.16923076923078,77.45848727226257L118.21538461538462,65.7318365573883L119.26153846153846,62.60615563392639L120.3076923076923,69.2562484741211L121.35384615384616,67.86072182655334L122.4,67.53320264816284L123.44615384615385,64.61400628089905L124.49230769230769,65.15511846542358L125.53846153846155,63.19711184501648L126.58461538461539,69.41999745368958L127.63076923076923,66.25871062278748L128.67692307692306,65.61080193519592L129.72307692307692,65.05543041229248L130.76923076923077,61.66631245613098L131.8153846153846,63.944729804992676L132.86153846153846,64.27935743331909L133.90769230769232,71.01487898826599L134.95384615384614,68.55136609077454L136,65.43279361724854L137.04615384615386,62.19320774078369L138.09230769230768,68.24519348144531L139.1384615384615,67.2199215888977L140.18461538461537,60.576958417892456L141.23076923076925,61.86568856239319L142.27692307692308,69.83296656608582L143.32307692307694,71.7126317024231L144.36923076923077,64.00879073143005L145.41538461538462,63.39648795127869L146.46153846153845,60.09992837905884L147.5076923076923,60.42031788825989L148.55384615384614,62.14336371421814L149.60000000000002,69.81872844696045L150.64615384615385,64.5214478969574L151.6923076923077,58.5263934135437L152.73846153846154,62.60615563392639L153.7846153846154,59.53744840621948L154.83076923076922,64.4217598438263L155.87692307692308,60.1995952129364L156.9230769230769,61.38863730430603L157.9692307692308,60.66240835189819L159.01538461538462,62.53496503829956L160.06153846153848,56.312079429626465L161.1076923076923,61.8727970123291L162.15384615384616,67.42640614509583L163.2,62.428168535232544L164.24615384615385,56.333447217941284L165.29230769230767,61.75176239013672L166.33846153846156,55.77807569503784L167.3846153846154,56.96711778640747L168.43076923076924,61.65920400619507L169.47692307692307,59.33096385002136L170.52307692307693,63.738245248794556L171.56923076923076,58.22024202346802L172.6153846153846,59.40928411483765L173.66153846153844,60.56272029876709L174.70769230769233,64.04439663887024L175.75384615384615,61.33879327774048L176.8,60.87600135803223L177.84615384615384,61.7303946018219L178.8923076923077,55.258310079574585L179.93846153846152,57.31600475311279L180.98461538461538,60.87600135803223L182.0307692307692,73.4855215549469L183.0769230769231,56.98848557472229L184.12307692307692,57.74319076538086L185.16923076923078,57.54383587837219L186.2153846153846,56.57551646232605L187.26153846153846,60.49863815307617L188.3076923076923,41.27463102340698L189.35384615384615,40.4131293296814L190.39999999999998,40.48431992530823L191.44615384615386,39.238325357437134L192.4923076923077,39.0674467086792L193.53846153846155,39.907601833343506L194.58461538461538,38.26287627220154L195.63076923076923,38.70432162284851L196.67692307692306,38.34119653701782L197.72307692307692,37.5793616771698L198.76923076923075,36.51848387718201L199.81538461538463,37.38000679016113L200.8615384615385,37.34440088272095L201.90769230769232,38.03504514694214L202.95384615384614,37.36576867103577L204,37.2518424987793L205.04615384615386,37.565123558044434L206.09230769230768,36.603912591934204L207.1384615384615,36.93856143951416L208.18461538461537,37.50814986228943L209.23076923076925,36.376081466674805L210.27692307692308,36.43303394317627L211.32307692307694,36.68223285675049L212.36923076923077,36.54696011543274L213.41538461538462,35.870553970336914L214.46153846153845,35.870553970336914L215.5076923076923,34.816805839538574L216.55384615384614,35.61424660682678L217.60000000000002,35.83496928215027L218.64615384615385,36.2336790561676L219.6923076923077,36.447272062301636L220.73846153846154,35.21551561355591L221.7846153846154,34.724247455596924L222.83076923076922,35.571511030197144L223.87692307692308,34.96631669998169L224.9230769230769,34.99479293823242L225.9692307692308,34.67440342903137L227.01538461538462,34.34688425064087L228.06153846153848,35.6783287525177L229.1076923076923,35.15143346786499L230.15384615384616,35.137195348739624L231.2,35.32944178581238L232.24615384615385,34.93784046173096L233.29230769230767,34.63879752159119L234.33846153846156,34.78119993209839L235.3846153846154,35.15856313705444L236.43076923076924,35.165671586990356L237.47692307692307,35.094480991363525L238.52307692307693,33.72743058204651L239.56923076923076,34.887996435165405L240.6153846153846,34.44655108451843L241.66153846153844,34.019365072250366L242.70769230769233,33.855594873428345L243.75384615384615,34.005126953125L244.8,34.2329580783844L245.84615384615384,34.52487134933472L246.8923076923077,33.577919721603394L247.93846153846152,32.85879921913147L248.98461538461538,33.65623998641968L250.0307692307692,32.894405126571655L251.0769230769231,34.603191614151L252.12307692307692,33.741689920425415L253.16923076923078,34.80967617034912L254.2153846153846,33.990888833999634L255.26153846153846,33.9054388999939L256.3076923076923,32.43159198760986" style="fill: none;" fill="none"></path></g><g><path stroke="rgb(0, 119, 187)" stroke-width="2px" d="M26.153846153846157,185.58280104398727L27.200000000000003,174.01279616355896L28.24615384615385,167.81839740276337L29.292307692307695,159.45239901542664L30.33846153846154,156.10599541664124L31.384615384615387,153.68519687652588L32.43076923076923,148.13159835338593L33.47692307692308,138.87560081481934L34.52307692307692,136.7752023935318L35.56923076923077,133.85599541664124L36.61538461538461,135.92079854011536L37.66153846153846,131.00800025463104L38.707692307692305,128.16000509262085L39.753846153846155,118.90399694442749L40.8,122.17919933795929L41.84615384615385,115.62880516052246L42.89230769230769,117.97840249538422L43.93846153846154,113.84879624843597L44.98461538461538,114.84560251235962L46.03076923076923,104.62840461730957L47.07692307692307,106.15920400619507L48.12307692307692,105.94560039043427L49.169230769230765,107.01359724998474L50.21538461538462,106.3727970123291L51.261538461538464,104.77079641819L52.307692307692314,106.6576018333435L53.353846153846156,98.93240368366241L54.400000000000006,102.70600390434265L55.44615384615385,99.64440512657166L56.4923076923077,99.32400500774384L57.53846153846154,97.33040308952332L58.58461538461539,100.56999957561493L59.63076923076923,93.91279828548431L60.67692307692308,97.86439621448517L61.723076923076924,94.58920443058014L62.769230769230774,91.88360106945038L63.815384615384616,89.88999915122986L64.86153846153846,97.72200441360474L65.9076923076923,88.18119144439697L66.95384615384616,91.56320095062256L68,90.5307993888855L69.04615384615384,87.96759843826294L70.09230769230768,92.52440130710602L71.13846153846154,92.2752023935318L72.18461538461538,89.32040011882782L73.23076923076923,92.3464035987854L74.27692307692307,86.22320604324341L75.32307692307693,82.20039629936218L76.36923076923077,84.83480906486511L77.41538461538461,89.32040011882782L78.46153846153845,82.37840461730957L79.50769230769231,84.47879242897034L80.55384615384615,90.17480397224426L81.6,84.97719025611877L82.64615384615384,80.74080872535706L83.6923076923077,81.13241004943848L84.73846153846154,84.5856101512909L85.78461538461538,79.3879964351654L86.83076923076922,82.62760353088379L87.87692307692308,80.81199932098389L88.92307692307692,79.06760692596436L89.96923076923076,79.3879964351654L91.0153846153846,80.13559317588806L92.06153846153846,85.97400712966919L93.1076923076923,85.19080448150635L94.15384615384615,87.78959012031555L95.19999999999999,86.04519772529602L96.24615384615385,81.80879497528076L97.29230769230769,85.33320689201355L98.33846153846153,80.52719449996948L99.38461538461537,77.32319331169128L100.43076923076924,81.27479124069214L101.47692307692307,75.32960200309753L102.52307692307693,77.14520621299744L103.56923076923076,75.1160089969635L104.61538461538463,76.53999066352844L105.66153846153847,78.42680668830872L106.70769230769231,74.75999236106873L107.75384615384615,74.11919212341309L108.80000000000001,86.57920145988464L109.84615384615385,79.8508095741272L110.8923076923077,76.39760947227478L111.93846153846154,77.25200271606445L112.9846153846154,75.29399609565735L114.03076923076924,76.57559657096863L115.07692307692308,73.83440852165222L116.12307692307692,75.68559741973877L117.16923076923078,85.40439748764038L118.21538461538462,72.73079514503479L119.26153846153846,72.69521045684814L120.3076923076923,77.96399354934692L121.35384615384616,78.78280210494995L122.4,73.4428071975708L123.44615384615385,72.26800322532654L124.49230769230769,73.37159538269043L125.53846153846155,74.72440767288208L126.58461538461539,79.28119993209839L127.63076923076923,76.3620035648346L128.67692307692306,75.97040224075317L129.72307692307692,74.8312041759491L130.76923076923077,71.37800407409668L131.8153846153846,72.73079514503479L132.86153846153846,71.30679225921631L133.90769230769232,78.35559487342834L134.95384615384614,81.0611982345581L136,78.07079005241394L137.04615384615386,74.15479803085327L138.09230769230768,78.67600560188293L139.1384615384615,75.29399609565735L140.18461538461537,70.34560251235962L141.23076923076925,71.59159708023071L142.27692307692308,79.3879964351654L143.32307692307694,78.0352053642273L144.36923076923077,76.5044059753418L145.41538461538462,75.00919127464294L146.46153846153845,71.55599117279053L147.5076923076923,71.19999575614929L148.55384615384614,75.68559741973877L149.60000000000002,77.46559572219849L150.64615384615385,73.3004047870636L151.6923076923077,70.2388060092926L152.73846153846154,73.76319670677185L153.7846153846154,72.73079514503479L154.83076923076922,71.73399949073792L155.87692307692308,72.30360913276672L156.9230769230769,70.48800492286682L157.9692307692308,73.33598947525024L159.01538461538462,74.43960285186768L160.06153846153848,70.55919551849365L161.1076923076923,71.55599117279053L162.15384615384616,78.1776077747345L163.2,70.95079684257507L164.24615384615385,68.7080066204071L165.29230769230767,74.40399694442749L166.33846153846156,70.70159792900085L167.3846153846154,71.23560166358948L168.43076923076924,70.95079684257507L169.47692307692307,73.26479887962341L170.52307692307693,73.12239646911621L171.56923076923076,69.91839528083801L172.6153846153846,69.59800577163696L173.66153846153844,72.44599032402039L174.70769230769233,74.79559826850891L175.75384615384615,73.12239646911621L176.8,69.34880685806274L177.84615384615384,75.32960200309753L178.8923076923077,67.67560505867004L179.93846153846152,71.66280889511108L180.98461538461538,72.08999490737915L182.0307692307692,82.98359894752502L183.0769230769231,72.08999490737915L184.12307692307692,73.05120587348938L185.16923076923078,70.41679310798645L186.2153846153846,69.77599287033081L187.26153846153846,72.58839273452759L188.3076923076923,58.5263934135437L189.35384615384615,58.77559232711792L190.39999999999998,58.3839910030365L191.44615384615386,57.458407163619995L192.4923076923077,58.84680414199829L193.53846153846155,58.20600390434265L194.58461538461538,58.34840631484985L195.63076923076923,57.209208250045776L196.67692307692306,57.35158944129944L197.72307692307692,57.99238967895508L198.76923076923075,56.63959860801697L199.81538461538463,57.6008095741272L200.8615384615385,57.35158944129944L201.90769230769232,56.60399270057678L202.95384615384614,57.458407163619995L204,58.811198234558105L205.04615384615386,56.853191614151L206.09230769230768,56.96000933647156L207.1384615384615,57.387195348739624L208.18461538461537,57.35158944129944L209.23076923076925,57.10239052772522L210.27692307692308,57.066805839538574L211.32307692307694,57.95680499076843L212.36923076923077,56.497196197509766L213.41538461538462,57.81440258026123L214.46153846153845,57.03119993209839L215.5076923076923,56.21239137649536L216.55384615384614,56.53280210494995L217.60000000000002,57.066805839538574L218.64615384615385,56.78200101852417L219.6923076923077,56.53280210494995L220.73846153846154,56.817606925964355L221.7846153846154,57.67200016975403L222.83076923076922,57.31600475311279L223.87692307692308,57.42280125617981L224.9230769230769,56.0700101852417L225.9692307692308,56.78200101852417L227.01538461538462,56.63959860801697L228.06153846153848,56.60399270057678L229.1076923076923,56.67520451545715L230.15384615384616,56.63959860801697L231.2,57.03119993209839L232.24615384615385,55.82079005241394L233.29230769230767,56.21239137649536L234.33846153846156,56.746395111083984L235.3846153846154,56.71081042289734L236.43076923076924,56.9955940246582L237.47692307692307,56.92440342903137L238.52307692307693,56.46159029006958L239.56923076923076,56.35479378700256L240.6153846153846,56.53280210494995L241.66153846153844,56.63959860801697L242.70769230769233,56.67520451545715L243.75384615384615,55.89200186729431L244.8,56.426005601882935L245.84615384615384,58.27719449996948L246.8923076923077,55.9276077747345L247.93846153846152,56.817606925964355L248.98461538461538,56.853191614151L250.0307692307692,57.137996435165405L251.0769230769231,56.88879752159119L252.12307692307692,57.17360234260559L253.16923076923078,56.88879752159119L254.2153846153846,56.034404277801514L255.26153846153846,57.74319076538086L256.3076923076923,55.9276077747345" style="fill: none;" fill="none"></path></g></g></g></g></g></g><g transform="translate(58, 178)" clip-path="url(#clip_1)"><clipPath id="clip_1"><rect width="272" height="22"></rect></clipPath><g><g><line x1="0" y1="0" x2="0" y2="5" style="visibility: inherit;" fill="rgb(0, 0, 0)" stroke="rgb(204, 204, 204)" stroke-width="1px"></line><line x1="20.923076923076923" y1="0" x2="20.923076923076923" y2="5" style="visibility: inherit;" fill="rgb(0, 0, 0)" stroke="rgb(204, 204, 204)" stroke-width="1px"></line><line x1="41.84615384615385" y1="0" x2="41.84615384615385" y2="5" style="visibility: inherit;" fill="rgb(0, 0, 0)" stroke="rgb(204, 204, 204)" stroke-width="1px"></line><line x1="62.769230769230774" y1="0" x2="62.769230769230774" y2="5" style="visibility: inherit;" fill="rgb(0, 0, 0)" stroke="rgb(204, 204, 204)" stroke-width="1px"></line><line x1="83.6923076923077" y1="0" x2="83.6923076923077" y2="5" style="visibility: inherit;" fill="rgb(0, 0, 0)" stroke="rgb(204, 204, 204)" stroke-width="1px"></line><line x1="104.61538461538463" y1="0" x2="104.61538461538463" y2="5" style="visibility: inherit;" fill="rgb(0, 0, 0)" stroke="rgb(204, 204, 204)" stroke-width="1px"></line><line x1="125.53846153846155" y1="0" x2="125.53846153846155" y2="5" style="visibility: inherit;" fill="rgb(0, 0, 0)" stroke="rgb(204, 204, 204)" stroke-width="1px"></line><line x1="146.46153846153845" y1="0" x2="146.46153846153845" y2="5" style="visibility: inherit;" fill="rgb(0, 0, 0)" stroke="rgb(204, 204, 204)" stroke-width="1px"></line><line x1="167.3846153846154" y1="0" x2="167.3846153846154" y2="5" style="visibility: inherit;" fill="rgb(0, 0, 0)" stroke="rgb(204, 204, 204)" stroke-width="1px"></line><line x1="188.3076923076923" y1="0" x2="188.3076923076923" y2="5" style="visibility: inherit;" fill="rgb(0, 0, 0)" stroke="rgb(204, 204, 204)" stroke-width="1px"></line><line x1="209.23076923076925" y1="0" x2="209.23076923076925" y2="5" style="visibility: inherit;" fill="rgb(0, 0, 0)" stroke="rgb(204, 204, 204)" stroke-width="1px"></line><line x1="230.15384615384616" y1="0" x2="230.15384615384616" y2="5" style="visibility: inherit;" fill="rgb(0, 0, 0)" stroke="rgb(204, 204, 204)" stroke-width="1px"></line><line x1="251.0769230769231" y1="0" x2="251.0769230769231" y2="5" style="visibility: inherit;" fill="rgb(0, 0, 0)" stroke="rgb(204, 204, 204)" stroke-width="1px"></line><line x1="272" y1="0" x2="272" y2="5" style="visibility: inherit;" fill="rgb(0, 0, 0)" stroke="rgb(204, 204, 204)" stroke-width="1px"></line></g><g transform="translate(0, 8)"><text x="0" y="0" dx="0em" dy="0.95em" style="text-anchor: middle; visibility: hidden; font-family: &quot;Helvetica Neue&quot;, sans-serif; font-size: 12px; font-weight: 200;" fill="rgb(50, 49, 63)" stroke="none" stroke-width="1px">-20</text><text x="20.923076923076923" y="0" dx="0em" dy="0.95em" style="text-anchor: middle; visibility: inherit; font-family: &quot;Helvetica Neue&quot;, sans-serif; font-size: 12px; font-weight: 200;" fill="rgb(50, 49, 63)" stroke="none" stroke-width="1px">0</text><text x="41.84615384615385" y="0" dx="0em" dy="0.95em" style="text-anchor: middle; visibility: hidden; font-family: &quot;Helvetica Neue&quot;, sans-serif; font-size: 12px; font-weight: 200;" fill="rgb(50, 49, 63)" stroke="none" stroke-width="1px">20</text><text x="62.769230769230774" y="0" dx="0em" dy="0.95em" style="text-anchor: middle; visibility: inherit; font-family: &quot;Helvetica Neue&quot;, sans-serif; font-size: 12px; font-weight: 200;" fill="rgb(50, 49, 63)" stroke="none" stroke-width="1px">40</text><text x="83.6923076923077" y="0" dx="0em" dy="0.95em" style="text-anchor: middle; visibility: hidden; font-family: &quot;Helvetica Neue&quot;, sans-serif; font-size: 12px; font-weight: 200;" fill="rgb(50, 49, 63)" stroke="none" stroke-width="1px">60</text><text x="104.61538461538463" y="0" dx="0em" dy="0.95em" style="text-anchor: middle; visibility: inherit; font-family: &quot;Helvetica Neue&quot;, sans-serif; font-size: 12px; font-weight: 200;" fill="rgb(50, 49, 63)" stroke="none" stroke-width="1px">80</text><text x="125.53846153846155" y="0" dx="0em" dy="0.95em" style="text-anchor: middle; visibility: hidden; font-family: &quot;Helvetica Neue&quot;, sans-serif; font-size: 12px; font-weight: 200;" fill="rgb(50, 49, 63)" stroke="none" stroke-width="1px">100</text><text x="146.46153846153845" y="0" dx="0em" dy="0.95em" style="text-anchor: middle; visibility: inherit; font-family: &quot;Helvetica Neue&quot;, sans-serif; font-size: 12px; font-weight: 200;" fill="rgb(50, 49, 63)" stroke="none" stroke-width="1px">120</text><text x="167.3846153846154" y="0" dx="0em" dy="0.95em" style="text-anchor: middle; visibility: hidden; font-family: &quot;Helvetica Neue&quot;, sans-serif; font-size: 12px; font-weight: 200;" fill="rgb(50, 49, 63)" stroke="none" stroke-width="1px">140</text><text x="188.3076923076923" y="0" dx="0em" dy="0.95em" style="text-anchor: middle; visibility: inherit; font-family: &quot;Helvetica Neue&quot;, sans-serif; font-size: 12px; font-weight: 200;" fill="rgb(50, 49, 63)" stroke="none" stroke-width="1px">160</text><text x="209.23076923076925" y="0" dx="0em" dy="0.95em" style="text-anchor: middle; visibility: hidden; font-family: &quot;Helvetica Neue&quot;, sans-serif; font-size: 12px; font-weight: 200;" fill="rgb(50, 49, 63)" stroke="none" stroke-width="1px">180</text><text x="230.15384615384616" y="0" dx="0em" dy="0.95em" style="text-anchor: middle; visibility: inherit; font-family: &quot;Helvetica Neue&quot;, sans-serif; font-size: 12px; font-weight: 200;" fill="rgb(50, 49, 63)" stroke="none" stroke-width="1px">200</text><text x="251.0769230769231" y="0" dx="0em" dy="0.95em" style="text-anchor: middle; visibility: hidden; font-family: &quot;Helvetica Neue&quot;, sans-serif; font-size: 12px; font-weight: 200;" fill="rgb(50, 49, 63)" stroke="none" stroke-width="1px">220</text><text x="272" y="0" dx="0em" dy="0.95em" style="text-anchor: middle; visibility: hidden; font-family: &quot;Helvetica Neue&quot;, sans-serif; font-size: 12px; font-weight: 200;" fill="rgb(50, 49, 63)" stroke="none" stroke-width="1px">240</text></g><line x1="0" y1="0" x2="272" y2="0" fill="rgb(0, 0, 0)" stroke="rgb(204, 204, 204)" stroke-width="1px"></line></g></g></g></g></svg>