<svg viewBox="0 0 330 200" xmlns="http://www.w3.org/2000/svg"><g><g><g><g><g><line x1="58" y1="178" x2="53" y2="178" style="visibility: inherit;" fill="rgb(0, 0, 0)" stroke="rgb(204, 204, 204)" stroke-width="1px"></line><line x1="58" y1="152.57142857142858" x2="53" y2="152.57142857142858" style="visibility: inherit;" fill="rgb(0, 0, 0)" stroke="rgb(204, 204, 204)" stroke-width="1px"></line><line x1="58" y1="127.14285714285714" x2="53" y2="127.14285714285714" style="visibility: inherit;" fill="rgb(0, 0, 0)" stroke="rgb(204, 204, 204)" stroke-width="1px"></line><line x1="58" y1="101.71428571428572" x2="53" y2="101.71428571428572" style="visibility: inherit;" fill="rgb(0, 0, 0)" stroke="rgb(204, 204, 204)" stroke-width="1px"></line><line x1="58" y1="76.28571428571429" x2="53" y2="76.28571428571429" style="visibility: inherit;" fill="rgb(0, 0, 0)" stroke="rgb(204, 204, 204)" stroke-width="1px"></line><line x1="58" y1="50.85714285714286" x2="53" y2="50.85714285714286" style="visibility: inherit;" fill="rgb(0, 0, 0)" stroke="rgb(204, 204, 204)" stroke-width="1px"></line><line x1="58" y1="25.428571428571445" x2="53" y2="25.428571428571445" style="visibility: inherit;" fill="rgb(0, 0, 0)" stroke="rgb(204, 204, 204)" stroke-width="1px"></line><line x1="58" y1="0" x2="53" y2="0" style="visibility: inherit;" fill="rgb(0, 0, 0)" stroke="rgb(204, 204, 204)" stroke-width="1px"></line></g><g transform="translate(48, 0)"><text x="0" y="178" dx="0em" dy="0.3em" style="text-anchor: end; visibility: hidden; font-family: &quot;Helvetica Neue&quot;, sans-serif; font-size: 12px; font-weight: 200;" fill="rgb(50, 49, 63)" stroke="none" stroke-width="1px">-0.5</text><text x="0" y="152.57142857142858" dx="0em" dy="0.3em" style="text-anchor: end; visibility: inherit; font-family: &quot;Helvetica Neue&quot;, sans-serif; font-size: 12px; font-weight: 200;" fill="rgb(50, 49, 63)" stroke="none" stroke-width="1px">0</text><text x="0" y="127.14285714285714" dx="0em" dy="0.3em" style="text-anchor: end; visibility: inherit; font-family: &quot;Helvetica Neue&quot;, sans-serif; font-size: 12px; font-weight: 200;" fill="rgb(50, 49, 63)" stroke="none" stroke-width="1px">0.5</text><text x="0" y="101.71428571428572" dx="0em" dy="0.3em" style="text-anchor: end; visibility: inherit; font-family: &quot;Helvetica Neue&quot;, sans-serif; font-size: 12px; font-weight: 200;" fill="rgb(50, 49, 63)" stroke="none" stroke-width="1px">1</text><text x="0" y="76.28571428571429" dx="0em" dy="0.3em" style="text-anchor: end; visibility: inherit; font-family: &quot;Helvetica Neue&quot;, sans-serif; font-size: 12px; font-weight: 200;" fill="rgb(50, 49, 63)" stroke="none" stroke-width="1px">1.5</text><text x="0" y="50.85714285714286" dx="0em" dy="0.3em" style="text-anchor: end; visibility: inherit; font-family: &quot;Helvetica Neue&quot;, sans-serif; font-size: 12px; font-weight: 200;" fill="rgb(50, 49, 63)" stroke="none" stroke-width="1px">2</text><text x="0" y="25.428571428571445" dx="0em" dy="0.3em" style="text-anchor: end; visibility: inherit; font-family: &quot;Helvetica Neue&quot;, sans-serif; font-size: 12px; font-weight: 200;" fill="rgb(50, 49, 63)" stroke="none" stroke-width="1px">2.5</text><text x="0" y="0" dx="0em" dy="0.3em" style="text-anchor: end; visibility: hidden; font-family: &quot;Helvetica Neue&quot;, sans-serif; font-size: 12px; font-weight: 200;" fill="rgb(50, 49, 63)" stroke="none" stroke-width="1px">3</text></g><line x1="58" y1="0" x2="58" y2="178" fill="rgb(0, 0, 0)" stroke="rgb(204, 204, 204)" stroke-width="1px"></line></g></g><g transform="translate(58, 0)" clip-path="url(#clip_0)"><clipPath id="clip_0"><rect width="272" height="178"></rect></clipPath><g><g><g><line x1="0" y1="0" x2="0" y2="178" fill="rgb(0, 0, 0)" stroke="rgb(60, 60, 60)" stroke-width="1px" opacity="0.25"></line><line x1="20.923076923076923" y1="0" x2="20.923076923076923" y2="178" fill="rgb(0, 0, 0)" stroke="rgb(60, 60, 60)" stroke-width="1px" opacity="0.25"></line><line x1="41.84615384615385" y1="0" x2="41.84615384615385" y2="178" fill="rgb(0, 0, 0)" stroke="rgb(60, 60, 60)" stroke-width="1px" opacity="0.25"></line><line x1="62.769230769230774" y1="0" x2="62.769230769230774" y2="178" fill="rgb(0, 0, 0)" stroke="rgb(60, 60, 60)" stroke-width="1px" opacity="0.25"></line><line x1="83.6923076923077" y1="0" x2="83.6923076923077" y2="178" fill="rgb(0, 0, 0)" stroke="rgb(60, 60, 60)" stroke-width="1px" opacity="0.25"></line><line x1="104.61538461538463" y1="0" x2="104.61538461538463" y2="178" fill="rgb(0, 0, 0)" stroke="rgb(60, 60, 60)" stroke-width="1px" opacity="0.25"></line><line x1="125.53846153846155" y1="0" x2="125.53846153846155" y2="178" fill="rgb(0, 0, 0)" stroke="rgb(60, 60, 60)" stroke-width="1px" opacity="0.25"></line><line x1="146.46153846153845" y1="0" x2="146.46153846153845" y2="178" fill="rgb(0, 0, 0)" stroke="rgb(60, 60, 60)" stroke-width="1px" opacity="0.25"></line><line x1="167.3846153846154" y1="0" x2="167.3846153846154" y2="178" fill="rgb(0, 0, 0)" stroke="rgb(60, 60, 60)" stroke-width="1px" opacity="0.25"></line><line x1="188.3076923076923" y1="0" x2="188.3076923076923" y2="178" fill="rgb(0, 0, 0)" stroke="rgb(60, 60, 60)" stroke-width="1px" opacity="0.25"></line><line x1="209.23076923076925" y1="0" x2="209.23076923076925" y2="178" fill="rgb(0, 0, 0)" stroke="rgb(60, 60, 60)" stroke-width="1px" opacity="0.25"></line><line x1="230.15384615384616" y1="0" x2="230.15384615384616" y2="178" fill="rgb(0, 0, 0)" stroke="rgb(60, 60, 60)" stroke-width="1px" opacity="0.25"></line><line x1="251.0769230769231" y1="0" x2="251.0769230769231" y2="178" fill="rgb(0, 0, 0)" stroke="rgb(60, 60, 60)" stroke-width="1px" opacity="0.25"></line><line x1="272" y1="0" x2="272" y2="178" fill="rgb(0, 0, 0)" stroke="rgb(60, 60, 60)" stroke-width="1px" opacity="0.25"></line></g><g><line x1="0" y1="178" x2="272" y2="178" fill="rgb(0, 0, 0)" stroke="rgb(60, 60, 60)" stroke-width="1px" opacity="0.25"></line><line x1="0" y1="152.57142857142858" x2="272" y2="152.57142857142858" fill="rgb(0, 0, 0)" stroke="rgb(60, 60, 60)" stroke-width="1px" opacity="0.25"></line><line x1="0" y1="127.14285714285714" x2="272" y2="127.14285714285714" fill="rgb(0, 0, 0)" stroke="rgb(60, 60, 60)" stroke-width="1px" opacity="0.25"></line><line x1="0" y1="101.71428571428572" x2="272" y2="101.71428571428572" fill="rgb(0, 0, 0)" stroke="rgb(60, 60, 60)" stroke-width="1px" opacity="0.25"></line><line x1="0" y1="76.28571428571429" x2="272" y2="76.28571428571429" fill="rgb(0, 0, 0)" stroke="rgb(60, 60, 60)" stroke-width="1px" opacity="0.25"></line><line x1="0" y1="50.85714285714286" x2="272" y2="50.85714285714286" fill="rgb(0, 0, 0)" stroke="rgb(60, 60, 60)" stroke-width="1px" opacity="0.25"></line><line x1="0" y1="25.428571428571445" x2="272" y2="25.428571428571445" fill="rgb(0, 0, 0)" stroke="rgb(60, 60, 60)" stroke-width="1px" opacity="0.25"></line><line x1="0" y1="0" x2="272" y2="0" fill="rgb(0, 0, 0)" stroke="rgb(60, 60, 60)" stroke-width="1px" opacity="0.25"></line></g></g></g><g><g><line x1="0" y1="152.57142857142858" x2="272" y2="152.57142857142858" fill="rgb(0, 0, 0)" stroke="rgb(153, 153, 153)" stroke-width="1.5px"></line></g></g><g><g><line x1="20.923076923076923" y1="0" x2="20.923076923076923" y2="178" fill="rgb(0, 0, 0)" stroke="rgb(153, 153, 153)" stroke-width="1.5px"></line></g></g><g><g><g><g><g><path stroke="rgb(238, 51, 119)" stroke-width="2px" d="M27.200000000000003,-2.0026367732456833L28.24615384615385,3.8899620601109177L29.292307692307695,9.313518387930742L30.33846153846154,12.230862617492676L31.384615384615387,13.349202156066895L32.43076923076923,16.15059225899833L33.47692307692308,24.572901998247403L34.52307692307692,23.971572603498203L35.56923076923077,26.83609907967704L36.61538461538461,26.19696303776334L37.66153846153846,27.398967061723965L38.707692307692305,30.769057410103926L39.753846153846155,36.34571974618095L40.8,35.46702439444405L41.84615384615385,40.38402257646834L42.89230769230769,38.989614486694336L43.93846153846154,43.83012635367257L44.98461538461538,42.464091437203535L46.03076923076923,46.02015944889615L47.07692307692307,46.37698241642545L48.12307692307692,46.336520331246504L49.169230769230765,42.981295585632324L50.21538461538462,49.47322314126151L51.261538461538464,48.14481299264091L52.307692307692314,46.39393356868197L53.353846153846156,52.52293913705009L54.400000000000006,49.10537828717912L55.44615384615385,53.64403717858451L56.4923076923077,53.933073725019185L57.53846153846154,54.73992068426949L58.58461538461539,51.67556340353829L59.63076923076923,57.2654241153172L60.67692307692308,53.41913734163556L61.723076923076924,56.84059647151402L62.769230769230774,56.772840363638736L63.815384615384616,58.77329458509173L64.86153846153846,54.7131177357265L65.9076923076923,60.533437728881836L66.95384615384616,56.74152074541364L68,59.91408409391131L69.04615384615384,61.090916020529605L70.09230769230768,59.42113052095685L71.13846153846154,59.83423907416207L72.18461538461538,61.81195838110787L73.23076923076923,60.533055782318115L74.27692307692307,63.25681373051235L75.32307692307693,64.53530406951904L76.36923076923077,64.23133523123605L77.41538461538461,62.98149694715228L78.46153846153845,65.34018673215594L79.50769230769231,62.53712333951678L80.55384615384615,61.083040646144326L81.6,65.89514296395438L82.64615384615384,66.41793080738613L83.6923076923077,66.07123245511737L84.73846153846154,64.94192559378487L85.78461538461538,67.03306484222412L86.83076923076922,64.69116858073643L87.87692307692308,66.80579451152256L88.92307692307692,68.44643081937518L89.96923076923076,69.25888572420392L91.0153846153846,68.23865188871112L92.06153846153846,62.50106879643032L93.1076923076923,62.96939590999058L94.15384615384615,63.19208894457135L95.19999999999999,65.93017898287091L96.24615384615385,62.67552137374878L97.29230769230769,64.33430317470005L98.33846153846153,65.65783289500645L99.38461538461537,69.52373838424683L100.43076923076924,69.30046333585467L101.47692307692307,71.72223493031093L102.52307692307693,70.42261627742222L103.56923076923076,69.16786725180489L104.61538461538463,70.59225511550903L105.66153846153847,71.85213920048305L106.70769230769231,72.60468912124634L107.75384615384615,72.4027121407645L108.80000000000001,63.521484511239194L109.84615384615385,70.6598778452192L110.8923076923077,70.28671605246407L111.93846153846154,69.95555625643048L112.9846153846154,70.38206931522915L114.03076923076924,71.45432669775826L115.07692307692308,72.71542937414986L116.12307692307692,72.76430034637451L117.16923076923078,66.65022100721087L118.21538461538462,72.88349798747471L119.26153846153846,74.28729711260114L120.3076923076923,71.32790238516671L121.35384615384616,72.01185955320086L122.4,72.15183387483869L123.44615384615385,73.86802285058158L124.49230769230769,72.98040934971401L125.53846153846155,74.09276505878994L126.58461538461539,70.43121310642788L127.63076923076923,72.8930527142116L128.67692307692306,73.40798943383354L129.72307692307692,73.82785783495221L130.76923076923077,75.42889295305524L131.8153846153846,74.66867985044208L132.86153846153846,73.99416221891131L133.90769230769232,70.21287305014474L134.95384615384614,71.12938111168998L136,73.50394896098545L137.04615384615386,75.01312896183559L138.09230769230768,71.43549006325858L139.1384615384615,72.38531841550555L140.18461538461537,76.0621724809919L141.23076923076925,75.34770202636719L142.27692307692308,70.87556852613177L143.32307692307694,68.2693955557687L144.36923076923077,74.73768486295428L145.41538461538462,73.84463317053658L146.46153846153845,76.02115263257708L147.5076923076923,75.54193094798497L148.55384615384614,75.88416719436646L149.60000000000002,70.6589926992144L150.64615384615385,74.55886718205043L151.6923076923077,77.27424655641828L152.73846153846154,74.97996629987445L153.7846153846154,75.77319049835205L154.83076923076922,73.35470485687256L155.87692307692308,76.23305416107178L156.9230769230769,76.33464588437762L157.9692307692308,75.42866863523211L159.01538461538462,75.05482176371983L160.06153846153848,77.48626933779035L161.1076923076923,75.85832820619855L162.15384615384616,72.47734934943063L163.2,75.6494458743504L164.24615384615385,78.1594774382455L165.29230769230767,75.58367225102016L166.33846153846156,78.66393184661865L167.3846153846154,78.03082207271031L168.43076923076924,75.36027594975063L169.47692307692307,76.3954178265163L170.52307692307693,74.67811332430158L171.56923076923076,76.61706808635167L172.6153846153846,76.74535363061088L173.66153846153844,75.97220890862602L174.70769230769233,75.25089372907367L175.75384615384615,75.44356455121722L176.8,76.56169189725604L177.84615384615384,75.84967075075421L178.8923076923077,79.52546385356358L179.93846153846152,78.1878445489066L180.98461538461538,76.04097141538348L182.0307692307692,69.27294499533517L183.0769230769231,78.02438354492188L184.12307692307692,77.73682628359113L185.16923076923078,78.54345498766217L186.2153846153846,78.70426055363247L187.26153846153846,77.35907506942749L188.3076923076923,86.3516674041748L189.35384615384615,86.86785909107753L190.39999999999998,87.17657497950962L191.44615384615386,87.75324153900146L192.4923076923077,87.83609363010952L193.53846153846155,87.74963426589966L194.58461538461538,88.0191672870091L195.63076923076923,88.28800916671753L196.67692307692306,88.21104996544975L197.72307692307692,88.52762910297939L198.76923076923075,88.7153285571507L199.81538461538463,88.78481251852853L200.8615384615385,88.42005961281913L201.90769230769232,88.68579741886684L202.95384615384614,88.76168353216988L204,88.83143424987793L205.04615384615386,88.9233318056379L206.09230769230768,88.92103406361171L207.1384615384615,89.11597837720598L208.18461538461537,89.20920971461705L209.23076923076925,89.28999444416591L210.27692307692308,89.64887264796666L211.32307692307694,89.27674756731307L212.36923076923077,89.43684986659459L213.41538461538462,89.24919285093034L214.46153846153845,89.27579573222569L215.5076923076923,89.67576653616769L216.55384615384614,89.60333006722587L217.60000000000002,89.54050288881575L218.64615384615385,89.43697718211583L219.6923076923077,89.57991007396153L220.73846153846154,89.7467600958688L221.7846153846154,89.98005669457572L222.83076923076922,89.66481133869716L223.87692307692308,89.99640158244542L224.9230769230769,89.96029247556413L225.9692307692308,89.8398277418954L227.01538461538462,90.23694910321916L228.06153846153848,89.99625607899257L229.1076923076923,90.08986330032349L230.15384615384616,90.259793145316L231.2,89.93884890420097L232.24615384615385,90.12994950158256L233.29230769230767,90.04149552753994L234.33846153846156,90.37971830368042L235.3846153846154,89.88767412730625L236.43076923076924,90.24404845918929L237.47692307692307,90.16286965778896L238.52307692307693,90.53975997652327L239.56923076923076,90.4221568107605L240.6153846153846,90.2773505619594L241.66153846153844,90.60271447045463L242.70769230769233,90.47034876687187L243.75384615384615,90.90702281679427L244.8,90.44446127755302L245.84615384615384,90.48292875289917L246.8923076923077,90.63522236687797L247.93846153846152,90.69159282956804L248.98461538461538,90.80270896639144L250.0307692307692,90.77973760877336L251.0769230769231,90.39400795527867L252.12307692307692,90.6762422152928L253.16923076923078,90.5652048928397L254.2153846153846,90.85034315926688L255.26153846153846,90.79996865136283L256.3076923076923,91.14152588163103" style="fill: none;" fill="none"></path></g><g><path stroke="rgb(204, 51, 17)" stroke-width="2px" d="M26.153846153846157,-5.856356348310186L27.200000000000003,3.327615465436679L28.24615384615385,9.042954717363614L29.292307692307695,14.236348833356601L30.33846153846154,16.45907170431954L31.384615384615387,18.77433477129256L32.43076923076923,21.121172087533125L33.47692307692308,29.487863131931846L34.52307692307692,29.566810880388516L35.56923076923077,31.40966061183383L36.61538461538461,29.947181156703408L37.66153846153846,33.63106182643344L38.707692307692305,34.66070488521029L39.753846153846155,41.01664733886719L40.8,39.00332818712508L41.84615384615385,44.04046372004916L42.89230769230769,42.70377199990409L43.93846153846154,45.982789312090176L44.98461538461538,44.45009231567383L46.03076923076923,49.71725668225969L47.07692307692307,49.22589152199882L48.12307692307692,49.66297176906039L49.169230769230765,47.97834491729736L50.21538461538462,50.94223812648228L51.261538461538464,50.745117323739194L52.307692307692314,49.51498263222831L53.353846153846156,53.986127921513145L54.400000000000006,52.39027636391776L55.44615384615385,54.39217349461147L56.4923076923077,54.067058154514854L57.53846153846154,55.20027542114258L58.58461538461539,52.299706527165L59.63076923076923,57.660259859902524L60.67692307692308,55.345693996974404L61.723076923076924,55.74845361709595L62.769230769230774,57.52920975003924L63.815384615384616,59.53695126942226L64.86153846153846,55.841248444148476L65.9076923076923,61.47171068191528L66.95384615384616,59.00926480974469L68,58.682094233376645L69.04615384615384,61.561504500252866L70.09230769230768,58.71075235094342L71.13846153846154,58.62250450679234L72.18461538461538,60.30467598778861L73.23076923076923,59.380359240940635L74.27692307692307,62.32378496442523L75.32307692307693,63.852044105529785L76.36923076923077,62.51932341711861L77.41538461538461,60.73633623123169L78.46153846153845,64.14904090336391L79.50769230769231,62.27344076974052L80.55384615384615,59.435086727142334L81.6,63.60909577778408L82.64615384615384,64.53820201328823L83.6923076923077,64.10789980207171L84.73846153846154,62.05521590369088L85.78461538461538,64.33829845700946L86.83076923076922,62.11556952340263L87.87692307692308,65.48395626885551L88.92307692307692,65.88972296033587L89.96923076923076,66.40398066384452L91.0153846153846,64.28964573996407L92.06153846153846,61.338617461068296L93.1076923076923,62.58281142371041L94.15384615384615,59.995232582092285L95.19999999999999,61.52604409626552L96.24615384615385,62.60530989510673L97.29230769230769,62.3714919090271L98.33846153846153,64.40082856587001L99.38461538461537,65.97332681928363L100.43076923076924,64.65242222377232L101.47692307692307,67.47976650510516L102.52307692307693,65.19753878457206L103.56923076923076,67.2920367377145L104.61538461538463,66.79402085712978L105.66153846153847,67.70128338677543L106.70769230769231,68.67306457247052L107.75384615384615,68.1970500264849L108.80000000000001,61.04548256737846L109.84615384615385,66.29054253441947L110.8923076923077,66.53863198416573L111.93846153846154,67.08772563934326L112.9846153846154,67.59182841437203L114.03076923076924,68.35005296979632L115.07692307692308,68.61437211717877L116.12307692307692,68.12164892469134L117.16923076923078,61.424331120082314L118.21538461538462,69.50846658434186L119.26153846153846,69.45506075450352L120.3076923076923,66.52585193089077L121.35384615384616,66.6160398210798L122.4,69.50285863876343L123.44615384615385,69.07026474816459L124.49230769230769,68.48429203033447L125.53846153846155,68.84379468645368L126.58461538461539,65.99651643208095L127.63076923076923,67.74306712831769L128.67692307692306,67.56820229121617L129.72307692307692,68.63578537532261L130.76923076923077,70.02567679541451L131.8153846153846,68.40296166283744L132.86153846153846,69.41738748550415L133.90769230769232,65.61689792360578L134.95384615384614,64.68228074482509L136,67.1286666733878L137.04615384615386,69.03499834878104L138.09230769230768,65.71154791968209L139.1384615384615,68.4802906853812L140.18461538461537,70.81810072490147L141.23076923076925,70.5876111303057L142.27692307692308,64.58630302974156L143.32307692307694,64.09220967973981L144.36923076923077,67.32275009155273L145.41538461538462,68.26453331538609L146.46153846153845,69.43830360685077L147.5076923076923,70.57153906141009L148.55384615384614,68.22876977920532L149.60000000000002,65.43121126719883L150.64615384615385,69.54923786435809L151.6923076923077,70.55728578567505L152.73846153846154,67.932797568185L153.7846153846154,69.47594049998692L154.83076923076922,69.03129407337734L155.87692307692308,70.58744137627738L156.9230769230769,71.39509466716221L157.9692307692308,69.51628133228847L159.01538461538462,68.1442322731018L160.06153846153848,71.34110682351249L161.1076923076923,70.33984906332833L162.15384615384616,65.09405551637921L163.2,70.42174931934902L164.24615384615385,72.74316596984863L165.29230769230767,69.00837121691022L166.33846153846156,71.70562934875488L167.3846153846154,70.77192156655448L168.43076923076924,71.1716195515224L169.47692307692307,69.25187124524798L170.52307692307693,69.89562095914569L171.56923076923076,70.08672761917114L172.6153846153846,70.38497332164219L173.66153846153844,69.12140314919608L174.70769230769233,68.18517330714634L175.75384615384615,68.6441821370806L176.8,71.07205881391253L177.84615384615384,66.99754987444196L178.8923076923077,72.62864868981498L179.93846153846152,70.08835240772792L180.98461538461538,69.61750323431832L182.0307692307692,61.135064193180625L183.0769230769231,71.63278062002999L184.12307692307692,69.28134781973702L185.16923076923078,70.73747968673706L186.2153846153846,71.63900695528302L187.26153846153846,69.05948536736625L188.3076923076923,77.40350212369647L189.35384615384615,78.0277543749128L190.39999999999998,78.0273906162807L191.44615384615386,78.29411663327899L192.4923076923077,78.21258619853428L193.53846153846155,77.99040242603847L194.58461538461538,78.31873096738543L195.63076923076923,78.4809855052403L196.67692307692306,78.73813860757011L197.72307692307692,78.7829476084028L198.76923076923075,78.803421156747L199.81538461538463,78.77042824881417L200.8615384615385,78.52121720995221L201.90769230769232,78.80773169653756L202.95384615384614,78.76857307979039L204,78.55803564616612L205.04615384615386,78.97656420298985L206.09230769230768,78.78475427627563L207.1384615384615,78.91675015858242L208.18461538461537,78.78160170146397L209.23076923076925,78.87272930145264L210.27692307692308,78.95294414247785L211.32307692307694,78.9163863999503L212.36923076923077,78.92158208574567L213.41538461538462,78.73472533907209L214.46153846153845,78.94220113754272L215.5076923076923,79.09173624856132L216.55384615384614,79.05276557377407L217.60000000000002,79.1430322783334L218.64615384615385,79.12834855488369L219.6923076923077,79.03709970201764L220.73846153846154,79.41370507649013L221.7846153846154,78.82031168256488L222.83076923076922,79.15922560010638L223.87692307692308,78.95517519542149L224.9230769230769,79.3531756401062L225.9692307692308,79.08407912935529L227.01538461538462,79.36947808946881L228.06153846153848,79.27401569911412L229.1076923076923,79.10889959335327L230.15384615384616,79.19734750475202L231.2,79.03455945423671L232.24615384615385,79.67310135705131L233.29230769230767,79.53356960841587L234.33846153846156,79.44013820375714L235.3846153846154,79.35457004819598L236.43076923076924,79.15101678030831L237.47692307692307,79.48103679929461L238.52307692307693,79.31960678100586L239.56923076923076,79.20984867640904L240.6153846153846,79.67475645882743L241.66153846153844,79.21813024793353L242.70769230769233,79.15963179724557L243.75384615384615,79.17252704075405L244.8,79.43068047932216L245.84615384615384,78.99865647724697L246.8923076923077,79.52727658408028L247.93846153846152,79.32452964782715L248.98461538461538,78.9856036049979L250.0307692307692,79.14494807379586L251.0769230769231,79.16094739096505L252.12307692307692,78.94755445207868L253.16923076923078,79.19950580596924L254.2153846153846,79.28433431897845L255.26153846153846,79.1026611328125L256.3076923076923,79.75966984885079" style="fill: none;" fill="none"></path></g></g></g></g></g><g><g><span fill="rgb(0, 0, 0)" stroke="none" stroke-width="1px">Alt + Scroll to Zoom</span></g></g></g><g transform="translate(58, 178)" clip-path="url(#clip_1)"><clipPath id="clip_1"><rect width="272" height="22"></rect></clipPath><g><g><line x1="0" y1="0" x2="0" y2="5" style="visibility: inherit;" fill="rgb(0, 0, 0)" stroke="rgb(204, 204, 204)" stroke-width="1px"></line><line x1="20.923076923076923" y1="0" x2="20.923076923076923" y2="5" style="visibility: inherit;" fill="rgb(0, 0, 0)" stroke="rgb(204, 204, 204)" stroke-width="1px"></line><line x1="41.84615384615385" y1="0" x2="41.84615384615385" y2="5" style="visibility: inherit;" fill="rgb(0, 0, 0)" stroke="rgb(204, 204, 204)" stroke-width="1px"></line><line x1="62.769230769230774" y1="0" x2="62.769230769230774" y2="5" style="visibility: inherit;" fill="rgb(0, 0, 0)" stroke="rgb(204, 204, 204)" stroke-width="1px"></line><line x1="83.6923076923077" y1="0" x2="83.6923076923077" y2="5" style="visibility: inherit;" fill="rgb(0, 0, 0)" stroke="rgb(204, 204, 204)" stroke-width="1px"></line><line x1="104.61538461538463" y1="0" x2="104.61538461538463" y2="5" style="visibility: inherit;" fill="rgb(0, 0, 0)" stroke="rgb(204, 204, 204)" stroke-width="1px"></line><line x1="125.53846153846155" y1="0" x2="125.53846153846155" y2="5" style="visibility: inherit;" fill="rgb(0, 0, 0)" stroke="rgb(204, 204, 204)" stroke-width="1px"></line><line x1="146.46153846153845" y1="0" x2="146.46153846153845" y2="5" style="visibility: inherit;" fill="rgb(0, 0, 0)" stroke="rgb(204, 204, 204)" stroke-width="1px"></line><line x1="167.3846153846154" y1="0" x2="167.3846153846154" y2="5" style="visibility: inherit;" fill="rgb(0, 0, 0)" stroke="rgb(204, 204, 204)" stroke-width="1px"></line><line x1="188.3076923076923" y1="0" x2="188.3076923076923" y2="5" style="visibility: inherit;" fill="rgb(0, 0, 0)" stroke="rgb(204, 204, 204)" stroke-width="1px"></line><line x1="209.23076923076925" y1="0" x2="209.23076923076925" y2="5" style="visibility: inherit;" fill="rgb(0, 0, 0)" stroke="rgb(204, 204, 204)" stroke-width="1px"></line><line x1="230.15384615384616" y1="0" x2="230.15384615384616" y2="5" style="visibility: inherit;" fill="rgb(0, 0, 0)" stroke="rgb(204, 204, 204)" stroke-width="1px"></line><line x1="251.0769230769231" y1="0" x2="251.0769230769231" y2="5" style="visibility: inherit;" fill="rgb(0, 0, 0)" stroke="rgb(204, 204, 204)" stroke-width="1px"></line><line x1="272" y1="0" x2="272" y2="5" style="visibility: inherit;" fill="rgb(0, 0, 0)" stroke="rgb(204, 204, 204)" stroke-width="1px"></line></g><g transform="translate(0, 8)"><text x="0" y="0" dx="0em" dy="0.95em" style="text-anchor: middle; visibility: hidden; font-family: &quot;Helvetica Neue&quot;, sans-serif; font-size: 12px; font-weight: 200;" fill="rgb(50, 49, 63)" stroke="none" stroke-width="1px">-20</text><text x="20.923076923076923" y="0" dx="0em" dy="0.95em" style="text-anchor: middle; visibility: inherit; font-family: &quot;Helvetica Neue&quot;, sans-serif; font-size: 12px; font-weight: 200;" fill="rgb(50, 49, 63)" stroke="none" stroke-width="1px">0</text><text x="41.84615384615385" y="0" dx="0em" dy="0.95em" style="text-anchor: middle; visibility: hidden; font-family: &quot;Helvetica Neue&quot;, sans-serif; font-size: 12px; font-weight: 200;" fill="rgb(50, 49, 63)" stroke="none" stroke-width="1px">20</text><text x="62.769230769230774" y="0" dx="0em" dy="0.95em" style="text-anchor: middle; visibility: inherit; font-family: &quot;Helvetica Neue&quot;, sans-serif; font-size: 12px; font-weight: 200;" fill="rgb(50, 49, 63)" stroke="none" stroke-width="1px">40</text><text x="83.6923076923077" y="0" dx="0em" dy="0.95em" style="text-anchor: middle; visibility: hidden; font-family: &quot;Helvetica Neue&quot;, sans-serif; font-size: 12px; font-weight: 200;" fill="rgb(50, 49, 63)" stroke="none" stroke-width="1px">60</text><text x="104.61538461538463" y="0" dx="0em" dy="0.95em" style="text-anchor: middle; visibility: inherit; font-family: &quot;Helvetica Neue&quot;, sans-serif; font-size: 12px; font-weight: 200;" fill="rgb(50, 49, 63)" stroke="none" stroke-width="1px">80</text><text x="125.53846153846155" y="0" dx="0em" dy="0.95em" style="text-anchor: middle; visibility: hidden; font-family: &quot;Helvetica Neue&quot;, sans-serif; font-size: 12px; font-weight: 200;" fill="rgb(50, 49, 63)" stroke="none" stroke-width="1px">100</text><text x="146.46153846153845" y="0" dx="0em" dy="0.95em" style="text-anchor: middle; visibility: inherit; font-family: &quot;Helvetica Neue&quot;, sans-serif; font-size: 12px; font-weight: 200;" fill="rgb(50, 49, 63)" stroke="none" stroke-width="1px">120</text><text x="167.3846153846154" y="0" dx="0em" dy="0.95em" style="text-anchor: middle; visibility: hidden; font-family: &quot;Helvetica Neue&quot;, sans-serif; font-size: 12px; font-weight: 200;" fill="rgb(50, 49, 63)" stroke="none" stroke-width="1px">140</text><text x="188.3076923076923" y="0" dx="0em" dy="0.95em" style="text-anchor: middle; visibility: inherit; font-family: &quot;Helvetica Neue&quot;, sans-serif; font-size: 12px; font-weight: 200;" fill="rgb(50, 49, 63)" stroke="none" stroke-width="1px">160</text><text x="209.23076923076925" y="0" dx="0em" dy="0.95em" style="text-anchor: middle; visibility: hidden; font-family: &quot;Helvetica Neue&quot;, sans-serif; font-size: 12px; font-weight: 200;" fill="rgb(50, 49, 63)" stroke="none" stroke-width="1px">180</text><text x="230.15384615384616" y="0" dx="0em" dy="0.95em" style="text-anchor: middle; visibility: inherit; font-family: &quot;Helvetica Neue&quot;, sans-serif; font-size: 12px; font-weight: 200;" fill="rgb(50, 49, 63)" stroke="none" stroke-width="1px">200</text><text x="251.0769230769231" y="0" dx="0em" dy="0.95em" style="text-anchor: middle; visibility: hidden; font-family: &quot;Helvetica Neue&quot;, sans-serif; font-size: 12px; font-weight: 200;" fill="rgb(50, 49, 63)" stroke="none" stroke-width="1px">220</text><text x="272" y="0" dx="0em" dy="0.95em" style="text-anchor: middle; visibility: hidden; font-family: &quot;Helvetica Neue&quot;, sans-serif; font-size: 12px; font-weight: 200;" fill="rgb(50, 49, 63)" stroke="none" stroke-width="1px">240</text></g><line x1="0" y1="0" x2="272" y2="0" fill="rgb(0, 0, 0)" stroke="rgb(204, 204, 204)" stroke-width="1px"></line></g></g></g></g></svg>