<svg viewBox="0 0 330 200" xmlns="http://www.w3.org/2000/svg"><g><g><g><g><g><line x1="51.41600036621094" y1="177.9749994277954" x2="46.41600036621094" y2="177.9749994277954" style="visibility: inherit;" fill="rgb(0, 0, 0)" stroke="rgb(204, 204, 204)" stroke-width="1px"></line><line x1="51.41600036621094" y1="158.1999994913737" x2="46.41600036621094" y2="158.1999994913737" style="visibility: inherit;" fill="rgb(0, 0, 0)" stroke="rgb(204, 204, 204)" stroke-width="1px"></line><line x1="51.41600036621094" y1="138.42499955495197" x2="46.41600036621094" y2="138.42499955495197" style="visibility: inherit;" fill="rgb(0, 0, 0)" stroke="rgb(204, 204, 204)" stroke-width="1px"></line><line x1="51.41600036621094" y1="118.64999961853027" x2="46.41600036621094" y2="118.64999961853027" style="visibility: inherit;" fill="rgb(0, 0, 0)" stroke="rgb(204, 204, 204)" stroke-width="1px"></line><line x1="51.41600036621094" y1="98.87499968210855" x2="46.41600036621094" y2="98.87499968210855" style="visibility: inherit;" fill="rgb(0, 0, 0)" stroke="rgb(204, 204, 204)" stroke-width="1px"></line><line x1="51.41600036621094" y1="79.09999974568684" x2="46.41600036621094" y2="79.09999974568684" style="visibility: inherit;" fill="rgb(0, 0, 0)" stroke="rgb(204, 204, 204)" stroke-width="1px"></line><line x1="51.41600036621094" y1="59.32499980926514" x2="46.41600036621094" y2="59.32499980926514" style="visibility: inherit;" fill="rgb(0, 0, 0)" stroke="rgb(204, 204, 204)" stroke-width="1px"></line><line x1="51.41600036621094" y1="39.54999987284344" x2="46.41600036621094" y2="39.54999987284344" style="visibility: inherit;" fill="rgb(0, 0, 0)" stroke="rgb(204, 204, 204)" stroke-width="1px"></line><line x1="51.41600036621094" y1="19.77499993642172" x2="46.41600036621094" y2="19.77499993642172" style="visibility: inherit;" fill="rgb(0, 0, 0)" stroke="rgb(204, 204, 204)" stroke-width="1px"></line><line x1="51.41600036621094" y1="0" x2="46.41600036621094" y2="0" style="visibility: inherit;" fill="rgb(0, 0, 0)" stroke="rgb(204, 204, 204)" stroke-width="1px"></line></g><g transform="translate(41.41600036621094, 0)"><text style="text-anchor: end; visibility: hidden; font-family: &quot;Helvetica Neue&quot;, sans-serif; font-size: 12px; font-weight: 200;" x="0" y="177.9749994277954" dx="0em" dy="0.3em" fill="rgb(50, 49, 63)" stroke="none" stroke-width="1px">-0.1</text><text style="text-anchor: end; visibility: inherit; font-family: &quot;Helvetica Neue&quot;, sans-serif; font-size: 12px; font-weight: 200;" x="0" y="158.1999994913737" dx="0em" dy="0.3em" fill="rgb(50, 49, 63)" stroke="none" stroke-width="1px">0</text><text style="text-anchor: end; visibility: hidden; font-family: &quot;Helvetica Neue&quot;, sans-serif; font-size: 12px; font-weight: 200;" x="0" y="138.42499955495197" dx="0em" dy="0.3em" fill="rgb(50, 49, 63)" stroke="none" stroke-width="1px">0.1</text><text style="text-anchor: end; visibility: inherit; font-family: &quot;Helvetica Neue&quot;, sans-serif; font-size: 12px; font-weight: 200;" x="0" y="118.64999961853027" dx="0em" dy="0.3em" fill="rgb(50, 49, 63)" stroke="none" stroke-width="1px">0.2</text><text style="text-anchor: end; visibility: hidden; font-family: &quot;Helvetica Neue&quot;, sans-serif; font-size: 12px; font-weight: 200;" x="0" y="98.87499968210855" dx="0em" dy="0.3em" fill="rgb(50, 49, 63)" stroke="none" stroke-width="1px">0.3</text><text style="text-anchor: end; visibility: inherit; font-family: &quot;Helvetica Neue&quot;, sans-serif; font-size: 12px; font-weight: 200;" x="0" y="79.09999974568684" dx="0em" dy="0.3em" fill="rgb(50, 49, 63)" stroke="none" stroke-width="1px">0.4</text><text style="text-anchor: end; visibility: hidden; font-family: &quot;Helvetica Neue&quot;, sans-serif; font-size: 12px; font-weight: 200;" x="0" y="59.32499980926514" dx="0em" dy="0.3em" fill="rgb(50, 49, 63)" stroke="none" stroke-width="1px">0.5</text><text style="text-anchor: end; visibility: inherit; font-family: &quot;Helvetica Neue&quot;, sans-serif; font-size: 12px; font-weight: 200;" x="0" y="39.54999987284344" dx="0em" dy="0.3em" fill="rgb(50, 49, 63)" stroke="none" stroke-width="1px">0.6</text><text style="text-anchor: end; visibility: hidden; font-family: &quot;Helvetica Neue&quot;, sans-serif; font-size: 12px; font-weight: 200;" x="0" y="19.77499993642172" dx="0em" dy="0.3em" fill="rgb(50, 49, 63)" stroke="none" stroke-width="1px">0.7</text><text style="text-anchor: end; visibility: hidden; font-family: &quot;Helvetica Neue&quot;, sans-serif; font-size: 12px; font-weight: 200;" x="0" y="0" dx="0em" dy="0.3em" fill="rgb(50, 49, 63)" stroke="none" stroke-width="1px">0.8</text></g><line x1="51.41600036621094" y1="0" x2="51.41600036621094" y2="177.9749994277954" fill="rgb(0, 0, 0)" stroke="rgb(204, 204, 204)" stroke-width="1px"></line></g></g><g transform="translate(51, 0)" clip-path="url(#clip_0)"><clipPath id="clip_0"><rect width="278" height="177"></rect></clipPath><g><g><g><line x1="0" y1="0" x2="0" y2="177.9749994277954" fill="rgb(0, 0, 0)" stroke="rgb(60, 60, 60)" stroke-width="1px" opacity="0.25"></line><line x1="34.82299995422363" y1="0" x2="34.82299995422363" y2="177.9749994277954" fill="rgb(0, 0, 0)" stroke="rgb(60, 60, 60)" stroke-width="1px" opacity="0.25"></line><line x1="69.64599990844727" y1="0" x2="69.64599990844727" y2="177.9749994277954" fill="rgb(0, 0, 0)" stroke="rgb(60, 60, 60)" stroke-width="1px" opacity="0.25"></line><line x1="104.4689998626709" y1="0" x2="104.4689998626709" y2="177.9749994277954" fill="rgb(0, 0, 0)" stroke="rgb(60, 60, 60)" stroke-width="1px" opacity="0.25"></line><line x1="139.29199981689453" y1="0" x2="139.29199981689453" y2="177.9749994277954" fill="rgb(0, 0, 0)" stroke="rgb(60, 60, 60)" stroke-width="1px" opacity="0.25"></line><line x1="174.11499977111816" y1="0" x2="174.11499977111816" y2="177.9749994277954" fill="rgb(0, 0, 0)" stroke="rgb(60, 60, 60)" stroke-width="1px" opacity="0.25"></line><line x1="208.9379997253418" y1="0" x2="208.9379997253418" y2="177.9749994277954" fill="rgb(0, 0, 0)" stroke="rgb(60, 60, 60)" stroke-width="1px" opacity="0.25"></line><line x1="243.76099967956543" y1="0" x2="243.76099967956543" y2="177.9749994277954" fill="rgb(0, 0, 0)" stroke="rgb(60, 60, 60)" stroke-width="1px" opacity="0.25"></line><line x1="278.58399963378906" y1="0" x2="278.58399963378906" y2="177.9749994277954" fill="rgb(0, 0, 0)" stroke="rgb(60, 60, 60)" stroke-width="1px" opacity="0.25"></line></g><g><line x1="0" y1="177.9749994277954" x2="278.58399963378906" y2="177.9749994277954" fill="rgb(0, 0, 0)" stroke="rgb(60, 60, 60)" stroke-width="1px" opacity="0.25"></line><line x1="0" y1="158.1999994913737" x2="278.58399963378906" y2="158.1999994913737" fill="rgb(0, 0, 0)" stroke="rgb(60, 60, 60)" stroke-width="1px" opacity="0.25"></line><line x1="0" y1="138.42499955495197" x2="278.58399963378906" y2="138.42499955495197" fill="rgb(0, 0, 0)" stroke="rgb(60, 60, 60)" stroke-width="1px" opacity="0.25"></line><line x1="0" y1="118.64999961853027" x2="278.58399963378906" y2="118.64999961853027" fill="rgb(0, 0, 0)" stroke="rgb(60, 60, 60)" stroke-width="1px" opacity="0.25"></line><line x1="0" y1="98.87499968210855" x2="278.58399963378906" y2="98.87499968210855" fill="rgb(0, 0, 0)" stroke="rgb(60, 60, 60)" stroke-width="1px" opacity="0.25"></line><line x1="0" y1="79.09999974568684" x2="278.58399963378906" y2="79.09999974568684" fill="rgb(0, 0, 0)" stroke="rgb(60, 60, 60)" stroke-width="1px" opacity="0.25"></line><line x1="0" y1="59.32499980926514" x2="278.58399963378906" y2="59.32499980926514" fill="rgb(0, 0, 0)" stroke="rgb(60, 60, 60)" stroke-width="1px" opacity="0.25"></line><line x1="0" y1="39.54999987284344" x2="278.58399963378906" y2="39.54999987284344" fill="rgb(0, 0, 0)" stroke="rgb(60, 60, 60)" stroke-width="1px" opacity="0.25"></line><line x1="0" y1="19.77499993642172" x2="278.58399963378906" y2="19.77499993642172" fill="rgb(0, 0, 0)" stroke="rgb(60, 60, 60)" stroke-width="1px" opacity="0.25"></line><line x1="0" y1="0" x2="278.58399963378906" y2="0" fill="rgb(0, 0, 0)" stroke="rgb(60, 60, 60)" stroke-width="1px" opacity="0.25"></line></g></g></g><g><g><line x1="0" y1="158.1999994913737" x2="278.58399963378906" y2="158.1999994913737" fill="rgb(0, 0, 0)" stroke="rgb(153, 153, 153)" stroke-width="1.5px"></line></g></g><g><g><line x1="34.82299995422363" y1="0" x2="34.82299995422363" y2="177.9749994277954" fill="rgb(0, 0, 0)" stroke="rgb(153, 153, 153)" stroke-width="1.5px"></line></g></g><g><g><g><g><g><path style="fill: none;" stroke="rgb(51, 187, 238)" stroke-width="2px" d="M34.82299995422363,156.25809444451747L35.51945995330811,143.04443905966937L36.21591995239258,138.97474384031773L36.91237995147705,134.778489131035L37.608839950561524,134.81012937185585L38.305299949646,131.61448862258754L39.001759948730474,133.9558502364546L39.69821994781494,131.5788953775235L40.39467994689941,131.5630745204369L41.09113994598388,134.09822911011995L41.78759994506836,131.8003755899171L42.48405994415283,127.40241600292285L43.18051994323731,133.44961080337802L43.876979942321775,127.24817074976643L44.57343994140625,129.9177937845715L45.269899940490724,125.01755071544846L45.9663599395752,123.25362091819525L46.66281993865967,128.02730597073952L47.35927993774414,126.65096507182281L48.05573993682861,126.03398405919711L48.75219993591308,122.34001577874778L49.44865993499756,130.637605948203L50.14511993408203,121.28798329652588L50.8415799331665,122.94513041188239L51.538039932250975,123.39204531426509L52.23449993133545,130.36470868695417L52.930959930419924,125.37350084631642L53.6274199295044,122.76320086885292L54.323879928588866,120.95180850033998L55.02033992767334,123.03609518339712L55.716799926757815,119.82858952799003L56.41325992584229,117.14710011369388L57.10971992492676,116.11484591285864L57.806179924011225,113.4768586988175L58.5026399230957,116.78719550523043L59.199099922180174,124.92262851963362L59.89555992126465,114.05033456448356L60.592019920349124,118.67372884146691L61.28847991943359,114.83342426305215L61.984939918518066,113.55991451514124L62.68139991760254,118.46806948615989L63.377859916687015,120.52862341023484L64.07431991577148,111.44794354221106L64.77077991485596,121.46595836195985L65.46723991394043,120.26759547518174L66.1636999130249,116.40751556208491L66.86015991210937,115.07072533253233L67.55661991119385,108.99584329549948L68.25307991027832,112.84405977580985L68.9495399093628,110.88633405603608L69.64599990844727,116.28886355399251L70.34245990753173,112.5909407959477L71.03891990661621,106.46464760346889L71.73537990570068,116.00014838236174L72.43183990478516,112.25080857546172L73.12829990386963,114.61194405065855L73.8247599029541,114.9085681774803L74.52121990203858,112.44065002038677L75.21767990112305,114.65544919761817L75.91413990020753,105.60245361946743L76.610599899292,115.83799417401434L77.30705989837647,103.80293057715019L78.00351989746095,104.87078096975407L78.6999798965454,105.6736460030047L79.39643989562988,105.6222319008541L80.09289989471435,113.80512453981241L80.78935989379882,105.57872675389449L81.4858198928833,106.71776363662642L82.18227989196777,103.73173819361291L82.87873989105225,103.91366773664238L83.57519989013672,105.20695281923534L84.27165988922118,102.8537321926387L84.96811988830567,104.2300671981462L85.66457988739013,101.12935011804502L86.36103988647461,110.17047931670469L87.05749988555908,106.01377233008148L87.75395988464355,104.78772515343032L88.45041988372803,110.1625703615137L89.1468798828125,100.967192962993L89.84333988189698,104.91033163911818L90.53979988098145,105.46402922339757L91.23625988006592,109.08285358941875L91.9327198791504,101.82543246939896L92.62917987823486,103.87411706727823L93.32563987731935,104.17074414080462L94.02209987640381,101.30337070588351L94.71855987548828,102.74694361733279L95.41501987457276,106.04936852185011L96.11147987365722,107.46921456772645L96.8079398727417,102.244660135204L97.50439987182617,102.16951327407122L98.20085987091063,102.53337236013016L98.89731986999512,102.84186286644301L99.59377986907958,101.56440158764124L100.29023986816406,101.25195660373289L100.98669986724853,109.01561863018156L101.683159866333,102.05482163698355L102.37961986541748,103.50630350362381L103.07607986450195,102.11809917192062L103.77253986358643,99.52362005154372L104.4689998626709,105.1278573739163L105.16545986175537,103.84643572410981L105.86191986083985,104.01650183435281L106.55837985992432,102.01922544521491L107.2548398590088,100.14851001936039L107.95129985809326,104.76003791685265L108.64775985717773,104.23402756915092L109.34421985626221,101.93616962889115L110.04067985534668,100.57565253376563L110.73713985443116,102.14974088609378L111.43359985351563,97.48283851544619L112.1300598526001,99.53548348433019L112.82651985168458,99.59085206407629L113.52297985076903,102.61642817645391L114.21943984985352,107.54436142885923L114.91589984893798,105.74878697072825L115.61235984802245,101.22426936715523L116.30881984710693,108.25626169059515L117.0052798461914,103.0158834542815L117.70173984527588,105.64595876642704L118.39819984436035,97.35627755216281L119.09465984344482,96.4228970780333L119.7911198425293,98.2580222055284L120.48757984161377,100.46490948086422L121.18403984069825,101.03443086893479L121.88049983978271,101.41410786537568L122.57695983886718,100.23552031327964L123.27341983795166,98.20660220996858L123.96987983703613,99.594812435081L124.66633983612061,99.8677067496252L125.36279983520508,98.20264773237308L126.05925983428955,104.04418317752123L126.75571983337403,97.17434800913334L127.4521798324585,104.57415389622768L128.14863983154297,98.54673443045458L128.84509983062745,101.14121355083148L129.54155982971193,104.09955175726732L130.23801982879638,103.7831522957635L130.93447982788086,99.29818536155463L131.63093982696532,95.66353719174226L132.3273998260498,96.0511290367834L133.02385982513428,98.22638049135527L133.72031982421873,102.65993332341354L134.41677982330322,96.52573117574374L135.1132398223877,96.6443772904269L135.80969982147215,100.01404010088602L136.50615982055663,97.02801465787252L137.20261981964111,95.32341086466552L137.8990798187256,105.39679721086502L138.59553981781005,97.71618216062627L139.29199981689453,92.48371877291284L139.98845981597898,105.59059018668096L140.68491981506347,102.28025632697263L141.38137981414795,94.67478813786667L142.07783981323243,110.099289879872L142.77429981231688,97.62521738911154L143.47075981140136,101.56044711004574L144.16721981048582,102.45032243721565L144.86367980957033,96.86190302522502L145.56013980865478,99.1874423086532L146.25659980773926,102.65202436822256L146.95305980682372,91.5503382987833L147.6495198059082,97.4986623192374L148.34597980499268,93.80073661448796L149.04243980407716,112.52370583671053L149.73889980316162,95.68726995072446L150.4353598022461,95.85733606096744L151.13181980133055,92.45999190733988L151.82827980041506,93.65044289222242L152.5247397994995,93.9431154881533L153.221199798584,106.93528937142453L153.91765979766845,90.97290795552176L154.61411979675293,92.07635453989427L155.3105797958374,93.40919029185136L156.0070397949219,94.0459436924545L156.70349979400635,93.00973501402379L157.3999597930908,93.65044289222242L158.09641979217528,94.29115666383028L158.79287979125976,97.52238918481032L159.48933979034425,91.22207540449301L160.1857997894287,92.48767325050831L160.88225978851318,98.28174907110136L161.57871978759763,91.95770253180187L162.27517978668214,89.18524834599098L162.9716397857666,98.15518810781798L163.66809978485108,88.40611607172251L164.36455978393553,95.56861794263206L165.06101978302001,86.86761801775377L165.7574797821045,92.77639136884372L166.45393978118898,88.4614846514686L167.15039978027343,88.01061527149041L167.8468597793579,98.41226451198021L168.54331977844237,86.87157249534926L169.23977977752688,87.7930895366923L169.93623977661133,90.24518978340389L170.6326997756958,87.28289709937253L171.32915977478027,86.45234482954423L172.02561977386475,93.57134744690337L172.72207977294923,90.87798870641153L173.4185397720337,90.49831170997064L174.11499977111816,87.82077677326997L174.81145977020262,87.76935677771013L175.5079197692871,89.4502337053442L176.20437976837158,87.39758873646022L176.90083976745606,85.5268733106057L177.59729976654052,85.96587925779741L178.293759765625,89.98415890164614L178.99021976470945,87.38967978126924L179.68667976379396,84.54998768951656L180.38313976287841,89.61239086039622L181.0795997619629,86.02520231513898L181.77605976104735,83.02731343933901L182.47251976013183,79.39267116293588L183.1689797592163,87.59534208328088L183.8654397583008,81.18428525006215L184.56189975738525,81.20010316044412L185.25835975646973,85.33703481238526L185.95481975555418,84.24545755420844L186.6512797546387,87.15633613608917L187.34773975372315,81.30293725815454L188.04419975280763,81.5441898585256L188.74065975189208,83.54542072525899L189.43711975097656,79.55877690217417L190.13357975006105,80.51193565769036L190.83003974914553,79.82772263253212L191.52649974822998,77.92141101490895L192.22295974731443,77.43889992075762L192.91941974639892,80.61476386199158L193.6158797454834,75.04216825379213L194.31233974456788,78.55025546032111L195.00879974365233,74.07319748130321L195.7052597427368,74.91560729050876L196.40171974182127,75.65124031122684L197.09817974090578,77.83044624339422L197.79463973999023,80.2667226863146L198.4910997390747,74.2313942653505L199.18755973815917,75.76197747071903L199.88401973724365,80.0927020984761L200.58047973632813,77.16600560621342L201.2769397354126,77.1185459816583L201.97339973449706,71.19000024259091L202.66985973358155,73.57881706095618L203.366319732666,69.96790754353523L204.0627797317505,74.55174820444982L204.75923973083496,68.75371790626129L205.45569972991944,69.04639050219218L206.1521597290039,66.4440024266243L206.84861972808838,71.61713686358692L207.54507972717286,66.34907728410484L208.24153972625734,68.37008643222491L208.9379997253418,66.89487180660248L209.63445972442625,66.51518891675234L210.33091972351073,67.15590268836021L211.0273797225952,65.68068216932855L211.7238397216797,68.09323764008522L212.42029972076415,66.23834012461265L213.11675971984863,63.964214943335065L213.81321971893308,60.29793095275879L214.5096797180176,61.666357003075305L215.20613971710205,59.52670763368128L215.90259971618653,62.370348309620226L216.59905971527098,57.65203773023127L217.29551971435546,58.99277654397012L217.99197971343995,60.6736534716042L218.68843971252443,56.50508599889913L219.38489971160888,54.867720111633915L220.08135971069336,55.93951908842405L220.77781970977782,55.1208302513822L221.47427970886233,53.67330286233744L222.17073970794678,51.39126872586887L222.86719970703126,51.585067595094046L223.56365970611571,52.20599719190599L224.2601197052002,51.89355220799766L224.95657970428468,49.975377157588014L225.65303970336916,49.544286058996505L226.3494997024536,52.06362421164988L227.04595970153807,47.705212347315154L227.74241970062255,44.893207492140135L228.43887969970703,44.27226610850971L229.1353396987915,43.78580053676288L229.83179969787597,43.062042735649754L230.52825969696045,41.39698961180687L231.2247196960449,39.13077338572026L231.9211796951294,38.32395387487412L232.61763969421386,38.34372036944231L233.31409969329835,36.476959421183295L234.0105596923828,34.28193557863398L234.70701969146728,33.86666239042441L235.40347969055176,32.55359902644477L236.09993968963624,31.75470025760808L236.7963996887207,30.540504726924922L237.49285968780518,28.55905803498746L238.18931968688963,27.348822875308997L238.88577968597414,26.122769805248595L239.5822396850586,25.019335007694565L240.27869968414308,24.374666758491202L240.97515968322753,23.631130675991358L241.671619682312,22.622603340729086L242.3680796813965,22.48417894465922L243.06453968048098,22.28247112024306" fill="none"></path></g><g><path style="fill: none;" stroke="rgb(0, 119, 187)" stroke-width="2px" d="M34.82299995422363,156.36092449050906L35.51945995330811,142.12292496503096L36.21591995239258,138.8798245912075L36.91237995147705,133.28349917073052L37.608839950561524,131.97835065535108L38.305299949646,128.6956981388112L39.001759948730474,130.43589812378684L39.69821994781494,126.83684909244776L40.39467994689941,128.61659974678756L41.09113994598388,130.4161257358094L41.78759994506836,127.62785069291195L42.48405994415283,123.71239925336441L43.18051994323731,129.62512413534523L43.876979942321775,125.05709843810797L44.57343994140625,128.28042495060166L45.269899940490724,120.35064834480087L45.9663599395752,119.38167462560733L46.66281993865967,122.68409953012467L47.35927993774414,123.37622445717852L48.05573993682861,122.58522580341895L48.75219993591308,119.71784942179323L49.44865993499756,126.00629976932407L50.14511993408203,114.4181510748426L50.8415799331665,117.50305024456182L51.538039932250975,119.02572449473938L52.23449993133545,127.13347321926952L52.930959930419924,121.81399953763685L53.6274199295044,117.34485051380992L54.323879928588866,116.69227330941558L55.02033992767334,118.66977436387143L55.716799926757815,115.42667546340029L56.41325992584229,112.79660015125474L57.10971992492676,112.2626749549528L57.806179924011225,108.92069938107133L58.5026399230957,111.53099935853483L59.199099922180174,119.93537515659133L59.89555992126465,108.52520152754386L60.592019920349124,112.12425055888295L61.28847991943359,109.57327363876105L61.984939918518066,110.12697416974505L62.68139991760254,113.15255028212269L63.377859916687015,115.62442586351634L64.07431991577148,107.00252727736631L64.77077991485596,116.15835105981827L65.46723991394043,114.99162399380407L66.1636999130249,109.59304897344312L66.86015991210937,109.05912377714118L67.55661991119385,104.5701994186322L68.25307991027832,108.8811487117072L68.9495399093628,105.99399994210403L69.64599990844727,111.6496484199226L70.34245990753173,106.05332299944561L71.03891990661621,100.73384931781293L71.73537990570068,111.9858232161085L72.43183990478516,108.32744818072321L73.12829990386963,108.0505993885835L73.8247599029541,109.19755111991564L74.52121990203858,107.20027473077775L75.21767990112305,111.03662483159701L75.91413990020753,100.49655119503736L76.610599899292,109.65237497748932L77.30705989837647,98.57837614462773L78.00351989746095,100.7536275991996L78.6999798965454,99.74510026393732L79.39643989562988,103.00797449909051L80.09289989471435,106.9629766080022L80.78935989379882,100.31857612960339L81.4858198928833,100.21970240289768L82.18227989196777,98.5388254752636L82.87873989105225,99.54734691711666L83.57519989013672,99.64622653723161L84.27165988922118,98.08400161768992L84.96811988830567,98.32129974046548L85.66457988739013,97.11502495179177L86.36103988647461,104.35267368383408L87.05749988555908,101.9203517185092L87.75395988464355,97.01615122508606L88.45041988372803,104.88659888013602L89.1468798828125,96.93704988635778L89.84333988189698,98.85522493676743L90.53979988098145,101.62372464498281L91.23625988006592,103.81874848753215L91.9327198791504,96.50199841676157L92.62917987823486,98.47950241792202L93.32563987731935,98.55859786324105L94.02209987640381,98.36085040982962L94.71855987548828,97.66872253607116L95.41501987457276,100.6349755911072L96.11147987365722,101.22822384475073L96.8079398727417,97.09525256381431L97.50439987182617,96.28447268196345L98.20085987091063,95.69122442831993L98.89731986999512,96.0471745591879L99.59377986907958,95.07819789328974L100.29023986816406,95.45392630554437L100.98669986724853,102.92887316036226L101.683159866333,95.9285225510955L102.37961986541748,100.6349755911072L103.07607986450195,95.3748249668161L103.77253986358643,95.05842550531229L104.4689998626709,97.45119680127304L105.16545986175537,97.58962709075213L105.86191986083985,98.34107212844293L106.55837985992432,98.06422333630324L107.2548398590088,95.17707751340468L107.95129985809326,101.32709757145645L108.64775985717773,99.82420160266558L109.34421985626221,94.9991024479707L110.04067985534668,93.87192310461602L110.73713985443116,95.69122442831993L111.43359985351563,91.12320167778729L112.1300598526001,95.59235070161422L112.82651985168458,93.14025045490266L113.52297985076903,95.3748249668161L114.21943984985352,102.15764984128477L114.91589984893798,98.47950241792202L115.61235984802245,97.2732276292483L116.30881984710693,103.24527262186608L117.0052798461914,98.71680054069758L117.70173984527588,100.19992412151099L118.39819984436035,92.7249772666931L119.09465984344482,91.02432205767235L119.7911198425293,93.23912418160837L120.48757984161377,94.68269709305764L121.18403984069825,92.7843003240347L121.88049983978271,96.89749921699367L122.57695983886718,94.38607591294051L123.27341983795166,93.10069978553852L123.96987983703613,91.73622231940827L124.66633983612061,93.8917013860027L125.36279983520508,92.58654697721403L126.05925983428955,98.16309706300896L126.75571983337403,93.33799790831408L127.4521798324585,100.23947479087512L128.14863983154297,91.73622231940827L128.84509983062745,97.23367695988416L129.54155982971193,100.37789918694496L130.23801982879638,97.60939947872957L130.93447982788086,93.23912418160837L131.63093982696532,90.92544833096665L132.3273998260498,91.20229712310633L133.02385982513428,92.23059684634607L133.72031982421873,98.97387694485982L134.41677982330322,91.71644993143082L135.1132398223877,92.42835019316674L135.80969982147215,93.71372632056872L136.50615982055663,92.11195073166292L137.20261981964111,90.76725154691934L137.8990798187256,98.16309706300896L138.59553981781005,91.02432205767235L139.29199981689453,86.89135077673593L139.98845981597898,99.64622653723161L140.68491981506347,97.78737454416355L141.38137981414795,89.00727328055702L142.07783981323243,105.47984713377954L142.77429981231688,92.28992579709688L143.47075981140136,97.7676021561861L144.16721981048582,96.28447268196345L144.86367980957033,92.7843003240347L145.56013980865478,93.10069978553852L146.25659980773926,96.91727749838034L146.95305980682372,86.7529263806661L147.6495198059082,93.41709924704234L148.34597980499268,90.27287701998155L149.04243980407716,103.5616720833699L149.73889980316162,92.05262178091209L150.4353598022461,91.85487432750067L151.13181980133055,86.04102611893018L151.82827980041506,89.56097675824563L152.5247397994995,87.58347275708518L153.221199798584,102.25652356799047L153.91765979766845,84.97317572632632L154.61411979675293,88.75019687639477L155.3105797958374,86.7529263806661L156.0070397949219,87.78122610390584L156.70349979400635,85.70484837603968L157.3999597930908,86.93090144610008L158.09641979217528,90.1344526239117L158.79287979125976,92.88317405074041L159.48933979034425,85.09182184100948L160.1857997894287,86.08057678829431L160.88225978851318,92.54700220125913L161.57871978759763,85.54665159199239L162.27517978668214,84.02397734181483L162.9716397857666,90.56949820009868L163.66809978485108,84.26127546459038L164.36455978393553,89.71917354229292L165.06101978302001,81.39390202966928L165.7574797821045,86.12012745765846L166.45393978118898,81.59164948308072L167.15039978027343,82.12557467938265L167.8468597793579,92.64587592796485L168.54331977844237,80.08874762088061L169.23977977752688,84.41947224863769L169.93623977661133,83.8657746643583L170.6326997756958,82.46175242227316L171.32915977478027,80.3260516370654L172.02561977386475,89.08637461928527L172.72207977294923,83.94487600308658L173.4185397720337,85.92237411083778L174.11499977111816,81.8684982752204L174.81145977020262,83.56914759083192L175.5079197692871,84.26127546459038L176.20437976837158,81.96737200192611L176.90083976745606,79.95032322481077L177.59729976654052,79.71302510203522L178.293759765625,83.70757198690178L178.99021976470945,80.8797492213448L179.68667976379396,80.80064788261653L180.38313976287841,83.27252641071479L181.0795997619629,79.93055083683332L181.77605976104735,79.23842296307485L182.47251976013183,73.06862462363641L183.1689797592163,79.31752430180312L183.8654397583008,74.37377313901584L184.56189975738525,76.6083476509293L185.25835975646973,77.73552699428399L185.95481975555418,78.80337738688787L186.6512797546387,80.84019855198066L187.34773975372315,76.33149885878962L188.04419975280763,78.11124951312941L188.74065975189208,78.15080018249353L189.43711975097656,74.03760128953456L190.13357975006105,74.67040021254222L190.83003974914553,74.92747661670447L191.52649974822998,73.66187287727993L192.22295974731443,72.23807235380809L192.91941974639892,77.00384845116139L193.6158797454834,71.01202517715693L194.31233974456788,71.82279916559857L195.00879974365233,70.8538224997004L195.7052597427368,68.14465174223581L196.40171974182127,70.55720131958326L197.09817974090578,72.51492703935703L197.79463973999023,76.5094739242236L198.4910997390747,67.55139759518306L199.18755973815917,71.30865225068331L199.88401973724365,71.4668490347306L200.58047973632813,73.50367609323263L201.2769397354126,73.76075249739488L201.97339973449706,66.78017427610557L202.66985973358155,68.38194986501138L203.366319732666,64.88177750708262L204.0627797317505,70.63630265831152L204.75923973083496,62.98337484465043L205.45569972991944,64.78289788696767L206.1521597290039,62.48900031771262L206.84861972808838,66.28579974916777L207.54507972717286,61.1640735209465L208.24153972625734,64.05122523725431L208.9379997253418,62.19237324418624L209.63445972442625,61.440922313086205L210.33091972351073,62.84495044858059L211.0273797225952,62.8251721671939L211.7238397216797,62.86472283655803L212.42029972076415,62.74607672187487L213.11675971984863,59.20635369458198L213.81321971893308,57.307945138740564L214.5096797180176,59.00859445435209L215.20613971710205,57.88142100440663L215.90259971618653,60.17532446707091L216.59905971527098,55.37000359376272L217.29551971435546,56.55650010104975L217.99197971343995,59.68094994013309L218.68843971252443,53.27384758450985L219.38489971160888,53.689120772719406L220.08135971069336,53.09587841248512L220.77781970977782,52.22577547329267L221.47427970886233,52.10712935860951L222.17073970794678,49.93187201062841L222.86719970703126,52.79925133895874L223.56365970611571,49.65502321848871L224.2601197052002,48.98267951952616L224.95657970428468,52.44330120809079L225.65303970336916,48.68605244599979L226.3494997024536,52.95745401641527L227.04595970153807,48.943122956752774L227.74241970062255,45.897774456397684L228.43887969970703,46.27350286865234L229.1353396987915,45.75935006032785L229.83179969787597,44.3553278182427L230.52825969696045,42.10096913153333L231.2247196960449,41.52750505268574L231.9211796951294,41.84389862078032L232.61763969421386,41.745019000665366L233.31409969329835,39.233601590021465L234.0105596923828,40.08392624782721L234.70701969146728,39.648874778231004L235.40347969055176,37.8691241238912L236.09993968963624,37.37474959695339L236.7963996887207,37.19678042492865L237.49285968780518,36.40577882446448L238.18931968688963,35.41702977058887L238.88577968597414,34.171198419141774L239.5822396850586,33.79547000688714L240.27869968414308,33.53839949613413L240.97515968322753,32.64853006237345L241.671619682312,33.24177242260777L242.3680796813965,32.292579931505514L243.06453968048098,32.31234642607373" fill="none"></path></g></g></g></g></g></g><g transform="translate(51, 177)" clip-path="url(#clip_1)"><clipPath id="clip_1"><rect width="278" height="22"></rect></clipPath><g><g><line x1="0" y1="0" x2="0" y2="5" style="visibility: inherit;" fill="rgb(0, 0, 0)" stroke="rgb(204, 204, 204)" stroke-width="1px"></line><line x1="34.82299995422363" y1="0" x2="34.82299995422363" y2="5" style="visibility: inherit;" fill="rgb(0, 0, 0)" stroke="rgb(204, 204, 204)" stroke-width="1px"></line><line x1="69.64599990844727" y1="0" x2="69.64599990844727" y2="5" style="visibility: inherit;" fill="rgb(0, 0, 0)" stroke="rgb(204, 204, 204)" stroke-width="1px"></line><line x1="104.4689998626709" y1="0" x2="104.4689998626709" y2="5" style="visibility: inherit;" fill="rgb(0, 0, 0)" stroke="rgb(204, 204, 204)" stroke-width="1px"></line><line x1="139.29199981689453" y1="0" x2="139.29199981689453" y2="5" style="visibility: inherit;" fill="rgb(0, 0, 0)" stroke="rgb(204, 204, 204)" stroke-width="1px"></line><line x1="174.11499977111816" y1="0" x2="174.11499977111816" y2="5" style="visibility: inherit;" fill="rgb(0, 0, 0)" stroke="rgb(204, 204, 204)" stroke-width="1px"></line><line x1="208.9379997253418" y1="0" x2="208.9379997253418" y2="5" style="visibility: inherit;" fill="rgb(0, 0, 0)" stroke="rgb(204, 204, 204)" stroke-width="1px"></line><line x1="243.76099967956543" y1="0" x2="243.76099967956543" y2="5" style="visibility: inherit;" fill="rgb(0, 0, 0)" stroke="rgb(204, 204, 204)" stroke-width="1px"></line><line x1="278.58399963378906" y1="0" x2="278.58399963378906" y2="5" style="visibility: inherit;" fill="rgb(0, 0, 0)" stroke="rgb(204, 204, 204)" stroke-width="1px"></line></g><g transform="translate(0, 8)"><text style="text-anchor: middle; visibility: hidden; font-family: &quot;Helvetica Neue&quot;, sans-serif; font-size: 12px; font-weight: 200;" x="0" y="0" dx="0em" dy="0.95em" fill="rgb(50, 49, 63)" stroke="none" stroke-width="1px">-50</text><text style="text-anchor: middle; visibility: inherit; font-family: &quot;Helvetica Neue&quot;, sans-serif; font-size: 12px; font-weight: 200;" x="34.82299995422363" y="0" dx="0em" dy="0.95em" fill="rgb(50, 49, 63)" stroke="none" stroke-width="1px">0</text><text style="text-anchor: middle; visibility: inherit; font-family: &quot;Helvetica Neue&quot;, sans-serif; font-size: 12px; font-weight: 200;" x="69.64599990844727" y="0" dx="0em" dy="0.95em" fill="rgb(50, 49, 63)" stroke="none" stroke-width="1px">50</text><text style="text-anchor: middle; visibility: inherit; font-family: &quot;Helvetica Neue&quot;, sans-serif; font-size: 12px; font-weight: 200;" x="104.4689998626709" y="0" dx="0em" dy="0.95em" fill="rgb(50, 49, 63)" stroke="none" stroke-width="1px">100</text><text style="text-anchor: middle; visibility: inherit; font-family: &quot;Helvetica Neue&quot;, sans-serif; font-size: 12px; font-weight: 200;" x="139.29199981689453" y="0" dx="0em" dy="0.95em" fill="rgb(50, 49, 63)" stroke="none" stroke-width="1px">150</text><text style="text-anchor: middle; visibility: inherit; font-family: &quot;Helvetica Neue&quot;, sans-serif; font-size: 12px; font-weight: 200;" x="174.11499977111816" y="0" dx="0em" dy="0.95em" fill="rgb(50, 49, 63)" stroke="none" stroke-width="1px">200</text><text style="text-anchor: middle; visibility: inherit; font-family: &quot;Helvetica Neue&quot;, sans-serif; font-size: 12px; font-weight: 200;" x="208.9379997253418" y="0" dx="0em" dy="0.95em" fill="rgb(50, 49, 63)" stroke="none" stroke-width="1px">250</text><text style="text-anchor: middle; visibility: inherit; font-family: &quot;Helvetica Neue&quot;, sans-serif; font-size: 12px; font-weight: 200;" x="243.76099967956543" y="0" dx="0em" dy="0.95em" fill="rgb(50, 49, 63)" stroke="none" stroke-width="1px">300</text><text style="text-anchor: middle; visibility: hidden; font-family: &quot;Helvetica Neue&quot;, sans-serif; font-size: 12px; font-weight: 200;" x="278.58399963378906" y="0" dx="0em" dy="0.95em" fill="rgb(50, 49, 63)" stroke="none" stroke-width="1px">350</text></g><line x1="0" y1="0" x2="278.58399963378906" y2="0" fill="rgb(0, 0, 0)" stroke="rgb(204, 204, 204)" stroke-width="1px"></line></g></g></g></g></svg>