<svg viewBox="0 0 330 200" xmlns="http://www.w3.org/2000/svg"><g><g><g><g><g><line x1="51.41600036621094" y1="177.9749994277954" x2="46.41600036621094" y2="177.9749994277954" style="visibility: inherit;" fill="rgb(0, 0, 0)" stroke="rgb(204, 204, 204)" stroke-width="1px"></line><line x1="51.41600036621094" y1="158.1999994913737" x2="46.41600036621094" y2="158.1999994913737" style="visibility: inherit;" fill="rgb(0, 0, 0)" stroke="rgb(204, 204, 204)" stroke-width="1px"></line><line x1="51.41600036621094" y1="138.424999554952" x2="46.41600036621094" y2="138.424999554952" style="visibility: inherit;" fill="rgb(0, 0, 0)" stroke="rgb(204, 204, 204)" stroke-width="1px"></line><line x1="51.41600036621094" y1="118.64999961853027" x2="46.41600036621094" y2="118.64999961853027" style="visibility: inherit;" fill="rgb(0, 0, 0)" stroke="rgb(204, 204, 204)" stroke-width="1px"></line><line x1="51.41600036621094" y1="98.87499968210857" x2="46.41600036621094" y2="98.87499968210857" style="visibility: inherit;" fill="rgb(0, 0, 0)" stroke="rgb(204, 204, 204)" stroke-width="1px"></line><line x1="51.41600036621094" y1="79.09999974568684" x2="46.41600036621094" y2="79.09999974568684" style="visibility: inherit;" fill="rgb(0, 0, 0)" stroke="rgb(204, 204, 204)" stroke-width="1px"></line><line x1="51.41600036621094" y1="59.32499980926514" x2="46.41600036621094" y2="59.32499980926514" style="visibility: inherit;" fill="rgb(0, 0, 0)" stroke="rgb(204, 204, 204)" stroke-width="1px"></line><line x1="51.41600036621094" y1="39.549999872843415" x2="46.41600036621094" y2="39.549999872843415" style="visibility: inherit;" fill="rgb(0, 0, 0)" stroke="rgb(204, 204, 204)" stroke-width="1px"></line><line x1="51.41600036621094" y1="19.77499993642172" x2="46.41600036621094" y2="19.77499993642172" style="visibility: inherit;" fill="rgb(0, 0, 0)" stroke="rgb(204, 204, 204)" stroke-width="1px"></line><line x1="51.41600036621094" y1="0" x2="46.41600036621094" y2="0" style="visibility: inherit;" fill="rgb(0, 0, 0)" stroke="rgb(204, 204, 204)" stroke-width="1px"></line></g><g transform="translate(41.41600036621094, 0)"><text style="text-anchor: end; visibility: hidden; font-family: &quot;Helvetica Neue&quot;, sans-serif; font-size: 12px; font-weight: 200;" x="0" y="177.9749994277954" dx="0em" dy="0.3em" fill="rgb(50, 49, 63)" stroke="none" stroke-width="1px">-0.5</text><text style="text-anchor: end; visibility: inherit; font-family: &quot;Helvetica Neue&quot;, sans-serif; font-size: 12px; font-weight: 200;" x="0" y="158.1999994913737" dx="0em" dy="0.3em" fill="rgb(50, 49, 63)" stroke="none" stroke-width="1px">0</text><text style="text-anchor: end; visibility: hidden; font-family: &quot;Helvetica Neue&quot;, sans-serif; font-size: 12px; font-weight: 200;" x="0" y="138.424999554952" dx="0em" dy="0.3em" fill="rgb(50, 49, 63)" stroke="none" stroke-width="1px">0.5</text><text style="text-anchor: end; visibility: inherit; font-family: &quot;Helvetica Neue&quot;, sans-serif; font-size: 12px; font-weight: 200;" x="0" y="118.64999961853027" dx="0em" dy="0.3em" fill="rgb(50, 49, 63)" stroke="none" stroke-width="1px">1</text><text style="text-anchor: end; visibility: hidden; font-family: &quot;Helvetica Neue&quot;, sans-serif; font-size: 12px; font-weight: 200;" x="0" y="98.87499968210857" dx="0em" dy="0.3em" fill="rgb(50, 49, 63)" stroke="none" stroke-width="1px">1.5</text><text style="text-anchor: end; visibility: inherit; font-family: &quot;Helvetica Neue&quot;, sans-serif; font-size: 12px; font-weight: 200;" x="0" y="79.09999974568684" dx="0em" dy="0.3em" fill="rgb(50, 49, 63)" stroke="none" stroke-width="1px">2</text><text style="text-anchor: end; visibility: hidden; font-family: &quot;Helvetica Neue&quot;, sans-serif; font-size: 12px; font-weight: 200;" x="0" y="59.32499980926514" dx="0em" dy="0.3em" fill="rgb(50, 49, 63)" stroke="none" stroke-width="1px">2.5</text><text style="text-anchor: end; visibility: inherit; font-family: &quot;Helvetica Neue&quot;, sans-serif; font-size: 12px; font-weight: 200;" x="0" y="39.549999872843415" dx="0em" dy="0.3em" fill="rgb(50, 49, 63)" stroke="none" stroke-width="1px">3</text><text style="text-anchor: end; visibility: hidden; font-family: &quot;Helvetica Neue&quot;, sans-serif; font-size: 12px; font-weight: 200;" x="0" y="19.77499993642172" dx="0em" dy="0.3em" fill="rgb(50, 49, 63)" stroke="none" stroke-width="1px">3.5</text><text style="text-anchor: end; visibility: hidden; font-family: &quot;Helvetica Neue&quot;, sans-serif; font-size: 12px; font-weight: 200;" x="0" y="0" dx="0em" dy="0.3em" fill="rgb(50, 49, 63)" stroke="none" stroke-width="1px">4</text></g><line x1="51.41600036621094" y1="0" x2="51.41600036621094" y2="177.9749994277954" fill="rgb(0, 0, 0)" stroke="rgb(204, 204, 204)" stroke-width="1px"></line></g></g><g transform="translate(51, 0)" clip-path="url(#clip_0)"><clipPath id="clip_0"><rect width="278" height="177"></rect></clipPath><g><g><g><line x1="0" y1="0" x2="0" y2="177.9749994277954" fill="rgb(0, 0, 0)" stroke="rgb(60, 60, 60)" stroke-width="1px" opacity="0.25"></line><line x1="34.82299995422363" y1="0" x2="34.82299995422363" y2="177.9749994277954" fill="rgb(0, 0, 0)" stroke="rgb(60, 60, 60)" stroke-width="1px" opacity="0.25"></line><line x1="69.64599990844727" y1="0" x2="69.64599990844727" y2="177.9749994277954" fill="rgb(0, 0, 0)" stroke="rgb(60, 60, 60)" stroke-width="1px" opacity="0.25"></line><line x1="104.4689998626709" y1="0" x2="104.4689998626709" y2="177.9749994277954" fill="rgb(0, 0, 0)" stroke="rgb(60, 60, 60)" stroke-width="1px" opacity="0.25"></line><line x1="139.29199981689453" y1="0" x2="139.29199981689453" y2="177.9749994277954" fill="rgb(0, 0, 0)" stroke="rgb(60, 60, 60)" stroke-width="1px" opacity="0.25"></line><line x1="174.11499977111816" y1="0" x2="174.11499977111816" y2="177.9749994277954" fill="rgb(0, 0, 0)" stroke="rgb(60, 60, 60)" stroke-width="1px" opacity="0.25"></line><line x1="208.9379997253418" y1="0" x2="208.9379997253418" y2="177.9749994277954" fill="rgb(0, 0, 0)" stroke="rgb(60, 60, 60)" stroke-width="1px" opacity="0.25"></line><line x1="243.76099967956543" y1="0" x2="243.76099967956543" y2="177.9749994277954" fill="rgb(0, 0, 0)" stroke="rgb(60, 60, 60)" stroke-width="1px" opacity="0.25"></line><line x1="278.58399963378906" y1="0" x2="278.58399963378906" y2="177.9749994277954" fill="rgb(0, 0, 0)" stroke="rgb(60, 60, 60)" stroke-width="1px" opacity="0.25"></line></g><g><line x1="0" y1="177.9749994277954" x2="278.58399963378906" y2="177.9749994277954" fill="rgb(0, 0, 0)" stroke="rgb(60, 60, 60)" stroke-width="1px" opacity="0.25"></line><line x1="0" y1="158.1999994913737" x2="278.58399963378906" y2="158.1999994913737" fill="rgb(0, 0, 0)" stroke="rgb(60, 60, 60)" stroke-width="1px" opacity="0.25"></line><line x1="0" y1="138.424999554952" x2="278.58399963378906" y2="138.424999554952" fill="rgb(0, 0, 0)" stroke="rgb(60, 60, 60)" stroke-width="1px" opacity="0.25"></line><line x1="0" y1="118.64999961853027" x2="278.58399963378906" y2="118.64999961853027" fill="rgb(0, 0, 0)" stroke="rgb(60, 60, 60)" stroke-width="1px" opacity="0.25"></line><line x1="0" y1="98.87499968210857" x2="278.58399963378906" y2="98.87499968210857" fill="rgb(0, 0, 0)" stroke="rgb(60, 60, 60)" stroke-width="1px" opacity="0.25"></line><line x1="0" y1="79.09999974568684" x2="278.58399963378906" y2="79.09999974568684" fill="rgb(0, 0, 0)" stroke="rgb(60, 60, 60)" stroke-width="1px" opacity="0.25"></line><line x1="0" y1="59.32499980926514" x2="278.58399963378906" y2="59.32499980926514" fill="rgb(0, 0, 0)" stroke="rgb(60, 60, 60)" stroke-width="1px" opacity="0.25"></line><line x1="0" y1="39.549999872843415" x2="278.58399963378906" y2="39.549999872843415" fill="rgb(0, 0, 0)" stroke="rgb(60, 60, 60)" stroke-width="1px" opacity="0.25"></line><line x1="0" y1="19.77499993642172" x2="278.58399963378906" y2="19.77499993642172" fill="rgb(0, 0, 0)" stroke="rgb(60, 60, 60)" stroke-width="1px" opacity="0.25"></line><line x1="0" y1="0" x2="278.58399963378906" y2="0" fill="rgb(0, 0, 0)" stroke="rgb(60, 60, 60)" stroke-width="1px" opacity="0.25"></line></g></g></g><g><g><line x1="0" y1="158.1999994913737" x2="278.58399963378906" y2="158.1999994913737" fill="rgb(0, 0, 0)" stroke="rgb(153, 153, 153)" stroke-width="1.5px"></line></g></g><g><g><line x1="34.82299995422363" y1="0" x2="34.82299995422363" y2="177.9749994277954" fill="rgb(0, 0, 0)" stroke="rgb(153, 153, 153)" stroke-width="1.5px"></line></g></g><g><g><g><g><g><path style="fill: none;" stroke="rgb(238, 51, 119)" stroke-width="2px" d="M35.51945995330811,-2.311215941627779L36.21591995239258,3.00719456897923L36.91237995147705,10.732124520606249L37.608839950561524,9.250926905930243L38.305299949646,13.575171140894469L39.001759948730474,10.608023466336817L39.69821994781494,14.183767010863136L40.39467994689941,16.804250210140708L41.09113994598388,9.669717280770186L41.78759994506836,14.65044958649591L42.48405994415283,18.03518066568253L43.18051994323731,11.22378572193307L43.876979942321775,19.912189073916267L44.57343994140625,16.334361619885073L45.269899940490724,21.249568644392184L45.9663599395752,22.512153779607473L46.66281993865967,17.77596495396861L47.35927993774414,18.624747895918972L48.05573993682861,18.917909644816206L48.75219993591308,23.60052973788879L49.44865993499756,16.379340119153L50.14511993408203,25.329854025465465L50.8415799331665,23.545669170018613L51.538039932250975,22.17648404859287L52.23449993133545,15.598684987938668L52.930959930419924,18.681616937655832L53.6274199295044,24.549321477163176L54.323879928588866,26.597832808810978L55.02033992767334,23.62201946531681L55.716799926757815,27.49687474470224L56.41325992584229,29.77686976157611L57.10971992492676,30.488887891496688L57.806179924011225,31.6948491507992L58.5026399230957,30.179978953128284L59.199099922180174,21.735958780500823L59.89555992126465,31.846446495187138L60.592019920349124,27.06399676443121L61.28847991943359,31.051977212730122L61.984939918518066,32.54276458291042L62.68139991760254,28.217879145021612L63.377859916687015,26.57338223258421L64.07431991577148,34.84627665998855L64.77077991485596,22.881778977260183L65.46723991394043,25.277992024213148L66.1636999130249,30.032087384466195L66.86015991210937,31.591408031937732L67.55661991119385,36.719494427403475L68.25307991027832,34.17382452229609L68.9495399093628,34.30547856983881L69.64599990844727,29.59438152335133L70.34245990753173,33.91979501070742L71.03891990661621,38.40847007800585L71.73537990570068,30.996362288478082L72.43183990478516,35.47045941869723L73.12829990386963,31.375379223084877L73.8247599029541,31.249637443684918L74.52121990203858,34.37135274088405L75.21767990112305,31.998619036316228L75.91413990020753,40.203772260630245L76.610599899292,28.035456912980266L77.30705989837647,42.15172788657719L78.00351989746095,39.801398566550375L78.6999798965454,40.803249847833285L79.39643989562988,40.59742370904496L80.09289989471435,32.116308061339936L80.78935989379882,40.252890290543604L81.4858198928833,39.16986083311863L82.18227989196777,42.74959303701402L82.87873989105225,41.89212556721759L83.57519989013672,41.41557978189212L84.27165988922118,42.93657912516559L84.96811988830567,40.76574890620046L85.66457988739013,43.88804882959553L86.36103988647461,34.3851008859433L87.05749988555908,39.7979473861034L87.75395988464355,40.529522205223515L88.45041988372803,34.40185702707518L89.1468798828125,44.617200278838936L89.84333988189698,41.36830992511432L90.53979988098145,40.633925128471816L91.23625988006592,38.29655187930334L91.9327198791504,44.27275172543054L92.62917987823486,42.3625422069405L93.32563987731935,42.62297431832016L94.02209987640381,43.971122326147L94.71855987548828,43.73098240143918L95.41501987457276,40.77039762740364L96.11147987365722,38.8876938284869L96.8079398727417,42.86399118232188L97.50439987182617,43.53634902546659L98.20085987091063,43.577329435910684L98.89731986999512,43.23451217817805L99.59377986907958,44.705139374053346L100.29023986816406,42.89577787436215L100.98669986724853,34.82027965317897L101.683159866333,43.81035955171956L102.37961986541748,41.655408534592425L103.07607986450195,42.64946165677793L103.77253986358643,46.98344651852281L104.4689998626709,40.612435401043825L105.16545986175537,41.152733730090546L105.86191986083985,42.45145253599654L106.55837985992432,43.412172535558966L107.2548398590088,46.48275189952332L107.95129985809326,41.14696290376938L108.64775985717773,42.56358761215884L109.34421985626221,44.06437020439867L110.04067985534668,44.89803773034768L110.73713985443116,43.34297919643359L111.43359985351563,46.42276170825653L112.1300598526001,46.56126153996456L112.82651985168458,46.47565152007914L113.52297985076903,43.5627514988314L114.21943984985352,38.57786080355072L114.91589984893798,40.27661479875283L115.61235984802245,42.62405870561906L116.30881984710693,37.65771574787718L117.0052798461914,43.6929722692486L117.70173984527588,42.36111835926977L118.39819984436035,48.542097674705474L119.09465984344482,47.310195985322025L119.7911198425293,46.983342794520325L120.48757984161377,43.7456169152471L121.18403984069825,44.351072776776306L121.88049983978271,44.43408969659913L122.57695983886718,46.81624342648533L123.27341983795166,47.10682150477473L123.96987983703613,46.46505281291411L124.66633983612061,46.459857183334094L125.36279983520508,48.0924541238478L126.05925983428955,41.17721259468166L126.75571983337403,47.54084044907327L127.4521798324585,42.60081509960324L128.14863983154297,45.95428753621687L128.84509983062745,45.53638353012562L129.54155982971193,43.146346776049086L130.23801982879638,41.88324302082128L130.93447982788086,46.13263624379624L131.63093982696532,50.02587895998931L132.3273998260498,49.17439919397384L133.02385982513428,48.03423667007837L133.72031982421873,43.97040568758425L134.41677982330322,48.91345789203646L135.1132398223877,49.08151906445832L135.80969982147215,47.431421055885636L136.50615982055663,48.63097971539719L137.20261981964111,48.84909243375492L137.8990798187256,41.95995163540087L138.59553981781005,47.95822583515201L139.29199981689453,50.55700242954178L139.98845981597898,40.414520574810155L140.68491981506347,42.13017215296577L141.38137981414795,50.389676754592216L142.07783981323243,36.33068971874218L142.77429981231688,47.66627105646572L143.47075981140136,45.82091732790545L144.16721981048582,43.53887611934579L144.86367980957033,47.85493558756693L145.56013980865478,47.63620052519414L146.25659980773926,43.497744837625305L146.95305980682372,53.498567993299886L147.6495198059082,48.455233537335204L148.34597980499268,51.595147682246534L149.04243980407716,32.64678089851304L149.73889980316162,49.13102370201736L150.4353598022461,49.15365439347292L151.13181980133055,51.826961398389656L151.82827980041506,52.170561300868485L152.5247397994995,50.708684639022664L153.221199798584,39.502173678234016L153.91765979766845,53.985674767971275L154.61411979675293,51.62210649344297L155.3105797958374,52.009317624247615L156.0070397949219,50.817641988926425L156.70349979400635,50.94616545748447L157.3999597930908,52.01636142696316L158.09641979217528,50.74447884934156L158.79287979125976,48.364154433681364L159.48933979034425,54.55197953328236L160.1857997894287,52.12383835246753L160.88225978851318,47.824091841003934L161.57871978759763,53.625488454546485L162.27517978668214,55.11833144586733L162.9716397857666,47.03020718474286L163.66809978485108,56.38799810161724L164.36455978393553,48.531895004640916L165.06101978302001,56.58875119373761L165.7574797821045,52.008827292599406L166.45393978118898,55.5968102694213L167.15039978027343,56.21830563351962L167.8468597793579,45.98523500678235L168.54331977844237,57.15769620638518L169.23977977752688,55.6824297187615L169.93623977661133,55.27348369470474L170.6326997756958,57.89578677875352L171.32915977478027,57.74831010610146L172.02561977386475,52.65676284788165L172.72207977294923,53.546592206459536L173.4185397720337,54.64657582356662L174.11499977111816,57.313593382149676L174.81145977020262,57.76212425734411L175.5079197692871,54.98858214818878L176.20437976837158,56.59710569066662L176.90083976745606,58.95509172796923L177.59729976654052,58.87862827921376L178.293759765625,54.86901666166523L178.99021976470945,57.33203739568596L179.68667976379396,59.410091209138045L180.38313976287841,55.13849162017232L181.0795997619629,58.55955438859988L181.77605976104735,60.27969438722751L182.47251976013183,63.3307359209019L183.1689797592163,56.606374844708625L183.8654397583008,62.648090542599675L184.56189975738525,62.58958077573227L185.25835975646973,59.62048120403658L185.95481975555418,60.48941489083715L186.6512797546387,57.646670013101655L187.34773975372315,61.98792498447665L188.04419975280763,62.478860117785956L188.74065975189208,61.3136812503773L189.43711975097656,62.80990941596171L190.13357975006105,62.98092200772757L190.83003974914553,63.06615484942206L191.52649974822998,65.73471883858792L192.22295974731443,65.45902043993055L192.91941974639892,63.4987782344142L193.6158797454834,67.18026368476664L194.31233974456788,65.15608977588833L195.00879974365233,68.93447230348966L195.7052597427368,67.80400325910098L196.40171974182127,67.11274878859089L197.09817974090578,65.97591486223033L197.79463973999023,63.51747684322936L198.4910997390747,67.69207563094369L199.18755973815917,66.62040866652039L199.88401973724365,62.36211403823957L200.58047973632813,66.89270303200465L201.2769397354126,66.50776439980032L201.97339973449706,71.04044673252504L202.66985973358155,69.41477101181484L203.366319732666,71.54879806880035L204.0627797317505,68.77544454874047L204.75923973083496,73.30856063638475L205.45569972991944,72.32356922023624L206.1521597290039,74.74792918968706L206.84861972808838,70.72758685260669L207.54507972717286,75.17679965167949L208.24153972625734,74.30266090584412L208.9379997253418,75.55911689545687L209.63445972442625,75.17216978938586L210.33091972351073,74.73276662641183L211.0273797225952,76.19250280202414L211.7238397216797,74.20168087467846L212.42029972076415,76.03971734633478L213.11675971984863,77.27850253770262L213.81321971893308,80.36083100231433L214.5096797180176,79.21632149976843L215.20613971710205,80.99805469697426L215.90259971618653,79.09958484967683L216.59905971527098,82.14187584932172L217.29551971435546,81.19941127420013L217.99197971343995,80.64254067838958L218.68843971252443,83.46934034810367L219.38489971160888,84.48617974774848L220.08135971069336,84.16199509264757L220.77781970977782,84.31298423720266L221.47427970886233,85.74910905806298L222.17073970794678,87.66932794279471L222.86719970703126,86.91462267111608L223.56365970611571,87.76342447197597L224.2601197052002,87.30097100680898L224.95657970428468,88.49595638075554L225.65303970336916,89.25564511928178L226.3494997024536,87.180571013538L227.04595970153807,90.81334390053235L227.74241970062255,92.79876275029301L228.43887969970703,93.10418279039534L229.1353396987915,93.97523338979249L229.83179969787597,94.4749803485873L230.52825969696045,96.03348534822096L231.2247196960449,97.04542614611114L231.9211796951294,98.03078059626841L232.61763969421386,97.96896580550303L233.31409969329835,99.55239285410214L234.0105596923828,100.8210929907378L234.70701969146728,101.20868601446075L235.40347969055176,102.42743832916305L236.09993968963624,103.64285261687564L236.7963996887207,104.05813523453996L237.49285968780518,105.26245105398455L238.18931968688963,106.58872272673769L238.88577968597414,107.10068554419111L239.5822396850586,108.21038149971453L240.27869968414308,108.7948521096461L240.97515968322753,109.36791779402954L241.671619682312,109.82523692107254L242.3680796813965,110.19809170698507L243.06453968048098,110.2459839077779" fill="none"></path></g><g><path style="fill: none;" stroke="rgb(204, 51, 17)" stroke-width="2px" d="M35.51945995330811,-3.1877403395207295L36.21591995239258,3.2725960030243186L36.91237995147705,11.005295825384422L37.608839950561524,11.810788140471232L38.305299949646,16.143056841447418L39.001759948730474,14.176704349238065L39.69821994781494,18.451000762268905L40.39467994689941,20.52362320977167L41.09113994598388,13.981608929981576L41.78759994506836,18.00171553069262L42.48405994415283,22.65240748990331L43.18051994323731,15.802653524136673L43.876979942321775,22.033128047676655L44.57343994140625,19.73754614206277L45.269899940490724,25.152778294280466L45.9663599395752,26.641010282217252L46.66281993865967,23.17429952323286L47.35927993774414,22.111392522293812L48.05573993682861,23.197844871801408L48.75219993591308,26.555890593980024L49.44865993499756,21.676044024872226L50.14511993408203,30.347474358263753L50.8415799331665,28.557226363397746L51.538039932250975,26.135704659833664L52.23449993133545,19.34118844012815L52.930959930419924,22.828502557791893L53.6274199295044,29.19553444535663L54.323879928588866,31.607692700330972L55.02033992767334,27.794477766797627L55.716799926757815,31.721826820905193L56.41325992584229,33.36994464397549L57.10971992492676,34.24480002837359L57.806179924011225,35.618322698995L58.5026399230957,34.525156577688904L59.199099922180174,26.131131374268676L59.89555992126465,37.35122074993069L60.592019920349124,33.904132686329234L61.28847991943359,35.575739281239436L61.984939918518066,36.45828910073246L62.68139991760254,33.65809935238818L63.377859916687015,31.696386151927214L64.07431991577148,38.088038345904664L64.77077991485596,27.368304128870335L65.46723991394043,28.904965796521992L66.1636999130249,36.072162357226716L66.86015991210937,35.89031532192652L67.55661991119385,40.9713298791647L68.25307991027832,38.50512198943065L68.9495399093628,39.65408219462947L69.64599990844727,33.796259723724376L70.34245990753173,39.75830595823709L71.03891990661621,43.333332864200656L71.73537990570068,35.15578908346242L72.43183990478516,38.989711099677606L73.12829990386963,37.83308474774822L73.8247599029541,36.83845642882156L74.52121990203858,38.4366924361419L75.21767990112305,36.50651133244233L75.91413990020753,44.645837532984984L76.610599899292,32.18710440777673L77.30705989837647,46.62293960363573L78.00351989746095,44.73035373611674L78.6999798965454,45.473696514793716L79.39643989562988,44.149782205733885L80.09289989471435,38.20355859633051L80.78935989379882,45.03102133101342L81.4858198928833,45.86588639771858L82.18227989196777,46.90143855036072L82.87873989105225,45.7367877324194L83.57519989013672,45.935928387773544L84.27165988922118,46.81732781378423L84.96811988830567,45.475280663195605L85.66457988739013,47.84821238631366L86.36103988647461,40.28739266555854L87.05749988555908,43.53684878656955L87.75395988464355,45.53831656835413L88.45041988372803,39.74897079801167L89.1468798828125,48.14004458208788L89.84333988189698,45.4012500137716L90.53979988098145,42.972316758755824L91.23625988006592,43.36587391262279L91.9327198791504,48.79676838921873L92.62917987823486,45.75258206916442L93.32563987731935,47.34558472908566L94.02209987640381,47.23371367765699L94.71855987548828,47.58938328224545L95.41501987457276,44.91845249993153L96.11147987365722,44.19447782135862L96.8079398727417,48.09983738693518L97.50439987182617,47.9655713804203L98.20085987091063,49.2339084830472L98.89731986999512,49.39354915235663L99.59377986907958,49.488126583731315L100.29023986816406,48.533149122125764L100.98669986724853,40.3790375364988L101.683159866333,49.140434297880944L102.37961986541748,43.846540369684135L103.07607986450195,48.50865139862512L103.77253986358643,50.81664246672047L104.4689998626709,46.64428788924215L105.16545986175537,46.35997096892211L105.86191986083985,47.354259827476966L106.55837985992432,47.411034574666104L107.2548398590088,49.75650772548474L107.95129985809326,44.039872480898026L108.64775985717773,44.51619195930894L109.34421985626221,48.39769500430944L110.04067985534668,50.195458274629644L110.73713985443116,48.73074334689713L111.43359985351563,51.354008235332756L112.1300598526001,50.794228652724684L112.82651985168458,51.37782703808975L113.52297985076903,48.55334701424985L114.21943984985352,43.631020751389L114.91589984893798,45.608660300961816L115.61235984802245,46.82560687507507L116.30881984710693,41.90386523841016L117.0052798461914,48.44007097405998L117.70173984527588,47.305886724490705L118.39819984436035,52.933602210566576L119.09465984344482,52.1657805672985L119.7911198425293,51.24745539639616L120.48757984161377,49.8434001512193L121.18403984069825,50.90867394530642L121.88049983978271,48.67725947942381L122.57695983886718,50.80604375955545L123.27341983795166,50.924883178061464L123.96987983703613,52.16208422102741L124.66633983612061,51.67956959083055L125.36279983520508,53.25195946261768L126.05925983428955,44.82458227766483L126.75571983337403,51.3721505063163L127.4521798324585,45.55759980336521L128.14863983154297,51.893637073090616L128.84509983062745,49.6750749540638L129.54155982971193,46.887680975846706L130.23801982879638,47.569619145040946L130.93447982788086,50.828533009189414L131.63093982696532,53.91498214553697L132.3273998260498,53.384763903642735L133.02385982513428,51.99108105871633L133.72031982421873,47.516757621582656L134.41677982330322,53.072648950651455L135.1132398223877,53.69348425291567L135.80969982147215,52.36576987358224L136.50615982055663,53.24400100278915L137.20261981964111,53.81269142015785L137.8990798187256,48.79591030883435L138.59553981781005,53.952662246810476L139.29199981689453,55.815931939439764L139.98845981597898,44.61110885105549L140.68491981506347,47.48139716618334L141.38137981414795,55.13686032449655L142.07783981323243,38.47393878249582L142.77429981231688,51.841039574365965L143.47075981140136,49.88378650601271L144.16721981048582,48.50107954644227L144.86367980957033,51.140770545092735L145.56013980865478,52.98368204486678L146.25659980773926,49.53541529941867L146.95305980682372,57.651186721938004L147.6495198059082,51.892477250153505L148.34597980499268,55.66726715548626L149.04243980407716,41.472071645438064L149.73889980316162,52.4956889014467L150.4353598022461,53.758839803948376L151.13181980133055,56.661942621686805L151.82827980041506,55.50631579196336L152.5247397994995,56.39071378459191L153.221199798584,44.912021611776254L153.91765979766845,58.12846800473578L154.61411979675293,54.44368224521273L155.3105797958374,57.65611832678435L156.0070397949219,56.17949399767335L156.70349979400635,57.07054918537172L157.3999597930908,56.950257630830635L158.09641979217528,54.586755362485746L158.79287979125976,52.86290015867749L159.48933979034425,60.41485619194586L160.1857997894287,58.20614785315699L160.88225978851318,52.24222515714443L161.57871978759763,58.532218399212525L162.27517978668214,59.74779770238365L162.9716397857666,53.77258794900763L163.66809978485108,59.426658761174465L164.36455978393553,54.11914870028522L165.06101978302001,61.39617012073282L165.7574797821045,58.444816782920185L166.45393978118898,60.599371762946845L167.15039978027343,61.435688965687106L167.8468597793579,50.72768499039057L168.54331977844237,62.96314748548018L169.23977977752688,59.426715337903104L169.93623977661133,60.513780601970964L170.6326997756958,62.189941623536626L171.32915977478027,62.17200680055808L172.02561977386475,56.715351053521914L172.72207977294923,60.08653200619952L173.4185397720337,58.91977841984378L174.11499977111816,62.031328764797465L174.81145977020262,60.922726626027725L175.5079197692871,59.768514214520266L176.20437976837158,61.54013903620928L176.90083976745606,64.08730822462562L177.59729976654052,63.56279480286912L178.293759765625,59.681093739318385L178.99021976470945,63.11767739030256L179.68667976379396,62.93268091710813L180.38313976287841,61.86058962722002L181.0795997619629,63.77916307209384L181.77605976104735,63.488849018538076L182.47251976013183,67.79306509156413L183.1689797592163,63.40997162936067L183.8654397583008,67.79425320286555L184.56189975738525,66.63960703643852L185.25835975646973,65.14612284219311L185.95481975555418,65.24453806166048L186.6512797546387,63.267322837552456L187.34773975372315,66.50734950379031L188.04419975280763,66.11434868775495L188.74065975189208,65.35281649082057L189.43711975097656,68.4156731313257L190.13357975006105,67.59903520069702L190.83003974914553,67.66671039760392L191.52649974822998,69.24996300128971L192.22295974731443,69.73254363767L192.91941974639892,66.95577665498224L193.6158797454834,70.6240514391975L194.31233974456788,70.15785919521295L195.00879974365233,72.18941636717864L195.7052597427368,71.583272155451L196.40171974182127,71.13833390252512L197.09817974090578,70.38166730425368L197.79463973999023,66.50952770784292L198.4910997390747,73.57847877926618L199.18755973815917,69.42671813101242L199.88401973724365,68.86543926509542L200.58047973632813,69.75211918577907L201.2769397354126,68.97802695508683L201.97339973449706,74.24104884835636L202.66985973358155,73.26185654689334L203.366319732666,75.22868051184135L204.0627797317505,72.16503179713527L204.75923973083496,77.57707679363966L205.45569972991944,75.42916957922807L206.1521597290039,77.9067588208733L206.84861972808838,74.04904629026547L207.54507972717286,78.75227917147215L208.24153972625734,77.78508113648058L208.9379997253418,78.65289271816314L209.63445972442625,77.8780367016343L210.33091972351073,78.6541091178289L211.0273797225952,78.61400564667869L211.7238397216797,77.73565193455974L212.42029972076415,78.02534364410046L213.11675971984863,80.3717974582155L213.81321971893308,82.5231464236193L214.5096797180176,81.58583504553121L215.20613971710205,82.76460175726795L215.90259971618653,80.38874690317024L216.59905971527098,84.41885815539558L217.29551971435546,83.3183464888212L217.99197971343995,81.92648352866604L218.68843971252443,85.86286128571888L219.38489971160888,85.45102041904677L220.08135971069336,86.05448666561884L220.77781970977782,86.45633231023142L221.47427970886233,86.6084765629962L222.17073970794678,88.72538915956845L222.86719970703126,87.77733763249375L223.56365970611571,88.83190899541333L224.2601197052002,88.82509621433974L224.95657970428468,87.10752102741041L225.65303970336916,89.7131056881464L226.3494997024536,86.43303684221435L227.04595970153807,90.3386840061615L227.74241970062255,91.90270995156486L228.43887969970703,91.77327182589381L229.1353396987915,92.77419902060895L229.83179969787597,93.48417567357114L230.52825969696045,94.84411521459181L231.2247196960449,95.53596845548002L231.9211796951294,95.73440190172619L232.61763969421386,95.99692735206547L233.31409969329835,97.65246144131486L234.0105596923828,97.7431256489587L234.70701969146728,97.81239442372225L235.40347969055176,99.35568028335206L236.09993968963624,99.83566310494234L236.7963996887207,99.88271608426037L237.49285968780518,100.34790880603896L238.18931968688963,101.43757188489683L238.88577968597414,102.05124080153344L239.5822396850586,102.30605295786829L240.27869968414308,103.00310182833648L240.97515968322753,103.16718848557146L241.671619682312,103.35142117292928L242.3680796813965,103.78594930778559L243.06453968048098,103.74205048108918" fill="none"></path></g></g></g></g></g></g><g transform="translate(51, 177)" clip-path="url(#clip_1)"><clipPath id="clip_1"><rect width="278" height="22"></rect></clipPath><g><g><line x1="0" y1="0" x2="0" y2="5" style="visibility: inherit;" fill="rgb(0, 0, 0)" stroke="rgb(204, 204, 204)" stroke-width="1px"></line><line x1="34.82299995422363" y1="0" x2="34.82299995422363" y2="5" style="visibility: inherit;" fill="rgb(0, 0, 0)" stroke="rgb(204, 204, 204)" stroke-width="1px"></line><line x1="69.64599990844727" y1="0" x2="69.64599990844727" y2="5" style="visibility: inherit;" fill="rgb(0, 0, 0)" stroke="rgb(204, 204, 204)" stroke-width="1px"></line><line x1="104.4689998626709" y1="0" x2="104.4689998626709" y2="5" style="visibility: inherit;" fill="rgb(0, 0, 0)" stroke="rgb(204, 204, 204)" stroke-width="1px"></line><line x1="139.29199981689453" y1="0" x2="139.29199981689453" y2="5" style="visibility: inherit;" fill="rgb(0, 0, 0)" stroke="rgb(204, 204, 204)" stroke-width="1px"></line><line x1="174.11499977111816" y1="0" x2="174.11499977111816" y2="5" style="visibility: inherit;" fill="rgb(0, 0, 0)" stroke="rgb(204, 204, 204)" stroke-width="1px"></line><line x1="208.9379997253418" y1="0" x2="208.9379997253418" y2="5" style="visibility: inherit;" fill="rgb(0, 0, 0)" stroke="rgb(204, 204, 204)" stroke-width="1px"></line><line x1="243.76099967956543" y1="0" x2="243.76099967956543" y2="5" style="visibility: inherit;" fill="rgb(0, 0, 0)" stroke="rgb(204, 204, 204)" stroke-width="1px"></line><line x1="278.58399963378906" y1="0" x2="278.58399963378906" y2="5" style="visibility: inherit;" fill="rgb(0, 0, 0)" stroke="rgb(204, 204, 204)" stroke-width="1px"></line></g><g transform="translate(0, 8)"><text style="text-anchor: middle; visibility: hidden; font-family: &quot;Helvetica Neue&quot;, sans-serif; font-size: 12px; font-weight: 200;" x="0" y="0" dx="0em" dy="0.95em" fill="rgb(50, 49, 63)" stroke="none" stroke-width="1px">-50</text><text style="text-anchor: middle; visibility: inherit; font-family: &quot;Helvetica Neue&quot;, sans-serif; font-size: 12px; font-weight: 200;" x="34.82299995422363" y="0" dx="0em" dy="0.95em" fill="rgb(50, 49, 63)" stroke="none" stroke-width="1px">0</text><text style="text-anchor: middle; visibility: inherit; font-family: &quot;Helvetica Neue&quot;, sans-serif; font-size: 12px; font-weight: 200;" x="69.64599990844727" y="0" dx="0em" dy="0.95em" fill="rgb(50, 49, 63)" stroke="none" stroke-width="1px">50</text><text style="text-anchor: middle; visibility: inherit; font-family: &quot;Helvetica Neue&quot;, sans-serif; font-size: 12px; font-weight: 200;" x="104.4689998626709" y="0" dx="0em" dy="0.95em" fill="rgb(50, 49, 63)" stroke="none" stroke-width="1px">100</text><text style="text-anchor: middle; visibility: inherit; font-family: &quot;Helvetica Neue&quot;, sans-serif; font-size: 12px; font-weight: 200;" x="139.29199981689453" y="0" dx="0em" dy="0.95em" fill="rgb(50, 49, 63)" stroke="none" stroke-width="1px">150</text><text style="text-anchor: middle; visibility: inherit; font-family: &quot;Helvetica Neue&quot;, sans-serif; font-size: 12px; font-weight: 200;" x="174.11499977111816" y="0" dx="0em" dy="0.95em" fill="rgb(50, 49, 63)" stroke="none" stroke-width="1px">200</text><text style="text-anchor: middle; visibility: inherit; font-family: &quot;Helvetica Neue&quot;, sans-serif; font-size: 12px; font-weight: 200;" x="208.9379997253418" y="0" dx="0em" dy="0.95em" fill="rgb(50, 49, 63)" stroke="none" stroke-width="1px">250</text><text style="text-anchor: middle; visibility: inherit; font-family: &quot;Helvetica Neue&quot;, sans-serif; font-size: 12px; font-weight: 200;" x="243.76099967956543" y="0" dx="0em" dy="0.95em" fill="rgb(50, 49, 63)" stroke="none" stroke-width="1px">300</text><text style="text-anchor: middle; visibility: hidden; font-family: &quot;Helvetica Neue&quot;, sans-serif; font-size: 12px; font-weight: 200;" x="278.58399963378906" y="0" dx="0em" dy="0.95em" fill="rgb(50, 49, 63)" stroke="none" stroke-width="1px">350</text></g><line x1="0" y1="0" x2="278.58399963378906" y2="0" fill="rgb(0, 0, 0)" stroke="rgb(204, 204, 204)" stroke-width="1px"></line></g></g></g></g></svg>