<svg viewBox="0 0 330 200" xmlns="http://www.w3.org/2000/svg"><g><g><g><g><g><line x1="51.41600036621094" y1="177.9749994277954" x2="46.41600036621094" y2="177.9749994277954" style="visibility: inherit;" fill="rgb(0, 0, 0)" stroke="rgb(204, 204, 204)" stroke-width="1px"></line><line x1="51.41600036621094" y1="158.1999994913737" x2="46.41600036621094" y2="158.1999994913737" style="visibility: inherit;" fill="rgb(0, 0, 0)" stroke="rgb(204, 204, 204)" stroke-width="1px"></line><line x1="51.41600036621094" y1="138.42499955495197" x2="46.41600036621094" y2="138.42499955495197" style="visibility: inherit;" fill="rgb(0, 0, 0)" stroke="rgb(204, 204, 204)" stroke-width="1px"></line><line x1="51.41600036621094" y1="118.64999961853027" x2="46.41600036621094" y2="118.64999961853027" style="visibility: inherit;" fill="rgb(0, 0, 0)" stroke="rgb(204, 204, 204)" stroke-width="1px"></line><line x1="51.41600036621094" y1="98.87499968210855" x2="46.41600036621094" y2="98.87499968210855" style="visibility: inherit;" fill="rgb(0, 0, 0)" stroke="rgb(204, 204, 204)" stroke-width="1px"></line><line x1="51.41600036621094" y1="79.09999974568684" x2="46.41600036621094" y2="79.09999974568684" style="visibility: inherit;" fill="rgb(0, 0, 0)" stroke="rgb(204, 204, 204)" stroke-width="1px"></line><line x1="51.41600036621094" y1="59.32499980926514" x2="46.41600036621094" y2="59.32499980926514" style="visibility: inherit;" fill="rgb(0, 0, 0)" stroke="rgb(204, 204, 204)" stroke-width="1px"></line><line x1="51.41600036621094" y1="39.54999987284344" x2="46.41600036621094" y2="39.54999987284344" style="visibility: inherit;" fill="rgb(0, 0, 0)" stroke="rgb(204, 204, 204)" stroke-width="1px"></line><line x1="51.41600036621094" y1="19.77499993642172" x2="46.41600036621094" y2="19.77499993642172" style="visibility: inherit;" fill="rgb(0, 0, 0)" stroke="rgb(204, 204, 204)" stroke-width="1px"></line><line x1="51.41600036621094" y1="0" x2="46.41600036621094" y2="0" style="visibility: inherit;" fill="rgb(0, 0, 0)" stroke="rgb(204, 204, 204)" stroke-width="1px"></line></g><g transform="translate(41.41600036621094, 0)"><text style="text-anchor: end; visibility: hidden; font-family: &quot;Helvetica Neue&quot;, sans-serif; font-size: 12px; font-weight: 200;" x="0" y="177.9749994277954" dx="0em" dy="0.3em" fill="rgb(50, 49, 63)" stroke="none" stroke-width="1px">-0.1</text><text style="text-anchor: end; visibility: inherit; font-family: &quot;Helvetica Neue&quot;, sans-serif; font-size: 12px; font-weight: 200;" x="0" y="158.1999994913737" dx="0em" dy="0.3em" fill="rgb(50, 49, 63)" stroke="none" stroke-width="1px">0</text><text style="text-anchor: end; visibility: hidden; font-family: &quot;Helvetica Neue&quot;, sans-serif; font-size: 12px; font-weight: 200;" x="0" y="138.42499955495197" dx="0em" dy="0.3em" fill="rgb(50, 49, 63)" stroke="none" stroke-width="1px">0.1</text><text style="text-anchor: end; visibility: inherit; font-family: &quot;Helvetica Neue&quot;, sans-serif; font-size: 12px; font-weight: 200;" x="0" y="118.64999961853027" dx="0em" dy="0.3em" fill="rgb(50, 49, 63)" stroke="none" stroke-width="1px">0.2</text><text style="text-anchor: end; visibility: hidden; font-family: &quot;Helvetica Neue&quot;, sans-serif; font-size: 12px; font-weight: 200;" x="0" y="98.87499968210855" dx="0em" dy="0.3em" fill="rgb(50, 49, 63)" stroke="none" stroke-width="1px">0.3</text><text style="text-anchor: end; visibility: inherit; font-family: &quot;Helvetica Neue&quot;, sans-serif; font-size: 12px; font-weight: 200;" x="0" y="79.09999974568684" dx="0em" dy="0.3em" fill="rgb(50, 49, 63)" stroke="none" stroke-width="1px">0.4</text><text style="text-anchor: end; visibility: hidden; font-family: &quot;Helvetica Neue&quot;, sans-serif; font-size: 12px; font-weight: 200;" x="0" y="59.32499980926514" dx="0em" dy="0.3em" fill="rgb(50, 49, 63)" stroke="none" stroke-width="1px">0.5</text><text style="text-anchor: end; visibility: inherit; font-family: &quot;Helvetica Neue&quot;, sans-serif; font-size: 12px; font-weight: 200;" x="0" y="39.54999987284344" dx="0em" dy="0.3em" fill="rgb(50, 49, 63)" stroke="none" stroke-width="1px">0.6</text><text style="text-anchor: end; visibility: hidden; font-family: &quot;Helvetica Neue&quot;, sans-serif; font-size: 12px; font-weight: 200;" x="0" y="19.77499993642172" dx="0em" dy="0.3em" fill="rgb(50, 49, 63)" stroke="none" stroke-width="1px">0.7</text><text style="text-anchor: end; visibility: hidden; font-family: &quot;Helvetica Neue&quot;, sans-serif; font-size: 12px; font-weight: 200;" x="0" y="0" dx="0em" dy="0.3em" fill="rgb(50, 49, 63)" stroke="none" stroke-width="1px">0.8</text></g><line x1="51.41600036621094" y1="0" x2="51.41600036621094" y2="177.9749994277954" fill="rgb(0, 0, 0)" stroke="rgb(204, 204, 204)" stroke-width="1px"></line></g></g><g transform="translate(51, 0)" clip-path="url(#clip_0)"><clipPath id="clip_0"><rect width="278" height="177"></rect></clipPath><g><g><g><line x1="0" y1="0" x2="0" y2="177.9749994277954" fill="rgb(0, 0, 0)" stroke="rgb(60, 60, 60)" stroke-width="1px" opacity="0.25"></line><line x1="34.82299995422363" y1="0" x2="34.82299995422363" y2="177.9749994277954" fill="rgb(0, 0, 0)" stroke="rgb(60, 60, 60)" stroke-width="1px" opacity="0.25"></line><line x1="69.64599990844727" y1="0" x2="69.64599990844727" y2="177.9749994277954" fill="rgb(0, 0, 0)" stroke="rgb(60, 60, 60)" stroke-width="1px" opacity="0.25"></line><line x1="104.4689998626709" y1="0" x2="104.4689998626709" y2="177.9749994277954" fill="rgb(0, 0, 0)" stroke="rgb(60, 60, 60)" stroke-width="1px" opacity="0.25"></line><line x1="139.29199981689453" y1="0" x2="139.29199981689453" y2="177.9749994277954" fill="rgb(0, 0, 0)" stroke="rgb(60, 60, 60)" stroke-width="1px" opacity="0.25"></line><line x1="174.11499977111816" y1="0" x2="174.11499977111816" y2="177.9749994277954" fill="rgb(0, 0, 0)" stroke="rgb(60, 60, 60)" stroke-width="1px" opacity="0.25"></line><line x1="208.9379997253418" y1="0" x2="208.9379997253418" y2="177.9749994277954" fill="rgb(0, 0, 0)" stroke="rgb(60, 60, 60)" stroke-width="1px" opacity="0.25"></line><line x1="243.76099967956543" y1="0" x2="243.76099967956543" y2="177.9749994277954" fill="rgb(0, 0, 0)" stroke="rgb(60, 60, 60)" stroke-width="1px" opacity="0.25"></line><line x1="278.58399963378906" y1="0" x2="278.58399963378906" y2="177.9749994277954" fill="rgb(0, 0, 0)" stroke="rgb(60, 60, 60)" stroke-width="1px" opacity="0.25"></line></g><g><line x1="0" y1="177.9749994277954" x2="278.58399963378906" y2="177.9749994277954" fill="rgb(0, 0, 0)" stroke="rgb(60, 60, 60)" stroke-width="1px" opacity="0.25"></line><line x1="0" y1="158.1999994913737" x2="278.58399963378906" y2="158.1999994913737" fill="rgb(0, 0, 0)" stroke="rgb(60, 60, 60)" stroke-width="1px" opacity="0.25"></line><line x1="0" y1="138.42499955495197" x2="278.58399963378906" y2="138.42499955495197" fill="rgb(0, 0, 0)" stroke="rgb(60, 60, 60)" stroke-width="1px" opacity="0.25"></line><line x1="0" y1="118.64999961853027" x2="278.58399963378906" y2="118.64999961853027" fill="rgb(0, 0, 0)" stroke="rgb(60, 60, 60)" stroke-width="1px" opacity="0.25"></line><line x1="0" y1="98.87499968210855" x2="278.58399963378906" y2="98.87499968210855" fill="rgb(0, 0, 0)" stroke="rgb(60, 60, 60)" stroke-width="1px" opacity="0.25"></line><line x1="0" y1="79.09999974568684" x2="278.58399963378906" y2="79.09999974568684" fill="rgb(0, 0, 0)" stroke="rgb(60, 60, 60)" stroke-width="1px" opacity="0.25"></line><line x1="0" y1="59.32499980926514" x2="278.58399963378906" y2="59.32499980926514" fill="rgb(0, 0, 0)" stroke="rgb(60, 60, 60)" stroke-width="1px" opacity="0.25"></line><line x1="0" y1="39.54999987284344" x2="278.58399963378906" y2="39.54999987284344" fill="rgb(0, 0, 0)" stroke="rgb(60, 60, 60)" stroke-width="1px" opacity="0.25"></line><line x1="0" y1="19.77499993642172" x2="278.58399963378906" y2="19.77499993642172" fill="rgb(0, 0, 0)" stroke="rgb(60, 60, 60)" stroke-width="1px" opacity="0.25"></line><line x1="0" y1="0" x2="278.58399963378906" y2="0" fill="rgb(0, 0, 0)" stroke="rgb(60, 60, 60)" stroke-width="1px" opacity="0.25"></line></g></g></g><g><g><line x1="0" y1="158.1999994913737" x2="278.58399963378906" y2="158.1999994913737" fill="rgb(0, 0, 0)" stroke="rgb(153, 153, 153)" stroke-width="1.5px"></line></g></g><g><g><line x1="34.82299995422363" y1="0" x2="34.82299995422363" y2="177.9749994277954" fill="rgb(0, 0, 0)" stroke="rgb(153, 153, 153)" stroke-width="1.5px"></line></g></g><g><g><g><g><g><path style="fill: none;" stroke="rgb(51, 187, 238)" stroke-width="2px" d="M34.82299995422363,156.08011956325254L35.51945995330811,124.20281930270673L36.21591995239258,115.1933288715156L36.91237995147705,104.04418317752123L37.608839950561524,111.35302429310083L38.305299949646,101.11353220766306L39.001759948730474,98.0404964707303L39.69821994781494,96.67601900460005L40.39467994689941,101.71468941649755L41.09113994598388,88.3547019695719L41.78759994506836,94.64710679469823L42.48405994415283,85.00085706949474L43.18051994323731,84.26127546459038L43.876979942321775,86.82411287079415L44.57343994140625,95.9285225510955L45.269899940490724,98.82358322259427L45.9663599395752,90.92149385337115L46.66281993865967,88.32701473299424L47.35927993774414,87.65466514062246L48.05573993682861,90.85821631843407L48.75219993591308,104.0718704140989L49.44865993499756,91.41191390271347L50.14511993408203,82.04647334065439L50.8415799331665,92.17127378900449L51.538039932250975,95.12170304024936L52.23449993133545,81.23174487461726L52.930959930419924,87.03372965040128L53.6274199295044,81.63120015244483L54.323879928588866,85.7443990454038L55.02033992767334,87.34222015671412L55.716799926757815,87.38967978126924L56.41325992584229,77.5496370802498L57.10971992492676,87.47669007518849L57.806179924011225,81.7142559687686L58.5026399230957,81.6509725404223L59.199099922180174,85.61388360452494L59.89555992126465,78.09938608034292L60.592019920349124,82.00692267129025L61.28847991943359,84.78729170570135L61.984939918518066,96.00366941222828L62.68139991760254,81.05376980918328L63.377859916687015,84.84661476304294L64.07431991577148,82.85724732909601L64.77077991485596,74.83255736759423L65.46723991394043,81.01817361741465L66.1636999130249,78.89434215840261L66.86015991210937,86.365334535625L67.55661991119385,85.29748414302111L68.25307991027832,85.10369116720517L68.9495399093628,76.4026912423269L69.64599990844727,86.36928901322048L70.34245990753173,84.71609932216406L71.03891990661621,78.79546253828765L71.73537990570068,85.9737882129884L72.43183990478516,79.8830912122782L73.12829990386963,85.0285443060724L73.8247599029541,80.87184026615381L74.52121990203858,94.73807156621297L75.21767990112305,83.43863214995307L75.91413990020753,87.17215404647112L76.610599899292,76.22076169929743L77.30705989837647,100.05754524784565L78.00351989746095,97.73200596441745L78.6999798965454,96.24888238360404L79.39643989562988,88.20440824730636L80.09289989471435,88.66714695348024L80.78935989379882,82.90470695365111L81.4858198928833,99.8677067496252L82.18227989196777,77.055262553312L82.87873989105225,82.67927226366204L83.57519989013672,91.3367670415807L84.27165988922118,79.29379743623018L84.96811988830567,116.84256408497652L85.66457988739013,80.42097088617562L86.36103988647461,85.89864724526484L87.05749988555908,87.04559308318774L87.75395988464355,79.7644392041858L88.45041988372803,79.36102944876274L89.1468798828125,78.62540232145389L89.84333988189698,88.45357569627762L90.53979988098145,83.20924298236848L91.23625988006592,53.16705900920394L91.9327198791504,50.865258378167155L92.62917987823486,48.270779257790224L93.32563987731935,48.25100097640356L94.02209987640381,46.41192726472218L94.71855987548828,45.33616791692734L95.41501987457276,44.85365092936678L96.11147987365722,44.98416637024562L96.8079398727417,44.22876096155011L97.50439987182617,42.92361833957989L98.20085987091063,42.07724226596039L98.89731986999512,44.86552025556247L99.59377986907958,43.9637814956061L100.29023986816406,42.00210129823685L100.98669986724853,41.15177664043108L101.683159866333,41.804353844825414L102.37961986541748,42.08911159215609L103.07607986450195,40.289582656429616L103.77253986358643,41.38115991460643L104.4689998626709,40.76813927298548L105.16545986175537,40.74045203640782L105.86191986083985,42.745637380736696L106.55837985992432,38.89742974054019L107.2548398590088,41.87553444154423L107.95129985809326,40.922381579437285L108.64775985717773,40.14324930516881L109.34421985626221,39.95735939113462L110.04067985534668,41.622424301795945L110.73713985443116,39.72006716176827L111.43359985351563,43.101587511604635L112.1300598526001,40.22629922808332L112.82651985168458,38.94093488749979L113.52297985076903,41.74107041647912L114.21943984985352,40.66135069767955L114.91589984893798,40.12743139478684L115.61235984802245,39.53022866354783L116.30881984710693,41.06871493069809L117.0052798461914,40.20257236251038L117.70173984527588,39.75170298253221L118.39819984436035,40.064147966440515L119.09465984344482,32.597104173404404L119.7911198425293,31.28009222523849L120.48757984161377,31.390829384730665L121.18403984069825,30.516777861351983L121.88049983978271,30.868779408033674L122.57695983886718,29.777190363038414L123.27341983795166,30.077777807569504L123.96987983703613,29.717867305696814L124.66633983612061,29.66645320354621L125.36279983520508,29.785099318229385L126.05925983428955,29.852343117580403L126.75571983337403,29.061341517116233L127.4521798324585,28.835906827127133L128.14863983154297,29.444978884561834L128.84509983062745,28.79240168016753L129.54155982971193,28.855685108513825L130.23801982879638,28.36921953676699L130.93447982788086,28.677704149670603L131.63093982696532,28.796350264353777L132.3273998260498,28.222874398687708L133.02385982513428,28.582784900560398L133.72031982421873,28.630250418524724L134.41677982330322,28.503683561832133L135.1132398223877,27.787834715909952L135.80969982147215,28.112137239195533L136.50615982055663,27.372549740881936L137.20261981964111,28.179369251728076L137.8990798187256,27.902520459588402L138.59553981781005,27.53471278934319L139.29199981689453,27.80760121047817L139.98845981597898,27.930207696166065L140.68491981506347,28.124006565391227L141.38137981414795,27.649410319840115L142.07783981323243,27.870884638824464L142.77429981231688,27.764096063518537L143.47075981140136,28.021178361090023L144.16721981048582,27.81156158148289L144.86367980957033,27.17085370328425L145.56013980865478,27.265772952394485L146.25659980773926,27.708733377181687L146.95305980682372,27.388379438082353L147.6495198059082,26.735802233688048L148.34597980499268,27.35278324631372L149.04243980407716,27.17876265847522L149.73889980316162,27.083843409365016L150.4353598022461,26.850499764184946L151.13181980133055,26.878175213944132L151.82827980041506,26.8425790221755L152.5247397994995,26.158365997017228L153.221199798584,26.700206041919387L153.91765979766845,26.838630437989252L154.61411979675293,26.8425790221755L155.3105797958374,26.490589262312255L156.0070397949219,26.66064947914603L156.70349979400635,26.63692261357309L157.3999597930908,26.838630437989252L158.09641979217528,26.296790393087093L158.79287979125976,27.269721536580732L159.48933979034425,26.280972482705124L160.1857997894287,26.37985210282008L160.88225978851318,26.26119420131846L161.57871978759763,26.830721482798253L162.27517978668214,26.03575951132936L162.9716397857666,26.292841808900846L163.66809978485108,26.407539339397744L164.36455978393553,26.632974029386816L165.06101978302001,26.14650845764001L165.7574797821045,25.74705317981244L166.45393978118898,25.861750710309337L167.15039978027343,26.075316074102716L167.8468597793579,25.703548032852808L168.54331977844237,26.265154572323183L169.23977977752688,26.38776105801105L169.93623977661133,26.03575951132936L170.6326997756958,26.225609796368275L171.32915977478027,25.624446694124543L172.02561977386475,26.01203264575642L172.72207977294923,25.869659665500308L173.4185397720337,26.13859950244904L174.11499977111816,26.075316074102716L174.81145977020262,25.478113342863708L175.5079197692871,24.41421153444611L176.20437976837158,24.79784890189171L176.90083976745606,24.90463747719764L177.59729976654052,24.675242416203815L178.293759765625,25.039101502262753L178.99021976470945,24.5407783911387L179.68667976379396,24.402353995068864L180.38313976287841,24.60405003266655L181.0795997619629,24.59614107747558L181.77605976104735,24.698969281776783L182.47251976013183,24.667333461012845L183.1689797592163,24.41421153444611L183.8654397583008,24.785979575696018L184.56189975738525,24.224373036225643L185.25835975646973,24.461677052410437L185.95481975555418,24.916495016574885L186.6512797546387,24.944182253152547L187.34773975372315,24.485403917983376L188.04419975280763,24.327201240526847L188.74065975189208,24.295565419762937L189.43711975097656,24.394445039877866L190.13357975006105,24.92836434277058L190.83003974914553,24.726656518354446L191.52649974822998,24.568465627716364L192.22295974731443,24.3232526563406L192.91941974639892,24.774122036318772L193.6158797454834,24.48145533379713L194.31233974456788,24.55659630152067L195.00879974365233,24.592192493289303L195.7052597427368,24.65546413481715L196.40171974182127,24.263929598999027L197.09817974090578,24.046403864200897L197.79463973999023,24.319292285335877L198.4910997390747,23.91588842332203L199.18755973815917,24.33907056672254L199.88401973724365,24.509130783556316L200.58047973632813,24.295565419762937L201.2769397354126,24.295565419762937L201.97339973449706,24.52100010975201L202.66985973358155,24.105726921542498L203.366319732666,23.927745962699277L204.0627797317505,23.94752424408594L204.75923973083496,24.169010349888794L205.45569972991944,24.327201240526847L206.1521597290039,23.987080806859325L206.84861972808838,24.00684730142754L207.54507972717286,23.892149770930615L208.24153972625734,24.386524297868448L208.9379997253418,24.303474374953907L209.63445972442625,24.51309115456104L210.33091972351073,24.53681802013398L211.0273797225952,24.501221828365345L211.7238397216797,24.212515496848397L212.42029972076415,24.73061688935914L213.11675971984863,24.259969227994304L213.81321971893308,23.951484615090692L214.5096797180176,24.002898717241266L215.20613971710205,24.283696093567215L215.90259971618653,24.366757803300203L216.59905971527098,23.967302525472633L217.29551971435546,24.350939892918262L217.99197971343995,24.33907056672254L218.68843971252443,24.303474374953907L219.38489971160888,24.062221774582866L220.08135971069336,23.733958880292562L220.77781970977782,24.192737215461733L221.47427970886233,23.959393570281662L222.17073970794678,24.402353995068864L222.86719970703126,24.08200005596956L223.56365970611571,24.236242362421365L224.2601197052002,24.18086788926604L224.95657970428468,24.00684730142754L225.65303970336916,24.37861534267745L226.3494997024536,24.192737215461733L227.04595970153807,24.259969227994304L227.74241970062255,24.544726975324977L228.43887969970703,24.125505202929162L229.1353396987915,24.034534538005204L229.83179969787597,24.608010403671273L230.52825969696045,23.991029391045572L231.2247196960449,24.101766550537747L231.9211796951294,24.410262950259835L232.61763969421386,24.050352448387173L233.31409969329835,23.567847247645062L234.0105596923828,24.287656464571967L234.70701969146728,23.73790746447881L235.40347969055176,23.90797946813106L236.09993968963624,23.769555072061223L236.7963996887207,23.994989762050295L237.49285968780518,24.31534370114963L238.18931968688963,24.291605048758214L238.88577968597414,24.18877684445701L239.5822396850586,24.085948640155806L240.27869968414308,24.311383330144878L240.97515968322753,23.76559470105647L241.671619682312,24.14132311331113L242.3680796813965,24.42212048963708L243.06453968048098,24.560544885706918" fill="none"></path></g><g><path style="fill: none;" stroke="rgb(0, 119, 187)" stroke-width="2px" d="M34.82299995422363,156.1829494250751L35.51945995330811,121.49760007613301L36.21591995239258,111.37279962778291L36.91237995147705,100.18015173353353L37.608839950561524,109.01957605448167L38.305299949646,97.82692521352769L39.001759948730474,94.22787323548397L39.69821994781494,91.59779792333842L40.39467994689941,96.73930243294636L41.09113994598388,83.4900521455129L41.78759994506836,90.6288271508495L42.48405994415283,81.03795189880132L43.18051994323731,76.64789832029344L43.876979942321775,81.03795189880132L44.57343994140625,91.400050469927L45.269899940490724,91.10342339640061L45.9663599395752,84.89407438759804L46.66281993865967,82.77815188377697L47.35927993774414,82.89679799846014L48.05573993682861,87.1286488995115L48.75219993591308,102.414726245447L49.44865993499756,90.09490195454755L50.14511993408203,78.21012323983511L50.8415799331665,86.97045211546421L51.538039932250975,88.7897475457589L52.23449993133545,80.08874762088061L52.930959930419924,82.30354974481662L53.6274199295044,75.81735194387436L54.323879928588866,80.12829829024474L55.02033992767334,83.31207708007892L55.716799926757815,83.25274812932811L56.41325992584229,74.01782300814789L57.10971992492676,83.15387440262239L57.806179924011225,77.28069724330108L58.5026399230957,77.67619804353318L59.199099922180174,82.50129719822806L59.89555992126465,75.08567340075176L60.592019920349124,79.83167711012761L61.28847991943359,80.1085259022673L61.984939918518066,90.35197246530058L62.68139991760254,72.25785063519477L63.377859916687015,80.02942456353902L64.07431991577148,78.82314977486531L64.77077991485596,73.04885223565896L65.46723991394043,77.39934925139347L66.1636999130249,74.03760128953456L66.86015991210937,84.49857358736595L67.55661991119385,80.36560230642954L68.25307991027832,81.6509725404223L68.9495399093628,71.19000024259091L69.64599990844727,80.7610972132524L70.34245990753173,83.27252641071479L71.03891990661621,74.61107715520063L71.73537990570068,81.05772428677876L72.43183990478516,75.54049725832543L73.12829990386963,79.4954993672371L73.8247599029541,73.40480236652691L74.52121990203858,93.39732685906489L75.21767990112305,78.64517470943133L75.91413990020753,80.66222348654668L76.610599899292,72.0798755697608L77.30705989837647,98.89477560613155L78.00351989746095,90.96499900033078L78.6999798965454,94.97932416658402L79.39643989562988,85.09182184100948L80.09289989471435,83.84600227638086L80.78935989379882,78.74404843613705L81.4858198928833,94.72224776242179L82.18227989196777,73.38502408514023L82.87873989105225,77.04339912052552L83.57519989013672,88.76997515778145L84.27165988922118,76.2326251320839L84.96811988830567,110.16652483910919L85.66457988739013,75.58004792768956L86.36103988647461,79.35707497116725L87.05749988555908,81.41367441764673L87.75395988464355,77.10272217786711L88.45041988372803,74.67040021254222L89.1468798828125,72.59402248467605L89.84333988189698,87.44504836101532L90.53979988098145,76.13375140537818L91.23625988006592,53.05632184971175L91.9327198791504,52.70037171884378L92.62917987823486,48.80469856068294L93.32563987731935,50.18895430819987L94.02209987640381,48.013696960218766L94.71855987548828,46.906301791659985L95.41501987457276,47.47977765732605L96.11147987365722,46.43170554610887L96.8079398727417,47.34135326125622L97.50439987182617,46.115300191195814L98.20085987091063,45.02767151720525L98.89731986999512,48.488304992588354L99.59377986907958,46.19440152992408L100.29023986816406,45.75935006032785L100.98669986724853,44.81014578240715L101.683159866333,45.957097513739285L102.37961986541748,45.99665407651264L103.07607986450195,45.62092566425801L103.77253986358643,44.21690342217286L104.4689998626709,44.98812674125034L105.16545986175537,45.34407687211831L105.86191986083985,46.19440152992408L106.55837985992432,44.118023802057905L107.2548398590088,45.166095913275086L107.95129985809326,44.31577125546934L108.64775985717773,44.41465087558427L109.34421985626221,45.48250126818817L110.04067985534668,45.08699457454682L110.73713985443116,45.126551137320206L111.43359985351563,46.906301791659985L112.1300598526001,43.60387099373341L112.82651985168458,44.711277949110666L113.52297985076903,46.313047644607224L114.21943984985352,46.03619885246755L114.91589984893798,44.8497023451805L115.61235984802245,44.47397393292587L116.30881984710693,46.86674522888663L117.0052798461914,46.03619885246755L117.70173984527588,44.3553278182427L118.39819984436035,44.19712514078617L119.09465984344482,38.93697451649507L119.7911198425293,38.54147960967222L120.48757984161377,38.38327693221569L121.18403984069825,38.403055213602386L121.88049983978271,38.600802667013795L122.57695983886718,38.600802667013795L123.27341983795166,37.47362921706835L123.96987983703613,37.84934584250453L124.66633983612061,37.651598389093095L125.36279983520508,37.53295227440992L126.05925983428955,37.53295227440992L126.75571983337403,38.403055213602386L127.4521798324585,37.45385093568166L128.14863983154297,37.69115495186645L128.84509983062745,37.335204820998484L129.54155982971193,37.17700214354198L130.23801982879638,36.979254690130546L130.93447982788086,37.335204820998484L131.63093982696532,37.11767908620038L132.3273998260498,37.236325200883556L133.02385982513428,37.75047800920805L133.72031982421873,37.19678042492865L134.41677982330322,37.37474959695339L135.1132398223877,36.90015335140228L135.80969982147215,37.809801066549625L136.50615982055663,37.394527878340085L137.20261981964111,37.6318201077064L137.8990798187256,37.07812252342703L138.59553981781005,37.29564825822513L139.29199981689453,37.03857774747212L139.98845981597898,37.11767908620038L140.68491981506347,36.93969812735719L141.38137981414795,37.4142943729083L142.07783981323243,37.15722386215529L142.77429981231688,37.17700214354198L143.47075981140136,37.75047800920805L144.16721981048582,37.018799466085454L144.86367980957033,37.11767908620038L145.56013980865478,36.88037507001559L146.25659980773926,37.11767908620038L146.95305980682372,37.09790080481369L147.6495198059082,36.66284933521749L148.34597980499268,36.386000543077785L149.04243980407716,37.651598389093095L149.73889980316162,36.99902118469876L150.4353598022461,36.9199198459705L151.13181980133055,37.31542653961182L151.82827980041506,36.979254690130546L152.5247397994995,36.643071053830795L153.221199798584,36.386000543077785L153.91765979766845,36.603526277875915L154.61411979675293,36.58374799648922L155.3105797958374,36.42554531903269L156.0070397949219,37.058344242040334L156.70349979400635,37.236325200883556L157.3999597930908,37.275869976838464L158.09641979217528,36.93969812735719L158.79287979125976,36.9199198459705L159.48933979034425,37.25610348227025L160.1857997894287,37.45385093568166L160.88225978851318,36.72217239255906L161.57871978759763,37.31542653961182L162.27517978668214,36.18825308966635L162.9716397857666,37.058344242040334L163.66809978485108,36.821052012674016L164.36455978393553,37.09790080481369L165.06101978302001,36.702394111172396L165.7574797821045,36.544203220534314L166.45393978118898,36.74195067394575L167.15039978027343,37.09790080481369L167.8468597793579,36.99902118469876L168.54331977844237,36.979254690130546L169.23977977752688,36.821052012674016L169.93623977661133,37.4142943729083L170.6326997756958,36.46510188180605L171.32915977478027,36.801273731287324L172.02561977386475,37.018799466085454L172.72207977294923,36.62330455926258L173.4185397720337,36.93969812735719L174.11499977111816,36.93969812735719L174.81145977020262,36.50464665776096L175.5079197692871,36.346455767122904L176.20437976837158,36.128930032324774L176.90083976745606,36.128930032324774L177.59729976654052,35.89162601613998L178.293759765625,36.010272130823154L178.99021976470945,35.91140429752667L179.68667976379396,36.010272130823154L180.38313976287841,36.18825308966635L181.0795997619629,36.16847480827968L181.77605976104735,35.91140429752667L182.47251976013183,36.04982869359651L183.1689797592163,35.89162601613998L183.8654397583008,36.04982869359651L184.56189975738525,35.79274639602505L185.25835975646973,36.030050412209846L185.95481975555418,35.852069453366624L186.6512797546387,35.91140429752667L187.34773975372315,36.28712092296283L188.04419975280763,36.14869652689299L188.74065975189208,36.04982869359651L189.43711975097656,36.24757614700795L190.13357975006105,35.91140429752667L190.83003974914553,35.75320162007014L191.52649974822998,35.99050563625494L192.22295974731443,36.18825308966635L192.91941974639892,35.99050563625494L193.6158797454834,35.65432199995519L194.31233974456788,35.91140429752667L195.00879974365233,36.069595188164726L195.7052597427368,36.04982869359651L196.40171974182127,35.852069453366624L197.09817974090578,35.852069453366624L197.79463973999023,36.08937346955142L198.4910997390747,36.010272130823154L199.18755973815917,35.75320162007014L199.88401973724365,35.95094907348155L200.58047973632813,35.91140429752667L201.2769397354126,36.30689920434952L201.97339973449706,36.128930032324774L202.66985973358155,35.812524677411716L203.366319732666,36.08937346955142L204.0627797317505,35.63455550538697L204.75923973083496,35.95094907348155L205.45569972991944,35.71364505729676L206.1521597290039,35.91140429752667L206.84861972808838,36.10915175093811L207.54507972717286,36.069595188164726L208.24153972625734,35.83230295879841L208.9379997253418,36.04982869359651L209.63445972442625,36.10915175093811L210.33091972351073,35.71364505729676L211.0273797225952,35.67410028134188L211.7238397216797,36.030050412209846L212.42029972076415,36.010272130823154L213.11675971984863,36.010272130823154L213.81321971893308,36.069595188164726L214.5096797180176,35.91140429752667L215.20613971710205,35.970727354868245L215.90259971618653,35.99050563625494L216.59905971527098,35.93117079209489L217.29551971435546,35.75320162007014L217.99197971343995,35.970727354868245L218.68843971252443,35.93117079209489L219.38489971160888,35.73342333868345L220.08135971069336,35.87184773475332L220.77781970977782,36.128930032324774L221.47427970886233,35.83230295879841L222.17073970794678,35.812524677411716L222.86719970703126,35.91140429752667L223.56365970611571,35.99050563625494L224.2601197052002,35.93117079209489L224.95657970428468,35.772979901456836L225.65303970336916,36.030050412209846L226.3494997024536,35.87184773475332L227.04595970153807,35.91140429752667L227.74241970062255,36.04982869359651L228.43887969970703,36.04982869359651L229.1353396987915,35.99050563625494L229.83179969787597,35.95094907348155L230.52825969696045,36.24757614700795L231.2247196960449,35.83230295879841L231.9211796951294,35.95094907348155L232.61763969421386,35.970727354868245L233.31409969329835,35.95094907348155L234.0105596923828,35.91140429752667L234.70701969146728,35.95094907348155L235.40347969055176,35.99050563625494L236.09993968963624,36.069595188164726L236.7963996887207,36.08937346955142L237.49285968780518,36.069595188164726L238.18931968688963,35.95094907348155L238.88577968597414,35.87184773475332L239.5822396850586,35.93117079209489L240.27869968414308,36.030050412209846L240.97515968322753,35.93117079209489L241.671619682312,35.75320162007014L242.3680796813965,36.10915175093811L243.06453968048098,36.30689920434952" fill="none"></path></g></g></g></g></g></g><g transform="translate(51, 177)" clip-path="url(#clip_1)"><clipPath id="clip_1"><rect width="278" height="22"></rect></clipPath><g><g><line x1="0" y1="0" x2="0" y2="5" style="visibility: inherit;" fill="rgb(0, 0, 0)" stroke="rgb(204, 204, 204)" stroke-width="1px"></line><line x1="34.82299995422363" y1="0" x2="34.82299995422363" y2="5" style="visibility: inherit;" fill="rgb(0, 0, 0)" stroke="rgb(204, 204, 204)" stroke-width="1px"></line><line x1="69.64599990844727" y1="0" x2="69.64599990844727" y2="5" style="visibility: inherit;" fill="rgb(0, 0, 0)" stroke="rgb(204, 204, 204)" stroke-width="1px"></line><line x1="104.4689998626709" y1="0" x2="104.4689998626709" y2="5" style="visibility: inherit;" fill="rgb(0, 0, 0)" stroke="rgb(204, 204, 204)" stroke-width="1px"></line><line x1="139.29199981689453" y1="0" x2="139.29199981689453" y2="5" style="visibility: inherit;" fill="rgb(0, 0, 0)" stroke="rgb(204, 204, 204)" stroke-width="1px"></line><line x1="174.11499977111816" y1="0" x2="174.11499977111816" y2="5" style="visibility: inherit;" fill="rgb(0, 0, 0)" stroke="rgb(204, 204, 204)" stroke-width="1px"></line><line x1="208.9379997253418" y1="0" x2="208.9379997253418" y2="5" style="visibility: inherit;" fill="rgb(0, 0, 0)" stroke="rgb(204, 204, 204)" stroke-width="1px"></line><line x1="243.76099967956543" y1="0" x2="243.76099967956543" y2="5" style="visibility: inherit;" fill="rgb(0, 0, 0)" stroke="rgb(204, 204, 204)" stroke-width="1px"></line><line x1="278.58399963378906" y1="0" x2="278.58399963378906" y2="5" style="visibility: inherit;" fill="rgb(0, 0, 0)" stroke="rgb(204, 204, 204)" stroke-width="1px"></line></g><g transform="translate(0, 8)"><text style="text-anchor: middle; visibility: hidden; font-family: &quot;Helvetica Neue&quot;, sans-serif; font-size: 12px; font-weight: 200;" x="0" y="0" dx="0em" dy="0.95em" fill="rgb(50, 49, 63)" stroke="none" stroke-width="1px">-50</text><text style="text-anchor: middle; visibility: inherit; font-family: &quot;Helvetica Neue&quot;, sans-serif; font-size: 12px; font-weight: 200;" x="34.82299995422363" y="0" dx="0em" dy="0.95em" fill="rgb(50, 49, 63)" stroke="none" stroke-width="1px">0</text><text style="text-anchor: middle; visibility: inherit; font-family: &quot;Helvetica Neue&quot;, sans-serif; font-size: 12px; font-weight: 200;" x="69.64599990844727" y="0" dx="0em" dy="0.95em" fill="rgb(50, 49, 63)" stroke="none" stroke-width="1px">50</text><text style="text-anchor: middle; visibility: inherit; font-family: &quot;Helvetica Neue&quot;, sans-serif; font-size: 12px; font-weight: 200;" x="104.4689998626709" y="0" dx="0em" dy="0.95em" fill="rgb(50, 49, 63)" stroke="none" stroke-width="1px">100</text><text style="text-anchor: middle; visibility: inherit; font-family: &quot;Helvetica Neue&quot;, sans-serif; font-size: 12px; font-weight: 200;" x="139.29199981689453" y="0" dx="0em" dy="0.95em" fill="rgb(50, 49, 63)" stroke="none" stroke-width="1px">150</text><text style="text-anchor: middle; visibility: inherit; font-family: &quot;Helvetica Neue&quot;, sans-serif; font-size: 12px; font-weight: 200;" x="174.11499977111816" y="0" dx="0em" dy="0.95em" fill="rgb(50, 49, 63)" stroke="none" stroke-width="1px">200</text><text style="text-anchor: middle; visibility: inherit; font-family: &quot;Helvetica Neue&quot;, sans-serif; font-size: 12px; font-weight: 200;" x="208.9379997253418" y="0" dx="0em" dy="0.95em" fill="rgb(50, 49, 63)" stroke="none" stroke-width="1px">250</text><text style="text-anchor: middle; visibility: inherit; font-family: &quot;Helvetica Neue&quot;, sans-serif; font-size: 12px; font-weight: 200;" x="243.76099967956543" y="0" dx="0em" dy="0.95em" fill="rgb(50, 49, 63)" stroke="none" stroke-width="1px">300</text><text style="text-anchor: middle; visibility: hidden; font-family: &quot;Helvetica Neue&quot;, sans-serif; font-size: 12px; font-weight: 200;" x="278.58399963378906" y="0" dx="0em" dy="0.95em" fill="rgb(50, 49, 63)" stroke="none" stroke-width="1px">350</text></g><line x1="0" y1="0" x2="278.58399963378906" y2="0" fill="rgb(0, 0, 0)" stroke="rgb(204, 204, 204)" stroke-width="1px"></line></g></g></g></g></svg>