<svg viewBox="0 0 330 200" xmlns="http://www.w3.org/2000/svg"><g><g><g><g><g><line x1="51.41600036621094" y1="177.9749994277954" x2="46.41600036621094" y2="177.9749994277954" style="visibility: inherit;" fill="rgb(0, 0, 0)" stroke="rgb(204, 204, 204)" stroke-width="1px"></line><line x1="51.41600036621094" y1="155.72812449932098" x2="46.41600036621094" y2="155.72812449932098" style="visibility: inherit;" fill="rgb(0, 0, 0)" stroke="rgb(204, 204, 204)" stroke-width="1px"></line><line x1="51.41600036621094" y1="133.48124957084656" x2="46.41600036621094" y2="133.48124957084656" style="visibility: inherit;" fill="rgb(0, 0, 0)" stroke="rgb(204, 204, 204)" stroke-width="1px"></line><line x1="51.41600036621094" y1="111.23437464237213" x2="46.41600036621094" y2="111.23437464237213" style="visibility: inherit;" fill="rgb(0, 0, 0)" stroke="rgb(204, 204, 204)" stroke-width="1px"></line><line x1="51.41600036621094" y1="88.9874997138977" x2="46.41600036621094" y2="88.9874997138977" style="visibility: inherit;" fill="rgb(0, 0, 0)" stroke="rgb(204, 204, 204)" stroke-width="1px"></line><line x1="51.41600036621094" y1="66.74062478542328" x2="46.41600036621094" y2="66.74062478542328" style="visibility: inherit;" fill="rgb(0, 0, 0)" stroke="rgb(204, 204, 204)" stroke-width="1px"></line><line x1="51.41600036621094" y1="44.49374985694885" x2="46.41600036621094" y2="44.49374985694885" style="visibility: inherit;" fill="rgb(0, 0, 0)" stroke="rgb(204, 204, 204)" stroke-width="1px"></line><line x1="51.41600036621094" y1="22.246874928474426" x2="46.41600036621094" y2="22.246874928474426" style="visibility: inherit;" fill="rgb(0, 0, 0)" stroke="rgb(204, 204, 204)" stroke-width="1px"></line><line x1="51.41600036621094" y1="0" x2="46.41600036621094" y2="0" style="visibility: inherit;" fill="rgb(0, 0, 0)" stroke="rgb(204, 204, 204)" stroke-width="1px"></line></g><g transform="translate(41.41600036621094, 0)"><text style="text-anchor: end; visibility: hidden; font-family: &quot;Helvetica Neue&quot;, sans-serif; font-size: 12px; font-weight: 200;" x="0" y="177.9749994277954" dx="0em" dy="0.3em" fill="rgb(50, 49, 63)" stroke="none" stroke-width="1px">-0.5</text><text style="text-anchor: end; visibility: inherit; font-family: &quot;Helvetica Neue&quot;, sans-serif; font-size: 12px; font-weight: 200;" x="0" y="155.72812449932098" dx="0em" dy="0.3em" fill="rgb(50, 49, 63)" stroke="none" stroke-width="1px">0</text><text style="text-anchor: end; visibility: hidden; font-family: &quot;Helvetica Neue&quot;, sans-serif; font-size: 12px; font-weight: 200;" x="0" y="133.48124957084656" dx="0em" dy="0.3em" fill="rgb(50, 49, 63)" stroke="none" stroke-width="1px">0.5</text><text style="text-anchor: end; visibility: inherit; font-family: &quot;Helvetica Neue&quot;, sans-serif; font-size: 12px; font-weight: 200;" x="0" y="111.23437464237213" dx="0em" dy="0.3em" fill="rgb(50, 49, 63)" stroke="none" stroke-width="1px">1</text><text style="text-anchor: end; visibility: hidden; font-family: &quot;Helvetica Neue&quot;, sans-serif; font-size: 12px; font-weight: 200;" x="0" y="88.9874997138977" dx="0em" dy="0.3em" fill="rgb(50, 49, 63)" stroke="none" stroke-width="1px">1.5</text><text style="text-anchor: end; visibility: inherit; font-family: &quot;Helvetica Neue&quot;, sans-serif; font-size: 12px; font-weight: 200;" x="0" y="66.74062478542328" dx="0em" dy="0.3em" fill="rgb(50, 49, 63)" stroke="none" stroke-width="1px">2</text><text style="text-anchor: end; visibility: hidden; font-family: &quot;Helvetica Neue&quot;, sans-serif; font-size: 12px; font-weight: 200;" x="0" y="44.49374985694885" dx="0em" dy="0.3em" fill="rgb(50, 49, 63)" stroke="none" stroke-width="1px">2.5</text><text style="text-anchor: end; visibility: inherit; font-family: &quot;Helvetica Neue&quot;, sans-serif; font-size: 12px; font-weight: 200;" x="0" y="22.246874928474426" dx="0em" dy="0.3em" fill="rgb(50, 49, 63)" stroke="none" stroke-width="1px">3</text><text style="text-anchor: end; visibility: hidden; font-family: &quot;Helvetica Neue&quot;, sans-serif; font-size: 12px; font-weight: 200;" x="0" y="0" dx="0em" dy="0.3em" fill="rgb(50, 49, 63)" stroke="none" stroke-width="1px">3.5</text></g><line x1="51.41600036621094" y1="0" x2="51.41600036621094" y2="177.9749994277954" fill="rgb(0, 0, 0)" stroke="rgb(204, 204, 204)" stroke-width="1px"></line></g></g><g transform="translate(51, 0)" clip-path="url(#clip_0)"><clipPath id="clip_0"><rect width="278" height="177"></rect></clipPath><g><g><g><line x1="0" y1="0" x2="0" y2="177.9749994277954" fill="rgb(0, 0, 0)" stroke="rgb(60, 60, 60)" stroke-width="1px" opacity="0.25"></line><line x1="34.82299995422363" y1="0" x2="34.82299995422363" y2="177.9749994277954" fill="rgb(0, 0, 0)" stroke="rgb(60, 60, 60)" stroke-width="1px" opacity="0.25"></line><line x1="69.64599990844727" y1="0" x2="69.64599990844727" y2="177.9749994277954" fill="rgb(0, 0, 0)" stroke="rgb(60, 60, 60)" stroke-width="1px" opacity="0.25"></line><line x1="104.4689998626709" y1="0" x2="104.4689998626709" y2="177.9749994277954" fill="rgb(0, 0, 0)" stroke="rgb(60, 60, 60)" stroke-width="1px" opacity="0.25"></line><line x1="139.29199981689453" y1="0" x2="139.29199981689453" y2="177.9749994277954" fill="rgb(0, 0, 0)" stroke="rgb(60, 60, 60)" stroke-width="1px" opacity="0.25"></line><line x1="174.11499977111816" y1="0" x2="174.11499977111816" y2="177.9749994277954" fill="rgb(0, 0, 0)" stroke="rgb(60, 60, 60)" stroke-width="1px" opacity="0.25"></line><line x1="208.9379997253418" y1="0" x2="208.9379997253418" y2="177.9749994277954" fill="rgb(0, 0, 0)" stroke="rgb(60, 60, 60)" stroke-width="1px" opacity="0.25"></line><line x1="243.76099967956543" y1="0" x2="243.76099967956543" y2="177.9749994277954" fill="rgb(0, 0, 0)" stroke="rgb(60, 60, 60)" stroke-width="1px" opacity="0.25"></line><line x1="278.58399963378906" y1="0" x2="278.58399963378906" y2="177.9749994277954" fill="rgb(0, 0, 0)" stroke="rgb(60, 60, 60)" stroke-width="1px" opacity="0.25"></line></g><g><line x1="0" y1="177.9749994277954" x2="278.58399963378906" y2="177.9749994277954" fill="rgb(0, 0, 0)" stroke="rgb(60, 60, 60)" stroke-width="1px" opacity="0.25"></line><line x1="0" y1="155.72812449932098" x2="278.58399963378906" y2="155.72812449932098" fill="rgb(0, 0, 0)" stroke="rgb(60, 60, 60)" stroke-width="1px" opacity="0.25"></line><line x1="0" y1="133.48124957084656" x2="278.58399963378906" y2="133.48124957084656" fill="rgb(0, 0, 0)" stroke="rgb(60, 60, 60)" stroke-width="1px" opacity="0.25"></line><line x1="0" y1="111.23437464237213" x2="278.58399963378906" y2="111.23437464237213" fill="rgb(0, 0, 0)" stroke="rgb(60, 60, 60)" stroke-width="1px" opacity="0.25"></line><line x1="0" y1="88.9874997138977" x2="278.58399963378906" y2="88.9874997138977" fill="rgb(0, 0, 0)" stroke="rgb(60, 60, 60)" stroke-width="1px" opacity="0.25"></line><line x1="0" y1="66.74062478542328" x2="278.58399963378906" y2="66.74062478542328" fill="rgb(0, 0, 0)" stroke="rgb(60, 60, 60)" stroke-width="1px" opacity="0.25"></line><line x1="0" y1="44.49374985694885" x2="278.58399963378906" y2="44.49374985694885" fill="rgb(0, 0, 0)" stroke="rgb(60, 60, 60)" stroke-width="1px" opacity="0.25"></line><line x1="0" y1="22.246874928474426" x2="278.58399963378906" y2="22.246874928474426" fill="rgb(0, 0, 0)" stroke="rgb(60, 60, 60)" stroke-width="1px" opacity="0.25"></line><line x1="0" y1="0" x2="278.58399963378906" y2="0" fill="rgb(0, 0, 0)" stroke="rgb(60, 60, 60)" stroke-width="1px" opacity="0.25"></line></g></g></g><g><g><line x1="0" y1="155.72812449932098" x2="278.58399963378906" y2="155.72812449932098" fill="rgb(0, 0, 0)" stroke="rgb(153, 153, 153)" stroke-width="1.5px"></line></g></g><g><g><line x1="34.82299995422363" y1="0" x2="34.82299995422363" y2="177.9749994277954" fill="rgb(0, 0, 0)" stroke="rgb(153, 153, 153)" stroke-width="1.5px"></line></g></g><g><g><g><g><g><path style="fill: none;" stroke="rgb(238, 51, 119)" stroke-width="2px" d="M34.82299995422363,-49.16629457759632L35.51945995330811,3.8926981651799224L36.21591995239258,13.577396492220942L36.91237995147705,27.723898297820597L37.608839950561524,16.691499862054457L38.305299949646,31.947421811625418L39.001759948730474,34.13118099176637L39.69821994781494,35.8741296628084L40.39467994689941,30.20961808684399L41.09113994598388,44.50887705976868L41.78759994506836,36.494758695749454L42.48405994415283,49.21908066541641L43.18051994323731,48.03951952211503L43.876979942321775,45.65211594328389L44.57343994140625,34.13083092325792L45.269899940490724,27.938872186420724L45.9663599395752,41.56640273230681L46.66281993865967,43.4599232945302L47.35927993774414,44.01925851408208L48.05573993682861,41.83541446884817L48.75219993591308,18.017198695430125L49.44865993499756,38.97258603112772L50.14511993408203,50.35669723652313L50.8415799331665,36.570956941089435L51.538039932250975,33.716243727883125L52.23449993133545,52.357084167054325L52.930959930419924,44.6869240247953L53.6274199295044,52.53208659687107L54.323879928588866,46.535816156259216L55.02033992767334,45.61718334939491L55.716799926757815,45.43877570772321L56.41325992584229,55.27943485934844L57.10971992492676,44.31056855379825L57.806179924011225,51.30788641467359L58.5026399230957,51.3783138336924L59.199099922180174,45.05389129488384L59.89555992126465,55.895502393542984L60.592019920349124,49.27136817081538L61.28847991943359,48.70204008656765L61.984939918518066,24.983699919424964L62.68139991760254,52.6716048096946L63.377859916687015,46.69168150761385L64.07431991577148,50.12612938709191L64.77077991485596,57.04043857891736L65.46723991394043,50.94531091314565L66.1636999130249,55.204170130031L66.86015991210937,47.75988904081726L67.55661991119385,47.29537995450971L68.25307991027832,47.84524210806012L68.9495399093628,56.33976054704334L69.64599990844727,45.122144045895595L70.34245990753173,46.559101016139664L71.03891990661621,54.61988457314936L71.73537990570068,46.89743692549138L72.43183990478516,54.2728393836328L73.12829990386963,48.767237694232904L73.8247599029541,52.53394302077953L74.52121990203858,32.245849911013465L75.21767990112305,48.99861176204723L75.91413990020753,43.600746308157966L76.610599899292,56.74664623523216L77.30705989837647,28.90516735111777L78.00351989746095,26.711192535411953L78.6999798965454,32.63352426378384L79.39643989562988,44.842927281925995L80.09289989471435,41.550235932098246L80.78935989379882,47.97438556326949L81.4858198928833,18.366948959784736L82.18227989196777,56.591396155801476L82.87873989105225,50.58815616943042L83.57519989013672,37.677618969539594L84.27165988922118,55.037176843362204L84.96811988830567,-26.592498094773077L85.66457988739013,52.522411976273816L86.36103988647461,46.59334408114836L87.05749988555908,43.10142131746426L87.75395988464355,53.70963219421469L88.45041988372803,53.84176714395085L89.1468798828125,54.58559907559419L89.84333988189698,43.84721575438226L90.53979988098145,48.68484429710696L91.23625988006592,79.66324465292405L91.9327198791504,82.12746174901912L92.62917987823486,84.3107541711488L93.32563987731935,84.7414233016392L94.02209987640381,86.41425218962439L94.71855987548828,87.15812655381421L95.41501987457276,88.15872312827136L96.11147987365722,87.90115226707445L96.8079398727417,88.39917776103223L97.50439987182617,89.54072464675659L98.20085987091063,90.47740189401117L98.89731986999512,88.10966580047312L99.59377986907958,88.89101340727237L100.29023986816406,90.30571450688811L100.98669986724853,90.59405426835073L101.683159866333,90.54352771363065L102.37961986541748,90.68929411892324L103.07607986450195,92.03628348249484L103.77253986358643,91.18695363216764L104.4689998626709,91.3160917833087L105.16545986175537,91.38927731784867L105.86191986083985,89.80770492513525L106.55837985992432,93.10045992378272L107.2548398590088,90.54192058093275L107.95129985809326,90.97258440735484L108.64775985717773,92.04656276687942L109.34421985626221,92.79267544789602L110.04067985534668,90.55672423558568L110.73713985443116,91.87010171827745L111.43359985351563,89.39616226497034L112.1300598526001,91.84115741751035L112.82651985168458,92.44407616636465L113.52297985076903,90.89242932705568L114.21943984985352,90.74470041648843L114.91589984893798,92.24327474828857L115.61235984802245,92.73360403912869L116.30881984710693,91.45704209457591L117.0052798461914,92.0848687482135L117.70173984527588,92.39348596282485L118.39819984436035,92.03155225356241L119.09465984344482,98.55549792998437L119.7911198425293,99.47290549706909L120.48757984161377,99.68387481409525L121.18403984069825,100.01770756945186L121.88049983978271,100.23704670627103L122.57695983886718,100.66291035087266L123.27341983795166,100.77960515775871L123.96987983703613,100.80851233004765L124.66633983612061,100.65565438542473L125.36279983520508,101.01196047821037L126.05925983428955,101.11728336264L126.75571983337403,101.49652424679763L127.4521798324585,101.52248766117458L128.14863983154297,101.50758322922377L128.84509983062745,101.77802176014049L129.54155982971193,101.72535236182321L130.23801982879638,101.67075758670944L130.93447982788086,101.87323509037145L131.63093982696532,101.77272829996721L132.3273998260498,102.07527235636374L133.02385982513428,102.25337766614177L133.72031982421873,101.84339970612828L134.41677982330322,102.15359222902768L135.1132398223877,102.18673735189623L135.80969982147215,102.27172443842571L136.50615982055663,102.6907617471125L137.20261981964111,102.47105132551164L137.8990798187256,102.4640605634792L138.59553981781005,102.69887697162665L139.29199981689453,102.38740086419625L139.98845981597898,102.59312976173223L140.68491981506347,102.58104709412228L141.38137981414795,102.51982753768945L142.07783981323243,102.60526016595696L142.77429981231688,102.97810964780118L143.47075981140136,102.83866038786567L144.16721981048582,103.10799036850563L144.86367980957033,103.25296116355173L145.56013980865478,103.23114553059312L146.25659980773926,102.83446486983254L146.95305980682372,103.38342533177027L147.6495198059082,103.43545824189036L148.34597980499268,103.18529716412237L149.04243980407716,103.23956308700093L149.73889980316162,103.42157749512336L150.4353598022461,103.49945713011758L151.13181980133055,103.46349554697647L151.82827980041506,103.64060369191225L152.5247397994995,103.71112658416064L153.221199798584,103.61656035026348L153.91765979766845,103.4718176301547L154.61411979675293,103.66941539097161L155.3105797958374,103.74421336227778L156.0070397949219,103.6200504272114L156.70349979400635,103.69806266391336L157.3999597930908,103.62235239285789L158.09641979217528,103.92309306602905L158.79287979125976,103.70003577732464L159.48933979034425,103.80378335346623L160.1857997894287,103.86461040884413L160.88225978851318,104.05860670727861L161.57871978759763,103.72963778256218L162.27517978668214,104.20147178720569L162.9716397857666,103.94309470762568L163.66809978485108,103.81229638310361L164.36455978393553,103.67115512537725L165.06101978302001,104.13295383277844L165.7574797821045,104.41716702909596L166.45393978118898,104.38914033214647L167.15039978027343,103.98277974672033L167.8468597793579,104.27118846107098L168.54331977844237,104.07701182431396L169.23977977752688,103.91838305336987L169.93623977661133,104.26429847633642L170.6326997756958,104.33329379691156L171.32915977478027,104.33449782041791L172.02561977386475,104.3181453778185L172.72207977294923,104.52506238665589L173.4185397720337,104.12238282463682L174.11499977111816,104.36005282153499L174.81145977020262,104.82320937042351L175.5079197692871,105.28614314844302L176.20437976837158,104.93489713682501L176.90083976745606,105.15015744511388L177.59729976654052,105.35854368087311L178.293759765625,105.17554271604504L178.99021976470945,105.35915364872875L179.68667976379396,105.51145466617913L180.38313976287841,105.23765866002225L181.0795997619629,105.16113686651536L181.77605976104735,105.37654038464859L182.47251976013183,105.33887619558001L183.1689797592163,105.43061536106799L183.8654397583008,105.53026819647434L184.56189975738525,105.4036653899854L185.25835975646973,105.57443517329085L185.95481975555418,105.2070329696009L186.6512797546387,105.41666566141296L187.34773975372315,105.42333817934681L188.04419975280763,105.64704786845334L188.74065975189208,105.62645217120601L189.43711975097656,105.6016874762671L190.13357975006105,105.3511922421956L190.83003974914553,105.51469014784817L191.52649974822998,105.55526627041888L192.22295974731443,105.52792379828136L192.91941974639892,105.46841745591263L193.6158797454834,105.68897122437477L194.31233974456788,105.54572425152938L195.00879974365233,105.62600662946798L195.7052597427368,105.51619119917987L196.40171974182127,105.73315411339621L197.09817974090578,105.70398173769178L197.79463973999023,105.67267712652676L198.4910997390747,105.64244924122866L199.18755973815917,105.79641573612835L199.88401973724365,105.68333299976135L200.58047973632813,105.61874535995173L201.2769397354126,105.76725396856054L201.97339973449706,105.44554631336035L202.66985973358155,105.66879985259223L203.366319732666,105.75084318120972L204.0627797317505,105.87185019563171L204.75923973083496,105.78294340262121L205.45569972991944,105.93598168556667L206.1521597290039,105.7778408889071L206.84861972808838,105.88620300447829L207.54507972717286,105.9739906390754L208.24153972625734,105.63956913213639L208.9379997253418,105.74491323283925L209.63445972442625,105.68260634240289L210.33091972351073,105.72546321434686L211.0273797225952,105.71968708395738L211.7238397216797,105.88919980307338L212.42029972076415,105.57436091633451L213.11675971984863,105.81045030087634L213.81321971893308,105.72696426567856L214.5096797180176,106.06914562455495L215.20613971710205,105.69404191367903L215.90259971618653,105.83708202786033L216.59905971527098,105.79768871252273L217.29551971435546,105.6296080918504L217.99197971343995,105.71260084869536L218.68843971252443,105.87536679292117L219.38489971160888,105.78011633421204L220.08135971069336,105.98655067283323L220.77781970977782,105.96869187483381L221.47427970886233,105.82005066451725L222.17073970794678,105.72565946487433L222.86719970703126,105.89843418600091L223.56365970611571,105.73416188637509L224.2601197052002,105.81972711635035L224.95657970428468,105.93499512886103L225.65303970336916,105.671038169419L226.3494997024536,105.93043363011452L227.04595970153807,105.94913577497522L227.74241970062255,105.69231809147831L228.43887969970703,105.93003582499128L229.1353396987915,105.97879082089585L229.83179969787597,105.70601319585447L230.52825969696045,105.77445689332538L231.2247196960449,105.91117455808129L231.9211796951294,105.94865310475902L232.61763969421386,105.94184798511742L233.31409969329835,105.8289721074145L234.0105596923828,105.69709705702553L234.70701969146728,105.6402215325385L235.40347969055176,105.92064762408276L236.09993968963624,106.05577937241401L236.7963996887207,106.02794362192367L237.49285968780518,105.7982668559685L238.18931968688963,105.59577344010157L238.88577968597414,105.76155739919571L239.5822396850586,105.93713797245823L240.27869968414308,105.71068077596718L240.97515968322753,105.91404405903694L241.671619682312,105.81383429645805L242.3680796813965,105.54521506097163L243.06453968048098,105.62307347969261" fill="none"></path></g><g><path style="fill: none;" stroke="rgb(204, 51, 17)" stroke-width="2px" d="M34.82299995422363,-49.16733417498506L35.51945995330811,6.371395367761011L36.21591995239258,16.682695108660027L36.91237995147705,32.26526280102769L37.608839950561524,17.960657327246622L38.305299949646,36.5501968177245L39.001759948730474,39.523052848465454L39.69821994781494,41.50583027220779L40.39467994689941,35.6836075291169L41.09113994598388,49.870239915549234L41.78759994506836,42.105741614330384L42.48405994415283,52.67193366192981L43.18051994323731,54.09862195592592L43.876979942321775,51.919201503662464L44.57343994140625,38.428250716756224L45.269899940490724,35.29916865801556L45.9663599395752,47.28620391633359L46.66281993865967,50.477142019704274L47.35927993774414,50.06462341097034L48.05573993682861,45.971654234545326L48.75219993591308,15.92423455661799L49.44865993499756,40.06203105384395L50.14511993408203,54.97096085458145L50.8415799331665,40.609538201064765L51.538039932250975,40.678628994869484L52.23449993133545,52.55047049763317L52.930959930419924,49.13256070314537L53.6274199295044,57.58965363613396L54.323879928588866,52.535884309780954L55.02033992767334,49.06590978076321L55.716799926757815,49.6732680347929L56.41325992584229,60.15470107080017L57.10971992492676,49.926897973235555L57.806179924011225,55.620878952729754L58.5026399230957,56.180320253647835L59.199099922180174,46.59029954593848L59.89555992126465,59.37796269936223L60.592019920349124,50.824282682450416L61.28847991943359,54.00148324889847L61.984939918518066,27.856425748611684L62.68139991760254,60.98944473327515L63.377859916687015,50.03239589191941L64.07431991577148,54.0759417598328L64.77077991485596,61.15003070542559L65.46723991394043,53.9823143460265L66.1636999130249,59.75752182761846L66.86015991210937,48.79356708932323L67.55661991119385,51.858936679525414L68.25307991027832,50.806333715289725L68.9495399093628,61.22009744779933L69.64599990844727,51.799085572716535L70.34245990753173,46.24085691754584L71.03891990661621,58.59837073917356L71.73537990570068,50.81485204899542L72.43183990478516,59.72086010746045L73.12829990386963,54.33511975372761L73.8247599029541,59.24649606223312L74.52121990203858,32.048093028147264L75.21767990112305,52.54581352565708L75.91413990020753,49.19826750136838L76.610599899292,61.36753993867785L77.30705989837647,29.56858960718307L78.00351989746095,33.38164188262158L78.6999798965454,31.931986972843617L79.39643989562988,48.00535071406267L80.09289989471435,46.862461899055916L80.78935989379882,53.97541905722363L81.4858198928833,19.8660165699377L82.18227989196777,60.72765713777187L82.87873989105225,54.81640030403105L83.57519989013672,40.0790465049821L84.27165988922118,58.78636813634955L84.96811988830567,-21.400929073728946L85.66457988739013,57.55771253677176L86.36103988647461,52.88739552481445L87.05749988555908,48.787223423624596L87.75395988464355,57.3721974435648L88.45041988372803,58.378167039219875L89.1468798828125,60.020667264609074L89.84333988189698,43.04754259157232L90.53979988098145,54.88522589442027L91.23625988006592,79.98925921159187L91.9327198791504,80.87326706052917L92.62917987823486,84.0257453645848L93.32563987731935,83.141472312232L94.02209987640381,85.34466559866041L94.71855987548828,86.07880169343326L95.41501987457276,85.97317647710997L96.11147987365722,85.93798928794212L96.8079398727417,85.09900237081922L97.50439987182617,87.01228058749697L98.20085987091063,87.80232156225614L98.89731986999512,84.47252825460066L99.59377986907958,87.01490079724206L100.29023986816406,87.15615874447124L100.98669986724853,88.26191908130872L101.683159866333,87.44970179694587L102.37961986541748,86.7367236306612L103.07607986450195,88.24022544192124L103.77253986358643,87.43992639905073L104.4689998626709,88.03567404755006L105.16545986175537,86.65546000008527L105.86191986083985,86.4258893154963L106.55837985992432,88.20453967033225L107.2548398590088,87.4165991066238L107.95129985809326,88.30630352492594L108.64775985717773,87.52730031631967L109.34421985626221,87.24235515857538L110.04067985534668,86.65895538110149L110.73713985443116,87.87837659775175L111.43359985351563,85.70819583248414L112.1300598526001,88.32728641915989L112.82651985168458,88.16428179186013L113.52297985076903,86.65096745422679L114.21943984985352,86.30276067375036L114.91589984893798,88.24194926412196L115.61235984802245,87.96658325374534L116.30881984710693,85.54179129739774L117.0052798461914,86.78760555795805L117.70173984527588,87.73250411109296L118.39819984436035,88.51075944606754L119.09465984344482,92.64083058032028L119.7911198425293,93.2386627276654L120.48757984161377,93.19687727752003L121.18403984069825,93.22828266598293L121.88049983978271,93.39911079403979L122.57695983886718,93.58856150593269L123.27341983795166,93.8309680358316L123.96987983703613,93.93661977249644L124.66633983612061,93.76652890993466L125.36279983520508,93.85219491720781L126.05925983428955,93.95457404372544L126.75571983337403,94.0690782703995L127.4521798324585,94.08024863826014L128.14863983154297,94.14618881548878L128.84509983062745,94.1890138630229L129.54155982971193,94.17475122333758L130.23801982879638,94.43855436479862L130.93447982788086,94.15555049605575L131.63093982696532,94.34404117158456L132.3273998260498,93.92197523989282L133.02385982513428,94.13960116264789L133.72031982421873,94.03075107279219L134.41677982330322,94.30086075147369L135.1132398223877,94.57648135712918L135.80969982147215,94.49516468587015L136.50615982055663,94.04072272121479L137.20261981964111,94.1405187664655L137.8990798187256,94.30409623314273L138.59553981781005,94.3621174363847L139.29199981689453,94.2650635944502L139.98845981597898,94.09965092013775L140.68491981506347,94.54131008016626L141.38137981414795,94.345075464905L142.07783981323243,94.41408139361675L142.77429981231688,94.69508562860679L143.47075981140136,94.34607262974725L144.16721981048582,94.35112740684659L144.86367980957033,94.58074582805034L145.56013980865478,94.40100686523286L146.25659980773926,94.39203238165251L146.95305980682372,94.77605223135737L147.6495198059082,94.47109482387984L148.34597980499268,94.68170876832923L149.04243980407716,94.21438852581744L149.73889980316162,94.74816874425224L150.4353598022461,94.54790834114377L151.13181980133055,94.51631731029002L151.82827980041506,94.64559867127545L152.5247397994995,94.82802149265774L153.221199798584,94.7082715424252L153.91765979766845,94.56983005546857L154.61411979675293,94.80727728149773L155.3105797958374,94.81509547818652L156.0070397949219,94.45756414562129L156.70349979400635,94.43887791296552L157.3999597930908,94.27273327722631L158.09641979217528,94.56762886711996L158.79287979125976,94.65078605008253L159.48933979034425,94.45299734280647L160.1857997894287,94.22620068594358L160.88225978851318,94.97405310136583L161.57871978759763,94.72671909200702L162.27517978668214,94.91533176110696L162.9716397857666,94.83230187578383L163.66809978485108,94.85029857955931L164.36455978393553,94.10513002270187L165.06101978302001,94.52286783465274L165.7574797821045,94.95989654304671L166.45393978118898,94.49977922529976L167.15039978027343,94.41414504243647L167.8468597793579,94.75662342913822L168.54331977844237,94.38837257451868L169.23977977752688,94.58839429455321L169.93623977661133,94.34090646721341L170.6326997756958,94.84067169557684L171.32915977478027,94.8782669317574L172.02561977386475,94.9601564423939L172.72207977294923,94.96296759859814L173.4185397720337,94.82474888251053L174.11499977111816,95.16930646398976L174.81145977020262,95.46807932781795L175.5079197692871,95.54413966738187L176.20437976837158,95.54790025181359L176.90083976745606,95.6195635187486L177.59729976654052,95.6423922287544L178.293759765625,95.54686065442485L178.99021976470945,95.57921547111522L179.68667976379396,95.63683356516563L180.38313976287841,95.63444673442618L181.0795997619629,95.66489208652499L181.77605976104735,95.56925973489754L182.47251976013183,95.64934055824037L183.1689797592163,95.68464974097935L183.8654397583008,95.60192218754989L184.56189975738525,95.58346402983145L185.25835975646973,95.67799843931874L185.95481975555418,95.63931586913466L186.6512797546387,95.68439514570048L187.34773975372315,95.64746822212697L188.04419975280763,95.7277081675191L188.74065975189208,95.71251731587955L189.43711975097656,95.48959262888289L190.13357975006105,95.72751191699163L190.83003974914553,95.710830622157L191.52649974822998,95.58133179437087L192.22295974731443,95.57564052907435L192.91941974639892,95.70822102054854L193.6158797454834,95.75228191599885L194.31233974456788,95.66989382294122L195.00879974365233,95.60613361778795L195.7052597427368,95.66656817211091L196.40171974182127,95.62868651624163L197.09817974090578,95.58082260381312L197.79463973999023,95.59420476815899L198.4910997390747,95.67231247809053L199.18755973815917,95.710454033307L199.88401973724365,95.67395143519829L200.58047973632813,95.7989365008527L201.2769397354126,95.59819342752803L201.97339973449706,95.69501389045689L202.66985973358155,95.78294473489836L203.366319732666,95.62655428078105L204.0627797317505,95.69235124816532L204.75923973083496,95.68393899582583L205.45569972991944,95.6455534534671L206.1521597290039,95.64764856044951L206.84861972808838,95.75413833990731L207.54507972717286,95.68834137252304L208.24153972625734,95.71885037344157L208.9379997253418,95.60747024300204L209.63445972442625,95.6090031187436L210.33091972351073,95.72709819966346L211.0273797225952,95.78856704730686L211.7238397216797,95.70558489859852L212.42029972076415,95.709700855607L213.11675971984863,95.58567582631667L213.81321971893308,95.61621665164506L214.5096797180176,95.66458445056301L215.20613971710205,95.71722202447043L215.90259971618653,95.68722751817796L216.59905971527098,95.73214767269448L217.29551971435546,95.77590093218282L217.99197971343995,95.70415280015484L218.68843971252443,95.76129883212568L219.38489971160888,95.76208383423554L220.08135971069336,95.77802255950678L220.77781970977782,95.7054682090957L221.47427970886233,95.67312930461026L222.17073970794678,95.60366722602384L222.86719970703126,95.61211660684151L223.56365970611571,95.6557903053052L224.2601197052002,95.71976797725918L224.95657970428468,95.71467076761337L225.65303970336916,95.83742282050932L226.3494997024536,95.73386088675858L227.04595970153807,95.63816488631142L227.74241970062255,95.71537090463028L228.43887969970703,95.77150385955392L229.1353396987915,95.69554960135619L229.83179969787597,95.80721615148445L230.52825969696045,95.45316959179883L231.2247196960449,95.84225482673963L231.9211796951294,95.57968222912649L232.61763969421386,95.68338206865329L233.31409969329835,95.77352470957999L234.0105596923828,95.76052443815243L234.70701969146728,95.69815920296466L235.40347969055176,95.70448695645837L236.09993968963624,95.68536579020119L236.7963996887207,95.81405839960422L237.49285968780518,95.69053195273503L238.18931968688963,95.74325969580372L238.88577968597414,95.76368035879682L239.5822396850586,95.72971310534024L240.27869968414308,95.7515552586404L240.97515968322753,95.79667696775269L241.671619682312,95.79959420532313L242.3680796813965,95.79248675378787L243.06453968048098,95.77394903504478" fill="none"></path></g></g></g></g></g></g><g transform="translate(51, 177)" clip-path="url(#clip_1)"><clipPath id="clip_1"><rect width="278" height="22"></rect></clipPath><g><g><line x1="0" y1="0" x2="0" y2="5" style="visibility: inherit;" fill="rgb(0, 0, 0)" stroke="rgb(204, 204, 204)" stroke-width="1px"></line><line x1="34.82299995422363" y1="0" x2="34.82299995422363" y2="5" style="visibility: inherit;" fill="rgb(0, 0, 0)" stroke="rgb(204, 204, 204)" stroke-width="1px"></line><line x1="69.64599990844727" y1="0" x2="69.64599990844727" y2="5" style="visibility: inherit;" fill="rgb(0, 0, 0)" stroke="rgb(204, 204, 204)" stroke-width="1px"></line><line x1="104.4689998626709" y1="0" x2="104.4689998626709" y2="5" style="visibility: inherit;" fill="rgb(0, 0, 0)" stroke="rgb(204, 204, 204)" stroke-width="1px"></line><line x1="139.29199981689453" y1="0" x2="139.29199981689453" y2="5" style="visibility: inherit;" fill="rgb(0, 0, 0)" stroke="rgb(204, 204, 204)" stroke-width="1px"></line><line x1="174.11499977111816" y1="0" x2="174.11499977111816" y2="5" style="visibility: inherit;" fill="rgb(0, 0, 0)" stroke="rgb(204, 204, 204)" stroke-width="1px"></line><line x1="208.9379997253418" y1="0" x2="208.9379997253418" y2="5" style="visibility: inherit;" fill="rgb(0, 0, 0)" stroke="rgb(204, 204, 204)" stroke-width="1px"></line><line x1="243.76099967956543" y1="0" x2="243.76099967956543" y2="5" style="visibility: inherit;" fill="rgb(0, 0, 0)" stroke="rgb(204, 204, 204)" stroke-width="1px"></line><line x1="278.58399963378906" y1="0" x2="278.58399963378906" y2="5" style="visibility: inherit;" fill="rgb(0, 0, 0)" stroke="rgb(204, 204, 204)" stroke-width="1px"></line></g><g transform="translate(0, 8)"><text style="text-anchor: middle; visibility: hidden; font-family: &quot;Helvetica Neue&quot;, sans-serif; font-size: 12px; font-weight: 200;" x="0" y="0" dx="0em" dy="0.95em" fill="rgb(50, 49, 63)" stroke="none" stroke-width="1px">-50</text><text style="text-anchor: middle; visibility: inherit; font-family: &quot;Helvetica Neue&quot;, sans-serif; font-size: 12px; font-weight: 200;" x="34.82299995422363" y="0" dx="0em" dy="0.95em" fill="rgb(50, 49, 63)" stroke="none" stroke-width="1px">0</text><text style="text-anchor: middle; visibility: inherit; font-family: &quot;Helvetica Neue&quot;, sans-serif; font-size: 12px; font-weight: 200;" x="69.64599990844727" y="0" dx="0em" dy="0.95em" fill="rgb(50, 49, 63)" stroke="none" stroke-width="1px">50</text><text style="text-anchor: middle; visibility: inherit; font-family: &quot;Helvetica Neue&quot;, sans-serif; font-size: 12px; font-weight: 200;" x="104.4689998626709" y="0" dx="0em" dy="0.95em" fill="rgb(50, 49, 63)" stroke="none" stroke-width="1px">100</text><text style="text-anchor: middle; visibility: inherit; font-family: &quot;Helvetica Neue&quot;, sans-serif; font-size: 12px; font-weight: 200;" x="139.29199981689453" y="0" dx="0em" dy="0.95em" fill="rgb(50, 49, 63)" stroke="none" stroke-width="1px">150</text><text style="text-anchor: middle; visibility: inherit; font-family: &quot;Helvetica Neue&quot;, sans-serif; font-size: 12px; font-weight: 200;" x="174.11499977111816" y="0" dx="0em" dy="0.95em" fill="rgb(50, 49, 63)" stroke="none" stroke-width="1px">200</text><text style="text-anchor: middle; visibility: inherit; font-family: &quot;Helvetica Neue&quot;, sans-serif; font-size: 12px; font-weight: 200;" x="208.9379997253418" y="0" dx="0em" dy="0.95em" fill="rgb(50, 49, 63)" stroke="none" stroke-width="1px">250</text><text style="text-anchor: middle; visibility: inherit; font-family: &quot;Helvetica Neue&quot;, sans-serif; font-size: 12px; font-weight: 200;" x="243.76099967956543" y="0" dx="0em" dy="0.95em" fill="rgb(50, 49, 63)" stroke="none" stroke-width="1px">300</text><text style="text-anchor: middle; visibility: hidden; font-family: &quot;Helvetica Neue&quot;, sans-serif; font-size: 12px; font-weight: 200;" x="278.58399963378906" y="0" dx="0em" dy="0.95em" fill="rgb(50, 49, 63)" stroke="none" stroke-width="1px">350</text></g><line x1="0" y1="0" x2="278.58399963378906" y2="0" fill="rgb(0, 0, 0)" stroke="rgb(204, 204, 204)" stroke-width="1px"></line></g></g></g></g></svg>