<svg viewBox="0 0 330 200" xmlns="http://www.w3.org/2000/svg"><g><g><g><g><g><line x1="51.41600036621094" y1="177.9749994277954" x2="46.41600036621094" y2="177.9749994277954" style="visibility: inherit;" fill="rgb(0, 0, 0)" stroke="rgb(204, 204, 204)" stroke-width="1px"></line><line x1="51.41600036621094" y1="161.79545402526855" x2="46.41600036621094" y2="161.79545402526855" style="visibility: inherit;" fill="rgb(0, 0, 0)" stroke="rgb(204, 204, 204)" stroke-width="1px"></line><line x1="51.41600036621094" y1="145.6159086227417" x2="46.41600036621094" y2="145.6159086227417" style="visibility: inherit;" fill="rgb(0, 0, 0)" stroke="rgb(204, 204, 204)" stroke-width="1px"></line><line x1="51.41600036621094" y1="129.43636322021484" x2="46.41600036621094" y2="129.43636322021484" style="visibility: inherit;" fill="rgb(0, 0, 0)" stroke="rgb(204, 204, 204)" stroke-width="1px"></line><line x1="51.41600036621094" y1="113.25681781768799" x2="46.41600036621094" y2="113.25681781768799" style="visibility: inherit;" fill="rgb(0, 0, 0)" stroke="rgb(204, 204, 204)" stroke-width="1px"></line><line x1="51.41600036621094" y1="97.07727241516113" x2="46.41600036621094" y2="97.07727241516113" style="visibility: inherit;" fill="rgb(0, 0, 0)" stroke="rgb(204, 204, 204)" stroke-width="1px"></line><line x1="51.41600036621094" y1="80.89772701263429" x2="46.41600036621094" y2="80.89772701263429" style="visibility: inherit;" fill="rgb(0, 0, 0)" stroke="rgb(204, 204, 204)" stroke-width="1px"></line><line x1="51.41600036621094" y1="64.71818161010745" x2="46.41600036621094" y2="64.71818161010745" style="visibility: inherit;" fill="rgb(0, 0, 0)" stroke="rgb(204, 204, 204)" stroke-width="1px"></line><line x1="51.41600036621094" y1="48.538636207580595" x2="46.41600036621094" y2="48.538636207580595" style="visibility: inherit;" fill="rgb(0, 0, 0)" stroke="rgb(204, 204, 204)" stroke-width="1px"></line><line x1="51.41600036621094" y1="32.35909080505371" x2="46.41600036621094" y2="32.35909080505371" style="visibility: inherit;" fill="rgb(0, 0, 0)" stroke="rgb(204, 204, 204)" stroke-width="1px"></line><line x1="51.41600036621094" y1="16.179545402526855" x2="46.41600036621094" y2="16.179545402526855" style="visibility: inherit;" fill="rgb(0, 0, 0)" stroke="rgb(204, 204, 204)" stroke-width="1px"></line><line x1="51.41600036621094" y1="0" x2="46.41600036621094" y2="0" style="visibility: inherit;" fill="rgb(0, 0, 0)" stroke="rgb(204, 204, 204)" stroke-width="1px"></line></g><g transform="translate(41.41600036621094, 0)"><text style="text-anchor: end; visibility: hidden; font-family: &quot;Helvetica Neue&quot;, sans-serif; font-size: 12px; font-weight: 200;" x="0" y="177.9749994277954" dx="0em" dy="0.3em" fill="rgb(50, 49, 63)" stroke="none" stroke-width="1px">-0.1</text><text style="text-anchor: end; visibility: inherit; font-family: &quot;Helvetica Neue&quot;, sans-serif; font-size: 12px; font-weight: 200;" x="0" y="161.79545402526855" dx="0em" dy="0.3em" fill="rgb(50, 49, 63)" stroke="none" stroke-width="1px">0</text><text style="text-anchor: end; visibility: hidden; font-family: &quot;Helvetica Neue&quot;, sans-serif; font-size: 12px; font-weight: 200;" x="0" y="145.6159086227417" dx="0em" dy="0.3em" fill="rgb(50, 49, 63)" stroke="none" stroke-width="1px">0.1</text><text style="text-anchor: end; visibility: inherit; font-family: &quot;Helvetica Neue&quot;, sans-serif; font-size: 12px; font-weight: 200;" x="0" y="129.43636322021484" dx="0em" dy="0.3em" fill="rgb(50, 49, 63)" stroke="none" stroke-width="1px">0.2</text><text style="text-anchor: end; visibility: hidden; font-family: &quot;Helvetica Neue&quot;, sans-serif; font-size: 12px; font-weight: 200;" x="0" y="113.25681781768799" dx="0em" dy="0.3em" fill="rgb(50, 49, 63)" stroke="none" stroke-width="1px">0.3</text><text style="text-anchor: end; visibility: inherit; font-family: &quot;Helvetica Neue&quot;, sans-serif; font-size: 12px; font-weight: 200;" x="0" y="97.07727241516113" dx="0em" dy="0.3em" fill="rgb(50, 49, 63)" stroke="none" stroke-width="1px">0.4</text><text style="text-anchor: end; visibility: hidden; font-family: &quot;Helvetica Neue&quot;, sans-serif; font-size: 12px; font-weight: 200;" x="0" y="80.89772701263429" dx="0em" dy="0.3em" fill="rgb(50, 49, 63)" stroke="none" stroke-width="1px">0.5</text><text style="text-anchor: end; visibility: inherit; font-family: &quot;Helvetica Neue&quot;, sans-serif; font-size: 12px; font-weight: 200;" x="0" y="64.71818161010745" dx="0em" dy="0.3em" fill="rgb(50, 49, 63)" stroke="none" stroke-width="1px">0.6</text><text style="text-anchor: end; visibility: hidden; font-family: &quot;Helvetica Neue&quot;, sans-serif; font-size: 12px; font-weight: 200;" x="0" y="48.538636207580595" dx="0em" dy="0.3em" fill="rgb(50, 49, 63)" stroke="none" stroke-width="1px">0.7</text><text style="text-anchor: end; visibility: inherit; font-family: &quot;Helvetica Neue&quot;, sans-serif; font-size: 12px; font-weight: 200;" x="0" y="32.35909080505371" dx="0em" dy="0.3em" fill="rgb(50, 49, 63)" stroke="none" stroke-width="1px">0.8</text><text style="text-anchor: end; visibility: hidden; font-family: &quot;Helvetica Neue&quot;, sans-serif; font-size: 12px; font-weight: 200;" x="0" y="16.179545402526855" dx="0em" dy="0.3em" fill="rgb(50, 49, 63)" stroke="none" stroke-width="1px">0.9</text><text style="text-anchor: end; visibility: hidden; font-family: &quot;Helvetica Neue&quot;, sans-serif; font-size: 12px; font-weight: 200;" x="0" y="0" dx="0em" dy="0.3em" fill="rgb(50, 49, 63)" stroke="none" stroke-width="1px">1</text></g><line x1="51.41600036621094" y1="0" x2="51.41600036621094" y2="177.9749994277954" fill="rgb(0, 0, 0)" stroke="rgb(204, 204, 204)" stroke-width="1px"></line></g></g><g transform="translate(51, 0)" clip-path="url(#clip_0)"><clipPath id="clip_0"><rect width="278" height="177"></rect></clipPath><g><g><g><line x1="0" y1="0" x2="0" y2="177.9749994277954" fill="rgb(0, 0, 0)" stroke="rgb(60, 60, 60)" stroke-width="1px" opacity="0.25"></line><line x1="23.215333302815754" y1="0" x2="23.215333302815754" y2="177.9749994277954" fill="rgb(0, 0, 0)" stroke="rgb(60, 60, 60)" stroke-width="1px" opacity="0.25"></line><line x1="46.43066660563151" y1="0" x2="46.43066660563151" y2="177.9749994277954" fill="rgb(0, 0, 0)" stroke="rgb(60, 60, 60)" stroke-width="1px" opacity="0.25"></line><line x1="69.64599990844727" y1="0" x2="69.64599990844727" y2="177.9749994277954" fill="rgb(0, 0, 0)" stroke="rgb(60, 60, 60)" stroke-width="1px" opacity="0.25"></line><line x1="92.86133321126302" y1="0" x2="92.86133321126302" y2="177.9749994277954" fill="rgb(0, 0, 0)" stroke="rgb(60, 60, 60)" stroke-width="1px" opacity="0.25"></line><line x1="116.07666651407878" y1="0" x2="116.07666651407878" y2="177.9749994277954" fill="rgb(0, 0, 0)" stroke="rgb(60, 60, 60)" stroke-width="1px" opacity="0.25"></line><line x1="139.29199981689453" y1="0" x2="139.29199981689453" y2="177.9749994277954" fill="rgb(0, 0, 0)" stroke="rgb(60, 60, 60)" stroke-width="1px" opacity="0.25"></line><line x1="162.5073331197103" y1="0" x2="162.5073331197103" y2="177.9749994277954" fill="rgb(0, 0, 0)" stroke="rgb(60, 60, 60)" stroke-width="1px" opacity="0.25"></line><line x1="185.72266642252603" y1="0" x2="185.72266642252603" y2="177.9749994277954" fill="rgb(0, 0, 0)" stroke="rgb(60, 60, 60)" stroke-width="1px" opacity="0.25"></line><line x1="208.9379997253418" y1="0" x2="208.9379997253418" y2="177.9749994277954" fill="rgb(0, 0, 0)" stroke="rgb(60, 60, 60)" stroke-width="1px" opacity="0.25"></line><line x1="232.15333302815756" y1="0" x2="232.15333302815756" y2="177.9749994277954" fill="rgb(0, 0, 0)" stroke="rgb(60, 60, 60)" stroke-width="1px" opacity="0.25"></line><line x1="255.3686663309733" y1="0" x2="255.3686663309733" y2="177.9749994277954" fill="rgb(0, 0, 0)" stroke="rgb(60, 60, 60)" stroke-width="1px" opacity="0.25"></line><line x1="278.58399963378906" y1="0" x2="278.58399963378906" y2="177.9749994277954" fill="rgb(0, 0, 0)" stroke="rgb(60, 60, 60)" stroke-width="1px" opacity="0.25"></line></g><g><line x1="0" y1="177.9749994277954" x2="278.58399963378906" y2="177.9749994277954" fill="rgb(0, 0, 0)" stroke="rgb(60, 60, 60)" stroke-width="1px" opacity="0.25"></line><line x1="0" y1="161.79545402526855" x2="278.58399963378906" y2="161.79545402526855" fill="rgb(0, 0, 0)" stroke="rgb(60, 60, 60)" stroke-width="1px" opacity="0.25"></line><line x1="0" y1="145.6159086227417" x2="278.58399963378906" y2="145.6159086227417" fill="rgb(0, 0, 0)" stroke="rgb(60, 60, 60)" stroke-width="1px" opacity="0.25"></line><line x1="0" y1="129.43636322021484" x2="278.58399963378906" y2="129.43636322021484" fill="rgb(0, 0, 0)" stroke="rgb(60, 60, 60)" stroke-width="1px" opacity="0.25"></line><line x1="0" y1="113.25681781768799" x2="278.58399963378906" y2="113.25681781768799" fill="rgb(0, 0, 0)" stroke="rgb(60, 60, 60)" stroke-width="1px" opacity="0.25"></line><line x1="0" y1="97.07727241516113" x2="278.58399963378906" y2="97.07727241516113" fill="rgb(0, 0, 0)" stroke="rgb(60, 60, 60)" stroke-width="1px" opacity="0.25"></line><line x1="0" y1="80.89772701263429" x2="278.58399963378906" y2="80.89772701263429" fill="rgb(0, 0, 0)" stroke="rgb(60, 60, 60)" stroke-width="1px" opacity="0.25"></line><line x1="0" y1="64.71818161010745" x2="278.58399963378906" y2="64.71818161010745" fill="rgb(0, 0, 0)" stroke="rgb(60, 60, 60)" stroke-width="1px" opacity="0.25"></line><line x1="0" y1="48.538636207580595" x2="278.58399963378906" y2="48.538636207580595" fill="rgb(0, 0, 0)" stroke="rgb(60, 60, 60)" stroke-width="1px" opacity="0.25"></line><line x1="0" y1="32.35909080505371" x2="278.58399963378906" y2="32.35909080505371" fill="rgb(0, 0, 0)" stroke="rgb(60, 60, 60)" stroke-width="1px" opacity="0.25"></line><line x1="0" y1="16.179545402526855" x2="278.58399963378906" y2="16.179545402526855" fill="rgb(0, 0, 0)" stroke="rgb(60, 60, 60)" stroke-width="1px" opacity="0.25"></line><line x1="0" y1="0" x2="278.58399963378906" y2="0" fill="rgb(0, 0, 0)" stroke="rgb(60, 60, 60)" stroke-width="1px" opacity="0.25"></line></g></g></g><g><g><line x1="0" y1="161.79545402526855" x2="278.58399963378906" y2="161.79545402526855" fill="rgb(0, 0, 0)" stroke="rgb(153, 153, 153)" stroke-width="1.5px"></line></g></g><g><g><line x1="23.215333302815754" y1="0" x2="23.215333302815754" y2="177.9749994277954" fill="rgb(0, 0, 0)" stroke="rgb(153, 153, 153)" stroke-width="1.5px"></line></g></g><g><g><g><g><g><path style="fill: none;" stroke="rgb(51, 187, 238)" stroke-width="2px" d="M23.215333302815754,160.17749952117998L24.37609996795654,151.77384369012302L25.53686663309733,144.93313133922555L26.69763329823812,140.266951982738L27.858399963378908,137.20901676755417L29.019166628519695,134.45849329691129L30.179933293660483,130.95076826716792L31.34069995880127,127.50776251456587L32.50146662394206,123.17811423764056L33.66223328908285,119.3888637276487L34.82299995422363,116.13354002125222L35.983766619364424,116.74512802866504L37.14453328450521,110.07915338635684L38.305299949646,107.92080262217242L39.46606661478678,107.22184696593503L40.626833279927574,106.16046914396266L41.78759994506836,103.33552236211149L42.94836661020915,99.85368118572042L44.10913327534993,101.50399382154207L45.269899940490724,103.30639820520986L46.43066660563151,94.24585370559585L47.5914332707723,91.37883601828663L48.75219993591308,91.33676993470887L49.912966601053874,90.89668656515643L51.07373326619466,89.35963025339193L52.23449993133545,85.95545510269858L53.39526659647624,86.36317883368037L54.556033261617024,83.91359614424034L55.716799926757815,82.755139406556L56.8775665918986,83.62236421898474L58.03833325703939,84.60284053359034L59.199099922180174,80.72299171498514L60.359866587320965,78.84292130561961L61.52063325246175,80.90419797597237L62.68139991760254,79.0079549801419L63.842166582743324,79.14062419421329L65.00293324788412,78.66494570442116L66.1636999130249,78.87528576607055L67.3244665781657,80.31850346567239L68.48523324330647,72.41964636353148L69.64599990844727,71.9116034132884L70.80676657358805,79.48363346993405L71.96753323872885,71.71745522562505L73.12829990386963,74.53593104413814L74.28906656901042,79.12121130419906L75.4498332341512,69.45231910072154L76.610599899292,72.79177015239328L77.77136656443278,77.42882776291935L78.93213322957357,70.72079185891369L80.09289989471435,67.27778610631164L81.25366655985515,66.08050358859886L82.41443322499593,68.63687163875797L83.57519989013672,71.94396787373934L84.7359665552775,67.1548185153671L85.8967332204183,70.0218410245566L87.05749988555908,68.1320689920642L88.21826655069987,63.30085355011421L89.37903321584066,69.26140157284694L90.53979988098145,64.51431829805246L91.70056654612223,66.79886731297019L92.86133321126302,69.86327831337236L94.02209987640381,68.33268814306564L95.1828665415446,68.22590278234658L96.34363320668538,66.75357056960367L97.50439987182617,66.73415767958944L98.66516653696696,63.362332523706186L99.82593320210775,64.13248324230324L100.98669986724853,66.32318882317804L102.14746653238932,70.03154264768344L103.30823319753011,62.96108457794277L104.4689998626709,60.560038935418575L105.62976652781168,62.41421584767126L106.79053319295248,60.02935243537253L107.95129985809326,62.25242247669826L109.11206652323405,61.21692368619793L110.27283318837483,66.12580033196538L111.43359985351563,56.77726421064507L112.59436651865641,65.35241895357956L113.7551331837972,62.197404822683794L114.91589984893798,60.01317020514706L116.07666651407878,64.8023195635193L117.23743317921956,58.97444075485795L118.39819984436035,65.56598967501772L119.55896650950113,57.6444890230738L120.71973317464193,65.7827910562446L121.88049983978271,61.99678567168236L123.0412665049235,61.598768385707686L124.2020331700643,57.408265108072115L125.36279983520508,61.73143759977904L126.52356650034586,61.708784406215514L127.68433316548665,61.103667362140754L128.84509983062745,58.068390162400775L130.00586649576823,58.605547625784894L131.16663316090902,58.1169272093166L132.3273998260498,64.70847612947638L133.4881664911906,58.22694322982444L134.6489331563314,58.25606738672606L135.80969982147215,60.0875911054152L136.97046648661293,57.38885221805789L138.13123315175375,60.68947748970119L139.29199981689453,57.104091256140364L140.45276648203532,58.39844786768484L141.6135331471761,56.275692223740066L142.77429981231688,55.07193874268923L143.9350664774577,53.9782012821462L145.09583314259848,57.476215045002164L146.25659980773926,54.61567314291132L147.41736647288005,53.63843230997476L148.57813313802083,54.83571482768754L149.73889980316162,54.90043410482886L150.8996664683024,56.82256095401159L152.06043313344318,58.88383762436435L153.221199798584,54.07204471618914L154.38196646372478,59.288325873677096L155.54273312886556,55.266086930352586L156.70349979400635,53.28571176736661L157.86426645914713,54.64155699626362L159.02503312428792,51.237386667450565L160.1857997894287,53.38279550495885L161.3465664545695,51.942808465145745L162.5073331197103,52.54145454588242L163.66809978485108,55.93592325156864L164.82886644999186,51.852205334652126L165.98963311513265,52.2761064739791L167.15039978027343,50.78112106767266L168.31116644541422,54.63508603292554L169.471933110555,50.85231130815204L170.6326997756958,51.19208028032348L171.7934664408366,51.36034461463454L172.95423310597738,51.522147629368106L174.11499977111816,51.036757872688554L175.27576643625895,49.90419463211711L176.43653310139973,51.538320215833L177.59729976654052,48.75543951755961L178.75806643168133,48.079141876766016L179.9188330968221,48.001471029188L181.0795997619629,47.05982531649113L182.24036642710368,47.635818203664286L183.40113309224446,47.846148621553084L184.56189975738525,47.917338862032494L185.72266642252603,48.35419157179615L186.88343308766682,47.65523109367851L188.04419975280763,47.10189140006892L189.2049664179484,45.244483828027484L190.3657330830892,46.62945321382608L191.52649974822998,47.97235651604694L192.68726641337076,46.024336169751365L193.84803307851155,45.0988630435194L195.00879974365233,43.749488777960465L196.16956640879314,45.024442143251235L197.33033307393393,43.00523155647625L198.4910997390747,44.27370431466841L199.6518664042155,45.105334006857476L200.81263306935628,42.21566794786497L201.97339973449706,44.597300700374944L203.13416639963785,43.225273241252495L204.29493306477863,42.396883852612774L205.45569972991944,41.173707837787106L206.61646639506023,40.19322670130123L207.777233060201,40.16410254439964L208.9379997253418,43.01494282336364L210.09876639048258,39.09624893720891L211.25953305562336,40.021722063440876L212.42029972076415,38.0154630471026L213.58106638590496,38.56556243716287L214.74183305104575,37.85690033591837L215.90259971618653,38.35523201927401L217.0633663813273,36.711385524910185L218.2241330464681,36.886130466319884L219.38489971160888,35.60470613769101L220.54566637674967,34.98988747048941L221.70643304189045,35.72767372863555L222.86719970703126,35.08373090453233L224.02796637217205,34.44948970355597L225.18873303731283,33.46900856707012L226.3494997024536,33.24896688229387L227.5102663675944,32.82182543941761L228.67103303273518,32.32349375606191L229.83179969787597,32.20700677221603L230.99256636301678,30.96117756382685L232.15333302815756,30.59875539809184L233.31409969329835,30.06159793470775L234.47486635843913,30.042175400932962L235.6356330235799,29.281745592983867L236.7963996887207,28.65073505179626L237.95716635386148,29.084347458010626L239.11793301900227,28.420991743893183L240.27869968414308,27.942072950551733L241.43946634928386,27.644370061958057L242.60023301442465,27.660552292183553L243.76099967956543,27.709089339099393L244.9217663447062,27.54082500478833L246.082533009847,27.12662548858816L247.24329967498778,26.573285794978574L248.4040663401286,26.777145249529354L249.56483300526938,26.715666275937338L250.72559967041016,26.41796338734366L251.88636633555095,26.65418730234535L253.04713300069173,26.24645874948331L254.2078996658325,26.557103564753135" fill="none"></path></g><g><path style="fill: none;" stroke="rgb(0, 119, 187)" stroke-width="2px" d="M23.215333302815754,160.17749952117998L24.37609996795654,152.29806103503608L25.53686663309733,146.11747434120232L26.69763329823812,140.77822559276981L27.858399963378908,138.14095844618407L29.019166628519695,135.32571810934002L30.179933293660483,131.50734585338668L31.34069995880127,127.57571486243607L32.50146662394206,124.71193506773604L33.66223328908285,120.89356522272283L34.82299995422363,116.99429387034287L35.983766619364424,117.60911735942472L37.14453328450521,110.0209098944339L38.305299949646,109.17957375723773L39.46606661478678,106.8011813082771L40.626833279927574,105.55535209988791L41.78759994506836,104.06683765691953L42.94836661020915,100.02195034191175L44.10913327534993,103.79178314000912L45.269899940490724,106.20253522754042L46.43066660563151,94.66651936325378L47.5914332707723,93.88990250319894L48.75219993591308,93.85754286462829L49.912966601053874,92.53082179263289L51.07373326619466,92.02925462760818L52.23449993133545,87.01359744300191L53.39526659647624,88.35649592334251L54.556033261617024,86.94887816586062L55.716799926757815,87.24011009111622L56.8775665918986,87.07831189826295L58.03833325703939,88.51829411619578L59.199099922180174,83.8100462651903L60.359866587320965,83.93947999759264L61.52063325246175,85.44418149266677L62.68139991760254,83.0010697665648L63.842166582743324,81.8361420655424L65.00293324788412,83.5188143399347L66.1636999130249,82.98488753633934L67.3244665781657,83.48645470136405L68.48523324330647,79.08561618395937L69.64599990844727,77.71035806504814L70.80676657358805,81.17278152954471L71.96753323872885,75.83352795923192L73.12829990386963,80.26672611520725L74.28906656901042,81.99793543651539L75.4498332341512,74.97601441369056L76.610599899292,77.8883336662466L77.77136656443278,82.53186224011075L78.93213322957357,76.17329693140336L80.09289989471435,74.76568399580175L81.25366655985515,74.47445207054615L82.41443322499593,74.5391617039269L83.57519989013672,79.31212883207367L84.7359665552775,74.05378159100793L85.8967332204183,77.33822463242576L87.05749988555908,75.57466049442725L88.21826655069987,71.33562016987582L89.37903321584066,76.12475988448752L90.53979988098145,71.31943793965037L91.70056654612223,73.58457406455388L92.86133321126302,76.22183397831918L94.02209987640381,76.2865532554605L95.1828665415446,74.8789403198589L96.34363320668538,73.60075629477936L97.50439987182617,74.16703791506507L98.66516653696696,72.48436564067278L99.82593320210775,70.785511136055L100.98669986724853,74.39355056317937L102.14746653238932,77.25733276881955L103.30823319753011,68.43947350378474L104.4689998626709,71.25471866250906L105.62976652781168,70.88258522988669L106.79053319295248,67.92172893041482L107.95129985809326,68.98958253760556L109.11206652323405,69.86327831337236L110.27283318837483,74.66860025820951L111.43359985351563,66.54647081150358L112.59436651865641,73.34187918621411L113.7551331837972,69.60440120480713L114.91589984893798,69.53968192766581L116.07666651407878,73.97288008364116L117.23743317921956,68.97340030738007L118.39819984436035,72.80795238261875L119.55896650950113,67.25837321629741L120.71973317464193,74.3126490558126L121.88049983978271,71.49741354084881L123.0412665049235,70.05743614479628L124.2020331700643,68.63363133520865L125.36279983520508,70.05743614479628L126.52356650034586,70.65607258177239L127.68433316548665,73.16390358501566L128.84509983062745,68.98958253760556L130.00586649576823,67.43634881749587L131.16663316090902,69.00576476783102L132.3273998260498,74.00524454409211L133.4881664911906,68.92486326046425L134.6489331563314,68.5203750111515L135.80969982147215,69.91181536028819L136.97046648661293,67.45252140396077L138.13123315175375,69.34553374000245L139.29199981689453,69.1837403690295L140.45276648203532,68.66598615189902L141.6135331471761,66.78916568984337L142.77429981231688,66.99949610773218L143.9350664774577,66.53028858127813L145.09583314259848,67.9379111606403L146.25659980773926,63.71505306631434L147.41736647288005,64.32987173351593L148.57813313802083,66.57882562819395L149.73889980316162,65.59187352837002L150.8996664683024,69.07048404497232L152.06043313344318,70.67225481199786L153.221199798584,65.31682383333988L154.38196646372478,69.11902109188817L155.54273312886556,67.63049700515924L156.70349979400635,64.07100426871126L157.86426645914713,66.3199581633893L159.02503312428792,63.42382114105875L160.1857997894287,64.32987173351593L161.3465664545695,64.7020051661383L162.5073331197103,64.42694582734762L163.66809978485108,67.16128947870517L164.82886644999186,64.44312805757308L165.98963311513265,65.81838617648431L167.15039978027343,64.4107732408827L168.31116644541422,67.4201665872704L169.471933110555,63.92538348420318L170.6326997756958,63.617969328722126L171.7934664408366,64.00628499156996L172.95423310597738,65.20356750928275L174.11499977111816,63.42382114105875L175.27576643625895,62.42068681100933L176.43653310139973,64.83143407666037L177.59729976654052,62.097100069063345L178.75806643168133,62.00001633147113L179.9188330968221,61.59552808215838L181.0795997619629,62.19417416289504L182.24036642710368,62.03238079192205L183.40113309224446,61.96766151478076L184.56189975738525,61.43373471118538L185.72266642252603,62.66338168934908L186.88343308766682,63.31056481700159L188.04419975280763,61.514636218552155L189.2049664179484,60.75419676684251L190.3657330830892,63.32673740346651L191.52649974822998,61.15868501615526L192.68726641337076,60.00992990159776L193.84803307851155,60.34970851752976L195.00879974365233,59.961392854681904L196.16956640879314,59.68634315965177L197.33033307393393,59.70252538987722L198.4910997390747,61.53080880501706L199.6518664042155,61.41755248095991L200.81263306935628,58.73174587651819L201.97339973449706,61.045428692098085L203.13416639963785,60.36588110399465L204.29493306477863,59.03916003199926L205.45569972991944,58.23018353337376L206.61646639506023,58.246365763599215L207.777233060201,58.44051395126259L208.9379997253418,62.3883223505584L210.09876639048258,57.55064558903089L211.25953305562336,57.841877514286466L212.42029972076415,56.15920523989418L213.58106638590496,57.29176848046565L214.74183305104575,57.22704920332434L215.90259971618653,57.82569528406101L217.0633663813273,56.320998610867164L218.2241330464681,56.563693489206926L219.38489971160888,55.576741389382974L220.54566637674967,55.80325403749727L221.70643304189045,55.366401327733584L222.86719970703126,55.90032813132895L224.02796637217205,56.0783037325274L225.18873303731283,55.366401327733584L226.3494997024536,55.52820434246715L227.5102663675944,55.46348506532583L228.67103303273518,55.12370644939382L229.83179969787597,54.136754349569884L230.99256636301678,54.29855736430342L232.15333302815756,54.05586248596366L233.31409969329835,53.31160526447947L234.47486635843913,53.813167607623896L235.6356330235799,53.36014231139531L236.7963996887207,52.30847093443005L237.95716635386148,53.40867935831115L239.11793301900227,52.32465316465553L240.27869968414308,52.55116581276981L241.43946634928386,52.74531400043317L242.60023301442465,53.13362966328103L243.76099967956543,52.6158850899111L244.9217663447062,52.777678460884104L246.082533009847,52.55116581276981L247.24329967498778,52.45408207517757L248.4040663401286,52.34082575112042L249.56483300526938,52.66442213682696L250.72559967041016,52.55116581276981L251.88636633555095,52.826215507799944L253.04713300069173,52.50262876585397L254.2078996658325,52.826215507799944" fill="none"></path></g></g></g></g></g></g><g transform="translate(51, 177)" clip-path="url(#clip_1)"><clipPath id="clip_1"><rect width="278" height="22"></rect></clipPath><g><g><line x1="0" y1="0" x2="0" y2="5" style="visibility: inherit;" fill="rgb(0, 0, 0)" stroke="rgb(204, 204, 204)" stroke-width="1px"></line><line x1="23.215333302815754" y1="0" x2="23.215333302815754" y2="5" style="visibility: inherit;" fill="rgb(0, 0, 0)" stroke="rgb(204, 204, 204)" stroke-width="1px"></line><line x1="46.43066660563151" y1="0" x2="46.43066660563151" y2="5" style="visibility: inherit;" fill="rgb(0, 0, 0)" stroke="rgb(204, 204, 204)" stroke-width="1px"></line><line x1="69.64599990844727" y1="0" x2="69.64599990844727" y2="5" style="visibility: inherit;" fill="rgb(0, 0, 0)" stroke="rgb(204, 204, 204)" stroke-width="1px"></line><line x1="92.86133321126302" y1="0" x2="92.86133321126302" y2="5" style="visibility: inherit;" fill="rgb(0, 0, 0)" stroke="rgb(204, 204, 204)" stroke-width="1px"></line><line x1="116.07666651407878" y1="0" x2="116.07666651407878" y2="5" style="visibility: inherit;" fill="rgb(0, 0, 0)" stroke="rgb(204, 204, 204)" stroke-width="1px"></line><line x1="139.29199981689453" y1="0" x2="139.29199981689453" y2="5" style="visibility: inherit;" fill="rgb(0, 0, 0)" stroke="rgb(204, 204, 204)" stroke-width="1px"></line><line x1="162.5073331197103" y1="0" x2="162.5073331197103" y2="5" style="visibility: inherit;" fill="rgb(0, 0, 0)" stroke="rgb(204, 204, 204)" stroke-width="1px"></line><line x1="185.72266642252603" y1="0" x2="185.72266642252603" y2="5" style="visibility: inherit;" fill="rgb(0, 0, 0)" stroke="rgb(204, 204, 204)" stroke-width="1px"></line><line x1="208.9379997253418" y1="0" x2="208.9379997253418" y2="5" style="visibility: inherit;" fill="rgb(0, 0, 0)" stroke="rgb(204, 204, 204)" stroke-width="1px"></line><line x1="232.15333302815756" y1="0" x2="232.15333302815756" y2="5" style="visibility: inherit;" fill="rgb(0, 0, 0)" stroke="rgb(204, 204, 204)" stroke-width="1px"></line><line x1="255.3686663309733" y1="0" x2="255.3686663309733" y2="5" style="visibility: inherit;" fill="rgb(0, 0, 0)" stroke="rgb(204, 204, 204)" stroke-width="1px"></line><line x1="278.58399963378906" y1="0" x2="278.58399963378906" y2="5" style="visibility: inherit;" fill="rgb(0, 0, 0)" stroke="rgb(204, 204, 204)" stroke-width="1px"></line></g><g transform="translate(0, 8)"><text style="text-anchor: middle; visibility: hidden; font-family: &quot;Helvetica Neue&quot;, sans-serif; font-size: 12px; font-weight: 200;" x="0" y="0" dx="0em" dy="0.95em" fill="rgb(50, 49, 63)" stroke="none" stroke-width="1px">-20</text><text style="text-anchor: middle; visibility: inherit; font-family: &quot;Helvetica Neue&quot;, sans-serif; font-size: 12px; font-weight: 200;" x="23.215333302815754" y="0" dx="0em" dy="0.95em" fill="rgb(50, 49, 63)" stroke="none" stroke-width="1px">0</text><text style="text-anchor: middle; visibility: hidden; font-family: &quot;Helvetica Neue&quot;, sans-serif; font-size: 12px; font-weight: 200;" x="46.43066660563151" y="0" dx="0em" dy="0.95em" fill="rgb(50, 49, 63)" stroke="none" stroke-width="1px">20</text><text style="text-anchor: middle; visibility: inherit; font-family: &quot;Helvetica Neue&quot;, sans-serif; font-size: 12px; font-weight: 200;" x="69.64599990844727" y="0" dx="0em" dy="0.95em" fill="rgb(50, 49, 63)" stroke="none" stroke-width="1px">40</text><text style="text-anchor: middle; visibility: hidden; font-family: &quot;Helvetica Neue&quot;, sans-serif; font-size: 12px; font-weight: 200;" x="92.86133321126302" y="0" dx="0em" dy="0.95em" fill="rgb(50, 49, 63)" stroke="none" stroke-width="1px">60</text><text style="text-anchor: middle; visibility: inherit; font-family: &quot;Helvetica Neue&quot;, sans-serif; font-size: 12px; font-weight: 200;" x="116.07666651407878" y="0" dx="0em" dy="0.95em" fill="rgb(50, 49, 63)" stroke="none" stroke-width="1px">80</text><text style="text-anchor: middle; visibility: hidden; font-family: &quot;Helvetica Neue&quot;, sans-serif; font-size: 12px; font-weight: 200;" x="139.29199981689453" y="0" dx="0em" dy="0.95em" fill="rgb(50, 49, 63)" stroke="none" stroke-width="1px">100</text><text style="text-anchor: middle; visibility: inherit; font-family: &quot;Helvetica Neue&quot;, sans-serif; font-size: 12px; font-weight: 200;" x="162.5073331197103" y="0" dx="0em" dy="0.95em" fill="rgb(50, 49, 63)" stroke="none" stroke-width="1px">120</text><text style="text-anchor: middle; visibility: hidden; font-family: &quot;Helvetica Neue&quot;, sans-serif; font-size: 12px; font-weight: 200;" x="185.72266642252603" y="0" dx="0em" dy="0.95em" fill="rgb(50, 49, 63)" stroke="none" stroke-width="1px">140</text><text style="text-anchor: middle; visibility: inherit; font-family: &quot;Helvetica Neue&quot;, sans-serif; font-size: 12px; font-weight: 200;" x="208.9379997253418" y="0" dx="0em" dy="0.95em" fill="rgb(50, 49, 63)" stroke="none" stroke-width="1px">160</text><text style="text-anchor: middle; visibility: hidden; font-family: &quot;Helvetica Neue&quot;, sans-serif; font-size: 12px; font-weight: 200;" x="232.15333302815756" y="0" dx="0em" dy="0.95em" fill="rgb(50, 49, 63)" stroke="none" stroke-width="1px">180</text><text style="text-anchor: middle; visibility: inherit; font-family: &quot;Helvetica Neue&quot;, sans-serif; font-size: 12px; font-weight: 200;" x="255.3686663309733" y="0" dx="0em" dy="0.95em" fill="rgb(50, 49, 63)" stroke="none" stroke-width="1px">200</text><text style="text-anchor: middle; visibility: hidden; font-family: &quot;Helvetica Neue&quot;, sans-serif; font-size: 12px; font-weight: 200;" x="278.58399963378906" y="0" dx="0em" dy="0.95em" fill="rgb(50, 49, 63)" stroke="none" stroke-width="1px">220</text></g><line x1="0" y1="0" x2="278.58399963378906" y2="0" fill="rgb(0, 0, 0)" stroke="rgb(204, 204, 204)" stroke-width="1px"></line></g></g></g></g></svg>