<svg viewBox="0 0 330 200" xmlns="http://www.w3.org/2000/svg"><g><g><g><g><g><line x1="51.41600036621094" y1="177.9749994277954" x2="46.41600036621094" y2="177.9749994277954" style="visibility: inherit;" fill="rgb(0, 0, 0)" stroke="rgb(204, 204, 204)" stroke-width="1px"></line><line x1="51.41600036621094" y1="155.72812449932098" x2="46.41600036621094" y2="155.72812449932098" style="visibility: inherit;" fill="rgb(0, 0, 0)" stroke="rgb(204, 204, 204)" stroke-width="1px"></line><line x1="51.41600036621094" y1="133.48124957084656" x2="46.41600036621094" y2="133.48124957084656" style="visibility: inherit;" fill="rgb(0, 0, 0)" stroke="rgb(204, 204, 204)" stroke-width="1px"></line><line x1="51.41600036621094" y1="111.23437464237213" x2="46.41600036621094" y2="111.23437464237213" style="visibility: inherit;" fill="rgb(0, 0, 0)" stroke="rgb(204, 204, 204)" stroke-width="1px"></line><line x1="51.41600036621094" y1="88.9874997138977" x2="46.41600036621094" y2="88.9874997138977" style="visibility: inherit;" fill="rgb(0, 0, 0)" stroke="rgb(204, 204, 204)" stroke-width="1px"></line><line x1="51.41600036621094" y1="66.74062478542328" x2="46.41600036621094" y2="66.74062478542328" style="visibility: inherit;" fill="rgb(0, 0, 0)" stroke="rgb(204, 204, 204)" stroke-width="1px"></line><line x1="51.41600036621094" y1="44.49374985694885" x2="46.41600036621094" y2="44.49374985694885" style="visibility: inherit;" fill="rgb(0, 0, 0)" stroke="rgb(204, 204, 204)" stroke-width="1px"></line><line x1="51.41600036621094" y1="22.246874928474426" x2="46.41600036621094" y2="22.246874928474426" style="visibility: inherit;" fill="rgb(0, 0, 0)" stroke="rgb(204, 204, 204)" stroke-width="1px"></line><line x1="51.41600036621094" y1="0" x2="46.41600036621094" y2="0" style="visibility: inherit;" fill="rgb(0, 0, 0)" stroke="rgb(204, 204, 204)" stroke-width="1px"></line></g><g transform="translate(41.41600036621094, 0)"><text style="text-anchor: end; visibility: hidden; font-family: &quot;Helvetica Neue&quot;, sans-serif; font-size: 12px; font-weight: 200;" x="0" y="177.9749994277954" dx="0em" dy="0.3em" fill="rgb(50, 49, 63)" stroke="none" stroke-width="1px">-0.5</text><text style="text-anchor: end; visibility: inherit; font-family: &quot;Helvetica Neue&quot;, sans-serif; font-size: 12px; font-weight: 200;" x="0" y="155.72812449932098" dx="0em" dy="0.3em" fill="rgb(50, 49, 63)" stroke="none" stroke-width="1px">0</text><text style="text-anchor: end; visibility: hidden; font-family: &quot;Helvetica Neue&quot;, sans-serif; font-size: 12px; font-weight: 200;" x="0" y="133.48124957084656" dx="0em" dy="0.3em" fill="rgb(50, 49, 63)" stroke="none" stroke-width="1px">0.5</text><text style="text-anchor: end; visibility: inherit; font-family: &quot;Helvetica Neue&quot;, sans-serif; font-size: 12px; font-weight: 200;" x="0" y="111.23437464237213" dx="0em" dy="0.3em" fill="rgb(50, 49, 63)" stroke="none" stroke-width="1px">1</text><text style="text-anchor: end; visibility: hidden; font-family: &quot;Helvetica Neue&quot;, sans-serif; font-size: 12px; font-weight: 200;" x="0" y="88.9874997138977" dx="0em" dy="0.3em" fill="rgb(50, 49, 63)" stroke="none" stroke-width="1px">1.5</text><text style="text-anchor: end; visibility: inherit; font-family: &quot;Helvetica Neue&quot;, sans-serif; font-size: 12px; font-weight: 200;" x="0" y="66.74062478542328" dx="0em" dy="0.3em" fill="rgb(50, 49, 63)" stroke="none" stroke-width="1px">2</text><text style="text-anchor: end; visibility: hidden; font-family: &quot;Helvetica Neue&quot;, sans-serif; font-size: 12px; font-weight: 200;" x="0" y="44.49374985694885" dx="0em" dy="0.3em" fill="rgb(50, 49, 63)" stroke="none" stroke-width="1px">2.5</text><text style="text-anchor: end; visibility: inherit; font-family: &quot;Helvetica Neue&quot;, sans-serif; font-size: 12px; font-weight: 200;" x="0" y="22.246874928474426" dx="0em" dy="0.3em" fill="rgb(50, 49, 63)" stroke="none" stroke-width="1px">3</text><text style="text-anchor: end; visibility: hidden; font-family: &quot;Helvetica Neue&quot;, sans-serif; font-size: 12px; font-weight: 200;" x="0" y="0" dx="0em" dy="0.3em" fill="rgb(50, 49, 63)" stroke="none" stroke-width="1px">3.5</text></g><line x1="51.41600036621094" y1="0" x2="51.41600036621094" y2="177.9749994277954" fill="rgb(0, 0, 0)" stroke="rgb(204, 204, 204)" stroke-width="1px"></line></g></g><g transform="translate(51, 0)" clip-path="url(#clip_0)"><clipPath id="clip_0"><rect width="278" height="177"></rect></clipPath><g><g><g><line x1="0" y1="0" x2="0" y2="177.9749994277954" fill="rgb(0, 0, 0)" stroke="rgb(60, 60, 60)" stroke-width="1px" opacity="0.25"></line><line x1="30.953777737087673" y1="0" x2="30.953777737087673" y2="177.9749994277954" fill="rgb(0, 0, 0)" stroke="rgb(60, 60, 60)" stroke-width="1px" opacity="0.25"></line><line x1="61.907555474175346" y1="0" x2="61.907555474175346" y2="177.9749994277954" fill="rgb(0, 0, 0)" stroke="rgb(60, 60, 60)" stroke-width="1px" opacity="0.25"></line><line x1="92.86133321126302" y1="0" x2="92.86133321126302" y2="177.9749994277954" fill="rgb(0, 0, 0)" stroke="rgb(60, 60, 60)" stroke-width="1px" opacity="0.25"></line><line x1="123.81511094835069" y1="0" x2="123.81511094835069" y2="177.9749994277954" fill="rgb(0, 0, 0)" stroke="rgb(60, 60, 60)" stroke-width="1px" opacity="0.25"></line><line x1="154.76888868543838" y1="0" x2="154.76888868543838" y2="177.9749994277954" fill="rgb(0, 0, 0)" stroke="rgb(60, 60, 60)" stroke-width="1px" opacity="0.25"></line><line x1="185.72266642252603" y1="0" x2="185.72266642252603" y2="177.9749994277954" fill="rgb(0, 0, 0)" stroke="rgb(60, 60, 60)" stroke-width="1px" opacity="0.25"></line><line x1="216.6764441596137" y1="0" x2="216.6764441596137" y2="177.9749994277954" fill="rgb(0, 0, 0)" stroke="rgb(60, 60, 60)" stroke-width="1px" opacity="0.25"></line><line x1="247.63022189670139" y1="0" x2="247.63022189670139" y2="177.9749994277954" fill="rgb(0, 0, 0)" stroke="rgb(60, 60, 60)" stroke-width="1px" opacity="0.25"></line><line x1="278.58399963378906" y1="0" x2="278.58399963378906" y2="177.9749994277954" fill="rgb(0, 0, 0)" stroke="rgb(60, 60, 60)" stroke-width="1px" opacity="0.25"></line></g><g><line x1="0" y1="177.9749994277954" x2="278.58399963378906" y2="177.9749994277954" fill="rgb(0, 0, 0)" stroke="rgb(60, 60, 60)" stroke-width="1px" opacity="0.25"></line><line x1="0" y1="155.72812449932098" x2="278.58399963378906" y2="155.72812449932098" fill="rgb(0, 0, 0)" stroke="rgb(60, 60, 60)" stroke-width="1px" opacity="0.25"></line><line x1="0" y1="133.48124957084656" x2="278.58399963378906" y2="133.48124957084656" fill="rgb(0, 0, 0)" stroke="rgb(60, 60, 60)" stroke-width="1px" opacity="0.25"></line><line x1="0" y1="111.23437464237213" x2="278.58399963378906" y2="111.23437464237213" fill="rgb(0, 0, 0)" stroke="rgb(60, 60, 60)" stroke-width="1px" opacity="0.25"></line><line x1="0" y1="88.9874997138977" x2="278.58399963378906" y2="88.9874997138977" fill="rgb(0, 0, 0)" stroke="rgb(60, 60, 60)" stroke-width="1px" opacity="0.25"></line><line x1="0" y1="66.74062478542328" x2="278.58399963378906" y2="66.74062478542328" fill="rgb(0, 0, 0)" stroke="rgb(60, 60, 60)" stroke-width="1px" opacity="0.25"></line><line x1="0" y1="44.49374985694885" x2="278.58399963378906" y2="44.49374985694885" fill="rgb(0, 0, 0)" stroke="rgb(60, 60, 60)" stroke-width="1px" opacity="0.25"></line><line x1="0" y1="22.246874928474426" x2="278.58399963378906" y2="22.246874928474426" fill="rgb(0, 0, 0)" stroke="rgb(60, 60, 60)" stroke-width="1px" opacity="0.25"></line><line x1="0" y1="0" x2="278.58399963378906" y2="0" fill="rgb(0, 0, 0)" stroke="rgb(60, 60, 60)" stroke-width="1px" opacity="0.25"></line></g></g></g><g><g><line x1="0" y1="155.72812449932098" x2="278.58399963378906" y2="155.72812449932098" fill="rgb(0, 0, 0)" stroke="rgb(153, 153, 153)" stroke-width="1.5px"></line></g></g><g><g><line x1="30.953777737087673" y1="0" x2="30.953777737087673" y2="177.9749994277954" fill="rgb(0, 0, 0)" stroke="rgb(153, 153, 153)" stroke-width="1.5px"></line></g></g><g><g><g><g><g><path style="fill: none;" stroke="rgb(0, 153, 136)" stroke-width="2px" d="M35.68351497531467,-0.7064170337853284L35.71446875305176,5.516146177199971L35.825902352905274,-2.885402552447374L36.27473213009304,0.6569831171370879L36.58426990746392,6.980981330480859L37.407640395270455,3.980448671298859L37.423117284138996,8.480993064792983L37.732655061509874,8.320672296058035L38.01123906114366,14.3688271328773L38.21553399420844,1.8528701826963356L39.175101104058164,18.680323923670073L39.58059559241401,19.30901514044217L39.828225814310706,17.68248016066576L39.93656403639052,13.299325407006279L39.952040925259055,14.981128778571815L40.46277825792101,23.955792697240156L40.66707319098579,21.562151534076577L40.79088830193414,20.66348324033072L40.86827274627685,9.001926829781212L40.89922652401395,26.021313586616884L41.084949190436475,6.060905817036257L41.23971807912191,17.90462514962087L41.892842789374455,28.547683755167327L42.016657900322805,31.383068943452372L42.140473011271155,21.30649544153954L42.54287212185329,14.21679131884241L42.68216412167019,38.08210721885234L42.74407167714437,15.458176682363955L42.77502545488146,27.759382514813808L42.99170189904107,27.235573944801615L43.02265567677816,34.6161001329304L43.11861238776313,25.98035557112786L43.242427498711486,22.952358446237213L43.335288831922746,35.265997014805464L43.76864172024197,20.260872631199675L44.88607309655084,31.412442873752582L45.39681042921278,52.832137741161944L45.443241095818415,42.77639861957039L45.693966695488825,56.31827907038826L45.833258695305716,20.47442502949275L45.84873558417426,45.23209738195976L45.941596917385525,47.10425315703088L46.034458250596785,55.80549235432403L46.31304225023058,30.392788781857973L46.35947291683621,29.184999387011317L46.49876491665311,47.478720379709614L47.24475096011692,43.373562454308455L47.29118162672255,38.90443936148216L47.384042959933815,36.29499687506211L47.476904293145076,37.747070439989386L47.70905762617323,39.22667211944503L47.8019189593845,44.19200141079881L47.879303403727214,32.14756552523107L48.67172011379666,47.237491352975496L48.74910455813938,46.24552449765855L48.76458144700792,37.5844264893347L49.04316544664171,35.98637435638244L49.23198349083795,49.96851369319501L49.43318304612901,43.286066543468394L50.02130482313368,59.06730341845156L50.28441193389892,42.08273256600205L50.581568200174964,39.832089084473296L51.12325931057401,52.14955719036129L51.16968997717963,56.53881162257716L51.38636642133925,50.54331557593855L51.44827397681342,46.73806028091559L52.17878313140869,60.5665195425172L52.287121353488494,51.494154685580554L52.62761290859646,69.34700682442852L52.80095406392415,47.784149849266726L52.95572295260959,72.13464478978787L53.42002961866591,49.64394714517579L53.59027539621989,57.33861208302653L53.71409050716824,41.15126391382779L53.806951840379504,59.88474521009965L54.28983077307807,51.77039056315999L54.73866055026584,46.97747531628772L54.98629077216255,55.77762477942383L55.22153948296441,45.88607839643345L55.28344703843859,70.53402548777362L55.54655414920383,62.30976524138458L56.088245259602864,54.50862643628096L56.212060370551214,59.742394624798635L56.72589308098687,59.05960191126559L56.86518508080377,70.11556101846429L56.95804641401503,71.02711289413489L57.03543085835774,66.0875560706989L57.14376908043756,61.86821216272227L57.283061080254456,63.90118728894947L57.499737524414066,69.66364379032444L57.530691302151155,76.04825689631372L57.57712196875678,55.31643603987828L57.70403245747884,59.00897988331593L58.245723567877874,65.88670161193971L58.61716890072292,63.27526479583514L58.92980205586751,78.41942472204826L59.2083860555013,73.80682658143925L59.34767805531819,55.760906356111036L59.54887761060927,69.18301564042312L59.595308277214905,64.12624951547502L59.719123388163254,59.231368859413294L60.32581743181017,66.07360637104387L60.58892454257541,53.20338009030826L60.74369343126085,59.728519182099944L60.79012409786648,76.43382022989675L61.09966187523736,70.82074220433341L61.33491058603923,86.41191309549973L61.61349458567302,65.42939545039701L61.79921725209554,73.60163869887089L62.062324362860785,76.28117975207454L62.15518569607205,78.90550545417216L62.715449073113334,62.59578182092747L62.76187973971897,74.31392203220696L62.77735662858751,72.04241234594707L62.90117173953586,61.29909624120694L62.96307929501003,63.7018922262734L63.07141751708984,70.04264599140814L63.879311116027836,90.6516458420596L63.98764933810764,77.72911614372009L64.12694133792453,70.24239720395886L64.4674328930325,72.7862389735221L64.52934044850667,76.14784077883203L64.65315555945502,81.34899425131215L64.77697067040337,83.4811978874809L64.83887822587755,81.32383705531831L65.13603449215358,75.7330149003833L65.21341893649631,71.16497623764573L65.22889582536484,72.6103507642976L65.30628026970757,72.56691044483955L65.49200293613009,44.38584389125231L65.53843360273574,73.80783965848644L65.61581804707845,71.65375674053936L65.90987893558078,72.37228296227619L66.14512764638265,78.84265754876819L66.29989653506809,64.25766311192103L66.48561920149062,74.68122876266733L66.88801831207276,70.79382405766069L67.02731031188965,72.58999375012422L67.55661991119385,66.13569579467952L67.5720968000624,64.72099469506378L67.60305057779948,74.95923089499396L68.28403368801541,57.92460554990396L68.40784879896376,79.7530955700937L68.53475928768582,86.42884368154492L68.5657130654229,75.3824690257822L68.64309750976562,70.76036599476186L69.03001973147923,68.57549826434413L69.04549662034776,75.18944337184843L69.2002655090332,67.12478254090419L69.23121928677028,85.17017235940142L69.30860373111301,65.83038301462523L69.52528017527263,76.95722038664908L69.61814150848389,70.61421239248264L69.74505199720595,79.6780642197819L69.97720533023411,87.7264097366049L70.07006666344536,81.63851151593957L70.79748044026692,91.36078916695621L70.8903417734782,73.23960421231055L71.1410673731486,74.88023210158636L71.23392870635986,70.87867854248242L72.10063448299832,79.72516434637379L72.16563741624621,83.27115678240898L72.36683697153727,84.30419834271777L72.93948185967339,79.65202124438031L73.15615830383301,76.47522909119212L73.68546790313721,78.60909820481018L74.95766816813152,76.82624172380449L75.2362521677653,74.52588851407538L75.32911350097656,78.27981634006346L75.70055883382162,79.74075830720489L76.41559109954834,86.29684133351651L76.5394062104967,97.55579243900328L77.08419269866944,88.59806441044844L77.33182292056614,75.57630089809908L77.37825358717176,81.87600647858352L77.50206869812011,91.65751466041678L77.54849936472574,78.4420041408435L77.98185225304498,83.7051621718663L78.43377740800645,67.08509750180954L79.3004831846449,81.7712193050532L79.38096300676133,83.58920463047534L79.62859322865803,73.31602522851955L79.90717722829183,73.56775100643895L79.92265411716038,86.10645180153276L80.44886833869087,83.05762029632083L80.59125571628147,74.28763506966311L80.63768638288711,83.75962434527233L80.65316327175564,85.26665336195845L80.68411704949273,100.35285573374932L80.69959393836126,81.19221660020821L81.08651616007486,87.58816980424405L81.59725349273681,77.1133403332826L82.20394753638374,82.76479859713635L82.6837310913086,83.63935990041372L83.08922557966444,92.93001368864418L83.16661002400716,83.9805175741063L83.50710157911513,95.30217337515268L83.80116246761744,94.06051220007902L84.03331580064561,82.10080350169358L84.26856451144748,95.7763729942624L84.71739428863525,104.0716759315942L84.76382495524089,83.69641045915498L85.15074717695448,84.44596017643639L85.80387188720702,98.7731026364662L86.11340966457792,83.89855380651346L86.3919936642117,95.57768259537366L86.42294744194879,93.57416626453963L86.45390121968587,76.4401691996637L86.54676255289714,86.12462353956246L86.96773393012153,99.53901010041534L87.18441037428114,87.06334285311635L88.03873463982475,87.67321523552494L88.10064219529893,88.90000380305764L88.27088797285292,74.24609360666L88.75067152777778,97.55134232569128L88.87448663872613,90.24807519656446L89.06330468292236,91.00344878085014L89.14068912726509,97.19601748554297L89.38831934916179,87.33764804983099L89.4657037935045,104.37504742264707L89.4966575712416,90.80110387889587L89.65142645992702,107.31190474176876L89.7133340154012,93.12189366382302L90.16216379258898,76.00898027047893L90.33550494791666,71.89010072036007L91.14030316908094,82.77567724123995L91.31054894663492,91.6714590560035L91.56127454630534,99.66217056657115L91.99462743462456,79.26950775007546L92.3970265452067,98.67747028483876L92.58274921162922,93.00620132584754L92.74061347808838,100.0934549689855L92.78704414469401,90.16505591937795L93.66922681020101,70.60233127946847L93.74661125454372,81.24926715894946L93.90447552100287,99.46174043327676L95.03428840840658,88.35479862148333L95.19215267486572,92.80077476020523L95.20762956373426,102.56874695971163L95.23858334147135,94.78832054135816L95.31596778581407,94.65631288926144L95.33144467468261,98.76641951039574L95.71836689639622,85.11078801060381L95.79575134073893,109.40003687435058L95.84218200734458,82.10575750149502L95.96599711829292,87.3675576910305L96.2755348956638,85.53792463159982L96.3095840511746,89.43209202370159L96.32506094004313,82.7387237973249L96.5572142730713,94.70507849330264L96.89770582817924,107.34224931656968L97.09890538347032,106.10112915646363L97.1298591612074,90.74179909112291L97.33105871649849,80.42031023500058L97.89132209353976,91.63680227366663L98.26276742638481,94.88647762950112L98.37110564846462,86.5675344597121L98.4639669816759,98.34485216112512L98.82303080342611,96.69513840283446L98.86946147003174,99.29957384876997L99.78259791327582,107.48186300262279L100.03332351294624,99.80374145383061L100.35833817918565,95.24858106894948L100.4047688457913,86.3883736403404L101.10122884487576,75.10621193192952L101.1476595114814,86.10605930047782L101.38290822228325,83.21809488303677L101.86269177720811,85.45442798826542L102.29604466552735,93.28573633391574L102.40747826538086,99.35223794301893L102.46938582085504,86.49869826118626L102.5932009318034,86.91849935570968L102.76344670935738,98.46016260618228L103.1658458199395,91.7391973123892L103.24323026428222,94.36645086019388L103.49086048617892,67.59534887322164L103.7261091969808,106.68612015443048L103.84992430792914,90.22241941814949L103.98921630774603,95.6823689916061L104.12850830756292,98.03932191427012L104.29875408511691,82.67244415972442L104.31423097398547,98.83453965969974L104.499953640408,96.84936479708134L104.53090741814508,88.87469278908281L105.1066476840549,93.21300164518212L105.29237035047743,98.53742696925255L105.58643123897977,106.57782699174732L105.94239968295628,88.41825119067462L106.23955594923231,106.59688450918478L106.98244661492241,99.21648031462712L107.12173861473931,88.20082682251532L107.16816928134494,93.91414643506741L107.97606288028292,88.86608428621585L108.02249354688857,104.26590030496601L108.33203132425945,93.35470513414933L108.36298510199653,92.05690570008372L108.37846199086508,101.17936217813903L108.75300270148384,108.45950887350301L109.18635558980307,106.77863901796002L109.49589336717393,89.1009484309781L109.61970847812229,108.76852919730592L110.08711052195231,92.94408007780203L110.35021763271756,108.41907065670836L110.62880163235135,97.72266373210095L110.7526167432997,90.1369496614038L111.22001878712972,111.07194285444984L111.99386323055691,95.1008362461773L112.43031149664984,95.811846603119L112.60055727420382,113.00635513130838L112.84818749610052,92.67206093452896L113.06486394026015,97.01138286767545L113.37749709540473,101.2137007163773L113.99657265014649,104.52245808911573L114.33706420525445,98.50307782287766L114.41444864959718,94.97760152306515L114.97471202663844,98.18709325738385L115.14495780419243,101.23884730423453L115.45449558156331,99.86257417952399L115.4854493593004,92.65813245114717L115.96832829199897,99.25629795542952L116.33977362484401,94.22286973104497L116.52549629126655,103.31841336649586L116.55645006900363,97.34225595291514L116.64931140221489,102.01848169696967L117.20957477925619,93.80391728745113L117.6429276675754,95.77543947823986L117.6738814453125,101.82272975192461L117.73578900078668,77.00411365457688L117.96794233381483,105.24895632552233L118.59011326633029,102.19258243517373L118.63654393293592,100.49920028248769L119.44443753187392,86.67790681717275L119.49086819847955,105.11692215308406L119.64563708716499,103.48072846491533L119.92422108679878,88.39210743797514L119.93969797566731,96.74035558517633L120.20280508643256,111.25663051300046L120.24923575303819,89.08830883619561L120.76306846347384,103.33843622436572L120.79402224121094,95.99128323404281L120.90236046329073,109.89987105560203L121.45952846255831,88.17182948106512L121.7721616177029,99.11305098258413L122.14360695054796,98.8226744588905L122.22099139489069,104.91513948237065L122.31385272810193,97.49320973701481L122.73172872755262,108.63197595866762L123.02888499382867,111.61094492813574L123.1062694381714,95.51110062587952L123.33842277119953,113.08245790341878L123.41580721554227,99.96164887148456L124.08131343688966,98.12434082520946L124.4558541475084,78.86326385415214L124.4868079252455,109.07598482095742L124.7344381471422,90.64572650182575L124.76539192487928,100.47134331572411L124.85825325809056,94.808120628359L124.88920703582762,97.70555811180154L125.16779103546142,106.30943583119821L125.5113779683431,98.47659460980634L125.65066996816,115.5798439906898L125.94473085666232,111.16351759382022L126.1149766342163,92.46126665175703L126.1459304119534,105.05716121543645L126.23879174516466,107.58740335385312L126.43999130045572,105.4613789572654L126.70619378899468,85.83428414434701L127.30979245486789,97.56672412378998L127.6657608988444,102.74709625663192L127.72766845431858,104.41999940157345L127.74314534318711,107.7646228842234L128.10220916493734,92.64484576003088L128.27245494249132,109.54499175719175L128.4427007200453,107.7750772028622L128.5510389421251,108.29131686739618L128.64390027533636,91.71292095798196L129.0029640970866,89.48920623126256L129.9161005403307,97.75995133231953L130.4608870285034,98.17051273984711L130.47636391737197,98.63276229305464L130.53827147284613,98.03989475364759L130.847809250217,91.55876882069143L130.86328613908557,109.07684408002362L130.8787630279541,108.30559011521811L131.00257813890246,111.73406561377922L131.67117973802354,103.04542357872208L131.77951796010333,115.52394441477179L131.825948626709,97.79287368431906L132.1200095152113,88.66868807999472L132.94338000301784,105.12269828347354L133.08267200283473,106.34773650846398L133.11362578057182,100.49284600865244L133.17553333604602,104.99132711957401L133.26839466925728,102.42480515391765L133.3148253358629,92.03250698585819L133.4231635579427,114.02503062259981L133.54697866889106,99.0309864376934L133.5934093354967,97.73084790950313L133.7791320019192,112.37954155471799L134.18462649027506,90.41832518117553L134.24653404574923,98.92352601373489L134.41677982330322,105.25603725671604L134.5870256008572,90.91984075208123L135.62707253282335,97.48537562812109L135.84374897698297,85.706567483513L135.96756408793132,106.62433306268849L136.18424053209094,95.80658496735558L136.19971742095947,105.4001275764227L136.58973502044677,93.93509220082319L136.80641146460638,99.43339549222867L137.19333368632,100.33304503861186L137.6297819524129,102.36507073661159L137.67621261901854,108.40341835112585L138.07861172960068,108.04488985371836L138.3571957292345,99.12872450443987L138.41910328470865,100.88363915358903L138.79364399532741,109.78318685685261L139.5984422164917,105.62645747527432L139.83059554951987,104.2635930352512L139.94202914937335,97.69709281877894L139.95750603824192,90.49590248427609L140.2979975933499,88.2917067289371L140.57658159298367,104.01837534914804L141.18327563663058,104.72738607233691L141.50829030287002,98.70745418299461L141.84878185797797,91.57551376434577L141.98807385779486,103.28464236356675L142.79596745673285,94.06662248677202L142.96621323428684,100.8197410426597L143.24479723392062,100.50705560765465L143.39956612260607,89.51300558576906L143.4150430114746,103.3510174743968L143.6967223888821,97.53817762814612L144.05269083285862,100.63628392795698L144.34675172136093,111.80127081129977L144.79867687632245,100.15252107368451L144.9379688761393,85.26107878616475L144.98439954274494,115.95093252185512L145.09273776482476,112.07706910324364L145.24750665351021,99.08777179301916L145.29393732011584,101.21178064364912L145.37132176445854,106.95624574531692L145.526090653144,87.64964395595575L145.89753598598904,103.12139905319304L146.0244464747111,116.94137180549882L146.31850736321346,92.31429091888978L146.58161447397868,103.83105687271572L147.52880007273356,105.41834174699889L148.07049118313262,110.21185635359018L148.33359829389784,98.4768439010169L148.47598567148844,106.03456309917442L148.55337011583114,108.68771110846802L148.72361589338513,92.16509278140069L148.81647722659642,108.16959380375235L148.9248154486762,105.02442980989608L149.20339944831002,111.80303971808112L149.28078389265272,104.71869270437699L149.35816833699545,92.73095730904205L149.62437082553438,113.18549208237269L149.79461660308837,97.8969713289691L149.84104726969403,93.64566510535704L150.15058504706488,98.31302244719743L150.27440015801324,100.88385662038974L150.4291690466987,105.34563357860682L150.95847864600287,110.40197537809013L151.03586309034557,93.20965477807857L151.9799533113268,103.39165724578723L151.98304868910049,99.20767556123269L152.47830913289388,109.98016934574557L153.14381535424127,117.63721783114252L153.25524895409478,110.90285446079864L153.37906406504314,105.35722827193226L153.39454095391167,114.378761590221L153.92075517544214,105.54200609964414L154.09100095299613,114.52403471716077L154.27672361941868,103.52261469235859L154.52744921908908,107.83733105261547L155.4560625512017,103.80013945853733L155.81512637295194,103.5923419743605L156.27943303900824,114.26911589011881L156.34134059448243,105.15801807434914L156.55801703864205,107.84718601153526L156.82112414940727,104.07508644751746L156.9016039715237,104.33782877531652L157.55163330400254,85.45258217249358L157.79926352589925,103.70726522243103L157.96950930345324,106.54746650474146L158.09641979217528,106.41945812015041L158.22023490312364,99.76587040609795L158.52977268049452,99.65281419007249L158.5607264582316,101.85924295816994L158.60715712483724,94.82245752500066L158.6381109025743,102.43444795010504L158.7309722357856,103.61382875508389L159.04051001315648,104.48384447181968L159.08694067976208,99.88864897933544L159.16432512410483,108.71407232796821L159.29123561282688,110.83421451280026L160.37461783362494,116.10069554261922L160.67177409990097,102.39213209312868L160.68725098876953,113.19864086771292L160.71820476650663,89.93196863749952L160.93488121066625,105.99079392748115L160.9967887661404,103.56471838660255L161.1360807659573,106.47305042635361L161.15155765482587,103.05631813503061L161.22894209916856,109.89386154620692L161.3063265435113,116.42887150912333L161.53847987653944,107.54439266392816L162.00588192036946,107.97629764233477L162.191604586792,107.43685798301331L162.2999428088718,114.56270402717408L162.3773272532145,99.05936320315135L162.59400369737412,99.36535490394931L162.73329569719104,106.12086559464475L163.12331329667833,114.25556664762118L163.23165151875813,101.99387082001175L163.2471284076267,120.65764339852079L163.38642040744355,108.30654484751389L163.97454218444824,88.17723963074121L164.08597578430175,115.53740614014231L164.10145267317031,119.49582436371601L164.16336022864448,104.69708393008247L164.65862067243788,112.35831202130763L165.3736529381646,110.34744955586439L165.43556049363877,105.42958637181587L165.79152893761528,100.48288496836645L166.07011293724906,106.91932942988004L166.1165436038547,105.50427295768753L166.4415582700941,114.49104606430737L166.59942253655328,92.8802880482389L166.97086786939832,116.23541622565645L167.0792060914781,110.70507105759089L167.3423132022434,107.48395280553689L167.37326697998046,112.83334968321032L167.4196976465861,117.20625697689508L167.73233080173068,107.96794373474668L167.76328457946775,109.1791966861997L167.8406690238105,113.60369134826652L168.01091480136446,98.37460798434364L168.196637467787,110.63759270055237L168.45974457855226,97.31864224079948L168.73832857818604,97.52506066721574L168.8311899113973,98.31369075980447L168.9735772889879,107.0446645640429L169.2521612886217,120.74195421634076L169.26763817749026,112.06248291539143L169.6855141769409,102.97080064167014L169.80932928788926,110.2834665798421L169.9640981765747,109.80165031863936L170.1343439541287,103.45188494144611L170.44697710927326,97.33174328952492L170.72556110890707,112.57399930709543L171.22082155270047,99.2433189002752L171.32915977478027,109.57929847102017L172.1215764848497,111.45709777477302L172.15253026258682,104.64248385090039L172.30729915127225,91.05451635053782L172.41563737335204,101.59732806502723L172.8211318617079,110.19749824067529L173.1461465279473,114.0691286465283L173.30091541663273,101.94676538935155L173.54854563852945,107.91492957198926L173.57949941626654,106.86715330991558L173.68783763834634,105.2108359865791L174.17071657104492,105.20571756066005L174.24810101538765,106.01851298846867L174.41834679294163,76.83015082214888L174.49573123728433,105.88182184405431L175.1488559475369,110.39818827331686L175.19528661414253,111.43597432272885L175.5048243915134,95.27532948543629L175.59768572472467,112.91975030394438L175.6131626135932,115.81055504996539L176.01556172417534,106.61240421305953L176.12389994625514,105.47188101251899L177.08656243387858,95.3013247242231L177.22585443369547,121.01765173098674L177.33419265577527,103.72506567567905L177.3806233223809,100.69647449513769L177.47658003336588,107.7189601601435L177.5230106999715,91.98586831320927L177.86350225507948,99.96002582658173L178.03374803263347,109.5753522441976L178.20399381018746,118.06041352938428L178.38971647660998,111.51168459378432L178.4051933654785,94.81689355734358L178.45162403208414,99.07848436940853L178.81068785383434,92.59565583052489L178.90354918704563,114.35289364907364L179.25951763102213,105.49733523633819L179.4142865197076,115.16590389164881L179.53810163065592,112.16342463939708L180.46981034054227,95.57067061706798L180.60910234035916,107.0087029809018L180.74839434017605,98.8578828643316L181.27770393948026,100.71296484351316L181.71105682779947,101.3156289970886L181.7574874944051,121.00925804288633L182.36418153805204,104.8346714620412L182.73562687089708,119.62723000405956L183.72924313625762,115.78954828742404L184.37927246873645,107.47879194707136L184.92405895690916,115.85813254270516L185.0014434012519,100.58330158960942L185.01692029012045,110.89181669464574L185.04787406785752,103.88170542100693L185.26455051201714,101.24734972573529L185.45027317843966,107.98688456268133L185.8062416224162,117.53498456650341L185.8867214445326,98.84733837653152L186.11887477756076,105.95355936794567L186.21173611077202,111.14650214268207L186.36650499945748,115.94253883375471L186.73795033230252,107.73264465638303L187.00105744306777,106.1107083038313L187.3291674870809,109.6185485765134L187.80895104200573,99.70735062043485L187.91728926408555,111.60038718016489L188.08753504163954,113.05708589265839L188.38469130791557,95.649197348396L188.4930295299954,104.00518943532964L188.5704139743381,117.10058137192284L189.22044330681695,121.07558806913575L189.7652297949897,118.72412485717247L190.1985826833089,107.81395602357375L190.22953646104602,95.83578916746987L190.24501334991453,114.06545027515538L190.27596712765165,113.7460445856017L190.3688284608629,108.96193674415801L190.5081204606798,117.96603293787797L190.60098179389107,107.47267635631005L190.6783662382338,111.14005769968554L191.11481450432672,110.68698948872245L191.3314909484863,91.30389773026425L191.5017367260403,108.61976599341824L191.65650561472575,103.47454392126599L191.7184131701999,115.2583723665294L191.73389005906847,110.53806716278547L192.15486143629286,103.65056473219823L192.29415343610975,109.48534750904696L192.65012188008626,109.19624926581602L192.66559876895482,96.233779933103L192.85132143537732,110.28145633795265L193.31872347920734,111.4519130480001L193.45801547902425,115.31045301326428L193.7211225897895,108.32297154706964L193.79850703413223,100.43592805161893L193.9377990339491,118.37612493536012L194.06161414489745,116.32675758602119L194.1854292558458,101.75703356183823L194.43615485551624,100.30860919590816L194.90046152157254,110.90802062333248L195.055230410258,110.60878100149301L195.61549378729927,101.41928640406891L195.75478578711613,104.77815661419925L195.7702626759847,104.77389214327809L195.86312400919596,109.69894233988651L196.11075423109267,116.25586075695695L196.21909245317246,106.33274721142021L196.6524453414917,114.14069113616543L196.66792223036023,117.23765706128967L196.7948327190823,106.21859835732292L196.87221716342503,118.24203278441762L197.04246294097902,109.51589363844366L197.18175494079588,119.14423623969202L197.3984313849555,109.35661777116576L197.97417165086534,106.376097361717L198.02060231747097,102.57225294886447L198.15989431728786,115.53200394656868L198.54681653900147,102.33023361595218L198.60872409447563,117.09523752310062L198.74801609429252,117.92275439250336L198.96469253845214,105.97492415509794L199.05755387166343,121.53742125298095L199.0885076494005,111.67133439787807L199.60234035983615,115.18557137694191L199.69520169304744,98.7513983889421L199.78806302625867,101.29113480963349L199.8190168039958,102.71129909960842L199.8344936928643,112.67845762839055L199.98926258154972,122.42994478358979L200.06664702589248,106.96291295918246L200.28332347005207,105.52507551359895L200.41023395877414,109.55654401797071L200.65786418067086,112.9745545897564L201.04478640238443,120.84547636957917L201.33884729088678,110.69560329565772L201.47813929070367,109.08579734733073L201.74434177924263,105.37200540624363L202.1622177786933,117.16737550414938L202.5181862226698,122.49223310978707L202.54914000040688,123.20419289495624L202.56461688927544,114.53893649707743L203.34155671047634,107.42547014835196L203.4653718214247,116.72148634964373L203.51180248803033,102.29307861744135L203.65109448784722,112.16479839308934L204.22683475375706,110.20113152746757L204.7066183086819,110.15546349931935L205.0161560860528,110.63290390416643L205.29783546346027,113.36581979677257L205.77761901838514,114.05749152065638L205.9014341293335,103.47875535150405L205.9323879070706,108.60154121470543L206.44622061750624,112.58711892005996L206.49265128411187,114.47839320935411L206.7093277282715,108.30495362702092L206.9260041724311,116.9080012597271L207.01886550564234,95.02165711444715L207.4522183939616,126.78510731674379L207.49864906056723,108.65826822527978L207.51412594943577,124.33839364607138L207.60698728264703,114.53300920074112L207.6379410603841,108.5165223037661L207.88866666005453,117.63188989452523L208.01248177100288,119.9430474914016L208.15177377081977,123.85693806151372L208.38392710384792,107.1682970922783L208.63155732574464,109.15676578131715L209.22277448052301,118.34946934006874L209.4084971469455,114.1513417053317L209.43945092468263,116.83540182473538L209.59421981336806,98.78424117991699L209.76446559092204,111.83011698680315L209.87280381300184,116.00230242343648L209.98114203508166,122.0499533737663L210.01209581281873,100.23685575981187L210.26282141248913,108.46889177034322L210.55688230099148,123.68529841100545L211.11405030025907,115.0801477152144L211.5195447886149,113.12644719394692L211.61240612182618,110.41087560471414L211.75169812164307,105.77642470266835L212.2160047876994,107.92782376205062L212.55959172058107,117.01293429513595L212.5750686094496,127.22694416306068L212.8536526090834,122.32605930167215L213.28700549740262,116.16953439317922L213.36438994174532,103.61029094152119L213.5655894970364,100.1852100466784L213.7698844301012,116.77266265273177L213.89369954104953,122.74704055139452L213.97108398539226,119.2178381435943L214.00203776312932,91.87485416348312L214.01751465199789,100.2856903167411L214.32705242936876,118.79569530291207L214.4044368737115,122.79964099682377L214.62111331787108,113.7855201139981L214.77588220655653,96.04060576525654L214.85326665089926,108.63541299493244L214.94922336188424,119.29147187190645L215.24328425038655,118.79934450190927L215.42900691680907,112.92138926105214L215.9706980272081,108.03630256712464L216.10999002702502,114.45594639226663L216.8404991816203,116.04457584786635L216.91788362596301,113.18511284148853L217.15003695899117,127.85091210700281L217.32028273654515,118.391732156362L217.36980878092447,115.13790636707502L217.6174390028212,119.92750922328776L217.81863855811224,118.20048071327788L218.12817633548312,105.0493589309526L218.26746833530004,114.44056989823623L218.3912834462484,97.71969345384741L218.9360699344211,113.92796352049454L219.245607711792,111.19402129067043L219.29203837839762,101.51919383475413L219.5396686002943,121.5089092337811L219.7749173110962,108.30394585404204L220.8737764207628,115.11866585928087L221.00068690948487,103.2409951854446L221.0161637983534,123.79669710568406L221.4804704644097,118.26130511662163L221.77453135291205,118.32292778224601L221.82096201951768,108.20500906785753L222.16145357462565,109.58207249874624L222.83005517374673,118.99545712359941L223.15506983998617,121.53534736227178L223.24793117319743,119.60473279832313L223.2788849509345,123.8689358640307L223.5915181060791,124.33700132814003L223.93200966118707,121.47722803376608L224.38083943837484,115.6632398567263L225.08039481523303,112.96461211370949L225.32802503712972,125.41316761584244L225.51374770355224,115.11146028248187L226.4145026357015,100.35550776790427L226.6621328575982,126.18812912439657L227.12953490142823,120.52822147972515L227.2533500123766,120.56967277356699L227.578364678616,124.58287406667947L227.9652869003296,111.90813452757342L228.0426713446723,111.01510445844099L228.23148938886854,125.42130670866398L228.43268894415962,118.16769361502026L228.52555027737088,121.04376631131052L229.1755796098497,113.15850498281193L229.19105649871827,116.69777981633264L229.268440943061,107.61890951961391L229.4882127649943,125.64610373177403L230.38587231936984,104.18446164013585L230.64897943013509,114.51179823156984L231.0544739184909,115.23838663713771L231.06995080735948,114.879529287495L231.19376591830783,110.89352990870984L231.37948858473038,114.34208395785807L231.425919251336,111.26384934997023L231.56521125115287,100.44549659084998L231.79736458418105,121.09657361540386L231.85927213965522,121.5550307597698L232.10999773932562,113.63789728479705L232.38858173895943,126.99655134788368L232.6671657385932,118.09958142181871L232.89931907162136,119.49947886678153L233.05408796030682,110.47180343738992L233.0881371158176,125.66525937447523L233.27385978224012,123.32574357637999L233.28933667110866,109.00766842112594L233.35124422658285,124.586939635039L233.78459711490206,119.57818593643209L234.18699622548422,120.91690890954271L234.6853520470513,123.70660750544046L234.9175053800795,120.85978674587928L235.47467337934705,114.02478133138925L235.53967631259493,117.1480952158429L236.28256697828505,114.68864912919258L236.34447453375924,130.33582832967727L236.6540123111301,118.99205721581276L237.3999983545939,114.62209633207415L237.80239746517606,116.70815722598095L237.8488281317817,104.8845668326324L238.4864759531657,112.42113340637005L238.7341061750624,107.00158492122992L239.2634157743666,118.98528657261518L239.49556910739474,122.27915277357357L239.6193842183431,119.8951597106657L239.7122455515544,118.73775366069475L240.2229828842163,121.1781422299076L240.4737084838867,129.94601908941215L240.52013915049233,125.7633978983791L240.56656981709799,133.66473055385666L240.76776937238904,124.11377165721555L241.1856453718397,117.44500369966016L241.46422937147352,123.66787454660744L241.5601860824585,120.00362790760309L241.6685243045383,106.76142201222609L242.00901585964627,117.7632000616392L242.33403052588568,118.14082850903063L242.53523008117676,113.40794470728977L243.06453968048098,124.07605707949803L243.42050812445746,114.11012379049549L243.4669387910631,132.53714397592398L243.66813834635417,121.89692039488915L243.73004590182836,123.27284345109123L243.82290723503962,117.31883052270433L244.47603194529216,123.39164397309631L244.4915088341607,113.18408385223641L244.78556972266304,117.29995599562356L244.83200038926867,122.68787897346593L244.95581550021703,119.65901198137246L244.97129238908556,113.64460162714076L244.9867692779541,126.38581440234059L245.07963061116538,119.60519160023193L245.37678687744142,123.43343472730999L245.4077406551785,120.6516444972623L245.68632465481227,127.59016145685412L246.44778758714463,130.15749229292774L246.66446403130425,124.23617364160305L246.7573253645155,125.819056139189L247.283539586046,121.71306547506319L247.90571051856148,112.01131722044L248.33906340688068,125.69077724711414L248.75693940633138,124.98393323582987L248.82194233957927,124.36133374151169L248.91480367279053,127.20339940383305L249.27077211676703,121.1406742913665L249.65769433848064,135.35314014250218L249.84341700490316,127.03449930460684L249.8588938937717,121.28157686601891L249.95175522698298,116.17751701598561L250.07866571570503,123.8250924353811L250.34177282647028,126.6235825245025L250.5274954928928,132.0137040386593L250.62035682610406,119.39751080555791L250.92989460347496,122.48007353318663L250.9918021589491,133.20664734630657L251.35086598069933,120.81306586017155L251.38181975843642,126.07977761696199L251.5211117582533,122.61737994952493L252.2949562016805,133.3029877910534L252.65402002343072,124.6003907522729L252.66949691229925,126.6561123754471L253.00998846740723,120.53027680619523L253.55167957780625,121.25298793782856L253.56715646667482,117.2928246757809L253.92622028842501,132.95302005989805L253.9571740661621,127.03522330993114L253.97265095503064,133.90310599184005L254.43695762108698,127.57810265755157L254.82387984280058,124.99764955647926L254.88888277604846,128.90167190750083L255.1210361090766,132.72050826943126L255.21389744228787,111.97987205146478L255.6782041083442,128.39226653498415L255.6936809972127,134.60546541336834L255.81749610816107,121.89935231020924L255.87940366363526,122.94201810246633L255.9722649968465,128.76064999131142L256.2075137076484,125.5648639695055L256.8730199289958,136.67992630988138L257.05874259541827,120.98208530093473L257.22898837297225,126.13831596686417L257.3713757505629,126.54645076313997L257.3868526394314,123.20901694508409L257.4487601949056,130.5928024831893L257.5106677503798,126.85925288764784L257.57257530585395,119.61014560003338L257.8356824166192,126.16213388560976L257.92854374983045,112.0710728540193L257.99045130530465,126.19574311445542L258.0214050830417,117.26017017923103L258.4083273047553,132.58377999653874L258.69000668216285,124.97231467419704L258.79834490424264,130.2789421970536L258.8138217931112,126.93441153559908L259.0614520150079,130.48458888153078L259.1078826816135,119.5900882657195L259.6031431254069,128.57200549780163L259.61862001427545,117.30698388613418L259.634096903144,128.64661252264864L259.9931607248942,124.02980825586988L260.2098371690538,116.15858149211928L260.9867769902547,125.61698704878685L261.17249965667725,120.52499395415857L262.1351621443007,132.9386964234272L262.2899310329861,122.6030828333956L262.7851914767795,132.69065166891485L262.84709903225365,117.91882672991989L263.15663680962456,114.32286731837131L263.5157006313748,120.55345293267533L263.54665440911185,130.67725651085362L263.8097615198771,125.68067564901794L264.38240640801325,128.50282453483564L264.5557475633409,124.67670303508154L264.8343315629747,126.3653221344253L264.91171600731747,131.97820390946117L264.94266978505453,127.94412315144679L265.09743867374,129.8499518041833L265.37602267337377,133.29716127201496L265.4998377843221,125.04917062400744L265.6236528952704,128.565096948828L265.7319911173503,121.31313076839449L265.98271671702065,130.2982224853601L266.0755780502319,129.05609985634345L266.18391627231176,132.78518077433384L266.9113300491333,126.05433400127941L266.9763329823812,129.52446234827815L267.2239632042779,134.64691670721015L267.31682453748914,134.18777003396394L267.4715934261746,130.48069834742546L267.595408537123,125.06110212567056L267.7501774258084,124.66053358283882L267.85851564788817,122.35354233161988L268.0132845365736,132.0567067724818L268.02876142544216,129.76003458615975L268.0442383143107,132.07012871734L268.23305635850693,135.01745228925418L268.52711724700924,129.00422341623852L268.83665502438015,124.11123896459758L269.00690080193414,134.06805323415833L269.6135948455811,121.96026157864594L269.72193306766087,121.69748212236871L269.9076557340834,116.45798554007635L270.0779015116374,123.98497561848048L270.5731619554308,138.44309939338905L271.05604088812936,127.9311891808731L271.5358244430542,129.6703268788345L272.0960878200955,130.45765747468727L272.4675331529406,136.65331977722187L272.60682515275744,122.15605065216917L272.6996864859687,121.84809114202824L272.9318398189968,123.8312080261424L273.0092242633396,128.4603309915709" fill="none"></path></g></g></g></g></g></g><g transform="translate(51, 177)" clip-path="url(#clip_1)"><clipPath id="clip_1"><rect width="278" height="22"></rect></clipPath><g><g><line x1="0" y1="0" x2="0" y2="5" style="visibility: inherit;" fill="rgb(0, 0, 0)" stroke="rgb(204, 204, 204)" stroke-width="1px"></line><line x1="30.953777737087673" y1="0" x2="30.953777737087673" y2="5" style="visibility: inherit;" fill="rgb(0, 0, 0)" stroke="rgb(204, 204, 204)" stroke-width="1px"></line><line x1="61.907555474175346" y1="0" x2="61.907555474175346" y2="5" style="visibility: inherit;" fill="rgb(0, 0, 0)" stroke="rgb(204, 204, 204)" stroke-width="1px"></line><line x1="92.86133321126302" y1="0" x2="92.86133321126302" y2="5" style="visibility: inherit;" fill="rgb(0, 0, 0)" stroke="rgb(204, 204, 204)" stroke-width="1px"></line><line x1="123.81511094835069" y1="0" x2="123.81511094835069" y2="5" style="visibility: inherit;" fill="rgb(0, 0, 0)" stroke="rgb(204, 204, 204)" stroke-width="1px"></line><line x1="154.76888868543838" y1="0" x2="154.76888868543838" y2="5" style="visibility: inherit;" fill="rgb(0, 0, 0)" stroke="rgb(204, 204, 204)" stroke-width="1px"></line><line x1="185.72266642252603" y1="0" x2="185.72266642252603" y2="5" style="visibility: inherit;" fill="rgb(0, 0, 0)" stroke="rgb(204, 204, 204)" stroke-width="1px"></line><line x1="216.6764441596137" y1="0" x2="216.6764441596137" y2="5" style="visibility: inherit;" fill="rgb(0, 0, 0)" stroke="rgb(204, 204, 204)" stroke-width="1px"></line><line x1="247.63022189670139" y1="0" x2="247.63022189670139" y2="5" style="visibility: inherit;" fill="rgb(0, 0, 0)" stroke="rgb(204, 204, 204)" stroke-width="1px"></line><line x1="278.58399963378906" y1="0" x2="278.58399963378906" y2="5" style="visibility: inherit;" fill="rgb(0, 0, 0)" stroke="rgb(204, 204, 204)" stroke-width="1px"></line></g><g transform="translate(0, 8)"><text style="text-anchor: middle; visibility: hidden; font-family: &quot;Helvetica Neue&quot;, sans-serif; font-size: 12px; font-weight: 200;" x="0" y="0" dx="0em" dy="0.95em" fill="rgb(50, 49, 63)" stroke="none" stroke-width="1px">-20k</text><text style="text-anchor: middle; visibility: inherit; font-family: &quot;Helvetica Neue&quot;, sans-serif; font-size: 12px; font-weight: 200;" x="30.953777737087673" y="0" dx="0em" dy="0.95em" fill="rgb(50, 49, 63)" stroke="none" stroke-width="1px">0</text><text style="text-anchor: middle; visibility: hidden; font-family: &quot;Helvetica Neue&quot;, sans-serif; font-size: 12px; font-weight: 200;" x="61.907555474175346" y="0" dx="0em" dy="0.95em" fill="rgb(50, 49, 63)" stroke="none" stroke-width="1px">20k</text><text style="text-anchor: middle; visibility: inherit; font-family: &quot;Helvetica Neue&quot;, sans-serif; font-size: 12px; font-weight: 200;" x="92.86133321126302" y="0" dx="0em" dy="0.95em" fill="rgb(50, 49, 63)" stroke="none" stroke-width="1px">40k</text><text style="text-anchor: middle; visibility: hidden; font-family: &quot;Helvetica Neue&quot;, sans-serif; font-size: 12px; font-weight: 200;" x="123.81511094835069" y="0" dx="0em" dy="0.95em" fill="rgb(50, 49, 63)" stroke="none" stroke-width="1px">60k</text><text style="text-anchor: middle; visibility: inherit; font-family: &quot;Helvetica Neue&quot;, sans-serif; font-size: 12px; font-weight: 200;" x="154.76888868543838" y="0" dx="0em" dy="0.95em" fill="rgb(50, 49, 63)" stroke="none" stroke-width="1px">80k</text><text style="text-anchor: middle; visibility: hidden; font-family: &quot;Helvetica Neue&quot;, sans-serif; font-size: 12px; font-weight: 200;" x="185.72266642252603" y="0" dx="0em" dy="0.95em" fill="rgb(50, 49, 63)" stroke="none" stroke-width="1px">100k</text><text style="text-anchor: middle; visibility: inherit; font-family: &quot;Helvetica Neue&quot;, sans-serif; font-size: 12px; font-weight: 200;" x="216.6764441596137" y="0" dx="0em" dy="0.95em" fill="rgb(50, 49, 63)" stroke="none" stroke-width="1px">120k</text><text style="text-anchor: middle; visibility: hidden; font-family: &quot;Helvetica Neue&quot;, sans-serif; font-size: 12px; font-weight: 200;" x="247.63022189670139" y="0" dx="0em" dy="0.95em" fill="rgb(50, 49, 63)" stroke="none" stroke-width="1px">140k</text><text style="text-anchor: middle; visibility: hidden; font-family: &quot;Helvetica Neue&quot;, sans-serif; font-size: 12px; font-weight: 200;" x="278.58399963378906" y="0" dx="0em" dy="0.95em" fill="rgb(50, 49, 63)" stroke="none" stroke-width="1px">160k</text></g><line x1="0" y1="0" x2="278.58399963378906" y2="0" fill="rgb(0, 0, 0)" stroke="rgb(204, 204, 204)" stroke-width="1px"></line></g></g></g></g></svg>