<svg viewBox="0 0 330 200" xmlns="http://www.w3.org/2000/svg"><g><g><g><g><g><line x1="51.41600036621094" y1="177.9749994277954" x2="46.41600036621094" y2="177.9749994277954" style="visibility: inherit;" fill="rgb(0, 0, 0)" stroke="rgb(204, 204, 204)" stroke-width="1px"></line><line x1="51.41600036621094" y1="155.72812449932098" x2="46.41600036621094" y2="155.72812449932098" style="visibility: inherit;" fill="rgb(0, 0, 0)" stroke="rgb(204, 204, 204)" stroke-width="1px"></line><line x1="51.41600036621094" y1="133.48124957084656" x2="46.41600036621094" y2="133.48124957084656" style="visibility: inherit;" fill="rgb(0, 0, 0)" stroke="rgb(204, 204, 204)" stroke-width="1px"></line><line x1="51.41600036621094" y1="111.23437464237213" x2="46.41600036621094" y2="111.23437464237213" style="visibility: inherit;" fill="rgb(0, 0, 0)" stroke="rgb(204, 204, 204)" stroke-width="1px"></line><line x1="51.41600036621094" y1="88.9874997138977" x2="46.41600036621094" y2="88.9874997138977" style="visibility: inherit;" fill="rgb(0, 0, 0)" stroke="rgb(204, 204, 204)" stroke-width="1px"></line><line x1="51.41600036621094" y1="66.74062478542328" x2="46.41600036621094" y2="66.74062478542328" style="visibility: inherit;" fill="rgb(0, 0, 0)" stroke="rgb(204, 204, 204)" stroke-width="1px"></line><line x1="51.41600036621094" y1="44.49374985694885" x2="46.41600036621094" y2="44.49374985694885" style="visibility: inherit;" fill="rgb(0, 0, 0)" stroke="rgb(204, 204, 204)" stroke-width="1px"></line><line x1="51.41600036621094" y1="22.246874928474426" x2="46.41600036621094" y2="22.246874928474426" style="visibility: inherit;" fill="rgb(0, 0, 0)" stroke="rgb(204, 204, 204)" stroke-width="1px"></line><line x1="51.41600036621094" y1="0" x2="46.41600036621094" y2="0" style="visibility: inherit;" fill="rgb(0, 0, 0)" stroke="rgb(204, 204, 204)" stroke-width="1px"></line></g><g transform="translate(41.41600036621094, 0)"><text style="text-anchor: end; visibility: hidden; font-family: &quot;Helvetica Neue&quot;, sans-serif; font-size: 12px; font-weight: 200;" x="0" y="177.9749994277954" dx="0em" dy="0.3em" fill="rgb(50, 49, 63)" stroke="none" stroke-width="1px">-0.5</text><text style="text-anchor: end; visibility: inherit; font-family: &quot;Helvetica Neue&quot;, sans-serif; font-size: 12px; font-weight: 200;" x="0" y="155.72812449932098" dx="0em" dy="0.3em" fill="rgb(50, 49, 63)" stroke="none" stroke-width="1px">0</text><text style="text-anchor: end; visibility: hidden; font-family: &quot;Helvetica Neue&quot;, sans-serif; font-size: 12px; font-weight: 200;" x="0" y="133.48124957084656" dx="0em" dy="0.3em" fill="rgb(50, 49, 63)" stroke="none" stroke-width="1px">0.5</text><text style="text-anchor: end; visibility: inherit; font-family: &quot;Helvetica Neue&quot;, sans-serif; font-size: 12px; font-weight: 200;" x="0" y="111.23437464237213" dx="0em" dy="0.3em" fill="rgb(50, 49, 63)" stroke="none" stroke-width="1px">1</text><text style="text-anchor: end; visibility: hidden; font-family: &quot;Helvetica Neue&quot;, sans-serif; font-size: 12px; font-weight: 200;" x="0" y="88.9874997138977" dx="0em" dy="0.3em" fill="rgb(50, 49, 63)" stroke="none" stroke-width="1px">1.5</text><text style="text-anchor: end; visibility: inherit; font-family: &quot;Helvetica Neue&quot;, sans-serif; font-size: 12px; font-weight: 200;" x="0" y="66.74062478542328" dx="0em" dy="0.3em" fill="rgb(50, 49, 63)" stroke="none" stroke-width="1px">2</text><text style="text-anchor: end; visibility: hidden; font-family: &quot;Helvetica Neue&quot;, sans-serif; font-size: 12px; font-weight: 200;" x="0" y="44.49374985694885" dx="0em" dy="0.3em" fill="rgb(50, 49, 63)" stroke="none" stroke-width="1px">2.5</text><text style="text-anchor: end; visibility: inherit; font-family: &quot;Helvetica Neue&quot;, sans-serif; font-size: 12px; font-weight: 200;" x="0" y="22.246874928474426" dx="0em" dy="0.3em" fill="rgb(50, 49, 63)" stroke="none" stroke-width="1px">3</text><text style="text-anchor: end; visibility: hidden; font-family: &quot;Helvetica Neue&quot;, sans-serif; font-size: 12px; font-weight: 200;" x="0" y="0" dx="0em" dy="0.3em" fill="rgb(50, 49, 63)" stroke="none" stroke-width="1px">3.5</text></g><line x1="51.41600036621094" y1="0" x2="51.41600036621094" y2="177.9749994277954" fill="rgb(0, 0, 0)" stroke="rgb(204, 204, 204)" stroke-width="1px"></line></g></g><g transform="translate(51, 0)" clip-path="url(#clip_0)"><clipPath id="clip_0"><rect width="278" height="177"></rect></clipPath><g><g><g><line x1="0" y1="0" x2="0" y2="177.9749994277954" fill="rgb(0, 0, 0)" stroke="rgb(60, 60, 60)" stroke-width="1px" opacity="0.25"></line><line x1="23.215333302815754" y1="0" x2="23.215333302815754" y2="177.9749994277954" fill="rgb(0, 0, 0)" stroke="rgb(60, 60, 60)" stroke-width="1px" opacity="0.25"></line><line x1="46.43066660563151" y1="0" x2="46.43066660563151" y2="177.9749994277954" fill="rgb(0, 0, 0)" stroke="rgb(60, 60, 60)" stroke-width="1px" opacity="0.25"></line><line x1="69.64599990844727" y1="0" x2="69.64599990844727" y2="177.9749994277954" fill="rgb(0, 0, 0)" stroke="rgb(60, 60, 60)" stroke-width="1px" opacity="0.25"></line><line x1="92.86133321126302" y1="0" x2="92.86133321126302" y2="177.9749994277954" fill="rgb(0, 0, 0)" stroke="rgb(60, 60, 60)" stroke-width="1px" opacity="0.25"></line><line x1="116.07666651407878" y1="0" x2="116.07666651407878" y2="177.9749994277954" fill="rgb(0, 0, 0)" stroke="rgb(60, 60, 60)" stroke-width="1px" opacity="0.25"></line><line x1="139.29199981689453" y1="0" x2="139.29199981689453" y2="177.9749994277954" fill="rgb(0, 0, 0)" stroke="rgb(60, 60, 60)" stroke-width="1px" opacity="0.25"></line><line x1="162.5073331197103" y1="0" x2="162.5073331197103" y2="177.9749994277954" fill="rgb(0, 0, 0)" stroke="rgb(60, 60, 60)" stroke-width="1px" opacity="0.25"></line><line x1="185.72266642252603" y1="0" x2="185.72266642252603" y2="177.9749994277954" fill="rgb(0, 0, 0)" stroke="rgb(60, 60, 60)" stroke-width="1px" opacity="0.25"></line><line x1="208.9379997253418" y1="0" x2="208.9379997253418" y2="177.9749994277954" fill="rgb(0, 0, 0)" stroke="rgb(60, 60, 60)" stroke-width="1px" opacity="0.25"></line><line x1="232.15333302815756" y1="0" x2="232.15333302815756" y2="177.9749994277954" fill="rgb(0, 0, 0)" stroke="rgb(60, 60, 60)" stroke-width="1px" opacity="0.25"></line><line x1="255.3686663309733" y1="0" x2="255.3686663309733" y2="177.9749994277954" fill="rgb(0, 0, 0)" stroke="rgb(60, 60, 60)" stroke-width="1px" opacity="0.25"></line><line x1="278.58399963378906" y1="0" x2="278.58399963378906" y2="177.9749994277954" fill="rgb(0, 0, 0)" stroke="rgb(60, 60, 60)" stroke-width="1px" opacity="0.25"></line></g><g><line x1="0" y1="177.9749994277954" x2="278.58399963378906" y2="177.9749994277954" fill="rgb(0, 0, 0)" stroke="rgb(60, 60, 60)" stroke-width="1px" opacity="0.25"></line><line x1="0" y1="155.72812449932098" x2="278.58399963378906" y2="155.72812449932098" fill="rgb(0, 0, 0)" stroke="rgb(60, 60, 60)" stroke-width="1px" opacity="0.25"></line><line x1="0" y1="133.48124957084656" x2="278.58399963378906" y2="133.48124957084656" fill="rgb(0, 0, 0)" stroke="rgb(60, 60, 60)" stroke-width="1px" opacity="0.25"></line><line x1="0" y1="111.23437464237213" x2="278.58399963378906" y2="111.23437464237213" fill="rgb(0, 0, 0)" stroke="rgb(60, 60, 60)" stroke-width="1px" opacity="0.25"></line><line x1="0" y1="88.9874997138977" x2="278.58399963378906" y2="88.9874997138977" fill="rgb(0, 0, 0)" stroke="rgb(60, 60, 60)" stroke-width="1px" opacity="0.25"></line><line x1="0" y1="66.74062478542328" x2="278.58399963378906" y2="66.74062478542328" fill="rgb(0, 0, 0)" stroke="rgb(60, 60, 60)" stroke-width="1px" opacity="0.25"></line><line x1="0" y1="44.49374985694885" x2="278.58399963378906" y2="44.49374985694885" fill="rgb(0, 0, 0)" stroke="rgb(60, 60, 60)" stroke-width="1px" opacity="0.25"></line><line x1="0" y1="22.246874928474426" x2="278.58399963378906" y2="22.246874928474426" fill="rgb(0, 0, 0)" stroke="rgb(60, 60, 60)" stroke-width="1px" opacity="0.25"></line><line x1="0" y1="0" x2="278.58399963378906" y2="0" fill="rgb(0, 0, 0)" stroke="rgb(60, 60, 60)" stroke-width="1px" opacity="0.25"></line></g></g></g><g><g><line x1="0" y1="155.72812449932098" x2="278.58399963378906" y2="155.72812449932098" fill="rgb(0, 0, 0)" stroke="rgb(153, 153, 153)" stroke-width="1.5px"></line></g></g><g><g><line x1="23.215333302815754" y1="0" x2="23.215333302815754" y2="177.9749994277954" fill="rgb(0, 0, 0)" stroke="rgb(153, 153, 153)" stroke-width="1.5px"></line></g></g><g><g><g><g><g><path style="fill: none;" stroke="rgb(238, 51, 119)" stroke-width="2px" d="M27.858399963378908,-1.133787033786973L29.019166628519695,3.2556477367514276L30.179933293660483,8.995668029175533L31.34069995880127,14.752396136775815L32.50146662394206,20.72637888234948L33.66223328908285,25.83137490043947L34.82299995422363,30.342336484094233L35.983766619364424,29.443753055441334L37.14453328450521,38.748213333482454L38.305299949646,41.338030767155885L39.46606661478678,42.80719404017765L40.626833279927574,44.05139055990344L41.78759994506836,47.99941015755559L42.94836661020915,51.58308269486429L44.10913327534993,49.62819406229539L45.269899940490724,45.1413872057239L46.43066660563151,60.05801851364737L47.5914332707723,62.29199661254643L48.75219993591308,62.821692698382606L49.912966601053874,63.97811749571622L51.07373326619466,64.85165511380978L52.23449993133545,69.44491462136091L53.39526659647624,68.30197806973936L54.556033261617024,71.9887298705826L55.716799926757815,72.56832663107829L56.8775665918986,71.08250858356345L58.03833325703939,70.73578163814548L59.199099922180174,75.97299747106459L60.359866587320965,77.3747672521408L61.52063325246175,74.1665113657383L62.68139991760254,76.79236994357748L63.842166582743324,77.06236293275617L65.00293324788412,77.38014557740703L66.1636999130249,77.49590156420223L67.3244665781657,75.11426881169226L68.48523324330647,84.29953606667337L69.64599990844727,85.22076256294122L70.80676657358805,74.77559344196871L71.96753323872885,86.55205188431552L73.12829990386963,81.93640920849663L74.28906656901042,75.26922186329759L75.4498332341512,87.82391972841404L76.610599899292,83.62526168684602L77.77136656443278,78.8222474939117L78.93213322957357,86.04461166910767L80.09289989471435,90.50049050336415L81.25366655985515,91.17951202432886L82.41443322499593,88.95463040258127L83.57519989013672,84.10448956271352L84.7359665552775,90.2237666515002L85.8967332204183,87.8649997374742L87.05749988555908,89.40071845964854L88.21826655069987,94.73527455419088L89.37903321584066,88.80564973189288L90.53979988098145,94.0440483720451L91.70056654612223,90.70540787844871L92.86133321126302,87.74205143405078L94.02209987640381,89.29449918767455L95.1828665415446,89.63523783997064L96.34363320668538,91.24702750984554L97.50439987182617,91.52991468908559L98.66516653696696,94.80018043809909L99.82593320210775,94.16405822162483L100.98669986724853,91.09599946878953L102.14746653238932,86.7067079080955L103.30823319753011,95.34566673529383L104.4689998626709,97.65405560851244L105.62976652781168,95.37314711320741L106.79053319295248,98.35208691029982L107.95129985809326,96.26914215652508L109.11206652323405,97.04052872303834L110.27283318837483,91.81072267354816L111.43359985351563,101.30643174263923L112.59436651865641,92.38464938502057L113.7551331837972,96.54063619703547L114.91589984893798,98.81819782523695L116.07666651407878,92.76378949188032L117.23743317921956,99.93796090241256L118.39819984436035,91.55611678653648L119.55896650950113,100.71921834005053L120.71973317464193,91.03747968312643L121.88049983978271,96.50446775523028L123.0412665049235,96.61859539305433L124.2020331700643,101.36512656255655L125.36279983520508,96.41731660883036L126.52356650034586,95.69821224364776L127.68433316548665,98.11495792836925L128.84509983062745,101.02121607741114L130.00586649576823,100.00285087411584L131.16663316090902,100.72058678967448L132.3273998260498,93.33922786282105L133.4881664911906,99.82916915730826L134.6489331563314,100.10125725346936L135.80969982147215,98.11737658351856L136.97046648661293,101.63485434831975L138.13123315175375,97.92776674957636L139.29199981689453,101.54294545264585L140.45276648203532,99.93224311677449L141.6135331471761,102.03395896829795L142.77429981231688,103.5408394710714L143.9350664774577,104.62022267620375L145.09583314259848,101.69903887893781L146.25659980773926,103.93003609144671L147.41736647288005,105.52489517527641L148.57813313802083,104.11105863879519L149.73889980316162,103.4346255031657L150.8996664683024,101.82973112209368L152.06043313344318,100.36319336288531L153.221199798584,105.13069151441655L154.38196646372478,99.041488492947L155.54273312886556,103.52465145458959L156.70349979400635,105.19044184392754L157.86426645914713,103.88536522814076L159.02503312428792,107.08459359027981L160.1857997894287,105.91521625813343L161.3465664545695,106.72441022355963L162.5073331197103,105.98912314596353L163.66809978485108,102.99551759999426L164.82886644999186,107.1517430950831L165.98963311513265,106.8488914027246L167.15039978027343,108.39531373474833L168.31116644541422,104.73566572296866L169.471933110555,108.32106738654639L170.6326997756958,107.52837437763228L171.7934664408366,107.63174536492386L172.95423310597738,106.57038007984022L174.11499977111816,108.01705940729633L175.27576643625895,109.35612979688125L176.43653310139973,106.70369253274117L177.59729976654052,110.35589893668205L178.75806643168133,110.8865444507457L179.9188330968221,110.7348746174242L181.0795997619629,111.99115380475993L182.24036642710368,111.39871589488598L183.40113309224446,111.10736342262334L184.56189975738525,110.84646160652781L185.72266642252603,110.54191261231014L186.88343308766682,111.50324847313743L188.04419975280763,112.09806790968253L189.2049664179484,113.78262674473505L190.3657330830892,112.41583464212846L191.52649974822998,110.8464032617764L192.68726641337076,112.94554398813541L193.84803307851155,113.3498651592964L195.00879974365233,115.27422092263937L196.16956640879314,114.28286403517806L197.33033307393393,115.60997109869001L198.4910997390747,114.4707526989537L199.6518664042155,113.84027401116117L200.81263306935628,116.56129022651406L201.97339973449706,114.27585736094069L203.13416639963785,115.62427882295596L204.29493306477863,116.69776920819602L205.45569972991944,117.8694246376815L206.61646639506023,118.64749698229939L207.777233060201,118.34190573865882L208.9379997253418,115.76422136124428L210.09876639048258,119.43563114450114L211.25953305562336,118.45603602851703L212.42029972076415,120.36356463514686L213.58106638590496,120.26059940908098L214.74183305104575,120.679811752022L215.90259971618653,120.66036173352961L217.0633663813273,121.56510848955861L218.2241330464681,121.44828638503313L219.38489971160888,122.69362858351386L220.54566637674967,123.03678854299342L221.70643304189045,122.74414718213147L222.86719970703126,123.24642919090795L224.02796637217205,123.93468244276603L225.18873303731283,124.62376843334877L226.3494997024536,124.92991130009356L227.5102663675944,125.07181634365655L228.67103303273518,125.99975513837057L229.83179969787597,125.71885963678089L230.99256636301678,126.88186943492124L232.15333302815756,127.2943456111087L233.31409969329835,127.85812563990427L234.47486635843913,127.74640604909291L235.6356330235799,128.34354336348943L236.7963996887207,128.8297010046038L237.95716635386148,128.68094840885277L239.11793301900227,129.22989295858554L240.27869968414308,129.47262834071967L241.43946634928386,129.87175417697114L242.60023301442465,129.93400537469023L243.76099967956543,129.87647479776695L244.9217663447062,130.12151214554757L246.082533009847,130.3620145149232L247.24329967498778,130.69577036128933L248.4040663401286,130.43221651103886L249.56483300526938,130.5594531536908L250.72559967041016,130.7789275442519L251.88636633555095,130.82665620293852L253.04713300069173,130.841743625246L254.2078996658325,130.8349385056044" fill="none"></path></g><g><path style="fill: none;" stroke="rgb(204, 51, 17)" stroke-width="2px" d="M27.858399963378908,-1.907406613058697L29.019166628519695,1.8813212051106234L30.179933293660483,8.643700664267385L31.34069995880127,14.789514006808474L32.50146662394206,19.821812464643017L33.66223328908285,25.35903700930652L34.82299995422363,30.054654427102037L35.983766619364424,27.595094302983057L37.14453328450521,39.963057139181274L38.305299949646,39.15893916712764L39.46606661478678,43.077839429758455L40.626833279927574,44.39642020346224L41.78759994506836,46.46023318284318L42.94836661020915,50.10964434278475L44.10913327534993,48.124671034762116L45.269899940490724,38.155727686993714L46.43066660563151,58.28765841757979L47.5914332707723,58.89200396080946L48.75219993591308,58.89861282992359L49.912966601053874,62.20932740386837L51.07373326619466,60.037576634381026L52.23449993133545,67.56712062167637L53.39526659647624,63.540468211329994L54.556033261617024,66.81434603086254L55.716799926757815,67.10582049669631L56.8775665918986,64.35784635415837L58.03833325703939,61.38956243030054L59.199099922180174,70.49054273576908L60.359866587320965,71.07128517501971L61.52063325246175,65.87119251620157L62.68139991760254,68.96093960435604L63.842166582743324,72.05772519115774L65.00293324788412,68.74241198998828L66.1636999130249,67.48575621380255L67.3244665781657,68.79074266042807L68.48523324330647,73.34297519960214L69.64599990844727,76.13933305326296L70.80676657358805,68.94149488993196L71.96753323872885,78.28657372309027L73.12829990386963,71.92857643188006L74.28906656901042,68.96960645197441L75.4498332341512,80.71060189360125L76.610599899292,74.55053651951147L77.77136656443278,68.0371459390262L78.93213322957357,78.02256902703346L80.09289989471435,79.20060259866159L81.25366655985515,80.42888160938938L82.41443322499593,79.04156011038933L83.57519989013672,70.50557976942764L84.7359665552775,79.78496771656788L85.8967332204183,78.07484062022749L87.05749988555908,78.5871924026903L88.21826655069987,83.64828134331097L89.37903321584066,76.48903558100278L90.53979988098145,83.07037658060614L91.70056654612223,78.77447375064446L92.86133321126302,77.94369753126529L94.02209987640381,77.13665171350459L95.1828665415446,79.60519692934054L96.34363320668538,79.4061352456701L97.50439987182617,78.32527220547928L98.66516653696696,82.07390126722578L99.82593320210775,81.76095593287354L100.98669986724853,77.30821180298821L102.14746653238932,74.88948239671882L103.30823319753011,86.9183455377287L104.4689998626709,82.64866602149115L105.62976652781168,81.33724574000573L106.79053319295248,87.35255778585011L107.95129985809326,82.66558599939972L109.11206652323405,86.17865608343538L110.27283318837483,78.98123163743256L111.43359985351563,89.37790566184768L112.59436651865641,80.18208861499818L113.7551331837972,83.6644799679294L114.91589984893798,85.7695957272395L116.07666651407878,76.22651072000443L117.23743317921956,85.9333217078294L118.39819984436035,79.53997280133373L119.55896650950113,88.26514925890945L120.71973317464193,76.70435953811136L121.88049983978271,81.72555658097329L123.0412665049235,83.84731650663986L124.2020331700643,85.37165269822117L125.36279983520508,83.17421432590899L126.52356650034586,82.24384891994319L127.68433316548665,80.94259123333953L128.84509983062745,85.13124580207509L130.00586649576823,86.92817397630694L131.16663316090902,83.83363201040032L132.3273998260498,77.3234822156524L133.4881664911906,83.62506013225024L134.6489331563314,85.20325913751856L135.80969982147215,82.47311196857018L136.97046648661293,86.69550041175668L138.13123315175375,84.39922603055788L139.29199981689453,83.18473759743583L140.45276648203532,85.66506845305636L141.6135331471761,87.73346414745706L142.77429981231688,87.7735204713334L143.9350664774577,88.35154722760936L145.09583314259848,86.02622776834556L146.25659980773926,90.32137742060723L147.41736647288005,90.97206991272878L148.57813313802083,87.66898789308195L149.73889980316162,89.15868321453132L150.8996664683024,84.91225142969606L152.06043313344318,80.6930507315638L153.221199798584,88.58928087332725L154.38196646372478,84.7422295200223L155.54273312886556,86.09880333502988L156.70349979400635,92.07482284283455L157.86426645914713,89.827828560303L159.02503312428792,91.77206131963732L160.1857997894287,89.67769690679137L161.3465664545695,90.25440825412647L162.5073331197103,89.48058181619066L163.66809978485108,84.60935730479108L164.82886644999186,89.40456390917322L165.98963311513265,87.31524366528998L167.15039978027343,89.77494169518502L168.31116644541422,86.67228980883257L169.471933110555,89.35212258579327L170.6326997756958,91.32058432916719L171.7934664408366,89.81760231660152L172.95423310597738,87.28313813981018L174.11499977111816,90.74626511663985L175.27576643625895,91.57052263606616L176.43653310139973,89.43246861255159L177.59729976654052,92.26956171083242L178.75806643168133,93.25552966489087L179.9188330968221,93.63702477808022L181.0795997619629,93.27277849503466L182.24036642710368,91.60904078013263L183.40113309224446,91.38783461126837L184.56189975738525,92.09373184635933L185.72266642252603,91.65944534128158L186.88343308766682,91.02933793827074L188.04419975280763,92.28837524112762L189.2049664179484,94.68615888164123L190.3657330830892,90.74550133080322L191.52649974822998,92.89703299189324L192.68726641337076,93.69898690407643L193.84803307851155,94.46248632101288L195.00879974365233,95.82399291954866L196.16956640879314,95.33815617456702L197.33033307393393,94.96934839277495L198.4910997390747,92.97813750041988L199.6518664042155,92.33449411508218L200.81263306935628,96.58587459565058L201.97339973449706,93.82457132944987L203.13416639963785,93.65050241565567L204.29493306477863,95.29555920197024L205.45569972991944,95.77818168155608L206.61646639506023,96.35593262627992L207.777233060201,96.2008257566936L208.9379997253418,92.24365133713857L210.09876639048258,96.29576857944076L211.25953305562336,95.84857727616503L212.42029972076415,98.43847427086311L213.58106638590496,96.71935147466914L214.74183305104575,97.58317203961897L215.90259971618653,97.32233917641148L217.0633663813273,98.5984449710896L218.2241330464681,97.64904326395958L219.38489971160888,97.9544249969019L220.54566637674967,98.46496278800274L221.70643304189045,98.56292892968654L222.86719970703126,98.4865927785705L224.02796637217205,99.02114208691023L225.18873303731283,98.92789126195393L226.3494997024536,99.0286314313638L227.5102663675944,99.41421598122008L228.67103303273518,99.90398304081936L229.83179969787597,100.34650676398238L230.99256636301678,100.56879496278185L232.15333302815756,100.00206056793766L233.31409969329835,100.9240879785203L234.47486635843913,100.74223269244717L235.6356330235799,100.99650442315533L236.7963996887207,101.58156437401021L237.95716635386148,101.01167936258994L239.11793301900227,101.608243837609L240.27869968414308,101.6448525170839L241.43946634928386,101.59051764131732L242.60023301442465,101.27074066698194L243.76099967956543,101.84688447900788L244.9217663447062,101.30585359919345L246.082533009847,101.9369263426367L247.24329967498778,101.72966987342747L248.4040663401286,101.96386570558266L249.56483300526938,101.96842720432917L250.72559967041016,102.12699232645355L251.88636633555095,101.71742808376823L253.04713300069173,101.97413438183062L254.2078996658325,101.89002246657228" fill="none"></path></g></g></g></g></g></g><g transform="translate(51, 177)" clip-path="url(#clip_1)"><clipPath id="clip_1"><rect width="278" height="22"></rect></clipPath><g><g><line x1="0" y1="0" x2="0" y2="5" style="visibility: inherit;" fill="rgb(0, 0, 0)" stroke="rgb(204, 204, 204)" stroke-width="1px"></line><line x1="23.215333302815754" y1="0" x2="23.215333302815754" y2="5" style="visibility: inherit;" fill="rgb(0, 0, 0)" stroke="rgb(204, 204, 204)" stroke-width="1px"></line><line x1="46.43066660563151" y1="0" x2="46.43066660563151" y2="5" style="visibility: inherit;" fill="rgb(0, 0, 0)" stroke="rgb(204, 204, 204)" stroke-width="1px"></line><line x1="69.64599990844727" y1="0" x2="69.64599990844727" y2="5" style="visibility: inherit;" fill="rgb(0, 0, 0)" stroke="rgb(204, 204, 204)" stroke-width="1px"></line><line x1="92.86133321126302" y1="0" x2="92.86133321126302" y2="5" style="visibility: inherit;" fill="rgb(0, 0, 0)" stroke="rgb(204, 204, 204)" stroke-width="1px"></line><line x1="116.07666651407878" y1="0" x2="116.07666651407878" y2="5" style="visibility: inherit;" fill="rgb(0, 0, 0)" stroke="rgb(204, 204, 204)" stroke-width="1px"></line><line x1="139.29199981689453" y1="0" x2="139.29199981689453" y2="5" style="visibility: inherit;" fill="rgb(0, 0, 0)" stroke="rgb(204, 204, 204)" stroke-width="1px"></line><line x1="162.5073331197103" y1="0" x2="162.5073331197103" y2="5" style="visibility: inherit;" fill="rgb(0, 0, 0)" stroke="rgb(204, 204, 204)" stroke-width="1px"></line><line x1="185.72266642252603" y1="0" x2="185.72266642252603" y2="5" style="visibility: inherit;" fill="rgb(0, 0, 0)" stroke="rgb(204, 204, 204)" stroke-width="1px"></line><line x1="208.9379997253418" y1="0" x2="208.9379997253418" y2="5" style="visibility: inherit;" fill="rgb(0, 0, 0)" stroke="rgb(204, 204, 204)" stroke-width="1px"></line><line x1="232.15333302815756" y1="0" x2="232.15333302815756" y2="5" style="visibility: inherit;" fill="rgb(0, 0, 0)" stroke="rgb(204, 204, 204)" stroke-width="1px"></line><line x1="255.3686663309733" y1="0" x2="255.3686663309733" y2="5" style="visibility: inherit;" fill="rgb(0, 0, 0)" stroke="rgb(204, 204, 204)" stroke-width="1px"></line><line x1="278.58399963378906" y1="0" x2="278.58399963378906" y2="5" style="visibility: inherit;" fill="rgb(0, 0, 0)" stroke="rgb(204, 204, 204)" stroke-width="1px"></line></g><g transform="translate(0, 8)"><text style="text-anchor: middle; visibility: hidden; font-family: &quot;Helvetica Neue&quot;, sans-serif; font-size: 12px; font-weight: 200;" x="0" y="0" dx="0em" dy="0.95em" fill="rgb(50, 49, 63)" stroke="none" stroke-width="1px">-20</text><text style="text-anchor: middle; visibility: inherit; font-family: &quot;Helvetica Neue&quot;, sans-serif; font-size: 12px; font-weight: 200;" x="23.215333302815754" y="0" dx="0em" dy="0.95em" fill="rgb(50, 49, 63)" stroke="none" stroke-width="1px">0</text><text style="text-anchor: middle; visibility: hidden; font-family: &quot;Helvetica Neue&quot;, sans-serif; font-size: 12px; font-weight: 200;" x="46.43066660563151" y="0" dx="0em" dy="0.95em" fill="rgb(50, 49, 63)" stroke="none" stroke-width="1px">20</text><text style="text-anchor: middle; visibility: inherit; font-family: &quot;Helvetica Neue&quot;, sans-serif; font-size: 12px; font-weight: 200;" x="69.64599990844727" y="0" dx="0em" dy="0.95em" fill="rgb(50, 49, 63)" stroke="none" stroke-width="1px">40</text><text style="text-anchor: middle; visibility: hidden; font-family: &quot;Helvetica Neue&quot;, sans-serif; font-size: 12px; font-weight: 200;" x="92.86133321126302" y="0" dx="0em" dy="0.95em" fill="rgb(50, 49, 63)" stroke="none" stroke-width="1px">60</text><text style="text-anchor: middle; visibility: inherit; font-family: &quot;Helvetica Neue&quot;, sans-serif; font-size: 12px; font-weight: 200;" x="116.07666651407878" y="0" dx="0em" dy="0.95em" fill="rgb(50, 49, 63)" stroke="none" stroke-width="1px">80</text><text style="text-anchor: middle; visibility: hidden; font-family: &quot;Helvetica Neue&quot;, sans-serif; font-size: 12px; font-weight: 200;" x="139.29199981689453" y="0" dx="0em" dy="0.95em" fill="rgb(50, 49, 63)" stroke="none" stroke-width="1px">100</text><text style="text-anchor: middle; visibility: inherit; font-family: &quot;Helvetica Neue&quot;, sans-serif; font-size: 12px; font-weight: 200;" x="162.5073331197103" y="0" dx="0em" dy="0.95em" fill="rgb(50, 49, 63)" stroke="none" stroke-width="1px">120</text><text style="text-anchor: middle; visibility: hidden; font-family: &quot;Helvetica Neue&quot;, sans-serif; font-size: 12px; font-weight: 200;" x="185.72266642252603" y="0" dx="0em" dy="0.95em" fill="rgb(50, 49, 63)" stroke="none" stroke-width="1px">140</text><text style="text-anchor: middle; visibility: inherit; font-family: &quot;Helvetica Neue&quot;, sans-serif; font-size: 12px; font-weight: 200;" x="208.9379997253418" y="0" dx="0em" dy="0.95em" fill="rgb(50, 49, 63)" stroke="none" stroke-width="1px">160</text><text style="text-anchor: middle; visibility: hidden; font-family: &quot;Helvetica Neue&quot;, sans-serif; font-size: 12px; font-weight: 200;" x="232.15333302815756" y="0" dx="0em" dy="0.95em" fill="rgb(50, 49, 63)" stroke="none" stroke-width="1px">180</text><text style="text-anchor: middle; visibility: inherit; font-family: &quot;Helvetica Neue&quot;, sans-serif; font-size: 12px; font-weight: 200;" x="255.3686663309733" y="0" dx="0em" dy="0.95em" fill="rgb(50, 49, 63)" stroke="none" stroke-width="1px">200</text><text style="text-anchor: middle; visibility: hidden; font-family: &quot;Helvetica Neue&quot;, sans-serif; font-size: 12px; font-weight: 200;" x="278.58399963378906" y="0" dx="0em" dy="0.95em" fill="rgb(50, 49, 63)" stroke="none" stroke-width="1px">220</text></g><line x1="0" y1="0" x2="278.58399963378906" y2="0" fill="rgb(0, 0, 0)" stroke="rgb(204, 204, 204)" stroke-width="1px"></line></g></g></g></g></svg>