<svg viewBox="0 0 330 200" xmlns="http://www.w3.org/2000/svg"><g><g><g><g><g><line x1="61.77000045776367" y1="177.9749994277954" x2="56.77000045776367" y2="177.9749994277954" style="visibility: inherit;" fill="rgb(0, 0, 0)" stroke="rgb(204, 204, 204)" stroke-width="1px"></line><line x1="61.77000045776367" y1="164.28461485642654" x2="56.77000045776367" y2="164.28461485642654" style="visibility: inherit;" fill="rgb(0, 0, 0)" stroke="rgb(204, 204, 204)" stroke-width="1px"></line><line x1="61.77000045776367" y1="150.59423028505765" x2="56.77000045776367" y2="150.59423028505765" style="visibility: inherit;" fill="rgb(0, 0, 0)" stroke="rgb(204, 204, 204)" stroke-width="1px"></line><line x1="61.77000045776367" y1="136.90384571368878" x2="56.77000045776367" y2="136.90384571368878" style="visibility: inherit;" fill="rgb(0, 0, 0)" stroke="rgb(204, 204, 204)" stroke-width="1px"></line><line x1="61.77000045776367" y1="123.21346114231991" x2="56.77000045776367" y2="123.21346114231991" style="visibility: inherit;" fill="rgb(0, 0, 0)" stroke="rgb(204, 204, 204)" stroke-width="1px"></line><line x1="61.77000045776367" y1="109.52307657095103" x2="56.77000045776367" y2="109.52307657095103" style="visibility: inherit;" fill="rgb(0, 0, 0)" stroke="rgb(204, 204, 204)" stroke-width="1px"></line><line x1="61.77000045776367" y1="95.83269199958215" x2="56.77000045776367" y2="95.83269199958215" style="visibility: inherit;" fill="rgb(0, 0, 0)" stroke="rgb(204, 204, 204)" stroke-width="1px"></line><line x1="61.77000045776367" y1="82.14230742821327" x2="56.77000045776367" y2="82.14230742821327" style="visibility: inherit;" fill="rgb(0, 0, 0)" stroke="rgb(204, 204, 204)" stroke-width="1px"></line><line x1="61.77000045776367" y1="68.4519228568444" x2="56.77000045776367" y2="68.4519228568444" style="visibility: inherit;" fill="rgb(0, 0, 0)" stroke="rgb(204, 204, 204)" stroke-width="1px"></line><line x1="61.77000045776367" y1="54.76153828547551" x2="56.77000045776367" y2="54.76153828547551" style="visibility: inherit;" fill="rgb(0, 0, 0)" stroke="rgb(204, 204, 204)" stroke-width="1px"></line><line x1="61.77000045776367" y1="41.07115371410666" x2="56.77000045776367" y2="41.07115371410666" style="visibility: inherit;" fill="rgb(0, 0, 0)" stroke="rgb(204, 204, 204)" stroke-width="1px"></line><line x1="61.77000045776367" y1="27.38076914273779" x2="56.77000045776367" y2="27.38076914273779" style="visibility: inherit;" fill="rgb(0, 0, 0)" stroke="rgb(204, 204, 204)" stroke-width="1px"></line><line x1="61.77000045776367" y1="13.690384571368895" x2="56.77000045776367" y2="13.690384571368895" style="visibility: inherit;" fill="rgb(0, 0, 0)" stroke="rgb(204, 204, 204)" stroke-width="1px"></line><line x1="61.77000045776367" y1="0" x2="56.77000045776367" y2="0" style="visibility: inherit;" fill="rgb(0, 0, 0)" stroke="rgb(204, 204, 204)" stroke-width="1px"></line></g><g transform="translate(51.77000045776367, 0)"><text style="text-anchor: end; visibility: hidden; font-family: &quot;Helvetica Neue&quot;, sans-serif; font-size: 12px; font-weight: 200;" x="0" y="177.9749994277954" dx="0em" dy="0.3em" fill="rgb(50, 49, 63)" stroke="none" stroke-width="1px">-1e-3</text><text style="text-anchor: end; visibility: inherit; font-family: &quot;Helvetica Neue&quot;, sans-serif; font-size: 12px; font-weight: 200;" x="0" y="164.28461485642654" dx="0em" dy="0.3em" fill="rgb(50, 49, 63)" stroke="none" stroke-width="1px">0</text><text style="text-anchor: end; visibility: hidden; font-family: &quot;Helvetica Neue&quot;, sans-serif; font-size: 12px; font-weight: 200;" x="0" y="150.59423028505765" dx="0em" dy="0.3em" fill="rgb(50, 49, 63)" stroke="none" stroke-width="1px">1e-3</text><text style="text-anchor: end; visibility: inherit; font-family: &quot;Helvetica Neue&quot;, sans-serif; font-size: 12px; font-weight: 200;" x="0" y="136.90384571368878" dx="0em" dy="0.3em" fill="rgb(50, 49, 63)" stroke="none" stroke-width="1px">2e-3</text><text style="text-anchor: end; visibility: hidden; font-family: &quot;Helvetica Neue&quot;, sans-serif; font-size: 12px; font-weight: 200;" x="0" y="123.21346114231991" dx="0em" dy="0.3em" fill="rgb(50, 49, 63)" stroke="none" stroke-width="1px">3e-3</text><text style="text-anchor: end; visibility: inherit; font-family: &quot;Helvetica Neue&quot;, sans-serif; font-size: 12px; font-weight: 200;" x="0" y="109.52307657095103" dx="0em" dy="0.3em" fill="rgb(50, 49, 63)" stroke="none" stroke-width="1px">4e-3</text><text style="text-anchor: end; visibility: hidden; font-family: &quot;Helvetica Neue&quot;, sans-serif; font-size: 12px; font-weight: 200;" x="0" y="95.83269199958215" dx="0em" dy="0.3em" fill="rgb(50, 49, 63)" stroke="none" stroke-width="1px">5e-3</text><text style="text-anchor: end; visibility: inherit; font-family: &quot;Helvetica Neue&quot;, sans-serif; font-size: 12px; font-weight: 200;" x="0" y="82.14230742821327" dx="0em" dy="0.3em" fill="rgb(50, 49, 63)" stroke="none" stroke-width="1px">6e-3</text><text style="text-anchor: end; visibility: hidden; font-family: &quot;Helvetica Neue&quot;, sans-serif; font-size: 12px; font-weight: 200;" x="0" y="68.4519228568444" dx="0em" dy="0.3em" fill="rgb(50, 49, 63)" stroke="none" stroke-width="1px">7e-3</text><text style="text-anchor: end; visibility: inherit; font-family: &quot;Helvetica Neue&quot;, sans-serif; font-size: 12px; font-weight: 200;" x="0" y="54.76153828547551" dx="0em" dy="0.3em" fill="rgb(50, 49, 63)" stroke="none" stroke-width="1px">8e-3</text><text style="text-anchor: end; visibility: hidden; font-family: &quot;Helvetica Neue&quot;, sans-serif; font-size: 12px; font-weight: 200;" x="0" y="41.07115371410666" dx="0em" dy="0.3em" fill="rgb(50, 49, 63)" stroke="none" stroke-width="1px">9e-3</text><text style="text-anchor: end; visibility: inherit; font-family: &quot;Helvetica Neue&quot;, sans-serif; font-size: 12px; font-weight: 200;" x="0" y="27.38076914273779" dx="0em" dy="0.3em" fill="rgb(50, 49, 63)" stroke="none" stroke-width="1px">0.01</text><text style="text-anchor: end; visibility: hidden; font-family: &quot;Helvetica Neue&quot;, sans-serif; font-size: 12px; font-weight: 200;" x="0" y="13.690384571368895" dx="0em" dy="0.3em" fill="rgb(50, 49, 63)" stroke="none" stroke-width="1px">0.011</text><text style="text-anchor: end; visibility: hidden; font-family: &quot;Helvetica Neue&quot;, sans-serif; font-size: 12px; font-weight: 200;" x="0" y="0" dx="0em" dy="0.3em" fill="rgb(50, 49, 63)" stroke="none" stroke-width="1px">0.012</text></g><line x1="61.77000045776367" y1="0" x2="61.77000045776367" y2="177.9749994277954" fill="rgb(0, 0, 0)" stroke="rgb(204, 204, 204)" stroke-width="1px"></line></g></g><g transform="translate(61, 0)" clip-path="url(#clip_0)"><clipPath id="clip_0"><rect width="268" height="177"></rect></clipPath><g><g><g><line x1="0" y1="0" x2="0" y2="177.9749994277954" fill="rgb(0, 0, 0)" stroke="rgb(60, 60, 60)" stroke-width="1px" opacity="0.25"></line><line x1="29.803333282470703" y1="0" x2="29.803333282470703" y2="177.9749994277954" fill="rgb(0, 0, 0)" stroke="rgb(60, 60, 60)" stroke-width="1px" opacity="0.25"></line><line x1="59.606666564941406" y1="0" x2="59.606666564941406" y2="177.9749994277954" fill="rgb(0, 0, 0)" stroke="rgb(60, 60, 60)" stroke-width="1px" opacity="0.25"></line><line x1="89.40999984741211" y1="0" x2="89.40999984741211" y2="177.9749994277954" fill="rgb(0, 0, 0)" stroke="rgb(60, 60, 60)" stroke-width="1px" opacity="0.25"></line><line x1="119.21333312988281" y1="0" x2="119.21333312988281" y2="177.9749994277954" fill="rgb(0, 0, 0)" stroke="rgb(60, 60, 60)" stroke-width="1px" opacity="0.25"></line><line x1="149.01666641235352" y1="0" x2="149.01666641235352" y2="177.9749994277954" fill="rgb(0, 0, 0)" stroke="rgb(60, 60, 60)" stroke-width="1px" opacity="0.25"></line><line x1="178.81999969482422" y1="0" x2="178.81999969482422" y2="177.9749994277954" fill="rgb(0, 0, 0)" stroke="rgb(60, 60, 60)" stroke-width="1px" opacity="0.25"></line><line x1="208.62333297729492" y1="0" x2="208.62333297729492" y2="177.9749994277954" fill="rgb(0, 0, 0)" stroke="rgb(60, 60, 60)" stroke-width="1px" opacity="0.25"></line><line x1="238.42666625976562" y1="0" x2="238.42666625976562" y2="177.9749994277954" fill="rgb(0, 0, 0)" stroke="rgb(60, 60, 60)" stroke-width="1px" opacity="0.25"></line><line x1="268.2299995422363" y1="0" x2="268.2299995422363" y2="177.9749994277954" fill="rgb(0, 0, 0)" stroke="rgb(60, 60, 60)" stroke-width="1px" opacity="0.25"></line></g><g><line x1="0" y1="177.9749994277954" x2="268.2299995422363" y2="177.9749994277954" fill="rgb(0, 0, 0)" stroke="rgb(60, 60, 60)" stroke-width="1px" opacity="0.25"></line><line x1="0" y1="164.28461485642654" x2="268.2299995422363" y2="164.28461485642654" fill="rgb(0, 0, 0)" stroke="rgb(60, 60, 60)" stroke-width="1px" opacity="0.25"></line><line x1="0" y1="150.59423028505765" x2="268.2299995422363" y2="150.59423028505765" fill="rgb(0, 0, 0)" stroke="rgb(60, 60, 60)" stroke-width="1px" opacity="0.25"></line><line x1="0" y1="136.90384571368878" x2="268.2299995422363" y2="136.90384571368878" fill="rgb(0, 0, 0)" stroke="rgb(60, 60, 60)" stroke-width="1px" opacity="0.25"></line><line x1="0" y1="123.21346114231991" x2="268.2299995422363" y2="123.21346114231991" fill="rgb(0, 0, 0)" stroke="rgb(60, 60, 60)" stroke-width="1px" opacity="0.25"></line><line x1="0" y1="109.52307657095103" x2="268.2299995422363" y2="109.52307657095103" fill="rgb(0, 0, 0)" stroke="rgb(60, 60, 60)" stroke-width="1px" opacity="0.25"></line><line x1="0" y1="95.83269199958215" x2="268.2299995422363" y2="95.83269199958215" fill="rgb(0, 0, 0)" stroke="rgb(60, 60, 60)" stroke-width="1px" opacity="0.25"></line><line x1="0" y1="82.14230742821327" x2="268.2299995422363" y2="82.14230742821327" fill="rgb(0, 0, 0)" stroke="rgb(60, 60, 60)" stroke-width="1px" opacity="0.25"></line><line x1="0" y1="68.4519228568444" x2="268.2299995422363" y2="68.4519228568444" fill="rgb(0, 0, 0)" stroke="rgb(60, 60, 60)" stroke-width="1px" opacity="0.25"></line><line x1="0" y1="54.76153828547551" x2="268.2299995422363" y2="54.76153828547551" fill="rgb(0, 0, 0)" stroke="rgb(60, 60, 60)" stroke-width="1px" opacity="0.25"></line><line x1="0" y1="41.07115371410666" x2="268.2299995422363" y2="41.07115371410666" fill="rgb(0, 0, 0)" stroke="rgb(60, 60, 60)" stroke-width="1px" opacity="0.25"></line><line x1="0" y1="27.38076914273779" x2="268.2299995422363" y2="27.38076914273779" fill="rgb(0, 0, 0)" stroke="rgb(60, 60, 60)" stroke-width="1px" opacity="0.25"></line><line x1="0" y1="13.690384571368895" x2="268.2299995422363" y2="13.690384571368895" fill="rgb(0, 0, 0)" stroke="rgb(60, 60, 60)" stroke-width="1px" opacity="0.25"></line><line x1="0" y1="0" x2="268.2299995422363" y2="0" fill="rgb(0, 0, 0)" stroke="rgb(60, 60, 60)" stroke-width="1px" opacity="0.25"></line></g></g></g><g><g><line x1="0" y1="164.28461485642654" x2="268.2299995422363" y2="164.28461485642654" fill="rgb(0, 0, 0)" stroke="rgb(153, 153, 153)" stroke-width="1.5px"></line></g></g><g><g><line x1="29.803333282470703" y1="0" x2="29.803333282470703" y2="177.9749994277954" fill="rgb(0, 0, 0)" stroke="rgb(153, 153, 153)" stroke-width="1.5px"></line></g></g><g><g><g><g><g><path style="fill: none;" stroke="rgb(187, 187, 187)" stroke-width="2px" d="M29.86592028236389,150.59398738167937L30.052191115379333,150.59037908520892L30.144581448554995,150.58698754153L30.509672281265257,150.56320529774385L30.602062614440918,150.55455909264134L30.66613978099823,150.54793856987712L30.676570947647097,150.5468133678859L30.748098947525026,150.53872817000845L30.76747111415863,150.53642835913973L30.867312280654907,150.52383916575633L31.007387947082517,150.50409075517103L31.314362279891967,150.4522884317706L31.789725445747376,150.3490009453044L31.867214112281797,150.32950913177376L31.877645278930665,150.32682840974934L31.9432126121521,150.30966987626846L32.387282278060916,150.1794572305392L32.39175277805328,150.178022837066L32.60037611103058,150.10831928311967L32.65998277759552,150.0874169826737L32.83731261062622,150.02264136719316L33.2411477766037,149.86067603127822L33.36334144306183,149.80771663047605L33.506397442817686,149.7433840832017L33.50788760948181,149.74270035564615L33.804430775642395,149.60129944082573L34.33045960807801,149.3240136509747L34.61657160758973,149.15903130745437L34.6404142742157,149.14483399961046L34.728334107398986,149.09188256766095L35.194756273269654,148.79530737313604L35.1977366065979,148.79332791014298L35.272244939804075,148.74348751825983L35.497260106086735,148.58890771496146L35.69843260574341,148.44554805616482L36.236382771492,148.03836199960762L36.36006660461426,147.93985582471888L36.49716193771362,147.82854051611417L36.52249477100373,147.8077274668176L36.771352603912355,147.5992176564669L37.210951769828796,147.2130008387178L37.45384893608093,146.98984587100537L37.768274102210995,146.69072064363917L37.78913643550873,146.67046541402664L38.3315571012497,146.1260875906077L38.541670600891116,145.90607872591323L38.60574776744842,145.8379721300338L38.729431600570685,145.7051807635938L39.04236660003662,145.36138852347122L39.07067976665497,145.32973305328758L39.785959765434264,144.49989180344966L39.803841765403746,144.47840777676174L40.016935598373415,144.219633631568L40.18383426475525,144.01341885077446L40.4654757642746,143.65842081008492L40.91997659683228,143.06710166336927L40.92444709682464,143.06117283701326L41.42365292930603,142.3854683222675L41.47580876255036,142.31331673679355L41.823017595291134,141.8255448611398L41.99289659500122,141.5821984146359L42.053993428230285,141.49393062160496L42.466769594192506,140.8872427457089L42.48167126083374,140.86500486556227L42.62025676059723,140.65708634407662L43.03303292655945,140.02596118470834L43.11797242641449,139.89390614025126L43.60227659225464,139.12684669896606L43.91223125839233,138.62344630953623L44.040385591506954,138.41249006142837L44.05975775814056,138.38045846140065L44.25496959114074,138.05559543381312L45.299576422691345,136.25368485241398L45.41878975582122,136.04134999280132L45.48286692237854,135.92665907822294L45.60953108882904,135.698807268771L45.867329921722416,135.23039492369426L46.049130254745485,134.89633105886125L46.05360075473786,134.8880785150786L46.144500921249396,134.71986241116142L46.22496992111206,134.57030936010148L46.347163587570186,134.3420750457233L46.987935253143306,133.1230095331541L47.038600919723514,133.02504364647356L47.21593075275421,132.6803684574797L47.32620308589935,132.464635679106L47.63913808536529,131.8466192823125L47.646588918685914,131.8318004039635L47.929720584869386,131.265157606299L48.11748158454895,130.88560753065934L48.992209416389464,129.0785044448871L49.22616558265686,128.58455670844583L49.26640008258819,128.499168858755L50.06512941455841,126.77768950071142L50.09940324783325,126.70271534763624L50.38253491401672,126.07995270221687L50.994993412971496,124.71242109008631L51.10377557945252,124.46666486254739L51.16934291267395,124.31813182462398L51.331771079063415,123.9488488187116L51.616392911911014,123.29728036480873L51.661097911834716,123.19442797769608L51.82650641155243,122.81267212364872L51.966582077980036,122.48792225376853L52.86068207645417,120.38433322462083L53.29432057571411,119.34563472245758L53.81885924148559,118.07383453073032L54.124343407630924,117.32566445771704L54.92307273960114,115.3446076941347L55.23451757240296,114.56280268794472L55.280712738990786,114.44641281398583L55.60854940509797,113.61728238580243L55.64133307170868,113.53407481419092L55.94532707118988,112.7599804698048L55.96618940448761,112.7066911585038L57.298398402214055,109.26272836698534L58.2893592338562,106.6531458837623L58.36833806705475,106.44358418486455L58.90777839946747,105.00652592731603L59.070206565856935,104.57194295542014L59.09106889915466,104.51605898570313L59.205811732292176,104.20848039946803L59.59921573162079,103.15090527919708L59.685645398139954,102.91795977914461L59.699056898117064,102.88178756329081L59.81230956459045,102.57618525250773L59.970267230987545,102.1493607555315L59.982188564300536,102.1171219653354L60.08799039745331,101.83082340316092L60.262339897155755,101.35840431898231L60.40986639690399,100.95807466322714L60.46798289680481,100.80022763035088L60.76750639629364,99.98542838673556L60.77197689628601,99.97325197991837L60.88075906276703,99.67681703719974L61.21604656219482,98.76158475012996L61.31141722869873,98.50083751702527L61.442551895141605,98.14202239592642L61.57219639492035,97.78697494835058L61.87619039440155,96.95329271154547L62.3604945602417,95.62212456773179L62.95209072589874,93.99185669688032L63.078754892349245,93.64230457007747L63.1204795589447,93.52712596171821L64.28280955696106,90.31360007544457L64.29771122360229,90.2723596693187L64.36327855682373,90.09089295724993L64.40202289009095,89.98365770119129L64.50335422325135,89.70317958897708L64.61511672306061,89.39381597975307L64.71346772289276,89.12156172345203L64.88185655593871,88.65543484530932L65.07557822227479,88.11920756435936L65.09197005558015,88.07383610503058L65.12177338886261,87.99134254261463L65.47494288825989,87.01399783061298L65.78638772106171,86.15252661091981L65.9875602207184,85.59635807315092L65.99054055404663,85.58812146707353L66.04716688728332,85.43161957652106L66.49272671985626,84.20108210370704L66.63876305294036,83.79815778953586L66.65068438625336,83.76527511604733L66.90997338581086,83.05046903522137L66.95914888572693,82.91499216544537L67.43451205158233,81.60699106999488L67.5522352180481,81.28356402965113L67.64015505123139,81.04215879564767L68.2675152168274,79.32339841012109L68.31967105007172,79.18083244904632L68.42994338321685,78.87959706950393L68.99918704891205,77.32865434526309L69.73532938098907,75.33444578730177L69.7368195476532,75.33042311049462L70.26731888008118,73.90246209510742L70.27476971340178,73.88246346254955L70.79036737918854,72.50294032098279L70.93640371227264,72.11377980907251L70.98855954551696,71.97497514643864L71.26722071170808,71.23493649064802L71.4028258781433,70.87580899052611L72.1806928768158,68.82917175734771L72.33716037654877,68.42038236764157L72.97346154212951,66.76867509567688L73.01220587539673,66.66867555780543L73.11055687522888,66.41513854255952L73.31769004154206,65.88260880922944L73.41008037471771,65.64572350843719L73.72003504085541,64.85397656170719L73.74387770748139,64.79326027975591L73.9286583738327,64.32369085727744L74.25351470661164,63.502293403685286L74.51578403949736,62.84310353912798L74.55452837276458,62.746030163941924L74.76762220573426,62.21354505618656L74.99561770534515,61.646545253924245L75.20871153831483,61.1191984623441L75.42031520462037,60.59806737581462L75.56039087104797,60.25450145110672L75.58125320434571,60.203430668377635L76.60350753593445,57.73274209893793L76.65864370250702,57.60131340629749L77.03565586853027,56.707820149199776L77.309846534729,56.063796604966086L77.39329586791992,55.86878284342794L77.49462720108032,55.632611551831246L77.7971310338974,54.93167127457983L78.13688903331756,54.151922232368136L78.29633686637878,53.788784805603285L78.467706032753,53.40050405502325L78.62417353248597,53.04782176290772L78.82087553215027,52.60698483546855L78.83279686546325,52.58036249260542L79.02949886512756,52.14253460391899L79.24855336475372,51.658334368013584L79.38266836452483,51.36367807320174L79.53764569759369,51.024880709907066L79.57937036418916,50.93398478927905L80.07708603000641,49.86007670865959L80.09496802997589,49.82185171636854L80.12328119659423,49.76139043770141L80.14861402988434,49.70734249163013L80.22908302974702,49.53599303485919L80.28421919631957,49.418895526786855L80.33935536289215,49.302027521670226L80.52264586257935,48.91528954095918L81.00844019508362,47.903500260353695L81.03973369503021,47.83899717963311L81.25133736133576,47.40491783922337L81.36160969448089,47.180208945248324L81.63580036067962,46.62590830653568L82.45539202594756,45.00769571594142L82.48668552589416,44.947068685139584L82.520959359169,44.88078058143009L82.67891702556611,44.57662541428442L82.81303202533722,44.32013036094261L83.10808502483368,43.76155841722078L83.22431802463531,43.543696361424594L83.37929535770417,43.25513464510345L83.50446935749055,43.023693664427384L83.81591419029236,42.45415657948797L83.85912902355194,42.375845070931746L84.38664802265168,41.434194443626154L84.43135302257538,41.35561518162157L84.59229102230071,41.074321058898164L84.71597485542299,40.85983779661669L84.80091435527801,40.713402160705215L85.24051352119446,39.96684179592302L85.66819135379792,39.25886342802963L86.07798718643188,38.597716413266625L86.24488585281372,38.33334175844519L87.08384968471528,37.04779370216232L87.10769235134124,37.01232274533987L87.502586517334,36.43365654282863L87.6814065170288,36.177046738008954L87.89152001667021,35.879891411012665L88.36092251586915,35.23317758213139L88.9659301815033,34.43494080182032L89.08365334796906,34.2842848615565L89.22819951438903,34.10139650617873L89.27439468097687,34.043447009860245L89.43980318069458,33.83785061203071L89.85108917999267,33.339867448618094L90.15508317947389,32.98401036561515L90.39798034572601,32.70717880036398L90.4039410123825,32.70045946382717L90.45311651229858,32.645264002977285L90.48291984558105,32.61194782390575L90.59170201206207,32.49119101870613L90.95977317810058,32.092620885611495L91.2637671775818,31.77518004736268L91.30400167751313,31.733958766483113L91.40831334400177,31.627966651434605L91.70336634349823,31.335018878626443L91.72720901012421,31.31177532927802L92.59001550865173,30.51583357852411L93.06090817451476,30.118423710372213L93.08773117446898,30.096569928922293L93.40066617393494,29.848043728209547L94.6524061717987,28.971278686550704L94.78503100490569,28.88946088283771L94.83271633815765,28.86056901074582L94.94000833797455,28.796563186429267L94.98024283790589,28.772911631826247L94.98620350456238,28.769430836997884L95.08008400440217,28.71510238731406L95.36023533725738,28.559346381367646L95.47944867038727,28.495978065261426L95.66869983673097,28.398936565485883L95.67913100337982,28.39370899816123L95.74469833660126,28.361196079434706L95.8236771697998,28.322728834023735L96.58664250183107,27.990536055788027L96.80718716812135,27.907851240908997L97.32278483390809,27.737955302857586L97.3361963338852,27.733977251625163L97.41517516708373,27.710975955396663L97.61634766674042,27.655907996188887L97.84136283302307,27.600240779263373L98.8248728313446,27.43065084515294L98.84871549797057,27.428024311326396L98.96643866443634,27.41612840812175L99.09459299755096,27.405125016411546L100.28970666217803,27.384877755651644L100.71291399478912,27.393267363699522L100.79189282798768,27.395332890300978L100.8380879945755,27.39662065688583L100.89173399448396,27.39817617691901L100.94985049438476,27.399948449743704L101.15549349403382,27.40689728923624L101.25235432720184,27.41054383619931L101.28662816047668,27.41189535360519L101.44458582687378,27.418487188499938L101.60105332660676,27.425640030619775L101.66960099315642,27.428980573641866L102.10920015907287,27.45316763514157L102.58903382492066,27.485170547299845L103.22682515716552,27.53673221135088L103.34454832363129,27.54737859846327L103.53230932331086,27.5650758263819L104.3206074886322,27.649137658995244L104.39511582183837,27.6578970218051L104.53370132160187,27.67456148642296L104.55754398822785,27.677468523862018L104.60224898815154,27.682976594799243L104.71103115463256,27.696593770171773L105.24898132038116,27.7682751933406L105.53211298656464,27.80893546699508L105.7705396528244,27.844750678251103L106.00151548576355,27.880808142627018L106.14010098552703,27.90309542965997L106.22206015205383,27.916495852240985L106.99098615074158,28.050487327886913L107.22345215034485,28.093927137338397L107.29348998355866,28.1072765592626L107.7271284828186,28.192689909281825L107.81802864933013,28.21119039754541L108.05198481559754,28.25976852317214L108.30829348182678,28.314555978767373L108.64209081459046,28.388379429522928L108.69126631450654,28.399484822546754L108.91926181411743,28.45179874628596L108.94161431407929,28.45698806311802L109.47956447982789,28.585841222588726L109.83422414588928,28.67473536743634L109.84465531253814,28.677400151755478L109.85061597919464,28.67893017146028L109.85657664585113,28.680447441000837L110.06669014549256,28.734712139863632L110.132257478714,28.751861110721364L110.3796251449585,28.817562706877368L110.43327114486695,28.832008642923313L110.4556236448288,28.83805222075719L110.63146331119538,28.886005588337753L111.30203831005096,29.075919284193333L111.47489764308929,29.12667768789933L111.66861930942535,29.184435931754706L111.7356768093109,29.204657692186174L112.05010197544098,29.300908681780953L112.20805964183808,29.350175316274772L112.57166030788422,29.46594680726966L112.5835816411972,29.46979735686L112.82498864078521,29.548516870670852L112.90396747398376,29.574590956473088L113.7548526391983,29.86512894824625L114.00818097209931,29.95505585639455L114.02904330539702,29.962527452619554L114.15868780517577,30.009231304107914L114.42542763805389,30.106591557988594L114.47460313796996,30.12472229149023L114.74134297084808,30.224135321808177L115.18839297008513,30.39463051757727L115.19733397006988,30.398098562241444L115.464073802948,30.502190902823173L115.8753598022461,30.666068763369083L116.67259896755218,30.995380004494137L116.88867313385009,31.087270437930272L117.06153246688842,31.16157839492564L117.18819663333892,31.216493352162985L117.30442963314056,31.26721350537636L117.3446641330719,31.284846982473937L117.369996966362,31.295977875826196L118.11657046508789,31.630669686246392L118.18660829830169,31.662749099389885L118.36691846466064,31.745867419851976L118.67687313079833,31.890569033431348L118.72157813072205,31.91161955453626L119.48007296276093,32.276108498706975L119.48901396274566,32.280494555194L119.52179762935639,32.29655976209418L119.65591262912751,32.36255461202694L119.92116229534149,32.494314808936736L121.00898396015167,33.051943240507285L121.11478579330445,33.10764870792539L121.35619279289246,33.23573685754374L121.49924879264832,33.312276093275244L121.71681312561036,33.429590354139094L122.40079962444305,33.805528945767264L122.52001295757294,33.87216130391036L122.96259245681763,34.12237052629837L123.00878762340547,34.14873786587739L123.49607212257385,34.429917237122964L123.71959712219238,34.56070842155307L124.01166978836059,34.733307394416244L124.32162445449829,34.91860553082904L124.32311462116242,34.91949804232351L124.44828862094879,34.99494076393327L124.68373495388032,35.13781910403114L124.97282728672027,35.31494438518757L125.15611778640748,35.42822959416219L125.32003611946107,35.53016715699303L125.50928728580475,35.64860343230703L125.93547495174408,35.91825665510996L125.9503766183853,35.92776827760801L126.19774428462982,36.08621456820197L126.49875795078277,36.28084582481395L127.02925728321075,36.628734055187834L127.09929511642457,36.67511915257103L127.33474144935607,36.831869671325535L127.38093661594391,36.862763319197825L127.55975661563873,36.98279336503765L127.62234361553193,37.02497090823272L127.72069461536407,37.09142476407689L128.01574761486054,37.292048597865914L128.22735128116608,37.43708171571467L128.59840278053284,37.69375527135537L129.32709427928924,38.20643937409807L129.56701111221312,38.37773783021217L129.6087357788086,38.407649715440584L129.67579327869416,38.45580708564847L130.3001731109619,38.90875666908377L131.5265802755356,39.82233143480673L131.5534032754898,39.84266794671609L131.69794944190977,39.952485111026505L131.77394794178008,40.010409107016585L132.01386477470396,40.19402422175412L132.51903127384185,40.5845235009061L132.60695110702517,40.653017383023325L132.87965160655975,40.86648063216825L132.9005139398575,40.88287734333781L133.30285893917085,41.200764437333845L133.33415243911745,41.2256272575365L133.69626293849944,41.5147499810827L133.8139861049652,41.60931794900219L133.98833560466767,41.74988850937865L134.80345676994324,42.41512832685194L134.97929643630982,42.560365447327996L135.0925491027832,42.65421940605191L135.4785022687912,42.97600805029512L135.5992057685852,43.0772443540946L136.2429577674866,43.62195686932398L136.43071876716616,43.782353935041556L136.46946310043336,43.81552986230682L136.6423224334717,43.9639290235061L136.87180809974672,44.16181157199071L136.95525743293763,44.23402850205622L137.0312559328079,44.29990860051112L137.06403959941863,44.328354216855786L137.1132150993347,44.371080017111694L137.1504692659378,44.403465434196164L137.53791259860992,44.74191854305727L137.54089293193817,44.74453232671959L137.69288993167876,44.87809029678252L137.69736043167114,44.88203009752232L137.92684609794617,45.084528205449686L138.17272359752653,45.30258151370896L138.39624859714507,45.50180282943526L138.5989112634659,45.683237666093504L138.8522395963669,45.91109585062759L139.05937276268006,46.098293761507165L139.76124126148224,46.7384667561505L139.76869209480284,46.74531359432939L139.83872992801668,46.809701923572106L139.92813992786407,46.89201698368916L139.96241376113892,46.92361189059284L140.3543275938034,47.28641781308832L141.4183065919876,48.285240176695794L141.82065159130096,48.66816585830912L142.26472125720977,49.094097843790905L142.291544257164,49.11992967647325L142.41075759029388,49.23491065728729L142.9487077560425,49.75680037858709L143.2035262556076,50.00574733471866L143.38085608863832,50.179634074166685L143.6982615880966,50.49221709985282L143.77426008796692,50.56731556702901L143.9888440876007,50.77987355451528L144.0588819208145,50.84941295009746L144.23323142051697,51.02287893412665L144.4060907535553,51.19537590567617L144.41652192020416,51.20579278983287L144.84121941947936,51.63175027564306L145.33595475196836,52.13167146401507L145.74128008460997,52.54420302691584L145.8888065843582,52.6949992189859L146.23750558376312,53.05283257744085L146.34628775024413,53.16485552015904L146.4312272500992,53.25246189842177L147.19121224880217,54.04131455787689L147.29254358196258,54.14717917128331L147.40728641510012,54.26724746761579L147.42814874839783,54.28908849890148L147.48626524829862,54.34999603331585L147.5339505815506,54.40001492749789L148.14938941383363,55.0486285308459L148.41612924671173,55.331529174259344L148.97941224575044,55.93244441331089L149.06286157894135,56.02187406505519L149.06882224559783,56.028261897322636L149.16568307876588,56.132188485769674L149.2625439119339,56.23626807618719L149.5978314113617,56.59758222947053L149.62167407798768,56.62333756116762L149.83625807762144,56.855505301203465L149.87500241088867,56.89750434209962L149.93013857746124,56.95728986206382L150.50087240982054,57.57880936647307L150.5291855764389,57.609760390084304L150.6811825761795,57.776124532650485L151.0745865755081,58.20822122252609L151.2429754085541,58.39383173796199L151.2951312417984,58.45140510443636L151.92547174072266,59.15014597836216L153.09376240539552,60.45942846531541L153.1444280719757,60.5166129517815L153.26215123844148,60.64962903986563L153.59892890453338,61.031139453252024L153.67641757106782,61.119128336440966L153.8850409040451,61.356402517241506L154.24715140342713,61.769565213270496L154.62267340278626,62.19978125392565L154.86259023571014,62.47556093062978L155.22321056842802,62.89142666147055L155.27089590168,62.94653924625308L155.58681123447417,63.312335082254975L155.8729232339859,63.644668112296955L155.9995874004364,63.79210463609863L156.1962894001007,64.02144821476276L156.49730306625366,64.37328899604066L156.54498839950563,64.42912196510086L156.60012456607816,64.49371429697091L156.71933789920806,64.63348797208447L156.94435306549073,64.89776700067435L157.22450439834594,65.22761374869607L157.27069956493378,65.28209520035038L157.31987506484984,65.34010844748988L157.48975406455995,65.54073865636099L157.58363456439972,65.65175433610685L157.9353138971329,66.06848707811365L157.97852873039244,66.11979373888053L159.1199963951111,67.48225716073904L159.1393685617447,67.50550071008745L159.24666056156158,67.63429649381924L159.45975439453125,67.89046641797378L160.0334685602188,68.58247520519858L160.11840806007388,68.68521602837441L160.27636572647094,68.87646211638956L160.37322655963897,68.99386562840286L160.44028405952454,69.07519255079391L160.68318122577668,69.37016759971091L161.1421525583267,69.92910929819472L161.94237205696106,70.9084430358126L162.15248555660247,71.16657648525498L162.81859005546568,71.98756593359252L162.9452542219162,72.14413157496604L162.96909688854217,72.17361632969353L163.53834055423735,72.87907654015615L163.56367338752747,72.91053757033565L163.75739505386352,73.15129254596458L163.8780985536575,73.30145760490642L163.97048888683318,73.41648321129522L164.27150255298614,73.79173329405623L164.58890805244445,74.18821877530313L165.51877205085754,75.3543551687102L165.54857538414,75.39184065147725L165.85554971694944,75.77834275415049L166.11483871650694,76.10535259063627L166.33836371612549,76.38764760124991L166.36816704940796,76.42531796139797L166.37263754940034,76.43096628414143L166.49930171585083,76.59112747182118L166.5037722158432,76.59678216964676L167.03874204826354,77.27449802279607L167.07748638153078,77.32365628089417L167.984997879982,78.47801152257445L168.07291771316528,78.59013009152414L168.57659404563904,79.23339500098753L168.72114021205903,79.41829150722785L169.09070154476166,79.89159035273671L169.7314732103348,80.71412894602537L170.44526304244997,81.63309703120764L170.67772904205324,81.93297451826203L171.04729037475585,82.41027691533174L171.20673820781707,82.61641519514005L171.45410587406158,82.9364698170512L171.64335704040528,83.1815279730998L171.84750987339018,83.44607475513803L171.93095920658112,83.55426627351214L171.97864453983306,83.61610456991357L172.08444637298584,83.75334096235007L172.6507097053528,84.48868755771268L172.78333453845977,84.66111440335905L172.81760837173462,84.70568260234283L173.30787320423127,85.34376457005627L173.65657220363616,85.79816767221114L173.7534330368042,85.92447079884056L174.37632270240783,86.73751051979538L174.5819657020569,87.00622660552911L174.68627736854555,87.14258323663535L174.79058903503417,87.2789717431521L174.96940903472898,87.51286713043794L175.03497636795043,87.59865023521915L175.23763903427124,87.86389190120664L175.45520336723328,88.14876882007209L175.53567236709594,88.25416805248497L175.65488570022583,88.4103511889323L175.81880403327943,88.62515958040102L176.0467995328903,88.9240680549757L176.1555816993713,89.06672964228206L176.44169369888306,89.44208810143881L176.5460053653717,89.57898661452383L176.61902353191377,89.67482959886397L177.41179219722747,90.71616100993587L178.08385736274718,91.59988764125143L178.2418150291443,91.8077025676529L178.24479536247253,91.8116232431464L178.6471403617859,92.34112481247743L179.2432070274353,93.1259484200433L179.66343402671814,93.67947129873937L179.69770785999296,93.72461963019454L179.939114859581,94.04267247632525L180.09856269264222,94.25276330703758L180.1864825258255,94.3686176740998L180.19989402580262,94.38628940168998L180.30569585895537,94.52571244728787L180.41745835876466,94.67298959403696L180.5411421918869,94.83598769325265L180.65886535835267,94.99113806639923L180.80937219142913,95.18949874604161L180.8391755247116,95.22877562687967L180.952428191185,95.37804179924497L181.03736769104006,95.48999461606L181.0537595243454,95.51159339422578L181.68559018993378,96.34435761920803L181.71539352321625,96.3836345000461L182.2578141889572,97.0984915815289L182.55882785511017,97.4951428149105L182.6065131883621,97.55797562412003L182.68698218822482,97.66399961457905L182.82109718799592,97.8406913901525L183.1116796875,98.22348957012373L183.15787485408782,98.28433335371707L183.23983402061464,98.39228899405337L183.29198985385895,98.4609805037158L183.3068915205002,98.48060300642959L183.59747402000426,98.86326730967667L183.9789566860199,99.36548990268794L184.06091585254669,99.47336266695689L184.7016875181198,100.31641627445377L185.19195235061648,100.96099445083043L185.27838201713564,101.07457928866388L185.82974368286133,101.79883961624896L185.98472101593018,102.00229398649181L186.00558334922792,102.02968133920734L186.03389651584624,102.06684169278714L186.0949933490753,102.1470274754817L186.11585568237302,102.17440845311513L186.1382081823349,102.20374020587215L186.1575803489685,102.22916403329987L186.2156968488693,102.30542276541885L186.4094185152054,102.55955903838247L186.66572718143462,102.89565974194748L186.9175653476715,103.22572324276071L187.17983468055724,103.56927641730441L187.31693001365662,103.74878597916748L187.4242220134735,103.88922903790188L187.44508434677124,103.91653988963219L188.0739346790314,104.73895098127876L188.1588741788864,104.8499347856141L188.34216467857362,105.08935099400134L188.60443401145935,105.43173115343804L188.7534506778717,105.6261520323406L188.90693784427643,105.82632323530028L189.40465351009368,106.47481571208833L190.38965367507933,107.75526370268862L190.44926034164428,107.83261894892935L190.49843584156037,107.8964207706186L190.7726265077591,108.2519782247627L191.410417840004,109.07767248369244L191.6145706729889,109.34155625719193L192.59212000465394,110.60214586704062L192.59361017131803,110.6040647667537L192.6800398378372,110.71527169896264L192.97807317066193,111.09843325861378L193.0957963371277,111.24964383102056L193.45641666984557,111.71234729007385L193.81554683589934,112.17237958972586L194.00628816890716,112.41639223230955L194.05546366882325,112.47926647955276L194.3445560016632,112.84858773595775L194.4339660015106,112.96270170560578L194.59490400123596,113.16798253687122L194.6485500011444,113.2363744176748L194.67686316776275,113.2724605699202L194.81991916751863,113.45471779216976L195.50092533302308,114.32047306703629L195.56202216625212,114.39799406541171L195.693156832695,114.56428808207477L196.02397383213045,114.98327122806401L196.25196933174132,115.27157475355997L196.5336108312607,115.62720233360719L196.57533549785612,115.67983819899261L197.4023779964447,116.72046835103316L197.69147032928467,117.08298420729295L197.7495868291855,117.15578126982984L198.04612999534606,117.52681742332062L198.67199999427794,118.30757372850462L198.88211349391938,118.56895846981963L199.06987449359895,118.8022195364362L199.29637982654572,119.08321403030078L199.65252965927124,119.52414658397149L200.1174616584778,120.09807610048003L200.3663194913864,120.40448167160812L200.37824082469942,120.41914436044559L200.90426965713502,121.06488598930608L201.31555565643313,121.56797240594236L201.39453448963164,121.66439552275388L201.92652398872374,122.31232061723475L201.94440598869323,122.33405008458364L202.31247715473174,122.78064689870308L202.32290832138062,122.79328231143171L202.48086598777772,122.98450927420053L202.7207828207016,123.27447350858438L202.85489782047273,123.43631134285727L203.33771181964875,124.01739688902668L203.5925303192139,124.32309801358238L203.66554848575592,124.41057370266202L203.7221748189926,124.47836951328895L203.77284048557283,124.53900291917287L203.8294668188095,124.60673497897878L203.88758331871034,124.67621381128095L204.06044265174867,124.88265809503022L204.17667565155028,125.02129063044731L204.19753798484803,125.04615982573206L204.22287081813812,125.07634902703197L204.38380881786347,125.2679839950554L205.09908881664276,126.11623966954853L205.38222048282623,126.45042784848256L205.55507981586456,126.65401290790854L205.88291648197176,127.03917943088113L205.92613131523132,127.08985814606085L206.61309814739226,127.89256067138527L206.99607098007203,128.33762746579993L207.0392858133316,128.38773879867244L207.13018597984313,128.49307109272326L207.5831966457367,129.01650358389202L207.83354464530947,129.30468917036907L208.59203947734832,130.1730454787337L208.6143919773102,130.1985234943593L209.05697147655485,130.70170872476817L209.89593530845642,131.64857098169318L210.39961164093017,132.21254899503856L210.4011018075943,132.21421289146753L210.566510307312,132.3986758921248L210.60823497390746,132.44515024065745L210.65293997383117,132.49491413155533L210.71403680706024,132.56288525694012L210.88689614009857,132.75491548005397L211.3577888059616,133.27594775281085L211.4203758058548,133.34496757920158L211.90915047168733,133.8821001218102L211.95534563827516,133.93269277338155L212.39196447086334,134.40937359994618L212.53054997062682,134.5601060411952L212.5484319705963,134.5795372914459L212.70489947032928,134.7493471658889L213.19516430282593,135.2791228637504L214.00134446811677,136.14260860938816L214.03710846805572,136.1806933498729L214.0862839679718,136.23302639885844L214.73748680019378,136.92259671717872L214.83583780002593,137.02618542627428L214.87756246662138,137.07008742917827L215.37676829910276,137.59326172952183L215.64350813198092,137.87123124692843L215.71652629852292,137.9471297869086L215.7209967985153,137.9517740342208L215.7373886318207,137.9687986909775L215.8029559650421,138.03686066128222L216.13824346446992,138.38385000507958L216.50631463050843,138.76272272824576L218.22596696090696,140.50395687195677L218.588077460289,140.86442951440245L218.95763879299162,141.23006278581073L219.03661762619018,141.30790413206182L219.19904579257965,141.46766368956906L219.39723795890808,141.66199372355166L219.6714286251068,141.92973920303518L219.8621699581146,142.1152397483048L219.94114879131317,142.19186664141523L220.00373579120634,142.25251279746334L220.16616395759584,142.40959003917567L220.17659512424467,142.41966266889878L220.22428045749666,142.465681199061L220.2719657907486,142.51166147873064L220.3628659572601,142.5992009186313L220.38968895721433,142.62500565721473L220.71156495666506,142.93368075757158L220.99767695617678,143.2065390529019L221.15265428924562,143.35373651112468L221.24504462242126,143.44128870118956L221.50433362197876,143.68619226149715L221.81428828811644,143.97738369918588L222.25239728736878,144.3860423997089L222.31200395393373,144.44137651859455L222.50870595359802,144.6235221769073L222.63984062004087,144.74456426703102L222.65772262001036,144.76104544803843L222.66964395332337,144.7720297145023L222.78289661979676,144.87625274426716L222.84697378635408,144.93511865863798L223.03622495269775,145.10854001709245L223.26273028564452,145.31523930412587L223.413237118721,145.45206450376668L223.63080145168303,145.64911510403684L223.77087711811066,145.7755202319799L223.9958922843933,145.97781433727997L224.57258678340912,146.49196789644748L224.90489394950868,146.78540495680704L224.99430394935607,146.86400015651685L225.03155811595917,146.8967043277065L225.74683811473847,147.51949566099532L225.76322994804383,147.5336531245761L226.0284796142578,147.76203565961316L226.06275344753263,147.79144710089645L226.10894861412046,147.83105229846285L226.32055228042603,148.01194525314233L226.34141461372374,148.02973173221037L227.25935727882384,148.80400298512484L227.51268561172483,149.01477754339277L227.8703256111145,149.31018609789277L227.89416827774048,149.32978947536023L228.30247394371034,149.6637513388796L228.46937261009217,149.7993047096408L228.73462227630617,150.01358875060657L228.7823076095581,150.0519619635565L228.889599609375,150.13813554211654L229.2770429420471,150.44738121232163L229.49609744167327,150.6208806655319L230.04596894073487,151.05209520342146L230.06534110736848,151.06717386636615L230.19200527381898,151.1655796337118L230.72101443958283,151.57300077142156L230.75528827285765,151.59919837443957L230.76273910617826,151.60488972898722L230.79254243946076,151.62764558455476L230.95050010585786,151.74794497761343L231.46311743831635,152.13477938144132L231.89228543758392,152.45442201367152L232.2752582702637,152.7363942857537L232.7774444360733,153.10144742469058L232.88324626922608,153.17767587516954L232.9994792690277,153.2611448251473L233.46888176822662,153.59530112867083L233.47633260154723,153.6005669464881L233.4986851015091,153.61635802485782L233.99044010066984,153.96104835467168L234.0381254339218,153.99419639095274L234.33168826675413,154.1971805988905L234.67442659950257,154.43180593307713L234.79811043262484,154.51584943732942L234.82642359924316,154.53504162200124L234.9799107656479,154.63877775487046L235.06485026550294,154.69596463199233L235.39566726493834,154.91719034048322L235.67879893112183,155.10462333251536L236.1079669303894,155.38537079194845L236.14969159698487,155.41244895318198L236.2778459300995,155.4953768180662L236.84559942913054,155.85838993073003L236.87838309574127,155.87913285412347L237.32096259498596,156.15681310217963L237.53703676128387,156.29078943700557L237.60558442783355,156.33307376282585L238.38941209316255,156.80907404937594L238.4490187597275,156.84470438325096L238.46094009304048,156.85182136553397L238.4937237596512,156.87137533611514L238.5086254262924,156.8802550285997L238.6218780927658,156.94757908315097L238.67254375934598,156.97760332920146L238.80218825912476,157.0541656746056L238.8483834257126,157.0813538060054L239.54429125785828,157.48505906773423L239.80805075740815,157.635179899544L239.9004410905838,157.6873874391006L240.2476499233246,157.88183541210208L240.25659092330932,157.88680598392946L241.18794508838653,158.39447688148323L241.24159108829497,158.42310737520887L241.38613725471495,158.4999175519298L241.6737394208908,158.6513018453239L241.69907225418092,158.6645436877376L241.70056242084502,158.66532224463944L242.14612225341796,158.89576432963847L242.1997682533264,158.923197104814L242.52611475276947,159.08862729785204L242.73622825241088,159.1938157541129L243.17433725166322,159.40980592642654L243.4068032512665,159.52257594907866L243.61989708423616,159.62482748470308L243.74805141735078,159.68580394969268L243.76295308399202,159.6928691344336L243.97306658363343,159.79192675392432L244.040124083519,159.8233204472991L244.07737825012205,159.8407152572604L244.26513924980162,159.92788374707118L244.36945091629028,159.9759486785886L244.62128908252717,160.0909236827632L244.72411058235167,160.1374318989195L244.812030415535,160.17700004132115L244.98936024856567,160.25624510096287L245.174140914917,160.33802066975693L246.2947462463379,160.81641519807945L246.78948157882692,161.0180048568071L246.80587341213226,161.02458274620975L246.93700807857513,161.07697297171288L246.99512457847595,161.1000581401153L247.05622141170502,161.12423922497553L247.26633491134643,161.2067080839483L247.83259824371336,161.42363180734742L247.96224274349214,161.47219937424438L248.4048222427368,161.634915376077L249.29892224121096,161.94903997630425L249.38833224105835,161.97937580449252L249.4032339076996,161.98441271701802L249.58950474071503,162.04691461962216L250.44188007259368,162.32204065118938L250.62964107227324,162.38023997103778L250.77716757202148,162.42535782163162L250.9798302383423,162.48646138982068L251.16163057136535,162.54041092056198L251.24806023788452,162.5657723917179L251.35088173770905,162.59570300374997L251.35684240436555,162.59743025255733L251.507349237442,162.64074734167832L251.63550357055666,162.67718900436165L251.6578560705185,162.68350332396358L252.49681990242004,162.9115361259809L252.665208735466,162.9551966726502L252.85595006847382,163.0038002986053L252.87830256843566,163.00943666806984L252.9826142349243,163.03557540118905L253.1584539012909,163.07902387676776L253.2344524011612,163.09756381085188L253.3372739009857,163.1224179649273L253.3432345676422,163.12385066501935L254.1285523996353,163.30485199609458L254.15686556625366,163.31108961548998L254.27607889938355,163.3371335192629L254.4578792324066,163.37616545749327L254.61434673213958,163.4090956452656L254.8810865650177,163.46381900140253L254.90194889831542,163.46802381629757L254.95559489822386,163.4787860506051L255.01669173145294,163.49095513603893L255.15676739788054,163.51850136775374L255.2297855644226,163.5326653558326L255.2536282310486,163.53726129197577L255.37433173084258,163.56030935540812L255.49801556396486,163.58354692811707L255.62766006374358,163.60749173649683L255.6544830636978,163.612393078917L255.85565556335447,163.64857674999644L256.0583182296753,163.68399929603916L256.6350127286911,163.77914067271064L256.6901488952637,163.7877981836228L257.08802339458464,163.84800062399552L257.3949977273941,163.89172031449291L257.45013389396667,163.8993209563252L258.62736555862426,164.04328099345943L258.72720672512054,164.05387854644684L258.8181068916321,164.06330771622282L258.9686137247085,164.07846029027564L259.35456689071657,164.1146964561718L259.4499375572205,164.1230694292398L260.06537638950346,164.1715606072135L260.2784702224731,164.18611357491133L260.7612842216492,164.21482780384628L261.060807721138,164.22967014673083L261.17704072093966,164.23481700140712L261.19045222091677,164.2353888163886L261.6494235534668,164.25220740359686L261.8520862197876,164.25793270670184L261.87443871974943,164.25850035982552L262.2261180524826,164.26576239545977L262.3185083856583,164.26714961394802L262.72979438495634,164.2706962125108L262.85347821807864,164.27092309134827L262.86390938472744,164.27092447188974" fill="none"></path></g></g></g></g></g></g><g transform="translate(61, 177)" clip-path="url(#clip_1)"><clipPath id="clip_1"><rect width="268" height="22"></rect></clipPath><g><g><line x1="0" y1="0" x2="0" y2="5" style="visibility: inherit;" fill="rgb(0, 0, 0)" stroke="rgb(204, 204, 204)" stroke-width="1px"></line><line x1="29.803333282470703" y1="0" x2="29.803333282470703" y2="5" style="visibility: inherit;" fill="rgb(0, 0, 0)" stroke="rgb(204, 204, 204)" stroke-width="1px"></line><line x1="59.606666564941406" y1="0" x2="59.606666564941406" y2="5" style="visibility: inherit;" fill="rgb(0, 0, 0)" stroke="rgb(204, 204, 204)" stroke-width="1px"></line><line x1="89.40999984741211" y1="0" x2="89.40999984741211" y2="5" style="visibility: inherit;" fill="rgb(0, 0, 0)" stroke="rgb(204, 204, 204)" stroke-width="1px"></line><line x1="119.21333312988281" y1="0" x2="119.21333312988281" y2="5" style="visibility: inherit;" fill="rgb(0, 0, 0)" stroke="rgb(204, 204, 204)" stroke-width="1px"></line><line x1="149.01666641235352" y1="0" x2="149.01666641235352" y2="5" style="visibility: inherit;" fill="rgb(0, 0, 0)" stroke="rgb(204, 204, 204)" stroke-width="1px"></line><line x1="178.81999969482422" y1="0" x2="178.81999969482422" y2="5" style="visibility: inherit;" fill="rgb(0, 0, 0)" stroke="rgb(204, 204, 204)" stroke-width="1px"></line><line x1="208.62333297729492" y1="0" x2="208.62333297729492" y2="5" style="visibility: inherit;" fill="rgb(0, 0, 0)" stroke="rgb(204, 204, 204)" stroke-width="1px"></line><line x1="238.42666625976562" y1="0" x2="238.42666625976562" y2="5" style="visibility: inherit;" fill="rgb(0, 0, 0)" stroke="rgb(204, 204, 204)" stroke-width="1px"></line><line x1="268.2299995422363" y1="0" x2="268.2299995422363" y2="5" style="visibility: inherit;" fill="rgb(0, 0, 0)" stroke="rgb(204, 204, 204)" stroke-width="1px"></line></g><g transform="translate(0, 8)"><text style="text-anchor: middle; visibility: hidden; font-family: &quot;Helvetica Neue&quot;, sans-serif; font-size: 12px; font-weight: 200;" x="0" y="0" dx="0em" dy="0.95em" fill="rgb(50, 49, 63)" stroke="none" stroke-width="1px">-20k</text><text style="text-anchor: middle; visibility: inherit; font-family: &quot;Helvetica Neue&quot;, sans-serif; font-size: 12px; font-weight: 200;" x="29.803333282470703" y="0" dx="0em" dy="0.95em" fill="rgb(50, 49, 63)" stroke="none" stroke-width="1px">0</text><text style="text-anchor: middle; visibility: hidden; font-family: &quot;Helvetica Neue&quot;, sans-serif; font-size: 12px; font-weight: 200;" x="59.606666564941406" y="0" dx="0em" dy="0.95em" fill="rgb(50, 49, 63)" stroke="none" stroke-width="1px">20k</text><text style="text-anchor: middle; visibility: inherit; font-family: &quot;Helvetica Neue&quot;, sans-serif; font-size: 12px; font-weight: 200;" x="89.40999984741211" y="0" dx="0em" dy="0.95em" fill="rgb(50, 49, 63)" stroke="none" stroke-width="1px">40k</text><text style="text-anchor: middle; visibility: hidden; font-family: &quot;Helvetica Neue&quot;, sans-serif; font-size: 12px; font-weight: 200;" x="119.21333312988281" y="0" dx="0em" dy="0.95em" fill="rgb(50, 49, 63)" stroke="none" stroke-width="1px">60k</text><text style="text-anchor: middle; visibility: inherit; font-family: &quot;Helvetica Neue&quot;, sans-serif; font-size: 12px; font-weight: 200;" x="149.01666641235352" y="0" dx="0em" dy="0.95em" fill="rgb(50, 49, 63)" stroke="none" stroke-width="1px">80k</text><text style="text-anchor: middle; visibility: hidden; font-family: &quot;Helvetica Neue&quot;, sans-serif; font-size: 12px; font-weight: 200;" x="178.81999969482422" y="0" dx="0em" dy="0.95em" fill="rgb(50, 49, 63)" stroke="none" stroke-width="1px">100k</text><text style="text-anchor: middle; visibility: inherit; font-family: &quot;Helvetica Neue&quot;, sans-serif; font-size: 12px; font-weight: 200;" x="208.62333297729492" y="0" dx="0em" dy="0.95em" fill="rgb(50, 49, 63)" stroke="none" stroke-width="1px">120k</text><text style="text-anchor: middle; visibility: hidden; font-family: &quot;Helvetica Neue&quot;, sans-serif; font-size: 12px; font-weight: 200;" x="238.42666625976562" y="0" dx="0em" dy="0.95em" fill="rgb(50, 49, 63)" stroke="none" stroke-width="1px">140k</text><text style="text-anchor: middle; visibility: hidden; font-family: &quot;Helvetica Neue&quot;, sans-serif; font-size: 12px; font-weight: 200;" x="268.2299995422363" y="0" dx="0em" dy="0.95em" fill="rgb(50, 49, 63)" stroke="none" stroke-width="1px">160k</text></g><line x1="0" y1="0" x2="268.2299995422363" y2="0" fill="rgb(0, 0, 0)" stroke="rgb(204, 204, 204)" stroke-width="1px"></line></g></g></g></g></svg>