<svg viewBox="0 0 330 200" xmlns="http://www.w3.org/2000/svg"><g><g><g><g><g><line x1="51.41600036621094" y1="177.9749994277954" x2="46.41600036621094" y2="177.9749994277954" style="visibility: inherit;" fill="rgb(0, 0, 0)" stroke="rgb(204, 204, 204)" stroke-width="1px"></line><line x1="51.41600036621094" y1="165.26249946866716" x2="46.41600036621094" y2="165.26249946866716" style="visibility: inherit;" fill="rgb(0, 0, 0)" stroke="rgb(204, 204, 204)" stroke-width="1px"></line><line x1="51.41600036621094" y1="152.54999950953894" x2="46.41600036621094" y2="152.54999950953894" style="visibility: inherit;" fill="rgb(0, 0, 0)" stroke="rgb(204, 204, 204)" stroke-width="1px"></line><line x1="51.41600036621094" y1="139.83749955041068" x2="46.41600036621094" y2="139.83749955041068" style="visibility: inherit;" fill="rgb(0, 0, 0)" stroke="rgb(204, 204, 204)" stroke-width="1px"></line><line x1="51.41600036621094" y1="127.12499959128243" x2="46.41600036621094" y2="127.12499959128243" style="visibility: inherit;" fill="rgb(0, 0, 0)" stroke="rgb(204, 204, 204)" stroke-width="1px"></line><line x1="51.41600036621094" y1="114.41249963215421" x2="46.41600036621094" y2="114.41249963215421" style="visibility: inherit;" fill="rgb(0, 0, 0)" stroke="rgb(204, 204, 204)" stroke-width="1px"></line><line x1="51.41600036621094" y1="101.69999967302596" x2="46.41600036621094" y2="101.69999967302596" style="visibility: inherit;" fill="rgb(0, 0, 0)" stroke="rgb(204, 204, 204)" stroke-width="1px"></line><line x1="51.41600036621094" y1="88.9874997138977" x2="46.41600036621094" y2="88.9874997138977" style="visibility: inherit;" fill="rgb(0, 0, 0)" stroke="rgb(204, 204, 204)" stroke-width="1px"></line><line x1="51.41600036621094" y1="76.27499975476945" x2="46.41600036621094" y2="76.27499975476945" style="visibility: inherit;" fill="rgb(0, 0, 0)" stroke="rgb(204, 204, 204)" stroke-width="1px"></line><line x1="51.41600036621094" y1="63.56249979564119" x2="46.41600036621094" y2="63.56249979564119" style="visibility: inherit;" fill="rgb(0, 0, 0)" stroke="rgb(204, 204, 204)" stroke-width="1px"></line><line x1="51.41600036621094" y1="50.84999983651301" x2="46.41600036621094" y2="50.84999983651301" style="visibility: inherit;" fill="rgb(0, 0, 0)" stroke="rgb(204, 204, 204)" stroke-width="1px"></line><line x1="51.41600036621094" y1="38.137499877384755" x2="46.41600036621094" y2="38.137499877384755" style="visibility: inherit;" fill="rgb(0, 0, 0)" stroke="rgb(204, 204, 204)" stroke-width="1px"></line><line x1="51.41600036621094" y1="25.424999918256503" x2="46.41600036621094" y2="25.424999918256503" style="visibility: inherit;" fill="rgb(0, 0, 0)" stroke="rgb(204, 204, 204)" stroke-width="1px"></line><line x1="51.41600036621094" y1="12.712499959128252" x2="46.41600036621094" y2="12.712499959128252" style="visibility: inherit;" fill="rgb(0, 0, 0)" stroke="rgb(204, 204, 204)" stroke-width="1px"></line><line x1="51.41600036621094" y1="0" x2="46.41600036621094" y2="0" style="visibility: inherit;" fill="rgb(0, 0, 0)" stroke="rgb(204, 204, 204)" stroke-width="1px"></line></g><g transform="translate(41.41600036621094, 0)"><text style="text-anchor: end; visibility: hidden; font-family: &quot;Helvetica Neue&quot;, sans-serif; font-size: 12px; font-weight: 200;" x="0" y="177.9749994277954" dx="0em" dy="0.3em" fill="rgb(50, 49, 63)" stroke="none" stroke-width="1px">0.38</text><text style="text-anchor: end; visibility: inherit; font-family: &quot;Helvetica Neue&quot;, sans-serif; font-size: 12px; font-weight: 200;" x="0" y="165.26249946866716" dx="0em" dy="0.3em" fill="rgb(50, 49, 63)" stroke="none" stroke-width="1px">0.4</text><text style="text-anchor: end; visibility: hidden; font-family: &quot;Helvetica Neue&quot;, sans-serif; font-size: 12px; font-weight: 200;" x="0" y="152.54999950953894" dx="0em" dy="0.3em" fill="rgb(50, 49, 63)" stroke="none" stroke-width="1px">0.42</text><text style="text-anchor: end; visibility: inherit; font-family: &quot;Helvetica Neue&quot;, sans-serif; font-size: 12px; font-weight: 200;" x="0" y="139.83749955041068" dx="0em" dy="0.3em" fill="rgb(50, 49, 63)" stroke="none" stroke-width="1px">0.44</text><text style="text-anchor: end; visibility: hidden; font-family: &quot;Helvetica Neue&quot;, sans-serif; font-size: 12px; font-weight: 200;" x="0" y="127.12499959128243" dx="0em" dy="0.3em" fill="rgb(50, 49, 63)" stroke="none" stroke-width="1px">0.46</text><text style="text-anchor: end; visibility: inherit; font-family: &quot;Helvetica Neue&quot;, sans-serif; font-size: 12px; font-weight: 200;" x="0" y="114.41249963215421" dx="0em" dy="0.3em" fill="rgb(50, 49, 63)" stroke="none" stroke-width="1px">0.48</text><text style="text-anchor: end; visibility: hidden; font-family: &quot;Helvetica Neue&quot;, sans-serif; font-size: 12px; font-weight: 200;" x="0" y="101.69999967302596" dx="0em" dy="0.3em" fill="rgb(50, 49, 63)" stroke="none" stroke-width="1px">0.5</text><text style="text-anchor: end; visibility: inherit; font-family: &quot;Helvetica Neue&quot;, sans-serif; font-size: 12px; font-weight: 200;" x="0" y="88.9874997138977" dx="0em" dy="0.3em" fill="rgb(50, 49, 63)" stroke="none" stroke-width="1px">0.52</text><text style="text-anchor: end; visibility: hidden; font-family: &quot;Helvetica Neue&quot;, sans-serif; font-size: 12px; font-weight: 200;" x="0" y="76.27499975476945" dx="0em" dy="0.3em" fill="rgb(50, 49, 63)" stroke="none" stroke-width="1px">0.54</text><text style="text-anchor: end; visibility: inherit; font-family: &quot;Helvetica Neue&quot;, sans-serif; font-size: 12px; font-weight: 200;" x="0" y="63.56249979564119" dx="0em" dy="0.3em" fill="rgb(50, 49, 63)" stroke="none" stroke-width="1px">0.56</text><text style="text-anchor: end; visibility: hidden; font-family: &quot;Helvetica Neue&quot;, sans-serif; font-size: 12px; font-weight: 200;" x="0" y="50.84999983651301" dx="0em" dy="0.3em" fill="rgb(50, 49, 63)" stroke="none" stroke-width="1px">0.58</text><text style="text-anchor: end; visibility: inherit; font-family: &quot;Helvetica Neue&quot;, sans-serif; font-size: 12px; font-weight: 200;" x="0" y="38.137499877384755" dx="0em" dy="0.3em" fill="rgb(50, 49, 63)" stroke="none" stroke-width="1px">0.6</text><text style="text-anchor: end; visibility: hidden; font-family: &quot;Helvetica Neue&quot;, sans-serif; font-size: 12px; font-weight: 200;" x="0" y="25.424999918256503" dx="0em" dy="0.3em" fill="rgb(50, 49, 63)" stroke="none" stroke-width="1px">0.62</text><text style="text-anchor: end; visibility: inherit; font-family: &quot;Helvetica Neue&quot;, sans-serif; font-size: 12px; font-weight: 200;" x="0" y="12.712499959128252" dx="0em" dy="0.3em" fill="rgb(50, 49, 63)" stroke="none" stroke-width="1px">0.64</text><text style="text-anchor: end; visibility: hidden; font-family: &quot;Helvetica Neue&quot;, sans-serif; font-size: 12px; font-weight: 200;" x="0" y="0" dx="0em" dy="0.3em" fill="rgb(50, 49, 63)" stroke="none" stroke-width="1px">0.66</text></g><line x1="51.41600036621094" y1="0" x2="51.41600036621094" y2="177.9749994277954" fill="rgb(0, 0, 0)" stroke="rgb(204, 204, 204)" stroke-width="1px"></line></g></g><g transform="translate(51, 0)" clip-path="url(#clip_0)"><clipPath id="clip_0"><rect width="278" height="177"></rect></clipPath><g><g><g><line x1="0" y1="0" x2="0" y2="177.9749994277954" fill="rgb(0, 0, 0)" stroke="rgb(60, 60, 60)" stroke-width="1px" opacity="0.25"></line><line x1="23.215333302815754" y1="0" x2="23.215333302815754" y2="177.9749994277954" fill="rgb(0, 0, 0)" stroke="rgb(60, 60, 60)" stroke-width="1px" opacity="0.25"></line><line x1="46.43066660563151" y1="0" x2="46.43066660563151" y2="177.9749994277954" fill="rgb(0, 0, 0)" stroke="rgb(60, 60, 60)" stroke-width="1px" opacity="0.25"></line><line x1="69.64599990844727" y1="0" x2="69.64599990844727" y2="177.9749994277954" fill="rgb(0, 0, 0)" stroke="rgb(60, 60, 60)" stroke-width="1px" opacity="0.25"></line><line x1="92.86133321126302" y1="0" x2="92.86133321126302" y2="177.9749994277954" fill="rgb(0, 0, 0)" stroke="rgb(60, 60, 60)" stroke-width="1px" opacity="0.25"></line><line x1="116.07666651407878" y1="0" x2="116.07666651407878" y2="177.9749994277954" fill="rgb(0, 0, 0)" stroke="rgb(60, 60, 60)" stroke-width="1px" opacity="0.25"></line><line x1="139.29199981689453" y1="0" x2="139.29199981689453" y2="177.9749994277954" fill="rgb(0, 0, 0)" stroke="rgb(60, 60, 60)" stroke-width="1px" opacity="0.25"></line><line x1="162.5073331197103" y1="0" x2="162.5073331197103" y2="177.9749994277954" fill="rgb(0, 0, 0)" stroke="rgb(60, 60, 60)" stroke-width="1px" opacity="0.25"></line><line x1="185.72266642252603" y1="0" x2="185.72266642252603" y2="177.9749994277954" fill="rgb(0, 0, 0)" stroke="rgb(60, 60, 60)" stroke-width="1px" opacity="0.25"></line><line x1="208.9379997253418" y1="0" x2="208.9379997253418" y2="177.9749994277954" fill="rgb(0, 0, 0)" stroke="rgb(60, 60, 60)" stroke-width="1px" opacity="0.25"></line><line x1="232.15333302815756" y1="0" x2="232.15333302815756" y2="177.9749994277954" fill="rgb(0, 0, 0)" stroke="rgb(60, 60, 60)" stroke-width="1px" opacity="0.25"></line><line x1="255.3686663309733" y1="0" x2="255.3686663309733" y2="177.9749994277954" fill="rgb(0, 0, 0)" stroke="rgb(60, 60, 60)" stroke-width="1px" opacity="0.25"></line><line x1="278.58399963378906" y1="0" x2="278.58399963378906" y2="177.9749994277954" fill="rgb(0, 0, 0)" stroke="rgb(60, 60, 60)" stroke-width="1px" opacity="0.25"></line></g><g><line x1="0" y1="177.9749994277954" x2="278.58399963378906" y2="177.9749994277954" fill="rgb(0, 0, 0)" stroke="rgb(60, 60, 60)" stroke-width="1px" opacity="0.25"></line><line x1="0" y1="165.26249946866716" x2="278.58399963378906" y2="165.26249946866716" fill="rgb(0, 0, 0)" stroke="rgb(60, 60, 60)" stroke-width="1px" opacity="0.25"></line><line x1="0" y1="152.54999950953894" x2="278.58399963378906" y2="152.54999950953894" fill="rgb(0, 0, 0)" stroke="rgb(60, 60, 60)" stroke-width="1px" opacity="0.25"></line><line x1="0" y1="139.83749955041068" x2="278.58399963378906" y2="139.83749955041068" fill="rgb(0, 0, 0)" stroke="rgb(60, 60, 60)" stroke-width="1px" opacity="0.25"></line><line x1="0" y1="127.12499959128243" x2="278.58399963378906" y2="127.12499959128243" fill="rgb(0, 0, 0)" stroke="rgb(60, 60, 60)" stroke-width="1px" opacity="0.25"></line><line x1="0" y1="114.41249963215421" x2="278.58399963378906" y2="114.41249963215421" fill="rgb(0, 0, 0)" stroke="rgb(60, 60, 60)" stroke-width="1px" opacity="0.25"></line><line x1="0" y1="101.69999967302596" x2="278.58399963378906" y2="101.69999967302596" fill="rgb(0, 0, 0)" stroke="rgb(60, 60, 60)" stroke-width="1px" opacity="0.25"></line><line x1="0" y1="88.9874997138977" x2="278.58399963378906" y2="88.9874997138977" fill="rgb(0, 0, 0)" stroke="rgb(60, 60, 60)" stroke-width="1px" opacity="0.25"></line><line x1="0" y1="76.27499975476945" x2="278.58399963378906" y2="76.27499975476945" fill="rgb(0, 0, 0)" stroke="rgb(60, 60, 60)" stroke-width="1px" opacity="0.25"></line><line x1="0" y1="63.56249979564119" x2="278.58399963378906" y2="63.56249979564119" fill="rgb(0, 0, 0)" stroke="rgb(60, 60, 60)" stroke-width="1px" opacity="0.25"></line><line x1="0" y1="50.84999983651301" x2="278.58399963378906" y2="50.84999983651301" fill="rgb(0, 0, 0)" stroke="rgb(60, 60, 60)" stroke-width="1px" opacity="0.25"></line><line x1="0" y1="38.137499877384755" x2="278.58399963378906" y2="38.137499877384755" fill="rgb(0, 0, 0)" stroke="rgb(60, 60, 60)" stroke-width="1px" opacity="0.25"></line><line x1="0" y1="25.424999918256503" x2="278.58399963378906" y2="25.424999918256503" fill="rgb(0, 0, 0)" stroke="rgb(60, 60, 60)" stroke-width="1px" opacity="0.25"></line><line x1="0" y1="12.712499959128252" x2="278.58399963378906" y2="12.712499959128252" fill="rgb(0, 0, 0)" stroke="rgb(60, 60, 60)" stroke-width="1px" opacity="0.25"></line><line x1="0" y1="0" x2="278.58399963378906" y2="0" fill="rgb(0, 0, 0)" stroke="rgb(60, 60, 60)" stroke-width="1px" opacity="0.25"></line></g></g></g><g><g><line x1="0" y1="419.512498651232" x2="278.58399963378906" y2="419.512498651232" fill="rgb(0, 0, 0)" stroke="rgb(153, 153, 153)" stroke-width="1.5px"></line></g></g><g><g><line x1="23.215333302815754" y1="0" x2="23.215333302815754" y2="177.9749994277954" fill="rgb(0, 0, 0)" stroke="rgb(153, 153, 153)" stroke-width="1.5px"></line></g></g><g><g><g><g><g><path style="fill: none;" stroke="rgb(51, 187, 238)" stroke-width="2px" d="M26.69763329823812,189.6704920251157L27.858399963378908,177.31394505936845L29.019166628519695,167.14394342507296L30.179933293660483,156.14764372049996L31.34069995880127,156.99938237556387L32.50146662394206,150.70669256200534L33.66223328908285,150.33802192826528L34.82299995422363,149.7151159345712L35.983766619364424,143.24445568611452L37.14453328450521,148.9269313837205L38.305299949646,163.13950445280844L39.46606661478678,161.2453458869398L40.626833279927574,147.19803243190734L41.78759994506836,138.37556723794341L42.94836661020915,146.90564566632426L44.10913327534993,150.6685411563763L45.269899940490724,147.87180065207312L46.43066660563151,148.40573089986867L47.5914332707723,148.91422056287786L48.75219993591308,134.625382568734L49.912966601053874,132.84562139044917L51.07373326619466,129.2098530519247L52.23449993133545,123.6926180252731L53.39526659647624,126.4893774726774L54.556033261617024,135.42625899732627L55.716799926757815,122.26881665988569L56.8775665918986,134.42197154904946L58.03833325703939,124.56977832202233L59.199099922180174,129.98530783883166L60.359866587320965,124.26468073559661L61.52063325246175,133.67193840382782L62.68139991760254,116.76431139717783L63.842166582743324,113.2429404462372L65.00293324788412,114.83202036878124L66.1636999130249,119.12884610662884L67.3244665781657,117.38721739087194L68.48523324330647,121.06113713502543L69.64599990844727,123.31125551379151L70.80676657358805,112.49290730101553L71.96753323872885,119.24324349421266L73.12829990386963,109.63259374939803L74.28906656901042,120.92129916265523L75.4498332341512,114.28537930014303L76.610599899292,107.86556233505692L77.77136656443278,111.70474169326594L78.93213322957357,112.30222604527474L80.09289989471435,114.24722789451398L81.25366655985515,110.38264583772079L82.41443322499593,116.96770347376129L83.57519989013672,115.70918066553047L84.7359665552775,113.72602741066217L85.8967332204183,104.17893177006077L87.05749988555908,112.6454560942284L88.21826655069987,127.11228346637148L89.37903321584066,103.36534452062588L90.53979988098145,112.0733933839049L91.70056654612223,104.4331860731159L92.86133321126302,105.17050839749491L94.02209987640381,106.92482899099336L95.1828665415446,107.24265634136283L96.34363320668538,115.3659316734757L97.50439987182617,102.60258161146048L98.66516653696696,104.11537766584753L99.82593320210775,107.16637247320585L100.98669986724853,111.79371743916447L102.14746653238932,112.79800488744125L103.30823319753011,109.31478534212965L104.4689998626709,106.06037951508678L105.62976652781168,109.26394205875907L106.79053319295248,108.88256060417636L107.95129985809326,109.25123123791643L109.11206652323405,111.43777656936815L110.27283318837483,98.83970506450954L111.43359985351563,108.24694378963963L112.59436651865641,101.85254846623882L113.7551331837972,111.75558497663653L114.91589984893798,99.1829161703621L116.07666651407878,97.49216862417799L117.23743317921956,116.85330608617747L118.39819984436035,106.45447179051213L119.55896650950113,101.4965886533414L120.71973317464193,102.86954673535826L121.88049983978271,102.04322972197961L123.0412665049235,111.8572904864788L124.2020331700643,104.94169467922617L125.36279983520508,104.44589689395855L126.52356650034586,100.45418768563778L127.68433316548665,95.40732880256853L128.84509983062745,107.12824001067791L130.00586649576823,103.75941785295012L131.16663316090902,92.61056935516424L132.3273998260498,96.78024899838316L133.4881664911906,112.27680440358945L134.6489331563314,108.3740709411672L135.80969982147215,100.08551705189772L136.97046648661293,95.47086396368066L138.13123315175375,102.08138112760867L139.29199981689453,97.54301190754857L140.45276648203532,99.17022429262056L141.6135331471761,90.27147523049965L142.77429981231688,96.53872445927178L143.9350664774577,88.26290033394606L145.09583314259848,100.61944729969329L146.25659980773926,93.69112172849691L147.41736647288005,99.13207288699151L148.57813313802083,97.63200659654821L149.73889980316162,91.60628190688746L150.8996664683024,97.23791432112286L152.06043313344318,100.63213917743482L153.221199798584,88.96209019579712L154.38196646372478,90.72910266703711L155.54273312886556,94.77167410182957L156.70349979400635,98.77613201719521L157.86426645914713,92.2164770797389L159.02503312428792,90.58926469466691L160.1857997894287,95.05135004657001L161.3465664545695,95.1021933299406L162.5073331197103,89.44513927401991L163.66809978485108,86.38143364581894L164.82886644999186,86.3178605985046L165.98963311513265,88.42815994800156L167.15039978027343,82.82194917545145L168.31116644541422,90.29689687218493L169.471933110555,85.82208175633806L170.6326997756958,87.63997539715086L171.7934664408366,83.52113903730252L172.95423310597738,90.30958874992648L174.11499977111816,82.63126791971065L175.27576643625895,91.58086026520216L176.43653310139973,80.06334113367622L177.59729976654052,75.10543905340437L178.75806643168133,78.71580469334465L179.9188330968221,81.16931514869417L181.0795997619629,79.12258884651155L182.24036642710368,78.38528546523365L183.40113309224446,73.8596270660162L184.56189975738525,75.63936930119995L185.72266642252603,75.8427803208845L186.88343308766682,73.87231894375775L188.04419975280763,68.35510286020725L189.2049664179484,72.58839343694272L190.3657330830892,72.95702618448057L191.52649974822998,71.20270559098212L192.68726641337076,69.76621234785316L193.84803307851155,67.5796480733003L195.00879974365233,66.02873849948641L196.16956640879314,64.2616881420442L197.33033307393393,66.66435531402315L198.4910997390747,68.18984324615175L199.6518664042155,65.92701404654302L200.81263306935628,60.956420088529654L201.97339973449706,62.04970222580607L203.13416639963785,58.935153314234526L204.29493306477863,60.94372821078811L205.45569972991944,54.206083895332526L206.61646639506023,55.045111729553824L207.777233060201,55.70618807197806L208.9379997253418,49.05753844552211L210.09876639048258,53.93913771453586L211.25953305562336,52.23566040440801L212.42029972076415,54.86716023775678L213.58106638590496,48.76513273683793L214.74183305104575,48.39649998930008L215.90259971618653,45.7141568725807L217.0633663813273,46.17178430911821L218.2241330464681,42.752137811120946L219.38489971160888,43.0953868031757L220.54566637674967,47.443055824393895L221.70643304189045,41.951261382528685L222.86719970703126,44.53188004630465L224.02796637217205,37.47644626668185L225.18873303731283,36.739142885403936L226.3494997024536,38.21378753416195L227.5102663675944,38.26463081753255L228.67103303273518,32.51858207261222L229.83179969787597,36.205212637608355L230.99256636301678,31.09478070722477L232.15333302815756,29.84896871983659L233.31409969329835,31.463451340964838L234.47486635843913,26.84879825274777L235.6356330235799,32.5948469976681L236.7963996887207,27.916658748338904L237.95716635386148,25.247007509361055L239.11793301900227,24.446131080768822L240.27869968414308,23.238432612807486L241.43946634928386,23.31473542406556L242.60023301442465,24.026617163658187L243.76099967956543,22.00535038936306L244.9217663447062,23.746941218917755L246.082533009847,22.221453286789142L247.24329967498778,21.865512416992857L248.4040663401286,21.36969568862412L249.56483300526938,21.02648458277156L250.72559967041016,22.34856149521562L251.88636633555095,19.017909686217962L253.04713300069173,21.128171149512724L254.2078996658325,22.08161531441894" fill="none"></path></g><g><path style="fill: none;" stroke="rgb(0, 119, 187)" stroke-width="2px" d="M25.53686663309733,217.82869198249492L26.69763329823812,176.3223684319343L27.858399963378908,169.01268034925633L29.019166628519695,159.6689957283395L30.179933293660483,149.24475873408997L31.34069995880127,147.02006199700918L32.50146662394206,147.78280596307349L33.66223328908285,146.5115533908989L34.82299995422363,147.14718914853674L35.983766619364424,140.21888252044147L37.14453328450521,152.99494340329935L38.305299949646,159.79612287986706L39.46606661478678,163.48275344486322L40.626833279927574,150.32531110742264L41.78759994506836,139.01118405248013L42.94836661020915,149.3083128383032L44.10913327534993,148.9269313837205L45.269899940490724,144.9860654587703L46.43066660563151,152.29575354144828L47.5914332707723,150.0710568043675L48.75219993591308,135.26099938327076L49.912966601053874,137.9941857833607L51.07373326619466,127.88775719637954L52.23449993133545,128.3326927551755L53.39526659647624,133.29055694924511L54.556033261617024,141.29943489377416L55.716799926757815,129.09543672123976L56.8775665918986,141.23588078956092L58.03833325703939,138.62980259789742L59.199099922180174,132.90919443776352L60.359866587320965,129.98530783883166L61.52063325246175,144.28687559691923L62.68139991760254,122.80274690768124L63.842166582743324,127.12499428721412L65.00293324788412,125.9173147623539L66.1636999130249,130.17600803767357L67.3244665781657,127.31569448605603L68.48523324330647,130.36668929341437L69.64599990844727,131.70149596980215L70.80676657358805,125.53593330777119L71.96753323872885,127.69705699753763L73.12829990386963,121.97642989430261L74.28906656901042,130.23956214188678L75.4498332341512,124.26468073559661L76.610599899292,122.23068419735773L77.77136656443278,125.21812490050283L78.93213322957357,128.45981990670305L80.09289989471435,126.80718587994576L81.25366655985515,124.39180788712419L82.41443322499593,130.49381644494193L83.57519989013672,130.11243499035922L84.7359665552775,130.30311624610002L85.8967332204183,120.32381481064644L87.05749988555908,126.93431303147332L88.21826655069987,141.17230774224657L89.37903321584066,119.43394369305456L90.53979988098145,127.56992984601007L91.70056654612223,119.11611634268509L92.86133321126302,119.05256223847186L94.02209987640381,123.05700121073639L95.1828665415446,125.21812490050283L96.34363320668538,130.8116248522103L97.50439987182617,120.57806911370156L98.66516653696696,121.65862148703424L99.82593320210775,126.6800587284182L100.98669986724853,130.43024339762758L102.14746653238932,127.56992984601007L103.30823319753011,126.36225032114983L104.4689998626709,119.87887925185049L105.62976652781168,124.20112663138339L106.79053319295248,131.9557502728573L107.95129985809326,125.98086886656714L109.11206652323405,132.90919443776352L110.27283318837483,116.57363014143704L111.43359985351563,127.12499428721412L112.59436651865641,119.24324349421266L113.7551331837972,128.26911970786114L114.91589984893798,122.80274690768124L116.07666651407878,118.67118078388916L117.23743317921956,133.60836535651347L118.39819984436035,122.73919280346801L119.55896650950113,125.47237920355796L120.71973317464193,121.0230046724975L121.88049983978271,123.94687232832825L123.0412665049235,131.32013345832056L124.2020331700643,121.65862148703424L125.36279983520508,121.2136859282383L126.52356650034586,119.56107084458213L127.68433316548665,120.06956050759129L128.84509983062745,126.93431303147332L130.00586649576823,125.40880615624363L131.16663316090902,113.4590622867644L132.3273998260498,118.22624522509321L133.4881664911906,127.37924859026927L134.6489331563314,128.2055656036479L135.80969982147215,118.60762667967592L136.97046648661293,121.78574863856181L138.13123315175375,122.48493850041288L139.29199981689453,117.27282000328812L140.45276648203532,119.75175210032293L141.6135331471761,113.2683810310236L142.77429981231688,115.55663187231761L143.9350664774577,113.96757089287466L145.09583314259848,120.32381481064644L146.25659980773926,115.3659316734757L147.41736647288005,123.24768246647719L148.57813313802083,121.65862148703424L149.73889980316162,111.48861985273875L150.8996664683024,117.01856570023298L152.06043313344318,123.94687232832825L153.221199798584,109.83600476908258L154.38196646372478,112.56919116917253L155.54273312886556,115.04812326620734L156.70349979400635,119.43394369305456L157.86426645914713,119.05256223847186L159.02503312428792,112.37849097033062L160.1857997894287,118.54405363236158L161.3465664545695,117.01856570023298L162.5073331197103,114.4125064516706L163.66809978485108,112.82344547222766L164.82886644999186,115.23880452194814L165.98963311513265,115.11169631352166L167.15039978027343,109.8995588732958L168.31116644541422,116.38292994259514L169.471933110555,111.48861985273875L170.6326997756958,117.01856570023298L171.7934664408366,108.31049789385285L172.95423310597738,116.95499265291863L174.11499977111816,114.09467910130113L175.27576643625895,118.54405363236158L176.43653310139973,109.00968775570394L177.59729976654052,102.9076791978862L178.75806643168133,105.00524878343941L179.9188330968221,109.3274961629723L181.0795997619629,112.82344547222766L182.24036642710368,110.28094032787851L183.40113309224446,106.27650135561399L184.56189975738525,105.70443864529048L185.72266642252603,108.11981663811206L186.88343308766682,103.92469641010673L188.04419975280763,98.52187771414007L189.2049664179484,105.25950308649455L190.3657330830892,102.7169979421454L191.52649974822998,103.60686905973726L192.68726641337076,105.83156579681805L193.84803307851155,102.01780808029433L195.00879974365233,100.74655550811976L196.16956640879314,100.55587425237896L197.33033307393393,101.69999967302596L198.4910997390747,100.17451174089736L199.6518664042155,100.6829824608054L200.81263306935628,98.33119645839928L201.97339973449706,99.79311134321354L203.13416639963785,97.25060619886439L204.29493306477863,99.41174883173194L205.45569972991944,96.17005382553172L206.61646639506023,91.53001698183157L207.777233060201,94.83524714914391L208.9379997253418,89.62312865201916L210.09876639048258,97.18707103775226L211.25953305562336,93.94537603155206L212.42029972076415,97.44132534080741L213.58106638590496,91.97495254062751L214.74183305104575,94.19963033460718L215.90259971618653,93.62754868118257L217.0633663813273,92.9283588193315L218.2241330464681,90.32231851387023L219.38489971160888,91.84780644599883L220.54566637674967,94.58099284608878L221.70643304189045,93.75469477581126L222.86719970703126,94.51741979877445L224.02796637217205,87.08062350767001L225.18873303731283,88.22474892831701L226.3494997024536,90.95793532840696L227.5102663675944,89.49598255739048L228.67103303273518,84.47454531600651L229.83179969787597,92.67414240247858L230.99256636301678,88.09764071989055L232.15333302815756,85.61867073665351L233.31409969329835,85.3644543198006L234.47486635843913,83.52113903730252L235.6356330235799,87.27130476341081L236.7963996887207,84.2203288991536L237.95716635386148,84.6016914106352L239.11793301900227,83.33041989535951L240.27869968414308,84.0296097572106L241.43946634928386,83.39399294267385L242.60023301442465,84.85594571369032L243.76099967956543,85.30088127248627L244.9217663447062,85.61867073665351L246.082533009847,83.4575659899882L247.24329967498778,85.61867073665351L248.4040663401286,85.11020001674547L249.56483300526938,84.09318280452491L250.72559967041016,84.72879961906166L251.88636633555095,83.0762034785066L253.04713300069173,84.85594571369032L254.2078996658325,84.91948087480246" fill="none"></path></g></g></g></g></g></g><g transform="translate(51, 177)" clip-path="url(#clip_1)"><clipPath id="clip_1"><rect width="278" height="22"></rect></clipPath><g><g><line x1="0" y1="0" x2="0" y2="5" style="visibility: inherit;" fill="rgb(0, 0, 0)" stroke="rgb(204, 204, 204)" stroke-width="1px"></line><line x1="23.215333302815754" y1="0" x2="23.215333302815754" y2="5" style="visibility: inherit;" fill="rgb(0, 0, 0)" stroke="rgb(204, 204, 204)" stroke-width="1px"></line><line x1="46.43066660563151" y1="0" x2="46.43066660563151" y2="5" style="visibility: inherit;" fill="rgb(0, 0, 0)" stroke="rgb(204, 204, 204)" stroke-width="1px"></line><line x1="69.64599990844727" y1="0" x2="69.64599990844727" y2="5" style="visibility: inherit;" fill="rgb(0, 0, 0)" stroke="rgb(204, 204, 204)" stroke-width="1px"></line><line x1="92.86133321126302" y1="0" x2="92.86133321126302" y2="5" style="visibility: inherit;" fill="rgb(0, 0, 0)" stroke="rgb(204, 204, 204)" stroke-width="1px"></line><line x1="116.07666651407878" y1="0" x2="116.07666651407878" y2="5" style="visibility: inherit;" fill="rgb(0, 0, 0)" stroke="rgb(204, 204, 204)" stroke-width="1px"></line><line x1="139.29199981689453" y1="0" x2="139.29199981689453" y2="5" style="visibility: inherit;" fill="rgb(0, 0, 0)" stroke="rgb(204, 204, 204)" stroke-width="1px"></line><line x1="162.5073331197103" y1="0" x2="162.5073331197103" y2="5" style="visibility: inherit;" fill="rgb(0, 0, 0)" stroke="rgb(204, 204, 204)" stroke-width="1px"></line><line x1="185.72266642252603" y1="0" x2="185.72266642252603" y2="5" style="visibility: inherit;" fill="rgb(0, 0, 0)" stroke="rgb(204, 204, 204)" stroke-width="1px"></line><line x1="208.9379997253418" y1="0" x2="208.9379997253418" y2="5" style="visibility: inherit;" fill="rgb(0, 0, 0)" stroke="rgb(204, 204, 204)" stroke-width="1px"></line><line x1="232.15333302815756" y1="0" x2="232.15333302815756" y2="5" style="visibility: inherit;" fill="rgb(0, 0, 0)" stroke="rgb(204, 204, 204)" stroke-width="1px"></line><line x1="255.3686663309733" y1="0" x2="255.3686663309733" y2="5" style="visibility: inherit;" fill="rgb(0, 0, 0)" stroke="rgb(204, 204, 204)" stroke-width="1px"></line><line x1="278.58399963378906" y1="0" x2="278.58399963378906" y2="5" style="visibility: inherit;" fill="rgb(0, 0, 0)" stroke="rgb(204, 204, 204)" stroke-width="1px"></line></g><g transform="translate(0, 8)"><text style="text-anchor: middle; visibility: hidden; font-family: &quot;Helvetica Neue&quot;, sans-serif; font-size: 12px; font-weight: 200;" x="0" y="0" dx="0em" dy="0.95em" fill="rgb(50, 49, 63)" stroke="none" stroke-width="1px">-20</text><text style="text-anchor: middle; visibility: inherit; font-family: &quot;Helvetica Neue&quot;, sans-serif; font-size: 12px; font-weight: 200;" x="23.215333302815754" y="0" dx="0em" dy="0.95em" fill="rgb(50, 49, 63)" stroke="none" stroke-width="1px">0</text><text style="text-anchor: middle; visibility: hidden; font-family: &quot;Helvetica Neue&quot;, sans-serif; font-size: 12px; font-weight: 200;" x="46.43066660563151" y="0" dx="0em" dy="0.95em" fill="rgb(50, 49, 63)" stroke="none" stroke-width="1px">20</text><text style="text-anchor: middle; visibility: inherit; font-family: &quot;Helvetica Neue&quot;, sans-serif; font-size: 12px; font-weight: 200;" x="69.64599990844727" y="0" dx="0em" dy="0.95em" fill="rgb(50, 49, 63)" stroke="none" stroke-width="1px">40</text><text style="text-anchor: middle; visibility: hidden; font-family: &quot;Helvetica Neue&quot;, sans-serif; font-size: 12px; font-weight: 200;" x="92.86133321126302" y="0" dx="0em" dy="0.95em" fill="rgb(50, 49, 63)" stroke="none" stroke-width="1px">60</text><text style="text-anchor: middle; visibility: inherit; font-family: &quot;Helvetica Neue&quot;, sans-serif; font-size: 12px; font-weight: 200;" x="116.07666651407878" y="0" dx="0em" dy="0.95em" fill="rgb(50, 49, 63)" stroke="none" stroke-width="1px">80</text><text style="text-anchor: middle; visibility: hidden; font-family: &quot;Helvetica Neue&quot;, sans-serif; font-size: 12px; font-weight: 200;" x="139.29199981689453" y="0" dx="0em" dy="0.95em" fill="rgb(50, 49, 63)" stroke="none" stroke-width="1px">100</text><text style="text-anchor: middle; visibility: inherit; font-family: &quot;Helvetica Neue&quot;, sans-serif; font-size: 12px; font-weight: 200;" x="162.5073331197103" y="0" dx="0em" dy="0.95em" fill="rgb(50, 49, 63)" stroke="none" stroke-width="1px">120</text><text style="text-anchor: middle; visibility: hidden; font-family: &quot;Helvetica Neue&quot;, sans-serif; font-size: 12px; font-weight: 200;" x="185.72266642252603" y="0" dx="0em" dy="0.95em" fill="rgb(50, 49, 63)" stroke="none" stroke-width="1px">140</text><text style="text-anchor: middle; visibility: inherit; font-family: &quot;Helvetica Neue&quot;, sans-serif; font-size: 12px; font-weight: 200;" x="208.9379997253418" y="0" dx="0em" dy="0.95em" fill="rgb(50, 49, 63)" stroke="none" stroke-width="1px">160</text><text style="text-anchor: middle; visibility: hidden; font-family: &quot;Helvetica Neue&quot;, sans-serif; font-size: 12px; font-weight: 200;" x="232.15333302815756" y="0" dx="0em" dy="0.95em" fill="rgb(50, 49, 63)" stroke="none" stroke-width="1px">180</text><text style="text-anchor: middle; visibility: inherit; font-family: &quot;Helvetica Neue&quot;, sans-serif; font-size: 12px; font-weight: 200;" x="255.3686663309733" y="0" dx="0em" dy="0.95em" fill="rgb(50, 49, 63)" stroke="none" stroke-width="1px">200</text><text style="text-anchor: middle; visibility: hidden; font-family: &quot;Helvetica Neue&quot;, sans-serif; font-size: 12px; font-weight: 200;" x="278.58399963378906" y="0" dx="0em" dy="0.95em" fill="rgb(50, 49, 63)" stroke="none" stroke-width="1px">220</text></g><line x1="0" y1="0" x2="278.58399963378906" y2="0" fill="rgb(0, 0, 0)" stroke="rgb(204, 204, 204)" stroke-width="1px"></line></g></g></g></g></svg>