<svg viewBox="0 0 330 200" xmlns="http://www.w3.org/2000/svg"><g><g><g><g><g><line x1="51.41600036621094" y1="177.9749994277954" x2="46.41600036621094" y2="177.9749994277954" style="visibility: inherit;" fill="rgb(0, 0, 0)" stroke="rgb(204, 204, 204)" stroke-width="1px"></line><line x1="51.41600036621094" y1="158.1999994913737" x2="46.41600036621094" y2="158.1999994913737" style="visibility: inherit;" fill="rgb(0, 0, 0)" stroke="rgb(204, 204, 204)" stroke-width="1px"></line><line x1="51.41600036621094" y1="138.424999554952" x2="46.41600036621094" y2="138.424999554952" style="visibility: inherit;" fill="rgb(0, 0, 0)" stroke="rgb(204, 204, 204)" stroke-width="1px"></line><line x1="51.41600036621094" y1="118.64999961853027" x2="46.41600036621094" y2="118.64999961853027" style="visibility: inherit;" fill="rgb(0, 0, 0)" stroke="rgb(204, 204, 204)" stroke-width="1px"></line><line x1="51.41600036621094" y1="98.87499968210857" x2="46.41600036621094" y2="98.87499968210857" style="visibility: inherit;" fill="rgb(0, 0, 0)" stroke="rgb(204, 204, 204)" stroke-width="1px"></line><line x1="51.41600036621094" y1="79.09999974568684" x2="46.41600036621094" y2="79.09999974568684" style="visibility: inherit;" fill="rgb(0, 0, 0)" stroke="rgb(204, 204, 204)" stroke-width="1px"></line><line x1="51.41600036621094" y1="59.32499980926514" x2="46.41600036621094" y2="59.32499980926514" style="visibility: inherit;" fill="rgb(0, 0, 0)" stroke="rgb(204, 204, 204)" stroke-width="1px"></line><line x1="51.41600036621094" y1="39.549999872843415" x2="46.41600036621094" y2="39.549999872843415" style="visibility: inherit;" fill="rgb(0, 0, 0)" stroke="rgb(204, 204, 204)" stroke-width="1px"></line><line x1="51.41600036621094" y1="19.77499993642172" x2="46.41600036621094" y2="19.77499993642172" style="visibility: inherit;" fill="rgb(0, 0, 0)" stroke="rgb(204, 204, 204)" stroke-width="1px"></line><line x1="51.41600036621094" y1="0" x2="46.41600036621094" y2="0" style="visibility: inherit;" fill="rgb(0, 0, 0)" stroke="rgb(204, 204, 204)" stroke-width="1px"></line></g><g transform="translate(41.41600036621094, 0)"><text style="text-anchor: end; visibility: hidden; font-family: &quot;Helvetica Neue&quot;, sans-serif; font-size: 12px; font-weight: 200;" x="0" y="177.9749994277954" dx="0em" dy="0.3em" fill="rgb(50, 49, 63)" stroke="none" stroke-width="1px">-0.5</text><text style="text-anchor: end; visibility: inherit; font-family: &quot;Helvetica Neue&quot;, sans-serif; font-size: 12px; font-weight: 200;" x="0" y="158.1999994913737" dx="0em" dy="0.3em" fill="rgb(50, 49, 63)" stroke="none" stroke-width="1px">0</text><text style="text-anchor: end; visibility: hidden; font-family: &quot;Helvetica Neue&quot;, sans-serif; font-size: 12px; font-weight: 200;" x="0" y="138.424999554952" dx="0em" dy="0.3em" fill="rgb(50, 49, 63)" stroke="none" stroke-width="1px">0.5</text><text style="text-anchor: end; visibility: inherit; font-family: &quot;Helvetica Neue&quot;, sans-serif; font-size: 12px; font-weight: 200;" x="0" y="118.64999961853027" dx="0em" dy="0.3em" fill="rgb(50, 49, 63)" stroke="none" stroke-width="1px">1</text><text style="text-anchor: end; visibility: hidden; font-family: &quot;Helvetica Neue&quot;, sans-serif; font-size: 12px; font-weight: 200;" x="0" y="98.87499968210857" dx="0em" dy="0.3em" fill="rgb(50, 49, 63)" stroke="none" stroke-width="1px">1.5</text><text style="text-anchor: end; visibility: inherit; font-family: &quot;Helvetica Neue&quot;, sans-serif; font-size: 12px; font-weight: 200;" x="0" y="79.09999974568684" dx="0em" dy="0.3em" fill="rgb(50, 49, 63)" stroke="none" stroke-width="1px">2</text><text style="text-anchor: end; visibility: hidden; font-family: &quot;Helvetica Neue&quot;, sans-serif; font-size: 12px; font-weight: 200;" x="0" y="59.32499980926514" dx="0em" dy="0.3em" fill="rgb(50, 49, 63)" stroke="none" stroke-width="1px">2.5</text><text style="text-anchor: end; visibility: inherit; font-family: &quot;Helvetica Neue&quot;, sans-serif; font-size: 12px; font-weight: 200;" x="0" y="39.549999872843415" dx="0em" dy="0.3em" fill="rgb(50, 49, 63)" stroke="none" stroke-width="1px">3</text><text style="text-anchor: end; visibility: hidden; font-family: &quot;Helvetica Neue&quot;, sans-serif; font-size: 12px; font-weight: 200;" x="0" y="19.77499993642172" dx="0em" dy="0.3em" fill="rgb(50, 49, 63)" stroke="none" stroke-width="1px">3.5</text><text style="text-anchor: end; visibility: hidden; font-family: &quot;Helvetica Neue&quot;, sans-serif; font-size: 12px; font-weight: 200;" x="0" y="0" dx="0em" dy="0.3em" fill="rgb(50, 49, 63)" stroke="none" stroke-width="1px">4</text></g><line x1="51.41600036621094" y1="0" x2="51.41600036621094" y2="177.9749994277954" fill="rgb(0, 0, 0)" stroke="rgb(204, 204, 204)" stroke-width="1px"></line></g></g><g transform="translate(51, 0)" clip-path="url(#clip_0)"><clipPath id="clip_0"><rect width="278" height="177"></rect></clipPath><g><g><g><line x1="0" y1="0" x2="0" y2="177.9749994277954" fill="rgb(0, 0, 0)" stroke="rgb(60, 60, 60)" stroke-width="1px" opacity="0.25"></line><line x1="19.89885711669922" y1="0" x2="19.89885711669922" y2="177.9749994277954" fill="rgb(0, 0, 0)" stroke="rgb(60, 60, 60)" stroke-width="1px" opacity="0.25"></line><line x1="39.79771423339844" y1="0" x2="39.79771423339844" y2="177.9749994277954" fill="rgb(0, 0, 0)" stroke="rgb(60, 60, 60)" stroke-width="1px" opacity="0.25"></line><line x1="59.696571350097656" y1="0" x2="59.696571350097656" y2="177.9749994277954" fill="rgb(0, 0, 0)" stroke="rgb(60, 60, 60)" stroke-width="1px" opacity="0.25"></line><line x1="79.59542846679688" y1="0" x2="79.59542846679688" y2="177.9749994277954" fill="rgb(0, 0, 0)" stroke="rgb(60, 60, 60)" stroke-width="1px" opacity="0.25"></line><line x1="99.4942855834961" y1="0" x2="99.4942855834961" y2="177.9749994277954" fill="rgb(0, 0, 0)" stroke="rgb(60, 60, 60)" stroke-width="1px" opacity="0.25"></line><line x1="119.39314270019531" y1="0" x2="119.39314270019531" y2="177.9749994277954" fill="rgb(0, 0, 0)" stroke="rgb(60, 60, 60)" stroke-width="1px" opacity="0.25"></line><line x1="139.29199981689453" y1="0" x2="139.29199981689453" y2="177.9749994277954" fill="rgb(0, 0, 0)" stroke="rgb(60, 60, 60)" stroke-width="1px" opacity="0.25"></line><line x1="159.19085693359375" y1="0" x2="159.19085693359375" y2="177.9749994277954" fill="rgb(0, 0, 0)" stroke="rgb(60, 60, 60)" stroke-width="1px" opacity="0.25"></line><line x1="179.08971405029297" y1="0" x2="179.08971405029297" y2="177.9749994277954" fill="rgb(0, 0, 0)" stroke="rgb(60, 60, 60)" stroke-width="1px" opacity="0.25"></line><line x1="198.9885711669922" y1="0" x2="198.9885711669922" y2="177.9749994277954" fill="rgb(0, 0, 0)" stroke="rgb(60, 60, 60)" stroke-width="1px" opacity="0.25"></line><line x1="218.8874282836914" y1="0" x2="218.8874282836914" y2="177.9749994277954" fill="rgb(0, 0, 0)" stroke="rgb(60, 60, 60)" stroke-width="1px" opacity="0.25"></line><line x1="238.78628540039062" y1="0" x2="238.78628540039062" y2="177.9749994277954" fill="rgb(0, 0, 0)" stroke="rgb(60, 60, 60)" stroke-width="1px" opacity="0.25"></line><line x1="258.68514251708984" y1="0" x2="258.68514251708984" y2="177.9749994277954" fill="rgb(0, 0, 0)" stroke="rgb(60, 60, 60)" stroke-width="1px" opacity="0.25"></line><line x1="278.58399963378906" y1="0" x2="278.58399963378906" y2="177.9749994277954" fill="rgb(0, 0, 0)" stroke="rgb(60, 60, 60)" stroke-width="1px" opacity="0.25"></line></g><g><line x1="0" y1="177.9749994277954" x2="278.58399963378906" y2="177.9749994277954" fill="rgb(0, 0, 0)" stroke="rgb(60, 60, 60)" stroke-width="1px" opacity="0.25"></line><line x1="0" y1="158.1999994913737" x2="278.58399963378906" y2="158.1999994913737" fill="rgb(0, 0, 0)" stroke="rgb(60, 60, 60)" stroke-width="1px" opacity="0.25"></line><line x1="0" y1="138.424999554952" x2="278.58399963378906" y2="138.424999554952" fill="rgb(0, 0, 0)" stroke="rgb(60, 60, 60)" stroke-width="1px" opacity="0.25"></line><line x1="0" y1="118.64999961853027" x2="278.58399963378906" y2="118.64999961853027" fill="rgb(0, 0, 0)" stroke="rgb(60, 60, 60)" stroke-width="1px" opacity="0.25"></line><line x1="0" y1="98.87499968210857" x2="278.58399963378906" y2="98.87499968210857" fill="rgb(0, 0, 0)" stroke="rgb(60, 60, 60)" stroke-width="1px" opacity="0.25"></line><line x1="0" y1="79.09999974568684" x2="278.58399963378906" y2="79.09999974568684" fill="rgb(0, 0, 0)" stroke="rgb(60, 60, 60)" stroke-width="1px" opacity="0.25"></line><line x1="0" y1="59.32499980926514" x2="278.58399963378906" y2="59.32499980926514" fill="rgb(0, 0, 0)" stroke="rgb(60, 60, 60)" stroke-width="1px" opacity="0.25"></line><line x1="0" y1="39.549999872843415" x2="278.58399963378906" y2="39.549999872843415" fill="rgb(0, 0, 0)" stroke="rgb(60, 60, 60)" stroke-width="1px" opacity="0.25"></line><line x1="0" y1="19.77499993642172" x2="278.58399963378906" y2="19.77499993642172" fill="rgb(0, 0, 0)" stroke="rgb(60, 60, 60)" stroke-width="1px" opacity="0.25"></line><line x1="0" y1="0" x2="278.58399963378906" y2="0" fill="rgb(0, 0, 0)" stroke="rgb(60, 60, 60)" stroke-width="1px" opacity="0.25"></line></g></g></g><g><g><line x1="0" y1="158.1999994913737" x2="278.58399963378906" y2="158.1999994913737" fill="rgb(0, 0, 0)" stroke="rgb(153, 153, 153)" stroke-width="1.5px"></line></g></g><g><g><line x1="19.89885711669922" y1="0" x2="19.89885711669922" y2="177.9749994277954" fill="rgb(0, 0, 0)" stroke="rgb(153, 153, 153)" stroke-width="1.5px"></line></g></g><g><g><g><g><g><path style="fill: none;" stroke="rgb(0, 153, 136)" stroke-width="2px" d="M20.257036544799806,-28.17702131748956L20.716700144195556,2.8384356169041496L20.776396715545655,-5.048058612806017L21.293767000579834,-0.8227576467764663L21.35346357192993,5.85260798241552L21.733531742858887,6.955401577044995L22.92945305557251,10.875254214607907L22.989149626922604,9.188833946249048L23.150330369567868,16.750624900845793L23.46871208343506,8.578899093702603L24.366150539398195,9.497101681692897L24.46564482498169,7.144066108146177L24.865611853027342,19.243480429768766L24.96510613861084,15.122290073889559L25.104398138427737,18.12664637698208L25.22379128112793,20.907175712124314L25.902342308807373,27.720098227547027L25.942140023040775,22.45267277889843L26.101330879974366,14.089566757679364L26.660488764953612,18.678995549228915L27.040556935882567,28.21380562055961L28.097186248779295,13.72773971912406L28.117085105895995,11.161985075349861L28.497153276824953,22.23874673845998L28.556849848175048,14.559238470475208L28.855332704925534,16.295559413493578L28.915029276275636,22.596811424560798L28.934928133392333,18.743351578055666L29.133916704559326,21.919984019853615L29.494086018371583,22.06873366890008L30.331827902984617,14.670062852424053L30.85118807373047,23.178552207335542L31.169569787597656,20.369131022768357L31.30886178741455,21.721031953594917L31.32876064453125,25.58869255898844L31.967513957977296,18.875345085970224L32.246097957611084,20.33941881077817L32.36748098602295,22.613501559509274L32.38737984313965,33.011238754950085L32.42717755737305,22.426308023352703L32.486874128723144,16.510692424143002L32.52667184295654,26.79288108079359L32.76545812835693,17.646649411209637L32.964446699523926,29.63996350772473L33.802188584136964,12.518695028110727L33.94347046966553,24.335310571631766L34.10266132659912,20.804743544923582L34.540436183166506,25.673312486122683L34.6200316116333,26.945091339741793L34.781212354278566,26.954652806881768L34.86080778274536,24.41422567862824L34.90060549697876,22.65087991823006L35.17918949661255,25.842561769845958L35.218987210845945,24.72802850402391L35.31848149642944,13.158558970107151L35.35827921066284,28.05489101926773L35.49956109619141,19.030186162800106L35.618954238891604,26.65875651610031L35.6388530960083,23.248537620661864L36.09652680969238,22.37041021545747L36.17612223815918,23.42021970371661L37.55312315063477,31.785117321342568L37.59292086486816,18.41234942715377L38.231674178314215,35.5836883116132L38.2913707496643,18.565757226858153L38.611742349243166,23.172903963926416L38.79083206329346,26.359277032505048L38.81073092041016,25.822590184636425L38.93012406311035,19.592285391282388L38.950022920227056,26.21680740033753L39.049517205810545,18.79885334885043L39.38978766250611,29.633212018107173L39.4494842338562,26.519370315643613L39.62857394790649,22.150034427954182L40.585708975219724,17.421558896319766L40.645405546569826,42.16983243974164L40.764798689270016,19.18500838072046L40.88419183197022,24.44583321102786L40.965777146148675,28.746428373421026L41.164765717315674,23.43541998481092L41.28415886001587,27.257310016735573L41.38365314559936,26.694145259863944L42.4004847442627,26.49313757246469L42.48207005844117,39.39161332101881L42.50196891555786,29.001004793386528L42.860148343658445,25.270080711658466L43.11883348617554,36.53126365122185L43.3596096572876,36.35473482841371L44.09785725631714,26.109217321375894L44.37644125595093,38.81489843763816L44.436137827301025,26.687506923703637L44.81620599822998,28.831453767110503L44.93559914093017,27.16520310251144L45.07489114074707,34.210967144647526L45.51266599731446,31.816328816641686L45.57236256866455,16.265055127302418L45.77334102554321,35.40310482325262L45.83303759689331,32.529157879672766L45.89273416824341,34.69540538361812L45.9126330253601,39.1241468363784L46.84986919555664,30.32672012830804L46.96926233825683,34.778535456898226L46.98916119537354,32.731702568200035L47.409027080535886,36.710489298095126L47.64781336593628,30.104797910221947L47.84680193710327,34.02215174226998L48.425858679199216,23.69481485616552L48.64474610748291,24.92728231283536L48.78602799301147,25.833452916535094L48.90542113571167,37.92186306443742L49.524275592041015,40.11288174607185L49.60387102050781,27.191737588243086L50.10134244842529,35.276721840928076L50.40181519088745,26.588403354037837L50.421714048004155,22.0707987194954L50.72019690475464,21.09543477667026L50.79979233322144,38.747468406555384L51.120163932800295,35.75672823615528L51.798714960479735,36.921265900639355L51.95790581741333,31.662930446392096L52.35588295974731,23.009830973079573L52.61655798797608,27.968884962281805L52.795647702026365,37.77661174311183L52.87524313049316,37.30674201176575L52.91504084472656,38.73354110185542L52.954838558959956,24.155688887658016L53.01453513031006,32.04529483744332L53.15382713012695,34.076569125765815L53.33291684417724,32.71623826237206L53.59359187240601,19.953518374186984L53.6333895866394,41.11098953380983L53.693086157989505,47.15866464711749L53.792580443573,29.53553229611211L53.85227701492309,29.72425340394193L53.8721758720398,35.74797770212581L54.25224404296875,34.362272175937505L54.43133375701904,28.301367537583104L54.55072689971924,43.27932094726006L54.70991775665283,32.0716124457152L54.88900747070313,32.985430337235954L55.01039049911499,36.772054208309015L55.42826649856567,42.32919022540787L55.68894152679443,30.419826564738145L55.768536955261226,36.71223374722817L55.947626669311525,34.28020763104678L56.20631181182861,40.42195098517141L56.266008383178715,46.437443369338325L56.385401525878905,48.37827032747677L56.425199240112306,31.15820002074966L57.20324455337524,43.99263091248454L57.5236161529541,26.071471213918954L57.72260472412109,38.01667623218145L57.78230129547119,35.50539554863175L58.16236946640014,45.447322329793224L58.44095346603393,33.97394836946964L58.48075118026733,36.821596563687166L58.82102163696289,36.04541099403528L58.90061706542969,32.77017474367449L59.05980792236328,36.63102728272179L59.39808849334717,42.754062598576496L59.517481636047364,44.83277647386271L59.97714523544312,36.80938541975593L60.235830377960205,36.19876221701102L60.2955269493103,36.57005642815861L60.31542580642701,31.593058186523052L60.456707691955565,40.60504270850166L60.53630312042236,47.16824497316702L60.67559512023926,36.250671365537215L60.97407797698975,35.153969198691215L61.63273014755249,45.57197029243949L61.71232557601928,45.0044396980079L61.85161757583618,37.37667084836343L62.012798318481444,38.313845499357285L62.45057317504883,33.57873163156259L62.490370889282225,45.77548621480841L62.53016860351563,46.60701325452388L62.689359460449225,39.4611178321517L62.83064134597778,39.606538883663234L62.91023677444458,40.146120574147204L63.30821391677857,42.761540156211595L63.407708202362066,40.717488956671474L63.42760705947876,27.953382938634746L63.467404773712154,38.74650660216852L63.50919237365723,39.55382823148133L63.74797865905762,42.633488160392204L63.80767523040771,28.825051167319543L63.90716951599121,32.51389159239503L64.26733882980346,38.85976378344881L64.46632740097046,33.05468968254476L64.58572054367066,48.230784225369916L64.70511368637085,35.45745620056505L64.78470911483765,41.84976845637661L65.02349540023803,45.95390092857119L65.52295671386719,43.72027054081687L65.70204642791748,48.54002319465539L66.38059745559693,47.75742559575778L66.40049631271363,46.24280056391095L66.44029402694703,37.872858187981365L67.29793476867675,49.837252146707215L67.43921665420532,41.854039999388846L67.61830636825562,52.10324442324297L67.65810408248902,51.13590494642979L67.75759836807251,41.26530256117243L68.23716082458496,41.694437047898504L68.25705968170166,42.01323748432392L68.45604825286865,47.392269959667516L68.49584596710206,42.30824740635671L68.59534025268555,36.103109827792196L68.87392425231934,50.530232207440804L68.9754084236145,31.37035332369078L69.15449813766479,41.02924559038138L69.45298099441528,38.801489752950744L69.53257642288209,39.53670434161327L69.57237413711547,47.32175649687392L70.05193659362794,41.29312888220798L70.47180247879028,41.405801437292354L70.59119562149048,39.26435339940039L70.92947619247437,50.62728958542084L71.04886933517457,38.14093758718204L71.5483306488037,41.73402189903618L72.0060043624878,47.60621485901552L72.12738739089966,43.731001260348734L72.22688167648316,41.29826793505936L72.48556681900025,46.938741473443315L72.62485881881715,48.973391506574586L72.90543270416259,37.50880579809959L73.144218989563,46.09291938029173L73.20391556091307,43.54381715364693L73.48249956054687,47.21972979622842L74.16105058822632,54.705641928265635L74.18094944534302,35.0793444936165L74.2008483024597,41.621019313034736L74.83960161590576,48.03435925299041L75.77683778610229,49.0558143707467L75.93801852874755,49.574632401820196L76.11710824279785,47.077505329884985L76.23650138549806,44.723130773760516L76.65437738494873,38.19080054402244L76.6961649848938,40.83616807444636L77.61350229797364,41.55811542024307L77.77269315490723,54.41518643288828L78.23036686859132,39.20175124916145L78.47114303970338,46.22604442277907L78.78952475357055,48.32133527955648L78.84922132492065,43.153135983485754L79.00841218185424,40.770020449212694L79.05019978179932,44.29317592446918L79.52777235260011,50.09253577578072L79.6073677810669,35.67539918873686L79.64716549530029,51.24952044699148L80.18642452316284,45.442239853670486L80.6261892654419,45.68634957883782L80.92467212219239,52.641213676960746L81.28285155029297,46.95796813172578L81.38433572158813,41.68735552736385L81.70271743545533,55.5824774981661L82.06089686355591,46.410503417051444L82.08079572067261,45.33078369825185L82.73944789123534,45.15985597157896L82.92052749099732,49.093654772751364L82.9802240623474,50.903412309543L83.00012291946412,59.22609425814956L83.0399206336975,40.81681883325186L83.05981949081422,43.506335070923654L83.5572909187317,42.01980981430083L84.19604423217773,45.47641219776838L84.35523508911133,49.244064005837885L84.61591011734008,36.4995712537293L84.63580897445678,56.52440459436562L84.97408954544066,47.973520410794066L85.57304514465332,18.48291946667601L86.09240531539918,40.944107043234595L86.19189960098267,51.70147421426857L86.62967445755004,36.6696503294726L86.78886531448364,51.470047105771144L86.9898437713623,50.633692185211814L87.0296414855957,46.22400766054807L87.1689334854126,44.665290498182L87.2883266281128,52.717224511887096L87.54701177062988,51.23328292587212L87.58879937057495,49.6172723963044L87.92707994155883,43.867077722180056L88.16586622695924,52.50823950574977L88.22556279830933,41.74648763824629L88.70512525482178,42.36382461278967L88.82451839752197,46.083584220066314L89.20458656845092,41.44962011362318L89.54286713943482,52.15883105913069L89.92293531036377,54.28944465348832L90.28111473846435,46.55655624203277L90.32091245269775,47.34729146039959L90.36071016693114,47.80184775719408L90.42040673828124,47.97328467442472L90.48010330963135,46.43312467905221L90.8004749092102,48.066457117038226L91.01936233749389,33.943283782547354L91.29794633712768,52.721005723251125L92.37646439285278,42.26783276319898L92.45605982131957,46.173503500783085L92.61525067825318,45.845301897948815L92.67494724960326,40.18364037468959L93.27390284881592,46.5767352752473L93.43309370574951,31.153485293363104L93.69177884826661,45.378930494323555L93.7912731338501,49.9171573464549L94.09174587631226,47.366018357579065L94.19124016189576,47.1433512125659L94.23103787612915,44.841055535153515L94.43002644729614,38.9220736205898L94.50962187576293,45.579683586443934L95.06877976074219,49.085875472563515L95.16827404632568,49.331371327582474L95.30756604614257,49.7030615758305L96.30648867340088,59.160040927463655L96.44578067321777,45.71094159688619L96.52537610168457,41.16420937654948L96.74426352996826,42.543814045499545L96.86365667266845,48.57663776753952L96.96514084396362,40.11857713675485L97.402915700531,46.294426828793945L97.70338844299316,41.90738242504054L97.88247815704347,55.12798720755502L97.90237701416015,38.97621754989723L98.14116329956056,36.990138638302454L98.36005072784424,52.1563322536158L98.41974729919433,46.15600243272411L99.51816421203614,45.5207306352022L99.61765849761963,48.27933648799686L99.63755735473633,54.58899957272176L99.83654592590332,43.52757963252756L101.2533445526123,54.7077918439539L101.472231980896,44.18036192756321L101.4921308380127,55.166006769200365L101.5319285522461,49.77953445404077L101.57172626647949,48.56843414188688L101.61351386642457,45.42001462877019L101.63341272354126,49.27580355060431L102.13088415145874,50.65032574343165L102.23037843704223,50.69997182281229L102.29007500839234,44.50814863438745L102.43135689392089,46.54324185189307L102.82933403625489,55.51091736589267L102.88903060760498,53.711362499165574L102.90892946472168,48.29816710917885L103.18950335006714,44.79997140070691L103.50788506393432,50.63091049605373L103.62727820663453,42.50286192341977L103.70687363510132,47.50868600829685L103.88596334915162,38.57851143593007L103.92576106338501,40.36505365507023L104.16653723449707,44.14063563460391L104.38542466278075,43.715414371608716L104.8848859764099,51.99128850672135L105.06397569046021,48.24056256996968L105.3624585472107,55.321894515510095L105.48384157562256,46.723325579150696L105.60323471832275,58.038086680735134L105.68283014678954,45.56518108500282L106.08080728912354,38.41036539841525L106.14050386047363,47.07488394145807L106.95834688796997,49.371870835833164L107.27871848754883,50.48214198809774L107.61699905853271,48.30976533854982L107.63689791564941,40.39339859611832L107.99706722946168,47.899103153724354L108.01696608657838,52.372002743187295L108.07666265792847,53.1040678939556L108.25575237197876,46.1783030932626L108.47463980026245,41.23041357851176L108.9542022567749,51.20185455311321L109.01389882812501,50.89882016506847L109.23278625640869,45.669687732253664L109.29248282775879,48.44441795271041L109.33228054199218,45.62719860904585L109.37207825622559,41.8288727845993L109.93123614120483,43.75020905972164L110.47049516906738,50.45364617577329L110.62968602600097,37.19166494571422L110.70928145446777,54.4007405081758L110.86847231140138,44.52420699586614L111.06945076828002,45.13216166291022L111.58682105331421,40.50399667115258L111.6863153388977,40.71604625009118L111.98678808135986,52.86090111426559L112.28527093811034,47.512410642932224L112.30516979522706,54.40983050257712L112.46436065216065,47.34220898427688L112.5658448234558,48.29673383205332L112.62554139480591,55.18712874789223L112.80463110885621,48.075556540894326L113.02351853713989,51.181552936986606L113.0434173942566,40.55714107825406L113.1628105369568,48.270501088874425L113.26429470825195,51.457015599274655L113.30409242248534,42.064637442292366L113.36378899383544,44.96119621841822L114.0423400215149,42.71758003805917L114.28112630691528,40.626230693376925L114.65920459213257,49.42241271341723L115.09896933441162,51.06049759660891L115.4969464767456,42.23121819031485L115.95661007614135,42.63733537793965L116.27499179000854,57.983028094314705L116.41627367553711,58.11873680740989L116.5953633895874,44.700792395402914L116.65505996093749,47.02003280304265L116.69485767517091,51.363135947553175L117.69179041671754,51.69721210071111L117.75148698806763,47.239795675985675L117.89077898788452,54.498061910889504L118.13155515899659,53.74209309227126L118.17135287322998,54.166710870161L118.19125173034668,46.70550390962944L118.33054373016357,51.99691789122093L118.68872315826417,52.012863099242324L119.22798218612671,51.26578625647517L119.60805035705566,42.14631537953741L119.64784807128906,51.46752001189195L119.76724121398925,40.49038996791492L120.2667025276184,52.98114552153281L120.36619681320191,43.441413274810515L120.70447738418578,55.10691237613703L121.04474784088134,56.4594450804334L121.20393869781493,55.161103452718336L121.82080326843261,52.389777265434674L122.34016343917847,50.38680077088641L122.77992818145752,41.13499692566225L123.3569950378418,46.029496867487524L123.55797349472046,48.774458299225444L123.87635520858765,52.77110441646089L124.15493920822144,54.936550416750535L124.1569290939331,51.635647190497224L124.55490623626709,47.86933436500553L125.33295154953004,51.844915080277744L125.75281743469239,54.54646330224007L125.85231172027588,43.91890200561329L126.57066046218873,58.88189087056526L126.70995246200562,59.25475980065994L126.7895478904724,48.538269316067584L126.90894103317261,51.43619536313554L127.02833417587281,45.693365093189044L127.1875250328064,51.11309509533355L127.22732274703979,56.91625501691867L127.68698634643555,52.415642259877444L127.84617720336914,44.03611955789833L128.3058408027649,51.67584495619515L128.5446270881653,49.71432977428444L128.58442480239867,56.019561015265936L128.70381794509888,51.14302418478351L128.92469525909425,47.9749442584648L129.42216668701172,54.64905577017194L129.96142571487425,48.896522591263874L130.00122342910768,52.581166908965315L130.08081885757446,47.01361134434214L130.37930171432495,40.74457035077998L131.15933691329957,57.73348700319805L131.21903348464966,54.44014619967281L131.57721291275024,45.415064165014286L131.93539234085083,41.60998685095015L132.2557639404297,50.19846627070228L132.31546051177978,50.01963666092949L132.41495479736327,62.09900396170437L132.51444908294678,55.11810513895276L132.85471953964233,52.581647811158746L132.87461839675905,54.01246384898181L133.21289896774292,46.171589321464126L133.272595539093,44.80517645974169L133.4118875389099,50.68066029943688L133.93124770965576,52.38425160493762L133.97104542388917,50.1977590615943L134.11033742370606,55.4153781301311L134.6296975944519,48.85154409199595L134.8087873085022,54.344210926810774L135.0077758796692,57.29888343270355L135.20875433654786,56.240634582422445L135.30824862213134,53.276938088311766L135.68632690734864,54.38086321751402L135.78582119293213,54.62370939574173L135.8873053642273,57.783887438960534L136.42457450637818,51.18662598365458L136.80464267730713,49.40221482129314L136.90413696289062,46.84538987118913L137.20261981964111,61.227326303564794L137.3021141052246,49.191447648203706L137.78167656173707,48.609263681054614L138.13985598983766,54.20515475727113L138.20154244689942,48.202976763243896L138.3010367324829,58.2798956189378L138.6194184463501,55.173192013737506L138.6592161605835,54.5283681785304L138.95968890304565,53.6824800791954L138.99948661727905,55.055616142171104L139.11887975997925,54.625538709967714L139.15867747421265,59.44897828062251L139.19847518844605,64.81391372108025L139.43726147384643,50.66858116787246L139.51685690231324,48.9447636818833L139.9566216445923,51.98753558372164L140.13571135864257,52.80345687578756L140.19540792999265,50.735294560392504L140.49588067245483,48.316922294722644L140.71476810073852,51.51821276075239L140.75456581497193,45.39496056743792L140.87395895767213,56.62082076942109L141.1326441001892,58.74162773081464L141.47291455688475,56.99143605982499L142.231061013031,59.48774276919494L142.68873472671507,55.19107025998741L142.7683301551819,50.0628612816096L142.78822901229856,47.55635190217512L142.90961204071044,51.84813995381016L143.24789261169434,60.912938851973195L143.46678003997803,49.431408413270816L143.66775849685666,56.17467554628425L143.80705049667358,57.17244387365038L143.9264436393738,54.11840377335814L144.3861072387695,54.830902805472164L145.46263540878297,56.76056528915919L145.54223083724978,61.66857763967437L145.80091597976684,53.5483272261378L146.0814898651123,52.468890390981414L146.2406807220459,55.44667449052319L146.26057957916262,53.56784619751822L146.3401750076294,49.42728774153497L146.5391635787964,58.19938693408463L146.72024317855835,41.32966801945395L146.74014203567506,52.550794635141L146.76004089279172,50.691400448423494L146.91923174972536,57.54452072954412L147.3172088920593,48.26205229739767L147.77687249145507,54.38153270880291L147.91616449127199,46.58918215554786L147.97586106262204,47.89047520260692L148.17484963378905,62.63367290625152L148.33603037643434,49.779572171859854L148.39572694778442,37.45560481426946L148.5947155189514,60.7788142872799L148.6942098045349,56.03847650154087L149.39265968933105,45.856551237493164L149.57174940338135,52.52890887061251L149.61154711761475,58.80752076076942L149.69114254608152,58.46027165929338L149.81053568878173,60.75945561663063L149.85232328872678,63.80829065788808L149.9916152885437,55.733169614895814L150.1508061454773,46.6342643788183L150.2105027168274,54.336403338258606L150.36969357376097,58.829236795111996L150.4492890022278,48.29018979044076L150.9686491729736,64.2629789670494L151.04824460144044,45.960058362538035L151.2671320297241,54.19490493993271L151.46811048660277,57.987903122432414L151.70689677200318,44.66063234752406L152.5048409423828,45.613931366180026L152.8033237991333,52.804578980905575L153.06399882736204,43.916554071374776L153.22318968429565,60.71997448949544L153.50177368392943,54.442946747740436L153.52167254104614,56.504121837148574L154.0211338546753,51.01746156502425L154.29971785430908,56.170913193829776L154.77928031082152,50.854548874908545L155.3384381958008,51.075339558421845L155.39813476715088,52.03853950458961L155.91550505218507,56.234279129905346L156.25577550888062,47.712513102673256L156.33537093734742,63.86528228253701L156.8328423652649,51.772553444348574L156.95422539367675,54.3283317249728L157.33230367889405,57.67010220821294L157.8317649925232,62.479633333077345L158.1302478492737,52.970565673277335L158.28943870620728,51.74446309857936L158.30933756332396,50.036873704254816L158.72920344848634,64.67758266397004L158.80879887695312,61.24394100287509L159.0873828765869,57.34324901741124L159.30826019058227,56.68912773979778L159.328159047699,46.70166612153676L159.46745104751585,52.1946818461782L159.74603504714963,54.67129042452703L159.86542818984984,54.332329813796605L160.02660893249512,63.66182293689674L160.20569864654541,53.54462145041194L160.2454963607788,53.58398942408985L160.2653952178955,59.62393238448354L160.6434735031128,53.14488800366857L160.7031700744629,53.1704041082847L160.86435081710815,61.21020241369676L161.582699559021,57.71129949611684L161.90108127288818,56.54593203961274L162.11996870117187,48.20987912413784L162.46023915786742,66.66709389710225L162.65922772903443,54.07604666251714L162.6791265861511,56.609382840781265L162.79851972885132,51.90227445366281L162.93781172866824,55.41815038983441L163.017407157135,52.18260271461381L163.03730601425173,58.39786752760469L163.05720487136838,55.63404718632046L163.47707075653076,56.853219111760154L163.49696961364745,60.9633675761L163.57656504211425,51.02968213841025L163.79545247039795,52.85569605523081L163.85713892745972,39.93350522792221L164.45410464096068,54.08214751975538L164.61528538360596,54.85452358967889L164.67498195495605,61.50244007602623L164.81427395477297,57.96812955577312L165.01326252593995,63.6908467986885L165.03316138305667,56.65838771723733L165.07295909729004,59.65480441941085L165.17245338287353,57.38784090903346L165.37144195404053,45.75824917148307L165.83110555343626,51.223900618372824L165.85100441055297,52.03574838597676L166.01019526748658,54.12396715167431L166.37036458129882,52.663646349866056L166.7086451522827,48.92778123383687L167.66578017959594,61.71670557683652L167.90655635070803,60.526368924093134L167.96625292205812,50.11854221204506L168.56520852127076,62.905231774263484L168.58510737838745,65.87041812222833L168.92338794937132,54.50077759386417L169.12237652053835,57.315149242187246L169.22187080612184,67.0742860425712L169.42284926300047,60.21200033141106L169.54224240570068,60.840237755672206L169.68153440551757,43.8175447962567L170.03971383361815,56.87444481445452L170.1212991477966,51.23471620299763L170.22079343338012,62.02806617344595L170.5789728614807,49.28334711442281L170.7978602897644,64.64216563184209L170.83964788970945,56.55978390867449L171.23762503204344,59.6039702287288L171.39681588897705,54.24589000189114L171.59580446014405,46.367071348366295L171.8166817741394,61.12024541516091L172.2743554878235,62.37610734912292L172.373849773407,61.721410874768324L172.69422137298585,58.51625433228159L173.55186211471556,66.47358262624766L173.57176097183228,60.75615530746002L173.65135640029908,52.351305089960235L174.19061542816164,63.298138295751116L175.02835731277466,67.48342065572342L175.18754816970826,59.51046775519822L175.34673902664184,56.676445123127905L175.36663788375856,54.35178277899361L176.0252900543213,74.26094499792771L176.24417748260498,52.638309404890606L176.46505479660036,60.341212150167536L176.52475136795044,64.08724221844219L176.64414451065062,69.47466690853389L176.80333536758425,61.393586450124985L177.96144885177614,62.67909458989379L178.4390214225769,59.5061584943669L178.5783134223938,60.637561054778104L179.01807816467283,63.94886496964621L179.09767359313966,63.91059081272199L179.37625759277344,65.76582660988454L179.69662919235228,64.75676179570019L179.81602233505248,57.90986495472983L180.07470747756958,62.36762083982708L180.45477564849853,65.0639451438451L180.63386536254882,63.190604793518105L180.952247076416,63.78225593325942L181.1532255332947,67.73054780641814L181.33231524734498,62.00110736224951L181.49150610427859,60.179336700076874L181.87157427520754,62.10809395610568L181.9113719894409,65.20019133586236L181.97106856079102,69.85878517817294L182.0108662750244,58.01503166381478L182.1302594177246,59.65556820524748L182.369045703125,55.32590203378868L182.51032758865355,58.13265468265506L182.57002416000367,69.68944159990193L182.66951844558716,69.54838638595038L182.80881044540405,59.28120942129863L182.84860815963745,67.98919775084566L183.84554090118408,68.26675375209334L184.06442832946777,73.72289087911699L184.20571021499634,70.27684005554056L184.52409192886353,63.19201921173408L184.6036873573303,63.92284910392709L184.62358621444702,66.29907170676097L184.66338392868042,65.83489736609788L184.92405895690916,60.48888684136985L185.00365438537597,59.80244139279405L185.1827440994263,70.98254045076312L185.20264295654295,64.5106718850305L185.30213724212646,69.20509765547908L185.38173267059327,63.83677704075778L185.40163152770995,65.02088082389612L185.6822054130554,66.49955134469292L186.2990699836731,67.25260646178626L186.51994729766847,74.40000116746735L186.65923929748536,67.0775486339227L186.75873358306885,62.47679506719062L187.03731758270263,75.395129247497L187.19849832534788,71.60186704026364L187.49698118209838,70.88677490808702L187.71586861038207,68.31064786406235L187.85516061019896,55.38280879334464L187.87505946731568,62.090790906596936L188.03624020996094,68.16106842299587L188.77448780899047,64.02115116993718L188.8341843803406,65.10509528447514L188.93367866592408,63.30495579155209L188.9535775230408,65.12136109395881L189.03317295150757,74.98706959218892L189.65202740783693,71.74152669490877L190.56936472091675,61.62427806115011L190.64896014938356,62.26275587329489L191.0071395774841,66.84102019039301L191.0887248916626,69.62835759188147L191.3872077484131,68.0859345273634L191.44690431976318,64.51494342804276L191.50660089111327,56.53977460564586L191.90656791915893,60.82792288773847L192.12545534744262,74.09162027856625L192.4040393470764,68.78030071794865L192.6030279182434,66.73911607265957L192.6448155181885,71.60662891492407L192.72441094665527,63.999501141778026L193.06269151763917,67.81941098820032L193.10248923187254,62.61533261671775L193.16218580322266,73.78155151726074L193.56215283126832,71.38710177835037L193.6019505455017,70.87727001767568L193.7014448310852,72.22119362976416L193.9203322593689,68.50475319056765L194.07952311630248,67.956345530416L194.15911854476929,66.51382753921946L194.47949014434815,67.11348428606318L194.83766957244873,66.24957649865671L194.95706271514894,81.48892382410016L195.0386480293274,68.25489149798871L195.1381423149109,56.83080529776437L195.197838886261,64.55469800936635L195.49632174301146,67.8657001816817L195.51622060012818,69.77774844385249L196.03558077087402,71.35840794747567L196.1947716278076,65.52322559748094L196.3937601989746,66.9734191648628L196.59473865585326,75.27409276602884L197.01261465530396,69.53246003683853L197.35288511199948,71.03588287641485L197.98964853973388,72.5397489003655L198.0095473968506,64.33605724154131L198.11103156814576,72.47188511436313L199.12786316680908,74.60284759854737L199.16766088104248,64.0245174852912L199.36664945220946,71.81506701268457L199.50594145202638,65.27162888522373L200.02530162277222,64.03560652410442L200.42526865081788,71.75845256622657L200.62425722198486,59.2164573553714L200.94263893585207,66.5468683487446L200.98243665008545,75.5440674856389L201.02223436431885,65.09767430356867L201.12172864990234,68.32639505353352L201.7405831062317,72.31116948720955L201.84007739181519,77.61447401126998L202.04105584869387,81.11889787461958L202.06095470581053,69.31796822911369L202.14055013427736,73.83021693334497L202.9782920188904,73.28621282857239L203.0379885902405,76.61990226907194L203.43596573257446,73.33946095967637L203.5374499038696,84.33489829009545L203.55734876098632,73.10212158303617L204.0747190460205,65.71152237984597L204.2140110458374,72.5827660730406L204.33539407424928,72.5509133748169L205.4119222442627,73.46743751985757L205.4318211013794,65.08911235863464L205.6109108154297,72.06212815719589L205.7502028152466,71.31749354321497L205.80989938659667,71.80825894633836L205.93128241500855,74.83443500777594L205.99097898635864,65.58114130869762L206.3690572715759,75.36515301077316L206.42875384292603,71.89885714779878L206.62973229980466,77.09380780706094L206.84861972808838,67.77137734558589L207.04760829925536,73.43252967828737L207.08740601348876,79.06578025431509L207.10730487060547,70.77335742607556L207.16700144195556,71.45924653681975L207.62666504135132,72.21674292711123L207.72615932693483,75.90798786315388L207.7460581840515,72.7140806602115L207.82565361251832,76.52311834528032L208.18582292633056,71.80642963211237L208.38481149749757,72.1415618842049L208.54400235443114,77.65521868534475L208.78278863983155,73.42612707849639L209.5608339530945,71.16135120162637L209.73992366714478,77.31128875194888L209.74191355285643,73.98297410067L209.86130669555664,78.13993980795856L209.90110440979004,71.99187871913591L210.08019412384033,78.47901357214626L210.75874515151978,83.27760652947381L211.29800417938233,77.57553979251163L211.35770075073242,81.89976516856632L211.41739732208254,77.43304187197978L211.59648703613283,80.19488202776165L212.13574606399536,76.98921629471715L212.61331863479614,74.98706016273414L212.81230720596315,78.65349620326863L213.87092640457152,73.59422596873735L213.99031954727172,74.58921260694538L214.06991497573853,82.7744885405976L214.12961154708864,79.08609129989645L214.3484989753723,77.86248753071338L214.6887694320679,81.09301402126728L214.78826371765138,72.41485577189512L215.38721931686402,78.55953168645419L215.4867136024475,82.19918336070555L215.50661245956422,78.7439058156336L215.5464101737976,71.10935718800722L215.785196459198,78.75360872459518L215.8249941734314,76.72895391352343L216.04587148742675,83.95749850698228L216.24486005859373,79.35957849140952L216.50354520111085,80.71667976654346L216.60303948669434,82.08382812573821L216.62293834381106,81.86352305914572L216.90351222915652,80.1767444715055L217.02290537185667,83.30026079456631L217.2218939430237,78.97869923948504L217.68155754241943,83.5884579355255L218.0198381134033,78.02258081385193L218.43970399856568,81.81086426896506L219.05656856918336,88.54940724513715L219.1779515975952,85.31558987486741L219.2376481689453,74.77667016783562L219.3968390258789,85.63828467611415L219.71522073974612,90.32880193755925L219.7948161682129,76.76000510809142L219.87640148239137,87.15557352893438L219.91619919662475,82.82425248816291L219.95599691085815,83.78204464201826L220.01569348220823,79.61688473853185L220.6942445098877,86.23108149461041L220.83353650970457,81.3131352134917L221.15191822357178,80.91126128051482L221.53198639450073,86.40279658075687L222.08915439376833,82.82052313880013L222.1289521080017,84.71822920026095L222.1488509651184,80.10514190668557L222.18864867935181,87.65704136322529L222.29013285064698,85.18018290432497L222.3697282791138,82.66180184133107L222.46922256469728,78.19847786319026L222.58861570739748,78.301824687504L222.68810999298097,80.88507096988239L222.84730084991455,76.56561689794293L223.2472678779602,83.43018453715817L223.525851877594,89.49776051476458L223.7447393058777,79.08623274171805L223.92581890563963,84.0076349180111L224.00541433410643,86.75103577498408L224.02531319122315,79.83908512553376L224.5645722190857,90.76617776775704L224.743661933136,91.44293445155343L224.9028527900696,78.92666750804679L225.20133564682007,81.2433148156239L225.22123450393676,83.89047394245472L225.44211181793213,86.06725414738169L226.0589763885498,88.27270932427382L226.22015713119507,83.56457784131248L226.47884227371216,86.87410430395585L226.53853884506225,87.59454765171624L226.55843770217896,83.82529283633531L226.65793198776245,89.66918328781306L226.83702170181274,82.94935306463829L226.97830358734132,85.07012702294014L227.1175955871582,84.92618168110062L227.1374944442749,96.04030284402195L227.4757750152588,85.92650539071026L227.95533747177123,84.54435005424405L228.05483175735475,89.04448190909186L228.25382032852173,85.71650200345744L228.97216907043457,89.36804893490512L229.13135992736815,78.74433014109839L229.15125878448487,85.52815335909114L229.17115764160155,94.7633802228241L229.27264181289675,95.32874204265788L229.59102352676393,97.03947616014928L229.7303155265808,91.34221844512142L230.26957455444338,86.49164561835687L230.28947341156007,90.25825547167392L230.46856312561036,90.7946405769898L230.56805741119385,91.04494545394307L230.7690358680725,90.88234393583487L230.9481255821228,89.89603239601813L231.22670958175658,88.29021039233278L231.44559701004027,85.74273003190895L231.96495718078614,89.13623993348938L232.02465375213623,86.91036998701338L232.20374346618652,89.07840908736564L232.683305922699,87.07942596691382L232.76290135116577,94.38815392903614L232.94199106521606,88.54698858998783L233.2026660934448,99.85186290824261L233.322059236145,99.60564098520611L233.36185695037844,91.22328944679505L234.02050912094117,102.0827210362936L234.13990226364135,94.23583523135805L234.25929540634155,99.52610353419459L234.29909312057495,97.12035730846598L234.31899197769164,98.69202111223558L234.51798054885865,89.82912098494785L234.61747483444213,92.96638545306791L234.8781498626709,85.91839134487797L235.0572395767212,93.14665305469362L235.37562129058838,91.27239804725362L235.85518374710082,93.57601856306162L236.2153530609131,109.29190695910317L236.39444277496338,90.93921769229912L236.75262220306396,97.18684439407146L237.0928926597595,98.58546827329899L237.27198237380983,90.39405376458944L237.7296560874939,102.00660647736474L237.75154483032227,96.99331897903471L237.771443687439,95.60137115378659L238.76837642898562,99.69068523780516L238.9275672859192,92.89676307375036L238.98726385726928,97.55102408159269L239.16635357131958,94.89656655676747L239.48672517089844,95.61791984691347L239.9046011703491,98.5850062300151L240.18517505569457,104.68891861158984L240.50355676956175,106.0163453925527L240.8836249404907,99.23255517765165L241.02291694030762,97.90757534020243L241.16220894012451,99.21675612617923L241.26170322570803,101.6514932106079L241.86065882492068,101.63363382326754L242.01984968185425,110.94658768269558L242.05964739608766,97.7031589049027L242.7182995666504,106.42762049193841L242.77799613800047,97.29342080664499L243.05658013763428,98.19274091145205L243.09637785186766,106.68015072021815L243.11627670898437,110.42169236802079L243.31725516586303,100.94831047980976L243.43664830856324,94.63600714774839L243.97590733642576,104.70286006047195L244.03560390777588,105.7935462351727L244.0555027648926,103.22793774794748L244.17489590759277,98.03003095461395L244.21469362182617,110.71707475351711L244.55297419281007,101.37610598395804L244.71216504974365,105.73456028083926L244.8733457923889,117.26735866514323L245.1718286491394,103.85826379644088L245.49021036300658,104.68950323778579L246.24835681915283,102.14547877253631L246.46923413314818,105.60179827236068L246.50903184738158,111.61292481896764L246.70802041854859,106.25723967364236L246.92690784683228,103.59269263220988L247.06619984664914,112.12913089106898L247.18758287506103,109.65958968907262L247.22738058929443,113.85343870870634L247.5656611602783,114.37900822939741L247.9258304740906,108.85366361906624L248.64218933029176,105.07683223677509L248.82326893005373,120.34371592751984L249.16154950103763,113.3791277041621L249.28094264373777,112.95103988691585L249.44212338638303,110.070775208638L250.03908909988405,106.6199436514916L250.4788538421631,106.43683306925179L250.49875269927978,109.1277495809574L250.8569321273804,108.584943016941L251.39619115524292,111.74282970264994L251.4956854408264,115.0615215953328L251.75437058334353,124.61313024034189L251.75636046905515,115.65280498633797L252.01504561157228,110.1793978128973L252.17423646850585,116.33731739668526L252.27373075408934,115.23173268344294L252.31352846832274,116.04046873097172L252.33342732543946,110.30197129549349L252.7134954963684,117.21397852167243L252.8129897819519,113.51731636386262L253.05177606735228,111.52955900931822L253.09157378158568,117.66044906099894L253.2905623527527,112.21863056104833L253.31046120986937,117.58363672241687" fill="none"></path></g></g></g></g></g></g><g transform="translate(51, 177)" clip-path="url(#clip_1)"><clipPath id="clip_1"><rect width="278" height="22"></rect></clipPath><g><g><line x1="0" y1="0" x2="0" y2="5" style="visibility: inherit;" fill="rgb(0, 0, 0)" stroke="rgb(204, 204, 204)" stroke-width="1px"></line><line x1="19.89885711669922" y1="0" x2="19.89885711669922" y2="5" style="visibility: inherit;" fill="rgb(0, 0, 0)" stroke="rgb(204, 204, 204)" stroke-width="1px"></line><line x1="39.79771423339844" y1="0" x2="39.79771423339844" y2="5" style="visibility: inherit;" fill="rgb(0, 0, 0)" stroke="rgb(204, 204, 204)" stroke-width="1px"></line><line x1="59.696571350097656" y1="0" x2="59.696571350097656" y2="5" style="visibility: inherit;" fill="rgb(0, 0, 0)" stroke="rgb(204, 204, 204)" stroke-width="1px"></line><line x1="79.59542846679688" y1="0" x2="79.59542846679688" y2="5" style="visibility: inherit;" fill="rgb(0, 0, 0)" stroke="rgb(204, 204, 204)" stroke-width="1px"></line><line x1="99.4942855834961" y1="0" x2="99.4942855834961" y2="5" style="visibility: inherit;" fill="rgb(0, 0, 0)" stroke="rgb(204, 204, 204)" stroke-width="1px"></line><line x1="119.39314270019531" y1="0" x2="119.39314270019531" y2="5" style="visibility: inherit;" fill="rgb(0, 0, 0)" stroke="rgb(204, 204, 204)" stroke-width="1px"></line><line x1="139.29199981689453" y1="0" x2="139.29199981689453" y2="5" style="visibility: inherit;" fill="rgb(0, 0, 0)" stroke="rgb(204, 204, 204)" stroke-width="1px"></line><line x1="159.19085693359375" y1="0" x2="159.19085693359375" y2="5" style="visibility: inherit;" fill="rgb(0, 0, 0)" stroke="rgb(204, 204, 204)" stroke-width="1px"></line><line x1="179.08971405029297" y1="0" x2="179.08971405029297" y2="5" style="visibility: inherit;" fill="rgb(0, 0, 0)" stroke="rgb(204, 204, 204)" stroke-width="1px"></line><line x1="198.9885711669922" y1="0" x2="198.9885711669922" y2="5" style="visibility: inherit;" fill="rgb(0, 0, 0)" stroke="rgb(204, 204, 204)" stroke-width="1px"></line><line x1="218.8874282836914" y1="0" x2="218.8874282836914" y2="5" style="visibility: inherit;" fill="rgb(0, 0, 0)" stroke="rgb(204, 204, 204)" stroke-width="1px"></line><line x1="238.78628540039062" y1="0" x2="238.78628540039062" y2="5" style="visibility: inherit;" fill="rgb(0, 0, 0)" stroke="rgb(204, 204, 204)" stroke-width="1px"></line><line x1="258.68514251708984" y1="0" x2="258.68514251708984" y2="5" style="visibility: inherit;" fill="rgb(0, 0, 0)" stroke="rgb(204, 204, 204)" stroke-width="1px"></line><line x1="278.58399963378906" y1="0" x2="278.58399963378906" y2="5" style="visibility: inherit;" fill="rgb(0, 0, 0)" stroke="rgb(204, 204, 204)" stroke-width="1px"></line></g><g transform="translate(0, 8)"><text style="text-anchor: middle; visibility: hidden; font-family: &quot;Helvetica Neue&quot;, sans-serif; font-size: 12px; font-weight: 200;" x="0" y="0" dx="0em" dy="0.95em" fill="rgb(50, 49, 63)" stroke="none" stroke-width="1px">-10k</text><text style="text-anchor: middle; visibility: inherit; font-family: &quot;Helvetica Neue&quot;, sans-serif; font-size: 12px; font-weight: 200;" x="19.89885711669922" y="0" dx="0em" dy="0.95em" fill="rgb(50, 49, 63)" stroke="none" stroke-width="1px">0</text><text style="text-anchor: middle; visibility: hidden; font-family: &quot;Helvetica Neue&quot;, sans-serif; font-size: 12px; font-weight: 200;" x="39.79771423339844" y="0" dx="0em" dy="0.95em" fill="rgb(50, 49, 63)" stroke="none" stroke-width="1px">10k</text><text style="text-anchor: middle; visibility: inherit; font-family: &quot;Helvetica Neue&quot;, sans-serif; font-size: 12px; font-weight: 200;" x="59.696571350097656" y="0" dx="0em" dy="0.95em" fill="rgb(50, 49, 63)" stroke="none" stroke-width="1px">20k</text><text style="text-anchor: middle; visibility: hidden; font-family: &quot;Helvetica Neue&quot;, sans-serif; font-size: 12px; font-weight: 200;" x="79.59542846679688" y="0" dx="0em" dy="0.95em" fill="rgb(50, 49, 63)" stroke="none" stroke-width="1px">30k</text><text style="text-anchor: middle; visibility: inherit; font-family: &quot;Helvetica Neue&quot;, sans-serif; font-size: 12px; font-weight: 200;" x="99.4942855834961" y="0" dx="0em" dy="0.95em" fill="rgb(50, 49, 63)" stroke="none" stroke-width="1px">40k</text><text style="text-anchor: middle; visibility: hidden; font-family: &quot;Helvetica Neue&quot;, sans-serif; font-size: 12px; font-weight: 200;" x="119.39314270019531" y="0" dx="0em" dy="0.95em" fill="rgb(50, 49, 63)" stroke="none" stroke-width="1px">50k</text><text style="text-anchor: middle; visibility: inherit; font-family: &quot;Helvetica Neue&quot;, sans-serif; font-size: 12px; font-weight: 200;" x="139.29199981689453" y="0" dx="0em" dy="0.95em" fill="rgb(50, 49, 63)" stroke="none" stroke-width="1px">60k</text><text style="text-anchor: middle; visibility: hidden; font-family: &quot;Helvetica Neue&quot;, sans-serif; font-size: 12px; font-weight: 200;" x="159.19085693359375" y="0" dx="0em" dy="0.95em" fill="rgb(50, 49, 63)" stroke="none" stroke-width="1px">70k</text><text style="text-anchor: middle; visibility: inherit; font-family: &quot;Helvetica Neue&quot;, sans-serif; font-size: 12px; font-weight: 200;" x="179.08971405029297" y="0" dx="0em" dy="0.95em" fill="rgb(50, 49, 63)" stroke="none" stroke-width="1px">80k</text><text style="text-anchor: middle; visibility: hidden; font-family: &quot;Helvetica Neue&quot;, sans-serif; font-size: 12px; font-weight: 200;" x="198.9885711669922" y="0" dx="0em" dy="0.95em" fill="rgb(50, 49, 63)" stroke="none" stroke-width="1px">90k</text><text style="text-anchor: middle; visibility: inherit; font-family: &quot;Helvetica Neue&quot;, sans-serif; font-size: 12px; font-weight: 200;" x="218.8874282836914" y="0" dx="0em" dy="0.95em" fill="rgb(50, 49, 63)" stroke="none" stroke-width="1px">100k</text><text style="text-anchor: middle; visibility: hidden; font-family: &quot;Helvetica Neue&quot;, sans-serif; font-size: 12px; font-weight: 200;" x="238.78628540039062" y="0" dx="0em" dy="0.95em" fill="rgb(50, 49, 63)" stroke="none" stroke-width="1px">110k</text><text style="text-anchor: middle; visibility: inherit; font-family: &quot;Helvetica Neue&quot;, sans-serif; font-size: 12px; font-weight: 200;" x="258.68514251708984" y="0" dx="0em" dy="0.95em" fill="rgb(50, 49, 63)" stroke="none" stroke-width="1px">120k</text><text style="text-anchor: middle; visibility: hidden; font-family: &quot;Helvetica Neue&quot;, sans-serif; font-size: 12px; font-weight: 200;" x="278.58399963378906" y="0" dx="0em" dy="0.95em" fill="rgb(50, 49, 63)" stroke="none" stroke-width="1px">130k</text></g><line x1="0" y1="0" x2="278.58399963378906" y2="0" fill="rgb(0, 0, 0)" stroke="rgb(204, 204, 204)" stroke-width="1px"></line></g></g></g></g></svg>