<svg viewBox="0 0 330 200" xmlns="http://www.w3.org/2000/svg"><g><g><g><g><g><line x1="61.77000045776367" y1="177.9749994277954" x2="56.77000045776367" y2="177.9749994277954" style="visibility: inherit;" fill="rgb(0, 0, 0)" stroke="rgb(204, 204, 204)" stroke-width="1px"></line><line x1="61.77000045776367" y1="161.79545402526855" x2="56.77000045776367" y2="161.79545402526855" style="visibility: inherit;" fill="rgb(0, 0, 0)" stroke="rgb(204, 204, 204)" stroke-width="1px"></line><line x1="61.77000045776367" y1="145.6159086227417" x2="56.77000045776367" y2="145.6159086227417" style="visibility: inherit;" fill="rgb(0, 0, 0)" stroke="rgb(204, 204, 204)" stroke-width="1px"></line><line x1="61.77000045776367" y1="129.43636322021484" x2="56.77000045776367" y2="129.43636322021484" style="visibility: inherit;" fill="rgb(0, 0, 0)" stroke="rgb(204, 204, 204)" stroke-width="1px"></line><line x1="61.77000045776367" y1="113.25681781768799" x2="56.77000045776367" y2="113.25681781768799" style="visibility: inherit;" fill="rgb(0, 0, 0)" stroke="rgb(204, 204, 204)" stroke-width="1px"></line><line x1="61.77000045776367" y1="97.07727241516113" x2="56.77000045776367" y2="97.07727241516113" style="visibility: inherit;" fill="rgb(0, 0, 0)" stroke="rgb(204, 204, 204)" stroke-width="1px"></line><line x1="61.77000045776367" y1="80.89772701263429" x2="56.77000045776367" y2="80.89772701263429" style="visibility: inherit;" fill="rgb(0, 0, 0)" stroke="rgb(204, 204, 204)" stroke-width="1px"></line><line x1="61.77000045776367" y1="64.71818161010745" x2="56.77000045776367" y2="64.71818161010745" style="visibility: inherit;" fill="rgb(0, 0, 0)" stroke="rgb(204, 204, 204)" stroke-width="1px"></line><line x1="61.77000045776367" y1="48.538636207580595" x2="56.77000045776367" y2="48.538636207580595" style="visibility: inherit;" fill="rgb(0, 0, 0)" stroke="rgb(204, 204, 204)" stroke-width="1px"></line><line x1="61.77000045776367" y1="32.35909080505371" x2="56.77000045776367" y2="32.35909080505371" style="visibility: inherit;" fill="rgb(0, 0, 0)" stroke="rgb(204, 204, 204)" stroke-width="1px"></line><line x1="61.77000045776367" y1="16.179545402526855" x2="56.77000045776367" y2="16.179545402526855" style="visibility: inherit;" fill="rgb(0, 0, 0)" stroke="rgb(204, 204, 204)" stroke-width="1px"></line><line x1="61.77000045776367" y1="0" x2="56.77000045776367" y2="0" style="visibility: inherit;" fill="rgb(0, 0, 0)" stroke="rgb(204, 204, 204)" stroke-width="1px"></line></g><g transform="translate(51.77000045776367, 0)"><text style="text-anchor: end; visibility: hidden; font-family: &quot;Helvetica Neue&quot;, sans-serif; font-size: 12px; font-weight: 200;" x="0" y="177.9749994277954" dx="0em" dy="0.3em" fill="rgb(50, 49, 63)" stroke="none" stroke-width="1px">-0.05</text><text style="text-anchor: end; visibility: inherit; font-family: &quot;Helvetica Neue&quot;, sans-serif; font-size: 12px; font-weight: 200;" x="0" y="161.79545402526855" dx="0em" dy="0.3em" fill="rgb(50, 49, 63)" stroke="none" stroke-width="1px">0</text><text style="text-anchor: end; visibility: hidden; font-family: &quot;Helvetica Neue&quot;, sans-serif; font-size: 12px; font-weight: 200;" x="0" y="145.6159086227417" dx="0em" dy="0.3em" fill="rgb(50, 49, 63)" stroke="none" stroke-width="1px">0.05</text><text style="text-anchor: end; visibility: inherit; font-family: &quot;Helvetica Neue&quot;, sans-serif; font-size: 12px; font-weight: 200;" x="0" y="129.43636322021484" dx="0em" dy="0.3em" fill="rgb(50, 49, 63)" stroke="none" stroke-width="1px">0.1</text><text style="text-anchor: end; visibility: hidden; font-family: &quot;Helvetica Neue&quot;, sans-serif; font-size: 12px; font-weight: 200;" x="0" y="113.25681781768799" dx="0em" dy="0.3em" fill="rgb(50, 49, 63)" stroke="none" stroke-width="1px">0.15</text><text style="text-anchor: end; visibility: inherit; font-family: &quot;Helvetica Neue&quot;, sans-serif; font-size: 12px; font-weight: 200;" x="0" y="97.07727241516113" dx="0em" dy="0.3em" fill="rgb(50, 49, 63)" stroke="none" stroke-width="1px">0.2</text><text style="text-anchor: end; visibility: hidden; font-family: &quot;Helvetica Neue&quot;, sans-serif; font-size: 12px; font-weight: 200;" x="0" y="80.89772701263429" dx="0em" dy="0.3em" fill="rgb(50, 49, 63)" stroke="none" stroke-width="1px">0.25</text><text style="text-anchor: end; visibility: inherit; font-family: &quot;Helvetica Neue&quot;, sans-serif; font-size: 12px; font-weight: 200;" x="0" y="64.71818161010745" dx="0em" dy="0.3em" fill="rgb(50, 49, 63)" stroke="none" stroke-width="1px">0.3</text><text style="text-anchor: end; visibility: hidden; font-family: &quot;Helvetica Neue&quot;, sans-serif; font-size: 12px; font-weight: 200;" x="0" y="48.538636207580595" dx="0em" dy="0.3em" fill="rgb(50, 49, 63)" stroke="none" stroke-width="1px">0.35</text><text style="text-anchor: end; visibility: inherit; font-family: &quot;Helvetica Neue&quot;, sans-serif; font-size: 12px; font-weight: 200;" x="0" y="32.35909080505371" dx="0em" dy="0.3em" fill="rgb(50, 49, 63)" stroke="none" stroke-width="1px">0.4</text><text style="text-anchor: end; visibility: hidden; font-family: &quot;Helvetica Neue&quot;, sans-serif; font-size: 12px; font-weight: 200;" x="0" y="16.179545402526855" dx="0em" dy="0.3em" fill="rgb(50, 49, 63)" stroke="none" stroke-width="1px">0.45</text><text style="text-anchor: end; visibility: hidden; font-family: &quot;Helvetica Neue&quot;, sans-serif; font-size: 12px; font-weight: 200;" x="0" y="0" dx="0em" dy="0.3em" fill="rgb(50, 49, 63)" stroke="none" stroke-width="1px">0.5</text></g><line x1="61.77000045776367" y1="0" x2="61.77000045776367" y2="177.9749994277954" fill="rgb(0, 0, 0)" stroke="rgb(204, 204, 204)" stroke-width="1px"></line></g></g><g transform="translate(61, 0)" clip-path="url(#clip_0)"><clipPath id="clip_0"><rect width="268" height="177"></rect></clipPath><g><g><g><line x1="0" y1="0" x2="0" y2="177.9749994277954" fill="rgb(0, 0, 0)" stroke="rgb(60, 60, 60)" stroke-width="1px" opacity="0.25"></line><line x1="33.52874994277954" y1="0" x2="33.52874994277954" y2="177.9749994277954" fill="rgb(0, 0, 0)" stroke="rgb(60, 60, 60)" stroke-width="1px" opacity="0.25"></line><line x1="67.05749988555908" y1="0" x2="67.05749988555908" y2="177.9749994277954" fill="rgb(0, 0, 0)" stroke="rgb(60, 60, 60)" stroke-width="1px" opacity="0.25"></line><line x1="100.58624982833862" y1="0" x2="100.58624982833862" y2="177.9749994277954" fill="rgb(0, 0, 0)" stroke="rgb(60, 60, 60)" stroke-width="1px" opacity="0.25"></line><line x1="134.11499977111816" y1="0" x2="134.11499977111816" y2="177.9749994277954" fill="rgb(0, 0, 0)" stroke="rgb(60, 60, 60)" stroke-width="1px" opacity="0.25"></line><line x1="167.6437497138977" y1="0" x2="167.6437497138977" y2="177.9749994277954" fill="rgb(0, 0, 0)" stroke="rgb(60, 60, 60)" stroke-width="1px" opacity="0.25"></line><line x1="201.17249965667725" y1="0" x2="201.17249965667725" y2="177.9749994277954" fill="rgb(0, 0, 0)" stroke="rgb(60, 60, 60)" stroke-width="1px" opacity="0.25"></line><line x1="234.7012495994568" y1="0" x2="234.7012495994568" y2="177.9749994277954" fill="rgb(0, 0, 0)" stroke="rgb(60, 60, 60)" stroke-width="1px" opacity="0.25"></line><line x1="268.2299995422363" y1="0" x2="268.2299995422363" y2="177.9749994277954" fill="rgb(0, 0, 0)" stroke="rgb(60, 60, 60)" stroke-width="1px" opacity="0.25"></line></g><g><line x1="0" y1="177.9749994277954" x2="268.2299995422363" y2="177.9749994277954" fill="rgb(0, 0, 0)" stroke="rgb(60, 60, 60)" stroke-width="1px" opacity="0.25"></line><line x1="0" y1="161.79545402526855" x2="268.2299995422363" y2="161.79545402526855" fill="rgb(0, 0, 0)" stroke="rgb(60, 60, 60)" stroke-width="1px" opacity="0.25"></line><line x1="0" y1="145.6159086227417" x2="268.2299995422363" y2="145.6159086227417" fill="rgb(0, 0, 0)" stroke="rgb(60, 60, 60)" stroke-width="1px" opacity="0.25"></line><line x1="0" y1="129.43636322021484" x2="268.2299995422363" y2="129.43636322021484" fill="rgb(0, 0, 0)" stroke="rgb(60, 60, 60)" stroke-width="1px" opacity="0.25"></line><line x1="0" y1="113.25681781768799" x2="268.2299995422363" y2="113.25681781768799" fill="rgb(0, 0, 0)" stroke="rgb(60, 60, 60)" stroke-width="1px" opacity="0.25"></line><line x1="0" y1="97.07727241516113" x2="268.2299995422363" y2="97.07727241516113" fill="rgb(0, 0, 0)" stroke="rgb(60, 60, 60)" stroke-width="1px" opacity="0.25"></line><line x1="0" y1="80.89772701263429" x2="268.2299995422363" y2="80.89772701263429" fill="rgb(0, 0, 0)" stroke="rgb(60, 60, 60)" stroke-width="1px" opacity="0.25"></line><line x1="0" y1="64.71818161010745" x2="268.2299995422363" y2="64.71818161010745" fill="rgb(0, 0, 0)" stroke="rgb(60, 60, 60)" stroke-width="1px" opacity="0.25"></line><line x1="0" y1="48.538636207580595" x2="268.2299995422363" y2="48.538636207580595" fill="rgb(0, 0, 0)" stroke="rgb(60, 60, 60)" stroke-width="1px" opacity="0.25"></line><line x1="0" y1="32.35909080505371" x2="268.2299995422363" y2="32.35909080505371" fill="rgb(0, 0, 0)" stroke="rgb(60, 60, 60)" stroke-width="1px" opacity="0.25"></line><line x1="0" y1="16.179545402526855" x2="268.2299995422363" y2="16.179545402526855" fill="rgb(0, 0, 0)" stroke="rgb(60, 60, 60)" stroke-width="1px" opacity="0.25"></line><line x1="0" y1="0" x2="268.2299995422363" y2="0" fill="rgb(0, 0, 0)" stroke="rgb(60, 60, 60)" stroke-width="1px" opacity="0.25"></line></g></g></g><g><g><line x1="0" y1="161.79545402526855" x2="268.2299995422363" y2="161.79545402526855" fill="rgb(0, 0, 0)" stroke="rgb(153, 153, 153)" stroke-width="1.5px"></line></g></g><g><g><line x1="33.52874994277954" y1="0" x2="33.52874994277954" y2="177.9749994277954" fill="rgb(0, 0, 0)" stroke="rgb(153, 153, 153)" stroke-width="1.5px"></line></g></g><g><g><g><g><g><path style="fill: none;" stroke="rgb(51, 187, 238)" stroke-width="2px" d="M33.52874994277954,158.17770755040203L34.19932494163513,144.43156537967093L34.869899940490725,134.95035160598874L35.54047493934632,127.63072528363011L36.21104993820191,119.32738475405672L36.881624937057495,107.59397557667711L37.55219993591309,104.66224343410688L38.22277493476867,100.30023551861093L38.893349933624265,91.47267945232956L39.56392493247986,94.50149051061176L40.23449993133545,93.5954350962743L40.90507493019104,87.92612382067746L41.575649929046634,87.49898237780117L42.24622492790222,85.81631010340885L42.91679992675781,80.18582460784047L43.5873749256134,84.211299032834L44.257949924468996,81.46077315125099L44.92852492332459,80.71652075164707L45.59909992218018,77.61651463100522L46.269674921035765,86.87121696204315L46.94024991989136,76.60690933761771L47.61082491874694,78.68436823819594L48.281399917602535,83.35054518374336L48.95197491645813,74.84657585940798L49.62254991531372,77.62298559434329L50.29312491416931,82.26975447175677L50.963699913024904,81.10482677073436L51.634274911880496,85.3373961319477L52.30484991073609,83.2728839799259L52.97542490959168,83.05284229514969L53.645999908447266,77.36411812953861L54.31657490730286,87.13656021206619L54.98714990615844,83.55764494184342L55.657724905014035,73.02799406739497L56.32829990386963,89.4469979022165L56.99887490272522,92.27518498761698L57.66944990158081,82.92987952608543L58.340024900436404,87.14950213874233L59.01059989929199,80.10816340402302L59.68117489814758,81.1889589378899L60.351749897003174,86.99417973110742L61.022324895858766,88.45033935738543L61.69289989471436,88.15263646879175L62.36347489356995,84.94261432764206L63.034049892425536,86.63175756537242L63.70462489128113,94.26203111394103L64.37519989013671,103.56850597356386L65.04577488899231,90.15242934367224L65.7163498878479,96.96725060839698L66.3869248867035,87.2012794892075L67.05749988555908,86.71588973252797L67.72807488441467,89.86766838175471L68.39864988327027,98.59167939086633L69.06922488212585,85.50566046625876L69.73979988098145,96.09355483263016L70.41037487983704,98.0804057808345L71.08094987869264,98.43635216135112L71.75152487754822,100.0996115457292L72.42209987640382,89.13635308694667L73.0926748752594,99.91840046286173L73.76324987411499,91.66683246187318L74.43382487297059,100.20316142477925L75.10439987182617,100.33259515718159L75.77497487068176,102.48771043969698L76.44554986953734,90.02299078938962L77.11612486839294,99.80190865713554L77.78669986724853,102.90190995589711L78.45727486610411,104.99877692460929L79.12784986495971,89.64762669697848L79.7984248638153,89.16871272551732L80.4689998626709,106.48082522611988L81.13957486152648,102.68833923445898L81.81014986038208,97.6338466260637L82.48072485923767,94.3138084644062L83.15129985809327,99.23885769663855L83.82187485694885,96.99961024696763L84.49244985580444,111.24408108737926L85.16302485466004,107.30274365142152L85.83359985351562,103.96975874120757L86.50417485237122,103.45848513117575L87.1747498512268,102.21589622633589L87.8453248500824,94.94804484350227L88.51589984893799,99.77601998190296L89.18647484779359,108.48061810100036L89.85704984664918,92.50169763573128L90.52762484550476,99.73071841665616L91.19819984436036,93.64720762485918L91.86877484321595,113.48333335893047L92.53934984207153,100.74679467338173L93.20992484092712,112.27957505599933L93.88049983978271,103.41318356592895L94.5510748386383,100.22905010001183L95.22164983749389,112.83615023127795L95.89222483634948,98.61756324421863L96.56279983520507,104.8822851188831L97.23337483406067,103.60086561213451L97.90394983291625,98.86349360422743L98.57452483177185,95.03864797399588L99.24509983062744,93.62132377150688L99.91567482948304,96.33948519263897L100.58624982833862,89.7576475393666L101.25682482719421,98.70170023325444L101.92739982604981,110.15681459017429L102.59797482490539,111.74888373407299L103.26854982376099,93.58896413293623L103.93912482261658,93.95138629867121L104.60969982147218,99.8601521490585L105.28027482032776,100.39084347098482L105.95084981918336,97.67915301319078L106.62142481803895,99.21944480662432L107.29199981689453,100.44909178478805L107.96257481575013,97.32967277413196L108.63314981460572,101.67226297773341L109.3037248134613,97.40733397794942L109.97429981231689,96.3783157945477L110.64487481117249,102.06057381870097L111.31544981002807,107.61339328857163L111.98602480888366,99.55597829712674L112.65659980773925,97.42028072650585L113.32717480659484,96.68896543169781L113.99774980545044,98.35221999419561L114.66832480430602,113.7680894989677L115.33889980316162,98.92821288136874L116.00947480201721,97.71798361509953L116.68004980087281,92.2039947471376L117.3506247997284,95.02570604731973L118.02119979858398,96.1065015811866L118.69177479743958,90.8384382513532L119.36234979629516,105.41297644080943L120.03292479515076,90.9484590937413L120.70349979400635,100.62382708243719L121.37407479286195,87.29835358303916L122.04464979171753,99.04470468709492L122.71522479057313,95.8411535092833L123.38579978942872,98.27455879037815L124.0563747882843,91.02612029755876L124.7269497871399,93.06474377434797L125.39752478599549,105.3547281270062L126.06809978485107,99.52361865855609L126.73867478370666,94.93510291682612L127.40924978256226,92.92883907860757L128.07982478141784,101.11568780245479L128.75039978027343,94.54032111252049L129.420974779129,92.96119389529794L130.09154977798462,95.41401688828729L130.7621247768402,88.61213272835842L131.4326997756958,103.19314188115273L132.10327477455138,95.92529049831911L132.773849773407,98.261616863702L133.44442477226258,94.02257653915059L134.11499977111816,105.19293475603321L134.78557476997375,92.00983691571368L135.45614976882933,99.64011046428226L136.12672476768492,94.82508207443801L136.79729976654053,93.36892244816L137.46787476539612,99.18061420471561L138.1384497642517,90.52779343608337L138.8090247631073,93.80253003249409L139.4795997619629,92.7670408857543L140.15017476081846,97.95743818988997L140.82074975967407,85.64156998387945L141.49132475852966,94.34616328109657L142.16189975738527,91.18144752707396L142.83247475624083,89.6411557336404L143.50304975509644,95.82174061926908L144.17362475395203,96.8248701274382L144.84419975280764,87.1753908139749L145.5147747516632,94.12612159632035L146.1853497505188,103.45201416783767L146.8559247493744,95.95117435167141L147.52649974822998,97.88624794941059L148.19707474708557,89.63467994842206L148.86764974594118,85.05263517003017L149.53822474479676,85.80983914007078L150.20879974365235,91.61505993328832L150.87937474250793,91.21380716564461L151.54994974136352,92.15868836001052L152.2205247402191,85.99105022293828L152.8910997390747,85.27267685480638L153.5616747379303,91.4209021018644L154.2322497367859,89.22695621744028L154.90282473564147,84.37956336714507L155.57339973449706,104.8822851188831L156.24397473335267,92.48227992383676L156.91454973220823,88.57977308978776L157.58512473106384,90.33363560465945L158.25569972991943,93.42069497674488L158.92627472877504,84.3277908385602L159.5968497276306,90.10712295654515L160.2674247264862,89.05869188312921L160.9379997253418,97.10316012601767L161.6085747241974,88.5927198383442L162.27914972305297,84.14010879235464L162.94972472190858,86.35346756679299L163.62029972076417,87.07184093492488L164.29087471961975,84.36662144046892L164.96144971847534,95.7505503787897L165.63202471733095,83.14345024752356L166.30259971618653,82.97518109133223L166.97317471504212,80.08227955067072L167.6437497138977,85.84219395676115L168.3143247127533,88.74157128264103L168.98489971160888,88.26265731117986L169.65547471046446,84.44428264428639L170.32604970932007,77.62298559434329L170.99662470817566,88.00378502449492L171.66719970703124,77.70064679816075L172.33777470588683,84.89083697717689L173.00834970474244,76.30273548568597L173.678924703598,78.52904583056103L174.3494997024536,84.51547288476577L175.0200747013092,83.48645470136405L175.6906497001648,74.25764104555869L176.36122469902037,75.33843657942556L177.03179969787598,73.24156478883313L177.70237469673157,76.63927379806866L178.37294969558718,80.43823075306761L179.04352469444274,80.34114701547539L179.71409969329835,72.64615901164576L180.38467469215394,72.74323310547743L181.05524969100952,72.69793636211091L181.7258246898651,75.9079585032606L182.39639968872072,70.45868409055971L183.0669746875763,73.68164815838556L183.7375496864319,71.2029413120439L184.40812468528748,74.38060863650323L185.07869968414306,77.62945655768137L185.74927468299865,71.01526408771862L186.41984968185423,78.80085522204185L187.09042468070984,68.2194318190085L187.76099967956543,66.01901497124632L188.43157467842101,65.10002245211298L189.1021496772766,72.97622636069038L189.7727246761322,79.31212883207367L190.44329967498777,63.935094751090574L191.11387467384338,71.24824769917099L191.78444967269897,71.13175107156451L192.45502467155458,66.2196437660083L193.12559967041014,69.20315325904372L193.79617466926575,64.6922938992509L194.46674966812134,64.40106197399533L195.13732466697695,62.038851755260126L195.8078996658325,64.69876486258897L196.47847466468812,67.92819989375289L197.1490496635437,64.8540872702239L197.8196246623993,65.81191521314624L198.49019966125488,58.738216839856264L199.1607746601105,60.57622116564404L199.83134965896608,64.03216884492225L200.50192465782166,57.78038889693393L201.17249965667725,53.96201905192075L201.84307465553283,52.77120749754603L202.51364965438842,59.074755152238936L203.184224653244,53.204819903760395L203.85479965209962,55.68352675010203L204.5253746509552,52.53174327899504L205.19594964981079,55.15283060629544L205.86652464866637,52.36994990802205L206.53709964752198,49.10168909682969L207.20767464637754,45.218590330914594L207.87824964523315,47.431958749113505L208.54882464408874,49.08226656305487L209.21939964294435,48.48686078586755L209.8899746417999,42.90168649930652L210.56054964065552,44.08602709034312L211.2311246395111,44.325481665133594L211.90169963836672,40.32589591537263L212.57227463722228,44.364317088922576L213.2428496360779,40.43592157964102L213.91342463493348,40.636550374403015L214.58399963378906,37.50418943707075L215.25457463264465,40.71421157822044L215.92514963150026,33.65345513160662L216.59572463035585,32.70209815202236L217.26629962921143,32.57913056107785L217.93687462806702,33.252197542082655L218.6074496269226,31.931947433425307L219.2780246257782,27.537584701238984L219.94859962463377,27.375791330265997L220.61917462348939,25.0006295410941L221.28974962234497,27.207526995954936L221.96032462120056,21.997707158044506L222.63089962005614,22.560758118541457L223.30147461891175,21.046350178460244L223.9720496177673,20.496250788399976L224.64262461662292,15.843010947648395L225.3131996154785,15.085811799488056L225.98377461433412,12.911278805078155L226.65434961318968,11.131522793093609L227.3249246120453,11.008564845909632L227.99549961090088,10.59436532970949L228.6660746097565,6.853656688513752L229.33664960861205,6.581837653272373L230.00722460746766,5.0480168231769085L230.67779960632325,3.462418642616285L231.34837460517883,2.9382031059083147L232.01894960403442,1.9674332363098301L232.68952460289003,0.16826433431106125L233.36009960174562,-0.14238048095873523" fill="none"></path></g><g><path style="fill: none;" stroke="rgb(0, 119, 187)" stroke-width="2px" d="M33.52874994277954,158.85077664097946L34.19932494163513,142.31528190453432L34.869899940490725,134.48438197214386L35.54047493934632,125.1973224134754L36.21104993820191,117.01047127868806L36.881624937057495,105.00524788794736L37.55219993591309,101.51046960676042L38.22277493476867,96.59188651598585L38.893349933624265,88.43739743070928L39.56392493247986,90.41130163035719L40.23449993133545,90.67017391704213L40.90507493019104,85.97810347438184L41.575649929046634,82.80691193514089L42.24622492790222,82.25680772320034L42.91679992675781,76.14094211471298L43.5873749256134,79.92695714303579L44.257949924468996,79.15033546110067L44.92852492332459,80.44470171640569L45.59909992218018,75.1701722451145L46.269674921035765,80.28290834543272L46.94024991989136,71.86953732971064L47.61082491874694,71.83718251302027L48.281399917602535,77.01463789047979L48.95197491645813,71.67538914204728L49.62254991531372,74.23175719220639L50.29312491416931,77.75889511196398L50.963699913024904,77.8883336662466L51.634274911880496,80.80065291880261L52.30484991073609,80.9624462897756L52.97542490959168,79.99167642017711L53.645999908447266,73.90816080649985L54.31657490730286,77.20878607814315L54.98714990615844,78.27663968533388L55.657724905014035,67.53342291132755L56.32829990386963,81.73906314983044L56.99887490272522,86.39877395392007L57.66944990158081,80.70356918121037L58.340024900436404,79.99167642017711L59.01059989929199,74.26411200889676L59.68117489814758,76.75576078191455L60.351749897003174,81.8361420655424L61.022324895858766,85.00733360478335L61.69289989471436,81.96557579794472L62.36347489356995,82.22444808462967L63.034049892425536,81.4801908631455L63.70462489128113,86.39877395392007L64.37519989013671,97.9509672265519L65.04577488899231,82.41860591605361L65.7163498878479,89.37580766173711L66.3869248867035,79.70044449492151L67.05749988555908,80.47705653309606L67.72807488441467,85.0720480600444L68.39864988327027,88.04908658974172L69.06922488212585,82.83927157371154L69.73979988098145,86.62528660203435L70.41037487983704,93.19418232863059L71.08094987869264,92.19104799858117L71.75152487754822,93.12946305148928L72.42209987640382,83.19522277610845L73.0926748752594,96.78603952552949L73.76324987411499,84.58666312524515L74.43382487297059,91.28499740612399L75.10439987182617,93.29125642246225L75.77497487068176,94.359110029653L76.44554986953734,80.54177581023738L77.11612486839294,97.40086301461135L77.78669986724853,94.52090340062598L78.45727486610411,100.1513840743141L79.12784986495971,85.88102938055017L79.7984248638153,83.97183963616328L80.4689998626709,98.66286963134571L81.13957486152648,95.97706302690399L81.81014986038208,91.02612029755876L82.48072485923767,86.69000587917567L83.15129985809327,92.25576727572248L83.82187485694885,88.95514200407918L84.49244985580444,104.13155211218054L85.16302485466004,95.84762929450166L85.83359985351562,96.88311844124144L86.50417485237122,94.19731183679973L87.1747498512268,99.21297384328625L87.8453248500824,89.99063115081897L88.51589984893799,95.29752026068081L89.18647484779359,98.82466300231869L89.85704984664918,84.97497396621272L90.52762484550476,93.00002931908695L91.19819984436036,87.27246972968686L91.86877484321595,104.42278403743616L92.53934984207153,94.87685460302288L93.20992484092712,104.97288824937671L93.88049983978271,97.1419907279264L94.5510748386383,92.32048655286378L95.22164983749389,104.74637560126241L95.89222483634948,92.80587148766303L96.56279983520507,96.3977335064422L97.23337483406067,97.9509672265519L97.90394983291625,93.80900581771245L98.57452483177185,90.41130163035719L99.24509983062744,86.56056732489306L99.91567482948304,91.18791849041203L100.58624982833862,82.38624627748295L101.25682482719421,89.47288657744907L101.92739982604981,102.96662923303843L102.59797482490539,104.32570994360448L103.26854982376099,87.79021430305677L103.93912482261658,86.8841588887193L104.60969982147218,92.09397390474949L105.28027482032776,93.61484798628852L105.95084981918336,91.28499740612399L106.62142481803895,92.15868836001052L107.29199981689453,94.84449496445224L107.96257481575013,94.45618412348468L108.63314981460572,94.81213532588157L109.3037248134613,90.41130163035719L109.97429981231689,92.80587148766303L110.64487481117249,95.26516544399044L111.31544981002807,101.34867141390716L111.98602480888366,91.80274197949389L112.65659980773925,89.63467994842206L113.32717480659484,90.05535042796026L113.99774980545044,93.19418232863059L114.66832480430602,110.27978218111885L115.33889980316162,93.93843955011478L116.00947480201721,89.95827151224832L116.68004980087281,87.95200767402976L117.3506247997284,89.21401429076413L118.02119979858398,88.98750164264983L118.69177479743958,81.44783122457484L119.36234979629516,97.33614373747004L120.03292479515076,83.55117397850535L120.70349979400635,94.52090340062598L121.37407479286195,81.51255050171615L122.04464979171753,93.00002931908695L122.71522479057313,87.46662273923052L123.38579978942872,93.93843955011478L124.0563747882843,83.32465650851078L124.7269497871399,86.4634884091811L125.39752478599549,99.08353528900365L126.06809978485107,95.32987989925148L126.73867478370666,88.37267815356796L127.40924978256226,84.42486975427217L128.07982478141784,94.4238293067943L128.75039978027343,90.63781427847148L129.420974779129,85.75159082626756L130.09154977798462,90.99376548086839L130.7621247768402,83.77768662661965L131.4326997756958,96.8507588026708L132.10327477455138,91.41443113852633L132.773849773407,90.21714379893326L133.44442477226258,87.6931353873448L134.11499977111816,95.84762929450166L134.78557476997375,85.58979745529457L135.45614976882933,93.8413654562831L136.12672476768492,87.14303117540426L136.79729976654053,88.30795887642667L137.46787476539612,90.37894199178653L138.1384497642517,86.72236551774633L138.8090247631073,88.69626971739423L139.4795997619629,87.49898237780117L140.15017476081846,93.93843955011478L140.82074975967407,81.38311194743353L141.49132475852966,88.11380586688303L142.16189975738527,87.82257394162741L142.83247475624083,84.81317577335945L143.50304975509644,89.79647814127533L144.17362475395203,88.14616550545368L144.84419975280764,79.5710059406389L145.5147747516632,88.5021118859703L146.1853497505188,100.28082262859671L146.8559247493744,89.0198564593402L147.52649974822998,89.0198564593402L148.19707474708557,83.19522277610845L148.86764974594118,82.5803992870266L149.53822474479676,81.22131857646055L150.20879974365235,85.00733360478335L150.87937474250793,84.97497396621272L151.54994974136352,83.42173542422273L152.2205247402191,80.86537219594392L152.8910997390747,78.85910353584507L153.5616747379303,83.55117397850535L154.2322497367859,83.42173542422273L154.90282473564147,75.00836923038094L155.57339973449706,100.28082262859671L156.24397473335267,84.8455354119301L156.91454973220823,82.28916736177099L157.58512473106384,82.41860591605361L158.25569972991943,85.20148661432701L158.92627472877504,80.18582460784047L159.5968497276306,84.39251011570151L160.2674247264862,81.80378242697174L160.9379997253418,90.57309500133017L161.6085747241974,81.80378242697174L162.27914972305297,76.52924813380027L162.94972472190858,82.09501435222735L163.62029972076417,84.00419927473395L164.29087471961975,78.50315233344817L164.96144971847534,86.0751823900938L165.63202471733095,73.16390358501566L166.30259971618653,73.90816080649985L166.97317471504212,78.85910353584507L167.6437497138977,80.44470171640569L168.3143247127533,82.77455229657022L168.98489971160888,80.67121436452L169.65547471046446,73.13154876832529L170.32604970932007,72.38728190308053L170.99662470817566,83.16286313753778L171.66719970703124,72.64615901164576L172.33777470588683,79.99167642017711L173.00834970474244,73.55220960410293L173.678924703598,73.09918430787435L174.3494997024536,78.69731016487209L175.0200747013092,75.10545296797318L175.6906497001648,71.18999938536776L176.36122469902037,64.58874884208116L177.03179969787598,67.82465483658315L177.70237469673157,71.25471866250906L178.37294969558718,74.94364995323964L179.04352469444274,70.28394879291056L179.71409969329835,65.98018919121787L180.38467469215394,68.66598615189902L181.05524969100952,64.42694582734762L181.7258246898651,72.48436564067278L182.39639968872072,64.97705486116844L183.0669746875763,67.40398435704493L183.7375496864319,64.58874884208116L184.40812468528748,69.37788855669282L185.07869968414306,73.48749997072218L185.74927468299865,63.456175957749124L186.41984968185423,72.87267165976006L187.09042468070984,64.36223619396688L187.76099967956543,63.16494403249352L188.43157467842101,62.744273552955306L189.1021496772766,66.82152050653374L189.7727246761322,69.66912048194844L190.44329967498777,60.220269963247134L191.11387467384338,66.07726328504954L191.78444967269897,64.94470004447807L192.45502467155458,61.449916941410834L193.12559967041014,66.20670183933215L193.79617466926575,61.708784406215514L194.46674966812134,60.12318622565489L195.13732466697695,56.563693489206926L195.8078996658325,57.95513383834364L196.47847466468812,61.8705777771885L197.1490496635437,58.76411033696914L197.8196246623993,61.32047838712822L198.49019966125488,52.7129591837428L199.1607746601105,55.884145901103466L199.83134965896608,58.505233228403895L200.50192465782166,54.136754349569884L201.17249965667725,47.01775923291336L201.84307465553283,47.43842971245158L202.51364965438842,54.20147362671118L203.184224653244,48.21504175062617L203.85479965209962,51.12736100318217L204.5253746509552,50.41546824214892L205.19594964981079,52.065776056090286L205.86652464866637,46.5647339366848L206.53709964752198,44.105439980357346L207.20767464637754,39.44572917626772L207.87824964523315,40.09291230392023L208.54882464408874,45.07620984995583L209.21939964294435,45.30272249807015L209.8899746417999,37.277676788956484L210.56054964065552,40.70774061488237L211.2311246395111,40.02819302677895L211.90169963836672,34.88310210977036L212.57227463722228,41.41963337591562L213.2428496360779,37.98956954998971L213.91342463493348,38.766191231924836L214.58399963378906,35.30377258930858L215.25457463264465,39.70460628483298L215.92514963150026,30.35282985996335L216.59572463035585,31.00001298761586L217.26629962921143,31.873708763382638L217.93687462806702,31.90606358007301L218.6074496269226,25.175374482503827L219.2780246257782,27.634658795070692L219.94859962463377,25.434241947308493L220.61917462348939,26.372657000216606L221.28974962234497,25.045935928221212L221.96032462120056,19.933199827902996L222.63089962005614,21.61587210229527L223.30147461891175,19.1242233292775L223.9720496177673,20.936334157952388L224.64262461662292,16.341342631004096L225.3131996154785,17.441551054885167L225.98377461433412,13.914413135127575L226.65434961318968,11.811070381197055L227.3249246120453,11.713986643604812L227.99549961090088,13.52609747227973L228.6660746097565,8.510445109553757L229.33664960861205,8.542799926244129L230.00722460746766,6.763053558020147L230.67779960632325,6.860127651851826L231.34837460517883,6.795408374710519L232.01894960403442,3.397709009235541L232.68952460289003,4.174321047410103L233.36009960174562,5.5657613965468045L234.0306746006012,3.041757806838632" fill="none"></path></g></g></g></g></g></g><g transform="translate(61, 177)" clip-path="url(#clip_1)"><clipPath id="clip_1"><rect width="268" height="22"></rect></clipPath><g><g><line x1="0" y1="0" x2="0" y2="5" style="visibility: inherit;" fill="rgb(0, 0, 0)" stroke="rgb(204, 204, 204)" stroke-width="1px"></line><line x1="33.52874994277954" y1="0" x2="33.52874994277954" y2="5" style="visibility: inherit;" fill="rgb(0, 0, 0)" stroke="rgb(204, 204, 204)" stroke-width="1px"></line><line x1="67.05749988555908" y1="0" x2="67.05749988555908" y2="5" style="visibility: inherit;" fill="rgb(0, 0, 0)" stroke="rgb(204, 204, 204)" stroke-width="1px"></line><line x1="100.58624982833862" y1="0" x2="100.58624982833862" y2="5" style="visibility: inherit;" fill="rgb(0, 0, 0)" stroke="rgb(204, 204, 204)" stroke-width="1px"></line><line x1="134.11499977111816" y1="0" x2="134.11499977111816" y2="5" style="visibility: inherit;" fill="rgb(0, 0, 0)" stroke="rgb(204, 204, 204)" stroke-width="1px"></line><line x1="167.6437497138977" y1="0" x2="167.6437497138977" y2="5" style="visibility: inherit;" fill="rgb(0, 0, 0)" stroke="rgb(204, 204, 204)" stroke-width="1px"></line><line x1="201.17249965667725" y1="0" x2="201.17249965667725" y2="5" style="visibility: inherit;" fill="rgb(0, 0, 0)" stroke="rgb(204, 204, 204)" stroke-width="1px"></line><line x1="234.7012495994568" y1="0" x2="234.7012495994568" y2="5" style="visibility: inherit;" fill="rgb(0, 0, 0)" stroke="rgb(204, 204, 204)" stroke-width="1px"></line><line x1="268.2299995422363" y1="0" x2="268.2299995422363" y2="5" style="visibility: inherit;" fill="rgb(0, 0, 0)" stroke="rgb(204, 204, 204)" stroke-width="1px"></line></g><g transform="translate(0, 8)"><text style="text-anchor: middle; visibility: hidden; font-family: &quot;Helvetica Neue&quot;, sans-serif; font-size: 12px; font-weight: 200;" x="0" y="0" dx="0em" dy="0.95em" fill="rgb(50, 49, 63)" stroke="none" stroke-width="1px">-50</text><text style="text-anchor: middle; visibility: inherit; font-family: &quot;Helvetica Neue&quot;, sans-serif; font-size: 12px; font-weight: 200;" x="33.52874994277954" y="0" dx="0em" dy="0.95em" fill="rgb(50, 49, 63)" stroke="none" stroke-width="1px">0</text><text style="text-anchor: middle; visibility: inherit; font-family: &quot;Helvetica Neue&quot;, sans-serif; font-size: 12px; font-weight: 200;" x="67.05749988555908" y="0" dx="0em" dy="0.95em" fill="rgb(50, 49, 63)" stroke="none" stroke-width="1px">50</text><text style="text-anchor: middle; visibility: inherit; font-family: &quot;Helvetica Neue&quot;, sans-serif; font-size: 12px; font-weight: 200;" x="100.58624982833862" y="0" dx="0em" dy="0.95em" fill="rgb(50, 49, 63)" stroke="none" stroke-width="1px">100</text><text style="text-anchor: middle; visibility: inherit; font-family: &quot;Helvetica Neue&quot;, sans-serif; font-size: 12px; font-weight: 200;" x="134.11499977111816" y="0" dx="0em" dy="0.95em" fill="rgb(50, 49, 63)" stroke="none" stroke-width="1px">150</text><text style="text-anchor: middle; visibility: inherit; font-family: &quot;Helvetica Neue&quot;, sans-serif; font-size: 12px; font-weight: 200;" x="167.6437497138977" y="0" dx="0em" dy="0.95em" fill="rgb(50, 49, 63)" stroke="none" stroke-width="1px">200</text><text style="text-anchor: middle; visibility: inherit; font-family: &quot;Helvetica Neue&quot;, sans-serif; font-size: 12px; font-weight: 200;" x="201.17249965667725" y="0" dx="0em" dy="0.95em" fill="rgb(50, 49, 63)" stroke="none" stroke-width="1px">250</text><text style="text-anchor: middle; visibility: inherit; font-family: &quot;Helvetica Neue&quot;, sans-serif; font-size: 12px; font-weight: 200;" x="234.7012495994568" y="0" dx="0em" dy="0.95em" fill="rgb(50, 49, 63)" stroke="none" stroke-width="1px">300</text><text style="text-anchor: middle; visibility: hidden; font-family: &quot;Helvetica Neue&quot;, sans-serif; font-size: 12px; font-weight: 200;" x="268.2299995422363" y="0" dx="0em" dy="0.95em" fill="rgb(50, 49, 63)" stroke="none" stroke-width="1px">350</text></g><line x1="0" y1="0" x2="268.2299995422363" y2="0" fill="rgb(0, 0, 0)" stroke="rgb(204, 204, 204)" stroke-width="1px"></line></g></g></g></g></svg>