<svg viewBox="0 0 330 200" xmlns="http://www.w3.org/2000/svg"><g><g><g><g><g><line x1="41.0620002746582" y1="177.9749994277954" x2="36.0620002746582" y2="177.9749994277954" style="visibility: inherit;" fill="rgb(0, 0, 0)" stroke="rgb(204, 204, 204)" stroke-width="1px"></line><line x1="41.0620002746582" y1="158.1999994913737" x2="36.0620002746582" y2="158.1999994913737" style="visibility: inherit;" fill="rgb(0, 0, 0)" stroke="rgb(204, 204, 204)" stroke-width="1px"></line><line x1="41.0620002746582" y1="138.424999554952" x2="36.0620002746582" y2="138.424999554952" style="visibility: inherit;" fill="rgb(0, 0, 0)" stroke="rgb(204, 204, 204)" stroke-width="1px"></line><line x1="41.0620002746582" y1="118.64999961853026" x2="36.0620002746582" y2="118.64999961853026" style="visibility: inherit;" fill="rgb(0, 0, 0)" stroke="rgb(204, 204, 204)" stroke-width="1px"></line><line x1="41.0620002746582" y1="98.87499968210858" x2="36.0620002746582" y2="98.87499968210858" style="visibility: inherit;" fill="rgb(0, 0, 0)" stroke="rgb(204, 204, 204)" stroke-width="1px"></line><line x1="41.0620002746582" y1="79.09999974568684" x2="36.0620002746582" y2="79.09999974568684" style="visibility: inherit;" fill="rgb(0, 0, 0)" stroke="rgb(204, 204, 204)" stroke-width="1px"></line><line x1="41.0620002746582" y1="59.32499980926511" x2="36.0620002746582" y2="59.32499980926511" style="visibility: inherit;" fill="rgb(0, 0, 0)" stroke="rgb(204, 204, 204)" stroke-width="1px"></line><line x1="41.0620002746582" y1="39.549999872843415" x2="36.0620002746582" y2="39.549999872843415" style="visibility: inherit;" fill="rgb(0, 0, 0)" stroke="rgb(204, 204, 204)" stroke-width="1px"></line><line x1="41.0620002746582" y1="19.774999936421693" x2="36.0620002746582" y2="19.774999936421693" style="visibility: inherit;" fill="rgb(0, 0, 0)" stroke="rgb(204, 204, 204)" stroke-width="1px"></line><line x1="41.0620002746582" y1="0" x2="36.0620002746582" y2="0" style="visibility: inherit;" fill="rgb(0, 0, 0)" stroke="rgb(204, 204, 204)" stroke-width="1px"></line></g><g transform="translate(31.062000274658203, 0)"><text style="text-anchor: end; visibility: hidden; font-family: &quot;Helvetica Neue&quot;, sans-serif; font-size: 12px; font-weight: 200;" x="0" y="177.9749994277954" dx="0em" dy="0.3em" fill="rgb(50, 49, 63)" stroke="none" stroke-width="1px">2</text><text style="text-anchor: end; visibility: inherit; font-family: &quot;Helvetica Neue&quot;, sans-serif; font-size: 12px; font-weight: 200;" x="0" y="158.1999994913737" dx="0em" dy="0.3em" fill="rgb(50, 49, 63)" stroke="none" stroke-width="1px">2.2</text><text style="text-anchor: end; visibility: hidden; font-family: &quot;Helvetica Neue&quot;, sans-serif; font-size: 12px; font-weight: 200;" x="0" y="138.424999554952" dx="0em" dy="0.3em" fill="rgb(50, 49, 63)" stroke="none" stroke-width="1px">2.4</text><text style="text-anchor: end; visibility: inherit; font-family: &quot;Helvetica Neue&quot;, sans-serif; font-size: 12px; font-weight: 200;" x="0" y="118.64999961853026" dx="0em" dy="0.3em" fill="rgb(50, 49, 63)" stroke="none" stroke-width="1px">2.6</text><text style="text-anchor: end; visibility: hidden; font-family: &quot;Helvetica Neue&quot;, sans-serif; font-size: 12px; font-weight: 200;" x="0" y="98.87499968210858" dx="0em" dy="0.3em" fill="rgb(50, 49, 63)" stroke="none" stroke-width="1px">2.8</text><text style="text-anchor: end; visibility: inherit; font-family: &quot;Helvetica Neue&quot;, sans-serif; font-size: 12px; font-weight: 200;" x="0" y="79.09999974568684" dx="0em" dy="0.3em" fill="rgb(50, 49, 63)" stroke="none" stroke-width="1px">3</text><text style="text-anchor: end; visibility: hidden; font-family: &quot;Helvetica Neue&quot;, sans-serif; font-size: 12px; font-weight: 200;" x="0" y="59.32499980926511" dx="0em" dy="0.3em" fill="rgb(50, 49, 63)" stroke="none" stroke-width="1px">3.2</text><text style="text-anchor: end; visibility: inherit; font-family: &quot;Helvetica Neue&quot;, sans-serif; font-size: 12px; font-weight: 200;" x="0" y="39.549999872843415" dx="0em" dy="0.3em" fill="rgb(50, 49, 63)" stroke="none" stroke-width="1px">3.4</text><text style="text-anchor: end; visibility: hidden; font-family: &quot;Helvetica Neue&quot;, sans-serif; font-size: 12px; font-weight: 200;" x="0" y="19.774999936421693" dx="0em" dy="0.3em" fill="rgb(50, 49, 63)" stroke="none" stroke-width="1px">3.6</text><text style="text-anchor: end; visibility: hidden; font-family: &quot;Helvetica Neue&quot;, sans-serif; font-size: 12px; font-weight: 200;" x="0" y="0" dx="0em" dy="0.3em" fill="rgb(50, 49, 63)" stroke="none" stroke-width="1px">3.8</text></g><line x1="41.0620002746582" y1="0" x2="41.0620002746582" y2="177.9749994277954" fill="rgb(0, 0, 0)" stroke="rgb(204, 204, 204)" stroke-width="1px"></line></g></g><g transform="translate(41, 0)" clip-path="url(#clip_0)"><clipPath id="clip_0"><rect width="288" height="177"></rect></clipPath><g><g><g><line x1="0" y1="0" x2="0" y2="177.9749994277954" fill="rgb(0, 0, 0)" stroke="rgb(60, 60, 60)" stroke-width="1px" opacity="0.25"></line><line x1="36.117249965667725" y1="0" x2="36.117249965667725" y2="177.9749994277954" fill="rgb(0, 0, 0)" stroke="rgb(60, 60, 60)" stroke-width="1px" opacity="0.25"></line><line x1="72.23449993133545" y1="0" x2="72.23449993133545" y2="177.9749994277954" fill="rgb(0, 0, 0)" stroke="rgb(60, 60, 60)" stroke-width="1px" opacity="0.25"></line><line x1="108.35174989700317" y1="0" x2="108.35174989700317" y2="177.9749994277954" fill="rgb(0, 0, 0)" stroke="rgb(60, 60, 60)" stroke-width="1px" opacity="0.25"></line><line x1="144.4689998626709" y1="0" x2="144.4689998626709" y2="177.9749994277954" fill="rgb(0, 0, 0)" stroke="rgb(60, 60, 60)" stroke-width="1px" opacity="0.25"></line><line x1="180.58624982833862" y1="0" x2="180.58624982833862" y2="177.9749994277954" fill="rgb(0, 0, 0)" stroke="rgb(60, 60, 60)" stroke-width="1px" opacity="0.25"></line><line x1="216.70349979400635" y1="0" x2="216.70349979400635" y2="177.9749994277954" fill="rgb(0, 0, 0)" stroke="rgb(60, 60, 60)" stroke-width="1px" opacity="0.25"></line><line x1="252.82074975967407" y1="0" x2="252.82074975967407" y2="177.9749994277954" fill="rgb(0, 0, 0)" stroke="rgb(60, 60, 60)" stroke-width="1px" opacity="0.25"></line><line x1="288.9379997253418" y1="0" x2="288.9379997253418" y2="177.9749994277954" fill="rgb(0, 0, 0)" stroke="rgb(60, 60, 60)" stroke-width="1px" opacity="0.25"></line></g><g><line x1="0" y1="177.9749994277954" x2="288.9379997253418" y2="177.9749994277954" fill="rgb(0, 0, 0)" stroke="rgb(60, 60, 60)" stroke-width="1px" opacity="0.25"></line><line x1="0" y1="158.1999994913737" x2="288.9379997253418" y2="158.1999994913737" fill="rgb(0, 0, 0)" stroke="rgb(60, 60, 60)" stroke-width="1px" opacity="0.25"></line><line x1="0" y1="138.424999554952" x2="288.9379997253418" y2="138.424999554952" fill="rgb(0, 0, 0)" stroke="rgb(60, 60, 60)" stroke-width="1px" opacity="0.25"></line><line x1="0" y1="118.64999961853026" x2="288.9379997253418" y2="118.64999961853026" fill="rgb(0, 0, 0)" stroke="rgb(60, 60, 60)" stroke-width="1px" opacity="0.25"></line><line x1="0" y1="98.87499968210858" x2="288.9379997253418" y2="98.87499968210858" fill="rgb(0, 0, 0)" stroke="rgb(60, 60, 60)" stroke-width="1px" opacity="0.25"></line><line x1="0" y1="79.09999974568684" x2="288.9379997253418" y2="79.09999974568684" fill="rgb(0, 0, 0)" stroke="rgb(60, 60, 60)" stroke-width="1px" opacity="0.25"></line><line x1="0" y1="59.32499980926511" x2="288.9379997253418" y2="59.32499980926511" fill="rgb(0, 0, 0)" stroke="rgb(60, 60, 60)" stroke-width="1px" opacity="0.25"></line><line x1="0" y1="39.549999872843415" x2="288.9379997253418" y2="39.549999872843415" fill="rgb(0, 0, 0)" stroke="rgb(60, 60, 60)" stroke-width="1px" opacity="0.25"></line><line x1="0" y1="19.774999936421693" x2="288.9379997253418" y2="19.774999936421693" fill="rgb(0, 0, 0)" stroke="rgb(60, 60, 60)" stroke-width="1px" opacity="0.25"></line><line x1="0" y1="0" x2="288.9379997253418" y2="0" fill="rgb(0, 0, 0)" stroke="rgb(60, 60, 60)" stroke-width="1px" opacity="0.25"></line></g></g></g><g><g><line x1="0" y1="375.72499879201257" x2="288.9379997253418" y2="375.72499879201257" fill="rgb(0, 0, 0)" stroke="rgb(153, 153, 153)" stroke-width="1.5px"></line></g></g><g><g><line x1="36.117249965667725" y1="0" x2="36.117249965667725" y2="177.9749994277954" fill="rgb(0, 0, 0)" stroke="rgb(153, 153, 153)" stroke-width="1.5px"></line></g></g><g><g><g><g><g><path style="fill: none;" stroke="rgb(238, 51, 119)" stroke-width="2px" d="M38.28428496360779,-4.275828699431486L39.006629962921146,10.019531193944488L39.7289749622345,24.902982607884923L40.45131996154785,31.086913342664644L41.1736649608612,40.270306493509594L41.89600996017456,46.91121218023309L42.61835495948791,47.95333194812474L43.34069995880127,47.54489511462572L44.063044958114624,56.439888391233865L44.78538995742798,56.75395995609058L45.50773495674133,59.697010658975444L46.23007995605469,63.83104864698309L46.952424955368045,62.075142726400884L47.6747699546814,64.07673309109752L48.39711495399475,63.818153867580804L49.11945995330811,71.43910993615167L49.84180495262146,57.670220076397584L50.56414995193481,70.85245640744013L51.286494951248166,72.78342015588584L52.00883995056152,63.19472546525395L52.73118494987488,74.71902791080736L53.45352994918823,72.37029216863719L54.17587494850159,66.45175343844781L54.898219947814944,68.37293412756638L55.620564947128294,64.09108943598963L56.34290994644165,67.53194462998604L57.06525494575501,65.07062119782448L57.787599945068365,71.10999839093179L58.509944944381715,55.99889636513058L59.232289943695065,62.56677092463603L59.95463494300842,72.80944545105974L60.67697994232177,50.54878937443435L61.39932494163513,55.701279198853015L62.121669940948486,64.25202665533038L62.84401494026184,60.67932410996838L63.56635993957519,62.89163921520799L64.28870493888856,64.87241405849286L65.01104993820191,52.56619764951293L65.73339493751526,61.758949534220235L66.45573993682862,57.591743439048045L67.17808493614197,60.27602632932074L67.90042993545532,62.566040141891094L68.62277493476867,50.66887348097042L69.34511993408204,36.172548332741655L70.06746493339539,51.421768297332605L70.78980993270874,45.68165842508816L71.5121549320221,59.96334560904309L72.23449993133545,59.136901045450315L72.9568449306488,53.943440240042335L73.67918992996216,41.96129061797862L74.40153492927551,61.438866691945634L75.12387992858886,46.01810137139418L75.84622492790223,42.24007244834681L76.56856992721558,38.61223116619885L77.29091492652894,46.19398427655037L78.01325992584229,53.53578133656211L78.73560492515564,42.05443005750041L79.457949924469,51.72087060273694L80.18029492378236,40.996610247411496L80.9026399230957,42.48863287616706L81.62498492240906,36.88553298177649L82.3473299217224,51.61610936020723L83.06967492103576,39.06196901160425L83.79201992034912,38.16744378454936L84.51436491966247,33.79361476166051L85.23670991897582,53.42309935202296L85.95905491828918,52.72883217071285L86.68139991760253,32.775822987083586L87.4037449169159,34.21176393357587L88.12608991622925,41.97336032008826L88.8484349155426,45.35950110276346L89.57077991485596,41.23647200320352L90.29312491416931,42.42682280012909L91.01546991348266,24.921134308323246L91.73781491279603,26.617587516560718L92.46015991210938,33.583738672047105L93.18250491142273,25.389047427803888L93.90484991073609,37.55332696881101L94.62719491004944,43.04992117153884L95.3495399093628,39.5291749219769L96.07188490867615,24.35602708376834L96.7942299079895,47.77150848646147L97.51657490730287,43.80463115794487L98.23891990661622,46.33214936261393L98.96126490592957,21.387729015728382L99.68360990524292,39.215079783483276L100.40595490455627,22.273084098016398L101.12829990386962,35.90296022077729L101.85064490318298,42.628943163191536L102.57298990249633,25.321485384354276L103.29533490180968,46.10070339520695L104.01767990112305,30.61742078950948L104.7400249004364,38.03722301413214L105.46236989974976,42.7749111230799L106.18471489906311,48.111157447390326L106.90705989837646,45.29587585668165L107.62940489768982,45.66642985562953L108.35174989700317,49.811099553893854L109.07409489631652,46.27710492037565L109.79643989562989,21.75191813270436L110.51878489494324,26.34085659260569L111.24112989425659,49.091467139243974L111.96347489356995,48.940643010147454L112.6858198928833,41.73257919245586L113.40816489219667,33.52770413705767L114.13050989151002,44.27801336119393L114.85285489082337,37.95264080481698L115.57519989013673,38.6664741047814L116.29754488945008,44.96273321954624L117.01988988876343,38.5323872579072L117.74223488807678,42.064802457750886L118.46457988739013,46.77083117229782L119.18692488670348,33.86952187258436L119.90926988601684,30.125038234892514L120.6316148853302,41.154247157581636L121.35395988464354,46.724485402087794L122.07630488395691,43.8301142594693L122.79864988327026,45.09349618361293L123.52099488258362,17.614509114615345L124.24333988189697,45.723525204280946L124.96568488121032,45.800328113408256L125.68802988052369,50.696383915271085L126.41037487983704,46.71357080818788L127.13271987915039,43.53494875143278L127.85506487846375,50.259870880185034L128.57740987777711,34.396039053480166L129.29975487709046,50.59020825452542L130.02209987640381,41.34495788036858L130.74444487571716,56.191893730700016L131.4667898750305,41.80466737419661L132.18913487434386,42.99935572031782L132.91147987365724,45.55678887025471L133.6338248729706,49.86543678702415L134.35616987228394,48.287464678011304L135.0785148715973,31.9559554681951L135.80085987091064,46.93898192454003L136.523204870224,49.260419395141895L137.24554986953734,49.192385878953615L137.9678948688507,37.51120087961195L138.69023986816407,47.58100992640689L139.41258486747742,46.20374376224058L140.13492986679077,47.634404214059856L140.85727486610412,54.13021416546151L141.57961986541747,36.98192558319502L142.30196486473082,46.17727056796494L143.0243098640442,41.2129455135445L143.74665486335755,52.52727757493676L144.4689998626709,38.83787801892035L145.19134486198425,52.988283618796075L145.9136898612976,36.13075227445967L146.63603486061095,46.54002169308805L147.35837985992433,48.5297545184074L148.08072485923765,41.80914636521385L148.80306985855103,50.95114420960468L149.52541485786438,49.10143878766658L150.24775985717773,50.22821148578417L150.97010485649108,45.42949123081718L151.69244985580445,57.76145005132781L152.41479485511778,49.15851056268107L153.13713985443115,52.004084276848516L153.8594848537445,54.8872815155608L154.58182985305788,49.39481269929621L155.3041748523712,48.802996544096374L156.02651985168458,56.77230024562435L156.74886485099793,42.982901321738694L157.47120985031128,37.53746191115516L158.19355484962463,46.47691506701872L158.915899848938,45.631870903885925L159.63824484825133,55.65347186315314L160.3605898475647,59.96244981083963L161.08293484687806,59.04152211041992L161.8052798461914,52.766455695257704L162.52762484550476,51.78600456158247L163.2499698448181,53.252449794265885L163.97231484413146,59.6434749295009L164.6946598434448,57.041534753034725L165.4170048427582,50.81326200718429L166.1393498420715,57.42479494228944L166.8616948413849,62.39699359144544L167.58403984069824,31.15753995891552L168.3063848400116,54.727334388971244L169.02872983932494,58.25135737406684L169.75107483863832,54.33242882307171L170.47341983795164,50.67068865101426L171.19576483726502,62.91542501487325L171.91810983657837,57.607797085799334L172.64045483589175,58.125804183762355L173.36279983520507,51.298030277071945L174.08514483451845,55.29984373552307L174.8074898338318,64.69634256424122L175.52983483314515,61.80548389352572L176.2521798324585,62.08817894762478L176.97452483177187,62.59946755906192L177.6968698310852,43.8258945784583L178.41921483039857,62.47792188703602L179.14155982971192,62.823652846293555L179.86390482902527,68.0747983412763L180.58624982833862,62.799937767539106L181.30859482765197,59.77277632807771L182.03093982696532,59.463725947887724L182.75328482627867,63.94719595615136L183.47562982559205,68.8337987296041L184.19797482490537,60.61716042937638L184.92031982421875,67.1203960764119L185.6426648235321,64.9907537158959L186.36500982284545,72.01437739822465L187.0873548221588,69.16474901850475L187.80969982147218,65.03997546981175L188.5320448207855,67.23296019276638L189.25438982009888,74.22829551077568L189.97673481941223,72.51557649305451L190.6990798187256,77.92136504631691L191.42142481803893,74.72147956904836L192.1437698173523,73.98246962483964L192.86611481666566,67.77376299764349L193.588459815979,77.54326748355052L194.31080481529236,77.96167596547212L195.03314981460574,74.5565819787029L195.75549481391906,76.07274401167773L196.47783981323244,78.28861873609418L197.20018481254579,74.12313351641811L197.92252981185914,76.39306259032165L198.64487481117249,74.72836307103277L199.36721981048584,69.56083326625092L200.08956480979919,79.23184709705241L200.81190980911254,74.00238934804793L201.5342548084259,83.78419927243392L202.25659980773924,83.78681594613346L202.9789448070526,88.99842845197978L203.70128980636596,79.70034955745638L204.4236348056793,75.46305903968276L205.14597980499266,86.77215775367591L205.86832480430604,82.80450249514053L206.59066980361936,82.31862626431703L207.31301480293274,89.49373413757642L208.0353598022461,86.57984402357752L208.75770480155947,89.8834299297138L209.4800498008728,87.82373054997765L210.20239480018617,93.27148017698057L210.92473979949952,90.42835812105416L211.64708479881287,82.2839730180257L212.36942979812622,88.43775307116826L213.0917747974396,87.82929392829381L213.81411979675292,94.18314343808568L214.5364647960663,96.85794972631136L215.25880979537965,90.49266700260704L215.981154794693,98.84412293245387L216.70349979400635,99.30864144821619L217.4258447933197,103.14763179637194L218.14818979263305,100.13154996626902L218.8705347919464,102.36826378573413L219.59287979125978,102.10421547844899L220.3152247905731,105.46888067787836L221.03756978988648,104.89337747943605L221.75991478919983,107.14671071293886L222.48225978851318,106.34424053810683L223.20460478782653,110.26625723554018L223.9269497871399,109.66920773294122L224.64929478645323,110.69244501764963L225.3716397857666,113.52844783522231L226.09398478507995,115.43463569125157L226.81632978439333,116.74627285019679L227.53867478370665,116.92918069915898L228.26101978302003,118.05328957630316L228.98336478233338,116.88993059366574L229.70570978164673,121.24096390964048L230.42805478096008,120.83698249352179L231.15039978027346,123.74653505832507L231.87274477958678,121.38778052045843L232.59508977890016,128.13446111609974L233.3174347782135,128.79824758485566L234.03977977752686,131.59740480790228L234.7621247768402,128.7737310024455L235.48446977615356,130.22791794392379L236.2068147754669,135.06447388616803L236.92915977478026,133.66035734953516L237.65150477409364,137.00621078669207L238.37384977340696,137.21837351908795L239.09619477272034,140.3473966437363L239.8185397720337,143.05475812456626L240.54088477134704,143.49775390980886L241.2632297706604,143.35777365370146L241.98557476997377,148.46957538077396L242.7079197692871,149.87182960008917L243.43026476860047,152.21200811205267L244.15260976791382,153.4883083892355L244.8749547672272,155.18631745751054L245.59729976654052,155.25013129268783L246.3196447658539,158.53276023559079L247.04198976516724,160.0245235543401L247.7643347644806,161.07435190150878L248.48667976379394,162.48914729567227L249.20902476310732,164.07548804579628L249.93136976242064,164.58444286717705L250.65371476173402,166.20449391811508L251.37605976104737,166.67160553394L252.09840476036072,167.34321845015765" fill="none"></path></g><g><path style="fill: none;" stroke="rgb(204, 51, 17)" stroke-width="2px" d="M38.28428496360779,-1.3846635714359081L39.006629962921146,11.421007483240885L39.7289749622345,27.883091068028307L40.45131996154785,33.997786031136144L41.1736649608612,44.58086387487057L41.89600996017456,51.205645193932L42.61835495948791,51.8877012313109L43.34069995880127,51.289520194139186L44.063044958114624,59.780838511908755L44.78538995742798,62.31113840573592L45.50773495674133,64.90836385481549L46.23007995605469,69.89171283424078L46.952424955368045,68.45433389589562L47.6747699546814,67.64000618168636L48.39711495399475,68.11004092849096L49.11945995330811,75.54391661436254L49.84180495262146,65.2395027328116L50.56414995193481,77.07368063584764L51.286494951248166,80.957060142348L52.00883995056152,70.98552958792621L52.73118494987488,79.40973376134791L53.45352994918823,76.62505075137807L54.17587494850159,71.8996916545462L54.898219947814944,72.70713586677107L55.620564947128294,69.2010759930183L56.34290994644165,73.40585846546149L57.06525494575501,71.9995731542308L57.787599945068365,77.33145835570863L58.509944944381715,69.6142275539039L59.232289943695065,68.2200590920567L59.95463494300842,80.42292867672289L60.67697994232177,62.23813085215481L61.39932494163513,64.14403582454088L62.121669940948486,68.0267552692071L62.84401494026184,70.54852150646455L63.56635993957519,70.7984492052269L64.28870493888856,72.13000608738041L65.01104993820191,61.927642480111885L65.73339493751526,67.87017917269894L66.45573993682862,65.09464273385908L67.17808493614197,66.12021380862384L67.90042993545532,70.79932142979344L68.62277493476867,61.38575528793588L69.34511993408204,45.51254115373172L70.06746493339539,60.35426723030096L70.78980993270874,55.99385160682694L71.5121549320221,68.45058568762327L72.23449993133545,67.15189045535422L72.9568449306488,62.09685404601608L73.67918992996216,55.77954367347016L74.40153492927551,66.90995421951213L75.12387992858886,58.309796420023446L75.84622492790223,47.590462954816985L76.56856992721558,49.34752398360885L77.29091492652894,56.85183769663588L78.01325992584229,61.603104220456984L78.73560492515564,49.42489266002258L79.457949924469,59.18286963746944L80.18029492378236,51.22231175524355L80.9026399230957,52.465797529815816L81.62498492240906,45.34580481970548L82.3473299217224,59.88607122717711L83.06967492103576,45.45631802964681L83.79201992034912,49.72444286452861L84.51436491966247,39.322528420623314L85.23670991897582,58.99293684470126L85.95905491828918,60.860298920702064L86.68139991760253,41.93321441639159L87.4037449169159,42.500490415544306L88.12608991622925,51.47282879492923L88.8484349155426,53.283425553195684L89.57077991485596,49.48974373522492L90.29312491416931,52.341918067733545L91.01546991348266,34.54012112241389L91.73781491279603,41.04031577028505L92.46015991210938,45.473078885506084L93.18250491142273,36.99970010544243L93.90484991073609,41.898702611921834L94.62719491004944,51.53261153819098L95.3495399093628,45.868290908685736L96.07188490867615,38.87583157438226L96.7942299079895,56.05889127112475L97.51657490730287,51.49748681916101L98.23891990661622,55.4211300975427L98.96126490592957,33.74406297682762L99.68360990524292,46.94447458194537L100.40595490455627,32.34190305206016L101.12829990386962,46.22432354728298L101.85064490318298,52.92399831088012L102.57298990249633,35.194525283670515L103.29533490180968,54.55661411030337L104.01767990112305,42.0897669392628L104.7400249004364,45.018956343631146L105.46236989974976,50.274109356892495L106.18471489906311,55.43369484602795L106.90705989837646,55.485839730923445L107.62940489768982,54.407086531238136L108.35174989700317,59.77249344443452L109.07409489631652,54.3053191405989L109.79643989562989,31.438608432066218L110.51878489494324,37.533784423793634L111.24112989425659,57.6378063256149L111.96347489356995,57.423286229525715L112.6858198928833,49.9479916635631L113.40816489219667,42.72502930732995L114.13050989151002,51.07467006713294L114.85285489082337,46.8375681384548L115.57519989013673,45.97300500394158L116.29754488945008,49.92262643022332L117.01988988876343,47.28629231747209L117.74223488807678,53.192242725539316L118.46457988739013,52.6368006921269L119.18692488670348,41.851908942610095L119.90926988601684,37.954479548497744L120.6316148853302,50.141625517329715L121.35395988464354,55.56554219739351L122.07630488395691,52.50632061170343L122.79864988327026,52.84660606082949L123.52099488258362,25.28265960432583L124.24333988189697,52.337698386722565L124.96568488121032,53.71703903093898L125.68802988052369,57.08149206763595L126.41037487983704,52.2224940230316L127.13271987915039,53.19014467185228L127.85506487846375,60.309995940141036L128.57740987777711,46.14070785708205L129.29975487709046,59.47435765814444L130.02209987640381,49.058676210270335L130.74444487571716,64.26355416379054L131.4667898750305,51.54871233221614L132.18913487434386,53.83719385838586L132.91147987365724,53.516851706105015L133.6338248729706,58.995907122954804L134.35616987228394,55.13763353978794L135.0785148715973,43.28693051726199L135.80085987091064,53.80511013852022L136.523204870224,57.173358530763366L137.24554986953734,61.139222192891864L137.9678948688507,49.13753002581083L138.69023986816407,53.464801115757226L139.41258486747742,57.423616260442785L140.13492986679077,56.55947745139436L140.85727486610412,62.241478308599255L141.57961986541747,44.67060871067403L142.30196486473082,55.63411790723124L143.0243098640442,49.6890116882185L143.74665486335755,60.54231413211453L144.4689998626709,50.1018803654609L145.19134486198425,60.10624899613018L145.9136898612976,45.98453251240173L146.63603486061095,56.72871259093547L147.35837985992433,56.81765592308321L148.08072485923765,52.72494252061891L148.80306985855103,57.766235499625196L149.52541485786438,55.12862841047959L150.24775985717773,57.87851673233648L150.97010485649108,49.59558936505354L151.69244985580445,61.71540902680522L152.41479485511778,57.55197471354229L153.13713985443115,59.08411967235763L153.8594848537445,62.46729017677929L154.58182985305788,57.94294348207404L155.3041748523712,57.94584303941677L156.02651985168458,66.50116378145913L156.74886485099793,53.27746142305166L157.47120985031128,43.12738414250029L158.19355484962463,52.90214554944335L158.915899848938,58.46408587374911L159.63824484825133,63.1942539925153L160.3605898475647,64.50893215062486L161.08293484687806,65.82893795068122L161.8052798461914,62.65142385486199L162.52762484550476,60.115631303629456L163.2499698448181,63.50351653543771L163.97231484413146,66.82089301917972L164.6946598434448,63.54269592002014L165.4170048427582,60.5192826888311L166.1393498420715,65.38450417358574L166.8616948413849,70.75009967587759L167.58403984069824,38.427060248091095L168.3063848400116,63.354318987289545L169.02872983932494,66.63098380004847L169.75107483863832,64.68660665218793L170.47341983795164,59.42610242334284L171.19576483726502,68.48825635944202L171.91810983657837,65.63466760871741L172.64045483589175,66.31580427425591L173.36279983520507,60.126451602981646L174.08514483451845,63.219807814950556L174.8074898338318,73.67478651559175L175.52983483314515,68.19434025416291L176.2521798324585,68.49518700870027L176.97452483177187,69.6312948670433L177.6968698310852,55.623321181516005L178.41921483039857,73.40812153460706L179.14155982971192,72.41748658977683L179.86390482902527,73.54640448885532L180.58624982833862,71.80652864138747L181.30859482765197,68.3748907394318L182.03093982696532,67.75433832081079L182.75328482627867,75.48507681657807L183.47562982559205,76.89508676244417L184.19797482490537,67.94370534629259L184.92031982421875,76.04150894274167L185.6426648235321,73.09084395512747L186.36500982284545,79.42550452445599L187.0873548221588,75.77991229369755L187.80969982147218,71.36235417429822L188.5320448207855,75.28078767891776L189.25438982009888,80.98343904207589L189.97673481941223,83.37842625990834L190.6990798187256,85.73439910861687L191.42142481803893,81.92145762927194L192.1437698173523,80.572857007616L192.86611481666566,77.83131375323333L193.588459815979,84.48848524944053L194.31080481529236,84.20449364531017L195.03314981460574,85.13244628953589L195.75549481391906,82.25874922650753L196.47783981323244,83.92667833405623L197.20018481254579,81.14597926872806L197.92252981185914,84.58888536913764L198.64487481117249,80.28205262241202L199.36721981048584,77.25064792830274L200.08956480979919,88.69802959654415L200.81190980911254,81.7397284621564L201.5342548084259,90.45912171725156L202.25659980773924,90.16848234750613L202.9789448070526,94.90242224818158L203.70128980636596,86.26362725775994L204.4236348056793,86.08380755523595L205.14597980499266,92.86047381705589L205.86832480430604,88.65335755455634L206.59066980361936,87.11076947457974L207.31301480293274,94.20200234763197L208.0353598022461,89.59743456644415L208.75770480155947,95.50864189554741L209.4800498008728,93.5533030065131L210.20239480018617,101.02277488415332L210.92473979949952,97.69582750381656L211.64708479881287,91.30906919686639L212.36942979812622,95.6576272809632L213.0917747974396,93.28677946735L213.81411979675292,100.27367542333732L214.5364647960663,101.64844278198878L215.25880979537965,96.63336368725186L215.981154794693,102.4937934024017L216.70349979400635,104.59564244497383L217.4258447933197,109.35176513800312L218.14818979263305,107.54345502251915L218.8705347919464,107.85689009917867L219.59287979125978,108.92619027045392L220.3152247905731,111.33487377134436L221.03756978988648,108.26954661368866L221.75991478919983,113.50553426012355L222.48225978851318,111.70431980935639L223.20460478782653,116.415723313124L223.9269497871399,116.01980408083637L224.64929478645323,115.8182730586972L225.3716397857666,117.70744074886093L226.09398478507995,121.34619662490884L226.81632978439333,120.13123495102536L227.53867478370665,120.35711754011618L228.26101978302003,123.29585426744234L228.98336478233338,121.27309477678L229.70570978164673,124.43297579217347L230.42805478096008,122.52108311600645L231.15039978027346,127.42100499432627L231.87274477958678,124.4579638473223L232.59508977890016,130.59983921381377L233.3174347782135,132.83839177695964L234.03977977752686,132.8197214565088L234.7621247768402,131.97389936335722L235.48446977615356,136.38787428994274L236.2068147754669,137.91271142130887L236.92915977478026,137.62935630537572L237.65150477409364,137.3843319230954L238.37384977340696,139.68361017498037L239.09619477272034,144.27386875854995L239.8185397720337,143.4333743073452L240.54088477134704,145.45820827805764L241.2632297706604,144.1274764731968L241.98557476997377,148.56764171041473L242.7079197692871,149.66192993683882L243.43026476860047,152.22030603225303L244.15260976791382,153.1903847656778L244.8749547672272,153.82887672200476L245.59729976654052,154.75697080805207L246.3196447658539,157.0489176588509L247.04198976516724,158.44737652261992L247.7643347644806,159.6120084816517L248.48667976379394,159.95693793725354L249.20902476310732,161.64009561426087L249.93136976242064,162.6728802219271L250.65371476173402,162.7763449144255L251.37605976104737,163.46552019015812L252.09840476036072,164.20497803346856" fill="none"></path></g></g></g></g></g></g><g transform="translate(41, 177)" clip-path="url(#clip_1)"><clipPath id="clip_1"><rect width="288" height="22"></rect></clipPath><g><g><line x1="0" y1="0" x2="0" y2="5" style="visibility: inherit;" fill="rgb(0, 0, 0)" stroke="rgb(204, 204, 204)" stroke-width="1px"></line><line x1="36.117249965667725" y1="0" x2="36.117249965667725" y2="5" style="visibility: inherit;" fill="rgb(0, 0, 0)" stroke="rgb(204, 204, 204)" stroke-width="1px"></line><line x1="72.23449993133545" y1="0" x2="72.23449993133545" y2="5" style="visibility: inherit;" fill="rgb(0, 0, 0)" stroke="rgb(204, 204, 204)" stroke-width="1px"></line><line x1="108.35174989700317" y1="0" x2="108.35174989700317" y2="5" style="visibility: inherit;" fill="rgb(0, 0, 0)" stroke="rgb(204, 204, 204)" stroke-width="1px"></line><line x1="144.4689998626709" y1="0" x2="144.4689998626709" y2="5" style="visibility: inherit;" fill="rgb(0, 0, 0)" stroke="rgb(204, 204, 204)" stroke-width="1px"></line><line x1="180.58624982833862" y1="0" x2="180.58624982833862" y2="5" style="visibility: inherit;" fill="rgb(0, 0, 0)" stroke="rgb(204, 204, 204)" stroke-width="1px"></line><line x1="216.70349979400635" y1="0" x2="216.70349979400635" y2="5" style="visibility: inherit;" fill="rgb(0, 0, 0)" stroke="rgb(204, 204, 204)" stroke-width="1px"></line><line x1="252.82074975967407" y1="0" x2="252.82074975967407" y2="5" style="visibility: inherit;" fill="rgb(0, 0, 0)" stroke="rgb(204, 204, 204)" stroke-width="1px"></line><line x1="288.9379997253418" y1="0" x2="288.9379997253418" y2="5" style="visibility: inherit;" fill="rgb(0, 0, 0)" stroke="rgb(204, 204, 204)" stroke-width="1px"></line></g><g transform="translate(0, 8)"><text style="text-anchor: middle; visibility: hidden; font-family: &quot;Helvetica Neue&quot;, sans-serif; font-size: 12px; font-weight: 200;" x="0" y="0" dx="0em" dy="0.95em" fill="rgb(50, 49, 63)" stroke="none" stroke-width="1px">-50</text><text style="text-anchor: middle; visibility: inherit; font-family: &quot;Helvetica Neue&quot;, sans-serif; font-size: 12px; font-weight: 200;" x="36.117249965667725" y="0" dx="0em" dy="0.95em" fill="rgb(50, 49, 63)" stroke="none" stroke-width="1px">0</text><text style="text-anchor: middle; visibility: inherit; font-family: &quot;Helvetica Neue&quot;, sans-serif; font-size: 12px; font-weight: 200;" x="72.23449993133545" y="0" dx="0em" dy="0.95em" fill="rgb(50, 49, 63)" stroke="none" stroke-width="1px">50</text><text style="text-anchor: middle; visibility: inherit; font-family: &quot;Helvetica Neue&quot;, sans-serif; font-size: 12px; font-weight: 200;" x="108.35174989700317" y="0" dx="0em" dy="0.95em" fill="rgb(50, 49, 63)" stroke="none" stroke-width="1px">100</text><text style="text-anchor: middle; visibility: inherit; font-family: &quot;Helvetica Neue&quot;, sans-serif; font-size: 12px; font-weight: 200;" x="144.4689998626709" y="0" dx="0em" dy="0.95em" fill="rgb(50, 49, 63)" stroke="none" stroke-width="1px">150</text><text style="text-anchor: middle; visibility: inherit; font-family: &quot;Helvetica Neue&quot;, sans-serif; font-size: 12px; font-weight: 200;" x="180.58624982833862" y="0" dx="0em" dy="0.95em" fill="rgb(50, 49, 63)" stroke="none" stroke-width="1px">200</text><text style="text-anchor: middle; visibility: inherit; font-family: &quot;Helvetica Neue&quot;, sans-serif; font-size: 12px; font-weight: 200;" x="216.70349979400635" y="0" dx="0em" dy="0.95em" fill="rgb(50, 49, 63)" stroke="none" stroke-width="1px">250</text><text style="text-anchor: middle; visibility: inherit; font-family: &quot;Helvetica Neue&quot;, sans-serif; font-size: 12px; font-weight: 200;" x="252.82074975967407" y="0" dx="0em" dy="0.95em" fill="rgb(50, 49, 63)" stroke="none" stroke-width="1px">300</text><text style="text-anchor: middle; visibility: hidden; font-family: &quot;Helvetica Neue&quot;, sans-serif; font-size: 12px; font-weight: 200;" x="288.9379997253418" y="0" dx="0em" dy="0.95em" fill="rgb(50, 49, 63)" stroke="none" stroke-width="1px">350</text></g><line x1="0" y1="0" x2="288.9379997253418" y2="0" fill="rgb(0, 0, 0)" stroke="rgb(204, 204, 204)" stroke-width="1px"></line></g></g></g></g></svg>