<svg viewBox="0 0 330 200" xmlns="http://www.w3.org/2000/svg"><g><g><g><g><g><line x1="51.41600036621094" y1="177.9749994277954" x2="46.41600036621094" y2="177.9749994277954" style="visibility: inherit;" fill="rgb(0, 0, 0)" stroke="rgb(204, 204, 204)" stroke-width="1px"></line><line x1="51.41600036621094" y1="164.28461485642654" x2="46.41600036621094" y2="164.28461485642654" style="visibility: inherit;" fill="rgb(0, 0, 0)" stroke="rgb(204, 204, 204)" stroke-width="1px"></line><line x1="51.41600036621094" y1="150.59423028505765" x2="46.41600036621094" y2="150.59423028505765" style="visibility: inherit;" fill="rgb(0, 0, 0)" stroke="rgb(204, 204, 204)" stroke-width="1px"></line><line x1="51.41600036621094" y1="136.90384571368878" x2="46.41600036621094" y2="136.90384571368878" style="visibility: inherit;" fill="rgb(0, 0, 0)" stroke="rgb(204, 204, 204)" stroke-width="1px"></line><line x1="51.41600036621094" y1="123.21346114231989" x2="46.41600036621094" y2="123.21346114231989" style="visibility: inherit;" fill="rgb(0, 0, 0)" stroke="rgb(204, 204, 204)" stroke-width="1px"></line><line x1="51.41600036621094" y1="109.52307657095103" x2="46.41600036621094" y2="109.52307657095103" style="visibility: inherit;" fill="rgb(0, 0, 0)" stroke="rgb(204, 204, 204)" stroke-width="1px"></line><line x1="51.41600036621094" y1="95.83269199958215" x2="46.41600036621094" y2="95.83269199958215" style="visibility: inherit;" fill="rgb(0, 0, 0)" stroke="rgb(204, 204, 204)" stroke-width="1px"></line><line x1="51.41600036621094" y1="82.14230742821327" x2="46.41600036621094" y2="82.14230742821327" style="visibility: inherit;" fill="rgb(0, 0, 0)" stroke="rgb(204, 204, 204)" stroke-width="1px"></line><line x1="51.41600036621094" y1="68.4519228568444" x2="46.41600036621094" y2="68.4519228568444" style="visibility: inherit;" fill="rgb(0, 0, 0)" stroke="rgb(204, 204, 204)" stroke-width="1px"></line><line x1="51.41600036621094" y1="54.76153828547551" x2="46.41600036621094" y2="54.76153828547551" style="visibility: inherit;" fill="rgb(0, 0, 0)" stroke="rgb(204, 204, 204)" stroke-width="1px"></line><line x1="51.41600036621094" y1="41.07115371410666" x2="46.41600036621094" y2="41.07115371410666" style="visibility: inherit;" fill="rgb(0, 0, 0)" stroke="rgb(204, 204, 204)" stroke-width="1px"></line><line x1="51.41600036621094" y1="27.380769142737762" x2="46.41600036621094" y2="27.380769142737762" style="visibility: inherit;" fill="rgb(0, 0, 0)" stroke="rgb(204, 204, 204)" stroke-width="1px"></line><line x1="51.41600036621094" y1="13.690384571368867" x2="46.41600036621094" y2="13.690384571368867" style="visibility: inherit;" fill="rgb(0, 0, 0)" stroke="rgb(204, 204, 204)" stroke-width="1px"></line><line x1="51.41600036621094" y1="0" x2="46.41600036621094" y2="0" style="visibility: inherit;" fill="rgb(0, 0, 0)" stroke="rgb(204, 204, 204)" stroke-width="1px"></line></g><g transform="translate(41.41600036621094, 0)"><text style="text-anchor: end; visibility: hidden; font-family: &quot;Helvetica Neue&quot;, sans-serif; font-size: 12px; font-weight: 200;" x="0" y="177.9749994277954" dx="0em" dy="0.3em" fill="rgb(50, 49, 63)" stroke="none" stroke-width="1px">-0.1</text><text style="text-anchor: end; visibility: inherit; font-family: &quot;Helvetica Neue&quot;, sans-serif; font-size: 12px; font-weight: 200;" x="0" y="164.28461485642654" dx="0em" dy="0.3em" fill="rgb(50, 49, 63)" stroke="none" stroke-width="1px">0</text><text style="text-anchor: end; visibility: hidden; font-family: &quot;Helvetica Neue&quot;, sans-serif; font-size: 12px; font-weight: 200;" x="0" y="150.59423028505765" dx="0em" dy="0.3em" fill="rgb(50, 49, 63)" stroke="none" stroke-width="1px">0.1</text><text style="text-anchor: end; visibility: inherit; font-family: &quot;Helvetica Neue&quot;, sans-serif; font-size: 12px; font-weight: 200;" x="0" y="136.90384571368878" dx="0em" dy="0.3em" fill="rgb(50, 49, 63)" stroke="none" stroke-width="1px">0.2</text><text style="text-anchor: end; visibility: hidden; font-family: &quot;Helvetica Neue&quot;, sans-serif; font-size: 12px; font-weight: 200;" x="0" y="123.21346114231989" dx="0em" dy="0.3em" fill="rgb(50, 49, 63)" stroke="none" stroke-width="1px">0.3</text><text style="text-anchor: end; visibility: inherit; font-family: &quot;Helvetica Neue&quot;, sans-serif; font-size: 12px; font-weight: 200;" x="0" y="109.52307657095103" dx="0em" dy="0.3em" fill="rgb(50, 49, 63)" stroke="none" stroke-width="1px">0.4</text><text style="text-anchor: end; visibility: hidden; font-family: &quot;Helvetica Neue&quot;, sans-serif; font-size: 12px; font-weight: 200;" x="0" y="95.83269199958215" dx="0em" dy="0.3em" fill="rgb(50, 49, 63)" stroke="none" stroke-width="1px">0.5</text><text style="text-anchor: end; visibility: inherit; font-family: &quot;Helvetica Neue&quot;, sans-serif; font-size: 12px; font-weight: 200;" x="0" y="82.14230742821327" dx="0em" dy="0.3em" fill="rgb(50, 49, 63)" stroke="none" stroke-width="1px">0.6</text><text style="text-anchor: end; visibility: hidden; font-family: &quot;Helvetica Neue&quot;, sans-serif; font-size: 12px; font-weight: 200;" x="0" y="68.4519228568444" dx="0em" dy="0.3em" fill="rgb(50, 49, 63)" stroke="none" stroke-width="1px">0.7</text><text style="text-anchor: end; visibility: inherit; font-family: &quot;Helvetica Neue&quot;, sans-serif; font-size: 12px; font-weight: 200;" x="0" y="54.76153828547551" dx="0em" dy="0.3em" fill="rgb(50, 49, 63)" stroke="none" stroke-width="1px">0.8</text><text style="text-anchor: end; visibility: hidden; font-family: &quot;Helvetica Neue&quot;, sans-serif; font-size: 12px; font-weight: 200;" x="0" y="41.07115371410666" dx="0em" dy="0.3em" fill="rgb(50, 49, 63)" stroke="none" stroke-width="1px">0.9</text><text style="text-anchor: end; visibility: inherit; font-family: &quot;Helvetica Neue&quot;, sans-serif; font-size: 12px; font-weight: 200;" x="0" y="27.380769142737762" dx="0em" dy="0.3em" fill="rgb(50, 49, 63)" stroke="none" stroke-width="1px">1</text><text style="text-anchor: end; visibility: hidden; font-family: &quot;Helvetica Neue&quot;, sans-serif; font-size: 12px; font-weight: 200;" x="0" y="13.690384571368867" dx="0em" dy="0.3em" fill="rgb(50, 49, 63)" stroke="none" stroke-width="1px">1.1</text><text style="text-anchor: end; visibility: hidden; font-family: &quot;Helvetica Neue&quot;, sans-serif; font-size: 12px; font-weight: 200;" x="0" y="0" dx="0em" dy="0.3em" fill="rgb(50, 49, 63)" stroke="none" stroke-width="1px">1.2</text></g><line x1="51.41600036621094" y1="0" x2="51.41600036621094" y2="177.9749994277954" fill="rgb(0, 0, 0)" stroke="rgb(204, 204, 204)" stroke-width="1px"></line></g></g><g transform="translate(51, 0)" clip-path="url(#clip_0)"><clipPath id="clip_0"><rect width="278" height="177"></rect></clipPath><g><g><g><line x1="0" y1="0" x2="0" y2="177.9749994277954" fill="rgb(0, 0, 0)" stroke="rgb(60, 60, 60)" stroke-width="1px" opacity="0.25"></line><line x1="21.42953843336839" y1="0" x2="21.42953843336839" y2="177.9749994277954" fill="rgb(0, 0, 0)" stroke="rgb(60, 60, 60)" stroke-width="1px" opacity="0.25"></line><line x1="42.85907686673678" y1="0" x2="42.85907686673678" y2="177.9749994277954" fill="rgb(0, 0, 0)" stroke="rgb(60, 60, 60)" stroke-width="1px" opacity="0.25"></line><line x1="64.28861530010518" y1="0" x2="64.28861530010518" y2="177.9749994277954" fill="rgb(0, 0, 0)" stroke="rgb(60, 60, 60)" stroke-width="1px" opacity="0.25"></line><line x1="85.71815373347356" y1="0" x2="85.71815373347356" y2="177.9749994277954" fill="rgb(0, 0, 0)" stroke="rgb(60, 60, 60)" stroke-width="1px" opacity="0.25"></line><line x1="107.14769216684195" y1="0" x2="107.14769216684195" y2="177.9749994277954" fill="rgb(0, 0, 0)" stroke="rgb(60, 60, 60)" stroke-width="1px" opacity="0.25"></line><line x1="128.57723060021036" y1="0" x2="128.57723060021036" y2="177.9749994277954" fill="rgb(0, 0, 0)" stroke="rgb(60, 60, 60)" stroke-width="1px" opacity="0.25"></line><line x1="150.0067690335787" y1="0" x2="150.0067690335787" y2="177.9749994277954" fill="rgb(0, 0, 0)" stroke="rgb(60, 60, 60)" stroke-width="1px" opacity="0.25"></line><line x1="171.4363074669471" y1="0" x2="171.4363074669471" y2="177.9749994277954" fill="rgb(0, 0, 0)" stroke="rgb(60, 60, 60)" stroke-width="1px" opacity="0.25"></line><line x1="192.8658459003155" y1="0" x2="192.8658459003155" y2="177.9749994277954" fill="rgb(0, 0, 0)" stroke="rgb(60, 60, 60)" stroke-width="1px" opacity="0.25"></line><line x1="214.2953843336839" y1="0" x2="214.2953843336839" y2="177.9749994277954" fill="rgb(0, 0, 0)" stroke="rgb(60, 60, 60)" stroke-width="1px" opacity="0.25"></line><line x1="235.72492276705228" y1="0" x2="235.72492276705228" y2="177.9749994277954" fill="rgb(0, 0, 0)" stroke="rgb(60, 60, 60)" stroke-width="1px" opacity="0.25"></line><line x1="257.1544612004207" y1="0" x2="257.1544612004207" y2="177.9749994277954" fill="rgb(0, 0, 0)" stroke="rgb(60, 60, 60)" stroke-width="1px" opacity="0.25"></line><line x1="278.58399963378906" y1="0" x2="278.58399963378906" y2="177.9749994277954" fill="rgb(0, 0, 0)" stroke="rgb(60, 60, 60)" stroke-width="1px" opacity="0.25"></line></g><g><line x1="0" y1="177.9749994277954" x2="278.58399963378906" y2="177.9749994277954" fill="rgb(0, 0, 0)" stroke="rgb(60, 60, 60)" stroke-width="1px" opacity="0.25"></line><line x1="0" y1="164.28461485642654" x2="278.58399963378906" y2="164.28461485642654" fill="rgb(0, 0, 0)" stroke="rgb(60, 60, 60)" stroke-width="1px" opacity="0.25"></line><line x1="0" y1="150.59423028505765" x2="278.58399963378906" y2="150.59423028505765" fill="rgb(0, 0, 0)" stroke="rgb(60, 60, 60)" stroke-width="1px" opacity="0.25"></line><line x1="0" y1="136.90384571368878" x2="278.58399963378906" y2="136.90384571368878" fill="rgb(0, 0, 0)" stroke="rgb(60, 60, 60)" stroke-width="1px" opacity="0.25"></line><line x1="0" y1="123.21346114231989" x2="278.58399963378906" y2="123.21346114231989" fill="rgb(0, 0, 0)" stroke="rgb(60, 60, 60)" stroke-width="1px" opacity="0.25"></line><line x1="0" y1="109.52307657095103" x2="278.58399963378906" y2="109.52307657095103" fill="rgb(0, 0, 0)" stroke="rgb(60, 60, 60)" stroke-width="1px" opacity="0.25"></line><line x1="0" y1="95.83269199958215" x2="278.58399963378906" y2="95.83269199958215" fill="rgb(0, 0, 0)" stroke="rgb(60, 60, 60)" stroke-width="1px" opacity="0.25"></line><line x1="0" y1="82.14230742821327" x2="278.58399963378906" y2="82.14230742821327" fill="rgb(0, 0, 0)" stroke="rgb(60, 60, 60)" stroke-width="1px" opacity="0.25"></line><line x1="0" y1="68.4519228568444" x2="278.58399963378906" y2="68.4519228568444" fill="rgb(0, 0, 0)" stroke="rgb(60, 60, 60)" stroke-width="1px" opacity="0.25"></line><line x1="0" y1="54.76153828547551" x2="278.58399963378906" y2="54.76153828547551" fill="rgb(0, 0, 0)" stroke="rgb(60, 60, 60)" stroke-width="1px" opacity="0.25"></line><line x1="0" y1="41.07115371410666" x2="278.58399963378906" y2="41.07115371410666" fill="rgb(0, 0, 0)" stroke="rgb(60, 60, 60)" stroke-width="1px" opacity="0.25"></line><line x1="0" y1="27.380769142737762" x2="278.58399963378906" y2="27.380769142737762" fill="rgb(0, 0, 0)" stroke="rgb(60, 60, 60)" stroke-width="1px" opacity="0.25"></line><line x1="0" y1="13.690384571368867" x2="278.58399963378906" y2="13.690384571368867" fill="rgb(0, 0, 0)" stroke="rgb(60, 60, 60)" stroke-width="1px" opacity="0.25"></line><line x1="0" y1="0" x2="278.58399963378906" y2="0" fill="rgb(0, 0, 0)" stroke="rgb(60, 60, 60)" stroke-width="1px" opacity="0.25"></line></g></g></g><g><g><line x1="0" y1="164.28461485642654" x2="278.58399963378906" y2="164.28461485642654" fill="rgb(0, 0, 0)" stroke="rgb(153, 153, 153)" stroke-width="1.5px"></line></g></g><g><g><line x1="21.42953843336839" y1="0" x2="21.42953843336839" y2="177.9749994277954" fill="rgb(0, 0, 0)" stroke="rgb(153, 153, 153)" stroke-width="1.5px"></line></g></g><g><g><g><g><g><path style="fill: none;" stroke="rgb(187, 187, 187)" stroke-width="2px" d="M21.519542494788535,150.59379759548514L21.787411725205644,150.58738273286957L21.920274863492523,150.58135547524589L21.93098963270921,150.58078732792885L22.014564832599344,150.57593308541215L22.44529855511005,150.5390759307372L22.578161693396936,150.52370739280926L22.67030870866042,150.51194052126638L22.68530938556378,150.50993925549253L22.788171170043945,150.49556931042525L22.816029570007323,150.49148313780037L22.959607477510893,150.4691081296377L23.161045138784555,150.4340094776101L23.602493630511944,150.34196145214437L24.286095906536396,150.15848556919994L24.294667721909743,150.1558702555179L24.397529506389912,150.12387040339905L24.41253018329327,150.1191100020909L24.506820152400092,150.08864118968995L25.053273382450985,149.89350757660824L25.145420397714467,149.85748989274464L25.15184925924448,149.85494291994274L25.451862797311637,149.73125918704793L25.537580951045108,149.6941776294829L25.792592458402194,149.57928334978544L26.141893934866097,149.41080982005295L26.373332949946477,149.29213333164526L26.549055165100096,149.19828192295418L26.754778734060437,149.08430769510585L26.756921687903773,149.0830969395128L26.782637134023812,149.0685331919496L27.1833695027278,148.83269187460257L27.939832209425706,148.34208901623924L28.351279347346377,148.05046216044286L28.38556660883977,148.0253749373502L28.512000885596642,147.9318274925738L29.182745438561074,147.40825882965132L29.187031346247746,147.40476528465874L29.294179038414587,147.3168452523565L29.446328761291504,147.19000253877786L29.602764391855093,147.05714786777258L29.61776506875845,147.044277342016L29.907063837608924,146.79165680857324L30.68067017505352,146.0749894587764L30.85853534405048,145.90180346835317L31.055687097637467,145.7061853490316L31.092117312974196,145.6696199181137L31.44999060481145,145.3034882427866L31.690001435265174,145.05091871000067L32.082161988595814,144.62619136003312L32.43146346505972,144.2353712867497L32.88362672600379,143.71210250768937L32.91362807981051,143.67669377166825L33.69366327878512,142.72625573119154L33.87581435546875,142.49609996706747L33.99581977069561,142.3427858725699L34.0879667859591,142.2241542647402L34.265831954956056,141.99295400716437L34.71585226205679,141.39502026651084L34.75656838508019,141.3400109580584L34.90657515411377,141.13604097117502L35.51731699946477,140.2846523263331L35.78518622988187,139.90072754185255L35.81090167600191,139.8635358228688L36.117344075599085,139.4158581773296L36.357354906052805,139.05948802771897L36.762373182443476,138.44677633674357L37.248823704880934,137.69227873973955L37.4159741046612,137.4283911411908L37.422402966191214,137.41819304985188L37.52526475067138,137.25457682267546L38.14029250370906,136.2578975066678L38.21529588822585,136.1342147937861L38.55388259547307,135.57016384950145L38.71460413372333,135.2991667593912L38.95890087186373,134.88328088329098L39.04676197944054,134.73254130194996L39.351061425194374,134.2057493975161L39.381062779001084,134.15341660353386L39.640360194044845,133.69818474070559L39.66178973247822,133.66032797315683L39.861084439908545,133.30655885704434L40.454682654512844,132.23485757484573L40.57683102358305,132.01102385214182L40.70112234649658,131.78212066414937L41.27329102266752,130.71366710377742L41.71902542208158,129.86485501211834L41.90331945260855,129.50976803903347L41.93117785257193,129.45588278505747L42.211904806049056,128.90986567302647L42.522633113332894,128.29913076750967L42.65978215930645,128.0274645487818L43.45053212749775,126.43655005975366L43.46553280440111,126.40597414597337L43.71411545022818,125.89713039268968L43.885551757695126,125.54389168340816L43.97769877295861,125.35325530824537L44.15984984964224,124.9748426747546L44.530580864539516,124.19828219360765L44.79202123342661,123.6455901156113L44.79845009495662,123.63194641989722L44.92917027940016,123.35400508035352L44.94631391014686,123.31747636990852L45.04488978694035,123.10710478058036L45.22061200209398,122.73067097257442L45.89992837043175,121.25860433416088L46.013504924128604,121.00993329158271L46.14208215472881,120.72755285486889L46.21494258540227,120.56712926880977L46.46995409275935,120.003376168361L46.628532677166284,119.65103915069218L47.07855298426701,118.64391898021911L47.0892677534837,118.6198140297769L47.4964289837177,117.69939905596047L47.766441167978144,117.084445376111L48.582906582289475,115.2036390736317L49.02435507401687,114.1739439724212L49.157218212303746,113.86235443953002L49.36079882742075,113.38344195172432L49.41865858119084,113.24700907463614L50.149405841768704,111.51203201025864L50.45799119520921,110.77300801253557L50.56728184121938,110.51040359051257L50.616569779616135,110.39182502336601L51.02373100985014,109.40887508417589L51.60232854755108,108.00200768544862L51.904485039461576,107.26286944625427L52.06092067002517,106.87905074313994L52.15521063913199,106.64733639894327L52.3887926080557,106.07215915136548L52.79809679213304,105.06040404120007L52.862385407433145,104.90105758901313L52.903101530456546,104.80008036855033L53.10025328404353,104.3104944632841L53.16454189934364,104.15062168431872L53.30169094531719,103.80919880721065L53.34240706834059,103.70774422059995L54.5874632513193,100.58633674069846L54.66032368199275,100.40262421470635L55.15963192749024,99.14091284541077L55.211062819730316,99.0106898082977L55.965382572584886,97.09581506705867L56.250395433748686,96.370108360846L56.40468811046894,95.97680353556206L57.450449586017314,93.30429159688478L57.55331137049748,93.04089972472039L58.00118872375488,91.89322990414013L58.067620292898326,91.72290403055172L58.48549629234901,90.65108238680298L58.53907013843243,90.51362541652573L58.586215122985834,90.39265185853462L59.02337770702656,89.27075164983538L59.05337906083327,89.19375289818586L59.11552472229004,89.03424732394961L60.9691797967764,84.2812472311356L62.39424410259541,80.64480247818545L62.50782065629226,80.35607347970995L63.28356994758019,78.38952079292233L63.517151916503906,77.799463593709L63.54715327031062,77.72374597855895L63.71216071624755,77.30764589970008L63.9586004082313,76.68723310954397L64.27790053088849,75.88533142203336L64.40219185380202,75.57379492982528L64.42147843839206,75.52548710767977L64.58434293048565,75.117898018432L64.81149603787935,74.55047695074431L64.82863966862605,74.50770983995633L64.98078939150297,74.12843631537834L65.23151499117338,73.50474316297519L65.44366742166372,72.97831846327044L65.44581037550707,72.97300623485546L65.52724262155385,72.77128027687245L65.95797634406456,71.70741473558856L65.96440520559457,71.6915759716047L66.06940994391807,71.4330801624956L66.12084083615817,71.3065903734622L66.60300545090895,70.1247705130713L66.74015449688251,69.7899777213506L66.8794464966994,69.4505989505681L66.92873443509616,69.33066172592369L67.11517141946646,68.87776773320432L67.26946409618671,68.50386355777694L67.55233400350717,67.820593478096L68.24879400259165,66.15102781613716L69.09954667839638,64.13780748832755L69.2002655090332,63.9014826847538L69.28169775508,63.710732068119725L69.34170046269344,63.57037010042967L69.58599720083383,63.00053364163469L70.37460421518179,61.17973675200305L71.01320446049618,59.727180924864825L71.03463399892954,59.678791501668385L71.12892396803636,59.466155483177175L71.18464076796312,59.34071834770066L71.33036162931003,59.01341653245454L71.49108316756028,58.65370277978241L71.63251812122051,58.33827391744539L71.87467190551757,57.80070251418476L72.15325590515137,57.186189480010285L72.17682839742807,57.13438913288532L72.2196874742948,57.040278640857565L72.72756753516563,55.93295237985289L73.02972402707614,55.28114766540729L73.17544488842304,54.968705401533995L73.46474365727352,54.352144180981355L73.4690295649602,54.34305382390872L73.55046181100698,54.17042680068428L73.59974974940373,54.06613249750153L74.19120501016471,52.82626980959017L74.40121448681171,52.3912709273379L74.4183581175584,52.355888711658324L74.79123208629902,51.59087885926934L74.86194956312913,51.446804043762356L75.02052814753607,51.124912378192334L75.54555183915359,50.07105112575144L75.7148451927772,49.735181200158564L75.84127946953407,49.48562070612536L76.74346303757888,47.73703258645415L76.81846642209567,47.59425522765682L76.97704500650259,47.29371039700786L77.28777331378643,46.710099680817365L77.47849620584341,46.355379912461615L77.79565337465726,45.77149175269798L78.15352666649451,45.12170258421011L78.85427257326566,43.87773536343741L78.85641552710901,43.87398171509503L78.92284709625244,43.758042941945774L79.59359164921688,42.606986677752275L79.61930709533691,42.56356675855696L79.62787891071027,42.54910705233365L79.6300218645536,42.545492125777855L79.87646155653734,42.132354165067426L80.37148389434815,41.31745343014504L80.58149337099515,40.977846176419945L80.61792358633188,40.919305582488846L80.65649675551195,40.85744382578528L81.05722912421592,40.22215516404617L81.25223792395958,39.91791380579048L81.32509835463303,39.80506771247113L81.36367152381311,39.74551526550863L82.37085983018142,38.23585502293557L82.39871823014481,38.195356421363215L82.59586998373179,37.91070747543378L82.65801564518854,37.82169704908861L83.51091127483662,36.63498928574754L83.56662807476337,36.55975311679791L83.70806302842361,36.37002251330034L84.00593361264742,35.97643616439072L84.13879675093432,35.80351537738298L84.58453115034837,35.23530277950135L84.61881841184176,35.19235614640135L84.77739699624868,34.99517536695467L84.88454468841553,34.863275428245174L85.35170862626296,34.30084018476876L85.72886850269025,33.86185917123149L85.784585302617,33.7981613908822L85.91530548706055,33.64988412125274L86.09102770221416,33.45315214758611L86.23889151740441,33.28990924521767L86.4188996402447,33.09403408258572L86.70176954756516,32.79258348027153L86.72534203984186,32.76781756131686L87.0296414855957,32.45294358612611L87.23107914686938,32.24950400607372L87.26108050067609,32.21954826028045L88.73114683720516,30.86113556559033L88.81043612940861,30.79401870120742L89.35260345177284,30.35215717057261L89.59261428222656,30.166082294156354L89.74690695894682,30.04957231365063L89.86691237417367,29.9606353282513L89.88619895876371,29.946477545916423L90.01263323552058,29.8546274029992L90.37693538888784,29.599142672669103L90.44765286571796,29.551136774411958L90.93624634199877,29.233545484225516L91.1655424032358,29.093028474538727L91.41198209521954,28.948105008102146L91.6369922487699,28.82130513507525L91.91986215609037,28.669404778784866L91.93700578683706,28.660469463708978L92.21987569415752,28.517447301758864L92.47274424767127,28.396710386815442L92.53060400144138,28.370026843164084L92.53488990912804,28.368068417942L92.72775575502835,28.28175898638233L92.87776252406194,28.21734311678489L92.95062295473538,28.186905924791176L93.01062566234882,28.162262407412896L93.70708566143328,27.904093002507466L93.72637224602332,27.897670999799942L93.75208769214338,27.88917633039901L93.79280381516678,27.875867198993717L93.8292340305035,27.86410848755594L93.94495353804368,27.82768177842459L93.97066898416372,27.819782796695364L94.02424283024713,27.80355234766708L94.1035321224506,27.780083885422073L94.32639932215764,27.717699881992587L94.36711544518104,27.7068714225353L94.5921255987314,27.6502239729856L95.06571839810886,27.54860618427307L95.11072042881892,27.54020127602817L95.22858289020245,27.519189005415882L95.41501987457276,27.488988456469826L95.57359845897969,27.466213603157627L95.96790196615366,27.4212351038897L97.14652657998892,27.381805476084452L97.191528610699,27.382131880288142L97.20867224144568,27.382270602074698L97.24081654909574,27.38253988554274L97.46796965648944,27.385093998436588L97.66083550238977,27.388145877741067L98.08514036337046,27.39772584111924L98.10014104027381,27.398133846373838L98.25229076315073,27.402572943543987L98.47515796285776,27.40998231896765L98.51158817819449,27.41129609588748L98.65516608569806,27.416755206194125L99.10304343895545,27.436682182829145L99.16518910041222,27.43979118286927L99.92379476095346,27.484533039089513L99.98808337625357,27.48889869531382L100.21952239133394,27.505365787389792L100.33095599118747,27.513713574899043L100.3973875603309,27.51881364058164L100.5195359294011,27.52845072469546L101.15170731318548,27.583490633542027L101.69387463554969,27.637616610618238L101.76673506622315,27.64537687056088L102.35604737314077,27.712379493472525L102.5960582035945,27.74182931275007L103.27323161808894,27.83164758949937L103.80254121739314,27.90876874272527L103.83682847888653,27.913974889774067L103.86040097116323,27.917565336014604L104.36185217050406,27.99684891708992L104.40471124737078,28.003874767574274L104.66186570857121,28.046878521409894L104.96402220048171,28.099233755681126L105.01545309272178,28.108340432963956L105.63905266113281,28.223299993502167L106.50909192152757,28.397673279216292L106.569094629141,28.410296961793847L106.67838527515119,28.43349614057084L106.88625179795486,28.478319597842017L106.95268336709829,28.49283642480094L106.96339813631498,28.49518653506749L107.19055124370868,28.54560782443187L107.78200650446965,28.682069261887904L108.21916908851037,28.787742622831217L108.53418330348087,28.866422356129732L108.56847056497428,28.875112868052867L108.57704238034762,28.877291616112473L108.64775985717773,28.89530912815593L108.69061893404447,28.9062763093998L108.84705456460806,28.94666066950083L109.37636416391226,29.08714503876729L109.81352674795298,29.20766163087322L109.87138650172308,29.223916560216793L110.02139327075665,29.26639806732652L110.44569813173734,29.389117887807345L110.47998539323073,29.399203777701246L111.46145825347901,29.698369550589632L111.72075566852277,29.780794772125432L111.95648059128982,29.856961193055554L112.3979290830172,30.002733310421718L112.43650225219727,30.01566707699274L112.886522559298,30.168832249572404L113.53583757382906,30.39729887194241L114.1722948653001,30.629763945807554L114.68660378770095,30.823762284268298L114.76160717221774,30.85251033450794L114.87732667975791,30.897097148731433L114.9459012027447,30.923641970596208L115.10019387946495,30.98374114459989L115.15805363323506,31.006401756440795L115.1666254486084,31.00976371973877L115.30163154073863,31.0629349645192L115.70450686328594,31.223844076831284L115.87594317075289,31.293327371690935L115.88451498612623,31.296811736565274L116.14809830885666,31.404867848195522L116.16309898576003,31.411061367960457L116.25738895486684,31.45009115061623L116.3709655085637,31.497346319204865L116.97313553854136,31.752292482598875L117.43815652254546,31.9542306033143L117.46815787635217,31.967409173038135L117.78531504516602,32.10786090188421L118.08532858323318,32.24260055716576L118.52677707496056,32.44416331304694L118.54606365955058,32.45305782759738L118.65964021324744,32.50560074428574L118.94893898209793,32.64060152293027L119.27252501244178,32.79360349340806L120.07613270369309,33.18265282388646L120.1982810727633,33.242915199991984L120.36757442638691,33.32693164202075L120.44472076474703,33.36540653753025L120.68687454904409,33.4869431427727L120.7211618105375,33.50425072567316L120.8904551641611,33.59002159029674L121.07474919468807,33.68405048127357L122.664820946444,34.52306432674325L122.79339817704421,34.593078028433894L122.83625725391094,34.61648936994328L123.19627349959154,34.81453512052974L123.40199706855186,34.9288337125555L123.51557362224872,34.992286689752035L123.58200519139217,35.02952124928751L123.6591515297523,35.072867727537016L123.74272672964243,35.11995153391871L124.03845436002291,35.28764169356239L124.1777463598398,35.367210878315944L124.22703429823655,35.395461162144954L124.45418740563025,35.526235006351726L124.67919755918064,35.65675588730065L124.77777343597413,35.71424382767486L125.4099448197585,36.08731567238283L126.09997595731295,36.503211748614405L126.39570358769343,36.68421103966338L127.01716020226111,37.06993104726416L127.13287970980132,37.1425478224792L127.18645355588473,37.176257216614886L127.45646574014516,37.34695029493244L127.63004500145546,37.45740547745979L127.760765185899,37.54095679349831L128.59008832327035,38.078373154762176L128.6972360154372,38.14873774097177L128.8965307228675,38.28016439358592L128.9308179843609,38.30284948574209L128.99510659966103,38.34544523432314L129.1515422302246,38.44939681309202L129.9251485676692,38.97004415839152L130.3323097979032,39.24843430371527L130.6751824128371,39.48517527264872L131.0073402585543,39.71653057222133L131.20663496598465,39.856296852239666L131.32449742736816,39.93928512102681L131.45307465796836,40.03009893059735L132.3273998260498,40.65539962370366L132.43026161052998,40.72984426245932L132.44740524127667,40.742272102514676L132.76456241009052,40.9730969952563L132.86528124072734,41.04675826392315L133.0067161943876,41.15050584006474L133.37101834775484,41.41934050232558L133.48888080913838,41.50680866880836L133.6196009935819,41.60410160182204L133.9560447469858,41.85585716412504L133.99461791616588,41.88485001751744L134.32463280803975,42.13390458503491L134.58178726924015,42.329265661046065L134.80465446894718,42.4994936133734L134.87537194577732,42.55367671118526L135.01252099175085,42.65901550781982L135.20324388380783,42.80602796116L135.2353881914579,42.83086732106048L136.0089945289025,43.433882767160156L136.51901754361666,43.8369021975563L136.53401822052,43.848815950990826L136.54259003589337,43.85562963874278L136.55116185126673,43.86244332649471L136.8533183431772,44.103403069760816L136.94760831228405,44.178900362073364L137.30333865027794,44.46505892744486L137.335482957928,44.49102438184809L137.38048498863807,44.52739397024379L137.41262929628812,44.553392065067385L137.66549784980188,44.758520786873845L138.53553711019663,45.47219541812811L138.62982707930345,45.550271303649794L138.87840972513052,45.75679540342699L139.1569937247643,45.989407359183815L139.25342664771446,46.070216879911385L139.70558990865854,46.451073464877254L139.93274301605223,46.64361930463161L139.93917187758225,46.64907841493826L139.99488867750904,46.69643966489309L140.06132024665246,46.7529647128664L140.44490898460975,47.080715333892584L140.45562375382644,47.08990361222635L140.47276738457313,47.10460812160238L140.81992590719372,47.40334956902598L140.93350246089054,47.501491152969265L141.36209322955793,47.873616425486546L141.62996245997502,48.10761559910904L142.08641162860576,48.50887244680527L142.15712910543587,48.5713135709704L142.52143125880315,48.894200769361646L142.5514326126099,48.92088431301298L142.73786959698018,49.086975092058594L143.12145833493747,49.43032783402097L143.19217581176758,49.49387057237354L143.57576454972488,49.839801907545024L144.21865070272594,50.4243918363466L144.23150842578593,50.4361423876793L144.61509716374323,50.7878673974662L145.20655242450422,51.33432515517215L146.3530327306894,52.40764009815274L146.66376103797325,52.70168132504325L146.91234368380034,52.93787556693552L147.09449476048397,53.11148180277098L147.26164516026424,53.27118321952945L147.31950491403433,53.32655769268477L147.35593512937106,53.36144214195372L147.928103805542,53.91171066873771L148.42955500488281,54.39756332592428L148.53027383551964,54.49554986787079L148.7895712505634,54.748431524676505L149.23530564997748,55.185176669418524L149.29959426527756,55.248384843462304L149.44317217278115,55.389734183868526L150.1910630641057,56.13029636140145L150.390357771536,56.328839878398526L150.40321549459605,56.34166756360338L150.45036047914945,56.38871056945963L150.64322632504977,56.581468571946374L151.02467210916373,56.96406325929688L152.41116324580264,58.369747442785794L152.58902841479963,58.551758586866185L152.74117813767654,58.70774715580772L152.9490446604802,58.921297106069275L153.0883366602971,59.064686472748505L153.29406022925744,59.27687368545968L153.6069314903846,59.600511613519416L154.59054730447622,60.62529025141188L154.76198361194318,60.80502472617157L155.3984409034142,61.475116236128684L155.46487247255766,61.545317620236446L155.48201610330435,61.563441213646115L156.1656183793288,62.28871951434144L156.48706145582932,62.63149288884226L156.90708040912335,63.081024918263665L157.20280803950382,63.3986325286603L157.3528148085374,63.56008020790847L157.35495776238074,63.56238951764955L157.53496588522103,63.756444976845955L157.87355259246826,64.12233592907285L158.1092775152353,64.3777553785622L158.2892856380756,64.5731817354141L158.55286896080605,64.85991966824713L158.7885938835731,65.11693033822945L159.06074902167686,65.41433352841793L159.67363382087123,66.08669354759067L159.69506335930458,66.11026809120187L160.0507936972985,66.50222241909309L160.48367037365253,66.98077178222218L160.7215382502629,67.24447373838008L160.83725775780312,67.37294643295088L161.24656194188046,67.82832925772337L161.34728077251728,67.94061230379134L161.52514594151424,68.13913134047316L161.6858674797645,68.31875157376153L161.75229904890793,68.39305749073064L161.85087492570142,68.50339027168161L162.00945351010836,68.68106839995805L162.09945757152852,68.78200073984286L162.24089252518874,68.94076374451572L162.66519738616944,69.41805645146061L162.96949683192327,69.76129495195168L163.50309233891414,70.36501216708928L164.2509832302387,71.21505847464356L164.55099676830585,71.55728512210321L164.8960123370831,71.95171196183733L164.95601504469653,72.02039556639795L165.05244796764666,72.1308425888202L165.9503456280048,73.16255731604099L166.02320605867826,73.2465411176494L166.1067812585684,73.34291195878768L167.71399664107102,75.20571706943372L167.7525698102511,75.25063844796598L167.96043633305476,75.49287932773154L168.06972697906494,75.62035648948108L168.2475921480619,75.82799036355084L168.4147425478422,76.02328615872125L169.1412039007334,76.87412399646946L169.26763817749026,77.02253182778038L169.65979873082088,77.48345536391044L169.6898000846276,77.51875597853908L170.26839762232854,78.20054091909324L170.3133996530386,78.25364688303296L170.71198906789925,78.72450942716523L170.83413743696946,78.86898408782174L171.00343079059306,79.06934730825438L171.25415639026346,79.36637513360861L172.41778032719537,80.74907230105293L172.42635214256873,80.75928059252321L172.49278371171218,80.83842545181199L172.67922069608247,81.06064143368138L172.84208518817607,81.2549008955051L173.39711023360033,81.91781967308621L173.5706894949106,82.12542906684068L174.25214881709172,82.94171701962874L174.49644555523213,83.23481983443365L174.76645773949255,83.55904529006001L174.8221745394193,83.62599079223601L175.0707571852464,83.92478936039524L175.40077207712025,84.32183559386395L175.52077749234712,84.46631841462555L175.6300681383573,84.5979409097619L175.67721312291073,84.65473524120327L175.74793059974084,84.7399348984704L175.80150444582426,84.80449764995947L176.14437706075813,85.21791305424306L176.31152746053843,85.4195982117006L176.35867244509186,85.47649862450817L176.3629583527785,85.48167213113659L176.58153964479885,85.74558625002688L176.58796850632888,85.7533546700746L176.91798339820275,86.15210636550758L177.27157078235334,86.57972035265148L177.59301385885388,86.96876968312986L177.88445558154766,87.32176766931116L178.24875773491493,87.76332727605755L178.54662831913873,88.12462408911756L179.5559595793504,89.35041059574495L179.5666743485671,89.363434123472L179.6673931792039,89.48587650037972L179.79597040980414,89.64220779373511L179.84525834820087,89.70215192574203L180.0316953325712,89.92891308614777L180.40885520899846,90.38784555663534L180.42385588590182,90.40610787183157L181.86177791478084,92.15789475269891L181.93892425314095,92.25195628409611L182.45109022169848,92.87658784858486L182.5175217908419,92.957625852255L183.1561220361563,93.73682612739925L183.19469520533636,93.78390177367585L183.3661315128033,93.99313502834366L183.4989946510902,94.15530079683994L183.64471551243707,94.33317476763861L184.1397378502479,94.93747951034281L184.14402375793458,94.94271013770688L184.414035942195,95.27236206321953L184.5061829574585,95.384865432125L184.7611944648156,95.69621424191595L185.21764363344633,96.25350453913174L185.3269342794565,96.38693449754602L185.63551963289703,96.76367022944036L185.73623846353382,96.88662669296889L185.80481298652063,96.97034121110924L185.98696406320425,97.19269183471268L186.23554670903133,97.4961131024066L186.25054738593468,97.51442437823339L186.2741198782114,97.54319282873576L186.86128923128567,98.25973573692993L187.13130141554615,98.58915509944745L187.42274313823995,98.94464191768185L187.5727499072735,99.1275792336902L187.81490369157058,99.42284447634452L188.15563335266114,99.83818566542983L188.36778578315148,100.09671819501186L188.8692369824923,100.70754694173723L189.0256726130559,100.89802419485073L189.1478209821261,101.04672578994496L190.2407274422279,102.37601506956118L190.38644830357478,102.55307710990319L190.55145574951175,102.75351377128165L190.58145710331843,102.78994864051809L190.66503230320856,102.89144402765425L190.73360682619534,102.974705659962L191.38506479456976,103.76515463997576L191.61864676349347,104.04831436672589L192.00223550145077,104.51300379135597L192.0515234398475,104.57268271994741L192.46297057776817,105.07060417256525L192.5165444238516,105.13539948704947L192.79727137732874,105.4747986580947L192.81227205423207,105.4929263315569L192.86155999262883,105.55248693862451L192.93227746945894,105.6379313990444L192.9408492848323,105.64828657240633L193.0801412846492,105.81653977930137L193.21943328446608,105.9847236253031L193.61802269932673,106.46564757901402L193.70159789921686,106.56641671679697L193.73588516071024,106.60775172914126L194.04447051415076,106.97958323787522L194.10018731407752,107.04668378204796L194.17947660628099,107.14215293157356L194.63592577491173,107.69129536385485L194.72378688248853,107.79690752400998L194.89308023611216,108.00032262374708L195.000227928279,108.12900748105028L195.04094405130238,108.17789875070989L195.25952534332274,108.44024204936994L195.82526515796368,109.118342702475L196.06741894226073,109.40818147524305L196.14242232677753,109.49790183073124L197.04889180250902,110.58024592999628L197.32318989445614,110.90700917830631L198.7289676156851,112.57581595049159L198.80182804635857,112.66203154084268L198.9325482308021,112.81663697197109L198.97112139998217,112.86223971927856L199.1318429382324,113.05216616529833L199.45542896857629,113.43412028439913L199.5668625684298,113.56551837664546L199.86687610649696,113.9189284481339L200.38761389042782,114.53110769225202L200.9276382589487,115.1642420862468L201.27265382772592,115.56780824368414L201.3755156122061,115.68797803132367L201.79124865781344,116.1729861176332L201.8598231808002,116.25288170659044L201.87696681154694,116.27284948375092L202.28198508793758,116.744046592192L202.31412939558763,116.78139947325131L202.45556434924785,116.9456542286512L202.7255765335083,117.25886354240315L202.90772761019193,117.46987161992848L203.0234471177321,117.60380342480593L203.1905975175124,117.79709999422877L203.62347419386643,118.2967636292838L203.69204871685324,118.37579832715382L203.77133800905668,118.46713846350279L203.94277431652364,118.66447020489369L204.2663603468675,119.03635067425822L204.66923566941483,119.4982697432095L204.73566723855825,119.57431784261578L204.8063847153884,119.6552375247621L205.02710896125205,119.90756021436898L205.05068145352877,119.93448448112053L205.185687545659,120.0886084660485L205.6914246526865,120.66469964539661L205.75357031414325,120.73534983528444L206.6921840975248,121.7986400891593L207.09934532775878,122.25762968038252L207.11434600466214,122.27451293781817L207.39507295813928,122.59012540251979L207.42293135810266,122.62140716539054L207.52150723489615,122.73205003033499L207.5772240348229,122.79454827523577L207.69294354236308,122.9242735459382L207.88366643442006,123.13781941614721L208.70870366410475,124.05790798575995L208.83085203317495,124.19361053344241L209.05800514056867,124.44561089889815L209.19729714038553,124.5999103260856L209.29373006333572,124.70662410042819L209.6430315397996,125.09245426944773L210.20877135444056,125.71492748613962L210.275202923584,125.78782170492778L210.30306132354735,125.81837721844533L210.8109413844182,126.37412525579872L210.95451929192177,126.53077887330525L211.45382753741924,127.07398890918454L211.65097929100625,127.28779182270395L211.75598402932974,127.40150288716305L211.9852800905668,127.64943136017781L212.49316015143762,128.19666840792007L212.7138843973013,128.43367050021646L212.8960354739849,128.62886837412577L212.93032273547834,128.66557252683026L213.74893110363303,129.53821008533214L213.7853613189697,129.57688082336387L214.02322919558011,129.82900767044853L214.06394531860352,129.87210526549273L214.2375245799138,130.05562602901517L214.37038771820067,130.1958757952602L214.80326439455473,130.65147486281762L214.97898660970836,130.8358259170332L215.25971356318547,131.1296243807972L216.26690186955378,132.1763435012562L216.59691676142765,132.5167647254642L216.6397758382944,132.5608823336449L217.0812243300218,133.0140333696747L217.4540982987624,133.39498991592797L217.77554137526295,133.72206324823148L217.81840045212965,133.76557904866166L217.82482931365968,133.77210305268284L217.95769245194654,133.90684882804322L218.0069803903433,133.95678051110207L218.0134092518733,133.9632922749656L218.60057860494763,134.55580158575913L218.78272968163122,134.73874502184628L218.83844648155798,134.79462338149105L219.10845866581846,135.06486362185404L219.24346475794866,135.1996420376348L220.14350537215012,136.09227185361246L220.26993964890698,136.2168358578441L220.27422555659368,136.22105463217676L220.34065712573712,136.28641707396486L220.49280684861404,136.43590407917424L220.99425804795487,136.92644879678878L221.20212457075854,137.12882960320545L221.73357712390606,137.64365879357425L222.6550472765409,138.52734309434464L222.99791989147482,138.85321281114707L223.68152216749925,139.49808755634317L223.77581213660608,139.5865267753319L224.0158229670598,139.81108266733648L224.0972552131066,139.88708792619101L224.54727552020734,140.30542999392398L224.77657158144436,140.51748052487483L225.07444216566822,140.7918293781517L225.13230191943828,140.84497206256435L225.40445705754206,141.09429591354987L225.69804173407923,141.36204936188602L225.8180471493061,141.4711377268104L225.88662167229285,141.5333789284008L226.03877139516976,141.67123166377502L226.11806068737326,141.74293450721973L226.85309385563775,142.40325021127643L227.04381674769473,142.57327620100273L227.0931046860915,142.61712860576796L227.22168191669172,142.7313517168216L227.7981365005493,143.24040763283767L227.96957280801627,143.39083101010635L228.14958093085653,143.5482945180433L228.23529908459003,143.62310432150184L228.29958769989014,143.67913976316964L228.43887969970703,143.8003295639457L228.5074542226938,143.8598820109082L229.33463440622182,144.57254274910477L229.63036203660232,144.82475323726666L229.7803688056359,144.9521630781492L229.93037557466945,145.0792199944865L230.1875300358699,145.29620942904438L230.2818200049767,145.37551137035618L230.5732617276705,145.6197351556591L230.69541009674072,145.72169158873297L230.8861329887977,145.88041175285412L231.0018524963379,145.97643170947342L231.17328880380484,146.1182890164216L231.40901372657189,146.31257091853433L231.43044326500527,146.3301885854283L231.73688566460243,146.58131173958662L231.89332129516603,146.70892150304394L232.30476843308668,147.04265144107637L232.4547752021203,147.16363723922512L232.55977994044378,147.24810656708652L232.59835310962384,147.27909150613453L232.7355021555974,147.38906014239575L233.05480227825458,147.6438818641871L233.56053938528208,148.04403709769593L233.69983138509895,148.15350286748085L234.1605664614164,148.5132676208098L234.66630356844388,148.9040621937648L234.71130559915397,148.93862635890886L234.8934566758376,149.07817945618166L234.89774258352426,149.0814567583893L235.47634012122523,149.52095491858677L236.33352165855993,150.1615037880709L236.4170968584501,150.22327884365788L236.772827196444,150.48485713246555L236.93783464238092,150.60544308546477L236.98712258077768,150.64136998815923L237.33428110339827,150.8932142916051L237.5635771646353,151.05839623894607L237.63215168762207,151.10761595283566L237.69001144139216,151.14908050684826L237.70929802598218,151.16288944469045L237.86144774885912,151.27159224464924L238.0221692871094,151.38597549776532L238.20003445610632,151.51202464112373L238.36932780972995,151.6314773595283L238.58576614790698,151.7834511567645L238.6286252247737,151.81344566305697L238.7914897168673,151.92712612712197L238.91363808593752,152.01207588117066L238.9372105782142,152.02843791189355L239.34865771613488,152.31243710945503L239.84582300778902,152.65152925654616L239.88868208465576,152.68055169031953L240.65371660672702,153.19298180979123L240.66871728363037,153.20292285781974L241.02873352931095,153.4402656345037L241.1015939599844,153.48801040939787L241.1701684829712,153.53285630695805L241.28588799051138,153.60833829907358L241.4787538364117,153.73359285219865L241.8966298358624,154.00261723690292L241.96306140500582,154.045086503855L242.08092386638933,154.12023393166174L242.15592725090613,154.16792056580712L242.1773567893395,154.18152652103515L242.5952327887902,154.44512239582684L242.83310066540056,154.59371178947606L243.14382897268442,154.78621580869182L243.26169143406796,154.85876016297416L243.71599764885536,155.13593241261293L244.18316158670277,155.41687565081742L244.8881934011606,155.83300480005067L245.01248472407414,155.90537983215236L245.80537764610878,156.36009709835326L246.0282448458158,156.48572701631258L246.05824619962252,156.50256539317024L246.09896232264592,156.52538971711954L246.18682343022272,156.5745324200173L246.21682478402946,156.5912784856861L246.2489690916795,156.60920164651444L246.27682749164288,156.62471859635372L246.360402691533,156.671179174709L246.44612084526648,156.71869036659493L246.46540742985653,156.72936072401603L246.5875557989267,156.79677186218885L246.63898669116682,156.82506855661558L247.00328884453404,157.0240277289658L247.00757475222073,157.02635335891708L247.36973395174468,157.2215430727213L247.74689382817198,157.42208632547252L247.94404558175896,157.52580381122658L248.0983382584792,157.60643992972092L248.12833961228588,157.62206500095266L248.54192970404992,157.83565320170683L249.03266613417406,158.084690429001L249.15481450324424,158.145935077757L249.4183978259747,158.2770832667849L249.795557702402,158.4623334625803L250.00985308673566,158.5663232918418L250.23057733259935,158.6724714689002L250.94632391627385,159.0099519952356L252.36281640671947,159.6473423940425L252.44853456045297,159.68460653395894L252.51925203728308,159.71523650843545L252.91355554445707,159.8841532338758L253.83073978940524,160.2647606806331L254.12432446594238,160.38294093264983L254.71149381901665,160.6139723780516L255.22151683373085,160.80886603304296L255.53010218717134,160.9241670429786L255.5322451410147,160.9249608682021L255.6565364639282,160.97083748903674L256.0765554172222,161.12349138003168L256.0851272325956,161.1265685046613L256.2544205862192,161.1870282533087L256.77301541630675,161.36851205059753L257.2894672925509,161.5436562112396L257.56376538449797,161.6344057599825L257.63448286132814,161.65754603300087L257.81020507648174,161.7145912876738L258.0502159069355,161.79145794762215L258.1787931375357,161.83213760152623L258.28165492201583,161.86443096242513L258.41023215261606,161.9044838182568L258.4873784909762,161.92834830060207L258.5280946139996,161.94089293216155L258.7338181829599,162.00374078656486L258.8066786136334,162.0257853104713L258.82810815206676,162.03224760369773L259.2031250746507,162.14376691492973L259.71314808936484,162.29065671169022L259.80100919694166,162.3154045254117L259.9895891351553,162.36796886237593L260.46532488837613,162.49721791444526L260.5424712267362,162.5177238760369L260.79319682640664,162.58349304806322L261.1982151027973,162.68690669740423L261.2582178104107,162.70192970588215L262.1646872861422,162.91952847078747L262.44755719346267,162.98383315895302L262.86329023907,163.07522952352616L262.9468654389602,163.09315548939063L263.3733132537842,163.182289082322L264.2733538679857,163.35757502479004L264.57551035989616,163.4125097447819L264.84552254415655,163.4599346180561L265.1712515283438,163.51505172914693L265.6834174969013,163.59708137683822L266.3520190960224,163.6956296910197L266.3648768190824,163.69743007795648L266.70989238785967,163.7444018103948L266.7270360186063,163.74666859833826L267.2327731256338,163.81067129886458L267.48349872530423,163.84034472414692L268.07495398606517,163.9049378529022L268.18853053976204,163.91647216144997L268.9535650618333,163.98686176985683L268.9792805079534,163.9890067618567L269.49787533804084,164.0291940362945L269.50859010725753,164.029962664006L269.52359078416094,164.03103452249772L269.75074389155463,164.04666714820178L270.0957594603318,164.06826249976092L270.2886253062322,164.07920510506327L270.6872147210928,164.09925276200252L270.8415073978131,164.10608407685646L270.9829423514733,164.1118905175738L271.3493874586839,164.12490695302205L271.4543921970074,164.12809744254912L271.5358244430542,164.13040627415904L271.60868487372767,164.13234955856117L271.69011711977447,164.13438458039477L271.7736923196646,164.13632286035744L271.90869841179483,164.13913232716493L272.02227496549165,164.14118817957927L272.1058501653818,164.14252140049953L272.189425365272,164.14370236852145L272.2194267190786,164.14408916069036L272.25585693441536,164.1445324838998L272.4872959494958,164.14667312490616L272.5301550263625,164.14694140429876L272.60301545703595,164.1473055808639L272.72730677994946,164.14765976448786L272.79588130293627,164.14771100421027" fill="none"></path></g></g></g></g></g></g><g transform="translate(51, 177)" clip-path="url(#clip_1)"><clipPath id="clip_1"><rect width="278" height="22"></rect></clipPath><g><g><line x1="0" y1="0" x2="0" y2="5" style="visibility: inherit;" fill="rgb(0, 0, 0)" stroke="rgb(204, 204, 204)" stroke-width="1px"></line><line x1="21.42953843336839" y1="0" x2="21.42953843336839" y2="5" style="visibility: inherit;" fill="rgb(0, 0, 0)" stroke="rgb(204, 204, 204)" stroke-width="1px"></line><line x1="42.85907686673678" y1="0" x2="42.85907686673678" y2="5" style="visibility: inherit;" fill="rgb(0, 0, 0)" stroke="rgb(204, 204, 204)" stroke-width="1px"></line><line x1="64.28861530010518" y1="0" x2="64.28861530010518" y2="5" style="visibility: inherit;" fill="rgb(0, 0, 0)" stroke="rgb(204, 204, 204)" stroke-width="1px"></line><line x1="85.71815373347356" y1="0" x2="85.71815373347356" y2="5" style="visibility: inherit;" fill="rgb(0, 0, 0)" stroke="rgb(204, 204, 204)" stroke-width="1px"></line><line x1="107.14769216684195" y1="0" x2="107.14769216684195" y2="5" style="visibility: inherit;" fill="rgb(0, 0, 0)" stroke="rgb(204, 204, 204)" stroke-width="1px"></line><line x1="128.57723060021036" y1="0" x2="128.57723060021036" y2="5" style="visibility: inherit;" fill="rgb(0, 0, 0)" stroke="rgb(204, 204, 204)" stroke-width="1px"></line><line x1="150.0067690335787" y1="0" x2="150.0067690335787" y2="5" style="visibility: inherit;" fill="rgb(0, 0, 0)" stroke="rgb(204, 204, 204)" stroke-width="1px"></line><line x1="171.4363074669471" y1="0" x2="171.4363074669471" y2="5" style="visibility: inherit;" fill="rgb(0, 0, 0)" stroke="rgb(204, 204, 204)" stroke-width="1px"></line><line x1="192.8658459003155" y1="0" x2="192.8658459003155" y2="5" style="visibility: inherit;" fill="rgb(0, 0, 0)" stroke="rgb(204, 204, 204)" stroke-width="1px"></line><line x1="214.2953843336839" y1="0" x2="214.2953843336839" y2="5" style="visibility: inherit;" fill="rgb(0, 0, 0)" stroke="rgb(204, 204, 204)" stroke-width="1px"></line><line x1="235.72492276705228" y1="0" x2="235.72492276705228" y2="5" style="visibility: inherit;" fill="rgb(0, 0, 0)" stroke="rgb(204, 204, 204)" stroke-width="1px"></line><line x1="257.1544612004207" y1="0" x2="257.1544612004207" y2="5" style="visibility: inherit;" fill="rgb(0, 0, 0)" stroke="rgb(204, 204, 204)" stroke-width="1px"></line><line x1="278.58399963378906" y1="0" x2="278.58399963378906" y2="5" style="visibility: inherit;" fill="rgb(0, 0, 0)" stroke="rgb(204, 204, 204)" stroke-width="1px"></line></g><g transform="translate(0, 8)"><text style="text-anchor: middle; visibility: hidden; font-family: &quot;Helvetica Neue&quot;, sans-serif; font-size: 12px; font-weight: 200;" x="0" y="0" dx="0em" dy="0.95em" fill="rgb(50, 49, 63)" stroke="none" stroke-width="1px">-10k</text><text style="text-anchor: middle; visibility: inherit; font-family: &quot;Helvetica Neue&quot;, sans-serif; font-size: 12px; font-weight: 200;" x="21.42953843336839" y="0" dx="0em" dy="0.95em" fill="rgb(50, 49, 63)" stroke="none" stroke-width="1px">0</text><text style="text-anchor: middle; visibility: hidden; font-family: &quot;Helvetica Neue&quot;, sans-serif; font-size: 12px; font-weight: 200;" x="42.85907686673678" y="0" dx="0em" dy="0.95em" fill="rgb(50, 49, 63)" stroke="none" stroke-width="1px">10k</text><text style="text-anchor: middle; visibility: inherit; font-family: &quot;Helvetica Neue&quot;, sans-serif; font-size: 12px; font-weight: 200;" x="64.28861530010518" y="0" dx="0em" dy="0.95em" fill="rgb(50, 49, 63)" stroke="none" stroke-width="1px">20k</text><text style="text-anchor: middle; visibility: hidden; font-family: &quot;Helvetica Neue&quot;, sans-serif; font-size: 12px; font-weight: 200;" x="85.71815373347356" y="0" dx="0em" dy="0.95em" fill="rgb(50, 49, 63)" stroke="none" stroke-width="1px">30k</text><text style="text-anchor: middle; visibility: inherit; font-family: &quot;Helvetica Neue&quot;, sans-serif; font-size: 12px; font-weight: 200;" x="107.14769216684195" y="0" dx="0em" dy="0.95em" fill="rgb(50, 49, 63)" stroke="none" stroke-width="1px">40k</text><text style="text-anchor: middle; visibility: hidden; font-family: &quot;Helvetica Neue&quot;, sans-serif; font-size: 12px; font-weight: 200;" x="128.57723060021036" y="0" dx="0em" dy="0.95em" fill="rgb(50, 49, 63)" stroke="none" stroke-width="1px">50k</text><text style="text-anchor: middle; visibility: inherit; font-family: &quot;Helvetica Neue&quot;, sans-serif; font-size: 12px; font-weight: 200;" x="150.0067690335787" y="0" dx="0em" dy="0.95em" fill="rgb(50, 49, 63)" stroke="none" stroke-width="1px">60k</text><text style="text-anchor: middle; visibility: hidden; font-family: &quot;Helvetica Neue&quot;, sans-serif; font-size: 12px; font-weight: 200;" x="171.4363074669471" y="0" dx="0em" dy="0.95em" fill="rgb(50, 49, 63)" stroke="none" stroke-width="1px">70k</text><text style="text-anchor: middle; visibility: inherit; font-family: &quot;Helvetica Neue&quot;, sans-serif; font-size: 12px; font-weight: 200;" x="192.8658459003155" y="0" dx="0em" dy="0.95em" fill="rgb(50, 49, 63)" stroke="none" stroke-width="1px">80k</text><text style="text-anchor: middle; visibility: hidden; font-family: &quot;Helvetica Neue&quot;, sans-serif; font-size: 12px; font-weight: 200;" x="214.2953843336839" y="0" dx="0em" dy="0.95em" fill="rgb(50, 49, 63)" stroke="none" stroke-width="1px">90k</text><text style="text-anchor: middle; visibility: inherit; font-family: &quot;Helvetica Neue&quot;, sans-serif; font-size: 12px; font-weight: 200;" x="235.72492276705228" y="0" dx="0em" dy="0.95em" fill="rgb(50, 49, 63)" stroke="none" stroke-width="1px">100k</text><text style="text-anchor: middle; visibility: hidden; font-family: &quot;Helvetica Neue&quot;, sans-serif; font-size: 12px; font-weight: 200;" x="257.1544612004207" y="0" dx="0em" dy="0.95em" fill="rgb(50, 49, 63)" stroke="none" stroke-width="1px">110k</text><text style="text-anchor: middle; visibility: hidden; font-family: &quot;Helvetica Neue&quot;, sans-serif; font-size: 12px; font-weight: 200;" x="278.58399963378906" y="0" dx="0em" dy="0.95em" fill="rgb(50, 49, 63)" stroke="none" stroke-width="1px">120k</text></g><line x1="0" y1="0" x2="278.58399963378906" y2="0" fill="rgb(0, 0, 0)" stroke="rgb(204, 204, 204)" stroke-width="1px"></line></g></g></g></g></svg>