<svg viewBox="0 0 330 200" xmlns="http://www.w3.org/2000/svg"><g><g><g><g><g><line x1="51.41600036621094" y1="177.9749994277954" x2="46.41600036621094" y2="177.9749994277954" style="visibility: inherit;" fill="rgb(0, 0, 0)" stroke="rgb(204, 204, 204)" stroke-width="1px"></line><line x1="51.41600036621094" y1="164.28461485642654" x2="46.41600036621094" y2="164.28461485642654" style="visibility: inherit;" fill="rgb(0, 0, 0)" stroke="rgb(204, 204, 204)" stroke-width="1px"></line><line x1="51.41600036621094" y1="150.59423028505765" x2="46.41600036621094" y2="150.59423028505765" style="visibility: inherit;" fill="rgb(0, 0, 0)" stroke="rgb(204, 204, 204)" stroke-width="1px"></line><line x1="51.41600036621094" y1="136.90384571368878" x2="46.41600036621094" y2="136.90384571368878" style="visibility: inherit;" fill="rgb(0, 0, 0)" stroke="rgb(204, 204, 204)" stroke-width="1px"></line><line x1="51.41600036621094" y1="123.21346114231989" x2="46.41600036621094" y2="123.21346114231989" style="visibility: inherit;" fill="rgb(0, 0, 0)" stroke="rgb(204, 204, 204)" stroke-width="1px"></line><line x1="51.41600036621094" y1="109.52307657095103" x2="46.41600036621094" y2="109.52307657095103" style="visibility: inherit;" fill="rgb(0, 0, 0)" stroke="rgb(204, 204, 204)" stroke-width="1px"></line><line x1="51.41600036621094" y1="95.83269199958215" x2="46.41600036621094" y2="95.83269199958215" style="visibility: inherit;" fill="rgb(0, 0, 0)" stroke="rgb(204, 204, 204)" stroke-width="1px"></line><line x1="51.41600036621094" y1="82.14230742821327" x2="46.41600036621094" y2="82.14230742821327" style="visibility: inherit;" fill="rgb(0, 0, 0)" stroke="rgb(204, 204, 204)" stroke-width="1px"></line><line x1="51.41600036621094" y1="68.4519228568444" x2="46.41600036621094" y2="68.4519228568444" style="visibility: inherit;" fill="rgb(0, 0, 0)" stroke="rgb(204, 204, 204)" stroke-width="1px"></line><line x1="51.41600036621094" y1="54.76153828547551" x2="46.41600036621094" y2="54.76153828547551" style="visibility: inherit;" fill="rgb(0, 0, 0)" stroke="rgb(204, 204, 204)" stroke-width="1px"></line><line x1="51.41600036621094" y1="41.07115371410666" x2="46.41600036621094" y2="41.07115371410666" style="visibility: inherit;" fill="rgb(0, 0, 0)" stroke="rgb(204, 204, 204)" stroke-width="1px"></line><line x1="51.41600036621094" y1="27.380769142737762" x2="46.41600036621094" y2="27.380769142737762" style="visibility: inherit;" fill="rgb(0, 0, 0)" stroke="rgb(204, 204, 204)" stroke-width="1px"></line><line x1="51.41600036621094" y1="13.690384571368867" x2="46.41600036621094" y2="13.690384571368867" style="visibility: inherit;" fill="rgb(0, 0, 0)" stroke="rgb(204, 204, 204)" stroke-width="1px"></line><line x1="51.41600036621094" y1="0" x2="46.41600036621094" y2="0" style="visibility: inherit;" fill="rgb(0, 0, 0)" stroke="rgb(204, 204, 204)" stroke-width="1px"></line></g><g transform="translate(41.41600036621094, 0)"><text style="text-anchor: end; visibility: hidden; font-family: &quot;Helvetica Neue&quot;, sans-serif; font-size: 12px; font-weight: 200;" x="0" y="177.9749994277954" dx="0em" dy="0.3em" fill="rgb(50, 49, 63)" stroke="none" stroke-width="1px">-0.1</text><text style="text-anchor: end; visibility: inherit; font-family: &quot;Helvetica Neue&quot;, sans-serif; font-size: 12px; font-weight: 200;" x="0" y="164.28461485642654" dx="0em" dy="0.3em" fill="rgb(50, 49, 63)" stroke="none" stroke-width="1px">0</text><text style="text-anchor: end; visibility: hidden; font-family: &quot;Helvetica Neue&quot;, sans-serif; font-size: 12px; font-weight: 200;" x="0" y="150.59423028505765" dx="0em" dy="0.3em" fill="rgb(50, 49, 63)" stroke="none" stroke-width="1px">0.1</text><text style="text-anchor: end; visibility: inherit; font-family: &quot;Helvetica Neue&quot;, sans-serif; font-size: 12px; font-weight: 200;" x="0" y="136.90384571368878" dx="0em" dy="0.3em" fill="rgb(50, 49, 63)" stroke="none" stroke-width="1px">0.2</text><text style="text-anchor: end; visibility: hidden; font-family: &quot;Helvetica Neue&quot;, sans-serif; font-size: 12px; font-weight: 200;" x="0" y="123.21346114231989" dx="0em" dy="0.3em" fill="rgb(50, 49, 63)" stroke="none" stroke-width="1px">0.3</text><text style="text-anchor: end; visibility: inherit; font-family: &quot;Helvetica Neue&quot;, sans-serif; font-size: 12px; font-weight: 200;" x="0" y="109.52307657095103" dx="0em" dy="0.3em" fill="rgb(50, 49, 63)" stroke="none" stroke-width="1px">0.4</text><text style="text-anchor: end; visibility: hidden; font-family: &quot;Helvetica Neue&quot;, sans-serif; font-size: 12px; font-weight: 200;" x="0" y="95.83269199958215" dx="0em" dy="0.3em" fill="rgb(50, 49, 63)" stroke="none" stroke-width="1px">0.5</text><text style="text-anchor: end; visibility: inherit; font-family: &quot;Helvetica Neue&quot;, sans-serif; font-size: 12px; font-weight: 200;" x="0" y="82.14230742821327" dx="0em" dy="0.3em" fill="rgb(50, 49, 63)" stroke="none" stroke-width="1px">0.6</text><text style="text-anchor: end; visibility: hidden; font-family: &quot;Helvetica Neue&quot;, sans-serif; font-size: 12px; font-weight: 200;" x="0" y="68.4519228568444" dx="0em" dy="0.3em" fill="rgb(50, 49, 63)" stroke="none" stroke-width="1px">0.7</text><text style="text-anchor: end; visibility: inherit; font-family: &quot;Helvetica Neue&quot;, sans-serif; font-size: 12px; font-weight: 200;" x="0" y="54.76153828547551" dx="0em" dy="0.3em" fill="rgb(50, 49, 63)" stroke="none" stroke-width="1px">0.8</text><text style="text-anchor: end; visibility: hidden; font-family: &quot;Helvetica Neue&quot;, sans-serif; font-size: 12px; font-weight: 200;" x="0" y="41.07115371410666" dx="0em" dy="0.3em" fill="rgb(50, 49, 63)" stroke="none" stroke-width="1px">0.9</text><text style="text-anchor: end; visibility: inherit; font-family: &quot;Helvetica Neue&quot;, sans-serif; font-size: 12px; font-weight: 200;" x="0" y="27.380769142737762" dx="0em" dy="0.3em" fill="rgb(50, 49, 63)" stroke="none" stroke-width="1px">1</text><text style="text-anchor: end; visibility: hidden; font-family: &quot;Helvetica Neue&quot;, sans-serif; font-size: 12px; font-weight: 200;" x="0" y="13.690384571368867" dx="0em" dy="0.3em" fill="rgb(50, 49, 63)" stroke="none" stroke-width="1px">1.1</text><text style="text-anchor: end; visibility: hidden; font-family: &quot;Helvetica Neue&quot;, sans-serif; font-size: 12px; font-weight: 200;" x="0" y="0" dx="0em" dy="0.3em" fill="rgb(50, 49, 63)" stroke="none" stroke-width="1px">1.2</text></g><line x1="51.41600036621094" y1="0" x2="51.41600036621094" y2="177.9749994277954" fill="rgb(0, 0, 0)" stroke="rgb(204, 204, 204)" stroke-width="1px"></line></g></g><g transform="translate(51, 0)" clip-path="url(#clip_0)"><clipPath id="clip_0"><rect width="278" height="177"></rect></clipPath><g><g><g><line x1="0" y1="0" x2="0" y2="177.9749994277954" fill="rgb(0, 0, 0)" stroke="rgb(60, 60, 60)" stroke-width="1px" opacity="0.25"></line><line x1="23.215333302815754" y1="0" x2="23.215333302815754" y2="177.9749994277954" fill="rgb(0, 0, 0)" stroke="rgb(60, 60, 60)" stroke-width="1px" opacity="0.25"></line><line x1="46.43066660563151" y1="0" x2="46.43066660563151" y2="177.9749994277954" fill="rgb(0, 0, 0)" stroke="rgb(60, 60, 60)" stroke-width="1px" opacity="0.25"></line><line x1="69.64599990844727" y1="0" x2="69.64599990844727" y2="177.9749994277954" fill="rgb(0, 0, 0)" stroke="rgb(60, 60, 60)" stroke-width="1px" opacity="0.25"></line><line x1="92.86133321126302" y1="0" x2="92.86133321126302" y2="177.9749994277954" fill="rgb(0, 0, 0)" stroke="rgb(60, 60, 60)" stroke-width="1px" opacity="0.25"></line><line x1="116.07666651407878" y1="0" x2="116.07666651407878" y2="177.9749994277954" fill="rgb(0, 0, 0)" stroke="rgb(60, 60, 60)" stroke-width="1px" opacity="0.25"></line><line x1="139.29199981689453" y1="0" x2="139.29199981689453" y2="177.9749994277954" fill="rgb(0, 0, 0)" stroke="rgb(60, 60, 60)" stroke-width="1px" opacity="0.25"></line><line x1="162.5073331197103" y1="0" x2="162.5073331197103" y2="177.9749994277954" fill="rgb(0, 0, 0)" stroke="rgb(60, 60, 60)" stroke-width="1px" opacity="0.25"></line><line x1="185.72266642252603" y1="0" x2="185.72266642252603" y2="177.9749994277954" fill="rgb(0, 0, 0)" stroke="rgb(60, 60, 60)" stroke-width="1px" opacity="0.25"></line><line x1="208.9379997253418" y1="0" x2="208.9379997253418" y2="177.9749994277954" fill="rgb(0, 0, 0)" stroke="rgb(60, 60, 60)" stroke-width="1px" opacity="0.25"></line><line x1="232.15333302815756" y1="0" x2="232.15333302815756" y2="177.9749994277954" fill="rgb(0, 0, 0)" stroke="rgb(60, 60, 60)" stroke-width="1px" opacity="0.25"></line><line x1="255.3686663309733" y1="0" x2="255.3686663309733" y2="177.9749994277954" fill="rgb(0, 0, 0)" stroke="rgb(60, 60, 60)" stroke-width="1px" opacity="0.25"></line><line x1="278.58399963378906" y1="0" x2="278.58399963378906" y2="177.9749994277954" fill="rgb(0, 0, 0)" stroke="rgb(60, 60, 60)" stroke-width="1px" opacity="0.25"></line></g><g><line x1="0" y1="177.9749994277954" x2="278.58399963378906" y2="177.9749994277954" fill="rgb(0, 0, 0)" stroke="rgb(60, 60, 60)" stroke-width="1px" opacity="0.25"></line><line x1="0" y1="164.28461485642654" x2="278.58399963378906" y2="164.28461485642654" fill="rgb(0, 0, 0)" stroke="rgb(60, 60, 60)" stroke-width="1px" opacity="0.25"></line><line x1="0" y1="150.59423028505765" x2="278.58399963378906" y2="150.59423028505765" fill="rgb(0, 0, 0)" stroke="rgb(60, 60, 60)" stroke-width="1px" opacity="0.25"></line><line x1="0" y1="136.90384571368878" x2="278.58399963378906" y2="136.90384571368878" fill="rgb(0, 0, 0)" stroke="rgb(60, 60, 60)" stroke-width="1px" opacity="0.25"></line><line x1="0" y1="123.21346114231989" x2="278.58399963378906" y2="123.21346114231989" fill="rgb(0, 0, 0)" stroke="rgb(60, 60, 60)" stroke-width="1px" opacity="0.25"></line><line x1="0" y1="109.52307657095103" x2="278.58399963378906" y2="109.52307657095103" fill="rgb(0, 0, 0)" stroke="rgb(60, 60, 60)" stroke-width="1px" opacity="0.25"></line><line x1="0" y1="95.83269199958215" x2="278.58399963378906" y2="95.83269199958215" fill="rgb(0, 0, 0)" stroke="rgb(60, 60, 60)" stroke-width="1px" opacity="0.25"></line><line x1="0" y1="82.14230742821327" x2="278.58399963378906" y2="82.14230742821327" fill="rgb(0, 0, 0)" stroke="rgb(60, 60, 60)" stroke-width="1px" opacity="0.25"></line><line x1="0" y1="68.4519228568444" x2="278.58399963378906" y2="68.4519228568444" fill="rgb(0, 0, 0)" stroke="rgb(60, 60, 60)" stroke-width="1px" opacity="0.25"></line><line x1="0" y1="54.76153828547551" x2="278.58399963378906" y2="54.76153828547551" fill="rgb(0, 0, 0)" stroke="rgb(60, 60, 60)" stroke-width="1px" opacity="0.25"></line><line x1="0" y1="41.07115371410666" x2="278.58399963378906" y2="41.07115371410666" fill="rgb(0, 0, 0)" stroke="rgb(60, 60, 60)" stroke-width="1px" opacity="0.25"></line><line x1="0" y1="27.380769142737762" x2="278.58399963378906" y2="27.380769142737762" fill="rgb(0, 0, 0)" stroke="rgb(60, 60, 60)" stroke-width="1px" opacity="0.25"></line><line x1="0" y1="13.690384571368867" x2="278.58399963378906" y2="13.690384571368867" fill="rgb(0, 0, 0)" stroke="rgb(60, 60, 60)" stroke-width="1px" opacity="0.25"></line><line x1="0" y1="0" x2="278.58399963378906" y2="0" fill="rgb(0, 0, 0)" stroke="rgb(60, 60, 60)" stroke-width="1px" opacity="0.25"></line></g></g></g><g><g><line x1="0" y1="164.28461485642654" x2="278.58399963378906" y2="164.28461485642654" fill="rgb(0, 0, 0)" stroke="rgb(153, 153, 153)" stroke-width="1.5px"></line></g></g><g><g><line x1="23.215333302815754" y1="0" x2="23.215333302815754" y2="177.9749994277954" fill="rgb(0, 0, 0)" stroke="rgb(153, 153, 153)" stroke-width="1.5px"></line></g></g><g><g><g><g><g><path style="fill: none;" stroke="rgb(51, 187, 238)" stroke-width="2px" d="M23.215333302815754,162.92926679120512L24.37609996795654,146.90056361115933L25.53686663309733,141.26286328449095L26.69763329823812,132.75839767740038L27.858399963378908,127.20557876390055L29.019166628519695,121.6007330603594L30.179933293660483,116.20398227682574L31.34069995880127,111.99829675275235L32.50146662394206,109.00832000551756L33.66223328908285,104.33441989141429L34.82299995422363,101.16098766149778L35.983766619364424,97.7301775568698L37.14453328450521,93.57103727224205L38.305299949646,91.29843984397338L39.46606661478678,89.90749281028087L40.626833279927574,86.78060581981L41.78759994506836,86.03584934825972L42.94836661020915,85.72645080358578L44.10913327534993,80.97314878688337L45.269899940490724,81.99992665052342L46.43066660563151,77.98317203964857L47.5914332707723,78.85661336850205L48.75219993591308,75.69961559024114L49.912966601053874,75.669496642346L51.07373326619466,73.98283556021913L52.23449993133545,73.37224753659396L53.39526659647624,71.65547566667703L54.556033261617024,69.97977360568889L55.716799926757815,70.97916615663969L56.8775665918986,67.56204870835636L58.03833325703939,65.88908028257408L59.199099922180174,64.9362329710689L60.359866587320965,66.66669749733046L61.52063325246175,64.67611330104646L62.68139991760254,67.04455116362242L63.842166582743324,61.92434634166169L65.00293324788412,64.8239744053162L66.1636999130249,63.474097180552505L67.3244665781657,62.87171822265003L68.48523324330647,60.577210912208926L69.64599990844727,59.82424537493594L70.80676657358805,59.43817448281618L71.96753323872885,62.773152313241965L73.12829990386963,59.77769197538525L74.28906656901042,55.32557943763405L75.4498332341512,55.0818942192672L76.610599899292,53.181666866668564L77.77136656443278,53.34595426248882L78.93213322957357,53.68273811985199L80.09289989471435,57.80354223075685L81.25366655985515,55.84034334716209L82.41443322499593,56.5440300097836L83.57519989013672,53.55678689775468L84.7359665552775,54.84368443141716L85.8967332204183,50.73930661206282L87.05749988555908,51.251320566174826L88.21826655069987,48.25586838842318L89.37903321584066,51.429300618339695L90.53979988098145,50.48466237255721L91.70056654612223,50.65715883410016L92.86133321126302,48.34074980159173L94.02209987640381,49.04169466890227L95.1828665415446,49.97264025834011L96.34363320668538,49.16217046048277L97.50439987182617,47.278377559539734L98.66516653696696,52.710722721485354L99.82593320210775,48.04229395784637L100.98669986724853,52.43965219042924L102.14746653238932,46.78825716738996L103.30823319753011,46.93337647634874L104.4689998626709,47.95742070478292L105.62976652781168,47.08122942051338L106.79053319295248,49.649549057321565L107.95129985809326,47.14146731630365L109.11206652323405,48.283245541007346L110.27283318837483,45.687548751615026L111.43359985351563,44.70458249221471L112.59436651865641,44.90719790165278L113.7551331837972,44.433511961158615L114.91589984893798,42.730424587481224L116.07666651407878,44.68541440535327L117.23743317921956,43.59292321540613L118.39819984436035,44.57315583960056L119.55896650950113,40.76722570388645L120.71973317464193,42.56614535176607L121.88049983978271,41.91447935910705L123.0412665049235,46.18314457428161L124.2020331700643,44.154232364379794L125.36279983520508,46.500760344783345L126.52356650034586,53.32131074511051L127.68433316548665,41.862458689144574L128.84509983062745,42.043172376515315L130.00586649576823,40.22508464177426L131.16663316090902,40.12651873236618L132.3273998260498,41.78031907128701L133.4881664911906,39.29413905233639L134.6489331563314,44.080301812244926L135.80969982147215,40.78365199543697L136.97046648661293,39.833546479242756L138.13123315175375,40.39484746811132L139.29199981689453,39.30783170868102L140.45276648203532,42.46757128225292L141.6135331471761,43.33827897590052L142.77429981231688,40.25520358966938L143.9350664774577,37.38843626922096L145.09583314259848,42.05412323754899L146.25659980773926,37.99355702243437L147.41736647288005,41.54757655384873L148.57813313802083,36.69296683242726L149.73889980316162,39.42556570495057L150.8996664683024,39.60627939232131L152.06043313344318,38.86152292077102L153.221199798584,38.483669254479054L154.38196646372478,36.87915595031481L155.54273312886556,37.799150678719L156.70349979400635,37.69236754348313L157.86426645914713,37.552723665041185L159.02503312428792,38.01272510929584L160.1857997894287,37.807367904546794L161.3465664545695,38.63426399395465L162.5073331197103,36.60535178405283L163.66809978485108,37.82105240078633L164.82886644999186,36.55058931877943L165.98963311513265,35.66071353827036L167.15039978027343,36.03856720456233L168.31116644541422,35.940001295154275L169.471933110555,38.06200398394731L170.6326997756958,36.33701488820259L171.7934664408366,35.318454250390346L172.95423310597738,36.205588235588436L174.11499977111816,34.91869886203105L175.27576643625895,36.69844226294407L176.43653310139973,34.47239007412102L177.59729976654052,34.32727076516224L178.75806643168133,34.579173209356895L179.9188330968221,33.06775854418899L181.0795997619629,34.11643812989638L182.24036642710368,32.728232891514836L183.40113309224446,32.350379225222866L184.56189975738525,32.47633044732018L185.72266642252603,32.86513497464583L186.88343308766682,32.84870868309534L188.04419975280763,31.717881319425288L189.2049664179484,31.044313604698914L190.3657330830892,32.63240061731264L191.52649974822998,30.869075347845012L192.68726641337076,31.30169147941038L193.84803307851155,32.43526063839141L195.00879974365233,30.860866282122316L196.16956640879314,31.405740979440395L197.33033307393393,29.965515071096405L198.4910997390747,30.151704188983985L199.6518664042155,29.916228036339817L200.81263306935628,29.13040175586076L201.97339973449706,29.604087696354924L203.13416639963785,28.96885615535146L204.29493306477863,28.990757877418815L205.45569972991944,28.73885543322416L206.61646639506023,28.89492560321662L207.777233060201,28.517071936924623L208.9379997253418,28.432190523756077L210.09876639048258,28.172070853733658L211.25953305562336,28.237784180040734L212.42029972076415,27.98862353115703L213.58106638590496,27.870881374782414L214.74183305104575,27.824336135336807L215.90259971618653,27.76409823954657L217.0633663813273,27.777790895891172L218.2241330464681,27.62172072589874L219.38489971160888,27.60255263903727L220.54566637674967,27.53409751741924L221.70643304189045,27.586126347486783L222.86719970703126,27.545056538557986L224.02796637217205,27.503978569524094L225.18873303731283,27.503978569524094L226.3494997024536,27.482076847456796L227.5102663675944,27.49029407328456L228.67103303273518,27.482076847456796L229.83179969787597,27.487552277973606L230.99256636301678,27.462908760595326L232.15333302815756,27.441007038528L233.31409969329835,27.443748833838953L234.47486635843913,27.42731438218337L235.6356330235799,27.443748833838953L236.7963996887207,27.443748833838953L237.95716635386148,27.443748833838953L239.11793301900227,27.42458074697751L240.27869968414308,27.443748833838953L241.43946634928386,27.430056177494322L242.60023301442465,27.432789812700207L243.76099967956543,27.413629885943834L244.9217663447062,27.42731438218337L246.082533009847,27.42458074697751L247.24329967498778,27.432789812700207L248.4040663401286,27.42458074697751L249.56483300526938,27.42731438218337L250.72559967041016,27.430056177494322L251.88636633555095,27.430056177494322L253.04713300069173,27.41636352114972L254.2078996658325,27.41636352114972" fill="none"></path></g><g><path style="fill: none;" stroke="rgb(0, 119, 187)" stroke-width="2px" d="M23.215333302815754,162.91557642989005L24.37609996795654,147.41806115589324L25.53686663309733,142.96868633340046L26.69763329823812,133.2211327568609L27.858399963378908,127.6080759475708L29.019166628519695,122.30989515349773L30.179933293660483,117.66885578260056L31.34069995880127,112.82245920695433L32.50146662394206,110.08438082386164L33.66223328908285,106.18262249399791L34.82299995422363,103.49930657617863L35.983766619364424,101.48682065782731L37.14453328450521,96.98268337006112L38.305299949646,95.90114304114763L39.46606661478678,94.95650887541771L40.626833279927574,93.3273520538752L41.78759994506836,90.93153703871508L42.94836661020915,91.30117347917924L44.10913327534993,88.39881178031885L45.269899940490724,88.87797315132987L46.43066660563151,85.9893041088141L47.5914332707723,87.26250898613196L48.75219993591308,84.19586805155643L49.912966601053874,83.37443923256032L51.07373326619466,83.21015999684516L52.23449993133545,83.49765681945178L53.39526659647624,82.4161164905383L54.556033261617024,81.8411228453251L55.716799926757815,82.60778103894272L56.8775665918986,79.92446920117598L58.03833325703939,78.39114465383567L59.199099922180174,78.55542388955081L60.359866587320965,79.44529967005988L61.52063325246175,78.70601862902643L62.68139991760254,79.71911199642695L63.842166582743324,77.91197512271957L65.00293324788412,79.86970673590257L66.1636999130249,78.67864147644227L67.3244665781657,78.99351545163303L68.48523324330647,77.87090531379079L69.64599990844727,78.15840213639738L70.80676657358805,77.17269408168612L71.96753323872885,79.93815369741552L73.12829990386963,77.37805128643515L74.28906656901042,75.59829972541701L75.4498332341512,75.81734958651066L76.610599899292,74.29771769551498L77.77136656443278,74.69473944866841L78.93213322957357,74.68104679232377L80.09289989471435,76.89888991542412L81.25366655985515,77.54233868225538L82.41443322499593,78.52804673696664L83.57519989013672,76.03639944760432L84.7359665552775,77.39174394277975L85.8967332204183,75.57092257283284L87.05749988555908,74.85902684448865L88.21826655069987,73.85962613343276L89.37903321584066,75.57092257283284L90.53979988098145,74.29771769551498L91.70056654612223,74.85902684448865L92.86133321126302,73.05188997078126L94.02209987640381,74.28402503917034L95.1828665415446,75.69414015972431L96.34363320668538,75.39295068077308L97.50439987182617,73.70903139395715L98.66516653696696,77.692933421731L99.82593320210775,75.31080290281041L100.98669986724853,77.48757621698196L102.14746653238932,74.24295523024156L103.30823319753011,74.02390536914791L104.4689998626709,74.68104679232377L105.62976652781168,75.48878295497528L106.79053319295248,75.37925802442844L107.95129985809326,75.6393776944509L109.11206652323405,75.58461522917747L110.27283318837483,73.75010120288593L111.43359985351563,73.98283556021913L112.59436651865641,74.18819276496814L113.7551331837972,73.07927528347052L114.91589984893798,72.65486821762784L116.07666651407878,74.9685436149304L117.23743317921956,73.39414925866129L118.39819984436035,73.95545840763496L119.55896650950113,71.6417830103324L120.71973317464193,72.77808580451929L121.88049983978271,73.20248471025687L123.0412665049235,75.29711840657087L124.2020331700643,72.98344300926833L125.36279983520508,75.7352099686531L126.52356650034586,79.5958944095355L127.68433316548665,73.44891172393469L128.84509983062745,73.06558262712589L130.00586649576823,72.55903594342563L131.16663316090902,72.02511210714121L132.3273998260498,72.62749106504367L133.4881664911906,71.91558717659439L134.6489331563314,75.96794432598628L135.80969982147215,73.13403774874394L136.97046648661293,71.91558717659439L138.13123315175375,71.18999879190555L139.29199981689453,72.50427347815223L140.45276648203532,73.84593347708812L141.6135331471761,74.27033238282573L142.77429981231688,72.94236504023445L143.9350664774577,69.94417106717185L145.09583314259848,74.18819276496814L146.25659980773926,71.08047386135873L147.41736647288005,73.66796158502837L148.57813313802083,69.32810761302986L149.73889980316162,72.69593802655663L150.8996664683024,71.81975490239218L152.06043313344318,71.86082471132097L153.221199798584,72.05249741983046L154.38196646372478,71.58702054505899L155.54273312886556,70.58761983400309L156.70349979400635,71.73761528453461L157.86426645914713,71.47749561451215L159.02503312428792,73.13403774874394L160.1857997894287,72.46320366922342L161.3465664545695,72.14832969403267L162.5073331197103,70.69714476454992L163.66809978485108,72.09356722875926L164.82886644999186,70.51917287249016L165.98963311513265,70.54655002507431L167.15039978027343,71.24476125717898L168.31116644541422,70.51917287249016L169.471933110555,71.80607040615264L170.6326997756958,71.66916016291657L171.7934664408366,70.12215111933672L172.95423310597738,70.92987912188312L174.11499977111816,68.73942131147203L175.27576643625895,71.03940405242994L176.43653310139973,69.67036690090987L177.59729976654052,69.31441495668523L178.75806643168133,71.2173841045948L179.9188330968221,69.01322547773398L181.0795997619629,70.34119282032528L182.24036642710368,69.1638202172096L183.40113309224446,68.47930164144957L184.56189975738525,68.89001605094764L185.72266642252603,69.7388220225279L186.88343308766682,70.06738865406331L188.04419975280763,68.10966520098539L189.2049664179484,67.42514662522535L190.3657330830892,70.17691358461013L191.52649974822998,67.84954553096296L192.68726641337076,68.04121007936736L193.84803307851155,69.08168059935204L195.00879974365233,68.69835150254323L196.16956640879314,68.06859539205661L197.33033307393393,66.41205325782484L198.4910997390747,67.06919468100072L199.6518664042155,66.57634065364509L200.81263306935628,66.37098344889606L201.97339973449706,66.8775301325963L203.13416639963785,65.90551473422967L204.29493306477863,66.35729079255142L205.45569972991944,65.89182207788505L206.61646639506023,65.96026903939799L207.777233060201,66.43943857051408L208.9379997253418,65.33051292891138L210.09876639048258,65.04301610630478L211.25953305562336,65.22099615846963L212.42029972076415,64.90611402317379L213.58106638590496,63.74243407640273L214.74183305104575,64.55016207894914L215.90259971618653,63.769811228986896L217.0633663813273,64.09837786052229L218.2241330464681,64.23528810375836L219.38489971160888,63.09898530957149L220.54566637674967,62.87993544847784L221.70643304189045,63.851950846844474L222.86719970703126,62.797795830620245L224.02796637217205,62.97576772268003L225.18873303731283,63.29064985797588L226.3494997024536,62.428151230050986L227.5102663675944,62.66089374748927L228.67103303273518,62.291249146919995L229.83179969787597,62.35970426853804L230.99256636301678,62.57874596952661L232.15333302815756,61.63410772374412L233.31409969329835,62.168039720133635L234.47486635843913,61.93529720269535L235.6356330235799,61.771017966980196L236.7963996887207,61.71625550170678L237.95716635386148,61.83946492849316L239.11793301900227,61.51089829695775L240.27869968414308,61.83946492849316L241.43946634928386,61.976367011624134L242.60023301442465,61.83946492849316L243.76099967956543,61.62042322750459L244.9217663447062,61.688870189017535L246.082533009847,61.771017966980196L247.24329967498778,61.346610901137524L248.4040663401286,61.62042322750459L249.56483300526938,61.15494635273312L250.72559967041016,61.44244317533972L251.88636633555095,61.53827544954191L253.04713300069173,61.62042322750459L254.2078996658325,61.52459095330238" fill="none"></path></g></g></g></g></g></g><g transform="translate(51, 177)" clip-path="url(#clip_1)"><clipPath id="clip_1"><rect width="278" height="22"></rect></clipPath><g><g><line x1="0" y1="0" x2="0" y2="5" style="visibility: inherit;" fill="rgb(0, 0, 0)" stroke="rgb(204, 204, 204)" stroke-width="1px"></line><line x1="23.215333302815754" y1="0" x2="23.215333302815754" y2="5" style="visibility: inherit;" fill="rgb(0, 0, 0)" stroke="rgb(204, 204, 204)" stroke-width="1px"></line><line x1="46.43066660563151" y1="0" x2="46.43066660563151" y2="5" style="visibility: inherit;" fill="rgb(0, 0, 0)" stroke="rgb(204, 204, 204)" stroke-width="1px"></line><line x1="69.64599990844727" y1="0" x2="69.64599990844727" y2="5" style="visibility: inherit;" fill="rgb(0, 0, 0)" stroke="rgb(204, 204, 204)" stroke-width="1px"></line><line x1="92.86133321126302" y1="0" x2="92.86133321126302" y2="5" style="visibility: inherit;" fill="rgb(0, 0, 0)" stroke="rgb(204, 204, 204)" stroke-width="1px"></line><line x1="116.07666651407878" y1="0" x2="116.07666651407878" y2="5" style="visibility: inherit;" fill="rgb(0, 0, 0)" stroke="rgb(204, 204, 204)" stroke-width="1px"></line><line x1="139.29199981689453" y1="0" x2="139.29199981689453" y2="5" style="visibility: inherit;" fill="rgb(0, 0, 0)" stroke="rgb(204, 204, 204)" stroke-width="1px"></line><line x1="162.5073331197103" y1="0" x2="162.5073331197103" y2="5" style="visibility: inherit;" fill="rgb(0, 0, 0)" stroke="rgb(204, 204, 204)" stroke-width="1px"></line><line x1="185.72266642252603" y1="0" x2="185.72266642252603" y2="5" style="visibility: inherit;" fill="rgb(0, 0, 0)" stroke="rgb(204, 204, 204)" stroke-width="1px"></line><line x1="208.9379997253418" y1="0" x2="208.9379997253418" y2="5" style="visibility: inherit;" fill="rgb(0, 0, 0)" stroke="rgb(204, 204, 204)" stroke-width="1px"></line><line x1="232.15333302815756" y1="0" x2="232.15333302815756" y2="5" style="visibility: inherit;" fill="rgb(0, 0, 0)" stroke="rgb(204, 204, 204)" stroke-width="1px"></line><line x1="255.3686663309733" y1="0" x2="255.3686663309733" y2="5" style="visibility: inherit;" fill="rgb(0, 0, 0)" stroke="rgb(204, 204, 204)" stroke-width="1px"></line><line x1="278.58399963378906" y1="0" x2="278.58399963378906" y2="5" style="visibility: inherit;" fill="rgb(0, 0, 0)" stroke="rgb(204, 204, 204)" stroke-width="1px"></line></g><g transform="translate(0, 8)"><text style="text-anchor: middle; visibility: hidden; font-family: &quot;Helvetica Neue&quot;, sans-serif; font-size: 12px; font-weight: 200;" x="0" y="0" dx="0em" dy="0.95em" fill="rgb(50, 49, 63)" stroke="none" stroke-width="1px">-20</text><text style="text-anchor: middle; visibility: inherit; font-family: &quot;Helvetica Neue&quot;, sans-serif; font-size: 12px; font-weight: 200;" x="23.215333302815754" y="0" dx="0em" dy="0.95em" fill="rgb(50, 49, 63)" stroke="none" stroke-width="1px">0</text><text style="text-anchor: middle; visibility: hidden; font-family: &quot;Helvetica Neue&quot;, sans-serif; font-size: 12px; font-weight: 200;" x="46.43066660563151" y="0" dx="0em" dy="0.95em" fill="rgb(50, 49, 63)" stroke="none" stroke-width="1px">20</text><text style="text-anchor: middle; visibility: inherit; font-family: &quot;Helvetica Neue&quot;, sans-serif; font-size: 12px; font-weight: 200;" x="69.64599990844727" y="0" dx="0em" dy="0.95em" fill="rgb(50, 49, 63)" stroke="none" stroke-width="1px">40</text><text style="text-anchor: middle; visibility: hidden; font-family: &quot;Helvetica Neue&quot;, sans-serif; font-size: 12px; font-weight: 200;" x="92.86133321126302" y="0" dx="0em" dy="0.95em" fill="rgb(50, 49, 63)" stroke="none" stroke-width="1px">60</text><text style="text-anchor: middle; visibility: inherit; font-family: &quot;Helvetica Neue&quot;, sans-serif; font-size: 12px; font-weight: 200;" x="116.07666651407878" y="0" dx="0em" dy="0.95em" fill="rgb(50, 49, 63)" stroke="none" stroke-width="1px">80</text><text style="text-anchor: middle; visibility: hidden; font-family: &quot;Helvetica Neue&quot;, sans-serif; font-size: 12px; font-weight: 200;" x="139.29199981689453" y="0" dx="0em" dy="0.95em" fill="rgb(50, 49, 63)" stroke="none" stroke-width="1px">100</text><text style="text-anchor: middle; visibility: inherit; font-family: &quot;Helvetica Neue&quot;, sans-serif; font-size: 12px; font-weight: 200;" x="162.5073331197103" y="0" dx="0em" dy="0.95em" fill="rgb(50, 49, 63)" stroke="none" stroke-width="1px">120</text><text style="text-anchor: middle; visibility: hidden; font-family: &quot;Helvetica Neue&quot;, sans-serif; font-size: 12px; font-weight: 200;" x="185.72266642252603" y="0" dx="0em" dy="0.95em" fill="rgb(50, 49, 63)" stroke="none" stroke-width="1px">140</text><text style="text-anchor: middle; visibility: inherit; font-family: &quot;Helvetica Neue&quot;, sans-serif; font-size: 12px; font-weight: 200;" x="208.9379997253418" y="0" dx="0em" dy="0.95em" fill="rgb(50, 49, 63)" stroke="none" stroke-width="1px">160</text><text style="text-anchor: middle; visibility: hidden; font-family: &quot;Helvetica Neue&quot;, sans-serif; font-size: 12px; font-weight: 200;" x="232.15333302815756" y="0" dx="0em" dy="0.95em" fill="rgb(50, 49, 63)" stroke="none" stroke-width="1px">180</text><text style="text-anchor: middle; visibility: inherit; font-family: &quot;Helvetica Neue&quot;, sans-serif; font-size: 12px; font-weight: 200;" x="255.3686663309733" y="0" dx="0em" dy="0.95em" fill="rgb(50, 49, 63)" stroke="none" stroke-width="1px">200</text><text style="text-anchor: middle; visibility: hidden; font-family: &quot;Helvetica Neue&quot;, sans-serif; font-size: 12px; font-weight: 200;" x="278.58399963378906" y="0" dx="0em" dy="0.95em" fill="rgb(50, 49, 63)" stroke="none" stroke-width="1px">220</text></g><line x1="0" y1="0" x2="278.58399963378906" y2="0" fill="rgb(0, 0, 0)" stroke="rgb(204, 204, 204)" stroke-width="1px"></line></g></g></g></g></svg>