<svg viewBox="0 0 330 200" xmlns="http://www.w3.org/2000/svg"><g><g><g><g><g><line x1="51.41600036621094" y1="177.9749994277954" x2="46.41600036621094" y2="177.9749994277954" style="visibility: inherit;" fill="rgb(0, 0, 0)" stroke="rgb(204, 204, 204)" stroke-width="1px"></line><line x1="51.41600036621094" y1="166.1099994659424" x2="46.41600036621094" y2="166.1099994659424" style="visibility: inherit;" fill="rgb(0, 0, 0)" stroke="rgb(204, 204, 204)" stroke-width="1px"></line><line x1="51.41600036621094" y1="154.24499950408935" x2="46.41600036621094" y2="154.24499950408935" style="visibility: inherit;" fill="rgb(0, 0, 0)" stroke="rgb(204, 204, 204)" stroke-width="1px"></line><line x1="51.41600036621094" y1="142.3799995422363" x2="46.41600036621094" y2="142.3799995422363" style="visibility: inherit;" fill="rgb(0, 0, 0)" stroke="rgb(204, 204, 204)" stroke-width="1px"></line><line x1="51.41600036621094" y1="130.5149995803833" x2="46.41600036621094" y2="130.5149995803833" style="visibility: inherit;" fill="rgb(0, 0, 0)" stroke="rgb(204, 204, 204)" stroke-width="1px"></line><line x1="51.41600036621094" y1="118.64999961853027" x2="46.41600036621094" y2="118.64999961853027" style="visibility: inherit;" fill="rgb(0, 0, 0)" stroke="rgb(204, 204, 204)" stroke-width="1px"></line><line x1="51.41600036621094" y1="106.78499965667723" x2="46.41600036621094" y2="106.78499965667723" style="visibility: inherit;" fill="rgb(0, 0, 0)" stroke="rgb(204, 204, 204)" stroke-width="1px"></line><line x1="51.41600036621094" y1="94.91999969482423" x2="46.41600036621094" y2="94.91999969482423" style="visibility: inherit;" fill="rgb(0, 0, 0)" stroke="rgb(204, 204, 204)" stroke-width="1px"></line><line x1="51.41600036621094" y1="83.0549997329712" x2="46.41600036621094" y2="83.0549997329712" style="visibility: inherit;" fill="rgb(0, 0, 0)" stroke="rgb(204, 204, 204)" stroke-width="1px"></line><line x1="51.41600036621094" y1="71.18999977111817" x2="46.41600036621094" y2="71.18999977111817" style="visibility: inherit;" fill="rgb(0, 0, 0)" stroke="rgb(204, 204, 204)" stroke-width="1px"></line><line x1="51.41600036621094" y1="59.32499980926514" x2="46.41600036621094" y2="59.32499980926514" style="visibility: inherit;" fill="rgb(0, 0, 0)" stroke="rgb(204, 204, 204)" stroke-width="1px"></line><line x1="51.41600036621094" y1="47.45999984741209" x2="46.41600036621094" y2="47.45999984741209" style="visibility: inherit;" fill="rgb(0, 0, 0)" stroke="rgb(204, 204, 204)" stroke-width="1px"></line><line x1="51.41600036621094" y1="35.594999885559105" x2="46.41600036621094" y2="35.594999885559105" style="visibility: inherit;" fill="rgb(0, 0, 0)" stroke="rgb(204, 204, 204)" stroke-width="1px"></line><line x1="51.41600036621094" y1="23.72999992370606" x2="46.41600036621094" y2="23.72999992370606" style="visibility: inherit;" fill="rgb(0, 0, 0)" stroke="rgb(204, 204, 204)" stroke-width="1px"></line><line x1="51.41600036621094" y1="11.864999961853044" x2="46.41600036621094" y2="11.864999961853044" style="visibility: inherit;" fill="rgb(0, 0, 0)" stroke="rgb(204, 204, 204)" stroke-width="1px"></line><line x1="51.41600036621094" y1="0" x2="46.41600036621094" y2="0" style="visibility: inherit;" fill="rgb(0, 0, 0)" stroke="rgb(204, 204, 204)" stroke-width="1px"></line></g><g transform="translate(41.41600036621094, 0)"><text style="text-anchor: end; visibility: hidden; font-family: &quot;Helvetica Neue&quot;, sans-serif; font-size: 12px; font-weight: 200;" x="0" y="177.9749994277954" dx="0em" dy="0.3em" fill="rgb(50, 49, 63)" stroke="none" stroke-width="1px">-0.4</text><text style="text-anchor: end; visibility: inherit; font-family: &quot;Helvetica Neue&quot;, sans-serif; font-size: 12px; font-weight: 200;" x="0" y="166.1099994659424" dx="0em" dy="0.3em" fill="rgb(50, 49, 63)" stroke="none" stroke-width="1px">-0.2</text><text style="text-anchor: end; visibility: hidden; font-family: &quot;Helvetica Neue&quot;, sans-serif; font-size: 12px; font-weight: 200;" x="0" y="154.24499950408935" dx="0em" dy="0.3em" fill="rgb(50, 49, 63)" stroke="none" stroke-width="1px">0</text><text style="text-anchor: end; visibility: hidden; font-family: &quot;Helvetica Neue&quot;, sans-serif; font-size: 12px; font-weight: 200;" x="0" y="142.3799995422363" dx="0em" dy="0.3em" fill="rgb(50, 49, 63)" stroke="none" stroke-width="1px">0.2</text><text style="text-anchor: end; visibility: inherit; font-family: &quot;Helvetica Neue&quot;, sans-serif; font-size: 12px; font-weight: 200;" x="0" y="130.5149995803833" dx="0em" dy="0.3em" fill="rgb(50, 49, 63)" stroke="none" stroke-width="1px">0.4</text><text style="text-anchor: end; visibility: hidden; font-family: &quot;Helvetica Neue&quot;, sans-serif; font-size: 12px; font-weight: 200;" x="0" y="118.64999961853027" dx="0em" dy="0.3em" fill="rgb(50, 49, 63)" stroke="none" stroke-width="1px">0.6</text><text style="text-anchor: end; visibility: hidden; font-family: &quot;Helvetica Neue&quot;, sans-serif; font-size: 12px; font-weight: 200;" x="0" y="106.78499965667723" dx="0em" dy="0.3em" fill="rgb(50, 49, 63)" stroke="none" stroke-width="1px">0.8</text><text style="text-anchor: end; visibility: inherit; font-family: &quot;Helvetica Neue&quot;, sans-serif; font-size: 12px; font-weight: 200;" x="0" y="94.91999969482423" dx="0em" dy="0.3em" fill="rgb(50, 49, 63)" stroke="none" stroke-width="1px">1</text><text style="text-anchor: end; visibility: hidden; font-family: &quot;Helvetica Neue&quot;, sans-serif; font-size: 12px; font-weight: 200;" x="0" y="83.0549997329712" dx="0em" dy="0.3em" fill="rgb(50, 49, 63)" stroke="none" stroke-width="1px">1.2</text><text style="text-anchor: end; visibility: hidden; font-family: &quot;Helvetica Neue&quot;, sans-serif; font-size: 12px; font-weight: 200;" x="0" y="71.18999977111817" dx="0em" dy="0.3em" fill="rgb(50, 49, 63)" stroke="none" stroke-width="1px">1.4</text><text style="text-anchor: end; visibility: inherit; font-family: &quot;Helvetica Neue&quot;, sans-serif; font-size: 12px; font-weight: 200;" x="0" y="59.32499980926514" dx="0em" dy="0.3em" fill="rgb(50, 49, 63)" stroke="none" stroke-width="1px">1.6</text><text style="text-anchor: end; visibility: hidden; font-family: &quot;Helvetica Neue&quot;, sans-serif; font-size: 12px; font-weight: 200;" x="0" y="47.45999984741209" dx="0em" dy="0.3em" fill="rgb(50, 49, 63)" stroke="none" stroke-width="1px">1.8</text><text style="text-anchor: end; visibility: hidden; font-family: &quot;Helvetica Neue&quot;, sans-serif; font-size: 12px; font-weight: 200;" x="0" y="35.594999885559105" dx="0em" dy="0.3em" fill="rgb(50, 49, 63)" stroke="none" stroke-width="1px">2</text><text style="text-anchor: end; visibility: inherit; font-family: &quot;Helvetica Neue&quot;, sans-serif; font-size: 12px; font-weight: 200;" x="0" y="23.72999992370606" dx="0em" dy="0.3em" fill="rgb(50, 49, 63)" stroke="none" stroke-width="1px">2.2</text><text style="text-anchor: end; visibility: hidden; font-family: &quot;Helvetica Neue&quot;, sans-serif; font-size: 12px; font-weight: 200;" x="0" y="11.864999961853044" dx="0em" dy="0.3em" fill="rgb(50, 49, 63)" stroke="none" stroke-width="1px">2.4</text><text style="text-anchor: end; visibility: hidden; font-family: &quot;Helvetica Neue&quot;, sans-serif; font-size: 12px; font-weight: 200;" x="0" y="0" dx="0em" dy="0.3em" fill="rgb(50, 49, 63)" stroke="none" stroke-width="1px">2.6</text></g><line x1="51.41600036621094" y1="0" x2="51.41600036621094" y2="177.9749994277954" fill="rgb(0, 0, 0)" stroke="rgb(204, 204, 204)" stroke-width="1px"></line></g></g><g transform="translate(51, 0)" clip-path="url(#clip_0)"><clipPath id="clip_0"><rect width="278" height="177"></rect></clipPath><g><g><g><line x1="0" y1="0" x2="0" y2="177.9749994277954" fill="rgb(0, 0, 0)" stroke="rgb(60, 60, 60)" stroke-width="1px" opacity="0.25"></line><line x1="25.325818148526277" y1="0" x2="25.325818148526277" y2="177.9749994277954" fill="rgb(0, 0, 0)" stroke="rgb(60, 60, 60)" stroke-width="1px" opacity="0.25"></line><line x1="50.651636297052555" y1="0" x2="50.651636297052555" y2="177.9749994277954" fill="rgb(0, 0, 0)" stroke="rgb(60, 60, 60)" stroke-width="1px" opacity="0.25"></line><line x1="75.97745444557883" y1="0" x2="75.97745444557883" y2="177.9749994277954" fill="rgb(0, 0, 0)" stroke="rgb(60, 60, 60)" stroke-width="1px" opacity="0.25"></line><line x1="101.30327259410511" y1="0" x2="101.30327259410511" y2="177.9749994277954" fill="rgb(0, 0, 0)" stroke="rgb(60, 60, 60)" stroke-width="1px" opacity="0.25"></line><line x1="126.62909074263139" y1="0" x2="126.62909074263139" y2="177.9749994277954" fill="rgb(0, 0, 0)" stroke="rgb(60, 60, 60)" stroke-width="1px" opacity="0.25"></line><line x1="151.95490889115766" y1="0" x2="151.95490889115766" y2="177.9749994277954" fill="rgb(0, 0, 0)" stroke="rgb(60, 60, 60)" stroke-width="1px" opacity="0.25"></line><line x1="177.28072703968394" y1="0" x2="177.28072703968394" y2="177.9749994277954" fill="rgb(0, 0, 0)" stroke="rgb(60, 60, 60)" stroke-width="1px" opacity="0.25"></line><line x1="202.60654518821022" y1="0" x2="202.60654518821022" y2="177.9749994277954" fill="rgb(0, 0, 0)" stroke="rgb(60, 60, 60)" stroke-width="1px" opacity="0.25"></line><line x1="227.93236333673653" y1="0" x2="227.93236333673653" y2="177.9749994277954" fill="rgb(0, 0, 0)" stroke="rgb(60, 60, 60)" stroke-width="1px" opacity="0.25"></line><line x1="253.25818148526278" y1="0" x2="253.25818148526278" y2="177.9749994277954" fill="rgb(0, 0, 0)" stroke="rgb(60, 60, 60)" stroke-width="1px" opacity="0.25"></line><line x1="278.58399963378906" y1="0" x2="278.58399963378906" y2="177.9749994277954" fill="rgb(0, 0, 0)" stroke="rgb(60, 60, 60)" stroke-width="1px" opacity="0.25"></line></g><g><line x1="0" y1="177.9749994277954" x2="278.58399963378906" y2="177.9749994277954" fill="rgb(0, 0, 0)" stroke="rgb(60, 60, 60)" stroke-width="1px" opacity="0.25"></line><line x1="0" y1="166.1099994659424" x2="278.58399963378906" y2="166.1099994659424" fill="rgb(0, 0, 0)" stroke="rgb(60, 60, 60)" stroke-width="1px" opacity="0.25"></line><line x1="0" y1="154.24499950408935" x2="278.58399963378906" y2="154.24499950408935" fill="rgb(0, 0, 0)" stroke="rgb(60, 60, 60)" stroke-width="1px" opacity="0.25"></line><line x1="0" y1="142.3799995422363" x2="278.58399963378906" y2="142.3799995422363" fill="rgb(0, 0, 0)" stroke="rgb(60, 60, 60)" stroke-width="1px" opacity="0.25"></line><line x1="0" y1="130.5149995803833" x2="278.58399963378906" y2="130.5149995803833" fill="rgb(0, 0, 0)" stroke="rgb(60, 60, 60)" stroke-width="1px" opacity="0.25"></line><line x1="0" y1="118.64999961853027" x2="278.58399963378906" y2="118.64999961853027" fill="rgb(0, 0, 0)" stroke="rgb(60, 60, 60)" stroke-width="1px" opacity="0.25"></line><line x1="0" y1="106.78499965667723" x2="278.58399963378906" y2="106.78499965667723" fill="rgb(0, 0, 0)" stroke="rgb(60, 60, 60)" stroke-width="1px" opacity="0.25"></line><line x1="0" y1="94.91999969482423" x2="278.58399963378906" y2="94.91999969482423" fill="rgb(0, 0, 0)" stroke="rgb(60, 60, 60)" stroke-width="1px" opacity="0.25"></line><line x1="0" y1="83.0549997329712" x2="278.58399963378906" y2="83.0549997329712" fill="rgb(0, 0, 0)" stroke="rgb(60, 60, 60)" stroke-width="1px" opacity="0.25"></line><line x1="0" y1="71.18999977111817" x2="278.58399963378906" y2="71.18999977111817" fill="rgb(0, 0, 0)" stroke="rgb(60, 60, 60)" stroke-width="1px" opacity="0.25"></line><line x1="0" y1="59.32499980926514" x2="278.58399963378906" y2="59.32499980926514" fill="rgb(0, 0, 0)" stroke="rgb(60, 60, 60)" stroke-width="1px" opacity="0.25"></line><line x1="0" y1="47.45999984741209" x2="278.58399963378906" y2="47.45999984741209" fill="rgb(0, 0, 0)" stroke="rgb(60, 60, 60)" stroke-width="1px" opacity="0.25"></line><line x1="0" y1="35.594999885559105" x2="278.58399963378906" y2="35.594999885559105" fill="rgb(0, 0, 0)" stroke="rgb(60, 60, 60)" stroke-width="1px" opacity="0.25"></line><line x1="0" y1="23.72999992370606" x2="278.58399963378906" y2="23.72999992370606" fill="rgb(0, 0, 0)" stroke="rgb(60, 60, 60)" stroke-width="1px" opacity="0.25"></line><line x1="0" y1="11.864999961853044" x2="278.58399963378906" y2="11.864999961853044" fill="rgb(0, 0, 0)" stroke="rgb(60, 60, 60)" stroke-width="1px" opacity="0.25"></line><line x1="0" y1="0" x2="278.58399963378906" y2="0" fill="rgb(0, 0, 0)" stroke="rgb(60, 60, 60)" stroke-width="1px" opacity="0.25"></line></g></g></g><g><g><line x1="0" y1="154.24499950408935" x2="278.58399963378906" y2="154.24499950408935" fill="rgb(0, 0, 0)" stroke="rgb(153, 153, 153)" stroke-width="1.5px"></line></g></g><g><g><line x1="25.325818148526277" y1="0" x2="25.325818148526277" y2="177.9749994277954" fill="rgb(0, 0, 0)" stroke="rgb(153, 153, 153)" stroke-width="1.5px"></line></g></g><g><g><g><g><g><path style="fill: none;" stroke="rgb(238, 51, 119)" stroke-width="2px" d="M31.657272685657848,-4.4735587083515895L32.92356359308416,6.1944502345246235L34.18985450051048,15.128509742257961L35.45614540793679,22.532211172855426L36.7224363153631,30.3088522544584L37.988727222789414,34.978851022317116L39.25501813021573,42.67784761595428L40.52130903764204,50.22180275684762L41.78759994506836,55.76291341555951L43.053890852494675,58.54868081282824L44.320181759920985,63.28075839618599L45.5864726673473,64.5725819132891L46.85276357477362,65.1845087381564L48.11905448219993,72.7723391321092L49.385345389626245,70.38587614139168L50.651636297052555,78.00560166611464L51.91792720447887,76.87770922024275L53.18421811190519,81.06840408725483L54.4505090193315,82.10652340895898L55.716799926757815,85.71666324713406L56.98309083418413,84.74287166589235L58.249381741610435,88.63333505029105L59.51567264903675,90.85391507263931L60.78196355646307,90.46785669268068L62.04825446388938,95.32759966421212L63.314545371315695,97.68529692446229L64.58083627874201,99.40021536250929L65.84712718616832,97.1298124585034L67.11341809359463,100.51415103663508L68.37970900102096,96.53247182148833L69.64599990844727,104.59151564409238L70.91229081587358,100.56805805089134L72.1785817232999,102.55889412241918L73.4448726307262,103.94746030944928L74.71116353815252,106.77174231473894L75.97745444557883,107.59257517405983L77.24374535300515,108.10063066119163L78.51003626043146,103.588884075427L79.77632716785779,108.5744572274969L81.04261807528408,114.63739627071861L82.3089089827104,115.07284613477898L83.57519989013672,116.99016428348612L84.84149079756304,117.66524134565103L86.10778170498935,116.9943686416331L87.37407261241566,110.79120064043433L88.64036351984197,114.1939407995558L89.9066544272683,113.54387772354038L91.1729453346946,117.97898052222699L92.43923624212093,115.7198788197667L93.70552714954724,121.28610247390318L94.97181805697353,120.6607598922574L96.23810896439986,125.73946364373523L97.50439987182617,120.14531053390161L98.77069077925249,122.38435578605939L100.0369816866788,121.92193650266594L101.30327259410511,124.66177597243927L102.56956350153142,123.7812281440628L103.83585440895774,122.94611319680612L105.10214531638405,123.89391484332933L106.36843622381038,126.64830514049947L107.63472713123669,118.7776070155571L108.901018038663,125.35942714933111L110.1673089460893,118.94580255770947L111.43359985351563,127.59944835005791L112.69989076094194,126.90804359761236L113.96618166836826,125.6889759855161L115.23247257579456,126.99685314937051L116.49876348322087,123.01684117969583L117.7650543906472,126.62877379295966L119.0313452980735,125.26805396455651L120.29763620549983,129.10787233670953L121.56392711292614,130.2109187585951L122.83021802035245,129.46226012478976L124.09650892777876,130.8644047266932L125.36279983520508,132.48756278297898L126.62909074263139,130.1411508120695L127.89538165005771,131.32254009091503L129.16167255748402,130.47627422404818L130.42796346491033,135.33600835546576L131.69425437233664,132.97407314463598L132.96054527976295,133.95875044207236L134.22683618718926,128.5994720851376L135.4931270946156,130.95799501202134L136.7594180020419,127.35107474331036L138.02570890946822,116.63020191961219L139.29199981689453,133.54051404770036L140.55829072432084,133.73608035035457L141.82458163174715,136.4053209029004L143.0908725391735,136.44571668714858L144.3571634465998,134.3145862408012L145.6234543540261,137.3728377713315L146.8897452614524,131.24810810032224L148.15603616887873,135.76354808565333L149.42232707630504,136.91106735229462L150.68861798373135,136.21140062944502L151.95490889115766,137.21441409102871L153.221199798584,133.20417954012424L154.4874907060103,132.05843890438953L155.75378161343662,136.225788798747L157.02007252086293,139.8579679247611L158.28636342828926,133.52275249095328L159.55265433571557,138.83128682636726L160.81894524314185,134.70467394465257L162.08523615056816,140.6271736351876L163.35152705799447,137.21391550860758L164.6178179654208,137.3545882402999L165.88410887284712,137.97355179579165L167.15039978027343,138.3964469301625L168.41669068769974,140.74777046832696L169.68298159512608,139.26337921518748L170.9492725025524,139.31017524186294L172.2155634099787,139.9717976507484L173.481854317405,139.03579755621473L174.74814522483132,139.30518941765163L176.01443613225763,137.98716380309762L177.28072703968394,140.85321623033911L178.54701794711025,139.38801598035622L179.8133088545366,141.36795661156415L181.0795997619629,142.12799247189423L182.3458906693892,141.83713858205272L183.61218157681552,141.85987712289725L184.87847248424185,139.09926073354265L186.14476339166816,141.5102753724553L187.41105429909447,142.72801254741717L188.67734520652076,141.56961640469504L189.94363611394706,143.43687740872753L191.2099270213734,140.99355657375068L192.4762179287997,143.68470116039362L193.74250883622602,144.22259291577996L195.00879974365233,143.49640585138087L196.27509065107867,145.69017557644537L197.54138155850498,144.2963212333103L198.8076724659313,146.16468813558538L200.0739633733576,146.64207107969244L201.34025428078394,146.60410544274157L202.60654518821022,145.98597727800865L203.87283609563653,146.03732065924845L205.13912700306284,147.47654379267792L206.40541791048918,148.22445941491418L207.6717088179155,146.34900274133153L208.9379997253418,148.49572007641893L210.2042906327681,148.04773183687965L211.47058154019442,146.50637179605204L212.73687244762075,148.56724411156083L214.00316335504706,147.93544868881037L215.26945426247337,149.88911340761675L216.53574516989966,149.6889975403697L217.802036077326,149.8199770872257L219.0683269847523,150.89582247879537L220.3346178921786,150.46883392970634L221.60090879960492,151.17218830604838L222.86719970703126,151.22835352738758L224.13349061445757,151.47655740394922L225.39978152188388,151.29475736858765L226.6660724293102,151.7762841160618L227.93236333673653,152.13722066048197L229.19865424416284,152.4106072588662L230.46494515158912,152.38398492450318L231.73123605901543,152.7333147309428L232.99752696644174,152.99629032724607L234.26381787386808,153.0282142988877L235.5301087812944,153.18847396033564L236.7963996887207,153.17824992666263L238.062690596147,153.37024449181723L239.32898150357335,153.5185324843348L240.59527241099966,153.58957186023486L241.86156331842597,153.55195783881237L243.12785422585227,153.66215394650314L244.39414513327858,153.7262485842135L245.6604360407049,153.70838155385803L246.9267269481312,153.7809806020948L248.1930178555575,153.8060622703659L249.45930876298385,153.82790099812195L250.72559967041016,153.86443240947676L251.99189057783647,153.85753850194166L253.25818148526278,153.90035537237048L254.52447239268912,153.9034973974609L255.79076330011543,153.9156070826688L257.05705420754174,153.90127386019947L258.32334511496805,153.9450567340692L259.58963602239436,153.93488209453233L260.85592692982067,153.9483917498951L262.122217837247,153.94349601196902L263.3885087446733,153.95544580161766L264.6547996520996,153.95745446886184L265.9210905595259,153.9719083036345L267.1873814669522,153.96240548512486L268.4536723743785,153.96940251811304L269.71996328180484,153.96247515627212L270.9862541892312,153.98101743319893L272.2525450966575,153.99078846628785L273.5188360040838,153.98093386649768L274.78512691151013,153.9968966534538L276.05141781893644,153.9869825486473L277.31770872636275,153.99499967552305" fill="none"></path></g><g><path style="fill: none;" stroke="rgb(204, 51, 17)" stroke-width="2px" d="M31.657272685657848,-6.062997034368578L32.92356359308416,4.458647911518796L34.18985450051048,13.35484344361052L35.45614540793679,17.247873997071196L36.7224363153631,24.27896109285291L37.988727222789414,27.795374507946548L39.25501813021573,32.99446469785411L40.52130903764204,41.807853115491724L41.78759994506836,42.90126204525822L43.053890852494675,46.40720876555369L44.320181759920985,50.41675201955512L45.5864726673473,50.66593714875408L46.85276357477362,47.975296448600574L48.11905448219993,54.61710736298231L49.385345389626245,54.647764877813515L50.651636297052555,58.964074226586135L51.91792720447887,57.05235363796872L53.18421811190519,63.28627462722828L54.4505090193315,63.93484195598032L55.716799926757815,63.47011363484931L56.98309083418413,64.45833228189392L58.249381741610435,64.69314692201861L59.51567264903675,64.0365244815266L60.78196355646307,65.38462062735219L62.04825446388938,69.63960787437132L63.314545371315695,71.7754713176739L64.58083627874201,71.10566649940901L65.84712718616832,67.52290272580409L67.11341809359463,69.04003599262056L68.37970900102096,65.35062508553128L69.64599990844727,71.76025217767003L70.91229081587358,66.07214810586319L72.1785817232999,66.02192211501402L73.4448726307262,68.307918979851L74.71116353815252,66.96600384162922L75.97745444557883,69.22989334975054L77.24374535300515,67.32987707187031L78.51003626043146,63.73436231804838L79.77632716785779,69.53424078937243L81.04261807528408,71.24897535305136L82.3089089827104,71.8241485205766L83.57519989013672,76.06193644208949L84.84149079756304,73.97314483701449L86.10778170498935,73.74950410079599L87.37407261241566,65.81364196062098L88.64036351984197,62.69111573031135L89.9066544272683,62.60098900158958L91.1729453346946,67.45857498534166L92.43923624212093,65.56092785797317L93.70552714954724,71.51589021458754L94.97181805697353,68.71683435817975L96.23810896439986,72.90476403757961L97.50439987182617,69.53927611822131L98.77069077925249,70.30407326387089L100.0369816866788,68.65079517167598L101.30327259410511,73.48237000443633L102.56956350153142,69.63072532797501L103.83585440895774,66.41230861471351L105.10214531638405,66.6008010582651L106.36843622381038,70.09945645265724L107.63472713123669,63.310553115905435L108.901018038663,65.93482931336551L110.1673089460893,59.7202717094826L111.43359985351563,68.77594289542525L112.69989076094194,71.3143568350847L113.96618166836826,69.39496302764563L115.23247257579456,65.55865771673653L116.49876348322087,66.02646946957836L117.7650543906472,64.19654468639064L119.0313452980735,64.66826730559964L120.29763620549983,69.11767340849529L121.56392711292614,69.4154084429575L122.83021802035245,70.64235966858506L124.09650892777876,69.9776043233512L125.36279983520508,72.9561852118213L126.62909074263139,65.57221491533663L127.89538165005771,69.75373020812707L129.16167255748402,65.86368407710209L130.42796346491033,72.79852708537793L131.69425437233664,69.54032278770113L132.96054527976295,69.36882457901446L134.22683618718926,63.82504774196545L135.4931270946156,68.63938081667308L136.7594180020419,60.768306102880715L138.02570890946822,50.64376614321871L139.29199981689453,70.32045929890295L140.55829072432084,69.33212749840105L141.82458163174715,71.4886838802033L143.0908725391735,69.2274888387834L144.3571634465998,66.22638334022393L145.6234543540261,71.04845328257294L146.8897452614524,60.34711357443733L148.15603616887873,67.73187594512294L149.42232707630504,70.84655215433392L150.68861798373135,69.48321565223122L151.95490889115766,70.82670786676384L153.221199798584,66.2561073390326L154.4874907060103,63.21805016458083L155.75378161343662,70.12997959775792L157.02007252086293,73.03481979253829L158.28636342828926,63.49074999662035L159.55265433571557,70.88916857518119L160.81894524314185,64.60925777762928L162.08523615056816,75.01837161025387L163.35152705799447,69.51950255156201L164.6178179654208,68.47343419948412L165.88410887284712,68.70208904827824L167.15039978027343,70.58524546102409L168.41669068769974,69.40575503863349L169.68298159512608,70.32990761258564L170.9492725025524,68.87496631472547L172.2155634099787,68.92104098811079L173.481854317405,65.43144494239196L174.74814522483132,65.33571711753494L176.01443613225763,67.6801931035113L177.28072703968394,72.73277078251736L178.54701794711025,66.84529031898703L179.8133088545366,69.11507795106898L181.0795997619629,71.46497823090361L182.3458906693892,68.67542019281608L183.61218157681552,70.70402830280146L184.87847248424185,66.74193170785485L186.14476339166816,66.00168886243452L187.41105429909447,72.38027654682375L188.67734520652076,67.76828307000207L189.94363611394706,73.17946527139473L191.2099270213734,70.46352770144857L192.4762179287997,74.27724475344857L193.74250883622602,71.39164771849651L195.00879974365233,69.79376531573017L196.27509065107867,72.83732457704205L197.54138155850498,70.28130820268481L198.8076724659313,74.32681303982734L200.0739633733576,75.19085991169172L201.34025428078394,72.60031051659152L202.60654518821022,70.52879603002461L203.87283609563653,70.7558101536882L205.13912700306284,74.692065327829L206.40541791048918,75.42428134987367L207.6717088179155,71.07460587538625L208.9379997253418,76.4133062153014L210.2042906327681,73.75743191489651L211.47058154019442,71.26058772660448L212.73687244762075,72.44664104951718L214.00316335504706,73.92891597940101L215.26945426247337,77.22457407143678L216.53574516989966,75.24841258889965L217.802036077326,76.75885565755458L219.0683269847523,79.37410079470565L220.3346178921786,77.45963623474925L221.60090879960492,79.73467135841246L222.86719970703126,79.50696416982304L224.13349061445757,80.8647915129745L225.39978152188388,79.6935330046009L226.6660724293102,79.8639633275345L227.93236333673653,80.10090666707423L229.19865424416284,82.50215032814866L230.46494515158912,80.68595954583802L231.73123605901543,83.57715060483427L232.99752696644174,85.17147574578745L234.26381787386808,83.57814069758544L235.5301087812944,84.47255512854676L236.7963996887207,85.15674458006809L238.062690596147,85.09372517645542L239.32898150357335,86.38818658353135L240.59527241099966,86.26902892092674L241.86156331842597,85.82147163693763L243.12785422585227,87.53477056612734L244.39414513327858,88.25613092836441L245.6604360407049,88.73949420949087L246.9267269481312,89.69508930038408L248.1930178555575,89.43214895403479L249.45930876298385,89.64935408737061L250.72559967041016,89.40737541898203L251.99189057783647,89.57473645438698L253.25818148526278,90.93647466390563L254.52447239268912,90.38734093573645L255.79076330011543,90.99836960503659L257.05705420754174,91.02203989388089L258.32334511496805,91.49783603755189L259.58963602239436,91.57916508497031L260.85592692982067,91.74062799641466L262.122217837247,91.84949576649807L263.3885087446733,91.455163039976L264.6547996520996,91.81853415175043L265.9210905595259,91.85986345202114L267.1873814669522,91.85295401903612L268.4536723743785,92.29887764998578L269.71996328180484,92.29189749608996L270.9862541892312,91.83221157589888L272.2525450966575,92.353799509312L273.5188360040838,92.28195413603167L274.78512691151013,91.86955928889164L276.05141781893644,91.97185001427077L277.31770872636275,92.19235781414089" fill="none"></path></g></g></g></g></g></g><g transform="translate(51, 177)" clip-path="url(#clip_1)"><clipPath id="clip_1"><rect width="278" height="22"></rect></clipPath><g><g><line x1="0" y1="0" x2="0" y2="5" style="visibility: inherit;" fill="rgb(0, 0, 0)" stroke="rgb(204, 204, 204)" stroke-width="1px"></line><line x1="25.325818148526277" y1="0" x2="25.325818148526277" y2="5" style="visibility: inherit;" fill="rgb(0, 0, 0)" stroke="rgb(204, 204, 204)" stroke-width="1px"></line><line x1="50.651636297052555" y1="0" x2="50.651636297052555" y2="5" style="visibility: inherit;" fill="rgb(0, 0, 0)" stroke="rgb(204, 204, 204)" stroke-width="1px"></line><line x1="75.97745444557883" y1="0" x2="75.97745444557883" y2="5" style="visibility: inherit;" fill="rgb(0, 0, 0)" stroke="rgb(204, 204, 204)" stroke-width="1px"></line><line x1="101.30327259410511" y1="0" x2="101.30327259410511" y2="5" style="visibility: inherit;" fill="rgb(0, 0, 0)" stroke="rgb(204, 204, 204)" stroke-width="1px"></line><line x1="126.62909074263139" y1="0" x2="126.62909074263139" y2="5" style="visibility: inherit;" fill="rgb(0, 0, 0)" stroke="rgb(204, 204, 204)" stroke-width="1px"></line><line x1="151.95490889115766" y1="0" x2="151.95490889115766" y2="5" style="visibility: inherit;" fill="rgb(0, 0, 0)" stroke="rgb(204, 204, 204)" stroke-width="1px"></line><line x1="177.28072703968394" y1="0" x2="177.28072703968394" y2="5" style="visibility: inherit;" fill="rgb(0, 0, 0)" stroke="rgb(204, 204, 204)" stroke-width="1px"></line><line x1="202.60654518821022" y1="0" x2="202.60654518821022" y2="5" style="visibility: inherit;" fill="rgb(0, 0, 0)" stroke="rgb(204, 204, 204)" stroke-width="1px"></line><line x1="227.93236333673653" y1="0" x2="227.93236333673653" y2="5" style="visibility: inherit;" fill="rgb(0, 0, 0)" stroke="rgb(204, 204, 204)" stroke-width="1px"></line><line x1="253.25818148526278" y1="0" x2="253.25818148526278" y2="5" style="visibility: inherit;" fill="rgb(0, 0, 0)" stroke="rgb(204, 204, 204)" stroke-width="1px"></line><line x1="278.58399963378906" y1="0" x2="278.58399963378906" y2="5" style="visibility: inherit;" fill="rgb(0, 0, 0)" stroke="rgb(204, 204, 204)" stroke-width="1px"></line></g><g transform="translate(0, 8)"><text style="text-anchor: middle; visibility: hidden; font-family: &quot;Helvetica Neue&quot;, sans-serif; font-size: 12px; font-weight: 200;" x="0" y="0" dx="0em" dy="0.95em" fill="rgb(50, 49, 63)" stroke="none" stroke-width="1px">-20</text><text style="text-anchor: middle; visibility: inherit; font-family: &quot;Helvetica Neue&quot;, sans-serif; font-size: 12px; font-weight: 200;" x="25.325818148526277" y="0" dx="0em" dy="0.95em" fill="rgb(50, 49, 63)" stroke="none" stroke-width="1px">0</text><text style="text-anchor: middle; visibility: hidden; font-family: &quot;Helvetica Neue&quot;, sans-serif; font-size: 12px; font-weight: 200;" x="50.651636297052555" y="0" dx="0em" dy="0.95em" fill="rgb(50, 49, 63)" stroke="none" stroke-width="1px">20</text><text style="text-anchor: middle; visibility: inherit; font-family: &quot;Helvetica Neue&quot;, sans-serif; font-size: 12px; font-weight: 200;" x="75.97745444557883" y="0" dx="0em" dy="0.95em" fill="rgb(50, 49, 63)" stroke="none" stroke-width="1px">40</text><text style="text-anchor: middle; visibility: hidden; font-family: &quot;Helvetica Neue&quot;, sans-serif; font-size: 12px; font-weight: 200;" x="101.30327259410511" y="0" dx="0em" dy="0.95em" fill="rgb(50, 49, 63)" stroke="none" stroke-width="1px">60</text><text style="text-anchor: middle; visibility: inherit; font-family: &quot;Helvetica Neue&quot;, sans-serif; font-size: 12px; font-weight: 200;" x="126.62909074263139" y="0" dx="0em" dy="0.95em" fill="rgb(50, 49, 63)" stroke="none" stroke-width="1px">80</text><text style="text-anchor: middle; visibility: hidden; font-family: &quot;Helvetica Neue&quot;, sans-serif; font-size: 12px; font-weight: 200;" x="151.95490889115766" y="0" dx="0em" dy="0.95em" fill="rgb(50, 49, 63)" stroke="none" stroke-width="1px">100</text><text style="text-anchor: middle; visibility: inherit; font-family: &quot;Helvetica Neue&quot;, sans-serif; font-size: 12px; font-weight: 200;" x="177.28072703968394" y="0" dx="0em" dy="0.95em" fill="rgb(50, 49, 63)" stroke="none" stroke-width="1px">120</text><text style="text-anchor: middle; visibility: hidden; font-family: &quot;Helvetica Neue&quot;, sans-serif; font-size: 12px; font-weight: 200;" x="202.60654518821022" y="0" dx="0em" dy="0.95em" fill="rgb(50, 49, 63)" stroke="none" stroke-width="1px">140</text><text style="text-anchor: middle; visibility: inherit; font-family: &quot;Helvetica Neue&quot;, sans-serif; font-size: 12px; font-weight: 200;" x="227.93236333673653" y="0" dx="0em" dy="0.95em" fill="rgb(50, 49, 63)" stroke="none" stroke-width="1px">160</text><text style="text-anchor: middle; visibility: hidden; font-family: &quot;Helvetica Neue&quot;, sans-serif; font-size: 12px; font-weight: 200;" x="253.25818148526278" y="0" dx="0em" dy="0.95em" fill="rgb(50, 49, 63)" stroke="none" stroke-width="1px">180</text><text style="text-anchor: middle; visibility: hidden; font-family: &quot;Helvetica Neue&quot;, sans-serif; font-size: 12px; font-weight: 200;" x="278.58399963378906" y="0" dx="0em" dy="0.95em" fill="rgb(50, 49, 63)" stroke="none" stroke-width="1px">200</text></g><line x1="0" y1="0" x2="278.58399963378906" y2="0" fill="rgb(0, 0, 0)" stroke="rgb(204, 204, 204)" stroke-width="1px"></line></g></g></g></g></svg>