<svg viewBox="0 0 330 200" xmlns="http://www.w3.org/2000/svg"><g><g><g><g><g><line x1="51.41600036621094" y1="177.9749994277954" x2="46.41600036621094" y2="177.9749994277954" style="visibility: inherit;" fill="rgb(0, 0, 0)" stroke="rgb(204, 204, 204)" stroke-width="1px"></line><line x1="51.41600036621094" y1="152.54999950953894" x2="46.41600036621094" y2="152.54999950953894" style="visibility: inherit;" fill="rgb(0, 0, 0)" stroke="rgb(204, 204, 204)" stroke-width="1px"></line><line x1="51.41600036621094" y1="127.12499959128243" x2="46.41600036621094" y2="127.12499959128243" style="visibility: inherit;" fill="rgb(0, 0, 0)" stroke="rgb(204, 204, 204)" stroke-width="1px"></line><line x1="51.41600036621094" y1="101.69999967302596" x2="46.41600036621094" y2="101.69999967302596" style="visibility: inherit;" fill="rgb(0, 0, 0)" stroke="rgb(204, 204, 204)" stroke-width="1px"></line><line x1="51.41600036621094" y1="76.27499975476947" x2="46.41600036621094" y2="76.27499975476947" style="visibility: inherit;" fill="rgb(0, 0, 0)" stroke="rgb(204, 204, 204)" stroke-width="1px"></line><line x1="51.41600036621094" y1="50.84999983651298" x2="46.41600036621094" y2="50.84999983651298" style="visibility: inherit;" fill="rgb(0, 0, 0)" stroke="rgb(204, 204, 204)" stroke-width="1px"></line><line x1="51.41600036621094" y1="25.424999918256503" x2="46.41600036621094" y2="25.424999918256503" style="visibility: inherit;" fill="rgb(0, 0, 0)" stroke="rgb(204, 204, 204)" stroke-width="1px"></line><line x1="51.41600036621094" y1="0" x2="46.41600036621094" y2="0" style="visibility: inherit;" fill="rgb(0, 0, 0)" stroke="rgb(204, 204, 204)" stroke-width="1px"></line></g><g transform="translate(41.41600036621094, 0)"><text style="text-anchor: end; visibility: hidden; font-family: &quot;Helvetica Neue&quot;, sans-serif; font-size: 12px; font-weight: 200;" x="0" y="177.9749994277954" dx="0em" dy="0.3em" fill="rgb(50, 49, 63)" stroke="none" stroke-width="1px">-0.5</text><text style="text-anchor: end; visibility: inherit; font-family: &quot;Helvetica Neue&quot;, sans-serif; font-size: 12px; font-weight: 200;" x="0" y="152.54999950953894" dx="0em" dy="0.3em" fill="rgb(50, 49, 63)" stroke="none" stroke-width="1px">0</text><text style="text-anchor: end; visibility: inherit; font-family: &quot;Helvetica Neue&quot;, sans-serif; font-size: 12px; font-weight: 200;" x="0" y="127.12499959128243" dx="0em" dy="0.3em" fill="rgb(50, 49, 63)" stroke="none" stroke-width="1px">0.5</text><text style="text-anchor: end; visibility: inherit; font-family: &quot;Helvetica Neue&quot;, sans-serif; font-size: 12px; font-weight: 200;" x="0" y="101.69999967302596" dx="0em" dy="0.3em" fill="rgb(50, 49, 63)" stroke="none" stroke-width="1px">1</text><text style="text-anchor: end; visibility: inherit; font-family: &quot;Helvetica Neue&quot;, sans-serif; font-size: 12px; font-weight: 200;" x="0" y="76.27499975476947" dx="0em" dy="0.3em" fill="rgb(50, 49, 63)" stroke="none" stroke-width="1px">1.5</text><text style="text-anchor: end; visibility: inherit; font-family: &quot;Helvetica Neue&quot;, sans-serif; font-size: 12px; font-weight: 200;" x="0" y="50.84999983651298" dx="0em" dy="0.3em" fill="rgb(50, 49, 63)" stroke="none" stroke-width="1px">2</text><text style="text-anchor: end; visibility: inherit; font-family: &quot;Helvetica Neue&quot;, sans-serif; font-size: 12px; font-weight: 200;" x="0" y="25.424999918256503" dx="0em" dy="0.3em" fill="rgb(50, 49, 63)" stroke="none" stroke-width="1px">2.5</text><text style="text-anchor: end; visibility: hidden; font-family: &quot;Helvetica Neue&quot;, sans-serif; font-size: 12px; font-weight: 200;" x="0" y="0" dx="0em" dy="0.3em" fill="rgb(50, 49, 63)" stroke="none" stroke-width="1px">3</text></g><line x1="51.41600036621094" y1="0" x2="51.41600036621094" y2="177.9749994277954" fill="rgb(0, 0, 0)" stroke="rgb(204, 204, 204)" stroke-width="1px"></line></g></g><g transform="translate(51, 0)" clip-path="url(#clip_0)"><clipPath id="clip_0"><rect width="278" height="177"></rect></clipPath><g><g><g><line x1="0" y1="0" x2="0" y2="177.9749994277954" fill="rgb(0, 0, 0)" stroke="rgb(60, 60, 60)" stroke-width="1px" opacity="0.25"></line><line x1="27.858399963378908" y1="0" x2="27.858399963378908" y2="177.9749994277954" fill="rgb(0, 0, 0)" stroke="rgb(60, 60, 60)" stroke-width="1px" opacity="0.25"></line><line x1="55.716799926757815" y1="0" x2="55.716799926757815" y2="177.9749994277954" fill="rgb(0, 0, 0)" stroke="rgb(60, 60, 60)" stroke-width="1px" opacity="0.25"></line><line x1="83.57519989013672" y1="0" x2="83.57519989013672" y2="177.9749994277954" fill="rgb(0, 0, 0)" stroke="rgb(60, 60, 60)" stroke-width="1px" opacity="0.25"></line><line x1="111.43359985351563" y1="0" x2="111.43359985351563" y2="177.9749994277954" fill="rgb(0, 0, 0)" stroke="rgb(60, 60, 60)" stroke-width="1px" opacity="0.25"></line><line x1="139.29199981689453" y1="0" x2="139.29199981689453" y2="177.9749994277954" fill="rgb(0, 0, 0)" stroke="rgb(60, 60, 60)" stroke-width="1px" opacity="0.25"></line><line x1="167.15039978027343" y1="0" x2="167.15039978027343" y2="177.9749994277954" fill="rgb(0, 0, 0)" stroke="rgb(60, 60, 60)" stroke-width="1px" opacity="0.25"></line><line x1="195.00879974365233" y1="0" x2="195.00879974365233" y2="177.9749994277954" fill="rgb(0, 0, 0)" stroke="rgb(60, 60, 60)" stroke-width="1px" opacity="0.25"></line><line x1="222.86719970703126" y1="0" x2="222.86719970703126" y2="177.9749994277954" fill="rgb(0, 0, 0)" stroke="rgb(60, 60, 60)" stroke-width="1px" opacity="0.25"></line><line x1="250.72559967041016" y1="0" x2="250.72559967041016" y2="177.9749994277954" fill="rgb(0, 0, 0)" stroke="rgb(60, 60, 60)" stroke-width="1px" opacity="0.25"></line><line x1="278.58399963378906" y1="0" x2="278.58399963378906" y2="177.9749994277954" fill="rgb(0, 0, 0)" stroke="rgb(60, 60, 60)" stroke-width="1px" opacity="0.25"></line></g><g><line x1="0" y1="177.9749994277954" x2="278.58399963378906" y2="177.9749994277954" fill="rgb(0, 0, 0)" stroke="rgb(60, 60, 60)" stroke-width="1px" opacity="0.25"></line><line x1="0" y1="152.54999950953894" x2="278.58399963378906" y2="152.54999950953894" fill="rgb(0, 0, 0)" stroke="rgb(60, 60, 60)" stroke-width="1px" opacity="0.25"></line><line x1="0" y1="127.12499959128243" x2="278.58399963378906" y2="127.12499959128243" fill="rgb(0, 0, 0)" stroke="rgb(60, 60, 60)" stroke-width="1px" opacity="0.25"></line><line x1="0" y1="101.69999967302596" x2="278.58399963378906" y2="101.69999967302596" fill="rgb(0, 0, 0)" stroke="rgb(60, 60, 60)" stroke-width="1px" opacity="0.25"></line><line x1="0" y1="76.27499975476947" x2="278.58399963378906" y2="76.27499975476947" fill="rgb(0, 0, 0)" stroke="rgb(60, 60, 60)" stroke-width="1px" opacity="0.25"></line><line x1="0" y1="50.84999983651298" x2="278.58399963378906" y2="50.84999983651298" fill="rgb(0, 0, 0)" stroke="rgb(60, 60, 60)" stroke-width="1px" opacity="0.25"></line><line x1="0" y1="25.424999918256503" x2="278.58399963378906" y2="25.424999918256503" fill="rgb(0, 0, 0)" stroke="rgb(60, 60, 60)" stroke-width="1px" opacity="0.25"></line><line x1="0" y1="0" x2="278.58399963378906" y2="0" fill="rgb(0, 0, 0)" stroke="rgb(60, 60, 60)" stroke-width="1px" opacity="0.25"></line></g></g></g><g><g><line x1="0" y1="152.54999950953894" x2="278.58399963378906" y2="152.54999950953894" fill="rgb(0, 0, 0)" stroke="rgb(153, 153, 153)" stroke-width="1.5px"></line></g></g><g><g><line x1="27.858399963378908" y1="0" x2="27.858399963378908" y2="177.9749994277954" fill="rgb(0, 0, 0)" stroke="rgb(153, 153, 153)" stroke-width="1.5px"></line></g></g><g><g><g><g><g><path style="fill: none;" stroke="rgb(0, 153, 136)" stroke-width="2px" d="M30.162289640350345,-10.039673856404931L31.025900039215088,5.339699525354831L31.095546039123533,-7.353148102961171L31.627641478424074,-0.7812680457745955L32.1151634777832,2.981625928829345L32.143021877746584,-4.147599564568878L32.24331211761474,21.140985778549407L32.64725891708374,3.395549357941377L32.92584291671753,26.130010616215657L33.666876355743405,13.42836126540135L33.680805555725094,25.42390879563274L33.95938955535888,14.327191712092713L34.2101151550293,39.19938041481848L34.3939805947876,30.102557741180846L35.25759099365234,32.67026024089819L35.62253603317261,34.03639426017233L35.84540323287964,30.95188759150804L35.942907632751464,43.27925763520659L35.95683683273315,34.07892379532916L36.416500432128906,26.739378354410746L36.600365871887206,42.67683671104936L36.711799471740726,35.42664208943137L36.78144547164917,54.78428492813866L36.80930387161255,52.17439841542867L36.97645427139282,35.480713277230535L37.115746271209716,43.74515487196322L37.703558510437006,69.85309450221735L37.814992110290525,58.82626988452087L37.926425710144045,49.315226753945865L38.28858490966797,50.008295720967325L38.41394770950318,41.327530227350394L38.469664509429926,56.16920444191838L38.49752290939331,65.69514745809991L38.692531709136965,73.13543382615227L38.72039010910034,46.08626757348176L38.80675114898682,60.851157064299514L38.91818474884033,57.44570879944379L39.001759948730474,55.11847154062396L39.391777548217775,40.0833715938268L40.39746578689575,74.23689180586636L40.857129386291504,53.18777249044436L40.89891698623657,47.49770742881094L41.12457002593994,40.058493998005304L41.24993282577515,73.07520385732126L41.263862025756836,62.32019000878566L41.34743722564697,57.86000805968176L41.431012425537105,65.29548742639726L41.68173802520752,53.367910773833174L41.72352562515258,64.50105316762941L41.84888842498779,63.68171706587064L42.52027586410522,85.08500266137727L42.56206346405029,72.18584799207949L42.64563866394043,56.52012766309352L42.729213863830566,56.82516311614761L42.9381518635559,63.965063425881524L43.02172706344605,53.43988243445422L43.091373063354496,52.60547065511062L43.80454810241699,76.81965179779147L43.87419410232544,80.6213654906315L43.888123302307136,49.25225685497077L44.13884890197754,69.957151229769L44.30878514175415,83.42638716101452L44.489864741516115,75.52681090987156L45.019174340820314,59.203974104316714L45.255970740509035,67.4447140909446L45.52341138015747,79.20005703734971L46.0109333795166,85.3247223018152L46.052720979461675,81.07923691431122L46.24772977920532,85.2395601810315L46.30344657913208,87.69261600195445L46.96090481826782,56.541453048595486L47.058409218139644,89.10309809409169L47.36485161773682,88.3321714660733L47.52085865753174,70.95343105034593L47.66015065734864,79.74300571672019L48.07802665679932,89.55570182021565L48.2312478565979,106.60623255071894L48.342681456451416,80.94675644241089L48.42625665634156,94.14102947247135L48.86084769577026,70.56206355058377L49.26479449523926,77.38658092771503L49.48766169494629,82.06986108262173L49.69938553466797,105.0529619087831L49.75510233459473,85.6099963117947L49.991898734283446,88.92303255221113L50.47942073364258,85.6977650032907L50.5908543334961,93.71255167991697L51.053303772888185,85.66822588914884L51.178666572723394,90.46513434173443L51.26224177261353,87.68784537137172L51.33188777252197,97.25914271794714L51.4293921723938,81.35149625610633L51.554754972229006,89.27702910210984L51.74976377197266,83.05535091280824L51.77762217193604,87.09940294038321L51.819409771881105,98.04438729950607L51.93362921173096,91.70266137442253L52.42115121109009,93.38205669897538L52.755452010650636,103.0724167400752L53.03682185028076,87.48089578040042L53.28754744995118,72.62238796846489L53.41291024978638,68.01255855151365L53.593989849548336,90.92300576541415L53.63577744949341,100.4982008444733L53.74721104934692,99.98765244523585L54.29323568862915,107.3677330916266L54.53003208831787,100.14816264498187L54.669324088134765,94.0843092814134L54.71111168807984,102.93124365793898L54.98969568771363,79.31292154919197L55.2014195274353,78.33830657448883L55.452145127105716,101.85352971887613L55.619295526885985,95.02524493779677L55.85609192657471,89.09372656311214L55.93966712646485,71.87299888868087L56.443904165802,107.83861615259455L56.48569176574707,97.98605467168191L56.49962096572876,95.39199549880865L56.61105456558228,98.21354161514913L56.666771365509035,91.91490291011903L56.76427576538086,86.73927791841444L57.49138000442505,96.50070944397069L57.58888440429687,106.83996314031096L57.71424720413208,103.29845188427359L58.02068960372925,85.79110448196018L58.076406403656,92.39702150321543L58.18784000350952,90.56678453772146L58.29927360336304,106.2614862959527L58.35499040328979,114.23718047368695L58.62243104293823,106.92710746719447L58.692077042846684,87.17125942694952L58.706006242828366,101.27733513933923L58.77565224273682,93.50154674986074L58.94280264251709,95.18246964608683L58.98459024246216,116.27359112073087L59.05423624237061,93.6126775890897L59.318891042022706,102.80320041804188L59.530614881744384,105.80064459401943L59.669906881561275,88.89876113562504L59.83705728134156,111.76982185370433L60.19921648086548,97.83593438403094L60.32457928070069,77.24178289375102L60.80095792007446,103.41999688276701L60.81488712005615,100.58953386987355L60.842745520019534,106.66090688685736L61.45563031921387,95.1553855578484L61.56706391906739,111.69227637501363L61.681283358917234,114.35974991508823L61.70914175888062,105.48744390666428L61.778787758789065,115.3120211231739L62.127017758331306,97.34975439005724L62.14094695831299,114.01000268162979L62.280238958129885,103.48874366985564L62.30809735809326,112.49607004117632L62.37774335800171,105.51023624591595L62.57275215774536,101.81077892829836L62.6563273576355,94.0378456430187L62.77054679748535,110.10523245697654L62.97948479721069,106.45320866453034L63.06305999710083,99.89042735766735L63.71773239624024,101.36127277806739L63.80130759613037,103.97331728885547L64.02696063583375,116.25239909466069L64.11053583572388,104.40079791656757L64.89057103469848,97.71522591288239L64.94907367462157,115.80979126412876L65.13015327438355,110.16125554191376L65.64553367370605,108.39579488951644L65.8405424734497,100.40769222283322L66.3169211128235,109.14829063788198L67.46190135131836,116.56244764999168L67.71262695098876,97.51865411042144L67.7962021508789,101.61113379711384L68.13050295043945,118.73059316847639L68.77403198959351,101.37923993060514L68.88546558944702,120.03138712796496L69.37577342880249,122.7889904276575L69.59864062850951,116.0319983864555L69.6404282284546,106.40562965634246L69.75186182830811,116.60844453037511L69.79364942825316,118.41046385246042L70.18366702774047,113.5533951416559L70.59039966720582,119.29060276242768L71.37043486618042,116.60729885162017L71.44286670608521,110.05185231350573L71.66573390579224,126.406668104625L71.91645950546264,118.96697882311952L71.93038870544433,116.84505447133535L72.40398150482179,114.21316668327592L72.53213014465331,112.7608339767255L72.57391774459839,114.40678942375656L72.58784694458008,113.3674890628421L72.61570534454346,115.72410176741025L72.62963454452515,121.39399621498515L72.97786454406739,117.72676641641851L73.43752814346314,118.66069464084048L73.98355278274535,119.048628135234L74.41535798217774,115.45924387407958L74.780303021698,111.47300619108249L74.84994902160643,130.71176212724367L75.15639142120362,125.87324553193909L75.42104622085571,116.21107282528615L75.62998422058105,108.89535629011196L75.84170806030274,126.13553019441541L76.24565485977172,112.4745537092152L76.28744245971679,128.17351993836758L76.63567245925903,118.84366378125868L77.22348469848633,100.57029980273377L77.50206869812011,116.60005500975694L77.75279429779053,109.94347352800557L77.78065269775391,110.80524217624351L77.80851109771729,117.49920673144305L77.89208629760742,117.30154380635832L78.27096053710937,119.1546731306778L78.46596933685304,123.34301097076286L79.23486117584228,126.82735952490043L79.29057797576904,116.87518461023174L79.44379917556762,105.42249786338172L79.875604375,124.77623690781294L79.98703797485351,117.87053394568233L80.15697421463013,123.5219156794076L80.22662021453858,124.10875476631844L80.4494874142456,117.54627654907316L80.51913341415406,122.34034202104463L80.54699181411743,126.05839994850098L80.68628381393432,119.38055066827499L80.74200061386108,117.86599366320905L81.14594741333008,111.50572168441794L81.30195445312499,119.17275242637412L82.02627285217285,124.51820459267307L82.17949405197143,120.74686957221594L82.4051470916748,129.58327006907808L82.79516469116211,122.87916261982193L83.15732389068603,120.89631093912325L83.3244742904663,122.25831081601186L83.46655213027954,132.0142018633564L83.50833973022462,132.57812889061657L84.30230412918091,117.86600275589757L84.37195012908936,131.23444926567035L84.51402796890258,118.37555399029276L85.53085956756593,128.66169123112962L85.67293740737915,136.7087614983861L85.68686660736084,116.5127955088187L85.71472500732422,133.72365913164165L85.78437100723266,131.8203427129739L85.79830020721435,119.63402148466835L86.1465302067566,125.69957518099217L86.21617620666504,117.73167343732922L86.2579638066101,112.92545104079146L86.36939740646362,123.16561261751814L86.6479814060974,125.83720514549738L86.67862564605714,128.4450518650802L86.69255484603883,126.99171896279134L86.90149284576415,126.89187518092584L87.20793524536133,123.54394120192647L87.3890148451233,125.01213761906774L87.41687324508668,127.1541265035442L87.59795284484863,126.91498273337993L88.10218988418579,128.67062631305967L88.43649068374634,126.2491978937446L88.53399508361817,117.33658096616543L88.6175702835083,124.22274374064239L88.9407277230835,117.14497377164253L88.98251532302857,118.18728684335701L89.80433812194823,125.6376327558211L90.02999116165161,135.5052123272912L90.3225043612671,128.6859353696501L90.36429196121216,126.56220157284824L90.9911059603882,131.75091548969357L91.03289356033325,122.25089421306653L91.24461740005493,128.53311758440157L91.6764225994873,107.50327779956197L92.0664401989746,126.44344196794155L92.16673043884278,129.19078416862658L92.22244723876953,141.91841815009104L92.33388083862305,121.93232883947793L92.48710203842164,131.30470543905517L92.84926123794556,121.83878325986842L92.918907237854,129.6071353455764L93.14177443756104,121.91008206153813L93.35349827728271,138.07836892467918L93.46493187713624,126.37250990470926L93.59029467697144,125.79608800795906L93.71565747680664,128.99526257169097L93.86887867660523,131.2071045203607L93.88280787658692,129.37948928005991L94.04995827636719,119.57801355421202L94.07781667633057,116.32279165837348L94.5959829156494,131.8066188150841L94.7631333154297,127.34190112985118L95.02778811508179,114.02700600918322L95.34815971466065,126.53447493462028L95.6156003543091,131.06617239447056L96.28420195343017,119.54295820902786L96.40956475326537,110.00101509192751L96.45135235321045,121.89156328589615L97.17845659225463,125.21127962148688L97.22024419219971,111.8077838283223L97.4988281918335,120.71329027347002L97.52668659179687,125.76405749715963L97.54061579177856,140.20019931868188L97.87770243133545,124.72441767587333L98.26772003082276,126.27670024565545L98.54630403045654,129.52211719236112L98.65773763031007,119.35639745663981L99.07839946975709,130.74228931353926L99.3151958694458,130.96861087742639L99.5659214691162,118.97856593920451L99.67735506896973,125.85417816408905L100.09801690841675,121.11276845140206L100.79447690750122,134.63143223750347L101.18728034698486,132.54774870278555L101.34050154678344,134.0861770461422L101.56336874649048,132.09350526182982L101.75837754623413,116.84410276993574L102.03974738586426,127.46703016307401L102.59691538513184,124.72230514123791L102.903357784729,130.1761785255835L102.97300378463746,128.27781307582106L103.47724082397461,133.38801768899137L103.63046202377319,137.40209415337497L103.90904602340697,125.70704027827634L103.93690442337035,130.02706146456717L104.37149546279906,132.99989476358678L104.70579626235963,127.65756442035023L104.8729466621399,125.94801774062775L104.90080506210327,126.72691259469569L104.98438026199341,136.7804497702146L105.48861730133056,134.84972950376175L105.87863490081787,131.36684790337392L105.90649330078125,130.98078295647355L105.962210100708,130.91824041385945L106.17114810043336,124.08143729907437L106.73110193969727,125.25571255944293L106.77288953964234,128.2723483700138L107.49999377868653,137.95354601197027L107.54178137863158,135.7809496224495L107.68107337844849,117.9322611772248L107.93179897811889,123.57598989810296L107.94572817810058,135.5160447502281L108.18252457778931,125.96344803306528L108.22431217773438,135.41811043295417L108.68676161712646,137.13828949646586L108.71462001708984,134.98044750953514L108.81212441696167,133.05540562707006L109.3135756163025,134.58232717309045L109.59494545593263,132.0086068290135L109.92924625549317,137.49347415766596L109.9988922554016,132.7866348467748L110.08246745529175,133.78202661477184L110.45855585479737,129.42995673230453L110.7259964944458,132.02613450160558L110.79564249435425,142.35376698427885L111.00458049407959,135.63931584409437L111.07422649398804,134.8095140578361L111.67318209320068,127.13876289082258L112.01026873275757,136.7710448993771L112.03812713272096,127.43766077911806L112.26099433242798,127.59241227612762L112.28885273239135,139.59818908095667L112.3724279322815,139.36616640136043L112.40028633224487,137.14450586452506L112.65101193191529,134.11889557037387L112.96024017150879,135.72937134675598L113.085602971344,134.43254028401896L113.3502577709961,137.792552384284L113.50347897079469,130.33266217975827L113.53133737075805,132.35689620141076L113.6149125706482,130.76170220355348L113.79599217041016,141.34161739131872L114.03557441009521,135.68064969070934L114.5788132093811,132.1708507013728L114.89918480895996,134.27121022685702L114.95490160888671,134.10707355983513L114.9688308088684,125.91284419049269L115.2919882484436,137.30582076720606L115.44520944824218,133.21096940425508L115.59843064804076,133.6634337091549L115.6959350479126,135.02795529166283L115.77951024780275,133.534863093323L116.10266768737793,144.6359045079837L116.92449048629761,137.93008384466344L117.41479832565308,136.83431334162566L117.42872752563477,136.240700201759L117.48444432556151,136.86508148416732L117.76302832519531,131.68229600024438L117.776957525177,130.0923393909811L117.79088672515869,136.78782090971725L117.9023203250122,128.02496813948827L118.50406176422119,131.91061795560836L118.60156616409301,135.2612039687627L118.64335376403808,141.4584963251475L118.90800856369019,129.76754249485242L119.64904200271606,144.05529012409653L119.77440480255126,139.59829213142666L119.80226320251464,137.32788720682333L119.85798000244141,135.0528131866592L119.94155520233154,130.61145764915926L119.98334280227661,134.23532593156844L120.08084720214843,131.08063128468334L120.19228080200195,127.30644419092357L120.23406840194701,134.4326766743469L120.4012188017273,132.22754816070943L120.76616384124756,127.25455827926807L120.8218806411743,129.51850739501424L120.97510184097291,131.0522257257117L121.12832304077149,133.91051691185504L122.06436527954101,130.9039512538326L122.25937407928465,140.00493762109346L122.37080767913818,137.25896462775643L122.56581647888184,128.93267608108226L122.57974567886353,141.39250386495982L122.9307615184021,136.57034198542678L123.12577031814574,133.32752251674486L123.474000317688,140.0206384210148L123.86680375717164,138.33163818647677L123.9085913571167,126.58921898137076L124.27075055664062,137.1503433705621L124.52147615631104,136.00874117098252L124.5771929562378,129.84837649589525L124.91427959579468,140.08683546669445L125.63859799484253,141.09480242293023L125.84753599456786,136.8313703414377L125.94782623443604,136.0563292718589L125.96175543441773,127.57927334119996L126.26819783401488,144.34382840925878L126.5189234336853,122.57256625523664L127.06494807296754,138.3833361825693L127.35746127258301,131.0693775671778L127.66390367218018,136.3746188338954L127.78926647201538,136.31339018477405L128.51637071105958,136.22811895172794L128.66959191085814,141.1521818339067L128.92031751052858,135.19539108917348L129.05960951034547,140.28645862388169L129.07353871032714,143.9799655345796L129.32705014999388,125.81590097626867L129.64742174957277,137.67032543415073L129.91207654922485,133.9737853541036L130.31880918869018,138.4305787612815L130.4441719885254,142.05241785870015L130.48595958847045,143.66005671626053L130.5834639883423,136.09164527411428L130.72275598815918,140.02962502817985L130.76454358810423,138.5923770919028L130.8341895880127,138.78426615977014L130.97348158782958,130.42805357513964L131.30778238739012,130.49196153648154L131.42200182724,141.6772179168706L131.6866566268921,142.19716360970511L131.92345302658083,131.45881893241943L132.7759200654602,136.2013697775171L133.26344206481934,136.01338147302965L133.50023846450807,137.9103557414468L133.6283871043396,139.87002409728697L133.69803310424805,141.30303484070848L133.85125430404662,137.14724276377297L133.93482950393675,135.92417007495334L134.0323339038086,131.06223071399225L134.283059503479,139.83746621055275L134.35270550338745,128.60214927573082L134.42235150329589,127.94438267193195L134.66193374298095,139.21621735934346L134.81515494277954,137.737611329282L134.85694254272462,138.8632331287679L135.1355265423584,143.56987694685566L135.24696014221192,138.6121779366277L135.3862521420288,137.40676324893576L135.8626307814026,136.99351267877506L135.93227678131103,137.24096413536074L136.78195798019408,140.38379206598853L136.7847438201904,139.28617953579908L137.2304782196045,137.9811059509085L137.82943381881714,126.23130348271508L137.9297240586853,135.8609031481529L138.04115765853882,134.23523500468315L138.0550868585205,131.82222641494798L138.52867965789795,144.33925327147946L138.68190085769652,130.89646494027517L138.84905125747682,137.2743130859972L139.07470429718018,139.74213846399107L139.91045629608155,130.4332167067773L140.23361373565675,141.2956121759708L140.65148973510742,130.20986087479946L140.70720653503417,134.858188734992L140.90221533477782,139.50298863203443L141.13901173446655,139.9878691292722L141.21144357437132,139.33792905712664L141.7964699736023,132.48043249869252L142.0193371733093,139.2643449597394L142.1725583731079,134.70497996413658L142.28677781295778,141.54421991944804L142.39821141281126,137.0304896121355L142.67679541244507,140.14850662665768L142.70465381240845,141.85381232490437L142.7464414123535,137.28954637018322L142.77429981231688,137.42642164154034L142.85787501220705,141.46144993347207L143.13645901184083,135.64298171302056L143.17824661178588,137.14444221570534L143.24789261169434,140.3867062726628L143.3621120515442,135.64642329562963L144.33715605026245,125.79213571934415L144.6045966899109,137.54362336581198L144.6185258898926,135.5207290002698L144.64638428985597,141.75358665012055L144.84139308959962,142.96757953171766L144.89710988952638,143.6474353068551L145.02247268936156,135.5323146009067L145.03640188934327,130.6274425955972L145.10604788925173,127.37808851475748L145.17569388916016,133.83498394822595L145.38463188888548,136.10465691140251L145.80529372833252,133.51771428275305L145.97244412811278,143.87366973247714L146.06994852798462,134.99844345558657L146.13959452789308,142.01723218498037L146.3346033276367,141.2473891023453L146.45996612747194,137.0195602005209L146.8109819670105,134.67524081084704L146.90848636688233,143.8198698098858L146.92241556686403,133.2874298221144L147.04777836669922,137.95824693194092L147.5770879660034,145.1638585862421L147.67737820587158,143.75277183031753L147.69130740585328,128.42355068759997L147.74702420578004,133.73836655534095L148.19275860519411,138.24962365137299L148.83628764434812,141.78913224276135L148.8920044442749,138.93739764277308L149.21237604385377,143.08037812156806L149.46310164352417,131.89303269598895L149.50488924346925,140.9468840813519L149.79740244308474,134.34137547335652L149.93948028289796,143.89997336494997L150.2737810824585,136.75602377792347L150.3712854823303,143.08870247791842L150.60808188201904,139.11041180469763L150.6359402819824,142.89038260608731L150.67772788192747,140.7502857585494L150.9590977215576,139.05401591953063L150.986956121521,144.54692800436112L151.05660212142945,143.11668674232143L151.20982332122804,141.41636838373412L151.37697372100828,141.70347457045267L151.613770120697,128.99208619249737L151.86449572036744,143.66179114659786L151.94807092025755,132.23608922613647L152.0762195600891,139.44429684301332L152.32694515975953,136.72882451563032L152.3408743597412,143.47657914300862L152.71696275924683,136.34600565853563L152.82839635910034,143.31108236132724L152.96768835891723,137.54674064253012L153.12090955871582,140.66802041678693L153.40227939834594,147.58477629955135L153.65300499801634,144.0243977148116L154.09873939743042,144.71459566542933L154.19624379730223,130.77620352631274L154.90941883636475,142.8284303305037L154.93727723632813,142.92473629880647L155.07656923614502,137.02364130222338L155.17407363601686,126.9067205104012L155.5390186755371,133.43645595624542L155.8315318751526,134.58021009211075L155.97082387496948,142.13101430064023L156.1936910746765,138.9741230117508L156.2215494746399,143.3748304428958L156.3190538745117,139.38619001695434L156.7536449139404,139.3394687523846L156.8232909138489,136.00593153022635L156.97651211364746,148.0188817085825L157.0461581135559,130.9452790386552L157.6339703527832,142.79306583390945L157.67575795272828,141.6073262087511L157.95434195236206,143.44983603059012L158.0379171522522,142.7140215770592L158.05184635223387,133.90149848028014L158.4140055517578,135.2032077704142L158.51150995162965,136.06313060288028L159.37790619049073,149.15388867808076L159.50326899032592,139.95965300131166L159.60077339019773,141.44749492974876L159.6425609901428,136.70154645003657L159.72892203002928,144.2788891854926L159.77070962997436,142.41991705106776L160.07715202957152,141.0973900505414L160.23037322937012,144.59593380692434L160.3835944291687,142.06988112474846L160.55074482894898,144.48606003188485L160.56467402893065,143.69787775420627L160.60646162887573,140.31431483292124L160.92961906845093,144.6924284485142L161.01319426834107,143.15776978227777L161.3335658679199,137.01632623429998L161.47285786773682,135.3189334482476L161.58429146759033,126.79289823536698L162.42282930648804,140.49315361957412L162.54819210632323,141.7269230987267L162.67355490615844,141.8232154279967L163.14993354553224,144.1306472957474L163.53995114501953,136.64238032576372L163.5817387449646,143.17510953930685L164.1277633842468,138.0855385095861L164.46206418380737,145.9524848902106L165.35631882263183,143.33103929720525L165.94134522186278,145.61765724318386L166.43165306121824,137.72140058107885L166.50129906112673,141.42376225495812L166.5152282611084,141.30933910475682L166.54308666107178,143.53147700774008L166.73809546081546,143.1815744408526L166.9052458605957,142.83662511604246L167.22561746017456,142.05970943717816L167.29804930007936,137.717654393404L167.5069872998047,145.72940259661272L167.5905624996948,146.1205890003283L167.7298544995117,145.40713043699958L168.06415529907227,140.00942789377982L168.30095169876097,141.45075086996698L168.59625073837282,145.38178002137442L169.02805593780516,141.84493255682955L169.125560337677,140.43622960074825L169.27878153747557,141.97253404360885L169.54622217712404,144.34439821774006L169.64372657699585,143.70117915786716L169.71337257690428,138.76356816977685L170.29839897613525,142.5618622540051L170.78870681549074,145.80478098453682L171.17872441497803,135.80532712040178L171.2065828149414,147.25913605656137L171.2205120149231,145.62925572512952L171.24837041488647,136.16438678236432L171.3319456147766,140.80910484520996L171.45730841461182,146.00367824208965L171.54088361450195,141.43138420111944L171.61052961441038,137.21819907417466L172.00333305389404,144.99719112091233L172.1983418536377,141.51805267730316L172.35156305343628,141.89721703133233L172.49085505325317,142.61527422188576L172.54657185317993,144.34161661277355L172.5605010531616,139.51086290030253L172.93937529266358,148.27259651211813L173.06473809249877,144.64971251324243L173.38510969207766,143.30791659027028L173.39903889205934,141.35971335694398L173.56618929183958,135.55742709118192L173.9868511312866,147.5095971930509L174.11221393112183,140.26109381149973L174.34901033081053,145.06849295347823L174.41865633071902,141.8301213249362L174.5440191305542,141.68526797711695L174.65545273040772,146.08498203203993L174.76688633026123,143.4468490824076L174.9925393699646,144.44601280069702L175.4104153694153,140.0975451383362L175.54970736923218,137.69971451893184L176.05394440856932,148.8455537156759L176.17930720840454,144.0280938926996L176.19323640838624,139.15618742966012L176.27681160827638,143.61046443528704L176.4996788079834,141.4950769688328L176.5971832078552,142.9846904560854L176.98720080734253,143.02861344575962L177.00113000732424,137.1825102716895L177.11534944717405,146.28616003896602L177.1849954470825,146.0501820398587L177.3382166468811,141.96066960052363L177.46357944671632,146.0419857388718L177.65858824645994,145.38536557155192L178.17675448577882,144.53442025356236L178.2185420857239,148.62663966204556L178.34390488555908,147.5551811138302L178.6921348851013,143.2218308038766L178.74785168502808,140.52067264141397L178.87321448486327,144.69913354858193L179.06822328460694,145.7976280695589L179.15179848449708,146.82400999324258L179.17965688446043,143.06832197429966L179.64210632385252,146.68679753468578L179.72568152374268,148.66016364693624L179.8092567236328,147.8957727676617L179.8371151235962,144.18852983548925L179.85104432357787,145.32499239287654L179.99033632339479,138.595017002473L180.05998232330322,143.09200463930335L180.25499112304686,141.2076949705621L180.3692105628967,146.34690601787116L180.59207776260376,145.75300039652348L180.94030776214598,144.24820363487177L181.20496256179808,149.3257192750482L181.3303253616333,142.94141607819301L181.56990760131836,146.44053684143566L181.94599600082395,141.7442272427257L182.26636760040282,146.6228854058616L182.29422600036622,141.84161524096373L182.30815520034793,144.39623033098843L183.0074010394287,146.29582064166843L183.11883463928223,144.11787358380906L183.1606222392273,146.92249820679288L183.2859850390625,144.89982055032732L183.80415127838137,144.97391914234063L184.23595647781372,146.94579253822388L184.5145404774475,145.46942596157527L184.76805191711426,140.0828346837407L185.19985711654664,149.30966423913614L185.31129071640012,143.95845753758297L185.33914911636353,144.62818860404087L185.80159855575562,145.6275212947922L185.8433861557007,146.14009433267591L186.03839495544432,147.53261684951585L186.233403755188,145.1420725045212L186.3169789550781,147.15299293585383L186.70699655456542,141.64333552850698L186.7487841545105,147.83035655660967L186.76271335449218,146.77605742710088L186.8462885543823,148.4147701688548L186.8741469543457,144.17800580623836L187.09979999404908,147.0599622297324L187.2112335939026,140.35915618413713L187.33659639373778,149.46360800231452L187.54553439346313,149.0034671951222L187.76840159317015,143.7318442499388L188.3004970324707,148.37207772302844L188.46764743225097,149.08690890346338L188.49550583221435,148.97890746453726L188.63479783203127,142.9934095866628L188.78801903182983,147.19523453587385L188.88552343170164,146.17429117651793L188.98302783157348,148.9829321157984L189.01088623153686,146.26909078942072L189.23653927124025,148.09044192504751L189.50119407089232,148.99674845602163L190.00264527023316,147.73936943223563L190.3675903097534,146.19334793623133L190.45116550964357,145.25619408055292L190.57652830947876,146.3986642530252L190.99440430892946,141.68696982532038L191.30363254852296,147.93466977375033L191.31756174850463,149.25755366230152L191.56828734817503,150.12745875132686L191.95830494766236,144.05488625718095L192.02795094757082,148.66682517787143L192.20903054733276,144.45106606234827L192.39289598709104,147.51537256571635L192.50432958694458,146.32235121249252L192.573975586853,143.2892159608577L192.6018339868164,147.63780561678965L192.6157631867981,144.72025586404004L192.89434718643187,147.61248891988447L192.96399318634036,148.18207576689332L193.15900198608398,149.20431445550295L193.2982939859009,148.21311479578083L193.36793998580933,140.7603119631032L193.4543010256958,145.90450959234758L193.7189558253479,150.2338826087928L193.88610622512817,148.85694685440555L194.3736282244873,148.6164005370353L194.4989910243225,143.35586157917152L195.15644926345826,149.97503233054715L195.2260952633667,145.4211930375372L195.43503326309204,144.94482253904062L195.58825446289063,149.85186693918504L195.63282790283202,147.94292972355692L195.85569510253907,150.19834421453044L196.03677470230105,145.56110223596755L196.31535870193483,146.89596498393465L196.44072150177,151.20378037245834L196.55215510162353,149.73357825977186L197.04246294097902,150.78679384389736L197.3210469406128,148.629453849146L197.36283454055786,150.08222186815982L197.5857017402649,149.80975263680446L197.7974255799866,149.5295299941661L198.7863987786865,149.2858213154971L198.90061821853638,148.93179142574044L198.91454741851805,149.28843053824355L199.33242341796876,149.59335195382897L199.59707821762086,144.74502207442703L199.63886581756591,150.069251526832L199.9453082171631,143.77887011957435L200.54704965637205,150.52692291136407L200.83956285598754,147.55465979968776L200.9231380558777,149.02294524940422L200.95099645584108,149.1428312111027L201.2323662954712,150.2404020664697L201.53880869506835,150.03518008631934L201.94275549453735,148.6697749975758L202.5723553337097,150.1814318138623L202.79522253341673,151.55324194395206L202.96237293319703,149.44922147474796L203.77305237213136,146.8352208993396L203.99591957183839,150.42024786837743L204.41658141128542,151.73874832333252L204.5280150111389,150.70186282894716L204.8205282107544,150.45091068727695L205.16875821029663,150.98537020531742L205.2384042102051,150.7335053850359L205.4083404499817,149.60893189676526L205.58942004974364,151.1053050402168L205.6729952496338,150.37163987093746L206.25802164886477,149.99889192411516L206.27195084884644,151.66778822431058L206.34159684875488,150.18343485737333L206.53939148849486,151.24062887159326L207.34728508743285,150.91644459535436L207.58408148712158,151.0571130332771L207.94902652664183,150.5664454186512L207.96295572662356,151.49712111261314L208.07438932647705,151.73451264592504L208.24153972625734,148.23900812068368L208.2833273262024,149.48093298372476L208.40869012603758,151.53555931679296L208.61762812576293,151.7346740411465L208.6733449256897,150.41387162054488L208.89899796539305,150.15856635424035L209.14972356506348,151.06271716030852L209.40044916473389,151.33566716757L209.60938716445924,151.39843816398346L209.74867916427613,150.63943887014594L209.77932340423584,151.278878023624L209.9464738040161,151.00322559355865L209.96040300399778,151.69888294591533L210.01611980392457,151.74930000951102L210.40613740341186,150.59807736660335L210.76829660293578,151.2516075352707L211.2168168423462,149.33713287232703L211.42575484207154,152.06804079621585L211.92720604141235,151.50252330618676L211.98570868133544,150.78969971560713L212.65431028045654,151.1475538386152L212.7100270803833,152.21837551977137L212.98861108001708,150.6199812744131L213.65999851913452,149.78386575255598L214.02215771865843,152.0416371441692L214.06394531860352,151.446439603326L214.63782835784912,152.16781448860726L214.86069555755614,151.38806226978323L215.33707419692993,148.97492448809854L215.54601219665525,151.65642766771484L215.6574457965088,150.23151775205062L215.74102099639893,151.98170458202554L216.20068459579468,150.90420659431535L216.42633763549804,150.69040983001798L216.46812523544313,151.829349387306L216.50991283538818,150.957019202477L216.69099243515015,150.83542722509281L217.06708083465577,150.04396438116459L217.31780643432617,150.615751658798L217.40416747421264,149.85912896642535L217.50167187408448,152.2852620943313L217.80811427368164,151.15262869540172L218.10062747329712,151.74219824090608L218.2817070730591,152.0448703526661L218.75808571243286,151.385525030821L219.07845731201172,151.90538017563222L219.12024491195677,152.10008721922023L219.30132451171875,151.1662472696494L219.3570413116455,151.99058018261812L219.44061651153564,151.66559158230623L220.02842875076294,151.7675672207703L220.04235795074464,152.12446471717251L220.30701275039672,151.69498900205184L220.3488003503418,151.51056616805468L220.4602339501953,151.79259749798672L220.474163150177,151.61557232383382L220.4880923501587,152.0556156373379L220.57166755004883,151.35454548327098L220.83910818969727,151.60659784025347L220.86696658966065,151.69191340015612L221.11769218933105,152.0290846876518L221.80300882843017,151.72254742554196L221.99801762817384,151.85682976521957L222.08159282806398,152.1846393721483L222.5551856274414,152.1397783201072L223.11513946670533,151.98347803515117L223.50515706619262,151.21835670989796L223.88124546569824,151.5949944331015L223.93974810562133,149.05901405049758L224.0233233055115,152.13145017513665L224.34369490509033,151.95216130040146L224.69192490463257,150.52527675587788L224.85907530441284,151.87893939510738L224.87300450439454,152.09312979704572L224.95657970428468,151.5548630945448L225.07079914413453,151.9591694900869L225.30759554382325,151.63061314611258L225.4747459436035,151.44918256436628L225.55832114349366,151.77971164288985L225.83690514312747,151.72213181390367L225.8926219430542,151.91765606287345L226.2157793826294,152.00920428190227L226.24363778259277,150.96115220827647L226.369000582428,151.9761750908125L227.06546058151244,152.1335892301136L227.38861802108764,151.2618277171798L227.40254722106934,152.25631400494396L227.7089896206665,151.64812414877568L228.19651162002563,151.5102498182662L228.21044082000734,151.9207911461066L228.5335982595825,151.8858854514212L228.56145665954588,152.07064736692814L228.57538585952761,152.14879978257832L228.99326185897826,152.28900600883404L229.3414918585205,151.88610594911808L229.39999449844362,152.1259024985465L229.60893249816897,151.8070253215137L229.69250769805907,151.94736566492526L230.11038369750975,152.27604438133275L230.12431289749145,152.03513966048956L230.23574649734496,151.58468521861718L230.29146329727172,151.8736838211363L230.37503849716185,151.88159824877872L230.58676233688354,150.38102125232956L231.1857179360962,152.320652353543L231.35286833587645,152.08253075311447L231.50608953567504,150.91861433815512L231.6342381755066,151.47339071099466L231.6481673754883,151.86323897404804L231.70388417541506,151.8752735261812L231.75960097534178,151.7363618714551L231.81531777526854,151.0180762271023L232.05211417495727,152.14118844455362L232.1356893748474,152.2509114325083L232.1914061747742,151.91079828141076L232.21926457473756,151.49606673960554L232.56749457427978,152.06078710394004L232.82100601394652,151.82772823671328L232.91851041381838,151.41186654949604L232.93243961380006,151.85822397746105L233.15530681350705,151.92589025006254L233.19709441345216,151.5544285398054L233.6428288128662,151.48416971438644L233.6567580128479,151.79693698358827L233.6706872128296,151.93822902839943L233.9938446524048,151.9998410858872L234.18885345214846,151.34883300170122L234.88809929122922,151.78929798863595L235.05524969100952,151.4092762698507L235.92164592987058,151.92172617757723L236.0609379296875,152.1622266526428L236.50667232910158,151.98668813306472L236.56238912902833,151.3327048454189L236.8409731286621,152.04893099581935L237.16413056823728,152.28436949540713L237.19198896820066,152.3669568698884L237.4287853678894,151.80078963149137L237.9441657672119,151.45417482923196L238.10017280700683,151.86728143182424L238.35089840667726,152.2184755393452L238.4205444065857,152.23608959247832L238.44840280654907,152.09469942240344L238.58769480636596,151.99326025256272L238.8384204060364,151.84170748760604L238.9498540058899,152.0705435587341L239.0612876057434,152.08605341219626L239.15879200561525,151.38151363973063L239.3844450453186,152.1115887124882L239.46802024520872,152.2367548741892L239.5655246450806,152.28989406141392L240.22019704421996,152.1594541403648L240.27869968414308,151.97840279950265L240.50156688385007,152.16510448856295L240.58514208374024,152.1566899630513L240.72443408355713,151.82222526584178L240.83586768341067,151.99677154578387L240.97515968322753,152.11543643518502L241.07266408309934,151.74183945857112L241.21195608291626,151.78159723917403L241.22588528289796,152.2677768542857L241.23981448287964,151.7451010817197L241.40975072265624,151.75116552610803L241.67440552230835,152.2664174973503L241.95298952194213,151.9793810212438L242.10621072174075,151.96616707163577L242.65223536102295,152.2408662848534L242.74973976089476,151.73880477377384L242.91689016067505,152.23819379214927L243.07011136047362,152.19602569136154L243.5158457598877,151.33003879336914L243.9504367993164,149.17044040210382L244.38224199874875,149.57076723096543L244.88647903808595,151.99573801018747L245.2207798376465,152.25616321785915L245.34614263748168,151.84160822575626L245.42971783737184,152.11685830435408L245.63865583709716,152.2949889978876L245.70830183700562,152.12873449216198" fill="none"></path></g></g></g></g></g></g><g transform="translate(51, 177)" clip-path="url(#clip_1)"><clipPath id="clip_1"><rect width="278" height="22"></rect></clipPath><g><g><line x1="0" y1="0" x2="0" y2="5" style="visibility: inherit;" fill="rgb(0, 0, 0)" stroke="rgb(204, 204, 204)" stroke-width="1px"></line><line x1="27.858399963378908" y1="0" x2="27.858399963378908" y2="5" style="visibility: inherit;" fill="rgb(0, 0, 0)" stroke="rgb(204, 204, 204)" stroke-width="1px"></line><line x1="55.716799926757815" y1="0" x2="55.716799926757815" y2="5" style="visibility: inherit;" fill="rgb(0, 0, 0)" stroke="rgb(204, 204, 204)" stroke-width="1px"></line><line x1="83.57519989013672" y1="0" x2="83.57519989013672" y2="5" style="visibility: inherit;" fill="rgb(0, 0, 0)" stroke="rgb(204, 204, 204)" stroke-width="1px"></line><line x1="111.43359985351563" y1="0" x2="111.43359985351563" y2="5" style="visibility: inherit;" fill="rgb(0, 0, 0)" stroke="rgb(204, 204, 204)" stroke-width="1px"></line><line x1="139.29199981689453" y1="0" x2="139.29199981689453" y2="5" style="visibility: inherit;" fill="rgb(0, 0, 0)" stroke="rgb(204, 204, 204)" stroke-width="1px"></line><line x1="167.15039978027343" y1="0" x2="167.15039978027343" y2="5" style="visibility: inherit;" fill="rgb(0, 0, 0)" stroke="rgb(204, 204, 204)" stroke-width="1px"></line><line x1="195.00879974365233" y1="0" x2="195.00879974365233" y2="5" style="visibility: inherit;" fill="rgb(0, 0, 0)" stroke="rgb(204, 204, 204)" stroke-width="1px"></line><line x1="222.86719970703126" y1="0" x2="222.86719970703126" y2="5" style="visibility: inherit;" fill="rgb(0, 0, 0)" stroke="rgb(204, 204, 204)" stroke-width="1px"></line><line x1="250.72559967041016" y1="0" x2="250.72559967041016" y2="5" style="visibility: inherit;" fill="rgb(0, 0, 0)" stroke="rgb(204, 204, 204)" stroke-width="1px"></line><line x1="278.58399963378906" y1="0" x2="278.58399963378906" y2="5" style="visibility: inherit;" fill="rgb(0, 0, 0)" stroke="rgb(204, 204, 204)" stroke-width="1px"></line></g><g transform="translate(0, 8)"><text style="text-anchor: middle; visibility: hidden; font-family: &quot;Helvetica Neue&quot;, sans-serif; font-size: 12px; font-weight: 200;" x="0" y="0" dx="0em" dy="0.95em" fill="rgb(50, 49, 63)" stroke="none" stroke-width="1px">-20k</text><text style="text-anchor: middle; visibility: inherit; font-family: &quot;Helvetica Neue&quot;, sans-serif; font-size: 12px; font-weight: 200;" x="27.858399963378908" y="0" dx="0em" dy="0.95em" fill="rgb(50, 49, 63)" stroke="none" stroke-width="1px">0</text><text style="text-anchor: middle; visibility: hidden; font-family: &quot;Helvetica Neue&quot;, sans-serif; font-size: 12px; font-weight: 200;" x="55.716799926757815" y="0" dx="0em" dy="0.95em" fill="rgb(50, 49, 63)" stroke="none" stroke-width="1px">20k</text><text style="text-anchor: middle; visibility: inherit; font-family: &quot;Helvetica Neue&quot;, sans-serif; font-size: 12px; font-weight: 200;" x="83.57519989013672" y="0" dx="0em" dy="0.95em" fill="rgb(50, 49, 63)" stroke="none" stroke-width="1px">40k</text><text style="text-anchor: middle; visibility: hidden; font-family: &quot;Helvetica Neue&quot;, sans-serif; font-size: 12px; font-weight: 200;" x="111.43359985351563" y="0" dx="0em" dy="0.95em" fill="rgb(50, 49, 63)" stroke="none" stroke-width="1px">60k</text><text style="text-anchor: middle; visibility: inherit; font-family: &quot;Helvetica Neue&quot;, sans-serif; font-size: 12px; font-weight: 200;" x="139.29199981689453" y="0" dx="0em" dy="0.95em" fill="rgb(50, 49, 63)" stroke="none" stroke-width="1px">80k</text><text style="text-anchor: middle; visibility: hidden; font-family: &quot;Helvetica Neue&quot;, sans-serif; font-size: 12px; font-weight: 200;" x="167.15039978027343" y="0" dx="0em" dy="0.95em" fill="rgb(50, 49, 63)" stroke="none" stroke-width="1px">100k</text><text style="text-anchor: middle; visibility: inherit; font-family: &quot;Helvetica Neue&quot;, sans-serif; font-size: 12px; font-weight: 200;" x="195.00879974365233" y="0" dx="0em" dy="0.95em" fill="rgb(50, 49, 63)" stroke="none" stroke-width="1px">120k</text><text style="text-anchor: middle; visibility: hidden; font-family: &quot;Helvetica Neue&quot;, sans-serif; font-size: 12px; font-weight: 200;" x="222.86719970703126" y="0" dx="0em" dy="0.95em" fill="rgb(50, 49, 63)" stroke="none" stroke-width="1px">140k</text><text style="text-anchor: middle; visibility: inherit; font-family: &quot;Helvetica Neue&quot;, sans-serif; font-size: 12px; font-weight: 200;" x="250.72559967041016" y="0" dx="0em" dy="0.95em" fill="rgb(50, 49, 63)" stroke="none" stroke-width="1px">160k</text><text style="text-anchor: middle; visibility: hidden; font-family: &quot;Helvetica Neue&quot;, sans-serif; font-size: 12px; font-weight: 200;" x="278.58399963378906" y="0" dx="0em" dy="0.95em" fill="rgb(50, 49, 63)" stroke="none" stroke-width="1px">180k</text></g><line x1="0" y1="0" x2="278.58399963378906" y2="0" fill="rgb(0, 0, 0)" stroke="rgb(204, 204, 204)" stroke-width="1px"></line></g></g></g></g></svg>