<svg viewBox="0 0 330 200" xmlns="http://www.w3.org/2000/svg"><g><g><g><g><g><line x1="41.0620002746582" y1="177.9749994277954" x2="36.0620002746582" y2="177.9749994277954" style="visibility: inherit;" fill="rgb(0, 0, 0)" stroke="rgb(204, 204, 204)" stroke-width="1px"></line><line x1="41.0620002746582" y1="161.79545402526855" x2="36.0620002746582" y2="161.79545402526855" style="visibility: inherit;" fill="rgb(0, 0, 0)" stroke="rgb(204, 204, 204)" stroke-width="1px"></line><line x1="41.0620002746582" y1="145.6159086227417" x2="36.0620002746582" y2="145.6159086227417" style="visibility: inherit;" fill="rgb(0, 0, 0)" stroke="rgb(204, 204, 204)" stroke-width="1px"></line><line x1="41.0620002746582" y1="129.43636322021484" x2="36.0620002746582" y2="129.43636322021484" style="visibility: inherit;" fill="rgb(0, 0, 0)" stroke="rgb(204, 204, 204)" stroke-width="1px"></line><line x1="41.0620002746582" y1="113.256817817688" x2="36.0620002746582" y2="113.256817817688" style="visibility: inherit;" fill="rgb(0, 0, 0)" stroke="rgb(204, 204, 204)" stroke-width="1px"></line><line x1="41.0620002746582" y1="97.07727241516113" x2="36.0620002746582" y2="97.07727241516113" style="visibility: inherit;" fill="rgb(0, 0, 0)" stroke="rgb(204, 204, 204)" stroke-width="1px"></line><line x1="41.0620002746582" y1="80.89772701263426" x2="36.0620002746582" y2="80.89772701263426" style="visibility: inherit;" fill="rgb(0, 0, 0)" stroke="rgb(204, 204, 204)" stroke-width="1px"></line><line x1="41.0620002746582" y1="64.71818161010741" x2="36.0620002746582" y2="64.71818161010741" style="visibility: inherit;" fill="rgb(0, 0, 0)" stroke="rgb(204, 204, 204)" stroke-width="1px"></line><line x1="41.0620002746582" y1="48.538636207580595" x2="36.0620002746582" y2="48.538636207580595" style="visibility: inherit;" fill="rgb(0, 0, 0)" stroke="rgb(204, 204, 204)" stroke-width="1px"></line><line x1="41.0620002746582" y1="32.35909080505374" x2="36.0620002746582" y2="32.35909080505374" style="visibility: inherit;" fill="rgb(0, 0, 0)" stroke="rgb(204, 204, 204)" stroke-width="1px"></line><line x1="41.0620002746582" y1="16.179545402526855" x2="36.0620002746582" y2="16.179545402526855" style="visibility: inherit;" fill="rgb(0, 0, 0)" stroke="rgb(204, 204, 204)" stroke-width="1px"></line><line x1="41.0620002746582" y1="0" x2="36.0620002746582" y2="0" style="visibility: inherit;" fill="rgb(0, 0, 0)" stroke="rgb(204, 204, 204)" stroke-width="1px"></line></g><g transform="translate(31.062000274658203, 0)"><text style="text-anchor: end; visibility: hidden; font-family: &quot;Helvetica Neue&quot;, sans-serif; font-size: 12px; font-weight: 200;" x="0" y="177.9749994277954" dx="0em" dy="0.3em" fill="rgb(50, 49, 63)" stroke="none" stroke-width="1px">1.5</text><text style="text-anchor: end; visibility: inherit; font-family: &quot;Helvetica Neue&quot;, sans-serif; font-size: 12px; font-weight: 200;" x="0" y="161.79545402526855" dx="0em" dy="0.3em" fill="rgb(50, 49, 63)" stroke="none" stroke-width="1px">1.6</text><text style="text-anchor: end; visibility: hidden; font-family: &quot;Helvetica Neue&quot;, sans-serif; font-size: 12px; font-weight: 200;" x="0" y="145.6159086227417" dx="0em" dy="0.3em" fill="rgb(50, 49, 63)" stroke="none" stroke-width="1px">1.7</text><text style="text-anchor: end; visibility: inherit; font-family: &quot;Helvetica Neue&quot;, sans-serif; font-size: 12px; font-weight: 200;" x="0" y="129.43636322021484" dx="0em" dy="0.3em" fill="rgb(50, 49, 63)" stroke="none" stroke-width="1px">1.8</text><text style="text-anchor: end; visibility: hidden; font-family: &quot;Helvetica Neue&quot;, sans-serif; font-size: 12px; font-weight: 200;" x="0" y="113.256817817688" dx="0em" dy="0.3em" fill="rgb(50, 49, 63)" stroke="none" stroke-width="1px">1.9</text><text style="text-anchor: end; visibility: inherit; font-family: &quot;Helvetica Neue&quot;, sans-serif; font-size: 12px; font-weight: 200;" x="0" y="97.07727241516113" dx="0em" dy="0.3em" fill="rgb(50, 49, 63)" stroke="none" stroke-width="1px">2</text><text style="text-anchor: end; visibility: hidden; font-family: &quot;Helvetica Neue&quot;, sans-serif; font-size: 12px; font-weight: 200;" x="0" y="80.89772701263426" dx="0em" dy="0.3em" fill="rgb(50, 49, 63)" stroke="none" stroke-width="1px">2.1</text><text style="text-anchor: end; visibility: inherit; font-family: &quot;Helvetica Neue&quot;, sans-serif; font-size: 12px; font-weight: 200;" x="0" y="64.71818161010741" dx="0em" dy="0.3em" fill="rgb(50, 49, 63)" stroke="none" stroke-width="1px">2.2</text><text style="text-anchor: end; visibility: hidden; font-family: &quot;Helvetica Neue&quot;, sans-serif; font-size: 12px; font-weight: 200;" x="0" y="48.538636207580595" dx="0em" dy="0.3em" fill="rgb(50, 49, 63)" stroke="none" stroke-width="1px">2.3</text><text style="text-anchor: end; visibility: inherit; font-family: &quot;Helvetica Neue&quot;, sans-serif; font-size: 12px; font-weight: 200;" x="0" y="32.35909080505374" dx="0em" dy="0.3em" fill="rgb(50, 49, 63)" stroke="none" stroke-width="1px">2.4</text><text style="text-anchor: end; visibility: hidden; font-family: &quot;Helvetica Neue&quot;, sans-serif; font-size: 12px; font-weight: 200;" x="0" y="16.179545402526855" dx="0em" dy="0.3em" fill="rgb(50, 49, 63)" stroke="none" stroke-width="1px">2.5</text><text style="text-anchor: end; visibility: hidden; font-family: &quot;Helvetica Neue&quot;, sans-serif; font-size: 12px; font-weight: 200;" x="0" y="0" dx="0em" dy="0.3em" fill="rgb(50, 49, 63)" stroke="none" stroke-width="1px">2.6</text></g><line x1="41.0620002746582" y1="0" x2="41.0620002746582" y2="177.9749994277954" fill="rgb(0, 0, 0)" stroke="rgb(204, 204, 204)" stroke-width="1px"></line></g></g><g transform="translate(41, 0)" clip-path="url(#clip_0)"><clipPath id="clip_0"><rect width="288" height="177"></rect></clipPath><g><g><g><line x1="0" y1="0" x2="0" y2="177.9749994277954" fill="rgb(0, 0, 0)" stroke="rgb(60, 60, 60)" stroke-width="1px" opacity="0.25"></line><line x1="24.07816664377848" y1="0" x2="24.07816664377848" y2="177.9749994277954" fill="rgb(0, 0, 0)" stroke="rgb(60, 60, 60)" stroke-width="1px" opacity="0.25"></line><line x1="48.15633328755696" y1="0" x2="48.15633328755696" y2="177.9749994277954" fill="rgb(0, 0, 0)" stroke="rgb(60, 60, 60)" stroke-width="1px" opacity="0.25"></line><line x1="72.23449993133545" y1="0" x2="72.23449993133545" y2="177.9749994277954" fill="rgb(0, 0, 0)" stroke="rgb(60, 60, 60)" stroke-width="1px" opacity="0.25"></line><line x1="96.31266657511392" y1="0" x2="96.31266657511392" y2="177.9749994277954" fill="rgb(0, 0, 0)" stroke="rgb(60, 60, 60)" stroke-width="1px" opacity="0.25"></line><line x1="120.39083321889242" y1="0" x2="120.39083321889242" y2="177.9749994277954" fill="rgb(0, 0, 0)" stroke="rgb(60, 60, 60)" stroke-width="1px" opacity="0.25"></line><line x1="144.4689998626709" y1="0" x2="144.4689998626709" y2="177.9749994277954" fill="rgb(0, 0, 0)" stroke="rgb(60, 60, 60)" stroke-width="1px" opacity="0.25"></line><line x1="168.5471665064494" y1="0" x2="168.5471665064494" y2="177.9749994277954" fill="rgb(0, 0, 0)" stroke="rgb(60, 60, 60)" stroke-width="1px" opacity="0.25"></line><line x1="192.62533315022785" y1="0" x2="192.62533315022785" y2="177.9749994277954" fill="rgb(0, 0, 0)" stroke="rgb(60, 60, 60)" stroke-width="1px" opacity="0.25"></line><line x1="216.70349979400635" y1="0" x2="216.70349979400635" y2="177.9749994277954" fill="rgb(0, 0, 0)" stroke="rgb(60, 60, 60)" stroke-width="1px" opacity="0.25"></line><line x1="240.78166643778485" y1="0" x2="240.78166643778485" y2="177.9749994277954" fill="rgb(0, 0, 0)" stroke="rgb(60, 60, 60)" stroke-width="1px" opacity="0.25"></line><line x1="264.8598330815633" y1="0" x2="264.8598330815633" y2="177.9749994277954" fill="rgb(0, 0, 0)" stroke="rgb(60, 60, 60)" stroke-width="1px" opacity="0.25"></line><line x1="288.9379997253418" y1="0" x2="288.9379997253418" y2="177.9749994277954" fill="rgb(0, 0, 0)" stroke="rgb(60, 60, 60)" stroke-width="1px" opacity="0.25"></line></g><g><line x1="0" y1="177.9749994277954" x2="288.9379997253418" y2="177.9749994277954" fill="rgb(0, 0, 0)" stroke="rgb(60, 60, 60)" stroke-width="1px" opacity="0.25"></line><line x1="0" y1="161.79545402526855" x2="288.9379997253418" y2="161.79545402526855" fill="rgb(0, 0, 0)" stroke="rgb(60, 60, 60)" stroke-width="1px" opacity="0.25"></line><line x1="0" y1="145.6159086227417" x2="288.9379997253418" y2="145.6159086227417" fill="rgb(0, 0, 0)" stroke="rgb(60, 60, 60)" stroke-width="1px" opacity="0.25"></line><line x1="0" y1="129.43636322021484" x2="288.9379997253418" y2="129.43636322021484" fill="rgb(0, 0, 0)" stroke="rgb(60, 60, 60)" stroke-width="1px" opacity="0.25"></line><line x1="0" y1="113.256817817688" x2="288.9379997253418" y2="113.256817817688" fill="rgb(0, 0, 0)" stroke="rgb(60, 60, 60)" stroke-width="1px" opacity="0.25"></line><line x1="0" y1="97.07727241516113" x2="288.9379997253418" y2="97.07727241516113" fill="rgb(0, 0, 0)" stroke="rgb(60, 60, 60)" stroke-width="1px" opacity="0.25"></line><line x1="0" y1="80.89772701263426" x2="288.9379997253418" y2="80.89772701263426" fill="rgb(0, 0, 0)" stroke="rgb(60, 60, 60)" stroke-width="1px" opacity="0.25"></line><line x1="0" y1="64.71818161010741" x2="288.9379997253418" y2="64.71818161010741" fill="rgb(0, 0, 0)" stroke="rgb(60, 60, 60)" stroke-width="1px" opacity="0.25"></line><line x1="0" y1="48.538636207580595" x2="288.9379997253418" y2="48.538636207580595" fill="rgb(0, 0, 0)" stroke="rgb(60, 60, 60)" stroke-width="1px" opacity="0.25"></line><line x1="0" y1="32.35909080505374" x2="288.9379997253418" y2="32.35909080505374" fill="rgb(0, 0, 0)" stroke="rgb(60, 60, 60)" stroke-width="1px" opacity="0.25"></line><line x1="0" y1="16.179545402526855" x2="288.9379997253418" y2="16.179545402526855" fill="rgb(0, 0, 0)" stroke="rgb(60, 60, 60)" stroke-width="1px" opacity="0.25"></line><line x1="0" y1="0" x2="288.9379997253418" y2="0" fill="rgb(0, 0, 0)" stroke="rgb(60, 60, 60)" stroke-width="1px" opacity="0.25"></line></g></g></g><g><g><line x1="0" y1="420.66818046569824" x2="288.9379997253418" y2="420.66818046569824" fill="rgb(0, 0, 0)" stroke="rgb(153, 153, 153)" stroke-width="1.5px"></line></g></g><g><g><line x1="24.07816664377848" y1="0" x2="24.07816664377848" y2="177.9749994277954" fill="rgb(0, 0, 0)" stroke="rgb(153, 153, 153)" stroke-width="1.5px"></line></g></g><g><g><g><g><g><path style="fill: none;" stroke="rgb(238, 51, 119)" stroke-width="2px" d="M26.485983308156328,-49.39447752504017L27.68989164034526,10.182669333751647L28.893799972534183,23.580282984044516L30.097708304723106,36.061392205429456L31.30161663691203,43.65666372503304L32.505524969100954,40.911123667661286L33.70943330128988,43.33020314243913L34.9133416334788,45.14253577760701L36.117249965667725,47.684245311709674L37.321158297856655,49.40075754191915L38.52506663004557,38.17588314657135L39.7289749622345,24.163846223259952L40.93288329442342,25.442030248339535L42.13679162661235,28.24716874599335L43.34069995880127,39.13821472567682L44.5446082909902,38.035007092260486L45.748516623179114,25.56014702772063L46.952424955368045,16.60572246934683L48.15633328755696,25.048796267604303L49.36024161974589,6.881571517840712L50.56414995193481,31.14261141756333L51.76805828412374,45.190175954790476L52.971966616312656,41.12151194811352L54.17587494850159,47.43832941734172L55.37978328069052,37.14249633963436L56.583691612879434,33.993577065414684L57.787599945068365,41.349027547326386L58.99150827725728,23.927034038863923L60.19541660944621,31.537774150411224L61.39932494163513,22.356489768542815L62.60323327382406,34.64287217663059L63.807141606012976,31.874997169793915L65.01104993820191,48.78047086247807L66.21495827039082,49.11800248219879L67.41886660257975,48.21831677171349L68.62277493476867,38.71423643626531L69.8266832669576,41.83970208479471L71.03059159914652,34.14664283307778L72.23449993133545,38.903061268097645L73.43840826352437,43.67745567280784L74.64231659571331,43.938531558781506L75.84622492790223,48.59010302895561L77.05013326009114,30.05741832887955L78.25404159228006,44.471754367855766L79.457949924469,46.64900690274456L80.66185825665792,33.25019742614177L81.86576658884684,54.88149954533857L83.06967492103576,33.77470227566664L84.2735832532247,53.33433175062328L85.47749158541362,35.72532643731438L86.68139991760253,40.59623559774357L87.88530824979145,36.67755135534938L89.0892165819804,51.464175127116974L90.29312491416931,44.22375542120611L91.49703324635823,26.931566929927612L92.70094157854717,51.95326808785286L93.90484991073609,51.78785830666857L95.108758242925,50.721798438942656L96.31266657511392,55.48396455525835L97.51657490730287,44.969372412929715L98.72048323949178,54.166009661615135L99.9243915716807,46.36108278736222L101.12829990386962,47.379541052946934L102.33220823605856,52.464541697884684L103.53611656824748,55.09404802815699L104.7400249004364,49.44110703611659L105.94393323262531,43.37653176818594L107.14784156481426,51.45912179658173L108.35174989700317,58.59268863544959L109.55565822919209,51.23361209956603L110.75956656138104,52.84670464149305L111.96347489356995,51.86902019557057L113.16738322575887,49.62518713775174L114.37129155794779,63.46417642151256L115.57519989013673,49.65732014794912L116.77910822232565,61.80629825552889L117.98301655451456,35.223465137592484L119.18692488670348,60.516194542392896L120.39083321889242,61.605399435471114L121.59474155108134,41.51933635887693L122.79864988327026,54.69483491587245L124.00255821545917,63.8871903348677L125.20646654764812,55.87202948033156L126.41037487983704,66.75821500469102L127.61428321202595,40.561093734250335L128.8181915442149,63.68440133773949L130.02209987640381,57.96584419882538L131.22600820859273,56.793008614140945L132.42991654078165,66.77356787150802L133.6338248729706,49.99130286378251L134.8377332051595,54.90229149311337L136.04164153734843,60.74266861546495L137.24554986953734,63.84591503965612L138.4494582017263,40.228075394473336L139.6533665339152,54.91143377812752L140.85727486610412,57.029589348283494L142.06118319829304,61.470733962963095L143.26509153048198,59.426179573427376L144.4689998626709,67.36314881731505L145.67290819485982,63.46537224782243L146.87681652704873,74.21874390170206L148.08072485923765,59.50452548424484L149.28463319142662,65.93787815612178L150.48854152361554,56.9033332349868L151.69244985580445,61.0932000244252L152.89635818799337,62.228424942912184L154.1002665201823,75.57014335697933L155.3041748523712,73.19156767656797L156.50808318456012,68.10637415641895L157.71199151674904,60.845548253155826L158.915899848938,71.40145426573827L160.11980818112693,74.70201203105763L161.32371651331584,71.4921056150347L162.52762484550476,62.99444813198808L163.73153317769368,71.11491885187708L164.9354415098826,71.95334739526335L166.1393498420715,65.96499641082619L167.34325817426048,55.92399006224741L168.5471665064494,70.04885898415115L169.75107483863832,82.70193574390352L170.95498317082723,73.48982990327433L172.15889150301615,68.89577382110065L173.36279983520507,85.75869924217886L174.56670816739398,76.2165453400262L175.7706164995829,81.52678565668386L176.97452483177187,72.65865346783177L178.1784331639608,84.30287714752058L179.3823414961497,72.6434163261415L180.58624982833862,86.43696421012737L181.79015816052754,71.74091463757168L182.99406649271646,89.89267079539151L184.19797482490537,94.42554686055065L185.40188315709435,89.75518934479898L186.60579148928326,84.799800841834L187.80969982147218,92.83826102189141L189.0136081536611,88.06756982123763L190.21751648585,85.54368195665621L191.42142481803893,95.4298866606705L192.62533315022785,85.16441214121687L193.82924148241676,91.48863601855784L195.03314981460574,91.02808858908975L196.23705814679465,103.4482492437137L197.44096647898357,90.91058901038468L198.64487481117249,99.66573490047541L199.8487831433614,97.27280930434563L201.05269147555032,104.01429941374592L202.25659980773924,109.75185476096999L203.4605081399282,104.5922306967923L204.66441647211713,108.21840039377594L205.86832480430604,105.41675293744606L207.07223313649496,104.79532829425852L208.27614146868387,100.74087919065211L209.4800498008728,108.82275558076618L210.6839581330617,112.582857824455L211.88786646525062,113.01210160713413L213.0917747974396,121.72844100471752L214.29568312962851,114.06060983063458L215.49959146181743,120.92602226327517L216.70349979400635,124.50158150482184L217.90740812619526,123.17340422498137L219.11131645838418,123.44535827287064L220.3152247905731,120.10354449986085L221.51913312276207,126.61746114748485L222.723041454951,129.94291910257903L223.9269497871399,127.70487230109825L225.13085811932882,129.40765181626534L226.33476645151774,135.95572666380508L227.53867478370665,137.4907240326893L228.74258311589557,133.32379010587078L229.9464914480845,141.64000987767668L231.15039978027346,131.73357256400027L232.35430811246238,139.58012190884506L233.5582164446513,142.84250966985428L234.7621247768402,142.8285455045584L235.96603310902913,143.63798490369095L237.16994144121804,151.66529689653703L238.37384977340696,144.77126178254412L239.57775810559593,149.76219718694597L240.78166643778485,152.9403370556729L241.98557476997377,156.40497376321878L243.18948310216268,157.89159802911672L244.3933914343516,155.81074452482017L245.59729976654052,157.2959993767181L246.80120809872943,159.94585404177928L248.00511643091835,157.5318471850578L249.20902476310732,161.9404151765541L250.41293309529624,160.46914377747316L251.61684142748516,162.97482422211078L252.82074975967407,163.00900170954765L254.024658091863,162.31245217157084L255.2285664240519,164.9748437253645L256.4324747562408,165.36344870102926L257.6363830884298,165.14818067773194L258.8402914206187,165.3256837346628L260.04419975280763,165.2746296662399L261.24810808499655,166.39070207624786L262.45201641718546,165.69943731905983L263.6559247493744,165.32888546316985" fill="none"></path></g><g><path style="fill: none;" stroke="rgb(204, 51, 17)" stroke-width="2px" d="M26.485983308156328,-25.443850990333857L27.68989164034526,29.987674652484685L28.893799972534183,39.940459879429L30.097708304723106,50.25978515786893L31.30161663691203,62.18198059203861L32.505524969100954,58.37084356744799L33.70943330128988,58.76940090401423L34.9133416334788,59.71313931275337L36.117249965667725,57.788206129246646L37.321158297856655,63.41159863892062L38.52506663004557,48.228153407488236L39.7289749622345,36.797288286505136L40.93288329442342,33.79653574958229L42.13679162661235,38.80986396601247L43.34069995880127,49.93988233245821L44.5446082909902,45.78072127665382L45.748516623179114,35.17987533984572L46.952424955368045,28.3812941679098L48.15633328755696,32.00634518866812L49.36024161974589,16.242847046865336L50.56414995193481,38.8159588226886L51.76805828412374,46.43017068803874L52.971966616312656,49.6032379387093L54.17587494850159,50.565106617307734L55.37978328069052,41.68374318896261L56.583691612879434,36.11632306559886L57.787599945068365,43.16282603409991L58.99150827725728,30.115242317217962L60.19541660944621,33.775049451046925L61.39932494163513,29.134394717830673L62.60323327382406,35.27716159640977L63.807141606012976,32.796323478983595L65.01104993820191,49.385366100059855L66.21495827039082,45.97845694324678L67.41886660257975,48.293152353685855L68.62277493476867,39.421548411030926L69.8266832669576,39.44106738241135L71.03059159914652,34.88068731212525L72.23449993133545,37.31947863349478L73.43840826352437,43.074026286831696L74.64231659571331,43.871256685090884L75.84622492790223,46.061586159303715L77.05013326009114,30.81838818742017L78.25404159228006,41.17408973070542L79.457949924469,43.19465044395929L80.66185825665792,30.312669383472922L81.86576658884684,44.81345209213987L83.06967492103576,29.455493369551277L84.2735832532247,45.76424973361148L85.47749158541362,31.267440254296645L86.68139991760253,32.36632748298052L87.88530824979145,31.440179293509118L89.0892165819804,42.0502446654159L90.29312491416931,36.997338455633326L91.49703324635823,20.05344402086439L92.70094157854717,42.000791461246536L93.90484991073609,40.69980958619499L95.108758242925,41.930700609471415L96.31266657511392,44.96242890532403L97.51657490730287,35.40075603179096L98.72048323949178,42.332112499164424L99.9243915716807,36.04600076357019L101.12829990386962,34.63484856784183L102.33220823605856,43.13941098345188L103.53611656824748,42.91201110936572L104.7400249004364,37.84120607997738L105.94393323262531,36.48490759433392L107.14784156481426,42.42600415201014L108.35174989700317,49.48820716270848L109.55565822919209,41.17007792631105L110.75956656138104,39.0392697422958L111.96347489356995,39.58614811632788L113.16738322575887,35.191795027902145L114.37129155794779,50.32277820186938L115.57519989013673,33.04980008163332L116.77910822232565,48.8925699352676L117.98301655451456,28.23366748120455L119.18692488670348,44.90094028797148L120.39083321889242,48.89581023881695L121.59474155108134,27.189865412859064L122.79864988327026,45.151022286902844L124.00255821545917,49.1948053913261L125.20646654764812,44.33242131523505L126.41037487983704,50.41578262874327L127.61428321202595,27.30350748733872L128.8181915442149,47.8650851097955L130.02209987640381,45.32858320639707L131.22600820859273,42.397728646038104L132.42991654078165,48.176540000952656L133.6338248729706,37.42509709918568L134.8377332051595,41.048875143549594L136.04164153734843,48.09846411543097L137.24554986953734,48.41381508585573L138.4494582017263,29.271374692873934L139.6533665339152,37.76066139175148L140.85727486610412,45.59455812273703L142.06118319829304,44.82490887968925L143.26509153048198,43.535692392525135L144.4689998626709,50.622660580350384L145.67290819485982,47.804676593626056L146.87681652704873,57.00636717284671L148.08072485923765,47.05284902009953L149.28463319142662,48.845662683886985L150.48854152361554,43.80506191258337L151.69244985580445,45.811041259865306L152.89635818799337,42.44899487719343L154.1002665201823,51.632632336639304L155.3041748523712,56.239533907883484L156.50808318456012,54.51376366753313L157.71199151674904,39.55119912804594L158.915899848938,54.609391197280274L160.11980818112693,54.58331446871671L161.32371651331584,54.21175966172815L162.52762484550476,43.58375689517334L163.73153317769368,48.71350458912548L164.9354415098826,55.55737286066733L166.1393498420715,46.26190635372768L167.34325817426048,42.35579757510823L168.5471665064494,49.58152018992044L169.75107483863832,58.225685683446954L170.95498317082723,50.11204274603689L172.15889150301615,49.37626239008796L173.36279983520507,62.9082714875931L174.56670816739398,53.64617239220297L175.7706164995829,55.13146581914317L176.97452483177187,47.998323305740115L178.1784331639608,61.746776965331264L179.3823414961497,44.91316857636593L180.58624982833862,57.30582522586293L181.79015816052754,45.39639813067927L182.99406649271646,62.32918295327909L184.19797482490537,66.25384632722263L185.40188315709435,66.18896310615175L186.60579148928326,55.81794727109174L187.80969982147218,63.49889395954098L189.0136081536611,58.56892640942125L190.21751648585,57.6981719806263L191.42142481803893,66.58744329263345L192.62533315022785,53.698094399076595L193.82924148241676,64.93716440997379L195.03314981460574,62.41053771739236L196.23705814679465,66.9845733526363L197.44096647898357,63.452719633963184L198.64487481117249,66.28567073708201L199.8487831433614,60.14228665782686L201.05269147555032,67.5422913135417L202.25659980773924,74.89612164367874L203.4605081399282,69.21390219456772L204.66441647211713,72.68187564326854L205.86832480430604,73.12587437960974L207.07223313649496,68.07578414791169L208.27614146868387,63.35797933018786L209.4800498008728,69.63969351096513L210.6839581330617,71.68066042157125L211.88786646525062,70.11432083085585L213.0917747974396,77.49557801603532L214.29568312962851,73.41040389127375L215.49959146181743,76.4700990927604L216.70349979400635,81.68243595217791L217.90740812619526,78.1439859012794L219.11131645838418,74.57077973731022L220.3152247905731,74.0300347949965L221.51913312276207,79.59652911734612L222.723041454951,79.12151604703287L223.9269497871399,77.73767498122015L225.13085811932882,79.40311385548557L226.33476645151774,81.76282634023482L227.53867478370665,80.79540285555186L228.74258311589557,79.21313177238564L229.9464914480845,84.30388009861917L231.15039978027346,77.30501730730158L232.35430811246238,83.38263093951402L233.5582164446513,83.23045239782279L234.7621247768402,83.47143068678226L235.96603310902913,82.91726162976421L237.16994144121804,87.52713347926193L238.37384977340696,81.34818321104878L239.57775810559593,84.10764885867411L240.78166643778485,86.08936450437842L241.98557476997377,88.17689149098487L243.18948310216268,89.41800490045853L244.3933914343516,88.23845725842193L245.59729976654052,88.69888896276325L246.80120809872943,89.24557446158407L248.00511643091835,87.47525004743058L249.20902476310732,88.52530127262116L250.41293309529624,87.84155864867263L251.61684142748516,88.68851227639699L252.82074975967407,87.48755548590954L254.024658091863,88.14703440828043L255.2285664240519,88.6394833976924L256.4324747562408,88.68642922411529L257.6363830884298,88.11995472861828L258.8402914206187,88.51561893701547L260.04419975280763,88.32521252845072L261.24810808499655,88.64735270631219L262.45201641718546,88.68029579239693L263.6559247493744,88.77237441825675" fill="none"></path></g></g></g></g></g></g><g transform="translate(41, 177)" clip-path="url(#clip_1)"><clipPath id="clip_1"><rect width="288" height="22"></rect></clipPath><g><g><line x1="0" y1="0" x2="0" y2="5" style="visibility: inherit;" fill="rgb(0, 0, 0)" stroke="rgb(204, 204, 204)" stroke-width="1px"></line><line x1="24.07816664377848" y1="0" x2="24.07816664377848" y2="5" style="visibility: inherit;" fill="rgb(0, 0, 0)" stroke="rgb(204, 204, 204)" stroke-width="1px"></line><line x1="48.15633328755696" y1="0" x2="48.15633328755696" y2="5" style="visibility: inherit;" fill="rgb(0, 0, 0)" stroke="rgb(204, 204, 204)" stroke-width="1px"></line><line x1="72.23449993133545" y1="0" x2="72.23449993133545" y2="5" style="visibility: inherit;" fill="rgb(0, 0, 0)" stroke="rgb(204, 204, 204)" stroke-width="1px"></line><line x1="96.31266657511392" y1="0" x2="96.31266657511392" y2="5" style="visibility: inherit;" fill="rgb(0, 0, 0)" stroke="rgb(204, 204, 204)" stroke-width="1px"></line><line x1="120.39083321889242" y1="0" x2="120.39083321889242" y2="5" style="visibility: inherit;" fill="rgb(0, 0, 0)" stroke="rgb(204, 204, 204)" stroke-width="1px"></line><line x1="144.4689998626709" y1="0" x2="144.4689998626709" y2="5" style="visibility: inherit;" fill="rgb(0, 0, 0)" stroke="rgb(204, 204, 204)" stroke-width="1px"></line><line x1="168.5471665064494" y1="0" x2="168.5471665064494" y2="5" style="visibility: inherit;" fill="rgb(0, 0, 0)" stroke="rgb(204, 204, 204)" stroke-width="1px"></line><line x1="192.62533315022785" y1="0" x2="192.62533315022785" y2="5" style="visibility: inherit;" fill="rgb(0, 0, 0)" stroke="rgb(204, 204, 204)" stroke-width="1px"></line><line x1="216.70349979400635" y1="0" x2="216.70349979400635" y2="5" style="visibility: inherit;" fill="rgb(0, 0, 0)" stroke="rgb(204, 204, 204)" stroke-width="1px"></line><line x1="240.78166643778485" y1="0" x2="240.78166643778485" y2="5" style="visibility: inherit;" fill="rgb(0, 0, 0)" stroke="rgb(204, 204, 204)" stroke-width="1px"></line><line x1="264.8598330815633" y1="0" x2="264.8598330815633" y2="5" style="visibility: inherit;" fill="rgb(0, 0, 0)" stroke="rgb(204, 204, 204)" stroke-width="1px"></line><line x1="288.9379997253418" y1="0" x2="288.9379997253418" y2="5" style="visibility: inherit;" fill="rgb(0, 0, 0)" stroke="rgb(204, 204, 204)" stroke-width="1px"></line></g><g transform="translate(0, 8)"><text style="text-anchor: middle; visibility: hidden; font-family: &quot;Helvetica Neue&quot;, sans-serif; font-size: 12px; font-weight: 200;" x="0" y="0" dx="0em" dy="0.95em" fill="rgb(50, 49, 63)" stroke="none" stroke-width="1px">-20</text><text style="text-anchor: middle; visibility: inherit; font-family: &quot;Helvetica Neue&quot;, sans-serif; font-size: 12px; font-weight: 200;" x="24.07816664377848" y="0" dx="0em" dy="0.95em" fill="rgb(50, 49, 63)" stroke="none" stroke-width="1px">0</text><text style="text-anchor: middle; visibility: hidden; font-family: &quot;Helvetica Neue&quot;, sans-serif; font-size: 12px; font-weight: 200;" x="48.15633328755696" y="0" dx="0em" dy="0.95em" fill="rgb(50, 49, 63)" stroke="none" stroke-width="1px">20</text><text style="text-anchor: middle; visibility: inherit; font-family: &quot;Helvetica Neue&quot;, sans-serif; font-size: 12px; font-weight: 200;" x="72.23449993133545" y="0" dx="0em" dy="0.95em" fill="rgb(50, 49, 63)" stroke="none" stroke-width="1px">40</text><text style="text-anchor: middle; visibility: hidden; font-family: &quot;Helvetica Neue&quot;, sans-serif; font-size: 12px; font-weight: 200;" x="96.31266657511392" y="0" dx="0em" dy="0.95em" fill="rgb(50, 49, 63)" stroke="none" stroke-width="1px">60</text><text style="text-anchor: middle; visibility: inherit; font-family: &quot;Helvetica Neue&quot;, sans-serif; font-size: 12px; font-weight: 200;" x="120.39083321889242" y="0" dx="0em" dy="0.95em" fill="rgb(50, 49, 63)" stroke="none" stroke-width="1px">80</text><text style="text-anchor: middle; visibility: hidden; font-family: &quot;Helvetica Neue&quot;, sans-serif; font-size: 12px; font-weight: 200;" x="144.4689998626709" y="0" dx="0em" dy="0.95em" fill="rgb(50, 49, 63)" stroke="none" stroke-width="1px">100</text><text style="text-anchor: middle; visibility: inherit; font-family: &quot;Helvetica Neue&quot;, sans-serif; font-size: 12px; font-weight: 200;" x="168.5471665064494" y="0" dx="0em" dy="0.95em" fill="rgb(50, 49, 63)" stroke="none" stroke-width="1px">120</text><text style="text-anchor: middle; visibility: hidden; font-family: &quot;Helvetica Neue&quot;, sans-serif; font-size: 12px; font-weight: 200;" x="192.62533315022785" y="0" dx="0em" dy="0.95em" fill="rgb(50, 49, 63)" stroke="none" stroke-width="1px">140</text><text style="text-anchor: middle; visibility: inherit; font-family: &quot;Helvetica Neue&quot;, sans-serif; font-size: 12px; font-weight: 200;" x="216.70349979400635" y="0" dx="0em" dy="0.95em" fill="rgb(50, 49, 63)" stroke="none" stroke-width="1px">160</text><text style="text-anchor: middle; visibility: hidden; font-family: &quot;Helvetica Neue&quot;, sans-serif; font-size: 12px; font-weight: 200;" x="240.78166643778485" y="0" dx="0em" dy="0.95em" fill="rgb(50, 49, 63)" stroke="none" stroke-width="1px">180</text><text style="text-anchor: middle; visibility: inherit; font-family: &quot;Helvetica Neue&quot;, sans-serif; font-size: 12px; font-weight: 200;" x="264.8598330815633" y="0" dx="0em" dy="0.95em" fill="rgb(50, 49, 63)" stroke="none" stroke-width="1px">200</text><text style="text-anchor: middle; visibility: hidden; font-family: &quot;Helvetica Neue&quot;, sans-serif; font-size: 12px; font-weight: 200;" x="288.9379997253418" y="0" dx="0em" dy="0.95em" fill="rgb(50, 49, 63)" stroke="none" stroke-width="1px">220</text></g><line x1="0" y1="0" x2="288.9379997253418" y2="0" fill="rgb(0, 0, 0)" stroke="rgb(204, 204, 204)" stroke-width="1px"></line></g></g></g></g></svg>