<svg viewBox="0 0 330 200" xmlns="http://www.w3.org/2000/svg"><g><g><g><g><g><line x1="61.77000045776367" y1="177.9749994277954" x2="56.77000045776367" y2="177.9749994277954" style="visibility: inherit;" fill="rgb(0, 0, 0)" stroke="rgb(204, 204, 204)" stroke-width="1px"></line><line x1="61.77000045776367" y1="164.28461485642654" x2="56.77000045776367" y2="164.28461485642654" style="visibility: inherit;" fill="rgb(0, 0, 0)" stroke="rgb(204, 204, 204)" stroke-width="1px"></line><line x1="61.77000045776367" y1="150.59423028505765" x2="56.77000045776367" y2="150.59423028505765" style="visibility: inherit;" fill="rgb(0, 0, 0)" stroke="rgb(204, 204, 204)" stroke-width="1px"></line><line x1="61.77000045776367" y1="136.90384571368878" x2="56.77000045776367" y2="136.90384571368878" style="visibility: inherit;" fill="rgb(0, 0, 0)" stroke="rgb(204, 204, 204)" stroke-width="1px"></line><line x1="61.77000045776367" y1="123.21346114231991" x2="56.77000045776367" y2="123.21346114231991" style="visibility: inherit;" fill="rgb(0, 0, 0)" stroke="rgb(204, 204, 204)" stroke-width="1px"></line><line x1="61.77000045776367" y1="109.52307657095103" x2="56.77000045776367" y2="109.52307657095103" style="visibility: inherit;" fill="rgb(0, 0, 0)" stroke="rgb(204, 204, 204)" stroke-width="1px"></line><line x1="61.77000045776367" y1="95.83269199958215" x2="56.77000045776367" y2="95.83269199958215" style="visibility: inherit;" fill="rgb(0, 0, 0)" stroke="rgb(204, 204, 204)" stroke-width="1px"></line><line x1="61.77000045776367" y1="82.14230742821327" x2="56.77000045776367" y2="82.14230742821327" style="visibility: inherit;" fill="rgb(0, 0, 0)" stroke="rgb(204, 204, 204)" stroke-width="1px"></line><line x1="61.77000045776367" y1="68.4519228568444" x2="56.77000045776367" y2="68.4519228568444" style="visibility: inherit;" fill="rgb(0, 0, 0)" stroke="rgb(204, 204, 204)" stroke-width="1px"></line><line x1="61.77000045776367" y1="54.76153828547551" x2="56.77000045776367" y2="54.76153828547551" style="visibility: inherit;" fill="rgb(0, 0, 0)" stroke="rgb(204, 204, 204)" stroke-width="1px"></line><line x1="61.77000045776367" y1="41.07115371410666" x2="56.77000045776367" y2="41.07115371410666" style="visibility: inherit;" fill="rgb(0, 0, 0)" stroke="rgb(204, 204, 204)" stroke-width="1px"></line><line x1="61.77000045776367" y1="27.38076914273779" x2="56.77000045776367" y2="27.38076914273779" style="visibility: inherit;" fill="rgb(0, 0, 0)" stroke="rgb(204, 204, 204)" stroke-width="1px"></line><line x1="61.77000045776367" y1="13.690384571368895" x2="56.77000045776367" y2="13.690384571368895" style="visibility: inherit;" fill="rgb(0, 0, 0)" stroke="rgb(204, 204, 204)" stroke-width="1px"></line><line x1="61.77000045776367" y1="0" x2="56.77000045776367" y2="0" style="visibility: inherit;" fill="rgb(0, 0, 0)" stroke="rgb(204, 204, 204)" stroke-width="1px"></line></g><g transform="translate(51.77000045776367, 0)"><text style="text-anchor: end; visibility: hidden; font-family: &quot;Helvetica Neue&quot;, sans-serif; font-size: 12px; font-weight: 200;" x="0" y="177.9749994277954" dx="0em" dy="0.3em" fill="rgb(50, 49, 63)" stroke="none" stroke-width="1px">-1e-3</text><text style="text-anchor: end; visibility: inherit; font-family: &quot;Helvetica Neue&quot;, sans-serif; font-size: 12px; font-weight: 200;" x="0" y="164.28461485642654" dx="0em" dy="0.3em" fill="rgb(50, 49, 63)" stroke="none" stroke-width="1px">0</text><text style="text-anchor: end; visibility: hidden; font-family: &quot;Helvetica Neue&quot;, sans-serif; font-size: 12px; font-weight: 200;" x="0" y="150.59423028505765" dx="0em" dy="0.3em" fill="rgb(50, 49, 63)" stroke="none" stroke-width="1px">1e-3</text><text style="text-anchor: end; visibility: inherit; font-family: &quot;Helvetica Neue&quot;, sans-serif; font-size: 12px; font-weight: 200;" x="0" y="136.90384571368878" dx="0em" dy="0.3em" fill="rgb(50, 49, 63)" stroke="none" stroke-width="1px">2e-3</text><text style="text-anchor: end; visibility: hidden; font-family: &quot;Helvetica Neue&quot;, sans-serif; font-size: 12px; font-weight: 200;" x="0" y="123.21346114231991" dx="0em" dy="0.3em" fill="rgb(50, 49, 63)" stroke="none" stroke-width="1px">3e-3</text><text style="text-anchor: end; visibility: inherit; font-family: &quot;Helvetica Neue&quot;, sans-serif; font-size: 12px; font-weight: 200;" x="0" y="109.52307657095103" dx="0em" dy="0.3em" fill="rgb(50, 49, 63)" stroke="none" stroke-width="1px">4e-3</text><text style="text-anchor: end; visibility: hidden; font-family: &quot;Helvetica Neue&quot;, sans-serif; font-size: 12px; font-weight: 200;" x="0" y="95.83269199958215" dx="0em" dy="0.3em" fill="rgb(50, 49, 63)" stroke="none" stroke-width="1px">5e-3</text><text style="text-anchor: end; visibility: inherit; font-family: &quot;Helvetica Neue&quot;, sans-serif; font-size: 12px; font-weight: 200;" x="0" y="82.14230742821327" dx="0em" dy="0.3em" fill="rgb(50, 49, 63)" stroke="none" stroke-width="1px">6e-3</text><text style="text-anchor: end; visibility: hidden; font-family: &quot;Helvetica Neue&quot;, sans-serif; font-size: 12px; font-weight: 200;" x="0" y="68.4519228568444" dx="0em" dy="0.3em" fill="rgb(50, 49, 63)" stroke="none" stroke-width="1px">7e-3</text><text style="text-anchor: end; visibility: inherit; font-family: &quot;Helvetica Neue&quot;, sans-serif; font-size: 12px; font-weight: 200;" x="0" y="54.76153828547551" dx="0em" dy="0.3em" fill="rgb(50, 49, 63)" stroke="none" stroke-width="1px">8e-3</text><text style="text-anchor: end; visibility: hidden; font-family: &quot;Helvetica Neue&quot;, sans-serif; font-size: 12px; font-weight: 200;" x="0" y="41.07115371410666" dx="0em" dy="0.3em" fill="rgb(50, 49, 63)" stroke="none" stroke-width="1px">9e-3</text><text style="text-anchor: end; visibility: inherit; font-family: &quot;Helvetica Neue&quot;, sans-serif; font-size: 12px; font-weight: 200;" x="0" y="27.38076914273779" dx="0em" dy="0.3em" fill="rgb(50, 49, 63)" stroke="none" stroke-width="1px">0.01</text><text style="text-anchor: end; visibility: hidden; font-family: &quot;Helvetica Neue&quot;, sans-serif; font-size: 12px; font-weight: 200;" x="0" y="13.690384571368895" dx="0em" dy="0.3em" fill="rgb(50, 49, 63)" stroke="none" stroke-width="1px">0.011</text><text style="text-anchor: end; visibility: hidden; font-family: &quot;Helvetica Neue&quot;, sans-serif; font-size: 12px; font-weight: 200;" x="0" y="0" dx="0em" dy="0.3em" fill="rgb(50, 49, 63)" stroke="none" stroke-width="1px">0.012</text></g><line x1="61.77000045776367" y1="0" x2="61.77000045776367" y2="177.9749994277954" fill="rgb(0, 0, 0)" stroke="rgb(204, 204, 204)" stroke-width="1px"></line></g></g><g transform="translate(61, 0)" clip-path="url(#clip_0)"><clipPath id="clip_0"><rect width="268" height="177"></rect></clipPath><g><g><g><line x1="0" y1="0" x2="0" y2="177.9749994277954" fill="rgb(0, 0, 0)" stroke="rgb(60, 60, 60)" stroke-width="1px" opacity="0.25"></line><line x1="26.822999954223633" y1="0" x2="26.822999954223633" y2="177.9749994277954" fill="rgb(0, 0, 0)" stroke="rgb(60, 60, 60)" stroke-width="1px" opacity="0.25"></line><line x1="53.645999908447266" y1="0" x2="53.645999908447266" y2="177.9749994277954" fill="rgb(0, 0, 0)" stroke="rgb(60, 60, 60)" stroke-width="1px" opacity="0.25"></line><line x1="80.4689998626709" y1="0" x2="80.4689998626709" y2="177.9749994277954" fill="rgb(0, 0, 0)" stroke="rgb(60, 60, 60)" stroke-width="1px" opacity="0.25"></line><line x1="107.29199981689453" y1="0" x2="107.29199981689453" y2="177.9749994277954" fill="rgb(0, 0, 0)" stroke="rgb(60, 60, 60)" stroke-width="1px" opacity="0.25"></line><line x1="134.11499977111816" y1="0" x2="134.11499977111816" y2="177.9749994277954" fill="rgb(0, 0, 0)" stroke="rgb(60, 60, 60)" stroke-width="1px" opacity="0.25"></line><line x1="160.9379997253418" y1="0" x2="160.9379997253418" y2="177.9749994277954" fill="rgb(0, 0, 0)" stroke="rgb(60, 60, 60)" stroke-width="1px" opacity="0.25"></line><line x1="187.76099967956543" y1="0" x2="187.76099967956543" y2="177.9749994277954" fill="rgb(0, 0, 0)" stroke="rgb(60, 60, 60)" stroke-width="1px" opacity="0.25"></line><line x1="214.58399963378906" y1="0" x2="214.58399963378906" y2="177.9749994277954" fill="rgb(0, 0, 0)" stroke="rgb(60, 60, 60)" stroke-width="1px" opacity="0.25"></line><line x1="241.4069995880127" y1="0" x2="241.4069995880127" y2="177.9749994277954" fill="rgb(0, 0, 0)" stroke="rgb(60, 60, 60)" stroke-width="1px" opacity="0.25"></line><line x1="268.2299995422363" y1="0" x2="268.2299995422363" y2="177.9749994277954" fill="rgb(0, 0, 0)" stroke="rgb(60, 60, 60)" stroke-width="1px" opacity="0.25"></line></g><g><line x1="0" y1="177.9749994277954" x2="268.2299995422363" y2="177.9749994277954" fill="rgb(0, 0, 0)" stroke="rgb(60, 60, 60)" stroke-width="1px" opacity="0.25"></line><line x1="0" y1="164.28461485642654" x2="268.2299995422363" y2="164.28461485642654" fill="rgb(0, 0, 0)" stroke="rgb(60, 60, 60)" stroke-width="1px" opacity="0.25"></line><line x1="0" y1="150.59423028505765" x2="268.2299995422363" y2="150.59423028505765" fill="rgb(0, 0, 0)" stroke="rgb(60, 60, 60)" stroke-width="1px" opacity="0.25"></line><line x1="0" y1="136.90384571368878" x2="268.2299995422363" y2="136.90384571368878" fill="rgb(0, 0, 0)" stroke="rgb(60, 60, 60)" stroke-width="1px" opacity="0.25"></line><line x1="0" y1="123.21346114231991" x2="268.2299995422363" y2="123.21346114231991" fill="rgb(0, 0, 0)" stroke="rgb(60, 60, 60)" stroke-width="1px" opacity="0.25"></line><line x1="0" y1="109.52307657095103" x2="268.2299995422363" y2="109.52307657095103" fill="rgb(0, 0, 0)" stroke="rgb(60, 60, 60)" stroke-width="1px" opacity="0.25"></line><line x1="0" y1="95.83269199958215" x2="268.2299995422363" y2="95.83269199958215" fill="rgb(0, 0, 0)" stroke="rgb(60, 60, 60)" stroke-width="1px" opacity="0.25"></line><line x1="0" y1="82.14230742821327" x2="268.2299995422363" y2="82.14230742821327" fill="rgb(0, 0, 0)" stroke="rgb(60, 60, 60)" stroke-width="1px" opacity="0.25"></line><line x1="0" y1="68.4519228568444" x2="268.2299995422363" y2="68.4519228568444" fill="rgb(0, 0, 0)" stroke="rgb(60, 60, 60)" stroke-width="1px" opacity="0.25"></line><line x1="0" y1="54.76153828547551" x2="268.2299995422363" y2="54.76153828547551" fill="rgb(0, 0, 0)" stroke="rgb(60, 60, 60)" stroke-width="1px" opacity="0.25"></line><line x1="0" y1="41.07115371410666" x2="268.2299995422363" y2="41.07115371410666" fill="rgb(0, 0, 0)" stroke="rgb(60, 60, 60)" stroke-width="1px" opacity="0.25"></line><line x1="0" y1="27.38076914273779" x2="268.2299995422363" y2="27.38076914273779" fill="rgb(0, 0, 0)" stroke="rgb(60, 60, 60)" stroke-width="1px" opacity="0.25"></line><line x1="0" y1="13.690384571368895" x2="268.2299995422363" y2="13.690384571368895" fill="rgb(0, 0, 0)" stroke="rgb(60, 60, 60)" stroke-width="1px" opacity="0.25"></line><line x1="0" y1="0" x2="268.2299995422363" y2="0" fill="rgb(0, 0, 0)" stroke="rgb(60, 60, 60)" stroke-width="1px" opacity="0.25"></line></g></g></g><g><g><line x1="0" y1="164.28461485642654" x2="268.2299995422363" y2="164.28461485642654" fill="rgb(0, 0, 0)" stroke="rgb(153, 153, 153)" stroke-width="1.5px"></line></g></g><g><g><line x1="26.822999954223633" y1="0" x2="26.822999954223633" y2="177.9749994277954" fill="rgb(0, 0, 0)" stroke="rgb(153, 153, 153)" stroke-width="1.5px"></line></g></g><g><g><g><g><g><path style="fill: none;" stroke="rgb(187, 187, 187)" stroke-width="2px" d="M26.8793282541275,27.380772202777166L27.0469720038414,27.380772202777166L27.13012330369949,27.380772202777166L27.458705053138733,27.380772202777166L27.541856352996824,27.380772202777166L27.599525802898405,27.380772202777166L27.608913852882385,27.380772202777166L27.67328905277252,27.380772202777166L27.690724002742765,27.380772202777166L27.780581052589415,27.380772202777166L27.906649152374264,27.380772202777166L28.18292605190277,27.380772202777166L28.61075290117264,27.380772202777166L28.68049270105362,27.380772202777166L28.6898807510376,27.380772202777166L28.74889135093689,27.380772202777166L29.148554050254823,27.380772202777166L29.152577500247958,27.380772202777166L29.34033849992752,27.380772202777166L29.39398449983597,27.380772202777166L29.553581349563597,27.380772202777166L29.917032998943327,27.380772202777166L30.027007298755645,27.380772202777166L30.15575769853592,27.380772202777166L30.157098848533632,27.380772202777166L30.423987698078154,27.380772202777166L30.897413647270202,27.380772202777166L31.15491444683075,27.380772202777166L31.176372846794127,27.380772202777166L31.255500696659087,27.380772202777166L31.67528064594269,27.380772202777166L31.67796294593811,27.380772202777166L31.74502044582367,27.380772202777166L31.94753409547806,27.380772202777166L32.12858934516907,27.380772202777166L32.612744494342806,27.380772202777166L32.724059944152835,27.380772202777166L32.84744574394226,27.380772202777166L32.87024529390335,27.380772202777166L33.094217343521116,27.380772202777166L33.48985659284592,27.380772202777166L33.70846404247284,27.380772202777166L33.9914466919899,27.380772202777166L34.01022279195785,27.380772202777166L34.49840139112473,27.380772202777166L34.687503540802,27.380772202777166L34.74517299070359,27.380772202777166L34.856488440513616,27.380772202777166L35.13812994003296,27.380772202777166L35.16361178998947,27.380772202777166L35.80736378889084,27.380772202777166L35.82345758886338,27.380772202777166L36.01524203853607,27.380772202777166L36.165450838279725,27.380772202777166L36.418928187847136,27.380772202777166L36.82797893714905,27.380772202777166L36.83200238714218,27.380772202777166L37.28128763637543,27.380772202777166L37.32822788629532,27.380772202777166L37.64071583576202,27.380772202777166L37.793606935501096,27.380772202777166L37.84859408540726,27.380772202777166L38.22009263477326,27.380772202777166L38.23350413475037,27.380772202777166L38.35823108453751,27.380772202777166L38.7297296339035,27.380772202777166L38.80617518377304,27.380772202777166L39.24204893302918,27.380772202777166L39.5210081325531,27.380772202777166L39.63634703235626,27.380772202777166L39.65378198232651,27.380772202777166L39.82947263202667,27.380772202777166L40.769618780422206,27.380772202777166L40.87691078023911,27.380772202777166L40.93458023014068,27.380772202777166L41.04857797994614,27.380772202777166L41.28059692955017,27.380772202777166L41.44421722927094,27.380772202777166L41.44824067926407,27.380772202777166L41.53005082912445,27.380772202777166L41.602472929000854,27.380772202777166L41.712447228813176,27.380772202777166L42.28914172782898,27.380772202777166L42.33474082775116,27.380772202777166L42.494337677478796,27.380772202777166L42.593582777309415,27.380772202777166L42.87522427682876,27.380772202777166L42.88193002681732,27.380772202777166L43.13674852638244,27.380772202777166L43.30573342609406,27.380772202777166L44.09298847475052,27.380772202777166L44.303549024391174,27.380772202777166L44.33976007432938,27.380772202777166L45.05861647310257,27.380772202777166L45.08946292304993,27.380772202777166L45.344281422615055,27.380772202777166L45.89549407167435,27.380772202777166L45.99339802150727,27.380772202777166L46.052408621406556,27.380772202777166L46.198593971157074,27.380772202777166L46.45475362071991,27.380772202777166L46.49498812065124,27.380772202777166L46.64385577039719,27.380772202777166L46.76992387018203,27.380772202777166L47.57461386880875,27.380772202777166L47.9648885181427,27.380772202777166L48.436973317337035,27.380772202777166L48.711909066867825,27.380772202777166L49.430765465641024,27.380772202777166L49.711065815162655,27.380772202777166L49.752641465091706,27.380772202777166L50.04769446458817,27.380772202777166L50.07719976453781,27.380772202777166L50.35079436407089,27.380772202777166L50.36957046403885,27.380772202777166L51.568558561992646,27.380772202777166L52.46042331047058,27.380772202777166L52.53150426034927,27.380772202777166L53.01700055952072,27.380772202777166L53.163185909271235,27.380772202777166L53.1819620092392,27.380772202777166L53.28523055906296,27.380772202777166L53.63929415845871,27.380772202777166L53.71708085832596,27.380772202777166L53.72915120830535,27.380772202777166L53.83107860813141,27.380772202777166L53.9732405078888,27.380772202777166L53.98396970787048,27.380772202777166L54.07919135770798,27.380772202777166L54.236105907440184,27.380772202777166L54.36887975721359,27.380772202777166L54.421184607124324,27.380772202777166L54.690755756664274,27.380772202777166L54.694779206657415,27.380772202777166L54.79268315649033,27.380772202777166L55.094441905975344,27.380772202777166L55.18027550582885,27.380772202777166L55.29829670562744,27.380772202777166L55.41497675542831,27.380772202777166L55.6885713549614,27.380772202777166L56.12444510421753,27.380772202777166L56.656881653308865,27.380772202777166L56.77087940311432,27.380772202777166L56.80843160305023,27.380772202777166L57.85452860126495,27.380772202777166L57.86794010124206,27.380772202777166L57.92695070114136,27.380772202777166L57.96182060108185,27.380772202777166L58.05301880092621,27.380772202777166L58.15360505075455,27.380772202777166L58.242120950603486,27.380772202777166L58.39367090034485,27.380772202777166L58.5680204000473,27.380772202777166L58.58277305002212,27.380772202777166L58.60959604997635,27.380772202777166L58.927448599433895,27.380772202777166L59.20774894895553,27.380772202777166L59.38880419864655,27.380772202777166L59.39148649864197,27.380772202777166L59.442450198554994,27.380772202777166L59.84345404787064,27.380772202777166L59.97488674764633,27.380772202777166L59.98561594762802,27.380772202777166L60.218976047229766,27.380772202777166L60.26323399715424,27.380772202777166L60.6910608464241,27.380772202777166L60.79701169624329,27.380772202777166L60.87613954610824,27.380772202777166L61.44076369514466,27.380772202777166L61.487703945064546,27.380772202777166L61.58694904489517,27.380772202777166L62.09926834402084,27.380772202777166L62.761796442890166,27.380772202777166L62.76313759288788,27.380772202777166L63.24058699207306,27.380772202777166L63.24729274206162,27.380772202777166L63.71133064126968,27.380772202777166L63.842763341045384,27.380772202777166L63.889703590965276,27.380772202777166L64.14049864053726,27.380772202777166L64.26254329032898,27.380772202777166L64.96262358913421,27.380772202777166L65.10344433889388,27.380772202777166L65.67611538791657,27.380772202777166L65.71098528785706,27.380772202777166L65.799501187706,27.380772202777166L65.98592103738785,27.380772202777166L66.06907233724594,27.380772202777166L66.34803153676987,27.380772202777166L66.36948993673325,27.380772202777166L66.53579253644943,27.380772202777166L66.82816323595047,27.380772202777166L67.06420563554764,27.380772202777166L67.09907553548814,27.380772202777166L67.29085998516082,27.380772202777166L67.49605593481064,27.380772202777166L67.68784038448334,27.380772202777166L67.87828368415833,27.380772202777166L68.00435178394316,27.380772202777166L68.02312788391113,27.380772202777166L68.94315678234099,27.380772202777166L68.99277933225632,27.380772202777166L69.33209028167724,27.380772202777166L69.5788618812561,27.380772202777166L69.65396628112794,27.380772202777166L69.74516448097228,27.380772202777166L70.01741793050766,27.380772202777166L70.3232001299858,27.380772202777166L70.4667031797409,27.380772202777166L70.62093542947768,27.380772202777166L70.76175617923737,27.380772202777166L70.93878797893524,27.380772202777166L70.94951717891693,27.380772202777166L71.1265489786148,27.380772202777166L71.32369802827836,27.380772202777166L71.44440152807236,27.380772202777166L71.58388112783432,27.380772202777166L71.62143332777023,27.380772202777166L72.06937742700578,27.380772202777166L72.0854712269783,27.380772202777166L72.11095307693482,27.380772202777166L72.13375262689591,27.380772202777166L72.20617472677232,27.380772202777166L72.25579727668763,27.380772202777166L72.30541982660293,27.380772202777166L72.4703812763214,27.380772202777166L72.90759617557525,27.380772202777166L72.9357603255272,27.380772202777166L73.12620362520218,27.380772202777166L73.2254487250328,27.380772202777166L73.47222032461167,27.380772202777166L74.20985282335282,27.380772202777166L74.23801697330475,27.380772202777166L74.2688634232521,27.380772202777166L74.4110253230095,27.380772202777166L74.53172882280349,27.380772202777166L74.79727652235032,27.380772202777166L74.90188622217178,27.380772202777166L75.04136582193374,27.380772202777166L75.15402242174149,27.380772202777166L75.43432277126311,27.380772202777166L75.47321612119674,27.380772202777166L75.9479832203865,27.380772202777166L75.98821772031785,27.380772202777166L76.13306192007065,27.380772202777166L76.24437736988068,27.380772202777166L76.32082291975021,27.380772202777166L76.71646216907502,27.380772202777166L77.10137221841812,27.380772202777166L77.4701884677887,27.380772202777166L77.62039726753235,27.380772202777166L78.37546471624374,27.380772202777166L78.39692311620712,27.380772202777166L78.75232786560059,27.380772202777166L78.91326586532593,27.380772202777166L79.1023680150032,27.380772202777166L79.52483026428223,27.380772202777166L80.06933716335297,27.380772202777166L80.17528801317215,27.380772202777166L80.30537956295014,27.380772202777166L80.34695521287918,27.380772202777166L80.49582286262512,27.380772202777166L80.86598026199341,27.380772202777166L81.13957486152648,27.380772202777166L81.35818231115341,27.380772202777166L81.36354691114427,27.380772202777166L81.40780486106873,27.380772202777166L81.43462786102295,27.380772202777166L81.53253181085586,27.380772202777166L81.86379586029054,27.380772202777166L82.1373904598236,27.380772202777166L82.17360150976181,27.380772202777166L82.2674820096016,27.380772202777166L82.53302970914841,27.380772202777166L82.55448810911179,27.380772202777166L83.33101395778657,27.380772202777166L83.7548173570633,27.380772202777166L83.7789580570221,27.380772202777166L84.06059955654145,27.380772202777166L85.18716555461883,27.380772202777166L85.30652790441513,27.380772202777166L85.34944470434189,27.380772202777166L85.44600750417709,27.380772202777166L85.48221855411529,27.380772202777166L85.48758315410613,27.380772202777166L85.57207560396195,27.380772202777166L85.82421180353164,27.380772202777166L85.93150380334855,27.380772202777166L86.10182985305786,27.380772202777166L86.11121790304185,27.380772202777166L86.17022850294113,27.380772202777166L86.24130945281982,27.380772202777166L86.92797825164794,27.380772202777166L87.12646845130921,27.380772202777166L87.59050635051727,27.380772202777166L87.60257670049668,27.380772202777166L87.67365765037536,27.380772202777166L87.85471290006637,27.380772202777166L88.05722654972077,27.380772202777166L88.94238554821014,27.380772202777166L88.96384394817353,27.380772202777166L89.0697947979927,27.380772202777166L89.18513369779586,27.380772202777166L90.26073599596023,27.384877755651644L90.64162259531021,27.393267363699522L90.7127035451889,27.395332890300978L90.75427919511795,27.39662065688583L90.80256059503556,27.39817617691901L90.8548654449463,27.399948449743704L91.03994414463043,27.40689728923624L91.12711889448165,27.41054383619931L91.15796534442902,27.41189535360519L91.3001272441864,27.418487188499938L91.44094799394608,27.425640030619775L91.50264089384079,27.428980573641866L91.8982801431656,27.45316763514157L92.3301304424286,27.485170547299845L92.90414264144897,27.53673221135088L93.01009349126815,27.54737859846327L93.17907839097977,27.5650758263819L93.88854673976898,27.649137658995244L93.95560423965453,27.6578970218051L94.08033118944168,27.67456148642296L94.10178958940506,27.677468523862018L94.14202408933639,27.682976594799243L94.23992803916931,27.696593770171773L94.72408318834304,27.7682751933406L94.97890168790818,27.80893546699508L95.19348568754197,27.844750678251103L95.40136393718718,27.880808142627018L95.52609088697433,27.90309542965997L95.59985413684845,27.916495852240985L96.29188753566741,28.050487327886913L96.50110693531036,28.093927137338397L96.5641409852028,28.1072765592626L96.95441563453674,28.192689909281825L97.03622578439713,28.21119039754541L97.24678633403778,28.25976852317214L97.4774641336441,28.314555978767373L97.77788173313141,28.388379429522928L97.82213968305588,28.399484822546754L98.02733563270569,28.45179874628596L98.04745288267135,28.45698806311802L98.5316080318451,28.585841222588726L98.85080173130036,28.67473536743634L98.86018978128432,28.677400151755478L98.86555438127517,28.67893017146028L98.87091898126603,28.680447441000837L99.06002113094331,28.734712139863632L99.1190317308426,28.751861110721364L99.34166263046265,28.817562706877368L99.38994403038025,28.832008642923313L99.41006128034593,28.83805222075719L99.56831698007583,28.886005588337753L100.17183447904586,29.075919284193333L100.32740787878036,29.12667768789933L100.50175737848282,29.184435931754706L100.56210912837983,29.204657692186174L100.84509177789688,29.300908681780953L100.98725367765427,29.350175316274772L101.3144942770958,29.46594680726966L101.32522347707749,29.46979735686L101.54248977670669,29.548516870670852L101.6135707265854,29.574590956473088L102.37936737527848,29.86512894824625L102.60736287488938,29.95505585639455L102.62613897485733,29.962527452619554L102.7428190246582,30.009231304107914L102.98288487424851,30.106591557988594L103.02714282417297,30.12472229149023L103.26720867376326,30.224135321808177L103.66955367307662,30.39463051757727L103.6776005730629,30.398098562241444L103.9176664226532,30.502190902823173L104.28782382202148,30.666068763369083L105.00533907079698,30.995380004494137L105.19980582046509,31.087270437930272L105.3553792201996,31.16157839492564L105.46937697000504,31.216493352162985L105.5739866698265,31.26721350537636L105.61019771976471,31.284846982473937L105.6329972697258,31.295977875826196L106.3049134185791,31.630669686246392L106.36794746847153,31.662749099389885L106.53022661819459,31.745867419851976L106.8091858177185,31.890569033431348L106.84942031764983,31.91161955453626L107.53206566648484,32.276108498706975L107.5401125664711,32.280494555194L107.56961786642074,32.29655976209418L107.69032136621475,32.36255461202694L107.92904606580734,32.494314808936736L108.90808556413651,33.051943240507285L109.003307213974,33.10764870792539L109.22057351360321,33.23573685754374L109.34932391338347,33.312276093275244L109.54513181304931,33.429590354139094L110.16071966199874,33.805528945767264L110.26801166181563,33.87216130391036L110.66633321113586,34.12237052629837L110.70790886106492,34.14873786587739L111.14646491031647,34.429917237122964L111.34763740997315,34.56070842155307L111.61050280952455,34.733307394416244L111.88946200904846,34.91860553082904L111.89080315904617,34.91949804232351L112.00345975885392,34.99494076393327L112.21536145849227,35.13781910403114L112.47554455804826,35.31494438518757L112.64050600776672,35.42822959416219L112.78803250751494,35.53016715699303L112.95835855722429,35.64860343230703L113.34192745656968,35.91825665510996L113.35533895654679,35.92776827760801L113.57796985616685,36.08621456820197L113.8488821557045,36.28084582481395L114.32633155488969,36.628734055187834L114.3893656047821,36.67511915257103L114.60126730442047,36.831869671325535L114.64284295434952,36.862763319197825L114.80378095407487,36.98279336503765L114.86010925397873,37.02497090823272L114.94862515382766,37.09142476407689L115.21417285337448,37.292048597865914L115.40461615304946,37.43708171571467L115.73856250247955,37.69375527135537L116.39438485136033,38.20643937409807L116.61031000099183,38.37773783021217L116.64786220092773,38.407649715440584L116.70821395082474,38.45580708564847L117.27015579986572,38.90875666908377L118.37392224798202,39.82233143480673L118.39806294794083,39.84266794671609L118.52815449771882,39.952485111026505L118.59655314760208,40.010409107016585L118.81247829723358,40.19402422175412L119.26712814645768,40.5845235009061L119.34625599632263,40.653017383023325L119.59168644590378,40.86648063216825L119.61046254587174,40.88287734333781L119.97257304525375,41.200764437333845L120.00073719520569,41.2256272575365L120.32663664464951,41.5147499810827L120.43258749446869,41.60931794900219L120.5895020442009,41.74988850937865L121.3231110929489,42.41512832685194L121.48136679267884,42.560365447327996L121.5832941925049,42.65421940605191L121.93065204191208,42.97600805029512L122.03928519172668,43.0772443540946L122.61866199073792,43.62195686932398L122.78764689044952,43.782353935041556L122.82251679039001,43.81552986230682L122.9780901901245,43.9639290235061L123.18462728977204,44.16181157199071L123.25973168964386,44.23402850205622L123.32813033952714,44.29990860051112L123.35763563947677,44.328354216855786L123.40189358940125,44.371080017111694L123.43542233934403,44.403465434196164L123.78412133874893,44.74191854305727L123.78680363874435,44.74453232671959L123.9236009385109,44.87809029678252L123.92762438850403,44.88203009752232L124.13416148815155,45.084528205449686L124.35545123777389,45.30258151370896L124.55662373743058,45.50180282943526L124.73902013711928,45.683237666093504L124.9670156367302,45.91109585062759L125.15343548641205,46.098293761507165L125.78511713533402,46.7384667561505L125.79182288532257,46.74531359432939L125.854856935215,46.809701923572106L125.93532593507767,46.89201698368916L125.96617238502502,46.92361189059284L126.31889483442306,47.28641781308832L127.27647593278886,48.285240176695794L127.63858643217085,48.66816585830912L128.0382491314888,49.094097843790905L128.0623898314476,49.11992967647325L128.1696818312645,49.23491065728729L128.65383698043823,49.75680037858709L128.88317363004685,50.00574733471866L129.04277047977448,50.179634074166685L129.32843542928697,50.49221709985282L129.39683407917022,50.56731556702901L129.58995967884064,50.77987355451528L129.65299372873307,50.84941295009746L129.80990827846526,51.02287893412665L129.96548167819978,51.19537590567617L129.97486972818376,51.20579278983287L130.35709747753143,51.63175027564306L130.80235927677154,52.13167146401507L131.167152076149,52.54420302691584L131.2999259259224,52.6949992189859L131.6137550253868,53.05283257744085L131.71165897521973,53.16485552015904L131.78810452508927,53.25246189842177L132.47209102392196,54.04131455787689L132.56328922376633,54.14717917128331L132.66655777359009,54.26724746761579L132.68533387355805,54.28908849890148L132.7376387234688,54.34999603331585L132.78055552339555,54.40001492749789L133.33445047245024,55.0486285308459L133.57451632204055,55.331529174259344L134.0814710211754,55.93244441331089L134.15657542104722,56.02187406505519L134.16194002103808,56.028261897322636L134.24911477088926,56.132188485769674L134.3362895207405,56.23626807618719L134.63804827022554,56.59758222947053L134.6595066701889,56.62333756116762L134.85263226985933,56.855505301203465L134.8875021697998,56.89750434209962L134.93712471971511,56.95728986206382L135.4507851688385,57.57880936647307L135.47626701879503,57.609760390084304L135.61306431856153,57.776124532650485L135.96712791795733,58.20822122252609L136.11867786769866,58.39383173796199L136.16561811761858,58.45140510443636L136.73292456665038,59.15014597836216L137.78438616485596,60.45942846531541L137.82998526477814,60.5166129517815L137.9359361145973,60.64962903986563L138.23903601408006,61.031139453252024L138.308775813961,61.119128336440966L138.4965368136406,61.356402517241506L138.8224362630844,61.769565213270496L139.16040606250763,62.19978125392565L139.37633121213915,62.47556093062978L139.70088951158522,62.89142666147055L139.743806311512,62.94653924625308L140.02813011102677,63.312335082254975L140.28563091058732,63.644668112296955L140.39962866039275,63.79210463609863L140.57666046009064,64.02144821476276L140.8475727596283,64.37328899604066L140.89048955955505,64.42912196510086L140.9401121094704,64.49371429697091L141.04740410928727,64.63348797208447L141.24991775894165,64.89776700067435L141.50205395851137,65.22761374869607L141.5436296084404,65.28209520035038L141.58788755836486,65.34010844748988L141.74077865810392,65.54073865636099L141.82527110795976,65.65175433610685L142.14178250741958,66.06848707811365L142.1806758573532,66.11979373888053L143.2079967556,67.48225716073904L143.22543170557023,67.50550071008745L143.32199450540543,67.63429649381924L143.51377895507812,67.89046641797378L144.03012170419694,68.58247520519858L144.10656725406648,68.68521602837441L144.24872915382386,68.87646211638956L144.3359039036751,68.99386562840286L144.39625565357207,69.07519255079391L144.614863103199,69.37016759971091L145.02793730249405,69.92910929819472L145.74813485126495,70.9084430358126L145.93723700094222,71.16657648525498L146.53673104991913,71.98756593359252L146.65072879972456,72.14413157496604L146.67218719968798,72.17361632969353L147.18450649881365,72.87907654015615L147.2073060487747,72.91053757033565L147.38165554847717,73.15129254596458L147.49028869829178,73.30145760490642L147.57343999814987,73.41648321129522L147.84435229768755,73.79173329405623L148.13001724720002,74.18821877530313L148.9668948457718,75.3543551687102L148.99371784572602,75.39184065147725L149.2699947452545,75.77834275415049L149.50335484485626,76.10535259063627L149.70452734451294,76.38764760124991L149.7313503444672,76.42531796139797L149.73537379446032,76.43096628414143L149.84937154426575,76.59112747182118L149.85339499425888,76.59678216964676L150.3348678434372,77.27449802279607L150.36973774337767,77.32365628089417L151.1864980919838,78.47801152257445L151.26562594184875,78.59013009152414L151.71893464107512,79.23339500098753L151.84902619085312,79.41829150722785L152.1816313902855,79.89159035273671L152.75832588930132,80.71412894602537L153.40073673820496,81.63309703120764L153.6099561378479,81.93297451826203L153.94256133728027,82.41027691533174L154.08606438703538,82.61641519514005L154.30869528665545,82.9364698170512L154.47902133636475,83.1815279730998L154.6627588860512,83.44607475513803L154.737863285923,83.55426627351214L154.78078008584978,83.61610456991357L154.87600173568725,83.75334096235007L155.38563873481752,84.48868755771268L155.50500108461378,84.66111440335905L155.53584753456116,84.70568260234283L155.97708588380814,85.34376457005627L156.29091498327256,85.79816767221114L156.37808973312377,85.92447079884056L156.93869043216705,86.73751051979538L157.1237691318512,87.00622660552911L157.217649631691,87.14258323663535L157.31153013153076,87.2789717431521L157.4724681312561,87.51286713043794L157.5314787311554,87.59865023521915L157.71387513084412,87.86389190120664L157.90968303050994,88.14876882007209L157.98210513038634,88.25416805248497L158.08939713020325,88.4103511889323L158.23692362995146,88.62515958040102L158.44211957960127,88.9240680549757L158.54002352943422,89.06672964228206L158.79752432899474,89.44208810143881L158.8914048288345,89.57898661452383L158.9571211787224,89.67482959886397L159.67061297750473,90.71616100993587L160.27547162647247,91.59988764125143L160.41763352622988,91.8077025676529L160.42031582622528,91.8116232431464L160.78242632560728,92.34112481247743L161.31888632469176,93.1259484200433L161.69709062404633,93.67947129873937L161.72793707399367,93.72461963019454L161.94520337362292,94.04267247632525L162.088706423378,94.25276330703758L162.16783427324296,94.3686176740998L162.17990462322234,94.38628940168998L162.27512627305984,94.52571244728787L162.3757125228882,94.67298959403696L162.4870279726982,94.83598769325265L162.59297882251738,94.99113806639923L162.7284349722862,95.18949874604161L162.75525797224043,95.22877562687967L162.8571853720665,95.37804179924497L162.93363092193604,95.48999461606L162.94838357191085,95.51159339422578L163.5170311709404,96.34435761920803L163.54385417089463,96.3836345000461L164.0320327700615,97.0984915815289L164.30294506959916,97.4951428149105L164.34586186952592,97.55797562412003L164.41828396940232,97.66399961457905L164.53898746919631,97.8406913901525L164.80051171875,98.22348957012373L164.84208736867905,98.28433335371707L164.91585061855315,98.39228899405337L164.96279086847306,98.4609805037158L164.97620236845017,98.48060300642959L165.23772661800385,98.86326730967667L165.5810610174179,99.36548990268794L165.65482426729204,99.47336266695689L166.23151876630783,100.31641627445377L166.67275711555482,100.96099445083043L166.75054381542205,101.07457928866388L167.24676931457518,101.79883961624896L167.38624891433716,102.00229398649181L167.40502501430512,102.02968133920734L167.43050686426162,102.06684169278714L167.48549401416778,102.1470274754817L167.50427011413575,102.17440845311513L167.52438736410141,102.20374020587215L167.54182231407165,102.22916403329987L167.5941271639824,102.30542276541885L167.76847666368485,102.55955903838247L167.99915446329118,102.89565974194748L168.22580881290435,103.22572324276071L168.46185121250153,103.56927641730441L168.58523701229095,103.74878597916748L168.68179981212617,103.88922903790188L168.70057591209414,103.91653988963219L169.26654121112824,104.73895098127876L169.34298676099777,104.8499347856141L169.50794821071625,105.08935099400134L169.7439906103134,105.43173115343804L169.87810561008453,105.6261520323406L170.0162440598488,105.82632323530028L170.46418815908433,106.47481571208833L171.35068830757143,107.75526370268862L171.40433430747987,107.83261894892935L171.44859225740433,107.8964207706186L171.6953638569832,108.2519782247627L172.26937605600355,109.07767248369244L172.45311360569,109.34155625719193L173.3329080041885,110.60214586704062L173.33424915418624,110.6040647667537L173.4120358540535,110.71527169896264L173.68026585359573,111.09843325861378L173.78621670341494,111.24964383102056L174.110775002861,111.71234729007385L174.4339921523094,112.17237958972586L174.60565935201643,112.41639223230955L174.64991730194092,112.47926647955276L174.91010040149686,112.84858773595775L174.99056940135955,112.96270170560578L175.13541360111236,113.16798253687122L175.18369500102995,113.2363744176748L175.2091768509865,113.2724605699202L175.33792725076674,113.45471779216976L175.95083279972079,114.32047306703629L176.0058199496269,114.39799406541171L176.1238411494255,114.56428808207477L176.4215764489174,114.98327122806401L176.6267723985672,115.27157475355997L176.88024974813462,115.62720233360719L176.91780194807052,115.67983819899261L177.66214019680024,116.72046835103316L177.9223232963562,117.08298420729295L177.97462814626692,117.15578126982984L178.24151699581148,117.52681742332062L178.80479999485016,118.30757372850462L178.99390214452742,118.56895846981963L179.16288704423906,118.8022195364362L179.36674184389113,119.08321403030078L179.68727669334413,119.52414658397149L180.10571549263,120.09807610048003L180.32968754224777,120.40448167160812L180.34041674222948,120.41914436044559L180.8138426914215,121.06488598930608L181.1840000907898,121.56797240594236L181.2550810406685,121.66439552275388L181.73387158985136,122.31232061723475L181.74996538982393,122.33405008458364L182.08122943925858,122.78064689870308L182.09061748924256,122.79328231143171L182.23277938899994,122.98450927420053L182.44870453863143,123.27447350858438L182.56940803842542,123.43631134285727L183.00394063768388,124.01739688902668L183.23327728729248,124.32309801358238L183.29899363718033,124.41057370266202L183.34995733709337,124.47836951328895L183.39555643701553,124.53900291917287L183.44652013692857,124.60673497897878L183.49882498683928,124.67621381128095L183.6543983865738,124.88265809503022L183.75900808639528,125.02129063044731L183.77778418636322,125.04615982573206L183.8005837363243,125.07634902703197L183.94542793607712,125.2679839950554L184.5891799349785,126.11623966954853L184.8439984345436,126.45042784848256L184.9995718342781,126.65401290790854L185.29462483377458,127.03917943088113L185.33351818370818,127.08985814606085L185.95178833265302,127.89256067138527L186.29646388206484,128.33762746579993L186.33535723199844,128.38773879867244L186.41716738185883,128.49307109272326L186.82487698116302,129.01650358389202L187.05019018077851,129.30468917036907L187.7328355296135,130.1730454787337L187.75295277957915,130.1985234943593L188.1512743288994,130.70170872476817L188.90634177761078,131.64857098169318L189.35965047683717,132.21254899503856L189.36099162683485,132.21421289146753L189.5098592765808,132.3986758921248L189.54741147651671,132.44515024065745L189.58764597644807,132.49491413155533L189.6426331263542,132.56288525694012L189.7982065260887,132.75491548005397L190.22200992536546,133.27594775281085L190.27833822526932,133.34496757920158L190.71823542451858,133.8821001218102L190.75981107444764,133.93269277338155L191.152768023777,134.40937359994618L191.27749497356416,134.5601060411952L191.29358877353667,134.5795372914459L191.43440952329635,134.7493471658889L191.87564787254334,135.2791228637504L192.6012100213051,136.14260860938816L192.63339762125017,136.1806933498729L192.67765557117463,136.23302639885844L193.26373812017442,136.92259671717872L193.35225402002334,137.02618542627428L193.38980621995927,137.07008742917827L193.8390914691925,137.59326172952183L194.0791573187828,137.87123124692843L194.14487366867064,137.9471297869086L194.1488971186638,137.9517740342208L194.1636497686386,137.9687986909775L194.2226603685379,138.03686066128222L194.52441911802293,138.38385000507958L194.85568316745758,138.76272272824576L196.4033702648163,140.50395687195677L196.72926971426008,140.86442951440245L197.06187491369246,141.23006278581073L197.13295586357117,141.30790413206182L197.2791412133217,141.46766368956906L197.45751416301727,141.66199372355166L197.70428576259613,141.92973920303518L197.87595296230316,142.1152397483048L197.94703391218187,142.19186664141523L198.0033622120857,142.25251279746334L198.14954756183624,142.40959003917567L198.15893561182023,142.41966266889878L198.20185241174698,142.465681199061L198.24476921167374,142.51166147873064L198.32657936153413,142.5992009186313L198.35072006149292,142.62500565721473L198.64040846099854,142.93368075757158L198.89790926055906,143.2065390529019L199.03738886032104,143.35373651112468L199.12054016017913,143.44128870118956L199.3539002597809,143.68619226149715L199.63285945930483,143.97738369918588L200.0271575586319,144.3860423997089L200.08080355854034,144.44137651859455L200.25783535823822,144.6235221769073L200.3758565580368,144.74456426703102L200.39195035800935,144.76104544803843L200.402679557991,144.7720297145023L200.5046069578171,144.87625274426716L200.56227640771866,144.93511865863798L200.732602457428,145.10854001709245L200.9364572570801,145.31523930412587L201.0719134068489,145.45206450376668L201.26772130651474,145.64911510403684L201.3937894062996,145.7755202319799L201.596303055954,145.97781433727997L202.11532810506822,146.49196789644748L202.41440455455782,146.78540495680704L202.49487355442048,146.86400015651685L202.52840230436325,146.8967043277065L203.17215430326462,147.51949566099532L203.18690695323946,147.5336531245761L203.425631652832,147.76203565961316L203.4564781027794,147.79144710089645L203.49805375270842,147.83105229846285L203.68849705238344,148.01194525314233L203.70727315235138,148.02973173221037L204.53342155094148,148.80400298512484L204.76141705055235,149.01477754339277L205.08329305000305,149.31018609789277L205.10475144996644,149.32978947536023L205.4722265493393,149.6637513388796L205.62243534908293,149.7993047096408L205.86116004867554,150.01358875060657L205.9040768486023,150.0519619635565L206.0006396484375,150.13813554211654L206.34933864784242,150.44738121232163L206.54648769750597,150.6208806655319L207.0413720466614,151.05209520342146L207.05880699663163,151.06717386636615L207.17280474643707,151.1655796337118L207.64891299562453,151.57300077142156L207.67975944557188,151.59919837443957L207.68646519556046,151.60488972898722L207.71328819551468,151.62764558455476L207.85545009527206,151.74794497761343L208.3168056944847,152.13477938144132L208.70305689382553,152.45442201367152L209.04773244323732,152.7363942857537L209.49969999246596,153.10144742469058L209.59492164230346,153.17767587516954L209.69953134212494,153.2611448251473L210.12199359140396,153.59530112867083L210.12869934139252,153.6005669464881L210.14881659135818,153.61635802485782L210.59139609060287,153.96104835467168L210.63431289052963,153.99419639095274L210.89851944007873,154.1971805988905L211.20698393955232,154.43180593307713L211.31829938936232,154.51584943732942L211.34378123931884,154.53504162200124L211.4819196890831,154.63877775487046L211.55836523895263,154.69596463199233L211.85610053844454,154.91719034048322L212.11091903800965,155.10462333251536L212.49717023735047,155.38537079194845L212.53472243728638,155.41244895318198L212.65006133708954,155.4953768180662L213.1610394862175,155.85838993073003L213.19054478616715,155.87913285412347L213.58886633548738,156.15681310217963L213.7833330851555,156.29078943700557L213.8450259850502,156.33307376282585L214.5504708838463,156.80907404937594L214.60411688375473,156.84470438325096L214.61484608373644,156.85182136553397L214.64435138368606,156.87137533611514L214.65776288366317,156.8802550285997L214.75969028348922,156.94757908315097L214.8052893834114,156.97760332920146L214.92196943321227,157.0541656746056L214.96354508314133,157.0813538060054L215.58986213207243,157.48505906773423L215.82724568166734,157.635179899544L215.91039698152542,157.6873874391006L216.22288493099214,157.88183541210208L216.2309318309784,157.88680598392946L217.06915057954788,158.39447688148323L217.11743197946547,158.42310737520887L217.24752352924347,158.4999175519298L217.50636547880174,158.6513018453239L217.52916502876283,158.6645436877376L217.5305061787605,158.66532224463944L217.93151002807616,158.89576432963847L217.97979142799377,158.923197104814L218.27350327749252,159.08862729785204L218.4626054271698,159.1938157541129L218.8569035264969,159.40980592642654L219.06612292613985,159.52257594907866L219.25790737581252,159.62482748470308L219.37324627561568,159.68580394969268L219.3866577755928,159.6928691344336L219.57575992527006,159.79192675392432L219.6361116751671,159.8233204472991L219.66964042510986,159.8407152572604L219.8386253248215,159.92788374707118L219.93250582466126,159.9759486785886L220.15916017427443,160.0909236827632L220.25169952411653,160.1374318989195L220.33082737398146,160.17700004132115L220.4904242237091,160.25624510096287L220.65672682342532,160.33802066975693L221.6652716217041,160.81641519807945L222.11053342094422,161.0180048568071L222.12528607091906,161.02458274620975L222.24330727071762,161.07697297171288L222.29561212062836,161.1000581401153L222.3505992705345,161.12423922497553L222.53970142021177,161.2067080839483L223.04933841934204,161.42363180734742L223.16601846914293,161.47219937424438L223.56434001846313,161.634915376077L224.36903001708984,161.94903997630425L224.4494990169525,161.97937580449252L224.4629105169296,161.98441271701802L224.63055426664351,162.04691461962216L225.39769206533433,162.32204065118938L225.56667696504596,162.38023997103778L225.69945081481933,162.42535782163162L225.88184721450804,162.48646138982068L226.04546751422882,162.54041092056198L226.12325421409608,162.5657723917179L226.21579356393815,162.59570300374997L226.221158163929,162.59743025255733L226.35661431369783,162.64074734167832L226.47195321350097,162.67718900436165L226.49207046346663,162.68350332396358L227.24713791217803,162.9115361259809L227.3986878619194,162.9551966726502L227.57035506162643,163.0038002986053L227.5904723115921,163.00943666806984L227.6843528114319,163.03557540118905L227.8426085111618,163.07902387676776L227.9110071610451,163.09756381085188L228.00354651088713,163.1224179649273L228.008911110878,163.12385066501935L228.71569715967178,163.30485199609458L228.7411790096283,163.31108961548998L228.8484710094452,163.3371335192629L229.01209130916598,163.37616545749327L229.15291205892564,163.4090956452656L229.39297790851595,163.46381900140253L229.4117540084839,163.46802381629757L229.4600354084015,163.4787860506051L229.51502255830766,163.49095513603893L229.64109065809248,163.51850136775374L229.70680700798036,163.5326653558326L229.72826540794372,163.53726129197577L229.83689855775833,163.56030935540812L229.94821400756837,163.58354692811707L230.06489405736923,163.60749173649683L230.08903475732805,163.612393078917L230.27009000701904,163.64857674999644L230.45248640670778,163.68399929603916L230.971511455822,163.77914067271064L231.0211340057373,163.7877981836228L231.3792210551262,163.84800062399552L231.6554979546547,163.89172031449291L231.70512050457,163.8993209563252L232.76462900276184,164.04328099345943L232.85448605260848,164.05387854644684L232.93629620246887,164.06330771622282L233.0717523522377,164.07846029027564L233.41911020164488,164.1146964561718L233.5049438014984,164.1230694292398L234.05883875055312,164.1715606072135L234.25062320022582,164.18611357491133L234.68515579948428,164.21482780384628L234.9547269490242,164.22967014673083L235.05933664884566,164.23481700140712L235.0714069988251,164.2353888163886L235.48448119812014,164.25220740359686L235.66687759780885,164.25793270670184L235.6869948477745,164.25850035982552L236.00350624723436,164.26576239545977L236.08665754709244,164.26714961394802L236.45681494646072,164.2706962125108L236.56813039627073,164.27092309134827L236.57751844625471,164.27092447188974" fill="none"></path></g></g></g></g></g></g><g transform="translate(61, 177)" clip-path="url(#clip_1)"><clipPath id="clip_1"><rect width="268" height="22"></rect></clipPath><g><g><line x1="0" y1="0" x2="0" y2="5" style="visibility: inherit;" fill="rgb(0, 0, 0)" stroke="rgb(204, 204, 204)" stroke-width="1px"></line><line x1="26.822999954223633" y1="0" x2="26.822999954223633" y2="5" style="visibility: inherit;" fill="rgb(0, 0, 0)" stroke="rgb(204, 204, 204)" stroke-width="1px"></line><line x1="53.645999908447266" y1="0" x2="53.645999908447266" y2="5" style="visibility: inherit;" fill="rgb(0, 0, 0)" stroke="rgb(204, 204, 204)" stroke-width="1px"></line><line x1="80.4689998626709" y1="0" x2="80.4689998626709" y2="5" style="visibility: inherit;" fill="rgb(0, 0, 0)" stroke="rgb(204, 204, 204)" stroke-width="1px"></line><line x1="107.29199981689453" y1="0" x2="107.29199981689453" y2="5" style="visibility: inherit;" fill="rgb(0, 0, 0)" stroke="rgb(204, 204, 204)" stroke-width="1px"></line><line x1="134.11499977111816" y1="0" x2="134.11499977111816" y2="5" style="visibility: inherit;" fill="rgb(0, 0, 0)" stroke="rgb(204, 204, 204)" stroke-width="1px"></line><line x1="160.9379997253418" y1="0" x2="160.9379997253418" y2="5" style="visibility: inherit;" fill="rgb(0, 0, 0)" stroke="rgb(204, 204, 204)" stroke-width="1px"></line><line x1="187.76099967956543" y1="0" x2="187.76099967956543" y2="5" style="visibility: inherit;" fill="rgb(0, 0, 0)" stroke="rgb(204, 204, 204)" stroke-width="1px"></line><line x1="214.58399963378906" y1="0" x2="214.58399963378906" y2="5" style="visibility: inherit;" fill="rgb(0, 0, 0)" stroke="rgb(204, 204, 204)" stroke-width="1px"></line><line x1="241.4069995880127" y1="0" x2="241.4069995880127" y2="5" style="visibility: inherit;" fill="rgb(0, 0, 0)" stroke="rgb(204, 204, 204)" stroke-width="1px"></line><line x1="268.2299995422363" y1="0" x2="268.2299995422363" y2="5" style="visibility: inherit;" fill="rgb(0, 0, 0)" stroke="rgb(204, 204, 204)" stroke-width="1px"></line></g><g transform="translate(0, 8)"><text style="text-anchor: middle; visibility: hidden; font-family: &quot;Helvetica Neue&quot;, sans-serif; font-size: 12px; font-weight: 200;" x="0" y="0" dx="0em" dy="0.95em" fill="rgb(50, 49, 63)" stroke="none" stroke-width="1px">-20k</text><text style="text-anchor: middle; visibility: inherit; font-family: &quot;Helvetica Neue&quot;, sans-serif; font-size: 12px; font-weight: 200;" x="26.822999954223633" y="0" dx="0em" dy="0.95em" fill="rgb(50, 49, 63)" stroke="none" stroke-width="1px">0</text><text style="text-anchor: middle; visibility: hidden; font-family: &quot;Helvetica Neue&quot;, sans-serif; font-size: 12px; font-weight: 200;" x="53.645999908447266" y="0" dx="0em" dy="0.95em" fill="rgb(50, 49, 63)" stroke="none" stroke-width="1px">20k</text><text style="text-anchor: middle; visibility: inherit; font-family: &quot;Helvetica Neue&quot;, sans-serif; font-size: 12px; font-weight: 200;" x="80.4689998626709" y="0" dx="0em" dy="0.95em" fill="rgb(50, 49, 63)" stroke="none" stroke-width="1px">40k</text><text style="text-anchor: middle; visibility: hidden; font-family: &quot;Helvetica Neue&quot;, sans-serif; font-size: 12px; font-weight: 200;" x="107.29199981689453" y="0" dx="0em" dy="0.95em" fill="rgb(50, 49, 63)" stroke="none" stroke-width="1px">60k</text><text style="text-anchor: middle; visibility: inherit; font-family: &quot;Helvetica Neue&quot;, sans-serif; font-size: 12px; font-weight: 200;" x="134.11499977111816" y="0" dx="0em" dy="0.95em" fill="rgb(50, 49, 63)" stroke="none" stroke-width="1px">80k</text><text style="text-anchor: middle; visibility: hidden; font-family: &quot;Helvetica Neue&quot;, sans-serif; font-size: 12px; font-weight: 200;" x="160.9379997253418" y="0" dx="0em" dy="0.95em" fill="rgb(50, 49, 63)" stroke="none" stroke-width="1px">100k</text><text style="text-anchor: middle; visibility: inherit; font-family: &quot;Helvetica Neue&quot;, sans-serif; font-size: 12px; font-weight: 200;" x="187.76099967956543" y="0" dx="0em" dy="0.95em" fill="rgb(50, 49, 63)" stroke="none" stroke-width="1px">120k</text><text style="text-anchor: middle; visibility: hidden; font-family: &quot;Helvetica Neue&quot;, sans-serif; font-size: 12px; font-weight: 200;" x="214.58399963378906" y="0" dx="0em" dy="0.95em" fill="rgb(50, 49, 63)" stroke="none" stroke-width="1px">140k</text><text style="text-anchor: middle; visibility: inherit; font-family: &quot;Helvetica Neue&quot;, sans-serif; font-size: 12px; font-weight: 200;" x="241.4069995880127" y="0" dx="0em" dy="0.95em" fill="rgb(50, 49, 63)" stroke="none" stroke-width="1px">160k</text><text style="text-anchor: middle; visibility: hidden; font-family: &quot;Helvetica Neue&quot;, sans-serif; font-size: 12px; font-weight: 200;" x="268.2299995422363" y="0" dx="0em" dy="0.95em" fill="rgb(50, 49, 63)" stroke="none" stroke-width="1px">180k</text></g><line x1="0" y1="0" x2="268.2299995422363" y2="0" fill="rgb(0, 0, 0)" stroke="rgb(204, 204, 204)" stroke-width="1px"></line></g></g></g></g></svg>