<svg viewBox="0 0 330 200" xmlns="http://www.w3.org/2000/svg"><g><g><g><g><g><line x1="51.41600036621094" y1="177.9749994277954" x2="46.41600036621094" y2="177.9749994277954" style="visibility: inherit;" fill="rgb(0, 0, 0)" stroke="rgb(204, 204, 204)" stroke-width="1px"></line><line x1="51.41600036621094" y1="158.1999994913737" x2="46.41600036621094" y2="158.1999994913737" style="visibility: inherit;" fill="rgb(0, 0, 0)" stroke="rgb(204, 204, 204)" stroke-width="1px"></line><line x1="51.41600036621094" y1="138.42499955495197" x2="46.41600036621094" y2="138.42499955495197" style="visibility: inherit;" fill="rgb(0, 0, 0)" stroke="rgb(204, 204, 204)" stroke-width="1px"></line><line x1="51.41600036621094" y1="118.64999961853027" x2="46.41600036621094" y2="118.64999961853027" style="visibility: inherit;" fill="rgb(0, 0, 0)" stroke="rgb(204, 204, 204)" stroke-width="1px"></line><line x1="51.41600036621094" y1="98.87499968210855" x2="46.41600036621094" y2="98.87499968210855" style="visibility: inherit;" fill="rgb(0, 0, 0)" stroke="rgb(204, 204, 204)" stroke-width="1px"></line><line x1="51.41600036621094" y1="79.09999974568686" x2="46.41600036621094" y2="79.09999974568686" style="visibility: inherit;" fill="rgb(0, 0, 0)" stroke="rgb(204, 204, 204)" stroke-width="1px"></line><line x1="51.41600036621094" y1="59.32499980926514" x2="46.41600036621094" y2="59.32499980926514" style="visibility: inherit;" fill="rgb(0, 0, 0)" stroke="rgb(204, 204, 204)" stroke-width="1px"></line><line x1="51.41600036621094" y1="39.54999987284347" x2="46.41600036621094" y2="39.54999987284347" style="visibility: inherit;" fill="rgb(0, 0, 0)" stroke="rgb(204, 204, 204)" stroke-width="1px"></line><line x1="51.41600036621094" y1="19.77499993642172" x2="46.41600036621094" y2="19.77499993642172" style="visibility: inherit;" fill="rgb(0, 0, 0)" stroke="rgb(204, 204, 204)" stroke-width="1px"></line><line x1="51.41600036621094" y1="0" x2="46.41600036621094" y2="0" style="visibility: inherit;" fill="rgb(0, 0, 0)" stroke="rgb(204, 204, 204)" stroke-width="1px"></line></g><g transform="translate(41.41600036621094, 0)"><text style="text-anchor: end; visibility: hidden; font-family: &quot;Helvetica Neue&quot;, sans-serif; font-size: 12px; font-weight: 200;" x="0" y="177.9749994277954" dx="0em" dy="0.3em" fill="rgb(50, 49, 63)" stroke="none" stroke-width="1px">0.35</text><text style="text-anchor: end; visibility: inherit; font-family: &quot;Helvetica Neue&quot;, sans-serif; font-size: 12px; font-weight: 200;" x="0" y="158.1999994913737" dx="0em" dy="0.3em" fill="rgb(50, 49, 63)" stroke="none" stroke-width="1px">0.4</text><text style="text-anchor: end; visibility: hidden; font-family: &quot;Helvetica Neue&quot;, sans-serif; font-size: 12px; font-weight: 200;" x="0" y="138.42499955495197" dx="0em" dy="0.3em" fill="rgb(50, 49, 63)" stroke="none" stroke-width="1px">0.45</text><text style="text-anchor: end; visibility: inherit; font-family: &quot;Helvetica Neue&quot;, sans-serif; font-size: 12px; font-weight: 200;" x="0" y="118.64999961853027" dx="0em" dy="0.3em" fill="rgb(50, 49, 63)" stroke="none" stroke-width="1px">0.5</text><text style="text-anchor: end; visibility: hidden; font-family: &quot;Helvetica Neue&quot;, sans-serif; font-size: 12px; font-weight: 200;" x="0" y="98.87499968210855" dx="0em" dy="0.3em" fill="rgb(50, 49, 63)" stroke="none" stroke-width="1px">0.55</text><text style="text-anchor: end; visibility: inherit; font-family: &quot;Helvetica Neue&quot;, sans-serif; font-size: 12px; font-weight: 200;" x="0" y="79.09999974568686" dx="0em" dy="0.3em" fill="rgb(50, 49, 63)" stroke="none" stroke-width="1px">0.6</text><text style="text-anchor: end; visibility: hidden; font-family: &quot;Helvetica Neue&quot;, sans-serif; font-size: 12px; font-weight: 200;" x="0" y="59.32499980926514" dx="0em" dy="0.3em" fill="rgb(50, 49, 63)" stroke="none" stroke-width="1px">0.65</text><text style="text-anchor: end; visibility: inherit; font-family: &quot;Helvetica Neue&quot;, sans-serif; font-size: 12px; font-weight: 200;" x="0" y="39.54999987284347" dx="0em" dy="0.3em" fill="rgb(50, 49, 63)" stroke="none" stroke-width="1px">0.7</text><text style="text-anchor: end; visibility: hidden; font-family: &quot;Helvetica Neue&quot;, sans-serif; font-size: 12px; font-weight: 200;" x="0" y="19.77499993642172" dx="0em" dy="0.3em" fill="rgb(50, 49, 63)" stroke="none" stroke-width="1px">0.75</text><text style="text-anchor: end; visibility: hidden; font-family: &quot;Helvetica Neue&quot;, sans-serif; font-size: 12px; font-weight: 200;" x="0" y="0" dx="0em" dy="0.3em" fill="rgb(50, 49, 63)" stroke="none" stroke-width="1px">0.8</text></g><line x1="51.41600036621094" y1="0" x2="51.41600036621094" y2="177.9749994277954" fill="rgb(0, 0, 0)" stroke="rgb(204, 204, 204)" stroke-width="1px"></line></g></g><g transform="translate(51, 0)" clip-path="url(#clip_0)"><clipPath id="clip_0"><rect width="278" height="177"></rect></clipPath><g><g><g><line x1="0" y1="0" x2="0" y2="177.9749994277954" fill="rgb(0, 0, 0)" stroke="rgb(60, 60, 60)" stroke-width="1px" opacity="0.25"></line><line x1="23.215333302815754" y1="0" x2="23.215333302815754" y2="177.9749994277954" fill="rgb(0, 0, 0)" stroke="rgb(60, 60, 60)" stroke-width="1px" opacity="0.25"></line><line x1="46.43066660563151" y1="0" x2="46.43066660563151" y2="177.9749994277954" fill="rgb(0, 0, 0)" stroke="rgb(60, 60, 60)" stroke-width="1px" opacity="0.25"></line><line x1="69.64599990844727" y1="0" x2="69.64599990844727" y2="177.9749994277954" fill="rgb(0, 0, 0)" stroke="rgb(60, 60, 60)" stroke-width="1px" opacity="0.25"></line><line x1="92.86133321126302" y1="0" x2="92.86133321126302" y2="177.9749994277954" fill="rgb(0, 0, 0)" stroke="rgb(60, 60, 60)" stroke-width="1px" opacity="0.25"></line><line x1="116.07666651407878" y1="0" x2="116.07666651407878" y2="177.9749994277954" fill="rgb(0, 0, 0)" stroke="rgb(60, 60, 60)" stroke-width="1px" opacity="0.25"></line><line x1="139.29199981689453" y1="0" x2="139.29199981689453" y2="177.9749994277954" fill="rgb(0, 0, 0)" stroke="rgb(60, 60, 60)" stroke-width="1px" opacity="0.25"></line><line x1="162.5073331197103" y1="0" x2="162.5073331197103" y2="177.9749994277954" fill="rgb(0, 0, 0)" stroke="rgb(60, 60, 60)" stroke-width="1px" opacity="0.25"></line><line x1="185.72266642252603" y1="0" x2="185.72266642252603" y2="177.9749994277954" fill="rgb(0, 0, 0)" stroke="rgb(60, 60, 60)" stroke-width="1px" opacity="0.25"></line><line x1="208.9379997253418" y1="0" x2="208.9379997253418" y2="177.9749994277954" fill="rgb(0, 0, 0)" stroke="rgb(60, 60, 60)" stroke-width="1px" opacity="0.25"></line><line x1="232.15333302815756" y1="0" x2="232.15333302815756" y2="177.9749994277954" fill="rgb(0, 0, 0)" stroke="rgb(60, 60, 60)" stroke-width="1px" opacity="0.25"></line><line x1="255.3686663309733" y1="0" x2="255.3686663309733" y2="177.9749994277954" fill="rgb(0, 0, 0)" stroke="rgb(60, 60, 60)" stroke-width="1px" opacity="0.25"></line><line x1="278.58399963378906" y1="0" x2="278.58399963378906" y2="177.9749994277954" fill="rgb(0, 0, 0)" stroke="rgb(60, 60, 60)" stroke-width="1px" opacity="0.25"></line></g><g><line x1="0" y1="177.9749994277954" x2="278.58399963378906" y2="177.9749994277954" fill="rgb(0, 0, 0)" stroke="rgb(60, 60, 60)" stroke-width="1px" opacity="0.25"></line><line x1="0" y1="158.1999994913737" x2="278.58399963378906" y2="158.1999994913737" fill="rgb(0, 0, 0)" stroke="rgb(60, 60, 60)" stroke-width="1px" opacity="0.25"></line><line x1="0" y1="138.42499955495197" x2="278.58399963378906" y2="138.42499955495197" fill="rgb(0, 0, 0)" stroke="rgb(60, 60, 60)" stroke-width="1px" opacity="0.25"></line><line x1="0" y1="118.64999961853027" x2="278.58399963378906" y2="118.64999961853027" fill="rgb(0, 0, 0)" stroke="rgb(60, 60, 60)" stroke-width="1px" opacity="0.25"></line><line x1="0" y1="98.87499968210855" x2="278.58399963378906" y2="98.87499968210855" fill="rgb(0, 0, 0)" stroke="rgb(60, 60, 60)" stroke-width="1px" opacity="0.25"></line><line x1="0" y1="79.09999974568686" x2="278.58399963378906" y2="79.09999974568686" fill="rgb(0, 0, 0)" stroke="rgb(60, 60, 60)" stroke-width="1px" opacity="0.25"></line><line x1="0" y1="59.32499980926514" x2="278.58399963378906" y2="59.32499980926514" fill="rgb(0, 0, 0)" stroke="rgb(60, 60, 60)" stroke-width="1px" opacity="0.25"></line><line x1="0" y1="39.54999987284347" x2="278.58399963378906" y2="39.54999987284347" fill="rgb(0, 0, 0)" stroke="rgb(60, 60, 60)" stroke-width="1px" opacity="0.25"></line><line x1="0" y1="19.77499993642172" x2="278.58399963378906" y2="19.77499993642172" fill="rgb(0, 0, 0)" stroke="rgb(60, 60, 60)" stroke-width="1px" opacity="0.25"></line><line x1="0" y1="0" x2="278.58399963378906" y2="0" fill="rgb(0, 0, 0)" stroke="rgb(60, 60, 60)" stroke-width="1px" opacity="0.25"></line></g></g></g><g><g><line x1="0" y1="316.3999989827473" x2="278.58399963378906" y2="316.3999989827473" fill="rgb(0, 0, 0)" stroke="rgb(153, 153, 153)" stroke-width="1.5px"></line></g></g><g><g><line x1="23.215333302815754" y1="0" x2="23.215333302815754" y2="177.9749994277954" fill="rgb(0, 0, 0)" stroke="rgb(153, 153, 153)" stroke-width="1.5px"></line></g></g><g><g><g><g><g><path style="fill: none;" stroke="rgb(51, 187, 238)" stroke-width="2px" d="M26.69763329823812,178.18856714895247L27.858399963378908,165.65122301666418L29.019166628519695,157.07678405506925L30.179933293660483,158.14463444767313L31.34069995880127,158.11298684009074L32.50146662394206,154.86989088632424L33.66223328908285,156.665459451046L34.82299995422363,152.1172090884908L35.983766619364424,147.9486357223765L37.14453328450521,143.45575983297664L38.305299949646,150.63803409186363L39.46606661478678,143.8749933921909L40.626833279927574,138.17188234311263L41.78759994506836,140.1019149328995L42.94836661020915,136.84300106875102L44.10913327534993,130.69692959488552L45.269899940490724,134.10613718129952L46.43066660563151,129.58162547113577L47.5914332707723,126.03003311764715L48.75219993591308,122.38352151504833L49.912966601053874,120.46929504882496L51.07373326619466,116.60130912724176L52.23449993133545,120.71450802020073L53.39526659647624,115.54136768982887L54.556033261617024,111.80784579331082L55.716799926757815,108.35909343094188L56.8775665918986,109.46648859950066L58.03833325703939,109.0472550402864L59.199099922180174,100.8762317275238L60.359866587320965,107.76583928388914L61.52063325246175,104.60975362404186L62.68139991760254,100.14059281339648L63.842166582743324,101.22427290320077L65.00293324788412,96.43873031127926L66.1636999130249,99.2072182326762L67.3244665781657,93.89961387723922L68.48523324330647,92.4046209702301L69.64599990844727,94.96745248302462L70.80676657358805,89.63610947519624L71.96753323872885,93.72559328940072L73.12829990386963,91.85092338595072L74.28906656901042,92.07239770493509L75.4498332341512,89.52538410252252L76.610599899292,87.69816793021839L77.77136656443278,90.37174838932356L78.93213322957357,86.84388290140791L80.09289989471435,80.76900381107968L81.25366655985515,85.80768011638642L82.41443322499593,85.269800442489L83.57519989013672,83.99628185446424L84.7359665552775,83.16573547804516L85.8967332204183,81.71029913380941L87.05749988555908,80.50797292932195L88.21826655069987,82.43012013755477L89.37903321584066,79.71698311567623L90.53979988098145,81.28316840622263L91.70056654612223,78.77568779294651L92.86133321126302,84.4155154136785L94.02209987640381,78.45138526966093L95.1828665415446,81.18823737029395L96.34363320668538,80.94302439891817L97.50439987182617,78.91807256002109L98.66516653696696,78.45138526966093L99.82593320210775,77.20950250240011L100.98669986724853,83.48214083295822L102.14746653238932,80.2153062268003L103.30823319753011,78.60166720510801L104.4689998626709,81.10122707637471L105.62976652781168,85.14323358579638L106.79053319295248,77.5338285993226L107.95129985809326,81.09332990800219L109.11206652323405,79.32938537722589L110.27283318837483,80.05710354934376L111.43359985351563,75.9360074880123L112.59436651865641,74.12460922609012L113.7551331837972,77.27279771756488L114.91589984893798,82.00296583633107L116.07666651407878,80.26275995794619L117.23743317921956,74.61503516884167L118.39819984436035,78.49091825879736L119.55896650950113,77.6841105347697L120.71973317464193,76.12584598623275L121.88049983978271,74.78905575668016L123.0412665049235,78.33273915497777L124.2020331700643,76.9247565418879L125.36279983520508,78.49883900080683L126.52356650034586,76.56879462420149L127.68433316548665,80.43678054578467L128.84509983062745,73.84776043395043L130.00586649576823,76.1179252442233L131.16663316090902,74.81277083543463L132.3273998260498,75.7382482477824L133.4881664911906,69.29951007139525L134.6489331563314,76.77445103280388L135.80969982147215,68.92773024332686L136.97046648661293,77.21742324440956L138.13123315175375,74.69412472075147L139.29199981689453,69.55262021114353L140.45276648203532,72.81155764892894L141.6135331471761,71.767434121898L142.77429981231688,72.37650617933272L143.9350664774577,69.4418948384698L145.09583314259848,66.99770944035846L146.25659980773926,69.4181561860784L147.41736647288005,68.72207383472444L148.57813313802083,72.3211317061774L149.73889980316162,70.48601836550074L150.8996664683024,69.83738974529267L152.06043313344318,68.38195340105692L153.221199798584,69.56054095315297L154.38196646372478,74.7020454627609L155.54273312886556,70.20916957336105L156.70349979400635,66.99770944035846L157.86426645914713,67.12425272341413L159.02503312428792,66.43609111406963L160.1857997894287,67.8440737271595L161.3465664545695,66.51518066597941L162.5073331197103,68.7299945767339L163.66809978485108,66.81576811051052L164.82886644999186,62.61555892363231L165.98963311513265,67.59886075578372L167.15039978027343,60.479858138424575L168.31116644541422,66.42817037206017L169.471933110555,63.612228719517375L170.6326997756958,63.643864540281285L171.7934664408366,58.87413985874173L172.95423310597738,63.54893350435259L174.11499977111816,61.508163755073554L175.27576643625895,59.7521399663067L176.43653310139973,61.389517640390366L177.59729976654052,60.511493959188485L178.75806643168133,56.88080026697162L179.9188330968221,57.78253902692798L181.0795997619629,58.8187653855864L182.24036642710368,57.67971082262679L183.40113309224446,56.999469955291715L184.56189975738525,54.207219807866466L185.72266642252603,55.219707514133475L186.88343308766682,56.1372641844718L188.04419975280763,56.60395147483193L189.2049664179484,56.058174632562L190.3657330830892,54.776758876164735L191.52649974822998,53.59817132406867L192.68726641337076,53.57443267167727L193.84803307851155,52.12689349581403L195.00879974365233,48.749333516982404L196.16956640879314,48.092807728401795L197.33033307393393,47.81595893626209L198.4910997390747,48.45666681446073L199.6518664042155,49.8171721227678L200.81263306935628,46.13902469940504L201.97339973449706,46.24977364571569L203.13416639963785,44.50956776733082L204.29493306477863,44.612395971632026L205.45569972991944,44.12197002888047L206.61646639506023,46.210217082942336L207.777233060201,41.638251641632706L208.9379997253418,43.48126215068183L210.09876639048258,41.51958195331258L211.25953305562336,42.658636516272225L212.42029972076415,40.609946024983714L213.58106638590496,38.69571955876032L214.74183305104575,38.60870926484108L215.90259971618653,38.48214240814849L217.0633663813273,37.64369886335689L218.2241330464681,34.97011840425171L219.38489971160888,36.73403936139107L220.54566637674967,34.72490543287594L221.70643304189045,35.333977490310644L222.86719970703126,32.106699446926086L224.02796637217205,31.988029758606018L225.18873303731283,31.81400917076749L226.3494997024536,31.181222034578326L227.5102663675944,28.863579919522635L228.67103303273518,28.59465186939238L229.83179969787597,28.7765696256034L230.99256636301678,27.582164163125384L232.15333302815756,26.94937702693622L233.31409969329835,26.767435697088274L234.47486635843913,23.94357330253601L235.6356330235799,25.28826070046111L236.7963996887207,24.030583596455244L237.95716635386148,23.389875718256604L239.11793301900227,24.054298675209736L240.27869968414308,21.712941481399582L241.43946634928386,21.444013431269326L242.60023301442465,21.40445686849597L243.76099967956543,22.07680056745852L244.9217663447062,19.0393610222944L246.082533009847,20.41570781462036L247.24329967498778,19.98065634502413L248.4040663401286,19.96483843464216L249.56483300526938,19.8224536675676L250.72559967041016,19.569343527819314L251.88636633555095,19.4348795027542L253.04713300069173,18.896999828856764L254.2078996658325,19.553525617437344" fill="none"></path></g><g><path style="fill: none;" stroke="rgb(0, 119, 187)" stroke-width="2px" d="M25.53686663309733,192.60850192670026L26.69763329823812,169.82770533796943L27.858399963378908,162.82734883529344L29.019166628519695,153.61220199549993L30.179933293660483,155.35239608706632L31.34069995880127,152.7025542803526L32.50146662394206,150.92280362601278L33.66223328908285,153.21669530185858L34.82299995422363,151.31829853283566L35.983766619364424,149.53854787849585L37.14453328450521,142.18225303177036L38.305299949646,150.36909425491493L39.46606661478678,143.52695221651393L40.626833279927574,137.23849597557387L41.78759994506836,138.30634636817774L42.94836661020915,139.41375332355497L44.10913327534993,132.1365480287393L45.269899940490724,133.91629868307908L46.43066660563151,130.27769603567126L47.5914332707723,127.74650034364063L48.75219993591308,125.49215344374974L49.912966601053874,122.68409717276097L51.07373326619466,119.8364961258173L52.23449993133545,124.10789769623281L53.39526659647624,119.28279854153791L54.556033261617024,117.70080712742802L55.716799926757815,113.19208975400929L56.8775665918986,116.23745004118283L58.03833325703939,118.45224037830037L59.199099922180174,109.03935787191388L60.359866587320965,115.64419589413009L61.52063325246175,114.37859804811478L62.68139991760254,109.27665010128021L63.842166582743324,110.58180451006888L65.00293324788412,108.05060881803827L66.1636999130249,109.86990424833296L67.3244665781657,104.41199438381197L68.48523324330647,103.46280189270972L69.64599990844727,106.50813860624635L70.80676657358805,102.63225551629064L71.96753323872885,105.71714879260064L73.12829990386963,103.54189144461952L74.28906656901042,103.5814480073929L75.4498332341512,101.40619065941178L76.610599899292,100.8524930751324L77.77136656443278,104.25379170635544L78.93213322957357,102.79045819374717L80.09289989471435,96.38335583812393L81.25366655985515,99.94285714680352L82.41443322499593,100.5756442829927L83.57519989013672,100.65475740853944L84.7359665552775,98.00489202818873L85.8967332204183,99.19140032229423L87.05749988555908,97.53030756945607L88.21826655069987,98.99364108206434L89.37903321584066,97.60939712136587L90.53979988098145,96.38335583812393L91.70056654612223,93.33799555095038L92.86133321126302,101.24798798195525L94.02209987640381,96.54155851558048L95.1828665415446,98.08400515373546L96.34363320668538,99.86374402125678L97.50439987182617,95.94830436852772L98.66516653696696,95.90874780575434L99.82593320210775,94.72223951164885L100.98669986724853,102.51360940160748L102.14746653238932,96.69976119303699L103.30823319753011,97.21390221454303L104.4689998626709,98.87499496738117L105.62976652781168,99.86374402125678L106.79053319295248,95.2364041067918L107.95129985809326,97.49075100668271L109.11206652323405,96.93705342240332L110.27283318837483,100.93160620067913L111.43359985351563,96.2251531606674L112.59436651865641,94.2476550529162L113.7551331837972,95.2364041067918L114.91589984893798,99.54733866634372L116.07666651407878,100.7734035232226L117.23743317921956,94.72223951164885L118.39819984436035,99.86374402125678L119.55896650950113,99.34960299975076L120.71973317464193,97.17434565176966L121.88049983978271,94.88044218910538L123.0412665049235,98.79590541547138L124.2020331700643,96.89749685962995L125.36279983520508,99.42869255166056L126.52356650034586,95.79010169107119L127.68433316548665,99.82421103212035L128.84509983062745,94.2476550529162L130.00586649576823,96.62064806749027L131.16663316090902,93.61484434309007L132.3273998260498,99.66600835466382L133.4881664911906,90.72771030700999L134.6489331563314,100.73384696044923L135.80969982147215,89.81805080504417L136.97046648661293,96.8579402968566L138.13123315175375,95.79010169107119L139.29199981689453,91.40005400597254L140.45276648203532,93.37755211372375L141.6135331471761,94.76179607442221L142.77429981231688,93.89169313522977L143.9350664774577,90.84635642169314L145.09583314259848,91.95375159025193L146.25659980773926,91.7164593608856L147.41736647288005,91.91419502747856L148.57813313802083,93.89169313522977L149.73889980316162,92.07239770493509L150.8996664683024,90.84635642169314L152.06043313344318,93.77304702054661L153.221199798584,93.02159019603732L154.38196646372478,98.04444859096209L155.54273312886556,92.03284114216171L156.70349979400635,91.241851328516L157.86426645914713,91.75599235002203L159.02503312428792,91.7955489127954L160.1857997894287,93.53575479118028L161.3465664545695,90.49039450400672L162.5073331197103,92.94250064412752L163.66809978485108,93.10070332158406L164.82886644999186,90.29265883741375L165.98963311513265,92.54700573730467L167.15039978027343,86.57495485127765L168.31116644541422,89.85760736781754L169.471933110555,87.4450577904701L170.6326997756958,90.52995106678009L171.7934664408366,88.43380684434571L172.95423310597738,90.29265883741375L174.11499977111816,86.93089319532714L175.27576643625895,88.39425028157234L176.43653310139973,89.02706099139846L177.59729976654052,82.97589697982473L178.75806643168133,83.92508947092695L179.9188330968221,85.34888999439879L181.0795997619629,86.89136020619073L182.24036642710368,85.74440847485859L183.40113309224446,85.23024387971562L184.56189975738525,83.13409965728124L185.72266642252603,83.49003800133073L186.88343308766682,83.64824067878727L188.04419975280763,87.68235001983643L189.2049664179484,87.2472985502402L190.3657330830892,84.20193826306665L191.52649974822998,83.01545354259808L192.68726641337076,83.76691036710736L193.84803307851155,83.68779724156063L195.00879974365233,81.82894524849259L196.16956640879314,81.0774884239833L197.33033307393393,80.40514472502075L198.4910997390747,80.5237908397039L199.6518664042155,81.9871479259491L200.81263306935628,79.37683910837177L201.97339973449706,80.16785249565442L203.13416639963785,79.9305602662881L204.29493306477863,79.69324446328483L205.45569972991944,79.45595223391851L206.61646639506023,82.02670448872247L207.777233060201,76.48970507229168L208.9379997253418,78.62540585749942L210.09876639048258,79.29774955646197L211.25953305562336,80.12829593288106L212.42029972076415,79.13954687900545L213.58106638590496,78.22991095067657L214.74183305104575,76.84564341634118L215.90259971618653,79.02090076432228L217.0633663813273,79.53504178582831L218.2241330464681,74.27489116153721L219.38489971160888,76.96428953102433L220.54566637674967,77.20160533402759L221.70643304189045,75.85689436246555L222.86719970703126,75.65915869587259L224.02796637217205,75.65915869587259L225.18873303731283,76.45014850951831L226.3494997024536,75.14499410072965L227.5102663675944,74.63085307922363L228.67103303273518,75.54048900755251L229.83179969787597,74.35400428708394L230.99256636301678,73.76075014003118L232.15333302815756,74.07715549494425L233.31409969329835,73.9189528174877L234.47486635843913,72.89064720083873L235.6356330235799,74.4726504017671L236.7963996887207,73.95850938026108L237.95716635386148,73.72119357725782L239.11793301900227,73.0092933155219L240.27869968414308,72.21830350187618L241.43946634928386,72.29739305378598L242.60023301442465,73.28614210766159L243.76099967956543,72.25786006464956L244.9217663447062,70.4780976234913L246.082533009847,71.58549279205008L247.24329967498778,71.34820056268374L248.4040663401286,71.54595980291363L249.56483300526938,71.07135177054404L250.72559967041016,71.54595980291363L251.88636633555095,71.22955444800058L253.04713300069173,71.50640324014027L254.2078996658325,71.26911101077394" fill="none"></path></g></g></g></g></g></g><g transform="translate(51, 177)" clip-path="url(#clip_1)"><clipPath id="clip_1"><rect width="278" height="22"></rect></clipPath><g><g><line x1="0" y1="0" x2="0" y2="5" style="visibility: inherit;" fill="rgb(0, 0, 0)" stroke="rgb(204, 204, 204)" stroke-width="1px"></line><line x1="23.215333302815754" y1="0" x2="23.215333302815754" y2="5" style="visibility: inherit;" fill="rgb(0, 0, 0)" stroke="rgb(204, 204, 204)" stroke-width="1px"></line><line x1="46.43066660563151" y1="0" x2="46.43066660563151" y2="5" style="visibility: inherit;" fill="rgb(0, 0, 0)" stroke="rgb(204, 204, 204)" stroke-width="1px"></line><line x1="69.64599990844727" y1="0" x2="69.64599990844727" y2="5" style="visibility: inherit;" fill="rgb(0, 0, 0)" stroke="rgb(204, 204, 204)" stroke-width="1px"></line><line x1="92.86133321126302" y1="0" x2="92.86133321126302" y2="5" style="visibility: inherit;" fill="rgb(0, 0, 0)" stroke="rgb(204, 204, 204)" stroke-width="1px"></line><line x1="116.07666651407878" y1="0" x2="116.07666651407878" y2="5" style="visibility: inherit;" fill="rgb(0, 0, 0)" stroke="rgb(204, 204, 204)" stroke-width="1px"></line><line x1="139.29199981689453" y1="0" x2="139.29199981689453" y2="5" style="visibility: inherit;" fill="rgb(0, 0, 0)" stroke="rgb(204, 204, 204)" stroke-width="1px"></line><line x1="162.5073331197103" y1="0" x2="162.5073331197103" y2="5" style="visibility: inherit;" fill="rgb(0, 0, 0)" stroke="rgb(204, 204, 204)" stroke-width="1px"></line><line x1="185.72266642252603" y1="0" x2="185.72266642252603" y2="5" style="visibility: inherit;" fill="rgb(0, 0, 0)" stroke="rgb(204, 204, 204)" stroke-width="1px"></line><line x1="208.9379997253418" y1="0" x2="208.9379997253418" y2="5" style="visibility: inherit;" fill="rgb(0, 0, 0)" stroke="rgb(204, 204, 204)" stroke-width="1px"></line><line x1="232.15333302815756" y1="0" x2="232.15333302815756" y2="5" style="visibility: inherit;" fill="rgb(0, 0, 0)" stroke="rgb(204, 204, 204)" stroke-width="1px"></line><line x1="255.3686663309733" y1="0" x2="255.3686663309733" y2="5" style="visibility: inherit;" fill="rgb(0, 0, 0)" stroke="rgb(204, 204, 204)" stroke-width="1px"></line><line x1="278.58399963378906" y1="0" x2="278.58399963378906" y2="5" style="visibility: inherit;" fill="rgb(0, 0, 0)" stroke="rgb(204, 204, 204)" stroke-width="1px"></line></g><g transform="translate(0, 8)"><text style="text-anchor: middle; visibility: hidden; font-family: &quot;Helvetica Neue&quot;, sans-serif; font-size: 12px; font-weight: 200;" x="0" y="0" dx="0em" dy="0.95em" fill="rgb(50, 49, 63)" stroke="none" stroke-width="1px">-20</text><text style="text-anchor: middle; visibility: inherit; font-family: &quot;Helvetica Neue&quot;, sans-serif; font-size: 12px; font-weight: 200;" x="23.215333302815754" y="0" dx="0em" dy="0.95em" fill="rgb(50, 49, 63)" stroke="none" stroke-width="1px">0</text><text style="text-anchor: middle; visibility: hidden; font-family: &quot;Helvetica Neue&quot;, sans-serif; font-size: 12px; font-weight: 200;" x="46.43066660563151" y="0" dx="0em" dy="0.95em" fill="rgb(50, 49, 63)" stroke="none" stroke-width="1px">20</text><text style="text-anchor: middle; visibility: inherit; font-family: &quot;Helvetica Neue&quot;, sans-serif; font-size: 12px; font-weight: 200;" x="69.64599990844727" y="0" dx="0em" dy="0.95em" fill="rgb(50, 49, 63)" stroke="none" stroke-width="1px">40</text><text style="text-anchor: middle; visibility: hidden; font-family: &quot;Helvetica Neue&quot;, sans-serif; font-size: 12px; font-weight: 200;" x="92.86133321126302" y="0" dx="0em" dy="0.95em" fill="rgb(50, 49, 63)" stroke="none" stroke-width="1px">60</text><text style="text-anchor: middle; visibility: inherit; font-family: &quot;Helvetica Neue&quot;, sans-serif; font-size: 12px; font-weight: 200;" x="116.07666651407878" y="0" dx="0em" dy="0.95em" fill="rgb(50, 49, 63)" stroke="none" stroke-width="1px">80</text><text style="text-anchor: middle; visibility: hidden; font-family: &quot;Helvetica Neue&quot;, sans-serif; font-size: 12px; font-weight: 200;" x="139.29199981689453" y="0" dx="0em" dy="0.95em" fill="rgb(50, 49, 63)" stroke="none" stroke-width="1px">100</text><text style="text-anchor: middle; visibility: inherit; font-family: &quot;Helvetica Neue&quot;, sans-serif; font-size: 12px; font-weight: 200;" x="162.5073331197103" y="0" dx="0em" dy="0.95em" fill="rgb(50, 49, 63)" stroke="none" stroke-width="1px">120</text><text style="text-anchor: middle; visibility: hidden; font-family: &quot;Helvetica Neue&quot;, sans-serif; font-size: 12px; font-weight: 200;" x="185.72266642252603" y="0" dx="0em" dy="0.95em" fill="rgb(50, 49, 63)" stroke="none" stroke-width="1px">140</text><text style="text-anchor: middle; visibility: inherit; font-family: &quot;Helvetica Neue&quot;, sans-serif; font-size: 12px; font-weight: 200;" x="208.9379997253418" y="0" dx="0em" dy="0.95em" fill="rgb(50, 49, 63)" stroke="none" stroke-width="1px">160</text><text style="text-anchor: middle; visibility: hidden; font-family: &quot;Helvetica Neue&quot;, sans-serif; font-size: 12px; font-weight: 200;" x="232.15333302815756" y="0" dx="0em" dy="0.95em" fill="rgb(50, 49, 63)" stroke="none" stroke-width="1px">180</text><text style="text-anchor: middle; visibility: inherit; font-family: &quot;Helvetica Neue&quot;, sans-serif; font-size: 12px; font-weight: 200;" x="255.3686663309733" y="0" dx="0em" dy="0.95em" fill="rgb(50, 49, 63)" stroke="none" stroke-width="1px">200</text><text style="text-anchor: middle; visibility: hidden; font-family: &quot;Helvetica Neue&quot;, sans-serif; font-size: 12px; font-weight: 200;" x="278.58399963378906" y="0" dx="0em" dy="0.95em" fill="rgb(50, 49, 63)" stroke="none" stroke-width="1px">220</text></g><line x1="0" y1="0" x2="278.58399963378906" y2="0" fill="rgb(0, 0, 0)" stroke="rgb(204, 204, 204)" stroke-width="1px"></line></g></g></g></g></svg>