<svg viewBox="0 0 330 200" xmlns="http://www.w3.org/2000/svg"><g><g><g><g><g><line x1="72.1240005493164" y1="177.9749994277954" x2="67.1240005493164" y2="177.9749994277954" style="visibility: inherit;" fill="rgb(0, 0, 0)" stroke="rgb(204, 204, 204)" stroke-width="1px"></line><line x1="72.1240005493164" y1="158.19999949137363" x2="67.1240005493164" y2="158.19999949137363" style="visibility: inherit;" fill="rgb(0, 0, 0)" stroke="rgb(204, 204, 204)" stroke-width="1px"></line><line x1="72.1240005493164" y1="138.42499955495205" x2="67.1240005493164" y2="138.42499955495205" style="visibility: inherit;" fill="rgb(0, 0, 0)" stroke="rgb(204, 204, 204)" stroke-width="1px"></line><line x1="72.1240005493164" y1="118.64999961853027" x2="67.1240005493164" y2="118.64999961853027" style="visibility: inherit;" fill="rgb(0, 0, 0)" stroke="rgb(204, 204, 204)" stroke-width="1px"></line><line x1="72.1240005493164" y1="98.87499968210851" x2="67.1240005493164" y2="98.87499968210851" style="visibility: inherit;" fill="rgb(0, 0, 0)" stroke="rgb(204, 204, 204)" stroke-width="1px"></line><line x1="72.1240005493164" y1="79.0999997456869" x2="67.1240005493164" y2="79.0999997456869" style="visibility: inherit;" fill="rgb(0, 0, 0)" stroke="rgb(204, 204, 204)" stroke-width="1px"></line><line x1="72.1240005493164" y1="59.32499980926514" x2="67.1240005493164" y2="59.32499980926514" style="visibility: inherit;" fill="rgb(0, 0, 0)" stroke="rgb(204, 204, 204)" stroke-width="1px"></line><line x1="72.1240005493164" y1="39.54999987284336" x2="67.1240005493164" y2="39.54999987284336" style="visibility: inherit;" fill="rgb(0, 0, 0)" stroke="rgb(204, 204, 204)" stroke-width="1px"></line><line x1="72.1240005493164" y1="19.774999936421608" x2="67.1240005493164" y2="19.774999936421608" style="visibility: inherit;" fill="rgb(0, 0, 0)" stroke="rgb(204, 204, 204)" stroke-width="1px"></line><line x1="72.1240005493164" y1="0" x2="67.1240005493164" y2="0" style="visibility: inherit;" fill="rgb(0, 0, 0)" stroke="rgb(204, 204, 204)" stroke-width="1px"></line></g><g transform="translate(62.124000549316406, 0)"><text style="text-anchor: end; visibility: hidden; font-family: &quot;Helvetica Neue&quot;, sans-serif; font-size: 12px; font-weight: 200;" x="0" y="177.9749994277954" dx="0em" dy="0.3em" fill="rgb(50, 49, 63)" stroke="none" stroke-width="1px">8.6e-3</text><text style="text-anchor: end; visibility: inherit; font-family: &quot;Helvetica Neue&quot;, sans-serif; font-size: 12px; font-weight: 200;" x="0" y="158.19999949137363" dx="0em" dy="0.3em" fill="rgb(50, 49, 63)" stroke="none" stroke-width="1px">8.8e-3</text><text style="text-anchor: end; visibility: hidden; font-family: &quot;Helvetica Neue&quot;, sans-serif; font-size: 12px; font-weight: 200;" x="0" y="138.42499955495205" dx="0em" dy="0.3em" fill="rgb(50, 49, 63)" stroke="none" stroke-width="1px">9e-3</text><text style="text-anchor: end; visibility: inherit; font-family: &quot;Helvetica Neue&quot;, sans-serif; font-size: 12px; font-weight: 200;" x="0" y="118.64999961853027" dx="0em" dy="0.3em" fill="rgb(50, 49, 63)" stroke="none" stroke-width="1px">9.2e-3</text><text style="text-anchor: end; visibility: hidden; font-family: &quot;Helvetica Neue&quot;, sans-serif; font-size: 12px; font-weight: 200;" x="0" y="98.87499968210851" dx="0em" dy="0.3em" fill="rgb(50, 49, 63)" stroke="none" stroke-width="1px">9.4e-3</text><text style="text-anchor: end; visibility: inherit; font-family: &quot;Helvetica Neue&quot;, sans-serif; font-size: 12px; font-weight: 200;" x="0" y="79.0999997456869" dx="0em" dy="0.3em" fill="rgb(50, 49, 63)" stroke="none" stroke-width="1px">9.6e-3</text><text style="text-anchor: end; visibility: hidden; font-family: &quot;Helvetica Neue&quot;, sans-serif; font-size: 12px; font-weight: 200;" x="0" y="59.32499980926514" dx="0em" dy="0.3em" fill="rgb(50, 49, 63)" stroke="none" stroke-width="1px">9.8e-3</text><text style="text-anchor: end; visibility: inherit; font-family: &quot;Helvetica Neue&quot;, sans-serif; font-size: 12px; font-weight: 200;" x="0" y="39.54999987284336" dx="0em" dy="0.3em" fill="rgb(50, 49, 63)" stroke="none" stroke-width="1px">0.01</text><text style="text-anchor: end; visibility: hidden; font-family: &quot;Helvetica Neue&quot;, sans-serif; font-size: 12px; font-weight: 200;" x="0" y="19.774999936421608" dx="0em" dy="0.3em" fill="rgb(50, 49, 63)" stroke="none" stroke-width="1px">0.0102</text><text style="text-anchor: end; visibility: hidden; font-family: &quot;Helvetica Neue&quot;, sans-serif; font-size: 12px; font-weight: 200;" x="0" y="0" dx="0em" dy="0.3em" fill="rgb(50, 49, 63)" stroke="none" stroke-width="1px">0.0104</text></g><line x1="72.1240005493164" y1="0" x2="72.1240005493164" y2="177.9749994277954" fill="rgb(0, 0, 0)" stroke="rgb(204, 204, 204)" stroke-width="1px"></line></g></g><g transform="translate(72, 0)" clip-path="url(#clip_0)"><clipPath id="clip_0"><rect width="257" height="177"></rect></clipPath><g><g><g><line x1="0" y1="0" x2="0" y2="177.9749994277954" fill="rgb(0, 0, 0)" stroke="rgb(60, 60, 60)" stroke-width="1px" opacity="0.25"></line><line x1="28.65288882785373" y1="0" x2="28.65288882785373" y2="177.9749994277954" fill="rgb(0, 0, 0)" stroke="rgb(60, 60, 60)" stroke-width="1px" opacity="0.25"></line><line x1="57.30577765570746" y1="0" x2="57.30577765570746" y2="177.9749994277954" fill="rgb(0, 0, 0)" stroke="rgb(60, 60, 60)" stroke-width="1px" opacity="0.25"></line><line x1="85.95866648356119" y1="0" x2="85.95866648356119" y2="177.9749994277954" fill="rgb(0, 0, 0)" stroke="rgb(60, 60, 60)" stroke-width="1px" opacity="0.25"></line><line x1="114.61155531141492" y1="0" x2="114.61155531141492" y2="177.9749994277954" fill="rgb(0, 0, 0)" stroke="rgb(60, 60, 60)" stroke-width="1px" opacity="0.25"></line><line x1="143.26444413926868" y1="0" x2="143.26444413926868" y2="177.9749994277954" fill="rgb(0, 0, 0)" stroke="rgb(60, 60, 60)" stroke-width="1px" opacity="0.25"></line><line x1="171.91733296712238" y1="0" x2="171.91733296712238" y2="177.9749994277954" fill="rgb(0, 0, 0)" stroke="rgb(60, 60, 60)" stroke-width="1px" opacity="0.25"></line><line x1="200.57022179497613" y1="0" x2="200.57022179497613" y2="177.9749994277954" fill="rgb(0, 0, 0)" stroke="rgb(60, 60, 60)" stroke-width="1px" opacity="0.25"></line><line x1="229.22311062282984" y1="0" x2="229.22311062282984" y2="177.9749994277954" fill="rgb(0, 0, 0)" stroke="rgb(60, 60, 60)" stroke-width="1px" opacity="0.25"></line><line x1="257.8759994506836" y1="0" x2="257.8759994506836" y2="177.9749994277954" fill="rgb(0, 0, 0)" stroke="rgb(60, 60, 60)" stroke-width="1px" opacity="0.25"></line></g><g><line x1="0" y1="177.9749994277954" x2="257.8759994506836" y2="177.9749994277954" fill="rgb(0, 0, 0)" stroke="rgb(60, 60, 60)" stroke-width="1px" opacity="0.25"></line><line x1="0" y1="158.19999949137363" x2="257.8759994506836" y2="158.19999949137363" fill="rgb(0, 0, 0)" stroke="rgb(60, 60, 60)" stroke-width="1px" opacity="0.25"></line><line x1="0" y1="138.42499955495205" x2="257.8759994506836" y2="138.42499955495205" fill="rgb(0, 0, 0)" stroke="rgb(60, 60, 60)" stroke-width="1px" opacity="0.25"></line><line x1="0" y1="118.64999961853027" x2="257.8759994506836" y2="118.64999961853027" fill="rgb(0, 0, 0)" stroke="rgb(60, 60, 60)" stroke-width="1px" opacity="0.25"></line><line x1="0" y1="98.87499968210851" x2="257.8759994506836" y2="98.87499968210851" fill="rgb(0, 0, 0)" stroke="rgb(60, 60, 60)" stroke-width="1px" opacity="0.25"></line><line x1="0" y1="79.0999997456869" x2="257.8759994506836" y2="79.0999997456869" fill="rgb(0, 0, 0)" stroke="rgb(60, 60, 60)" stroke-width="1px" opacity="0.25"></line><line x1="0" y1="59.32499980926514" x2="257.8759994506836" y2="59.32499980926514" fill="rgb(0, 0, 0)" stroke="rgb(60, 60, 60)" stroke-width="1px" opacity="0.25"></line><line x1="0" y1="39.54999987284336" x2="257.8759994506836" y2="39.54999987284336" fill="rgb(0, 0, 0)" stroke="rgb(60, 60, 60)" stroke-width="1px" opacity="0.25"></line><line x1="0" y1="19.774999936421608" x2="257.8759994506836" y2="19.774999936421608" fill="rgb(0, 0, 0)" stroke="rgb(60, 60, 60)" stroke-width="1px" opacity="0.25"></line><line x1="0" y1="0" x2="257.8759994506836" y2="0" fill="rgb(0, 0, 0)" stroke="rgb(60, 60, 60)" stroke-width="1px" opacity="0.25"></line></g></g></g><g><g><line x1="0" y1="1028.2999966939292" x2="257.8759994506836" y2="1028.2999966939292" fill="rgb(0, 0, 0)" stroke="rgb(153, 153, 153)" stroke-width="1.5px"></line></g></g><g><g><line x1="28.65288882785373" y1="0" x2="28.65288882785373" y2="177.9749994277954" fill="rgb(0, 0, 0)" stroke="rgb(153, 153, 153)" stroke-width="1.5px"></line></g></g><g><g><g><g><g><path style="fill: none;" stroke="rgb(187, 187, 187)" stroke-width="2px" d="M28.773230960930718,39.550021973128025L29.131392071278892,39.550021973128025L29.309039982011583,39.550021973128025L30.011035758294,39.550021973128025L30.18868366902669,39.550021973128025L30.31189109098646,39.550021973128025L30.33194811316596,39.550021973128025L30.46948197953966,39.550021973128025L30.50673073501587,39.550021973128025L30.698705090162488,39.550021973128025L30.968042245144314,39.550021973128025L31.558291754998102,39.550021973128025L32.47231890860663,39.550021973128025L32.62131393051148,39.550021973128025L32.64137095269098,39.550021973128025L32.76744366353353,39.550021973128025L33.62129975060357,39.550021973128025L33.629895617251925,39.550021973128025L34.03103606084188,39.550021973128025L34.1456476161533,39.550021973128025L34.486616993204755,39.550021973128025L35.26311028043959,39.550021973128025L35.49806396882799,39.550021973128025L35.77313170157539,39.550021973128025L35.77599699045817,39.550021973128025L36.346189478132466,39.550021973128025L37.357636453755696,39.550021973128025L37.907771919250486,39.550021973128025L37.953616541375055,39.550021973128025L38.122668585459394,39.550021973128025L39.01950400577122,39.550021973128025L39.02523458353678,39.550021973128025L39.16849902767605,39.550021973128025L39.60115764897664,39.550021973128025L39.987971648152666,39.550021973128025L41.02234093483819,39.550021973128025L41.26015991210937,39.550021973128025L41.52376648932563,39.550021973128025L41.57247640033298,39.550021973128025L42.05097964375814,39.550021973128025L42.89623986417982,39.550021973128025L43.36328195207384,39.550021973128025L43.96785790634156,39.550021973128025L44.00797195070055,39.550021973128025L45.050937104034425,39.550021973128025L45.45494283650716,39.550021973128025L45.578150258466934,39.550021973128025L45.815969235738116,39.550021973128025L46.417679901123044,39.550021973128025L46.47212038989596,39.550021973128025L47.84745905363295,39.550021973128025L47.88184252022637,39.550021973128025L48.29157883046468,39.550021973128025L48.61249118533664,39.550021973128025L49.15403078418308,39.550021973128025L50.02794389343262,39.550021973128025L50.03653976008098,39.550021973128025L50.99641153581407,39.550021973128025L51.096696646711564,39.550021973128025L51.764308956400555,39.550021973128025L52.09095188903809,39.550021973128025L52.20842873323229,39.550021973128025L53.00211375376384,39.550021973128025L53.030766642591686,39.550021973128025L53.297238508690725,39.550021973128025L54.09092352922227,39.550021973128025L54.254244995541036,39.550021973128025L55.185463882446285,39.550021973128025L55.78144397006565,39.550021973128025L56.02785881398519,39.550021973128025L56.0651075694614,39.550021973128025L56.44046041310628,39.550021973128025L58.44902791993883,39.550021973128025L58.678251030561654,39.550021973128025L58.80145845252143,39.550021973128025L59.04500800755819,39.550021973128025L59.54070298428006,39.550021973128025L59.890268227979874,39.550021973128025L59.89886409462823,39.550021973128025L60.07364671647814,39.550021973128025L60.228372316148544,39.550021973128025L60.463326004536945,39.550021973128025L61.69540022413466,39.550021973128025L61.79282004614936,39.550021973128025L62.13378942320082,39.550021973128025L62.34582080052694,39.550021973128025L62.947531465911865,39.550021973128025L62.96185791032579,39.550021973128025L63.50626279805501,39.550021973128025L63.86728919728597,39.550021973128025L65.54921377148099,39.550021973128025L65.9990641260783,39.550021973128025L66.07642692591348,39.550021973128025L67.61222176708645,39.550021973128025L67.67812341139052,39.550021973128025L68.22252829911973,39.550021973128025L69.40016202994452,39.550021973128025L69.60932811838786,39.550021973128025L69.73540082923041,39.550021973128025L70.04771731745402,39.550021973128025L70.59498749406602,39.550021973128025L70.68094616054958,39.550021973128025L70.99899322653877,39.550021973128025L71.26833038152058,39.550021973128025L72.98750371119182,39.550021973128025L73.82130277608236,39.550021973128025L74.8298844628228,39.550021973128025L75.41726868379382,39.550021973128025L76.95306352496678,39.550021973128025L77.55190890146892,39.550021973128025L77.64073285683526,39.550021973128025L78.27109641104805,39.550021973128025L78.33413276646932,39.550021973128025L78.91865169855754,39.550021973128025L78.95876574291654,39.550021973128025L81.52033400412667,39.550021973128025L83.42575111117894,39.550021973128025L83.57761142196655,39.550021973128025L84.61484599753486,39.550021973128025L84.92716248575846,39.550021973128025L84.96727653011746,39.550021973128025L85.18790377409194,39.550021973128025L85.94434003914728,39.550021973128025L86.11052679434883,39.550021973128025L86.13631439429389,39.550021973128025L86.35407634938558,39.550021973128025L86.65779697096082,39.550021973128025L86.68071928202312,39.550021973128025L86.88415479270088,39.550021973128025L87.21939359198676,39.550021973128025L87.50305719138252,39.550021973128025L87.61480345781113,39.550021973128025L88.190726523251,39.550021973128025L88.19932238989936,39.550021973128025L88.40848847834269,39.550021973128025L89.05317847696939,39.550021973128025L89.23655696546766,39.550021973128025L89.48870238715278,39.550021973128025L89.73798251995511,39.550021973128025L90.32250145204331,39.550021973128025L91.25372033894857,39.550021973128025L92.39124002541435,39.550021973128025L92.63478958045111,39.550021973128025L92.7150176691691,39.550021973128025L94.9499429977417,39.550021973128025L94.97859588656955,39.550021973128025L95.10466859741211,39.550021973128025L95.17916610836454,39.550021973128025L95.37400575239393,39.550021973128025L95.58890241860284,39.550021973128025L95.77801148486668,39.550021973128025L96.10178912862142,39.550021973128025L96.47427668338352,39.550021973128025L96.50579486109415,39.550021973128025L96.56310063874986,39.550021973128025L97.24217410396999,39.550021973128025L97.84101948047214,39.550021973128025L98.22783347964815,39.550021973128025L98.23356405741374,39.550021973128025L98.34244503495958,39.550021973128025L99.19916641091241,39.550021973128025L99.47996472142538,39.550021973128025L99.50288703248766,39.550021973128025L100.00144729809232,39.550021973128025L100.09600183122423,39.550021973128025L101.01002898483276,39.550021973128025L101.23638680657281,39.550021973128025L101.40543885065715,39.550021973128025L102.61172547030978,39.550021973128025L102.71201058120727,39.550021973128025L102.9240419585334,39.550021973128025L104.0185823117574,39.550021973128025L105.43403501985338,39.550021973128025L105.43690030873616,39.550021973128025L106.45694315100775,39.550021973128025L106.47126959542169,39.550021973128025L107.46265954886542,39.550021973128025L107.7434578593784,39.550021973128025L107.84374297027588,39.550021973128025L108.37955199135673,39.550021973128025L108.64029327969021,39.550021973128025L110.13597407650418,39.550021973128025L110.43682940919665,39.550021973128025L111.66030776214599,39.550021973128025L111.73480527309842,39.550021973128025L111.92391433936224,39.550021973128025L112.32218949406942,39.550021973128025L112.49983740480211,39.550021973128025L113.09581749242146,39.550021973128025L113.14166211454604,39.550021973128025L113.49695793601143,39.550021973128025L114.12159091245864,39.550021973128025L114.62588175582886,39.550021973128025L114.70037926678128,39.550021973128025L115.11011557701958,39.550021973128025L115.54850477608575,39.550021973128025L115.95824108632405,39.550021973128025L116.36511210767958,39.550021973128025L116.6344492626614,39.550021973128025L116.67456330702039,39.550021973128025L118.64015148061117,39.550021973128025L118.74616716927422,39.550021973128025L119.47108525661892,39.550021973128025L119.99829841105142,39.550021973128025L120.15875458848741,39.550021973128025L120.35359423251683,39.550021973128025L120.93524787572224,39.550021973128025L121.5885337409973,39.550021973128025L121.89511965145535,39.550021973128025L122.22462787297566,39.550021973128025L122.52548320566814,39.550021973128025L122.9037013381958,39.550021973128025L122.92662364925808,39.550021973128025L123.30484178178575,39.550021973128025L123.72603924755519,39.550021973128025L123.98391524700588,39.550021973128025L124.28190529081557,39.550021973128025L124.36213337953356,39.550021973128025L125.31913986638386,39.550021973128025L125.35352333297729,39.550021973128025L125.40796382175023,39.550021973128025L125.45667373275757,39.550021973128025L125.61139933242798,39.550021973128025L125.71741502109104,39.550021973128025L125.82343070975409,39.550021973128025L126.1758612423367,39.550021973128025L127.10994541812474,39.550021973128025L127.17011648466323,39.550021973128025L127.57698750601875,39.550021973128025L127.78901888334487,39.550021973128025L128.31623203777738,39.550021973128025L129.89214092330934,39.550021973128025L129.95231198984783,39.550021973128025L130.0182136341519,39.550021973128025L130.32193425572711,39.550021973128025L130.57981025517782,39.550021973128025L131.1471374539693,39.550021973128025L131.37062998682657,39.550021973128025L131.66862003063625,39.550021973128025L131.90930429679022,39.550021973128025L132.50814967329237,39.550021973128025L132.59124305089315,39.550021973128025L133.60555531539916,39.550021973128025L133.69151398188274,39.550021973128025L134.00096518122353,39.550021973128025L134.23878415849472,39.550021973128025L134.40210562481352,39.550021973128025L135.24736584523518,39.550021973128025L136.0697037545946,39.550021973128025L136.85765819736056,39.550021973128025L137.17857055223251,39.550021973128025L138.7917281932407,39.550021973128025L138.83757281536526,39.550021973128025L139.59687436930338,39.550021973128025L139.94070903523763,39.550021973128025L140.34471476771037,39.550021973128025L141.24728076578776,39.550021973128025L142.41058805219862,39.550021973128025L142.63694587393866,39.550021973128025L142.91487889556885,39.550021973128025L143.00370285093518,39.550021973128025L143.32174991692438,39.550021973128025L144.11256964857313,39.550021973128025L144.69708858066136,39.550021973128025L145.16413066855537,39.550021973128025L145.1755918240865,39.550021973128025L145.27014635721844,39.550021973128025L145.32745213487414,39.550021973128025L145.53661822331748,39.550021973128025L146.24434457736547,39.550021973128025L146.82886350945367,39.550021973128025L146.90622630928885,39.550021973128025L147.10679653108386,39.550021973128025L147.67412372987536,39.550021973128025L147.7199683519999,39.550021973128025L149.37897061513266,39.550021973128025L150.2844019020928,39.550021973128025L150.33597710198296,39.550021973128025L150.9376877673679,39.550021973128025L153.3445304289076,39.550021973128025L153.59954113947552,39.550021973128025L153.69123038372464,39.550021973128025L153.8975311832852,39.550021973128025L153.97489398312038,39.550021973128025L153.98635513865153,39.550021973128025L154.166868338267,39.550021973128025L154.70554264823068,39.550021973128025L154.93476575885347,39.550021973128025L155.29865744696724,39.550021973128025L155.31871446914673,39.550021973128025L155.4447871799893,39.550021973128025L155.59664749077692,39.550021973128025L157.06367539876302,39.550021973128025L157.48773815341525,39.550021973128025L158.47912810685898,39.550021973128025L158.50491570680404,39.550021973128025L158.6567760175917,39.550021973128025L159.04359001676772,39.550021973128025L159.4762486380683,39.550021973128025L161.36733930070665,39.550021973128025L161.41318392283122,39.550021973128025L161.63954174457126,39.550021973128025L161.8859565884908,39.550021973128025L164.18391827248468,39.579673188332634L164.99766031519573,39.64026480201167L165.14952062598334,39.65518249413327L165.2383445813497,39.66448303057945L165.34149498112996,39.675717341930266L165.4532412475586,39.68851709010866L165.84865111338297,39.73870315311029L166.034894890764,39.765039325621245L166.10079653506807,39.77480028466374L166.40451715664335,39.82240798112585L166.70537248933582,39.87406739643578L166.83717577794394,39.89819354048427L167.6824359983656,40.072877873537664L168.60505901862248,40.304010016902964L169.83140266045464,40.676399812826986L170.05776048219468,40.75329038641664L170.41878688142563,40.88110369916208L171.9345247004191,41.488216934702905L172.07778914455838,41.55147899944072L172.34426101065742,41.67183346612538L172.39010563278197,41.69282873651872L172.47606429926552,41.73260924884295L172.68523038770888,41.83095551542229L173.7195996743944,42.34865468275285L174.2640045621236,42.64231221470186L174.72245078336925,42.900977629328594L175.16657056020102,43.161392649821465L175.43304242630006,43.32235638950374L175.59063331485325,43.41913721925553L177.06912237837048,44.38685343225393L177.516107444085,44.70058538940356L177.65077602157592,44.796997881078255L178.4845750864665,45.4138720756616L178.65935770831638,45.547486713120975L179.1092080629137,45.898328731536054L179.60203775075277,46.29401591083513L180.2438624604967,46.82718527740289L180.33841699362858,46.907390893686255L180.77680619269478,47.28521367624714L180.81978552593654,47.32269207558966L181.85415481262208,48.25329822732263L182.53609356672501,48.89531149566642L182.5561505889045,48.91455716019365L182.56761174443562,48.92560730250591L182.57907289996677,48.93656536029894L182.9830786324395,49.32847707430801L183.10915134328206,49.45233075272486L183.58478929782444,49.92684228051826L183.68793969760472,50.031174040850104L183.73091903084648,50.07482210298362L184.06902311901518,50.4211519799545L185.3584031162686,51.792750894466934L185.6907766266717,52.15933936567703L186.06326418143377,52.57648223796579L186.19220218115913,52.72252828552651L186.79677813542685,53.41767432148853L187.1004987570021,53.77348890394411L187.79962924440173,54.609616338907074L187.822551555464,54.63742586372632L188.28672835447523,55.20595568569341L188.43858866526287,55.3942685275986L190.07466861733332,57.49259846818235L190.56176772740682,58.14207058258694L190.60188177176582,58.196032110878605L190.85116190456816,58.53333770496111L191.36404861458672,59.23649509409955L191.45860314771863,59.367439280500136L191.9714898577372,60.08542227724088L192.83107652257283,61.31677646890657L192.84826825586956,61.34182345814774L193.36115496588812,62.09360147346024L194.1519746975369,63.277163799625285L195.68490424982707,65.6555227633062L196.10037113783096,66.31917589367822L196.43274464823406,66.85584447197823L196.6762942032708,67.25245249647001L196.89978673612808,67.61876471412228L196.97714953596326,67.74611760427135L197.02585944697063,67.82650738959323L198.46136917724607,70.24372602040569L198.596037754737,70.47541067088662L198.94273770955402,71.07570965200152L199.5387177971734,72.12077686118592L199.62467646365695,72.27280840249911L201.08310850499473,74.90522855484335L201.10030023829142,74.93690562947188L201.1633365937127,75.05293212375088L201.42121259316338,75.52956159548746L201.93123401429918,76.4811630176138L204.02289489873252,80.50847946784552L204.22633040941025,80.91079673253198L204.69050720842148,81.83587781310882L204.96557494116888,82.38866118228091L205.38390711805553,83.2359308440754L206.69907471525403,85.95104289472322L206.92829782587688,86.43227659242324L207.77928862406412,88.239343198559L207.8681125794305,88.42977398440739L208.8050620441013,90.46051388784767L209.23485537651908,91.40511688650953L209.79645199754503,92.6516650238546L210.3924320851644,93.98992934239166L210.39529737404717,93.99637525874049L210.63598164020115,94.54123935925543L211.08869728368123,95.57313848218436L211.6445633269416,96.85237662386996L211.9969938595242,97.67054757757543L212.3121756366306,98.40676330913145L212.67606732474434,99.26213640862161L213.49553994522094,101.20963190664267L213.52419283404882,101.27832695801737L213.99983078859117,102.42266127897382L214.5786191429138,103.82833146561579L215.5986619851854,106.34085757387172L215.73333056267631,106.67586105497251L216.18604620615642,107.80794813486617L216.27487016152276,108.03106892505505L216.618704827457,108.89795258945385L216.73904696053398,109.20256817919586L216.92815602679784,109.68251269362612L217.49548322558934,111.13146260432457L217.90235424694487,112.17892401100997L218.6158111787584,114.03267746841513L220.01693744244045,117.73539598822347L220.4782489525689,118.9725515046031L220.5584770412869,119.18858178680829L220.68741504101226,119.53638501608748L221.8879710828993,122.80768756312033L224.24610383343165,129.40572753778602L224.2976790333218,129.55260234602014L224.575612054952,130.34572631048442L224.72174178797403,130.7640662815237L225.1830532981025,132.09017544351724L226.15438622936674,134.91044801517032L226.32343827345107,135.4051260526836L226.8477861390008,136.946805074286L226.8879001833598,137.065225766066L227.66152818171184,139.36107700048183L227.72169924825033,139.54064181305648L228.41796444676717,141.62875037200138L228.6443222685072,142.3117412514199L228.9795610677931,143.32697307636113L230.54687408667672,148.1314828692236L230.88497817484537,149.1804176282173L231.10274012993705,149.85825177455675L231.8448499505785,152.18228087186893L232.07693835008408,152.91343195486516L233.31474314744736,156.84746678707734L233.67576954667834,158.00589003948193L233.75026705763077,158.24549395862L234.08264056803384,159.3172656783924L234.52389505598282,160.74641741744801L234.6843512334188,161.2679841345879L234.83048096644083,161.74378484565105L234.8935173218621,161.94922540814028L234.98807185499402,162.25780063221086L235.05970407706366,162.49169531115425L235.80467918658786,164.93607887515105L235.81040976435344,164.95495620160122L236.10266923039754,165.91954154094446L236.1112650970459,165.94799565739862L236.55251958499483,167.4104819924296L237.02529225065442,168.98531144096881L237.45508558307225,170.42413205454767L237.84476487113105,171.7344947637462L238.33186398120455,173.3801372076033L238.73013913591174,174.73212211951144L240.07969019970363,179.35559374749099" fill="none"></path></g></g></g></g></g></g><g transform="translate(72, 177)" clip-path="url(#clip_1)"><clipPath id="clip_1"><rect width="257" height="22"></rect></clipPath><g><g><line x1="0" y1="0" x2="0" y2="5" style="visibility: inherit;" fill="rgb(0, 0, 0)" stroke="rgb(204, 204, 204)" stroke-width="1px"></line><line x1="28.65288882785373" y1="0" x2="28.65288882785373" y2="5" style="visibility: inherit;" fill="rgb(0, 0, 0)" stroke="rgb(204, 204, 204)" stroke-width="1px"></line><line x1="57.30577765570746" y1="0" x2="57.30577765570746" y2="5" style="visibility: inherit;" fill="rgb(0, 0, 0)" stroke="rgb(204, 204, 204)" stroke-width="1px"></line><line x1="85.95866648356119" y1="0" x2="85.95866648356119" y2="5" style="visibility: inherit;" fill="rgb(0, 0, 0)" stroke="rgb(204, 204, 204)" stroke-width="1px"></line><line x1="114.61155531141492" y1="0" x2="114.61155531141492" y2="5" style="visibility: inherit;" fill="rgb(0, 0, 0)" stroke="rgb(204, 204, 204)" stroke-width="1px"></line><line x1="143.26444413926868" y1="0" x2="143.26444413926868" y2="5" style="visibility: inherit;" fill="rgb(0, 0, 0)" stroke="rgb(204, 204, 204)" stroke-width="1px"></line><line x1="171.91733296712238" y1="0" x2="171.91733296712238" y2="5" style="visibility: inherit;" fill="rgb(0, 0, 0)" stroke="rgb(204, 204, 204)" stroke-width="1px"></line><line x1="200.57022179497613" y1="0" x2="200.57022179497613" y2="5" style="visibility: inherit;" fill="rgb(0, 0, 0)" stroke="rgb(204, 204, 204)" stroke-width="1px"></line><line x1="229.22311062282984" y1="0" x2="229.22311062282984" y2="5" style="visibility: inherit;" fill="rgb(0, 0, 0)" stroke="rgb(204, 204, 204)" stroke-width="1px"></line><line x1="257.8759994506836" y1="0" x2="257.8759994506836" y2="5" style="visibility: inherit;" fill="rgb(0, 0, 0)" stroke="rgb(204, 204, 204)" stroke-width="1px"></line></g><g transform="translate(0, 8)"><text style="text-anchor: middle; visibility: hidden; font-family: &quot;Helvetica Neue&quot;, sans-serif; font-size: 12px; font-weight: 200;" x="0" y="0" dx="0em" dy="0.95em" fill="rgb(50, 49, 63)" stroke="none" stroke-width="1px">-10k</text><text style="text-anchor: middle; visibility: inherit; font-family: &quot;Helvetica Neue&quot;, sans-serif; font-size: 12px; font-weight: 200;" x="28.65288882785373" y="0" dx="0em" dy="0.95em" fill="rgb(50, 49, 63)" stroke="none" stroke-width="1px">0</text><text style="text-anchor: middle; visibility: hidden; font-family: &quot;Helvetica Neue&quot;, sans-serif; font-size: 12px; font-weight: 200;" x="57.30577765570746" y="0" dx="0em" dy="0.95em" fill="rgb(50, 49, 63)" stroke="none" stroke-width="1px">10k</text><text style="text-anchor: middle; visibility: inherit; font-family: &quot;Helvetica Neue&quot;, sans-serif; font-size: 12px; font-weight: 200;" x="85.95866648356119" y="0" dx="0em" dy="0.95em" fill="rgb(50, 49, 63)" stroke="none" stroke-width="1px">20k</text><text style="text-anchor: middle; visibility: hidden; font-family: &quot;Helvetica Neue&quot;, sans-serif; font-size: 12px; font-weight: 200;" x="114.61155531141492" y="0" dx="0em" dy="0.95em" fill="rgb(50, 49, 63)" stroke="none" stroke-width="1px">30k</text><text style="text-anchor: middle; visibility: inherit; font-family: &quot;Helvetica Neue&quot;, sans-serif; font-size: 12px; font-weight: 200;" x="143.26444413926868" y="0" dx="0em" dy="0.95em" fill="rgb(50, 49, 63)" stroke="none" stroke-width="1px">40k</text><text style="text-anchor: middle; visibility: hidden; font-family: &quot;Helvetica Neue&quot;, sans-serif; font-size: 12px; font-weight: 200;" x="171.91733296712238" y="0" dx="0em" dy="0.95em" fill="rgb(50, 49, 63)" stroke="none" stroke-width="1px">50k</text><text style="text-anchor: middle; visibility: inherit; font-family: &quot;Helvetica Neue&quot;, sans-serif; font-size: 12px; font-weight: 200;" x="200.57022179497613" y="0" dx="0em" dy="0.95em" fill="rgb(50, 49, 63)" stroke="none" stroke-width="1px">60k</text><text style="text-anchor: middle; visibility: hidden; font-family: &quot;Helvetica Neue&quot;, sans-serif; font-size: 12px; font-weight: 200;" x="229.22311062282984" y="0" dx="0em" dy="0.95em" fill="rgb(50, 49, 63)" stroke="none" stroke-width="1px">70k</text><text style="text-anchor: middle; visibility: hidden; font-family: &quot;Helvetica Neue&quot;, sans-serif; font-size: 12px; font-weight: 200;" x="257.8759994506836" y="0" dx="0em" dy="0.95em" fill="rgb(50, 49, 63)" stroke="none" stroke-width="1px">80k</text></g><line x1="0" y1="0" x2="257.8759994506836" y2="0" fill="rgb(0, 0, 0)" stroke="rgb(204, 204, 204)" stroke-width="1px"></line></g></g></g></g></svg>