<svg viewBox="0 0 330 200" xmlns="http://www.w3.org/2000/svg"><g><g><g><g><g><line x1="51.41600036621094" y1="177.9749994277954" x2="46.41600036621094" y2="177.9749994277954" style="visibility: inherit;" fill="rgb(0, 0, 0)" stroke="rgb(204, 204, 204)" stroke-width="1px"></line><line x1="51.41600036621094" y1="158.1999994913737" x2="46.41600036621094" y2="158.1999994913737" style="visibility: inherit;" fill="rgb(0, 0, 0)" stroke="rgb(204, 204, 204)" stroke-width="1px"></line><line x1="51.41600036621094" y1="138.42499955495197" x2="46.41600036621094" y2="138.42499955495197" style="visibility: inherit;" fill="rgb(0, 0, 0)" stroke="rgb(204, 204, 204)" stroke-width="1px"></line><line x1="51.41600036621094" y1="118.64999961853027" x2="46.41600036621094" y2="118.64999961853027" style="visibility: inherit;" fill="rgb(0, 0, 0)" stroke="rgb(204, 204, 204)" stroke-width="1px"></line><line x1="51.41600036621094" y1="98.87499968210855" x2="46.41600036621094" y2="98.87499968210855" style="visibility: inherit;" fill="rgb(0, 0, 0)" stroke="rgb(204, 204, 204)" stroke-width="1px"></line><line x1="51.41600036621094" y1="79.09999974568684" x2="46.41600036621094" y2="79.09999974568684" style="visibility: inherit;" fill="rgb(0, 0, 0)" stroke="rgb(204, 204, 204)" stroke-width="1px"></line><line x1="51.41600036621094" y1="59.32499980926514" x2="46.41600036621094" y2="59.32499980926514" style="visibility: inherit;" fill="rgb(0, 0, 0)" stroke="rgb(204, 204, 204)" stroke-width="1px"></line><line x1="51.41600036621094" y1="39.54999987284344" x2="46.41600036621094" y2="39.54999987284344" style="visibility: inherit;" fill="rgb(0, 0, 0)" stroke="rgb(204, 204, 204)" stroke-width="1px"></line><line x1="51.41600036621094" y1="19.77499993642172" x2="46.41600036621094" y2="19.77499993642172" style="visibility: inherit;" fill="rgb(0, 0, 0)" stroke="rgb(204, 204, 204)" stroke-width="1px"></line><line x1="51.41600036621094" y1="0" x2="46.41600036621094" y2="0" style="visibility: inherit;" fill="rgb(0, 0, 0)" stroke="rgb(204, 204, 204)" stroke-width="1px"></line></g><g transform="translate(41.41600036621094, 0)"><text style="text-anchor: end; visibility: hidden; font-family: &quot;Helvetica Neue&quot;, sans-serif; font-size: 12px; font-weight: 200;" x="0" y="177.9749994277954" dx="0em" dy="0.3em" fill="rgb(50, 49, 63)" stroke="none" stroke-width="1px">-0.1</text><text style="text-anchor: end; visibility: inherit; font-family: &quot;Helvetica Neue&quot;, sans-serif; font-size: 12px; font-weight: 200;" x="0" y="158.1999994913737" dx="0em" dy="0.3em" fill="rgb(50, 49, 63)" stroke="none" stroke-width="1px">0</text><text style="text-anchor: end; visibility: hidden; font-family: &quot;Helvetica Neue&quot;, sans-serif; font-size: 12px; font-weight: 200;" x="0" y="138.42499955495197" dx="0em" dy="0.3em" fill="rgb(50, 49, 63)" stroke="none" stroke-width="1px">0.1</text><text style="text-anchor: end; visibility: inherit; font-family: &quot;Helvetica Neue&quot;, sans-serif; font-size: 12px; font-weight: 200;" x="0" y="118.64999961853027" dx="0em" dy="0.3em" fill="rgb(50, 49, 63)" stroke="none" stroke-width="1px">0.2</text><text style="text-anchor: end; visibility: hidden; font-family: &quot;Helvetica Neue&quot;, sans-serif; font-size: 12px; font-weight: 200;" x="0" y="98.87499968210855" dx="0em" dy="0.3em" fill="rgb(50, 49, 63)" stroke="none" stroke-width="1px">0.3</text><text style="text-anchor: end; visibility: inherit; font-family: &quot;Helvetica Neue&quot;, sans-serif; font-size: 12px; font-weight: 200;" x="0" y="79.09999974568684" dx="0em" dy="0.3em" fill="rgb(50, 49, 63)" stroke="none" stroke-width="1px">0.4</text><text style="text-anchor: end; visibility: hidden; font-family: &quot;Helvetica Neue&quot;, sans-serif; font-size: 12px; font-weight: 200;" x="0" y="59.32499980926514" dx="0em" dy="0.3em" fill="rgb(50, 49, 63)" stroke="none" stroke-width="1px">0.5</text><text style="text-anchor: end; visibility: inherit; font-family: &quot;Helvetica Neue&quot;, sans-serif; font-size: 12px; font-weight: 200;" x="0" y="39.54999987284344" dx="0em" dy="0.3em" fill="rgb(50, 49, 63)" stroke="none" stroke-width="1px">0.6</text><text style="text-anchor: end; visibility: hidden; font-family: &quot;Helvetica Neue&quot;, sans-serif; font-size: 12px; font-weight: 200;" x="0" y="19.77499993642172" dx="0em" dy="0.3em" fill="rgb(50, 49, 63)" stroke="none" stroke-width="1px">0.7</text><text style="text-anchor: end; visibility: hidden; font-family: &quot;Helvetica Neue&quot;, sans-serif; font-size: 12px; font-weight: 200;" x="0" y="0" dx="0em" dy="0.3em" fill="rgb(50, 49, 63)" stroke="none" stroke-width="1px">0.8</text></g><line x1="51.41600036621094" y1="0" x2="51.41600036621094" y2="177.9749994277954" fill="rgb(0, 0, 0)" stroke="rgb(204, 204, 204)" stroke-width="1px"></line></g></g><g transform="translate(51, 0)" clip-path="url(#clip_0)"><clipPath id="clip_0"><rect width="278" height="177"></rect></clipPath><g><g><g><line x1="0" y1="0" x2="0" y2="177.9749994277954" fill="rgb(0, 0, 0)" stroke="rgb(60, 60, 60)" stroke-width="1px" opacity="0.25"></line><line x1="34.82299995422363" y1="0" x2="34.82299995422363" y2="177.9749994277954" fill="rgb(0, 0, 0)" stroke="rgb(60, 60, 60)" stroke-width="1px" opacity="0.25"></line><line x1="69.64599990844727" y1="0" x2="69.64599990844727" y2="177.9749994277954" fill="rgb(0, 0, 0)" stroke="rgb(60, 60, 60)" stroke-width="1px" opacity="0.25"></line><line x1="104.4689998626709" y1="0" x2="104.4689998626709" y2="177.9749994277954" fill="rgb(0, 0, 0)" stroke="rgb(60, 60, 60)" stroke-width="1px" opacity="0.25"></line><line x1="139.29199981689453" y1="0" x2="139.29199981689453" y2="177.9749994277954" fill="rgb(0, 0, 0)" stroke="rgb(60, 60, 60)" stroke-width="1px" opacity="0.25"></line><line x1="174.11499977111816" y1="0" x2="174.11499977111816" y2="177.9749994277954" fill="rgb(0, 0, 0)" stroke="rgb(60, 60, 60)" stroke-width="1px" opacity="0.25"></line><line x1="208.9379997253418" y1="0" x2="208.9379997253418" y2="177.9749994277954" fill="rgb(0, 0, 0)" stroke="rgb(60, 60, 60)" stroke-width="1px" opacity="0.25"></line><line x1="243.76099967956543" y1="0" x2="243.76099967956543" y2="177.9749994277954" fill="rgb(0, 0, 0)" stroke="rgb(60, 60, 60)" stroke-width="1px" opacity="0.25"></line><line x1="278.58399963378906" y1="0" x2="278.58399963378906" y2="177.9749994277954" fill="rgb(0, 0, 0)" stroke="rgb(60, 60, 60)" stroke-width="1px" opacity="0.25"></line></g><g><line x1="0" y1="177.9749994277954" x2="278.58399963378906" y2="177.9749994277954" fill="rgb(0, 0, 0)" stroke="rgb(60, 60, 60)" stroke-width="1px" opacity="0.25"></line><line x1="0" y1="158.1999994913737" x2="278.58399963378906" y2="158.1999994913737" fill="rgb(0, 0, 0)" stroke="rgb(60, 60, 60)" stroke-width="1px" opacity="0.25"></line><line x1="0" y1="138.42499955495197" x2="278.58399963378906" y2="138.42499955495197" fill="rgb(0, 0, 0)" stroke="rgb(60, 60, 60)" stroke-width="1px" opacity="0.25"></line><line x1="0" y1="118.64999961853027" x2="278.58399963378906" y2="118.64999961853027" fill="rgb(0, 0, 0)" stroke="rgb(60, 60, 60)" stroke-width="1px" opacity="0.25"></line><line x1="0" y1="98.87499968210855" x2="278.58399963378906" y2="98.87499968210855" fill="rgb(0, 0, 0)" stroke="rgb(60, 60, 60)" stroke-width="1px" opacity="0.25"></line><line x1="0" y1="79.09999974568684" x2="278.58399963378906" y2="79.09999974568684" fill="rgb(0, 0, 0)" stroke="rgb(60, 60, 60)" stroke-width="1px" opacity="0.25"></line><line x1="0" y1="59.32499980926514" x2="278.58399963378906" y2="59.32499980926514" fill="rgb(0, 0, 0)" stroke="rgb(60, 60, 60)" stroke-width="1px" opacity="0.25"></line><line x1="0" y1="39.54999987284344" x2="278.58399963378906" y2="39.54999987284344" fill="rgb(0, 0, 0)" stroke="rgb(60, 60, 60)" stroke-width="1px" opacity="0.25"></line><line x1="0" y1="19.77499993642172" x2="278.58399963378906" y2="19.77499993642172" fill="rgb(0, 0, 0)" stroke="rgb(60, 60, 60)" stroke-width="1px" opacity="0.25"></line><line x1="0" y1="0" x2="278.58399963378906" y2="0" fill="rgb(0, 0, 0)" stroke="rgb(60, 60, 60)" stroke-width="1px" opacity="0.25"></line></g></g></g><g><g><line x1="0" y1="158.1999994913737" x2="278.58399963378906" y2="158.1999994913737" fill="rgb(0, 0, 0)" stroke="rgb(153, 153, 153)" stroke-width="1.5px"></line></g></g><g><g><line x1="34.82299995422363" y1="0" x2="34.82299995422363" y2="177.9749994277954" fill="rgb(0, 0, 0)" stroke="rgb(153, 153, 153)" stroke-width="1.5px"></line></g></g><g><g><g><g><g><path style="fill: none;" stroke="rgb(51, 187, 238)" stroke-width="2px" d="M34.82299995422363,155.91400958812636L35.51945995330811,156.2224995419321L36.21591995239258,144.51965515864413L36.91237995147705,139.12108013828316L37.608839950561524,134.4541792409879L38.305299949646,129.530204886235L39.001759948730474,126.25546427159071L39.69821994781494,121.93660602332473L40.39467994689941,119.45286406244L41.09113994598388,116.52221014587721L41.78759994506836,113.089269800481L42.48405994415283,111.45980992170215L43.18051994323731,108.13365520490726L43.876979942321775,105.83184278705201L44.57343994140625,103.88598639347394L45.269899940490724,102.81022704567908L45.9663599395752,99.82420160266558L46.66281993865967,98.05631438111226L47.35927993774414,95.77823472223919L48.05573993682861,96.30029648575464L48.75219993591308,93.30636208755016L49.44865993499756,90.15422501188915L50.14511993408203,90.3994320898557L50.8415799331665,88.77788411297243L51.538039932250975,88.52476218640567L52.23449993133545,85.62970740831614L52.930959930419924,83.79458228082102L53.6274199295044,81.68261425459545L54.323879928588866,83.06686410870314L55.02033992767334,79.45594869787296L55.716799926757815,77.98468854984603L56.41325992584229,76.04674111145894L57.10971992492676,75.2399216006128L57.806179924011225,76.21680722170193L58.5026399230957,73.59859534234286L59.199099922180174,73.05676119084994L59.89555992126465,72.06009728837412L60.592019920349124,71.39566254460256L61.28847991943359,70.13401328277351L61.984939918518066,69.42211302103759L62.68139991760254,69.23227452281714L63.377859916687015,68.14069726464032L64.07431991577148,69.50121435976585L64.77077991485596,69.35488100850502L65.46723991394043,64.16591687434197L66.1636999130249,68.7497634286658L66.86015991210937,65.13093906264464L67.55661991119385,66.21065288803499L68.25307991027832,61.848292439514L68.9495399093628,61.848292439514L69.64599990844727,61.844332068509274L70.34245990753173,60.942593308552915L71.03891990661621,60.7290220513503L71.73537990570068,63.153440954893426L72.43183990478516,62.02230713394326L73.12829990386963,60.69343175299089L73.8247599029541,60.08831417315166L74.52121990203858,62.394081068602404L75.21767990112305,58.84249460852304L75.91413990020753,57.398915803664536L76.610599899292,60.44426430401961L77.30705989837647,57.63225944884459L78.00351989746095,57.770683844914444L78.6999798965454,58.75152394359907L79.39643989562988,58.70801879663945L80.09289989471435,56.60396561901409L80.78935989379882,58.561685445378615L81.4858198928833,57.4266030402422L82.18227989196777,56.97573366026401L82.87873989105225,59.64535374836446L83.57519989013672,54.772789075705234L84.27165988922118,55.46492284287294L84.96811988830567,56.86894508495807L85.66457988739013,58.43513037550447L86.36103988647461,54.93890070835273L87.05749988555908,54.44057759722868L87.75395988464355,56.046307663729976L88.45041988372803,53.00886811856587L89.1468798828125,56.39434883940696L89.84333988189698,53.91455546270849L90.53979988098145,54.151859478893286L91.23625988006592,52.46702807366373L91.9327198791504,54.76488012051425L92.62917987823486,54.45639550761064L93.32563987731935,54.68183019759974L94.02209987640381,51.4268649176375L94.71855987548828,54.15976843408427L95.41501987457276,53.83545412398023L96.11147987365722,52.894170588068974L96.8079398727417,56.88872336634476L97.50439987182617,53.02863461313409L98.20085987091063,51.59692513447128L98.89731986999512,52.73201932642618L99.59377986907958,50.592358170213714L100.29023986816406,51.89751257900238L100.98669986724853,52.743876865803415L101.683159866333,54.428708271032974L102.37961986541748,52.17830995532833L103.07607986450195,50.78219666843417L103.77253986358643,50.28782214149635L104.4689998626709,53.60211047880016L105.16545986175537,51.69184438358151L105.86191986083985,54.64623400583109L106.55837985992432,51.078823741960534L107.2548398590088,53.985747846245786L107.95129985809326,52.79529096795402L108.64775985717773,51.36754186029593L109.34421985626221,52.75969477618537L110.04067985534668,52.70828067403477L110.73713985443116,49.002446014094375L111.43359985351563,52.81902962034542L112.1300598526001,51.26866224018099L112.82651985168458,48.46061775601069L113.52297985076903,49.718306646835L114.21943984985352,49.89627581885975L114.91589984893798,49.93187201062841L115.61235984802245,48.160030311479574L116.30881984710693,51.41104700725556L117.0052798461914,50.505347876294465L117.70173984527588,50.45393377414386L118.39819984436035,51.34776357890925L119.09465984344482,48.39337395665967L119.7911198425293,48.22727411083062L120.48757984161377,50.248277365541455L121.18403984069825,48.377556046277704L121.88049983978271,48.270779257790224L122.57695983886718,47.4402210945527L123.27341983795166,48.98267951952616L123.96987983703613,49.27929480623405L124.66633983612061,49.27138585104308L125.36279983520508,49.08550772382736L126.05925983428955,50.09403505908965L126.75571983337403,50.19686326339085L127.4521798324585,46.87070559989135L128.14863983154297,48.67814349080879L128.84509983062745,46.60967471813362L129.54155982971193,46.961664477996834L130.23801982879638,48.421061193237335L130.93447982788086,47.84363674338499L131.63093982696532,48.421061193237335L132.3273998260498,48.50016253196557L133.02385982513428,47.79222264123439L133.72031982421873,46.86279664470035L134.41677982330322,48.571354915502866L135.1132398223877,46.41587584890843L135.80969982147215,46.68877605686188L136.50615982055663,47.87527256414893L137.20261981964111,48.86402161802451L137.8990798187256,46.756008069394454L138.59553981781005,48.78492027929627L139.29199981689453,47.63798033478258L139.98845981597898,46.14298742777348L140.68491981506347,44.86552025556247L141.38137981414795,47.30179669848286L142.07783981323243,48.171899637675295L142.77429981231688,47.357171171638186L143.47075981140136,46.491028603450445L144.16721981048582,45.43108716603754L144.86367980957033,46.24185526106996L145.56013980865478,48.306375449558885L146.25659980773926,44.63612519456865L146.95305980682372,44.31577125546934L147.6495198059082,44.675681757342005L148.34597980499268,45.1384204635159L149.04243980407716,47.8831815193399L149.73889980316162,45.33616791692734L150.4353598022461,44.39487259419761L151.13181980133055,46.38820039914924L151.82827980041506,44.14571103863557L152.5247397994995,44.17339827521323L153.221199798584,46.91815933103723L153.91765979766845,42.78123357250533L154.61411979675293,43.80557881814957L155.3105797958374,45.26497553339004L156.0070397949219,44.15361999382657L156.70349979400635,42.73377984135945L157.3999597930908,43.6829723324617L158.09641979217528,43.125314377177574L158.79287979125976,43.14905302956899L159.48933979034425,43.02644654388109L160.1857997894287,44.63612519456865L160.88225978851318,44.00728664256573L161.57871978759763,42.22753598822595L162.27517978668214,41.77270623724303L162.9716397857666,41.95859615127722L163.66809978485108,42.69818364959082L164.36455978393553,42.6744449971994L165.06101978302001,41.98628338785488L165.7574797821045,41.895312722930925L166.45393978118898,41.389080656615874L167.15039978027343,42.037697490005485L167.8468597793579,40.30145198262531L168.54331977844237,40.49129048084578L169.23977977752688,40.056239011249545L169.93623977661133,40.10765311340015L170.6326997756958,43.19650676071487L171.32915977478027,40.855149566904714L172.02561977386475,43.98355977699279L172.72207977294923,40.487330109841054L173.4185397720337,40.95006881601495L174.11499977111816,39.54604657392977L174.81145977020262,40.34495712958494L175.5079197692871,39.814986410878504L176.20437976837158,40.44382496288142L176.90083976745606,40.24212892528374L177.59729976654052,38.77877183903854L178.293759765625,39.617238957467066L178.99021976470945,38.32395387487412L179.68667976379396,39.37993494128227L180.38313976287841,39.54604657392977L181.0795997619629,38.363498650829L181.77605976104735,38.1459729160309L182.47251976013183,39.12286443052926L183.1689797592163,36.536294265343344L183.8654397583008,39.53417724773408L184.56189975738525,38.185529478804256L185.25835975646973,39.031893765605304L185.95481975555418,37.19678042492865L186.6512797546387,36.643071053830795L187.34773975372315,39.625147912658065L188.04419975280763,37.56458809517386L188.74065975189208,35.40910902857942L189.43711975097656,37.5289919034052L190.13357975006105,34.82377562353611L190.83003974914553,35.63059513438225L191.52649974822998,35.0610796397209L192.22295974731443,34.73676532961687L192.91941974639892,35.986545265250214L193.6158797454834,35.95885802867255L194.31233974456788,34.23052147648335L195.00879974365233,35.90744392652195L195.7052597427368,36.128930032324774L196.40171974182127,33.724289410168325L197.09817974090578,34.11978431699117L197.79463973999023,34.01695611268997L198.4910997390747,34.009047157499L199.18755973815917,32.8858222917398L199.88401973724365,33.21013660184383L200.58047973632813,32.17788240100862L201.2769397354126,32.82255065021195L201.97339973449706,32.36376052822433L202.66985973358155,33.573995687902766L203.366319732666,31.786336078372017L204.0627797317505,31.944538755828546L204.75923973083496,31.24054744928361L205.45569972991944,31.529265567618978L206.1521597290039,32.25698373973685L206.84861972808838,30.694758820195204L207.54507972717286,31.359193563966755L208.24153972625734,30.544465097929645L208.9379997253418,30.532595771733952L209.63445972442625,30.010545795036933L210.33091972351073,29.59922119101364L211.0273797225952,30.148970191106798L211.7238397216797,28.938735031428337L212.42029972076415,28.915008165855397L213.11675971984863,28.80821959054947L213.81321971893308,28.570915574364676L214.5096797180176,28.36921953676699L215.20613971710205,28.20705648830574L215.90259971618653,27.574257565298097L216.59905971527098,27.684994724790272L217.29551971435546,27.97767321413039L217.99197971343995,26.581559927236242L218.68843971252443,26.95332796848615L219.38489971160888,26.846539393180223L220.08135971069336,26.929589316094734L220.77781970977782,26.965185507863396L221.47427970886233,26.07926465828899L222.17073970794678,24.441898771023773L222.86719970703126,24.687111742399537L223.56365970611571,26.14650845764001L224.2601197052002,24.679202787208567L224.95657970428468,24.51309115456104L225.65303970336916,24.758304125936803L226.3494997024536,24.34697952191354L227.04595970153807,23.678584407137237L227.74241970062255,23.74977679067453L228.43887969970703,24.13341415812016L229.1353396987915,23.86447432117143L229.83179969787597,23.287038084500637L230.52825969696045,23.44918934614344L231.2247196960449,22.82429937832677L231.9211796951294,23.29890741069636L232.61763969421386,22.59886468833767L233.31409969329835,22.428804471503895L234.0105596923828,22.223148062901487L234.70701969146728,21.681308017999328L235.40347969055176,22.377390369353293L236.09993968963624,22.16777358974616L236.7963996887207,21.85928897684255L237.49285968780518,22.34970313277563L238.18931968688963,21.898833752797458L238.88577968597414,21.823692785073916L239.5822396850586,22.033309564681048L240.27869968414308,21.879055471410766L240.97515968322753,21.728773535963683L241.671619682312,22.128228813791253L242.3680796813965,21.68526838900408L243.06453968048098,21.914651663179427" fill="none"></path></g><g><path style="fill: none;" stroke="rgb(0, 119, 187)" stroke-width="2px" d="M34.82299995422363,156.40047442319704L35.51945995330811,156.2027245755881L36.21591995239258,143.7642497499486L36.91237995147705,137.93062473334373L37.608839950561524,132.78912464379272L38.305299949646,126.99504882319968L39.001759948730474,123.8903743187984L39.69821994781494,119.57942502572338L40.39467994689941,116.89002370953163L41.09113994598388,115.5848751941522L41.78759994506836,111.88694948940278L42.48405994415283,108.66362592361371L43.18051994323731,106.34995007297198L43.876979942321775,102.21697289862634L44.57343994140625,101.62372464498281L45.269899940490724,100.25924717885256L45.9663599395752,96.85794854762952L46.66281993865967,96.30425096335014L47.35927993774414,93.10069978553852L48.05573993682861,94.7617984317859L48.75219993591308,91.0045496696949L49.44865993499756,87.66257409581344L50.14511993408203,88.0185242266814L50.8415799331665,86.08057678829431L51.538039932250975,85.26979690644345L52.23449993133545,82.83747494111856L52.930959930419924,82.54084786759218L53.6274199295044,79.00112484029928L54.323879928588866,80.1085259022673L55.02033992767334,76.98407606318395L55.716799926757815,76.46992325485945L56.41325992584229,73.80029727334977L57.10971992492676,73.70142354664407L57.806179924011225,74.17602568560442L58.5026399230957,70.51765065021912L59.199099922180174,72.29740130455892L59.89555992126465,69.41024958825112L60.592019920349124,68.99497640004158L61.28847991943359,67.96667667680184L61.984939918518066,66.72085121876398L62.68139991760254,66.22647669182619L63.377859916687015,65.81119761020742L64.07431991577148,68.65879865715107L64.77077991485596,66.54287615333L65.46723991394043,61.71777699863513L66.1636999130249,68.36217747703392L66.86015991210937,63.31955258754094L67.55661991119385,63.8336995024562L68.25307991027832,60.313748863140745L68.9495399093628,61.14430113296906L69.64599990844727,59.60184860140484L70.34245990753173,59.740272997474676L71.03891990661621,59.997349401636924L71.73537990570068,63.477749371588246L72.43183990478516,60.313748863140745L73.12829990386963,57.54524915492536L73.8247599029541,57.92097756717999L74.52121990203858,61.22340247169733L75.21767990112305,56.25987302752337L75.91413990020753,56.062125574111946L76.610599899292,59.62162688279152L77.30705989837647,55.1524778589646L78.00351989746095,55.07337652023634L78.6999798965454,56.75424755446117L79.39643989562988,57.60457221226693L80.09289989471435,55.94347945942879L80.78935989379882,57.58479393088025L81.4858198928833,58.19782635931968L82.18227989196777,57.110197685329126L82.87873989105225,57.40682475885551L83.57519989013672,54.40102103445531L84.27165988922118,53.62979771537782L84.96811988830567,54.36147625850042L85.66457988739013,55.508427989832555L86.36103988647461,53.689120772719406L87.05749988555908,52.77947305757206L87.75395988464355,54.97449690012138L88.45041988372803,51.94892668115298L89.1468798828125,56.10167035006684L89.84333988189698,54.24283014381726L90.53979988098145,53.57047465803623L91.23625988006592,51.256804700803755L91.9327198791504,54.04507090358736L92.62917987823486,53.53092988208134L93.32563987731935,53.53092988208134L94.02209987640381,51.41499559144181L94.71855987548828,52.85857439630033L95.41501987457276,52.423522926704095L96.11147987365722,51.335894252713544L96.8079398727417,54.91517384277981L97.50439987182617,51.454552154215165L98.20085987091063,52.008249738494555L98.89731986999512,51.355672534100236L99.59377986907958,49.002446014094375L100.29023986816406,50.881076288549096L100.98669986724853,52.93767573502858L101.683159866333,53.41227198057972L102.37961986541748,51.39522909687359L103.07607986450195,50.48556959490779L103.77253986358643,50.46580310033957L104.4689998626709,54.06484918497404L105.16545986175537,51.19746985664369L105.86191986083985,54.677869826595014L106.55837985992432,51.177703362075476L107.2548398590088,53.62979771537782L107.95129985809326,52.40374464531742L108.64775985717773,52.304876812020936L109.34421985626221,50.16917602681319L110.04067985534668,52.66082694288889L110.73713985443116,50.60422749640941L111.43359985351563,52.126895853177714L112.1300598526001,51.39522909687359L112.82651985168458,49.65502321848871L113.52297985076903,49.378174426349005L114.21943984985352,49.51659882241884L114.91589984893798,49.73412455721697L115.61235984802245,48.92334467536611L116.30881984710693,51.09860202334721L117.0052798461914,50.58444921502273L117.70173984527588,50.52512615768114L118.39819984436035,52.126895853177714L119.09465984344482,48.86402161802451L119.7911198425293,47.55887899605432L120.48757984161377,49.87254895328681L121.18403984069825,48.76515378472803L121.88049983978271,48.448748429815L122.57695983886718,49.02222429548107L123.27341983795166,48.547628049929926L123.96987983703613,48.31032403374513L124.66633983612061,48.705830727386456L125.36279983520508,49.27929480623405L126.05925983428955,51.454552154215165L126.75571983337403,49.93187201062841L127.4521798324585,47.89505084553559L128.14863983154297,48.962901238139466L128.84509983062745,46.372370701948824L129.54155982971193,45.858229680442804L130.23801982879638,47.89505084553559L130.93447982788086,46.70855433824855L131.63093982696532,49.121103915595995L132.3273998260498,48.547628049929926L133.02385982513428,47.3808980372111L133.72031982421873,48.03347524160543L134.41677982330322,48.09279829894703L135.1132398223877,47.42045459998448L135.80969982147215,47.04472618772982L136.50615982055663,48.705830727386456L137.20261981964111,49.67480149987537L137.8990798187256,47.67752511073749L138.59553981781005,49.536377103805535L139.29199981689453,48.29054575235844L139.98845981597898,47.756626449465756L140.68491981506347,45.067228079978605L141.38137981414795,48.40920365386009L142.07783981323243,48.72559722195467L142.77429981231688,49.536377103805535L143.47075981140136,46.78765567697681L144.16721981048582,46.80742217154503L144.86367980957033,47.578645490622534L145.56013980865478,48.09279829894703L146.25659980773926,45.50227954957484L146.95305980682372,47.49954415189427L147.6495198059082,47.282030203914616L148.34597980499268,45.22541897061669L149.04243980407716,48.82447684206963L149.73889980316162,48.171899637675295L150.4353598022461,46.372370701948824L151.13181980133055,48.05325352299212L151.82827980041506,46.21417981131074L152.5247397994995,46.03619885246755L153.221199798584,48.40920365386009L153.91765979766845,45.798894836282756L154.61411979675293,45.81867311766945L155.3105797958374,45.30452030934495L156.0070397949219,46.01642057108086L156.70349979400635,43.64342755650679L157.3999597930908,45.08699457454682L158.09641979217528,45.640703945644674L158.79287979125976,44.691499667723974L159.48933979034425,45.18587419466178L160.1857997894287,47.42045459998448L160.88225978851318,45.93731923235259L161.57871978759763,45.1463294187069L162.27517978668214,45.02767151720525L162.9716397857666,44.41465087558427L163.66809978485108,44.493752214312536L164.36455978393553,44.88924712113541L165.06101978302001,43.702750613848366L165.7574797821045,43.702750613848366L166.45393978118898,45.81867311766945L167.15039978027343,44.078479026103L167.8468597793579,43.08972997222742L168.54331977844237,43.14905302956899L169.23977977752688,42.43715276783308L169.93623977661133,42.19984875164829L170.6326997756958,44.869480626567196L171.32915977478027,42.79310289870102L172.02561977386475,45.1463294187069L172.72207977294923,43.38634525893531L173.4185397720337,44.3553278182427L174.11499977111816,43.05017340945403L174.81145977020262,43.20837608691056L175.5079197692871,42.61512193985783L176.20437976837158,42.97107207072577L176.90083976745606,44.711277949110666L177.59729976654052,41.36930237522921L178.293759765625,42.35805142910479L178.99021976470945,40.87492784829138L179.68667976379396,43.168819524137206L180.38313976287841,42.85242595604262L181.0795997619629,42.77332461731436L181.77605976104735,41.646151167368885L182.47251976013183,42.57557716390292L183.1689797592163,39.965280133144034L183.8654397583008,42.71400155997276L184.56189975738525,42.41737448644639L185.25835975646973,41.903221678121895L185.95481975555418,41.60659460459553L186.6512797546387,39.846622231642414L187.34773975372315,43.20837608691056L188.04419975280763,41.34952409384252L188.74065975189208,39.11495547533829L189.43711975097656,41.903221678121895L190.13357975006105,40.123471023782116L190.83003974914553,39.94550185175737L191.52649974822998,40.18279408112369L192.22295974731443,38.50192304689887L192.91941974639892,40.61784555071992L193.6158797454834,40.439876378695175L194.31233974456788,38.73922706308366L195.00879974365233,38.54147960967222L195.7052597427368,40.51897771742344L196.40171974182127,39.03585413661003L197.09817974090578,39.075398912564935L197.79463973999023,37.57249705036483L198.4910997390747,39.233601590021465L199.18755973815917,39.451127324819566L199.88401973724365,37.94822546261946L200.58047973632813,37.75047800920805L201.2769397354126,37.8691241238912L201.97339973449706,37.4142943729083L202.66985973358155,38.8183284018119L203.366319732666,36.36622226169112L204.0627797317505,36.821052012674016L204.75923973083496,37.058344242040334L205.45569972991944,37.31542653961182L206.1521597290039,37.03857774747212L206.84861972808838,35.772979901456836L207.54507972717286,36.50464665776096L208.24153972625734,36.42554531903269L208.9379997253418,36.18825308966635L209.63445972442625,35.852069453366624L210.33091972351073,36.544203220534314L211.0273797225952,36.643071053830795L211.7238397216797,34.6260281701247L212.42029972076415,35.53567588527204L213.11675971984863,35.61477722400028L213.81321971893308,35.00174479556085L214.5096797180176,35.08084613428912L215.20613971710205,35.08084613428912L215.90259971618653,34.15142013775511L216.59905971527098,34.6260281701247L217.29551971435546,34.74467428480784L217.99197971343995,33.89434962700207L218.68843971252443,34.21075498191516L219.38489971160888,34.03277402307194L220.08135971069336,34.52714855000974L220.77781970977782,33.755925230932235L221.47427970886233,33.399975100064296L222.17073970794678,32.806720953011535L222.86719970703126,31.936629800637547L223.56365970611571,33.24177242260777L224.2601197052002,32.98470191185473L224.95657970428468,32.64853006237345L225.65303970336916,32.8858222917398L226.3494997024536,32.549650442258525L227.04595970153807,31.52134482560956L227.74241970062255,31.560901388382916L228.43887969970703,31.857528461909283L229.1353396987915,31.58067966976961L229.83179969787597,31.541123106996224L230.52825969696045,31.916851519250883L231.2247196960449,30.710576730577145L231.9211796951294,31.699325784452753L232.61763969421386,31.125849918786685L233.31409969329835,30.117322583524384L234.0105596923828,30.928102465375247L234.70701969146728,30.295303542367606L235.40347969055176,30.94788074676194L236.09993968963624,30.769899787918746L236.7963996887207,30.908324183988583L237.49285968780518,31.10607163740002L238.18931968688963,30.710576730577145L238.88577968597414,30.512829277165736L239.5822396850586,30.690798449190453L240.27869968414308,30.493050995779043L240.97515968322753,30.710576730577145L241.671619682312,30.512829277165736L242.3680796813965,30.41394965705078L243.06453968048098,30.572152334507308" fill="none"></path></g></g></g></g></g></g><g transform="translate(51, 177)" clip-path="url(#clip_1)"><clipPath id="clip_1"><rect width="278" height="22"></rect></clipPath><g><g><line x1="0" y1="0" x2="0" y2="5" style="visibility: inherit;" fill="rgb(0, 0, 0)" stroke="rgb(204, 204, 204)" stroke-width="1px"></line><line x1="34.82299995422363" y1="0" x2="34.82299995422363" y2="5" style="visibility: inherit;" fill="rgb(0, 0, 0)" stroke="rgb(204, 204, 204)" stroke-width="1px"></line><line x1="69.64599990844727" y1="0" x2="69.64599990844727" y2="5" style="visibility: inherit;" fill="rgb(0, 0, 0)" stroke="rgb(204, 204, 204)" stroke-width="1px"></line><line x1="104.4689998626709" y1="0" x2="104.4689998626709" y2="5" style="visibility: inherit;" fill="rgb(0, 0, 0)" stroke="rgb(204, 204, 204)" stroke-width="1px"></line><line x1="139.29199981689453" y1="0" x2="139.29199981689453" y2="5" style="visibility: inherit;" fill="rgb(0, 0, 0)" stroke="rgb(204, 204, 204)" stroke-width="1px"></line><line x1="174.11499977111816" y1="0" x2="174.11499977111816" y2="5" style="visibility: inherit;" fill="rgb(0, 0, 0)" stroke="rgb(204, 204, 204)" stroke-width="1px"></line><line x1="208.9379997253418" y1="0" x2="208.9379997253418" y2="5" style="visibility: inherit;" fill="rgb(0, 0, 0)" stroke="rgb(204, 204, 204)" stroke-width="1px"></line><line x1="243.76099967956543" y1="0" x2="243.76099967956543" y2="5" style="visibility: inherit;" fill="rgb(0, 0, 0)" stroke="rgb(204, 204, 204)" stroke-width="1px"></line><line x1="278.58399963378906" y1="0" x2="278.58399963378906" y2="5" style="visibility: inherit;" fill="rgb(0, 0, 0)" stroke="rgb(204, 204, 204)" stroke-width="1px"></line></g><g transform="translate(0, 8)"><text style="text-anchor: middle; visibility: hidden; font-family: &quot;Helvetica Neue&quot;, sans-serif; font-size: 12px; font-weight: 200;" x="0" y="0" dx="0em" dy="0.95em" fill="rgb(50, 49, 63)" stroke="none" stroke-width="1px">-50</text><text style="text-anchor: middle; visibility: inherit; font-family: &quot;Helvetica Neue&quot;, sans-serif; font-size: 12px; font-weight: 200;" x="34.82299995422363" y="0" dx="0em" dy="0.95em" fill="rgb(50, 49, 63)" stroke="none" stroke-width="1px">0</text><text style="text-anchor: middle; visibility: inherit; font-family: &quot;Helvetica Neue&quot;, sans-serif; font-size: 12px; font-weight: 200;" x="69.64599990844727" y="0" dx="0em" dy="0.95em" fill="rgb(50, 49, 63)" stroke="none" stroke-width="1px">50</text><text style="text-anchor: middle; visibility: inherit; font-family: &quot;Helvetica Neue&quot;, sans-serif; font-size: 12px; font-weight: 200;" x="104.4689998626709" y="0" dx="0em" dy="0.95em" fill="rgb(50, 49, 63)" stroke="none" stroke-width="1px">100</text><text style="text-anchor: middle; visibility: inherit; font-family: &quot;Helvetica Neue&quot;, sans-serif; font-size: 12px; font-weight: 200;" x="139.29199981689453" y="0" dx="0em" dy="0.95em" fill="rgb(50, 49, 63)" stroke="none" stroke-width="1px">150</text><text style="text-anchor: middle; visibility: inherit; font-family: &quot;Helvetica Neue&quot;, sans-serif; font-size: 12px; font-weight: 200;" x="174.11499977111816" y="0" dx="0em" dy="0.95em" fill="rgb(50, 49, 63)" stroke="none" stroke-width="1px">200</text><text style="text-anchor: middle; visibility: inherit; font-family: &quot;Helvetica Neue&quot;, sans-serif; font-size: 12px; font-weight: 200;" x="208.9379997253418" y="0" dx="0em" dy="0.95em" fill="rgb(50, 49, 63)" stroke="none" stroke-width="1px">250</text><text style="text-anchor: middle; visibility: inherit; font-family: &quot;Helvetica Neue&quot;, sans-serif; font-size: 12px; font-weight: 200;" x="243.76099967956543" y="0" dx="0em" dy="0.95em" fill="rgb(50, 49, 63)" stroke="none" stroke-width="1px">300</text><text style="text-anchor: middle; visibility: hidden; font-family: &quot;Helvetica Neue&quot;, sans-serif; font-size: 12px; font-weight: 200;" x="278.58399963378906" y="0" dx="0em" dy="0.95em" fill="rgb(50, 49, 63)" stroke="none" stroke-width="1px">350</text></g><line x1="0" y1="0" x2="278.58399963378906" y2="0" fill="rgb(0, 0, 0)" stroke="rgb(204, 204, 204)" stroke-width="1px"></line></g></g></g></g></svg>