<svg viewBox="0 0 330 200" xmlns="http://www.w3.org/2000/svg"><g><g><g><g><g><line x1="41.0620002746582" y1="177.9749994277954" x2="36.0620002746582" y2="177.9749994277954" style="visibility: inherit;" fill="rgb(0, 0, 0)" stroke="rgb(204, 204, 204)" stroke-width="1px"></line><line x1="41.0620002746582" y1="164.28461485642654" x2="36.0620002746582" y2="164.28461485642654" style="visibility: inherit;" fill="rgb(0, 0, 0)" stroke="rgb(204, 204, 204)" stroke-width="1px"></line><line x1="41.0620002746582" y1="150.59423028505768" x2="36.0620002746582" y2="150.59423028505768" style="visibility: inherit;" fill="rgb(0, 0, 0)" stroke="rgb(204, 204, 204)" stroke-width="1px"></line><line x1="41.0620002746582" y1="136.90384571368878" x2="36.0620002746582" y2="136.90384571368878" style="visibility: inherit;" fill="rgb(0, 0, 0)" stroke="rgb(204, 204, 204)" stroke-width="1px"></line><line x1="41.0620002746582" y1="123.21346114231991" x2="36.0620002746582" y2="123.21346114231991" style="visibility: inherit;" fill="rgb(0, 0, 0)" stroke="rgb(204, 204, 204)" stroke-width="1px"></line><line x1="41.0620002746582" y1="109.52307657095103" x2="36.0620002746582" y2="109.52307657095103" style="visibility: inherit;" fill="rgb(0, 0, 0)" stroke="rgb(204, 204, 204)" stroke-width="1px"></line><line x1="41.0620002746582" y1="95.83269199958217" x2="36.0620002746582" y2="95.83269199958217" style="visibility: inherit;" fill="rgb(0, 0, 0)" stroke="rgb(204, 204, 204)" stroke-width="1px"></line><line x1="41.0620002746582" y1="82.14230742821327" x2="36.0620002746582" y2="82.14230742821327" style="visibility: inherit;" fill="rgb(0, 0, 0)" stroke="rgb(204, 204, 204)" stroke-width="1px"></line><line x1="41.0620002746582" y1="68.45192285684438" x2="36.0620002746582" y2="68.45192285684438" style="visibility: inherit;" fill="rgb(0, 0, 0)" stroke="rgb(204, 204, 204)" stroke-width="1px"></line><line x1="41.0620002746582" y1="54.76153828547554" x2="36.0620002746582" y2="54.76153828547554" style="visibility: inherit;" fill="rgb(0, 0, 0)" stroke="rgb(204, 204, 204)" stroke-width="1px"></line><line x1="41.0620002746582" y1="41.07115371410666" x2="36.0620002746582" y2="41.07115371410666" style="visibility: inherit;" fill="rgb(0, 0, 0)" stroke="rgb(204, 204, 204)" stroke-width="1px"></line><line x1="41.0620002746582" y1="27.38076914273779" x2="36.0620002746582" y2="27.38076914273779" style="visibility: inherit;" fill="rgb(0, 0, 0)" stroke="rgb(204, 204, 204)" stroke-width="1px"></line><line x1="41.0620002746582" y1="13.690384571368895" x2="36.0620002746582" y2="13.690384571368895" style="visibility: inherit;" fill="rgb(0, 0, 0)" stroke="rgb(204, 204, 204)" stroke-width="1px"></line><line x1="41.0620002746582" y1="0" x2="36.0620002746582" y2="0" style="visibility: inherit;" fill="rgb(0, 0, 0)" stroke="rgb(204, 204, 204)" stroke-width="1px"></line></g><g transform="translate(31.062000274658203, 0)"><text style="text-anchor: end; visibility: hidden; font-family: &quot;Helvetica Neue&quot;, sans-serif; font-size: 12px; font-weight: 200;" x="0" y="177.9749994277954" dx="0em" dy="0.3em" fill="rgb(50, 49, 63)" stroke="none" stroke-width="1px">1.6</text><text style="text-anchor: end; visibility: inherit; font-family: &quot;Helvetica Neue&quot;, sans-serif; font-size: 12px; font-weight: 200;" x="0" y="164.28461485642654" dx="0em" dy="0.3em" fill="rgb(50, 49, 63)" stroke="none" stroke-width="1px">1.8</text><text style="text-anchor: end; visibility: hidden; font-family: &quot;Helvetica Neue&quot;, sans-serif; font-size: 12px; font-weight: 200;" x="0" y="150.59423028505768" dx="0em" dy="0.3em" fill="rgb(50, 49, 63)" stroke="none" stroke-width="1px">2</text><text style="text-anchor: end; visibility: inherit; font-family: &quot;Helvetica Neue&quot;, sans-serif; font-size: 12px; font-weight: 200;" x="0" y="136.90384571368878" dx="0em" dy="0.3em" fill="rgb(50, 49, 63)" stroke="none" stroke-width="1px">2.2</text><text style="text-anchor: end; visibility: hidden; font-family: &quot;Helvetica Neue&quot;, sans-serif; font-size: 12px; font-weight: 200;" x="0" y="123.21346114231991" dx="0em" dy="0.3em" fill="rgb(50, 49, 63)" stroke="none" stroke-width="1px">2.4</text><text style="text-anchor: end; visibility: inherit; font-family: &quot;Helvetica Neue&quot;, sans-serif; font-size: 12px; font-weight: 200;" x="0" y="109.52307657095103" dx="0em" dy="0.3em" fill="rgb(50, 49, 63)" stroke="none" stroke-width="1px">2.6</text><text style="text-anchor: end; visibility: hidden; font-family: &quot;Helvetica Neue&quot;, sans-serif; font-size: 12px; font-weight: 200;" x="0" y="95.83269199958217" dx="0em" dy="0.3em" fill="rgb(50, 49, 63)" stroke="none" stroke-width="1px">2.8</text><text style="text-anchor: end; visibility: inherit; font-family: &quot;Helvetica Neue&quot;, sans-serif; font-size: 12px; font-weight: 200;" x="0" y="82.14230742821327" dx="0em" dy="0.3em" fill="rgb(50, 49, 63)" stroke="none" stroke-width="1px">3</text><text style="text-anchor: end; visibility: hidden; font-family: &quot;Helvetica Neue&quot;, sans-serif; font-size: 12px; font-weight: 200;" x="0" y="68.45192285684438" dx="0em" dy="0.3em" fill="rgb(50, 49, 63)" stroke="none" stroke-width="1px">3.2</text><text style="text-anchor: end; visibility: inherit; font-family: &quot;Helvetica Neue&quot;, sans-serif; font-size: 12px; font-weight: 200;" x="0" y="54.76153828547554" dx="0em" dy="0.3em" fill="rgb(50, 49, 63)" stroke="none" stroke-width="1px">3.4</text><text style="text-anchor: end; visibility: hidden; font-family: &quot;Helvetica Neue&quot;, sans-serif; font-size: 12px; font-weight: 200;" x="0" y="41.07115371410666" dx="0em" dy="0.3em" fill="rgb(50, 49, 63)" stroke="none" stroke-width="1px">3.6</text><text style="text-anchor: end; visibility: inherit; font-family: &quot;Helvetica Neue&quot;, sans-serif; font-size: 12px; font-weight: 200;" x="0" y="27.38076914273779" dx="0em" dy="0.3em" fill="rgb(50, 49, 63)" stroke="none" stroke-width="1px">3.8</text><text style="text-anchor: end; visibility: hidden; font-family: &quot;Helvetica Neue&quot;, sans-serif; font-size: 12px; font-weight: 200;" x="0" y="13.690384571368895" dx="0em" dy="0.3em" fill="rgb(50, 49, 63)" stroke="none" stroke-width="1px">4</text><text style="text-anchor: end; visibility: hidden; font-family: &quot;Helvetica Neue&quot;, sans-serif; font-size: 12px; font-weight: 200;" x="0" y="0" dx="0em" dy="0.3em" fill="rgb(50, 49, 63)" stroke="none" stroke-width="1px">4.2</text></g><line x1="41.0620002746582" y1="0" x2="41.0620002746582" y2="177.9749994277954" fill="rgb(0, 0, 0)" stroke="rgb(204, 204, 204)" stroke-width="1px"></line></g></g><g transform="translate(41, 0)" clip-path="url(#clip_0)"><clipPath id="clip_0"><rect width="288" height="177"></rect></clipPath><g><g><g><line x1="0" y1="0" x2="0" y2="177.9749994277954" fill="rgb(0, 0, 0)" stroke="rgb(60, 60, 60)" stroke-width="1px" opacity="0.25"></line><line x1="20.638428551810126" y1="0" x2="20.638428551810126" y2="177.9749994277954" fill="rgb(0, 0, 0)" stroke="rgb(60, 60, 60)" stroke-width="1px" opacity="0.25"></line><line x1="41.27685710362025" y1="0" x2="41.27685710362025" y2="177.9749994277954" fill="rgb(0, 0, 0)" stroke="rgb(60, 60, 60)" stroke-width="1px" opacity="0.25"></line><line x1="61.91528565543038" y1="0" x2="61.91528565543038" y2="177.9749994277954" fill="rgb(0, 0, 0)" stroke="rgb(60, 60, 60)" stroke-width="1px" opacity="0.25"></line><line x1="82.5537142072405" y1="0" x2="82.5537142072405" y2="177.9749994277954" fill="rgb(0, 0, 0)" stroke="rgb(60, 60, 60)" stroke-width="1px" opacity="0.25"></line><line x1="103.19214275905064" y1="0" x2="103.19214275905064" y2="177.9749994277954" fill="rgb(0, 0, 0)" stroke="rgb(60, 60, 60)" stroke-width="1px" opacity="0.25"></line><line x1="123.83057131086076" y1="0" x2="123.83057131086076" y2="177.9749994277954" fill="rgb(0, 0, 0)" stroke="rgb(60, 60, 60)" stroke-width="1px" opacity="0.25"></line><line x1="144.4689998626709" y1="0" x2="144.4689998626709" y2="177.9749994277954" fill="rgb(0, 0, 0)" stroke="rgb(60, 60, 60)" stroke-width="1px" opacity="0.25"></line><line x1="165.107428414481" y1="0" x2="165.107428414481" y2="177.9749994277954" fill="rgb(0, 0, 0)" stroke="rgb(60, 60, 60)" stroke-width="1px" opacity="0.25"></line><line x1="185.74585696629117" y1="0" x2="185.74585696629117" y2="177.9749994277954" fill="rgb(0, 0, 0)" stroke="rgb(60, 60, 60)" stroke-width="1px" opacity="0.25"></line><line x1="206.38428551810128" y1="0" x2="206.38428551810128" y2="177.9749994277954" fill="rgb(0, 0, 0)" stroke="rgb(60, 60, 60)" stroke-width="1px" opacity="0.25"></line><line x1="227.02271406991142" y1="0" x2="227.02271406991142" y2="177.9749994277954" fill="rgb(0, 0, 0)" stroke="rgb(60, 60, 60)" stroke-width="1px" opacity="0.25"></line><line x1="247.66114262172152" y1="0" x2="247.66114262172152" y2="177.9749994277954" fill="rgb(0, 0, 0)" stroke="rgb(60, 60, 60)" stroke-width="1px" opacity="0.25"></line><line x1="268.29957117353166" y1="0" x2="268.29957117353166" y2="177.9749994277954" fill="rgb(0, 0, 0)" stroke="rgb(60, 60, 60)" stroke-width="1px" opacity="0.25"></line><line x1="288.9379997253418" y1="0" x2="288.9379997253418" y2="177.9749994277954" fill="rgb(0, 0, 0)" stroke="rgb(60, 60, 60)" stroke-width="1px" opacity="0.25"></line></g><g><line x1="0" y1="177.9749994277954" x2="288.9379997253418" y2="177.9749994277954" fill="rgb(0, 0, 0)" stroke="rgb(60, 60, 60)" stroke-width="1px" opacity="0.25"></line><line x1="0" y1="164.28461485642654" x2="288.9379997253418" y2="164.28461485642654" fill="rgb(0, 0, 0)" stroke="rgb(60, 60, 60)" stroke-width="1px" opacity="0.25"></line><line x1="0" y1="150.59423028505768" x2="288.9379997253418" y2="150.59423028505768" fill="rgb(0, 0, 0)" stroke="rgb(60, 60, 60)" stroke-width="1px" opacity="0.25"></line><line x1="0" y1="136.90384571368878" x2="288.9379997253418" y2="136.90384571368878" fill="rgb(0, 0, 0)" stroke="rgb(60, 60, 60)" stroke-width="1px" opacity="0.25"></line><line x1="0" y1="123.21346114231991" x2="288.9379997253418" y2="123.21346114231991" fill="rgb(0, 0, 0)" stroke="rgb(60, 60, 60)" stroke-width="1px" opacity="0.25"></line><line x1="0" y1="109.52307657095103" x2="288.9379997253418" y2="109.52307657095103" fill="rgb(0, 0, 0)" stroke="rgb(60, 60, 60)" stroke-width="1px" opacity="0.25"></line><line x1="0" y1="95.83269199958217" x2="288.9379997253418" y2="95.83269199958217" fill="rgb(0, 0, 0)" stroke="rgb(60, 60, 60)" stroke-width="1px" opacity="0.25"></line><line x1="0" y1="82.14230742821327" x2="288.9379997253418" y2="82.14230742821327" fill="rgb(0, 0, 0)" stroke="rgb(60, 60, 60)" stroke-width="1px" opacity="0.25"></line><line x1="0" y1="68.45192285684438" x2="288.9379997253418" y2="68.45192285684438" fill="rgb(0, 0, 0)" stroke="rgb(60, 60, 60)" stroke-width="1px" opacity="0.25"></line><line x1="0" y1="54.76153828547554" x2="288.9379997253418" y2="54.76153828547554" fill="rgb(0, 0, 0)" stroke="rgb(60, 60, 60)" stroke-width="1px" opacity="0.25"></line><line x1="0" y1="41.07115371410666" x2="288.9379997253418" y2="41.07115371410666" fill="rgb(0, 0, 0)" stroke="rgb(60, 60, 60)" stroke-width="1px" opacity="0.25"></line><line x1="0" y1="27.38076914273779" x2="288.9379997253418" y2="27.38076914273779" fill="rgb(0, 0, 0)" stroke="rgb(60, 60, 60)" stroke-width="1px" opacity="0.25"></line><line x1="0" y1="13.690384571368895" x2="288.9379997253418" y2="13.690384571368895" fill="rgb(0, 0, 0)" stroke="rgb(60, 60, 60)" stroke-width="1px" opacity="0.25"></line><line x1="0" y1="0" x2="288.9379997253418" y2="0" fill="rgb(0, 0, 0)" stroke="rgb(60, 60, 60)" stroke-width="1px" opacity="0.25"></line></g></g></g><g><g><line x1="0" y1="287.49807599874646" x2="288.9379997253418" y2="287.49807599874646" fill="rgb(0, 0, 0)" stroke="rgb(153, 153, 153)" stroke-width="1.5px"></line></g></g><g><g><line x1="20.638428551810126" y1="0" x2="20.638428551810126" y2="177.9749994277954" fill="rgb(0, 0, 0)" stroke="rgb(153, 153, 153)" stroke-width="1.5px"></line></g></g><g><g><g><g><g><path style="fill: none;" stroke="rgb(0, 153, 136)" stroke-width="2px" d="M23.84357650590624,-4.922097054575573L24.0107477771759,0.38285254667141544L24.340962634004867,-5.094895440006894L25.2717557616915,23.227360515926733L25.374947904450554,6.100213859275641L25.789780318341936,13.18550254910744L25.89297246110099,20.466633761150774L26.03744146096366,22.312057847950513L26.16127203227452,23.568779312982258L26.86504244589124,3.99258927565495L26.906319302994866,25.522895999609432L27.071426731409346,2.986611519894808L27.651366573715208,35.82307025322581L28.045560559054785,18.109815888226024L29.1414611151559,6.005262876423416L29.16209954370771,5.335514090880167L29.556293529047284,14.549904760935163L29.618208814702715,19.904565722403532L29.927785242979866,19.836053480049827L29.989700528635296,25.28256458443545L30.01033895718711,34.40668817196109L30.216723242705207,39.93357631150437L30.590278799492975,47.97837911870158L31.459156641524178,9.039451073047474L31.99781962672642,48.59038700061279L32.328034483555385,39.923066096145675L32.47250348341805,48.00126005337998L32.493141911969865,20.011299897008826L33.15563546848297,58.403762024851915L33.44457346820831,60.02621940011379L33.57046788237435,28.951772159330574L33.591106310926165,61.8964012457631L33.63238316802978,64.35102613832237L33.694298453685214,21.309148291705014L33.73557531078883,59.28539609921792L33.983236453410555,24.492193125420073L34.18962073892866,24.934780905408047L35.05849858095986,64.37088783411666L35.20503142367772,61.58261256454959L35.3701388520922,34.14421023156703L35.82418428023202,38.70861397549129L35.90673799443926,80.26132160342195L36.07390926570893,62.79016123629604L36.156462979916164,23.286978243729976L36.19773983701979,76.17465937222265L36.48667783674513,22.11001364586889L36.52795469384875,20.337997864478126L36.6311468366078,79.16001749997528L36.672423693711416,63.90130642648383L36.81895653642927,22.32628907123123L36.94278710774013,100.03815230475499L36.963425536291936,55.589537621091836L37.43810939298357,21.681575488110695L37.52066310719081,49.873906250767135L38.94884236297607,20.085899577761268L38.99011922007969,12.932637212511906L39.652612776592804,51.92631956333436L39.71452806224823,32.23135103628576L40.04680676193237,30.72871664419702L40.232552618898666,61.062177381982494L40.25319104745048,23.945874089500677L40.37702161876133,41.057647108158136L40.397660047313146,84.01199966755708L40.500852190072195,71.79030018705157L40.85376931830815,29.155791106844475L40.91568460396358,88.4903959038101L41.10143046092987,28.405861128665777L42.094138874271934,40.17883643015401L42.15605415992737,59.69508233547437L42.279884731238226,31.34847662594575L42.403715302549095,71.06488316456966L42.48833285961151,92.10293970894533L42.69471714512961,49.864391568229706L42.81854771644048,19.35937278098686L42.92173985919952,27.29494442142058L43.97636355819702,27.03723198240033L44.060981115259445,85.97133882144323L44.08161954381125,30.57065540856209L44.453111257743835,66.25546410514853L44.72141082891737,26.90766583374719L44.971135814394266,55.92743125274757L45.73682151366643,37.8396607044385L46.02575951339177,15.492201056556183L46.08767479904719,111.88119026856441L46.481868784386776,22.592700182279742L46.60569935569763,41.83233484518641L46.750168355560305,31.266434929349288L47.204213783700126,87.60386576638881L47.26612906935556,108.38744127336068L47.474577197728834,34.55516944421785L47.536492483384265,51.95442296527172L47.5984077690397,33.73432815278835L47.61904619759151,34.3958678726089L48.59111618238177,62.490048891216986L48.71494675369263,83.032330090614L48.73558518224444,23.18378555473467L49.17105602468763,66.18910613053919L49.41871716730935,64.7943972883992L49.62510145282746,61.160882013177144L50.225679723685126,76.66655050717742L50.45270243775504,46.55576271714648L50.59923528047289,31.75651452097358L50.72306585178376,35.76648808451685L51.36492097974505,72.9125104797443L51.44747469395229,119.6380229670597L51.96343540774754,28.071296819887664L52.27507567887987,32.8582755903054L52.295714107431685,53.63653070875719L52.60529053570883,101.89343379850607L52.68784424991608,27.581102986792075L53.02012294960022,53.99229497056473L53.723893363216945,50.849430494323414L53.889000791631425,95.84296067583011L54.30176936266763,86.62333121830595L54.57213277669634,44.65104730674719L54.757878633662635,30.35808467091158L54.84043234786987,39.4570914549636L54.88170920497349,25.23203721370487L54.92298606207711,75.55447506500911L54.984901347732546,92.52364208707617L55.12937034759521,95.6901871882949L55.315116204561505,102.20777736686583L55.58547961859022,32.973039308321376L55.62675647569384,33.038336469268756L55.68867176134927,29.978019616139647L55.791863904108325,39.14641993389529L55.85377918976375,27.329641188272376L55.87441761831556,105.18476322679392L56.26861160365513,26.414762845760976L56.454357460621424,27.674585150727722L56.578188031932285,44.42344565551693L56.743295460346765,65.2073638869027L56.929041317313064,20.38795402785226L57.0549357314791,67.42523149031831L57.48834273106711,31.84084104699585L57.75870614509582,110.8008413149944L57.841259859303065,57.70080161158363L58.02700571626936,85.54206833296563L58.295305287442886,28.752991999285825L58.357220573098324,74.25466824509083L58.48105114440918,31.817258343279548L58.5223280015128,51.53610333782778L59.32929055788858,110.92583780479595L59.661569257572715,42.997548891714786L59.86795354309082,64.08392957844613L59.92986882874625,87.95354258979759L60.32406281408582,44.171053605016766L60.61300081381116,32.059270740102505L60.65427767091479,35.83090395411429L61.00719479915074,62.92140836659817L61.08974851335798,106.385816454887L61.25485594177246,34.37652842354052L61.605709227153234,39.18904832289667L61.72953979846409,86.64133241013924L62.20628749801091,40.32193203304993L62.47458706918444,36.193163659575134L62.53650235483987,74.45560267287993L62.55714078339168,65.4956930402287L62.703673626109534,50.89870120886981L62.78622734031677,78.72172193526576L62.930696340179445,113.8267714852652L63.2402727684566,33.453441015306396L63.92340475352151,85.77554525986221L64.00595846772875,31.12147882249232L64.15042746759141,33.01744660023286L64.31759873886108,35.65092467620184L64.77164416700091,93.55168476700551L64.81292102410453,84.71655946142343L64.85419788120815,55.18362135338796L65.01930530962264,39.09403205920367L65.16583815234048,56.679189094466906L65.24839186654772,43.96096353931429L65.66116043758393,118.18562218191823L65.76435258034297,26.573264727070892L65.78499100889478,47.50976060346966L65.8262678659984,57.12097718415586L65.86960856595721,47.57685298753731L66.11726970857893,45.7718051007335L66.17918499423435,35.460304621249236L66.2823771369934,65.68301641272407L66.65593269378117,77.28639208997707L66.86231697929928,73.9179333483582L66.98614755061013,49.11575088665555L67.10997812192099,74.00175394786476L67.19253183612824,30.569366111957493L67.44019297874996,32.302768276052234L67.9582175354004,64.69198796949273L68.14396339236667,50.041531129570075L68.84773380598341,118.8595979018992L68.86837223453522,79.7568312662049L68.90964909163884,47.947550241663464L69.79916536222186,135.99934376081256L69.9456982049397,31.24877646192985L70.131444061906,92.17141931087865L70.17272091900962,31.295403302426422L70.27591306176866,114.3806794189203L70.7732991898673,42.91093753626669L70.79393761841911,33.19958014588963L71.0003219039372,70.81032052611499L71.04159876104083,38.85373328445007L71.14479090379987,107.0593841696134L71.43372890352522,88.71918893038378L71.53898488913944,77.7784137866133L71.72473074610573,114.64904895519089L72.03430717438289,47.97611060948597L72.11686088859013,112.25071246755729L72.15813774569375,46.14367740999293L72.65552387379238,47.97823223680993L73.09099471623557,88.21362145929457L73.21482528754643,49.639645953781724L73.56567857292721,77.18860139055275L73.68950914423807,35.56269761994551L74.20753370088849,133.0152422892441L74.68221755758013,35.22648496993878L74.80811197174617,25.52988104956833L74.91130411450523,64.5810105402395L75.17960368567876,47.34020993986499L75.32407268554144,113.58962251107715L75.61507452812195,48.809061496872204L75.86273567074367,124.92817013766953L75.92465095639909,93.39757302223518L76.21358895612444,47.74387401856342L76.91735936974116,44.15284025045108L76.93799779829297,61.559258343775866L76.95863622684477,85.46771345536597L77.62112978335789,49.78370444907853L78.59319976814814,57.664505464133754L78.7603710394178,35.98858982491498L78.9461168963841,59.20255471232241L79.06994746769497,67.12595147595866L79.50335446728299,88.5001553895003L79.54669516724178,32.82047798351854L80.49812672348023,100.08244535519518L80.6632341518947,31.035357073349786L81.13791800858634,42.533973321429784L81.38764299406324,113.200418138602L81.7178578508922,39.90188246332647L81.77977313654763,73.35309087387964L81.9448805649621,36.52607962712466L81.98822126492092,118.8838170938127L82.48354355016437,73.22931839984192L82.5660972643716,34.074180209666196L82.60737412147522,68.24404907568496L83.16667553522927,38.62533194292081L83.62278480622429,22.532543887540413L83.93236123450143,32.07807162223483L84.30385294843401,29.96225429310161L84.40910893404825,72.46770315117124L84.73932379087721,127.23025002563614L85.11081550480979,123.64518945445127L85.1314539333616,103.26601243563613L85.81458591842652,122.69913951048784L86.00239561824799,47.23047284658574L86.0643109039034,28.173200212278402L86.08494933245524,32.00319449790925L86.12622618955885,83.84889548697521L86.14686461811067,31.973165311170135L86.66282533190592,71.7029544221452L87.325318888419,112.4595295568654L87.4904263168335,105.00732990167023L87.7607897308622,33.136502533527306L87.781428159414,38.6413420691116L88.13228144479478,124.61405505225234L88.75349814420429,115.73032816074142L89.29216112940652,68.00157971297682L89.39535327216556,81.76376015298848L89.84939870030539,45.72907879047102L90.01450612871989,119.26127091495516L90.22295425709315,64.20309975321187L90.26423111419678,145.32035436400156L90.40870011405946,19.406440267158388L90.53253068537032,71.47811088643613L90.80083025654383,64.5624055006294L90.84417095650264,81.1474600557988L91.1950242418834,34.02683527992153L91.44268538450514,70.84810181269164L91.50460067016057,155.37722692419044L92.00198679825918,112.97732086538264L92.12581736957006,120.19260002933234L92.52001135490963,33.41257520900493L92.87086464029039,73.63454921871805L93.26505862562998,81.75307041531775L93.63655033956255,127.13528272257372L93.67782719666617,35.872487849663884L93.71910405376978,46.34541152808106L93.78101933942523,72.53756997097022L93.84293462508066,130.16676176430718L94.1752133247648,64.39677168746896L94.4022360388347,73.75903978200387L94.69117403856005,42.4951638616115L95.80977686606816,110.63507694015247L95.8923305802754,72.11804264797264L96.05743800868989,33.83477904647273L96.1193532943453,70.05369926176071L96.7405699937548,27.900995426614486L96.90567742216928,39.520266988587L97.17397699334282,53.128498885930156L97.27716913610186,47.31346111537289L97.5888094072342,31.047744112879684L97.69200154999325,77.37383577614455L97.73327840709686,39.108850810051024L97.93966269261496,90.13127879637003L98.02221640682221,59.74102372714316L98.60215624912807,67.32055366219622L98.70534839188711,31.60765788388258L98.84981739174978,26.868301486782656L99.88586650505066,61.68675182573561L100.03033550491334,109.60373757776591L100.11288921912058,89.37464121180557L100.33991193319048,61.320722151722165L100.46374250450134,98.36120174768776L100.56899849011558,124.91570149708873L101.0230439182554,45.09957564324225L101.33468418938773,30.698801698929202L101.52043004635402,134.31485326664017L101.54106847490583,35.665612865367706L101.78872961752757,89.56921075762278L102.01575233159747,145.71119075749516L102.07766761725289,51.908008287507585L103.21690887331282,39.52583218025987L103.32010101607186,89.24647860122828L103.34073944462367,43.159624899055046L103.54712373014178,53.21542032537174L105.01657984303066,42.76170553434147L105.24360255710057,52.08906469929218L105.26424098565238,83.25750003052677L105.305517842756,82.1613041528678L105.34679469985961,87.65139021844548L105.39013539981842,50.32804873956563L105.41077382837022,128.2703207004713L105.92673454216548,95.38527670142165L106.02992668492453,54.219162212336656L106.09184197057996,32.13638373322331L106.23837481329781,91.60078316178465L106.65114338433402,140.67306027255125L106.71305866998945,65.93509837923075L106.73369709854126,30.197657004799908L107.02469894112178,104.91916812625465L107.35491379795074,71.38363318967922L107.4787443692616,93.17049361773086L107.56129808346884,99.4602373419188L107.74704394043515,73.82985317399354L107.78832079753876,72.02119852073902L108.03804578301566,37.435392777963244L108.26506849708557,62.01338451236417L108.783093053736,38.767236170473296L108.9688389107023,74.42777671451569L109.27841533897944,82.70519147746973L109.4043097531455,33.34373656244753L109.52814032445634,98.20196545691955L109.61069403866358,146.2191899399018L110.02346260969979,100.96323077863158L110.08537789535522,48.632150418474424L110.93361730883461,39.16556354044144L111.26589600851877,75.33469079445717L111.61674929389953,71.29818056915421L111.63738772245135,44.55418685930337L112.01094327923911,40.56190440359987L112.03158170779092,125.19766576844286L112.09349699344635,43.7567161088578L112.27924285041264,115.94012446266058L112.50626556448255,32.76854707471213L113.00365169258117,56.13322910317157L113.06556697823662,31.37705331397845L113.29258969230652,148.95497941351616L113.35450497796195,120.26555136885617L113.39578183506556,75.08492629779666L113.43705869216919,41.48047111361291L114.01699853447506,27.415616055523287L114.5762999482291,49.104000335322866L114.74140737664358,97.87787872307975L114.82396109085083,143.41028592466182L114.98906851926532,119.96883362749543L115.1975166476386,52.409218262477566L115.73411578998567,50.9827013306884L115.83730793274471,110.53070919602388L116.14894820387704,73.96487027284826L116.45852463215418,51.941252555652994L116.47916306070601,47.137920934630586L116.64427048912049,45.415763395352855L116.74952647473471,40.807295083930995L116.81144176039015,41.99718528825801L116.99718761735645,59.71357313361318L117.22421033142635,93.46003046661049L117.24484875997815,40.391913094320216L117.36867933128903,128.30553971404902L117.47393531690325,75.37679693673265L117.51521217400686,48.661885841430205L117.5771274596623,110.83056041774L118.28089787327903,32.04631249321616L118.52855901590075,113.80085499149254L118.92068915838513,115.93400438384147L119.37679842938014,109.46885104059268L119.78956700041634,136.61916902340204L120.26631469996316,38.5826056326583L120.59652955679212,65.30086237104854L120.74306239950998,152.0876355982872L120.92880825647626,41.63071496856958L120.99072354213169,134.2149409398919L121.03200039923533,39.42219884558955L122.06598566968101,80.43128027228123L122.12790095533643,121.01148289553971L122.2723699551991,63.90254676245783L122.52209494067601,39.67397072810272L122.56337179777962,37.71807513856547L122.58401022633143,37.016958909047986L122.7284792261941,118.0111264946277L123.0999709401267,112.36196734038367L123.65927235388075,36.25193273644879L124.05346633922032,79.29802119729372L124.09474319632395,33.220388413874616L124.2185737676348,36.28831048494962L124.73659832428523,42.40638191820892L124.8397904670443,30.404172944472037L125.19064375242505,77.11702094868441L125.543560880661,133.65004950478277L125.70866830907549,73.09560691780194L126.3484595941816,42.910513210801895L126.88712257938384,96.79925971178928L127.34323185037886,81.88010693139233L127.94174627838136,49.36071724152188L128.15019440675462,48.56739182446313L128.4804092635836,71.77130346239703L128.76934726330893,76.24509739937808L128.7714111061641,65.68732494821272L129.18417967720032,38.33328178167278L129.99114223357608,27.93565955304595L130.4266130760193,41.73635568909256L130.52980521877834,120.33736029366707L131.27485248949867,82.6257120538722L131.41932148936135,129.58920584609504L131.5018752035686,72.33208220453973L131.62570577487946,148.7495406077162L131.74953634619033,45.15189823709312L131.9146437746048,32.721202144967464L131.9559206317084,53.90199524761499L132.43266833125523,42.05993649641664L132.5977757596697,52.531407676127415L133.07452345921652,41.50921100374748L133.32218460183825,117.96921619487443L133.36346145894186,33.05477092092434L133.48729203025272,110.98498224650383L133.71637858717781,105.55789219223755L134.23233930097308,102.3920978206873L134.79164071472712,89.18503300988439L134.83291757183076,42.60561904413885L134.91547128603798,144.1426716768924L135.22504771431514,52.64525746237307L136.0340741135461,80.27682580309703L136.09598939920153,103.457807545722L136.4674811131341,92.63084954777683L136.8389728270667,104.19019329795259L137.17125152675084,36.59821495613926L137.23316681240627,114.05442209712598L137.3363589551653,72.7931934230869L137.43955109792438,104.0979841104113L137.7924682261603,124.7950625034064L137.81310665471213,67.4102821777895L138.16395994009292,38.751226044282504L138.22587522574833,120.0113804154459L138.370344225611,73.99147221544865L138.90900721081326,106.19868892491384L138.95028406791687,116.13908414501736L139.09475306777955,56.586718783562674L139.63341605298177,38.30978067900739L139.8191619099481,37.91473367128626L140.02554619546618,72.48319103063614L140.23399432383945,30.295757788217742L140.33718646659852,121.56007044067474L140.7293166090829,49.228784662392L140.83250875184194,130.42685695401434L140.9377647374562,131.74202109171605L141.49500230835505,58.94613156990671L141.88919629369462,39.19110466937988L141.9923884364537,28.425837065931375L142.30196486473082,43.364182413505034L142.4051570074899,134.18881228338682L142.9025431355885,40.8519634992054L143.2740348495211,122.1697118921092L143.3380139780317,34.600539628530186L143.44120612079075,59.61428097485191L143.77142097761973,89.15728865257108L143.81269783472334,43.5198282580327L144.12433810585566,63.43208406347506L144.1656149629593,108.48314298588141L144.28944553427016,121.65245915052805L144.33072239137377,45.879143123115654L144.3719992484774,70.92304421785794L144.6196603910991,46.632369783751585L144.70221410530635,47.06554080246323L145.15832337630135,39.73668929584099L145.34406923326765,35.0427030830534L145.40598451892308,62.6456294549039L145.71762479005542,103.27521703418007L145.94464750412533,44.17474197251843L145.98592436122894,36.42226677014233L146.1097549325398,37.95258023870366L146.37805450371332,44.56472971508242L146.73097163194927,86.10429957381471L147.51729575977325,72.37316017357361L147.99197961646487,86.24922304025128L148.07453333067212,51.926548046276935L148.09517175922392,92.64920978423417L148.22106617338997,141.46694057675626L148.57191945877074,39.02104807925949L148.79894217284067,46.426408731225706L149.00739030121395,56.67644729915594L149.15185930107663,142.45694084674602L149.2756898723875,38.52116004131443L149.75243757193428,146.53265221691163L150.86897655658723,76.29598381473272L150.95153027079448,73.88065798829727L151.219829841968,80.72076816053033L151.51083168454852,75.82968276934695L151.675939112963,43.8216705453913L151.6965775415148,57.42779713562068L151.77913125572204,33.722561281245476L151.98551554124018,81.89823868490708L152.1733252410616,50.98421911023553L152.19396366961342,68.91541356203645L152.21460209816522,38.01121875389583L152.37970952657975,36.97093591632827L152.7924780976159,81.484864081149L153.26922579716273,107.6903887761791L153.4136947970254,104.68629504713489L153.47561008268082,147.77078496254344L153.68199436819893,40.34553105697643L153.8491656394686,78.02896165336266L153.91108092512403,60.712190474580225L154.11746521064214,89.81143531717814L154.22065735340118,29.673647696202465L154.94506619556972,118.9605220816789L155.13081205253602,77.13143169427715L155.17208890963963,93.79598199325427L155.25464262384685,47.833015006590045L155.3784731951577,79.34734087247067L155.42181389511651,125.94284656545793L155.5662828949792,63.079893927697896L155.73139032339367,82.48872020958521L155.79330560904913,46.78923964404305L155.9584130374636,143.42742214535534L156.04096675167085,152.7426635542442L156.57962973687307,123.08912725305186L156.66218345108032,75.94242278130007L156.88920616515023,104.3031617928483L157.0976542935235,49.14770585819642L157.34531543614523,59.74249254605975L158.1729164210728,121.22970042591396L158.48249284934997,113.68153793483512L158.75285626337867,116.64840526444895L158.91796369179315,39.27575759960584L159.2069016915185,88.33892803308962L159.22754012007033,90.13578317438089L159.74556467672076,70.54891971959307L160.0345026764461,127.43852854800816L160.5318888045447,50.24723105873298L161.11182864685057,74.74765283412795L161.17374393250603,125.17251632454885L161.71034307485309,120.25748918502512L162.06326020308904,65.23546728884006L162.14581391729627,45.84305913839816L162.66177463109153,154.48222659768348L162.78766904525756,57.003928636714065L163.17979918774196,45.591336216515515L163.6978237443924,118.25994441909752L164.00740017266955,134.9828394694835L164.17250760108402,62.699698311244475L164.1931460296358,75.24708390618785L164.62861687207905,95.04542464454381L164.71117058628627,122.39716666144777L165.0001085860116,105.56089511091146L165.2291951429367,112.75216724568006L165.24983357148852,151.23050631951293L165.39430257135118,45.78757042377154L165.6832405710765,77.99943839313926L165.80707114238737,71.36401629703768L165.97424241365704,99.48922203520611L166.15998827062333,92.9054860447582L166.20126512772694,82.4787322409524L166.22190355627876,155.7760928610947L166.61403369876317,29.88953143652037L166.6759489844186,55.670991790121676L166.84312025568826,41.94957923515042L167.5881675264086,87.94858124590155L167.91838238323754,129.1494741028893L168.14540509730747,147.45906894802334L168.49832222554343,43.22386124634045L168.70470651106154,149.4626032310886L168.72534493961334,50.44650082508326L168.8491755109242,87.40629330189768L168.99364451078688,42.79166944023984L169.0761982249941,32.26552555641166L169.09683665354592,93.29219342507515L169.1174750820977,72.88275873657832L169.55294592454092,41.44497465646208L169.5735843530927,60.03397149995132L169.6561380673,71.53829982159581L169.8831607813699,52.15241975522764L169.9471399098805,101.24286125992936L170.5662927664348,124.30681077532273L170.73346403770446,47.30375059031326L170.7953793233599,72.66297446602638L170.93984832322258,92.92293234944522L171.14623260874066,49.07109879159131L171.16687103729248,60.486090282686945L171.2081478943961,28.59458803923701L171.31134003715513,144.55426737774042L171.51772432267327,49.1045878628895L171.99447202222007,126.74433208760884L172.01511045077189,133.65215481189654L172.18021787918636,101.07118896900073L172.5537734359741,112.2385375907598L172.90462672135487,127.15380616113289L173.89733513469696,97.91492560019812L174.14706012017388,69.37672062310583L174.2089754058293,52.689158827768836L174.83019210523878,78.0839934021041L174.85083053379057,139.93739415807363L175.20168381917136,56.20249207519373L175.40806810468948,125.4494702913764L175.51126024744852,50.317032597691224L175.7197083758218,100.89151977508178L175.84353894713266,39.74214024604254L175.9880079469953,143.89987590998058L176.3594996609279,76.60995201825826L176.4441172179903,41.43356682954325L176.54730936074938,87.53468439541757L176.91880107468197,137.81457545877134L177.14582378875187,44.40823521962517L177.18916448871067,92.05169424896663L177.60193305974687,83.64680232426304L177.76704048816134,132.0048254363138L177.97342477367945,142.17686971977326L178.20251133060455,73.82716033931312L178.6771951872962,29.08820911647132L178.78038733005525,32.651433246429605L179.1126660297394,39.12752113050186L180.00218230032237,136.89498057551668L180.0228207288742,97.28845801206363L180.10537444308144,145.7755739866722L180.66467585683552,58.630302862420166L181.5335536988667,103.45222603383897L181.69866112728118,60.73565893682523L181.86376855569569,81.45682596005236L181.8844069842475,43.38562716968721L182.5675389693124,113.76330218785847L182.7945616833823,60.241009686349344L183.0236482403074,40.3517980176872L183.08556352596284,46.55073609240969L183.20939409727367,96.66758825602236L183.37450152568817,79.59289475490361L184.57565806740354,110.04165777764119L185.07098035264696,62.98864763255749L185.2154493525096,46.288013348862876L185.67155862350464,26.878942263822807L185.7541123377119,78.73921720058333L186.04305033743722,78.05478022587421L186.37532903712136,146.72338651333553L186.49915960843222,74.6536484234664L186.76745917960574,126.33516809807828L187.1616531649453,99.72180135054255L187.34739902191163,130.88315371055714L187.67761387874057,123.49990694339064L187.88606200711388,137.3172496938252L188.07180786408017,62.91922145843347L188.23691529249464,78.0206057057483L188.6311092778342,52.71925329534869L188.67238613493782,103.45411917822035L188.73430142059325,34.228846841582794L188.77557827769687,54.45330826785077L188.89940884900773,85.81771668297843L189.14706999162948,42.539114187637836L189.2936028343473,131.81893824231463L189.35551812000276,32.75183517948341L189.4587102627618,110.58069799981838L189.60317926262448,113.49078731820104L189.6444561197281,73.36118569813104L190.67844139017376,62.10951055034968L190.9054641042437,71.26240666843023L191.05199694696157,75.77239883160006L191.3822118037905,71.52346475053828L191.46476551799773,72.56214820750779L191.48540394654955,40.26089444696066L191.52668080365316,58.876183149056814L191.79704421768187,83.405491696478L191.87959793188912,99.66006199541535L192.06534378885542,62.63822007948022L192.0859822174072,58.76791487469417L192.18917436016628,162.56234633971954L192.2717280743735,44.22660760048413L192.29236650292532,77.79845500471963L192.58336834550585,64.09088198798464L193.22315963061197,41.49243382767801L193.45224618753707,57.47613759818657L193.59671518739972,132.25338223742068L193.69990733015877,108.7269995664552L193.9888453298841,104.47062346954938L194.15601660115377,187.38212198800088L194.46559302943095,59.25992025112022L194.69261574350085,98.96504952450681L194.8370847433635,52.89498931861323L194.85772317191532,103.69151295556117L195.024894443185,46.295634887018934L195.79058014245715,95.23384147112154L195.85249542811258,161.59129383375378L195.95568757087162,35.55884605034203L195.97632599942344,36.67939168159597L196.05887971363066,122.94162519340615L196.70073484159198,60.49377710168375L197.6521663978304,88.58474303888552L197.73472011203765,49.06865076006366L198.10621182597023,64.49102090128328L198.19082938303268,34.73196628114434L198.50040581130983,49.061730990945534L198.56232109696523,79.92073513708581L198.62423638262067,34.95769110820339L199.03906879651205,136.3298116968344L199.26609151058196,142.35198557505078L199.55502951030732,111.08642867300944L199.76141379582543,39.32067081803305L199.80475449578424,55.43131318335506L199.88730820999146,132.83005686428288L200.23816149537222,80.77932507467159L200.27943835247584,56.70698241241077L200.34135363813127,41.67406144681908L200.75618605202266,101.76667472600461L200.79746290912627,139.3318653996056L200.90065505188534,55.349059324026186L201.12767776595524,136.75666679420473L201.29278519436974,120.55068176098604L201.37533890857696,101.05529308428122L201.70761760826113,100.51333154448103L202.0791093221937,142.95310787676905L202.20293989350455,43.298150843099364L202.28755745056696,98.61085200287698L202.39074959332603,77.62164184758294L202.45266487898147,99.0186777351724L202.7622413072586,134.98758865064715L202.7828797358104,45.4398193851645L203.32154272101266,127.8843966902432L203.48665014942713,57.59321878604874L203.69303443494525,47.32956916282481L203.90148256331852,42.77180774444557L204.33488956290654,46.55617072240108L204.68780669114247,51.63942658850458L205.34823640480042,91.20263531412849L205.36887483335224,156.1498583147355L205.47413081896647,144.57354154596806L206.52875451796393,92.55766972531043L206.5700313750676,106.45762537969793L206.77641566058568,38.450003924910874L206.92088466044837,86.38022536740066L207.4595476456506,65.28163716345144L207.87438005954198,44.07202256961844L208.08076434506006,156.26028085684246L208.41097920188906,131.21701625029735L208.45225605899267,115.28255055391482L208.49353291609629,152.20846227438665L208.59672505885533,58.00711563653273L209.23858018681662,63.523265077774724L209.34177232957566,43.61727623304316L209.55022045794897,50.028132237008776L209.57085888650076,39.60921213409145L209.653412600708,47.98844868838532L210.52229044273923,46.334297464945536L210.58420572839466,57.50198881111851L210.99697429943083,124.25696885341989L211.10223028504507,44.8730184854638L211.1228687135969,48.70177243512063L211.65946785594394,87.32929455024816L211.80393685580663,144.22587210841195L211.92983126997265,95.81371485917985L213.0463702546256,117.206115807077L213.0670086831774,38.59587396353814L213.25275454014368,78.23828466918647L213.3972235400064,79.84434023321312L213.45913882566177,119.43661525317526L213.58503323982782,157.49268520869958L213.64694852548325,90.03649101561962L214.03907866796766,110.75676042728661L214.1009939536231,58.916951034097195L214.30944208199637,87.45724499809307L214.5364647960663,42.97171399899304L214.74284908158438,38.77766478478105L214.784125938688,153.22041322707426L214.8047643672398,85.9821754410056L214.86667965289524,87.75254288116776L215.34342735244203,120.62968789848823L215.44661949520113,147.1521673955076L215.4672579237529,144.07228261036752L215.54981163796018,44.8359389679251L215.92336719474793,97.44423441827276L216.12975148026604,92.85933249035702L216.2948589086805,55.45553237526856L216.54252005130223,50.29756258694135L217.34948260767803,47.17433132355177L217.5352284646443,52.55836866335187L217.53729230749948,42.043224601187916L217.66112287881035,110.50787722197606L217.70239973591396,53.69350456251058L217.88814559288025,38.330246222578495L218.59191600649697,55.04096639616701L219.15121742025104,74.31608119601435L219.21313270590647,112.68904067268718L219.2750479915619,91.39371233496627L219.4607938485282,81.96265455450452L220.02009526228224,78.9014074493949L220.51541754752566,128.72759666962517L220.7218018330438,41.772994560956306L221.81976623200006,71.8945047290783L221.94359680331092,48.375743596268904L222.02615051751818,51.8459262079665L222.0880658031736,57.05045755594951L222.31508851724354,89.30387678044646L222.6680056454795,37.87318241615705L222.77119778823854,157.22815908192737L223.392414487648,90.47834438614932L223.49560663040705,49.88226219838151L223.51624505895887,62.02549410832091L223.55752191606248,124.12564012206684L223.8051830586842,69.08793450389466L223.84645991578782,121.50655647148041L224.07554647271292,56.33990824494552L224.281930758231,57.8248352089843L224.55023032940457,42.672939911149086L224.6534224721636,78.8053630124603L224.67406090071543,93.58000033167527L224.96506274329596,82.00378148416894L225.0888933146068,94.99272668585871L225.2952776001249,50.8926790513118L225.7720252996717,76.70291193546802L226.1228785850525,50.609931409868835L226.5583494274957,65.81431250365677L227.1981407126018,52.73048159995548L227.32403512676782,125.08783075390252L227.38595041242326,50.08553041622696L227.55105784083773,44.127446003404316L227.88127269766673,144.72670671854772L227.96382641187395,52.550175917839354L228.0484439689364,59.95374134668532L228.08972082604,78.21835769255144L228.13099768314362,120.27052903296237L228.19291296879905,109.51730574462987L228.89668338241577,94.18472939984427L229.04115238227843,51.025541882422175L229.37136723910743,69.04151982613052L229.765561224447,156.22609817661143L230.34343722389767,85.46337227945693L230.38471408100128,37.90234663175636L230.4053525095531,139.20415975491346L230.4466293666567,61.4568490248694L230.55188535227094,59.07218887337024L230.6344390664782,136.69012929728336L230.73763120923724,51.83495902672266L230.8614617805481,68.08930084271742L230.96465392330714,129.90451230685568L231.12976135172164,45.645813078110734L231.54459376561303,108.84135527921659L231.83353176533836,59.47559182870573L232.06055447940827,72.03582142906416L232.24836417922972,80.85870657700801L232.33091789343698,101.97488796753589L232.3515563219888,146.8816435914927L232.91085773574284,162.09156539663817L233.09660359270916,64.78641670561908L233.26171102112363,116.12860657007904L233.57128744940076,184.812766017846L233.59192587795258,60.46874189926103L233.82101243487767,59.796708284291995L234.4608037199838,48.284138256504434L234.62797499125344,48.49692115688734L234.89627456242698,57.018225140835526L234.9581898480824,124.47861362793284L234.97882827663423,62.021871021660004L235.08202041939327,156.240051956319L235.26776627635957,75.87596688542962L235.4142991190774,141.01221056039117L235.5587681189401,100.61924970857713L235.57940654749189,165.4060287228623L235.93025983287265,77.5982876268092L236.42764596097126,111.03697843615102L236.53083810373036,50.27637895412214L236.73722238924844,106.12273466671611L237.48226965996878,105.3721845205504L237.64737708838325,72.97407031255949L237.66801551693507,76.56810699934573L237.68865394548686,44.97454651302033L237.79390993110113,114.27347195821963L238.12412478793007,65.82133019403601L238.26859378779275,83.25387694386586L238.82789520154682,101.06156004499199L238.84853363009861,101.97022038742318L239.0342794870649,182.04706975906893L239.13747162982395,74.74713058740205L239.34591975819723,113.5919726213437L239.53166561516352,154.65714661043882L239.82060361488885,139.42265472886083L240.04762632895878,116.16746499052786L240.58628931416104,73.57279354338067L240.64820459981647,133.42008142307583L240.83395045678276,94.88271214900635L241.33133658488137,145.40707996092092L241.4138902990886,55.26602209460849L241.5996361560549,83.71054906524289L241.8699995700836,48.337831748010785L241.99383014139448,78.87498502910651L242.03510699849812,138.23547367942442L242.71823898356303,57.83679792304939L242.84206955487386,144.09296031667103L242.96590012618472,52.93745450551276L243.00717698328836,123.06559350996608L243.02781541184015,146.31843313803253L243.2341996973583,119.74795590286112L243.33739184011733,133.15850109424187L243.60775525414604,83.49814152969425L243.79350111111233,77.21900594212609L244.12371596794128,95.97117224703796L244.6211020960399,165.01271981752578L244.99465765282767,68.37208112458077L245.18040350979396,59.97913559373208L245.55189522372655,79.01231959780739L245.9048123519625,49.27062968130454L246.0905582089288,153.09128772409608L246.56524206562042,112.66410339152559L246.5879443370274,100.0527915332903L246.60858276557923,66.4252269314856L247.64256803602493,100.00148079247087L247.8076754644394,100.8463943939222L247.86959075009483,168.90725237433043L248.0553366070611,50.161974280730206L248.38761530674526,120.43684829495055L248.82102230633328,146.21341258549657L249.1120241489138,65.14043470493688L249.44223900574275,182.44419759358857L249.83643299108232,105.34695347560549L249.980901990945,138.40143389678855L250.12537099080765,148.89895213195345L250.22856313356672,131.48634867896882L250.84977983297622,52.563917534814536L251.0148872613907,53.65381381134236L251.0561641184943,123.62472391088016L251.7392961035592,164.15280794291508L251.80121138921464,51.8508222710218L252.09014938894,63.47210121884696L252.13142624604362,69.83832144795853L252.15206467459544,103.45888467959416L252.36051280296869,62.14871169521237L252.48434337427958,117.82290551057218L253.04364478803362,70.95091913685272L253.10556007368905,66.83026190783954L253.12619850224087,147.0372241551796L253.25002907355173,90.88785110009374L253.29130593065534,151.7829699145667L253.6421592160361,108.2651865788701L253.8072666444506,71.33007025985434L253.97443791572024,96.96732523626719L254.28401434399743,142.64605944236166L254.61422920082637,112.32780914046793L255.40055332865032,109.62741820274333L255.62963988557541,176.42146882822593L255.67091674267903,163.98760661532452L255.87730102819717,43.913537008518716L256.10432374226707,69.50194559584995L256.2487927421297,138.6050121986275L256.37468715629575,86.4845278306885L256.4159640133994,135.60341546174146L256.76681729878015,93.02152273916857L257.14037285556793,62.180927790116186L257.8833562834331,53.540012985727245L258.07116598325456,119.85756243445888L258.4220192686354,158.611060251999L258.5458498399462,115.29673281656497L258.7130211112158,74.51743994926824L259.3321739677702,154.50348367144852L259.7882832387652,163.5051322416461L259.80892166731695,42.46546107907608L260.1804133812496,105.84806552931437L260.73971479500364,170.55603424861954L260.8429069377627,82.65301576551053L261.1112065089362,96.45418518765247L261.11327035179136,59.426321114159336L261.3815699229649,66.72830955481822L261.5466773513794,52.17951130413357L261.64986949413844,144.43397110847195L261.691146351242,89.12330997496737L261.71178477979385,174.31859342576885L262.10597876513344,121.06290787783044L262.2091709078925,102.47557569578L262.4568320505142,48.87460346097237L262.49810890761785,68.934589809003L262.70449319313593,42.10964785663802L262.72513162168775,87.73628795182421" fill="none"></path></g></g></g></g></g></g><g transform="translate(41, 177)" clip-path="url(#clip_1)"><clipPath id="clip_1"><rect width="288" height="22"></rect></clipPath><g><g><line x1="0" y1="0" x2="0" y2="5" style="visibility: inherit;" fill="rgb(0, 0, 0)" stroke="rgb(204, 204, 204)" stroke-width="1px"></line><line x1="20.638428551810126" y1="0" x2="20.638428551810126" y2="5" style="visibility: inherit;" fill="rgb(0, 0, 0)" stroke="rgb(204, 204, 204)" stroke-width="1px"></line><line x1="41.27685710362025" y1="0" x2="41.27685710362025" y2="5" style="visibility: inherit;" fill="rgb(0, 0, 0)" stroke="rgb(204, 204, 204)" stroke-width="1px"></line><line x1="61.91528565543038" y1="0" x2="61.91528565543038" y2="5" style="visibility: inherit;" fill="rgb(0, 0, 0)" stroke="rgb(204, 204, 204)" stroke-width="1px"></line><line x1="82.5537142072405" y1="0" x2="82.5537142072405" y2="5" style="visibility: inherit;" fill="rgb(0, 0, 0)" stroke="rgb(204, 204, 204)" stroke-width="1px"></line><line x1="103.19214275905064" y1="0" x2="103.19214275905064" y2="5" style="visibility: inherit;" fill="rgb(0, 0, 0)" stroke="rgb(204, 204, 204)" stroke-width="1px"></line><line x1="123.83057131086076" y1="0" x2="123.83057131086076" y2="5" style="visibility: inherit;" fill="rgb(0, 0, 0)" stroke="rgb(204, 204, 204)" stroke-width="1px"></line><line x1="144.4689998626709" y1="0" x2="144.4689998626709" y2="5" style="visibility: inherit;" fill="rgb(0, 0, 0)" stroke="rgb(204, 204, 204)" stroke-width="1px"></line><line x1="165.107428414481" y1="0" x2="165.107428414481" y2="5" style="visibility: inherit;" fill="rgb(0, 0, 0)" stroke="rgb(204, 204, 204)" stroke-width="1px"></line><line x1="185.74585696629117" y1="0" x2="185.74585696629117" y2="5" style="visibility: inherit;" fill="rgb(0, 0, 0)" stroke="rgb(204, 204, 204)" stroke-width="1px"></line><line x1="206.38428551810128" y1="0" x2="206.38428551810128" y2="5" style="visibility: inherit;" fill="rgb(0, 0, 0)" stroke="rgb(204, 204, 204)" stroke-width="1px"></line><line x1="227.02271406991142" y1="0" x2="227.02271406991142" y2="5" style="visibility: inherit;" fill="rgb(0, 0, 0)" stroke="rgb(204, 204, 204)" stroke-width="1px"></line><line x1="247.66114262172152" y1="0" x2="247.66114262172152" y2="5" style="visibility: inherit;" fill="rgb(0, 0, 0)" stroke="rgb(204, 204, 204)" stroke-width="1px"></line><line x1="268.29957117353166" y1="0" x2="268.29957117353166" y2="5" style="visibility: inherit;" fill="rgb(0, 0, 0)" stroke="rgb(204, 204, 204)" stroke-width="1px"></line><line x1="288.9379997253418" y1="0" x2="288.9379997253418" y2="5" style="visibility: inherit;" fill="rgb(0, 0, 0)" stroke="rgb(204, 204, 204)" stroke-width="1px"></line></g><g transform="translate(0, 8)"><text style="text-anchor: middle; visibility: hidden; font-family: &quot;Helvetica Neue&quot;, sans-serif; font-size: 12px; font-weight: 200;" x="0" y="0" dx="0em" dy="0.95em" fill="rgb(50, 49, 63)" stroke="none" stroke-width="1px">-10k</text><text style="text-anchor: middle; visibility: inherit; font-family: &quot;Helvetica Neue&quot;, sans-serif; font-size: 12px; font-weight: 200;" x="20.638428551810126" y="0" dx="0em" dy="0.95em" fill="rgb(50, 49, 63)" stroke="none" stroke-width="1px">0</text><text style="text-anchor: middle; visibility: hidden; font-family: &quot;Helvetica Neue&quot;, sans-serif; font-size: 12px; font-weight: 200;" x="41.27685710362025" y="0" dx="0em" dy="0.95em" fill="rgb(50, 49, 63)" stroke="none" stroke-width="1px">10k</text><text style="text-anchor: middle; visibility: inherit; font-family: &quot;Helvetica Neue&quot;, sans-serif; font-size: 12px; font-weight: 200;" x="61.91528565543038" y="0" dx="0em" dy="0.95em" fill="rgb(50, 49, 63)" stroke="none" stroke-width="1px">20k</text><text style="text-anchor: middle; visibility: hidden; font-family: &quot;Helvetica Neue&quot;, sans-serif; font-size: 12px; font-weight: 200;" x="82.5537142072405" y="0" dx="0em" dy="0.95em" fill="rgb(50, 49, 63)" stroke="none" stroke-width="1px">30k</text><text style="text-anchor: middle; visibility: inherit; font-family: &quot;Helvetica Neue&quot;, sans-serif; font-size: 12px; font-weight: 200;" x="103.19214275905064" y="0" dx="0em" dy="0.95em" fill="rgb(50, 49, 63)" stroke="none" stroke-width="1px">40k</text><text style="text-anchor: middle; visibility: hidden; font-family: &quot;Helvetica Neue&quot;, sans-serif; font-size: 12px; font-weight: 200;" x="123.83057131086076" y="0" dx="0em" dy="0.95em" fill="rgb(50, 49, 63)" stroke="none" stroke-width="1px">50k</text><text style="text-anchor: middle; visibility: inherit; font-family: &quot;Helvetica Neue&quot;, sans-serif; font-size: 12px; font-weight: 200;" x="144.4689998626709" y="0" dx="0em" dy="0.95em" fill="rgb(50, 49, 63)" stroke="none" stroke-width="1px">60k</text><text style="text-anchor: middle; visibility: hidden; font-family: &quot;Helvetica Neue&quot;, sans-serif; font-size: 12px; font-weight: 200;" x="165.107428414481" y="0" dx="0em" dy="0.95em" fill="rgb(50, 49, 63)" stroke="none" stroke-width="1px">70k</text><text style="text-anchor: middle; visibility: inherit; font-family: &quot;Helvetica Neue&quot;, sans-serif; font-size: 12px; font-weight: 200;" x="185.74585696629117" y="0" dx="0em" dy="0.95em" fill="rgb(50, 49, 63)" stroke="none" stroke-width="1px">80k</text><text style="text-anchor: middle; visibility: hidden; font-family: &quot;Helvetica Neue&quot;, sans-serif; font-size: 12px; font-weight: 200;" x="206.38428551810128" y="0" dx="0em" dy="0.95em" fill="rgb(50, 49, 63)" stroke="none" stroke-width="1px">90k</text><text style="text-anchor: middle; visibility: inherit; font-family: &quot;Helvetica Neue&quot;, sans-serif; font-size: 12px; font-weight: 200;" x="227.02271406991142" y="0" dx="0em" dy="0.95em" fill="rgb(50, 49, 63)" stroke="none" stroke-width="1px">100k</text><text style="text-anchor: middle; visibility: hidden; font-family: &quot;Helvetica Neue&quot;, sans-serif; font-size: 12px; font-weight: 200;" x="247.66114262172152" y="0" dx="0em" dy="0.95em" fill="rgb(50, 49, 63)" stroke="none" stroke-width="1px">110k</text><text style="text-anchor: middle; visibility: inherit; font-family: &quot;Helvetica Neue&quot;, sans-serif; font-size: 12px; font-weight: 200;" x="268.29957117353166" y="0" dx="0em" dy="0.95em" fill="rgb(50, 49, 63)" stroke="none" stroke-width="1px">120k</text><text style="text-anchor: middle; visibility: hidden; font-family: &quot;Helvetica Neue&quot;, sans-serif; font-size: 12px; font-weight: 200;" x="288.9379997253418" y="0" dx="0em" dy="0.95em" fill="rgb(50, 49, 63)" stroke="none" stroke-width="1px">130k</text></g><line x1="0" y1="0" x2="288.9379997253418" y2="0" fill="rgb(0, 0, 0)" stroke="rgb(204, 204, 204)" stroke-width="1px"></line></g></g></g></g></svg>