<svg viewBox="0 0 330 200" xmlns="http://www.w3.org/2000/svg"><g><g><g><g><g><line x1="51.41600036621094" y1="177.9749994277954" x2="46.41600036621094" y2="177.9749994277954" style="visibility: inherit;" fill="rgb(0, 0, 0)" stroke="rgb(204, 204, 204)" stroke-width="1px"></line><line x1="51.41600036621094" y1="158.1999994913737" x2="46.41600036621094" y2="158.1999994913737" style="visibility: inherit;" fill="rgb(0, 0, 0)" stroke="rgb(204, 204, 204)" stroke-width="1px"></line><line x1="51.41600036621094" y1="138.42499955495197" x2="46.41600036621094" y2="138.42499955495197" style="visibility: inherit;" fill="rgb(0, 0, 0)" stroke="rgb(204, 204, 204)" stroke-width="1px"></line><line x1="51.41600036621094" y1="118.64999961853027" x2="46.41600036621094" y2="118.64999961853027" style="visibility: inherit;" fill="rgb(0, 0, 0)" stroke="rgb(204, 204, 204)" stroke-width="1px"></line><line x1="51.41600036621094" y1="98.87499968210855" x2="46.41600036621094" y2="98.87499968210855" style="visibility: inherit;" fill="rgb(0, 0, 0)" stroke="rgb(204, 204, 204)" stroke-width="1px"></line><line x1="51.41600036621094" y1="79.09999974568684" x2="46.41600036621094" y2="79.09999974568684" style="visibility: inherit;" fill="rgb(0, 0, 0)" stroke="rgb(204, 204, 204)" stroke-width="1px"></line><line x1="51.41600036621094" y1="59.32499980926514" x2="46.41600036621094" y2="59.32499980926514" style="visibility: inherit;" fill="rgb(0, 0, 0)" stroke="rgb(204, 204, 204)" stroke-width="1px"></line><line x1="51.41600036621094" y1="39.54999987284344" x2="46.41600036621094" y2="39.54999987284344" style="visibility: inherit;" fill="rgb(0, 0, 0)" stroke="rgb(204, 204, 204)" stroke-width="1px"></line><line x1="51.41600036621094" y1="19.77499993642172" x2="46.41600036621094" y2="19.77499993642172" style="visibility: inherit;" fill="rgb(0, 0, 0)" stroke="rgb(204, 204, 204)" stroke-width="1px"></line><line x1="51.41600036621094" y1="0" x2="46.41600036621094" y2="0" style="visibility: inherit;" fill="rgb(0, 0, 0)" stroke="rgb(204, 204, 204)" stroke-width="1px"></line></g><g transform="translate(41.41600036621094, 0)"><text style="text-anchor: end; visibility: hidden; font-family: &quot;Helvetica Neue&quot;, sans-serif; font-size: 12px; font-weight: 200;" x="0" y="177.9749994277954" dx="0em" dy="0.3em" fill="rgb(50, 49, 63)" stroke="none" stroke-width="1px">-0.1</text><text style="text-anchor: end; visibility: inherit; font-family: &quot;Helvetica Neue&quot;, sans-serif; font-size: 12px; font-weight: 200;" x="0" y="158.1999994913737" dx="0em" dy="0.3em" fill="rgb(50, 49, 63)" stroke="none" stroke-width="1px">0</text><text style="text-anchor: end; visibility: hidden; font-family: &quot;Helvetica Neue&quot;, sans-serif; font-size: 12px; font-weight: 200;" x="0" y="138.42499955495197" dx="0em" dy="0.3em" fill="rgb(50, 49, 63)" stroke="none" stroke-width="1px">0.1</text><text style="text-anchor: end; visibility: inherit; font-family: &quot;Helvetica Neue&quot;, sans-serif; font-size: 12px; font-weight: 200;" x="0" y="118.64999961853027" dx="0em" dy="0.3em" fill="rgb(50, 49, 63)" stroke="none" stroke-width="1px">0.2</text><text style="text-anchor: end; visibility: hidden; font-family: &quot;Helvetica Neue&quot;, sans-serif; font-size: 12px; font-weight: 200;" x="0" y="98.87499968210855" dx="0em" dy="0.3em" fill="rgb(50, 49, 63)" stroke="none" stroke-width="1px">0.3</text><text style="text-anchor: end; visibility: inherit; font-family: &quot;Helvetica Neue&quot;, sans-serif; font-size: 12px; font-weight: 200;" x="0" y="79.09999974568684" dx="0em" dy="0.3em" fill="rgb(50, 49, 63)" stroke="none" stroke-width="1px">0.4</text><text style="text-anchor: end; visibility: hidden; font-family: &quot;Helvetica Neue&quot;, sans-serif; font-size: 12px; font-weight: 200;" x="0" y="59.32499980926514" dx="0em" dy="0.3em" fill="rgb(50, 49, 63)" stroke="none" stroke-width="1px">0.5</text><text style="text-anchor: end; visibility: inherit; font-family: &quot;Helvetica Neue&quot;, sans-serif; font-size: 12px; font-weight: 200;" x="0" y="39.54999987284344" dx="0em" dy="0.3em" fill="rgb(50, 49, 63)" stroke="none" stroke-width="1px">0.6</text><text style="text-anchor: end; visibility: hidden; font-family: &quot;Helvetica Neue&quot;, sans-serif; font-size: 12px; font-weight: 200;" x="0" y="19.77499993642172" dx="0em" dy="0.3em" fill="rgb(50, 49, 63)" stroke="none" stroke-width="1px">0.7</text><text style="text-anchor: end; visibility: hidden; font-family: &quot;Helvetica Neue&quot;, sans-serif; font-size: 12px; font-weight: 200;" x="0" y="0" dx="0em" dy="0.3em" fill="rgb(50, 49, 63)" stroke="none" stroke-width="1px">0.8</text></g><line x1="51.41600036621094" y1="0" x2="51.41600036621094" y2="177.9749994277954" fill="rgb(0, 0, 0)" stroke="rgb(204, 204, 204)" stroke-width="1px"></line></g></g><g transform="translate(51, 0)" clip-path="url(#clip_0)"><clipPath id="clip_0"><rect width="278" height="177"></rect></clipPath><g><g><g><line x1="0" y1="0" x2="0" y2="177.9749994277954" fill="rgb(0, 0, 0)" stroke="rgb(60, 60, 60)" stroke-width="1px" opacity="0.25"></line><line x1="23.215333302815754" y1="0" x2="23.215333302815754" y2="177.9749994277954" fill="rgb(0, 0, 0)" stroke="rgb(60, 60, 60)" stroke-width="1px" opacity="0.25"></line><line x1="46.43066660563151" y1="0" x2="46.43066660563151" y2="177.9749994277954" fill="rgb(0, 0, 0)" stroke="rgb(60, 60, 60)" stroke-width="1px" opacity="0.25"></line><line x1="69.64599990844727" y1="0" x2="69.64599990844727" y2="177.9749994277954" fill="rgb(0, 0, 0)" stroke="rgb(60, 60, 60)" stroke-width="1px" opacity="0.25"></line><line x1="92.86133321126302" y1="0" x2="92.86133321126302" y2="177.9749994277954" fill="rgb(0, 0, 0)" stroke="rgb(60, 60, 60)" stroke-width="1px" opacity="0.25"></line><line x1="116.07666651407878" y1="0" x2="116.07666651407878" y2="177.9749994277954" fill="rgb(0, 0, 0)" stroke="rgb(60, 60, 60)" stroke-width="1px" opacity="0.25"></line><line x1="139.29199981689453" y1="0" x2="139.29199981689453" y2="177.9749994277954" fill="rgb(0, 0, 0)" stroke="rgb(60, 60, 60)" stroke-width="1px" opacity="0.25"></line><line x1="162.5073331197103" y1="0" x2="162.5073331197103" y2="177.9749994277954" fill="rgb(0, 0, 0)" stroke="rgb(60, 60, 60)" stroke-width="1px" opacity="0.25"></line><line x1="185.72266642252603" y1="0" x2="185.72266642252603" y2="177.9749994277954" fill="rgb(0, 0, 0)" stroke="rgb(60, 60, 60)" stroke-width="1px" opacity="0.25"></line><line x1="208.9379997253418" y1="0" x2="208.9379997253418" y2="177.9749994277954" fill="rgb(0, 0, 0)" stroke="rgb(60, 60, 60)" stroke-width="1px" opacity="0.25"></line><line x1="232.15333302815756" y1="0" x2="232.15333302815756" y2="177.9749994277954" fill="rgb(0, 0, 0)" stroke="rgb(60, 60, 60)" stroke-width="1px" opacity="0.25"></line><line x1="255.3686663309733" y1="0" x2="255.3686663309733" y2="177.9749994277954" fill="rgb(0, 0, 0)" stroke="rgb(60, 60, 60)" stroke-width="1px" opacity="0.25"></line><line x1="278.58399963378906" y1="0" x2="278.58399963378906" y2="177.9749994277954" fill="rgb(0, 0, 0)" stroke="rgb(60, 60, 60)" stroke-width="1px" opacity="0.25"></line></g><g><line x1="0" y1="177.9749994277954" x2="278.58399963378906" y2="177.9749994277954" fill="rgb(0, 0, 0)" stroke="rgb(60, 60, 60)" stroke-width="1px" opacity="0.25"></line><line x1="0" y1="158.1999994913737" x2="278.58399963378906" y2="158.1999994913737" fill="rgb(0, 0, 0)" stroke="rgb(60, 60, 60)" stroke-width="1px" opacity="0.25"></line><line x1="0" y1="138.42499955495197" x2="278.58399963378906" y2="138.42499955495197" fill="rgb(0, 0, 0)" stroke="rgb(60, 60, 60)" stroke-width="1px" opacity="0.25"></line><line x1="0" y1="118.64999961853027" x2="278.58399963378906" y2="118.64999961853027" fill="rgb(0, 0, 0)" stroke="rgb(60, 60, 60)" stroke-width="1px" opacity="0.25"></line><line x1="0" y1="98.87499968210855" x2="278.58399963378906" y2="98.87499968210855" fill="rgb(0, 0, 0)" stroke="rgb(60, 60, 60)" stroke-width="1px" opacity="0.25"></line><line x1="0" y1="79.09999974568684" x2="278.58399963378906" y2="79.09999974568684" fill="rgb(0, 0, 0)" stroke="rgb(60, 60, 60)" stroke-width="1px" opacity="0.25"></line><line x1="0" y1="59.32499980926514" x2="278.58399963378906" y2="59.32499980926514" fill="rgb(0, 0, 0)" stroke="rgb(60, 60, 60)" stroke-width="1px" opacity="0.25"></line><line x1="0" y1="39.54999987284344" x2="278.58399963378906" y2="39.54999987284344" fill="rgb(0, 0, 0)" stroke="rgb(60, 60, 60)" stroke-width="1px" opacity="0.25"></line><line x1="0" y1="19.77499993642172" x2="278.58399963378906" y2="19.77499993642172" fill="rgb(0, 0, 0)" stroke="rgb(60, 60, 60)" stroke-width="1px" opacity="0.25"></line><line x1="0" y1="0" x2="278.58399963378906" y2="0" fill="rgb(0, 0, 0)" stroke="rgb(60, 60, 60)" stroke-width="1px" opacity="0.25"></line></g></g></g><g><g><line x1="0" y1="158.1999994913737" x2="278.58399963378906" y2="158.1999994913737" fill="rgb(0, 0, 0)" stroke="rgb(153, 153, 153)" stroke-width="1.5px"></line></g></g><g><g><line x1="23.215333302815754" y1="0" x2="23.215333302815754" y2="177.9749994277954" fill="rgb(0, 0, 0)" stroke="rgb(153, 153, 153)" stroke-width="1.5px"></line></g></g><g><g><g><g><g><path style="fill: none;" stroke="rgb(51, 187, 238)" stroke-width="2px" d="M23.215333302815754,156.2224995419321L24.37609996795654,154.62863438156958L25.53686663309733,153.39467456634665L26.69763329823812,150.90697923288067L27.858399963378908,148.28876956355006L29.019166628519695,146.52483976629685L30.179933293660483,145.93949973116815L31.34069995880127,144.43264486472486L32.50146662394206,142.7082642634835L33.66223328908285,140.73867511092325L34.82299995422363,139.28323434663056L35.983766619364424,137.1238052224976L37.14453328450521,135.91357448287607L38.305299949646,135.09489006589115L39.46606661478678,133.65922463628053L40.626833279927574,132.07722438205678L41.78759994506836,130.62178509111644L42.94836661020915,129.5341593638305L44.10913327534993,128.28042495060166L45.269899940490724,127.14929407635609L46.43066660563151,125.1045610093677L47.5914332707723,124.73674449900867L48.75219993591308,123.55419952261249L49.912966601053874,121.96429031319778L51.07373326619466,122.69992038721125L52.23449993133545,120.14103451189837L53.39526659647624,119.18787870308678L54.556033261617024,117.55446434671244L55.716799926757815,115.88149932097396L56.8775665918986,114.34695869130533L58.03833325703939,113.51245489058614L59.199099922180174,113.77348577234388L60.359866587320965,113.67065462133806L61.52063325246175,109.59700345103862L62.68139991760254,106.26689425664823L63.842166582743324,106.97879451838415L65.00293324788412,104.76399239444812L66.1636999130249,103.84643572410981L67.3244665781657,103.06729755643211L68.48523324330647,101.477391293722L69.64599990844727,99.0371544797969L70.80676657358805,98.71284606310208L71.96753323872885,99.61063034546297L73.12829990386963,95.83755777958076L74.28906656901042,94.57986888875644L75.4498332341512,94.63523746850252L76.610599899292,95.21266781176409L77.77136656443278,94.89626835026027L78.93213322957357,88.98354641498406L80.09289989471435,88.27164615324816L81.25366655985515,87.81682229567448L82.41443322499593,87.34222015671412L83.57519989013672,87.30266948735L84.7359665552775,83.09059686768532L85.8967332204183,83.78271884803455L87.05749988555908,82.75441912479481L88.21826655069987,79.80398987354995L89.37903321584066,81.7696245485147L90.53979988098145,80.22717201695046L91.70056654612223,77.84230967618069L92.86133321126302,78.10729503553391L94.02209987640381,77.15018769583145L95.1828665415446,79.85540397570054L96.34363320668538,77.28069724330108L97.50439987182617,80.74132482527496L98.66516653696696,73.65396392208895L99.82593320210775,75.14104198049785L100.98669986724853,76.25239752006134L102.14746653238932,79.06835685283185L103.30823319753011,69.88485172721148L104.4689998626709,73.80821212194999L105.62976652781168,69.72269457215945L106.79053319295248,66.22647669182619L107.95129985809326,67.52767072961014L109.11206652323405,68.71021275930168L110.27283318837483,67.79265608896335L111.43359985351563,64.39531193533578L112.59436651865641,67.55931244378328L113.7551331837972,62.299161819492184L114.91589984893798,64.70380244164863L116.07666651407878,64.26479649445693L117.23743317921956,62.43758621556202L118.39819984436035,64.21338239230631L119.55896650950113,60.03294559340557L120.71973317464193,61.26690761865696L121.88049983978271,59.28545503331024L123.0412665049235,61.5556198435831L124.2020331700643,61.009831214494696L125.36279983520508,61.57935260256528L126.52356650034586,58.5695944005696L127.68433316548665,61.12847732917787L128.84509983062745,57.64807735922656L130.00586649576823,63.98003285371702L131.16663316090902,58.24924046147029L132.3273998260498,64.81453960114082L133.4881664911906,54.950770034548455L134.6489331563314,55.069416149231614L135.80969982147215,57.837915857447L136.97046648661293,51.52574453775246L138.13123315175375,51.38732014168261L139.29199981689453,52.75969477618537L140.45276648203532,51.50596625636578L141.6135331471761,50.26805564692813L142.77429981231688,54.29028387496314L143.9350664774577,51.66811751800856L145.09583314259848,49.14877936535521L146.25659980773926,47.12777611064436L147.41736647288005,47.578645490622534L148.57813313802083,48.104667625142724L149.73889980316162,49.995155438974706L150.8996664683024,49.920014471251164L152.06043313344318,55.852508794504814L153.221199798584,49.48891158584118L154.38196646372478,45.74353214994588L155.54273312886556,52.26137166506132L156.70349979400635,43.453589058286354L157.86426645914713,46.39610935434021L159.02503312428792,48.1639906824843L160.1857997894287,45.63674357463998L161.3465664545695,43.845135380922954L162.5073331197103,44.19712514078617L163.66809978485108,50.53303511287213L164.82886644999186,45.66443081121764L165.98963311513265,43.89258911206883L167.15039978027343,44.367185357619945L168.31116644541422,44.758731680256545L169.471933110555,49.59966053215183L170.6326997756958,41.93881786989053L171.7934664408366,42.935475878957135L172.95423310597738,44.351367447237976L174.11499977111816,42.17612188607532L175.27576643625895,41.021261199552214L176.43653310139973,40.289582656429616L177.59729976654052,39.92572357037068L178.75806643168133,41.00939187335652L179.9188330968221,38.97651929244998L181.0795997619629,37.335204820998484L182.24036642710368,39.7556633535369L183.40113309224446,38.94093488749979L184.56189975738525,36.9199198459705L185.72266642252603,40.93425090563298L186.88343308766682,37.793983156167656L188.04419975280763,37.69510353605273L189.2049664179484,36.75776858432772L190.3657330830892,36.20801958423459L191.52649974822998,34.115835732804925L192.68726641337076,38.50588341790359L193.84803307851155,37.675325254666035L195.00879974365233,37.228416245692586L196.16956640879314,37.72279077263039L197.33033307393393,34.80004875796317L198.4910997390747,33.45534957321962L199.6518664042155,33.89038925599738L200.81263306935628,34.586471607351314L201.97339973449706,35.037340987329515L203.13416639963785,32.917469899322185L204.29493306477863,34.76840115038078L205.45569972991944,35.23113985655468L206.61646639506023,32.03154904974778L207.777233060201,30.651253673235573L208.9379997253418,32.85813505516214L210.09876639048258,30.82922284526032L211.25953305562336,30.742212551341083L212.42029972076415,30.251798395408002L213.58106638590496,29.22349277875901L214.74183305104575,31.746779515598632L215.90259971618653,29.4093826927932L217.0633663813273,28.64210795790197L218.2241330464681,28.31780543461639L219.38489971160888,27.97767321413039L220.54566637674967,28.329662973993635L221.70643304189045,26.13069054725804L222.86719970703126,26.42730583396596L224.02796637217205,26.439175160161653L225.18873303731283,27.04428684659166L226.3494997024536,26.74371118887902L227.5102663675944,26.814903572416284L228.67103303273518,25.541384984391556L229.83179969787597,26.25328524612746L230.99256636301678,25.501840208436647L232.15333302815756,24.96396053453924L233.31409969329835,24.60405003266655L234.47486635843913,25.14589007756871L235.6356330235799,23.880292231553398L236.7963996887207,24.267878183185275L237.95716635386148,24.23228199141664L239.11793301900227,24.00684730142754L240.27869968414308,23.583665158027003L241.43946634928386,23.29890741069636L242.60023301442465,23.57179583183131L243.76099967956543,23.105108541471168L244.9217663447062,23.113017496662167L246.082533009847,23.425462480570502L247.24329967498778,23.251441892732004L248.4040663401286,22.701704679457322L249.56483300526938,22.887582806673066L250.72559967041016,22.89945213286876L251.88636633555095,23.378008749424623L253.04713300069173,23.093239215275474L254.2078996658325,23.1486136884308" fill="none"></path></g><g><path style="fill: none;" stroke="rgb(0, 119, 187)" stroke-width="2px" d="M23.215333302815754,156.2224995419321L24.37609996795654,154.10657445974448L25.53686663309733,153.0189494691347L26.69763329823812,150.21089982823133L27.858399963378908,147.79834951420773L29.019166628519695,146.53274945816398L30.179933293660483,146.27567452735406L31.34069995880127,145.22759946943222L32.50146662394206,143.44784881509244L33.66223328908285,141.23304963786106L34.82299995422363,140.30362511467933L35.983766619364424,138.46454992964567L37.14453328450521,137.53512393311163L38.305299949646,136.823225144728L39.46606661478678,134.33157422865233L40.626833279927574,132.39362384356062L41.78759994506836,131.60262518980105L42.94836661020915,129.78332386609713L44.10913327534993,128.89344853892726L45.269899940490724,127.88492415036957L46.43066660563151,125.432823903658L47.5914332707723,124.80002498065035L48.75219993591308,124.40452418041826L49.912966601053874,122.98072365694642L51.07373326619466,123.61352552665869L52.23449993133545,120.31110062214137L53.39526659647624,118.61044835982523L54.556033261617024,118.01720010618169L55.716799926757815,116.43519985195796L56.8775665918986,113.13277494744064L58.03833325703939,113.56782347033223L59.199099922180174,114.93230093646247L60.359866587320965,113.80512453981241L61.52063325246175,109.86990071228742L62.68139991760254,106.23129806487958L63.842166582743324,107.57599724962314L65.00293324788412,105.16344767227571L66.1636999130249,103.38369701793593L67.3244665781657,103.20572195250195L68.48523324330647,102.849771821634L69.64599990844727,100.43722224428656L70.80676657358805,99.86375227202971L71.96753323872885,99.88352466000717L73.12829990386963,97.6489501480937L74.28906656901042,95.53302175086341L75.4498332341512,95.75054748566153L76.610599899292,95.75054748566153L77.77136656443278,94.10922712080081L78.93213322957357,89.87737621974945L80.09289989471435,89.52142608888148L81.25366655985515,87.84054916124742L82.41443322499593,88.65132314968905L83.57519989013672,89.08637461928527L84.7359665552775,85.56642397996983L85.8967332204183,85.64552531869809L87.05749988555908,82.85724732909601L88.21826655069987,81.74985216053723L89.37903321584066,83.66802721094687L90.53979988098145,82.38265108354489L91.70056654612223,80.70177415591081L92.86133321126302,80.80064788261653L94.02209987640381,79.45594869787296L95.1828665415446,82.63972748770713L96.34363320668538,79.97010150619745L97.50439987182617,82.02670095267693L98.66516653696696,75.91622567058006L99.82593320210775,77.39934925139347L100.98669986724853,79.06044789764087L102.14746653238932,82.89679799846014L103.30823319753011,73.70142354664407L104.4689998626709,77.81462243960303L105.62976652781168,74.43310208976665L106.79053319295248,69.7068766617775L107.95129985809326,71.90190050432682L109.11206652323405,72.37650264328717L110.27283318837483,71.9612235616684L111.43359985351563,69.35092653090953L112.59436651865641,72.87087717022499L113.7551331837972,66.85927561483383L114.91589984893798,71.01202517715693L116.07666651407878,66.66152226801317L117.23743317921956,67.828252280732L118.39819984436035,70.04304851125877L119.55896650950113,66.60219921067159L120.71973317464193,66.7010729373773L121.88049983978271,64.94110056442419L123.0412665049235,69.44980025761525L124.2020331700643,66.99770001090367L125.36279983520508,67.01747239888114L126.52356650034586,65.91007723032236L127.68433316548665,66.60219921067159L128.84509983062745,67.41297319911322L130.00586649576823,67.37342252974909L131.16663316090902,65.47502576072614L132.3273998260498,69.29159758015872L133.4881664911906,62.25170219493707L134.6489331563314,62.152822574822125L135.80969982147215,67.33387186038495L136.97046648661293,58.79108050637244L138.13123315175375,57.36727998290061L139.29199981689453,61.915524452046554L140.45276648203532,60.05667245897851L141.6135331471761,59.02837273573877L142.77429981231688,61.20362419031065L143.9350664774577,61.65844804788432L145.09583314259848,57.980300624521576L146.25659980773926,56.338974366251634L147.41736647288005,56.338974366251634L148.57813313802083,56.35875264763831L149.73889980316162,59.64139927076897L150.8996664683024,61.025649124876665L152.06043313344318,67.47230214986403L153.221199798584,60.66969899400871L154.38196646372478,56.85312717457613L155.54273312886556,60.452173259210596L156.70349979400635,54.06484918497404L157.86426645914713,54.73720467075506L159.02503312428792,58.15826979654632L160.1857997894287,55.884144615268724L161.3465664545695,56.43785398636658L162.5073331197103,55.37000359376272L163.66809978485108,58.395573812731115L164.82886644999186,57.011329852032645L165.98963311513265,55.01405346289475L167.15039978027343,55.33044703098933L168.31116644541422,54.83607250405154L169.471933110555,58.53399820880095L170.6326997756958,53.254069303123174L171.7934664408366,54.756971165323264L172.95423310597738,55.132699577577924L174.11499977111816,53.62979771537782L175.27576643625895,53.23430280855496L176.43653310139973,52.77947305757206L177.59729976654052,51.355672534100236L178.75806643168133,53.66935427815119L179.9188330968221,52.1664524159511L181.0795997619629,50.920621064504004L182.24036642710368,52.3839781507492L183.40113309224446,52.18623069733778L184.56189975738525,51.61275483167171L185.72266642252603,54.22305186243058L186.88343308766682,51.98847145710788L188.04419975280763,52.02802801988123L189.2049664179484,49.43749748369058L190.3657330830892,49.65502321848871L191.52649974822998,49.49682054103218L192.68726641337076,50.82175323120752L193.84803307851155,52.64104866150221L195.00879974365233,51.49409693017007L196.16956640879314,52.20599719190599L197.33033307393393,50.05052991213003L198.4910997390747,48.09279829894703L199.6518664042155,50.26805564692813L200.81263306935628,50.05052991213003L201.97339973449706,52.047794514449464L203.13416639963785,48.23122269501687L204.29493306477863,50.18895430819987L205.45569972991944,51.03927896600564L206.61646639506023,48.527849768543234L207.777233060201,46.313047644607224L208.9379997253418,47.97415218426386L210.09876639048258,47.55887899605432L211.25953305562336,47.99393046565055L212.42029972076415,46.491028603450445L213.58106638590496,46.965624849001586L214.74183305104575,47.36111975582443L215.90259971618653,47.63798033478258L217.0633663813273,46.84697873431841L218.2241330464681,46.29326936322056L219.38489971160888,45.99665407651264L220.54566637674967,46.17462324853739L221.70643304189045,45.08699457454682L222.86719970703126,45.24519725200338L224.02796637217205,45.126551137320206L225.18873303731283,45.75935006032785L226.3494997024536,44.691499667723974L227.5102663675944,45.68024872159958L228.67103303273518,45.166095913275086L229.83179969787597,44.691499667723974L230.99256636301678,44.869480626567196L232.15333302815756,44.23666991674108L233.31409969329835,44.59262004760902L234.47486635843913,43.959821124601376L235.6356330235799,43.287477425638826L236.7963996887207,43.287477425638826L237.95716635386148,43.287477425638826L239.11793301900227,43.99937768737476L240.27869968414308,43.50500316043693L241.43946634928386,43.228154368297254L242.60023301442465,43.38634525893531L243.76099967956543,43.56432621777853L244.9217663447062,43.287477425638826L246.082533009847,43.50500316043693L247.24329967498778,43.42590182170869L248.4040663401286,43.42590182170869L249.56483300526938,43.287477425638826L250.72559967041016,43.36657876436709L251.88636633555095,43.168819524137206L253.04713300069173,43.445680103095356L254.2078996658325,43.42590182170869" fill="none"></path></g></g></g></g></g></g><g transform="translate(51, 177)" clip-path="url(#clip_1)"><clipPath id="clip_1"><rect width="278" height="22"></rect></clipPath><g><g><line x1="0" y1="0" x2="0" y2="5" style="visibility: inherit;" fill="rgb(0, 0, 0)" stroke="rgb(204, 204, 204)" stroke-width="1px"></line><line x1="23.215333302815754" y1="0" x2="23.215333302815754" y2="5" style="visibility: inherit;" fill="rgb(0, 0, 0)" stroke="rgb(204, 204, 204)" stroke-width="1px"></line><line x1="46.43066660563151" y1="0" x2="46.43066660563151" y2="5" style="visibility: inherit;" fill="rgb(0, 0, 0)" stroke="rgb(204, 204, 204)" stroke-width="1px"></line><line x1="69.64599990844727" y1="0" x2="69.64599990844727" y2="5" style="visibility: inherit;" fill="rgb(0, 0, 0)" stroke="rgb(204, 204, 204)" stroke-width="1px"></line><line x1="92.86133321126302" y1="0" x2="92.86133321126302" y2="5" style="visibility: inherit;" fill="rgb(0, 0, 0)" stroke="rgb(204, 204, 204)" stroke-width="1px"></line><line x1="116.07666651407878" y1="0" x2="116.07666651407878" y2="5" style="visibility: inherit;" fill="rgb(0, 0, 0)" stroke="rgb(204, 204, 204)" stroke-width="1px"></line><line x1="139.29199981689453" y1="0" x2="139.29199981689453" y2="5" style="visibility: inherit;" fill="rgb(0, 0, 0)" stroke="rgb(204, 204, 204)" stroke-width="1px"></line><line x1="162.5073331197103" y1="0" x2="162.5073331197103" y2="5" style="visibility: inherit;" fill="rgb(0, 0, 0)" stroke="rgb(204, 204, 204)" stroke-width="1px"></line><line x1="185.72266642252603" y1="0" x2="185.72266642252603" y2="5" style="visibility: inherit;" fill="rgb(0, 0, 0)" stroke="rgb(204, 204, 204)" stroke-width="1px"></line><line x1="208.9379997253418" y1="0" x2="208.9379997253418" y2="5" style="visibility: inherit;" fill="rgb(0, 0, 0)" stroke="rgb(204, 204, 204)" stroke-width="1px"></line><line x1="232.15333302815756" y1="0" x2="232.15333302815756" y2="5" style="visibility: inherit;" fill="rgb(0, 0, 0)" stroke="rgb(204, 204, 204)" stroke-width="1px"></line><line x1="255.3686663309733" y1="0" x2="255.3686663309733" y2="5" style="visibility: inherit;" fill="rgb(0, 0, 0)" stroke="rgb(204, 204, 204)" stroke-width="1px"></line><line x1="278.58399963378906" y1="0" x2="278.58399963378906" y2="5" style="visibility: inherit;" fill="rgb(0, 0, 0)" stroke="rgb(204, 204, 204)" stroke-width="1px"></line></g><g transform="translate(0, 8)"><text style="text-anchor: middle; visibility: hidden; font-family: &quot;Helvetica Neue&quot;, sans-serif; font-size: 12px; font-weight: 200;" x="0" y="0" dx="0em" dy="0.95em" fill="rgb(50, 49, 63)" stroke="none" stroke-width="1px">-20</text><text style="text-anchor: middle; visibility: inherit; font-family: &quot;Helvetica Neue&quot;, sans-serif; font-size: 12px; font-weight: 200;" x="23.215333302815754" y="0" dx="0em" dy="0.95em" fill="rgb(50, 49, 63)" stroke="none" stroke-width="1px">0</text><text style="text-anchor: middle; visibility: hidden; font-family: &quot;Helvetica Neue&quot;, sans-serif; font-size: 12px; font-weight: 200;" x="46.43066660563151" y="0" dx="0em" dy="0.95em" fill="rgb(50, 49, 63)" stroke="none" stroke-width="1px">20</text><text style="text-anchor: middle; visibility: inherit; font-family: &quot;Helvetica Neue&quot;, sans-serif; font-size: 12px; font-weight: 200;" x="69.64599990844727" y="0" dx="0em" dy="0.95em" fill="rgb(50, 49, 63)" stroke="none" stroke-width="1px">40</text><text style="text-anchor: middle; visibility: hidden; font-family: &quot;Helvetica Neue&quot;, sans-serif; font-size: 12px; font-weight: 200;" x="92.86133321126302" y="0" dx="0em" dy="0.95em" fill="rgb(50, 49, 63)" stroke="none" stroke-width="1px">60</text><text style="text-anchor: middle; visibility: inherit; font-family: &quot;Helvetica Neue&quot;, sans-serif; font-size: 12px; font-weight: 200;" x="116.07666651407878" y="0" dx="0em" dy="0.95em" fill="rgb(50, 49, 63)" stroke="none" stroke-width="1px">80</text><text style="text-anchor: middle; visibility: hidden; font-family: &quot;Helvetica Neue&quot;, sans-serif; font-size: 12px; font-weight: 200;" x="139.29199981689453" y="0" dx="0em" dy="0.95em" fill="rgb(50, 49, 63)" stroke="none" stroke-width="1px">100</text><text style="text-anchor: middle; visibility: inherit; font-family: &quot;Helvetica Neue&quot;, sans-serif; font-size: 12px; font-weight: 200;" x="162.5073331197103" y="0" dx="0em" dy="0.95em" fill="rgb(50, 49, 63)" stroke="none" stroke-width="1px">120</text><text style="text-anchor: middle; visibility: hidden; font-family: &quot;Helvetica Neue&quot;, sans-serif; font-size: 12px; font-weight: 200;" x="185.72266642252603" y="0" dx="0em" dy="0.95em" fill="rgb(50, 49, 63)" stroke="none" stroke-width="1px">140</text><text style="text-anchor: middle; visibility: inherit; font-family: &quot;Helvetica Neue&quot;, sans-serif; font-size: 12px; font-weight: 200;" x="208.9379997253418" y="0" dx="0em" dy="0.95em" fill="rgb(50, 49, 63)" stroke="none" stroke-width="1px">160</text><text style="text-anchor: middle; visibility: hidden; font-family: &quot;Helvetica Neue&quot;, sans-serif; font-size: 12px; font-weight: 200;" x="232.15333302815756" y="0" dx="0em" dy="0.95em" fill="rgb(50, 49, 63)" stroke="none" stroke-width="1px">180</text><text style="text-anchor: middle; visibility: inherit; font-family: &quot;Helvetica Neue&quot;, sans-serif; font-size: 12px; font-weight: 200;" x="255.3686663309733" y="0" dx="0em" dy="0.95em" fill="rgb(50, 49, 63)" stroke="none" stroke-width="1px">200</text><text style="text-anchor: middle; visibility: hidden; font-family: &quot;Helvetica Neue&quot;, sans-serif; font-size: 12px; font-weight: 200;" x="278.58399963378906" y="0" dx="0em" dy="0.95em" fill="rgb(50, 49, 63)" stroke="none" stroke-width="1px">220</text></g><line x1="0" y1="0" x2="278.58399963378906" y2="0" fill="rgb(0, 0, 0)" stroke="rgb(204, 204, 204)" stroke-width="1px"></line></g></g></g></g></svg>