<svg viewBox="0 0 330 200" xmlns="http://www.w3.org/2000/svg"><g><g><g><g><g><line x1="51.41600036621094" y1="177.9749994277954" x2="46.41600036621094" y2="177.9749994277954" style="visibility: inherit;" fill="rgb(0, 0, 0)" stroke="rgb(204, 204, 204)" stroke-width="1px"></line><line x1="51.41600036621094" y1="160.17749948501586" x2="46.41600036621094" y2="160.17749948501586" style="visibility: inherit;" fill="rgb(0, 0, 0)" stroke="rgb(204, 204, 204)" stroke-width="1px"></line><line x1="51.41600036621094" y1="142.37999954223633" x2="46.41600036621094" y2="142.37999954223633" style="visibility: inherit;" fill="rgb(0, 0, 0)" stroke="rgb(204, 204, 204)" stroke-width="1px"></line><line x1="51.41600036621094" y1="124.58249959945678" x2="46.41600036621094" y2="124.58249959945678" style="visibility: inherit;" fill="rgb(0, 0, 0)" stroke="rgb(204, 204, 204)" stroke-width="1px"></line><line x1="51.41600036621094" y1="106.78499965667724" x2="46.41600036621094" y2="106.78499965667724" style="visibility: inherit;" fill="rgb(0, 0, 0)" stroke="rgb(204, 204, 204)" stroke-width="1px"></line><line x1="51.41600036621094" y1="88.9874997138977" x2="46.41600036621094" y2="88.9874997138977" style="visibility: inherit;" fill="rgb(0, 0, 0)" stroke="rgb(204, 204, 204)" stroke-width="1px"></line><line x1="51.41600036621094" y1="71.18999977111817" x2="46.41600036621094" y2="71.18999977111817" style="visibility: inherit;" fill="rgb(0, 0, 0)" stroke="rgb(204, 204, 204)" stroke-width="1px"></line><line x1="51.41600036621094" y1="53.39249982833863" x2="46.41600036621094" y2="53.39249982833863" style="visibility: inherit;" fill="rgb(0, 0, 0)" stroke="rgb(204, 204, 204)" stroke-width="1px"></line><line x1="51.41600036621094" y1="35.594999885559076" x2="46.41600036621094" y2="35.594999885559076" style="visibility: inherit;" fill="rgb(0, 0, 0)" stroke="rgb(204, 204, 204)" stroke-width="1px"></line><line x1="51.41600036621094" y1="17.797499942779524" x2="46.41600036621094" y2="17.797499942779524" style="visibility: inherit;" fill="rgb(0, 0, 0)" stroke="rgb(204, 204, 204)" stroke-width="1px"></line><line x1="51.41600036621094" y1="0" x2="46.41600036621094" y2="0" style="visibility: inherit;" fill="rgb(0, 0, 0)" stroke="rgb(204, 204, 204)" stroke-width="1px"></line></g><g transform="translate(41.41600036621094, 0)"><text style="text-anchor: end; visibility: hidden; font-family: &quot;Helvetica Neue&quot;, sans-serif; font-size: 12px; font-weight: 200;" x="0" y="177.9749994277954" dx="0em" dy="0.3em" fill="rgb(50, 49, 63)" stroke="none" stroke-width="1px">-0.5</text><text style="text-anchor: end; visibility: inherit; font-family: &quot;Helvetica Neue&quot;, sans-serif; font-size: 12px; font-weight: 200;" x="0" y="160.17749948501586" dx="0em" dy="0.3em" fill="rgb(50, 49, 63)" stroke="none" stroke-width="1px">0</text><text style="text-anchor: end; visibility: hidden; font-family: &quot;Helvetica Neue&quot;, sans-serif; font-size: 12px; font-weight: 200;" x="0" y="142.37999954223633" dx="0em" dy="0.3em" fill="rgb(50, 49, 63)" stroke="none" stroke-width="1px">0.5</text><text style="text-anchor: end; visibility: inherit; font-family: &quot;Helvetica Neue&quot;, sans-serif; font-size: 12px; font-weight: 200;" x="0" y="124.58249959945678" dx="0em" dy="0.3em" fill="rgb(50, 49, 63)" stroke="none" stroke-width="1px">1</text><text style="text-anchor: end; visibility: hidden; font-family: &quot;Helvetica Neue&quot;, sans-serif; font-size: 12px; font-weight: 200;" x="0" y="106.78499965667724" dx="0em" dy="0.3em" fill="rgb(50, 49, 63)" stroke="none" stroke-width="1px">1.5</text><text style="text-anchor: end; visibility: inherit; font-family: &quot;Helvetica Neue&quot;, sans-serif; font-size: 12px; font-weight: 200;" x="0" y="88.9874997138977" dx="0em" dy="0.3em" fill="rgb(50, 49, 63)" stroke="none" stroke-width="1px">2</text><text style="text-anchor: end; visibility: hidden; font-family: &quot;Helvetica Neue&quot;, sans-serif; font-size: 12px; font-weight: 200;" x="0" y="71.18999977111817" dx="0em" dy="0.3em" fill="rgb(50, 49, 63)" stroke="none" stroke-width="1px">2.5</text><text style="text-anchor: end; visibility: inherit; font-family: &quot;Helvetica Neue&quot;, sans-serif; font-size: 12px; font-weight: 200;" x="0" y="53.39249982833863" dx="0em" dy="0.3em" fill="rgb(50, 49, 63)" stroke="none" stroke-width="1px">3</text><text style="text-anchor: end; visibility: hidden; font-family: &quot;Helvetica Neue&quot;, sans-serif; font-size: 12px; font-weight: 200;" x="0" y="35.594999885559076" dx="0em" dy="0.3em" fill="rgb(50, 49, 63)" stroke="none" stroke-width="1px">3.5</text><text style="text-anchor: end; visibility: inherit; font-family: &quot;Helvetica Neue&quot;, sans-serif; font-size: 12px; font-weight: 200;" x="0" y="17.797499942779524" dx="0em" dy="0.3em" fill="rgb(50, 49, 63)" stroke="none" stroke-width="1px">4</text><text style="text-anchor: end; visibility: hidden; font-family: &quot;Helvetica Neue&quot;, sans-serif; font-size: 12px; font-weight: 200;" x="0" y="0" dx="0em" dy="0.3em" fill="rgb(50, 49, 63)" stroke="none" stroke-width="1px">4.5</text></g><line x1="51.41600036621094" y1="0" x2="51.41600036621094" y2="177.9749994277954" fill="rgb(0, 0, 0)" stroke="rgb(204, 204, 204)" stroke-width="1px"></line></g></g><g transform="translate(51, 0)" clip-path="url(#clip_0)"><clipPath id="clip_0"><rect width="278" height="177"></rect></clipPath><g><g><g><line x1="0" y1="0" x2="0" y2="177.9749994277954" fill="rgb(0, 0, 0)" stroke="rgb(60, 60, 60)" stroke-width="1px" opacity="0.25"></line><line x1="23.215333302815754" y1="0" x2="23.215333302815754" y2="177.9749994277954" fill="rgb(0, 0, 0)" stroke="rgb(60, 60, 60)" stroke-width="1px" opacity="0.25"></line><line x1="46.43066660563151" y1="0" x2="46.43066660563151" y2="177.9749994277954" fill="rgb(0, 0, 0)" stroke="rgb(60, 60, 60)" stroke-width="1px" opacity="0.25"></line><line x1="69.64599990844727" y1="0" x2="69.64599990844727" y2="177.9749994277954" fill="rgb(0, 0, 0)" stroke="rgb(60, 60, 60)" stroke-width="1px" opacity="0.25"></line><line x1="92.86133321126302" y1="0" x2="92.86133321126302" y2="177.9749994277954" fill="rgb(0, 0, 0)" stroke="rgb(60, 60, 60)" stroke-width="1px" opacity="0.25"></line><line x1="116.07666651407878" y1="0" x2="116.07666651407878" y2="177.9749994277954" fill="rgb(0, 0, 0)" stroke="rgb(60, 60, 60)" stroke-width="1px" opacity="0.25"></line><line x1="139.29199981689453" y1="0" x2="139.29199981689453" y2="177.9749994277954" fill="rgb(0, 0, 0)" stroke="rgb(60, 60, 60)" stroke-width="1px" opacity="0.25"></line><line x1="162.5073331197103" y1="0" x2="162.5073331197103" y2="177.9749994277954" fill="rgb(0, 0, 0)" stroke="rgb(60, 60, 60)" stroke-width="1px" opacity="0.25"></line><line x1="185.72266642252603" y1="0" x2="185.72266642252603" y2="177.9749994277954" fill="rgb(0, 0, 0)" stroke="rgb(60, 60, 60)" stroke-width="1px" opacity="0.25"></line><line x1="208.9379997253418" y1="0" x2="208.9379997253418" y2="177.9749994277954" fill="rgb(0, 0, 0)" stroke="rgb(60, 60, 60)" stroke-width="1px" opacity="0.25"></line><line x1="232.15333302815756" y1="0" x2="232.15333302815756" y2="177.9749994277954" fill="rgb(0, 0, 0)" stroke="rgb(60, 60, 60)" stroke-width="1px" opacity="0.25"></line><line x1="255.3686663309733" y1="0" x2="255.3686663309733" y2="177.9749994277954" fill="rgb(0, 0, 0)" stroke="rgb(60, 60, 60)" stroke-width="1px" opacity="0.25"></line><line x1="278.58399963378906" y1="0" x2="278.58399963378906" y2="177.9749994277954" fill="rgb(0, 0, 0)" stroke="rgb(60, 60, 60)" stroke-width="1px" opacity="0.25"></line></g><g><line x1="0" y1="177.9749994277954" x2="278.58399963378906" y2="177.9749994277954" fill="rgb(0, 0, 0)" stroke="rgb(60, 60, 60)" stroke-width="1px" opacity="0.25"></line><line x1="0" y1="160.17749948501586" x2="278.58399963378906" y2="160.17749948501586" fill="rgb(0, 0, 0)" stroke="rgb(60, 60, 60)" stroke-width="1px" opacity="0.25"></line><line x1="0" y1="142.37999954223633" x2="278.58399963378906" y2="142.37999954223633" fill="rgb(0, 0, 0)" stroke="rgb(60, 60, 60)" stroke-width="1px" opacity="0.25"></line><line x1="0" y1="124.58249959945678" x2="278.58399963378906" y2="124.58249959945678" fill="rgb(0, 0, 0)" stroke="rgb(60, 60, 60)" stroke-width="1px" opacity="0.25"></line><line x1="0" y1="106.78499965667724" x2="278.58399963378906" y2="106.78499965667724" fill="rgb(0, 0, 0)" stroke="rgb(60, 60, 60)" stroke-width="1px" opacity="0.25"></line><line x1="0" y1="88.9874997138977" x2="278.58399963378906" y2="88.9874997138977" fill="rgb(0, 0, 0)" stroke="rgb(60, 60, 60)" stroke-width="1px" opacity="0.25"></line><line x1="0" y1="71.18999977111817" x2="278.58399963378906" y2="71.18999977111817" fill="rgb(0, 0, 0)" stroke="rgb(60, 60, 60)" stroke-width="1px" opacity="0.25"></line><line x1="0" y1="53.39249982833863" x2="278.58399963378906" y2="53.39249982833863" fill="rgb(0, 0, 0)" stroke="rgb(60, 60, 60)" stroke-width="1px" opacity="0.25"></line><line x1="0" y1="35.594999885559076" x2="278.58399963378906" y2="35.594999885559076" fill="rgb(0, 0, 0)" stroke="rgb(60, 60, 60)" stroke-width="1px" opacity="0.25"></line><line x1="0" y1="17.797499942779524" x2="278.58399963378906" y2="17.797499942779524" fill="rgb(0, 0, 0)" stroke="rgb(60, 60, 60)" stroke-width="1px" opacity="0.25"></line><line x1="0" y1="0" x2="278.58399963378906" y2="0" fill="rgb(0, 0, 0)" stroke="rgb(60, 60, 60)" stroke-width="1px" opacity="0.25"></line></g></g></g><g><g><line x1="0" y1="160.17749948501586" x2="278.58399963378906" y2="160.17749948501586" fill="rgb(0, 0, 0)" stroke="rgb(153, 153, 153)" stroke-width="1.5px"></line></g></g><g><g><line x1="23.215333302815754" y1="0" x2="23.215333302815754" y2="177.9749994277954" fill="rgb(0, 0, 0)" stroke="rgb(153, 153, 153)" stroke-width="1.5px"></line></g></g><g><g><g><g><g><path style="fill: none;" stroke="rgb(0, 153, 136)" stroke-width="2px" d="M25.16542130025228,-1.9319708142155037L25.281497966766356,0.11915059051352728L25.397574633280435,0.2851127663028876L25.4904359664917,0.7369345212131577L25.95474263254801,0.359539452827363L26.976217297871905,3.36620785823024L27.092293964385988,2.876179838470108L27.324447297414142,5.879844019582293L27.67267729695638,4.193897109853054L27.765538630167644,4.286620710419356L27.997691963195802,4.632191368945769L28.229845296223957,5.727528150740653L28.345921962738036,5.11823072933683L28.578075295766194,5.726730418866822L28.810228628794352,6.138054551417355L28.903089962005613,6.96847645903344L29.25131996154785,6.374301997194834L29.367396628061933,8.433247963494608L29.483473294576008,7.562413298611773L29.599549961090087,8.11391759171093L29.71562662760417,7.67703209316133L30.04064129384359,8.745008368986419L30.156717960357664,7.4628835175902L30.388871293385826,10.808282455027069L30.62102462641398,10.329762141872123L30.737101292928063,9.898324982290433L30.85317795944214,9.682071752413975L30.969254625956218,13.142242241567686L31.294269292195636,11.838714413727388L31.41034595870972,15.983118201367148L31.526422625223795,16.35518374191517L31.642499291737874,13.434891028125293L31.874652624766032,14.212357117735337L32.22288262430827,13.74339261404748L32.780050623575846,17.245486459122645L32.89612729008992,14.454426308889737L33.012203956604004,16.34547517528071L33.12828062311809,15.172384995317401L33.24435728963216,17.292315017417053L33.36043395614624,18.883603402460523L33.917601955413815,18.90425956608661L34.82299995422363,21.63872318582557L35.17122995376587,22.316235168949305L35.28730662027995,19.757391372578326L36.076627952575684,24.091146155626774L36.42485795211792,25.054449825797036L36.657011285146076,24.345996029780707L36.77308795166016,21.991049105751472L36.86594928487142,24.303733213487448L37.330255950927736,27.86984079818106L37.44633261744181,24.091884481935494L37.562409283955894,24.65138306679134L37.91063928349813,25.068545917737396L38.00350061670939,25.62359757172223L38.35173061625162,28.893245927184438L38.816037282307946,27.06979210733479L39.0481906153361,27.51388265227658L39.25712861506144,30.622363709701602L39.37320528157552,27.845119596602302L39.4892819480896,26.670467898928564L39.60535861460368,27.197607423839372L40.06966528066,28.659391677028424L40.27860328038534,32.14385055578683L40.626833279927574,31.32410467686489L40.74290994644165,28.52902192122579L40.85898661295573,28.93437155123206L41.09113994598388,29.502500916041754L41.207216612497966,32.11902751609651L41.32329327901205,32.32703185893743L41.64830794525146,33.9363031571788L41.880461278279626,28.91129673245669L41.9965379447937,32.47735339809455L42.22869127782185,33.33729138504154L42.344767944335935,29.484848976706417L42.66978261057536,31.89374464032926L43.25016594314575,31.99704243147815L43.366242609659835,33.8431297716198L43.482319276173904,32.09552837185632L43.69125727589925,34.55587774133983L43.80733394241333,37.84044538014413L44.03948727544149,34.052067630483265L44.271640608469646,35.00876879642138L44.38771727498372,34.89711179361606L44.503793941497804,39.43389782505804L44.61987060801189,30.947269718092656L44.82880860773723,35.09182626289973L44.9448852742513,35.31932411759317L45.757421939849856,34.72682998459513L46.19851327260335,38.14029921309387L46.66281993865967,38.53002517948653L46.77889660517374,36.622563404117415L46.894973271687824,34.55559768653305L47.336064604441326,38.907284463723585L47.68429460398356,38.37416194975921L48.03252460352579,37.57783883649381L48.148601270039876,38.1804488885725L48.473615936279295,36.51096580687718L48.58969260279338,41.20622042640028L48.82184593582153,38.314247194130616L48.93792260233561,41.50236565478778L49.053999268849694,36.18964110540898L49.286152601877845,42.58420040029296L49.379013935089105,42.65904292577292L49.61116726811727,40.07581738819502L49.727243934631346,40.155607548594475L49.84332060114543,39.752574735625984L50.19155060068766,41.29454801515135L50.51656526692709,38.74847641527063L51.09694859949748,42.07939736784877L51.32910193252563,41.92495987168317L51.56125526555379,40.9043977232939L51.65411659876506,44.578479165758466L52.23449993133545,45.10142635507714L52.58272993087768,43.77450122110824L52.698806597391766,47.99737127369727L52.791667930603026,43.512802733952554L52.90774459711711,49.92156844539775L53.13989793014527,44.121064801222246L53.60420459620158,42.913018689469396L53.836357929229735,48.223655557561415L54.04529592895508,45.07577163747581L54.277449261983236,44.13305623885728L54.85783259455363,48.137330785004195L55.06677059427897,47.794221214173575L55.53107726033529,48.58133646485297L56.11146059290568,47.23868582915887L56.32039859263102,48.64941524242417L56.436475259145105,47.438678907224556L56.78470525868734,48.55272844201673L57.0168585917155,51.19197342745642L57.13293525822957,52.04367101387716L57.24901192474365,56.99644875798239L57.45794992446899,50.09211333620688L57.574026590983074,52.39952732167012L57.69010325749716,51.84846432705436L58.154409923553466,49.62774852055736L58.27048659006755,49.873763938534324L58.479424589792885,50.390100137111546L58.827654589335125,53.35644913684992L59.29196125539144,53.2696745793L59.40803792190552,53.42583483685266L59.5241145884196,53.31825135850936L59.61697592163086,52.17451601420035L59.84912925465901,51.07461349040432L60.19735925420125,55.37963295297705L60.31343592071533,52.47013507901147L60.42951258722941,57.01554340389802L60.75452725346883,57.19754508225651L60.87060391998291,58.82245701713009L61.10275725301106,53.708444082913275L61.79921725209554,55.552723796574895L62.00815525182088,56.64750046875625L62.356385251363115,63.333978710398384L62.4724619178772,57.910505214708934L62.704615250905356,55.338541274966616L62.82069191741944,53.320042011970784L63.377859916687015,59.32111581684407L63.49393658320109,58.0254889291582L63.72608991622925,58.68534048643728L63.95824324925741,56.974273509192386L64.07431991577148,63.468379558116524L64.16718124898274,55.00403702456197L64.51541124852498,62.902694307984035L64.63148791503906,58.505392543328384L64.9797179145813,57.97961085990491L65.09579458109538,62.44012014579593L65.30473258082071,59.97178497106506L65.4208092473348,60.865448345953695L65.65296258036295,64.246202081117L66.11726924641927,59.63997943061649L66.23334591293334,62.794491314462135L66.34942257944743,60.941283793021285L66.55836057917277,59.200352789564334L66.67443724568685,61.69434268189653L67.02266724522909,65.58536476149052L67.13874391174316,59.45300465781065L67.25482057825724,57.54028973318741L67.37089724477133,66.24647232214538L67.57983524449666,66.31614656346419L67.69591191101074,58.792440233750725L67.81198857752482,63.08651209933183L67.9280652440389,66.34640096910384L68.9495399093628,61.91563689829472L69.06561657587687,65.28776834001346L69.29776990890502,64.29362469506214L69.64599990844727,64.82663688440566L70.43532124074301,70.97417086670649L70.55139790725707,69.10236091688917L70.99248924001058,69.81502402151622L71.10856590652465,65.04904283352161L71.22464257303874,69.76978244046013L71.4567959060669,67.51493389357529L71.68894923909505,69.89256525695228L72.13004057184855,73.32079252511649L73.17473057047526,71.36572991910703L73.26759190368652,70.53115810844528L73.38366857020061,71.65011284561047L73.49974523671467,66.61612769405338L73.73189856974284,66.19969468290674L73.84797523625691,73.4526049874994L74.19620523579914,67.24414635496377L74.52121990203858,71.80342163603973L75.33375656763714,71.86674796840525L75.4498332341512,70.84727209320586L75.54269456736247,69.27624949236083L75.65877123387655,73.79761553641228L75.8909245669047,71.10070472030739L76.00700123341878,73.65897992055552L76.12307789993287,69.87730651323837L76.35523123296102,71.98779105049175L76.47130789947511,71.08604003224418L76.58738456598917,72.04581331454737L76.79632256571452,74.50207218655028L77.02847589874268,70.70441019571976L77.14455256525675,67.63701232979588L77.60885923131308,74.51611735943489L78.3981805636088,72.95212158828681L78.74641056315104,70.7233011654123L78.86248722966512,72.41303305828747L79.07142522939046,75.0344903202431L79.30357856241862,74.22066802480967L79.65180856196085,74.84249153393412L80.9054365603129,76.80194166524953L81.23045122655233,72.78190767134024L81.3465278930664,78.21930752878416L81.46260455958048,77.4432671727358L81.69475789260865,80.90791853879773L81.92691122563679,72.67305121660256L82.04298789215088,77.67763061344958L82.27514122517904,75.60844991693902L82.83230922444662,78.57664897570389L82.9483858909607,81.8655023017026L83.62163055674236,80.86226111878614L83.85378388977051,74.97596735213901L83.96986055628459,79.23347084916436L84.08593722279866,81.4567410949594L84.20201388931275,75.97765550385434L84.31809055582681,78.10974669377492L84.4341672223409,77.60919540248797L84.55024388885498,78.94946132906993L84.64310522206624,77.2162700220908L84.75918188858033,74.9509406362256L84.87525855509439,81.93382718804337L85.10741188812256,80.27984047232226L85.4556418876648,78.00637252404235L85.57171855417887,77.86325603127739L85.68779522069295,81.93869844437918L85.8967332204183,81.85411340622758L86.36103988647461,83.15265965311123L86.59319321950277,77.99299778539212L86.82534655253092,77.15559148062557L87.26643788528442,81.1773652089405L87.3825145517985,82.71353371610753L87.49859121831258,79.0889286228377L87.73074455134075,78.60910138725117L87.96289788436889,82.8649924475103L88.17183588409424,80.87646753534736L88.4039892171224,84.28822248896836L88.52006588363646,78.42838117179636L88.86829588317872,79.37026489250393L89.10044921620687,83.22592368786218L89.19331054941813,82.76184741352873L89.3093872159322,86.33034819384379L89.4254638824463,79.45748923504652L89.54154054896037,80.59323028759886L89.65761721547446,82.6767107522729L89.8897705485026,84.96746571998843L90.00584721501669,84.98535528158405L90.56301521428426,82.93085624615529L90.67909188079834,80.57140298568997L90.91124521382649,84.53588428974872L91.02732188034057,75.10365537100415L91.14339854685466,80.43712094910197L91.46841321309407,84.21999095422984L91.70056654612223,84.11808495060545L91.9327198791504,88.07552245194866L92.16487321217855,86.9760697131453L92.3970265452067,84.52144025092721L92.60596454493205,87.18334421618678L92.72204121144613,83.48562784533333L92.8381178779602,90.08503874485484L93.18634787750244,85.48810457877862L93.65065454355876,85.97499259009928L93.74351587677002,83.02687261232836L93.97566920979817,82.57587404881978L94.09174587631226,83.67283175389016L94.32389920934041,86.02011536002524L94.78820587539673,87.2493437989805L95.3453738746643,83.78037279968699L96.13469520696005,85.39566951952838L96.25077187347411,88.20963475835075L96.48292520650227,86.43063327419267L96.59900187301636,86.86822315301383L96.71507853953044,85.48823187641806L96.83115520604453,85.7762809749373L96.94723187255859,84.37836619070872L97.06330853907266,88.37575817781672L97.27224653879802,87.20299048520664L97.3883232053121,86.84884845229143L97.8526298713684,89.79483407297447L97.9687065378825,87.38439810791442L98.20085987091063,82.03151539654773L98.40979787063598,88.87687806522649L98.75802787017821,87.24311470115735L98.99018120320638,85.25761098630373L99.10625786972047,87.66583621569221L99.22233453623454,86.02547883390021L99.54734920247395,89.79545358815305L99.66342586898804,87.12101080540887L99.77950253550212,89.6291901412837L99.8955792020162,87.50558546065895L100.01165586853027,90.5226116506574L100.24380920155843,87.84322123299376L100.35988586807251,88.25049730061019L100.4759625345866,89.17426232397115L100.68490053431194,87.67423785989509L100.80097720082601,88.92487776180374L100.91705386734009,87.71302969388634L101.03313053385418,91.43466104793548L101.14920720036824,88.38853886081624L101.26528386688233,93.19953249411596L101.49743719991048,91.50110192921257L101.61351386642457,88.78465516870865L101.93852853266398,93.00523810704247L102.4028351987203,86.5921824651482L102.75106519826254,90.71913374642106L102.84392653147378,91.30866608767485L102.96000319798787,91.47927887055833L103.19215653101604,88.83493773628648L103.30823319753011,90.22953005212572L103.42430986404419,91.00885044401694L103.54038653055827,94.05263459782516L103.77253986358643,89.12529516533418L103.8886165301005,92.11466382153752L103.98147786331178,89.75354720525023L104.44578452936808,89.40397091433617L104.9100911954244,91.82955105523463L105.02616786193848,96.35856768741628L105.23510586166381,90.50485787321053L105.35118252817789,87.98551453435702L105.46725919469198,90.42321341052993L105.58333586120605,93.16424134520923L105.69941252772014,91.18254382977479L105.81548919423422,89.66141766033464L106.16371919377644,92.30055232115349L106.25658052698772,90.37128446014871L106.95304052607219,92.21043407894102L107.18519385910034,92.07930478055641L107.30127052561441,90.52977002124844L107.39413185882569,93.82472514743085L107.51020852533976,93.63669380421767L107.74236185836791,90.12728883138415L108.09059185791016,92.1773494224512L108.20666852442424,90.81221802363244L108.53168319066366,91.93751642649625L108.64775985717773,92.46349754288816L108.76383652369182,100.2662657577766L108.99598985671997,93.37567423780568L109.22814318974812,95.29766491708926L109.57637318929036,94.17929999232014L109.66923452250163,90.07322976716968L109.90138785552979,92.72938836563598L110.24961785507202,95.5831723060744L110.36569452158611,94.61023220459872L110.48177118810018,92.76577851749653L110.71392452112833,95.47524512410462L110.8067858543396,94.01626566223786L110.92286252085368,94.13391838386066L111.15501585388184,95.10339598954364L111.27109252039591,95.89580682202369L111.38716918690999,96.7099134155185L111.94433718617756,91.55036611567489L112.4086438522339,95.97912312703555L112.52472051874796,94.458989879183L112.75687385177612,91.70874983866305L112.98902718480429,97.75887991052093L113.19796518452962,92.85912587649607L113.3140418510437,92.80132001842749L113.43011851755779,91.44757327182909L113.54619518407186,96.97649164551929L113.66227185058592,95.85899234469834L113.77834851710001,96.73120606734176L114.01050185012818,93.40823697397379L114.21943984985352,92.3035098696431L114.45159318288167,95.96055464469624L114.79982318242392,98.48036474156102L115.03197651545206,96.73199106945162L115.14805318196615,95.55689383003984L115.26412984848022,89.37798522287233L115.70522118123372,93.11593189104269L115.93737451426189,99.89910541960158L116.05345118077597,97.65892580403458L116.28560451380412,91.14306458853058L116.61061918004353,96.1735108657113L116.8427725130717,98.21747814310392L116.95884917958577,96.99036284496333L117.07492584609986,93.79756407442953L117.42315584564209,97.05574715583309L117.74817051188151,95.85922148044934L117.86424717839559,92.71053558523529L118.09640051142375,94.25994304690381L118.3285538444519,93.10806489692546L118.56070717748005,102.0925243689485L119.11787517674763,94.86072425622923L119.3500285097758,97.35306352250338L119.46610517628987,94.65078923252351L119.58218184280396,99.20622012488845L119.69825850931802,99.51963115643831L120.02327317555746,96.8051872121282L120.71973317464193,97.26249125204357L120.95188650767008,97.32043289426089L121.04474784088134,98.82057192621245L121.16082450739543,99.86051301857877L121.27690117390951,96.05800947419498L121.3929778404236,99.55438341200475L121.8572845064799,96.01743971650625L122.08943783950805,99.97545005722691L122.18229917271931,98.32928365982191L122.53052917226157,98.555809809201L122.64660583877563,97.36579328644713L122.7626825052897,102.08237874708534L122.8787591718038,98.61003860360138L122.99483583831787,97.95355619051274L123.22698917134603,98.30039133892423L123.3198505045573,99.41779728814292L123.43592717107137,98.942735227526L123.55200383758545,100.08700522192066L123.78415717061361,99.15290363023736L124.13238717015584,98.26172680257241L124.364540503184,95.58235760118201L124.45740183639526,98.7539316119669L124.68955516942341,102.55390193332589L124.8056318359375,100.19801300676484L125.15386183547973,96.1596439095219L125.2699385019938,101.86328677984942L125.50209183502197,105.02365859836381L125.59495316823323,99.87881417587523L126.40748983383179,100.18042047299457L126.52356650034586,97.6980231523605L126.63964316685994,102.17882368197786L126.73250450007122,103.0197094555557L126.84858116658528,100.44227171731757L126.96465783309937,103.76035682458577L127.08073449961344,99.85052015388293L127.31288783264161,97.57308900576186L127.42896449915568,100.00880203875954L127.54504116566976,96.8116878782488L127.87005583190918,97.18751294241487L127.98613249842325,103.57944990592647L128.10220916493734,102.61188176483505L128.21828583145142,100.21388702240269L128.45043916447958,97.68214913672263L129.12368383026123,104.99785112359518L129.2397604967753,101.89202210032511L129.35583716328938,102.28033506292L129.58799049631756,97.60079321535811L130.05229716237386,100.77544782901741L130.3773118286133,100.18368777907347L130.7255418281555,102.83974878268286L131.18984849421182,103.84190369240946L131.51486316045126,101.83013423128523L131.63093982696532,103.5900792588195L131.7470164934794,100.67400434014964L131.97916982650756,97.87648171308797L132.09524649302165,102.7850532302712L132.21132315953574,100.5612822804277L132.53633782577515,100.83043192274512L132.65241449228924,102.23125333640753L132.8845678253174,105.23607168278393L133.11672115834554,102.54242817275792L133.23279782485963,100.9087199709992L133.46495115788778,103.83705789560155L133.67388915761313,104.27068033132689L133.7899658241272,101.8003338538929L134.02211915715534,97.9981740131356L134.25427249018352,103.36854742016101L134.37034915669759,99.24875875273382L134.48642582321168,100.02514705566331L134.60250248972577,99.89692438671254L134.92751715596518,100.46231260901969L135.04359382247924,104.35802772825427L135.15967048899333,103.37098729158356L135.50790048853557,101.5527654047148L135.62397715504963,101.55669465851877L136.52937515385946,100.75852572948152L136.8776051534017,103.73538951423744L136.97046648661293,104.7716347318054L137.20261981964111,101.97704843696009L137.43477315266927,104.67999740442896L137.55084981918336,105.48297818423696L137.8990798187256,102.71264633295914L138.01515648523966,102.4268546459126L138.224094484965,106.26674550699919L138.34017115147907,103.58895903959244L138.45624781799316,106.05608064349401L138.57232448450725,104.64083640728335L138.92055448404946,101.08851091368614L139.8259524828593,103.60334367284888L139.94202914937335,103.26307283937773L140.05810581588747,105.757266407933L140.29025914891562,103.25377162518949L140.49919714864095,103.88732349016077L140.61527381515504,106.81290329924195L140.7313504816691,108.19509258174536L140.96350381469728,104.5394311077074L141.19565714772543,104.35370385176805L141.3117338142395,109.58706680946683L141.4278104807536,104.10258804170428L141.75282514699302,101.14532809342175L141.86890181350708,102.7101979750273L141.98497848002117,101.06186751775185L142.56536181259156,102.52586674986709L142.77429981231688,106.07789521563895L142.89037647883097,102.44644999587668L143.12252981185915,101.27392416878153L143.2386064783732,100.15739657327497L143.47075981140136,108.60997256169084L144.14400447718302,105.31086753246278L144.2600811436971,108.96951625777285L144.4922344767253,101.1566575833317L144.7243878097534,108.01457179925899L145.1654791425069,103.38044126293913L145.3976324755351,110.31191654144273L145.62978580856324,104.8935010052936L145.86193914159136,106.31526712389812L146.0708771413167,107.16633670863096L146.3030304743449,104.94985567027258L146.41910714085896,106.78636598467388L146.53518380737304,106.88205137698442L146.6512604738871,104.51137895123001L146.76733714040122,103.09492538744469L147.2084284731547,109.5165311874545L147.44058180618285,109.02373656566395L147.55665847269694,102.84151821987105L148.25311847178142,108.27121232687433L148.46205647150677,107.3256284881138L148.6942098045349,105.2213688054289L148.81028647104898,102.89969748434864L148.92636313756307,105.09306975789445L149.59960780334472,109.7627884709464L149.94783780288697,105.99334836677919L150.17999113591512,108.97971704194644L150.52822113545736,108.26040051403145L150.85323580169677,107.71225263535881L150.96931246821086,111.87556012245501L151.201465801239,105.42325437506751L151.3175424677531,107.21071266573888L151.43361913426716,109.30946460389077L151.54969580078125,104.146556646366L151.75863380050657,107.23685960087936L151.87471046702066,111.84144435508576L152.10686380004884,105.00803917800484L152.2229404665629,100.01272704930886L152.33901713307696,106.60283673464214L152.68724713261923,106.99094177775929L152.8033237991333,106.7667451751819L153.01226179885865,107.55549832215543L153.94087513097128,104.74617096066324L154.0337364641825,109.17983317439689L154.14981313069663,107.71801497517068L154.2658897972107,112.81952728119472L154.61411979675293,112.17192600008418L154.73019646326702,106.87757474333087L154.84627312978108,109.89940854084541L155.17128779602052,106.6932010856242L155.28736446253458,106.85074464419209L155.40344112904864,109.00098423424181L155.7516711285909,108.23158457171745L157.12137579345702,106.5904803771074L157.44639045969646,108.05820094354887L157.67854379272458,109.65810313552764L157.7946204592387,110.487629716413L158.02677379226685,107.72851703042427L158.1428504587809,109.92594161215884L158.49108045832315,106.80130224103455L158.8160951245626,114.00788893463589L158.93217179107666,109.57599615809043L159.04824845759072,107.67553999614502L159.16432512410483,107.63516542817008L159.2804017906189,105.59384594167774L159.396478457133,108.73718957929007L159.51255512364705,109.62642299632627L159.6286317901611,105.69408858948016L159.83756978988646,108.26777104735488L160.06972312291464,109.9147182036151L160.1857997894287,110.09172981450763L160.41795312245685,105.0440941127482L160.65010645548503,109.81630864182058L160.85904445521038,110.6920824551136L160.97512112172444,107.00224156488669L161.09119778823853,106.94278083750542L161.2072744547526,110.12516241787857L161.32335112126668,110.53318529831303L161.43942778778077,108.00683210278119L161.9037344538371,111.53855659506276L162.46090245310467,109.30407142723327L162.57697911961873,108.28860118442151L162.8091324526469,107.93408150184264L162.92520911916097,106.0711866300406L163.36630045191447,108.25435811941281L163.48237711842853,109.909308053939L163.59845378494265,111.41696613312668L163.83060711797077,110.0769208557864L164.17883711751304,108.8786214999598L164.50385178375245,114.15852447463696L164.7360051167806,109.70059933082653L164.96815844980875,113.00475807634028L165.08423511632284,109.88579193668023L165.316388449351,109.67450331474184L165.40924978256226,112.65334445616368L165.7574797821045,103.51113350609499L165.8735564486186,112.665717786717L165.98963311513265,106.54818361477696L166.2217864481608,110.93059155561842L166.3378631146749,111.33226228384494L166.45393978118898,111.87958272786125L166.6628777809143,113.07182271605062L166.7789544474284,111.10284647805064L166.89503111394245,111.67180752077131L167.01110778045654,107.83931265253604L167.12718444697063,108.43276151782986L167.24326111348472,106.01530720958216L167.80042911275228,112.41755952514283L167.91650577926637,110.18354111532462L168.14865911229452,114.3850463807614L168.61296577835083,113.30684810448948L168.72904244486492,109.23854708896012L168.93798044459027,109.29239823369686L169.40228711064657,108.37549879635621L169.63444044367472,114.94049265742846L169.86659377670287,113.57898499807902L170.07553177642822,112.99028857799088L170.1916084429423,110.5875626066261L170.30768510945637,111.52709556425873L170.42376177597046,112.52171445373062L170.6559151089986,116.5762842972193L171.00414510854085,110.28099170156871L171.09700644175211,111.5131989052868L171.32915977478027,111.22743267776814L171.44523644129433,112.15169416192292L171.56131310780845,110.58464324742833L171.7934664408366,111.8038830649424L172.23455777359007,107.12155339907683L172.46671110661825,111.44105933301755L172.58278777313234,112.49642889928369L172.81494110616046,112.20686495885514L172.93101777267458,113.81421406274099L173.2792477722168,108.1935480370535L173.37210910542805,111.28763597471279L173.95249243799844,111.90487676881749L174.06856910451253,116.67373488346338L174.1846457710266,107.77503158787475L174.3007224375407,112.93372599353414L174.509660437266,113.79646877180339L174.7418137702942,111.87045548711357L174.85789043680828,108.4150629026934L174.97396710332234,113.73728809922888L175.0900437698364,109.78811221468517L175.20612043635052,111.3273528382173L175.32219710286458,110.80138445158933L175.647211769104,109.15842595469815L175.99544176864626,110.64129494023268L176.2275951016744,113.59911924138339L176.45974843470253,107.39304956121454L176.57582510121665,114.09249094580608L176.6919017677307,112.30423068000626L176.784763100942,111.54199787458221L176.90083976745606,114.4428098062835L177.3651464335124,113.15964960075321L177.82945309956867,114.51238220949077L178.03839109929402,111.63030000380537L178.1544677658081,111.51410696178145L178.50269776535035,111.98003753839605L178.6187744318644,114.91852957137084L178.7348510983785,111.85354611734162L179.05986576461794,117.67049237327782L179.40809576416015,111.76421712049365L179.5241724306742,113.37200752286289L179.64024909718833,113.33295260708347L179.87240243021648,116.12753041541949L179.98847909673054,119.14176030060496L180.1045557632446,113.09868676122657L180.42957042948404,114.42760622488001L180.6617237625122,112.80347504886164L180.77780042902629,114.8239771280513L180.89387709554035,116.42434183478667L181.00995376205447,111.98605871674145L181.12603042856853,114.4942847284174L181.2421070950826,113.90716679905826L181.45104509480794,117.63852369276042L181.56712176132203,113.64890959142205L181.91535176086427,112.80179896327571L182.47251976013183,113.60667647791134L183.84222442499797,114.76250934122156L183.95830109151206,113.01933365605588L184.07437775802612,114.78692078521104L184.1904544245402,111.22820495011406L184.65476109059654,112.01479403721714L184.97977575683595,114.51194515426202L185.09585242335,112.22345184127384L185.3280057563782,111.94490338991129L185.44408242289225,116.99183046814453L185.56015908940634,110.1700433222896L185.6762357559204,112.32111034699567L185.88517375564575,117.40460579378467L186.11732708867393,114.08636792934912L186.233403755188,114.07098613125042L186.34948042170208,110.50186583575676L186.5816337547302,113.4944848250204L186.6977104212443,113.57441925607786L186.81378708775839,111.21890797918047L187.02272508748374,116.61410866915085L187.2548784205119,114.03477843933975L187.95133841959634,111.39930995053669L188.1602764193217,113.58959313469882L188.74065975189208,111.92783701971736L188.85673641840614,116.84217936322177L189.29782775115967,115.00876238145881L189.87821108373006,116.53562967443762L189.99428775024415,114.35169864248341L190.43537908299763,112.04356754698468L190.89968574905396,112.43729065925565L191.2479157485962,113.73598542005197L191.5729304148356,113.98811112472194L191.6890070813497,115.72417935835237L191.80508374786376,117.78001077574058L192.153313747406,113.91107483658901L192.2693904139201,117.33059494621568L192.61762041346233,111.58140073724279L192.82655841318768,118.79122927739513L192.94263507970174,115.84637660570311L193.0587117462158,115.71232794812074L193.84803307851155,113.60117297663298L193.96410974502564,112.62868690340463L194.0801864115397,117.21861545605714L194.19626307805382,115.68703815041916L194.42841641108194,118.18107047529782L194.54449307759603,114.1505853451907L194.6605697441101,111.69929108112588L194.7766464106242,119.68322505320714L194.89272307713827,112.58719211620264L194.98558441034953,116.79565207600736L195.10166107686362,117.23486287810401L195.21773774337768,115.71964331913375L195.33381440989177,117.55155394549669L195.682044409434,116.85339004200156L195.91419774246216,113.43330557950672L196.47136574172976,114.87544780693054L196.58744240824382,117.29941126780814L196.70351907475788,116.5995543057085L196.93567240778603,112.42272780930399L197.72499374008177,115.5401069717257L197.95714707310995,115.49371546866003L198.5143150723775,114.3485713638079L198.6303917388916,116.44425542884935L199.0946984049479,116.48354372363443L199.32685173797609,114.76653618988243L199.44292840449015,112.84575059491885L199.6518664042155,115.03500691145618L199.76794307072956,116.09360559450938L200.00009640375774,114.83116944467952L200.11617307027183,114.02327073273459L200.78941773605348,117.16857475399425L200.90549440256754,117.52206756894832L201.02157106908163,118.67397542170923L201.60195440165202,118.85524726026827L201.71803106816608,116.28113199041945L202.73950573349,115.78576595631225L202.85558240000407,116.4903329310711L203.18059706624348,121.37461605864965L203.29667373275757,116.57072987688518L203.41275039927163,118.22234461325812L203.6449037322998,115.6710325938872L203.87705706532796,115.10206306465723L204.0859950650533,111.04971668660404L204.43422506459555,119.62756203873576L204.5503017311096,117.00191668444263L204.78245506413776,120.06377285979633L204.89853173065185,116.40650743550148L205.13068506368,116.40557391947894L205.33962306340536,117.61967939886901L205.45569972991944,116.57866900633144L205.68785306294757,113.7464110967219L205.8039297294617,118.91013375913909L206.26823639551796,114.86613810623301L206.36109772872925,117.61588592921377L206.59325106175743,117.5667320673723L206.7093277282715,112.44931604292786L206.82540439478555,117.77493584318168L206.94148106129964,118.25131755599409L207.17363439432782,118.40809732872535L207.28971106084188,118.84281452414987L207.40578772735597,116.75762402785271L207.49864906056723,118.37412583201413L207.96295572662356,115.19310633638295L208.19510905965168,113.77410681980886L208.31118572616577,115.76703198704169L208.42726239267984,117.12948164892298L208.6362003924052,118.52330169241631L208.86835372543337,116.82297014943065L209.10050705846152,121.57027253046513L209.33266039148964,116.01420157028289L209.44873705800376,118.78515293673931L209.56481372451782,113.20607929311073L209.77375172424317,120.35784313666097L209.88982839075723,114.98557299480794L210.00590505727132,116.9595944625843L210.12198172378538,115.36898499828449L210.2380583902995,119.45270175794971L210.35413505681356,116.85908873299373L210.5862883898417,116.22869809273513L210.70236505635577,118.83321203888163L211.0273797225952,120.16770713914244L211.1434563891093,121.73654870709842L211.37560972213745,117.1309625447951L211.49168638865152,114.92745737915007L211.83991638819376,118.083182833825L211.95599305470785,121.70769457549258L212.0488543879191,117.02797875449014L212.16493105443317,121.17088042998452L212.28100772094726,118.47290880021765L212.51316105397544,115.62713188129985L212.97746772003174,116.87761902604117L213.1864057197571,115.5903513500117L213.30248238627118,118.80664502153101L213.41855905278524,120.38679910637836L213.76678905232748,115.31785802303173L213.88286571884157,121.23519544068301L214.1150190518697,117.24623904381508L214.5561103846232,119.39859177467947L214.67218705113729,118.67386085383373L214.78826371765138,116.62458526487656L214.90434038416544,118.69994414015449L215.1364937171936,113.85704547515707L215.57758504994712,119.20295227588258L215.69366171646118,116.02640092739566L215.92581504948933,114.82441418328003L216.04189171600342,114.18404765134419L216.1579683825175,115.92001829011772L216.27404504903157,112.14736179892738L216.50619838205972,117.85423378604196L216.83121304829916,117.48495606379763L216.94728971481325,115.81571484761726L217.0633663813273,115.0223280665682L217.17944304784137,120.95200062548099L217.29551971435546,119.85248423785792L217.6437497138977,116.17924295981365L217.73661104710897,118.02818601033334L218.2009177131653,119.85085058481847L218.31699437967936,117.51095872828007L218.5491477127075,115.67551771405006L218.6652243792216,120.54273871468934L218.7813010457357,118.64239287736477L219.2223923784892,116.60498142840318L219.57062237803143,122.94028791538365L219.80277571105958,115.01670151090507L220.127790377299,115.94219353890773L220.24386704381305,119.70559124845632L220.35994371032717,120.12723073305594L220.47602037684123,120.32870046373907L220.5920970433553,117.02334512041462L220.82425037638345,119.26206081312807L220.94032704289756,117.71626860441957L221.05640370941163,118.24188904416641L221.38141837565104,118.36367045256165L221.49749504216513,121.127620448849L221.72964837519328,119.6154602764799L221.84572504170737,117.29714536982615L221.96180170822143,118.08196501974105L222.28681637446087,120.45308723048814L222.518969707489,121.13819463943162L222.6350463740031,119.24347960102484L222.75112304051717,118.09587865173157L222.86719970703126,119.5422895933312L223.65652103932698,121.38617468431057L223.77259770584106,117.35289324939049L224.1208277053833,116.82862216462168L224.67799570465087,120.90975478220632L225.1423023707072,119.24078089106877L225.37445570373538,121.84377150879666L225.6066090367635,114.2584064457943L225.81554703648885,121.91723497651606L225.93162370300294,121.42386327209337L226.047700369517,117.36213505801365L226.16377703603106,118.10143731532034L226.6280837020874,121.50366191900211L226.74416036860146,118.22354121106882L226.83702170181274,120.3332280164484L227.06917503484092,116.42994717417658L227.18525170135499,122.14229720304161L227.30132836786905,112.34676082134233L227.76563503392538,118.12615851689911L227.97457303365073,121.5067679814044L228.20672636667888,121.3388623949863L228.43887969970703,119.31891618215552L228.55495636622112,120.3915048757829L228.78710969924927,118.35927444074642L229.22820103200277,121.33061775120538L229.46035436503092,119.27688250161324L229.57643103154498,118.5639011528876L229.92466103108725,118.03121569415195L230.24967569732667,119.912441426033L230.713982363383,118.72309109425888L230.94613569641112,124.36184611451043L231.0622123629252,123.72537913359602L231.38722702916462,115.90725882339143L231.85153369522095,118.1814141789243L231.967610361735,119.23879929114818L232.0836870282491,115.55506444435962L232.1997636947632,120.75492690661311L232.5247783610026,120.95977851125062L232.64085502751666,121.18806561130859L232.75693169403075,123.01825771953914L232.98908502705893,119.22066362078299L233.105161693573,121.1183489374433L233.22123836008706,116.6329487197876L233.45339169311524,118.27466394306694L233.56946835962933,121.2941087882147L233.89448302586874,118.65797835168658L234.0105596923828,121.92311188420342L234.24271302541098,118.90163876333395L234.47486635843913,120.83509047342156L234.5909430249532,122.64925156559227L234.70701969146728,119.30714115050755L235.49634102376302,120.56339487831539L235.6124176902771,120.95967242988442L235.72849435679117,123.16793004073513L235.84457102330526,122.3665574544387L236.51781568908692,122.67564036624768L236.633892355601,122.46103776242924L236.74996902211507,123.49697746566255L236.86604568862913,123.30236483449046L236.98212235514325,119.24579217480796L237.1910603548686,120.15602545909671L237.5392903544108,118.69721148416122L237.88752035395305,121.54166875088352L238.32861168670655,117.31234046472034L238.4446883532206,122.96318876071845L238.56076501973467,123.02947688482823L238.6768416862488,122.32602164278714L238.79291835276285,121.86060449998494L239.025071685791,122.69413671325795L239.1411483523051,120.382958960922L239.5822396850586,118.35819665406584L239.9304696846008,122.02693583892867L240.04654635111493,118.11774838618695L240.39477635065714,118.91707996699772L240.4876376838684,120.32440629003538L240.6037143503825,121.32118923937772L240.71979101689655,119.16086343302989L240.83586768341067,124.21213560402259L241.0680210164388,119.46976388488899L241.18409768295288,120.26314217942874L241.30017434946694,120.21260925982669L241.41625101598106,115.11773764732663L241.53232768249512,122.99251813684486L241.97341901524862,120.06470637581887L242.08949568176268,123.71718965212554L242.20557234827675,119.33210421760126L242.55380234781902,121.29568727894373L242.76274034754434,121.22846139555676L242.87881701405843,117.75178464582264L242.9948936805725,120.41352736740559L243.22704701360067,117.84902306933432L243.34312368011476,121.63449418956137L243.45920034662882,120.84158689628752L243.691353679657,117.04510028699448L243.80743034617106,124.46680301822667L244.13244501241047,122.85297446449344L244.36459834543862,119.31617503965296L244.5967516784668,122.8040454951483L244.71282834498086,116.8164482670368L244.94498167800901,119.5935353797141L245.26999634424845,122.63428984970372L245.5021496772766,120.66352720149696L245.6182263437907,119.28497438822683L245.73430301030476,118.47255236682722L245.96645634333294,120.89792034499328L246.1753943430583,123.91356323397652L246.29147100957235,123.42936120284799L246.4075476760864,118.55221947284187L246.87185434214274,120.32022244095253L246.9879310086568,119.44885312598406L247.22008434168498,118.54796348843001L247.42902234141033,124.05377309730765L248.00940567398072,120.52403869145596L248.45049700673422,119.50161799753091L248.56657367324829,118.91337560569009L248.68265033976238,121.21405554602708L248.79872700627644,120.69143508731631L250.16843167114257,119.39195108115548L250.40058500417075,122.08441072313471L250.63273833719887,120.9953836610013" fill="none"></path></g></g></g></g></g></g><g transform="translate(51, 177)" clip-path="url(#clip_1)"><clipPath id="clip_1"><rect width="278" height="22"></rect></clipPath><g><g><line x1="0" y1="0" x2="0" y2="5" style="visibility: inherit;" fill="rgb(0, 0, 0)" stroke="rgb(204, 204, 204)" stroke-width="1px"></line><line x1="23.215333302815754" y1="0" x2="23.215333302815754" y2="5" style="visibility: inherit;" fill="rgb(0, 0, 0)" stroke="rgb(204, 204, 204)" stroke-width="1px"></line><line x1="46.43066660563151" y1="0" x2="46.43066660563151" y2="5" style="visibility: inherit;" fill="rgb(0, 0, 0)" stroke="rgb(204, 204, 204)" stroke-width="1px"></line><line x1="69.64599990844727" y1="0" x2="69.64599990844727" y2="5" style="visibility: inherit;" fill="rgb(0, 0, 0)" stroke="rgb(204, 204, 204)" stroke-width="1px"></line><line x1="92.86133321126302" y1="0" x2="92.86133321126302" y2="5" style="visibility: inherit;" fill="rgb(0, 0, 0)" stroke="rgb(204, 204, 204)" stroke-width="1px"></line><line x1="116.07666651407878" y1="0" x2="116.07666651407878" y2="5" style="visibility: inherit;" fill="rgb(0, 0, 0)" stroke="rgb(204, 204, 204)" stroke-width="1px"></line><line x1="139.29199981689453" y1="0" x2="139.29199981689453" y2="5" style="visibility: inherit;" fill="rgb(0, 0, 0)" stroke="rgb(204, 204, 204)" stroke-width="1px"></line><line x1="162.5073331197103" y1="0" x2="162.5073331197103" y2="5" style="visibility: inherit;" fill="rgb(0, 0, 0)" stroke="rgb(204, 204, 204)" stroke-width="1px"></line><line x1="185.72266642252603" y1="0" x2="185.72266642252603" y2="5" style="visibility: inherit;" fill="rgb(0, 0, 0)" stroke="rgb(204, 204, 204)" stroke-width="1px"></line><line x1="208.9379997253418" y1="0" x2="208.9379997253418" y2="5" style="visibility: inherit;" fill="rgb(0, 0, 0)" stroke="rgb(204, 204, 204)" stroke-width="1px"></line><line x1="232.15333302815756" y1="0" x2="232.15333302815756" y2="5" style="visibility: inherit;" fill="rgb(0, 0, 0)" stroke="rgb(204, 204, 204)" stroke-width="1px"></line><line x1="255.3686663309733" y1="0" x2="255.3686663309733" y2="5" style="visibility: inherit;" fill="rgb(0, 0, 0)" stroke="rgb(204, 204, 204)" stroke-width="1px"></line><line x1="278.58399963378906" y1="0" x2="278.58399963378906" y2="5" style="visibility: inherit;" fill="rgb(0, 0, 0)" stroke="rgb(204, 204, 204)" stroke-width="1px"></line></g><g transform="translate(0, 8)"><text style="text-anchor: middle; visibility: hidden; font-family: &quot;Helvetica Neue&quot;, sans-serif; font-size: 12px; font-weight: 200;" x="0" y="0" dx="0em" dy="0.95em" fill="rgb(50, 49, 63)" stroke="none" stroke-width="1px">-2k</text><text style="text-anchor: middle; visibility: inherit; font-family: &quot;Helvetica Neue&quot;, sans-serif; font-size: 12px; font-weight: 200;" x="23.215333302815754" y="0" dx="0em" dy="0.95em" fill="rgb(50, 49, 63)" stroke="none" stroke-width="1px">0</text><text style="text-anchor: middle; visibility: hidden; font-family: &quot;Helvetica Neue&quot;, sans-serif; font-size: 12px; font-weight: 200;" x="46.43066660563151" y="0" dx="0em" dy="0.95em" fill="rgb(50, 49, 63)" stroke="none" stroke-width="1px">2k</text><text style="text-anchor: middle; visibility: inherit; font-family: &quot;Helvetica Neue&quot;, sans-serif; font-size: 12px; font-weight: 200;" x="69.64599990844727" y="0" dx="0em" dy="0.95em" fill="rgb(50, 49, 63)" stroke="none" stroke-width="1px">4k</text><text style="text-anchor: middle; visibility: hidden; font-family: &quot;Helvetica Neue&quot;, sans-serif; font-size: 12px; font-weight: 200;" x="92.86133321126302" y="0" dx="0em" dy="0.95em" fill="rgb(50, 49, 63)" stroke="none" stroke-width="1px">6k</text><text style="text-anchor: middle; visibility: inherit; font-family: &quot;Helvetica Neue&quot;, sans-serif; font-size: 12px; font-weight: 200;" x="116.07666651407878" y="0" dx="0em" dy="0.95em" fill="rgb(50, 49, 63)" stroke="none" stroke-width="1px">8k</text><text style="text-anchor: middle; visibility: hidden; font-family: &quot;Helvetica Neue&quot;, sans-serif; font-size: 12px; font-weight: 200;" x="139.29199981689453" y="0" dx="0em" dy="0.95em" fill="rgb(50, 49, 63)" stroke="none" stroke-width="1px">10k</text><text style="text-anchor: middle; visibility: inherit; font-family: &quot;Helvetica Neue&quot;, sans-serif; font-size: 12px; font-weight: 200;" x="162.5073331197103" y="0" dx="0em" dy="0.95em" fill="rgb(50, 49, 63)" stroke="none" stroke-width="1px">12k</text><text style="text-anchor: middle; visibility: hidden; font-family: &quot;Helvetica Neue&quot;, sans-serif; font-size: 12px; font-weight: 200;" x="185.72266642252603" y="0" dx="0em" dy="0.95em" fill="rgb(50, 49, 63)" stroke="none" stroke-width="1px">14k</text><text style="text-anchor: middle; visibility: inherit; font-family: &quot;Helvetica Neue&quot;, sans-serif; font-size: 12px; font-weight: 200;" x="208.9379997253418" y="0" dx="0em" dy="0.95em" fill="rgb(50, 49, 63)" stroke="none" stroke-width="1px">16k</text><text style="text-anchor: middle; visibility: hidden; font-family: &quot;Helvetica Neue&quot;, sans-serif; font-size: 12px; font-weight: 200;" x="232.15333302815756" y="0" dx="0em" dy="0.95em" fill="rgb(50, 49, 63)" stroke="none" stroke-width="1px">18k</text><text style="text-anchor: middle; visibility: inherit; font-family: &quot;Helvetica Neue&quot;, sans-serif; font-size: 12px; font-weight: 200;" x="255.3686663309733" y="0" dx="0em" dy="0.95em" fill="rgb(50, 49, 63)" stroke="none" stroke-width="1px">20k</text><text style="text-anchor: middle; visibility: hidden; font-family: &quot;Helvetica Neue&quot;, sans-serif; font-size: 12px; font-weight: 200;" x="278.58399963378906" y="0" dx="0em" dy="0.95em" fill="rgb(50, 49, 63)" stroke="none" stroke-width="1px">22k</text></g><line x1="0" y1="0" x2="278.58399963378906" y2="0" fill="rgb(0, 0, 0)" stroke="rgb(204, 204, 204)" stroke-width="1px"></line></g></g></g></g></svg>