<svg viewBox="0 0 330 200" xmlns="http://www.w3.org/2000/svg"><g><g><g><g><g><line x1="51.41600036621094" y1="177.9749994277954" x2="46.41600036621094" y2="177.9749994277954" style="visibility: inherit;" fill="rgb(0, 0, 0)" stroke="rgb(204, 204, 204)" stroke-width="1px"></line><line x1="51.41600036621094" y1="161.79545402526855" x2="46.41600036621094" y2="161.79545402526855" style="visibility: inherit;" fill="rgb(0, 0, 0)" stroke="rgb(204, 204, 204)" stroke-width="1px"></line><line x1="51.41600036621094" y1="145.6159086227417" x2="46.41600036621094" y2="145.6159086227417" style="visibility: inherit;" fill="rgb(0, 0, 0)" stroke="rgb(204, 204, 204)" stroke-width="1px"></line><line x1="51.41600036621094" y1="129.43636322021484" x2="46.41600036621094" y2="129.43636322021484" style="visibility: inherit;" fill="rgb(0, 0, 0)" stroke="rgb(204, 204, 204)" stroke-width="1px"></line><line x1="51.41600036621094" y1="113.25681781768799" x2="46.41600036621094" y2="113.25681781768799" style="visibility: inherit;" fill="rgb(0, 0, 0)" stroke="rgb(204, 204, 204)" stroke-width="1px"></line><line x1="51.41600036621094" y1="97.07727241516113" x2="46.41600036621094" y2="97.07727241516113" style="visibility: inherit;" fill="rgb(0, 0, 0)" stroke="rgb(204, 204, 204)" stroke-width="1px"></line><line x1="51.41600036621094" y1="80.89772701263429" x2="46.41600036621094" y2="80.89772701263429" style="visibility: inherit;" fill="rgb(0, 0, 0)" stroke="rgb(204, 204, 204)" stroke-width="1px"></line><line x1="51.41600036621094" y1="64.71818161010742" x2="46.41600036621094" y2="64.71818161010742" style="visibility: inherit;" fill="rgb(0, 0, 0)" stroke="rgb(204, 204, 204)" stroke-width="1px"></line><line x1="51.41600036621094" y1="48.538636207580566" x2="46.41600036621094" y2="48.538636207580566" style="visibility: inherit;" fill="rgb(0, 0, 0)" stroke="rgb(204, 204, 204)" stroke-width="1px"></line><line x1="51.41600036621094" y1="32.35909080505371" x2="46.41600036621094" y2="32.35909080505371" style="visibility: inherit;" fill="rgb(0, 0, 0)" stroke="rgb(204, 204, 204)" stroke-width="1px"></line><line x1="51.41600036621094" y1="16.179545402526855" x2="46.41600036621094" y2="16.179545402526855" style="visibility: inherit;" fill="rgb(0, 0, 0)" stroke="rgb(204, 204, 204)" stroke-width="1px"></line><line x1="51.41600036621094" y1="0" x2="46.41600036621094" y2="0" style="visibility: inherit;" fill="rgb(0, 0, 0)" stroke="rgb(204, 204, 204)" stroke-width="1px"></line></g><g transform="translate(41.41600036621094, 0)"><text style="text-anchor: end; visibility: hidden; font-family: &quot;Helvetica Neue&quot;, sans-serif; font-size: 12px; font-weight: 200;" x="0" y="177.9749994277954" dx="0em" dy="0.3em" fill="rgb(50, 49, 63)" stroke="none" stroke-width="1px">-0.5</text><text style="text-anchor: end; visibility: inherit; font-family: &quot;Helvetica Neue&quot;, sans-serif; font-size: 12px; font-weight: 200;" x="0" y="161.79545402526855" dx="0em" dy="0.3em" fill="rgb(50, 49, 63)" stroke="none" stroke-width="1px">0</text><text style="text-anchor: end; visibility: hidden; font-family: &quot;Helvetica Neue&quot;, sans-serif; font-size: 12px; font-weight: 200;" x="0" y="145.6159086227417" dx="0em" dy="0.3em" fill="rgb(50, 49, 63)" stroke="none" stroke-width="1px">0.5</text><text style="text-anchor: end; visibility: inherit; font-family: &quot;Helvetica Neue&quot;, sans-serif; font-size: 12px; font-weight: 200;" x="0" y="129.43636322021484" dx="0em" dy="0.3em" fill="rgb(50, 49, 63)" stroke="none" stroke-width="1px">1</text><text style="text-anchor: end; visibility: hidden; font-family: &quot;Helvetica Neue&quot;, sans-serif; font-size: 12px; font-weight: 200;" x="0" y="113.25681781768799" dx="0em" dy="0.3em" fill="rgb(50, 49, 63)" stroke="none" stroke-width="1px">1.5</text><text style="text-anchor: end; visibility: inherit; font-family: &quot;Helvetica Neue&quot;, sans-serif; font-size: 12px; font-weight: 200;" x="0" y="97.07727241516113" dx="0em" dy="0.3em" fill="rgb(50, 49, 63)" stroke="none" stroke-width="1px">2</text><text style="text-anchor: end; visibility: hidden; font-family: &quot;Helvetica Neue&quot;, sans-serif; font-size: 12px; font-weight: 200;" x="0" y="80.89772701263429" dx="0em" dy="0.3em" fill="rgb(50, 49, 63)" stroke="none" stroke-width="1px">2.5</text><text style="text-anchor: end; visibility: inherit; font-family: &quot;Helvetica Neue&quot;, sans-serif; font-size: 12px; font-weight: 200;" x="0" y="64.71818161010742" dx="0em" dy="0.3em" fill="rgb(50, 49, 63)" stroke="none" stroke-width="1px">3</text><text style="text-anchor: end; visibility: hidden; font-family: &quot;Helvetica Neue&quot;, sans-serif; font-size: 12px; font-weight: 200;" x="0" y="48.538636207580566" dx="0em" dy="0.3em" fill="rgb(50, 49, 63)" stroke="none" stroke-width="1px">3.5</text><text style="text-anchor: end; visibility: inherit; font-family: &quot;Helvetica Neue&quot;, sans-serif; font-size: 12px; font-weight: 200;" x="0" y="32.35909080505371" dx="0em" dy="0.3em" fill="rgb(50, 49, 63)" stroke="none" stroke-width="1px">4</text><text style="text-anchor: end; visibility: hidden; font-family: &quot;Helvetica Neue&quot;, sans-serif; font-size: 12px; font-weight: 200;" x="0" y="16.179545402526855" dx="0em" dy="0.3em" fill="rgb(50, 49, 63)" stroke="none" stroke-width="1px">4.5</text><text style="text-anchor: end; visibility: hidden; font-family: &quot;Helvetica Neue&quot;, sans-serif; font-size: 12px; font-weight: 200;" x="0" y="0" dx="0em" dy="0.3em" fill="rgb(50, 49, 63)" stroke="none" stroke-width="1px">5</text></g><line x1="51.41600036621094" y1="0" x2="51.41600036621094" y2="177.9749994277954" fill="rgb(0, 0, 0)" stroke="rgb(204, 204, 204)" stroke-width="1px"></line></g></g><g transform="translate(51, 0)" clip-path="url(#clip_0)"><clipPath id="clip_0"><rect width="278" height="177"></rect></clipPath><g><g><g><line x1="0" y1="0" x2="0" y2="177.9749994277954" fill="rgb(0, 0, 0)" stroke="rgb(60, 60, 60)" stroke-width="1px" opacity="0.25"></line><line x1="23.215333302815754" y1="0" x2="23.215333302815754" y2="177.9749994277954" fill="rgb(0, 0, 0)" stroke="rgb(60, 60, 60)" stroke-width="1px" opacity="0.25"></line><line x1="46.43066660563151" y1="0" x2="46.43066660563151" y2="177.9749994277954" fill="rgb(0, 0, 0)" stroke="rgb(60, 60, 60)" stroke-width="1px" opacity="0.25"></line><line x1="69.64599990844727" y1="0" x2="69.64599990844727" y2="177.9749994277954" fill="rgb(0, 0, 0)" stroke="rgb(60, 60, 60)" stroke-width="1px" opacity="0.25"></line><line x1="92.86133321126302" y1="0" x2="92.86133321126302" y2="177.9749994277954" fill="rgb(0, 0, 0)" stroke="rgb(60, 60, 60)" stroke-width="1px" opacity="0.25"></line><line x1="116.07666651407878" y1="0" x2="116.07666651407878" y2="177.9749994277954" fill="rgb(0, 0, 0)" stroke="rgb(60, 60, 60)" stroke-width="1px" opacity="0.25"></line><line x1="139.29199981689453" y1="0" x2="139.29199981689453" y2="177.9749994277954" fill="rgb(0, 0, 0)" stroke="rgb(60, 60, 60)" stroke-width="1px" opacity="0.25"></line><line x1="162.5073331197103" y1="0" x2="162.5073331197103" y2="177.9749994277954" fill="rgb(0, 0, 0)" stroke="rgb(60, 60, 60)" stroke-width="1px" opacity="0.25"></line><line x1="185.72266642252603" y1="0" x2="185.72266642252603" y2="177.9749994277954" fill="rgb(0, 0, 0)" stroke="rgb(60, 60, 60)" stroke-width="1px" opacity="0.25"></line><line x1="208.9379997253418" y1="0" x2="208.9379997253418" y2="177.9749994277954" fill="rgb(0, 0, 0)" stroke="rgb(60, 60, 60)" stroke-width="1px" opacity="0.25"></line><line x1="232.15333302815756" y1="0" x2="232.15333302815756" y2="177.9749994277954" fill="rgb(0, 0, 0)" stroke="rgb(60, 60, 60)" stroke-width="1px" opacity="0.25"></line><line x1="255.3686663309733" y1="0" x2="255.3686663309733" y2="177.9749994277954" fill="rgb(0, 0, 0)" stroke="rgb(60, 60, 60)" stroke-width="1px" opacity="0.25"></line><line x1="278.58399963378906" y1="0" x2="278.58399963378906" y2="177.9749994277954" fill="rgb(0, 0, 0)" stroke="rgb(60, 60, 60)" stroke-width="1px" opacity="0.25"></line></g><g><line x1="0" y1="177.9749994277954" x2="278.58399963378906" y2="177.9749994277954" fill="rgb(0, 0, 0)" stroke="rgb(60, 60, 60)" stroke-width="1px" opacity="0.25"></line><line x1="0" y1="161.79545402526855" x2="278.58399963378906" y2="161.79545402526855" fill="rgb(0, 0, 0)" stroke="rgb(60, 60, 60)" stroke-width="1px" opacity="0.25"></line><line x1="0" y1="145.6159086227417" x2="278.58399963378906" y2="145.6159086227417" fill="rgb(0, 0, 0)" stroke="rgb(60, 60, 60)" stroke-width="1px" opacity="0.25"></line><line x1="0" y1="129.43636322021484" x2="278.58399963378906" y2="129.43636322021484" fill="rgb(0, 0, 0)" stroke="rgb(60, 60, 60)" stroke-width="1px" opacity="0.25"></line><line x1="0" y1="113.25681781768799" x2="278.58399963378906" y2="113.25681781768799" fill="rgb(0, 0, 0)" stroke="rgb(60, 60, 60)" stroke-width="1px" opacity="0.25"></line><line x1="0" y1="97.07727241516113" x2="278.58399963378906" y2="97.07727241516113" fill="rgb(0, 0, 0)" stroke="rgb(60, 60, 60)" stroke-width="1px" opacity="0.25"></line><line x1="0" y1="80.89772701263429" x2="278.58399963378906" y2="80.89772701263429" fill="rgb(0, 0, 0)" stroke="rgb(60, 60, 60)" stroke-width="1px" opacity="0.25"></line><line x1="0" y1="64.71818161010742" x2="278.58399963378906" y2="64.71818161010742" fill="rgb(0, 0, 0)" stroke="rgb(60, 60, 60)" stroke-width="1px" opacity="0.25"></line><line x1="0" y1="48.538636207580566" x2="278.58399963378906" y2="48.538636207580566" fill="rgb(0, 0, 0)" stroke="rgb(60, 60, 60)" stroke-width="1px" opacity="0.25"></line><line x1="0" y1="32.35909080505371" x2="278.58399963378906" y2="32.35909080505371" fill="rgb(0, 0, 0)" stroke="rgb(60, 60, 60)" stroke-width="1px" opacity="0.25"></line><line x1="0" y1="16.179545402526855" x2="278.58399963378906" y2="16.179545402526855" fill="rgb(0, 0, 0)" stroke="rgb(60, 60, 60)" stroke-width="1px" opacity="0.25"></line><line x1="0" y1="0" x2="278.58399963378906" y2="0" fill="rgb(0, 0, 0)" stroke="rgb(60, 60, 60)" stroke-width="1px" opacity="0.25"></line></g></g></g><g><g><line x1="0" y1="161.79545402526855" x2="278.58399963378906" y2="161.79545402526855" fill="rgb(0, 0, 0)" stroke="rgb(153, 153, 153)" stroke-width="1.5px"></line></g></g><g><g><line x1="23.215333302815754" y1="0" x2="23.215333302815754" y2="177.9749994277954" fill="rgb(0, 0, 0)" stroke="rgb(153, 153, 153)" stroke-width="1.5px"></line></g></g><g><g><g><g><g><path style="fill: none;" stroke="rgb(238, 51, 119)" stroke-width="2px" d="M23.215333302815754,-163.1644359848051L24.37609996795654,13.470512765144122L25.53686663309733,16.20165661674673L26.69763329823812,18.35466859508324L27.858399963378908,20.43384794254598L29.019166628519695,22.457756969467482L30.179933293660483,24.726062034092138L31.34069995880127,27.381876543181534L32.50146662394206,29.62540100066235L33.66223328908285,31.717186671933632L34.82299995422363,33.75120235992563L35.983766619364424,35.99052985280923L37.14453328450521,38.011306586299725L38.305299949646,39.76914040177144L39.46606661478678,41.290578643303434L40.626833279927574,42.82175322550029L41.78759994506836,44.267090623673994L42.94836661020915,45.84666916889091L44.10913327534993,47.14807536940725L45.269899940490724,47.67513388672933L46.43066660563151,49.58553970932326L47.5914332707723,50.80261315246436L48.75219993591308,51.446237732468944L49.912966601053874,52.68610131057358L51.07373326619466,52.79300818267575L52.23449993133545,54.9078462991979L53.39526659647624,55.327203298547374L54.556033261617024,57.43669491421315L55.716799926757815,58.48761022035022L56.8775665918986,60.04409003026558L58.03833325703939,61.00410710683582L59.199099922180174,60.57472831150881L60.359866587320965,60.43285702110779L61.52063325246175,64.43057381007156L62.68139991760254,66.86657229838191L63.842166582743324,66.475876555427L65.00293324788412,68.52517567515996L66.1636999130249,69.49512196760632L67.3244665781657,70.02011286266361L68.48523324330647,71.7584431367718L69.64599990844727,73.29723243230956L70.80676657358805,73.95229836984662L71.96753323872885,72.80185945469475L73.12829990386963,76.200436402381L74.28906656901042,77.09976722247757L75.4498332341512,77.17464909450062L76.610599899292,76.87631743271822L77.77136656443278,76.8353970278954L78.93213322957357,81.62513658441412L80.09289989471435,81.97341521090675L81.25366655985515,82.46334139255532L82.41443322499593,81.99992397994356L83.57519989013672,82.6947916460781L84.7359665552775,85.68492061636424L85.8967332204183,86.1052342767616L87.05749988555908,86.49433301296722L88.21826655069987,88.56082117152846L89.37903321584066,87.21639608389067L90.53979988098145,87.99106008243143L91.70056654612223,89.94036497763409L92.86133321126302,90.38936303945138L94.02209987640381,90.56589786282166L95.1828665415446,87.63279051999508L96.34363320668538,90.40083525701766L97.50439987182617,86.62158436235404L98.66516653696696,93.17571549152763L99.82593320210775,91.92923243617224L100.98669986724853,90.85035022440115L102.14746653238932,88.12004730871968L103.30823319753011,95.97382561648283L104.4689998626709,92.03479689680398L105.62976652781168,95.64967182141572L106.79053319295248,98.4112398088439L107.95129985809326,97.18485820800697L109.11206652323405,96.4261334169255L110.27283318837483,96.95109345194896L111.43359985351563,99.8922938386404L112.59436651865641,97.53466440617285L113.7551331837972,101.12887468064923L114.91589984893798,99.06591228094999L116.07666651407878,99.88371860674738L117.23743317921956,100.7462449790296L118.39819984436035,99.37674611392686L119.55896650950113,102.41385177066968L120.71973317464193,101.9692474061651L121.88049983978271,103.55519469085812L123.0412665049235,101.34740229501699L124.2020331700643,102.0767059013715L125.36279983520508,101.57266125425804L126.52356650034586,102.90502778368727L127.68433316548665,102.31767647532251L128.84509983062745,103.98249814891187L130.00586649576823,99.90888882181798L131.16663316090902,104.37081766926394L132.3273998260498,99.11947758462361L133.4881664911906,106.35531457551474L134.6489331563314,106.08211455376068L135.80969982147215,103.58072365382168L136.97046648661293,108.1660193438995L138.13123315175375,108.31027071440758L139.29199981689453,107.43452853264921L140.45276648203532,108.1785870926658L141.6135331471761,109.49636068361042L142.77429981231688,106.62934010317304L143.9350664774577,108.67247878865805L145.09583314259848,109.85667472328623L146.25659980773926,111.15958149294624L147.41736647288005,111.24276857156656L148.57813313802083,110.76756648354626L149.73889980316162,109.1334929761374L150.8996664683024,109.38720102904063L152.06043313344318,105.63185123055746L153.221199798584,109.68363865624838L154.38196646372478,112.38324741080851L155.54273312886556,108.07054997182559L156.70349979400635,113.52691254854062L157.86426645914713,111.90202761619662L159.02503312428792,110.28914337949777L160.1857997894287,112.39372824978886L161.3465664545695,113.90019165991794L162.5073331197103,113.28799030933328L163.66809978485108,109.01360945982105L164.82886644999186,112.44581612934417L165.98963311513265,113.6765451374431L167.15039978027343,113.40109619072564L168.31116644541422,113.36309591660142L169.471933110555,110.17999915494488L170.6326997756958,114.63898472666688L171.7934664408366,114.26147779065855L172.95423310597738,113.33031870319837L174.11499977111816,114.9884167469229L175.27576643625895,115.73894048402121L176.43653310139973,115.93285722143105L177.59729976654052,115.91035639928441L178.75806643168133,115.59568049209906L179.9188330968221,116.66177121985879L181.0795997619629,117.95008890853842L182.24036642710368,116.45271377836434L183.40113309224446,116.7563572234651L184.56189975738525,118.30255678461981L185.72266642252603,115.0742770759714L186.88343308766682,117.55448642020883L188.04419975280763,117.88735431732107L189.2049664179484,118.29551298190427L190.3657330830892,118.5294937581989L191.52649974822998,119.61563579292215L192.68726641337076,117.01128424770354L193.84803307851155,117.65296850308277L195.00879974365233,117.6415271455503L196.16956640879314,117.45685298826447L197.33033307393393,119.51743530785666L198.4910997390747,120.47893752355367L199.6518664042155,119.78632649739097L200.81263306935628,119.52179428763134L201.97339973449706,119.53172736101169L203.13416639963785,120.60848023045037L204.29493306477863,119.18530419405147L205.45569972991944,119.00838747776288L206.61646639506023,121.17101621413326L207.777233060201,122.02583529297317L208.9379997253418,120.8300282706266L210.09876639048258,122.00506649022373L211.25953305562336,121.77125930161924L212.42029972076415,122.18143544091231L213.58106638590496,122.83589960779022L214.74183305104575,121.57765502205166L215.90259971618653,122.85113289197625L217.0633663813273,122.97225852465317L218.2241330464681,123.38344147254907L219.38489971160888,123.62533013250572L220.54566637674967,123.28584275814273L221.70643304189045,124.6845120701978L222.86719970703126,124.54534489025878L224.02796637217205,124.35992237715323L225.18873303731283,124.38690947671398L226.3494997024536,124.41034381488316L227.5102663675944,124.14534098960803L228.67103303273518,124.88112134555695L229.83179969787597,124.766892930435L230.99256636301678,125.16431616075897L232.15333302815756,125.39586670939161L233.31409969329835,125.51833089603474L234.47486635843913,125.3220263635094L235.6356330235799,125.6804695136359L236.7963996887207,125.6733871358781L237.95716635386148,125.73366835440811L239.11793301900227,125.89081921904585L240.27869968414308,126.04571730121597L241.43946634928386,126.27747229757256L242.60023301442465,126.20169162706497L243.76099967956543,126.2558509863893L244.9217663447062,126.23722695598917L246.082533009847,126.26322653446823L247.24329967498778,126.42648382829475L248.4040663401286,126.45748658975413L249.56483300526938,126.31857400509398L250.72559967041016,126.42413846572572L251.88636633555095,126.31098629428266L253.04713300069173,126.35564462069988L254.2078996658325,126.34582727244629" fill="none"></path></g><g><path style="fill: none;" stroke="rgb(204, 51, 17)" stroke-width="2px" d="M23.215333302815754,-146.00443644832194L24.37609996795654,13.625877605325513L25.53686663309733,16.356357966201358L26.69763329823812,18.6285976851359L27.858399963378908,20.854531923348986L29.019166628519695,22.869152080095773L30.179933293660483,25.0629918831537L31.34069995880127,27.562531181064514L32.50146662394206,29.64174138856106L33.66223328908285,31.752135660215572L34.82299995422363,33.59058359898927L35.983766619364424,35.78423824184438L37.14453328450521,37.89441649326227L38.305299949646,38.89578601512858L39.46606661478678,41.22097383706068L40.626833279927574,42.76186161489704L41.78759994506836,44.04548472093438L42.94836661020915,45.63575626786405L44.10913327534993,47.06709864070808L45.269899940490724,47.6926392409041L46.43066660563151,49.74282558660889L47.5914332707723,50.84230687094352L48.75219993591308,51.36743663615289L49.912966601053874,52.23509734655909L51.07373326619466,52.40549102320256L52.23449993133545,55.024844402353665L53.39526659647624,56.12831434605732L54.556033261617024,57.202274382436826L55.716799926757815,57.98790140798609L56.8775665918986,60.12059205406331L58.03833325703939,60.75213493083402L59.199099922180174,59.421218822993524L60.359866587320965,60.185367265015884L61.52063325246175,64.47127819465776L62.68139991760254,66.92770602534574L63.842166582743324,66.33572571191054L65.00293324788412,68.36775092772221L66.1636999130249,69.24965354372854L67.3244665781657,70.24947234889623L68.48523324330647,70.41129465115091L69.64599990844727,72.5116979868617L70.80676657358805,72.42550591244981L71.96753323872885,72.95833525609305L73.12829990386963,74.41462025125838L74.28906656901042,76.47762894100832L75.4498332341512,76.48727270157178L76.610599899292,75.2106625382162L77.77136656443278,76.5015454672057L78.93213322957357,80.38157751726159L80.09289989471435,80.38599050209542L81.25366655985515,81.57434868378277L82.41443322499593,81.27153460209048L83.57519989013672,80.44041217170707L84.7359665552775,83.62127158091289L85.8967332204183,84.09885374904023L87.05749988555908,85.26486926625421L88.21826655069987,87.02122180010338L89.37903321584066,84.56541117009147L90.53979988098145,85.47702428364165L91.70056654612223,86.99786846952291L92.86133321126302,87.67412753527424L94.02209987640381,87.95704461017203L95.1828665415446,85.44349485691464L96.34363320668538,87.9648367687073L97.50439987182617,83.66887318305407L98.66516653696696,90.44667783723207L99.82593320210775,90.14994318219897L100.98669986724853,87.23682542626828L102.14746653238932,82.95815117455322L103.30823319753011,92.8660427673226L104.4689998626709,89.50489904063943L105.62976652781168,90.90312088220435L106.79053319295248,95.33372679534023L107.95129985809326,92.3225512820004L109.11206652323405,92.47347227731416L110.27283318837483,92.42945043909413L111.43359985351563,95.69380166975407L112.59436651865641,92.79714002684887L113.7551331837972,97.1623380983392L114.91589984893798,94.00013357956732L116.07666651407878,97.39153556939436L117.23743317921956,96.6319929874171L118.39819984436035,92.4876601778551L119.55896650950113,97.61703369389738L120.71973317464193,96.49467355200204L121.88049983978271,98.46176539918793L123.0412665049235,94.5038156212836L124.2020331700643,96.55928674777715L125.36279983520508,96.25058611463692L126.52356650034586,96.30228438626546L127.68433316548665,96.75936777693914L128.84509983062745,95.6886094690667L130.00586649576823,94.3413221132937L131.16663316090902,97.26024927058779L132.3273998260498,93.01115436127293L133.4881664911906,99.52661015308286L134.6489331563314,100.67833361714179L135.80969982147215,95.88227932620612L136.97046648661293,102.75414536341577L138.13123315175375,103.42183305477829L139.29199981689453,99.80972781820037L140.45276648203532,100.50837583847579L141.6135331471761,102.21078503323724L142.77429981231688,100.03951162989779L143.9350664774577,99.33087267367864L145.09583314259848,102.94920392207632L146.25659980773926,104.78061963064715L147.41736647288005,103.71460605297193L148.57813313802083,103.75758636505111L149.73889980316162,101.04168351264298L150.8996664683024,100.32753218288576L152.06043313344318,95.72297983171484L153.221199798584,100.4406496367908L154.38196646372478,103.78501707759779L155.54273312886556,100.93520868101405L156.70349979400635,105.25955578275762L157.86426645914713,103.69904488092675L159.02503312428792,102.78911363921884L160.1857997894287,104.43680413654329L161.3465664545695,103.80611762571061L162.5073331197103,105.03162743059261L163.66809978485108,100.28693966592209L164.82886644999186,102.08627636935466L165.98963311513265,105.04680285221525L167.15039978027343,103.90621214535076L168.31116644541422,103.9537751724497L169.471933110555,101.20633336549486L170.6326997756958,105.49959284068609L171.7934664408366,104.49130295623945L172.95423310597738,103.35940706389897L174.11499977111816,105.02395871219255L175.27576643625895,106.14745296033016L176.43653310139973,106.26464779620142L177.59729976654052,106.98848531906856L178.75806643168133,104.12213594436639L179.9188330968221,106.27913272456772L181.0795997619629,107.67254425836359L182.24036642710368,105.99851857969247L183.40113309224446,106.45565597542532L184.56189975738525,106.57197130033319L185.72266642252603,102.71690116011973L186.88343308766682,106.66845519601839L188.04419975280763,106.03891050643642L189.2049664179484,107.66394973894944L190.3657330830892,107.0852045225115L191.52649974822998,108.32416930213162L192.68726641337076,106.75253335811476L193.84803307851155,105.05528164650264L195.00879974365233,106.00518820449815L196.16956640879314,105.3961037173276L197.33033307393393,107.38509461600097L198.4910997390747,108.11416677210195L199.6518664042155,107.56894712488679L200.81263306935628,107.15062779417394L201.97339973449706,106.28627682239312L203.13416639963785,108.52644525119786L204.29493306477863,107.2362836754985L205.45569972991944,106.60984041931374L206.61646639506023,108.97329854066584L207.777233060201,110.29338663414569L208.9379997253418,109.28140511815536L210.09876639048258,109.2482305818171L211.25953305562336,109.52829310358811L212.42029972076415,110.0831372238456L213.58106638590496,109.28298669488777L214.74183305104575,109.0649142660186L215.90259971618653,109.67261005166802L217.0633663813273,110.11013589591903L218.2241330464681,111.02940229785236L219.38489971160888,110.88360021064568L220.54566637674967,109.78823874082377L221.70643304189045,111.03217970089463L222.86719970703126,111.2012811136226L224.02796637217205,111.14917008904195L225.18873303731283,110.43730240178616L226.3494997024536,110.8253596118509L227.5102663675944,110.65937506253704L228.67103303273518,111.06989066220194L229.83179969787597,110.9077250420712L230.99256636301678,111.4011962701029L232.15333302815756,111.8307563681285L233.31409969329835,111.78234083259576L234.47486635843913,111.63228777573272L235.6356330235799,112.10939932834458L236.7963996887207,111.93408733381375L237.95716635386148,111.96556456829285L239.11793301900227,112.00023967377479L240.27869968414308,112.20423992722976L241.43946634928386,111.95229861126177L242.60023301442465,112.21308904192279L243.76099967956543,112.34484209874063L244.9217663447062,112.30479348987274L246.082533009847,112.33262924036308L247.24329967498778,112.37743800944509L248.4040663401286,112.37922403390144L249.56483300526938,112.31287110372068L250.72559967041016,112.36765923623375L251.88636633555095,112.32788451016586L253.04713300069173,112.36590792931543L254.2078996658325,112.35967420248721" fill="none"></path></g></g></g></g></g></g><g transform="translate(51, 177)" clip-path="url(#clip_1)"><clipPath id="clip_1"><rect width="278" height="22"></rect></clipPath><g><g><line x1="0" y1="0" x2="0" y2="5" style="visibility: inherit;" fill="rgb(0, 0, 0)" stroke="rgb(204, 204, 204)" stroke-width="1px"></line><line x1="23.215333302815754" y1="0" x2="23.215333302815754" y2="5" style="visibility: inherit;" fill="rgb(0, 0, 0)" stroke="rgb(204, 204, 204)" stroke-width="1px"></line><line x1="46.43066660563151" y1="0" x2="46.43066660563151" y2="5" style="visibility: inherit;" fill="rgb(0, 0, 0)" stroke="rgb(204, 204, 204)" stroke-width="1px"></line><line x1="69.64599990844727" y1="0" x2="69.64599990844727" y2="5" style="visibility: inherit;" fill="rgb(0, 0, 0)" stroke="rgb(204, 204, 204)" stroke-width="1px"></line><line x1="92.86133321126302" y1="0" x2="92.86133321126302" y2="5" style="visibility: inherit;" fill="rgb(0, 0, 0)" stroke="rgb(204, 204, 204)" stroke-width="1px"></line><line x1="116.07666651407878" y1="0" x2="116.07666651407878" y2="5" style="visibility: inherit;" fill="rgb(0, 0, 0)" stroke="rgb(204, 204, 204)" stroke-width="1px"></line><line x1="139.29199981689453" y1="0" x2="139.29199981689453" y2="5" style="visibility: inherit;" fill="rgb(0, 0, 0)" stroke="rgb(204, 204, 204)" stroke-width="1px"></line><line x1="162.5073331197103" y1="0" x2="162.5073331197103" y2="5" style="visibility: inherit;" fill="rgb(0, 0, 0)" stroke="rgb(204, 204, 204)" stroke-width="1px"></line><line x1="185.72266642252603" y1="0" x2="185.72266642252603" y2="5" style="visibility: inherit;" fill="rgb(0, 0, 0)" stroke="rgb(204, 204, 204)" stroke-width="1px"></line><line x1="208.9379997253418" y1="0" x2="208.9379997253418" y2="5" style="visibility: inherit;" fill="rgb(0, 0, 0)" stroke="rgb(204, 204, 204)" stroke-width="1px"></line><line x1="232.15333302815756" y1="0" x2="232.15333302815756" y2="5" style="visibility: inherit;" fill="rgb(0, 0, 0)" stroke="rgb(204, 204, 204)" stroke-width="1px"></line><line x1="255.3686663309733" y1="0" x2="255.3686663309733" y2="5" style="visibility: inherit;" fill="rgb(0, 0, 0)" stroke="rgb(204, 204, 204)" stroke-width="1px"></line><line x1="278.58399963378906" y1="0" x2="278.58399963378906" y2="5" style="visibility: inherit;" fill="rgb(0, 0, 0)" stroke="rgb(204, 204, 204)" stroke-width="1px"></line></g><g transform="translate(0, 8)"><text style="text-anchor: middle; visibility: hidden; font-family: &quot;Helvetica Neue&quot;, sans-serif; font-size: 12px; font-weight: 200;" x="0" y="0" dx="0em" dy="0.95em" fill="rgb(50, 49, 63)" stroke="none" stroke-width="1px">-20</text><text style="text-anchor: middle; visibility: inherit; font-family: &quot;Helvetica Neue&quot;, sans-serif; font-size: 12px; font-weight: 200;" x="23.215333302815754" y="0" dx="0em" dy="0.95em" fill="rgb(50, 49, 63)" stroke="none" stroke-width="1px">0</text><text style="text-anchor: middle; visibility: hidden; font-family: &quot;Helvetica Neue&quot;, sans-serif; font-size: 12px; font-weight: 200;" x="46.43066660563151" y="0" dx="0em" dy="0.95em" fill="rgb(50, 49, 63)" stroke="none" stroke-width="1px">20</text><text style="text-anchor: middle; visibility: inherit; font-family: &quot;Helvetica Neue&quot;, sans-serif; font-size: 12px; font-weight: 200;" x="69.64599990844727" y="0" dx="0em" dy="0.95em" fill="rgb(50, 49, 63)" stroke="none" stroke-width="1px">40</text><text style="text-anchor: middle; visibility: hidden; font-family: &quot;Helvetica Neue&quot;, sans-serif; font-size: 12px; font-weight: 200;" x="92.86133321126302" y="0" dx="0em" dy="0.95em" fill="rgb(50, 49, 63)" stroke="none" stroke-width="1px">60</text><text style="text-anchor: middle; visibility: inherit; font-family: &quot;Helvetica Neue&quot;, sans-serif; font-size: 12px; font-weight: 200;" x="116.07666651407878" y="0" dx="0em" dy="0.95em" fill="rgb(50, 49, 63)" stroke="none" stroke-width="1px">80</text><text style="text-anchor: middle; visibility: hidden; font-family: &quot;Helvetica Neue&quot;, sans-serif; font-size: 12px; font-weight: 200;" x="139.29199981689453" y="0" dx="0em" dy="0.95em" fill="rgb(50, 49, 63)" stroke="none" stroke-width="1px">100</text><text style="text-anchor: middle; visibility: inherit; font-family: &quot;Helvetica Neue&quot;, sans-serif; font-size: 12px; font-weight: 200;" x="162.5073331197103" y="0" dx="0em" dy="0.95em" fill="rgb(50, 49, 63)" stroke="none" stroke-width="1px">120</text><text style="text-anchor: middle; visibility: hidden; font-family: &quot;Helvetica Neue&quot;, sans-serif; font-size: 12px; font-weight: 200;" x="185.72266642252603" y="0" dx="0em" dy="0.95em" fill="rgb(50, 49, 63)" stroke="none" stroke-width="1px">140</text><text style="text-anchor: middle; visibility: inherit; font-family: &quot;Helvetica Neue&quot;, sans-serif; font-size: 12px; font-weight: 200;" x="208.9379997253418" y="0" dx="0em" dy="0.95em" fill="rgb(50, 49, 63)" stroke="none" stroke-width="1px">160</text><text style="text-anchor: middle; visibility: hidden; font-family: &quot;Helvetica Neue&quot;, sans-serif; font-size: 12px; font-weight: 200;" x="232.15333302815756" y="0" dx="0em" dy="0.95em" fill="rgb(50, 49, 63)" stroke="none" stroke-width="1px">180</text><text style="text-anchor: middle; visibility: inherit; font-family: &quot;Helvetica Neue&quot;, sans-serif; font-size: 12px; font-weight: 200;" x="255.3686663309733" y="0" dx="0em" dy="0.95em" fill="rgb(50, 49, 63)" stroke="none" stroke-width="1px">200</text><text style="text-anchor: middle; visibility: hidden; font-family: &quot;Helvetica Neue&quot;, sans-serif; font-size: 12px; font-weight: 200;" x="278.58399963378906" y="0" dx="0em" dy="0.95em" fill="rgb(50, 49, 63)" stroke="none" stroke-width="1px">220</text></g><line x1="0" y1="0" x2="278.58399963378906" y2="0" fill="rgb(0, 0, 0)" stroke="rgb(204, 204, 204)" stroke-width="1px"></line></g></g></g></g></svg>