<svg viewBox="0 0 330 200" xmlns="http://www.w3.org/2000/svg"><g><g><g><g><g><line x1="61.77000045776367" y1="177.9749994277954" x2="56.77000045776367" y2="177.9749994277954" style="visibility: inherit;" fill="rgb(0, 0, 0)" stroke="rgb(204, 204, 204)" stroke-width="1px"></line><line x1="61.77000045776367" y1="164.28461485642654" x2="56.77000045776367" y2="164.28461485642654" style="visibility: inherit;" fill="rgb(0, 0, 0)" stroke="rgb(204, 204, 204)" stroke-width="1px"></line><line x1="61.77000045776367" y1="150.59423028505765" x2="56.77000045776367" y2="150.59423028505765" style="visibility: inherit;" fill="rgb(0, 0, 0)" stroke="rgb(204, 204, 204)" stroke-width="1px"></line><line x1="61.77000045776367" y1="136.90384571368878" x2="56.77000045776367" y2="136.90384571368878" style="visibility: inherit;" fill="rgb(0, 0, 0)" stroke="rgb(204, 204, 204)" stroke-width="1px"></line><line x1="61.77000045776367" y1="123.21346114231991" x2="56.77000045776367" y2="123.21346114231991" style="visibility: inherit;" fill="rgb(0, 0, 0)" stroke="rgb(204, 204, 204)" stroke-width="1px"></line><line x1="61.77000045776367" y1="109.52307657095103" x2="56.77000045776367" y2="109.52307657095103" style="visibility: inherit;" fill="rgb(0, 0, 0)" stroke="rgb(204, 204, 204)" stroke-width="1px"></line><line x1="61.77000045776367" y1="95.83269199958215" x2="56.77000045776367" y2="95.83269199958215" style="visibility: inherit;" fill="rgb(0, 0, 0)" stroke="rgb(204, 204, 204)" stroke-width="1px"></line><line x1="61.77000045776367" y1="82.14230742821327" x2="56.77000045776367" y2="82.14230742821327" style="visibility: inherit;" fill="rgb(0, 0, 0)" stroke="rgb(204, 204, 204)" stroke-width="1px"></line><line x1="61.77000045776367" y1="68.4519228568444" x2="56.77000045776367" y2="68.4519228568444" style="visibility: inherit;" fill="rgb(0, 0, 0)" stroke="rgb(204, 204, 204)" stroke-width="1px"></line><line x1="61.77000045776367" y1="54.76153828547551" x2="56.77000045776367" y2="54.76153828547551" style="visibility: inherit;" fill="rgb(0, 0, 0)" stroke="rgb(204, 204, 204)" stroke-width="1px"></line><line x1="61.77000045776367" y1="41.07115371410666" x2="56.77000045776367" y2="41.07115371410666" style="visibility: inherit;" fill="rgb(0, 0, 0)" stroke="rgb(204, 204, 204)" stroke-width="1px"></line><line x1="61.77000045776367" y1="27.38076914273779" x2="56.77000045776367" y2="27.38076914273779" style="visibility: inherit;" fill="rgb(0, 0, 0)" stroke="rgb(204, 204, 204)" stroke-width="1px"></line><line x1="61.77000045776367" y1="13.690384571368895" x2="56.77000045776367" y2="13.690384571368895" style="visibility: inherit;" fill="rgb(0, 0, 0)" stroke="rgb(204, 204, 204)" stroke-width="1px"></line><line x1="61.77000045776367" y1="0" x2="56.77000045776367" y2="0" style="visibility: inherit;" fill="rgb(0, 0, 0)" stroke="rgb(204, 204, 204)" stroke-width="1px"></line></g><g transform="translate(51.77000045776367, 0)"><text style="text-anchor: end; visibility: hidden; font-family: &quot;Helvetica Neue&quot;, sans-serif; font-size: 12px; font-weight: 200;" x="0" y="177.9749994277954" dx="0em" dy="0.3em" fill="rgb(50, 49, 63)" stroke="none" stroke-width="1px">-1e-3</text><text style="text-anchor: end; visibility: inherit; font-family: &quot;Helvetica Neue&quot;, sans-serif; font-size: 12px; font-weight: 200;" x="0" y="164.28461485642654" dx="0em" dy="0.3em" fill="rgb(50, 49, 63)" stroke="none" stroke-width="1px">0</text><text style="text-anchor: end; visibility: hidden; font-family: &quot;Helvetica Neue&quot;, sans-serif; font-size: 12px; font-weight: 200;" x="0" y="150.59423028505765" dx="0em" dy="0.3em" fill="rgb(50, 49, 63)" stroke="none" stroke-width="1px">1e-3</text><text style="text-anchor: end; visibility: inherit; font-family: &quot;Helvetica Neue&quot;, sans-serif; font-size: 12px; font-weight: 200;" x="0" y="136.90384571368878" dx="0em" dy="0.3em" fill="rgb(50, 49, 63)" stroke="none" stroke-width="1px">2e-3</text><text style="text-anchor: end; visibility: hidden; font-family: &quot;Helvetica Neue&quot;, sans-serif; font-size: 12px; font-weight: 200;" x="0" y="123.21346114231991" dx="0em" dy="0.3em" fill="rgb(50, 49, 63)" stroke="none" stroke-width="1px">3e-3</text><text style="text-anchor: end; visibility: inherit; font-family: &quot;Helvetica Neue&quot;, sans-serif; font-size: 12px; font-weight: 200;" x="0" y="109.52307657095103" dx="0em" dy="0.3em" fill="rgb(50, 49, 63)" stroke="none" stroke-width="1px">4e-3</text><text style="text-anchor: end; visibility: hidden; font-family: &quot;Helvetica Neue&quot;, sans-serif; font-size: 12px; font-weight: 200;" x="0" y="95.83269199958215" dx="0em" dy="0.3em" fill="rgb(50, 49, 63)" stroke="none" stroke-width="1px">5e-3</text><text style="text-anchor: end; visibility: inherit; font-family: &quot;Helvetica Neue&quot;, sans-serif; font-size: 12px; font-weight: 200;" x="0" y="82.14230742821327" dx="0em" dy="0.3em" fill="rgb(50, 49, 63)" stroke="none" stroke-width="1px">6e-3</text><text style="text-anchor: end; visibility: hidden; font-family: &quot;Helvetica Neue&quot;, sans-serif; font-size: 12px; font-weight: 200;" x="0" y="68.4519228568444" dx="0em" dy="0.3em" fill="rgb(50, 49, 63)" stroke="none" stroke-width="1px">7e-3</text><text style="text-anchor: end; visibility: inherit; font-family: &quot;Helvetica Neue&quot;, sans-serif; font-size: 12px; font-weight: 200;" x="0" y="54.76153828547551" dx="0em" dy="0.3em" fill="rgb(50, 49, 63)" stroke="none" stroke-width="1px">8e-3</text><text style="text-anchor: end; visibility: hidden; font-family: &quot;Helvetica Neue&quot;, sans-serif; font-size: 12px; font-weight: 200;" x="0" y="41.07115371410666" dx="0em" dy="0.3em" fill="rgb(50, 49, 63)" stroke="none" stroke-width="1px">9e-3</text><text style="text-anchor: end; visibility: inherit; font-family: &quot;Helvetica Neue&quot;, sans-serif; font-size: 12px; font-weight: 200;" x="0" y="27.38076914273779" dx="0em" dy="0.3em" fill="rgb(50, 49, 63)" stroke="none" stroke-width="1px">0.01</text><text style="text-anchor: end; visibility: hidden; font-family: &quot;Helvetica Neue&quot;, sans-serif; font-size: 12px; font-weight: 200;" x="0" y="13.690384571368895" dx="0em" dy="0.3em" fill="rgb(50, 49, 63)" stroke="none" stroke-width="1px">0.011</text><text style="text-anchor: end; visibility: hidden; font-family: &quot;Helvetica Neue&quot;, sans-serif; font-size: 12px; font-weight: 200;" x="0" y="0" dx="0em" dy="0.3em" fill="rgb(50, 49, 63)" stroke="none" stroke-width="1px">0.012</text></g><line x1="61.77000045776367" y1="0" x2="61.77000045776367" y2="177.9749994277954" fill="rgb(0, 0, 0)" stroke="rgb(204, 204, 204)" stroke-width="1px"></line></g></g><g transform="translate(61, 0)" clip-path="url(#clip_0)"><clipPath id="clip_0"><rect width="268" height="177"></rect></clipPath><g><g><g><line x1="0" y1="0" x2="0" y2="177.9749994277954" fill="rgb(0, 0, 0)" stroke="rgb(60, 60, 60)" stroke-width="1px" opacity="0.25"></line><line x1="22.352499961853027" y1="0" x2="22.352499961853027" y2="177.9749994277954" fill="rgb(0, 0, 0)" stroke="rgb(60, 60, 60)" stroke-width="1px" opacity="0.25"></line><line x1="44.704999923706055" y1="0" x2="44.704999923706055" y2="177.9749994277954" fill="rgb(0, 0, 0)" stroke="rgb(60, 60, 60)" stroke-width="1px" opacity="0.25"></line><line x1="67.05749988555908" y1="0" x2="67.05749988555908" y2="177.9749994277954" fill="rgb(0, 0, 0)" stroke="rgb(60, 60, 60)" stroke-width="1px" opacity="0.25"></line><line x1="89.40999984741211" y1="0" x2="89.40999984741211" y2="177.9749994277954" fill="rgb(0, 0, 0)" stroke="rgb(60, 60, 60)" stroke-width="1px" opacity="0.25"></line><line x1="111.76249980926514" y1="0" x2="111.76249980926514" y2="177.9749994277954" fill="rgb(0, 0, 0)" stroke="rgb(60, 60, 60)" stroke-width="1px" opacity="0.25"></line><line x1="134.11499977111816" y1="0" x2="134.11499977111816" y2="177.9749994277954" fill="rgb(0, 0, 0)" stroke="rgb(60, 60, 60)" stroke-width="1px" opacity="0.25"></line><line x1="156.4674997329712" y1="0" x2="156.4674997329712" y2="177.9749994277954" fill="rgb(0, 0, 0)" stroke="rgb(60, 60, 60)" stroke-width="1px" opacity="0.25"></line><line x1="178.81999969482422" y1="0" x2="178.81999969482422" y2="177.9749994277954" fill="rgb(0, 0, 0)" stroke="rgb(60, 60, 60)" stroke-width="1px" opacity="0.25"></line><line x1="201.17249965667725" y1="0" x2="201.17249965667725" y2="177.9749994277954" fill="rgb(0, 0, 0)" stroke="rgb(60, 60, 60)" stroke-width="1px" opacity="0.25"></line><line x1="223.52499961853027" y1="0" x2="223.52499961853027" y2="177.9749994277954" fill="rgb(0, 0, 0)" stroke="rgb(60, 60, 60)" stroke-width="1px" opacity="0.25"></line><line x1="245.8774995803833" y1="0" x2="245.8774995803833" y2="177.9749994277954" fill="rgb(0, 0, 0)" stroke="rgb(60, 60, 60)" stroke-width="1px" opacity="0.25"></line><line x1="268.2299995422363" y1="0" x2="268.2299995422363" y2="177.9749994277954" fill="rgb(0, 0, 0)" stroke="rgb(60, 60, 60)" stroke-width="1px" opacity="0.25"></line></g><g><line x1="0" y1="177.9749994277954" x2="268.2299995422363" y2="177.9749994277954" fill="rgb(0, 0, 0)" stroke="rgb(60, 60, 60)" stroke-width="1px" opacity="0.25"></line><line x1="0" y1="164.28461485642654" x2="268.2299995422363" y2="164.28461485642654" fill="rgb(0, 0, 0)" stroke="rgb(60, 60, 60)" stroke-width="1px" opacity="0.25"></line><line x1="0" y1="150.59423028505765" x2="268.2299995422363" y2="150.59423028505765" fill="rgb(0, 0, 0)" stroke="rgb(60, 60, 60)" stroke-width="1px" opacity="0.25"></line><line x1="0" y1="136.90384571368878" x2="268.2299995422363" y2="136.90384571368878" fill="rgb(0, 0, 0)" stroke="rgb(60, 60, 60)" stroke-width="1px" opacity="0.25"></line><line x1="0" y1="123.21346114231991" x2="268.2299995422363" y2="123.21346114231991" fill="rgb(0, 0, 0)" stroke="rgb(60, 60, 60)" stroke-width="1px" opacity="0.25"></line><line x1="0" y1="109.52307657095103" x2="268.2299995422363" y2="109.52307657095103" fill="rgb(0, 0, 0)" stroke="rgb(60, 60, 60)" stroke-width="1px" opacity="0.25"></line><line x1="0" y1="95.83269199958215" x2="268.2299995422363" y2="95.83269199958215" fill="rgb(0, 0, 0)" stroke="rgb(60, 60, 60)" stroke-width="1px" opacity="0.25"></line><line x1="0" y1="82.14230742821327" x2="268.2299995422363" y2="82.14230742821327" fill="rgb(0, 0, 0)" stroke="rgb(60, 60, 60)" stroke-width="1px" opacity="0.25"></line><line x1="0" y1="68.4519228568444" x2="268.2299995422363" y2="68.4519228568444" fill="rgb(0, 0, 0)" stroke="rgb(60, 60, 60)" stroke-width="1px" opacity="0.25"></line><line x1="0" y1="54.76153828547551" x2="268.2299995422363" y2="54.76153828547551" fill="rgb(0, 0, 0)" stroke="rgb(60, 60, 60)" stroke-width="1px" opacity="0.25"></line><line x1="0" y1="41.07115371410666" x2="268.2299995422363" y2="41.07115371410666" fill="rgb(0, 0, 0)" stroke="rgb(60, 60, 60)" stroke-width="1px" opacity="0.25"></line><line x1="0" y1="27.38076914273779" x2="268.2299995422363" y2="27.38076914273779" fill="rgb(0, 0, 0)" stroke="rgb(60, 60, 60)" stroke-width="1px" opacity="0.25"></line><line x1="0" y1="13.690384571368895" x2="268.2299995422363" y2="13.690384571368895" fill="rgb(0, 0, 0)" stroke="rgb(60, 60, 60)" stroke-width="1px" opacity="0.25"></line><line x1="0" y1="0" x2="268.2299995422363" y2="0" fill="rgb(0, 0, 0)" stroke="rgb(60, 60, 60)" stroke-width="1px" opacity="0.25"></line></g></g></g><g><g><line x1="0" y1="164.28461485642654" x2="268.2299995422363" y2="164.28461485642654" fill="rgb(0, 0, 0)" stroke="rgb(153, 153, 153)" stroke-width="1.5px"></line></g></g><g><g><line x1="22.352499961853027" y1="0" x2="22.352499961853027" y2="177.9749994277954" fill="rgb(0, 0, 0)" stroke="rgb(153, 153, 153)" stroke-width="1.5px"></line></g></g><g><g><g><g><g><path style="fill: none;" stroke="rgb(187, 187, 187)" stroke-width="2px" d="M22.553672461509702,150.59137997309912L22.82190246105194,150.5787142787305L22.85543121099472,150.57641924917334L23.14601371049881,150.5498941263123L23.403067460060118,150.51652375904288L24.084818708896638,150.38302475848943L24.11834745883942,150.3747738084773L24.218933708667755,150.34907744628964L24.9118612074852,150.13352795152642L24.967742457389832,150.1132169399455L25.20244370698929,150.02314659244985L25.336558706760407,149.96822685390094L25.403616206645967,149.939825863131L25.794784955978393,149.76167738129698L25.817137455940248,149.7508540856562L25.906547455787656,149.7068708004554L26.23065870523453,149.53813034603522L26.454183704853058,149.41328233189586L27.05770120382309,149.04176167216525L27.49357495307922,148.7423256595465L27.650042452812194,148.6284969748226L28.34296995162964,148.08437096714673L28.64472870111465,147.82709974755883L28.82354870080948,147.66886064713322L28.901782450675963,147.59828051939772L28.91295870065689,147.58813138868933L29.281774950027465,147.24381957937538L29.438242449760438,147.09226794007606L29.58353369951248,146.9486293714374L29.74000119924545,146.79081421397166L29.851763699054718,146.67610895545855L30.332342448234556,146.16414204945247L30.42175244808197,146.06555299849634L30.511162447929383,145.96592162161636L30.90233119726181,145.51781231926793L30.94703619718552,145.46533901847616L30.96938869714737,145.4390051480782L31.125856196880342,145.2528623132867L31.148208696842197,145.2260136550089L31.22644244670868,145.13153653200936L31.315852446556093,145.02260072279972L31.382909946441654,144.9402266931732L31.695844945907595,144.54822289464488L32.914056193828586,142.90459444547554L33.20463869333267,142.48530051423376L33.215814943313596,142.4689659601147L33.28287244319916,142.37064625637748L33.34992994308472,142.2717751080383L33.55110244274139,141.9718832770492L33.58463119268418,141.92142450220203L33.68521744251251,141.7692305733808L34.23285369157791,140.91929347098295L34.26638244152069,140.86609500460193L34.40049744129181,140.65196396560668L34.5681411910057,140.3813146362251L34.635198690891265,140.27213019881344L34.691079940795895,140.1807386155519L35.272244939804075,139.20873622235274L35.32812618970871,139.11321836719986L35.33930243968964,139.0940724018733L35.54047493934632,138.74699380692653L35.68576618909836,138.49346157299217L36.255754938125605,137.4758805302959L36.44575118780136,137.1286457458376L37.06044493675232,135.97816974161714L37.0939736866951,135.91424041828583L37.25044118642807,135.61431193057462L37.29514618635178,135.52813675824405L37.83160618543625,134.4775710407456L37.909839935302735,134.32184372266866L38.155717434883115,133.82830399148202L38.28983243465423,133.556483240764L38.4015949344635,133.328567680491L38.736882433891296,132.63724421459233L38.85982118368149,132.3809404137136L39.01628868341446,132.05256630965772L39.373928682804106,131.29297527705648L39.69803993225097,130.59390608640237L39.8768599319458,130.20392318890077L40.055679931640626,129.8109312526464L40.10038493156433,129.71221310627772L40.29038118124008,129.2906002389209L40.68154993057251,128.41213942542262L41.15095242977142,127.33980917762369L41.25153867959976,127.10749162315842L41.374477429389955,126.82235013838567L41.45271117925644,126.64021723023711L41.55329742908478,126.40526995440425L41.70976492881775,126.03808116296278L41.7321174287796,125.98545486020052L41.765646178722385,125.9064389050719L42.257401177883146,124.73672290306388L42.76033242702484,123.51998748300338L42.96150492668152,123.02766220495738L43.06209117650986,122.7803153944337L43.2073824262619,122.42165646284639L43.24091117620468,122.33866245648534L43.330321176052095,122.11691797568828L43.777371175289154,120.99920351839638L43.9673674249649,120.51971446816528L44.07912992477417,120.23644406998983L44.112658674716954,120.15128891079578L44.716176173686975,118.60501274665452L44.850291173458096,118.25800109006983L45.107344923019404,117.58954185613442L45.52086617231369,116.50517226578353L45.55439492225647,116.41677537733997L45.5655711722374,116.38729381015355L45.6549811720848,116.15115439396737L45.69968617200851,116.03289980849328L45.777919921875,115.8256586394811L46.370261170864104,114.2445522142688L46.44849492073059,114.03418725502601L46.79495867013931,113.09838895309117L46.83966367006302,112.97715401673383L46.92907366991043,112.73435263974977L47.01848366975785,112.49112094472375L47.063188669681544,112.36934093884656L47.286713669300084,111.7588598890991L47.34259491920471,111.60582923075184L47.35377116918564,111.57520652386891L47.40965241909027,111.4219814255175L47.57729616880417,110.96135624322987L47.633177418708804,110.80750001175024L47.8455261683464,110.22143233891713L48.02434616804123,109.72619683589102L48.13610866785049,109.41590883976204L48.270223667621615,109.04278803442351L48.5608061671257,108.23155246170391L48.661392416954044,107.94986945897217L49.05256116628647,106.85031442305137L49.063737416267394,106.81880239221503L49.08608991622925,106.75577195546029L49.57784491539001,105.3640150313374L49.66725491523743,105.10996800952323L49.76784116506576,104.82382244931922L49.79019366502762,104.76018000468257L49.846074914932245,104.60100695472882L50.125481164455415,103.80347780853118L50.13665741443634,103.77151952194765L50.2484199142456,103.45171990332062L50.270772414207464,103.38771407900408L50.32665366411209,103.22761664214536L50.48312116384506,102.77880448699506L50.55017866373062,102.58621963173823L50.65076491355896,102.2970841580278L50.81840866327286,101.81450319297663L50.88546616315842,101.62124257901685L51.47780741214753,99.90866602313044L52.36073116064072,97.34011994340597L52.561903660297396,96.75263700234594L52.97542490959168,95.54283129653166L53.13189240932465,95.08437364215915L53.52306115865708,93.93678873767252L54.45068990707398,91.20919073455427L54.71891990661621,90.41943918852259L55.512433655261994,88.08220021275004L55.601843655109406,87.81887107139354L56.004188654422755,86.63421506447655L56.21653740406037,86.00929764130629L56.30594740390777,85.74626812880864L56.339476153850555,85.64764560867148L56.98769865274429,83.74293682835759L57.68062615156173,81.71248592863932L57.85944615125656,81.18971007092719L58.06061865091324,80.6022653803598L58.07179490089416,80.56965046031961L58.45178740024567,79.46227957374023L58.56354990005493,79.1371631366391L58.59707864999771,79.03968175619843L58.60825489997864,79.00719433780031L58.63060739994049,78.94223225116829L58.64178364992142,78.90975120785227L58.921189899444585,78.09873238792417L59.29000614881515,77.03118663924376L59.73705614805222,75.74220878878931L60.08351989746094,74.74738360166056L60.38527864694595,73.88409548356799L60.441159896850586,73.72457180409859L60.68703739643097,73.02395665603441L60.89938614606857,72.42065076119414L61.06702989578247,71.94556051761427L61.24584989547729,71.44001013174511L61.569961144924164,70.52698362308304L61.60348989486694,70.43278540992554L61.8828961443901,69.64965119911702L62.58699989318848,67.69177423406207L62.788172392845155,67.13671496057913L62.810524892807,67.07516991795444L62.832877392768864,67.01364400057605L62.899934892654414,66.82921925041137L63.21286989212036,65.9716304557191L63.36933739185333,65.54475495808603L63.99520739078522,63.85061513964219L64.03991239070892,63.730444841996075L64.16285114049911,63.40058534381015L64.7440161395073,61.853397542928136L64.97871738910675,61.23444082152439L65.03459863901138,61.08758443019411L65.05695113897323,61.02889542435169L65.1687136387825,60.7359412764614L65.53752988815307,59.77494865005457L65.67164488792419,59.42773617838361L66.25280988693237,57.93737585936988L66.56574488639832,57.14473002606334L66.87867988586426,56.359205159466114L67.30337738513947,55.30486858090359L67.42631613492966,55.00223068329851L67.45984488487244,54.91990287301725L68.09689113378525,53.37246644393319L68.15277238368988,53.23827096565995L68.27571113348007,52.94397167544591L69.0915773820877,51.02287893412665L69.22569238185882,50.71252718717666L69.24804488182068,50.660965523125626L69.30392613172532,50.53222711513277L69.31510238170624,50.50651003392829L69.5945086312294,49.867242300943616L69.65038988113403,49.74021241495444L69.6839186310768,49.664144935298566L69.77332863092423,49.461761578849064L69.99685363054276,48.9589843536948L70.03038238048553,48.88396238750386L70.20920238018036,48.485570756708086L70.45507987976075,47.94264326446762L70.60037112951278,47.62447566685901L70.62272362947463,47.575706288769226L71.18153612852097,46.371937785706706L71.44976612806319,45.804874232623376L71.52799987792969,45.640817869778544L71.59505737781525,45.50068081498509L71.8632873773575,44.944620653611935L71.89681612730027,44.87561676492646L72.55621487617493,43.54186033777884L72.74621112585068,43.16588349565808L72.98091237545013,42.70666083143317L73.51737237453462,41.678997596390616L73.55090112447739,41.61579503241907L73.7297211241722,41.28077171772952L74.07618487358093,40.64161873622274L74.38911987304687,40.07571544808218L74.47852987289428,39.91603239156018L74.523234872818,39.836522367568534L74.61264487266541,39.67819082845244L75.02616612195969,38.95765354881564L75.08204737186432,38.861785064147114L75.43968737125397,38.25668777123582L75.52909737110139,38.10771485264726L75.62968362092971,37.94124870876743L75.86438487052918,37.55740501533123L75.9984998703003,37.34097097792619L76.02085237026215,37.30510476601336L76.44554986953734,36.63493063499217L76.57966486930846,36.42775321680102L77.04906736850738,35.71974934857923L77.8090523672104,34.63050282041934L77.90963861703872,34.49167903253917L77.94316736698151,34.445689190246384L78.79256236553192,33.32760179065144L78.81491486549378,33.29941117759091L78.8260911154747,33.28534774647116L79.4184323644638,32.562387935635144L79.73136736392975,32.19868950164522L80.4689998626709,31.391846360494753L80.90487361192703,30.948676153005778L81.46368611097337,30.417415061014253L81.91073611021042,30.022491474882656L82.08955610990525,29.872065037574572L82.24602360963821,29.743976887956222L82.92777485847472,29.22467544999037L83.17365235805511,29.05293073812902L83.76599360704422,28.673269098552595L83.98951860666274,28.542554415107702L84.0118711066246,28.529855251558047L84.36951110601426,28.33618025726159L84.63774110555649,28.202571286541826L84.79420860528946,28.12924509219036L85.2747873544693,27.925331716036084L85.58772235393523,27.80987897914636L85.61007485389709,27.80215237963725L85.65477985382081,27.7869286835747L85.8224236035347,27.732281479785684L86.28064985275269,27.60300756489616L86.31417860269546,27.594707207997743L86.90651985168458,27.47406515427599L87.25298360109329,27.426366789979568L87.26415985107421,27.42510452372312L87.45415610074997,27.406412782996398L87.48768485069274,27.403645997363583L87.86767735004425,27.383309485454248L87.8900298500061,27.38274847822919L87.9682635998726,27.381333210002254L88.37060859918594,27.382174720839885L88.6053098487854,27.385081758278943L88.87353984832762,27.39033482593203L88.92942109823227,27.39168634333791L88.99647859811782,27.393433115834227L89.29823734760285,27.402880987511224L89.52176234722137,27.411563849335835L89.57764359712601,27.413948130042428L89.7452873468399,27.42167472955157L89.80116859674453,27.424428765020167L90.28174734592439,27.45181611773569L90.56115359544754,27.470788362074956L90.58350609540939,27.472394882764945L90.76232609510421,27.485820805674393L90.87408859491347,27.494682169797898L91.4329010939598,27.544356809546343L91.64524984359741,27.56557308278593L91.79054109334946,27.580835029341102L91.85759859323501,27.58808987277459L92.00288984298707,27.604231580659985L92.63993609189987,27.682173334454234L92.89698984146118,27.71691753191689L92.95287109136582,27.72470788224706L93.22110109090806,27.763404630613735L93.34403984069823,27.781815867727886L93.46697859048842,27.800673360589286L93.61226984024047,27.82350890468311L93.88049983978271,27.867241967911326L94.94224358797074,28.060508956953214L94.95341983795166,28.06271473536094L94.99812483787537,28.071576099484417L95.22164983749389,28.116698930611193L95.23282608747482,28.118993960168353L95.33341233730316,28.139802228153314L95.82516733646393,28.24565409139555L95.9369298362732,28.270669913568668L96.14927858591079,28.31915878804594L96.75279608488083,28.463987903267366L96.85338233470917,28.48911847691835L96.92043983459473,28.50603794482035L96.98749733448028,28.523084914364404L97.02102608442307,28.531653024711176L97.09925983428955,28.551772783828994L97.18866983413696,28.574978082684794L97.22219858407973,28.58373744549465L97.35631358385086,28.619093650839233L97.65807233333587,28.700516199461845L97.70277733325959,28.712794607592684L97.82571608304978,28.7468502961882L98.70863983154297,29.003944607247718L98.86510733127594,29.05178322335047L98.95451733112336,29.079438329514318L99.12216108083724,29.13187975489558L99.84861732959747,29.368216798626946L100.17272857904435,29.478416467863582L100.20625732898712,29.489980866798874L100.4968398284912,29.59153592470352L100.74271732807159,29.679295304936744L101.60328857660295,29.99966868095305L101.77093232631684,30.064465015450395L101.86034232616424,30.099349464719324L102.11739607572555,30.200840771802945L102.31856857538223,30.281536561065764L102.7656185746193,30.464858422026595L103.00031982421875,30.56328968970064L103.34678357362746,30.711370096794724L103.93912482261658,30.97211095481731L104.06206357240677,31.027433917309224L104.26323607206345,31.118827094341327L104.37499857187271,31.170082754451386L104.38617482185363,31.175233820790794L104.59852357149124,31.273614087808028L104.85557732105256,31.394345392679213L105.06792607069015,31.495415944344018L105.50379981994628,31.706711665573835L105.53732856988907,31.723172127564425L105.61556231975555,31.76171587396061L105.72732481956481,31.817051586616742L105.76085356950759,31.83371605123463L105.81673481941223,31.86156240986159L105.9284973192215,31.91751013039965L106.29731356859207,32.10449128848771L106.50966231822967,32.2137984462299L107.39258606672287,32.68118121554696L107.78375481605529,32.894861217483424L107.97375106573105,33.000101072843705L108.14139481544495,33.09376377910456L108.26433356523513,33.16290791959631L108.3313910651207,33.20080140761797L108.61079731464386,33.3599362070791L108.66667856454849,33.39200287005838L108.72255981445312,33.42415878418714L108.92373231410981,33.54059328372074L109.0466710639,33.612261956725405L109.08019981384278,33.63188445943916L109.3037248134613,33.763402403229065L109.39313481330872,33.81637933550698L109.50489731311798,33.88288419200802L109.89606606245042,34.11822672293127L109.95194731235503,34.15216766004892L110.63369856119155,34.5727700768924L110.64487481117249,34.579769917041745L111.00251481056213,34.80529482152605L111.57250355958938,35.17150503786465L111.6619135594368,35.229709537467244L112.05308230876923,35.48670184721314L112.17602105855943,35.56827739780621L112.31013605833054,35.657694299386264L112.50013230800629,35.78515769095847L113.17070730686187,36.2422765780893L113.43893730640411,36.428288723697705L113.77422480583192,36.663312500515815L113.81892980575562,36.69485640676265L113.97539730548858,36.80566808388119L114.16539355516433,36.94103657726143L114.23245105504989,36.98902819533464L114.7018535542488,37.32805506158502L114.88067355394364,37.45864224338783L115.00361230373383,37.54886240531289L115.19360855340958,37.68903771059897L115.41713355302811,37.855070348895794L115.47301480293274,37.896776136015205L115.49536730289459,37.91347885112572L115.56242480278016,37.96365074727822L115.78594980239868,38.13168516135545L115.81947855234147,38.15699423730533L115.8753598022461,38.19924828148561L115.97594605207443,38.275468763111974L116.98180855035781,39.05116325310598L116.99298480033875,39.05992261591584L117.0153373003006,39.077441341535575L117.32827229976654,39.32394026613949L117.38415354967117,39.368208836264415L117.44003479957581,39.41255390737456L118.08825729846954,39.932263350595036L118.37883979797364,40.16843464219173L118.47942604780197,40.25064770099513L118.84824229717255,40.55412710943784L118.85941854715347,40.56337097848754L118.9600047969818,40.64670605174112L119.38470229625702,41.00116061668135L119.47411229610444,41.076310084514375L119.52999354600907,41.12338369076471L119.88763354539871,41.4262765916539L120.41291729450226,41.876459389456414L120.45762229442596,41.91505413650944L120.71467604398728,42.13790150651036L120.91584854364395,42.31333101582737L120.94937729358674,42.342656393502295L121.18407854318619,42.54866079658643L121.30701729297637,42.65704994250575L121.57524729251861,42.89472575347881L121.65348104238511,42.96434165004621L121.84347729206085,43.13399533497767L121.8658297920227,43.15400034261762L121.89935854196548,43.18403972948812L122.13405979156494,43.394991196284394L122.1564122915268,43.415149205894835L122.21229354143142,43.46558885549567L122.33523229122162,43.57678303754042L122.46934729099274,43.69845785456289L122.65934354066849,43.87151583333747L122.86051604032517,44.0556154543149L122.92757354021072,44.11717324710381L123.03933604001999,44.21999057126487L123.2516847896576,44.4160880967606L123.5534435391426,44.69642595716854L123.64285353899002,44.77986303173577L123.87755478858948,44.99971411314817L124.67106853723526,45.7516677973897L125.35281978607178,46.40827575369519L125.46458228588104,46.516843401913405L125.54281603574753,46.593000132718714L125.84457478523255,46.887898680650466L126.079276034832,47.11856190130996L126.36985853433609,47.405708349404165L126.47044478416443,47.505503884648334L126.82808478355408,47.86199847586158L127.06278603315354,48.09734100678486L127.54336478233337,48.582676007304656L127.57689353227616,48.616718945735954L127.80041853189468,48.84416912501541L127.87865228176118,48.92401065327641L128.16923478126526,49.22161223601995L128.9515722799301,50.03103091034011L129.05215852975846,50.13596476175948L129.13039227962494,50.217706064487245L129.27568352937698,50.36982827363478L129.52156102895736,50.62817210078656L129.64449977874756,50.75777751994546L129.76743852853775,50.887676192881116L129.94625852823256,51.07711813266103L130.21448852777482,51.36240305678109L130.28154602766037,51.43394422814367L130.5385997772217,51.708927019584905L130.73977227687837,51.92497855206376L131.42152352571486,52.662703053050876L131.5221097755432,52.772265214077194L132.01386477470396,53.31052614621811L132.32679977416993,53.65529058636142L132.3603285241127,53.69234256354545L132.80737852334977,54.18814544887874L133.075608522892,54.48730255165546L133.80206477165223,55.30377206678183L134.6738122701645,56.295377837448456L134.72969352006913,56.359370911600806L134.76322227001188,56.39779990651914L134.91968976974488,56.57734771887483L135.05380476951598,56.73157370511646L135.3108585190773,57.02798952258878L135.37791601896285,57.105497770799985L135.54555976867675,57.29958077035107L135.61261726856233,57.377344021846426L135.7243797683716,57.50710244297579L135.99260976791382,57.81934758931048L136.18260601758956,58.04121957174958L136.42848351716995,58.32918840543512L136.85318101644518,58.82883546527668L136.97611976623537,58.97399608476748L137.19964476585386,59.23851736647731L137.27787851572037,59.331281186161576L137.333759765625,59.397601165281586L138.54079476356506,60.841576386912124L138.57432351350784,60.88199440744668L138.74196726322174,61.08434588848567L138.8090247631073,61.16539868234629L138.86490601301193,61.23299367788697L139.34548476219177,61.81616706344519L139.46842351198197,61.96588586663984L139.58018601179123,62.10217874692502L139.62489101171494,62.156743074646684L139.63606726169584,62.17039212542973L139.9490022611618,62.55319030540096L140.04958851099013,62.67652901885238L140.30664226055146,62.99235696132908L140.31781851053236,63.00610801342576L140.4519335103035,63.171267265474455L140.79839725971223,63.59907990017669L140.89898350954056,63.723585253653L141.0889797592163,63.95913816228568L141.14486100912092,64.02850543065105L141.24544725894927,64.153482540203L141.3348572587967,64.26468309732984L141.4242672586441,64.37599203085243L141.61426350831985,64.61287095656259L141.94955100774763,65.03204535501494L142.06131350755692,65.17209315865894L142.4748347568512,65.69166235007314L142.57542100667953,65.81836710687506L142.58659725666044,65.83245603832323L142.83247475624083,66.14276315969852L142.91070850610734,66.241653433284L143.22364350557328,66.63797953747833L143.33540600538254,66.77981236411124L143.39128725528715,66.85079252824875L143.51422600507735,67.00707129092761L143.6148122549057,67.13507018939649L143.77127975463867,67.33442538184696L144.19597725391387,67.87700224457176L144.22950600385667,67.91992567237288L144.60949850320816,68.40733257457622L144.65420350313184,68.46478481449063L144.9112572526932,68.79557507466363L144.97831475257874,68.88198931257307L145.00066725254058,68.91080468367973L145.44771725177765,69.48832337141239L145.5147747516632,69.57514561457643L145.53712725162507,69.60409486240725L145.66006600141526,69.76342091433148L145.71594725131988,69.83589922276322L145.87241475105284,70.03900933857251L145.9730010008812,70.16972402201736L146.151821000576,70.40236989321097L146.4312272500992,70.76656558360496L146.64357599973678,71.04390715542439L146.74416224956514,71.17543784937847L146.9453347492218,71.43882436647391L147.24709349870682,71.83467233951049L147.50414724826814,72.17260269163911L147.52649974822998,72.20201732046347L147.53767599821091,72.21672463487566L148.19707474708557,73.08678309016187L148.23060349702837,73.13113453635412L148.3311897468567,73.26425262575191L148.7558872461319,73.82737000301336L149.10235099554063,74.28798881021888L149.32587599515915,74.58574339493288L149.88468849420548,75.33205513151306L149.9740984940529,75.45171542259091L150.37644349336625,75.99103461836093L150.566439743042,76.246184529379L150.78996474266054,76.5467441502184L151.10289974212648,76.9681944529816L151.13642849206923,77.0134001601757L151.2146622419357,77.11890776898436L151.23701474189758,77.14905553225057L151.42701099157335,77.4055187101819L151.51642099142074,77.526307390792L151.6170072412491,77.66226239172575L151.78465099096297,77.88902406213803L151.9634709906578,78.13114330533705L152.39934473991394,78.72228554352435L152.53345973968504,78.90445351462446L152.6675747394562,79.08674898736666L152.7905134892464,79.25396739093469L152.94698098897933,79.46693975875769L152.96933348894117,79.49737440071857L153.37167848825456,80.04584183930676L153.7740234875679,80.5953866667704L154.07578223705292,81.00821785853002L154.14283973693847,81.10003816606299L154.24342598676682,81.23781644047827L154.5787134861946,81.69752998602512L154.84694348573683,82.06578022863677L155.04811598539354,82.34224203912594L155.41693223476412,82.84967944929767L155.7186909842491,83.26541130341427L155.86398223400116,83.46574825850864L155.88633473396303,83.49657815555992L155.89751098394393,83.51199310408555L156.12103598356248,83.820457826733L156.17691723346712,83.89761544542853L156.33338473320006,84.11373072872843L156.44514723300935,84.26817346776154L156.50102848291397,84.34542033760654L156.57926223278045,84.45358635565223L156.79161098241804,84.7473310137233L156.9257259821892,84.93296702948759L157.31689473152161,85.47485538334524L158.00982223033904,86.43638351664876L158.17746598005294,86.66930351637279L158.30040472984314,86.84018121706809L158.34510972976685,86.90233189249258L158.52392972946166,87.15101109517583L158.89274597883224,87.66427533038993L158.9933322286606,87.80433588419815L159.48508722782137,88.48956795914717L159.7086122274399,88.80129034874938L159.74214097738266,88.84805795105876L159.9209609770775,89.09755953933333L160.0997809767723,89.34715037875735L160.8932947254181,90.45570703060793L160.99388097524644,90.59633496672333L161.34034472465515,91.08089220722653L161.55269347429277,91.377996533566L161.58622222423554,91.42491713784587L161.83209972381593,91.76905044486095L162.55855597257616,92.78638604689625L162.64796597242355,92.91164366006073L162.882667222023,93.24050227035646L163.1285447216034,93.58508183311876L163.45265597105026,94.03938293395998L163.96676347017288,94.7601624667167L164.27969846963882,95.1989529928007L164.9390972185135,96.12362040138329L165.11791721820833,96.3743778808322L165.46438096761702,96.86019101250972L165.55379096746447,96.98555700206998L165.7884922170639,97.31461323991088L166.06789846658708,97.70631103449827L166.1237797164917,97.7846416683008L166.26907096624373,97.98828729100674L166.41436221599577,98.19192016354849L166.48141971588134,98.28589524883238L166.95082221508025,98.9435933441775L166.96199846506119,98.95925054582307L167.18552346467973,99.27233720299537L167.83374596357345,100.17985564072023L168.0237422132492,100.44571568967172L168.32550096273422,100.86781625080944L168.33667721271516,100.8834479521266L168.42608721256258,101.00847606233538L168.56020221233368,101.19598635223802L168.6943172121048,101.38345839164803L168.86196096181868,101.61773628386008L168.9066659617424,101.68019296322552L169.09666221141813,101.94560675642978L169.2978347110748,102.22653112439124L169.49900721073152,102.50734074087482L169.6666509604454,102.74126800357116L169.77841346025465,102.89717063640595L169.81194221019746,102.94393823871533L169.9460572099686,103.13095764729603L169.9572334599495,103.14653834795635L170.0019384598732,103.20886752567974L170.31487345933914,103.64498051728039L170.6054559588432,104.04965797902997L170.9742722082138,104.56286483850513L171.1419159579277,104.79597609069226L171.54426095724105,105.35500704032553L172.13660220623018,106.17683799950072L172.1813072061539,106.23880379754422L172.4048322057724,106.5484925359555L172.9524684548378,107.30627304523942L173.27657970428467,107.75407793741742L173.7459822034836,108.40169065287522L174.31597095251084,109.18650151027688L174.4836147022247,109.41699260371959L174.57302470207216,109.53985318601326L174.6400822019577,109.631966747323L175.19889470100404,110.3985639951557L175.2324234509468,110.44449646170956L175.2659522008896,110.49042892826341L175.41124345064162,110.68936974037717L175.71300220012665,111.10214355639786L175.9924084496498,111.48381972191895L176.0706421995163,111.59059915960718L176.3165196990967,111.9259221031556L176.5512209486961,112.24562290801L176.69651219844818,112.443342891901L177.0876809477806,112.97492592553876L177.34473469734192,113.32365566675027L177.37826344728472,113.36910681460533L177.52355469703676,113.5659661624124L177.56825969696047,113.62650712960583L178.11589594602583,114.3668964149121L178.1270721960068,114.38198304670942L178.33942094564438,114.66843142331332L178.37294969558718,114.71362756788426L178.4735359454155,114.84916181339918L178.4847121953964,114.86421656978598L178.55176969528196,114.95452279531945L178.7752946949005,115.25528004370408L178.79764719486235,115.28533536827982L179.71409969329835,116.51394119121655L179.7811571931839,116.60355890788287L180.61937594175336,117.72040635400872L180.93231094121933,118.13572701532965L181.28995094060897,118.60925217625318L181.35700844049452,118.69790406798086L181.61406219005585,119.0373293768627L182.02758343935014,119.58201001668156L182.03875968933104,119.5967077684706L182.1058171892166,119.68486559133527L182.20640343904495,119.81702104333547L182.39639968872072,120.06636644209851L182.53051468849182,120.24215614355433L182.59757218837737,120.32998246214964L182.82109718799592,120.62239791560219L182.8658021879196,120.68081916799629L183.13403218746186,121.03090361415475L183.25697093725205,121.19110623986816L183.81578343629837,121.91725359175581L184.0840134358406,122.26459675260986L184.34106718540193,122.5967162174014L184.74341218471525,123.11506458059281L185.0116421842575,123.45959951778042L185.03399468421935,123.48827463708079L185.04517093420029,123.50260900918994L185.71574593305587,124.36001292650121L185.88338968276977,124.57352717630297L185.95044718265535,124.65883852500856L186.28573468208313,125.0845760704862L186.38632093191148,125.2120267118942L186.43102593183517,125.26863425342994L186.49808343172072,125.35349615884724L186.67690343141555,125.57952150727661L187.1574821805954,126.18497899232673L187.29159718036652,126.35342141165859L187.52629842996598,126.64764101334634L187.5374746799469,126.66163431856296L187.58217967987062,126.71758841418311L187.6268846797943,126.77351700947486L187.671589679718,126.82942010443817L187.86158592939375,127.06671659802609L187.92864342927933,127.15035448767956L187.97334842920304,127.206079080344L188.27510717868805,127.58154272835547L188.57686592817308,127.95578873568522L188.78921467781066,128.2184134304693L189.14685467720034,128.6593396090579L189.15803092718124,128.67309066115462L189.16920717716218,128.68683852571024L189.4374371767044,129.01629320618264L190.16389342546464,129.90350700740865L190.29800842523574,130.06647960629593L191.0021121740341,130.91782400806807L191.47151467323303,131.4813366404199L191.51621967315674,131.53483314188927L192.0079746723175,132.12131519505908L192.2203234219551,132.37343056699598L192.63384467124936,132.8624057393967L192.9691321706772,133.25692132027373L193.04736592054365,133.3487225025604L193.15912842035294,133.4796985643715L193.36030092000962,133.7149582192274L193.61735466957091,134.01462851611345L193.80735091924666,134.2354454224645L193.87440841913224,134.31324054937033L193.95264216899872,134.40391015458368L194.47792591810227,135.010119899322L194.5338071680069,135.07434566397112L194.71262716770173,135.27951811884077L194.77968466758728,135.35631873293852L194.89144716739656,135.48415825435484L195.09261966705324,135.71374727367993L195.282615916729,135.92995499567033L195.30496841669083,135.95535332276964L195.66260841608047,136.36054716616957L195.886133415699,136.61269122597594L196.0090721654892,136.75100819482893L196.53435591459274,137.33905214311403L196.66847091436387,137.48842669187508L196.79140966415406,137.62507338921702L197.50668966293333,138.41482652901922L197.85315341234207,138.79408653842316L198.26667466163636,139.24391551916895L198.5349046611786,139.53403275552327L198.6354909110069,139.64248565226362L198.70254841089246,139.71468505085335L198.87019216060636,139.89482096453307L199.06018841028214,140.09834546067907L199.2166559100151,140.26545070653975L199.25018465995788,140.3011989794337L199.4625334095955,140.52712073277888L199.67488215923308,140.7521961939749L200.9377984070778,142.07308929920868L201.0272084069252,142.1654419260973L201.09426590681076,142.23460359806484L201.362495906353,142.51037211837527L201.37367215633392,142.52183132845585L201.79836965560912,142.95548513213518L202.10012840509415,143.26144125997502L202.23424340486525,143.39684003499522L202.42423965454103,143.58803990366513L202.46894465446474,143.632923669213L203.1283434033394,144.29027272881297L203.27363465309145,144.4339272351569L203.38539715290068,144.54413806078722L203.4301021528244,144.58815003385746L203.70950840234758,144.86230087708424L203.95538590192794,145.1022254982692L204.76007590055465,145.87865631024616L205.00595340013504,146.11319558082442L205.05065840005875,146.1557030345183L205.0730109000206,146.17694002677473L205.08418715000153,146.18755453847663L205.19594964981079,146.29355621614826L205.41947464942933,146.50476746754023L205.71005714893343,146.77775007697159L206.09004964828492,147.13200223305503L206.19063589811324,147.22525534029074L206.81650589704512,147.8005762184683L207.42002339601518,148.34725704029705L207.71060589551928,148.60761539339344L207.76648714542387,148.65747012921133L207.9900121450424,148.85619418853355L208.56000089406967,149.35790039989448L208.60470589399338,149.39694299646524L208.96234589338303,149.7076549355541L209.50998214244842,150.17782202197975L209.73350714206697,150.36776281193426L210.09114714145662,150.66928985148286L210.20290964126585,150.76291271348052L210.2140858912468,150.7722585838439L210.49349214076994,151.00498494044902L210.5493733906746,151.05131345897854L210.5940783905983,151.0883239981289L210.75054589033127,151.21749591170482L211.2199483895302,151.60159142088406L211.49935463905334,151.82777216193972L212.33757338762283,152.49527513355963L213.0863821363449,153.07745002188344L213.43284588575364,153.34226296359947L213.81283838510512,153.62936956743053L213.82401463508606,153.63776076924893L214.06989213466645,153.82160379317168L214.49458963394164,154.13568097872576L214.5504708838463,154.17667833484646L214.60635213375093,154.21759998686716L214.7181146335602,154.2992129910676L215.0198733830452,154.51803529360558L215.03104963302613,154.52609658492514L215.1092833828926,154.5824411543241L215.26575088262558,154.69467686540747L215.38868963241578,154.78243783941122L215.58986213207243,154.92523888163856L215.6122146320343,154.94104430394304L215.86926838159562,155.12190857075305L215.88044463157652,155.12973478092005L215.89162088155746,155.13755780354597L215.92514963150026,155.161009339948L216.13749838113785,155.30888335375903L216.52866713047027,155.57833257393463L216.67395838022233,155.67743720965584L216.71866338014604,155.7078248353862L216.86395462989807,155.80623538404342L216.875130879879,155.81378348125367L216.98689337968827,155.889091529254L217.10983212947846,155.9715659664236L217.22159462928772,156.04621180277047L217.31100462913514,156.10570167830213L217.4227671289444,156.17977853857127L217.97040337800982,156.53817609179237L218.0598133778572,156.595965414173L218.10451837778092,156.6247839728207L218.41745337724686,156.82508108365192L218.57392087697983,156.92429090822782L218.64097837686538,156.96661667208178L218.79744587659837,157.0649284069664L218.81979837656021,157.07892171218302L218.8980321264267,157.12779627912752L218.9427371263504,157.15565459103343L218.97626587629318,157.17651385967523L218.98744212627412,157.18346110539724L219.03214712619783,157.21121582221895L219.311553375721,157.3835167599938L219.42331587553025,157.45187278096054L219.46802087545393,157.47912466318138L219.64684087514877,157.5876142166438L219.80330837488174,157.68186343045812L220.2056533741951,157.92129597499326L220.216829624176,157.92788701300276L220.2950633740425,157.97393104349342L220.4180021238327,158.04596349462057L220.75328962326049,158.2404078816384L220.9656383728981,158.36203329177457L220.97681462287903,158.36840160035308L221.03269587278365,158.40019533012983L221.33445462226868,158.57046261671374L221.53562712192536,158.68264214738605L221.75915212154388,158.8060334552648L222.99971586942672,159.46677804297005L223.10030211925508,159.5185556629273L223.27912211894989,159.60993688668043L223.31265086889266,159.62697548892925L223.413237118721,159.67791080116362L223.72617211818695,159.83464139778656L224.10616461753847,160.0214193501326L224.11734086751937,160.02685370918297L224.2179271173477,160.07561392309225L224.2514558672905,160.09180663163448L224.68732961654663,160.29954943991964L224.85497336626054,160.37808248257898L224.96673586606977,160.43001469827723L225.1343796157837,160.5072779042701L225.15673211574554,160.51752186432475L225.24614211559296,160.55836263249128L225.4249621152878,160.6393927151219L225.4361383652687,160.64442823309818L225.64848711490632,160.73945640225702L225.91671711444857,160.85773569117424L226.1625946140289,160.9644332489017L226.4755296134949,161.09783901387942L226.609644613266,161.15419195057365L227.0790471124649,161.3475398234697L227.11257586240768,161.3611187483496L227.57080211162568,161.54359491482518L227.66021211147307,161.57852518499672L228.56548835992814,161.91974766936775L228.57666460990905,161.92381855773328L229.54899835824966,162.26468702582625L229.63840835809708,162.2947094788849L230.13016335725786,162.45584386269195L230.14133960723876,162.45942745571924L230.71132835626602,162.63755442165117L230.81191460609438,162.66804345103125L231.3819033551216,162.8354488238041L231.4936658549309,162.86720251009638L231.57189960479735,162.88922094796374L231.627780854702,162.90484288743642L231.89601085424422,162.9786040815308L232.30953210353852,163.0883452429093L232.49952835321426,163.13714858823343L232.96893085241317,163.2533472097292L233.50539085149765,163.37850889783016L233.5277433514595,163.38354700568357L233.95244085073472,163.47657728387762L234.23184710025785,163.53498857520594L234.26537585020066,163.54184886082365L234.4441958498955,163.57789731043505L234.5000770998001,163.58897595799726L234.55595834970475,163.59996580265798L234.75713084936143,163.63879358884506L234.81301209926605,163.64937468117125L234.8688933491707,163.65986682117997L235.00300834894182,163.68468526483454L235.23770959854127,163.7268845729583L235.7629933476448,163.8156401095755L235.90828459739683,163.838799637334L235.99769459724428,163.85275215198624L236.41121584653854,163.91431245994426L236.59003584623335,163.93941969979863L236.97002834558486,163.989736629069L237.09296709537506,164.00513123211775L237.23825834512712,164.02276719948176L237.65177959442138,164.0696538365273L237.73001334428787,164.07797336847736L237.77471834421158,164.0826486445095L238.05412459373474,164.110571703343L238.3447070932388,164.1372379496036L238.79175709247588,164.17353487800102L239.24998334169388,164.20478872423783L239.2611595916748,164.20547573894513L239.28351209163665,164.20683900418297L239.3393933415413,164.21018442190163L239.89820584058762,164.23870790265244L240.12173084020617,164.24760660520846L240.28937458992004,164.25333894020335L240.32290333986282,164.25438853770524L240.34525583982466,164.25507033219148L240.5687808394432,164.2610989232906L240.63583833932876,164.26262763093624L240.89289208889008,164.26729097392285L241.1722983384132,164.27020673818942L241.1946508383751,164.27034310829285L241.33994208812715,164.27087961285253L241.39582333803176,164.27092447188974" fill="none"></path></g></g></g></g></g></g><g transform="translate(61, 177)" clip-path="url(#clip_1)"><clipPath id="clip_1"><rect width="268" height="22"></rect></clipPath><g><g><line x1="0" y1="0" x2="0" y2="5" style="visibility: inherit;" fill="rgb(0, 0, 0)" stroke="rgb(204, 204, 204)" stroke-width="1px"></line><line x1="22.352499961853027" y1="0" x2="22.352499961853027" y2="5" style="visibility: inherit;" fill="rgb(0, 0, 0)" stroke="rgb(204, 204, 204)" stroke-width="1px"></line><line x1="44.704999923706055" y1="0" x2="44.704999923706055" y2="5" style="visibility: inherit;" fill="rgb(0, 0, 0)" stroke="rgb(204, 204, 204)" stroke-width="1px"></line><line x1="67.05749988555908" y1="0" x2="67.05749988555908" y2="5" style="visibility: inherit;" fill="rgb(0, 0, 0)" stroke="rgb(204, 204, 204)" stroke-width="1px"></line><line x1="89.40999984741211" y1="0" x2="89.40999984741211" y2="5" style="visibility: inherit;" fill="rgb(0, 0, 0)" stroke="rgb(204, 204, 204)" stroke-width="1px"></line><line x1="111.76249980926514" y1="0" x2="111.76249980926514" y2="5" style="visibility: inherit;" fill="rgb(0, 0, 0)" stroke="rgb(204, 204, 204)" stroke-width="1px"></line><line x1="134.11499977111816" y1="0" x2="134.11499977111816" y2="5" style="visibility: inherit;" fill="rgb(0, 0, 0)" stroke="rgb(204, 204, 204)" stroke-width="1px"></line><line x1="156.4674997329712" y1="0" x2="156.4674997329712" y2="5" style="visibility: inherit;" fill="rgb(0, 0, 0)" stroke="rgb(204, 204, 204)" stroke-width="1px"></line><line x1="178.81999969482422" y1="0" x2="178.81999969482422" y2="5" style="visibility: inherit;" fill="rgb(0, 0, 0)" stroke="rgb(204, 204, 204)" stroke-width="1px"></line><line x1="201.17249965667725" y1="0" x2="201.17249965667725" y2="5" style="visibility: inherit;" fill="rgb(0, 0, 0)" stroke="rgb(204, 204, 204)" stroke-width="1px"></line><line x1="223.52499961853027" y1="0" x2="223.52499961853027" y2="5" style="visibility: inherit;" fill="rgb(0, 0, 0)" stroke="rgb(204, 204, 204)" stroke-width="1px"></line><line x1="245.8774995803833" y1="0" x2="245.8774995803833" y2="5" style="visibility: inherit;" fill="rgb(0, 0, 0)" stroke="rgb(204, 204, 204)" stroke-width="1px"></line><line x1="268.2299995422363" y1="0" x2="268.2299995422363" y2="5" style="visibility: inherit;" fill="rgb(0, 0, 0)" stroke="rgb(204, 204, 204)" stroke-width="1px"></line></g><g transform="translate(0, 8)"><text style="text-anchor: middle; visibility: hidden; font-family: &quot;Helvetica Neue&quot;, sans-serif; font-size: 12px; font-weight: 200;" x="0" y="0" dx="0em" dy="0.95em" fill="rgb(50, 49, 63)" stroke="none" stroke-width="1px">-2k</text><text style="text-anchor: middle; visibility: inherit; font-family: &quot;Helvetica Neue&quot;, sans-serif; font-size: 12px; font-weight: 200;" x="22.352499961853027" y="0" dx="0em" dy="0.95em" fill="rgb(50, 49, 63)" stroke="none" stroke-width="1px">0</text><text style="text-anchor: middle; visibility: hidden; font-family: &quot;Helvetica Neue&quot;, sans-serif; font-size: 12px; font-weight: 200;" x="44.704999923706055" y="0" dx="0em" dy="0.95em" fill="rgb(50, 49, 63)" stroke="none" stroke-width="1px">2k</text><text style="text-anchor: middle; visibility: inherit; font-family: &quot;Helvetica Neue&quot;, sans-serif; font-size: 12px; font-weight: 200;" x="67.05749988555908" y="0" dx="0em" dy="0.95em" fill="rgb(50, 49, 63)" stroke="none" stroke-width="1px">4k</text><text style="text-anchor: middle; visibility: hidden; font-family: &quot;Helvetica Neue&quot;, sans-serif; font-size: 12px; font-weight: 200;" x="89.40999984741211" y="0" dx="0em" dy="0.95em" fill="rgb(50, 49, 63)" stroke="none" stroke-width="1px">6k</text><text style="text-anchor: middle; visibility: inherit; font-family: &quot;Helvetica Neue&quot;, sans-serif; font-size: 12px; font-weight: 200;" x="111.76249980926514" y="0" dx="0em" dy="0.95em" fill="rgb(50, 49, 63)" stroke="none" stroke-width="1px">8k</text><text style="text-anchor: middle; visibility: hidden; font-family: &quot;Helvetica Neue&quot;, sans-serif; font-size: 12px; font-weight: 200;" x="134.11499977111816" y="0" dx="0em" dy="0.95em" fill="rgb(50, 49, 63)" stroke="none" stroke-width="1px">10k</text><text style="text-anchor: middle; visibility: inherit; font-family: &quot;Helvetica Neue&quot;, sans-serif; font-size: 12px; font-weight: 200;" x="156.4674997329712" y="0" dx="0em" dy="0.95em" fill="rgb(50, 49, 63)" stroke="none" stroke-width="1px">12k</text><text style="text-anchor: middle; visibility: hidden; font-family: &quot;Helvetica Neue&quot;, sans-serif; font-size: 12px; font-weight: 200;" x="178.81999969482422" y="0" dx="0em" dy="0.95em" fill="rgb(50, 49, 63)" stroke="none" stroke-width="1px">14k</text><text style="text-anchor: middle; visibility: inherit; font-family: &quot;Helvetica Neue&quot;, sans-serif; font-size: 12px; font-weight: 200;" x="201.17249965667725" y="0" dx="0em" dy="0.95em" fill="rgb(50, 49, 63)" stroke="none" stroke-width="1px">16k</text><text style="text-anchor: middle; visibility: hidden; font-family: &quot;Helvetica Neue&quot;, sans-serif; font-size: 12px; font-weight: 200;" x="223.52499961853027" y="0" dx="0em" dy="0.95em" fill="rgb(50, 49, 63)" stroke="none" stroke-width="1px">18k</text><text style="text-anchor: middle; visibility: inherit; font-family: &quot;Helvetica Neue&quot;, sans-serif; font-size: 12px; font-weight: 200;" x="245.8774995803833" y="0" dx="0em" dy="0.95em" fill="rgb(50, 49, 63)" stroke="none" stroke-width="1px">20k</text><text style="text-anchor: middle; visibility: hidden; font-family: &quot;Helvetica Neue&quot;, sans-serif; font-size: 12px; font-weight: 200;" x="268.2299995422363" y="0" dx="0em" dy="0.95em" fill="rgb(50, 49, 63)" stroke="none" stroke-width="1px">22k</text></g><line x1="0" y1="0" x2="268.2299995422363" y2="0" fill="rgb(0, 0, 0)" stroke="rgb(204, 204, 204)" stroke-width="1px"></line></g></g></g></g></svg>