<svg viewBox="0 0 330 200" xmlns="http://www.w3.org/2000/svg"><g><g><g><g><g><line x1="51.41600036621094" y1="177.9749994277954" x2="46.41600036621094" y2="177.9749994277954" style="visibility: inherit;" fill="rgb(0, 0, 0)" stroke="rgb(204, 204, 204)" stroke-width="1px"></line><line x1="51.41600036621094" y1="164.28461485642654" x2="46.41600036621094" y2="164.28461485642654" style="visibility: inherit;" fill="rgb(0, 0, 0)" stroke="rgb(204, 204, 204)" stroke-width="1px"></line><line x1="51.41600036621094" y1="150.59423028505765" x2="46.41600036621094" y2="150.59423028505765" style="visibility: inherit;" fill="rgb(0, 0, 0)" stroke="rgb(204, 204, 204)" stroke-width="1px"></line><line x1="51.41600036621094" y1="136.90384571368878" x2="46.41600036621094" y2="136.90384571368878" style="visibility: inherit;" fill="rgb(0, 0, 0)" stroke="rgb(204, 204, 204)" stroke-width="1px"></line><line x1="51.41600036621094" y1="123.21346114231989" x2="46.41600036621094" y2="123.21346114231989" style="visibility: inherit;" fill="rgb(0, 0, 0)" stroke="rgb(204, 204, 204)" stroke-width="1px"></line><line x1="51.41600036621094" y1="109.52307657095103" x2="46.41600036621094" y2="109.52307657095103" style="visibility: inherit;" fill="rgb(0, 0, 0)" stroke="rgb(204, 204, 204)" stroke-width="1px"></line><line x1="51.41600036621094" y1="95.83269199958215" x2="46.41600036621094" y2="95.83269199958215" style="visibility: inherit;" fill="rgb(0, 0, 0)" stroke="rgb(204, 204, 204)" stroke-width="1px"></line><line x1="51.41600036621094" y1="82.14230742821327" x2="46.41600036621094" y2="82.14230742821327" style="visibility: inherit;" fill="rgb(0, 0, 0)" stroke="rgb(204, 204, 204)" stroke-width="1px"></line><line x1="51.41600036621094" y1="68.4519228568444" x2="46.41600036621094" y2="68.4519228568444" style="visibility: inherit;" fill="rgb(0, 0, 0)" stroke="rgb(204, 204, 204)" stroke-width="1px"></line><line x1="51.41600036621094" y1="54.76153828547551" x2="46.41600036621094" y2="54.76153828547551" style="visibility: inherit;" fill="rgb(0, 0, 0)" stroke="rgb(204, 204, 204)" stroke-width="1px"></line><line x1="51.41600036621094" y1="41.07115371410666" x2="46.41600036621094" y2="41.07115371410666" style="visibility: inherit;" fill="rgb(0, 0, 0)" stroke="rgb(204, 204, 204)" stroke-width="1px"></line><line x1="51.41600036621094" y1="27.380769142737762" x2="46.41600036621094" y2="27.380769142737762" style="visibility: inherit;" fill="rgb(0, 0, 0)" stroke="rgb(204, 204, 204)" stroke-width="1px"></line><line x1="51.41600036621094" y1="13.690384571368867" x2="46.41600036621094" y2="13.690384571368867" style="visibility: inherit;" fill="rgb(0, 0, 0)" stroke="rgb(204, 204, 204)" stroke-width="1px"></line><line x1="51.41600036621094" y1="0" x2="46.41600036621094" y2="0" style="visibility: inherit;" fill="rgb(0, 0, 0)" stroke="rgb(204, 204, 204)" stroke-width="1px"></line></g><g transform="translate(41.41600036621094, 0)"><text style="text-anchor: end; visibility: hidden; font-family: &quot;Helvetica Neue&quot;, sans-serif; font-size: 12px; font-weight: 200;" x="0" y="177.9749994277954" dx="0em" dy="0.3em" fill="rgb(50, 49, 63)" stroke="none" stroke-width="1px">-0.1</text><text style="text-anchor: end; visibility: inherit; font-family: &quot;Helvetica Neue&quot;, sans-serif; font-size: 12px; font-weight: 200;" x="0" y="164.28461485642654" dx="0em" dy="0.3em" fill="rgb(50, 49, 63)" stroke="none" stroke-width="1px">0</text><text style="text-anchor: end; visibility: hidden; font-family: &quot;Helvetica Neue&quot;, sans-serif; font-size: 12px; font-weight: 200;" x="0" y="150.59423028505765" dx="0em" dy="0.3em" fill="rgb(50, 49, 63)" stroke="none" stroke-width="1px">0.1</text><text style="text-anchor: end; visibility: inherit; font-family: &quot;Helvetica Neue&quot;, sans-serif; font-size: 12px; font-weight: 200;" x="0" y="136.90384571368878" dx="0em" dy="0.3em" fill="rgb(50, 49, 63)" stroke="none" stroke-width="1px">0.2</text><text style="text-anchor: end; visibility: hidden; font-family: &quot;Helvetica Neue&quot;, sans-serif; font-size: 12px; font-weight: 200;" x="0" y="123.21346114231989" dx="0em" dy="0.3em" fill="rgb(50, 49, 63)" stroke="none" stroke-width="1px">0.3</text><text style="text-anchor: end; visibility: inherit; font-family: &quot;Helvetica Neue&quot;, sans-serif; font-size: 12px; font-weight: 200;" x="0" y="109.52307657095103" dx="0em" dy="0.3em" fill="rgb(50, 49, 63)" stroke="none" stroke-width="1px">0.4</text><text style="text-anchor: end; visibility: hidden; font-family: &quot;Helvetica Neue&quot;, sans-serif; font-size: 12px; font-weight: 200;" x="0" y="95.83269199958215" dx="0em" dy="0.3em" fill="rgb(50, 49, 63)" stroke="none" stroke-width="1px">0.5</text><text style="text-anchor: end; visibility: inherit; font-family: &quot;Helvetica Neue&quot;, sans-serif; font-size: 12px; font-weight: 200;" x="0" y="82.14230742821327" dx="0em" dy="0.3em" fill="rgb(50, 49, 63)" stroke="none" stroke-width="1px">0.6</text><text style="text-anchor: end; visibility: hidden; font-family: &quot;Helvetica Neue&quot;, sans-serif; font-size: 12px; font-weight: 200;" x="0" y="68.4519228568444" dx="0em" dy="0.3em" fill="rgb(50, 49, 63)" stroke="none" stroke-width="1px">0.7</text><text style="text-anchor: end; visibility: inherit; font-family: &quot;Helvetica Neue&quot;, sans-serif; font-size: 12px; font-weight: 200;" x="0" y="54.76153828547551" dx="0em" dy="0.3em" fill="rgb(50, 49, 63)" stroke="none" stroke-width="1px">0.8</text><text style="text-anchor: end; visibility: hidden; font-family: &quot;Helvetica Neue&quot;, sans-serif; font-size: 12px; font-weight: 200;" x="0" y="41.07115371410666" dx="0em" dy="0.3em" fill="rgb(50, 49, 63)" stroke="none" stroke-width="1px">0.9</text><text style="text-anchor: end; visibility: inherit; font-family: &quot;Helvetica Neue&quot;, sans-serif; font-size: 12px; font-weight: 200;" x="0" y="27.380769142737762" dx="0em" dy="0.3em" fill="rgb(50, 49, 63)" stroke="none" stroke-width="1px">1</text><text style="text-anchor: end; visibility: hidden; font-family: &quot;Helvetica Neue&quot;, sans-serif; font-size: 12px; font-weight: 200;" x="0" y="13.690384571368867" dx="0em" dy="0.3em" fill="rgb(50, 49, 63)" stroke="none" stroke-width="1px">1.1</text><text style="text-anchor: end; visibility: hidden; font-family: &quot;Helvetica Neue&quot;, sans-serif; font-size: 12px; font-weight: 200;" x="0" y="0" dx="0em" dy="0.3em" fill="rgb(50, 49, 63)" stroke="none" stroke-width="1px">1.2</text></g><line x1="51.41600036621094" y1="0" x2="51.41600036621094" y2="177.9749994277954" fill="rgb(0, 0, 0)" stroke="rgb(204, 204, 204)" stroke-width="1px"></line></g></g><g transform="translate(51, 0)" clip-path="url(#clip_0)"><clipPath id="clip_0"><rect width="278" height="177"></rect></clipPath><g><g><g><line x1="0" y1="0" x2="0" y2="177.9749994277954" fill="rgb(0, 0, 0)" stroke="rgb(60, 60, 60)" stroke-width="1px" opacity="0.25"></line><line x1="23.215333302815754" y1="0" x2="23.215333302815754" y2="177.9749994277954" fill="rgb(0, 0, 0)" stroke="rgb(60, 60, 60)" stroke-width="1px" opacity="0.25"></line><line x1="46.43066660563151" y1="0" x2="46.43066660563151" y2="177.9749994277954" fill="rgb(0, 0, 0)" stroke="rgb(60, 60, 60)" stroke-width="1px" opacity="0.25"></line><line x1="69.64599990844727" y1="0" x2="69.64599990844727" y2="177.9749994277954" fill="rgb(0, 0, 0)" stroke="rgb(60, 60, 60)" stroke-width="1px" opacity="0.25"></line><line x1="92.86133321126302" y1="0" x2="92.86133321126302" y2="177.9749994277954" fill="rgb(0, 0, 0)" stroke="rgb(60, 60, 60)" stroke-width="1px" opacity="0.25"></line><line x1="116.07666651407878" y1="0" x2="116.07666651407878" y2="177.9749994277954" fill="rgb(0, 0, 0)" stroke="rgb(60, 60, 60)" stroke-width="1px" opacity="0.25"></line><line x1="139.29199981689453" y1="0" x2="139.29199981689453" y2="177.9749994277954" fill="rgb(0, 0, 0)" stroke="rgb(60, 60, 60)" stroke-width="1px" opacity="0.25"></line><line x1="162.5073331197103" y1="0" x2="162.5073331197103" y2="177.9749994277954" fill="rgb(0, 0, 0)" stroke="rgb(60, 60, 60)" stroke-width="1px" opacity="0.25"></line><line x1="185.72266642252603" y1="0" x2="185.72266642252603" y2="177.9749994277954" fill="rgb(0, 0, 0)" stroke="rgb(60, 60, 60)" stroke-width="1px" opacity="0.25"></line><line x1="208.9379997253418" y1="0" x2="208.9379997253418" y2="177.9749994277954" fill="rgb(0, 0, 0)" stroke="rgb(60, 60, 60)" stroke-width="1px" opacity="0.25"></line><line x1="232.15333302815756" y1="0" x2="232.15333302815756" y2="177.9749994277954" fill="rgb(0, 0, 0)" stroke="rgb(60, 60, 60)" stroke-width="1px" opacity="0.25"></line><line x1="255.3686663309733" y1="0" x2="255.3686663309733" y2="177.9749994277954" fill="rgb(0, 0, 0)" stroke="rgb(60, 60, 60)" stroke-width="1px" opacity="0.25"></line><line x1="278.58399963378906" y1="0" x2="278.58399963378906" y2="177.9749994277954" fill="rgb(0, 0, 0)" stroke="rgb(60, 60, 60)" stroke-width="1px" opacity="0.25"></line></g><g><line x1="0" y1="177.9749994277954" x2="278.58399963378906" y2="177.9749994277954" fill="rgb(0, 0, 0)" stroke="rgb(60, 60, 60)" stroke-width="1px" opacity="0.25"></line><line x1="0" y1="164.28461485642654" x2="278.58399963378906" y2="164.28461485642654" fill="rgb(0, 0, 0)" stroke="rgb(60, 60, 60)" stroke-width="1px" opacity="0.25"></line><line x1="0" y1="150.59423028505765" x2="278.58399963378906" y2="150.59423028505765" fill="rgb(0, 0, 0)" stroke="rgb(60, 60, 60)" stroke-width="1px" opacity="0.25"></line><line x1="0" y1="136.90384571368878" x2="278.58399963378906" y2="136.90384571368878" fill="rgb(0, 0, 0)" stroke="rgb(60, 60, 60)" stroke-width="1px" opacity="0.25"></line><line x1="0" y1="123.21346114231989" x2="278.58399963378906" y2="123.21346114231989" fill="rgb(0, 0, 0)" stroke="rgb(60, 60, 60)" stroke-width="1px" opacity="0.25"></line><line x1="0" y1="109.52307657095103" x2="278.58399963378906" y2="109.52307657095103" fill="rgb(0, 0, 0)" stroke="rgb(60, 60, 60)" stroke-width="1px" opacity="0.25"></line><line x1="0" y1="95.83269199958215" x2="278.58399963378906" y2="95.83269199958215" fill="rgb(0, 0, 0)" stroke="rgb(60, 60, 60)" stroke-width="1px" opacity="0.25"></line><line x1="0" y1="82.14230742821327" x2="278.58399963378906" y2="82.14230742821327" fill="rgb(0, 0, 0)" stroke="rgb(60, 60, 60)" stroke-width="1px" opacity="0.25"></line><line x1="0" y1="68.4519228568444" x2="278.58399963378906" y2="68.4519228568444" fill="rgb(0, 0, 0)" stroke="rgb(60, 60, 60)" stroke-width="1px" opacity="0.25"></line><line x1="0" y1="54.76153828547551" x2="278.58399963378906" y2="54.76153828547551" fill="rgb(0, 0, 0)" stroke="rgb(60, 60, 60)" stroke-width="1px" opacity="0.25"></line><line x1="0" y1="41.07115371410666" x2="278.58399963378906" y2="41.07115371410666" fill="rgb(0, 0, 0)" stroke="rgb(60, 60, 60)" stroke-width="1px" opacity="0.25"></line><line x1="0" y1="27.380769142737762" x2="278.58399963378906" y2="27.380769142737762" fill="rgb(0, 0, 0)" stroke="rgb(60, 60, 60)" stroke-width="1px" opacity="0.25"></line><line x1="0" y1="13.690384571368867" x2="278.58399963378906" y2="13.690384571368867" fill="rgb(0, 0, 0)" stroke="rgb(60, 60, 60)" stroke-width="1px" opacity="0.25"></line><line x1="0" y1="0" x2="278.58399963378906" y2="0" fill="rgb(0, 0, 0)" stroke="rgb(60, 60, 60)" stroke-width="1px" opacity="0.25"></line></g></g></g><g><g><line x1="0" y1="164.28461485642654" x2="278.58399963378906" y2="164.28461485642654" fill="rgb(0, 0, 0)" stroke="rgb(153, 153, 153)" stroke-width="1.5px"></line></g></g><g><g><line x1="23.215333302815754" y1="0" x2="23.215333302815754" y2="177.9749994277954" fill="rgb(0, 0, 0)" stroke="rgb(153, 153, 153)" stroke-width="1.5px"></line></g></g><g><g><g><g><g><path style="fill: none;" stroke="rgb(51, 187, 238)" stroke-width="2px" d="M23.215333302815754,162.9237905956784L24.37609996795654,151.19113054840125L25.53686663309733,145.55616793699127L26.69763329823812,140.15394376296703L27.858399963378908,136.14266050255648L29.019166628519695,131.53447779481283L30.179933293660483,127.61081366282922L31.34069995880127,123.27917691665851L32.50146662394206,119.18574995833782L33.66223328908285,115.74125127741777L34.82299995422363,112.98674252272204L35.983766619364424,113.2249563906246L37.14453328450521,106.99035457659686L38.305299949646,107.84737369395238L39.46606661478678,103.01740748990922L40.626833279927574,98.50231526105681L41.78759994506836,101.80443642832904L42.94836661020915,97.1004214463832L44.10913327534993,92.5278331170515L45.269899940490724,92.65378433914883L46.43066660563151,91.5749858055463L47.5914332707723,87.26250898613196L48.75219993591308,85.59502415097164L49.912966601053874,83.6153908157213L51.07373326619466,83.59622272885986L52.23449993133545,82.65980170890516L53.39526659647624,82.16694768154953L54.556033261617024,77.77507303958858L55.716799926757815,82.82956453524223L56.8775665918986,78.7087604243374L58.03833325703939,84.05895780832034L59.199099922180174,77.00019762014315L60.359866587320965,75.72699274282529L61.52063325246175,77.2849608075439L62.68139991760254,73.09295977971006L63.842166582743324,73.29284155394225L65.00293324788412,70.05643779302964L66.1636999130249,69.89215039720939L67.3244665781657,66.40384419210214L68.48523324330647,65.86717856050676L69.64599990844727,67.01169042041634L70.80676657358805,69.9085766887599L71.96753323872885,67.51550346891072L73.12829990386963,64.11481231217786L74.28906656901042,66.26145851834922L75.4498332341512,61.81208777590898L76.610599899292,65.05123333213257L77.77136656443278,61.66149303643337L78.93213322957357,60.76066639489065L80.09289989471435,60.78256811695796L81.25366655985515,63.8492172116386L82.41443322499593,60.971499030156494L83.57519989013672,62.72113164327952L84.7359665552775,59.531264961707436L85.8967332204183,58.556515928134914L87.05749988555908,56.637120488674825L88.21826655069987,58.6140120286142L89.37903321584066,56.17712720452528L90.53979988098145,56.869854846008025L91.70056654612223,53.57595498461613L92.86133321126302,56.21272158293725L94.02209987640381,55.86224506922943L95.1828665415446,55.35022295501233L96.34363320668538,52.85857566565001L97.50439987182617,53.439044741380044L98.66516653696696,56.22640607917678L99.82593320210775,51.5470346146092L100.98669986724853,56.023790669738716L102.14746653238932,53.611549363028075L103.30823319753011,55.0818942192672L104.4689998626709,51.88656026728336L105.62976652781168,48.96503048156151L106.79053319295248,51.37453815306628L107.95129985809326,50.53120761200283L109.11206652323405,51.04597152153087L110.27283318837483,47.220873298955325L111.43359985351563,49.21145749523933L112.59436651865641,49.39764661312691L113.7551331837972,49.096457134175665L114.91589984893798,49.25526909947908L116.07666651407878,50.27109610208548L117.23743317921956,48.45848379786125L118.39819984436035,48.891099929426645L119.55896650950113,47.40432878163705L120.71973317464193,49.20598206472252L121.88049983978271,49.16764589099958L123.0412665049235,49.101932564692504L124.2020331700643,46.76088001480579L125.36279983520508,50.98846726094651L126.52356650034586,47.779440652618064L127.68433316548665,45.48493334217696L128.84509983062745,45.369932981113294L130.00586649576823,44.44172918698641L131.16663316090902,43.47244742382563L132.3273998260498,43.69149728491928L133.4881664911906,44.02553934697153L134.6489331563314,43.56553790271687L135.80969982147215,43.77911233329371L136.97046648661293,46.196837230626244L138.13123315175375,43.46149656279198L139.29199981689453,43.49434914589298L140.45276648203532,50.041095379958165L141.6135331471761,45.41922001586988L142.77429981231688,43.58197235437248L143.9350664774577,41.7967453628375L145.09583314259848,42.459362216530195L146.25659980773926,41.229960783346996L147.41736647288005,42.26495587281485L148.57813313802083,39.751398701280095L149.73889980316162,42.18281625495726L150.8996664683024,43.93518250328614L152.06043313344318,41.43531798809602L153.221199798584,39.71854611817909L154.38196646372478,42.062340463376785L155.54273312886556,39.92390332292811L156.70349979400635,40.0608054060591L157.86426645914713,39.68568537497299L159.02503312428792,39.56247594818663L160.1857997894287,39.77330858345249L161.3465664545695,39.49949625708544L162.5073331197103,39.75414049659105L163.66809978485108,38.316648223452944L164.82886644999186,38.757481580846104L165.98963311513265,41.689962227601626L167.15039978027343,37.037967915618225L168.31116644541422,39.91568609710032L169.471933110555,39.658308222388854L170.6326997756958,38.00450788346802L171.7934664408366,37.180345429266055L172.95423310597738,37.34463282508628L174.11499977111816,38.05105312291366L175.27576643625895,38.502837341340495L176.43653310139973,36.58618369719139L177.59729976654052,37.19677172081654L178.75806643168133,35.920833208292805L179.9188330968221,36.298686874584774L181.0795997619629,37.13380018982042L182.24036642710368,35.578573920412765L183.40113309224446,35.24726549356643L184.56189975738525,38.03188503605219L185.72266642252603,35.77297210402307L186.88343308766682,35.81405007305693L188.04419975280763,35.537504111484L189.2049664179484,34.981670393027144L190.3657330830892,33.467513932548286L191.52649974822998,34.15477430361929L192.68726641337076,33.7139409462261L193.84803307851155,34.1794178209976L195.00879974365233,33.73036723777662L196.16956640879314,32.96096724884805L197.33033307393393,33.72215817205392L198.4910997390747,31.534433996848662L199.6518664042155,31.660385218946004L200.81263306935628,31.852049767350422L201.97339973449706,32.42978520787457L203.13416639963785,32.26549781205435L204.29493306477863,30.94848133049672L205.45569972991944,30.964915782152303L206.61646639506023,31.312650500549154L207.777233060201,31.049789035215753L208.9379997253418,30.003843084714248L210.09876639048258,30.699320681613017L211.25953305562336,30.430983785762805L212.42029972076415,30.559676803171072L213.58106638590496,30.15991325470668L214.74183305104575,29.771108727381034L215.90259971618653,29.921703466856655L217.0633663813273,29.68896910952347L218.2241330464681,29.29194735637003L219.38489971160888,29.431591234812004L220.54566637674967,29.190639651650997L221.70643304189045,28.88945017269978L222.86719970703126,29.034569481658565L224.02796637217205,28.878499311666104L225.18873303731283,28.788142467980748L226.3494997024536,28.69504382898441L227.5102663675944,28.623855072160495L228.67103303273518,28.519805572130508L229.83179969787597,28.465051266962178L230.99256636301678,28.20493159693973L232.15333302815756,28.1912389405951L233.31409969329835,28.172070853733658L234.47486635843913,28.048861426947298L235.6356330235799,28.20493159693973L236.7963996887207,28.040644201119477L237.95716635386148,28.059812287980947L239.11793301900227,27.911959343816307L240.27869968414308,27.87636496540435L241.43946634928386,27.903742117988514L242.60023301442465,27.85719687854288L243.76099967956543,27.93659470108949L244.9217663447062,27.958504583261913L246.082533009847,27.7996926179585L247.24329967498778,27.824336135336807L248.4040663401286,27.8325533611646L249.56483300526938,27.82707793064776L250.72559967041016,27.895524892160694L251.88636633555095,27.805168048475338L253.04713300069173,27.78874175692485L254.2078996658325,27.796958982752642" fill="none"></path></g><g><path style="fill: none;" stroke="rgb(0, 119, 187)" stroke-width="2px" d="M23.215333302815754,162.91557642989005L24.37609996795654,150.67637275895203L25.53686663309733,145.29605234702137L26.69763329823812,138.7109760593121L27.858399963378908,135.35683218205114L29.019166628519695,130.1407950858882L30.179933293660483,125.71880353605839L31.34069995880127,122.48787112561007L32.50146662394206,118.72301487887731L33.66223328908285,115.45101265950021L34.82299995422363,112.3296051795987L35.983766619364424,112.89091024851983L37.14453328450521,107.09987950714368L38.305299949646,108.35939580816948L39.46606661478678,104.27965742614087L40.626833279927574,100.54218241204482L41.78759994506836,104.1290667667178L42.94836661020915,99.15945668423268L44.10913327534993,95.28507550695309L45.269899940490724,96.55828038427097L46.43066660563151,96.64042408218108L47.5914332707723,92.64283347811515L48.75219993591308,90.91784438237043L49.912966601053874,90.15118618875283L51.07373326619466,90.76724964289483L52.23449993133545,89.45297495664818L53.39526659647624,89.20654794297036L54.556033261617024,86.2768009314207L55.716799926757815,88.96012092929254L56.8775665918986,85.4143104636009L58.03833325703939,92.19104925968831L59.199099922180174,85.87977917826727L60.359866587320965,84.33277013468744L61.52063325246175,86.81072476770514L62.68139991760254,82.75837577841833L63.842166582743324,83.18277468415592L65.00293324788412,80.40363057218698L66.1636999130249,80.34886810691356L67.3244665781657,78.29531237963346L68.48523324330647,77.18638673803075L69.64599990844727,79.39053720478647L70.80676657358805,82.52564142108513L71.96753323872885,79.66434953115353L73.12829990386963,77.52864602591076L74.28906656901042,79.81494427062914L75.4498332341512,75.06437588913259L76.610599899292,78.30899687587299L77.77136656443278,75.24235594129746L78.93213322957357,74.24295523024156L80.09289989471435,75.21497062860821L81.25366655985515,76.80305764122193L82.41443322499593,75.66675484703504L83.57519989013672,77.76138038324395L84.7359665552775,75.31080290281041L85.8967332204183,75.20128613236868L87.05749988555908,72.86022542237686L88.21826655069987,76.32389627021092L89.37903321584066,72.99712750550786L90.53979988098145,74.4483124349906L91.70056654612223,72.13463703768804L92.86133321126302,73.58581380706569L94.02209987640381,74.29771769551498L95.1828665415446,73.73640854654131L96.34363320668538,72.23046931189025L97.50439987182617,72.66856087397245L98.66516653696696,74.85902684448865L99.82593320210775,71.83344755873681L100.98669986724853,74.39354996971717L102.14746653238932,73.4078419150059L103.30823319753011,74.10605314711057L104.4689998626709,72.39475670771048L105.62976652781168,69.67036690090987L106.79053319295248,71.1626216393214L107.95129985809326,72.05249741983046L109.11206652323405,72.28523177716366L110.27283318837483,69.13644306462545L111.43359985351563,71.58702054505899L112.59436651865641,71.42273314923875L113.7551331837972,71.55964339247483L114.91589984893798,70.43702509452748L116.07666651407878,72.66856087397245L117.23743317921956,71.43642580558337L118.39819984436035,69.97155637986111L119.55896650950113,70.92987912188312L120.71973317464193,72.0114194507966L121.88049983978271,70.94357177822774L123.0412665049235,73.32570229714834L124.2020331700643,70.77928438240751L125.36279983520508,74.29771769551498L126.52356650034586,70.04001150147914L127.68433316548665,69.99893353244525L128.84509983062745,69.39656273464789L130.00586649576823,68.84894624201884L131.16663316090902,67.9727631178544L132.3273998260498,67.53466339566708L133.4881664911906,69.23227533882766L134.6489331563314,68.46561714521003L135.80969982147215,68.69835150254323L136.97046648661293,70.71083742089456L138.13123315175375,68.5888265719964L139.29199981689453,68.28763709304518L140.45276648203532,73.50367418920811L141.6135331471761,70.98464158715652L142.77429981231688,69.93048657093232L143.9350664774577,67.6852581351427L145.09583314259848,68.2054974751876L146.25659980773926,67.60311851728514L147.41736647288005,69.04061079042326L148.57813313802083,66.54895534095581L149.73889980316162,67.80847572203417L150.8996664683024,69.99893353244525L152.06043313344318,68.2054974751876L153.221199798584,65.97396169574262L154.38196646372478,68.84894624201884L155.54273312886556,66.8775301325963L156.70349979400635,66.8227676673229L157.86426645914713,66.83646032366752L159.02503312428792,67.57574136470097L160.1857997894287,67.72633610417658L161.3465664545695,67.17871961154754L162.5073331197103,68.3560922146632L163.66809978485108,65.94658454315845L164.82886644999186,67.16502695520292L165.98963311513265,70.1632209282655L167.15039978027343,65.19361084578038L168.31116644541422,68.95846301246058L169.471933110555,68.45192448886542L170.6326997756958,67.93168514882052L171.7934664408366,66.15194174790749L172.95423310597738,65.2483733110538L174.11499977111816,67.42514662522535L175.27576643625895,68.2465672841164L176.43653310139973,65.48110766838698L177.59729976654052,66.86383747625169L178.75806643168133,65.17991818943575L179.9188330968221,65.89182207788505L181.0795997619629,66.54895534095581L182.24036642710368,65.96026903939799L183.40113309224446,65.207303502125L184.56189975738525,67.71264344783197L185.72266642252603,65.97396169574262L186.88343308766682,65.37158273784016L188.04419975280763,66.53527084471628L189.2049664179484,66.12455643521824L190.3657330830892,63.66028629844007L191.52649974822998,64.89242136682915L192.68726641337076,64.81028174897156L193.84803307851155,65.08408591523356L195.00879974365233,64.31742772161593L196.16956640879314,64.4406371484023L197.33033307393393,65.80968246002747L198.4910997390747,62.74303336534683L199.6518664042155,63.537076871653696L200.81263306935628,63.74243407640273L201.97339973449706,64.70075681842475L203.13416639963785,64.48171511743618L204.29493306477863,62.86624279213321L205.45569972991944,63.38648213217809L206.61646639506023,63.52338421530908L207.777233060201,62.770410517931L208.9379997253418,61.72993999794632L210.09876639048258,63.48231440638028L211.25953305562336,62.893628104822454L212.42029972076415,63.60552383316666L213.58106638590496,63.00315303536928L214.74183305104575,61.81208777590898L215.90259971618653,61.82578043225362L217.0633663813273,62.01744498065801L218.2241330464681,61.64780038008875L219.38489971160888,62.1954168727178L220.54566637674967,62.18172421637317L221.70643304189045,60.26507057222405L222.86719970703126,61.428758679100184L224.02796637217205,61.52459095330238L225.18873303731283,61.757325310635565L226.3494997024536,61.27816393962456L227.5102663675944,60.689477638066734L228.67103303273518,60.689477638066734L229.83179969787597,60.648399669032855L230.99256636301678,60.730547446995516L232.15333302815756,60.60732986010407L233.31409969329835,60.7716172559243L234.47486635843913,60.08709868016426L235.6356330235799,60.41566531169967L236.7963996887207,60.04602887123548L237.95716635386148,60.292455884913295L239.11793301900227,59.922811284344036L240.27869968414308,59.60793730915327L241.43946634928386,59.361510295475455L242.60023301442465,58.86865626811982L243.76099967956543,59.45734256967765L244.9217663447062,59.881741475415225L246.082533009847,59.38888744805959L247.24329967498778,59.74483939228425L248.4040663401286,59.2930551738574L249.56483300526938,58.950795885977385L250.72559967041016,59.621621805392806L251.88636633555095,58.950795885977385L253.04713300069173,59.27936251751278L254.2078996658325,59.01925100759543" fill="none"></path></g></g></g></g></g></g><g transform="translate(51, 177)" clip-path="url(#clip_1)"><clipPath id="clip_1"><rect width="278" height="22"></rect></clipPath><g><g><line x1="0" y1="0" x2="0" y2="5" style="visibility: inherit;" fill="rgb(0, 0, 0)" stroke="rgb(204, 204, 204)" stroke-width="1px"></line><line x1="23.215333302815754" y1="0" x2="23.215333302815754" y2="5" style="visibility: inherit;" fill="rgb(0, 0, 0)" stroke="rgb(204, 204, 204)" stroke-width="1px"></line><line x1="46.43066660563151" y1="0" x2="46.43066660563151" y2="5" style="visibility: inherit;" fill="rgb(0, 0, 0)" stroke="rgb(204, 204, 204)" stroke-width="1px"></line><line x1="69.64599990844727" y1="0" x2="69.64599990844727" y2="5" style="visibility: inherit;" fill="rgb(0, 0, 0)" stroke="rgb(204, 204, 204)" stroke-width="1px"></line><line x1="92.86133321126302" y1="0" x2="92.86133321126302" y2="5" style="visibility: inherit;" fill="rgb(0, 0, 0)" stroke="rgb(204, 204, 204)" stroke-width="1px"></line><line x1="116.07666651407878" y1="0" x2="116.07666651407878" y2="5" style="visibility: inherit;" fill="rgb(0, 0, 0)" stroke="rgb(204, 204, 204)" stroke-width="1px"></line><line x1="139.29199981689453" y1="0" x2="139.29199981689453" y2="5" style="visibility: inherit;" fill="rgb(0, 0, 0)" stroke="rgb(204, 204, 204)" stroke-width="1px"></line><line x1="162.5073331197103" y1="0" x2="162.5073331197103" y2="5" style="visibility: inherit;" fill="rgb(0, 0, 0)" stroke="rgb(204, 204, 204)" stroke-width="1px"></line><line x1="185.72266642252603" y1="0" x2="185.72266642252603" y2="5" style="visibility: inherit;" fill="rgb(0, 0, 0)" stroke="rgb(204, 204, 204)" stroke-width="1px"></line><line x1="208.9379997253418" y1="0" x2="208.9379997253418" y2="5" style="visibility: inherit;" fill="rgb(0, 0, 0)" stroke="rgb(204, 204, 204)" stroke-width="1px"></line><line x1="232.15333302815756" y1="0" x2="232.15333302815756" y2="5" style="visibility: inherit;" fill="rgb(0, 0, 0)" stroke="rgb(204, 204, 204)" stroke-width="1px"></line><line x1="255.3686663309733" y1="0" x2="255.3686663309733" y2="5" style="visibility: inherit;" fill="rgb(0, 0, 0)" stroke="rgb(204, 204, 204)" stroke-width="1px"></line><line x1="278.58399963378906" y1="0" x2="278.58399963378906" y2="5" style="visibility: inherit;" fill="rgb(0, 0, 0)" stroke="rgb(204, 204, 204)" stroke-width="1px"></line></g><g transform="translate(0, 8)"><text style="text-anchor: middle; visibility: hidden; font-family: &quot;Helvetica Neue&quot;, sans-serif; font-size: 12px; font-weight: 200;" x="0" y="0" dx="0em" dy="0.95em" fill="rgb(50, 49, 63)" stroke="none" stroke-width="1px">-20</text><text style="text-anchor: middle; visibility: inherit; font-family: &quot;Helvetica Neue&quot;, sans-serif; font-size: 12px; font-weight: 200;" x="23.215333302815754" y="0" dx="0em" dy="0.95em" fill="rgb(50, 49, 63)" stroke="none" stroke-width="1px">0</text><text style="text-anchor: middle; visibility: hidden; font-family: &quot;Helvetica Neue&quot;, sans-serif; font-size: 12px; font-weight: 200;" x="46.43066660563151" y="0" dx="0em" dy="0.95em" fill="rgb(50, 49, 63)" stroke="none" stroke-width="1px">20</text><text style="text-anchor: middle; visibility: inherit; font-family: &quot;Helvetica Neue&quot;, sans-serif; font-size: 12px; font-weight: 200;" x="69.64599990844727" y="0" dx="0em" dy="0.95em" fill="rgb(50, 49, 63)" stroke="none" stroke-width="1px">40</text><text style="text-anchor: middle; visibility: hidden; font-family: &quot;Helvetica Neue&quot;, sans-serif; font-size: 12px; font-weight: 200;" x="92.86133321126302" y="0" dx="0em" dy="0.95em" fill="rgb(50, 49, 63)" stroke="none" stroke-width="1px">60</text><text style="text-anchor: middle; visibility: inherit; font-family: &quot;Helvetica Neue&quot;, sans-serif; font-size: 12px; font-weight: 200;" x="116.07666651407878" y="0" dx="0em" dy="0.95em" fill="rgb(50, 49, 63)" stroke="none" stroke-width="1px">80</text><text style="text-anchor: middle; visibility: hidden; font-family: &quot;Helvetica Neue&quot;, sans-serif; font-size: 12px; font-weight: 200;" x="139.29199981689453" y="0" dx="0em" dy="0.95em" fill="rgb(50, 49, 63)" stroke="none" stroke-width="1px">100</text><text style="text-anchor: middle; visibility: inherit; font-family: &quot;Helvetica Neue&quot;, sans-serif; font-size: 12px; font-weight: 200;" x="162.5073331197103" y="0" dx="0em" dy="0.95em" fill="rgb(50, 49, 63)" stroke="none" stroke-width="1px">120</text><text style="text-anchor: middle; visibility: hidden; font-family: &quot;Helvetica Neue&quot;, sans-serif; font-size: 12px; font-weight: 200;" x="185.72266642252603" y="0" dx="0em" dy="0.95em" fill="rgb(50, 49, 63)" stroke="none" stroke-width="1px">140</text><text style="text-anchor: middle; visibility: inherit; font-family: &quot;Helvetica Neue&quot;, sans-serif; font-size: 12px; font-weight: 200;" x="208.9379997253418" y="0" dx="0em" dy="0.95em" fill="rgb(50, 49, 63)" stroke="none" stroke-width="1px">160</text><text style="text-anchor: middle; visibility: hidden; font-family: &quot;Helvetica Neue&quot;, sans-serif; font-size: 12px; font-weight: 200;" x="232.15333302815756" y="0" dx="0em" dy="0.95em" fill="rgb(50, 49, 63)" stroke="none" stroke-width="1px">180</text><text style="text-anchor: middle; visibility: inherit; font-family: &quot;Helvetica Neue&quot;, sans-serif; font-size: 12px; font-weight: 200;" x="255.3686663309733" y="0" dx="0em" dy="0.95em" fill="rgb(50, 49, 63)" stroke="none" stroke-width="1px">200</text><text style="text-anchor: middle; visibility: hidden; font-family: &quot;Helvetica Neue&quot;, sans-serif; font-size: 12px; font-weight: 200;" x="278.58399963378906" y="0" dx="0em" dy="0.95em" fill="rgb(50, 49, 63)" stroke="none" stroke-width="1px">220</text></g><line x1="0" y1="0" x2="278.58399963378906" y2="0" fill="rgb(0, 0, 0)" stroke="rgb(204, 204, 204)" stroke-width="1px"></line></g></g></g></g></svg>