<svg viewBox="0 0 330 200" xmlns="http://www.w3.org/2000/svg"><g><g><g><g><g><line x1="51.41600036621094" y1="177.9749994277954" x2="46.41600036621094" y2="177.9749994277954" style="visibility: inherit;" fill="rgb(0, 0, 0)" stroke="rgb(204, 204, 204)" stroke-width="1px"></line><line x1="51.41600036621094" y1="152.54999950953894" x2="46.41600036621094" y2="152.54999950953894" style="visibility: inherit;" fill="rgb(0, 0, 0)" stroke="rgb(204, 204, 204)" stroke-width="1px"></line><line x1="51.41600036621094" y1="127.12499959128243" x2="46.41600036621094" y2="127.12499959128243" style="visibility: inherit;" fill="rgb(0, 0, 0)" stroke="rgb(204, 204, 204)" stroke-width="1px"></line><line x1="51.41600036621094" y1="101.69999967302596" x2="46.41600036621094" y2="101.69999967302596" style="visibility: inherit;" fill="rgb(0, 0, 0)" stroke="rgb(204, 204, 204)" stroke-width="1px"></line><line x1="51.41600036621094" y1="76.27499975476947" x2="46.41600036621094" y2="76.27499975476947" style="visibility: inherit;" fill="rgb(0, 0, 0)" stroke="rgb(204, 204, 204)" stroke-width="1px"></line><line x1="51.41600036621094" y1="50.84999983651298" x2="46.41600036621094" y2="50.84999983651298" style="visibility: inherit;" fill="rgb(0, 0, 0)" stroke="rgb(204, 204, 204)" stroke-width="1px"></line><line x1="51.41600036621094" y1="25.424999918256503" x2="46.41600036621094" y2="25.424999918256503" style="visibility: inherit;" fill="rgb(0, 0, 0)" stroke="rgb(204, 204, 204)" stroke-width="1px"></line><line x1="51.41600036621094" y1="0" x2="46.41600036621094" y2="0" style="visibility: inherit;" fill="rgb(0, 0, 0)" stroke="rgb(204, 204, 204)" stroke-width="1px"></line></g><g transform="translate(41.41600036621094, 0)"><text style="text-anchor: end; visibility: hidden; font-family: &quot;Helvetica Neue&quot;, sans-serif; font-size: 12px; font-weight: 200;" x="0" y="177.9749994277954" dx="0em" dy="0.3em" fill="rgb(50, 49, 63)" stroke="none" stroke-width="1px">-0.5</text><text style="text-anchor: end; visibility: inherit; font-family: &quot;Helvetica Neue&quot;, sans-serif; font-size: 12px; font-weight: 200;" x="0" y="152.54999950953894" dx="0em" dy="0.3em" fill="rgb(50, 49, 63)" stroke="none" stroke-width="1px">0</text><text style="text-anchor: end; visibility: inherit; font-family: &quot;Helvetica Neue&quot;, sans-serif; font-size: 12px; font-weight: 200;" x="0" y="127.12499959128243" dx="0em" dy="0.3em" fill="rgb(50, 49, 63)" stroke="none" stroke-width="1px">0.5</text><text style="text-anchor: end; visibility: inherit; font-family: &quot;Helvetica Neue&quot;, sans-serif; font-size: 12px; font-weight: 200;" x="0" y="101.69999967302596" dx="0em" dy="0.3em" fill="rgb(50, 49, 63)" stroke="none" stroke-width="1px">1</text><text style="text-anchor: end; visibility: inherit; font-family: &quot;Helvetica Neue&quot;, sans-serif; font-size: 12px; font-weight: 200;" x="0" y="76.27499975476947" dx="0em" dy="0.3em" fill="rgb(50, 49, 63)" stroke="none" stroke-width="1px">1.5</text><text style="text-anchor: end; visibility: inherit; font-family: &quot;Helvetica Neue&quot;, sans-serif; font-size: 12px; font-weight: 200;" x="0" y="50.84999983651298" dx="0em" dy="0.3em" fill="rgb(50, 49, 63)" stroke="none" stroke-width="1px">2</text><text style="text-anchor: end; visibility: inherit; font-family: &quot;Helvetica Neue&quot;, sans-serif; font-size: 12px; font-weight: 200;" x="0" y="25.424999918256503" dx="0em" dy="0.3em" fill="rgb(50, 49, 63)" stroke="none" stroke-width="1px">2.5</text><text style="text-anchor: end; visibility: hidden; font-family: &quot;Helvetica Neue&quot;, sans-serif; font-size: 12px; font-weight: 200;" x="0" y="0" dx="0em" dy="0.3em" fill="rgb(50, 49, 63)" stroke="none" stroke-width="1px">3</text></g><line x1="51.41600036621094" y1="0" x2="51.41600036621094" y2="177.9749994277954" fill="rgb(0, 0, 0)" stroke="rgb(204, 204, 204)" stroke-width="1px"></line></g></g><g transform="translate(51, 0)" clip-path="url(#clip_0)"><clipPath id="clip_0"><rect width="278" height="177"></rect></clipPath><g><g><g><line x1="0" y1="0" x2="0" y2="177.9749994277954" fill="rgb(0, 0, 0)" stroke="rgb(60, 60, 60)" stroke-width="1px" opacity="0.25"></line><line x1="23.215333302815754" y1="0" x2="23.215333302815754" y2="177.9749994277954" fill="rgb(0, 0, 0)" stroke="rgb(60, 60, 60)" stroke-width="1px" opacity="0.25"></line><line x1="46.43066660563151" y1="0" x2="46.43066660563151" y2="177.9749994277954" fill="rgb(0, 0, 0)" stroke="rgb(60, 60, 60)" stroke-width="1px" opacity="0.25"></line><line x1="69.64599990844727" y1="0" x2="69.64599990844727" y2="177.9749994277954" fill="rgb(0, 0, 0)" stroke="rgb(60, 60, 60)" stroke-width="1px" opacity="0.25"></line><line x1="92.86133321126302" y1="0" x2="92.86133321126302" y2="177.9749994277954" fill="rgb(0, 0, 0)" stroke="rgb(60, 60, 60)" stroke-width="1px" opacity="0.25"></line><line x1="116.07666651407878" y1="0" x2="116.07666651407878" y2="177.9749994277954" fill="rgb(0, 0, 0)" stroke="rgb(60, 60, 60)" stroke-width="1px" opacity="0.25"></line><line x1="139.29199981689453" y1="0" x2="139.29199981689453" y2="177.9749994277954" fill="rgb(0, 0, 0)" stroke="rgb(60, 60, 60)" stroke-width="1px" opacity="0.25"></line><line x1="162.5073331197103" y1="0" x2="162.5073331197103" y2="177.9749994277954" fill="rgb(0, 0, 0)" stroke="rgb(60, 60, 60)" stroke-width="1px" opacity="0.25"></line><line x1="185.72266642252603" y1="0" x2="185.72266642252603" y2="177.9749994277954" fill="rgb(0, 0, 0)" stroke="rgb(60, 60, 60)" stroke-width="1px" opacity="0.25"></line><line x1="208.9379997253418" y1="0" x2="208.9379997253418" y2="177.9749994277954" fill="rgb(0, 0, 0)" stroke="rgb(60, 60, 60)" stroke-width="1px" opacity="0.25"></line><line x1="232.15333302815756" y1="0" x2="232.15333302815756" y2="177.9749994277954" fill="rgb(0, 0, 0)" stroke="rgb(60, 60, 60)" stroke-width="1px" opacity="0.25"></line><line x1="255.3686663309733" y1="0" x2="255.3686663309733" y2="177.9749994277954" fill="rgb(0, 0, 0)" stroke="rgb(60, 60, 60)" stroke-width="1px" opacity="0.25"></line><line x1="278.58399963378906" y1="0" x2="278.58399963378906" y2="177.9749994277954" fill="rgb(0, 0, 0)" stroke="rgb(60, 60, 60)" stroke-width="1px" opacity="0.25"></line></g><g><line x1="0" y1="177.9749994277954" x2="278.58399963378906" y2="177.9749994277954" fill="rgb(0, 0, 0)" stroke="rgb(60, 60, 60)" stroke-width="1px" opacity="0.25"></line><line x1="0" y1="152.54999950953894" x2="278.58399963378906" y2="152.54999950953894" fill="rgb(0, 0, 0)" stroke="rgb(60, 60, 60)" stroke-width="1px" opacity="0.25"></line><line x1="0" y1="127.12499959128243" x2="278.58399963378906" y2="127.12499959128243" fill="rgb(0, 0, 0)" stroke="rgb(60, 60, 60)" stroke-width="1px" opacity="0.25"></line><line x1="0" y1="101.69999967302596" x2="278.58399963378906" y2="101.69999967302596" fill="rgb(0, 0, 0)" stroke="rgb(60, 60, 60)" stroke-width="1px" opacity="0.25"></line><line x1="0" y1="76.27499975476947" x2="278.58399963378906" y2="76.27499975476947" fill="rgb(0, 0, 0)" stroke="rgb(60, 60, 60)" stroke-width="1px" opacity="0.25"></line><line x1="0" y1="50.84999983651298" x2="278.58399963378906" y2="50.84999983651298" fill="rgb(0, 0, 0)" stroke="rgb(60, 60, 60)" stroke-width="1px" opacity="0.25"></line><line x1="0" y1="25.424999918256503" x2="278.58399963378906" y2="25.424999918256503" fill="rgb(0, 0, 0)" stroke="rgb(60, 60, 60)" stroke-width="1px" opacity="0.25"></line><line x1="0" y1="0" x2="278.58399963378906" y2="0" fill="rgb(0, 0, 0)" stroke="rgb(60, 60, 60)" stroke-width="1px" opacity="0.25"></line></g></g></g><g><g><line x1="0" y1="152.54999950953894" x2="278.58399963378906" y2="152.54999950953894" fill="rgb(0, 0, 0)" stroke="rgb(153, 153, 153)" stroke-width="1.5px"></line></g></g><g><g><line x1="23.215333302815754" y1="0" x2="23.215333302815754" y2="177.9749994277954" fill="rgb(0, 0, 0)" stroke="rgb(153, 153, 153)" stroke-width="1.5px"></line></g></g><g><g><g><g><g><path style="fill: none;" stroke="rgb(238, 51, 119)" stroke-width="2px" d="M29.019166628519695,-5.46069290074405L30.179933293660483,1.6142068095761033L31.34069995880127,10.18024682109808L32.50146662394206,15.507410559864525L33.66223328908285,21.233634212890536L34.82299995422363,25.750299943150566L35.983766619364424,26.97070847423049L37.14453328450521,36.20890426915204L38.305299949646,34.79933144586792L39.46606661478678,42.72398533198009L40.626833279927574,48.532358394989785L41.78759994506836,44.19532781935317L42.94836661020915,51.58611359104137L44.10913327534993,56.231986425330504L45.269899940490724,56.78233655316542L46.43066660563151,59.54947202133488L47.5914332707723,64.24868862834069L48.75219993591308,68.12396823319091L49.912966601053874,72.09858242934888L51.07373326619466,70.09200186247982L52.23449993133545,71.86647640010779L53.39526659647624,71.28779951660184L54.556033261617024,78.21245770342395L55.716799926757815,72.25213975326467L56.8775665918986,77.70383695415512L58.03833325703939,70.06094730024941L59.199099922180174,78.11064383904333L60.359866587320965,79.77814592699731L61.52063325246175,78.8336944310485L62.68139991760254,83.30064740221201L63.842166582743324,83.77926834112006L65.00293324788412,87.26752675132606L66.1636999130249,86.85999245135534L67.3244665781657,92.09269527986677L68.48523324330647,93.67334400697021L69.64599990844727,91.64991165735657L70.80676657358805,88.78632094924758L71.96753323872885,90.92449090454092L73.12829990386963,97.56578454597508L74.28906656901042,92.72173353425114L75.4498332341512,98.21520254625418L76.610599899292,93.61395056548407L77.77136656443278,97.89404878733035L78.93213322957357,98.73674097502973L80.09289989471435,101.54459350244214L81.25366655985515,95.207444230586L82.41443322499593,98.08274025973088L83.57519989013672,97.65034654931573L84.7359665552775,101.20560595041235L85.8967332204183,101.28139654021652L87.05749988555908,104.82804819617023L88.21826655069987,102.57835944693726L89.37903321584066,105.292526973516L90.53979988098145,103.49138358042586L91.70056654612223,109.66619805303739L92.86133321126302,102.3353634077319L94.02209987640381,103.4975423614577L95.1828665415446,105.6376369358235L96.34363320668538,107.22086798646981L97.50439987182617,109.2733817849026L98.66516653696696,104.0536996863679L99.82593320210775,112.10362354237512L100.98669986724853,104.70880364787521L102.14746653238932,109.97124259878001L103.30823319753011,104.4035863410505L104.4689998626709,112.63729161765137L105.62976652781168,114.7390241391038L106.79053319295248,113.81322780912495L107.95129985809326,113.34595454550391L109.11206652323405,110.11343709292791L110.27283318837483,118.27763785839589L111.43359985351563,115.23730953240877L112.59436651865641,112.34375841558932L113.7551331837972,115.31663111625925L114.91589984893798,111.57583540568243L116.07666651407878,111.27590398179053L117.23743317921956,114.01681007444353L118.39819984436035,115.1554238103925L119.55896650950113,117.81302269072215L120.71973317464193,114.33825479940035L121.88049983978271,114.56081047478744L123.0412665049235,112.10415091830993L124.2020331700643,116.78245737259004L125.36279983520508,112.4077224485105L126.52356650034586,117.28351906679322L127.68433316548665,120.11510957306456L128.84509983062745,118.6391328454367L130.00586649576823,119.52904033378269L131.16663316090902,122.03323343500541L132.3273998260498,122.21548425302966L133.4881664911906,120.27426193132322L134.6489331563314,119.96266458804575L135.80969982147215,122.17469142138228L136.97046648661293,118.51516616089779L138.13123315175375,122.53811102749555L139.29199981689453,123.03122268102624L140.45276648203532,112.06019383105368L141.6135331471761,117.36291945394429L142.77429981231688,121.33380261690826L143.9350664774577,123.99211981963188L145.09583314259848,123.88589297041744L146.25659980773926,124.165896251945L147.41736647288005,123.76082303967007L148.57813313802083,127.02876257586766L149.73889980316162,123.78196354050523L150.8996664683024,120.91871835456044L152.06043313344318,125.2318290975675L153.221199798584,127.04512335343156L154.38196646372478,123.62959735878704L155.54273312886556,125.95275200045636L156.70349979400635,124.19992412332512L157.86426645914713,128.1093331345774L159.02503312428792,127.42391111861073L160.1857997894287,124.59659569139717L161.3465664545695,125.39479432321696L162.5073331197103,125.00566059393731L163.66809978485108,127.99010828710753L164.82886644999186,128.4269983320014L165.98963311513265,122.7495493757051L167.15039978027343,130.14655000000442L168.31116644541422,126.11208621248566L169.471933110555,125.01602928975912L170.6326997756958,128.99899663578114L171.7934664408366,130.19274691953552L172.95423310597738,130.9489433921333L174.11499977111816,128.42420384572614L175.27576643625895,127.87736198021618L176.43653310139973,130.5384660919746L177.59729976654052,129.654435511316L178.75806643168133,132.50853799894264L179.9188330968221,129.52965200025736L181.0795997619629,129.17733759773694L182.24036642710368,132.10822632456188L183.40113309224446,131.18570336245432L184.56189975738525,126.6220799577227L185.72266642252603,130.07000774794835L186.88343308766682,130.349653383727L188.04419975280763,130.65285514459396L189.2049664179484,130.72981566032246L190.3657330830892,136.11093086648907L191.52649974822998,133.09879290584502L192.68726641337076,134.97047283021635L193.84803307851155,133.9422019004903L195.00879974365233,134.46820787023086L196.16956640879314,135.94294193042612L197.33033307393393,132.48703075967003L198.4910997390747,139.69327435582414L199.6518664042155,137.80004172873757L200.81263306935628,137.9143928951547L201.97339973449706,136.8761003072191L203.13416639963785,135.84852951450995L204.29493306477863,139.63490081090157L205.45569972991944,139.95837775174516L206.61646639506023,136.77688392086225L207.777233060201,139.24949205302357L208.9379997253418,140.96514219992267L210.09876639048258,138.62019768791225L211.25953305562336,139.1774749289599L212.42029972076415,138.50788025282995L213.58106638590496,138.47529508803012L214.74183305104575,141.7305669936556L215.90259971618653,141.13112013637215L217.0633663813273,140.83461665605654L218.2241330464681,141.85395098840445L219.38489971160888,141.38656937024507L220.54566637674967,140.63866770275996L221.70643304189045,143.02655622497943L222.86719970703126,140.76718603563282L224.02796637217205,140.80425465360258L225.18873303731283,142.0756292193483L226.3494997024536,142.0797694235262L227.5102663675944,142.89026894748068L228.67103303273518,142.19081842855837L229.83179969787597,143.2229689053911L230.99256636301678,144.39486036591637L232.15333302815756,143.32592314445833L233.31409969329835,143.93051494800238L234.47486635843913,144.55160998123068L235.6356330235799,142.6904366584572L236.7963996887207,144.43481212387462L237.95716635386148,143.11555546032332L239.11793301900227,144.11596260376942L240.27869968414308,144.61781460415077L241.43946634928386,144.96054834385544L242.60023301442465,145.6765801380385L243.76099967956543,142.96916999448658L244.9217663447062,143.92927531146597L246.082533009847,145.1583953958829L247.24329967498778,145.40333196636564L248.4040663401286,144.6208409539836L249.56483300526938,144.7705323698255L250.72559967041016,143.7236918969465L251.88636633555095,145.4181621413601L253.04713300069173,144.69038941311103L254.2078996658325,144.87619547235101" fill="none"></path></g><g><path style="fill: none;" stroke="rgb(204, 51, 17)" stroke-width="2px" d="M29.019166628519695,-2.0745756917057747L30.179933293660483,5.229605252618455L31.34069995880127,13.49545318317729L32.50146662394206,18.64915267193686L33.66223328908285,24.20853155220675L34.82299995422363,29.549673784141874L35.983766619364424,29.117637719475624L37.14453328450521,37.89324601626589L38.305299949646,35.751020721887585L39.46606661478678,42.91518638641526L40.626833279927574,48.09466061626472L41.78759994506836,41.73731951407683L42.94836661020915,50.19722966506204L44.10913327534993,53.633102065743316L45.269899940490724,53.30937810686133L46.43066660563151,54.75255750695695L47.5914332707723,58.69353481734164L48.75219993591308,62.83501803342516L49.912966601053874,64.70118324220228L51.07373326619466,62.985599017295044L52.23449993133545,64.23449191064722L53.39526659647624,63.33364894889431L54.556033261617024,69.1005351050321L55.716799926757815,64.04253919396014L56.8775665918986,68.96875173925248L58.03833325703939,59.01738607386308L59.199099922180174,67.37309401428011L60.359866587320965,69.38081419811176L61.52063325246175,67.00041502034586L62.68139991760254,72.78384380781816L63.842166582743324,71.12962916870454L65.00293324788412,74.03796802797198L66.1636999130249,73.80098225588578L67.3244665781657,78.33889456834719L68.48523324330647,79.25331594497344L69.64599990844727,75.94561408182868L70.80676657358805,72.47106138413544L71.96753323872885,74.73405576758582L73.12829990386963,80.9761561353286L74.28906656901042,75.28242368932092L75.4498332341512,82.58427690538113L76.610599899292,76.8094376776747L77.77136656443278,80.51184708816875L78.93213322957357,82.35369844781329L80.09289989471435,83.4155971706241L81.25366655985515,77.75893258486215L82.41443322499593,78.84761230629367L83.57519989013672,78.2460036623119L84.7359665552775,81.29845557300736L85.8967332204183,81.61857276543863L87.05749988555908,83.92222965200075L88.21826655069987,81.30677235211728L89.37903321584066,83.85932037094919L90.53979988098145,80.4858783697235L91.70056654612223,87.55599532587621L92.86133321126302,80.58891065436728L94.02209987640381,78.70070476859041L95.1828665415446,82.78095782010448L96.34363320668538,83.30855197944184L97.50439987182617,85.7701912983383L98.66516653696696,80.85998794665332L99.82593320210775,87.45099902050967L100.98669986724853,80.08787320733352L102.14746653238932,84.3993957607438L103.30823319753011,78.77237940138609L104.4689998626709,86.39448316930937L105.62976652781168,89.42755552984853L106.79053319295248,88.28482886778725L107.95129985809326,85.88694141907958L109.11206652323405,83.36670881528774L110.27283318837483,91.52141378303291L111.43359985351563,87.64661305977867L112.59436651865641,84.67082463698638L113.7551331837972,86.60154793433539L114.91589984893798,84.92465613002481L116.07666651407878,82.91822710796461L117.23743317921956,84.93748288264624L118.39819984436035,88.59323467739026L119.55896650950113,88.28225260603674L120.71973317464193,85.22704864161248L121.88049983978271,87.51632089491818L123.0412665049235,82.05463992202041L124.2020331700643,86.44839675050733L125.36279983520508,81.55030485994598L126.52356650034586,87.95610999200542L127.68433316548665,89.34991609337635L128.84509983062745,88.19302302258338L130.00586649576823,89.77071359501798L131.16663316090902,91.14347315333524L132.3273998260498,91.8312622992162L133.4881664911906,88.06665283737604L134.6489331563314,88.4750539736534L135.80969982147215,90.31606880595308L136.97046648661293,86.8930898376091L138.13123315175375,91.23540023438619L139.29199981689453,90.99557754347825L140.45276648203532,81.36495343513259L141.6135331471761,84.75551999975882L142.77429981231688,88.09742855715815L143.9350664774577,90.67244157845461L145.09583314259848,90.8710865139007L146.25659980773926,90.49320650212657L147.41736647288005,89.94093478611538L148.57813313802083,94.36210303962785L149.73889980316162,91.11249739440544L150.8996664683024,87.74363810819948L152.06043313344318,91.51190283082923L153.221199798584,93.91908906900818L154.38196646372478,89.70865902668837L155.54273312886556,92.11095339843752L156.70349979400635,90.28991823373718L157.86426645914713,92.94126134435734L159.02503312428792,92.20503847756657L160.1857997894287,89.27608952429495L161.3465664545695,90.36044112598557L162.5073331197103,90.06119468462973L163.66809978485108,93.04097176679105L164.82886644999186,91.73407358240183L165.98963311513265,86.60625794699457L167.15039978027343,94.37882146294065L168.31116644541422,88.74100905140017L169.471933110555,88.54415234469856L170.6326997756958,90.94117901889194L171.7934664408366,93.83730336656575L172.95423310597738,95.0936462027212L174.11499977111816,90.5849396058222L175.27576643625895,90.02812154554539L176.43653310139973,93.3835478998945L177.59729976654052,91.67984478800145L178.75806643168133,94.79385420005347L179.9188330968221,92.00523573978083L181.0795997619629,91.73675289462238L182.24036642710368,93.32345735228763L183.40113309224446,93.52872782677683L184.56189975738525,88.59327710993674L185.72266642252603,91.13684155249979L186.88343308766682,92.05839159693454L188.04419975280763,91.19448919778792L189.2049664179484,91.9686164521693L190.3657330830892,97.87820326211656L191.52649974822998,94.40993058130223L192.68726641337076,95.31381656281695L193.84803307851155,93.79297347907972L195.00879974365233,94.55623193977009L196.16956640879314,96.22621936258926L197.33033307393393,91.69767251931506L198.4910997390747,99.54335337463709L199.6518664042155,97.78368779573037L200.81263306935628,96.84732879257439L201.97339973449706,94.9175814437944L203.13416639963785,94.25895558092932L204.29493306477863,98.13255000750509L205.45569972991944,98.13881183900695L206.61646639506023,95.24945851339274L207.777233060201,97.74944473072168L208.9379997253418,99.56346640166822L210.09876639048258,95.84118643583722L211.25953305562336,97.38180308623373L212.42029972076415,95.77905912599934L213.58106638590496,95.73457769370447L214.74183305104575,100.137536322985L215.90259971618653,98.63710935589663L217.0633663813273,98.76546174720377L218.2241330464681,99.35204320793956L219.38489971160888,98.28956861485511L220.54566637674967,97.82545960684294L221.70643304189045,101.10068844834642L222.86719970703126,97.65734185769244L224.02796637217205,98.10313819100267L225.18873303731283,98.61660837415482L226.3494997024536,99.00419331548798L227.5102663675944,100.02721170213914L228.67103303273518,98.93699228544966L229.83179969787597,99.90609102911051L230.99256636301678,101.06219606689746L232.15333302815756,99.33023894084161L233.31409969329835,100.32169357470463L234.47486635843913,101.18455334556633L235.6356330235799,98.31694973091888L236.7963996887207,100.90087964876832L237.95716635386148,99.36719162703262L239.11793301900227,100.50004362934897L240.27869968414308,101.03713055551296L241.43946634928386,101.55395290983698L242.60023301442465,102.67265365790252L243.76099967956543,99.03612683760974L244.9217663447062,100.1906133768381L246.082533009847,101.67159411405432L247.24329967498778,101.9895654319922L248.4040663401286,101.1515590097826L249.56483300526938,101.30800174685896L250.72559967041016,99.80140993694638L251.88636633555095,102.0654711958511L253.04713300069173,101.04750228223094L254.2078996658325,101.346512313685" fill="none"></path></g></g></g></g></g></g><g transform="translate(51, 177)" clip-path="url(#clip_1)"><clipPath id="clip_1"><rect width="278" height="22"></rect></clipPath><g><g><line x1="0" y1="0" x2="0" y2="5" style="visibility: inherit;" fill="rgb(0, 0, 0)" stroke="rgb(204, 204, 204)" stroke-width="1px"></line><line x1="23.215333302815754" y1="0" x2="23.215333302815754" y2="5" style="visibility: inherit;" fill="rgb(0, 0, 0)" stroke="rgb(204, 204, 204)" stroke-width="1px"></line><line x1="46.43066660563151" y1="0" x2="46.43066660563151" y2="5" style="visibility: inherit;" fill="rgb(0, 0, 0)" stroke="rgb(204, 204, 204)" stroke-width="1px"></line><line x1="69.64599990844727" y1="0" x2="69.64599990844727" y2="5" style="visibility: inherit;" fill="rgb(0, 0, 0)" stroke="rgb(204, 204, 204)" stroke-width="1px"></line><line x1="92.86133321126302" y1="0" x2="92.86133321126302" y2="5" style="visibility: inherit;" fill="rgb(0, 0, 0)" stroke="rgb(204, 204, 204)" stroke-width="1px"></line><line x1="116.07666651407878" y1="0" x2="116.07666651407878" y2="5" style="visibility: inherit;" fill="rgb(0, 0, 0)" stroke="rgb(204, 204, 204)" stroke-width="1px"></line><line x1="139.29199981689453" y1="0" x2="139.29199981689453" y2="5" style="visibility: inherit;" fill="rgb(0, 0, 0)" stroke="rgb(204, 204, 204)" stroke-width="1px"></line><line x1="162.5073331197103" y1="0" x2="162.5073331197103" y2="5" style="visibility: inherit;" fill="rgb(0, 0, 0)" stroke="rgb(204, 204, 204)" stroke-width="1px"></line><line x1="185.72266642252603" y1="0" x2="185.72266642252603" y2="5" style="visibility: inherit;" fill="rgb(0, 0, 0)" stroke="rgb(204, 204, 204)" stroke-width="1px"></line><line x1="208.9379997253418" y1="0" x2="208.9379997253418" y2="5" style="visibility: inherit;" fill="rgb(0, 0, 0)" stroke="rgb(204, 204, 204)" stroke-width="1px"></line><line x1="232.15333302815756" y1="0" x2="232.15333302815756" y2="5" style="visibility: inherit;" fill="rgb(0, 0, 0)" stroke="rgb(204, 204, 204)" stroke-width="1px"></line><line x1="255.3686663309733" y1="0" x2="255.3686663309733" y2="5" style="visibility: inherit;" fill="rgb(0, 0, 0)" stroke="rgb(204, 204, 204)" stroke-width="1px"></line><line x1="278.58399963378906" y1="0" x2="278.58399963378906" y2="5" style="visibility: inherit;" fill="rgb(0, 0, 0)" stroke="rgb(204, 204, 204)" stroke-width="1px"></line></g><g transform="translate(0, 8)"><text style="text-anchor: middle; visibility: hidden; font-family: &quot;Helvetica Neue&quot;, sans-serif; font-size: 12px; font-weight: 200;" x="0" y="0" dx="0em" dy="0.95em" fill="rgb(50, 49, 63)" stroke="none" stroke-width="1px">-20</text><text style="text-anchor: middle; visibility: inherit; font-family: &quot;Helvetica Neue&quot;, sans-serif; font-size: 12px; font-weight: 200;" x="23.215333302815754" y="0" dx="0em" dy="0.95em" fill="rgb(50, 49, 63)" stroke="none" stroke-width="1px">0</text><text style="text-anchor: middle; visibility: hidden; font-family: &quot;Helvetica Neue&quot;, sans-serif; font-size: 12px; font-weight: 200;" x="46.43066660563151" y="0" dx="0em" dy="0.95em" fill="rgb(50, 49, 63)" stroke="none" stroke-width="1px">20</text><text style="text-anchor: middle; visibility: inherit; font-family: &quot;Helvetica Neue&quot;, sans-serif; font-size: 12px; font-weight: 200;" x="69.64599990844727" y="0" dx="0em" dy="0.95em" fill="rgb(50, 49, 63)" stroke="none" stroke-width="1px">40</text><text style="text-anchor: middle; visibility: hidden; font-family: &quot;Helvetica Neue&quot;, sans-serif; font-size: 12px; font-weight: 200;" x="92.86133321126302" y="0" dx="0em" dy="0.95em" fill="rgb(50, 49, 63)" stroke="none" stroke-width="1px">60</text><text style="text-anchor: middle; visibility: inherit; font-family: &quot;Helvetica Neue&quot;, sans-serif; font-size: 12px; font-weight: 200;" x="116.07666651407878" y="0" dx="0em" dy="0.95em" fill="rgb(50, 49, 63)" stroke="none" stroke-width="1px">80</text><text style="text-anchor: middle; visibility: hidden; font-family: &quot;Helvetica Neue&quot;, sans-serif; font-size: 12px; font-weight: 200;" x="139.29199981689453" y="0" dx="0em" dy="0.95em" fill="rgb(50, 49, 63)" stroke="none" stroke-width="1px">100</text><text style="text-anchor: middle; visibility: inherit; font-family: &quot;Helvetica Neue&quot;, sans-serif; font-size: 12px; font-weight: 200;" x="162.5073331197103" y="0" dx="0em" dy="0.95em" fill="rgb(50, 49, 63)" stroke="none" stroke-width="1px">120</text><text style="text-anchor: middle; visibility: hidden; font-family: &quot;Helvetica Neue&quot;, sans-serif; font-size: 12px; font-weight: 200;" x="185.72266642252603" y="0" dx="0em" dy="0.95em" fill="rgb(50, 49, 63)" stroke="none" stroke-width="1px">140</text><text style="text-anchor: middle; visibility: inherit; font-family: &quot;Helvetica Neue&quot;, sans-serif; font-size: 12px; font-weight: 200;" x="208.9379997253418" y="0" dx="0em" dy="0.95em" fill="rgb(50, 49, 63)" stroke="none" stroke-width="1px">160</text><text style="text-anchor: middle; visibility: hidden; font-family: &quot;Helvetica Neue&quot;, sans-serif; font-size: 12px; font-weight: 200;" x="232.15333302815756" y="0" dx="0em" dy="0.95em" fill="rgb(50, 49, 63)" stroke="none" stroke-width="1px">180</text><text style="text-anchor: middle; visibility: inherit; font-family: &quot;Helvetica Neue&quot;, sans-serif; font-size: 12px; font-weight: 200;" x="255.3686663309733" y="0" dx="0em" dy="0.95em" fill="rgb(50, 49, 63)" stroke="none" stroke-width="1px">200</text><text style="text-anchor: middle; visibility: hidden; font-family: &quot;Helvetica Neue&quot;, sans-serif; font-size: 12px; font-weight: 200;" x="278.58399963378906" y="0" dx="0em" dy="0.95em" fill="rgb(50, 49, 63)" stroke="none" stroke-width="1px">220</text></g><line x1="0" y1="0" x2="278.58399963378906" y2="0" fill="rgb(0, 0, 0)" stroke="rgb(204, 204, 204)" stroke-width="1px"></line></g></g></g></g></svg>