<svg viewBox="0 0 330 200" xmlns="http://www.w3.org/2000/svg"><g><g><g><g><g><line x1="51.41600036621094" y1="177.9749994277954" x2="46.41600036621094" y2="177.9749994277954" style="visibility: inherit;" fill="rgb(0, 0, 0)" stroke="rgb(204, 204, 204)" stroke-width="1px"></line><line x1="51.41600036621094" y1="158.1999994913737" x2="46.41600036621094" y2="158.1999994913737" style="visibility: inherit;" fill="rgb(0, 0, 0)" stroke="rgb(204, 204, 204)" stroke-width="1px"></line><line x1="51.41600036621094" y1="138.424999554952" x2="46.41600036621094" y2="138.424999554952" style="visibility: inherit;" fill="rgb(0, 0, 0)" stroke="rgb(204, 204, 204)" stroke-width="1px"></line><line x1="51.41600036621094" y1="118.64999961853027" x2="46.41600036621094" y2="118.64999961853027" style="visibility: inherit;" fill="rgb(0, 0, 0)" stroke="rgb(204, 204, 204)" stroke-width="1px"></line><line x1="51.41600036621094" y1="98.87499968210857" x2="46.41600036621094" y2="98.87499968210857" style="visibility: inherit;" fill="rgb(0, 0, 0)" stroke="rgb(204, 204, 204)" stroke-width="1px"></line><line x1="51.41600036621094" y1="79.09999974568684" x2="46.41600036621094" y2="79.09999974568684" style="visibility: inherit;" fill="rgb(0, 0, 0)" stroke="rgb(204, 204, 204)" stroke-width="1px"></line><line x1="51.41600036621094" y1="59.32499980926514" x2="46.41600036621094" y2="59.32499980926514" style="visibility: inherit;" fill="rgb(0, 0, 0)" stroke="rgb(204, 204, 204)" stroke-width="1px"></line><line x1="51.41600036621094" y1="39.549999872843415" x2="46.41600036621094" y2="39.549999872843415" style="visibility: inherit;" fill="rgb(0, 0, 0)" stroke="rgb(204, 204, 204)" stroke-width="1px"></line><line x1="51.41600036621094" y1="19.77499993642172" x2="46.41600036621094" y2="19.77499993642172" style="visibility: inherit;" fill="rgb(0, 0, 0)" stroke="rgb(204, 204, 204)" stroke-width="1px"></line><line x1="51.41600036621094" y1="0" x2="46.41600036621094" y2="0" style="visibility: inherit;" fill="rgb(0, 0, 0)" stroke="rgb(204, 204, 204)" stroke-width="1px"></line></g><g transform="translate(41.41600036621094, 0)"><text style="text-anchor: end; visibility: hidden; font-family: &quot;Helvetica Neue&quot;, sans-serif; font-size: 12px; font-weight: 200;" x="0" y="177.9749994277954" dx="0em" dy="0.3em" fill="rgb(50, 49, 63)" stroke="none" stroke-width="1px">-0.5</text><text style="text-anchor: end; visibility: inherit; font-family: &quot;Helvetica Neue&quot;, sans-serif; font-size: 12px; font-weight: 200;" x="0" y="158.1999994913737" dx="0em" dy="0.3em" fill="rgb(50, 49, 63)" stroke="none" stroke-width="1px">0</text><text style="text-anchor: end; visibility: hidden; font-family: &quot;Helvetica Neue&quot;, sans-serif; font-size: 12px; font-weight: 200;" x="0" y="138.424999554952" dx="0em" dy="0.3em" fill="rgb(50, 49, 63)" stroke="none" stroke-width="1px">0.5</text><text style="text-anchor: end; visibility: inherit; font-family: &quot;Helvetica Neue&quot;, sans-serif; font-size: 12px; font-weight: 200;" x="0" y="118.64999961853027" dx="0em" dy="0.3em" fill="rgb(50, 49, 63)" stroke="none" stroke-width="1px">1</text><text style="text-anchor: end; visibility: hidden; font-family: &quot;Helvetica Neue&quot;, sans-serif; font-size: 12px; font-weight: 200;" x="0" y="98.87499968210857" dx="0em" dy="0.3em" fill="rgb(50, 49, 63)" stroke="none" stroke-width="1px">1.5</text><text style="text-anchor: end; visibility: inherit; font-family: &quot;Helvetica Neue&quot;, sans-serif; font-size: 12px; font-weight: 200;" x="0" y="79.09999974568684" dx="0em" dy="0.3em" fill="rgb(50, 49, 63)" stroke="none" stroke-width="1px">2</text><text style="text-anchor: end; visibility: hidden; font-family: &quot;Helvetica Neue&quot;, sans-serif; font-size: 12px; font-weight: 200;" x="0" y="59.32499980926514" dx="0em" dy="0.3em" fill="rgb(50, 49, 63)" stroke="none" stroke-width="1px">2.5</text><text style="text-anchor: end; visibility: inherit; font-family: &quot;Helvetica Neue&quot;, sans-serif; font-size: 12px; font-weight: 200;" x="0" y="39.549999872843415" dx="0em" dy="0.3em" fill="rgb(50, 49, 63)" stroke="none" stroke-width="1px">3</text><text style="text-anchor: end; visibility: hidden; font-family: &quot;Helvetica Neue&quot;, sans-serif; font-size: 12px; font-weight: 200;" x="0" y="19.77499993642172" dx="0em" dy="0.3em" fill="rgb(50, 49, 63)" stroke="none" stroke-width="1px">3.5</text><text style="text-anchor: end; visibility: hidden; font-family: &quot;Helvetica Neue&quot;, sans-serif; font-size: 12px; font-weight: 200;" x="0" y="0" dx="0em" dy="0.3em" fill="rgb(50, 49, 63)" stroke="none" stroke-width="1px">4</text></g><line x1="51.41600036621094" y1="0" x2="51.41600036621094" y2="177.9749994277954" fill="rgb(0, 0, 0)" stroke="rgb(204, 204, 204)" stroke-width="1px"></line></g></g><g transform="translate(51, 0)" clip-path="url(#clip_0)"><clipPath id="clip_0"><rect width="278" height="177"></rect></clipPath><g><g><g><line x1="0" y1="0" x2="0" y2="177.9749994277954" fill="rgb(0, 0, 0)" stroke="rgb(60, 60, 60)" stroke-width="1px" opacity="0.25"></line><line x1="27.858399963378908" y1="0" x2="27.858399963378908" y2="177.9749994277954" fill="rgb(0, 0, 0)" stroke="rgb(60, 60, 60)" stroke-width="1px" opacity="0.25"></line><line x1="55.716799926757815" y1="0" x2="55.716799926757815" y2="177.9749994277954" fill="rgb(0, 0, 0)" stroke="rgb(60, 60, 60)" stroke-width="1px" opacity="0.25"></line><line x1="83.57519989013672" y1="0" x2="83.57519989013672" y2="177.9749994277954" fill="rgb(0, 0, 0)" stroke="rgb(60, 60, 60)" stroke-width="1px" opacity="0.25"></line><line x1="111.43359985351563" y1="0" x2="111.43359985351563" y2="177.9749994277954" fill="rgb(0, 0, 0)" stroke="rgb(60, 60, 60)" stroke-width="1px" opacity="0.25"></line><line x1="139.29199981689453" y1="0" x2="139.29199981689453" y2="177.9749994277954" fill="rgb(0, 0, 0)" stroke="rgb(60, 60, 60)" stroke-width="1px" opacity="0.25"></line><line x1="167.15039978027343" y1="0" x2="167.15039978027343" y2="177.9749994277954" fill="rgb(0, 0, 0)" stroke="rgb(60, 60, 60)" stroke-width="1px" opacity="0.25"></line><line x1="195.00879974365233" y1="0" x2="195.00879974365233" y2="177.9749994277954" fill="rgb(0, 0, 0)" stroke="rgb(60, 60, 60)" stroke-width="1px" opacity="0.25"></line><line x1="222.86719970703126" y1="0" x2="222.86719970703126" y2="177.9749994277954" fill="rgb(0, 0, 0)" stroke="rgb(60, 60, 60)" stroke-width="1px" opacity="0.25"></line><line x1="250.72559967041016" y1="0" x2="250.72559967041016" y2="177.9749994277954" fill="rgb(0, 0, 0)" stroke="rgb(60, 60, 60)" stroke-width="1px" opacity="0.25"></line><line x1="278.58399963378906" y1="0" x2="278.58399963378906" y2="177.9749994277954" fill="rgb(0, 0, 0)" stroke="rgb(60, 60, 60)" stroke-width="1px" opacity="0.25"></line></g><g><line x1="0" y1="177.9749994277954" x2="278.58399963378906" y2="177.9749994277954" fill="rgb(0, 0, 0)" stroke="rgb(60, 60, 60)" stroke-width="1px" opacity="0.25"></line><line x1="0" y1="158.1999994913737" x2="278.58399963378906" y2="158.1999994913737" fill="rgb(0, 0, 0)" stroke="rgb(60, 60, 60)" stroke-width="1px" opacity="0.25"></line><line x1="0" y1="138.424999554952" x2="278.58399963378906" y2="138.424999554952" fill="rgb(0, 0, 0)" stroke="rgb(60, 60, 60)" stroke-width="1px" opacity="0.25"></line><line x1="0" y1="118.64999961853027" x2="278.58399963378906" y2="118.64999961853027" fill="rgb(0, 0, 0)" stroke="rgb(60, 60, 60)" stroke-width="1px" opacity="0.25"></line><line x1="0" y1="98.87499968210857" x2="278.58399963378906" y2="98.87499968210857" fill="rgb(0, 0, 0)" stroke="rgb(60, 60, 60)" stroke-width="1px" opacity="0.25"></line><line x1="0" y1="79.09999974568684" x2="278.58399963378906" y2="79.09999974568684" fill="rgb(0, 0, 0)" stroke="rgb(60, 60, 60)" stroke-width="1px" opacity="0.25"></line><line x1="0" y1="59.32499980926514" x2="278.58399963378906" y2="59.32499980926514" fill="rgb(0, 0, 0)" stroke="rgb(60, 60, 60)" stroke-width="1px" opacity="0.25"></line><line x1="0" y1="39.549999872843415" x2="278.58399963378906" y2="39.549999872843415" fill="rgb(0, 0, 0)" stroke="rgb(60, 60, 60)" stroke-width="1px" opacity="0.25"></line><line x1="0" y1="19.77499993642172" x2="278.58399963378906" y2="19.77499993642172" fill="rgb(0, 0, 0)" stroke="rgb(60, 60, 60)" stroke-width="1px" opacity="0.25"></line><line x1="0" y1="0" x2="278.58399963378906" y2="0" fill="rgb(0, 0, 0)" stroke="rgb(60, 60, 60)" stroke-width="1px" opacity="0.25"></line></g></g></g><g><g><line x1="0" y1="158.1999994913737" x2="278.58399963378906" y2="158.1999994913737" fill="rgb(0, 0, 0)" stroke="rgb(153, 153, 153)" stroke-width="1.5px"></line></g></g><g><g><line x1="27.858399963378908" y1="0" x2="27.858399963378908" y2="177.9749994277954" fill="rgb(0, 0, 0)" stroke="rgb(153, 153, 153)" stroke-width="1.5px"></line></g></g><g><g><g><g><g><path style="fill: none;" stroke="rgb(0, 153, 136)" stroke-width="2px" d="M29.156601401672365,-0.6509152629905657L30.00628260055542,2.2598819898427394L30.036926840515136,-4.5627622934510725L30.162289640350345,8.935539932132684L31.025900039215088,2.1485578467909363L31.095546039123533,10.837856996977592L31.37691587875366,-2.1371670654249613L31.44656187866211,-4.263546834589448L31.544066278533936,6.748707928417531L31.627641478424074,8.658559127626177L32.1151634777832,16.45491719915981L32.143021877746584,-2.863159647319378L32.24331211761474,23.750354344779367L32.64725891708374,9.831696454863362L32.92584291671753,22.722722934146674L33.666876355743405,30.951496942667433L33.680805555725094,38.64087784979969L33.95938955535888,13.60855141079142L34.2101151550293,29.69169349661024L34.3939805947876,6.436489251423751L35.25759099365234,48.54264458308231L35.62253603317261,22.74142154296183L35.84540323287964,15.782380196374419L35.942907632751464,22.43755736289708L35.95683683273315,34.46461947804528L36.416500432128906,34.19680410357827L36.600365871887206,46.182423764998475L36.711799471740726,2.0926411799861455L36.78144547164917,27.147551163176104L36.80930387161255,53.367838032324926L36.97645427139282,27.665944868784806L37.115746271209716,8.075045607354099L37.703558510437006,-0.005205059034778969L37.814992110290525,12.89928668166462L37.926425710144045,15.880785986386996L38.28858490966797,60.075876722305864L38.41394770950318,18.14702342874685L38.469664509429926,3.8123097058751227L38.49752290939331,48.58734962816183L38.692531709136965,-0.8174960110130485L38.72039010910034,11.037893450535194L38.80675114898682,53.2106867390756L38.91818474884033,8.78894962822929L39.001759948730474,26.325774179696054L39.391777548217775,54.08218523757448L40.39746578689575,50.69000488911706L40.857129386291504,26.22450183543242L40.89891698623657,33.3307841183026L41.12457002593994,64.10118838205169L41.24993282577515,67.89578957186284L41.263862025756836,59.28930932294875L41.34743722564697,65.670909718138L41.431012425537105,20.325962978816875L41.68173802520752,26.675342927046273L41.72352562515258,20.497324460409345L41.84888842498779,22.68697587110168L42.52027586410522,62.54374419608L42.56206346405029,24.41849722164048L42.64563866394043,52.41667949990247L42.729213863830566,71.57889688843625L42.9381518635559,25.660243261807096L43.02172706344605,24.04495880025692L43.091373063354496,28.424091891455646L43.80454810241699,77.84218591458678L43.87419410232544,7.714642416469502L43.888123302307136,65.12137995286837L44.13884890197754,17.946402348993303L44.30878514175415,22.844702361092146L44.489864741516115,55.3494285234477L45.019174340820314,22.102245951163837L45.255970740509035,7.859884308340355L45.52341138015747,20.668271045991787L46.0109333795166,87.18686988932647L46.052720979461675,39.79399644455347L46.24772977920532,33.93099720297792L46.30344657913208,54.23871418680878L46.96090481826782,66.4198347340407L47.058409218139644,35.327093988326254L47.36485161773682,69.76570703010718L47.52085865753174,94.9797202036845L47.66015065734864,72.27639365800617L48.07802665679932,23.749213380751826L48.2312478565979,59.36984629616623L48.342681456451416,38.24779216867137L48.42625665634156,28.545043507830854L48.86084769577026,33.71306364426087L49.26479449523926,40.02265129334759L49.48766169494629,58.53317077414461L49.69938553466797,48.30340988603271L49.75510233459473,15.84248354109846L49.991898734283446,23.133422836791254L50.47942073364258,85.88939577145054L50.5908543334961,23.278806170483676L51.053303772888185,21.845312167505057L51.178666572723394,31.411852354147413L51.26224177261353,31.66512750935422L51.33188777252197,25.902052200009763L51.4293921723938,54.345116154469L51.554754972229006,40.03904911519808L51.74976377197266,85.63538511877141L51.77762217193604,29.415429330666484L51.819409771881105,75.32441776615315L51.93362921173096,50.5550976796776L52.42115121109009,59.51723810372536L52.755452010650636,47.52599848726035L53.03682185028076,19.76445780598533L53.28754744995118,79.88222959584832L53.41291024978638,102.32351630810815L53.593989849548336,89.72293118002001L53.63577744949341,86.85186964960076L53.74721104934692,63.197252559133176L54.29323568862915,32.11168762850107L54.53003208831787,63.59255416213318L54.669324088134765,39.81883362842595L54.71111168807984,65.18767844937838L54.98969568771363,67.49830033535545L55.2014195274353,39.767575112279104L55.452145127105716,23.378994127448408L55.619295526885985,73.90499250969606L55.85609192657471,77.40151920467315L55.93966712646485,81.38659538090194L56.443904165802,112.88196913070253L56.48569176574707,43.663090327072496L56.49962096572876,50.31432598149998L56.61105456558228,50.1441997584828L56.666771365509035,86.48452638000315L56.76427576538086,23.768817217225205L57.49138000442505,79.85159329729035L57.58888440429687,28.45011718662954L57.71424720413208,21.32692789135112L58.02068960372925,107.0013745265203L58.076406403656,39.82915888140255L58.18784000350952,64.6334905334508L58.29927360336304,31.968284480311013L58.35499040328979,66.71365654477206L58.62243104293823,48.09904531273423L58.692077042846684,92.94945486702272L58.706006242828366,36.35685645573767L58.77565224273682,46.56210076143938L58.94280264251709,25.352239551096915L58.98459024246216,91.16105504529226L59.05423624237061,26.81418221912614L59.318891042022706,17.721283545739112L59.530614881744384,44.19325199223809L59.669906881561275,21.954222370134943L59.83705728134156,57.69943724201221L60.19921648086548,34.44773132454657L60.32457928070069,58.94648263576134L60.80095792007446,96.750680248812L60.81488712005615,33.01127647276917L60.842745520019534,21.013521103055922L61.45563031921387,26.55638092562822L61.56706391906739,49.63928074374493L61.681283358917234,31.282074768104536L61.70914175888062,50.74002814668863L61.778787758789065,72.54810339729451L62.127017758331306,48.09390625988286L62.14094695831299,48.13663111946002L62.280238958129885,40.25617174080466L62.30809735809326,50.28688626811012L62.37774335800171,62.61799172296378L62.57275215774536,22.927398679452693L62.6563273576355,24.496554248252636L62.77054679748535,32.88056537070375L62.97948479721069,41.45622073196441L63.06305999710083,43.71555581343031L63.71773239624024,74.50539418346686L63.80130759613037,85.30805574050365L64.02696063583375,93.64031330043235L64.11053583572388,109.58409275943139L64.89057103469848,35.2931102333238L64.94907367462157,47.43135504970223L65.13015327438355,64.10520532978505L65.64553367370605,46.048148329028805L65.8405424734497,30.253726718909093L66.3169211128235,62.97799887674789L67.46190135131836,47.86832541334479L67.71262695098876,45.296083304686675L67.7962021508789,47.199720493199806L68.13050295043945,59.92052645491822L68.77403198959351,58.16753423586094L68.88546558944702,105.81655881954657L69.37577342880249,78.40797205988534L69.59864062850951,45.33359367577427L69.6404282284546,82.32314768788076L69.75186182830811,43.38854232189746L69.79364942825316,109.41971850382583L70.18366702774047,59.3906853912149L70.59039966720582,100.84596789242937L71.37043486618042,65.15426989111711L71.44286670608521,85.87381831216528L71.66573390579224,39.95208125382533L71.91645950546264,34.10775233270064L71.93038870544433,90.30887749962358L72.40398150482179,54.55916477781952L72.53213014465331,46.24176332388592L72.57391774459839,37.93577151022782L72.58784694458008,116.98225438534965L72.61570534454346,63.01912072901359L72.62963454452515,43.04142523278824L72.97786454406739,72.2947150886304L73.43752814346314,97.76834001102209L73.98355278274535,47.21778732854514L74.41535798217774,66.5075663812501L74.780303021698,61.026771229994665L74.84994902160643,115.3317273365848L75.15639142120362,29.91004195133732L75.42104622085571,42.802482848836604L75.62998422058105,89.29183536670114L75.84170806030274,52.44442095584509L76.24565485977172,102.80749721852226L76.28744245971679,47.74892965700715L76.63567245925903,36.2359614160911L77.22348469848633,36.352764072366114L77.50206869812011,27.968253188812014L77.75279429779053,42.92896012570887L77.78065269775391,33.05675473314008L77.80851109771729,38.2460948668122L77.89208629760742,33.36761556864653L78.27096053710937,88.76520503234806L78.46596933685304,46.6787619758928L79.23486117584228,107.25330126969455L79.29057797576904,90.84842618701585L79.44379917556762,115.20074278033098L79.875604375,110.93192488052334L79.98703797485351,30.78136129019549L80.15697421463013,32.03615769576814L80.22662021453858,30.695496675031194L80.4494874142456,98.48222517298775L80.51913341415406,88.51845034511689L80.54699181411743,73.6856916800369L80.68628381393432,74.86172384988943L80.74200061386108,109.84015431852367L81.14594741333008,33.93028056441517L81.30195445312499,51.834608686210686L82.02627285217285,75.03914847090104L82.17949405197143,71.18650898696114L82.4051470916748,67.8258795941747L82.79516469116211,40.72996412533635L83.15732389068603,86.68800458455294L83.3244742904663,50.716247061750735L83.46655213027954,80.7104846147575L83.50833973022462,53.02395524620292L84.30230412918091,111.4092815989593L84.37195012908936,46.49921572755724L84.51402796890258,100.83273836738265L85.53085956756593,129.27669104795424L85.67293740737915,88.96061162361207L85.68686660736084,91.05542629292343L85.71472500732422,56.78385604244886L85.78437100723266,56.39926630007115L85.79830020721435,57.326888913379804L86.1465302067566,71.69919787243211L86.21617620666504,111.0064647205051L86.2579638066101,37.5783385975968L86.36939740646362,83.86079944828361L86.6479814060974,37.140161263743266L86.67862564605714,70.41152095806547L86.69255484603883,32.43799391092594L86.90149284576415,88.26813603870885L87.20793524536133,41.956076129489105L87.3890148451233,41.64109462224678L87.41687324508668,92.91292515923153L87.59795284484863,43.33469070568799L88.10218988418579,38.20157841082815L88.43649068374634,42.452970678215024L88.53399508361817,31.04700789006469L88.6175702835083,124.49631343988472L88.9407277230835,41.02146629019353L88.98251532302857,58.5796391272667L89.80433812194823,80.71010743656657L90.02999116165161,81.6359856007422L90.3225043612671,98.48400733993988L90.36429196121216,75.61826786524884L90.9911059603882,103.2072118063561L91.03289356033325,100.08525134333286L91.24461740005493,52.307052658709836L91.6764225994873,39.28569225555202L92.0664401989746,55.37402997095084L92.16673043884278,90.73965271148018L92.22244723876953,48.445690929104785L92.33388083862305,95.03366611444169L92.48710203842164,113.22423005060357L92.84926123794556,103.3351506487182L92.918907237854,83.30847856440111L93.14177443756104,85.92151249440788L93.35349827728271,121.74786310988074L93.46493187713624,48.899040255688305L93.59029467697144,68.4917405429807L93.71565747680664,45.31081211304232L93.86887867660523,55.97968385103029L93.88280787658692,29.47534408629508L94.04995827636719,56.77089997159055L94.07781667633057,69.19543246433659L94.5959829156494,55.18388501545026L94.7631333154297,43.36115918523623L95.02778811508179,74.5720698581678L95.34815971466065,50.16416191423757L95.6156003543091,82.75961357569297L96.28420195343017,122.99783634933692L96.40956475326537,103.05919765478195L96.45135235321045,58.981088734778794L97.17845659225463,93.50517978407834L97.22024419219971,46.75509341228144L97.4988281918335,43.12050064051587L97.52668659179687,32.15517627391486L97.54061579177856,102.75427737578259L97.87770243133545,37.74410841250878L98.26772003082276,34.75918621570372L98.54630403045654,65.08937638336829L98.65773763031007,91.30619792788798L99.07839946975709,30.85604257199884L99.3151958694458,49.882541817982656L99.5659214691162,103.89691984628341L99.67735506896973,48.541805361607516L100.09801690841675,108.13010383650332L100.79447690750122,74.26352866853556L101.18728034698486,78.82063328912272L101.34050154678344,65.47725700546182L101.56336874649048,73.7905566465691L101.75837754623413,67.36873019731759L102.03974738586426,87.89772348158256L102.59691538513184,37.15723800633745L102.903357784729,66.22947290108036L102.97300378463746,46.719968693251445L103.47724082397461,122.38159319154724L103.63046202377319,44.51383459561566L103.90904602340697,102.4651702924378L103.93690442337035,107.30659183334501L104.37149546279906,122.6553609093398L104.70579626235963,70.00745939158121L104.8729466621399,38.24761300903069L104.90080506210327,120.41925764707125L104.98438026199341,74.32443351691532L105.48861730133056,83.5197973605948L105.87863490081787,41.31187463829701L105.90649330078125,108.8525179403113L105.962210100708,86.93868663969715L106.17114810043336,79.89356380048564L106.73110193969727,33.193066931340724L106.77288953964234,103.29023815563369L107.49999377868653,109.10817403284834L107.54178137863158,97.99192652787565L107.68107337844849,49.01077929475014L107.93179897811889,117.79150905289097L107.94572817810058,72.16433401748206L108.18252457778931,100.36874790108762L108.22431217773438,35.32285073367834L108.68676161712646,52.487777588892044L108.71462001708984,43.07259901026828L108.81212441696167,105.3284902404883L109.3135756163025,92.3356445085645L109.59494545593263,117.58200071201372L109.92924625549317,58.358452406652916L109.9988922554016,90.89987800698555L110.08246745529175,93.27266357355461L110.45855585479737,96.23278158957889L110.7259964944458,40.231428851479905L110.79564249435425,103.94442543943053L111.00458049407959,51.02175196694603L111.07422649398804,36.181704333326394L111.67318209320068,86.35495624196528L112.01026873275757,50.52897808995597L112.03812713272096,96.66244412577225L112.26099433242798,58.05777538230147L112.28885273239135,53.05839161503445L112.3724279322815,76.15661429715753L112.40028633224487,119.69067196511423L112.65101193191529,38.75259802995197L112.96024017150879,67.68996343307451L113.085602971344,50.34359500911583L113.3502577709961,70.94813237029591L113.50347897079469,92.10670677612718L113.53133737075805,118.64334242346044L113.6149125706482,60.561842532949726L113.79599217041016,38.97104077922677L114.03557441009521,97.93791932566243L114.5788132093811,78.47018760247859L114.89918480895996,55.17318258428273L114.95490160888671,38.36914925160181L114.9688308088684,62.110828497989885L115.2919882484436,97.53539476030619L115.44520944824218,73.29347350874772L115.59843064804076,67.77342353727167L115.6959350479126,41.583009180844186L115.77951024780275,83.86371314980852L116.10266768737793,54.518995300485884L116.92449048629761,126.81957079525782L117.41479832565308,116.41795809390524L117.42872752563477,63.61033811383534L117.48444432556151,54.75633467712608L117.76302832519531,113.24631854840966L117.776957525177,38.58360334150757L117.79088672515869,45.73023426135205L117.9023203250122,126.05161242489551L118.50406176422119,49.846832472756745L118.60156616409301,42.56415337944523L118.64335376403808,43.63012495318557L118.90800856369019,82.44392014461528L119.64904200271606,88.40777683444443L119.77440480255126,56.91506690561725L119.80226320251464,77.42747849366363L119.85798000244141,38.62685625055201L119.94155520233154,56.24206785954796L119.98334280227661,85.75743998135508L120.08084720214843,72.72700844270548L120.19228080200195,62.70012227403791L120.23406840194701,117.84994338412018L120.4012188017273,82.696596529444L120.76616384124756,88.95412415872813L120.8218806411743,46.568569367413744L120.97510184097291,93.54632992470836L121.12832304077149,126.8816684696664L122.06436527954101,120.73942299707508L122.25937407928465,38.565753383621995L122.37080767913818,49.644042618405365L122.56581647888184,118.34789874650808L122.57974567886353,62.897933376269066L122.9307615184021,112.82286530818442L123.12577031814574,57.745170097662L123.474000317688,46.2593964043117L123.86680375717164,131.33801465127507L123.9085913571167,124.21863957045238L124.27075055664062,27.91112955179628L124.52147615631104,115.11099794452753L124.5771929562378,51.316639306066776L124.91427959579468,35.82514835998927L125.63859799484253,106.48526746369407L125.84753599456786,50.72902397296836L125.94782623443604,86.9979837660381L125.96175543441773,72.3869728741309L126.26819783401488,41.273836217742115L126.5189234336853,49.88462572748753L127.06494807296754,50.99500060375462L127.35746127258301,101.09202480000734L127.66390367218018,61.105686336991155L127.78926647201538,100.76117352038182L128.51637071105958,126.53968336131747L128.66959191085814,48.85638140229457L128.92031751052858,100.59519625746482L129.05960951034547,89.37494658107168L129.07353871032714,65.44615866361998L129.32705014999388,62.55521041308414L129.64742174957277,43.949415721259214L129.91207654922485,82.5828443017881L130.31880918869018,53.083945437469694L130.4441719885254,40.22764764011586L130.48595958847045,113.4513714719066L130.5834639883423,116.0539575660247L130.72275598815918,90.7782380404119L130.76454358810423,41.478955147422454L130.8341895880127,87.43351142310037L130.97348158782958,78.45097037365092L131.30778238739012,31.43572773363303L131.42200182724,40.6211859350733L131.6866566268921,41.17825926416148L131.92345302658083,116.29117435975286L132.7759200654602,52.62412750491178L133.26344206481934,41.7628477422777L133.50023846450807,105.50822507791933L133.6283871043396,132.31499810295747L133.69803310424805,77.26329282715355L133.85125430404662,122.74298647518299L133.93482950393675,97.62476713264611L134.0323339038086,75.4556003409572L134.283059503479,48.6179104910816L134.35270550338745,71.5729374730196L134.42235150329589,43.81605494240253L134.66193374298095,74.44783679153154L134.81515494277954,115.91206313059834L134.85694254272462,40.74101544633049L135.1355265423584,78.05460324226154L135.24696014221192,68.65929252484482L135.3862521420288,79.55975167206134L135.8626307814026,123.11287098284197L135.93227678131103,67.10748715282747L136.78195798019408,129.42048080378999L136.7847438201904,51.56429450622878L137.2304782196045,42.33841223217601L137.82943381881714,58.33805649597858L137.9297240586853,58.689926030293464L138.04115765853882,74.34357531010482L138.0550868585205,120.42333588626062L138.52867965789795,52.477631495556125L138.68190085769652,124.03931255694029L138.84905125747682,56.06001337624275L139.07470429718018,59.84154534173831L139.91045629608155,46.797846560222894L140.23361373565675,49.39416206691689L140.65148973510742,65.21504272713007L140.70720653503417,55.85902454775305L140.90221533477782,73.91488400775309L141.13901173446655,102.90099026259804L141.21144357437132,95.31795474639739L141.7964699736023,41.840414437241634L142.0193371733093,72.07847883177251L142.1725583731079,53.499312920226956L142.28677781295778,132.3122800626191L142.39821141281126,80.76915468235606L142.67679541244507,58.95039585949219L142.70465381240845,135.25046516684105L142.7464414123535,80.98472616265242L142.77429981231688,82.5252491920337L142.85787501220705,101.0021668107466L143.13645901184083,110.39786885053643L143.17824661178588,81.46132852470653L143.24789261169434,133.0458609982422L143.3621120515442,41.151507900970046L144.33715605026245,59.012413383535204L144.6045966899109,64.02727088608496L144.6185258898926,41.02259782476631L144.64638428985597,120.16168737521525L144.84139308959962,50.760631505367954L144.89710988952638,65.15769278319976L145.02247268936156,56.677246626783614L145.03640188934327,83.03136103280039L145.10604788925173,87.29660045452162L145.17569388916016,65.39988832904812L145.38463188888548,57.533780580557504L145.80529372833252,58.64775750854794L145.97244412811278,51.42731281673923L146.06994852798462,97.79199851304793L146.13959452789308,56.30640502946517L146.3346033276367,83.01499621404157L146.45996612747194,61.043206769664266L146.8109819670105,69.58800895490717L146.90848636688233,87.92856251341814L146.92241556686403,48.94814885614687L147.04777836669922,118.53820871746719L147.5770879660034,50.42506549835585L147.67737820587158,89.15021438546319L147.69130740585328,48.78847989847313L147.74702420578004,90.98591235233577L148.19275860519411,107.73664097718408L148.83628764434812,90.41470427054264L148.8920044442749,90.11586598987196L149.21237604385377,60.66979093119275L149.46310164352417,42.450217277421274L149.50488924346925,38.806402498887564L149.79740244308474,79.50412731835452L149.93948028289796,51.80039862429369L150.2737810824585,54.74422725719735L150.3712854823303,42.37704470838162L150.60808188201904,50.6137866061857L150.6359402819824,81.20446546195853L150.67772788192747,87.55924848777295L150.9590977215576,135.56387902722733L150.986956121521,128.83111866419486L151.05660212142945,50.464593772764914L151.20982332122804,54.52929226509818L151.37697372100828,120.82155119078553L151.613770120697,50.323529129358576L151.86449572036744,56.69195657622974L151.94807092025755,46.132796544527395L152.0762195600891,53.24530226754783L152.32694515975953,49.58158190998802L152.3408743597412,76.82514378166434L152.71696275924683,45.50349359187689L152.82839635910034,49.445477159792375L152.96768835891723,91.15179060597764L153.12090955871582,100.08187088379668L153.40227939834594,126.25127877235327L153.65300499801634,121.16301767912194L154.09873939743042,47.48701712122815L154.19624379730223,45.04650449575092L154.90941883636475,81.04827125836869L154.93727723632813,73.8647287378147L155.07656923614502,101.09472633879984L155.17407363601686,55.51621671947517L155.5390186755371,47.79725561271957L155.8315318751526,112.21163390560666L155.97082387496948,54.95923768493472L156.1936910746765,112.75720329987159L156.2215494746399,42.26513593913387L156.3190538745117,41.952426930491896L156.7536449139404,112.7086981845185L156.8232909138489,87.66344867774365L156.97651211364746,51.0443826584016L157.0461581135559,117.97012649993135L157.6339703527832,70.08527125236924L157.67575795272828,62.27181757933188L157.95434195236206,109.68278143308719L158.0379171522522,65.65093813292849L158.05184635223387,43.00226470711536L158.4140055517578,86.9599170571189L158.51150995162965,75.69045977099206L159.37790619049073,101.8270885173935L159.50326899032592,45.561607321643805L159.60077339019773,92.19058177633435L159.6425609901428,77.60564804160231L159.72892203002928,76.60701220439705L159.77070962997436,43.639686420325546L160.07715202957152,127.19842271440606L160.23037322937012,95.23041640301085L160.3835944291687,57.17543301081348L160.55074482894898,85.95717940708732L160.56467402893065,132.1085260465172L160.60646162887573,132.64271173150723L160.92961906845093,82.12085759463237L161.01319426834107,60.15317939253616L161.3335658679199,42.07624510111813L161.47285786773682,88.21146501552221L161.58429146759033,46.72476828573099L162.42282930648804,62.1520917920772L162.54819210632323,75.06751227085866L162.67355490615844,92.79476937619658L163.14993354553224,53.865628379254304L163.53995114501953,51.94942172752856L163.5817387449646,83.12600918508588L164.1277633842468,70.9229180082325L164.46206418380737,98.97098210224446L165.35631882263183,67.6553384751475L165.94134522186278,46.24280056391095L166.43165306121824,83.98257142722409L166.50129906112673,60.85863462193461L166.5152282611084,114.20973537203722L166.54308666107178,120.08754592969765L166.73809546081546,104.91097284204277L166.9052458605957,80.5393117222605L167.22561746017456,109.21184617335173L167.29804930007936,70.95219646530313L167.5069872998047,45.510659977504474L167.5905624996948,59.21844697032853L167.7298544995117,50.01883515727377L168.06415529907227,120.22288453669299L168.30095169876097,70.69421601216452L168.59625073837282,54.24812478267238L169.02805593780516,38.967797046784796L169.125560337677,89.05262895801586L169.27878153747557,63.429669760381785L169.54622217712404,84.16605918765481L169.64372657699585,74.95916783551517L169.71337257690428,51.757843494902474L170.29839897613525,73.58659753982587L170.78870681549074,134.19612718292709L171.17872441497803,78.70841334786746L171.2065828149414,55.00700730281551L171.2205120149231,110.71292579341691L171.24837041488647,49.44453421431504L171.3319456147766,78.65558954222828L171.45730841461182,51.5380900514142L171.54088361450195,49.731114203780635L171.61052961441038,67.50733375302813L172.00333305389404,74.64439377627787L172.1983418536377,108.58172757286336L172.35156305343628,81.56234155896391L172.49085505325317,98.85185980009526L172.54657185317993,55.389088810223555L172.5605010531616,49.97859967375673L172.93937529266358,89.43708197329936L173.06473809249877,60.874296946312825L173.38510969207766,120.3381831949317L173.39903889205934,79.61728077563234L173.56618929183958,103.87756589036151L173.9868511312866,66.38134369965671L174.11221393112183,46.67012459532057L174.34901033081053,50.17431743702825L174.41865633071902,47.62173574157214L174.5440191305542,96.43242672076342L174.65545273040772,52.541374609822626L174.76688633026123,75.28172119494032L174.9925393699646,49.96082515150934L175.4104153694153,121.7767408151235L175.54970736923218,134.59509212910646L176.05394440856932,114.38351079405159L176.17930720840454,116.55871628003146L176.19323640838624,70.53227455589042L176.27681160827638,113.56074371782036L176.4996788079834,54.021610420111756L176.5971832078552,125.41897144525532L176.98720080734253,127.93641427749928L177.00113000732424,119.14382487972753L177.11534944717405,65.95224693074972L177.1849954470825,116.27447008062222L177.3382166468811,85.2941331505311L177.46357944671632,55.97495969418894L177.65858824645994,48.286748039448554L178.17675448577882,102.4954812748061L178.2185420857239,81.03440995985216L178.34390488555908,56.73550179837214L178.6921348851013,72.92488555112004L178.74785168502808,69.60694330009164L178.87321448486327,80.05709883461638L179.06822328460694,86.84989889355317L179.15179848449708,83.8833169862819L179.17965688446043,58.416830161153484L179.64210632385252,136.65200039022977L179.72568152374268,71.49141983650573L179.8092567236328,121.46412374366555L179.8371151235962,46.205139321546994L179.85104432357787,112.29236418264698L179.99033632339479,58.516084602095674L180.05998232330322,53.31106328513579L180.25499112304686,93.53767368522661L180.3692105628967,95.72181357960403L180.59207776260376,51.94172729243367L180.94030776214598,60.19433896262096L181.20496256179808,97.8911869478067L181.3303253616333,106.11956491922699L181.56990760131836,59.0001928101492L181.94599600082395,48.48932101634014L182.26636760040282,102.57917711537259L182.29422600036622,47.93118215886261L182.30815520034793,43.99151823682132L183.0074010394287,51.487425590918065L183.11883463928223,48.85194955855118L183.1606222392273,50.15692952242655L183.2859850390625,73.53360400400076L183.80415127838137,87.93665298561352L184.23595647781372,45.37574333861025L184.5145404774475,91.59679957981432L184.76805191711426,123.49912502398713L185.19985711654664,74.23569291804522L185.31129071640012,58.17405941856396L185.33914911636353,137.2470131305977L185.80159855575562,128.45644635087484L185.8433861557007,66.85854954681629L186.03839495544432,73.32591083316734L186.233403755188,45.41819474399895L186.3169789550781,67.89052793609942L186.70699655456542,56.21235564755776L186.7487841545105,62.524904145443244L186.76271335449218,123.19909391728766L186.8462885543823,87.17824193820904L186.8741469543457,63.233650254557546L187.09979999404908,100.84063082102777L187.2112335939026,57.83895545483574L187.33659639373778,110.54122956618001L187.54553439346313,67.7124809710728L187.76840159317015,124.37811993903065L188.3004970324707,50.76777903208601L188.46764743225097,139.25557657709908L188.49550583221435,44.91104094847984L188.63479783203127,118.48416379743489L188.78801903182983,74.04228537119313L188.88552343170164,65.68141413075531L188.98302783157348,94.59866650684671L189.01088623153686,50.698661128598815L189.23653927124025,142.54769155150382L189.50119407089232,51.71480746331781L190.00264527023316,65.53561590105286L190.3675903097534,120.92636429531649L190.45116550964357,102.63275056266623L190.57652830947876,105.32339362018342L190.99440430892946,108.6169371569863L191.30363254852296,87.16297565093132L191.31756174850463,111.68897337171309L191.56828734817503,82.04535595026377L191.95830494766236,89.70591101415448L192.02795094757082,126.9831624061172L192.20903054733276,100.11708518264702L192.39289598709104,57.69594834374615L192.50432958694458,100.04398804924556L192.573975586853,51.75766433526178L192.6018339868164,63.455006705357235L192.6157631867981,55.10957148238306L192.89434718643187,106.81626018514119L192.96399318634036,132.04493616089076L193.15900198608398,86.07331257207345L193.2982939859009,88.84475191281437L193.36793998580933,123.29482645687207L193.4543010256958,128.4053457780954L193.7189558253479,56.489996513898404L193.88610622512817,70.2817433720226L194.3736282244873,126.34893256334772L194.4989910243225,80.46258424877139L195.15644926345826,63.12998282878152L195.2260952633667,70.84079688661313L195.43503326309204,122.02477790820384L195.58825446289063,102.35938123933784L195.63282790283202,78.50889551432238L195.85569510253907,53.575955528623126L196.03677470230105,109.76568519945272L196.31535870193483,42.295800526056155L196.44072150177,109.08909824584225L196.55215510162353,115.10713658279792L197.04246294097902,84.57772560941362L197.3210469406128,59.09426105096615L197.36283454055786,63.86603663891886L197.5857017402649,100.82503450283298L197.7974255799866,133.00703521821376L198.7863987786865,121.9801506561262L198.90061821853638,138.45176977705296L198.91454741851805,62.26087941179503L199.33242341796876,51.01538708497415L199.59707821762086,45.525030466578755L199.63886581756591,93.75781373636057L199.9453082171631,69.5076417118756L200.54704965637205,111.15614788557407L200.83956285598754,86.68058360364648L200.9231380558777,51.06640986475168L200.95099645584108,144.6762895999037L201.2323662954712,96.77899218676839L201.53880869506835,102.7483745370946L201.94275549453735,53.37258104807583L202.5723553337097,51.03485890908071L202.79522253341673,54.79099735287218L202.96237293319703,119.82695351758687L203.77305237213136,93.26878806764284L203.99591957183839,64.60051573010908L204.41658141128542,61.097907036803306L204.5280150111389,129.12431341618384L204.8205282107544,126.96044684956868L205.16875821029663,105.64430625447805L205.2384042102051,147.05555673794746L205.4083404499817,113.29824184111801L205.58942004974364,87.71761618068801L205.6729952496338,124.27218708674539L206.25802164886477,129.53938387111575L206.27195084884644,140.63669231617655L206.34159684875488,80.61809481689019L206.53939148849486,127.18597111937811L207.34728508743285,71.53980236894677L207.58408148712158,102.36556224694164L207.94902652664183,86.64123920360551L207.96295572662356,138.88928704907235L208.07438932647705,128.02042364743696L208.24153972625734,110.86277868867182L208.2833273262024,72.72515084011516L208.40869012603758,82.21694373877078L208.61762812576293,79.7471620856777L208.6733449256897,145.79550576870244L208.89899796539305,123.61135439469717L209.14972356506348,103.0327008868694L209.40044916473389,100.79480838555764L209.60938716445924,140.8368360297822L209.74867916427613,129.31233910172412L209.77932340423584,73.87340383620601L209.9464738040161,65.94945581213688L209.96040300399778,87.0798172892869L210.01611980392457,77.46853433974593L210.40613740341186,59.98064865855183L210.76829660293578,61.43346361436063L211.2168168423462,124.94657933475742L211.42575484207154,96.23333321268312L211.92720604141235,124.34377079265576L211.98570868133544,137.2147526084551L212.65431028045654,55.549314105728925L212.7100270803833,71.08703766855918L212.98861108001708,87.68440092624958L213.65999851913452,140.9881870296642L214.02215771865843,94.12695803181987L214.06394531860352,59.448195635876345L214.63782835784912,117.96398792487403L214.86069555755614,61.926416650991385L215.33707419692993,110.39108907255452L215.54601219665525,127.68147953825239L215.6574457965088,149.58345565685298L215.74102099639893,92.90672057799081L216.20068459579468,63.923320576665745L216.42633763549804,76.67374445582664L216.46812523544313,78.45500618029382L216.50991283538818,76.63980784809806L216.69099243515015,90.49290273897638L217.06708083465577,137.45111603652626L217.31780643432617,71.62854296781688L217.40416747421264,118.79365736199921L217.50167187408448,105.26998990307568L217.80811427368164,93.45196937079345L218.10062747329712,131.93574307461768L218.2817070730591,53.98790954875251L218.75808571243286,148.27642242920078L219.07845731201172,65.03027256085018L219.12024491195677,140.85426048352113L219.30132451171875,69.94724289339987L219.3570413116455,61.26085744473812L219.44061651153564,72.65217628962576L220.02842875076294,82.23077674892299L220.04235795074464,65.03966429780425L220.30701275039672,131.22584657202106L220.3488003503418,113.38071185256399L220.4602339501953,94.50853506339756L220.474163150177,61.0734658900313L220.4880923501587,68.39370250170427L220.57166755004883,61.82247577102696L220.83910818969727,65.95869667781456L220.86696658966065,147.81507221024222L221.11769218933105,133.5541062531513L221.80300882843017,124.0048196113801L221.99801762817384,103.51365494230133L222.08159282806398,58.22028260586194L222.5551856274414,70.15736886356476L223.11513946670533,103.34400490675019L223.50515706619262,138.10022555892775L223.88124546569824,67.62714440537577L223.93974810562133,62.37754062624845L224.0233233055115,73.02009475596454L224.34369490509033,113.2709247106402L224.69192490463257,70.91759979574044L224.85907530441284,94.32347258401971L224.87300450439454,102.24027779609817L224.95657970428468,65.06701914610115L225.07079914413453,73.0654127156043L225.30759554382325,57.35528100170177L225.4747459436035,84.89003386622775L225.55832114349366,90.81245753178366L225.83690514312747,63.484954653716756L225.8926219430542,51.54685001489845L226.2157793826294,103.69328134100245L226.24363778259277,122.58517983482693L226.369000582428,62.42666808561657L227.06546058151244,104.98843581300419L227.38861802108764,138.68557310815322L227.40254722106934,70.37892333291468L227.7089896206665,114.97655749309934L228.19651162002563,91.75800082388871L228.21044082000734,64.64440041262333L228.5335982595825,82.58817665846232L228.56145665954588,109.20558973010975L228.57538585952761,89.62163526211945L228.99326185897826,66.68312397021661L229.3414918585205,59.3423971533216L229.39999449844362,94.38446701221983L229.60893249816897,64.73311272312912L229.69250769805907,127.74183512089164L230.11038369750975,87.33911786609376L230.12431289749145,112.10694338398775L230.23574649734496,95.86169482643633L230.29146329727172,60.57521349981805L230.37503849716185,86.59729322963524L230.58676233688354,72.09554614491192L231.1857179360962,58.21596391557584L231.35286833587645,144.35693282564662L231.50608953567504,71.93947923896151L231.6342381755066,73.01485197911067L231.6481673754883,62.238352444341984L231.70388417541506,124.53897229327845L231.75960097534178,103.94927217918394L231.81531777526854,83.0977962564046L232.05211417495727,124.83174979189369L232.1356893748474,79.17605772788708L232.1914061747742,73.5018738886891L232.21926457473756,131.99731034219528L232.56749457427978,64.87351730470132L232.82100601394652,143.84645161127443L232.91851041381838,129.70987548550536L232.93243961380006,150.8843208424017L233.15530681350705,73.00821364295037L233.19709441345216,148.8939403314076L233.6428288128662,100.66650179445939L233.6567580128479,87.29993848151132L233.6706872128296,59.74071618184901L233.9938446524048,151.16628275639215L234.18885345214846,154.26910319424866L234.88809929122922,73.65505538147893L235.05524969100952,101.66581183768092L235.92164592987058,94.489063239291L236.0609379296875,135.5375826352287L236.50667232910158,124.68028681723627L236.56238912902833,105.89627543019878L236.8409731286621,126.56463369864723L237.16413056823728,69.03758339143405L237.19198896820066,132.63027663802515L237.4287853678894,84.09185880804489L237.9441657672119,105.83425790615577L238.10017280700683,103.08838181730486L238.35089840667726,138.92199900636226L238.4205444065857,139.00571488452013L238.44840280654907,82.65499377498486L238.58769480636596,87.64929506612916L238.8384204060364,77.9843820925659L238.9498540058899,115.27221333278408L239.0612876057434,79.22717480221232L239.15879200561525,128.11882708008588L239.3844450453186,72.2396187843909L239.46802024520872,85.77230551680493L239.5655246450806,54.86671587470059L240.22019704421996,69.3471429621818L240.27869968414308,58.72511675550686L240.50156688385007,74.21936110237812L240.58514208374024,59.3175316810848L240.72443408355713,81.52002216594201L240.83586768341067,146.59364193038436L240.97515968322753,70.65243409806469L241.07266408309934,138.17063529771886L241.21195608291626,60.58096546722966L241.22588528289796,79.71729428768376L241.23981448287964,98.6765992389541L241.40975072265624,62.65719939591054L241.67440552230835,118.00636860935197L241.95298952194213,84.51519418008547L242.10621072174075,61.98883964158965L242.65223536102295,91.70599738081478L242.74973976089476,115.65426655182782L242.91689016067505,58.339442625830245L243.07011136047362,77.63233339861033L243.5158457598877,66.68433094042757L243.9504367993164,120.01240496197411L244.38224199874875,56.8733604271556L244.88647903808595,68.30985578986142L245.2207798376465,85.6000246633721L245.34614263748168,56.30996936336942L245.42971783737184,66.6974567414718L245.63865583709716,121.47452678964405L245.70830183700562,88.1099380759797" fill="none"></path></g></g></g></g></g></g><g transform="translate(51, 177)" clip-path="url(#clip_1)"><clipPath id="clip_1"><rect width="278" height="22"></rect></clipPath><g><g><line x1="0" y1="0" x2="0" y2="5" style="visibility: inherit;" fill="rgb(0, 0, 0)" stroke="rgb(204, 204, 204)" stroke-width="1px"></line><line x1="27.858399963378908" y1="0" x2="27.858399963378908" y2="5" style="visibility: inherit;" fill="rgb(0, 0, 0)" stroke="rgb(204, 204, 204)" stroke-width="1px"></line><line x1="55.716799926757815" y1="0" x2="55.716799926757815" y2="5" style="visibility: inherit;" fill="rgb(0, 0, 0)" stroke="rgb(204, 204, 204)" stroke-width="1px"></line><line x1="83.57519989013672" y1="0" x2="83.57519989013672" y2="5" style="visibility: inherit;" fill="rgb(0, 0, 0)" stroke="rgb(204, 204, 204)" stroke-width="1px"></line><line x1="111.43359985351563" y1="0" x2="111.43359985351563" y2="5" style="visibility: inherit;" fill="rgb(0, 0, 0)" stroke="rgb(204, 204, 204)" stroke-width="1px"></line><line x1="139.29199981689453" y1="0" x2="139.29199981689453" y2="5" style="visibility: inherit;" fill="rgb(0, 0, 0)" stroke="rgb(204, 204, 204)" stroke-width="1px"></line><line x1="167.15039978027343" y1="0" x2="167.15039978027343" y2="5" style="visibility: inherit;" fill="rgb(0, 0, 0)" stroke="rgb(204, 204, 204)" stroke-width="1px"></line><line x1="195.00879974365233" y1="0" x2="195.00879974365233" y2="5" style="visibility: inherit;" fill="rgb(0, 0, 0)" stroke="rgb(204, 204, 204)" stroke-width="1px"></line><line x1="222.86719970703126" y1="0" x2="222.86719970703126" y2="5" style="visibility: inherit;" fill="rgb(0, 0, 0)" stroke="rgb(204, 204, 204)" stroke-width="1px"></line><line x1="250.72559967041016" y1="0" x2="250.72559967041016" y2="5" style="visibility: inherit;" fill="rgb(0, 0, 0)" stroke="rgb(204, 204, 204)" stroke-width="1px"></line><line x1="278.58399963378906" y1="0" x2="278.58399963378906" y2="5" style="visibility: inherit;" fill="rgb(0, 0, 0)" stroke="rgb(204, 204, 204)" stroke-width="1px"></line></g><g transform="translate(0, 8)"><text style="text-anchor: middle; visibility: hidden; font-family: &quot;Helvetica Neue&quot;, sans-serif; font-size: 12px; font-weight: 200;" x="0" y="0" dx="0em" dy="0.95em" fill="rgb(50, 49, 63)" stroke="none" stroke-width="1px">-20k</text><text style="text-anchor: middle; visibility: inherit; font-family: &quot;Helvetica Neue&quot;, sans-serif; font-size: 12px; font-weight: 200;" x="27.858399963378908" y="0" dx="0em" dy="0.95em" fill="rgb(50, 49, 63)" stroke="none" stroke-width="1px">0</text><text style="text-anchor: middle; visibility: hidden; font-family: &quot;Helvetica Neue&quot;, sans-serif; font-size: 12px; font-weight: 200;" x="55.716799926757815" y="0" dx="0em" dy="0.95em" fill="rgb(50, 49, 63)" stroke="none" stroke-width="1px">20k</text><text style="text-anchor: middle; visibility: inherit; font-family: &quot;Helvetica Neue&quot;, sans-serif; font-size: 12px; font-weight: 200;" x="83.57519989013672" y="0" dx="0em" dy="0.95em" fill="rgb(50, 49, 63)" stroke="none" stroke-width="1px">40k</text><text style="text-anchor: middle; visibility: hidden; font-family: &quot;Helvetica Neue&quot;, sans-serif; font-size: 12px; font-weight: 200;" x="111.43359985351563" y="0" dx="0em" dy="0.95em" fill="rgb(50, 49, 63)" stroke="none" stroke-width="1px">60k</text><text style="text-anchor: middle; visibility: inherit; font-family: &quot;Helvetica Neue&quot;, sans-serif; font-size: 12px; font-weight: 200;" x="139.29199981689453" y="0" dx="0em" dy="0.95em" fill="rgb(50, 49, 63)" stroke="none" stroke-width="1px">80k</text><text style="text-anchor: middle; visibility: hidden; font-family: &quot;Helvetica Neue&quot;, sans-serif; font-size: 12px; font-weight: 200;" x="167.15039978027343" y="0" dx="0em" dy="0.95em" fill="rgb(50, 49, 63)" stroke="none" stroke-width="1px">100k</text><text style="text-anchor: middle; visibility: inherit; font-family: &quot;Helvetica Neue&quot;, sans-serif; font-size: 12px; font-weight: 200;" x="195.00879974365233" y="0" dx="0em" dy="0.95em" fill="rgb(50, 49, 63)" stroke="none" stroke-width="1px">120k</text><text style="text-anchor: middle; visibility: hidden; font-family: &quot;Helvetica Neue&quot;, sans-serif; font-size: 12px; font-weight: 200;" x="222.86719970703126" y="0" dx="0em" dy="0.95em" fill="rgb(50, 49, 63)" stroke="none" stroke-width="1px">140k</text><text style="text-anchor: middle; visibility: inherit; font-family: &quot;Helvetica Neue&quot;, sans-serif; font-size: 12px; font-weight: 200;" x="250.72559967041016" y="0" dx="0em" dy="0.95em" fill="rgb(50, 49, 63)" stroke="none" stroke-width="1px">160k</text><text style="text-anchor: middle; visibility: hidden; font-family: &quot;Helvetica Neue&quot;, sans-serif; font-size: 12px; font-weight: 200;" x="278.58399963378906" y="0" dx="0em" dy="0.95em" fill="rgb(50, 49, 63)" stroke="none" stroke-width="1px">180k</text></g><line x1="0" y1="0" x2="278.58399963378906" y2="0" fill="rgb(0, 0, 0)" stroke="rgb(204, 204, 204)" stroke-width="1px"></line></g></g></g></g></svg>