<svg viewBox="0 0 330 200" xmlns="http://www.w3.org/2000/svg"><g><g><g><g><g><line x1="51.41600036621094" y1="177.9749994277954" x2="46.41600036621094" y2="177.9749994277954" style="visibility: inherit;" fill="rgb(0, 0, 0)" stroke="rgb(204, 204, 204)" stroke-width="1px"></line><line x1="51.41600036621094" y1="158.1999994913737" x2="46.41600036621094" y2="158.1999994913737" style="visibility: inherit;" fill="rgb(0, 0, 0)" stroke="rgb(204, 204, 204)" stroke-width="1px"></line><line x1="51.41600036621094" y1="138.42499955495197" x2="46.41600036621094" y2="138.42499955495197" style="visibility: inherit;" fill="rgb(0, 0, 0)" stroke="rgb(204, 204, 204)" stroke-width="1px"></line><line x1="51.41600036621094" y1="118.64999961853027" x2="46.41600036621094" y2="118.64999961853027" style="visibility: inherit;" fill="rgb(0, 0, 0)" stroke="rgb(204, 204, 204)" stroke-width="1px"></line><line x1="51.41600036621094" y1="98.87499968210855" x2="46.41600036621094" y2="98.87499968210855" style="visibility: inherit;" fill="rgb(0, 0, 0)" stroke="rgb(204, 204, 204)" stroke-width="1px"></line><line x1="51.41600036621094" y1="79.09999974568684" x2="46.41600036621094" y2="79.09999974568684" style="visibility: inherit;" fill="rgb(0, 0, 0)" stroke="rgb(204, 204, 204)" stroke-width="1px"></line><line x1="51.41600036621094" y1="59.32499980926514" x2="46.41600036621094" y2="59.32499980926514" style="visibility: inherit;" fill="rgb(0, 0, 0)" stroke="rgb(204, 204, 204)" stroke-width="1px"></line><line x1="51.41600036621094" y1="39.54999987284344" x2="46.41600036621094" y2="39.54999987284344" style="visibility: inherit;" fill="rgb(0, 0, 0)" stroke="rgb(204, 204, 204)" stroke-width="1px"></line><line x1="51.41600036621094" y1="19.77499993642172" x2="46.41600036621094" y2="19.77499993642172" style="visibility: inherit;" fill="rgb(0, 0, 0)" stroke="rgb(204, 204, 204)" stroke-width="1px"></line><line x1="51.41600036621094" y1="0" x2="46.41600036621094" y2="0" style="visibility: inherit;" fill="rgb(0, 0, 0)" stroke="rgb(204, 204, 204)" stroke-width="1px"></line></g><g transform="translate(41.41600036621094, 0)"><text style="text-anchor: end; visibility: hidden; font-family: &quot;Helvetica Neue&quot;, sans-serif; font-size: 12px; font-weight: 200;" x="0" y="177.9749994277954" dx="0em" dy="0.3em" fill="rgb(50, 49, 63)" stroke="none" stroke-width="1px">-0.1</text><text style="text-anchor: end; visibility: inherit; font-family: &quot;Helvetica Neue&quot;, sans-serif; font-size: 12px; font-weight: 200;" x="0" y="158.1999994913737" dx="0em" dy="0.3em" fill="rgb(50, 49, 63)" stroke="none" stroke-width="1px">0</text><text style="text-anchor: end; visibility: hidden; font-family: &quot;Helvetica Neue&quot;, sans-serif; font-size: 12px; font-weight: 200;" x="0" y="138.42499955495197" dx="0em" dy="0.3em" fill="rgb(50, 49, 63)" stroke="none" stroke-width="1px">0.1</text><text style="text-anchor: end; visibility: inherit; font-family: &quot;Helvetica Neue&quot;, sans-serif; font-size: 12px; font-weight: 200;" x="0" y="118.64999961853027" dx="0em" dy="0.3em" fill="rgb(50, 49, 63)" stroke="none" stroke-width="1px">0.2</text><text style="text-anchor: end; visibility: hidden; font-family: &quot;Helvetica Neue&quot;, sans-serif; font-size: 12px; font-weight: 200;" x="0" y="98.87499968210855" dx="0em" dy="0.3em" fill="rgb(50, 49, 63)" stroke="none" stroke-width="1px">0.3</text><text style="text-anchor: end; visibility: inherit; font-family: &quot;Helvetica Neue&quot;, sans-serif; font-size: 12px; font-weight: 200;" x="0" y="79.09999974568684" dx="0em" dy="0.3em" fill="rgb(50, 49, 63)" stroke="none" stroke-width="1px">0.4</text><text style="text-anchor: end; visibility: hidden; font-family: &quot;Helvetica Neue&quot;, sans-serif; font-size: 12px; font-weight: 200;" x="0" y="59.32499980926514" dx="0em" dy="0.3em" fill="rgb(50, 49, 63)" stroke="none" stroke-width="1px">0.5</text><text style="text-anchor: end; visibility: inherit; font-family: &quot;Helvetica Neue&quot;, sans-serif; font-size: 12px; font-weight: 200;" x="0" y="39.54999987284344" dx="0em" dy="0.3em" fill="rgb(50, 49, 63)" stroke="none" stroke-width="1px">0.6</text><text style="text-anchor: end; visibility: hidden; font-family: &quot;Helvetica Neue&quot;, sans-serif; font-size: 12px; font-weight: 200;" x="0" y="19.77499993642172" dx="0em" dy="0.3em" fill="rgb(50, 49, 63)" stroke="none" stroke-width="1px">0.7</text><text style="text-anchor: end; visibility: hidden; font-family: &quot;Helvetica Neue&quot;, sans-serif; font-size: 12px; font-weight: 200;" x="0" y="0" dx="0em" dy="0.3em" fill="rgb(50, 49, 63)" stroke="none" stroke-width="1px">0.8</text></g><line x1="51.41600036621094" y1="0" x2="51.41600036621094" y2="177.9749994277954" fill="rgb(0, 0, 0)" stroke="rgb(204, 204, 204)" stroke-width="1px"></line></g></g><g transform="translate(51, 0)" clip-path="url(#clip_0)"><clipPath id="clip_0"><rect width="278" height="177"></rect></clipPath><g><g><g><line x1="0" y1="0" x2="0" y2="177.9749994277954" fill="rgb(0, 0, 0)" stroke="rgb(60, 60, 60)" stroke-width="1px" opacity="0.25"></line><line x1="34.82299995422363" y1="0" x2="34.82299995422363" y2="177.9749994277954" fill="rgb(0, 0, 0)" stroke="rgb(60, 60, 60)" stroke-width="1px" opacity="0.25"></line><line x1="69.64599990844727" y1="0" x2="69.64599990844727" y2="177.9749994277954" fill="rgb(0, 0, 0)" stroke="rgb(60, 60, 60)" stroke-width="1px" opacity="0.25"></line><line x1="104.4689998626709" y1="0" x2="104.4689998626709" y2="177.9749994277954" fill="rgb(0, 0, 0)" stroke="rgb(60, 60, 60)" stroke-width="1px" opacity="0.25"></line><line x1="139.29199981689453" y1="0" x2="139.29199981689453" y2="177.9749994277954" fill="rgb(0, 0, 0)" stroke="rgb(60, 60, 60)" stroke-width="1px" opacity="0.25"></line><line x1="174.11499977111816" y1="0" x2="174.11499977111816" y2="177.9749994277954" fill="rgb(0, 0, 0)" stroke="rgb(60, 60, 60)" stroke-width="1px" opacity="0.25"></line><line x1="208.9379997253418" y1="0" x2="208.9379997253418" y2="177.9749994277954" fill="rgb(0, 0, 0)" stroke="rgb(60, 60, 60)" stroke-width="1px" opacity="0.25"></line><line x1="243.76099967956543" y1="0" x2="243.76099967956543" y2="177.9749994277954" fill="rgb(0, 0, 0)" stroke="rgb(60, 60, 60)" stroke-width="1px" opacity="0.25"></line><line x1="278.58399963378906" y1="0" x2="278.58399963378906" y2="177.9749994277954" fill="rgb(0, 0, 0)" stroke="rgb(60, 60, 60)" stroke-width="1px" opacity="0.25"></line></g><g><line x1="0" y1="177.9749994277954" x2="278.58399963378906" y2="177.9749994277954" fill="rgb(0, 0, 0)" stroke="rgb(60, 60, 60)" stroke-width="1px" opacity="0.25"></line><line x1="0" y1="158.1999994913737" x2="278.58399963378906" y2="158.1999994913737" fill="rgb(0, 0, 0)" stroke="rgb(60, 60, 60)" stroke-width="1px" opacity="0.25"></line><line x1="0" y1="138.42499955495197" x2="278.58399963378906" y2="138.42499955495197" fill="rgb(0, 0, 0)" stroke="rgb(60, 60, 60)" stroke-width="1px" opacity="0.25"></line><line x1="0" y1="118.64999961853027" x2="278.58399963378906" y2="118.64999961853027" fill="rgb(0, 0, 0)" stroke="rgb(60, 60, 60)" stroke-width="1px" opacity="0.25"></line><line x1="0" y1="98.87499968210855" x2="278.58399963378906" y2="98.87499968210855" fill="rgb(0, 0, 0)" stroke="rgb(60, 60, 60)" stroke-width="1px" opacity="0.25"></line><line x1="0" y1="79.09999974568684" x2="278.58399963378906" y2="79.09999974568684" fill="rgb(0, 0, 0)" stroke="rgb(60, 60, 60)" stroke-width="1px" opacity="0.25"></line><line x1="0" y1="59.32499980926514" x2="278.58399963378906" y2="59.32499980926514" fill="rgb(0, 0, 0)" stroke="rgb(60, 60, 60)" stroke-width="1px" opacity="0.25"></line><line x1="0" y1="39.54999987284344" x2="278.58399963378906" y2="39.54999987284344" fill="rgb(0, 0, 0)" stroke="rgb(60, 60, 60)" stroke-width="1px" opacity="0.25"></line><line x1="0" y1="19.77499993642172" x2="278.58399963378906" y2="19.77499993642172" fill="rgb(0, 0, 0)" stroke="rgb(60, 60, 60)" stroke-width="1px" opacity="0.25"></line><line x1="0" y1="0" x2="278.58399963378906" y2="0" fill="rgb(0, 0, 0)" stroke="rgb(60, 60, 60)" stroke-width="1px" opacity="0.25"></line></g></g></g><g><g><line x1="0" y1="158.1999994913737" x2="278.58399963378906" y2="158.1999994913737" fill="rgb(0, 0, 0)" stroke="rgb(153, 153, 153)" stroke-width="1.5px"></line></g></g><g><g><line x1="34.82299995422363" y1="0" x2="34.82299995422363" y2="177.9749994277954" fill="rgb(0, 0, 0)" stroke="rgb(153, 153, 153)" stroke-width="1.5px"></line></g></g><g><g><g><g><g><path style="fill: none;" stroke="rgb(51, 187, 238)" stroke-width="2px" d="M34.82299995422363,156.80783948497626L35.51945995330811,144.57106926079473L36.21591995239258,136.73621485080878L36.91237995147705,133.4140146116094L37.608839950561524,132.38966936596512L38.305299949646,130.6929745279491L39.001759948730474,131.796418165617L39.69821994781494,127.66739841557145L40.39467994689941,128.01543959124842L41.09113994598388,126.63909869233171L41.78759994506836,127.5329284970971L42.48405994415283,127.49733525203308L43.18051994323731,126.1526360672895L43.876979942321775,123.66889410640479L44.57343994140625,127.69508565214912L45.269899940490724,127.95215910960675L45.9663599395752,122.95303936707339L46.66281993865967,122.29255320748807L47.35927993774414,125.22716454835097L48.05573993682861,125.1480632096227L48.75219993591308,123.28921416325927L49.44865993499756,124.25423340485733L50.14511993408203,127.87701519517859L50.8415799331665,118.39292557173172L51.538039932250975,120.46138845099767L52.23449993133545,121.10605375349641L52.930959930419924,120.3387849120144L53.6274199295044,122.43888950545352L54.323879928588866,116.62899577447851L55.02033992767334,117.13918821179828L55.716799926757815,121.75071905599515L56.41325992584229,114.46165327509762L57.10971992492676,114.6949998669823L57.806179924011225,118.55903425767463L58.5026399230957,116.35214403563421L59.199099922180174,114.07801885435661L59.89555992126465,114.89275026709835L60.592019920349124,116.46288414183101L61.28847991943359,112.99830502896627L61.984939918518066,115.19728334911109L62.68139991760254,110.13092864734054L63.377859916687015,114.17294105017146L64.07431991577148,111.00894054172397L64.77077991485596,108.2206654988265L65.46723991394043,112.56325355937004L66.1636999130249,112.14402589356501L66.86015991210937,117.05218086458365L67.55661991119385,111.56659555030346L68.25307991027832,117.56237330190342L68.9495399093628,105.35724654150088L69.64599990844727,104.05605250371694L70.34245990753173,104.64534627976496L71.03891990661621,110.1625703615137L71.73537990570068,106.53187961600145L72.43183990478516,107.08953757128556L73.12829990386963,109.53372591610155L73.8247599029541,107.75001783746164L74.52121990203858,104.26170891231935L75.21767990112305,105.84766659084319L75.91413990020753,107.20027473077775L76.610599899292,101.44970405714433L77.30705989837647,105.47589265618404L78.00351989746095,103.10289374820074L78.6999798965454,99.56317072090785L79.39643989562988,98.21847153616429L80.09289989471435,105.5075343703572L80.78935989379882,101.83729590218545L81.4858198928833,101.99549268623274L82.18227989196777,99.8677067496252L82.87873989105225,104.43177502256235L83.57519989013672,107.20422920837323L84.27165988922118,103.96508183879297L84.96811988830567,100.27902546023925L85.66457988739013,104.20238585497776L86.36103988647461,99.48406938217958L87.05749988555908,96.77884720890127L87.75395988464355,102.5175544497482L88.45041988372803,98.08795609528542L89.1468798828125,103.48653111564637L89.84333988189698,93.95893339853527L90.53979988098145,103.86225363449176L91.23625988006592,94.81716701153199L91.9327198791504,103.61309207892974L92.62917987823486,100.57169216276091L93.32563987731935,104.63347695356927L94.02209987640381,97.36814687835852L94.71855987548828,97.83878864631414L95.41501987457276,99.68973168419123L96.11147987365722,97.07151980483215L96.8079398727417,93.63857945943595L97.50439987182617,95.68726995072446L98.20085987091063,96.66811004940908L98.89731986999512,102.28816528216362L99.59377986907958,96.4901349839751L100.29023986816406,100.15641897455137L100.98669986724853,99.23886230421304L101.683159866333,104.04418317752123L102.37961986541748,94.45330792547306L103.07607986450195,97.51448022961935L103.77253986358643,101.29150727309704L104.4689998626709,99.41287699864229L105.16545986175537,96.39917021246036L105.86191986083985,92.15941035621802L106.55837985992432,100.77339998717706L107.2548398590088,97.58962709075213L107.95129985809326,93.40523581425587L108.64775985717773,91.02828242867709L109.34421985626221,98.08004714009444L110.04067985534668,91.81136918054105L110.73713985443116,94.47704068445525L111.43359985351563,103.59331379754306L112.1300598526001,105.16740214987121L112.82651985168458,95.98785150184632L113.52297985076903,97.07151980483215L114.21943984985352,92.22664236875059L114.91589984893798,94.20019189231554L115.61235984802245,91.55824725397429L116.30881984710693,99.22303850042185L117.0052798461914,91.0045496696949L117.70173984527588,95.14148132163605L118.39819984436035,92.95832091187319L119.09465984344482,103.80293057715019L119.7911198425293,99.12811925131163L120.48757984161377,99.8202471250701L121.18403984069825,94.05385264764548L121.88049983978271,92.52722391987245L122.57695983886718,97.44328784608207L123.27341983795166,94.37421248015403L123.96987983703613,89.80222935861667L124.66633983612061,93.93916101055781L125.36279983520508,92.8871285283359L126.05925983428955,101.62767912257831L126.75571983337403,96.11836694272517L127.4521798324585,96.10254313893398L128.14863983154297,93.55947812070768L128.84509983062745,95.37087048922062L129.54155982971193,98.61397233639637L130.23801982879638,102.80231219707888L130.93447982788086,96.62065042485396L131.63093982696532,94.12109055358728L132.3273998260498,94.18832256611984L133.02385982513428,91.77972746636789L133.72031982421873,91.94979357661089L134.41677982330322,91.5542927763788L135.1132398223877,93.74536214133263L135.80969982147215,92.83571442618529L136.50615982055663,92.2701475157102L137.20261981964111,89.88528517494042L137.8990798187256,93.08092739756107L138.59553981781005,95.19289542378664L139.29199981689453,85.79581314755441L139.98845981597898,89.27225863991023L140.68491981506347,96.24096753500383L141.38137981414795,87.12469442191602L142.07783981323243,95.9403918772912L142.77429981231688,91.46332800486407L143.47075981140136,86.46025378473522L144.16721981048582,88.80952582714558L144.86367980957033,87.80099849188328L145.56013980865478,89.18920282358648L146.25659980773926,90.54577133452575L146.95305980682372,88.83325269271852L147.6495198059082,86.37324349081597L148.34597980499268,108.71899450335981L149.04243980407716,92.20686998077313L149.73889980316162,93.78095833310128L150.4353598022461,89.01914260675271L151.13181980133055,89.08637461928527L151.82827980041506,89.91692688911358L152.5247397994995,90.32824559972764L153.221199798584,86.13199089044491L153.91765979766845,89.83782555038532L154.61411979675293,89.87737621974945L155.3105797958374,91.14297406576475L156.0070397949219,89.37508684421142L156.70349979400635,93.24307865920385L157.3999597930908,87.0732803197654L158.09641979217528,84.83475133025645L158.79287979125976,99.92307532937129L159.48933979034425,85.66529770667555L160.1857997894287,84.32850747712295L160.88225978851318,86.40488520498911L161.57871978759763,89.7389518236796L162.27517978668214,84.28500233016334L162.9716397857666,91.62548515991608L163.66809978485108,98.50322928349495L164.36455978393553,88.24000443907501L165.06101978302001,86.80829496041218L165.7574797821045,87.13260337710699L166.45393978118898,98.72075501829306L167.15039978027343,83.40699632918914L167.8468597793579,81.51650262194794L168.54331977844237,85.97774269058388L169.23977977752688,85.72067217983087L169.93623977661133,86.30601147828341L170.6326997756958,78.54234650513013L171.32915977478027,83.49400662310839L172.02561977386475,81.80126626268785L172.72207977294923,79.31356982420763L173.4185397720337,80.08479314328513L174.11499977111816,80.42097088617562L174.81145977020262,79.20678714231093L175.5079197692871,79.49945384483259L176.20437976837158,80.59499147401412L176.90083976745606,80.85602235577186L177.59729976654052,78.34459315830946L178.293759765625,82.69905054504872L178.99021976470945,77.9411834028864L179.68667976379396,77.71574871289731L180.38313976287841,85.11950907758714L181.0795997619629,86.57890579282761L181.77605976104735,75.93599805855753L182.47251976013183,81.33061860132297L183.1689797592163,75.43766905402423L183.8654397583008,75.98741216070812L184.56189975738525,77.19764732038657L185.25835975646973,74.7850918496299L185.95481975555418,72.7403617293461L186.6512797546387,72.9697508969307L187.34773975372315,76.96034330420177L188.04419975280763,74.76927393924792L188.74065975189208,74.0296923343436L189.43711975097656,74.40936933078449L190.13357975006105,74.21557635496855L190.83003974914553,70.35153901757161L191.52649974822998,71.58154656522751L192.22295974731443,76.77050480598132L192.91941974639892,73.31383759501217L193.6158797454834,76.80610099774997L194.31233974456788,71.96517803926389L195.00879974365233,70.78263600957234L195.7052597427368,72.43187122303327L196.40171974182127,72.39627503126464L197.09817974090578,71.78720297382992L197.79463973999023,70.87360078108708L198.4910997390747,68.34635367324275L199.18755973815917,67.99040354237478L199.88401973724365,69.75038180873712L200.58047973632813,69.70292218418201L201.2769397354126,68.95147125308196L201.97339973449706,64.56933252317428L202.66985973358155,68.51641978348573L203.366319732666,68.01809077895244L204.0627797317505,68.3779953874159L204.75923973083496,63.37096668969154L205.45569972991944,64.72357482962609L206.1521597290039,61.07706322702727L206.84861972808838,62.48900031771262L207.54507972717286,60.887224728806814L208.24153972625734,63.29186535096328L208.9379997253418,63.01106208122809L209.63445972442625,61.76919110078573L210.33091972351073,61.36973582295815L211.0273797225952,62.5681016564409L211.7238397216797,60.19114237745286L212.42029972076415,58.64078678410689L213.11675971984863,55.326498446803086L213.81321971893308,56.34293473725636L214.5096797180176,56.44971152574381L215.20613971710205,56.224276835754736L215.90259971618653,55.101063756814L216.59905971527098,53.784040021829625L217.29551971435546,54.28237491977215L217.99197971343995,52.36419986936251L218.68843971252443,50.84548009678046L219.38489971160888,49.512650238232595L220.08135971069336,50.2838735573101L220.77781970977782,47.2741094619052L221.47427970886233,47.353210800633434L222.17073970794678,47.9345956214905L222.86719970703126,46.32095659979822L223.56365970611571,45.49437059438387L224.2601197052002,46.72041187762579L224.95657970428468,43.61177994892441L225.65303970336916,41.021261199552214L226.3494997024536,43.01853758869012L227.04595970153807,41.630333256986916L227.74241970062255,38.608711622204765L228.43887969970703,38.16179082641284L229.1353396987915,38.134115376653654L229.83179969787597,35.50798864869438L230.52825969696045,33.85480485104719L231.2247196960449,33.621449419048645L231.9211796951294,33.04798534020105L232.61763969421386,30.78967806930541L233.31409969329835,29.49243261570774L234.0105596923828,28.43249117829484L234.70701969146728,26.581559927236242L235.40347969055176,25.335728575789147L236.09993968963624,24.02266521180951L236.7963996887207,22.73334050022126L237.49285968780518,20.97731671145442L238.18931968688963,20.12699205364865L238.88577968597414,18.410524827655166L239.5822396850586,17.346634806056016L240.27869968414308,15.701348176781352L240.97515968322753,15.61829825386684L241.671619682312,14.98549933085917L242.3680796813965,13.628930819919901L243.06453968048098,13.01194980729423" fill="none"></path></g><g><path style="fill: none;" stroke="rgb(0, 119, 187)" stroke-width="2px" d="M34.82299995422363,156.69709947086398L35.51945995330811,145.24737480411432L36.21591995239258,135.65649955206612L36.91237995147705,132.13655038610298L37.608839950561524,128.73524880817533L38.305299949646,128.1024498851677L39.001759948730474,128.6956981388112L39.69821994781494,125.31417484227022L40.39467994689941,124.5034008538286L41.09113994598388,122.84229926087659L41.78759994506836,124.12767538827856L42.48405994415283,124.18699844562013L43.18051994323731,123.13892338769834L43.876979942321775,119.85627381786307L44.57343994140625,124.06834938423236L45.269899940490724,123.91014965348046L45.9663599395752,118.47202396375536L46.66281993865967,118.82797409462333L47.35927993774414,121.91287326434255L48.05573993682861,120.58794941428104L48.75219993591308,120.35064834480087L49.44865993499756,119.48054835231305L50.14511993408203,121.20097594931126L50.8415799331665,114.89275026709835L51.538039932250975,116.79114998282591L52.23449993133545,117.12732477901181L52.930959930419924,114.67522453230023L53.6274199295044,118.39292557173172L54.323879928588866,112.59884975113869L55.02033992767334,111.37279962778291L55.716799926757815,117.91832343277137L56.41325992584229,109.79079937355917L57.10971992492676,110.89820043552716L57.806179924011225,114.18085000536243L58.5026399230957,110.81909909679891L59.199099922180174,108.36699885008733L59.89555992126465,110.04787577772142L60.592019920349124,109.65237497748932L61.28847991943359,108.18902378465336L61.984939918518066,109.35575085066755L62.68139991760254,105.63804981123606L63.377859916687015,108.90092404638928L64.07431991577148,104.94592193747759L64.77077991485596,102.77067637631495L65.46723991394043,108.1692513966759L66.1636999130249,107.14095167343616L66.86015991210937,110.62134869668286L67.55661991119385,105.49962541516622L68.25307991027832,114.55657547091246L68.9495399093628,101.24800212613742L69.64599990844727,101.76214904105267L70.34245990753173,102.21697289862634L71.03891990661621,103.00797449909051L71.73537990570068,102.67179675620001L72.43183990478516,101.07002706070342L73.12829990386963,102.849771821634L73.8247599029541,104.37245196522076L74.52121990203858,99.09252305954298L75.21767990112305,100.87227371388278L75.91413990020753,102.92887316036226L76.610599899292,96.06694694716535L77.30705989837647,97.8664758828918L78.00351989746095,97.78737454416355L78.6999798965454,94.36629763155382L79.39643989562988,92.70519898530642L80.09289989471435,99.86375227202971L80.78935989379882,97.8664758828918L81.4858198928833,95.25617295872371L82.18227989196777,92.32947646646103L82.87873989105225,97.1545756211559L83.57519989013672,100.1406010641694L84.27165988922118,97.98512199757498L84.96811988830567,94.74202604380847L85.66457988739013,97.33255068658988L86.36103988647461,92.07240006229878L87.05749988555908,90.98477728171746L87.75395988464355,95.94830083248218L88.45041988372803,91.14297406576475L89.1468798828125,97.5302981400013L89.84333988189698,89.64007220356466L90.53979988098145,97.98512199757498L91.23625988006592,90.33220007732312L91.9327198791504,98.67724987133344L92.62917987823486,94.93977349721989L93.32563987731935,97.13479733976922L94.02209987640381,92.76452204264801L94.71855987548828,92.70519898530642L95.41501987457276,94.97932416658402L96.11147987365722,90.8858976616025L96.8079398727417,88.57222181096078L97.50439987182617,89.81804726899864L98.20085987091063,91.34072741258541L98.89731986999512,96.4228970780333L99.59377986907958,91.45937352726857L100.29023986816406,92.74474965467056L100.98669986724853,92.48767325050831L101.683159866333,96.34380163271427L102.37961986541748,89.26434968471925L103.07607986450195,93.17980112426677L103.77253986358643,95.35505257883865L104.4689998626709,91.73622231940827L105.16545986175537,88.55244942298333L105.86191986083985,85.78394971476794L106.55837985992432,94.48494963964622L107.2548398590088,91.16275234715144L107.95129985809326,89.20502662737766L108.64775985717773,85.05227706505457L109.34421985626221,92.62609764657816L110.04067985534668,86.19922290297747L110.73713985443116,88.73042448841731L111.43359985351563,93.87192310461602L112.1300598526001,99.56712519850333L112.82651985168458,89.85759793836276L113.52297985076903,91.59779792333842L114.21943984985352,86.65405265396038L114.91589984893798,87.40549769165119L115.61235984802245,86.87157249534926L116.30881984710693,90.5101751427571L117.0052798461914,85.5862022613565L117.70173984527588,88.80952582714558L118.39819984436035,87.0297751728058L119.09465984344482,97.09525256381431L119.7911198425293,95.23640057074626L120.48757984161377,94.1685501781424L121.18403984069825,88.2953730188211L121.88049983978271,87.28685157696803L122.57695983886718,91.57802553536096L123.27341983795166,89.54119847685894L123.96987983703613,85.42799958389999L124.66633983612061,88.96772261119288L125.36279983520508,83.7669009376526L126.05925983428955,96.64042281283142L126.75571983337403,89.87737621974945L127.4521798324585,89.0270515619437L128.14863983154297,86.67382504193783L128.84509983062745,88.21627757350205L129.54155982971193,93.45664991640648L130.23801982879638,96.87772682901621L130.93447982788086,88.53267703500589L131.63093982696532,84.73587760355075L132.3273998260498,89.06660223130781L133.02385982513428,88.2953730188211L133.72031982421873,85.34889824517171L134.41677982330322,85.72462665742636L135.1132398223877,88.7897475457589L135.80969982147215,86.81224943800768L136.50615982055663,84.71609932216406L137.20261981964111,85.28957518783012L137.8990798187256,88.27560063084364L138.59553981781005,88.69087381905318L139.29199981689453,81.96737200192611L139.98845981597898,83.70757198690178L140.68491981506347,89.34345102344751L141.38137981414795,81.67075082180898L142.07783981323243,88.07784728402298L142.77429981231688,85.30934757580759L143.47075981140136,80.97862294805051L144.16721981048582,83.15387440262239L144.86367980957033,81.67075082180898L145.56013980865478,82.40242347152234L146.25659980773926,82.81770255314112L146.95305980682372,84.18217412586213L147.6495198059082,81.92782722597121L148.34597980499268,95.94830083248218L149.04243980407716,85.96192478020191L149.73889980316162,89.36322341142497L150.4353598022461,83.31207708007892L151.13181980133055,84.22172479522627L151.82827980041506,83.94487600308658L152.5247397994995,83.29229879869223L153.221199798584,77.91350205971797L153.91765979766845,84.30082613395453L154.61411979675293,83.31207708007892L155.3105797958374,85.15115079176029L156.0070397949219,82.02670095267693L156.70349979400635,86.83202182598512L157.3999597930908,83.50982453349035L158.09641979217528,78.3880983052691L158.79287979125976,93.23912418160837L159.48933979034425,80.42492536377112L160.1857997894287,79.2186505750974L160.88225978851318,82.0860240100185L161.57871978759763,84.57767492609422L162.27517978668214,77.95304683567286L162.9716397857666,85.32912585719427L163.66809978485108,91.53847486599685L164.36455978393553,81.17637629487116L165.06101978302001,80.74132482527496L165.7574797821045,79.6141513753295L166.45393978118898,90.2333263506174L167.15039978027343,77.75529938226144L167.8468597793579,75.32297741693655L168.54331977844237,79.65370204469363L169.23977977752688,81.05772428677876L169.93623977661133,79.3373025831898L170.6326997756958,74.7297232698838L171.32915977478027,77.26092485532364L172.02561977386475,75.28342674757242L172.72207977294923,74.82859699658951L173.4185397720337,74.65062193115553L174.11499977111816,73.76075249739488L174.81145977020262,75.0659010127743L175.5079197692871,74.88792594734032L176.20437976837158,75.71847232375941L176.90083976745606,75.20432540884416L177.59729976654052,73.89917689346473L178.293759765625,75.42185114364227L178.99021976470945,72.79177583149672L179.68667976379396,72.65335143542687L180.38313976287841,78.84292216284277L181.0795997619629,80.12829829024474L181.77605976104735,71.05157584652106L182.47251976013183,75.10545168213844L183.1689797592163,71.88212222294014L183.8654397583008,70.87360078108708L184.56189975738525,73.20704901970626L185.25835975646973,69.88485172721148L185.95481975555418,67.01747239888114L186.6512797546387,68.2039747995774L187.34773975372315,70.57697370756071L188.04419975280763,71.72392543889285L188.74065975189208,67.828252280732L189.43711975097656,68.34239919564725L190.13357975006105,67.84802466870944L190.83003974914553,67.19544746431511L191.52649974822998,67.61072654593389L192.22295974731443,73.06862462363641L192.91941974639892,68.91587506131332L193.6158797454834,67.4327514804999L194.31233974456788,67.35365014177164L195.00879974365233,64.03144695586762L195.7052597427368,66.1078246837338L196.40171974182127,67.3140994724075L197.09817974090578,67.45252386847734L197.79463973999023,65.75187455286583L198.4910997390747,64.38739708673559L199.18755973815917,63.14157752210697L199.88401973724365,64.58515043355624L200.58047973632813,64.26875097205242L201.2769397354126,63.952351510548596L201.97339973449706,61.57935260256528L202.66985973358155,65.05975257251659L203.366319732666,61.71777699863513L204.0627797317505,60.9465477861484L204.75923973083496,59.68094994013309L205.45569972991944,59.46342420533499L206.1521597290039,58.33625075538954L206.84861972808838,60.7290220513503L207.54507972717286,58.57355477157434L208.24153972625734,59.720500609497236L208.9379997253418,60.551046985916315L209.63445972442625,57.52547087353868L210.33091972351073,56.65537972116469L211.0273797225952,59.819374336202955L211.7238397216797,56.97177328925929L212.42029972076415,54.954730405553164L213.11675971984863,52.6015038855473L213.81321971893308,53.84732345017592L214.5096797180176,54.89539556139313L215.20613971710205,54.99427518150806L215.90259971618653,54.04507090358736L216.59905971527098,51.39522909687359L217.29551971435546,51.8896036238114L217.99197971343995,51.454552154215165L218.68843971252443,49.43749748369058L219.38489971160888,49.635244937102016L220.08135971069336,49.35839614496234L220.77781970977782,47.08427096368473L221.47427970886233,47.20292886518638L222.17073970794678,47.45999937593936L222.86719970703126,46.03619885246755L223.56365970611571,47.1435940210263L224.2601197052002,46.075755415240906L224.95657970428468,47.47977765732605L225.65303970336916,43.78185195257663L226.3494997024536,44.691499667723974L227.04595970153807,43.485224879050264L227.74241970062255,42.37782971049148L228.43887969970703,41.40884715118409L229.1353396987915,41.903221678121895L229.83179969787597,39.80707745568753L230.52825969696045,38.79855012042523L231.2247196960449,38.225074254759164L231.9211796951294,38.699670500310276L232.61763969421386,37.53295227440992L233.31409969329835,36.227797865621255L234.0105596923828,35.95094907348155L234.70701969146728,34.66557294607958L235.40347969055176,34.25029975787004L236.09993968963624,33.08356974515121L236.7963996887207,32.84627751578489L237.49285968780518,32.62875178098679L238.18931968688963,30.94788074676194L238.88577968597414,31.026970298671728L239.5822396850586,30.37440488109587L240.27869968414308,29.860252072771402L240.97515968322753,29.62294805658661L241.671619682312,29.761372452656445L242.3680796813965,29.187896586990377L243.06453968048098,28.8517247375091" fill="none"></path></g></g></g></g></g></g><g transform="translate(51, 177)" clip-path="url(#clip_1)"><clipPath id="clip_1"><rect width="278" height="22"></rect></clipPath><g><g><line x1="0" y1="0" x2="0" y2="5" style="visibility: inherit;" fill="rgb(0, 0, 0)" stroke="rgb(204, 204, 204)" stroke-width="1px"></line><line x1="34.82299995422363" y1="0" x2="34.82299995422363" y2="5" style="visibility: inherit;" fill="rgb(0, 0, 0)" stroke="rgb(204, 204, 204)" stroke-width="1px"></line><line x1="69.64599990844727" y1="0" x2="69.64599990844727" y2="5" style="visibility: inherit;" fill="rgb(0, 0, 0)" stroke="rgb(204, 204, 204)" stroke-width="1px"></line><line x1="104.4689998626709" y1="0" x2="104.4689998626709" y2="5" style="visibility: inherit;" fill="rgb(0, 0, 0)" stroke="rgb(204, 204, 204)" stroke-width="1px"></line><line x1="139.29199981689453" y1="0" x2="139.29199981689453" y2="5" style="visibility: inherit;" fill="rgb(0, 0, 0)" stroke="rgb(204, 204, 204)" stroke-width="1px"></line><line x1="174.11499977111816" y1="0" x2="174.11499977111816" y2="5" style="visibility: inherit;" fill="rgb(0, 0, 0)" stroke="rgb(204, 204, 204)" stroke-width="1px"></line><line x1="208.9379997253418" y1="0" x2="208.9379997253418" y2="5" style="visibility: inherit;" fill="rgb(0, 0, 0)" stroke="rgb(204, 204, 204)" stroke-width="1px"></line><line x1="243.76099967956543" y1="0" x2="243.76099967956543" y2="5" style="visibility: inherit;" fill="rgb(0, 0, 0)" stroke="rgb(204, 204, 204)" stroke-width="1px"></line><line x1="278.58399963378906" y1="0" x2="278.58399963378906" y2="5" style="visibility: inherit;" fill="rgb(0, 0, 0)" stroke="rgb(204, 204, 204)" stroke-width="1px"></line></g><g transform="translate(0, 8)"><text style="text-anchor: middle; visibility: hidden; font-family: &quot;Helvetica Neue&quot;, sans-serif; font-size: 12px; font-weight: 200;" x="0" y="0" dx="0em" dy="0.95em" fill="rgb(50, 49, 63)" stroke="none" stroke-width="1px">-50</text><text style="text-anchor: middle; visibility: inherit; font-family: &quot;Helvetica Neue&quot;, sans-serif; font-size: 12px; font-weight: 200;" x="34.82299995422363" y="0" dx="0em" dy="0.95em" fill="rgb(50, 49, 63)" stroke="none" stroke-width="1px">0</text><text style="text-anchor: middle; visibility: inherit; font-family: &quot;Helvetica Neue&quot;, sans-serif; font-size: 12px; font-weight: 200;" x="69.64599990844727" y="0" dx="0em" dy="0.95em" fill="rgb(50, 49, 63)" stroke="none" stroke-width="1px">50</text><text style="text-anchor: middle; visibility: inherit; font-family: &quot;Helvetica Neue&quot;, sans-serif; font-size: 12px; font-weight: 200;" x="104.4689998626709" y="0" dx="0em" dy="0.95em" fill="rgb(50, 49, 63)" stroke="none" stroke-width="1px">100</text><text style="text-anchor: middle; visibility: inherit; font-family: &quot;Helvetica Neue&quot;, sans-serif; font-size: 12px; font-weight: 200;" x="139.29199981689453" y="0" dx="0em" dy="0.95em" fill="rgb(50, 49, 63)" stroke="none" stroke-width="1px">150</text><text style="text-anchor: middle; visibility: inherit; font-family: &quot;Helvetica Neue&quot;, sans-serif; font-size: 12px; font-weight: 200;" x="174.11499977111816" y="0" dx="0em" dy="0.95em" fill="rgb(50, 49, 63)" stroke="none" stroke-width="1px">200</text><text style="text-anchor: middle; visibility: inherit; font-family: &quot;Helvetica Neue&quot;, sans-serif; font-size: 12px; font-weight: 200;" x="208.9379997253418" y="0" dx="0em" dy="0.95em" fill="rgb(50, 49, 63)" stroke="none" stroke-width="1px">250</text><text style="text-anchor: middle; visibility: inherit; font-family: &quot;Helvetica Neue&quot;, sans-serif; font-size: 12px; font-weight: 200;" x="243.76099967956543" y="0" dx="0em" dy="0.95em" fill="rgb(50, 49, 63)" stroke="none" stroke-width="1px">300</text><text style="text-anchor: middle; visibility: hidden; font-family: &quot;Helvetica Neue&quot;, sans-serif; font-size: 12px; font-weight: 200;" x="278.58399963378906" y="0" dx="0em" dy="0.95em" fill="rgb(50, 49, 63)" stroke="none" stroke-width="1px">350</text></g><line x1="0" y1="0" x2="278.58399963378906" y2="0" fill="rgb(0, 0, 0)" stroke="rgb(204, 204, 204)" stroke-width="1px"></line></g></g></g></g></svg>