<svg viewBox="0 0 330 200" xmlns="http://www.w3.org/2000/svg"><g><g><g><g><g><line x1="51.41600036621094" y1="177.9749994277954" x2="46.41600036621094" y2="177.9749994277954" style="visibility: inherit;" fill="rgb(0, 0, 0)" stroke="rgb(204, 204, 204)" stroke-width="1px"></line><line x1="51.41600036621094" y1="158.1999994913737" x2="46.41600036621094" y2="158.1999994913737" style="visibility: inherit;" fill="rgb(0, 0, 0)" stroke="rgb(204, 204, 204)" stroke-width="1px"></line><line x1="51.41600036621094" y1="138.424999554952" x2="46.41600036621094" y2="138.424999554952" style="visibility: inherit;" fill="rgb(0, 0, 0)" stroke="rgb(204, 204, 204)" stroke-width="1px"></line><line x1="51.41600036621094" y1="118.64999961853027" x2="46.41600036621094" y2="118.64999961853027" style="visibility: inherit;" fill="rgb(0, 0, 0)" stroke="rgb(204, 204, 204)" stroke-width="1px"></line><line x1="51.41600036621094" y1="98.87499968210857" x2="46.41600036621094" y2="98.87499968210857" style="visibility: inherit;" fill="rgb(0, 0, 0)" stroke="rgb(204, 204, 204)" stroke-width="1px"></line><line x1="51.41600036621094" y1="79.09999974568684" x2="46.41600036621094" y2="79.09999974568684" style="visibility: inherit;" fill="rgb(0, 0, 0)" stroke="rgb(204, 204, 204)" stroke-width="1px"></line><line x1="51.41600036621094" y1="59.32499980926514" x2="46.41600036621094" y2="59.32499980926514" style="visibility: inherit;" fill="rgb(0, 0, 0)" stroke="rgb(204, 204, 204)" stroke-width="1px"></line><line x1="51.41600036621094" y1="39.549999872843415" x2="46.41600036621094" y2="39.549999872843415" style="visibility: inherit;" fill="rgb(0, 0, 0)" stroke="rgb(204, 204, 204)" stroke-width="1px"></line><line x1="51.41600036621094" y1="19.77499993642172" x2="46.41600036621094" y2="19.77499993642172" style="visibility: inherit;" fill="rgb(0, 0, 0)" stroke="rgb(204, 204, 204)" stroke-width="1px"></line><line x1="51.41600036621094" y1="0" x2="46.41600036621094" y2="0" style="visibility: inherit;" fill="rgb(0, 0, 0)" stroke="rgb(204, 204, 204)" stroke-width="1px"></line></g><g transform="translate(41.41600036621094, 0)"><text style="text-anchor: end; visibility: hidden; font-family: &quot;Helvetica Neue&quot;, sans-serif; font-size: 12px; font-weight: 200;" x="0" y="177.9749994277954" dx="0em" dy="0.3em" fill="rgb(50, 49, 63)" stroke="none" stroke-width="1px">-0.5</text><text style="text-anchor: end; visibility: inherit; font-family: &quot;Helvetica Neue&quot;, sans-serif; font-size: 12px; font-weight: 200;" x="0" y="158.1999994913737" dx="0em" dy="0.3em" fill="rgb(50, 49, 63)" stroke="none" stroke-width="1px">0</text><text style="text-anchor: end; visibility: hidden; font-family: &quot;Helvetica Neue&quot;, sans-serif; font-size: 12px; font-weight: 200;" x="0" y="138.424999554952" dx="0em" dy="0.3em" fill="rgb(50, 49, 63)" stroke="none" stroke-width="1px">0.5</text><text style="text-anchor: end; visibility: inherit; font-family: &quot;Helvetica Neue&quot;, sans-serif; font-size: 12px; font-weight: 200;" x="0" y="118.64999961853027" dx="0em" dy="0.3em" fill="rgb(50, 49, 63)" stroke="none" stroke-width="1px">1</text><text style="text-anchor: end; visibility: hidden; font-family: &quot;Helvetica Neue&quot;, sans-serif; font-size: 12px; font-weight: 200;" x="0" y="98.87499968210857" dx="0em" dy="0.3em" fill="rgb(50, 49, 63)" stroke="none" stroke-width="1px">1.5</text><text style="text-anchor: end; visibility: inherit; font-family: &quot;Helvetica Neue&quot;, sans-serif; font-size: 12px; font-weight: 200;" x="0" y="79.09999974568684" dx="0em" dy="0.3em" fill="rgb(50, 49, 63)" stroke="none" stroke-width="1px">2</text><text style="text-anchor: end; visibility: hidden; font-family: &quot;Helvetica Neue&quot;, sans-serif; font-size: 12px; font-weight: 200;" x="0" y="59.32499980926514" dx="0em" dy="0.3em" fill="rgb(50, 49, 63)" stroke="none" stroke-width="1px">2.5</text><text style="text-anchor: end; visibility: inherit; font-family: &quot;Helvetica Neue&quot;, sans-serif; font-size: 12px; font-weight: 200;" x="0" y="39.549999872843415" dx="0em" dy="0.3em" fill="rgb(50, 49, 63)" stroke="none" stroke-width="1px">3</text><text style="text-anchor: end; visibility: hidden; font-family: &quot;Helvetica Neue&quot;, sans-serif; font-size: 12px; font-weight: 200;" x="0" y="19.77499993642172" dx="0em" dy="0.3em" fill="rgb(50, 49, 63)" stroke="none" stroke-width="1px">3.5</text><text style="text-anchor: end; visibility: hidden; font-family: &quot;Helvetica Neue&quot;, sans-serif; font-size: 12px; font-weight: 200;" x="0" y="0" dx="0em" dy="0.3em" fill="rgb(50, 49, 63)" stroke="none" stroke-width="1px">4</text></g><line x1="51.41600036621094" y1="0" x2="51.41600036621094" y2="177.9749994277954" fill="rgb(0, 0, 0)" stroke="rgb(204, 204, 204)" stroke-width="1px"></line></g></g><g transform="translate(51, 0)" clip-path="url(#clip_0)"><clipPath id="clip_0"><rect width="278" height="177"></rect></clipPath><g><g><g><line x1="0" y1="0" x2="0" y2="177.9749994277954" fill="rgb(0, 0, 0)" stroke="rgb(60, 60, 60)" stroke-width="1px" opacity="0.25"></line><line x1="34.82299995422363" y1="0" x2="34.82299995422363" y2="177.9749994277954" fill="rgb(0, 0, 0)" stroke="rgb(60, 60, 60)" stroke-width="1px" opacity="0.25"></line><line x1="69.64599990844727" y1="0" x2="69.64599990844727" y2="177.9749994277954" fill="rgb(0, 0, 0)" stroke="rgb(60, 60, 60)" stroke-width="1px" opacity="0.25"></line><line x1="104.4689998626709" y1="0" x2="104.4689998626709" y2="177.9749994277954" fill="rgb(0, 0, 0)" stroke="rgb(60, 60, 60)" stroke-width="1px" opacity="0.25"></line><line x1="139.29199981689453" y1="0" x2="139.29199981689453" y2="177.9749994277954" fill="rgb(0, 0, 0)" stroke="rgb(60, 60, 60)" stroke-width="1px" opacity="0.25"></line><line x1="174.11499977111816" y1="0" x2="174.11499977111816" y2="177.9749994277954" fill="rgb(0, 0, 0)" stroke="rgb(60, 60, 60)" stroke-width="1px" opacity="0.25"></line><line x1="208.9379997253418" y1="0" x2="208.9379997253418" y2="177.9749994277954" fill="rgb(0, 0, 0)" stroke="rgb(60, 60, 60)" stroke-width="1px" opacity="0.25"></line><line x1="243.76099967956543" y1="0" x2="243.76099967956543" y2="177.9749994277954" fill="rgb(0, 0, 0)" stroke="rgb(60, 60, 60)" stroke-width="1px" opacity="0.25"></line><line x1="278.58399963378906" y1="0" x2="278.58399963378906" y2="177.9749994277954" fill="rgb(0, 0, 0)" stroke="rgb(60, 60, 60)" stroke-width="1px" opacity="0.25"></line></g><g><line x1="0" y1="177.9749994277954" x2="278.58399963378906" y2="177.9749994277954" fill="rgb(0, 0, 0)" stroke="rgb(60, 60, 60)" stroke-width="1px" opacity="0.25"></line><line x1="0" y1="158.1999994913737" x2="278.58399963378906" y2="158.1999994913737" fill="rgb(0, 0, 0)" stroke="rgb(60, 60, 60)" stroke-width="1px" opacity="0.25"></line><line x1="0" y1="138.424999554952" x2="278.58399963378906" y2="138.424999554952" fill="rgb(0, 0, 0)" stroke="rgb(60, 60, 60)" stroke-width="1px" opacity="0.25"></line><line x1="0" y1="118.64999961853027" x2="278.58399963378906" y2="118.64999961853027" fill="rgb(0, 0, 0)" stroke="rgb(60, 60, 60)" stroke-width="1px" opacity="0.25"></line><line x1="0" y1="98.87499968210857" x2="278.58399963378906" y2="98.87499968210857" fill="rgb(0, 0, 0)" stroke="rgb(60, 60, 60)" stroke-width="1px" opacity="0.25"></line><line x1="0" y1="79.09999974568684" x2="278.58399963378906" y2="79.09999974568684" fill="rgb(0, 0, 0)" stroke="rgb(60, 60, 60)" stroke-width="1px" opacity="0.25"></line><line x1="0" y1="59.32499980926514" x2="278.58399963378906" y2="59.32499980926514" fill="rgb(0, 0, 0)" stroke="rgb(60, 60, 60)" stroke-width="1px" opacity="0.25"></line><line x1="0" y1="39.549999872843415" x2="278.58399963378906" y2="39.549999872843415" fill="rgb(0, 0, 0)" stroke="rgb(60, 60, 60)" stroke-width="1px" opacity="0.25"></line><line x1="0" y1="19.77499993642172" x2="278.58399963378906" y2="19.77499993642172" fill="rgb(0, 0, 0)" stroke="rgb(60, 60, 60)" stroke-width="1px" opacity="0.25"></line><line x1="0" y1="0" x2="278.58399963378906" y2="0" fill="rgb(0, 0, 0)" stroke="rgb(60, 60, 60)" stroke-width="1px" opacity="0.25"></line></g></g></g><g><g><line x1="0" y1="158.1999994913737" x2="278.58399963378906" y2="158.1999994913737" fill="rgb(0, 0, 0)" stroke="rgb(153, 153, 153)" stroke-width="1.5px"></line></g></g><g><g><line x1="34.82299995422363" y1="0" x2="34.82299995422363" y2="177.9749994277954" fill="rgb(0, 0, 0)" stroke="rgb(153, 153, 153)" stroke-width="1.5px"></line></g></g><g><g><g><g><g><path style="fill: none;" stroke="rgb(238, 51, 119)" stroke-width="2px" d="M35.51945995330811,-5.479965359235393L36.21591995239258,6.395791724622853L36.91237995147705,10.404847004339757L37.608839950561524,12.088693031545517L38.305299949646,13.923928955134215L39.001759948730474,13.977771141888894L39.69821994781494,16.91485771462976L40.39467994689941,17.602802446514488L41.09113994598388,18.760673486473934L41.78759994506836,18.207060767287516L42.48405994415283,18.090352405560225L43.18051994323731,20.672966914468816L43.876979942321775,21.78016406447736L44.57343994140625,17.60786606372767L45.269899940490724,17.85732228975135L45.9663599395752,23.99008880293195L46.66281993865967,22.71053064912499L47.35927993774414,20.80018911826815L48.05573993682861,19.903438539886793L48.75219993591308,23.343907126237497L49.44865993499756,20.765667884343657L50.14511993408203,17.953559305166124L50.8415799331665,26.54878078508105L51.538039932250975,26.033244204268613L52.23449993133545,26.4313652142458L52.930959930419924,26.21441231882514L53.6274199295044,22.051543772848618L54.323879928588866,29.880273162618465L55.02033992767334,29.222842146379662L55.716799926757815,23.860414940891587L56.41325992584229,31.245818514501792L57.10971992492676,31.86803051716288L57.806179924011225,28.65616963233242L58.5026399230957,30.401722011573696L59.199099922180174,32.05479972785466L59.89555992126465,31.76156254331923L60.592019920349124,29.534617638999094L61.28847991943359,34.04257594130863L61.984939918518066,30.938936908909596L62.68139991760254,35.23178105947923L63.377859916687015,32.697945120112166L64.07431991577148,35.857698837866195L64.77077991485596,37.630323181761156L65.46723991394043,34.21140089956711L66.1636999130249,34.33067407299268L66.86015991210937,30.24859709551251L67.55661991119385,34.012693999132495L68.25307991027832,29.452845407206354L68.9495399093628,39.66606703164612L69.64599990844727,41.484405372281344L70.34245990753173,40.30462970888388L71.03891990661621,36.882652283343305L71.73537990570068,39.9494881537627L72.43183990478516,38.87651049512593L73.12829990386963,36.32220320944634L73.8247599029541,38.40213348439829L74.52121990203858,41.64894935807283L75.21767990112305,40.10064231377632L75.91413990020753,37.95342344956316L76.610599899292,42.69830623250286L77.30705989837647,39.9544480469734L78.00351989746095,41.56124599922774L78.6999798965454,44.804657839729174L79.39643989562988,47.650910474640256L80.09289989471435,40.146629764704954L80.78935989379882,43.30031091358509L81.4858198928833,43.621421566429945L82.18227989196777,44.61727571447713L82.87873989105225,40.881844353367484L83.57519989013672,36.22357111251918L84.27165988922118,41.50582909352593L84.96811988830567,43.915922297904984L85.66457988739013,40.727851927467185L86.36103988647461,44.627525531815536L87.05749988555908,46.76705939038857L87.75395988464355,43.05245769487283L88.45041988372803,47.589666165888644L89.1468798828125,41.34578295766127L89.84333988189698,49.26981584682335L90.53979988098145,42.27320755241968L91.23625988006592,49.494321735517275L91.9327198791504,42.926046424183966L92.62917987823486,44.92729732850876L93.32563987731935,41.769599231895285L94.02209987640381,47.87182374106564L94.71855987548828,46.8303687497355L95.41501987457276,45.19034139886057L96.11147987365722,48.08759795463962L96.8079398727417,49.9985618295115L97.50439987182617,48.28078862403194L98.20085987091063,47.913501931162955L98.89731986999512,45.24847398753704L99.59377986907958,47.98544867108208L100.29023986816406,44.79446459911938L100.98669986724853,45.42961381372925L101.683159866333,41.03005652349188L102.37961986541748,49.84432423778708L103.07607986450195,49.48107335156101L103.77253986358643,45.1333592036664L104.4689998626709,44.43125143071242L105.16545986175537,47.85449240319258L105.86191986083985,51.91064780950137L106.55837985992432,44.46521632680529L107.2548398590088,47.384396364931945L107.95129985809326,50.70784541754786L108.64775985717773,53.12442608681083L109.34421985626221,46.584080820515595L110.04067985534668,51.235432841560396L110.73713985443116,50.78271528844668L111.43359985351563,41.440888438503265L112.1300598526001,40.23044818818349L112.82651985168458,47.528402998227506L113.52297985076903,47.345188691985186L114.21943984985352,52.09207051933677L114.91589984893798,50.305943196206655L115.61235984802245,51.86685742153486L116.30881984710693,45.743322344577194L117.0052798461914,53.26021966499897L117.70173984527588,49.579384847025864L118.39819984436035,51.97457951286333L119.09465984344482,39.60486044071362L119.7911198425293,46.93427191188084L120.48757984161377,46.58158201500069L121.18403984069825,50.675521246585504L121.88049983978271,51.83022398974117L122.57695983886718,48.476845847675264L123.27341983795166,50.34245404508829L123.96987983703613,52.95332862995201L124.66633983612061,50.349309258708374L125.36279983520508,50.05693015455729L126.05925983428955,44.71913268493668L126.75571983337403,49.20357392704196L127.4521798324585,48.06153494164664L128.14863983154297,50.80310176966623L128.84509983062745,49.87383843122703L129.54155982971193,47.59761519626241L130.23801982879638,43.03720083704988L130.93447982788086,48.32073179445101L131.63093982696532,49.40576972574263L132.3273998260498,51.533356465118075L133.02385982513428,52.67637611380981L133.72031982421873,52.088261019608424L134.41677982330322,53.89497284250835L135.1132398223877,50.27667416859079L135.80969982147215,52.12685577799493L136.50615982055663,50.746421317024826L137.20261981964111,53.51913363416013L137.8990798187256,53.455748839175016L138.59553981781005,50.06514320966471L139.29199981689453,57.038262732228446L139.98845981597898,53.5907126253431L140.68491981506347,49.57076632536322L141.38137981414795,55.927859567597054L142.07783981323243,48.882840452388024L142.77429981231688,52.07677594369474L143.47075981140136,56.31979485524303L144.16721981048582,55.19189062255266L144.86367980957033,55.76922784994834L145.56013980865478,54.52638799302804L146.25659980773926,53.28409504448457L146.95305980682372,54.937342490951465L147.6495198059082,57.074368114554844L148.34597980499268,38.34477411101321L149.04243980407716,51.29937397437713L149.73889980316162,50.08129586569112L150.4353598022461,55.20884478223479L151.13181980133055,55.34298820583763L151.82827980041506,54.53900460351451L152.5247397994995,53.48266993255234L153.221199798584,56.71387062912254L153.91765979766845,55.34853272524424L154.61411979675293,54.39179195559609L155.3105797958374,52.409135936083956L156.0070397949219,54.9198791407116L156.70349979400635,52.350946770678846L157.3999597930908,57.076800913886316L158.09641979217528,58.633028700192284L158.79287979125976,45.62565217846304L159.48933979034425,58.14300822399598L160.1857997894287,59.66530883202813L160.88225978851318,58.57301022056117L161.57871978759763,53.76336594223949L162.27517978668214,59.30781934266845L162.9716397857666,53.23787185718659L163.66809978485108,46.60788076436302L164.36455978393553,56.11770278054489L165.06101978302001,57.340495616617474L165.7574797821045,56.762422891749495L166.45393978118898,47.88407260281596L167.15039978027343,60.76686716808233L167.8468597793579,61.842051319136004L168.54331977844237,57.16427796581684L169.23977977752688,58.30327123732043L169.93623977661133,57.26001522012862L170.6326997756958,63.19895929044711L171.32915977478027,60.202627453366546L172.02561977386475,61.48076175950277L172.72207977294923,63.50663297024023L173.4185397720337,63.3115941277124L174.11499977111816,62.03871202788484L174.81145977020262,63.898162791330975L175.5079197692871,63.35691208735216L176.20437976837158,62.862506914686335L176.90083976745606,61.414416115718865L177.59729976654052,63.49518561214563L178.293759765625,60.44157926677296L178.99021976470945,65.28489612808956L179.68667976379396,64.37397307918415L180.38313976287841,57.98370701505837L181.0795997619629,57.28087317408685L181.77605976104735,65.69944324828157L182.47251976013183,61.898505464862865L183.1689797592163,66.20130711967295L183.8654397583008,66.51509108615907L184.56189975738525,65.81478433906675L185.25835975646973,67.16771308046357L185.95481975555418,68.81654754209664L186.6512797546387,68.3145988056123L187.34773975372315,66.19250000891482L188.04419975280763,66.89046825122341L188.74065975189208,67.3634591320994L189.43711975097656,68.12837650329736L190.13357975006105,68.05195077236098L190.83003974914553,70.20944774227685L191.52649974822998,69.89503200232093L192.22295974731443,66.09523518292977L192.91941974639892,67.87848652235411L193.6158797454834,65.93862136860253L194.31233974456788,69.91626713447008L195.00879974365233,70.92368179406913L195.7052597427368,70.52526847099398L196.40171974182127,70.0745028150183L197.09817974090578,70.28095129782164L197.79463973999023,70.55158607926583L198.4910997390747,73.17545445280696L199.18755973815917,73.05548349972817L199.88401973724365,71.16949825055038L200.58047973632813,71.53929317838902L201.2769397354126,73.06638394944594L201.97339973449706,75.50829213422958L202.66985973358155,72.36345581392666L203.366319732666,72.89886968540091L204.0627797317505,72.374790018564L204.75923973083496,77.06631151694243L205.45569972991944,75.45739193736411L206.1521597290039,78.23646913647129L206.84861972808838,78.2451442348626L207.54507972717286,79.69816192394903L208.24153972625734,77.61449287017952L208.9379997253418,77.59738783922103L209.63445972442625,78.79551322160705L210.33091972351073,79.45500928844119L211.0273797225952,78.59384547237369L211.7238397216797,80.10153514023484L212.42029972076415,80.44989691737412L213.11675971984863,82.94899946008431L213.81321971893308,82.81460144120258L214.5096797180176,82.64762465607964L215.20613971710205,82.9343885199133L215.90259971618653,84.16804408788457L216.59905971527098,84.71100152317733L217.29551971435546,84.35845778284616L217.99197971343995,86.15528282241644L218.68843971252443,86.96762092166857L219.38489971160888,87.68794168651691L220.08135971069336,87.72339643646394L220.77781970977782,89.9193278640352L221.47427970886233,89.57237107565713L222.17073970794678,89.47649709425112L222.86719970703126,90.60848899558566L223.56365970611571,91.58786988614413L224.2601197052002,89.96227903052689L224.95657970428468,92.7362548946018L225.65303970336916,94.75615726046787L226.3494997024536,94.22705640896424L227.04595970153807,95.07040798496526L227.74241970062255,96.4124457060991L228.43887969970703,96.61774379542014L229.1353396987915,97.55280153381743L229.83179969787597,99.6293843523249L230.52825969696045,100.24883823946486L231.2247196960449,101.12997364074188L231.9211796951294,101.22626723288529L232.61763969421386,102.84776099040361L233.31409969329835,103.87470876556525L234.0105596923828,104.7043169112344L234.70701969146728,106.19521272014458L235.40347969055176,106.82551519500105L236.09993968963624,108.10990594437924L236.7963996887207,109.29474993971728L237.49285968780518,110.38424328838921L238.18931968688963,111.13786417276894L238.88577968597414,112.09332253656794L239.5822396850586,113.24227331231198L240.27869968414308,113.97371140433786L240.97515968322753,114.56425458314334L241.671619682312,115.20842778597111L242.3680796813965,115.87925334271517L243.06453968048098,116.30017948906122" fill="none"></path></g><g><path style="fill: none;" stroke="rgb(204, 51, 17)" stroke-width="2px" d="M35.51945995330811,-5.6483188447552095L36.21591995239258,5.408094054954432L36.91237995147705,11.60978988252677L37.608839950561524,15.7278779477856L38.305299949646,17.243691090933822L39.001759948730474,17.564113393580243L39.69821994781494,20.046785111348214L40.39467994689941,21.2114264998348L41.09113994598388,22.422998284727328L41.78759994506836,20.9182081742089L42.48405994415283,21.02230935490448L43.18051994323731,23.36803710100199L43.876979942321775,25.26153762563399L44.57343994140625,20.848788528168967L45.269899940490724,22.201736128475346L45.9663599395752,28.074523144105427L46.66281993865967,26.32354882836958L47.35927993774414,24.830979291237185L48.05573993682861,25.519329489677148L48.75219993591308,27.12891856054435L49.44865993499756,24.555337469308455L50.14511993408203,25.2783597729493L50.8415799331665,30.2903884390671L51.538039932250975,30.242533956093354L52.23449993133545,30.156971083481807L52.930959930419924,31.331485111115853L53.6274199295044,27.107117661108845L54.323879928588866,33.20694708876681L55.02033992767334,33.95479714682537L55.716799926757815,27.943915766042522L56.41325992584229,35.338022726408326L57.10971992492676,36.307427253816826L57.806179924011225,32.4395592004183L58.5026399230957,35.089886624052866L59.199099922180174,36.368247237103645L59.89555992126465,36.836523390593044L60.592019920349124,36.293773403305295L61.28847991943359,38.45282623325875L61.984939918518066,36.52300344884057L62.68139991760254,39.06721178845814L63.377859916687015,37.45054119705628L64.07431991577148,40.60943683442596L64.77077991485596,41.24943278878922L65.46723991394043,38.08359707270651L66.1636999130249,39.5072372954472L66.86015991210937,35.859433857544445L67.55661991119385,38.634446961644386L68.25307991027832,33.50735065892982L68.9495399093628,43.800354900205235L69.64599990844727,44.4889596939241L70.34245990753173,42.931100611942384L71.03891990661621,43.08256594396349L71.73537990570068,43.50441146214993L72.43183990478516,43.733132317127456L73.12829990386963,42.051530500157696L73.8247599029541,40.645872247669416L74.52121990203858,46.07020382374321L75.21767990112305,44.03231948762473L75.91413990020753,42.15731955325768L76.610599899292,47.32932834905674L77.30705989837647,46.680902462126284L78.00351989746095,46.19129688194002L78.6999798965454,49.692802329037335L79.39643989562988,51.35601670919945L80.09289989471435,45.376742860816194L80.78935989379882,47.82758073927002L81.4858198928833,49.3482217632621L82.18227989196777,50.08354950538191L82.87873989105225,47.72853374633283L83.57519989013672,42.32033596737588L84.27165988922118,48.47162192973096L84.96811988830567,49.387702890397264L85.66457988739013,45.74163447217279L86.36103988647461,50.50214186167159L87.05749988555908,52.04804439500094L87.75395988464355,47.77635051148749L88.45041988372803,52.30373349062968L89.1468798828125,45.96166136984948L89.84333988189698,53.11938132850719L90.53979988098145,47.45353312732868L91.23625988006592,53.185943849750856L91.9327198791504,46.64809738897051L92.62917987823486,50.205264907593715L93.32563987731935,48.3772708052708L94.02209987640381,51.65171498143066L94.71855987548828,50.76431842218426L95.41501987457276,49.013645849001165L96.11147987365722,52.22318708795743L96.8079398727417,54.40939674765755L97.50439987182617,53.02168274760257L98.20085987091063,52.563552687449075L98.89731986999512,49.82113720849989L99.59377986907958,53.19127149169769L100.29023986816406,51.22639942388771L100.98669986724853,50.87418099974623L101.683159866333,48.600616871027654L102.37961986541748,53.9305313164579L103.07607986450195,52.94368229771908L103.77253986358643,49.1631404249747L104.4689998626709,51.383805312415916L105.16545986175537,55.275869346762335L105.86191986083985,57.063345081925036L106.55837985992432,49.253342589334665L107.2548398590088,52.40655226547612L107.95129985809326,55.0186715383699L108.64775985717773,57.329793185449944L109.34421985626221,50.8180003082078L110.04067985534668,56.145302794665895L110.73713985443116,55.64743701209834L111.43359985351563,49.13572899994915L112.1300598526001,45.38895400474743L112.82651985168458,53.6236214225014L113.52297985076903,51.46980193994705L114.21943984985352,56.60518673340721L114.91589984893798,56.3984082196868L115.61235984802245,56.9445528106929L116.30881984710693,53.535738904015645L117.0052798461914,58.057049314283944L117.70173984527588,54.55990970474659L118.39819984436035,56.90571288648228L119.09465984344482,46.08989252530955L119.7911198425293,50.1377028641441L120.48757984161377,51.58078662262703L121.18403984069825,54.85346749074431L121.88049983978271,57.12244890444313L122.57695983886718,53.348337919854046L123.27341983795166,54.3986377397614L123.96987983703613,58.4842884806006L124.66633983612061,55.33542578310957L125.36279983520508,56.435824296226656L126.05925983428955,49.707201106475935L126.75571983337403,55.28554396735959L127.4521798324585,53.73565277466119L128.14863983154297,56.66185775659385L128.84509983062745,54.862614061874254L129.54155982971193,52.05890712689961L130.23801982879638,47.99326568908904L130.93447982788086,53.698661023586126L131.63093982696532,56.30623529927925L132.3273998260498,57.446652418453596L133.02385982513428,55.57265200629247L133.72031982421873,57.5277080116836L134.41677982330322,59.40218932603814L135.1132398223877,55.23466262940367L135.80969982147215,56.92608993824706L136.50615982055663,56.40073729501577L137.20261981964111,58.258509615512295L137.8990798187256,57.40350323341167L138.59553981781005,55.30641135077258L139.29199981689453,61.278377371706625L139.98845981597898,59.17618415403527L140.68491981506347,54.235875920922055L141.38137981414795,60.88133131957359L142.07783981323243,54.271076075590216L142.77429981231688,57.36054263746519L143.47075981140136,61.25340817546734L144.16721981048582,59.76470471479192L144.86367980957033,60.37486587425292L145.56013980865478,59.95766907726966L146.25659980773926,60.25410284697318L146.95305980682372,58.62102500426606L147.6495198059082,61.305977385827646L148.34597980499268,47.99442551202614L149.04243980407716,56.68048092977081L149.73889980316162,53.86235635844801L150.4353598022461,59.89409569318907L151.13181980133055,58.89604448217975L151.82827980041506,59.854859731877994L152.5247397994995,58.03024137436387L153.221199798584,62.269403638909964L153.91765979766845,60.118007526232304L154.61411979675293,59.60940159467813L155.3105797958374,58.00892137712178L156.0070397949219,61.24728845931956L156.70349979400635,57.56439802020593L157.3999597930908,60.90713973728771L158.09641979217528,63.572337411099554L158.79287979125976,49.27614301097614L159.48933979034425,62.16908366957841L160.1857997894287,63.892863437748474L160.88225978851318,62.83736798826112L161.57871978759763,57.26813398068832L162.27517978668214,64.81286705160043L162.9716397857666,58.52754138964505L163.66809978485108,52.21889668603565L164.36455978393553,61.862890414184676L165.06101978302001,62.02044717398924L165.7574797821045,62.95682975078216L166.45393978118898,55.75967581226314L167.15039978027343,65.36805448973398L167.8468597793579,65.65889659275702L168.54331977844237,62.72906127073671L169.23977977752688,62.3916376611343L169.93623977661133,62.15228038117266L170.6326997756958,66.63075277840653L171.32915977478027,65.36777160609077L172.02561977386475,66.679823661046L172.72207977294923,66.8062915084635L173.4185397720337,67.287533162266L174.11499977111816,67.41798023959775L174.81145977020262,68.10081420699544L175.5079197692871,67.18313966847245L176.20437976837158,67.61682858185395L176.90083976745606,66.60517066760698L177.59729976654052,67.27583120889251L178.293759765625,66.9334948533533L178.99021976470945,69.06486280409278L179.68667976379396,68.90622165698929L180.38313976287841,61.97920273881148L181.0795997619629,62.81635916302655L181.77605976104735,69.86885583587066L182.47251976013183,67.51105838766352L183.1689797592163,69.1413073939387L183.8654397583008,70.80140062457092L184.56189975738525,69.36232438436657L185.25835975646973,71.12642450114663L185.95481975555418,73.45396282898673L186.6512797546387,72.87891695910093L187.34773975372315,71.4008216350453L188.04419975280763,70.60955836721116L188.74065975189208,72.67880506990514L189.43711975097656,72.90382957861159L190.13357975006105,72.35109379871908L190.83003974914553,73.70826579476382L191.52649974822998,73.78771838068239L192.22295974731443,69.71000724076218L192.91941974639892,71.53229652294733L193.6158797454834,72.6137418319704L194.31233974456788,73.86835907790237L195.00879974365233,75.58885739581137L195.7052597427368,75.08392895161872L196.40171974182127,74.33005347196013L197.09817974090578,73.13632221549838L197.79463973999023,74.61041002127544L198.4910997390747,75.66520769110957L199.18755973815917,77.05768356582499L199.88401973724365,75.131802293502L200.58047973632813,76.00991083979686L201.2769397354126,76.4530669257706L201.97339973449706,78.58711284166566L202.66985973358155,75.30204166997646L203.366319732666,77.8006303074015L204.0627797317505,77.66848592821059L204.75923973083496,79.85079650836201L205.45569972991944,78.84732807558551L206.1521597290039,81.3207212098567L206.84861972808838,79.51452329224192L207.54507972717286,81.88292887706886L208.24153972625734,80.47219757791261L208.9379997253418,79.87812778302198L209.63445972442625,82.03591706603584L210.33091972351073,82.00912798502532L211.0273797225952,80.89637217142801L211.7238397216797,83.07038011665168L212.42029972076415,83.34189183738977L213.11675971984863,85.28761739728286L213.81321971893308,84.47767437954312L214.5096797180176,84.62255323740517L215.20613971710205,84.02547073171453L215.90259971618653,85.70981652002327L216.59905971527098,86.59355445081769L217.29551971435546,86.13770631871928L217.99197971343995,87.14401773210989L218.68843971252443,88.61606877565593L219.38489971160888,88.07582230861044L220.08135971069336,89.48610570866497L220.77781970977782,90.65243025482853L221.47427970886233,90.20518178548325L222.17073970794678,90.28138592423245L222.86719970703126,91.3487200541875L223.56365970611571,90.59422223051388L224.2601197052002,90.79868581308749L224.95657970428468,91.49416939406335L225.65303970336916,93.16257468907808L226.3494997024536,92.82994124250042L227.04595970153807,93.95124014212222L227.74241970062255,94.2757123955937L228.43887969970703,94.77200817394153L229.1353396987915,94.97393523318117L229.83179969787597,97.03205517924282L230.52825969696045,97.56554544194334L231.2247196960449,97.79059352428673L231.9211796951294,97.39326458851049L232.61763969421386,98.44886376200036L233.31409969329835,98.95314628854105L234.0105596923828,99.63691377196126L234.70701969146728,100.7897683419814L235.40347969055176,100.87969233742554L236.09993968963624,101.64768371087955L236.7963996887207,102.20621389073017L237.49285968780518,102.69082657461406L238.18931968688963,103.38759256143908L238.88577968597414,103.51705897547443L239.5822396850586,104.28120784610837L240.27869968414308,104.41747761176255L240.97515968322753,104.87786602633423L241.671619682312,104.6606632503621L242.3680796813965,105.18364910044534L243.06453968048098,105.44805572701186" fill="none"></path></g></g></g></g></g></g><g transform="translate(51, 177)" clip-path="url(#clip_1)"><clipPath id="clip_1"><rect width="278" height="22"></rect></clipPath><g><g><line x1="0" y1="0" x2="0" y2="5" style="visibility: inherit;" fill="rgb(0, 0, 0)" stroke="rgb(204, 204, 204)" stroke-width="1px"></line><line x1="34.82299995422363" y1="0" x2="34.82299995422363" y2="5" style="visibility: inherit;" fill="rgb(0, 0, 0)" stroke="rgb(204, 204, 204)" stroke-width="1px"></line><line x1="69.64599990844727" y1="0" x2="69.64599990844727" y2="5" style="visibility: inherit;" fill="rgb(0, 0, 0)" stroke="rgb(204, 204, 204)" stroke-width="1px"></line><line x1="104.4689998626709" y1="0" x2="104.4689998626709" y2="5" style="visibility: inherit;" fill="rgb(0, 0, 0)" stroke="rgb(204, 204, 204)" stroke-width="1px"></line><line x1="139.29199981689453" y1="0" x2="139.29199981689453" y2="5" style="visibility: inherit;" fill="rgb(0, 0, 0)" stroke="rgb(204, 204, 204)" stroke-width="1px"></line><line x1="174.11499977111816" y1="0" x2="174.11499977111816" y2="5" style="visibility: inherit;" fill="rgb(0, 0, 0)" stroke="rgb(204, 204, 204)" stroke-width="1px"></line><line x1="208.9379997253418" y1="0" x2="208.9379997253418" y2="5" style="visibility: inherit;" fill="rgb(0, 0, 0)" stroke="rgb(204, 204, 204)" stroke-width="1px"></line><line x1="243.76099967956543" y1="0" x2="243.76099967956543" y2="5" style="visibility: inherit;" fill="rgb(0, 0, 0)" stroke="rgb(204, 204, 204)" stroke-width="1px"></line><line x1="278.58399963378906" y1="0" x2="278.58399963378906" y2="5" style="visibility: inherit;" fill="rgb(0, 0, 0)" stroke="rgb(204, 204, 204)" stroke-width="1px"></line></g><g transform="translate(0, 8)"><text style="text-anchor: middle; visibility: hidden; font-family: &quot;Helvetica Neue&quot;, sans-serif; font-size: 12px; font-weight: 200;" x="0" y="0" dx="0em" dy="0.95em" fill="rgb(50, 49, 63)" stroke="none" stroke-width="1px">-50</text><text style="text-anchor: middle; visibility: inherit; font-family: &quot;Helvetica Neue&quot;, sans-serif; font-size: 12px; font-weight: 200;" x="34.82299995422363" y="0" dx="0em" dy="0.95em" fill="rgb(50, 49, 63)" stroke="none" stroke-width="1px">0</text><text style="text-anchor: middle; visibility: inherit; font-family: &quot;Helvetica Neue&quot;, sans-serif; font-size: 12px; font-weight: 200;" x="69.64599990844727" y="0" dx="0em" dy="0.95em" fill="rgb(50, 49, 63)" stroke="none" stroke-width="1px">50</text><text style="text-anchor: middle; visibility: inherit; font-family: &quot;Helvetica Neue&quot;, sans-serif; font-size: 12px; font-weight: 200;" x="104.4689998626709" y="0" dx="0em" dy="0.95em" fill="rgb(50, 49, 63)" stroke="none" stroke-width="1px">100</text><text style="text-anchor: middle; visibility: inherit; font-family: &quot;Helvetica Neue&quot;, sans-serif; font-size: 12px; font-weight: 200;" x="139.29199981689453" y="0" dx="0em" dy="0.95em" fill="rgb(50, 49, 63)" stroke="none" stroke-width="1px">150</text><text style="text-anchor: middle; visibility: inherit; font-family: &quot;Helvetica Neue&quot;, sans-serif; font-size: 12px; font-weight: 200;" x="174.11499977111816" y="0" dx="0em" dy="0.95em" fill="rgb(50, 49, 63)" stroke="none" stroke-width="1px">200</text><text style="text-anchor: middle; visibility: inherit; font-family: &quot;Helvetica Neue&quot;, sans-serif; font-size: 12px; font-weight: 200;" x="208.9379997253418" y="0" dx="0em" dy="0.95em" fill="rgb(50, 49, 63)" stroke="none" stroke-width="1px">250</text><text style="text-anchor: middle; visibility: inherit; font-family: &quot;Helvetica Neue&quot;, sans-serif; font-size: 12px; font-weight: 200;" x="243.76099967956543" y="0" dx="0em" dy="0.95em" fill="rgb(50, 49, 63)" stroke="none" stroke-width="1px">300</text><text style="text-anchor: middle; visibility: hidden; font-family: &quot;Helvetica Neue&quot;, sans-serif; font-size: 12px; font-weight: 200;" x="278.58399963378906" y="0" dx="0em" dy="0.95em" fill="rgb(50, 49, 63)" stroke="none" stroke-width="1px">350</text></g><line x1="0" y1="0" x2="278.58399963378906" y2="0" fill="rgb(0, 0, 0)" stroke="rgb(204, 204, 204)" stroke-width="1px"></line></g></g></g></g></svg>