<svg viewBox="0 0 330 200" xmlns="http://www.w3.org/2000/svg"><g><g><g><g><g><line x1="51.41600036621094" y1="177.9749994277954" x2="46.41600036621094" y2="177.9749994277954" style="visibility: inherit;" fill="rgb(0, 0, 0)" stroke="rgb(204, 204, 204)" stroke-width="1px"></line><line x1="51.41600036621094" y1="164.28461485642654" x2="46.41600036621094" y2="164.28461485642654" style="visibility: inherit;" fill="rgb(0, 0, 0)" stroke="rgb(204, 204, 204)" stroke-width="1px"></line><line x1="51.41600036621094" y1="150.59423028505765" x2="46.41600036621094" y2="150.59423028505765" style="visibility: inherit;" fill="rgb(0, 0, 0)" stroke="rgb(204, 204, 204)" stroke-width="1px"></line><line x1="51.41600036621094" y1="136.90384571368878" x2="46.41600036621094" y2="136.90384571368878" style="visibility: inherit;" fill="rgb(0, 0, 0)" stroke="rgb(204, 204, 204)" stroke-width="1px"></line><line x1="51.41600036621094" y1="123.21346114231989" x2="46.41600036621094" y2="123.21346114231989" style="visibility: inherit;" fill="rgb(0, 0, 0)" stroke="rgb(204, 204, 204)" stroke-width="1px"></line><line x1="51.41600036621094" y1="109.52307657095103" x2="46.41600036621094" y2="109.52307657095103" style="visibility: inherit;" fill="rgb(0, 0, 0)" stroke="rgb(204, 204, 204)" stroke-width="1px"></line><line x1="51.41600036621094" y1="95.83269199958215" x2="46.41600036621094" y2="95.83269199958215" style="visibility: inherit;" fill="rgb(0, 0, 0)" stroke="rgb(204, 204, 204)" stroke-width="1px"></line><line x1="51.41600036621094" y1="82.14230742821327" x2="46.41600036621094" y2="82.14230742821327" style="visibility: inherit;" fill="rgb(0, 0, 0)" stroke="rgb(204, 204, 204)" stroke-width="1px"></line><line x1="51.41600036621094" y1="68.4519228568444" x2="46.41600036621094" y2="68.4519228568444" style="visibility: inherit;" fill="rgb(0, 0, 0)" stroke="rgb(204, 204, 204)" stroke-width="1px"></line><line x1="51.41600036621094" y1="54.76153828547551" x2="46.41600036621094" y2="54.76153828547551" style="visibility: inherit;" fill="rgb(0, 0, 0)" stroke="rgb(204, 204, 204)" stroke-width="1px"></line><line x1="51.41600036621094" y1="41.07115371410666" x2="46.41600036621094" y2="41.07115371410666" style="visibility: inherit;" fill="rgb(0, 0, 0)" stroke="rgb(204, 204, 204)" stroke-width="1px"></line><line x1="51.41600036621094" y1="27.380769142737762" x2="46.41600036621094" y2="27.380769142737762" style="visibility: inherit;" fill="rgb(0, 0, 0)" stroke="rgb(204, 204, 204)" stroke-width="1px"></line><line x1="51.41600036621094" y1="13.690384571368867" x2="46.41600036621094" y2="13.690384571368867" style="visibility: inherit;" fill="rgb(0, 0, 0)" stroke="rgb(204, 204, 204)" stroke-width="1px"></line><line x1="51.41600036621094" y1="0" x2="46.41600036621094" y2="0" style="visibility: inherit;" fill="rgb(0, 0, 0)" stroke="rgb(204, 204, 204)" stroke-width="1px"></line></g><g transform="translate(41.41600036621094, 0)"><text style="text-anchor: end; visibility: hidden; font-family: &quot;Helvetica Neue&quot;, sans-serif; font-size: 12px; font-weight: 200;" x="0" y="177.9749994277954" dx="0em" dy="0.3em" fill="rgb(50, 49, 63)" stroke="none" stroke-width="1px">-0.1</text><text style="text-anchor: end; visibility: inherit; font-family: &quot;Helvetica Neue&quot;, sans-serif; font-size: 12px; font-weight: 200;" x="0" y="164.28461485642654" dx="0em" dy="0.3em" fill="rgb(50, 49, 63)" stroke="none" stroke-width="1px">0</text><text style="text-anchor: end; visibility: hidden; font-family: &quot;Helvetica Neue&quot;, sans-serif; font-size: 12px; font-weight: 200;" x="0" y="150.59423028505765" dx="0em" dy="0.3em" fill="rgb(50, 49, 63)" stroke="none" stroke-width="1px">0.1</text><text style="text-anchor: end; visibility: inherit; font-family: &quot;Helvetica Neue&quot;, sans-serif; font-size: 12px; font-weight: 200;" x="0" y="136.90384571368878" dx="0em" dy="0.3em" fill="rgb(50, 49, 63)" stroke="none" stroke-width="1px">0.2</text><text style="text-anchor: end; visibility: hidden; font-family: &quot;Helvetica Neue&quot;, sans-serif; font-size: 12px; font-weight: 200;" x="0" y="123.21346114231989" dx="0em" dy="0.3em" fill="rgb(50, 49, 63)" stroke="none" stroke-width="1px">0.3</text><text style="text-anchor: end; visibility: inherit; font-family: &quot;Helvetica Neue&quot;, sans-serif; font-size: 12px; font-weight: 200;" x="0" y="109.52307657095103" dx="0em" dy="0.3em" fill="rgb(50, 49, 63)" stroke="none" stroke-width="1px">0.4</text><text style="text-anchor: end; visibility: hidden; font-family: &quot;Helvetica Neue&quot;, sans-serif; font-size: 12px; font-weight: 200;" x="0" y="95.83269199958215" dx="0em" dy="0.3em" fill="rgb(50, 49, 63)" stroke="none" stroke-width="1px">0.5</text><text style="text-anchor: end; visibility: inherit; font-family: &quot;Helvetica Neue&quot;, sans-serif; font-size: 12px; font-weight: 200;" x="0" y="82.14230742821327" dx="0em" dy="0.3em" fill="rgb(50, 49, 63)" stroke="none" stroke-width="1px">0.6</text><text style="text-anchor: end; visibility: hidden; font-family: &quot;Helvetica Neue&quot;, sans-serif; font-size: 12px; font-weight: 200;" x="0" y="68.4519228568444" dx="0em" dy="0.3em" fill="rgb(50, 49, 63)" stroke="none" stroke-width="1px">0.7</text><text style="text-anchor: end; visibility: inherit; font-family: &quot;Helvetica Neue&quot;, sans-serif; font-size: 12px; font-weight: 200;" x="0" y="54.76153828547551" dx="0em" dy="0.3em" fill="rgb(50, 49, 63)" stroke="none" stroke-width="1px">0.8</text><text style="text-anchor: end; visibility: hidden; font-family: &quot;Helvetica Neue&quot;, sans-serif; font-size: 12px; font-weight: 200;" x="0" y="41.07115371410666" dx="0em" dy="0.3em" fill="rgb(50, 49, 63)" stroke="none" stroke-width="1px">0.9</text><text style="text-anchor: end; visibility: inherit; font-family: &quot;Helvetica Neue&quot;, sans-serif; font-size: 12px; font-weight: 200;" x="0" y="27.380769142737762" dx="0em" dy="0.3em" fill="rgb(50, 49, 63)" stroke="none" stroke-width="1px">1</text><text style="text-anchor: end; visibility: hidden; font-family: &quot;Helvetica Neue&quot;, sans-serif; font-size: 12px; font-weight: 200;" x="0" y="13.690384571368867" dx="0em" dy="0.3em" fill="rgb(50, 49, 63)" stroke="none" stroke-width="1px">1.1</text><text style="text-anchor: end; visibility: hidden; font-family: &quot;Helvetica Neue&quot;, sans-serif; font-size: 12px; font-weight: 200;" x="0" y="0" dx="0em" dy="0.3em" fill="rgb(50, 49, 63)" stroke="none" stroke-width="1px">1.2</text></g><line x1="51.41600036621094" y1="0" x2="51.41600036621094" y2="177.9749994277954" fill="rgb(0, 0, 0)" stroke="rgb(204, 204, 204)" stroke-width="1px"></line></g></g><g transform="translate(51, 0)" clip-path="url(#clip_0)"><clipPath id="clip_0"><rect width="278" height="177"></rect></clipPath><g><g><g><line x1="0" y1="0" x2="0" y2="177.9749994277954" fill="rgb(0, 0, 0)" stroke="rgb(60, 60, 60)" stroke-width="1px" opacity="0.25"></line><line x1="19.89885711669922" y1="0" x2="19.89885711669922" y2="177.9749994277954" fill="rgb(0, 0, 0)" stroke="rgb(60, 60, 60)" stroke-width="1px" opacity="0.25"></line><line x1="39.79771423339844" y1="0" x2="39.79771423339844" y2="177.9749994277954" fill="rgb(0, 0, 0)" stroke="rgb(60, 60, 60)" stroke-width="1px" opacity="0.25"></line><line x1="59.696571350097656" y1="0" x2="59.696571350097656" y2="177.9749994277954" fill="rgb(0, 0, 0)" stroke="rgb(60, 60, 60)" stroke-width="1px" opacity="0.25"></line><line x1="79.59542846679688" y1="0" x2="79.59542846679688" y2="177.9749994277954" fill="rgb(0, 0, 0)" stroke="rgb(60, 60, 60)" stroke-width="1px" opacity="0.25"></line><line x1="99.4942855834961" y1="0" x2="99.4942855834961" y2="177.9749994277954" fill="rgb(0, 0, 0)" stroke="rgb(60, 60, 60)" stroke-width="1px" opacity="0.25"></line><line x1="119.39314270019531" y1="0" x2="119.39314270019531" y2="177.9749994277954" fill="rgb(0, 0, 0)" stroke="rgb(60, 60, 60)" stroke-width="1px" opacity="0.25"></line><line x1="139.29199981689453" y1="0" x2="139.29199981689453" y2="177.9749994277954" fill="rgb(0, 0, 0)" stroke="rgb(60, 60, 60)" stroke-width="1px" opacity="0.25"></line><line x1="159.19085693359375" y1="0" x2="159.19085693359375" y2="177.9749994277954" fill="rgb(0, 0, 0)" stroke="rgb(60, 60, 60)" stroke-width="1px" opacity="0.25"></line><line x1="179.08971405029297" y1="0" x2="179.08971405029297" y2="177.9749994277954" fill="rgb(0, 0, 0)" stroke="rgb(60, 60, 60)" stroke-width="1px" opacity="0.25"></line><line x1="198.9885711669922" y1="0" x2="198.9885711669922" y2="177.9749994277954" fill="rgb(0, 0, 0)" stroke="rgb(60, 60, 60)" stroke-width="1px" opacity="0.25"></line><line x1="218.8874282836914" y1="0" x2="218.8874282836914" y2="177.9749994277954" fill="rgb(0, 0, 0)" stroke="rgb(60, 60, 60)" stroke-width="1px" opacity="0.25"></line><line x1="238.78628540039062" y1="0" x2="238.78628540039062" y2="177.9749994277954" fill="rgb(0, 0, 0)" stroke="rgb(60, 60, 60)" stroke-width="1px" opacity="0.25"></line><line x1="258.68514251708984" y1="0" x2="258.68514251708984" y2="177.9749994277954" fill="rgb(0, 0, 0)" stroke="rgb(60, 60, 60)" stroke-width="1px" opacity="0.25"></line><line x1="278.58399963378906" y1="0" x2="278.58399963378906" y2="177.9749994277954" fill="rgb(0, 0, 0)" stroke="rgb(60, 60, 60)" stroke-width="1px" opacity="0.25"></line></g><g><line x1="0" y1="177.9749994277954" x2="278.58399963378906" y2="177.9749994277954" fill="rgb(0, 0, 0)" stroke="rgb(60, 60, 60)" stroke-width="1px" opacity="0.25"></line><line x1="0" y1="164.28461485642654" x2="278.58399963378906" y2="164.28461485642654" fill="rgb(0, 0, 0)" stroke="rgb(60, 60, 60)" stroke-width="1px" opacity="0.25"></line><line x1="0" y1="150.59423028505765" x2="278.58399963378906" y2="150.59423028505765" fill="rgb(0, 0, 0)" stroke="rgb(60, 60, 60)" stroke-width="1px" opacity="0.25"></line><line x1="0" y1="136.90384571368878" x2="278.58399963378906" y2="136.90384571368878" fill="rgb(0, 0, 0)" stroke="rgb(60, 60, 60)" stroke-width="1px" opacity="0.25"></line><line x1="0" y1="123.21346114231989" x2="278.58399963378906" y2="123.21346114231989" fill="rgb(0, 0, 0)" stroke="rgb(60, 60, 60)" stroke-width="1px" opacity="0.25"></line><line x1="0" y1="109.52307657095103" x2="278.58399963378906" y2="109.52307657095103" fill="rgb(0, 0, 0)" stroke="rgb(60, 60, 60)" stroke-width="1px" opacity="0.25"></line><line x1="0" y1="95.83269199958215" x2="278.58399963378906" y2="95.83269199958215" fill="rgb(0, 0, 0)" stroke="rgb(60, 60, 60)" stroke-width="1px" opacity="0.25"></line><line x1="0" y1="82.14230742821327" x2="278.58399963378906" y2="82.14230742821327" fill="rgb(0, 0, 0)" stroke="rgb(60, 60, 60)" stroke-width="1px" opacity="0.25"></line><line x1="0" y1="68.4519228568444" x2="278.58399963378906" y2="68.4519228568444" fill="rgb(0, 0, 0)" stroke="rgb(60, 60, 60)" stroke-width="1px" opacity="0.25"></line><line x1="0" y1="54.76153828547551" x2="278.58399963378906" y2="54.76153828547551" fill="rgb(0, 0, 0)" stroke="rgb(60, 60, 60)" stroke-width="1px" opacity="0.25"></line><line x1="0" y1="41.07115371410666" x2="278.58399963378906" y2="41.07115371410666" fill="rgb(0, 0, 0)" stroke="rgb(60, 60, 60)" stroke-width="1px" opacity="0.25"></line><line x1="0" y1="27.380769142737762" x2="278.58399963378906" y2="27.380769142737762" fill="rgb(0, 0, 0)" stroke="rgb(60, 60, 60)" stroke-width="1px" opacity="0.25"></line><line x1="0" y1="13.690384571368867" x2="278.58399963378906" y2="13.690384571368867" fill="rgb(0, 0, 0)" stroke="rgb(60, 60, 60)" stroke-width="1px" opacity="0.25"></line><line x1="0" y1="0" x2="278.58399963378906" y2="0" fill="rgb(0, 0, 0)" stroke="rgb(60, 60, 60)" stroke-width="1px" opacity="0.25"></line></g></g></g><g><g><line x1="0" y1="164.28461485642654" x2="278.58399963378906" y2="164.28461485642654" fill="rgb(0, 0, 0)" stroke="rgb(153, 153, 153)" stroke-width="1.5px"></line></g></g><g><g><line x1="19.89885711669922" y1="0" x2="19.89885711669922" y2="177.9749994277954" fill="rgb(0, 0, 0)" stroke="rgb(153, 153, 153)" stroke-width="1.5px"></line></g></g><g><g><g><g><g><path style="fill: none;" stroke="rgb(187, 187, 187)" stroke-width="2px" d="M19.982432316589357,27.380769142737762L20.231168030548098,27.380769142737762L20.354540944671633,27.380769142737762L20.36449037322998,27.380769142737762L20.44209591598511,27.380769142737762L20.84206294403076,27.380769142737762L20.965435858154297,27.380769142737762L21.0510009437561,27.380769142737762L21.064930143737794,27.380769142737762L21.16044465789795,27.380769142737762L21.18631317214966,27.380769142737762L21.319635514831543,27.380769142737762L21.506684771728516,27.380769142737762L21.91660122833252,27.380769142737762L22.551374770355224,27.380769142737762L22.559334313201905,27.380769142737762L22.65484882736206,27.380769142737762L22.66877802734375,27.380769142737762L22.75633299865723,27.380769142737762L23.263753855133057,27.380769142737762L23.349318940734864,27.380769142737762L23.355288597869876,27.380769142737762L23.633872597503665,27.380769142737762L23.71346802597046,27.380769142737762L23.95026442565918,27.380769142737762L24.27461579666138,27.380769142737762L24.489523453521727,27.380769142737762L24.65269408187866,27.380769142737762L24.843723110198972,27.380769142737762L24.845712995910645,27.380769142737762L24.869591624450685,27.380769142737762L25.241700252532958,27.380769142737762L25.94412990875244,27.380769142737762L26.326187965393068,27.380769142737762L26.358026136779788,27.380769142737762L26.47542939376831,27.380769142737762L27.098263621521,27.380769142737762L27.102243392944334,27.380769142737762L27.20173767852783,27.380769142737762L27.343019564056398,27.380769142737762L27.488281221008304,27.380769142737762L27.50221042098999,27.380769142737762L27.770844992065427,27.380769142737762L28.489193733978272,27.380769142737762L28.654354248046875,27.380769142737762L28.837423733520506,27.380769142737762L28.8712517906189,27.380769142737762L29.20356270446777,27.380769142737762L29.426429904174807,27.380769142737762L29.7905789894104,27.380769142737762L30.114930360412597,27.380769142737762L30.534796245574952,27.380769142737762L30.562654645538327,27.380769142737762L31.28697304458618,27.380769142737762L31.456113330078125,27.380769142737762L31.56754692993164,27.380769142737762L31.653112015533445,27.380769142737762L31.81827252960205,27.380769142737762L32.236148529052734,27.380769142737762L32.27395635757446,27.380769142737762L32.41324835739135,27.380769142737762L32.98036578521729,27.380769142737762L33.229101499176025,27.380769142737762L33.252980127716064,27.380769142737762L33.537533784484864,27.380769142737762L33.7604009841919,27.380769142737762L34.13648938369751,27.380769142737762L34.588193440246584,27.380769142737762L34.74340452575684,27.380769142737762L34.74937418289184,27.380769142737762L34.844888697052,27.380769142737762L35.415985896301265,27.380769142737762L35.48563189620972,27.380769142737762L35.80003383865356,27.380769142737762L35.94927526702881,27.380769142737762L36.17612223815918,27.380769142737762L36.25770755233764,27.380769142737762L36.54027132339478,27.380769142737762L36.568129723358155,27.380769142737762L36.808905894470215,27.380769142737762L36.828804751586915,27.380769142737762L37.01386412277222,27.380769142737762L37.56506246490479,27.380769142737762L37.67848595046998,27.380769142737762L37.79389932174683,27.380769142737762L38.32519880676269,27.380769142737762L38.73909503479004,27.380769142737762L38.910225205993655,27.380769142737762L38.93609372024536,27.380769142737762L39.19676874847412,27.380769142737762L39.485302176666266,27.380769142737762L39.612654862213134,27.380769142737762L40.34692268981933,27.380769142737762L40.360851889801026,27.380769142737762L40.59167863235474,27.380769142737762L40.75086948928833,27.380769142737762L40.83643457489014,27.380769142737762L41.00557486038208,27.380769142737762L41.34982508850098,27.380769142737762L41.592591145324704,27.380769142737762L41.598560802459716,27.380769142737762L41.719943830871586,27.380769142737762L41.73586291656494,27.380769142737762L41.82739765930175,27.380769142737762L41.99056828765869,27.380769142737762L42.62136205825806,27.380769142737762L42.726826000976565,27.380769142737762L42.846219143676755,27.380769142737762L42.913875257873535,27.380769142737762L43.150671657562256,27.380769142737762L43.29792320022583,27.380769142737762L43.71579919967651,27.380769142737762L43.72574862823486,27.380769142737762L44.103826913452146,27.380769142737762L44.35455251312256,27.380769142737762L45.1126989692688,27.380769142737762L45.52261542587281,27.380769142737762L45.645988339996336,27.380769142737762L45.835027482604985,27.380769142737762L45.88875439682007,27.380769142737762L46.567305424499516,27.380769142737762L46.85384896697998,27.380769142737762L46.95533313827515,27.380769142737762L47.00110050964355,27.380769142737762L47.37917879486084,27.380769142737762L47.91644793701172,27.380769142737762L48.19702182235718,27.380769142737762L48.34228347930908,27.380769142737762L48.429838450622555,27.380769142737762L48.64673599319458,27.380769142737762L49.02680416412353,27.380769142737762L49.086500735473635,27.380769142737762L49.12430856399536,27.380769142737762L49.307378049468994,27.380769142737762L49.367074620819096,27.380769142737762L49.49442730636597,27.380769142737762L49.5322351348877,27.380769142737762L50.68835873336792,27.380769142737762L50.7560148475647,27.380769142737762L51.21965821838379,27.380769142737762L51.26741547546387,27.380769142737762L51.967855245971684,27.380769142737762L52.23251004562378,27.380769142737762L52.37578181686401,27.380769142737762L53.34684604415893,27.380769142737762L53.44236055831909,27.380769142737762L53.85824667205811,27.380769142737762L53.919933129119876,27.380769142737762L54.307960842895504,27.380769142737762L54.35770798568726,27.380769142737762L54.401485471343996,27.380769142737762L54.80742215652466,27.380769142737762L54.83528055648804,27.380769142737762L54.89298724212646,27.380769142737762L56.61423838272095,27.380769142737762L57.93751238098145,27.380769142737762L58.04297632369995,27.380769142737762L58.76331495132446,27.380769142737762L58.98021249389649,27.380769142737762L59.00807089385986,27.380769142737762L59.16129209365845,27.380769142737762L59.39012895050049,27.380769142737762L59.686621921539306,27.380769142737762L59.802035292816164,27.380769142737762L59.81994426422119,27.380769142737762L59.9711755783081,27.380769142737762L60.182103463745115,27.380769142737762L60.19802254943848,27.380769142737762L60.33930443496704,27.380769142737762L60.572121063232416,27.380769142737762L60.76911974868775,27.380769142737762L60.771109634399416,27.380769142737762L60.84672529144287,27.380769142737762L61.246692319488524,27.380769142737762L61.252661976623536,27.380769142737762L61.35016637649536,27.380769142737762L61.39792363357544,27.380769142737762L61.845647918701175,27.380769142737762L61.97300060424804,27.380769142737762L62.10234317550659,27.380769142737762L62.148110546874996,27.380769142737762L62.32123060379028,27.380769142737762L62.46450237503052,27.380769142737762L62.727167288970946,27.380769142737762L63.373880145263676,27.380769142737762L64.16386477279663,27.380769142737762L64.25738940124512,27.380769142737762L64.33300505828858,27.380769142737762L64.38872185821533,27.380769142737762L64.6155688293457,27.380769142737762L65.34784677124023,27.380769142737762L65.94083271331787,27.380769142737762L65.96073157043458,27.380769142737762L66.04828654174804,27.380769142737762L66.10002357025147,27.380769142737762L66.23533579864502,27.380769142737762L66.38457722702026,27.380769142737762L66.51590968399047,27.380769142737762L66.74076676940918,27.380769142737762L66.99945191192627,27.380769142737762L67.02134065475464,27.380769142737762L67.06113836898804,27.380769142737762L67.53274128265382,27.380769142737762L67.81331516799926,27.380769142737762L67.94862739639282,27.380769142737762L68.21726196746826,27.380769142737762L68.2212417388916,27.380769142737762L68.29685739593506,27.380769142737762L68.34262476730346,27.380769142737762L68.89183322372436,27.380769142737762L69.08684202346802,27.380769142737762L69.10276110916138,27.380769142737762L69.44900122299194,27.380769142737762L69.51466745147705,27.380769142737762L69.66191899414063,27.380769142737762L70.14944099349975,27.380769142737762L70.30664196472168,27.380769142737762L70.4240452217102,27.380769142737762L71.26178710632325,27.380769142737762L71.33143310623169,27.380769142737762L71.47868464889527,27.380769142737762L71.7672180770874,27.380769142737762L71.94431790542602,27.380769142737762L72.23882099075317,27.380769142737762L72.57113190460205,27.380769142737762L73.22182453231811,27.380769142737762L73.22381441802979,27.380769142737762L73.28550087509154,27.380769142737762L73.90833510284423,27.380769142737762L73.93221373138428,27.380769142737762L73.94017327423096,27.380769142737762L73.94216315994264,27.380769142737762L74.17100001678467,27.380769142737762L74.63066361618043,27.380769142737762L74.82567241592407,27.380769142737762L74.85950047302246,27.380769142737762L74.89531841583252,27.380769142737762L75.2674270439148,27.380769142737762L75.44850664367675,27.380769142737762L75.51616275787353,27.380769142737762L75.55198070068359,27.380769142737762L76.48722698516845,27.380769142737762L76.51309549942017,27.380769142737762L76.6961649848938,27.380769142737762L76.75387167053222,27.380769142737762L77.54584618377686,27.380769142737762L77.59758321228027,27.380769142737762L77.72891566925048,27.380769142737762L78.0055097831726,27.380769142737762L78.12888269729613,27.380769142737762L78.54277892532349,27.380769142737762L78.57461709671021,27.380769142737762L78.72186863937377,27.380769142737762L78.82136292495727,27.380769142737762L79.25515801010133,27.380769142737762L79.60537789535523,27.380769142737762L79.65711492385864,27.380769142737762L79.7784979522705,27.380769142737762L79.94166858062744,27.380769142737762L80.07897069473266,27.380769142737762L80.24612109451293,27.380769142737762L80.50878600845337,27.380769142737762L80.53067475128174,27.380769142737762L80.81323852233886,27.380769142737762L81.00028777923585,27.380769142737762L81.02814617919923,27.380769142737762L82.39320777740478,27.380769142737762L82.46683354873656,27.380769142737762L82.97027463378906,27.380769142737762L83.19314183349609,27.380769142737762L83.33641360473634,27.380769142737762L83.44784720458985,27.380769142737762L83.46575617599487,27.380769142737762L83.5831594329834,27.380769142737762L83.92144000396729,27.380769142737762L83.98710623245239,27.380769142737762L84.44080017471313,27.380769142737762L84.65371794586181,27.380769142737762L84.88255480270386,27.380769142737762L85.0914928024292,27.380769142737762L85.35415771636963,27.380769142737762L85.37007680206298,27.380769142737762L85.63274171600341,27.380769142737762L85.86754822998046,27.380769142737762L85.92127514419556,27.380769142737762L85.92525491561891,27.380769142737762L86.10434462966919,27.380769142737762L86.24363662948608,27.380769142737762L86.31129274368287,27.380769142737762L86.36700954360961,27.380769142737762L87.01372239990235,27.380769142737762L87.03163137130738,27.380769142737762L87.0555099998474,27.380769142737762L87.09331782836914,27.380769142737762L87.12714588546753,27.380769142737762L87.23459971389771,27.380769142737762L87.25847834243775,27.380769142737762L87.3082254852295,27.380769142737762L87.38185125656128,27.380769142737762L87.58879937057495,27.380769142737762L87.62660719909667,27.380769142737762L87.83554519882202,27.380769142737762L88.27530994110107,27.380769142737762L88.31709754104614,27.380769142737762L88.42654125518798,27.380769142737762L88.59966131210328,27.380769142737762L88.74691285476683,27.380769142737762L89.11305182571411,27.380769142737762L90.20748896713256,27.381805476084452L90.24927656707763,27.382131880288142L90.265195652771,27.382270602074698L90.29504393844604,27.38253988554274L90.50597182388304,27.385102158541685L90.68506153793335,27.388154037846135L91.07905890884399,27.397742161329433L91.09298810882568,27.39815016658403L91.23426999435425,27.40258926375415L91.44121810836792,27.410014959388008L91.47504616546631,27.411328736307837L91.60836850814819,27.41679600671958L92.02425462188721,27.436739303564792L92.08196130752563,27.43984830360492L92.78638084945679,27.48463912045571L92.84607742080688,27.48900477668002L93.06098507766724,27.505488188966154L93.16445913467408,27.513844136580502L93.22614559173584,27.518952362368196L93.33956907730104,27.52859760658714L93.92658536224366,27.583694636169326L94.43002644729614,27.63786957387609L94.49768256149292,27.645637993923827L95.04490113220214,27.712714057781284L95.26776833190918,27.742188357374147L95.89657221679688,27.83209639527945L96.38807398757935,27.909290989451165L96.41991215896606,27.914505296605057L96.44180090179442,27.91810390295069L96.9074341583252,27.997460924971847L96.94723187255859,28.00449493556127L97.18601815795898,28.047539489922343L97.46659204330444,28.099943684824126L97.51434930038452,28.10905852221208L98.09340604248047,28.224132324221557L98.90129964141846,28.39868513224772L98.95701644134522,28.411316974930372L99.05850061264037,28.434540634022625L99.25151952667237,28.479404891819286L99.31320598373414,28.493938038988404L99.32315541229248,28.49629630936002L99.53408329772948,28.546766559354978L100.08329175415038,28.683358558492444L100.48922843933106,28.789138000801984L100.78174163894653,28.86789117504631L100.81357981033325,28.87658984707454L100.82153935317993,28.878768595134147L100.88720558166504,28.896810587492894L100.92700329589843,28.907785928841832L101.07226495285035,28.948211089468344L101.56376672363281,29.08883418052133L101.96970340881347,29.20947317420368L102.02343032302856,29.22574442375742L102.16272232284547,29.26826673139263L102.55671969375611,29.391108953449844L102.58855786514283,29.401203003448813L103.49992552108765,29.700662540120533L103.7407016921997,29.783177522812338L103.9595891204834,29.8594173846883L104.36950557708741,30.00532822384102L104.40532351989746,30.018278310622236L104.82319951934815,30.171598525198647L105.42613488998413,30.400285470406118L106.01713094635011,30.632987187318946L106.49470351715088,30.827173208196825L106.56434951705933,30.855953898856825L106.6718033454895,30.9005815136058L106.73547968826294,30.927158975890933L106.87875145950318,30.987307110525165L106.93247837371827,31.00999220268133L106.94043791656495,31.013362326084376L107.06580071640015,31.066582531495385L107.4398992301941,31.227646685804217L107.59909008712769,31.29720342160971L107.60704962997437,31.300695946589144L107.85180557250976,31.40885813958559L107.86573477249145,31.415051659350524L107.95328974380494,31.454122242531753L108.05875368652343,31.501426371750938L108.61791157150269,31.75661733829773L109.04971677093506,31.95876762174555L109.07757517089844,31.97196251167955L109.37207825622559,32.11254480220708L109.65066225585937,32.24741501917015L110.06057871246338,32.44918177767863L110.07848768386842,32.458084452334134L110.18395162658692,32.51067632965305L110.45258619766234,32.64581583008413L110.7530589401245,32.7989646824536L111.49926608200074,33.18839753787134L111.61268956756591,33.24872519481758L111.76989053878785,33.33282323789729L111.84152642440796,33.37133893393221L112.06638350982665,33.49299794075108L112.09822168121337,33.510313683756635L112.2554226524353,33.596174309536224L112.42655282363891,33.69029296166906L113.903048021698,34.53014729796325L114.02244116439819,34.60022628049464L114.06223887863159,34.62366210231929L114.39653967819214,34.82190369542798L114.58756870651244,34.936316528924976L114.69303264923096,34.99983478696228L114.75471910629273,35.03710198691812L114.82635499191285,35.080489265693075L114.90396053466797,35.12762203270532L115.17856476287842,35.29547539445085L115.30790733413697,35.37512618025531L115.35367470550537,35.40340094439961L115.56460259094239,35.534305350287866L115.77354059066772,35.664956792918275L115.86507533340455,35.72250185402811L116.45209161834717,36.09594090346525L117.09283481750488,36.51225314505652L117.36743904571533,36.69342379831241L117.9445059020996,37.07952733085256L118.05195973052977,37.152225707118504L118.10170687332153,37.185967741674546L118.35243247299194,37.35683218219904L118.5136132156372,37.467393446092586L118.63499624404908,37.55101820307692L119.40508201446534,38.08898129138197L119.50457630004883,38.159411158432306L119.68963567123413,38.29096837272792L119.72147384262085,38.3136779451994L119.78117041397094,38.35630633420078L119.92643207092286,38.46037215444096L120.6447808128357,38.98153358636125L121.02285909805298,39.26019301515305L121.34124081192017,39.49717062713418L121.649673097229,39.728754409649355L121.8347324684143,39.868659411454274L121.94417618255615,39.95172928129236L122.06356932525635,40.0426328520189L122.87544269561768,40.6685537131122L122.97095720977782,40.743079952918805L122.98687629547119,40.755515953079225L123.28137938079834,40.98656116865834L123.37490400924682,41.0603040383761L123.50623646621703,41.16415769588389L123.84451703720093,41.433253481507705L123.95396075134278,41.52081140914649L124.07534377975463,41.6181941033162L124.38775583648682,41.870202628877024L124.42357377929687,41.89921996258471L124.73001617889405,42.14852749336006L124.96880246429444,42.34407625178832L125.1757505783081,42.5144755663226L125.24141680679321,42.56871578487011L125.36876949234009,42.67416066287086L125.54586932067872,42.821319998102666L125.57571760635376,42.84618383831844L126.29406634826661,43.44978681198472L126.76765914764404,43.853206087530424L126.78158834762573,43.865136161175144L126.7895478904724,43.87195800903217L126.7975074333191,43.878779856889196L127.07808131866456,44.119976243202956L127.16563628997802,44.19555513656644L127.49595731811525,44.481991145511074L127.52580560379029,44.50798108022957L127.56759320373536,44.54438330904566L127.5974414894104,44.570414044289606L127.83224800338745,44.77573860861827L128.64014160232546,45.49012316901556L128.72769657363892,45.56828065558818L128.9585233161926,45.77500059788758L129.2172084587097,46.007849196692064L129.30675331573488,46.088732158365445L129.7266192008972,46.46997226827068L129.93754708633423,46.662705790442146L129.94351674346925,46.66817306085389L129.99525377197267,46.715575111334175L130.0569402290344,46.77216544014823L130.41312977142334,47.100234305273005L130.4230791999817,47.10943890381694L130.43899828567504,47.12415157329809L130.76135977096558,47.42319494461009L130.86682371368408,47.52142628970938L131.26480085601807,47.89391876695581L131.5135365699768,48.12815458362596L131.9373822265625,48.52980311636665L132.0030484550476,48.592317681477596L132.34132902603147,48.91552312396743L132.36918742599488,48.94223114793405L132.54230748291016,49.10848512908149L132.89849702529906,49.45218059545775L132.9641632537842,49.51578045454596L133.3203527961731,49.8620545141313L133.91731850967406,50.44722381039443L133.92925782394408,50.45899068193731L134.28544736633302,50.81106657624318L134.83465582275392,51.358062900885216L135.89924467849733,52.43243865752778L136.18777810668945,52.726773648201615L136.41860484924317,52.963204533141536L136.58774513473512,53.13698213118394L136.74295622024536,53.29684675004424L136.79668313446047,53.35227018383013L136.83051119155883,53.38719543362453L137.3618106765747,53.938010687449705L137.82744393310549,54.42433663073162L137.92096856155396,54.52242109393926L138.16174473266602,54.775547553897724L138.57564096069336,55.212733344314714L138.63533753204345,55.275998639094155L138.76865987472533,55.417494861392015L139.46312998809813,56.15879144838323L139.64818935928346,56.35752264779744L139.66012867355346,56.37036665321247L139.70390615921022,56.417458619699275L139.8829958732605,56.61040430460312L140.23719552993776,56.993374356787896L141.5246515853882,58.40046207835266L141.6898120994568,58.58264458463998L141.83109398498536,58.73878819557825L142.02411289901735,58.9525503085722L142.15345547027587,59.09607839703801L142.3444844985962,59.30847777248155L142.6350078125,59.632442104744996L143.54836535415652,60.658240755773974L143.7075562110901,60.8381465927406L144.29855226745605,61.50890723131526L144.3602387245178,61.57917389626377L144.37615781021117,61.597313809883616L145.01093135223388,62.323310199827034L145.30941420898435,62.66642629874174L145.69943180847167,63.11639897383813L145.97403603668212,63.43432482833336L146.11332803649904,63.595935709683374L146.1153179222107,63.59824501942445L146.28246832199096,63.79248816103798L146.59687026443484,64.15874631799402L146.8157576927185,64.41441873074123L146.98290809249877,64.61004093011533L147.2276640350342,64.89705630652148L147.4465514633179,65.15431993976169L147.69926694869994,65.45202505383857L148.26837426223756,66.12504604152377L148.28827311935424,66.14864506545027L148.61859414749148,66.5409910783859L149.02055106124877,67.02002188771542L149.24142837524414,67.28397680713117L149.34888220367432,67.41258006338346L149.72895037460327,67.86841169393601L149.82247500305175,67.98080898147526L149.98763551712037,68.1795238606793L150.1368769454956,68.35931545617461L150.19856340255737,68.43370297419463L150.2900981452942,68.5441418365118L150.43734968795778,68.72199132699518L150.5209248878479,68.82302974824619L150.6522573448181,68.9819477949158L151.04625471572876,69.45971378795605L151.3288184867859,69.80329501286099L151.8243000289917,70.40760791567028L152.5187701423645,71.25849471404906L152.7973541419983,71.60106408592257L153.11772574157715,71.99587445059603L153.1734425415039,72.06463149610249L153.26298739852905,72.17519275999601L154.09674951171874,73.20792750035335L154.16440562591552,73.29199290301267L154.24201116867064,73.38846166541207L155.7344254524231,75.25311095980891L155.77024339523317,75.29807313886666L155.96326230926516,75.54055882178496L156.0647464805603,75.668166545216L156.2299069946289,75.87599626180794L156.38511808013916,76.07149605960565L157.05968933639528,76.92317438817838L157.1770925933838,77.07172910138095L157.5412416786194,77.53310960339616L157.56910007858278,77.56844285844517L158.10636922073363,78.25090508772199L158.1481568206787,78.30406001229225L158.51827556304931,78.77539584251988L158.63169904861448,78.92000922496295L158.78890001983643,79.1205682879178L159.0217166481018,79.41788987705536L160.10222458953857,80.80195794215517L160.11018413238526,80.81217439373053L160.17187058944702,80.89140085407021L160.3449906463623,81.11383715877712L160.49622196044922,81.30829246312302L161.01160235977173,81.97186404911152L161.172783102417,82.17967744549328L161.80556675872802,82.99678140879057L162.03241372985838,83.29016982727369L162.2831393295288,83.61472168710375L162.33487635803223,83.6817243100154L162.56570310058595,83.98082480206303L162.8721455001831,84.37826272057615L162.98357910003665,84.52288426312433L163.0850632713318,84.65463731994217L163.12884075698855,84.71148877211917L163.19450698547362,84.79677819054231L163.2442541282654,84.86139806276704L163.56263584213258,85.2752296324103L163.7178469276428,85.47711063239008L163.76162441329956,85.53406816593328L163.7656041847229,85.5392498326668L163.96857252731323,85.80342507492003L163.97454218444824,85.81120165507286L164.2809845840454,86.21035319565533L164.60931572647095,86.63838334815894L164.90779858322142,87.02782436368176L165.17842304000854,87.38116507427692L165.51670361099244,87.82316532669829L165.79329772491457,88.18482118438233L166.73053389511108,89.41181538656338L166.74048332366942,89.42485523450061L166.83400795211793,89.5474200129847L166.95340109481813,89.70391450844194L166.99916846618655,89.76390760107942L167.17228852310183,89.99089724442774L167.52250840835572,90.45028668080047L167.5364376083374,90.46856531620689L168.87165092086792,92.22208213935374L168.94328680648803,92.31624159201206L169.41886949157714,92.94149332448782L169.4805559486389,93.02261292920889L170.07354189071657,93.80258025423178L170.1093598335266,93.84970486113895L170.2685506904602,94.05914211843405L170.39192360458375,94.22147108903218L170.5272358329773,94.39951642203779L170.98689943237304,95.00442501251882L170.99087920379637,95.00966379998798L171.2416048034668,95.33964212970432L171.32716988906859,95.45225157997596L171.5639662887573,95.76391047376042L171.98781194534303,96.32175565812247L172.08929611663817,96.45532025827079L172.37583965911867,96.83242727494682L172.46936428756712,96.95550614005171L172.53304063034057,97.03930225924299L172.7021809158325,97.26187728573646L172.93300765838623,97.56560047731881L172.94693685836793,97.58392399330322L172.96882560119627,97.61272508422596L173.51405428619384,98.32997792156316L173.76477988586427,98.65971960823181L174.03540434265136,99.01556139103772L174.17469634246825,99.1986782293581L174.39955342788699,99.49423723579574L174.7159452560425,99.9099905101882L174.91294394149782,100.16878008308062L175.37857719802858,100.78021267758282L175.52383885498048,100.97088169316599L175.63726234054565,101.11973017015188L176.6521040534973,102.45033730674048L176.78741628189087,102.62757070928942L176.94063748168944,102.82820729324264L176.9684958816528,102.86467888295199L177.04610142440796,102.96627219134926L177.1097777671814,103.04961950476047L177.71470302352904,103.84084777481054L177.93160056610108,104.12428902518634L178.28779010849,104.58943949575414L178.3335574798584,104.64917962513375L178.71561553649903,105.1475947641097L178.76536267929077,105.21245535943464L179.02603770751952,105.55218909478864L179.03996690750122,105.57033308846103L179.08573427886964,105.62995489631682L179.15140050735474,105.71548503784018L179.15936005020143,105.72585245135976L179.28870262145995,105.89426886035663L179.4180451927185,106.06261998851276L179.7881639350891,106.54402130837155L179.86576947784425,106.64489244746817L179.89760764923093,106.68626826033791L180.18415119171144,107.05846289374847L180.23588822021483,107.12562871876196L180.30951399154662,107.22119578954867L180.7333596481323,107.77088086881858L180.8149449623108,107.87659911033991L180.97214593353272,108.08021821270431L181.0716402191162,108.20902955163645L181.10944804763795,108.2579697819266L181.31241639022826,108.52057012389706L181.83774621810912,109.19934398567221L182.06260330352785,109.4894683621185L182.13224930343628,109.5792784787627L182.97397095947267,110.66269563184736L183.2286763305664,110.98978528436106L184.53404135742187,112.6602444778275L184.60169747161865,112.74654574928206L184.7230805000305,112.90130214235468L184.75889844284058,112.94694977024017L184.90813987121584,113.1370679787296L185.20861261367799,113.51939746266463L185.3120866706848,113.65092611659243L185.59067067031862,114.00468707259984L186.0742128982544,114.61747016449479L186.57566409759522,115.2512369666342L186.89603569717409,115.6551988891685L186.99155021133421,115.77549107838442L187.3775880393982,116.26098061089439L187.44126438217165,116.34095372085L187.457183467865,116.36094189827323L187.8332718673706,116.8326082127571L187.86312015304566,116.86999373423677L187.99445261001586,117.03441169173848L188.2451782096863,117.34793108948395L188.4143184951782,117.55914724968915L188.5217723236084,117.69321369630062L188.67698340911863,117.88670202819313L189.07894032287598,118.38686342965877L189.14261666564943,118.46597156847461L189.21624243698122,118.55740146597961L189.3754332939148,118.75493312994526L189.67590603637694,119.12718080403891L190.0500045501709,119.58955683887538L190.11169100723268,119.66568245928005L190.17735723571778,119.74668374247726L190.38231546401977,119.99925531528947L190.40420420684816,120.0262040623563L190.52956700668335,120.18048308928101L190.99918003463745,120.75714139593302L191.05688672027588,120.82786094671414L191.92845666198733,121.89220793419844L192.3065349472046,122.35165041125427L192.32046414718627,122.36855406895265L192.58113917541505,122.68447661764776L192.60700768966674,122.7157910209389L192.69854243240357,122.82654404730208L192.750279460907,122.88910349299104L192.85773328933715,123.01895524532242L193.0348331176758,123.23271327826382L193.8009391166687,124.15371169959434L193.9143626022339,124.28955296906335L194.1252904876709,124.54180221772441L194.25463305892944,124.69625260685606L194.3441779159546,124.80307246256484L194.6685292869568,125.18928615652374L195.19385911483766,125.81237546115005L195.25554557189943,125.88533904083152L195.28141408615113,125.91592719476944L195.7530169998169,126.47222603921654L195.8863393424988,126.62903877877237L196.34998271331787,127.17278330153519L196.5330521987915,127.38679837778699L196.63055659866333,127.50062368371738L196.84347436981201,127.74879695988491L197.3150772834778,128.29657665461582L197.52003551177978,128.53381130990732L197.68917579727173,128.72920502633883L197.72101396865844,128.76594589951623L198.48115031051634,129.6394484291579L198.51497836761473,129.6781558876625L198.7358556816101,129.9305316179525L198.77366351013185,129.97367001352217L198.9348442527771,130.15737437940916L199.05821716690062,130.29776490746704L199.46017408065796,130.75381482083083L199.6233447090149,130.93834947741095L199.88401973724365,131.23243762490574L200.8192660217285,132.2801951187377L201.12570842132567,132.62095498730704L201.16550613555907,132.66511543603949L201.57542259216308,133.11871527784933L201.92166270599367,133.50004922896312L202.22014556274414,133.82744488541778L202.25994327697754,133.87100352639968L202.26591293411255,133.87753569052595L202.38928584823609,134.01241610762034L202.4350532196045,134.06239675130976L202.44102287673948,134.0689146352521L202.98625156173705,134.66201147361227L203.15539184722903,134.84513647203772L203.20712887573242,134.9010678723656L203.45785447540283,135.1715773961966L203.583217275238,135.30649045371138L204.41896927413939,136.20000360106528L204.5363725311279,136.3246920468996L204.54035230255127,136.32891490128478L204.60203875961304,136.39434262391364L204.7433206451416,136.54397855104094L205.20895390167234,137.03500879490846L205.40197281570434,137.23758952389989L205.8954644721985,137.75292872083693L206.75111532821654,138.63748819287846L207.06949704208373,138.96368227385832L207.70427058410644,139.6091935072516L207.7918255554199,139.69772044737005L208.01469275512696,139.92250074226467L208.0903084121704,139.99858148209134L208.50818441162107,140.4173376751577L208.72110218276978,140.6295983288147L208.99769629669188,140.9042185055859L209.05142321090696,140.9574142306816L209.30413869628907,141.20698492484618L209.57675303878784,141.4750056166241L209.68818663864135,141.5842000629147L209.75186298141477,141.64650246529325L209.89314486694337,141.78449188242777L209.96677063827516,141.85626816681832L210.64930143737791,142.5172366792824L210.82640126571656,142.68743199118936L210.87216863708497,142.7313272365063L210.99156177978517,142.84566458903123L211.52684103622434,143.3552223515105L211.68603189315795,143.5057946506971L211.85318229293824,143.66341728068335L211.93277772140505,143.7383005250877L211.99247429275513,143.7943890074386L212.12181686401368,143.91569916976476L212.1854932067871,143.97531281751546L212.9535890914917,144.6886794048025L213.22819331970214,144.9411387761697L213.36748531951906,145.06867509868118L213.50677731933592,145.19585849664742L213.74556360473633,145.413062133964L213.8331185760498,145.4924436363004L214.10374303283692,145.73690814470356L214.2171665184021,145.83896657909108L214.39426634674072,145.9978438252352L214.50172017517087,146.09395966308938L214.6609110321045,146.23595569182413L214.8797984603882,146.4304313964328L214.8996973175049,146.4480674235632L215.18425097427368,146.69943946092684L215.32951263122558,146.8271736659868L215.7115706878662,147.16123612830177L215.8508626876831,147.28234024797436L215.94836708755494,147.36689423692607L215.98418503036498,147.39790977636818L216.11153771591188,147.50798755403503L216.40803068695067,147.7630612190711L216.87764371490476,148.16361323769002L217.0069862861633,148.2731871288674L217.43481171417235,148.63330888679414L217.90442474212645,149.02449004472786L217.94621234207153,149.05908889031858L218.11535262756348,149.19878070937793L218.11933239898684,149.202061071625L218.6566015411377,149.64199477743176L219.4525558258057,150.28317911509993L219.53016136856078,150.34501435146197L219.86048239669802,150.6068517236063L220.01370359649658,150.72755701814253L220.059470967865,150.76351962129675L220.3818324531555,151.0156148479742L220.59475022430422,151.1809589774039L220.65842656707764,151.230227651924L220.71215348129275,151.27173402647523L220.73006245269775,151.28555622448818L220.87134433822632,151.39436714583945L221.02058576660158,151.50886362041368L221.18574628067014,151.63503720537477L221.3429472518921,151.75460824530316L221.54392570877076,151.90673300448356L221.58372342300416,151.93675811117012L221.73495473709107,152.05055077668015L221.84837822265624,152.13558417180602L221.87026696548463,152.15196354275224L222.25232502212526,152.43624324392627L222.71397850723267,152.7756709753393L222.75377622146604,152.80472298949363L223.46416542053223,153.31766107550732L223.47809462051393,153.32761130365407L223.81239542007447,153.56518970337257L223.88005153427122,153.612981398871L223.94372787704467,153.6578721770092L224.05118170547485,153.7334286300837L224.23027141952517,153.85880660479827L224.61829913330078,154.1280982329443L224.67998559036255,154.170609320435L224.78942930450438,154.24583222921385L224.85907530441284,154.2935657839635L224.87897416152953,154.3071849993623L225.26700187530517,154.57104199751694L225.48787918930054,154.7197782730578L225.77641261749267,154.91247405474326L225.88585633163453,154.98508980994515L226.30771210250856,155.26253644311763L226.7415071876526,155.5437591649215L227.39617958679202,155.96029988945537L227.51159295806886,156.03274683248316L228.24785067138671,156.48791494449043L228.45479878540038,156.6136693040524L228.48265718536376,156.63052400112022L228.5204650138855,156.65337076535855L228.60205032806397,156.70256242888686L228.62990872802732,156.7193253247724L228.65975701370238,156.73726582582407L228.6856255279541,156.7527980758604L228.76323107070922,156.7993050648134L228.84282649917603,156.8468631773036L228.86073547058106,156.85754424486265L228.97415895614625,156.92502168388933L229.02191621322632,156.95334642867732L229.36019678421022,157.15250297356945L229.36417655563355,157.15483064354697L229.70046724090574,157.35021415984713L230.05068712615966,157.55095631516L230.2337566116333,157.65477631223428L230.37702838287353,157.73549250175984L230.4048867828369,157.75113287318862L230.7889347251892,157.96493272666862L231.24461855316162,158.21421679714183L231.3580420387268,158.27552213667946L231.60279798126223,158.40680037738224L231.95301786651612,158.59223417554222L232.1520064376831,158.69632702613052L232.35696466598512,158.80258077454852L233.02158649368286,159.14039535518617L234.33690094909667,159.77841714212457L234.41649637756348,159.81571851252048L234.48216260604858,159.84637908739109L234.84830157699585,160.01546283998255L235.69997266159058,160.39644743659704L235.97258700408935,160.5147449901245L236.51781568908692,160.74600517347216L236.99140848846437,160.94109212095285L237.27795203094482,161.0565073723598L237.2799419166565,161.05730196259316L237.39535528793334,161.10322397401234L237.78537288742066,161.2560290819548L237.79333243026733,161.2591092666238L237.95053340148925,161.31962894104302L238.4320857437134,161.50129251564712L238.91164820022584,161.6766103335257L239.16635357131958,161.7674498984279L239.23201979980468,161.79061312174184L239.3951904281616,161.84771498714386L239.61805762786867,161.92465763807087L239.73745077056887,161.9653778374971L239.832965284729,161.99770307380652L239.9523584274292,162.03779571015053L240.02399431304931,162.06168365279794L240.06180214157104,162.07424077951833L240.25283116989135,162.13715110972626L240.32048728408813,162.15921730891185L240.34038614120482,162.16568597722036L240.6886161407471,162.27731583237605L241.16220894012451,162.42435110851014L241.243794254303,162.44912353004855L241.41890419692993,162.50173988768273L241.86065882492068,162.63111707890235L241.9322947105408,162.65164331325508L242.16511133880616,162.71747776612213L242.54119973831175,162.82099392678336L242.5969165382385,162.8360318529534L243.43863819427492,163.05384609563382L243.70130310821534,163.1182145346204L244.0873409362793,163.20970155286102L244.1649464790344,163.22764530520456L244.56093373565673,163.31686712927225L245.3966857345581,163.49232679272762L245.67725961990357,163.54731595592062L245.92798521957397,163.59478787730077L246.23044784774783,163.64995955909438L246.7060305328369,163.7320704890825L247.32687487487794,163.8307165013972L247.33881418914794,163.83251864148156L247.6591857887268,163.87953697577007L247.67510487442016,163.88180596311682L248.14471790237428,163.94587209571006L248.37753453063965,163.9755749419963L248.92674298706055,164.04023209251363L249.03220692977905,164.05177781245837L249.7425961288452,164.12223716426342L249.76647475738525,164.12438429191582L250.24802709960937,164.16461140264792L250.25797652816775,164.16538077943156L250.27190572814942,164.16645371371837L250.48283361358642,164.18210181493424L250.80320521316528,164.20371857083154L250.98229492721558,164.21467202971118L251.35241366958618,164.2347395490156L251.4956854408264,164.24157763340986L251.62701789779663,164.24738982365437L251.96728835449218,164.2604191586828L252.064792754364,164.26361280985216L252.14040841140746,164.26592392653058L252.20806452560427,164.26786915134832L252.2836801826477,164.26990617336392L252.36128572540284,164.27184637382007L252.48664852523805,164.2746586376948L252.59211246795653,164.27671652067244L252.66971801071168,164.27805106143393L252.7473235534668,164.27923320237133L252.77518195343018,164.27962038650818L252.80901001052857,164.2800641365493L253.02391766738893,164.28220689627432L253.0637153816223,164.28247544411767L253.1313714958191,164.28283998849517L253.24678486709595,164.2831945130366L253.31046120986937,164.283245818004" fill="none"></path></g></g></g></g></g></g><g transform="translate(51, 177)" clip-path="url(#clip_1)"><clipPath id="clip_1"><rect width="278" height="22"></rect></clipPath><g><g><line x1="0" y1="0" x2="0" y2="5" style="visibility: inherit;" fill="rgb(0, 0, 0)" stroke="rgb(204, 204, 204)" stroke-width="1px"></line><line x1="19.89885711669922" y1="0" x2="19.89885711669922" y2="5" style="visibility: inherit;" fill="rgb(0, 0, 0)" stroke="rgb(204, 204, 204)" stroke-width="1px"></line><line x1="39.79771423339844" y1="0" x2="39.79771423339844" y2="5" style="visibility: inherit;" fill="rgb(0, 0, 0)" stroke="rgb(204, 204, 204)" stroke-width="1px"></line><line x1="59.696571350097656" y1="0" x2="59.696571350097656" y2="5" style="visibility: inherit;" fill="rgb(0, 0, 0)" stroke="rgb(204, 204, 204)" stroke-width="1px"></line><line x1="79.59542846679688" y1="0" x2="79.59542846679688" y2="5" style="visibility: inherit;" fill="rgb(0, 0, 0)" stroke="rgb(204, 204, 204)" stroke-width="1px"></line><line x1="99.4942855834961" y1="0" x2="99.4942855834961" y2="5" style="visibility: inherit;" fill="rgb(0, 0, 0)" stroke="rgb(204, 204, 204)" stroke-width="1px"></line><line x1="119.39314270019531" y1="0" x2="119.39314270019531" y2="5" style="visibility: inherit;" fill="rgb(0, 0, 0)" stroke="rgb(204, 204, 204)" stroke-width="1px"></line><line x1="139.29199981689453" y1="0" x2="139.29199981689453" y2="5" style="visibility: inherit;" fill="rgb(0, 0, 0)" stroke="rgb(204, 204, 204)" stroke-width="1px"></line><line x1="159.19085693359375" y1="0" x2="159.19085693359375" y2="5" style="visibility: inherit;" fill="rgb(0, 0, 0)" stroke="rgb(204, 204, 204)" stroke-width="1px"></line><line x1="179.08971405029297" y1="0" x2="179.08971405029297" y2="5" style="visibility: inherit;" fill="rgb(0, 0, 0)" stroke="rgb(204, 204, 204)" stroke-width="1px"></line><line x1="198.9885711669922" y1="0" x2="198.9885711669922" y2="5" style="visibility: inherit;" fill="rgb(0, 0, 0)" stroke="rgb(204, 204, 204)" stroke-width="1px"></line><line x1="218.8874282836914" y1="0" x2="218.8874282836914" y2="5" style="visibility: inherit;" fill="rgb(0, 0, 0)" stroke="rgb(204, 204, 204)" stroke-width="1px"></line><line x1="238.78628540039062" y1="0" x2="238.78628540039062" y2="5" style="visibility: inherit;" fill="rgb(0, 0, 0)" stroke="rgb(204, 204, 204)" stroke-width="1px"></line><line x1="258.68514251708984" y1="0" x2="258.68514251708984" y2="5" style="visibility: inherit;" fill="rgb(0, 0, 0)" stroke="rgb(204, 204, 204)" stroke-width="1px"></line><line x1="278.58399963378906" y1="0" x2="278.58399963378906" y2="5" style="visibility: inherit;" fill="rgb(0, 0, 0)" stroke="rgb(204, 204, 204)" stroke-width="1px"></line></g><g transform="translate(0, 8)"><text style="text-anchor: middle; visibility: hidden; font-family: &quot;Helvetica Neue&quot;, sans-serif; font-size: 12px; font-weight: 200;" x="0" y="0" dx="0em" dy="0.95em" fill="rgb(50, 49, 63)" stroke="none" stroke-width="1px">-10k</text><text style="text-anchor: middle; visibility: inherit; font-family: &quot;Helvetica Neue&quot;, sans-serif; font-size: 12px; font-weight: 200;" x="19.89885711669922" y="0" dx="0em" dy="0.95em" fill="rgb(50, 49, 63)" stroke="none" stroke-width="1px">0</text><text style="text-anchor: middle; visibility: hidden; font-family: &quot;Helvetica Neue&quot;, sans-serif; font-size: 12px; font-weight: 200;" x="39.79771423339844" y="0" dx="0em" dy="0.95em" fill="rgb(50, 49, 63)" stroke="none" stroke-width="1px">10k</text><text style="text-anchor: middle; visibility: inherit; font-family: &quot;Helvetica Neue&quot;, sans-serif; font-size: 12px; font-weight: 200;" x="59.696571350097656" y="0" dx="0em" dy="0.95em" fill="rgb(50, 49, 63)" stroke="none" stroke-width="1px">20k</text><text style="text-anchor: middle; visibility: hidden; font-family: &quot;Helvetica Neue&quot;, sans-serif; font-size: 12px; font-weight: 200;" x="79.59542846679688" y="0" dx="0em" dy="0.95em" fill="rgb(50, 49, 63)" stroke="none" stroke-width="1px">30k</text><text style="text-anchor: middle; visibility: inherit; font-family: &quot;Helvetica Neue&quot;, sans-serif; font-size: 12px; font-weight: 200;" x="99.4942855834961" y="0" dx="0em" dy="0.95em" fill="rgb(50, 49, 63)" stroke="none" stroke-width="1px">40k</text><text style="text-anchor: middle; visibility: hidden; font-family: &quot;Helvetica Neue&quot;, sans-serif; font-size: 12px; font-weight: 200;" x="119.39314270019531" y="0" dx="0em" dy="0.95em" fill="rgb(50, 49, 63)" stroke="none" stroke-width="1px">50k</text><text style="text-anchor: middle; visibility: inherit; font-family: &quot;Helvetica Neue&quot;, sans-serif; font-size: 12px; font-weight: 200;" x="139.29199981689453" y="0" dx="0em" dy="0.95em" fill="rgb(50, 49, 63)" stroke="none" stroke-width="1px">60k</text><text style="text-anchor: middle; visibility: hidden; font-family: &quot;Helvetica Neue&quot;, sans-serif; font-size: 12px; font-weight: 200;" x="159.19085693359375" y="0" dx="0em" dy="0.95em" fill="rgb(50, 49, 63)" stroke="none" stroke-width="1px">70k</text><text style="text-anchor: middle; visibility: inherit; font-family: &quot;Helvetica Neue&quot;, sans-serif; font-size: 12px; font-weight: 200;" x="179.08971405029297" y="0" dx="0em" dy="0.95em" fill="rgb(50, 49, 63)" stroke="none" stroke-width="1px">80k</text><text style="text-anchor: middle; visibility: hidden; font-family: &quot;Helvetica Neue&quot;, sans-serif; font-size: 12px; font-weight: 200;" x="198.9885711669922" y="0" dx="0em" dy="0.95em" fill="rgb(50, 49, 63)" stroke="none" stroke-width="1px">90k</text><text style="text-anchor: middle; visibility: inherit; font-family: &quot;Helvetica Neue&quot;, sans-serif; font-size: 12px; font-weight: 200;" x="218.8874282836914" y="0" dx="0em" dy="0.95em" fill="rgb(50, 49, 63)" stroke="none" stroke-width="1px">100k</text><text style="text-anchor: middle; visibility: hidden; font-family: &quot;Helvetica Neue&quot;, sans-serif; font-size: 12px; font-weight: 200;" x="238.78628540039062" y="0" dx="0em" dy="0.95em" fill="rgb(50, 49, 63)" stroke="none" stroke-width="1px">110k</text><text style="text-anchor: middle; visibility: inherit; font-family: &quot;Helvetica Neue&quot;, sans-serif; font-size: 12px; font-weight: 200;" x="258.68514251708984" y="0" dx="0em" dy="0.95em" fill="rgb(50, 49, 63)" stroke="none" stroke-width="1px">120k</text><text style="text-anchor: middle; visibility: hidden; font-family: &quot;Helvetica Neue&quot;, sans-serif; font-size: 12px; font-weight: 200;" x="278.58399963378906" y="0" dx="0em" dy="0.95em" fill="rgb(50, 49, 63)" stroke="none" stroke-width="1px">130k</text></g><line x1="0" y1="0" x2="278.58399963378906" y2="0" fill="rgb(0, 0, 0)" stroke="rgb(204, 204, 204)" stroke-width="1px"></line></g></g></g></g></svg>