<svg viewBox="0 0 330 200" xmlns="http://www.w3.org/2000/svg"><g><g><g><g><g><line x1="51.41600036621094" y1="177.9749994277954" x2="46.41600036621094" y2="177.9749994277954" style="visibility: inherit;" fill="rgb(0, 0, 0)" stroke="rgb(204, 204, 204)" stroke-width="1px"></line><line x1="51.41600036621094" y1="160.17749948501586" x2="46.41600036621094" y2="160.17749948501586" style="visibility: inherit;" fill="rgb(0, 0, 0)" stroke="rgb(204, 204, 204)" stroke-width="1px"></line><line x1="51.41600036621094" y1="142.37999954223633" x2="46.41600036621094" y2="142.37999954223633" style="visibility: inherit;" fill="rgb(0, 0, 0)" stroke="rgb(204, 204, 204)" stroke-width="1px"></line><line x1="51.41600036621094" y1="124.58249959945678" x2="46.41600036621094" y2="124.58249959945678" style="visibility: inherit;" fill="rgb(0, 0, 0)" stroke="rgb(204, 204, 204)" stroke-width="1px"></line><line x1="51.41600036621094" y1="106.78499965667724" x2="46.41600036621094" y2="106.78499965667724" style="visibility: inherit;" fill="rgb(0, 0, 0)" stroke="rgb(204, 204, 204)" stroke-width="1px"></line><line x1="51.41600036621094" y1="88.9874997138977" x2="46.41600036621094" y2="88.9874997138977" style="visibility: inherit;" fill="rgb(0, 0, 0)" stroke="rgb(204, 204, 204)" stroke-width="1px"></line><line x1="51.41600036621094" y1="71.18999977111817" x2="46.41600036621094" y2="71.18999977111817" style="visibility: inherit;" fill="rgb(0, 0, 0)" stroke="rgb(204, 204, 204)" stroke-width="1px"></line><line x1="51.41600036621094" y1="53.39249982833863" x2="46.41600036621094" y2="53.39249982833863" style="visibility: inherit;" fill="rgb(0, 0, 0)" stroke="rgb(204, 204, 204)" stroke-width="1px"></line><line x1="51.41600036621094" y1="35.594999885559076" x2="46.41600036621094" y2="35.594999885559076" style="visibility: inherit;" fill="rgb(0, 0, 0)" stroke="rgb(204, 204, 204)" stroke-width="1px"></line><line x1="51.41600036621094" y1="17.797499942779524" x2="46.41600036621094" y2="17.797499942779524" style="visibility: inherit;" fill="rgb(0, 0, 0)" stroke="rgb(204, 204, 204)" stroke-width="1px"></line><line x1="51.41600036621094" y1="0" x2="46.41600036621094" y2="0" style="visibility: inherit;" fill="rgb(0, 0, 0)" stroke="rgb(204, 204, 204)" stroke-width="1px"></line></g><g transform="translate(41.41600036621094, 0)"><text style="text-anchor: end; visibility: hidden; font-family: &quot;Helvetica Neue&quot;, sans-serif; font-size: 12px; font-weight: 200;" x="0" y="177.9749994277954" dx="0em" dy="0.3em" fill="rgb(50, 49, 63)" stroke="none" stroke-width="1px">-0.5</text><text style="text-anchor: end; visibility: inherit; font-family: &quot;Helvetica Neue&quot;, sans-serif; font-size: 12px; font-weight: 200;" x="0" y="160.17749948501586" dx="0em" dy="0.3em" fill="rgb(50, 49, 63)" stroke="none" stroke-width="1px">0</text><text style="text-anchor: end; visibility: hidden; font-family: &quot;Helvetica Neue&quot;, sans-serif; font-size: 12px; font-weight: 200;" x="0" y="142.37999954223633" dx="0em" dy="0.3em" fill="rgb(50, 49, 63)" stroke="none" stroke-width="1px">0.5</text><text style="text-anchor: end; visibility: inherit; font-family: &quot;Helvetica Neue&quot;, sans-serif; font-size: 12px; font-weight: 200;" x="0" y="124.58249959945678" dx="0em" dy="0.3em" fill="rgb(50, 49, 63)" stroke="none" stroke-width="1px">1</text><text style="text-anchor: end; visibility: hidden; font-family: &quot;Helvetica Neue&quot;, sans-serif; font-size: 12px; font-weight: 200;" x="0" y="106.78499965667724" dx="0em" dy="0.3em" fill="rgb(50, 49, 63)" stroke="none" stroke-width="1px">1.5</text><text style="text-anchor: end; visibility: inherit; font-family: &quot;Helvetica Neue&quot;, sans-serif; font-size: 12px; font-weight: 200;" x="0" y="88.9874997138977" dx="0em" dy="0.3em" fill="rgb(50, 49, 63)" stroke="none" stroke-width="1px">2</text><text style="text-anchor: end; visibility: hidden; font-family: &quot;Helvetica Neue&quot;, sans-serif; font-size: 12px; font-weight: 200;" x="0" y="71.18999977111817" dx="0em" dy="0.3em" fill="rgb(50, 49, 63)" stroke="none" stroke-width="1px">2.5</text><text style="text-anchor: end; visibility: inherit; font-family: &quot;Helvetica Neue&quot;, sans-serif; font-size: 12px; font-weight: 200;" x="0" y="53.39249982833863" dx="0em" dy="0.3em" fill="rgb(50, 49, 63)" stroke="none" stroke-width="1px">3</text><text style="text-anchor: end; visibility: hidden; font-family: &quot;Helvetica Neue&quot;, sans-serif; font-size: 12px; font-weight: 200;" x="0" y="35.594999885559076" dx="0em" dy="0.3em" fill="rgb(50, 49, 63)" stroke="none" stroke-width="1px">3.5</text><text style="text-anchor: end; visibility: inherit; font-family: &quot;Helvetica Neue&quot;, sans-serif; font-size: 12px; font-weight: 200;" x="0" y="17.797499942779524" dx="0em" dy="0.3em" fill="rgb(50, 49, 63)" stroke="none" stroke-width="1px">4</text><text style="text-anchor: end; visibility: hidden; font-family: &quot;Helvetica Neue&quot;, sans-serif; font-size: 12px; font-weight: 200;" x="0" y="0" dx="0em" dy="0.3em" fill="rgb(50, 49, 63)" stroke="none" stroke-width="1px">4.5</text></g><line x1="51.41600036621094" y1="0" x2="51.41600036621094" y2="177.9749994277954" fill="rgb(0, 0, 0)" stroke="rgb(204, 204, 204)" stroke-width="1px"></line></g></g><g transform="translate(51, 0)" clip-path="url(#clip_0)"><clipPath id="clip_0"><rect width="278" height="177"></rect></clipPath><g><g><g><line x1="0" y1="0" x2="0" y2="177.9749994277954" fill="rgb(0, 0, 0)" stroke="rgb(60, 60, 60)" stroke-width="1px" opacity="0.25"></line><line x1="19.89885711669922" y1="0" x2="19.89885711669922" y2="177.9749994277954" fill="rgb(0, 0, 0)" stroke="rgb(60, 60, 60)" stroke-width="1px" opacity="0.25"></line><line x1="39.79771423339844" y1="0" x2="39.79771423339844" y2="177.9749994277954" fill="rgb(0, 0, 0)" stroke="rgb(60, 60, 60)" stroke-width="1px" opacity="0.25"></line><line x1="59.696571350097656" y1="0" x2="59.696571350097656" y2="177.9749994277954" fill="rgb(0, 0, 0)" stroke="rgb(60, 60, 60)" stroke-width="1px" opacity="0.25"></line><line x1="79.59542846679688" y1="0" x2="79.59542846679688" y2="177.9749994277954" fill="rgb(0, 0, 0)" stroke="rgb(60, 60, 60)" stroke-width="1px" opacity="0.25"></line><line x1="99.4942855834961" y1="0" x2="99.4942855834961" y2="177.9749994277954" fill="rgb(0, 0, 0)" stroke="rgb(60, 60, 60)" stroke-width="1px" opacity="0.25"></line><line x1="119.39314270019531" y1="0" x2="119.39314270019531" y2="177.9749994277954" fill="rgb(0, 0, 0)" stroke="rgb(60, 60, 60)" stroke-width="1px" opacity="0.25"></line><line x1="139.29199981689453" y1="0" x2="139.29199981689453" y2="177.9749994277954" fill="rgb(0, 0, 0)" stroke="rgb(60, 60, 60)" stroke-width="1px" opacity="0.25"></line><line x1="159.19085693359375" y1="0" x2="159.19085693359375" y2="177.9749994277954" fill="rgb(0, 0, 0)" stroke="rgb(60, 60, 60)" stroke-width="1px" opacity="0.25"></line><line x1="179.08971405029297" y1="0" x2="179.08971405029297" y2="177.9749994277954" fill="rgb(0, 0, 0)" stroke="rgb(60, 60, 60)" stroke-width="1px" opacity="0.25"></line><line x1="198.9885711669922" y1="0" x2="198.9885711669922" y2="177.9749994277954" fill="rgb(0, 0, 0)" stroke="rgb(60, 60, 60)" stroke-width="1px" opacity="0.25"></line><line x1="218.8874282836914" y1="0" x2="218.8874282836914" y2="177.9749994277954" fill="rgb(0, 0, 0)" stroke="rgb(60, 60, 60)" stroke-width="1px" opacity="0.25"></line><line x1="238.78628540039062" y1="0" x2="238.78628540039062" y2="177.9749994277954" fill="rgb(0, 0, 0)" stroke="rgb(60, 60, 60)" stroke-width="1px" opacity="0.25"></line><line x1="258.68514251708984" y1="0" x2="258.68514251708984" y2="177.9749994277954" fill="rgb(0, 0, 0)" stroke="rgb(60, 60, 60)" stroke-width="1px" opacity="0.25"></line><line x1="278.58399963378906" y1="0" x2="278.58399963378906" y2="177.9749994277954" fill="rgb(0, 0, 0)" stroke="rgb(60, 60, 60)" stroke-width="1px" opacity="0.25"></line></g><g><line x1="0" y1="177.9749994277954" x2="278.58399963378906" y2="177.9749994277954" fill="rgb(0, 0, 0)" stroke="rgb(60, 60, 60)" stroke-width="1px" opacity="0.25"></line><line x1="0" y1="160.17749948501586" x2="278.58399963378906" y2="160.17749948501586" fill="rgb(0, 0, 0)" stroke="rgb(60, 60, 60)" stroke-width="1px" opacity="0.25"></line><line x1="0" y1="142.37999954223633" x2="278.58399963378906" y2="142.37999954223633" fill="rgb(0, 0, 0)" stroke="rgb(60, 60, 60)" stroke-width="1px" opacity="0.25"></line><line x1="0" y1="124.58249959945678" x2="278.58399963378906" y2="124.58249959945678" fill="rgb(0, 0, 0)" stroke="rgb(60, 60, 60)" stroke-width="1px" opacity="0.25"></line><line x1="0" y1="106.78499965667724" x2="278.58399963378906" y2="106.78499965667724" fill="rgb(0, 0, 0)" stroke="rgb(60, 60, 60)" stroke-width="1px" opacity="0.25"></line><line x1="0" y1="88.9874997138977" x2="278.58399963378906" y2="88.9874997138977" fill="rgb(0, 0, 0)" stroke="rgb(60, 60, 60)" stroke-width="1px" opacity="0.25"></line><line x1="0" y1="71.18999977111817" x2="278.58399963378906" y2="71.18999977111817" fill="rgb(0, 0, 0)" stroke="rgb(60, 60, 60)" stroke-width="1px" opacity="0.25"></line><line x1="0" y1="53.39249982833863" x2="278.58399963378906" y2="53.39249982833863" fill="rgb(0, 0, 0)" stroke="rgb(60, 60, 60)" stroke-width="1px" opacity="0.25"></line><line x1="0" y1="35.594999885559076" x2="278.58399963378906" y2="35.594999885559076" fill="rgb(0, 0, 0)" stroke="rgb(60, 60, 60)" stroke-width="1px" opacity="0.25"></line><line x1="0" y1="17.797499942779524" x2="278.58399963378906" y2="17.797499942779524" fill="rgb(0, 0, 0)" stroke="rgb(60, 60, 60)" stroke-width="1px" opacity="0.25"></line><line x1="0" y1="0" x2="278.58399963378906" y2="0" fill="rgb(0, 0, 0)" stroke="rgb(60, 60, 60)" stroke-width="1px" opacity="0.25"></line></g></g></g><g><g><line x1="0" y1="160.17749948501586" x2="278.58399963378906" y2="160.17749948501586" fill="rgb(0, 0, 0)" stroke="rgb(153, 153, 153)" stroke-width="1.5px"></line></g></g><g><g><line x1="19.89885711669922" y1="0" x2="19.89885711669922" y2="177.9749994277954" fill="rgb(0, 0, 0)" stroke="rgb(153, 153, 153)" stroke-width="1.5px"></line></g></g><g><g><g><g><g><path style="fill: none;" stroke="rgb(0, 153, 136)" stroke-width="2px" d="M20.995284143829345,-0.2632175723196326L21.293767000579834,4.917066512988384L21.35346357192993,11.419633611680439L21.733531742858887,12.579264187900577L22.92945305557251,9.479821262875618L22.989149626922604,18.51986312753175L23.150330369567868,8.584817019518226L23.46871208343506,8.30109604073985L24.366150539398195,14.777236149484708L24.46564482498169,17.74865159527272L24.865611853027342,14.046021535536966L24.96510613861084,30.411889792655558L25.104398138427737,27.729779448762628L25.22379128112793,20.772462749453183L25.902342308807373,37.04431745659255L25.942140023040775,16.712279080065315L26.101330879974366,23.336619100643333L26.660488764953612,21.935012684871054L27.040556935882567,31.348910743536635L28.097186248779295,25.921643778191964L28.117085105895995,20.688497226480195L28.497153276824953,22.084884439035505L28.556849848175048,29.672248074977034L28.855332704925534,21.349570841097858L28.915029276275636,24.698118273483487L28.934928133392333,12.74846821024093L29.133916704559326,18.000378434005796L29.494086018371583,19.470445520267532L30.331827902984617,31.453982215128377L30.85118807373047,11.360923940371862L31.169569787597656,34.902806241353574L31.30886178741455,31.415368597832327L31.32876064453125,22.247205902336958L31.967513957977296,39.39710032075132L32.246097957611084,28.629935003262545L32.36748098602295,25.149940028393758L32.38737984313965,44.53356007205562L32.42717755737305,53.1714602072193L32.486874128723144,30.276368725710398L32.52667184295654,31.783258775806786L32.76545812835693,20.506207006805653L32.964446699523926,33.90054949351543L33.802188584136964,44.24958449799837L33.94347046966553,23.518501967871686L34.10266132659912,48.689310322623896L34.540436183166506,22.606354975736707L34.6200316116333,18.16833493947965L34.781212354278566,52.15355433623964L34.86080778274536,31.177975473299938L34.90060549697876,37.26994827924091L35.17918949661255,22.30923379878024L35.218987210845945,28.680149678766014L35.31848149642944,46.14541126912289L35.35827921066284,31.78600840481863L35.49956109619141,25.193526740137173L35.618954238891604,40.1109091041333L35.6388530960083,32.63336938498921L36.09652680969238,18.41175348561208L36.17612223815918,29.000574810248878L37.55312315063477,42.104356191687856L37.59292086486816,15.737875055736112L38.231674178314215,51.59829900603172L38.2913707496643,28.958931509134203L38.611742349243166,29.90214761180121L38.79083206329346,47.50332064853092L38.81073092041016,40.66465383568655L38.93012406311035,63.508563179632304L38.950022920227056,44.85600499275088L39.049517205810545,27.294973144990507L39.38978766250611,21.515668801035957L39.4494842338562,49.1084675032545L39.62857394790649,25.053058038272496L40.585708975219724,67.3959106007012L40.645405546569826,36.51064331952395L40.764798689270016,56.44476624818803L40.88419183197022,35.89206165695052L40.965777146148675,32.57522830980341L41.164765717315674,27.495102007204878L41.28415886001587,53.63652091663107L41.38365314559936,65.28390697828385L42.4004847442627,22.70268534275374L42.48207005844117,29.153043436257832L42.50196891555786,72.40817028846095L42.860148343658445,60.557999087184186L43.11883348617554,25.7419758898898L43.3596096572876,22.21488927493843L44.09785725631714,28.300369901268112L44.37644125595093,28.382179850879965L44.436137827301025,24.782592987014226L44.81620599822998,37.194282562359234L44.93559914093017,62.93366158040453L45.07489114074707,33.390637582475165L45.51266599731446,38.232029892072575L45.57236256866455,24.77646572730262L45.77334102554321,56.87186680151953L45.83303759689331,27.897107952548595L45.89273416824341,41.70804469408162L45.9126330253601,44.98399852595068L46.84986919555664,45.1167784503933L46.96926233825683,28.35925778927188L46.98916119537354,26.6807535481951L47.409027080535886,44.48198755506482L47.64781336593628,31.142858297833754L47.84680193710327,28.990738945974982L48.425858679199216,62.91684131898019L48.64474610748291,31.82761775989613L48.78602799301147,30.205506373090174L48.90542113571167,29.931018716425655L49.524275592041015,35.9808644902221L49.60387102050781,32.35524101583678L50.10134244842529,29.014305982289528L50.40181519088745,48.6746032020142L50.421714048004155,43.205158285469224L50.72019690475464,25.69411197746129L50.79979233322144,30.523139443014685L51.120163932800295,28.30198233803432L51.798714960479735,25.951422939311016L51.95790581741333,45.95759633189678L52.35588295974731,48.8554167690713L52.61655798797608,30.068822654371417L52.795647702026365,78.73956449465604L52.87524313049316,31.316034006524575L52.91504084472656,28.263496018377708L52.954838558959956,22.36050928794566L53.01453513031006,43.73890880112148L53.15382713012695,24.191253019280424L53.33291684417724,64.39507242718454L53.59359187240601,41.6145742806973L53.6333895866394,56.92852273757853L53.693086157989505,77.23964186869152L53.792580443573,30.338956731767183L53.85227701492309,26.673743691516762L53.8721758720398,58.98590718616788L54.25224404296875,26.43254012431052L54.43133375701904,41.66850604727233L54.55072689971924,26.821595656468816L54.70991775665283,33.29314456368459L54.88900747070313,68.15849983951566L55.01039049911499,79.70070410495586L55.42826649856567,43.05151852117743L55.68894152679443,68.00789824555177L55.768536955261226,85.45178231899244L55.947626669311525,50.092257606864905L56.20631181182861,40.137896203694055L56.266008383178715,54.31724080026861L56.385401525878905,42.930959170120786L56.425199240112306,63.67674033434787L57.20324455337524,29.82704200453307L57.5236161529541,35.45450572416652L57.72260472412109,51.6774102456875L57.78230129547119,53.68753332400834L58.16236946640014,33.174876570137855L58.44095346603393,20.961083905062424L58.48075118026733,44.76599707515925L58.82102163696289,68.58603320482125L58.90061706542969,36.50565325205798L59.05980792236328,33.60655983848912L59.39808849334717,33.82707329603207L59.517481636047364,41.13423785455302L59.97714523544312,74.33089929405328L60.235830377960205,33.2970398714514L60.2955269493103,28.528105378221852L60.31542580642701,39.22564737344757L60.456707691955565,34.41810774943124L60.53630312042236,56.41132940156244L60.67559512023926,63.229687997661856L60.97407797698975,28.74288195548084L61.63273014755249,31.653542481219944L61.71232557601928,49.573706429361465L61.85161757583618,33.330612502225705L62.012798318481444,54.3042224950088L62.45057317504883,24.107194144705176L62.490370889282225,52.70106996996974L62.53016860351563,25.445160227267962L62.689359460449225,46.67719291461853L62.83064134597778,28.20347093812825L62.91023677444458,38.43898190776079L63.30821391677857,32.7372357722609L63.407708202362066,67.40378608132774L63.42760705947876,39.700094162140516L63.467404773712154,53.1608520705995L63.50919237365723,26.628247515181783L63.74797865905762,32.272395712090855L63.80767523040771,84.89346335892874L63.90716951599121,37.16577637763453L64.26733882980346,51.15184072499642L64.46632740097046,49.14987318210888L64.58572054367066,41.33505412402039L64.70511368637085,88.62263921974186L64.78470911483765,81.43662806792827L65.02349540023803,67.69713076164757L65.52295671386719,26.71266282314744L65.70204642791748,76.74793352009083L66.38059745559693,45.82154910137524L66.40049631271363,66.53450444764603L66.44029402694703,36.561248374455005L67.29793476867675,46.573224689235275L67.43921665420532,40.40085918073484L67.61830636825562,62.66323047518344L67.65810408248902,30.94182986563399L67.75759836807251,69.76064246994852L68.23716082458496,36.349552400070394L68.25705968170166,31.500615583708992L68.45604825286865,37.796994452549455L68.49584596710206,83.506674388387L68.59534025268555,58.55413056621437L68.87392425231934,70.21090270714835L68.9754084236145,39.34209925400501L69.15449813766479,33.06027474860687L69.45298099441528,42.81675621452675L69.53257642288209,43.80561276418675L69.57237413711547,41.0293530861658L70.05193659362794,46.36465175027152L70.47180247879028,31.213559406777364L70.59119562149048,62.737130998131576L70.92947619247437,44.18953395822106L71.04886933517457,32.058145298408164L71.5483306488037,32.600840594858255L72.0060043624878,51.08262475517958L72.12738739089966,45.67486827470603L72.22688167648316,35.44348174859124L72.48556681900025,41.693074491683774L72.62485881881715,32.67924745424247L72.90543270416259,51.48760097877684L73.144218989563,30.433165471460228L73.20391556091307,44.655791265443526L73.48249956054687,93.08737903051686L74.16105058822632,45.22655993464423L74.18094944534302,47.67011450223126L74.2008483024597,28.533816798977938L74.83960161590576,27.1531635746571L75.77683778610229,40.69416991501748L75.93801852874755,69.09339067656347L76.11710824279785,86.03729205484001L76.23650138549806,101.64090204700669L76.65437738494873,79.85134813146624L76.6961649848938,82.29982487444485L77.61350229797364,69.67491175304198L77.77269315490723,90.55958312840471L78.23036686859132,64.8328744687381L78.47114303970338,43.91710852331542L78.78952475357055,55.470854441397975L78.84922132492065,65.43046050731364L79.00841218185424,61.552176678172685L79.05019978179932,59.02453777648252L79.52777235260011,43.27469674263929L79.6073677810669,57.90033837657252L79.64716549530029,54.98110647644462L80.18642452316284,47.271927486070666L80.6261892654419,31.344005541163625L80.92467212219239,61.384924552970375L81.28285155029297,50.82747785320029L81.38433572158813,96.54043782488067L81.70271743545533,38.075691417824686L82.06089686355591,66.07191331243935L82.08079572067261,37.060925555284484L82.73944789123534,61.54966467142113L82.92052749099732,49.890838795237556L82.9802240623474,26.772068388218287L83.00012291946412,86.83593198514318L83.0399206336975,58.975859159161615L83.05981949081422,63.63301783845573L83.5572909187317,66.67336919925378L84.19604423217773,27.78708035952809L84.35523508911133,79.16262546956273L84.61591011734008,34.883253323935975L84.63580897445678,46.85119181471103L84.97408954544066,67.68543635183792L85.57304514465332,42.219076824348946L86.09240531539918,91.79465028575551L86.19189960098267,44.25264812785417L86.62967445755004,58.90746638074647L86.78886531448364,37.55898181283848L86.9898437713623,85.58631046435002L87.0296414855957,47.53787771438354L87.1689334854126,43.778600205098115L87.2883266281128,37.62657685937981L87.54701177062988,34.438865751168834L87.58879937057495,44.201381125198026L87.92707994155883,52.492497031005996L88.16586622695924,43.42699563846236L88.22556279830933,30.18763378451311L88.70512525482178,31.40775619899395L88.82451839752197,33.496574678015094L89.20458656845092,42.6275325167575L89.54286713943482,43.379259023673285L89.92293531036377,49.47477070399063L90.28111473846435,36.410451590777285L90.32091245269775,70.33705466783094L90.36071016693114,54.71528354577117L90.42040673828124,39.80437638836773L90.48010330963135,79.34923532246884L90.8004749092102,77.95886504500427L91.01936233749389,51.94128976573219L91.29794633712768,78.66793835619919L92.37646439285278,61.23558744889155L92.45605982131957,32.47031808188831L92.61525067825318,34.42617841977156L92.67494724960326,61.15617918141042L93.27390284881592,47.630847423719416L93.43309370574951,41.86571555028897L93.69177884826661,85.64773581863328L93.7912731338501,52.332865791151335L94.09174587631226,23.641072621631423L94.19124016189576,61.72260275785166L94.23103787612915,34.688487935596555L94.43002644729614,75.95904458896857L94.50962187576293,72.07936048579381L95.06877976074219,75.85377792766303L95.16827404632568,65.66367826927248L95.30756604614257,81.69584849436956L96.30648867340088,31.355699950973303L96.44578067321777,50.03321696169378L96.52537610168457,79.47207754452606L96.74426352996826,28.73205316961935L96.86365667266845,33.436744787479455L96.96514084396362,68.9062801196089L97.402915700531,84.97563822844032L97.70338844299316,92.54682233440933L97.88247815704347,32.97345775851048L97.90237701416015,40.72254880210275L98.14116329956056,65.45793982441356L98.36005072784424,44.294503591701215L98.41974729919433,35.15532232545115L99.51816421203614,27.642979431684807L99.61765849761963,37.77805256380114L99.63755735473633,35.19150880108859L99.83654592590332,39.5063471549166L101.2533445526123,37.97919980713104L101.472231980896,77.1471898364227L101.4921308380127,35.6511636040789L101.5319285522461,83.80303177950687L101.57172626647949,42.67845157253251L101.61351386642457,87.87747278451175L101.63341272354126,100.09268269663959L102.13088415145874,95.76721498991854L102.23037843704223,32.88594487465184L102.29007500839234,54.19831085899678L102.43135689392089,35.632866690037105L102.82933403625489,75.96410254850889L102.88903060760498,31.899549412687605L102.90892946472168,34.7621168902472L103.18950335006714,43.56031869949993L103.50788506393432,34.345658419572686L103.62727820663453,31.687726140663557L103.70687363510132,33.66778151654924L103.88596334915162,29.219051505560856L103.92576106338501,57.757264316354025L104.16653723449707,61.51764507184794L104.38542466278075,58.2129559195032L104.8848859764099,33.557796356075215L105.06397569046021,33.4600572285151L105.3624585472107,47.67118380240254L105.48384157562256,30.76782247903222L105.60323471832275,53.18116028734444L105.68283014678954,87.32437302766498L106.08080728912354,59.438917052379566L106.14050386047363,40.57989058083976L106.95834688796997,58.01002650922119L107.27871848754883,32.837088040635734L107.61699905853271,31.11046529185157L107.63689791564941,45.01081589532552L107.99706722946168,75.9842664945958L108.01696608657838,30.76726236941866L108.07666265792847,32.408756943456325L108.25575237197876,41.21912840703928L108.47463980026245,70.9144428142824L108.9542022567749,31.380455098589238L109.01389882812501,37.000866528997875L109.23278625640869,65.68367248517347L109.29248282775879,32.584835038326304L109.33228054199218,99.22614644871508L109.37207825622559,48.831119892957304L109.93123614120483,33.656477486167205L110.47049516906738,39.42794029553238L110.62968602600097,51.78508707563306L110.70928145446777,97.14666737317403L110.86847231140138,86.5612151927277L111.06945076828002,32.991389752652594L111.58682105331421,31.53311891431204L111.6863153388977,79.7399626969584L111.98678808135986,63.24842621018706L112.28527093811034,91.69126762951363L112.30516979522706,31.62333050812677L112.46436065216065,62.10777146875243L112.5658448234558,54.849141256894384L112.62554139480591,45.136738720257114L112.80463110885621,41.07716607953853L113.02351853713989,49.31949304340472L113.0434173942566,45.243702683421816L113.1628105369568,44.66641637508192L113.26429470825195,58.04173210795042L113.30409242248534,44.66348004286556L113.36378899383544,51.20062118042888L114.0423400215149,30.241633443162527L114.28112630691528,26.81957586725639L114.65920459213257,68.62984056580635L115.09896933441162,41.90049326538329L115.4969464767456,66.8928133566255L115.95661007614135,48.872287949551406L116.27499179000854,67.56940031023596L116.41627367553711,40.2990635017313L116.5953633895874,63.06314873924039L116.65505996093749,51.05572252071178L116.69485767517091,78.77009895510245L117.69179041671754,51.167404983044975L117.75148698806763,31.64215358574492L117.89077898788452,40.30092204726705L118.13155515899659,28.312217068245076L118.17135287322998,28.671739548053864L118.19125173034668,65.97820527679474L118.33054373016357,41.3629068475293L118.68872315826417,67.85789070723858L119.22798218612671,32.73718485320515L119.60805035705566,41.00045652201348L119.64784807128906,43.091405114867854L119.76724121398925,79.00111871115368L120.2667025276184,90.00134054692467L120.36619681320191,35.1507480969407L120.70447738418578,98.10836709308738L121.04474784088134,48.70910086230177L121.20393869781493,40.54738725023671L121.82080326843261,41.33791407765307L122.34016343917847,84.06400042686309L122.77992818145752,85.82507840338835L123.3569950378418,60.090222694797745L123.55797349472046,32.46879899672436L123.87635520858765,49.322624565334905L124.15493920822144,70.21294795588865L124.1569290939331,28.607335429007748L124.55490623626709,61.07591377649041L125.33295154953004,59.464783932713274L125.75281743469239,48.381063331980585L125.85231172027588,44.511978878916324L126.57066046218873,45.33640082446024L126.70995246200562,93.15356531651507L126.7895478904724,56.16947237314044L126.90894103317261,38.32847058371044L127.02833417587281,46.754674744489506L127.1875250328064,74.57858655436152L127.22732274703979,90.05870510650986L127.68698634643555,31.48262418400182L127.84617720336914,71.88613115563695L128.3058408027649,64.98558071700737L128.5446270881653,47.489538557434486L128.58442480239867,50.69850837143149L128.70381794509888,43.05015219318079L128.92469525909425,97.63459922513807L129.42216668701172,71.14373132243728L129.96142571487425,26.111707640381468L130.00122342910768,39.80155886728153L130.08081885757446,44.111211963929776L130.37930171432495,88.97914898875061L131.15933691329957,61.69798339438444L131.21903348464966,65.4943214897648L131.57721291275024,51.11657927887222L131.93539234085083,35.79049511369794L132.2557639404297,102.44621237361639L132.31546051177978,49.813424857440936L132.41495479736327,92.55699341580039L132.51444908294678,93.5794820017998L132.85471953964233,52.00483674733941L132.87461839675905,77.69884688668917L133.21289896774292,67.11707785127723L133.272595539093,40.944386155095884L133.4118875389099,36.13114359683277L133.93124770965576,64.07893298289609L133.97104542388917,88.28597939597607L134.11033742370606,38.65562551706489L134.6296975944519,94.20990234484093L134.8087873085022,106.35477182467024L135.0077758796692,69.50155782765596L135.20875433654786,51.5017649627916L135.30824862213134,70.66282630017017L135.68632690734864,77.36424928468227L135.78582119293213,83.1506992694639L135.8873053642273,62.27317353492826L136.42457450637818,89.52872260098495L136.80464267730713,97.8256729819338L136.90413696289062,35.527353919961996L137.20261981964111,36.7255047618759L137.3021141052246,29.66104588270653L137.78167656173707,36.95487813512372L138.13985598983766,78.33928131069938L138.20154244689942,80.92822675554267L138.3010367324829,66.61946289220664L138.6194184463501,35.12804668457434L138.6592161605835,50.43095419286169L138.95968890304565,33.57390375071873L138.99948661727905,99.0899634340448L139.11887975997925,42.357152330592186L139.15867747421265,59.12925281468384L139.19847518844605,36.53358235415058L139.43726147384643,74.86675446401091L139.51685690231324,43.236829938161264L139.9566216445923,32.57183370608507L140.13571135864257,42.307675981397466L140.19540792999265,57.84730617998284L140.49588067245483,46.00949133624081L140.71476810073852,47.23911864113299L140.75456581497193,63.650601885716696L140.87395895767213,27.451354051784847L141.1326441001892,35.19165307174663L141.47291455688475,44.25370045500685L142.231061013031,44.24565524419441L142.68873472671507,54.35564225483226L142.7683301551819,57.76122751619519L142.78822901229856,79.39339911684438L142.90961204071044,99.52881355949638L143.24789261169434,60.84071865786564L143.46678003997803,65.61995577338034L143.66775849685666,90.64077356283796L143.80705049667358,38.894520753742654L143.9264436393738,53.41845157376528L144.3861072387695,98.84647275258335L145.46263540878297,31.155893576112163L145.54223083724978,87.69177947460958L145.80091597976684,35.826851319521296L146.0814898651123,29.928744331934382L146.2406807220459,97.2119201431497L146.26057957916262,49.798819574942826L146.3401750076294,70.8724515662866L146.5391635787964,39.8711142974702L146.72024317855835,46.45667945707555L146.74014203567506,55.16884503508709L146.76004089279172,43.08707699512698L146.91923174972536,77.90739436612503L147.3172088920593,43.47314527601313L147.77687249145507,92.23088232308932L147.91616449127199,91.23208382778922L147.97586106262204,49.49737876475476L148.17484963378905,100.81833864699855L148.33603037643434,62.28553837897229L148.39572694778442,34.46257705814142L148.5947155189514,51.78177733700768L148.6942098045349,57.84932596919525L149.39265968933105,39.11259009660844L149.57174940338135,65.08903975183289L149.61154711761475,44.84541382914969L149.69114254608152,60.723884884389875L149.81053568878173,45.19314854754654L149.85232328872678,53.197208276422856L149.9916152885437,79.89671701016178L150.1508061454773,34.10870659352369L150.2105027168274,39.00027114607806L150.36969357376097,100.41691827079626L150.4492890022278,85.1509016184179L150.9686491729736,63.363740898498875L151.04824460144044,73.24352285797791L151.2671320297241,48.66392717332005L151.46811048660277,94.67967731016654L151.70689677200318,66.4402193293693L152.5048409423828,92.82088990886369L152.8033237991333,50.878396908975304L153.06399882736204,82.5986688127884L153.22318968429565,32.97310981162937L153.50177368392943,28.820601407612088L153.52167254104614,38.50436197537593L154.0211338546753,99.39277481548415L154.29971785430908,36.66022653237232L154.77928031082152,85.06749620505843L155.3384381958008,95.28922508359456L155.39813476715088,37.563106256356235L155.91550505218507,44.14360496991199L156.25577550888062,35.543715909884355L156.33537093734742,42.78957392525217L156.8328423652649,84.6973231560834L156.95422539367675,36.13669377391224L157.33230367889405,53.971788952872345L157.8317649925232,49.30521024825984L158.1302478492737,92.11841061539162L158.28943870620728,51.20101155985648L158.30933756332396,56.14739896246196L158.72920344848634,94.24944523490488L158.80879887695312,84.20984108911202L159.0873828765869,43.38869602201024L159.30826019058227,42.12254278110882L159.328159047699,61.81894161137798L159.46745104751585,54.5253130351839L159.74603504714963,77.09245185146456L159.86542818984984,38.92918814421614L160.02660893249512,72.1293290525277L160.20569864654541,103.9095623877705L160.2454963607788,76.95974830560559L160.2653952178955,36.88013744775529L160.6434735031128,82.43571934779906L160.7031700744629,55.48753891867359L160.86435081710815,71.1477454413342L161.582699559021,95.54117681482397L161.90108127288818,109.46016803596622L162.11996870117187,46.82967851364609L162.46023915786742,42.01696211895933L162.65922772903443,37.47956505884804L162.6791265861511,44.948083618610696L162.79851972885132,32.67502965912243L162.93781172866824,96.18010488343417L163.017407157135,45.829068148611356L163.03730601425173,33.35524035220223L163.05720487136838,56.70911252624401L163.47707075653076,52.659375749799295L163.49696961364745,79.75781831251683L163.57656504211425,79.02274233683947L163.79545247039795,69.23449586662532L163.85713892745972,47.06234465250074L164.45410464096068,35.26784495220463L164.61528538360596,47.15051948408447L164.67498195495605,36.1870866661109L164.81427395477297,59.914416168225216L165.01326252593995,75.42032097886894L165.03316138305667,43.004571151752856L165.07295909729004,54.97901879515784L165.17245338287353,33.59651181148283L165.37144195404053,40.68250945124501L165.83110555343626,104.99564463117827L165.85100441055297,54.66289632388798L166.01019526748658,35.31284042449116L166.37036458129882,43.876899442271764L166.7086451522827,57.13477037299522L167.66578017959594,102.28622894362594L167.90655635070803,32.740350321172485L167.96625292205812,35.25710103143612L168.56520852127076,60.43093907000693L168.58510737838745,44.765148424229665L168.92338794937132,33.10230842914916L169.12237652053835,40.39811803823227L169.22187080612184,79.14947986666348L169.42284926300047,40.78283696414039L169.54224240570068,29.76166193691799L169.68153440551757,49.85298047726883L170.03971383361815,34.351522597496114L170.1212991477966,59.34859513394399L170.22079343338012,69.680792903984L170.5789728614807,54.11358155018715L170.7978602897644,53.589420790039185L170.83964788970945,40.71502126835733L171.23762503204344,36.53043385920182L171.39681588897705,64.32615348519307L171.59580446014405,89.45985457804925L171.8166817741394,72.10167151873256L172.2743554878235,67.81891217004281L172.373849773407,72.94900703937523L172.69422137298585,45.95283540018181L173.55186211471556,89.20669351924518L173.57176097183228,69.51074023071405L173.65135640029908,46.30341309919277L174.19061542816164,81.56061596874042L175.02835731277466,30.01174239284765L175.18754816970826,57.93960545508435L175.34673902664184,63.08882891636958L175.36663788375856,42.136537034937646L176.0252900543213,77.94487927768473L176.24417748260498,95.3509771684857L176.46505479660036,89.17006998837901L176.52475136795044,31.53583459728671L176.64414451065062,82.16460083532502L176.80333536758425,102.36128363183832L177.96144885177614,48.29192103833711L178.4390214225769,63.82275921329202L178.5783134223938,49.380146125342065L179.01807816467283,36.95287531892993L179.09767359313966,41.4093619994147L179.37625759277344,86.41758950940498L179.69662919235228,68.61938518635388L179.81602233505248,41.28434723097777L180.07470747756958,37.89411406493102L180.45477564849853,78.84416920823651L180.63386536254882,56.48532327611284L180.952247076416,92.51817612228125L181.1532255332947,66.31447472113291L181.33231524734498,40.04589395641793L181.49150610427859,37.54560707418821L181.87157427520754,35.69860319104262L181.9113719894409,34.45957283385067L181.97106856079102,86.54865515896986L182.0108662750244,57.57532204356062L182.1302594177246,60.409120254607345L182.369045703125,102.52507750450259L182.51032758865355,39.5259170453528L182.57002416000367,38.392713459079914L182.66951844558716,72.94860817343833L182.80881044540405,40.299733935965634L182.84860815963745,100.07018920375096L183.84554090118408,55.217931004854194L184.06442832946777,79.01569853412393L184.20571021499634,30.347570538702456L184.52409192886353,96.98729921510754L184.6036873573303,40.01964518316592L184.62358621444702,61.31294198112309L184.66338392868042,90.71637563089992L184.92405895690916,73.27927652164126L185.00365438537597,64.54546185841605L185.1827440994263,58.32216032112201L185.20264295654295,60.02042964234879L185.30213724212646,74.87867800957156L185.38173267059327,75.23590913187044L185.40163152770995,38.08584128294251L185.6822054130554,50.41570393565708L186.2990699836731,64.98340817062763L186.51994729766847,42.974053664325055L186.65923929748536,104.27814845950722L186.75873358306885,66.36805005431752L187.03731758270263,44.330757959413035L187.19849832534788,92.88492062150077L187.49698118209838,37.46361042137187L187.71586861038207,37.677971159675366L187.85516061019896,40.87941343992699L187.87505946731568,39.02001076670015L188.03624020996094,47.90446945643575L188.77448780899047,63.68347862272876L188.8341843803406,38.60438397393662L188.93367866592408,53.56279012386885L188.9535775230408,60.039125422327515L189.03317295150757,36.501359078354284L189.65202740783693,43.647916448451525L190.56936472091675,55.3758479698311L190.64896014938356,64.31911816898682L191.0071395774841,36.3456146597571L191.0887248916626,48.248945355263004L191.3872077484131,94.91360369565159L191.44690431976318,55.017547547360934L191.50660089111327,52.98429873120895L191.90656791915893,55.389078437823315L192.12545534744262,47.537623119104666L192.4040393470764,54.84948071726622L192.6030279182434,62.76794551338476L192.6448155181885,74.24909783095072L192.72441094665527,75.3162933479206L193.06269151763917,91.2014772320138L193.10248923187254,37.71049994980629L193.16218580322266,44.23275575006474L193.56215283126832,68.27076787099027L193.6019505455017,90.03366566083251L193.7014448310852,66.83087032527519L193.9203322593689,36.34079432247708L194.07952311630248,55.08063625746618L194.15911854476929,101.89317626558933L194.47949014434815,73.25593013456842L194.83766957244873,35.182979859246274L194.95706271514894,56.83111458388093L195.0386480293274,78.23624660133865L195.1381423149109,43.90047496509558L195.197838886261,67.22117337429995L195.49632174301146,100.36181960919305L195.51622060012818,49.4577297933246L196.03558077087402,47.25789079969536L196.1947716278076,37.53683202357635L196.3937601989746,37.78616566668799L196.59473865585326,50.33609199195284L197.01261465530396,56.259650020917974L197.35288511199948,91.10554573093368L197.98964853973388,86.29926211029314L198.0095473968506,31.357702767167126L198.11103156814576,42.30574105727803L199.12786316680908,45.28535447104579L199.16766088104248,62.18216420923973L199.36664945220946,88.03513515420977L199.50594145202638,32.665898175120134L200.02530162277222,88.57635379804238L200.42526865081788,50.056096590755345L200.62425722198486,97.79108621329863L200.94263893585207,98.0761989796015L200.98243665008545,46.917344154672065L201.02223436431885,41.31709667035037L201.12172864990234,33.030190073153136L201.7405831062317,96.5072852763165L201.84007739181519,38.817166221511116L202.04105584869387,44.76309468898009L202.06095470581053,48.99855023485483L202.14055013427736,94.47763474010594L202.9782920188904,42.42722543784791L203.0379885902405,93.36341547512784L203.43596573257446,85.73254999253587L203.5374499038696,69.8256745906825L203.55734876098632,40.235558952670544L204.0747190460205,35.53805540818402L204.2140110458374,108.11062211146925L204.33539407424928,63.34546095747564L205.4119222442627,40.24863666349543L205.4318211013794,92.85083880016869L205.6109108154297,43.45391484594873L205.7502028152466,57.17339247680056L205.80989938659667,84.76338214444218L205.93128241500855,77.34616453337284L205.99097898635864,71.58664224258692L206.3690572715759,60.27283540182552L206.42875384292603,41.91571806306001L206.62973229980466,56.92974479491713L206.84861972808838,38.80599797527779L207.04760829925536,95.46738661649668L207.08740601348876,65.40781850051235L207.10730487060547,46.172907559241395L207.16700144195556,106.16573907336014L207.62666504135132,64.82034838101745L207.72615932693483,45.2875100444069L207.7460581840515,83.67300148407608L207.82565361251832,41.22020619371983L208.18582292633056,42.58100947279772L208.38481149749757,50.97747690500418L208.54400235443114,95.1958395353032L208.78278863983155,85.53287940182345L209.5608339530945,90.5225225423098L209.73992366714478,85.82184504334664L209.74191355285643,49.360542288868686L209.86130669555664,53.4563353512619L209.90110440979004,113.31906019136618L210.08019412384033,42.94453758499412L210.75874515151978,69.10807233764527L211.29800417938233,46.97462809241895L211.35770075073242,51.641605662968374L211.41739732208254,103.52541205798524L211.59648703613283,66.40772448527555L212.13574606399536,80.66179279619992L212.61331863479614,40.496960412000846L212.81230720596315,43.73058353550229L213.87092640457152,68.08193455264863L213.99031954727172,96.84087298371719L214.06991497573853,49.62768062848298L214.12961154708864,41.19375374424473L214.3484989753723,45.029927514259725L214.6887694320679,45.467593771664525L214.78826371765138,85.2766547131636L215.38721931686402,65.10457855035357L215.4867136024475,62.21464208031489L215.50661245956422,91.18004030953252L215.5464101737976,43.079659786002395L215.785196459198,49.66534375673791L215.8249941734314,91.27644281187857L216.04587148742675,82.06772733171306L216.24486005859373,83.53323716248296L216.50354520111085,52.850636209799546L216.60303948669434,67.85512410520815L216.62293834381106,48.05249963808299L216.90351222915652,96.08235302611008L217.02290537185667,104.84535703805831L217.2218939430237,38.99411842683858L217.68155754241943,42.10183569842698L218.0198381134033,56.5047404093817L218.43970399856568,67.49750260348165L219.05656856918336,74.84000498671044L219.1779515975952,83.83308250892341L219.2376481689453,94.9797008733022L219.3968390258789,110.66542208616075L219.71522073974612,67.2699792892603L219.7948161682129,81.93815530778424L219.87640148239137,61.1890559184225L219.91619919662475,45.875073515504056L219.95599691085815,93.45641488724625L220.01569348220823,99.81830960785057L220.6942445098877,108.20702461381529L220.83353650970457,41.495160608395594L221.15191822357178,47.769525472122695L221.53198639450073,84.76532555507092L222.08915439376833,58.331232399559255L222.1289521080017,72.0834764428023L222.1488509651184,115.93512427666431L222.18864867935181,86.65296284472497L222.29013285064698,40.67925063167539L222.3697282791138,60.03475487004016L222.46922256469728,52.094861637949634L222.58861570739748,43.204700013967255L222.68810999298097,113.06718059546579L222.84730084991455,47.061665731757074L223.2472678779602,50.78965348126876L223.525851877594,59.55981586380804L223.7447393058777,73.44549329270949L223.92581890563963,70.07831797241951L224.00541433410643,55.379734791088595L224.02531319122315,44.885198584728556L224.5645722190857,50.91893696388152L224.743661933136,46.13964892931105L224.9028527900696,39.21649042991734L225.20133564682007,47.40119399566484L225.22123450393676,106.04325328469336L225.44211181793213,103.1519547299127L226.0589763885498,89.0166508733289L226.22015713119507,119.3430093820464L226.47884227371216,42.60019747031561L226.53853884506225,105.77051384894379L226.55843770217896,45.97871925353411L226.65793198776245,52.27815326572109L226.83702170181274,78.96059562926607L226.97830358734132,46.33455858830848L227.1175955871582,96.03950464067542L227.1374944442749,55.96252035745219L227.4757750152588,53.79993713963168L227.95533747177123,101.31676831096156L228.05483175735475,77.73304751915138L228.25382032852173,50.65158646153482L228.97216907043457,47.15758025981859L229.13135992736815,115.2611638976809L229.15125878448487,61.288483861332494L229.17115764160155,77.27671094129573L229.27264181289675,60.03897266516019L229.59102352676393,101.80745827844676L229.7303155265808,48.92902875070334L230.26957455444338,55.573974015851675L230.28947341156007,59.663733170135544L230.46856312561036,48.175426725233166L230.56805741119385,85.33318335158314L230.7690358680725,51.077100037628L230.9481255821228,42.81563599529969L231.22670958175658,110.5026041620655L231.44559701004027,76.15569398237167L231.96495718078614,85.59966822998167L232.02465375213623,48.00500913206352L232.20374346618652,68.07143674064969L232.683305922699,97.44831610283984L232.76290135116577,61.73153056563088L232.94199106521606,107.41815689896627L233.2026660934448,68.33715783321159L233.322059236145,43.101809575264525L233.36185695037844,81.86512040878429L234.02050912094117,75.32652807813137L234.13990226364135,83.30258232633146L234.25929540634155,85.45191810314118L234.29909312057495,44.853374174869174L234.31899197769164,65.87389759103962L234.51798054885865,52.940270720982156L234.61747483444213,95.27507807259839L234.8781498626709,102.57418469054294L235.0572395767212,48.94171608210061L235.37562129058838,45.932034965897714L235.85518374710082,99.9760610858962L236.2153530609131,114.95154209253164L236.39444277496338,53.386491379757175L236.75262220306396,115.75864731585742L237.0928926597595,43.48842099274563L237.27198237380983,79.18880635074038L237.7296560874939,101.09591539304675L237.75154483032227,73.2223150712476L237.771443687439,53.48449358910548L238.76837642898562,95.92909939799124L238.9275672859192,55.50474107301625L238.98726385726928,121.55124577662386L239.16635357131958,51.844883020131505L239.48672517089844,68.32678731885207L239.9046011703491,61.93782912010333L240.18517505569457,46.76389958009409L240.50355676956175,88.67691893319802L240.8836249404907,42.572947288966674L241.02291694030762,69.02789179781821L241.16220894012451,110.6547375709573L241.26170322570803,109.60179938960441L241.86065882492068,54.37121499939012L242.01984968185425,72.87966377191897L242.05964739608766,43.04842943179372L242.7182995666504,92.08755366759196L242.77799613800047,66.83869488684596L243.05658013763428,53.96060373362043L243.09637785186766,115.48100692098951L243.11627670898437,117.20078954328123L243.31725516586303,99.82803939075825L243.43664830856324,45.69050891133824L243.97590733642576,104.80596266190706L244.03560390777588,57.46838353992379L244.0555027648926,68.20951224689293L244.17489590759277,48.6799412163613L244.21469362182617,38.830668257800795L244.55297419281007,86.13505664192803L244.71216504974365,52.21416498563049L244.8733457923889,108.34856261585124L245.1718286491394,52.59659255402872L245.49021036300658,73.54627907710683L246.24835681915283,99.04897783740057L246.46923413314818,48.567274318949785L246.50903184738158,75.0546712393486L246.70802041854859,46.64260190272873L246.92690784683228,56.928811278894585L247.06619984664914,109.63723905242382L247.18758287506103,73.08860163078243L247.22738058929443,110.30772420585059L247.5656611602783,46.030436041182924L247.9258304740906,60.03869261035342L248.64218933029176,86.07689859372367L248.82326893005373,47.17625906677873L249.16154950103763,50.47417598470538L249.28094264373777,103.92067122843876L249.44212338638303,112.86538413417476L250.03908909988405,109.87442850073312L250.4788538421631,43.18576661172824L250.49875269927978,65.52265794430359L250.8569321273804,69.24186215669411L251.39619115524292,63.82352299912864L251.4956854408264,106.86764128420009L251.75437058334353,61.45027067454831L251.75636046905515,72.5494876412552L252.01504561157228,68.8893749930916L252.17423646850585,50.21828226990806L252.27373075408934,42.72870868058246L252.31352846832274,44.25139212447837L252.33342732543946,92.3452634953786L252.7134954963684,93.65452820350288L252.8129897819519,46.55680329374783L253.05177606735228,94.39852350045017L253.09157378158568,68.30298266027725L253.2905623527527,81.1518802215251L253.31046120986937,116.56950357629194" fill="none"></path></g></g></g></g></g><g><g opacity="0.394387"><span fill="rgb(0, 0, 0)" stroke="none" stroke-width="1px">Alt + Scroll to Zoom</span></g></g></g><g transform="translate(51, 177)" clip-path="url(#clip_1)"><clipPath id="clip_1"><rect width="278" height="22"></rect></clipPath><g><g><line x1="0" y1="0" x2="0" y2="5" style="visibility: inherit;" fill="rgb(0, 0, 0)" stroke="rgb(204, 204, 204)" stroke-width="1px"></line><line x1="19.89885711669922" y1="0" x2="19.89885711669922" y2="5" style="visibility: inherit;" fill="rgb(0, 0, 0)" stroke="rgb(204, 204, 204)" stroke-width="1px"></line><line x1="39.79771423339844" y1="0" x2="39.79771423339844" y2="5" style="visibility: inherit;" fill="rgb(0, 0, 0)" stroke="rgb(204, 204, 204)" stroke-width="1px"></line><line x1="59.696571350097656" y1="0" x2="59.696571350097656" y2="5" style="visibility: inherit;" fill="rgb(0, 0, 0)" stroke="rgb(204, 204, 204)" stroke-width="1px"></line><line x1="79.59542846679688" y1="0" x2="79.59542846679688" y2="5" style="visibility: inherit;" fill="rgb(0, 0, 0)" stroke="rgb(204, 204, 204)" stroke-width="1px"></line><line x1="99.4942855834961" y1="0" x2="99.4942855834961" y2="5" style="visibility: inherit;" fill="rgb(0, 0, 0)" stroke="rgb(204, 204, 204)" stroke-width="1px"></line><line x1="119.39314270019531" y1="0" x2="119.39314270019531" y2="5" style="visibility: inherit;" fill="rgb(0, 0, 0)" stroke="rgb(204, 204, 204)" stroke-width="1px"></line><line x1="139.29199981689453" y1="0" x2="139.29199981689453" y2="5" style="visibility: inherit;" fill="rgb(0, 0, 0)" stroke="rgb(204, 204, 204)" stroke-width="1px"></line><line x1="159.19085693359375" y1="0" x2="159.19085693359375" y2="5" style="visibility: inherit;" fill="rgb(0, 0, 0)" stroke="rgb(204, 204, 204)" stroke-width="1px"></line><line x1="179.08971405029297" y1="0" x2="179.08971405029297" y2="5" style="visibility: inherit;" fill="rgb(0, 0, 0)" stroke="rgb(204, 204, 204)" stroke-width="1px"></line><line x1="198.9885711669922" y1="0" x2="198.9885711669922" y2="5" style="visibility: inherit;" fill="rgb(0, 0, 0)" stroke="rgb(204, 204, 204)" stroke-width="1px"></line><line x1="218.8874282836914" y1="0" x2="218.8874282836914" y2="5" style="visibility: inherit;" fill="rgb(0, 0, 0)" stroke="rgb(204, 204, 204)" stroke-width="1px"></line><line x1="238.78628540039062" y1="0" x2="238.78628540039062" y2="5" style="visibility: inherit;" fill="rgb(0, 0, 0)" stroke="rgb(204, 204, 204)" stroke-width="1px"></line><line x1="258.68514251708984" y1="0" x2="258.68514251708984" y2="5" style="visibility: inherit;" fill="rgb(0, 0, 0)" stroke="rgb(204, 204, 204)" stroke-width="1px"></line><line x1="278.58399963378906" y1="0" x2="278.58399963378906" y2="5" style="visibility: inherit;" fill="rgb(0, 0, 0)" stroke="rgb(204, 204, 204)" stroke-width="1px"></line></g><g transform="translate(0, 8)"><text style="text-anchor: middle; visibility: hidden; font-family: &quot;Helvetica Neue&quot;, sans-serif; font-size: 12px; font-weight: 200;" x="0" y="0" dx="0em" dy="0.95em" fill="rgb(50, 49, 63)" stroke="none" stroke-width="1px">-10k</text><text style="text-anchor: middle; visibility: inherit; font-family: &quot;Helvetica Neue&quot;, sans-serif; font-size: 12px; font-weight: 200;" x="19.89885711669922" y="0" dx="0em" dy="0.95em" fill="rgb(50, 49, 63)" stroke="none" stroke-width="1px">0</text><text style="text-anchor: middle; visibility: hidden; font-family: &quot;Helvetica Neue&quot;, sans-serif; font-size: 12px; font-weight: 200;" x="39.79771423339844" y="0" dx="0em" dy="0.95em" fill="rgb(50, 49, 63)" stroke="none" stroke-width="1px">10k</text><text style="text-anchor: middle; visibility: inherit; font-family: &quot;Helvetica Neue&quot;, sans-serif; font-size: 12px; font-weight: 200;" x="59.696571350097656" y="0" dx="0em" dy="0.95em" fill="rgb(50, 49, 63)" stroke="none" stroke-width="1px">20k</text><text style="text-anchor: middle; visibility: hidden; font-family: &quot;Helvetica Neue&quot;, sans-serif; font-size: 12px; font-weight: 200;" x="79.59542846679688" y="0" dx="0em" dy="0.95em" fill="rgb(50, 49, 63)" stroke="none" stroke-width="1px">30k</text><text style="text-anchor: middle; visibility: inherit; font-family: &quot;Helvetica Neue&quot;, sans-serif; font-size: 12px; font-weight: 200;" x="99.4942855834961" y="0" dx="0em" dy="0.95em" fill="rgb(50, 49, 63)" stroke="none" stroke-width="1px">40k</text><text style="text-anchor: middle; visibility: hidden; font-family: &quot;Helvetica Neue&quot;, sans-serif; font-size: 12px; font-weight: 200;" x="119.39314270019531" y="0" dx="0em" dy="0.95em" fill="rgb(50, 49, 63)" stroke="none" stroke-width="1px">50k</text><text style="text-anchor: middle; visibility: inherit; font-family: &quot;Helvetica Neue&quot;, sans-serif; font-size: 12px; font-weight: 200;" x="139.29199981689453" y="0" dx="0em" dy="0.95em" fill="rgb(50, 49, 63)" stroke="none" stroke-width="1px">60k</text><text style="text-anchor: middle; visibility: hidden; font-family: &quot;Helvetica Neue&quot;, sans-serif; font-size: 12px; font-weight: 200;" x="159.19085693359375" y="0" dx="0em" dy="0.95em" fill="rgb(50, 49, 63)" stroke="none" stroke-width="1px">70k</text><text style="text-anchor: middle; visibility: inherit; font-family: &quot;Helvetica Neue&quot;, sans-serif; font-size: 12px; font-weight: 200;" x="179.08971405029297" y="0" dx="0em" dy="0.95em" fill="rgb(50, 49, 63)" stroke="none" stroke-width="1px">80k</text><text style="text-anchor: middle; visibility: hidden; font-family: &quot;Helvetica Neue&quot;, sans-serif; font-size: 12px; font-weight: 200;" x="198.9885711669922" y="0" dx="0em" dy="0.95em" fill="rgb(50, 49, 63)" stroke="none" stroke-width="1px">90k</text><text style="text-anchor: middle; visibility: inherit; font-family: &quot;Helvetica Neue&quot;, sans-serif; font-size: 12px; font-weight: 200;" x="218.8874282836914" y="0" dx="0em" dy="0.95em" fill="rgb(50, 49, 63)" stroke="none" stroke-width="1px">100k</text><text style="text-anchor: middle; visibility: hidden; font-family: &quot;Helvetica Neue&quot;, sans-serif; font-size: 12px; font-weight: 200;" x="238.78628540039062" y="0" dx="0em" dy="0.95em" fill="rgb(50, 49, 63)" stroke="none" stroke-width="1px">110k</text><text style="text-anchor: middle; visibility: inherit; font-family: &quot;Helvetica Neue&quot;, sans-serif; font-size: 12px; font-weight: 200;" x="258.68514251708984" y="0" dx="0em" dy="0.95em" fill="rgb(50, 49, 63)" stroke="none" stroke-width="1px">120k</text><text style="text-anchor: middle; visibility: hidden; font-family: &quot;Helvetica Neue&quot;, sans-serif; font-size: 12px; font-weight: 200;" x="278.58399963378906" y="0" dx="0em" dy="0.95em" fill="rgb(50, 49, 63)" stroke="none" stroke-width="1px">130k</text></g><line x1="0" y1="0" x2="278.58399963378906" y2="0" fill="rgb(0, 0, 0)" stroke="rgb(204, 204, 204)" stroke-width="1px"></line></g></g></g></g></svg>