<svg viewBox="0 0 330 200" xmlns="http://www.w3.org/2000/svg"><g><g><g><g><g><line x1="51.41600036621094" y1="177.9749994277954" x2="46.41600036621094" y2="177.9749994277954" style="visibility: inherit;" fill="rgb(0, 0, 0)" stroke="rgb(204, 204, 204)" stroke-width="1px"></line><line x1="51.41600036621094" y1="152.54999950953894" x2="46.41600036621094" y2="152.54999950953894" style="visibility: inherit;" fill="rgb(0, 0, 0)" stroke="rgb(204, 204, 204)" stroke-width="1px"></line><line x1="51.41600036621094" y1="127.12499959128243" x2="46.41600036621094" y2="127.12499959128243" style="visibility: inherit;" fill="rgb(0, 0, 0)" stroke="rgb(204, 204, 204)" stroke-width="1px"></line><line x1="51.41600036621094" y1="101.69999967302596" x2="46.41600036621094" y2="101.69999967302596" style="visibility: inherit;" fill="rgb(0, 0, 0)" stroke="rgb(204, 204, 204)" stroke-width="1px"></line><line x1="51.41600036621094" y1="76.27499975476947" x2="46.41600036621094" y2="76.27499975476947" style="visibility: inherit;" fill="rgb(0, 0, 0)" stroke="rgb(204, 204, 204)" stroke-width="1px"></line><line x1="51.41600036621094" y1="50.84999983651298" x2="46.41600036621094" y2="50.84999983651298" style="visibility: inherit;" fill="rgb(0, 0, 0)" stroke="rgb(204, 204, 204)" stroke-width="1px"></line><line x1="51.41600036621094" y1="25.424999918256503" x2="46.41600036621094" y2="25.424999918256503" style="visibility: inherit;" fill="rgb(0, 0, 0)" stroke="rgb(204, 204, 204)" stroke-width="1px"></line><line x1="51.41600036621094" y1="0" x2="46.41600036621094" y2="0" style="visibility: inherit;" fill="rgb(0, 0, 0)" stroke="rgb(204, 204, 204)" stroke-width="1px"></line></g><g transform="translate(41.41600036621094, 0)"><text style="text-anchor: end; visibility: hidden; font-family: &quot;Helvetica Neue&quot;, sans-serif; font-size: 12px; font-weight: 200;" x="0" y="177.9749994277954" dx="0em" dy="0.3em" fill="rgb(50, 49, 63)" stroke="none" stroke-width="1px">-0.5</text><text style="text-anchor: end; visibility: inherit; font-family: &quot;Helvetica Neue&quot;, sans-serif; font-size: 12px; font-weight: 200;" x="0" y="152.54999950953894" dx="0em" dy="0.3em" fill="rgb(50, 49, 63)" stroke="none" stroke-width="1px">0</text><text style="text-anchor: end; visibility: inherit; font-family: &quot;Helvetica Neue&quot;, sans-serif; font-size: 12px; font-weight: 200;" x="0" y="127.12499959128243" dx="0em" dy="0.3em" fill="rgb(50, 49, 63)" stroke="none" stroke-width="1px">0.5</text><text style="text-anchor: end; visibility: inherit; font-family: &quot;Helvetica Neue&quot;, sans-serif; font-size: 12px; font-weight: 200;" x="0" y="101.69999967302596" dx="0em" dy="0.3em" fill="rgb(50, 49, 63)" stroke="none" stroke-width="1px">1</text><text style="text-anchor: end; visibility: inherit; font-family: &quot;Helvetica Neue&quot;, sans-serif; font-size: 12px; font-weight: 200;" x="0" y="76.27499975476947" dx="0em" dy="0.3em" fill="rgb(50, 49, 63)" stroke="none" stroke-width="1px">1.5</text><text style="text-anchor: end; visibility: inherit; font-family: &quot;Helvetica Neue&quot;, sans-serif; font-size: 12px; font-weight: 200;" x="0" y="50.84999983651298" dx="0em" dy="0.3em" fill="rgb(50, 49, 63)" stroke="none" stroke-width="1px">2</text><text style="text-anchor: end; visibility: inherit; font-family: &quot;Helvetica Neue&quot;, sans-serif; font-size: 12px; font-weight: 200;" x="0" y="25.424999918256503" dx="0em" dy="0.3em" fill="rgb(50, 49, 63)" stroke="none" stroke-width="1px">2.5</text><text style="text-anchor: end; visibility: hidden; font-family: &quot;Helvetica Neue&quot;, sans-serif; font-size: 12px; font-weight: 200;" x="0" y="0" dx="0em" dy="0.3em" fill="rgb(50, 49, 63)" stroke="none" stroke-width="1px">3</text></g><line x1="51.41600036621094" y1="0" x2="51.41600036621094" y2="177.9749994277954" fill="rgb(0, 0, 0)" stroke="rgb(204, 204, 204)" stroke-width="1px"></line></g></g><g transform="translate(51, 0)" clip-path="url(#clip_0)"><clipPath id="clip_0"><rect width="278" height="177"></rect></clipPath><g><g><g><line x1="0" y1="0" x2="0" y2="177.9749994277954" fill="rgb(0, 0, 0)" stroke="rgb(60, 60, 60)" stroke-width="1px" opacity="0.25"></line><line x1="34.82299995422363" y1="0" x2="34.82299995422363" y2="177.9749994277954" fill="rgb(0, 0, 0)" stroke="rgb(60, 60, 60)" stroke-width="1px" opacity="0.25"></line><line x1="69.64599990844727" y1="0" x2="69.64599990844727" y2="177.9749994277954" fill="rgb(0, 0, 0)" stroke="rgb(60, 60, 60)" stroke-width="1px" opacity="0.25"></line><line x1="104.4689998626709" y1="0" x2="104.4689998626709" y2="177.9749994277954" fill="rgb(0, 0, 0)" stroke="rgb(60, 60, 60)" stroke-width="1px" opacity="0.25"></line><line x1="139.29199981689453" y1="0" x2="139.29199981689453" y2="177.9749994277954" fill="rgb(0, 0, 0)" stroke="rgb(60, 60, 60)" stroke-width="1px" opacity="0.25"></line><line x1="174.11499977111816" y1="0" x2="174.11499977111816" y2="177.9749994277954" fill="rgb(0, 0, 0)" stroke="rgb(60, 60, 60)" stroke-width="1px" opacity="0.25"></line><line x1="208.9379997253418" y1="0" x2="208.9379997253418" y2="177.9749994277954" fill="rgb(0, 0, 0)" stroke="rgb(60, 60, 60)" stroke-width="1px" opacity="0.25"></line><line x1="243.76099967956543" y1="0" x2="243.76099967956543" y2="177.9749994277954" fill="rgb(0, 0, 0)" stroke="rgb(60, 60, 60)" stroke-width="1px" opacity="0.25"></line><line x1="278.58399963378906" y1="0" x2="278.58399963378906" y2="177.9749994277954" fill="rgb(0, 0, 0)" stroke="rgb(60, 60, 60)" stroke-width="1px" opacity="0.25"></line></g><g><line x1="0" y1="177.9749994277954" x2="278.58399963378906" y2="177.9749994277954" fill="rgb(0, 0, 0)" stroke="rgb(60, 60, 60)" stroke-width="1px" opacity="0.25"></line><line x1="0" y1="152.54999950953894" x2="278.58399963378906" y2="152.54999950953894" fill="rgb(0, 0, 0)" stroke="rgb(60, 60, 60)" stroke-width="1px" opacity="0.25"></line><line x1="0" y1="127.12499959128243" x2="278.58399963378906" y2="127.12499959128243" fill="rgb(0, 0, 0)" stroke="rgb(60, 60, 60)" stroke-width="1px" opacity="0.25"></line><line x1="0" y1="101.69999967302596" x2="278.58399963378906" y2="101.69999967302596" fill="rgb(0, 0, 0)" stroke="rgb(60, 60, 60)" stroke-width="1px" opacity="0.25"></line><line x1="0" y1="76.27499975476947" x2="278.58399963378906" y2="76.27499975476947" fill="rgb(0, 0, 0)" stroke="rgb(60, 60, 60)" stroke-width="1px" opacity="0.25"></line><line x1="0" y1="50.84999983651298" x2="278.58399963378906" y2="50.84999983651298" fill="rgb(0, 0, 0)" stroke="rgb(60, 60, 60)" stroke-width="1px" opacity="0.25"></line><line x1="0" y1="25.424999918256503" x2="278.58399963378906" y2="25.424999918256503" fill="rgb(0, 0, 0)" stroke="rgb(60, 60, 60)" stroke-width="1px" opacity="0.25"></line><line x1="0" y1="0" x2="278.58399963378906" y2="0" fill="rgb(0, 0, 0)" stroke="rgb(60, 60, 60)" stroke-width="1px" opacity="0.25"></line></g></g></g><g><g><line x1="0" y1="152.54999950953894" x2="278.58399963378906" y2="152.54999950953894" fill="rgb(0, 0, 0)" stroke="rgb(153, 153, 153)" stroke-width="1.5px"></line></g></g><g><g><line x1="34.82299995422363" y1="0" x2="34.82299995422363" y2="177.9749994277954" fill="rgb(0, 0, 0)" stroke="rgb(153, 153, 153)" stroke-width="1.5px"></line></g></g><g><g><g><g><g><path style="fill: none;" stroke="rgb(238, 51, 119)" stroke-width="2px" d="M36.21591995239258,-12.085068079717729L36.91237995147705,3.1549931901585637L37.608839950561524,7.667573272371897L38.305299949646,16.507036489820962L39.001759948730474,16.594641512923374L39.69821994781494,23.275367113621428L40.39467994689941,4.761416658351919L41.09113994598388,24.41171070833377L41.78759994506836,26.58673029934809L42.48405994415283,34.565479620428846L43.18051994323731,14.327725149819855L43.876979942321775,31.4032486501994L44.57343994140625,17.227225915834936L45.269899940490724,27.064144941577638L45.9663599395752,30.28867901362321L46.66281993865967,31.25608045542492L47.35927993774414,35.161947864494266L48.05573993682861,34.54216596703469L48.75219993591308,39.73038130145889L49.44865993499756,12.852151531383583L50.14511993408203,31.559012466532096L50.8415799331665,21.536044909855264L51.538039932250975,27.083142598815613L52.23449993133545,30.275791643078264L52.930959930419924,35.25602688183096L53.6274199295044,35.96031016470761L54.323879928588866,41.89553229452065L55.02033992767334,47.71758076108134L55.716799926757815,17.629753175321127L56.41325992584229,39.82127181601729L57.10971992492676,7.214090586356576L57.806179924011225,38.490162832965524L58.5026399230957,14.765144086096626L59.199099922180174,41.089107810476236L59.89555992126465,34.93378200028337L60.592019920349124,44.689315401879014L61.28847991943359,38.783311111213095L61.984939918518066,23.653962416893336L62.68139991760254,27.956501394034717L63.377859916687015,30.254551122669255L64.07431991577148,22.492316900894707L64.77077991485596,38.28431648820268L65.46723991394043,37.08124468325565L66.1636999130249,35.22221420407939L66.86015991210937,34.8692724060503L67.55661991119385,30.904678352653775L68.25307991027832,20.54861530611541L68.9495399093628,41.630171272424576L69.64599990844727,24.39396178032075L70.34245990753173,21.23643476095816L71.03891990661621,37.59814584088028L71.73537990570068,14.767726409639522L72.43183990478516,18.938263796476548L73.12829990386963,-17.03705536609999L73.8247599029541,34.99277536347415L74.52121990203858,26.75235059004865L75.21767990112305,39.928189709560115L75.91413990020753,47.323818853339276L76.610599899292,29.74262063477505L77.30705989837647,23.982002371931486L78.00351989746095,46.38116164792734L78.6999798965454,33.79194642169816L79.39643989562988,30.18162776064861L80.09289989471435,41.13735967761542L80.78935989379882,35.515144257802206L81.4858198928833,41.8366116728381L82.18227989196777,39.94001020465072L82.87873989105225,43.8275952479799L83.57519989013672,36.76113355261674L84.27165988922118,39.23594514629883L84.96811988830567,27.1587695202262L85.66457988739013,40.017516281691115L86.36103988647461,40.92979178382399L87.05749988555908,46.356672006816495L87.75395988464355,40.85700178123514L88.45041988372803,6.8910213010488235L89.1468798828125,15.482011649900528L89.84333988189698,26.771287629363087L90.53979988098145,38.57300328727757L91.23625988006592,72.98900517004498L91.9327198791504,74.09289999028546L92.62917987823486,76.92119288151613L93.32563987731935,77.77486297516892L94.02209987640381,79.80387217374839L94.71855987548828,81.11550461796621L95.41501987457276,80.87919776662368L96.11147987365722,81.85800143984355L96.8079398727417,81.65136100028232L97.50439987182617,82.90995276140117L98.20085987091063,82.81615258651277L98.89731986999512,84.41363491098375L99.59377986907958,83.098341144184L100.29023986816406,85.69373391137518L100.98669986724853,83.15870447244681L101.683159866333,85.85242557341495L102.37961986541748,84.09011099124943L103.07607986450195,86.57877378046078L103.77253986358643,85.06033722828816L104.4689998626709,85.61489424001687L105.16545986175537,85.29665014142304L105.86191986083985,86.3524325157485L106.55837985992432,86.29566989214406L107.2548398590088,86.12390294399636L107.95129985809326,86.59372822219851L108.64775985717773,87.08912214055054L109.34421985626221,83.93673552110428L110.04067985534668,85.2429305375804L110.73713985443116,85.02888864955473L111.43359985351563,86.5383113164967L112.1300598526001,84.44696264534696L112.82651985168458,86.30820567873249L113.52297985076903,88.53230154064616L114.21943984985352,86.75603877427372L114.91589984893798,83.98334464251548L115.61235984802245,86.64112537661575L116.30881984710693,87.05949816131572L117.0052798461914,86.36532594808581L117.70173984527588,89.01509905448623L118.39819984436035,86.31369766260536L119.09465984344482,95.56576283843323L119.7911198425293,95.92659102831509L120.48757984161377,96.62480039525286L121.18403984069825,96.91991269422319L121.88049983978271,97.38325791639873L122.57695983886718,97.6884812850158L123.27341983795166,97.73904875683428L123.96987983703613,97.96166201924873L124.66633983612061,97.86729203587905L125.36279983520508,98.27789966457334L126.05925983428955,98.48097577023032L126.75571983337403,98.60785514599542L127.4521798324585,98.92317746067452L128.14863983154297,98.96401575576455L128.84509983062745,99.15144637535542L129.54155982971193,99.01460141296008L130.23801982879638,99.19036914406155L130.93447982788086,99.39019612901669L131.63093982696532,99.42764588218074L132.3273998260498,99.58074250987761L133.02385982513428,99.83339195340699L133.72031982421873,99.72178829437439L134.41677982330322,99.6404087320197L135.1132398223877,100.06352790013297L135.80969982147215,99.89831981131248L136.50615982055663,100.19859069557619L137.20261981964111,100.39329546599207L137.8990798187256,100.26783454963785L138.59553981781005,99.83870208350923L139.29199981689453,100.32901621986846L139.98845981597898,100.51473135222312L140.68491981506347,100.41986430188038L141.38137981414795,100.78785753032486L142.07783981323243,100.44576027881739L142.77429981231688,100.77894063377188L143.47075981140136,100.66329375923907L144.16721981048582,101.03071717920226L144.86367980957033,100.97557305415638L145.56013980865478,100.9991655499988L146.25659980773926,100.86746704931215L146.95305980682372,101.25600975383726L147.6495198059082,100.99838964057747L148.34597980499268,101.17937657489587L149.04243980407716,101.27500741107522L149.73889980316162,101.43145620994395L150.4353598022461,101.34360265335499L151.13181980133055,101.600610525587L151.82827980041506,101.58232209805448L152.5247397994995,101.52872979185128L153.221199798584,101.77287150981158L153.91765979766845,101.64954737526222L154.61411979675293,101.82179320500589L155.3105797958374,101.92742296767345L156.0070397949219,101.90008731505233L156.70349979400635,101.55801431071427L157.3999597930908,101.95064872507845L158.09641979217528,102.15403398214549L158.79287979125976,102.00947841987565L159.48933979034425,102.30567274878118L160.1857997894287,101.77943946182732L160.88225978851318,102.13550611381498L161.57871978759763,102.15174262463562L162.27517978668214,102.11076187742526L162.9716397857666,102.06958715285958L163.66809978485108,102.28100731569208L164.36455978393553,102.33963394044541L165.06101978302001,102.65667174236074L165.7574797821045,102.31063735671924L166.45393978118898,102.47622430756188L167.15039978027343,102.34588364836256L167.8468597793579,102.83751319366264L168.54331977844237,102.57914747994329L169.23977977752688,103.03282717421013L169.93623977661133,102.5802446643594L170.6326997756958,102.79585049481244L171.32915977478027,102.83630083519182L172.02561977386475,102.9802017238874L172.72207977294923,103.15624526654098L173.4185397720337,103.06199651901838L174.11499977111816,102.96658390736377L174.81145977020262,103.71551532182505L175.5079197692871,103.63183227837577L176.20437976837158,103.69171066325023L176.90083976745606,104.00554783880258L177.59729976654052,103.64833247716382L178.293759765625,103.8559579579826L178.99021976470945,103.99559437575704L179.68667976379396,104.08816097590136L180.38313976287841,103.85335744906266L181.0795997619629,103.95418627218572L181.77605976104735,103.91370865374076L182.47251976013183,103.94466319639731L183.1689797592163,103.9208585378225L183.8654397583008,104.11113213802747L184.56189975738525,103.94529665369834L185.25835975646973,104.18001834634025L185.95481975555418,104.05896132213132L186.6512797546387,104.25105042914639L187.34773975372315,103.95493187264528L188.04419975280763,104.21615572145961L188.74065975189208,104.14125015333917L189.43711975097656,103.99428805950471L190.13357975006105,104.38146686075014L190.83003974914553,104.26613519941974L191.52649974822998,104.21681342593004L192.22295974731443,103.97742718407159L192.91941974639892,104.23493515417283L193.6158797454834,104.30358495258378L194.31233974456788,104.20039506133878L195.00879974365233,104.49450716457066L195.7052597427368,104.53372999199831L196.40171974182127,104.09563819677022L197.09817974090578,104.24015132649359L197.79463973999023,104.15021554423097L198.4910997390747,104.25794874884542L199.18755973815917,104.44133615293607L199.88401973724365,104.2320830808702L200.58047973632813,104.37424423516015L201.2769397354126,104.24237600428756L201.97339973449706,104.35756521349765L202.66985973358155,104.41410355078497L203.366319732666,104.32563472227207L204.0627797317505,104.39426633530596L204.75923973083496,104.27985303551722L205.45569972991944,104.39226594382909L206.1521597290039,104.22521203923674L206.84861972808838,104.14643298580198L207.54507972717286,104.405238179467L208.24153972625734,104.66295225050828L208.9379997253418,104.53262371489367L209.63445972442625,104.51788143588834L210.33091972351073,104.52556778859342L211.0273797225952,104.42934289676336L211.7238397216797,104.72227598138235L212.42029972076415,104.54105869895449L213.11675971984863,104.43127054673198L213.81321971893308,104.5571951902013L214.5096797180176,104.46751097232138L215.20613971710205,104.4706297644876L215.90259971618653,104.26939038191392L216.59905971527098,104.48556602084827L217.29551971435546,104.5931022172112L217.99197971343995,104.7672908514044L218.68843971252443,104.56269020497035L219.38489971160888,104.5986578499038L220.08135971069336,104.5071975268641L220.77781970977782,104.31822721201527L221.47427970886233,104.15368895124992L222.17073970794678,104.47049337415962L222.86719970703126,104.60830519243547L223.56365970611571,104.54280752604868L224.2601197052002,104.60460143730705L224.95657970428468,104.74406509399941L225.65303970336916,104.66122160879117L226.3494997024536,104.42175959452828L227.04595970153807,104.612148368788L227.74241970062255,104.50386657196549L228.43887969970703,104.49255526743262L229.1353396987915,104.429970292272L229.83179969787597,104.60337392435534L230.52825969696045,104.59055626442245L231.2247196960449,104.60597746417146L231.9211796951294,104.42460863693475L232.61763969421386,104.6592212173143L233.31409969329835,104.5093676485269L234.0105596923828,104.49457081339038L234.70701969146728,104.5712009614356L235.40347969055176,104.62671182491889L236.09993968963624,104.45289599095548L236.7963996887207,104.40417433490884L237.49285968780518,104.53004745314314L238.18931968688963,104.4273394743903L238.88577968597414,104.3994461368726L239.5822396850586,104.4856933184877L240.27869968414308,104.77899920333647L240.97515968322753,104.54384409254124L241.671619682312,104.44723730779286L242.3680796813965,104.39512710982025L243.06453968048098,104.57841146344089" fill="none"></path></g><g><path style="fill: none;" stroke="rgb(204, 51, 17)" stroke-width="2px" d="M36.21591995239258,-8.126402459243565L36.91237995147705,6.940133942702289L37.608839950561524,12.28784715754935L38.305299949646,23.885462266899026L39.001759948730474,21.975306631007697L39.69821994781494,28.554448715434575L40.39467994689941,14.404734159887198L41.09113994598388,33.9274396043985L41.78759994506836,32.540453019426025L42.48405994415283,38.66251171317924L43.18051994323731,20.948766342998738L43.876979942321775,35.8970250525301L44.57343994140625,22.595803819965056L45.269899940490724,34.80485980049491L45.9663599395752,35.413888078318195L46.66281993865967,32.2440192497225L47.35927993774414,41.794906541441435L48.05573993682861,41.62750408378872L48.75219993591308,45.83438797758137L49.44865993499756,19.004349456721684L50.14511993408203,37.88730545975881L50.8415799331665,24.2459934289555L51.538039932250975,35.94463436967973L52.23449993133545,37.827912018272656L52.930959930419924,43.16156187485805L53.6274199295044,40.6524284128667L54.323879928588866,45.58144150622664L55.02033992767334,50.866087833420934L55.716799926757815,25.896534621902504L56.41325992584229,45.15756461406909L57.10971992492676,13.215119533966458L57.806179924011225,44.76516054781439L58.5026399230957,19.54714659128331L59.199099922180174,46.032923800765076L59.89555992126465,38.829380733104756L60.592019920349124,49.17541757508934L61.28847991943359,44.438611793695344L61.984939918518066,30.628721317522633L62.68139991760254,32.01808412509797L63.377859916687015,36.835160160845845L64.07431991577148,31.75936682742207L64.77077991485596,40.22242911043142L65.46723991394043,40.93057981683003L66.1636999130249,38.02259254151912L66.86015991210937,37.88109818438812L67.55661991119385,35.91524680034672L68.25307991027832,26.322278546105167L68.9495399093628,47.0952044164942L69.64599990844727,29.349574018530802L70.34245990753173,27.81509190199671L71.03891990661621,41.769701608832804L71.73537990570068,17.327815298160004L72.43183990478516,18.448774063877465L73.12829990386963,-10.6462289229477L73.8247599029541,36.59388870156525L74.52121990203858,24.96495837291397L75.21767990112305,40.804433917939804L75.91413990020753,51.146269937822936L76.610599899292,31.702349608538754L77.30705989837647,27.562824351385643L78.00351989746095,50.864917907496576L78.6999798965454,37.278483282875584L79.39643989562988,37.28804879121046L80.09289989471435,43.50201638063754L80.78935989379882,40.95957943145237L81.4858198928833,46.97664788163138L82.18227989196777,38.257802208445554L82.87873989105225,47.134763673397515L83.57519989013672,37.261340534098L84.27165988922118,41.4484387376466L84.96811988830567,29.064354564682503L85.66457988739013,44.582239901734994L86.36103988647461,43.444623330628275L87.05749988555908,50.02911191591154L87.75395988464355,46.11708572581034L88.45041988372803,13.317685060598961L89.1468798828125,14.886040472808162L89.84333988189698,28.479840175139486L90.53979988098145,38.816323632373894L91.23625988006592,71.27579110594823L91.9327198791504,71.96845393288196L92.62917987823486,74.37021486690394L93.32563987731935,74.46552442808853L94.02209987640381,76.51289479570879L94.71855987548828,77.80876657980578L95.41501987457276,76.16301420281856L96.11147987365722,77.20592739197612L96.8079398727417,75.82882759033328L97.50439987182617,76.91028771707099L98.20085987091063,76.53717833587959L98.89731986999512,77.93145725705413L99.59377986907958,76.9168586999829L100.29023986816406,78.99759923451286L100.98669986724853,75.61373701223033L101.683159866333,78.51154047638624L102.37961986541748,76.73388349777234L103.07607986450195,78.7694939882255L103.77253986358643,78.12210062659271L104.4689998626709,77.439330644781L105.16545986175537,78.16805507442966L105.86191986083985,77.66158019965421L106.55837985992432,77.79827967903306L107.2548398590088,78.83892575785015L107.95129985809326,78.9829115116387L108.64775985717773,78.72911032756204L109.34421985626221,75.05157851288949L110.04067985534668,76.05642364606287L110.73713985443116,76.80003583773338L111.43359985351563,78.60703795313381L112.1300598526001,74.36132827931273L112.82651985168458,77.4794718337503L113.52297985076903,78.62472020143092L114.21943984985352,78.63833498705837L114.91589984893798,76.06755309682512L115.61235984802245,76.16374161790107L116.30881984710693,78.24614308353605L117.0052798461914,77.93969523286344L117.70173984527588,79.5816589896293L118.39819984436035,77.4270555152638L119.09465984344482,83.86557007886634L119.7911198425293,84.2016782795279L120.48757984161377,84.183571705766L121.18403984069825,84.62090577694981L121.88049983978271,84.66651470262256L122.57695983886718,84.59251234156288L123.27341983795166,84.68667016220017L123.96987983703613,84.8158590808522L124.66633983612061,84.6955688733761L125.36279983520508,84.90788315058083L126.05925983428955,84.81868387608925L126.75571983337403,84.81604093462283L127.4521798324585,84.93608867040477L128.14863983154297,84.93363970629369L128.84509983062745,85.20351070190125L129.54155982971193,84.98909298274963L130.23801982879638,84.84096702478317L130.93447982788086,85.1265683715498L131.63093982696532,85.31772093164614L132.3273998260498,85.61721590648851L133.02385982513428,85.26355275516929L133.72031982421873,85.36829446525697L134.41677982330322,85.52750137964684L135.1132398223877,85.49739245702368L135.80969982147215,85.07273965544479L136.50615982055663,85.48546891146303L137.20261981964111,85.56292649416459L137.8990798187256,84.93975605477905L138.59553981781005,85.3295353649444L139.29199981689453,85.31651463496766L139.98845981597898,85.51660833878638L140.68491981506347,85.19426646856115L141.38137981414795,85.59150178332213L142.07783981323243,85.52933810273014L142.77429981231688,85.7439922317836L143.47075981140136,85.48546284967067L144.16721981048582,85.69081212746048L144.86367980957033,85.65188935875436L145.56013980865478,85.54729313168319L146.25659980773926,85.27155432107679L146.95305980682372,85.4087872381828L147.6495198059082,85.43000351142238L148.34597980499268,85.66817133301765L149.04243980407716,85.7101189361085L149.73889980316162,85.95055992983657L150.4353598022461,85.53360560454747L151.13181980133055,86.12550325717787L151.82827980041506,85.98429986607987L152.5247397994995,85.59918813602722L153.221199798584,85.5672364285284L153.91765979766845,85.56276888756338L154.61411979675293,85.86631313969835L155.3105797958374,85.71756887891176L156.0070397949219,85.29007309671877L156.70349979400635,85.90679985083183L157.3999597930908,85.98142657650399L158.09641979217528,85.92526407034264L158.79287979125976,85.92439723403598L159.48933979034425,86.28107309615523L160.1857997894287,85.60598340525624L160.88225978851318,86.16919665646671L161.57871978759763,86.1379178079192L162.27517978668214,85.74622903316228L162.9716397857666,85.68618091810188L163.66809978485108,86.04294770710645L164.36455978393553,86.26188752335429L165.06101978302001,86.03389138932933L165.7574797821045,86.00791054729936L166.45393978118898,86.03358223791926L167.15039978027343,85.93505386499461L167.8468597793579,86.03884993547503L168.54331977844237,86.05171305885058L169.23977977752688,85.93600556639421L169.93623977661133,85.8413082462374L170.6326997756958,86.20005117954942L171.32915977478027,85.96443537253526L172.02561977386475,86.22826276116572L172.72207977294923,86.2485940127216L173.4185397720337,85.90214439430383L174.11499977111816,85.64579725743842L174.81145977020262,86.4178635024194L175.5079197692871,86.52904283598718L176.20437976837158,86.53464999391478L176.90083976745606,86.59389795238442L177.59729976654052,86.75738449217634L178.293759765625,86.49876418317811L178.99021976470945,86.64461696901175L179.68667976379396,86.71341831223155L180.38313976287841,86.67815686610736L181.0795997619629,86.82456733683759L181.77605976104735,86.76091851711882L182.47251976013183,86.730130673752L183.1689797592163,86.77995860690326L183.8654397583008,86.73305245766672L184.56189975738525,86.84140699599746L185.25835975646973,86.87015807713328L185.95481975555418,86.87338901245805L186.6512797546387,86.82602216700259L187.34773975372315,86.90872926188285L188.04419975280763,86.89419308381756L188.74065975189208,86.87130981768057L189.43711975097656,86.82920460798853L190.13357975006105,86.74949810032356L190.83003974914553,86.81646878225241L191.52649974822998,86.91231784295653L192.22295974731443,86.85727676838067L192.91941974639892,86.96998367362173L193.6158797454834,86.83282349802396L194.31233974456788,86.96645571047159L195.00879974365233,86.98814480351481L195.7052597427368,86.91974353859038L196.40171974182127,86.83025935985815L197.09817974090578,86.95921793040073L197.79463973999023,86.95632039365543L198.4910997390747,86.78263185733145L199.18755973815917,86.86069561926843L199.88401973724365,86.9252294606709L200.58047973632813,86.73342222700032L201.2769397354126,86.83310840226461L201.97339973449706,86.81921477418885L202.66985973358155,86.88840407211933L203.366319732666,86.80179924475533L204.0627797317505,86.93707420293094L204.75923973083496,86.93471616570517L205.45569972991944,86.91284521889133L206.1521597290039,86.78108003848878L206.84861972808838,86.99455817982552L207.54507972717286,86.78094061726463L208.24153972625734,86.94372398914346L208.9379997253418,86.84906303974078L209.63445972442625,86.88780395467627L210.33091972351073,86.76886552689514L211.0273797225952,86.91226328682534L211.7238397216797,86.75039524559199L212.42029972076415,86.82396721939452L213.11675971984863,86.83643632626705L213.81321971893308,86.75779063226408L214.5096797180176,86.76499204158083L215.20613971710205,86.83873980736163L215.90259971618653,86.95214988051576L216.59905971527098,86.96927444391629L217.29551971435546,86.86068955747608L217.99197971343995,86.91152374815813L218.68843971252443,86.93827443781707L219.38489971160888,86.97741543104793L220.08135971069336,86.87890524350034L220.77781970977782,86.97426329902376L221.47427970886233,86.92003450462337L222.17073970794678,87.11560004955355L222.86719970703126,86.85395490617059L223.56365970611571,86.93219446008584L224.2601197052002,86.90671068502891L224.95657970428468,86.82145157556754L225.65303970336916,86.94748230040305L226.3494997024536,86.8828514703229L227.04595970153807,86.95634464082484L227.74241970062255,86.78463831060068L228.43887969970703,86.78493533842604L229.1353396987915,86.98049482156385L229.83179969787597,86.92325331636344L230.52825969696045,87.0772895218752L231.2247196960449,86.88309394201708L231.9211796951294,86.75532348277592L232.61763969421386,86.89046508151975L233.31409969329835,86.95799344834518L234.0105596923828,86.90619543267881L234.70701969146728,86.84081900213911L235.40347969055176,86.87134012664235L236.09993968963624,86.94076583447463L236.7963996887207,86.7459216428346L237.49285968780518,86.99193342373617L238.18931968688963,86.89559941964373L238.88577968597414,86.94565163911209L239.5822396850586,86.732749368049L240.27869968414308,87.0039236490127L240.97515968322753,86.98738101767819L241.671619682312,86.7478129220491L242.3680796813965,86.9111842877863L243.06453968048098,86.89045901972739" fill="none"></path></g></g></g></g></g></g><g transform="translate(51, 177)" clip-path="url(#clip_1)"><clipPath id="clip_1"><rect width="278" height="22"></rect></clipPath><g><g><line x1="0" y1="0" x2="0" y2="5" style="visibility: inherit;" fill="rgb(0, 0, 0)" stroke="rgb(204, 204, 204)" stroke-width="1px"></line><line x1="34.82299995422363" y1="0" x2="34.82299995422363" y2="5" style="visibility: inherit;" fill="rgb(0, 0, 0)" stroke="rgb(204, 204, 204)" stroke-width="1px"></line><line x1="69.64599990844727" y1="0" x2="69.64599990844727" y2="5" style="visibility: inherit;" fill="rgb(0, 0, 0)" stroke="rgb(204, 204, 204)" stroke-width="1px"></line><line x1="104.4689998626709" y1="0" x2="104.4689998626709" y2="5" style="visibility: inherit;" fill="rgb(0, 0, 0)" stroke="rgb(204, 204, 204)" stroke-width="1px"></line><line x1="139.29199981689453" y1="0" x2="139.29199981689453" y2="5" style="visibility: inherit;" fill="rgb(0, 0, 0)" stroke="rgb(204, 204, 204)" stroke-width="1px"></line><line x1="174.11499977111816" y1="0" x2="174.11499977111816" y2="5" style="visibility: inherit;" fill="rgb(0, 0, 0)" stroke="rgb(204, 204, 204)" stroke-width="1px"></line><line x1="208.9379997253418" y1="0" x2="208.9379997253418" y2="5" style="visibility: inherit;" fill="rgb(0, 0, 0)" stroke="rgb(204, 204, 204)" stroke-width="1px"></line><line x1="243.76099967956543" y1="0" x2="243.76099967956543" y2="5" style="visibility: inherit;" fill="rgb(0, 0, 0)" stroke="rgb(204, 204, 204)" stroke-width="1px"></line><line x1="278.58399963378906" y1="0" x2="278.58399963378906" y2="5" style="visibility: inherit;" fill="rgb(0, 0, 0)" stroke="rgb(204, 204, 204)" stroke-width="1px"></line></g><g transform="translate(0, 8)"><text style="text-anchor: middle; visibility: hidden; font-family: &quot;Helvetica Neue&quot;, sans-serif; font-size: 12px; font-weight: 200;" x="0" y="0" dx="0em" dy="0.95em" fill="rgb(50, 49, 63)" stroke="none" stroke-width="1px">-50</text><text style="text-anchor: middle; visibility: inherit; font-family: &quot;Helvetica Neue&quot;, sans-serif; font-size: 12px; font-weight: 200;" x="34.82299995422363" y="0" dx="0em" dy="0.95em" fill="rgb(50, 49, 63)" stroke="none" stroke-width="1px">0</text><text style="text-anchor: middle; visibility: inherit; font-family: &quot;Helvetica Neue&quot;, sans-serif; font-size: 12px; font-weight: 200;" x="69.64599990844727" y="0" dx="0em" dy="0.95em" fill="rgb(50, 49, 63)" stroke="none" stroke-width="1px">50</text><text style="text-anchor: middle; visibility: inherit; font-family: &quot;Helvetica Neue&quot;, sans-serif; font-size: 12px; font-weight: 200;" x="104.4689998626709" y="0" dx="0em" dy="0.95em" fill="rgb(50, 49, 63)" stroke="none" stroke-width="1px">100</text><text style="text-anchor: middle; visibility: inherit; font-family: &quot;Helvetica Neue&quot;, sans-serif; font-size: 12px; font-weight: 200;" x="139.29199981689453" y="0" dx="0em" dy="0.95em" fill="rgb(50, 49, 63)" stroke="none" stroke-width="1px">150</text><text style="text-anchor: middle; visibility: inherit; font-family: &quot;Helvetica Neue&quot;, sans-serif; font-size: 12px; font-weight: 200;" x="174.11499977111816" y="0" dx="0em" dy="0.95em" fill="rgb(50, 49, 63)" stroke="none" stroke-width="1px">200</text><text style="text-anchor: middle; visibility: inherit; font-family: &quot;Helvetica Neue&quot;, sans-serif; font-size: 12px; font-weight: 200;" x="208.9379997253418" y="0" dx="0em" dy="0.95em" fill="rgb(50, 49, 63)" stroke="none" stroke-width="1px">250</text><text style="text-anchor: middle; visibility: inherit; font-family: &quot;Helvetica Neue&quot;, sans-serif; font-size: 12px; font-weight: 200;" x="243.76099967956543" y="0" dx="0em" dy="0.95em" fill="rgb(50, 49, 63)" stroke="none" stroke-width="1px">300</text><text style="text-anchor: middle; visibility: hidden; font-family: &quot;Helvetica Neue&quot;, sans-serif; font-size: 12px; font-weight: 200;" x="278.58399963378906" y="0" dx="0em" dy="0.95em" fill="rgb(50, 49, 63)" stroke="none" stroke-width="1px">350</text></g><line x1="0" y1="0" x2="278.58399963378906" y2="0" fill="rgb(0, 0, 0)" stroke="rgb(204, 204, 204)" stroke-width="1px"></line></g></g></g></g></svg>