<svg viewBox="0 0 330 200" xmlns="http://www.w3.org/2000/svg"><g><g><g><g><g><line x1="51.41600036621094" y1="177.9749994277954" x2="46.41600036621094" y2="177.9749994277954" style="visibility: inherit;" fill="rgb(0, 0, 0)" stroke="rgb(204, 204, 204)" stroke-width="1px"></line><line x1="51.41600036621094" y1="161.79545402526858" x2="46.41600036621094" y2="161.79545402526858" style="visibility: inherit;" fill="rgb(0, 0, 0)" stroke="rgb(204, 204, 204)" stroke-width="1px"></line><line x1="51.41600036621094" y1="145.6159086227417" x2="46.41600036621094" y2="145.6159086227417" style="visibility: inherit;" fill="rgb(0, 0, 0)" stroke="rgb(204, 204, 204)" stroke-width="1px"></line><line x1="51.41600036621094" y1="129.43636322021487" x2="46.41600036621094" y2="129.43636322021487" style="visibility: inherit;" fill="rgb(0, 0, 0)" stroke="rgb(204, 204, 204)" stroke-width="1px"></line><line x1="51.41600036621094" y1="113.256817817688" x2="46.41600036621094" y2="113.256817817688" style="visibility: inherit;" fill="rgb(0, 0, 0)" stroke="rgb(204, 204, 204)" stroke-width="1px"></line><line x1="51.41600036621094" y1="97.07727241516113" x2="46.41600036621094" y2="97.07727241516113" style="visibility: inherit;" fill="rgb(0, 0, 0)" stroke="rgb(204, 204, 204)" stroke-width="1px"></line><line x1="51.41600036621094" y1="80.8977270126343" x2="46.41600036621094" y2="80.8977270126343" style="visibility: inherit;" fill="rgb(0, 0, 0)" stroke="rgb(204, 204, 204)" stroke-width="1px"></line><line x1="51.41600036621094" y1="64.71818161010745" x2="46.41600036621094" y2="64.71818161010745" style="visibility: inherit;" fill="rgb(0, 0, 0)" stroke="rgb(204, 204, 204)" stroke-width="1px"></line><line x1="51.41600036621094" y1="48.538636207580595" x2="46.41600036621094" y2="48.538636207580595" style="visibility: inherit;" fill="rgb(0, 0, 0)" stroke="rgb(204, 204, 204)" stroke-width="1px"></line><line x1="51.41600036621094" y1="32.35909080505374" x2="46.41600036621094" y2="32.35909080505374" style="visibility: inherit;" fill="rgb(0, 0, 0)" stroke="rgb(204, 204, 204)" stroke-width="1px"></line><line x1="51.41600036621094" y1="16.179545402526855" x2="46.41600036621094" y2="16.179545402526855" style="visibility: inherit;" fill="rgb(0, 0, 0)" stroke="rgb(204, 204, 204)" stroke-width="1px"></line><line x1="51.41600036621094" y1="0" x2="46.41600036621094" y2="0" style="visibility: inherit;" fill="rgb(0, 0, 0)" stroke="rgb(204, 204, 204)" stroke-width="1px"></line></g><g transform="translate(41.41600036621094, 0)"><text style="text-anchor: end; visibility: hidden; font-family: &quot;Helvetica Neue&quot;, sans-serif; font-size: 12px; font-weight: 200;" x="0" y="177.9749994277954" dx="0em" dy="0.3em" fill="rgb(50, 49, 63)" stroke="none" stroke-width="1px">0.55</text><text style="text-anchor: end; visibility: inherit; font-family: &quot;Helvetica Neue&quot;, sans-serif; font-size: 12px; font-weight: 200;" x="0" y="161.79545402526858" dx="0em" dy="0.3em" fill="rgb(50, 49, 63)" stroke="none" stroke-width="1px">0.6</text><text style="text-anchor: end; visibility: hidden; font-family: &quot;Helvetica Neue&quot;, sans-serif; font-size: 12px; font-weight: 200;" x="0" y="145.6159086227417" dx="0em" dy="0.3em" fill="rgb(50, 49, 63)" stroke="none" stroke-width="1px">0.65</text><text style="text-anchor: end; visibility: inherit; font-family: &quot;Helvetica Neue&quot;, sans-serif; font-size: 12px; font-weight: 200;" x="0" y="129.43636322021487" dx="0em" dy="0.3em" fill="rgb(50, 49, 63)" stroke="none" stroke-width="1px">0.7</text><text style="text-anchor: end; visibility: hidden; font-family: &quot;Helvetica Neue&quot;, sans-serif; font-size: 12px; font-weight: 200;" x="0" y="113.256817817688" dx="0em" dy="0.3em" fill="rgb(50, 49, 63)" stroke="none" stroke-width="1px">0.75</text><text style="text-anchor: end; visibility: inherit; font-family: &quot;Helvetica Neue&quot;, sans-serif; font-size: 12px; font-weight: 200;" x="0" y="97.07727241516113" dx="0em" dy="0.3em" fill="rgb(50, 49, 63)" stroke="none" stroke-width="1px">0.8</text><text style="text-anchor: end; visibility: hidden; font-family: &quot;Helvetica Neue&quot;, sans-serif; font-size: 12px; font-weight: 200;" x="0" y="80.8977270126343" dx="0em" dy="0.3em" fill="rgb(50, 49, 63)" stroke="none" stroke-width="1px">0.85</text><text style="text-anchor: end; visibility: inherit; font-family: &quot;Helvetica Neue&quot;, sans-serif; font-size: 12px; font-weight: 200;" x="0" y="64.71818161010745" dx="0em" dy="0.3em" fill="rgb(50, 49, 63)" stroke="none" stroke-width="1px">0.9</text><text style="text-anchor: end; visibility: hidden; font-family: &quot;Helvetica Neue&quot;, sans-serif; font-size: 12px; font-weight: 200;" x="0" y="48.538636207580595" dx="0em" dy="0.3em" fill="rgb(50, 49, 63)" stroke="none" stroke-width="1px">0.95</text><text style="text-anchor: end; visibility: inherit; font-family: &quot;Helvetica Neue&quot;, sans-serif; font-size: 12px; font-weight: 200;" x="0" y="32.35909080505374" dx="0em" dy="0.3em" fill="rgb(50, 49, 63)" stroke="none" stroke-width="1px">1</text><text style="text-anchor: end; visibility: hidden; font-family: &quot;Helvetica Neue&quot;, sans-serif; font-size: 12px; font-weight: 200;" x="0" y="16.179545402526855" dx="0em" dy="0.3em" fill="rgb(50, 49, 63)" stroke="none" stroke-width="1px">1.05</text><text style="text-anchor: end; visibility: hidden; font-family: &quot;Helvetica Neue&quot;, sans-serif; font-size: 12px; font-weight: 200;" x="0" y="0" dx="0em" dy="0.3em" fill="rgb(50, 49, 63)" stroke="none" stroke-width="1px">1.1</text></g><line x1="51.41600036621094" y1="0" x2="51.41600036621094" y2="177.9749994277954" fill="rgb(0, 0, 0)" stroke="rgb(204, 204, 204)" stroke-width="1px"></line></g></g><g transform="translate(51, 0)" clip-path="url(#clip_0)"><clipPath id="clip_0"><rect width="278" height="177"></rect></clipPath><g><g><g><line x1="0" y1="0" x2="0" y2="177.9749994277954" fill="rgb(0, 0, 0)" stroke="rgb(60, 60, 60)" stroke-width="1px" opacity="0.25"></line><line x1="23.215333302815754" y1="0" x2="23.215333302815754" y2="177.9749994277954" fill="rgb(0, 0, 0)" stroke="rgb(60, 60, 60)" stroke-width="1px" opacity="0.25"></line><line x1="46.43066660563151" y1="0" x2="46.43066660563151" y2="177.9749994277954" fill="rgb(0, 0, 0)" stroke="rgb(60, 60, 60)" stroke-width="1px" opacity="0.25"></line><line x1="69.64599990844727" y1="0" x2="69.64599990844727" y2="177.9749994277954" fill="rgb(0, 0, 0)" stroke="rgb(60, 60, 60)" stroke-width="1px" opacity="0.25"></line><line x1="92.86133321126302" y1="0" x2="92.86133321126302" y2="177.9749994277954" fill="rgb(0, 0, 0)" stroke="rgb(60, 60, 60)" stroke-width="1px" opacity="0.25"></line><line x1="116.07666651407878" y1="0" x2="116.07666651407878" y2="177.9749994277954" fill="rgb(0, 0, 0)" stroke="rgb(60, 60, 60)" stroke-width="1px" opacity="0.25"></line><line x1="139.29199981689453" y1="0" x2="139.29199981689453" y2="177.9749994277954" fill="rgb(0, 0, 0)" stroke="rgb(60, 60, 60)" stroke-width="1px" opacity="0.25"></line><line x1="162.5073331197103" y1="0" x2="162.5073331197103" y2="177.9749994277954" fill="rgb(0, 0, 0)" stroke="rgb(60, 60, 60)" stroke-width="1px" opacity="0.25"></line><line x1="185.72266642252603" y1="0" x2="185.72266642252603" y2="177.9749994277954" fill="rgb(0, 0, 0)" stroke="rgb(60, 60, 60)" stroke-width="1px" opacity="0.25"></line><line x1="208.9379997253418" y1="0" x2="208.9379997253418" y2="177.9749994277954" fill="rgb(0, 0, 0)" stroke="rgb(60, 60, 60)" stroke-width="1px" opacity="0.25"></line><line x1="232.15333302815756" y1="0" x2="232.15333302815756" y2="177.9749994277954" fill="rgb(0, 0, 0)" stroke="rgb(60, 60, 60)" stroke-width="1px" opacity="0.25"></line><line x1="255.3686663309733" y1="0" x2="255.3686663309733" y2="177.9749994277954" fill="rgb(0, 0, 0)" stroke="rgb(60, 60, 60)" stroke-width="1px" opacity="0.25"></line><line x1="278.58399963378906" y1="0" x2="278.58399963378906" y2="177.9749994277954" fill="rgb(0, 0, 0)" stroke="rgb(60, 60, 60)" stroke-width="1px" opacity="0.25"></line></g><g><line x1="0" y1="177.9749994277954" x2="278.58399963378906" y2="177.9749994277954" fill="rgb(0, 0, 0)" stroke="rgb(60, 60, 60)" stroke-width="1px" opacity="0.25"></line><line x1="0" y1="161.79545402526858" x2="278.58399963378906" y2="161.79545402526858" fill="rgb(0, 0, 0)" stroke="rgb(60, 60, 60)" stroke-width="1px" opacity="0.25"></line><line x1="0" y1="145.6159086227417" x2="278.58399963378906" y2="145.6159086227417" fill="rgb(0, 0, 0)" stroke="rgb(60, 60, 60)" stroke-width="1px" opacity="0.25"></line><line x1="0" y1="129.43636322021487" x2="278.58399963378906" y2="129.43636322021487" fill="rgb(0, 0, 0)" stroke="rgb(60, 60, 60)" stroke-width="1px" opacity="0.25"></line><line x1="0" y1="113.256817817688" x2="278.58399963378906" y2="113.256817817688" fill="rgb(0, 0, 0)" stroke="rgb(60, 60, 60)" stroke-width="1px" opacity="0.25"></line><line x1="0" y1="97.07727241516113" x2="278.58399963378906" y2="97.07727241516113" fill="rgb(0, 0, 0)" stroke="rgb(60, 60, 60)" stroke-width="1px" opacity="0.25"></line><line x1="0" y1="80.8977270126343" x2="278.58399963378906" y2="80.8977270126343" fill="rgb(0, 0, 0)" stroke="rgb(60, 60, 60)" stroke-width="1px" opacity="0.25"></line><line x1="0" y1="64.71818161010745" x2="278.58399963378906" y2="64.71818161010745" fill="rgb(0, 0, 0)" stroke="rgb(60, 60, 60)" stroke-width="1px" opacity="0.25"></line><line x1="0" y1="48.538636207580595" x2="278.58399963378906" y2="48.538636207580595" fill="rgb(0, 0, 0)" stroke="rgb(60, 60, 60)" stroke-width="1px" opacity="0.25"></line><line x1="0" y1="32.35909080505374" x2="278.58399963378906" y2="32.35909080505374" fill="rgb(0, 0, 0)" stroke="rgb(60, 60, 60)" stroke-width="1px" opacity="0.25"></line><line x1="0" y1="16.179545402526855" x2="278.58399963378906" y2="16.179545402526855" fill="rgb(0, 0, 0)" stroke="rgb(60, 60, 60)" stroke-width="1px" opacity="0.25"></line><line x1="0" y1="0" x2="278.58399963378906" y2="0" fill="rgb(0, 0, 0)" stroke="rgb(60, 60, 60)" stroke-width="1px" opacity="0.25"></line></g></g></g><g><g><line x1="0" y1="355.9499988555908" x2="278.58399963378906" y2="355.9499988555908" fill="rgb(0, 0, 0)" stroke="rgb(153, 153, 153)" stroke-width="1.5px"></line></g></g><g><g><line x1="23.215333302815754" y1="0" x2="23.215333302815754" y2="177.9749994277954" fill="rgb(0, 0, 0)" stroke="rgb(153, 153, 153)" stroke-width="1.5px"></line></g></g><g><g><g><g><g><path style="fill: none;" stroke="rgb(51, 187, 238)" stroke-width="2px" d="M25.53686663309733,202.28314524036625L27.858399963378908,163.8858471375145L30.179933293660483,154.41758372879895L32.50146662394206,140.65202203796824L34.82299995422363,133.57832366467824L37.14453328450521,131.50086476410002L39.46606661478678,117.1010715160535L41.78759994506836,116.1108887564408L44.10913327534993,114.55764539257055L46.43066660563151,113.88458805532629L48.75219993591308,98.64991516778085L51.07373326619466,100.96682864314951L53.39526659647624,92.50168992072282L55.716799926757815,92.11985486497363L58.03833325703939,91.16849788538937L60.359866587320965,85.27266913979796L62.68139991760254,93.78959485645035L65.00293324788412,78.70378305696228L67.3244665781657,84.39250240069306L69.64599990844727,80.91066122430199L71.96753323872885,81.57079592239123L74.28906656901042,80.91066122430199L76.610599899292,74.09583995957725L78.93213322957357,74.32235260769156L81.25366655985515,74.87893260485045L83.57519989013672,69.61087409689732L85.8967332204183,72.52967395655199L88.21826655069987,67.34574761575439L90.53979988098145,68.27768206156385L92.86133321126302,70.98937251935789L95.1828665415446,39.23864099068035L97.50439987182617,37.322965817314554L99.82593320210775,35.97683185530494L102.14746653238932,35.50440331282269L104.4689998626709,34.89603632143806L106.79053319295248,34.695407526676064L109.11206652323405,34.70836874087334L111.43359985351563,34.03529211610797L113.7551331837972,34.22944030377133L116.07666651407878,33.95115994895244L118.39819984436035,33.815240787571184L120.71973317464193,33.56284428610459L123.0412665049235,33.49165404562521L125.36279983520508,33.439886338920616L127.68433316548665,33.42046380514583L130.00586649576823,33.47225079937155L132.3273998260498,33.278083324187065L134.6489331563314,33.258680077933406L136.97046648661293,33.1615866965806L139.29199981689453,33.083935136523706L141.6135331471761,33.15512537700309L143.9350664774577,33.01922550314296L146.25659980773926,32.97391911601588L148.57813313802083,32.89624826843786L150.8996664683024,32.902728875536496L153.221199798584,32.94155465556494L155.54273312886556,32.86388380798692L157.86426645914713,32.818596708380966L160.1857997894287,32.8768450221842L162.5073331197103,32.82505802795848L164.82886644999186,32.81211610128233L167.15039978027343,32.766809714155244L169.471933110555,32.734464541225435L171.7934664408366,32.84448056173326L174.11499977111816,32.69561947367586L176.43653310139973,32.65031308654878L178.75806643168133,32.72150332702816L181.0795997619629,32.740925860802946L183.40113309224446,32.70856140035201L185.72266642252603,32.71504200745065L188.04419975280763,32.7279839341268L190.3657330830892,32.70856140035201L192.68726641337076,32.69561947367586L195.00879974365233,32.68267754699971L197.33033307393393,32.63737115987263L199.6518664042155,32.61148730652033L201.97339973449706,32.68267754699971L204.29493306477863,32.61796791361897L206.61646639506023,32.70856140035201L208.9379997253418,32.77329032125388L211.25953305562336,32.64385176697127L213.58106638590496,32.7021000807745L215.90259971618653,32.68915815409835L218.2241330464681,32.59208406026667L220.54566637674967,32.65031308654878L222.86719970703126,32.669735620323564L225.18873303731283,32.69561947367586L227.5102663675944,32.59208406026667L229.83179969787597,32.7021000807745L232.15333302815756,32.65031308654878L234.47486635843913,32.62442923319648L236.7963996887207,32.656793693647415L239.11793301900227,32.64385176697127L241.43946634928386,32.656793693647415L243.76099967956543,32.64385176697127L246.082533009847,32.65031308654878L248.4040663401286,32.61796791361897L250.72559967041016,32.64385176697127L253.04713300069173,32.66327430074605" fill="none"></path></g><g><path style="fill: none;" stroke="rgb(0, 119, 187)" stroke-width="2px" d="M25.53686663309733,205.900895934378L27.858399963378908,171.14723237889032L30.179933293660483,163.89878906419065L32.50146662394206,149.46663135569318L34.82299995422363,149.95202111237268L37.14453328450521,146.87791813260426L39.46606661478678,137.33198387631072L41.78759994506836,139.50003626362198L44.10913327534993,137.52613206397407L46.43066660563151,142.02405914085125L48.75219993591308,129.37163815681723L51.07373326619466,131.66914838593223L53.39526659647624,125.7474357869885L55.716799926757815,130.14826948251292L58.03833325703939,131.5397098316496L60.359866587320965,127.52717251145192L62.68139991760254,134.80798028660251L65.00293324788412,124.84136590701021L67.3244665781657,126.7829249337283L69.64599990844727,126.8152701066581L71.96753323872885,130.7630785059539L74.28906656901042,129.9217568343986L76.610599899292,122.8674617073623L78.93213322957357,125.9739484351028L81.25366655985515,124.74429181317853L83.57519989013672,123.35285146404183L85.8967332204183,123.8706056811723L88.21826655069987,121.15243461627962L90.53979988098145,125.45619421797235L92.86133321126302,128.8539032272079L95.1828665415446,103.22549380471494L97.50439987182617,101.15451551123535L99.82593320210775,99.21297577203839L102.14746653238932,100.05431673111482L104.4689998626709,99.342414326321L106.79053319295248,99.14824685113652L109.11206652323405,98.69522155490792L111.43359985351563,98.8893890300924L113.7551331837972,99.01880829685389L116.07666651407878,98.56578300062532L118.39819984436035,97.95097397718429L120.71973317464193,98.92173420302221L123.0412665049235,98.8893890300924L125.36279983520508,98.17748662529858L127.68433316548665,98.82466010919053L130.00586649576823,98.59814746107625L132.3273998260498,98.98646312392408L134.6489331563314,98.82466010919053L136.97046648661293,99.08353721775578L139.29199981689453,99.27768540541913L141.6135331471761,99.40712395970175L143.9350664774577,99.01880829685389L146.25659980773926,97.72446132907001L148.57813313802083,98.01568361056503L150.8996664683024,98.75995047580979L153.221199798584,98.69522155490792L155.54273312886556,98.72758601535885L157.86426645914713,99.6012721473651L160.1857997894287,99.11590167820671L162.5073331197103,98.82466010919053L164.82886644999186,98.69522155490792L167.15039978027343,98.69522155490792L169.471933110555,98.82466010919053L171.7934664408366,98.17748662529858L174.11499977111816,98.95409866347315L176.43653310139973,98.85702456964147L178.75806643168133,99.4718528806036L181.0795997619629,98.7922956487396L183.40113309224446,99.05117275730483L185.72266642252603,98.53343782769551L188.04419975280763,98.72758601535885L190.3657330830892,98.95409866347315L192.68726641337076,99.08353721775578L195.00879974365233,98.01568361056503L197.33033307393393,98.37163481296196L199.6518664042155,98.7922956487396L201.97339973449706,98.66287638197811L204.29493306477863,98.43636373386383L206.61646639506023,98.53343782769551L208.9379997253418,98.27456071913028L211.25953305562336,98.01568361056503L213.58106638590496,98.75995047580979L215.90259971618653,98.46870890679364L218.2241330464681,98.63051192152717L220.54566637674967,98.46870890679364L222.86719970703126,98.37163481296196L225.18873303731283,97.95097397718429L227.5102663675944,98.43636373386383L229.83179969787597,98.72758601535885L232.15333302815756,97.53029385388552L234.47486635843913,98.37163481296196L236.7963996887207,98.14512216484765L239.11793301900227,98.4039992734129L241.43946634928386,98.46870890679364L243.76099967956543,98.75995047580979L246.082533009847,98.53343782769551L248.4040663401286,98.43636373386383L250.72559967041016,98.11275770439671L253.04713300069173,98.27456071913028" fill="none"></path></g></g></g></g></g></g><g transform="translate(51, 177)" clip-path="url(#clip_1)"><clipPath id="clip_1"><rect width="278" height="22"></rect></clipPath><g><g><line x1="0" y1="0" x2="0" y2="5" style="visibility: inherit;" fill="rgb(0, 0, 0)" stroke="rgb(204, 204, 204)" stroke-width="1px"></line><line x1="23.215333302815754" y1="0" x2="23.215333302815754" y2="5" style="visibility: inherit;" fill="rgb(0, 0, 0)" stroke="rgb(204, 204, 204)" stroke-width="1px"></line><line x1="46.43066660563151" y1="0" x2="46.43066660563151" y2="5" style="visibility: inherit;" fill="rgb(0, 0, 0)" stroke="rgb(204, 204, 204)" stroke-width="1px"></line><line x1="69.64599990844727" y1="0" x2="69.64599990844727" y2="5" style="visibility: inherit;" fill="rgb(0, 0, 0)" stroke="rgb(204, 204, 204)" stroke-width="1px"></line><line x1="92.86133321126302" y1="0" x2="92.86133321126302" y2="5" style="visibility: inherit;" fill="rgb(0, 0, 0)" stroke="rgb(204, 204, 204)" stroke-width="1px"></line><line x1="116.07666651407878" y1="0" x2="116.07666651407878" y2="5" style="visibility: inherit;" fill="rgb(0, 0, 0)" stroke="rgb(204, 204, 204)" stroke-width="1px"></line><line x1="139.29199981689453" y1="0" x2="139.29199981689453" y2="5" style="visibility: inherit;" fill="rgb(0, 0, 0)" stroke="rgb(204, 204, 204)" stroke-width="1px"></line><line x1="162.5073331197103" y1="0" x2="162.5073331197103" y2="5" style="visibility: inherit;" fill="rgb(0, 0, 0)" stroke="rgb(204, 204, 204)" stroke-width="1px"></line><line x1="185.72266642252603" y1="0" x2="185.72266642252603" y2="5" style="visibility: inherit;" fill="rgb(0, 0, 0)" stroke="rgb(204, 204, 204)" stroke-width="1px"></line><line x1="208.9379997253418" y1="0" x2="208.9379997253418" y2="5" style="visibility: inherit;" fill="rgb(0, 0, 0)" stroke="rgb(204, 204, 204)" stroke-width="1px"></line><line x1="232.15333302815756" y1="0" x2="232.15333302815756" y2="5" style="visibility: inherit;" fill="rgb(0, 0, 0)" stroke="rgb(204, 204, 204)" stroke-width="1px"></line><line x1="255.3686663309733" y1="0" x2="255.3686663309733" y2="5" style="visibility: inherit;" fill="rgb(0, 0, 0)" stroke="rgb(204, 204, 204)" stroke-width="1px"></line><line x1="278.58399963378906" y1="0" x2="278.58399963378906" y2="5" style="visibility: inherit;" fill="rgb(0, 0, 0)" stroke="rgb(204, 204, 204)" stroke-width="1px"></line></g><g transform="translate(0, 8)"><text style="text-anchor: middle; visibility: hidden; font-family: &quot;Helvetica Neue&quot;, sans-serif; font-size: 12px; font-weight: 200;" x="0" y="0" dx="0em" dy="0.95em" fill="rgb(50, 49, 63)" stroke="none" stroke-width="1px">-10</text><text style="text-anchor: middle; visibility: inherit; font-family: &quot;Helvetica Neue&quot;, sans-serif; font-size: 12px; font-weight: 200;" x="23.215333302815754" y="0" dx="0em" dy="0.95em" fill="rgb(50, 49, 63)" stroke="none" stroke-width="1px">0</text><text style="text-anchor: middle; visibility: hidden; font-family: &quot;Helvetica Neue&quot;, sans-serif; font-size: 12px; font-weight: 200;" x="46.43066660563151" y="0" dx="0em" dy="0.95em" fill="rgb(50, 49, 63)" stroke="none" stroke-width="1px">10</text><text style="text-anchor: middle; visibility: inherit; font-family: &quot;Helvetica Neue&quot;, sans-serif; font-size: 12px; font-weight: 200;" x="69.64599990844727" y="0" dx="0em" dy="0.95em" fill="rgb(50, 49, 63)" stroke="none" stroke-width="1px">20</text><text style="text-anchor: middle; visibility: hidden; font-family: &quot;Helvetica Neue&quot;, sans-serif; font-size: 12px; font-weight: 200;" x="92.86133321126302" y="0" dx="0em" dy="0.95em" fill="rgb(50, 49, 63)" stroke="none" stroke-width="1px">30</text><text style="text-anchor: middle; visibility: inherit; font-family: &quot;Helvetica Neue&quot;, sans-serif; font-size: 12px; font-weight: 200;" x="116.07666651407878" y="0" dx="0em" dy="0.95em" fill="rgb(50, 49, 63)" stroke="none" stroke-width="1px">40</text><text style="text-anchor: middle; visibility: hidden; font-family: &quot;Helvetica Neue&quot;, sans-serif; font-size: 12px; font-weight: 200;" x="139.29199981689453" y="0" dx="0em" dy="0.95em" fill="rgb(50, 49, 63)" stroke="none" stroke-width="1px">50</text><text style="text-anchor: middle; visibility: inherit; font-family: &quot;Helvetica Neue&quot;, sans-serif; font-size: 12px; font-weight: 200;" x="162.5073331197103" y="0" dx="0em" dy="0.95em" fill="rgb(50, 49, 63)" stroke="none" stroke-width="1px">60</text><text style="text-anchor: middle; visibility: hidden; font-family: &quot;Helvetica Neue&quot;, sans-serif; font-size: 12px; font-weight: 200;" x="185.72266642252603" y="0" dx="0em" dy="0.95em" fill="rgb(50, 49, 63)" stroke="none" stroke-width="1px">70</text><text style="text-anchor: middle; visibility: inherit; font-family: &quot;Helvetica Neue&quot;, sans-serif; font-size: 12px; font-weight: 200;" x="208.9379997253418" y="0" dx="0em" dy="0.95em" fill="rgb(50, 49, 63)" stroke="none" stroke-width="1px">80</text><text style="text-anchor: middle; visibility: hidden; font-family: &quot;Helvetica Neue&quot;, sans-serif; font-size: 12px; font-weight: 200;" x="232.15333302815756" y="0" dx="0em" dy="0.95em" fill="rgb(50, 49, 63)" stroke="none" stroke-width="1px">90</text><text style="text-anchor: middle; visibility: inherit; font-family: &quot;Helvetica Neue&quot;, sans-serif; font-size: 12px; font-weight: 200;" x="255.3686663309733" y="0" dx="0em" dy="0.95em" fill="rgb(50, 49, 63)" stroke="none" stroke-width="1px">100</text><text style="text-anchor: middle; visibility: hidden; font-family: &quot;Helvetica Neue&quot;, sans-serif; font-size: 12px; font-weight: 200;" x="278.58399963378906" y="0" dx="0em" dy="0.95em" fill="rgb(50, 49, 63)" stroke="none" stroke-width="1px">110</text></g><line x1="0" y1="0" x2="278.58399963378906" y2="0" fill="rgb(0, 0, 0)" stroke="rgb(204, 204, 204)" stroke-width="1px"></line></g></g></g></g></svg>