<svg viewBox="0 0 330 200" xmlns="http://www.w3.org/2000/svg"><g><g><g><g><g><line x1="51.41600036621094" y1="177.9749994277954" x2="46.41600036621094" y2="177.9749994277954" style="visibility: inherit;" fill="rgb(0, 0, 0)" stroke="rgb(204, 204, 204)" stroke-width="1px"></line><line x1="51.41600036621094" y1="152.54999950953894" x2="46.41600036621094" y2="152.54999950953894" style="visibility: inherit;" fill="rgb(0, 0, 0)" stroke="rgb(204, 204, 204)" stroke-width="1px"></line><line x1="51.41600036621094" y1="127.12499959128243" x2="46.41600036621094" y2="127.12499959128243" style="visibility: inherit;" fill="rgb(0, 0, 0)" stroke="rgb(204, 204, 204)" stroke-width="1px"></line><line x1="51.41600036621094" y1="101.69999967302596" x2="46.41600036621094" y2="101.69999967302596" style="visibility: inherit;" fill="rgb(0, 0, 0)" stroke="rgb(204, 204, 204)" stroke-width="1px"></line><line x1="51.41600036621094" y1="76.27499975476947" x2="46.41600036621094" y2="76.27499975476947" style="visibility: inherit;" fill="rgb(0, 0, 0)" stroke="rgb(204, 204, 204)" stroke-width="1px"></line><line x1="51.41600036621094" y1="50.84999983651298" x2="46.41600036621094" y2="50.84999983651298" style="visibility: inherit;" fill="rgb(0, 0, 0)" stroke="rgb(204, 204, 204)" stroke-width="1px"></line><line x1="51.41600036621094" y1="25.424999918256503" x2="46.41600036621094" y2="25.424999918256503" style="visibility: inherit;" fill="rgb(0, 0, 0)" stroke="rgb(204, 204, 204)" stroke-width="1px"></line><line x1="51.41600036621094" y1="0" x2="46.41600036621094" y2="0" style="visibility: inherit;" fill="rgb(0, 0, 0)" stroke="rgb(204, 204, 204)" stroke-width="1px"></line></g><g transform="translate(41.41600036621094, 0)"><text style="text-anchor: end; visibility: hidden; font-family: &quot;Helvetica Neue&quot;, sans-serif; font-size: 12px; font-weight: 200;" x="0" y="177.9749994277954" dx="0em" dy="0.3em" fill="rgb(50, 49, 63)" stroke="none" stroke-width="1px">-0.5</text><text style="text-anchor: end; visibility: inherit; font-family: &quot;Helvetica Neue&quot;, sans-serif; font-size: 12px; font-weight: 200;" x="0" y="152.54999950953894" dx="0em" dy="0.3em" fill="rgb(50, 49, 63)" stroke="none" stroke-width="1px">0</text><text style="text-anchor: end; visibility: inherit; font-family: &quot;Helvetica Neue&quot;, sans-serif; font-size: 12px; font-weight: 200;" x="0" y="127.12499959128243" dx="0em" dy="0.3em" fill="rgb(50, 49, 63)" stroke="none" stroke-width="1px">0.5</text><text style="text-anchor: end; visibility: inherit; font-family: &quot;Helvetica Neue&quot;, sans-serif; font-size: 12px; font-weight: 200;" x="0" y="101.69999967302596" dx="0em" dy="0.3em" fill="rgb(50, 49, 63)" stroke="none" stroke-width="1px">1</text><text style="text-anchor: end; visibility: inherit; font-family: &quot;Helvetica Neue&quot;, sans-serif; font-size: 12px; font-weight: 200;" x="0" y="76.27499975476947" dx="0em" dy="0.3em" fill="rgb(50, 49, 63)" stroke="none" stroke-width="1px">1.5</text><text style="text-anchor: end; visibility: inherit; font-family: &quot;Helvetica Neue&quot;, sans-serif; font-size: 12px; font-weight: 200;" x="0" y="50.84999983651298" dx="0em" dy="0.3em" fill="rgb(50, 49, 63)" stroke="none" stroke-width="1px">2</text><text style="text-anchor: end; visibility: inherit; font-family: &quot;Helvetica Neue&quot;, sans-serif; font-size: 12px; font-weight: 200;" x="0" y="25.424999918256503" dx="0em" dy="0.3em" fill="rgb(50, 49, 63)" stroke="none" stroke-width="1px">2.5</text><text style="text-anchor: end; visibility: hidden; font-family: &quot;Helvetica Neue&quot;, sans-serif; font-size: 12px; font-weight: 200;" x="0" y="0" dx="0em" dy="0.3em" fill="rgb(50, 49, 63)" stroke="none" stroke-width="1px">3</text></g><line x1="51.41600036621094" y1="0" x2="51.41600036621094" y2="177.9749994277954" fill="rgb(0, 0, 0)" stroke="rgb(204, 204, 204)" stroke-width="1px"></line></g></g><g transform="translate(51, 0)" clip-path="url(#clip_0)"><clipPath id="clip_0"><rect width="278" height="177"></rect></clipPath><g><g><g><line x1="0" y1="0" x2="0" y2="177.9749994277954" fill="rgb(0, 0, 0)" stroke="rgb(60, 60, 60)" stroke-width="1px" opacity="0.25"></line><line x1="34.82299995422363" y1="0" x2="34.82299995422363" y2="177.9749994277954" fill="rgb(0, 0, 0)" stroke="rgb(60, 60, 60)" stroke-width="1px" opacity="0.25"></line><line x1="69.64599990844727" y1="0" x2="69.64599990844727" y2="177.9749994277954" fill="rgb(0, 0, 0)" stroke="rgb(60, 60, 60)" stroke-width="1px" opacity="0.25"></line><line x1="104.4689998626709" y1="0" x2="104.4689998626709" y2="177.9749994277954" fill="rgb(0, 0, 0)" stroke="rgb(60, 60, 60)" stroke-width="1px" opacity="0.25"></line><line x1="139.29199981689453" y1="0" x2="139.29199981689453" y2="177.9749994277954" fill="rgb(0, 0, 0)" stroke="rgb(60, 60, 60)" stroke-width="1px" opacity="0.25"></line><line x1="174.11499977111816" y1="0" x2="174.11499977111816" y2="177.9749994277954" fill="rgb(0, 0, 0)" stroke="rgb(60, 60, 60)" stroke-width="1px" opacity="0.25"></line><line x1="208.9379997253418" y1="0" x2="208.9379997253418" y2="177.9749994277954" fill="rgb(0, 0, 0)" stroke="rgb(60, 60, 60)" stroke-width="1px" opacity="0.25"></line><line x1="243.76099967956543" y1="0" x2="243.76099967956543" y2="177.9749994277954" fill="rgb(0, 0, 0)" stroke="rgb(60, 60, 60)" stroke-width="1px" opacity="0.25"></line><line x1="278.58399963378906" y1="0" x2="278.58399963378906" y2="177.9749994277954" fill="rgb(0, 0, 0)" stroke="rgb(60, 60, 60)" stroke-width="1px" opacity="0.25"></line></g><g><line x1="0" y1="177.9749994277954" x2="278.58399963378906" y2="177.9749994277954" fill="rgb(0, 0, 0)" stroke="rgb(60, 60, 60)" stroke-width="1px" opacity="0.25"></line><line x1="0" y1="152.54999950953894" x2="278.58399963378906" y2="152.54999950953894" fill="rgb(0, 0, 0)" stroke="rgb(60, 60, 60)" stroke-width="1px" opacity="0.25"></line><line x1="0" y1="127.12499959128243" x2="278.58399963378906" y2="127.12499959128243" fill="rgb(0, 0, 0)" stroke="rgb(60, 60, 60)" stroke-width="1px" opacity="0.25"></line><line x1="0" y1="101.69999967302596" x2="278.58399963378906" y2="101.69999967302596" fill="rgb(0, 0, 0)" stroke="rgb(60, 60, 60)" stroke-width="1px" opacity="0.25"></line><line x1="0" y1="76.27499975476947" x2="278.58399963378906" y2="76.27499975476947" fill="rgb(0, 0, 0)" stroke="rgb(60, 60, 60)" stroke-width="1px" opacity="0.25"></line><line x1="0" y1="50.84999983651298" x2="278.58399963378906" y2="50.84999983651298" fill="rgb(0, 0, 0)" stroke="rgb(60, 60, 60)" stroke-width="1px" opacity="0.25"></line><line x1="0" y1="25.424999918256503" x2="278.58399963378906" y2="25.424999918256503" fill="rgb(0, 0, 0)" stroke="rgb(60, 60, 60)" stroke-width="1px" opacity="0.25"></line><line x1="0" y1="0" x2="278.58399963378906" y2="0" fill="rgb(0, 0, 0)" stroke="rgb(60, 60, 60)" stroke-width="1px" opacity="0.25"></line></g></g></g><g><g><line x1="0" y1="152.54999950953894" x2="278.58399963378906" y2="152.54999950953894" fill="rgb(0, 0, 0)" stroke="rgb(153, 153, 153)" stroke-width="1.5px"></line></g></g><g><g><line x1="34.82299995422363" y1="0" x2="34.82299995422363" y2="177.9749994277954" fill="rgb(0, 0, 0)" stroke="rgb(153, 153, 153)" stroke-width="1.5px"></line></g></g><g><g><g><g><g><path style="fill: none;" stroke="rgb(238, 51, 119)" stroke-width="2px" d="M39.69821994781494,-3.0957816024430542L40.39467994689941,1.5241043280237818L41.09113994598388,6.371465078373092L41.78759994506836,10.28997738629323L42.48405994415283,14.7395269516079L43.18051994323731,17.942602278719733L43.876979942321775,22.08371572546963L44.57343994140625,24.087526053232864L45.269899940490724,29.85237544713962L45.9663599395752,30.41843774075653L46.66281993865967,33.97597031398598L47.35927993774414,35.95595779779731L48.05573993682861,36.52810613093783L48.75219993591308,36.97584223780137L49.44865993499756,42.33270875910324L50.14511993408203,42.07556752743943L50.8415799331665,43.02120713468963L51.538039932250975,47.27727641164398L52.23449993133545,48.20519133805061L52.930959930419924,47.907387603275055L53.6274199295044,52.171555434814564L54.323879928588866,52.58558797618896L55.02033992767334,54.30268764918472L55.716799926757815,53.22765302234244L56.41325992584229,53.98332211900538L57.10971992492676,54.1309752571682L57.806179924011225,54.79182579782726L58.5026399230957,55.802659981846546L59.199099922180174,55.41513565843694L59.89555992126465,59.61947359944081L60.592019920349124,56.775917115062356L61.28847991943359,59.58706119572308L61.984939918518066,60.294254138929745L62.68139991760254,57.2914119368608L63.377859916687015,58.392021265645326L64.07431991577148,60.29059887814017L64.77077991485596,59.672871928288686L65.46723991394043,60.27137087279276L66.1636999130249,62.24187771336217L66.86015991210937,62.440934850688336L67.55661991119385,60.98212208811131L68.25307991027832,62.19136479767488L68.9495399093628,63.60716308170673L69.64599990844727,62.70661714777917L70.34245990753173,63.060680377393766L71.03891990661621,61.406447552903074L71.73537990570068,61.103642839435324L72.43183990478516,61.08802766233099L73.12829990386963,61.17328071L73.8247599029541,59.008226705615925L74.52121990203858,62.61391415730688L75.21767990112305,62.39429542031537L75.91413990020753,60.472392030841675L76.610599899292,56.69888385782558L77.30705989837647,63.082496768076425L78.00351989746095,62.74216349814401L78.6999798965454,62.14213698196669L79.39643989562988,63.78485240098446L80.09289989471435,63.03514810799801L80.78935989379882,63.57210167473022L81.4858198928833,63.82813966018557L82.18227989196777,62.71609172922874L82.87873989105225,60.719743467853505L83.57519989013672,59.72205124965805L84.27165988922118,60.40694285879373L84.96811988830567,61.109674322827715L85.66457988739013,62.697609324340874L86.36103988647461,66.63633770976217L87.05749988555908,61.064907986292184L87.75395988464355,61.80550140537032L88.45041988372803,61.395651500720305L89.1468798828125,61.06890270745359L89.84333988189698,59.07500341018944L90.53979988098145,55.80543628274475L91.23625988006592,60.52420217009275L91.9327198791504,61.76779099513503L92.62917987823486,61.36651246487382L93.32563987731935,62.224213650442124L94.02209987640381,61.61622193911141L94.71855987548828,62.99086671485081L95.41501987457276,58.88994295140904L96.11147987365722,60.886794341549674L96.8079398727417,64.28200423911919L97.50439987182617,62.7948586590788L98.20085987091063,63.0908984122793L98.89731986999512,60.58866933177933L99.59377986907958,64.81821220539184L100.29023986816406,63.10674393749309L100.98669986724853,65.39738009407847L101.683159866333,57.2770091182273L102.37961986541748,65.05399774259192L103.07607986450195,62.933079648338534L103.77253986358643,65.16257656723977L104.4689998626709,65.81960211692333L105.16545986175537,68.55771372330105L105.86191986083985,59.33041096923996L106.55837985992432,64.4043978885422L107.2548398590088,64.14339529514879L107.95129985809326,64.4949428809364L108.64775985717773,64.71946560794244L109.34421985626221,65.19533449312169L110.04067985534668,63.061916983034024L110.73713985443116,67.02906911280401L111.43359985351563,66.79689640384701L112.1300598526001,68.54666913763175L112.82651985168458,61.907218281073256L113.52297985076903,65.56912885684912L114.21943984985352,63.250790309205186L114.91589984893798,63.555904565559885L115.61235984802245,64.90319247240492L116.30881984710693,65.91716060307132L117.0052798461914,67.47282262209089L117.70173984527588,64.35430323652736L118.39819984436035,66.92049028815616L119.09465984344482,66.16213581748032L119.7911198425293,65.41408033201421L120.48757984161377,63.804304692648984L121.18403984069825,64.63243645511365L121.88049983978271,61.537430762091944L122.57695983886718,68.11300851261457L123.27341983795166,64.7492956881173L123.96987983703613,66.51795090508527L124.66633983612061,63.59580934462737L125.36279983520508,66.96902705953597L126.05925983428955,68.0313076752651L126.75571983337403,65.02150653557358L127.4521798324585,69.07362074697959L128.14863983154297,68.70450608694958L128.84509983062745,71.13403002995366L129.54155982971193,66.19025041041894L130.23801982879638,66.47976161325401L130.93447982788086,67.04539351961378L131.63093982696532,69.8237372418461L132.3273998260498,67.56008212302913L133.02385982513428,67.31614953690506L133.72031982421873,68.66106728293961L134.41677982330322,64.75325403852457L135.1132398223877,69.29849505794216L135.80969982147215,69.78740892026758L136.50615982055663,67.42780775206883L137.20261981964111,65.92116744781742L137.8990798187256,69.1102279110064L138.59553981781005,71.65370748847648L139.29199981689453,69.00190974342978L139.98845981597898,69.58750919380418L140.68491981506347,69.32865247490415L141.38137981414795,67.05391639966375L142.07783981323243,69.67327143203094L142.77429981231688,70.15418979024123L143.47075981140136,67.40616715336445L144.16721981048582,68.20731787806072L144.86367980957033,71.98686965805392L145.56013980865478,64.9897063728836L146.25659980773926,71.70574797583701L146.95305980682372,72.93738294635689L147.6495198059082,73.55813473059311L148.34597980499268,69.30282317768304L149.04243980407716,71.77211854032281L149.73889980316162,71.87830295699077L150.4353598022461,72.68796443815229L151.13181980133055,71.47954007055652L151.82827980041506,70.99864595951567L152.5247397994995,73.08121109354423L153.221199798584,76.12074532473295L153.91765979766845,76.166633092854L154.61411979675293,74.87421046860653L155.3105797958374,76.13398427923445L156.0070397949219,75.34997630331577L156.70349979400635,73.39122933991345L157.3999597930908,75.09546588953367L158.09641979217528,74.48315818204681L158.79287979125976,74.18769429911994L159.48933979034425,75.61953814751327L160.1857997894287,76.34380109798927L160.88225978851318,74.94701865657245L161.57871978759763,73.92209080532972L162.27517978668214,77.05398856661888L162.9716397857666,74.79000611101479L163.66809978485108,74.58587525348818L164.36455978393553,78.39736661739549L165.06101978302001,75.83575621899409L165.7574797821045,78.39769395418261L166.45393978118898,78.23601382851224L167.15039978027343,79.0303147278483L167.8468597793579,75.58593763249412L168.54331977844237,79.2245527402529L169.23977977752688,78.52613121058273L169.93623977661133,79.656346333225L170.6326997756958,78.65184672221582L171.32915977478027,77.95203704209653L172.02561977386475,80.45350839855223L172.72207977294923,79.08662271702617L173.4185397720337,79.96820130267754L174.11499977111816,79.32000778445399L174.81145977020262,80.21101245721609L175.5079197692871,79.70499221686721L176.20437976837158,80.52603774406985L176.90083976745606,80.80369814285253L177.59729976654052,81.98573552833058L178.293759765625,81.80493650957517L178.99021976470945,83.64001684716011L179.68667976379396,82.17415422007518L180.38313976287841,84.37003243858021L181.0795997619629,82.60836646819659L181.77605976104735,82.8062415560137L182.47251976013183,84.46306882763199L183.1689797592163,82.79145684446189L183.8654397583008,83.817075740033L184.56189975738525,85.02217218362632L185.25835975646973,84.52851799967993L185.95481975555418,86.46396343327284L186.6512797546387,85.64126303675751L187.34773975372315,86.36314976463066L188.04419975280763,86.23393659880922L188.74065975189208,85.30961025347627L189.43711975097656,87.0293710533155L190.13357975006105,85.53947948133866L190.83003974914553,87.35224636126792L191.52649974822998,87.7490997831106L192.22295974731443,87.98629165613683L192.91941974639892,88.14427408847116L193.6158797454834,88.50201682604474L194.31233974456788,88.78630882566287L195.00879974365233,89.56685551814732L195.7052597427368,89.98503432549195L196.40171974182127,90.29048804221848L197.09817974090578,90.70436297699166L197.79463973999023,91.36020041537381L198.4910997390747,92.18559224769439L199.18755973815917,92.95976193462226L199.88401973724365,94.012913491066L200.58047973632813,92.64753719583612L201.2769397354126,92.61625834728862L201.97339973449706,93.19474125343923L202.66985973358155,94.66711424551252L203.366319732666,93.48645288689886L204.0627797317505,95.4718353659054L204.75923973083496,95.1068184775068L205.45569972991944,96.1614854820391L206.1521597290039,96.30402852924736L206.84861972808838,96.02469507577494L207.54507972717286,96.84595276570998L208.24153972625734,96.9938847463211L208.9379997253418,96.72674155727292L209.63445972442625,98.64618992084317L210.33091972351073,98.91258144763944L211.0273797225952,97.87049266224204L211.7238397216797,99.21492546488827L212.42029972076415,99.02928307404187L213.11675971984863,100.86212661024814L213.81321971893308,99.67933756251816L214.5096797180176,100.04142054341732L215.20613971710205,101.18407446397035L215.90259971618653,101.58833539606982L216.59905971527098,102.31296508498325L217.29551971435546,101.91852728739372L217.99197971343995,103.18693309033395L218.68843971252443,102.65708697513702L219.38489971160888,103.42076976129216L220.08135971069336,103.6501055514274L220.77781970977782,103.69525378088125L221.47427970886233,104.78064497996064L222.17073970794678,105.51171835414654L222.86719970703126,105.28650761370831L223.56365970611571,105.7318735597614L224.2601197052002,106.63396828163545L224.95657970428468,106.45005350160999L225.65303970336916,106.80008867020524L226.3494997024536,107.2126694123108L227.04595970153807,107.27533319077202L227.74241970062255,107.47319615500442L228.43887969970703,107.77441267887538L229.1353396987915,107.89207206846979L229.83179969787597,108.45917092857927L230.52825969696045,108.43368715352234L231.2247196960449,108.8463618534094L231.9211796951294,109.15014554634234L232.61763969421386,109.31006775223001L233.31409969329835,109.65542018623168L234.0105596923828,109.85730818058724L234.70701969146728,109.92213298802272L235.40347969055176,110.36948720196796L236.09993968963624,110.21754231481839L236.7963996887207,110.4236553784448L237.49285968780518,110.79862572988894L238.18931968688963,110.69816364520331L238.88577968597414,110.9874596544098L239.5822396850586,110.89689344574236L240.27869968414308,111.0840240066117L240.97515968322753,110.67478634298946L241.671619682312,111.0340960538866L242.3680796813965,111.16836778542759L243.06453968048098,111.05309977291691" fill="none"></path></g><g><path style="fill: none;" stroke="rgb(204, 51, 17)" stroke-width="2px" d="M39.001759948730474,-5.696993690294221L39.69821994781494,0.4311267958131566L40.39467994689941,5.790672629335518L41.09113994598388,9.723587755889184L41.78759994506836,13.971776702783131L42.48405994415283,19.343894693648053L43.18051994323731,22.434475278251227L43.876979942321775,26.98385044005434L44.57343994140625,29.769050049439215L45.269899940490724,35.235574394428L45.9663599395752,35.70844269239194L46.66281993865967,38.46213310511985L47.35927993774414,40.559331405891385L48.05573993682861,41.87347949393617L48.75219993591308,42.536688071821004L49.44865993499756,47.314520063868L50.14511993408203,47.29816534809646L50.8415799331665,47.737245215478254L51.538039932250975,50.673759285607886L52.23449993133545,52.08678733053388L52.930959930419924,51.659988654461614L53.6274199295044,54.65495052647013L54.323879928588866,55.83336902191276L55.02033992767334,58.07643223210263L55.716799926757815,56.38726529827487L56.41325992584229,58.02408259333204L57.10971992492676,57.80391829502865L57.806179924011225,57.74870749026688L58.5026399230957,57.80210581911476L59.199099922180174,58.69893587432921L59.89555992126465,60.748585475874634L60.592019920349124,59.70452660796215L61.28847991943359,63.2899919203596L61.984939918518066,62.171075978665485L62.68139991760254,60.42783785703854L63.377859916687015,59.61712768579976L64.07431991577148,62.751147074412884L64.77077991485596,60.576078989059724L65.46723991394043,62.79838662222892L66.1636999130249,63.93517272778311L66.86015991210937,64.46111807960015L67.55661991119385,63.00972495086464L68.25307991027832,63.057734346309644L68.9495399093628,64.94647366981368L69.64599990844727,64.45794170040656L70.34245990753173,64.04664302738391L71.03891990661621,64.55348160970061L71.73537990570068,63.71578433890106L72.43183990478516,64.59151935672301L73.12829990386963,62.7611308464202L73.8247599029541,62.53773561279205L74.52121990203858,64.86080842026458L75.21767990112305,65.45135429319998L75.91413990020753,63.47161534287518L76.610599899292,59.03805072399844L77.30705989837647,65.65138737909517L78.00351989746095,64.51408602119088L78.6999798965454,64.16589666836747L79.39643989562988,66.32519197001508L80.09289989471435,65.2828788983006L80.78935989379882,66.30840686698639L81.4858198928833,67.94601219504959L82.18227989196777,66.66250040556277L82.87873989105225,64.02519034424252L83.57519989013672,61.11149286053397L84.27165988922118,62.69576653946521L84.96811988830567,62.17091837206428L85.66457988739013,66.54071293537517L86.36103988647461,68.92069991126098L87.05749988555908,63.29024045384611L87.75395988464355,62.63334826359434L88.45041988372803,64.1849367581519L89.1468798828125,64.45449254055704L89.84333988189698,63.18717786024055L90.53979988098145,57.827371369646926L91.23625988006592,63.323077183028644L91.9327198791504,65.93714633246302L92.62917987823486,64.23667415589473L93.32563987731935,64.22806641075181L94.02209987640381,64.21949503636301L94.71855987548828,65.17675509955617L95.41501987457276,61.76883968521231L96.11147987365722,63.28394831338248L96.8079398727417,65.30462860926734L97.50439987182617,65.22978972086278L98.20085987091063,65.87206692974867L98.89731986999512,63.884987148882956L99.59377986907958,68.78831036624595L100.29023986816406,66.52356412480523L100.98669986724853,67.39085506587783L101.683159866333,61.55738618252187L102.37961986541748,67.16701732140781L103.07607986450195,64.33686952171676L103.77253986358643,67.70826263712677L104.4689998626709,67.79981388705177L105.16545986175537,69.15603687582686L105.86191986083985,63.581115559960864L106.55837985992432,64.9167648254859L107.2548398590088,66.7424615085066L107.95129985809326,66.33203573358294L108.64775985717773,66.62591748870535L109.34421985626221,68.30791332217814L110.04067985534668,65.15847879560836L110.73713985443116,68.16935893433892L111.43359985351563,66.90803330486834L112.1300598526001,69.10402063563573L112.82651985168458,65.71124757859259L113.52297985076903,67.53346479280198L114.21943984985352,64.46113626497721L114.91589984893798,65.21627798570535L115.61235984802245,65.91440248755018L116.30881984710693,68.02277873342278L117.0052798461914,67.2250953539531L117.70173984527588,66.71343158492247L118.39819984436035,68.02199070041674L119.09465984344482,67.53545306069415L119.7911198425293,67.3739426652097L120.48757984161377,65.25323673368871L121.18403984069825,66.74881426689376L121.88049983978271,61.65825440729522L122.57695983886718,67.65163337295414L123.27341983795166,66.31536580460897L123.96987983703613,67.33400757718043L124.66633983612061,64.90239837760653L125.36279983520508,69.33132572533233L126.05925983428955,68.77783558905796L126.75571983337403,66.10473064388634L127.4521798324585,70.80446856503461L128.14863983154297,68.52531950496038L128.84509983062745,71.13810355441566L129.54155982971193,69.15621872959748L130.23801982879638,66.82961795897482L130.93447982788086,67.82406105646844L131.63093982696532,70.68783968014041L132.3273998260498,67.69375676802325L133.02385982513428,69.73278004757182L133.72031982421873,69.46950428204559L134.41677982330322,67.2594839019783L135.1132398223877,70.7427413334921L135.80969982147215,68.80827184846824L136.50615982055663,70.32744793930806L137.20261981964111,68.73576675012002L137.8990798187256,70.56857391557216L138.59553981781005,71.48593526149018L139.29199981689453,70.6166439289407L139.98845981597898,69.89474507748284L140.68491981506347,71.63980779860837L141.38137981414795,67.17707989671574L142.07783981323243,70.63607197343582L142.77429981231688,71.77707102467616L143.47075981140136,68.33213018263304L144.16721981048582,68.4050111121072L144.86367980957033,70.2247429914514L145.56013980865478,64.27095359165754L146.25659980773926,72.0548405357212L146.95305980682372,71.89660956990035L147.6495198059082,72.84514671389586L148.34597980499268,69.71467347380992L149.04243980407716,72.07032235339375L149.73889980316162,72.2703615010813L150.4353598022461,71.70337781502654L151.13181980133055,72.03725527610176L151.82827980041506,71.35341235704335L152.5247397994995,73.64724913999173L153.221199798584,75.04914773415547L153.91765979766845,74.67311656904937L154.61411979675293,72.99318780676936L155.3105797958374,74.69696972196301L156.0070397949219,74.25233119099244L156.70349979400635,73.04987162707319L157.3999597930908,73.95848580662414L158.09641979217528,72.472576832224L158.79287979125976,74.39303751511738L159.48933979034425,74.34754376349936L160.1857997894287,74.99408847420257L160.88225978851318,73.28716655056944L161.57871978759763,73.995299071591L162.27517978668214,75.85198969891856L162.9716397857666,73.56335393381005L163.66809978485108,72.52960011289964L164.36455978393553,77.10697469358668L165.06101978302001,74.4658335794986L165.7574797821045,76.05135598765479L166.45393978118898,75.46538676794678L167.15039978027343,76.16346277545277L167.8468597793579,73.77118854646505L168.54331977844237,77.05246099494563L169.23977977752688,75.86566510246955L169.93623977661133,76.03460119358786L170.6326997756958,75.37120470014007L171.32915977478027,74.55334161392337L172.02561977386475,76.52995874118577L172.72207977294923,76.47441453784452L173.4185397720337,75.92979886557666L174.11499977111816,76.10962193576304L174.81145977020262,76.37224302771503L175.5079197692871,76.25268023532142L176.20437976837158,77.38915718946555L176.90083976745606,77.6190203555356L177.59729976654052,78.2951526747195L178.293759765625,78.35406117281731L178.99021976470945,79.07439608184781L179.68667976379396,77.2718069512812L180.38313976287841,80.01605915331369L181.0795997619629,76.98356872484052L181.77605976104735,78.76169852325805L182.47251976013183,77.86912384627622L183.1689797592163,78.88657144575392L183.8654397583008,79.19412254263499L184.56189975738525,79.9893145254471L185.25835975646973,79.46703655800434L185.95481975555418,80.99002551623494L186.6512797546387,80.91719914289196L187.34773975372315,79.89736319722672L188.04419975280763,81.3249698527645L188.74065975189208,81.53396226775915L189.43711975097656,80.37885742571065L190.13357975006105,81.66471512883855L190.83003974914553,80.64966193734075L191.52649974822998,82.81458258229304L192.22295974731443,81.38395109237055L192.91941974639892,82.2348206379557L193.6158797454834,82.74793317535897L194.31233974456788,82.6234300221967L195.00879974365233,83.05511450290643L195.7052597427368,83.56365038708229L196.40171974182127,84.48421235936333L197.09817974090578,83.9132036431854L197.79463973999023,84.9962519595199L198.4910997390747,85.08006230060862L199.18755973815917,86.49306003657284L199.88401973724365,86.43012650835188L200.58047973632813,84.54370278952713L201.2769397354126,85.50531521963057L201.97339973449706,84.15942758681935L202.66985973358155,86.79547679532993L203.366319732666,85.72530978774805L204.0627797317505,86.44976065378702L204.75923973083496,86.58670260486004L205.45569972991944,86.41531754963064L206.1521597290039,86.13585073672643L206.84861972808838,86.6113862233262L207.54507972717286,87.02189686334282L208.24153972625734,87.61369752729554L208.9379997253418,86.63905830542298L209.63445972442625,88.00962349490803L210.33091972351073,88.28629582153697L211.0273797225952,87.15367416733008L211.7238397216797,87.94815692043676L212.42029972076415,88.62118560193532L213.11675971984863,88.94166044011548L213.81321971893308,88.3675905187987L214.5096797180176,87.9052454923616L215.20613971710205,89.1263086970158L215.90259971618653,89.40173835621214L216.59905971527098,89.70685867435918L217.29551971435546,89.48719144302885L217.99197971343995,90.37875380068752L218.68843971252443,89.70340345271731L219.38489971160888,89.3317246545215L220.08135971069336,89.4042964325856L220.77781970977782,89.98870170986623L221.47427970886233,90.93152258367175L222.17073970794678,90.57366467204344L222.86719970703126,91.57149631146305L223.56365970611571,91.02887496887969L224.2601197052002,91.85634599597776L224.95657970428468,91.89408671517481L225.65303970336916,90.58470319592038L226.3494997024536,91.97173221343934L227.04595970153807,92.34942430965049L227.74241970062255,91.91969172607881L228.43887969970703,92.20825728930663L229.1353396987915,91.91939469825346L229.83179969787597,92.26774165767807L230.52825969696045,92.29451659450643L231.2247196960449,92.17863937186416L231.9211796951294,92.27871350183912L232.61763969421386,92.5683035079748L233.31409969329835,92.67967075710557L234.0105596923828,92.49957490626323L234.70701969146728,92.91750518012135L235.40347969055176,92.73391773688303L236.09993968963624,92.20990609682696L236.7963996887207,93.03090312969078L237.49285968780518,92.7976574834871L238.18931968688963,92.89839234882866L238.88577968597414,92.99220464730178L239.5822396850586,92.90482391051643L240.27869968414308,92.95576721346086L240.97515968322753,93.18688517054824L241.671619682312,93.01009299653892L242.3680796813965,93.0214043010718L243.06453968048098,93.04427544362407" fill="none"></path></g></g></g></g></g><g><g opacity="0.734727"><span fill="rgb(0, 0, 0)" stroke="none" stroke-width="1px">Alt + Scroll to Zoom</span></g></g></g><g transform="translate(51, 177)" clip-path="url(#clip_1)"><clipPath id="clip_1"><rect width="278" height="22"></rect></clipPath><g><g><line x1="0" y1="0" x2="0" y2="5" style="visibility: inherit;" fill="rgb(0, 0, 0)" stroke="rgb(204, 204, 204)" stroke-width="1px"></line><line x1="34.82299995422363" y1="0" x2="34.82299995422363" y2="5" style="visibility: inherit;" fill="rgb(0, 0, 0)" stroke="rgb(204, 204, 204)" stroke-width="1px"></line><line x1="69.64599990844727" y1="0" x2="69.64599990844727" y2="5" style="visibility: inherit;" fill="rgb(0, 0, 0)" stroke="rgb(204, 204, 204)" stroke-width="1px"></line><line x1="104.4689998626709" y1="0" x2="104.4689998626709" y2="5" style="visibility: inherit;" fill="rgb(0, 0, 0)" stroke="rgb(204, 204, 204)" stroke-width="1px"></line><line x1="139.29199981689453" y1="0" x2="139.29199981689453" y2="5" style="visibility: inherit;" fill="rgb(0, 0, 0)" stroke="rgb(204, 204, 204)" stroke-width="1px"></line><line x1="174.11499977111816" y1="0" x2="174.11499977111816" y2="5" style="visibility: inherit;" fill="rgb(0, 0, 0)" stroke="rgb(204, 204, 204)" stroke-width="1px"></line><line x1="208.9379997253418" y1="0" x2="208.9379997253418" y2="5" style="visibility: inherit;" fill="rgb(0, 0, 0)" stroke="rgb(204, 204, 204)" stroke-width="1px"></line><line x1="243.76099967956543" y1="0" x2="243.76099967956543" y2="5" style="visibility: inherit;" fill="rgb(0, 0, 0)" stroke="rgb(204, 204, 204)" stroke-width="1px"></line><line x1="278.58399963378906" y1="0" x2="278.58399963378906" y2="5" style="visibility: inherit;" fill="rgb(0, 0, 0)" stroke="rgb(204, 204, 204)" stroke-width="1px"></line></g><g transform="translate(0, 8)"><text style="text-anchor: middle; visibility: hidden; font-family: &quot;Helvetica Neue&quot;, sans-serif; font-size: 12px; font-weight: 200;" x="0" y="0" dx="0em" dy="0.95em" fill="rgb(50, 49, 63)" stroke="none" stroke-width="1px">-50</text><text style="text-anchor: middle; visibility: inherit; font-family: &quot;Helvetica Neue&quot;, sans-serif; font-size: 12px; font-weight: 200;" x="34.82299995422363" y="0" dx="0em" dy="0.95em" fill="rgb(50, 49, 63)" stroke="none" stroke-width="1px">0</text><text style="text-anchor: middle; visibility: inherit; font-family: &quot;Helvetica Neue&quot;, sans-serif; font-size: 12px; font-weight: 200;" x="69.64599990844727" y="0" dx="0em" dy="0.95em" fill="rgb(50, 49, 63)" stroke="none" stroke-width="1px">50</text><text style="text-anchor: middle; visibility: inherit; font-family: &quot;Helvetica Neue&quot;, sans-serif; font-size: 12px; font-weight: 200;" x="104.4689998626709" y="0" dx="0em" dy="0.95em" fill="rgb(50, 49, 63)" stroke="none" stroke-width="1px">100</text><text style="text-anchor: middle; visibility: inherit; font-family: &quot;Helvetica Neue&quot;, sans-serif; font-size: 12px; font-weight: 200;" x="139.29199981689453" y="0" dx="0em" dy="0.95em" fill="rgb(50, 49, 63)" stroke="none" stroke-width="1px">150</text><text style="text-anchor: middle; visibility: inherit; font-family: &quot;Helvetica Neue&quot;, sans-serif; font-size: 12px; font-weight: 200;" x="174.11499977111816" y="0" dx="0em" dy="0.95em" fill="rgb(50, 49, 63)" stroke="none" stroke-width="1px">200</text><text style="text-anchor: middle; visibility: inherit; font-family: &quot;Helvetica Neue&quot;, sans-serif; font-size: 12px; font-weight: 200;" x="208.9379997253418" y="0" dx="0em" dy="0.95em" fill="rgb(50, 49, 63)" stroke="none" stroke-width="1px">250</text><text style="text-anchor: middle; visibility: inherit; font-family: &quot;Helvetica Neue&quot;, sans-serif; font-size: 12px; font-weight: 200;" x="243.76099967956543" y="0" dx="0em" dy="0.95em" fill="rgb(50, 49, 63)" stroke="none" stroke-width="1px">300</text><text style="text-anchor: middle; visibility: hidden; font-family: &quot;Helvetica Neue&quot;, sans-serif; font-size: 12px; font-weight: 200;" x="278.58399963378906" y="0" dx="0em" dy="0.95em" fill="rgb(50, 49, 63)" stroke="none" stroke-width="1px">350</text></g><line x1="0" y1="0" x2="278.58399963378906" y2="0" fill="rgb(0, 0, 0)" stroke="rgb(204, 204, 204)" stroke-width="1px"></line></g></g></g></g></svg>