<svg viewBox="0 0 330 200" xmlns="http://www.w3.org/2000/svg"><g><g><g><g><g><line x1="51.41600036621094" y1="177.9749994277954" x2="46.41600036621094" y2="177.9749994277954" style="visibility: inherit;" fill="rgb(0, 0, 0)" stroke="rgb(204, 204, 204)" stroke-width="1px"></line><line x1="51.41600036621094" y1="158.1999994913737" x2="46.41600036621094" y2="158.1999994913737" style="visibility: inherit;" fill="rgb(0, 0, 0)" stroke="rgb(204, 204, 204)" stroke-width="1px"></line><line x1="51.41600036621094" y1="138.42499955495197" x2="46.41600036621094" y2="138.42499955495197" style="visibility: inherit;" fill="rgb(0, 0, 0)" stroke="rgb(204, 204, 204)" stroke-width="1px"></line><line x1="51.41600036621094" y1="118.64999961853027" x2="46.41600036621094" y2="118.64999961853027" style="visibility: inherit;" fill="rgb(0, 0, 0)" stroke="rgb(204, 204, 204)" stroke-width="1px"></line><line x1="51.41600036621094" y1="98.87499968210855" x2="46.41600036621094" y2="98.87499968210855" style="visibility: inherit;" fill="rgb(0, 0, 0)" stroke="rgb(204, 204, 204)" stroke-width="1px"></line><line x1="51.41600036621094" y1="79.09999974568684" x2="46.41600036621094" y2="79.09999974568684" style="visibility: inherit;" fill="rgb(0, 0, 0)" stroke="rgb(204, 204, 204)" stroke-width="1px"></line><line x1="51.41600036621094" y1="59.32499980926514" x2="46.41600036621094" y2="59.32499980926514" style="visibility: inherit;" fill="rgb(0, 0, 0)" stroke="rgb(204, 204, 204)" stroke-width="1px"></line><line x1="51.41600036621094" y1="39.54999987284344" x2="46.41600036621094" y2="39.54999987284344" style="visibility: inherit;" fill="rgb(0, 0, 0)" stroke="rgb(204, 204, 204)" stroke-width="1px"></line><line x1="51.41600036621094" y1="19.77499993642172" x2="46.41600036621094" y2="19.77499993642172" style="visibility: inherit;" fill="rgb(0, 0, 0)" stroke="rgb(204, 204, 204)" stroke-width="1px"></line><line x1="51.41600036621094" y1="0" x2="46.41600036621094" y2="0" style="visibility: inherit;" fill="rgb(0, 0, 0)" stroke="rgb(204, 204, 204)" stroke-width="1px"></line></g><g transform="translate(41.41600036621094, 0)"><text style="text-anchor: end; visibility: hidden; font-family: &quot;Helvetica Neue&quot;, sans-serif; font-size: 12px; font-weight: 200;" x="0" y="177.9749994277954" dx="0em" dy="0.3em" fill="rgb(50, 49, 63)" stroke="none" stroke-width="1px">-0.1</text><text style="text-anchor: end; visibility: inherit; font-family: &quot;Helvetica Neue&quot;, sans-serif; font-size: 12px; font-weight: 200;" x="0" y="158.1999994913737" dx="0em" dy="0.3em" fill="rgb(50, 49, 63)" stroke="none" stroke-width="1px">0</text><text style="text-anchor: end; visibility: hidden; font-family: &quot;Helvetica Neue&quot;, sans-serif; font-size: 12px; font-weight: 200;" x="0" y="138.42499955495197" dx="0em" dy="0.3em" fill="rgb(50, 49, 63)" stroke="none" stroke-width="1px">0.1</text><text style="text-anchor: end; visibility: inherit; font-family: &quot;Helvetica Neue&quot;, sans-serif; font-size: 12px; font-weight: 200;" x="0" y="118.64999961853027" dx="0em" dy="0.3em" fill="rgb(50, 49, 63)" stroke="none" stroke-width="1px">0.2</text><text style="text-anchor: end; visibility: hidden; font-family: &quot;Helvetica Neue&quot;, sans-serif; font-size: 12px; font-weight: 200;" x="0" y="98.87499968210855" dx="0em" dy="0.3em" fill="rgb(50, 49, 63)" stroke="none" stroke-width="1px">0.3</text><text style="text-anchor: end; visibility: inherit; font-family: &quot;Helvetica Neue&quot;, sans-serif; font-size: 12px; font-weight: 200;" x="0" y="79.09999974568684" dx="0em" dy="0.3em" fill="rgb(50, 49, 63)" stroke="none" stroke-width="1px">0.4</text><text style="text-anchor: end; visibility: hidden; font-family: &quot;Helvetica Neue&quot;, sans-serif; font-size: 12px; font-weight: 200;" x="0" y="59.32499980926514" dx="0em" dy="0.3em" fill="rgb(50, 49, 63)" stroke="none" stroke-width="1px">0.5</text><text style="text-anchor: end; visibility: inherit; font-family: &quot;Helvetica Neue&quot;, sans-serif; font-size: 12px; font-weight: 200;" x="0" y="39.54999987284344" dx="0em" dy="0.3em" fill="rgb(50, 49, 63)" stroke="none" stroke-width="1px">0.6</text><text style="text-anchor: end; visibility: hidden; font-family: &quot;Helvetica Neue&quot;, sans-serif; font-size: 12px; font-weight: 200;" x="0" y="19.77499993642172" dx="0em" dy="0.3em" fill="rgb(50, 49, 63)" stroke="none" stroke-width="1px">0.7</text><text style="text-anchor: end; visibility: hidden; font-family: &quot;Helvetica Neue&quot;, sans-serif; font-size: 12px; font-weight: 200;" x="0" y="0" dx="0em" dy="0.3em" fill="rgb(50, 49, 63)" stroke="none" stroke-width="1px">0.8</text></g><line x1="51.41600036621094" y1="0" x2="51.41600036621094" y2="177.9749994277954" fill="rgb(0, 0, 0)" stroke="rgb(204, 204, 204)" stroke-width="1px"></line></g></g><g transform="translate(51, 0)" clip-path="url(#clip_0)"><clipPath id="clip_0"><rect width="278" height="177"></rect></clipPath><g><g><g><line x1="0" y1="0" x2="0" y2="177.9749994277954" fill="rgb(0, 0, 0)" stroke="rgb(60, 60, 60)" stroke-width="1px" opacity="0.25"></line><line x1="23.215333302815754" y1="0" x2="23.215333302815754" y2="177.9749994277954" fill="rgb(0, 0, 0)" stroke="rgb(60, 60, 60)" stroke-width="1px" opacity="0.25"></line><line x1="46.43066660563151" y1="0" x2="46.43066660563151" y2="177.9749994277954" fill="rgb(0, 0, 0)" stroke="rgb(60, 60, 60)" stroke-width="1px" opacity="0.25"></line><line x1="69.64599990844727" y1="0" x2="69.64599990844727" y2="177.9749994277954" fill="rgb(0, 0, 0)" stroke="rgb(60, 60, 60)" stroke-width="1px" opacity="0.25"></line><line x1="92.86133321126302" y1="0" x2="92.86133321126302" y2="177.9749994277954" fill="rgb(0, 0, 0)" stroke="rgb(60, 60, 60)" stroke-width="1px" opacity="0.25"></line><line x1="116.07666651407878" y1="0" x2="116.07666651407878" y2="177.9749994277954" fill="rgb(0, 0, 0)" stroke="rgb(60, 60, 60)" stroke-width="1px" opacity="0.25"></line><line x1="139.29199981689453" y1="0" x2="139.29199981689453" y2="177.9749994277954" fill="rgb(0, 0, 0)" stroke="rgb(60, 60, 60)" stroke-width="1px" opacity="0.25"></line><line x1="162.5073331197103" y1="0" x2="162.5073331197103" y2="177.9749994277954" fill="rgb(0, 0, 0)" stroke="rgb(60, 60, 60)" stroke-width="1px" opacity="0.25"></line><line x1="185.72266642252603" y1="0" x2="185.72266642252603" y2="177.9749994277954" fill="rgb(0, 0, 0)" stroke="rgb(60, 60, 60)" stroke-width="1px" opacity="0.25"></line><line x1="208.9379997253418" y1="0" x2="208.9379997253418" y2="177.9749994277954" fill="rgb(0, 0, 0)" stroke="rgb(60, 60, 60)" stroke-width="1px" opacity="0.25"></line><line x1="232.15333302815756" y1="0" x2="232.15333302815756" y2="177.9749994277954" fill="rgb(0, 0, 0)" stroke="rgb(60, 60, 60)" stroke-width="1px" opacity="0.25"></line><line x1="255.3686663309733" y1="0" x2="255.3686663309733" y2="177.9749994277954" fill="rgb(0, 0, 0)" stroke="rgb(60, 60, 60)" stroke-width="1px" opacity="0.25"></line><line x1="278.58399963378906" y1="0" x2="278.58399963378906" y2="177.9749994277954" fill="rgb(0, 0, 0)" stroke="rgb(60, 60, 60)" stroke-width="1px" opacity="0.25"></line></g><g><line x1="0" y1="177.9749994277954" x2="278.58399963378906" y2="177.9749994277954" fill="rgb(0, 0, 0)" stroke="rgb(60, 60, 60)" stroke-width="1px" opacity="0.25"></line><line x1="0" y1="158.1999994913737" x2="278.58399963378906" y2="158.1999994913737" fill="rgb(0, 0, 0)" stroke="rgb(60, 60, 60)" stroke-width="1px" opacity="0.25"></line><line x1="0" y1="138.42499955495197" x2="278.58399963378906" y2="138.42499955495197" fill="rgb(0, 0, 0)" stroke="rgb(60, 60, 60)" stroke-width="1px" opacity="0.25"></line><line x1="0" y1="118.64999961853027" x2="278.58399963378906" y2="118.64999961853027" fill="rgb(0, 0, 0)" stroke="rgb(60, 60, 60)" stroke-width="1px" opacity="0.25"></line><line x1="0" y1="98.87499968210855" x2="278.58399963378906" y2="98.87499968210855" fill="rgb(0, 0, 0)" stroke="rgb(60, 60, 60)" stroke-width="1px" opacity="0.25"></line><line x1="0" y1="79.09999974568684" x2="278.58399963378906" y2="79.09999974568684" fill="rgb(0, 0, 0)" stroke="rgb(60, 60, 60)" stroke-width="1px" opacity="0.25"></line><line x1="0" y1="59.32499980926514" x2="278.58399963378906" y2="59.32499980926514" fill="rgb(0, 0, 0)" stroke="rgb(60, 60, 60)" stroke-width="1px" opacity="0.25"></line><line x1="0" y1="39.54999987284344" x2="278.58399963378906" y2="39.54999987284344" fill="rgb(0, 0, 0)" stroke="rgb(60, 60, 60)" stroke-width="1px" opacity="0.25"></line><line x1="0" y1="19.77499993642172" x2="278.58399963378906" y2="19.77499993642172" fill="rgb(0, 0, 0)" stroke="rgb(60, 60, 60)" stroke-width="1px" opacity="0.25"></line><line x1="0" y1="0" x2="278.58399963378906" y2="0" fill="rgb(0, 0, 0)" stroke="rgb(60, 60, 60)" stroke-width="1px" opacity="0.25"></line></g></g></g><g><g><line x1="0" y1="158.1999994913737" x2="278.58399963378906" y2="158.1999994913737" fill="rgb(0, 0, 0)" stroke="rgb(153, 153, 153)" stroke-width="1.5px"></line></g></g><g><g><line x1="23.215333302815754" y1="0" x2="23.215333302815754" y2="177.9749994277954" fill="rgb(0, 0, 0)" stroke="rgb(153, 153, 153)" stroke-width="1.5px"></line></g></g><g><g><g><g><g><path style="fill: none;" stroke="rgb(51, 187, 238)" stroke-width="2px" d="M23.215333302815754,156.2224995419321L24.37609996795654,143.45971519458354L25.53686663309733,137.2187244716078L26.69763329823812,132.55973547620812L27.858399963378908,127.06623826003235L29.019166628519695,123.32085587743242L30.179933293660483,119.99074373633744L31.34069995880127,116.11088848855854L32.50146662394206,114.51307032395283L33.66223328908285,111.044533786788L34.82299995422363,112.85988063289643L35.983766619364424,105.57081190529428L37.14453328450521,105.58663570908547L38.305299949646,104.48714360230845L39.46606661478678,100.48468186884166L40.626833279927574,101.48530024891298L41.78759994506836,96.06299246956985L42.94836661020915,96.67997348219555L44.10913327534993,96.8144434006699L45.269899940490724,91.67689926206668L46.43066660563151,91.44751009448211L47.5914332707723,89.91297241151808L48.75219993591308,84.34433128091415L49.912966601053874,87.77727162631035L51.07373326619466,85.7443990454038L52.23449993133545,85.92237411083778L53.39526659647624,91.64525754789354L54.556033261617024,91.89047051926931L55.716799926757815,85.53478226579666L56.8775665918986,80.29836440048774L58.03833325703939,78.8271042524608L59.199099922180174,79.03672103206793L60.359866587320965,77.8344007209897L61.52063325246175,86.50771340929032L62.68139991760254,75.20432540884416L63.842166582743324,78.20616876223963L65.00293324788412,75.02635034341019L66.1636999130249,73.06862462363641L67.3244665781657,74.55174820444982L68.48523324330647,78.41183106425127L69.64599990844727,78.49488688057502L70.80676657358805,84.22172479522627L71.96753323872885,79.20283266471544L73.12829990386963,76.66372212408463L74.28906656901042,71.48662731611729L75.4498332341512,71.99681975343705L76.610599899292,75.47721972338836L77.77136656443278,79.95427770240626L78.93213322957357,77.58918774961393L80.09289989471435,83.53751177006801L81.25366655985515,73.7370197384127L82.41443322499593,80.51589013528586L83.57519989013672,72.85109888883831L84.7359665552775,71.42334388777098L85.8967332204183,67.72146370542606L87.05749988555908,75.85690261323849L88.21826655069987,70.18147290732861L89.37903321584066,74.31049560407877L90.53979988098145,73.85962622410058L91.70056654612223,70.44250378908635L92.86133321126302,66.6654826390179L94.02209987640381,72.4635070437972L95.1828665415446,73.55904467297871L96.34363320668538,65.86261760576726L97.50439987182617,66.72480569635947L98.66516653696696,74.40936933078449L99.82593320210775,73.20704901970626L100.98669986724853,69.30346690635443L102.14746653238932,67.37737700734458L103.30823319753011,80.20344515137752L104.4689998626709,71.70414715750617L105.62976652781168,68.38194986501138L106.79053319295248,61.10079598600943L107.95129985809326,64.92528265404225L109.11206652323405,65.31682308326961L110.27283318837483,62.66697538314661L111.43359985351563,66.76040188812811L112.59436651865641,68.94356229789098L113.7551331837972,64.60887729912918L114.91589984893798,66.02476886741003L116.07666651407878,69.50912331495682L117.23743317921956,67.35760461936712L118.39819984436035,64.46254394786835L119.55896650950113,68.18420241159995L120.71973317464193,69.10571355953377L121.88049983978271,66.33325937372287L123.0412665049235,64.13823553117355L124.2020331700643,73.95454547321081L125.36279983520508,67.7610143747902L126.52356650034586,65.69650597311973L127.68433316548665,64.96482742999714L128.84509983062745,60.35725401010038L130.00586649576823,60.942593308552915L131.16663316090902,63.327461542731925L132.3273998260498,67.2073167905108L133.4881664911906,62.3426669664518L134.6489331563314,66.5468306309255L135.80969982147215,62.51272718328558L136.97046648661293,63.85347189043364L138.13123315175375,67.46834767226855L139.29199981689453,69.87693687861126L140.45276648203532,60.226738569221496L141.6135331471761,56.35084369244733L142.77429981231688,64.45858947027286L143.9350664774577,65.85470275716703L145.09583314259848,60.37307192048233L146.25659980773926,60.717158618563815L147.41736647288005,64.52186700520993L148.57813313802083,64.7670799765857L149.73889980316162,63.497527652974924L150.8996664683024,66.94233143115758L152.06043313344318,62.26356562772354L153.221199798584,58.24528009046557L154.38196646372478,65.70441492831071L155.54273312886556,61.47256402725935L156.70349979400635,68.8684154367582L157.86426645914713,61.239220382079296L159.02503312428792,54.69369952379543L160.1857997894287,62.72629844048819L161.3465664545695,58.20177494350594L162.5073331197103,67.42879700290442L163.66809978485108,56.24801548814614L164.82886644999186,69.19272385345302L165.98963311513265,55.15642644315085L167.15039978027343,52.45517053428648L168.31116644541422,60.09622312834264L169.471933110555,58.5695944005696L170.6326997756958,56.940137468495365L171.7934664408366,52.78738201276303L172.95423310597738,52.98118088198821L174.11499977111816,56.35084369244733L175.27576643625895,54.654142961022075L176.43653310139973,58.739654617403374L177.59729976654052,53.35690929424284L178.75806643168133,56.44971152574381L179.9188330968221,59.68490441772859L181.0795997619629,49.94768992101035L182.24036642710368,55.31068053642113L183.40113309224446,58.74361498840808L184.56189975738525,53.42808989096166L185.72266642252603,51.438734243833224L186.88343308766682,52.94558469021956L188.04419975280763,55.69035753286202L189.2049664179484,52.92185782464664L190.3657330830892,51.85795601622901L191.52649974822998,53.44391958816209L192.68726641337076,58.162230167551044L193.84803307851155,52.50658463643708L195.00879974365233,55.66267029628436L196.16956640879314,46.66899777547519L197.33033307393393,50.58444921502273L198.4910997390747,59.04815101712545L199.6518664042155,51.3833597706779L200.81263306935628,48.47643566639266L201.97339973449706,50.70705570071061L203.13416639963785,47.48372624151233L204.29493306477863,46.522664424214355L205.45569972991944,43.24397227867922L206.61646639506023,56.27174235371908L207.777233060201,47.230604314945566L208.9379997253418,47.00912999596119L210.09876639048258,48.579263870693836L211.25953305562336,42.76145529111864L212.42029972076415,43.08972997222742L213.58106638590496,46.107391236004815L214.74183305104575,43.4496286872816L215.90259971618653,42.03373711900076L217.0633663813273,42.239405314421646L218.2241330464681,38.399094842597634L219.38489971160888,41.041039480938906L220.54566637674967,37.35893168657145L221.70643304189045,35.63059513438225L222.86719970703126,36.172435179284406L224.02796637217205,35.85999019537607L225.18873303731283,36.72217239255906L226.3494997024536,36.219888910430285L227.5102663675944,35.14016919163069L228.67103303273518,31.984083531783426L229.83179969787597,34.75258323999884L230.99256636301678,37.596235702756246L232.15333302815756,30.520738232356706L233.31409969329835,38.399094842597634L234.47486635843913,30.315070036935822L235.6356330235799,29.326320983060214L236.7963996887207,28.748896533207898L237.95716635386148,29.278867251914335L239.11793301900227,26.60132642180446L240.27869968414308,26.454993070543622L241.43946634928386,24.944182253152547L242.60023301442465,26.280972482705124L243.76099967956543,25.035152918076506L244.9217663447062,25.640264604506484L246.082533009847,22.69379572426635L247.24329967498778,23.619261349795664L248.4040663401286,21.689216973190327L249.56483300526938,24.271838554189998L250.72559967041016,22.994371381978993L251.88636633555095,23.235623982350035L253.04713300069173,24.050352448387173L254.2078996658325,22.745209826416954" fill="none"></path></g><g><path style="fill: none;" stroke="rgb(0, 119, 187)" stroke-width="2px" d="M23.215333302815754,156.2224995419321L24.37609996795654,143.23032455364665L25.53686663309733,136.9418742061158L26.69763329823812,131.404874789685L27.858399963378908,126.79729842308363L29.019166628519695,122.34792473393878L30.179933293660483,119.5596496910413L31.34069995880127,115.82217331692776L32.50146662394206,114.57635080559453L33.66223328908285,110.20607550847332L34.82299995422363,111.6496484199226L35.983766619364424,106.48837446904183L37.14453328450521,105.63804981123606L38.305299949646,103.38369701793593L39.46606661478678,101.86102276775837L40.626833279927574,101.42597719157139L41.78759994506836,96.4228970780333L42.94836661020915,97.29300001722574L44.10913327534993,94.97932416658402L45.269899940490724,93.10069978553852L46.43066660563151,91.45937352726857L47.5914332707723,89.65985048495133L48.75219993591308,85.34889824517171L49.912966601053874,87.93942288795314L51.07373326619466,86.79247705003023L52.23449993133545,86.67382504193783L53.39526659647624,90.8858976616025L54.556033261617024,94.18832256611984L55.716799926757815,85.82350038413207L56.8775665918986,81.3741237482826L58.03833325703939,79.9898738941749L59.199099922180174,79.55482242457867L60.359866587320965,80.22717201695046L61.52063325246175,86.29810252309242L62.68139991760254,75.93599805855753L63.842166582743324,78.2299015212218L65.00293324788412,76.43037258549532L66.1636999130249,75.77780127451022L67.3244665781657,75.63937687844037L68.48523324330647,80.08874762088061L69.64599990844727,77.73552699428399L70.80676657358805,84.4788011993885L71.96753323872885,79.67347443267107L73.12829990386963,75.93599805855753L74.28906656901042,72.9697508969307L75.4498332341512,73.32570102779866L76.610599899292,73.89917689346473L77.77136656443278,80.82042616400321L78.93213322957357,77.65642565555574L80.09289989471435,82.32332213279408L81.25366655985515,74.39355142040253L82.41443322499593,81.78939693649214L83.57519989013672,74.8483752779762L84.7359665552775,73.40480236652691L85.8967332204183,70.24080185807944L87.05749988555908,78.62540232145389L88.21826655069987,73.62232220791579L89.37903321584066,74.51219753508569L90.53979988098145,75.85690261323849L91.70056654612223,71.42729836536647L92.86133321126302,67.828252280732L94.02209987640381,72.15897690848907L95.1828665415446,74.43310208976665L96.34363320668538,67.07680134963195L97.50439987182617,68.52037426108123L98.66516653696696,74.27489941231013L99.82593320210775,74.19579807358186L100.98669986724853,70.61652437692484L102.14746653238932,69.7068766617775L103.30823319753011,81.13682562550704L104.4689998626709,73.04885223565896L105.62976652781168,70.33967558478516L106.79053319295248,63.53707242892982L107.95129985809326,67.17567507633765L109.11206652323405,65.05975257251659L110.27283318837483,65.02020190315247L111.43359985351563,68.5796973184228L112.59436651865641,69.0938501267473L113.7551331837972,67.57117587656974L114.91589984893798,67.57117587656974L116.07666651407878,70.8538224997004L117.23743317921956,68.79722305322092L118.39819984436035,65.0992973484715L119.55896650950113,69.4695726455927L120.71973317464193,70.00349784189464L121.88049983978271,68.73789999587935L123.0412665049235,64.30830164141655L124.2020331700643,73.72120182803074L125.36279983520508,70.9724745077928L126.52356650034586,67.37342252974909L127.68433316548665,68.44127292235297L128.84509983062745,61.421149925108764L130.00586649576823,64.40717536812227L131.16663316090902,66.2066984104395L132.3273998260498,68.79722305322092L133.4881664911906,64.38739708673559L134.6489331563314,68.61924798778695L135.80969982147215,63.53707242892982L136.97046648661293,66.68130054939986L138.13123315175375,67.03725068026782L139.29199981689453,72.25785063519477L140.45276648203532,64.58515043355624L141.6135331471761,59.30522152787846L142.77429981231688,69.29159758015872L143.9350664774577,65.61345015679598L145.09583314259848,62.785627391239004L146.25659980773926,63.181122298061865L147.41736647288005,68.79722305322092L148.57813313802083,65.47502576072614L149.73889980316162,65.00042362176578L150.8996664683024,69.78597210709653L152.06043313344318,65.92984961829981L153.221199798584,63.4381987022241L154.38196646372478,67.828252280732L155.54273312886556,65.85074827957153L156.70349979400635,70.73517638501724L157.86426645914713,63.8336995024562L159.02503312428792,57.90119928579331L160.1857997894287,65.31682308326961L161.3465664545695,61.24317485967478L162.5073331197103,70.67584743426643L163.66809978485108,58.67242260487082L164.82886644999186,74.31445008167425L165.98963311513265,58.138503301978105L167.15039978027343,57.78255317111015L168.31116644541422,63.12179924072028L169.471933110555,61.79687244395416L170.6326997756958,60.37307192048233L171.7934664408366,57.03109634660086L172.95423310597738,57.110197685329126L174.11499977111816,59.76005127886137L175.27576643625895,58.75152394359907L176.43653310139973,60.887224728806814L177.59729976654052,58.00007890590827L178.75806643168133,59.28545503331024L179.9188330968221,62.785627391239004L181.0795997619629,54.57900199329853L182.24036642710368,58.03962368186316L183.40113309224446,60.80812339007855L184.56189975738525,58.43513037550447L185.72266642252603,54.28237491977215L186.88343308766682,58.850403563714025L188.04419975280763,58.43513037550447L189.2049664179484,57.96052234313488L190.3657330830892,55.765498500585565L191.52649974822998,58.00007890590827L192.68726641337076,61.500251263837015L193.84803307851155,56.77402583584785L195.00879974365233,57.78255317111015L196.16956640879314,51.375450815486914L197.33033307393393,54.71742638936837L198.4910997390747,61.85620139470497L199.6518664042155,54.954730405553164L200.81263306935628,52.9178974536419L201.97339973449706,55.923701178042094L203.13416639963785,53.05632184971175L204.29493306477863,51.31612775814533L205.45569972991944,48.72559722195467L206.61646639506023,60.7290220513503L207.777233060201,53.254069303123174L208.9379997253418,51.67207788901328L210.09876639048258,54.22305186243058L211.25953305562336,49.378174426349005L212.42029972076415,49.73412455721697L213.58106638590496,54.1439505237023L214.74183305104575,49.31885136900743L215.90259971618653,47.9345956214905L217.0633663813273,48.3894253724734L218.2241330464681,44.79037928783893L219.38489971160888,48.3894253724734L220.54566637674967,44.79037928783893L221.70643304189045,44.078479026103L222.86719970703126,44.92880368390877L224.02796637217205,44.81014578240715L225.18873303731283,46.47125032206375L226.3494997024536,44.276226479514435L227.5102663675944,43.742295389803274L228.67103303273518,41.60659460459553L229.83179969787597,42.95130557615755L230.99256636301678,46.03619885246755L232.15333302815756,41.112220077657724L233.31409969329835,46.51079509801866L234.47486635843913,41.033130525747936L235.6356330235799,37.75047800920805L236.7963996887207,39.11495547533829L237.95716635386148,39.5895517208894L239.11793301900227,38.8776514591535L240.27869968414308,38.699670500310276L241.43946634928386,36.56396971510253L242.60023301442465,38.46237827094396L243.76099967956543,36.99902118469876L244.9217663447062,36.8605967886289L246.082533009847,35.179725754404075L247.24329967498778,36.801273731287324L248.4040663401286,35.47635282793044L249.56483300526938,36.821052012674016L250.72559967041016,35.93117079209489L251.88636633555095,36.68262761660418L253.04713300069173,36.84083029406071L254.2078996658325,35.852069453366624" fill="none"></path></g></g></g></g></g></g><g transform="translate(51, 177)" clip-path="url(#clip_1)"><clipPath id="clip_1"><rect width="278" height="22"></rect></clipPath><g><g><line x1="0" y1="0" x2="0" y2="5" style="visibility: inherit;" fill="rgb(0, 0, 0)" stroke="rgb(204, 204, 204)" stroke-width="1px"></line><line x1="23.215333302815754" y1="0" x2="23.215333302815754" y2="5" style="visibility: inherit;" fill="rgb(0, 0, 0)" stroke="rgb(204, 204, 204)" stroke-width="1px"></line><line x1="46.43066660563151" y1="0" x2="46.43066660563151" y2="5" style="visibility: inherit;" fill="rgb(0, 0, 0)" stroke="rgb(204, 204, 204)" stroke-width="1px"></line><line x1="69.64599990844727" y1="0" x2="69.64599990844727" y2="5" style="visibility: inherit;" fill="rgb(0, 0, 0)" stroke="rgb(204, 204, 204)" stroke-width="1px"></line><line x1="92.86133321126302" y1="0" x2="92.86133321126302" y2="5" style="visibility: inherit;" fill="rgb(0, 0, 0)" stroke="rgb(204, 204, 204)" stroke-width="1px"></line><line x1="116.07666651407878" y1="0" x2="116.07666651407878" y2="5" style="visibility: inherit;" fill="rgb(0, 0, 0)" stroke="rgb(204, 204, 204)" stroke-width="1px"></line><line x1="139.29199981689453" y1="0" x2="139.29199981689453" y2="5" style="visibility: inherit;" fill="rgb(0, 0, 0)" stroke="rgb(204, 204, 204)" stroke-width="1px"></line><line x1="162.5073331197103" y1="0" x2="162.5073331197103" y2="5" style="visibility: inherit;" fill="rgb(0, 0, 0)" stroke="rgb(204, 204, 204)" stroke-width="1px"></line><line x1="185.72266642252603" y1="0" x2="185.72266642252603" y2="5" style="visibility: inherit;" fill="rgb(0, 0, 0)" stroke="rgb(204, 204, 204)" stroke-width="1px"></line><line x1="208.9379997253418" y1="0" x2="208.9379997253418" y2="5" style="visibility: inherit;" fill="rgb(0, 0, 0)" stroke="rgb(204, 204, 204)" stroke-width="1px"></line><line x1="232.15333302815756" y1="0" x2="232.15333302815756" y2="5" style="visibility: inherit;" fill="rgb(0, 0, 0)" stroke="rgb(204, 204, 204)" stroke-width="1px"></line><line x1="255.3686663309733" y1="0" x2="255.3686663309733" y2="5" style="visibility: inherit;" fill="rgb(0, 0, 0)" stroke="rgb(204, 204, 204)" stroke-width="1px"></line><line x1="278.58399963378906" y1="0" x2="278.58399963378906" y2="5" style="visibility: inherit;" fill="rgb(0, 0, 0)" stroke="rgb(204, 204, 204)" stroke-width="1px"></line></g><g transform="translate(0, 8)"><text style="text-anchor: middle; visibility: hidden; font-family: &quot;Helvetica Neue&quot;, sans-serif; font-size: 12px; font-weight: 200;" x="0" y="0" dx="0em" dy="0.95em" fill="rgb(50, 49, 63)" stroke="none" stroke-width="1px">-20</text><text style="text-anchor: middle; visibility: inherit; font-family: &quot;Helvetica Neue&quot;, sans-serif; font-size: 12px; font-weight: 200;" x="23.215333302815754" y="0" dx="0em" dy="0.95em" fill="rgb(50, 49, 63)" stroke="none" stroke-width="1px">0</text><text style="text-anchor: middle; visibility: hidden; font-family: &quot;Helvetica Neue&quot;, sans-serif; font-size: 12px; font-weight: 200;" x="46.43066660563151" y="0" dx="0em" dy="0.95em" fill="rgb(50, 49, 63)" stroke="none" stroke-width="1px">20</text><text style="text-anchor: middle; visibility: inherit; font-family: &quot;Helvetica Neue&quot;, sans-serif; font-size: 12px; font-weight: 200;" x="69.64599990844727" y="0" dx="0em" dy="0.95em" fill="rgb(50, 49, 63)" stroke="none" stroke-width="1px">40</text><text style="text-anchor: middle; visibility: hidden; font-family: &quot;Helvetica Neue&quot;, sans-serif; font-size: 12px; font-weight: 200;" x="92.86133321126302" y="0" dx="0em" dy="0.95em" fill="rgb(50, 49, 63)" stroke="none" stroke-width="1px">60</text><text style="text-anchor: middle; visibility: inherit; font-family: &quot;Helvetica Neue&quot;, sans-serif; font-size: 12px; font-weight: 200;" x="116.07666651407878" y="0" dx="0em" dy="0.95em" fill="rgb(50, 49, 63)" stroke="none" stroke-width="1px">80</text><text style="text-anchor: middle; visibility: hidden; font-family: &quot;Helvetica Neue&quot;, sans-serif; font-size: 12px; font-weight: 200;" x="139.29199981689453" y="0" dx="0em" dy="0.95em" fill="rgb(50, 49, 63)" stroke="none" stroke-width="1px">100</text><text style="text-anchor: middle; visibility: inherit; font-family: &quot;Helvetica Neue&quot;, sans-serif; font-size: 12px; font-weight: 200;" x="162.5073331197103" y="0" dx="0em" dy="0.95em" fill="rgb(50, 49, 63)" stroke="none" stroke-width="1px">120</text><text style="text-anchor: middle; visibility: hidden; font-family: &quot;Helvetica Neue&quot;, sans-serif; font-size: 12px; font-weight: 200;" x="185.72266642252603" y="0" dx="0em" dy="0.95em" fill="rgb(50, 49, 63)" stroke="none" stroke-width="1px">140</text><text style="text-anchor: middle; visibility: inherit; font-family: &quot;Helvetica Neue&quot;, sans-serif; font-size: 12px; font-weight: 200;" x="208.9379997253418" y="0" dx="0em" dy="0.95em" fill="rgb(50, 49, 63)" stroke="none" stroke-width="1px">160</text><text style="text-anchor: middle; visibility: hidden; font-family: &quot;Helvetica Neue&quot;, sans-serif; font-size: 12px; font-weight: 200;" x="232.15333302815756" y="0" dx="0em" dy="0.95em" fill="rgb(50, 49, 63)" stroke="none" stroke-width="1px">180</text><text style="text-anchor: middle; visibility: inherit; font-family: &quot;Helvetica Neue&quot;, sans-serif; font-size: 12px; font-weight: 200;" x="255.3686663309733" y="0" dx="0em" dy="0.95em" fill="rgb(50, 49, 63)" stroke="none" stroke-width="1px">200</text><text style="text-anchor: middle; visibility: hidden; font-family: &quot;Helvetica Neue&quot;, sans-serif; font-size: 12px; font-weight: 200;" x="278.58399963378906" y="0" dx="0em" dy="0.95em" fill="rgb(50, 49, 63)" stroke="none" stroke-width="1px">220</text></g><line x1="0" y1="0" x2="278.58399963378906" y2="0" fill="rgb(0, 0, 0)" stroke="rgb(204, 204, 204)" stroke-width="1px"></line></g></g></g></g></svg>