<svg viewBox="0 0 330 200" xmlns="http://www.w3.org/2000/svg"><g><g><g><g><g><line x1="51.41600036621094" y1="177.9749994277954" x2="46.41600036621094" y2="177.9749994277954" style="visibility: inherit;" fill="rgb(0, 0, 0)" stroke="rgb(204, 204, 204)" stroke-width="1px"></line><line x1="51.41600036621094" y1="160.17749948501586" x2="46.41600036621094" y2="160.17749948501586" style="visibility: inherit;" fill="rgb(0, 0, 0)" stroke="rgb(204, 204, 204)" stroke-width="1px"></line><line x1="51.41600036621094" y1="142.37999954223633" x2="46.41600036621094" y2="142.37999954223633" style="visibility: inherit;" fill="rgb(0, 0, 0)" stroke="rgb(204, 204, 204)" stroke-width="1px"></line><line x1="51.41600036621094" y1="124.58249959945678" x2="46.41600036621094" y2="124.58249959945678" style="visibility: inherit;" fill="rgb(0, 0, 0)" stroke="rgb(204, 204, 204)" stroke-width="1px"></line><line x1="51.41600036621094" y1="106.78499965667724" x2="46.41600036621094" y2="106.78499965667724" style="visibility: inherit;" fill="rgb(0, 0, 0)" stroke="rgb(204, 204, 204)" stroke-width="1px"></line><line x1="51.41600036621094" y1="88.9874997138977" x2="46.41600036621094" y2="88.9874997138977" style="visibility: inherit;" fill="rgb(0, 0, 0)" stroke="rgb(204, 204, 204)" stroke-width="1px"></line><line x1="51.41600036621094" y1="71.18999977111817" x2="46.41600036621094" y2="71.18999977111817" style="visibility: inherit;" fill="rgb(0, 0, 0)" stroke="rgb(204, 204, 204)" stroke-width="1px"></line><line x1="51.41600036621094" y1="53.39249982833863" x2="46.41600036621094" y2="53.39249982833863" style="visibility: inherit;" fill="rgb(0, 0, 0)" stroke="rgb(204, 204, 204)" stroke-width="1px"></line><line x1="51.41600036621094" y1="35.594999885559076" x2="46.41600036621094" y2="35.594999885559076" style="visibility: inherit;" fill="rgb(0, 0, 0)" stroke="rgb(204, 204, 204)" stroke-width="1px"></line><line x1="51.41600036621094" y1="17.797499942779524" x2="46.41600036621094" y2="17.797499942779524" style="visibility: inherit;" fill="rgb(0, 0, 0)" stroke="rgb(204, 204, 204)" stroke-width="1px"></line><line x1="51.41600036621094" y1="0" x2="46.41600036621094" y2="0" style="visibility: inherit;" fill="rgb(0, 0, 0)" stroke="rgb(204, 204, 204)" stroke-width="1px"></line></g><g transform="translate(41.41600036621094, 0)"><text style="text-anchor: end; visibility: hidden; font-family: &quot;Helvetica Neue&quot;, sans-serif; font-size: 12px; font-weight: 200;" x="0" y="177.9749994277954" dx="0em" dy="0.3em" fill="rgb(50, 49, 63)" stroke="none" stroke-width="1px">-0.5</text><text style="text-anchor: end; visibility: inherit; font-family: &quot;Helvetica Neue&quot;, sans-serif; font-size: 12px; font-weight: 200;" x="0" y="160.17749948501586" dx="0em" dy="0.3em" fill="rgb(50, 49, 63)" stroke="none" stroke-width="1px">0</text><text style="text-anchor: end; visibility: hidden; font-family: &quot;Helvetica Neue&quot;, sans-serif; font-size: 12px; font-weight: 200;" x="0" y="142.37999954223633" dx="0em" dy="0.3em" fill="rgb(50, 49, 63)" stroke="none" stroke-width="1px">0.5</text><text style="text-anchor: end; visibility: inherit; font-family: &quot;Helvetica Neue&quot;, sans-serif; font-size: 12px; font-weight: 200;" x="0" y="124.58249959945678" dx="0em" dy="0.3em" fill="rgb(50, 49, 63)" stroke="none" stroke-width="1px">1</text><text style="text-anchor: end; visibility: hidden; font-family: &quot;Helvetica Neue&quot;, sans-serif; font-size: 12px; font-weight: 200;" x="0" y="106.78499965667724" dx="0em" dy="0.3em" fill="rgb(50, 49, 63)" stroke="none" stroke-width="1px">1.5</text><text style="text-anchor: end; visibility: inherit; font-family: &quot;Helvetica Neue&quot;, sans-serif; font-size: 12px; font-weight: 200;" x="0" y="88.9874997138977" dx="0em" dy="0.3em" fill="rgb(50, 49, 63)" stroke="none" stroke-width="1px">2</text><text style="text-anchor: end; visibility: hidden; font-family: &quot;Helvetica Neue&quot;, sans-serif; font-size: 12px; font-weight: 200;" x="0" y="71.18999977111817" dx="0em" dy="0.3em" fill="rgb(50, 49, 63)" stroke="none" stroke-width="1px">2.5</text><text style="text-anchor: end; visibility: inherit; font-family: &quot;Helvetica Neue&quot;, sans-serif; font-size: 12px; font-weight: 200;" x="0" y="53.39249982833863" dx="0em" dy="0.3em" fill="rgb(50, 49, 63)" stroke="none" stroke-width="1px">3</text><text style="text-anchor: end; visibility: hidden; font-family: &quot;Helvetica Neue&quot;, sans-serif; font-size: 12px; font-weight: 200;" x="0" y="35.594999885559076" dx="0em" dy="0.3em" fill="rgb(50, 49, 63)" stroke="none" stroke-width="1px">3.5</text><text style="text-anchor: end; visibility: inherit; font-family: &quot;Helvetica Neue&quot;, sans-serif; font-size: 12px; font-weight: 200;" x="0" y="17.797499942779524" dx="0em" dy="0.3em" fill="rgb(50, 49, 63)" stroke="none" stroke-width="1px">4</text><text style="text-anchor: end; visibility: hidden; font-family: &quot;Helvetica Neue&quot;, sans-serif; font-size: 12px; font-weight: 200;" x="0" y="0" dx="0em" dy="0.3em" fill="rgb(50, 49, 63)" stroke="none" stroke-width="1px">4.5</text></g><line x1="51.41600036621094" y1="0" x2="51.41600036621094" y2="177.9749994277954" fill="rgb(0, 0, 0)" stroke="rgb(204, 204, 204)" stroke-width="1px"></line></g></g><g transform="translate(51, 0)" clip-path="url(#clip_0)"><clipPath id="clip_0"><rect width="278" height="177"></rect></clipPath><g><g><g><line x1="0" y1="0" x2="0" y2="177.9749994277954" fill="rgb(0, 0, 0)" stroke="rgb(60, 60, 60)" stroke-width="1px" opacity="0.25"></line><line x1="27.858399963378908" y1="0" x2="27.858399963378908" y2="177.9749994277954" fill="rgb(0, 0, 0)" stroke="rgb(60, 60, 60)" stroke-width="1px" opacity="0.25"></line><line x1="55.716799926757815" y1="0" x2="55.716799926757815" y2="177.9749994277954" fill="rgb(0, 0, 0)" stroke="rgb(60, 60, 60)" stroke-width="1px" opacity="0.25"></line><line x1="83.57519989013672" y1="0" x2="83.57519989013672" y2="177.9749994277954" fill="rgb(0, 0, 0)" stroke="rgb(60, 60, 60)" stroke-width="1px" opacity="0.25"></line><line x1="111.43359985351563" y1="0" x2="111.43359985351563" y2="177.9749994277954" fill="rgb(0, 0, 0)" stroke="rgb(60, 60, 60)" stroke-width="1px" opacity="0.25"></line><line x1="139.29199981689453" y1="0" x2="139.29199981689453" y2="177.9749994277954" fill="rgb(0, 0, 0)" stroke="rgb(60, 60, 60)" stroke-width="1px" opacity="0.25"></line><line x1="167.15039978027343" y1="0" x2="167.15039978027343" y2="177.9749994277954" fill="rgb(0, 0, 0)" stroke="rgb(60, 60, 60)" stroke-width="1px" opacity="0.25"></line><line x1="195.00879974365233" y1="0" x2="195.00879974365233" y2="177.9749994277954" fill="rgb(0, 0, 0)" stroke="rgb(60, 60, 60)" stroke-width="1px" opacity="0.25"></line><line x1="222.86719970703126" y1="0" x2="222.86719970703126" y2="177.9749994277954" fill="rgb(0, 0, 0)" stroke="rgb(60, 60, 60)" stroke-width="1px" opacity="0.25"></line><line x1="250.72559967041016" y1="0" x2="250.72559967041016" y2="177.9749994277954" fill="rgb(0, 0, 0)" stroke="rgb(60, 60, 60)" stroke-width="1px" opacity="0.25"></line><line x1="278.58399963378906" y1="0" x2="278.58399963378906" y2="177.9749994277954" fill="rgb(0, 0, 0)" stroke="rgb(60, 60, 60)" stroke-width="1px" opacity="0.25"></line></g><g><line x1="0" y1="177.9749994277954" x2="278.58399963378906" y2="177.9749994277954" fill="rgb(0, 0, 0)" stroke="rgb(60, 60, 60)" stroke-width="1px" opacity="0.25"></line><line x1="0" y1="160.17749948501586" x2="278.58399963378906" y2="160.17749948501586" fill="rgb(0, 0, 0)" stroke="rgb(60, 60, 60)" stroke-width="1px" opacity="0.25"></line><line x1="0" y1="142.37999954223633" x2="278.58399963378906" y2="142.37999954223633" fill="rgb(0, 0, 0)" stroke="rgb(60, 60, 60)" stroke-width="1px" opacity="0.25"></line><line x1="0" y1="124.58249959945678" x2="278.58399963378906" y2="124.58249959945678" fill="rgb(0, 0, 0)" stroke="rgb(60, 60, 60)" stroke-width="1px" opacity="0.25"></line><line x1="0" y1="106.78499965667724" x2="278.58399963378906" y2="106.78499965667724" fill="rgb(0, 0, 0)" stroke="rgb(60, 60, 60)" stroke-width="1px" opacity="0.25"></line><line x1="0" y1="88.9874997138977" x2="278.58399963378906" y2="88.9874997138977" fill="rgb(0, 0, 0)" stroke="rgb(60, 60, 60)" stroke-width="1px" opacity="0.25"></line><line x1="0" y1="71.18999977111817" x2="278.58399963378906" y2="71.18999977111817" fill="rgb(0, 0, 0)" stroke="rgb(60, 60, 60)" stroke-width="1px" opacity="0.25"></line><line x1="0" y1="53.39249982833863" x2="278.58399963378906" y2="53.39249982833863" fill="rgb(0, 0, 0)" stroke="rgb(60, 60, 60)" stroke-width="1px" opacity="0.25"></line><line x1="0" y1="35.594999885559076" x2="278.58399963378906" y2="35.594999885559076" fill="rgb(0, 0, 0)" stroke="rgb(60, 60, 60)" stroke-width="1px" opacity="0.25"></line><line x1="0" y1="17.797499942779524" x2="278.58399963378906" y2="17.797499942779524" fill="rgb(0, 0, 0)" stroke="rgb(60, 60, 60)" stroke-width="1px" opacity="0.25"></line><line x1="0" y1="0" x2="278.58399963378906" y2="0" fill="rgb(0, 0, 0)" stroke="rgb(60, 60, 60)" stroke-width="1px" opacity="0.25"></line></g></g></g><g><g><line x1="0" y1="160.17749948501586" x2="278.58399963378906" y2="160.17749948501586" fill="rgb(0, 0, 0)" stroke="rgb(153, 153, 153)" stroke-width="1.5px"></line></g></g><g><g><line x1="27.858399963378908" y1="0" x2="27.858399963378908" y2="177.9749994277954" fill="rgb(0, 0, 0)" stroke="rgb(153, 153, 153)" stroke-width="1.5px"></line></g></g><g><g><g><g><g><path style="fill: none;" stroke="rgb(0, 153, 136)" stroke-width="2px" d="M27.997691963195802,-3.3235886085465722L28.35985116271973,1.4797077608218387L28.5270015625,5.410964380987394L28.947663401947022,14.773671815580457L29.003380201873778,7.172678845709839L29.086955401763916,14.562680221467417L29.309822601470948,13.766526838387932L29.393397801361086,19.119901767293783L29.811273800811765,14.466901477554615L29.894849000701907,24.259552446093295L30.42694444000244,9.661279804639179L30.649811639709476,17.958692700344642L30.76124523956299,16.491901406671076L31.293340678863526,21.70569023067901L31.65549987838745,12.792869626876751L32.10123427780152,16.912136373982236L32.18480947769165,14.120176653763991L32.41046251739502,15.175558949794066L32.716904916992185,14.380254217644136L32.85619691680908,20.923480182372572L32.91191371673584,13.676909300223912L32.93977211669922,10.584000987356745L33.05120571655274,15.93854705454541L33.499725955963136,10.885407851507608L34.11261075515747,28.18262807129767L34.25190275497437,24.742316013896215L34.64470619445801,38.7941762678287L34.81185659423828,37.57076108774109L34.95114859405517,21.331520035825633L35.14615739379882,29.677076898766387L35.25759099365234,7.193572631596197L35.313307793579106,11.92052436333924L35.817544832916255,28.5456639659549L36.263279232330326,24.669756359416823L36.31899603225708,41.0910754682744L36.541863231964115,22.912828285937195L36.851091471557616,23.712987301404354L37.10181707122803,21.45297895686761L37.32468427093505,30.461069114024923L37.74534611038208,19.207414651152448L37.8567797102356,18.40421746535739L39.33606074829101,18.79042153039225L39.363919148254396,52.37398292868966L39.83751194763183,38.607235441060055L39.89601458755493,34.96085396493709L39.979589787445065,21.460260381843455L40.39746578689575,40.48289826609766L40.481040986785885,31.847034893164988L40.50889938674927,15.763691017014025L40.78748338638306,26.515012021647436L41.23600362579346,19.58586204669089L41.291720425720214,23.60059197229029L41.87674682495118,19.43141606401602L41.96032202484131,24.802442932257208L42.325267064361576,23.952697242974494L42.46455906417847,43.05324976907377L43.19166330322266,55.053649157905426L43.47024730285645,22.429521581539376L43.63739770263672,26.771465846058305L43.69311450256348,49.022694353801484L43.83240650238037,24.20959236586873L43.86026490234375,23.59884375137537L44.25306834182739,31.41172788534439L44.75451954116821,35.10829857744292L44.81023634109497,32.789359912355934L45.144537140655515,21.740077566345718L45.314473380432126,64.84164951935L45.342331780395504,22.81126174268465L45.39804858032226,49.704432618554534L45.4816237802124,27.51957710001406L45.53734058013916,23.509540214055278L45.87164137969971,69.26040517950551L46.1502253793335,42.304943325404196L46.459453618927,22.66920606358167L46.5987456187439,65.09318965487856L47.323064017791744,28.881475138791103L47.43449761764526,42.01804839214921L47.52085865753174,38.17856488350881L47.54871705749512,34.892147185678L47.74372585723877,42.16192867075077L47.994451456909175,23.984182192462043L48.105885056762695,66.1256159432634L48.217318656616214,34.83431162482688L48.35661065643311,59.09602813079064L48.46804425628662,29.20112799792807L48.69369729598999,52.92670079261811L48.80513089584351,32.39176695184605L48.86084769577026,34.82084353457438L48.91656449569702,21.832224084279915L49.11157329544067,48.18697686438483L49.25086529525757,30.731737841506316L49.306582095184325,30.76390171173753L49.44587409500122,33.45554240556973L49.50159089492797,48.98967334613141L49.61302449478149,54.47377446423029L49.69938553466797,68.32862889136928L49.86653593444824,44.97501131260637L49.89439433441162,43.949730665048634L50.53513753356934,47.653514890048626L50.646571133422846,56.743898727847636L51.54082577224732,26.262733559810158L51.735834571990964,25.642675244619255L51.877912411804196,50.135097505790284L52.267930011291504,25.740057938788965L52.37936361114502,47.556259493518354L52.57437241088867,19.292449474296717L52.630089210815434,38.16846593744677L52.7972396105957,27.067449830769164L52.85295641052246,43.31577993414044L53.217901450042724,67.46889458064538L53.2457598500061,63.94982771697855L53.52434384963989,46.39883540971513L53.607919049530025,30.237975757656017L53.85864464920044,29.10568871438707L53.970078249053955,26.48201647350524L54.056439288940425,42.61795973427181L54.30716488861084,45.15135248926455L54.33502328857421,64.85900443085998L54.502173688354496,47.62790260499378L54.53003208831787,41.15345979810809L54.669324088134765,66.70856275330361L55.00362488769532,41.49321719776685L55.14570272750854,67.06455484524531L55.229277927398684,55.71106508701659L55.48000352706909,55.07826003486335L55.78644592666626,68.32032059876865L56.290682966003416,44.02622805984129L56.652842165527346,48.72429171394131L56.819992565307615,25.72028437212967L56.90356776519776,39.660275460524446L56.95928456512451,61.07301139031124L57.070718164978025,32.17693945553128L57.2378685647583,39.060720551792286L57.352088004608156,31.032618542080854L57.630672004241944,39.09453080482692L57.79782240402221,48.72996070215095L57.93711440383911,43.625724226642916L58.2156984034729,48.719454403642686L58.35499040328979,26.420913606575226L59.36067864196777,31.689813821950338L59.44703968185425,50.88600930781368L59.47489808181763,71.1094458248821L59.502756481781006,32.43985151351626L60.00420768112183,59.019157329588964L60.33850848068237,45.09450985000103L60.36636688064575,76.51186429100858L60.533517280426025,61.97718955021742L60.703453520202636,35.727525214722846L61.42777191925049,36.29617225659959L61.483488719177245,23.789552588271363L61.737000158844,65.15907042654212L62.04344255844116,69.32772865774936L62.127017758331306,70.31051735326287L62.21059295822144,31.118459583608228L62.742688397521974,29.35063483219278L62.90983879730224,41.59387568452476L63.1048475970459,44.710223736067036L63.271997996826165,68.16566245336135L63.55058199645996,30.2162163478215L63.71773239624024,31.117517581076385L63.80130759613037,30.19830981320729L64.0826774357605,44.791880928511546L64.16625263565064,56.47176183425809L64.24982783554077,32.45880188877388L64.27768623550415,54.970549258880595L65.5898168737793,43.44882294037123L65.67339207366943,85.38091996637222L65.75696727355957,83.21191246101475L65.78482567352295,26.830523464248017L66.37263791275024,44.19487197256811L66.70693871231079,29.364467842344993L66.76265551223754,35.801544548801104L66.87408911209107,41.86997577795546L66.98552271194458,66.51905051421832L67.07188375183105,69.09240624148515L67.76834375091553,32.071155117158696L67.7962021508789,65.84008733800502L68.10264455047607,75.42508191058391L68.30043919021607,83.97350029173231L68.41187279006958,42.82178871453917L68.46758958999634,27.57085258917951L68.94118238937378,36.46194772918443L69.33398582885742,32.311051761933385L69.44541942871093,29.780493501045413L70.14187942779542,72.18706277526726L70.56254126724244,52.73325081321954L70.59039966720582,35.56483883152168L71.0082756666565,86.04835846296177L71.11970926651001,29.210386779569802L71.37043486618042,66.26371690903451L71.54037110595702,41.113216771027254L71.56822950592041,30.016062026079226L71.93038870544433,36.27364906092842L72.18111430511475,37.88316646793939L72.32040630493164,43.27411966000719L72.45969830474853,56.89304912872194L72.51820094467163,77.69882142716128L72.65749294448852,37.92456366028446L72.74106814437866,39.02588343113288L73.07536894393921,35.57960535769644L73.29823614364625,29.006583258830318L73.49324494338988,73.94495831080658L73.6631811831665,81.91547086843647L73.91390678283692,61.98425881246085L74.02534038269043,29.25236954105631L74.05319878265381,66.16477269715438L74.08105718261719,73.07324104895697L74.13677398254396,37.336109105711245L74.22034918243408,31.846279593837636L74.41535798217774,47.56970212424292L74.66608358184814,78.683825101601L74.9195950215149,34.001623819228826L75.0310286213684,31.455127893883315L75.08674542129516,55.329257033796964L75.17032062118531,31.786593973960038L75.3096126210022,90.95169804716413L75.39318782089232,26.1986519281173L75.42104622085571,44.630993685281084L75.44890462081909,27.34685966282521L75.95314166015625,56.1603578621567L76.20386725982667,30.915581092381984L76.37101765960693,77.53609261141364L76.56602645935058,56.083894413401225L76.59388485931397,48.909365508664905L76.84461045898436,69.07129180635711L77.01454669876098,39.34501861320277L77.34884749832153,55.48126738830396L77.59957309799195,33.964113448141234L77.71100669784545,37.706494317418674L77.9645181375122,79.52855526388984L78.07595173736573,65.24762715104416L78.32667733703614,69.48852254937756L78.68883653656006,64.89895043011548L78.7724117364502,42.28017969127896L78.93956213623046,74.5329715668964L78.99527893615722,44.146957141083845L79.91739197494508,43.847637958219735L80.08454237472534,71.11680362844159L80.53306261413574,61.10644823693683L80.5887794140625,45.193751089706524L80.64449621398926,46.49101587368651L80.81164661376953,38.191651080843L80.89522181365967,29.441805401557957L80.95093861358643,66.61142616790349L81.42731725296021,67.01187059553676L81.81733485244752,70.75265600106658L81.87305165237426,39.26863154303098L82.34943029174804,63.46131878238239L82.46086389160156,51.24082177496325L82.6837310913086,30.01663062220203L83.15732389068603,60.70860068114807L83.3244742904663,30.583622794766114L83.96800332962036,69.20278178138679L84.30230412918091,72.99614111200431L84.33016252914427,31.32600565494718L84.41373772903442,53.378726223751485L84.4415961289978,27.070445568550582L84.49731292892457,29.33008899318756L84.52795716888429,82.70126222366575L84.63939076873778,41.169533246714394L84.75082436859131,38.01049805341407L84.8901163684082,38.652001777595586L84.94583316833497,72.14165995053455L85.36370916778566,43.0105965733529L86.28582220657349,36.84064972000178L86.39725580642701,37.39600688832124L86.45297260635375,89.38956082155185L86.59226460617066,45.3662054451072L86.81791764587402,63.798496283215215L87.04078484558106,74.8775832498724L87.15221844543457,45.4683066384454L87.43080244506837,67.5821470471983L87.48651924499511,62.66007349372539L87.54223604492188,34.661305646322006L87.57009444488526,25.536424148235398L87.68152804473877,83.83415180909469L87.7651032446289,47.34209394492862L87.96289788436889,64.48554710278745L88.07433148422241,31.43886774207249L88.46434908370972,57.50073411335953L88.63149948348999,41.32205279177916L88.77079148330688,35.57911314015726L88.79864988327026,44.480018684908174L88.85436668319703,47.47402521844171L88.91286932312012,38.35491454667627L88.96858612304686,80.24995098658232L89.02430292297363,56.49309691862781L89.05216132293701,32.49996994536795L89.24717012268066,39.4456346674142L89.3307453225708,55.790872220434636L89.4700373223877,36.09036591966628L89.97427436172485,60.99937394915128L90.25285836135863,34.72738160769936L90.42000876113892,57.67693101935966L90.5871591609192,47.174213818038425L90.69859276077271,36.14913499653994L90.72645116073609,46.803370334829L91.03289356033325,38.14726663722578L91.0356794003296,34.080370138984875L91.45355539978029,35.30683197590972L91.73213939941407,74.97079906797785L91.98286499908447,57.59428939183681L92.43138523849487,33.41919468625565L92.93283643783569,52.530066807658656L92.96069483779907,29.736457004309358L93.01641163772584,33.04432859764003L93.26992307739258,33.64485945494121L93.38135667724609,36.87271175212143L93.9106662765503,32.71148770305737L94.21710867614746,86.2952819374334L94.41490331588744,33.45580548735788L94.58205371566771,72.00549390888287L94.6099121156311,43.85076099364059L94.66562891555786,30.303398257817634L94.72134571548462,32.83108807856357L94.86063771530151,53.778568109224764L95.53202515441895,63.404340358970146L95.55988355438232,31.78586413416062L95.8384675540161,53.25859968466894L95.89418435394288,44.57863192292578L96.03347635375977,32.07364166438239L96.42349395324706,72.34304481612472L96.5655717930603,51.89342585330368L96.76058059280396,45.6194853150414L96.81629739273072,66.32481977596453L97.2341733921814,59.1713034682447L97.34560699203492,36.18357325126246L97.40132379196167,55.077852682417145L97.73841043151855,29.221393782126512L98.07271123107911,57.55811988921796L98.40701203063965,77.47763753538393L98.43487043060303,41.050518440349606L98.4627288305664,57.81485376843557L98.6605234703064,40.76968287473184L98.82767387008667,54.3912261883097L99.30126666946411,35.93277992855192L99.46841706924438,37.04556497345902L99.49627546920777,61.679474317610214L99.7191426689148,42.911168630442916L99.86122050872802,42.840781522343235L100.0283709085083,40.638040142534834L100.1676629083252,76.67854782008808L100.80840610748291,32.01258971650813L100.83905034744264,34.003567229857566L100.97834234725953,50.594684416706244L101.11763434707642,64.80940927053511L101.47979354660033,61.48338503382065L101.674802346344,66.33008141172795L102.06760578582764,86.58457006630984L102.40190658538819,34.03913419031642L102.48548178527831,67.83355139857812L102.87549938476562,61.754274410543715L102.903357784729,45.08902756499592L102.95907458465577,48.43966267866833L103.82547082351685,33.63166293298619L103.85332922348023,27.695315734512207L103.88118762344361,69.74847281561829L104.07619642318726,38.83921417266171L104.35756626281739,34.333955523253735L104.77544226226806,42.99771405224183L104.8590174621582,33.45266547891842L104.91473426208496,63.375706876606L105.72541370101929,38.07889083182923L106.08757290054321,86.44123292430318L106.31322594024658,32.83004423792019L106.563951539917,39.75746296498036L106.73110193969727,39.49511101660892L106.8425355395508,39.09736529893169L107.31612833892822,49.47568724699457L107.37184513885498,49.70538310759568L107.37463097885131,29.31544127814297L107.40248937881469,36.77168834546384L107.70893177841185,79.48170124606754L108.21038297775269,31.871798527290224L108.65890321716309,33.18203069747423L108.88177041687013,28.389079382937467L109.52251361602782,84.43938419254577L109.74816665573121,65.76372572736109L109.80388345565795,56.3830862986259L109.85960025558471,71.15520508300524L109.97103385543824,63.5442150051841L109.9988922554016,28.508102675811557L110.30533465499879,79.79136548376327L110.38890985488891,29.637758901198794L110.61177705459595,95.44479977200581L110.67027969451904,37.92705020750813L110.92100529418946,35.27307264193087L111.33888129364014,26.121187071264927L111.45031489349365,54.05059467819346L111.50603169342041,31.78901262910935L111.89883513290405,53.54529094170084L112.26099433242798,53.40312493797701L112.87666497161865,82.3675896511721L113.29454097106934,45.57572887311207L113.3223993710327,60.460540014430805L113.51740817077636,67.42843939083214L113.65670017059327,42.01614741406692L113.79599217041016,40.56316367101769L113.90742577026367,28.228514627060264L113.9380700102234,27.59332486579487L114.38380440963745,45.70553003279187L114.88525560897827,52.67492303482928L114.91311400894166,74.03977807916894L115.08305024871827,49.52290618471662L115.1666254486084,44.83997397669103L115.83522704772949,52.521385108649014L115.91880224761964,32.210851546677446L116.08873848739624,39.580510759652924L116.17231368728638,63.428170477072854L116.20017208724975,36.08854132016768L116.25588888717651,72.51805361082343L116.28374728713989,29.147416880594704L116.84091528640747,54.352425867809146L116.98020728622437,34.661755431314674L117.20586032592773,41.985884521917995L117.2615771258545,31.60987090438357L117.87446192504883,35.35136069018495L118.09732912475586,93.6052512872766L118.46227416427612,68.28276779513457L118.4901325642395,34.71744390531396L118.6294245640564,77.16251647221097L118.76871656387328,65.85595711038823L118.96372536361694,63.22649707016663L119.7465464025879,47.7327958598903L119.80226320251464,65.40909147690672L119.85798000244141,85.42646706176296L120.08084720214843,47.776263760503554L120.52936744155883,82.98608644865257L120.66865944137572,59.89661147172255L121.28154424057007,44.93449671722806L121.3651194404602,39.26040811552329L121.5044114402771,92.54342348743636L121.6743476800537,40.71103260898829L121.78578127990723,61.71504976457837L121.841498079834,53.943834391251855L122.00864847961427,79.27853421352525L122.03650687957764,40.3232755127523L122.20365727935791,25.54447784555714L122.39866607910156,62.862307010245146L122.56581647888184,84.80412587557149L122.62431911880493,69.44043798770736L123.09791191818236,41.168056594096925L123.15362871810913,63.548661936055126L123.43221271774293,37.265968106381166L123.51578791763305,51.817250945864274L123.71079671737671,35.12670581610561L124.13145855682373,75.65566885466106L124.18717535675049,93.2199298192085L124.35432575653076,54.18149908408172L124.46575935638428,33.5370723003748L124.52147615631104,29.990458227533708L124.8864211958313,63.39228951577006L125.36001399520875,30.116499863595436L125.69431479476928,38.47725606468501L125.89210943450928,64.11165696274084L126.3935606338501,67.86198120471917L126.44927743377686,54.56516568283715L126.50499423370361,25.00281790324115L126.58856943359376,32.998145014052085L126.67214463348388,77.49580715178631L127.12066487289428,50.47200343832564L127.42710727249145,39.493804094177364L127.45496567245483,68.4638699035077L127.81712487197876,35.727474295667065L128.6278043109131,52.42995994400499L128.68352111083985,37.21622867539827L129.32705014999388,50.18981851772983L129.43848374984742,69.12660687394737L129.49420054977418,49.54940106673823L129.66135094955445,31.31938617769643L129.74492614944458,59.371890601961056L129.80064294937134,33.54886006178671L130.05136854904177,53.45210058312327L130.2463773487854,32.45353176650113L130.5834639883423,79.00751753916275L130.8063311880493,90.38679355588685L131.16849038757323,38.706374842653986L131.2242071875,35.77901286662066L131.30778238739012,37.96672463846616L131.61701062698364,81.52033899562238L131.72844422683715,41.571658003188276L131.86773622665405,38.16865264065129L131.92345302658083,42.692301555703324L132.2020370262146,48.72526766251033L132.31347062606812,47.34654087579966L132.650557265625,52.598527478148156L133.09629166503908,90.94655946578551L133.23558366485597,41.35523504312587L133.4305924645996,40.22983904540516L134.10197990371705,41.447907724636394L134.12983830368043,77.30666831911003L134.35270550338745,45.84343580884919L134.6062169430542,89.73734221574982L134.82908414276125,55.70190814348639L135.0240929425049,46.95899594229604L135.1355265423584,79.15508096279873L135.44196894195557,36.10085524515594L135.60911934173583,46.450908630754384L135.75119718154906,45.94224423658059L136.3640819807434,48.53318401110843L136.6705243803406,92.96351418408949L136.7847438201904,34.92582165456386L137.03546941986085,73.99586039356299L137.06332781982422,65.07607236562885L137.39762861938476,67.46712090020256L137.70407101898195,82.82071832851393L137.78764621887206,80.20512524448172L138.04115765853882,29.011242352433754L138.0690160585022,50.709523860497484L138.09687445846558,38.721395964107614L139.32542989685058,86.42357249845854L139.46472189666747,91.65026505985081L139.49258029663088,40.04171010733509L139.77116429626466,82.88205033119493L141.7546823736572,57.948983047856245L142.0611247732544,48.43908559603619L142.0889831732178,55.7648440964243L142.14469997314453,45.11117735425805L142.20041677307128,51.52792887095066L142.2589194129944,80.57149633729223L142.28677781295778,69.83701256710174L142.34249461288454,50.353421443934934L142.98323781204223,78.39325550982089L143.12252981185915,37.43424709920828L143.20610501174926,43.10871759383136L143.40389965148927,60.44845522519354L143.71034205108643,79.6472475829014L143.96106765075683,77.91412416799662L144.04464285064697,65.3091034243832L144.07250125061034,38.834266537742224L144.465304690094,76.02132708069071L144.91103908950805,79.76838401659015L145.07818948928832,46.74737634649509L145.18962308914186,102.79659488291354L145.44034868881226,74.47686725394165L145.49606548873902,42.14228240173091L145.72171852844238,32.81741631208797L145.8331521282959,37.443022149820166L146.00030252807616,32.80241216365292L146.13959452789308,60.26915225679113L146.83884036697387,34.28325711672042L147.08956596664427,50.49280387260974L147.50744196609497,90.80288286340702L147.67737820587158,44.366367352418365L147.84452860565185,53.532798800017375L147.9559622055054,77.65178070613447L147.98382060546876,43.97929766343532L148.51313020477295,75.96924537314217L148.54098860473633,48.66822983353305L148.59670540466308,30.104109560023517L148.76385580444338,71.46944354921143L149.57453524337768,52.85355556899731L149.74168564315798,58.69319899404522L149.85311924301146,43.07784367301312L149.91162188293458,59.37557374699546L150.13448908264158,38.31984829026587L150.19020588256836,36.67275262009298L150.6637986819458,92.78883211999867L150.69165708190917,32.80738525810031L151.19589412124634,37.92629490818081L151.22375252120972,81.61536244020786L151.30732772109985,34.48936048147905L151.55805332077026,86.96414616758466L151.7809205204773,57.54326849795025L151.83663732040407,40.760483498655134L151.86449572036744,88.38113862471027L152.25729915985107,60.76109822765211L152.53588315948488,32.656936421303726L152.619458359375,38.338255528928556L152.92590075897218,47.286252713762025L153.00947595886228,41.94664290293403L153.06519275878907,31.172408323201836L153.12090955871582,34.328829671639056L153.43013779830932,81.56471495273031L153.90373059768677,45.49933331643095L154.2965340371704,74.68284332106086L154.46368443695067,41.94922280175999L154.65869323669432,57.19353944986888L154.88156043640137,67.14773960936309L154.99299403625488,59.4885631317602L155.18800283599853,41.17265628213525L155.2158612359619,44.397860788415215L155.2437196359253,41.896589471107205L155.49723107559205,85.43316291759739L156.2215494746399,34.07347060692737L156.3608414744568,47.613322782023516L156.78150331390378,88.2914447079626L156.9207953137207,84.07676413684403L157.087945713501,63.613023622554735L157.19937931335448,53.22623213821461L157.22723771331786,37.57697321254565L157.45010491302492,61.51794209967329L157.50860755294798,38.58472921840749L157.53646595291139,33.604735238990514L157.59218275283814,49.6243708898576L157.67575795272828,69.31897906666536L157.92648355239868,35.726744455867646L158.0379171522522,43.860944804795594L158.14935075210573,56.71038550263839L158.23292595199584,56.21928818270699L158.26078435195922,35.55997606169515L158.4279347517395,36.309326346008135L158.57001259155274,84.936328717382L158.6257293914795,72.27726588257269L158.70930459136963,35.872899118960504L159.65927603012085,49.5907982590833L159.9935768296814,59.15137714441808L160.5228864289856,75.06988755051603L160.57860322891236,34.79924536841648L160.99926506835936,57.75757831719798L161.0828402682495,64.62873997413608L161.13855706817628,36.25937475229284L161.16641546813966,59.78245943518428L161.69572506744387,100.45419526287822L162.3392541065979,35.41961768445137L162.42282930648804,82.27790422093372L162.78498850601196,44.038940850766465L162.98278314575197,93.2546523719924L163.23350874542237,81.53408714068163L163.3170839453125,35.2558959471161L163.37280074523926,32.15584199342183L163.4006591452026,38.222270406382364L163.79067674468993,84.90919734716321L164.013543944397,75.19316258454732L164.60135618362426,33.67827084203893L164.76850658340456,41.97216183638662L164.85208178329466,68.51943107986753L165.04709058303834,66.43385444739742L165.3841772225952,45.27629087911782L165.439894022522,83.90453043068506L165.46775242248538,45.89802103664002L165.662761222229,52.603772140892985L166.16421242156983,37.618268566779165L166.58487426101684,37.56853762230557L166.7798830607605,32.77180132462286L166.91917506057737,32.75058505138327L166.94703346054075,59.43307833398403L167.11418386032105,37.04554800044045L167.45127049987792,78.47524367612796L167.5069872998047,38.54555549149791L167.67413769958495,46.70368779664014L168.37338353866576,45.34068651165464L168.51267553848268,33.502956533005545L168.8748347380066,34.953402809775326L168.9862683378601,31.30259137579995L169.46264697723387,78.26235110393263L169.6855141769409,69.57657856983114L170.32625737609865,32.55711809896613L170.4098325759888,40.51057277291139L170.43769097595217,79.1549282056314L170.54912457580565,48.27353077269302L170.551910415802,86.41476350180946L170.66334401565553,47.865660649425905L171.27622881484984,33.236191599800264L171.89189945404053,77.76701901586262L172.25405865356444,88.55696212430139L172.69979305297852,71.22493024337982L172.98116289260864,73.26401777792735L173.42689729202272,67.21429081526102L173.51047249191285,35.31595497340274L173.81691489151,56.73040517806726L173.81970073150637,40.538069063029894L173.90327593139648,51.455530460147884L174.37686873077394,30.381083763911676L174.48830233062745,88.15071292430976L175.02039776992797,39.89603068876275L175.07611456985472,47.914305320709644L175.46613216934205,71.54157887822603L175.60542416915894,41.33486742081587L175.99544176864626,48.94490700959588L175.99822760864257,38.662355318936505L176.05394440856932,50.879932967157856L176.19323640838624,89.87138663007754L176.97327160736086,70.07871683835643L177.19892464706422,89.7315034973543L177.39393344680784,89.9428175788206L177.50536704666138,41.62661663738808L177.67251744644165,39.38302120182951L177.83966784622191,41.58148538095284L177.97895984603883,32.65949934711105L178.06253504592897,36.14248157325201L178.11825184585572,61.10946943424615L178.51105528533935,48.28993519516189L178.76178088500978,47.71135893740902L178.9846480847168,36.815020461928356L179.43316832412722,54.58650076720687L179.57246032394409,42.83665707882548L179.62817712387084,50.311803602348164L179.96247792343138,55.25800430174914L180.01819472335816,61.5057045532687L180.18534512313843,35.01694979138256L180.49457336273196,36.76866714815449L180.63386536254882,71.73720989051363L180.9124493621826,62.813543527831285L181.1910333618164,85.73770979018772L181.6395536012268,69.62689508344616L181.94599600082395,37.36453891185229L182.0017128007507,40.61436278159945L182.11314640060425,33.111202290891214L182.4474472001648,29.551535966753107L182.53102240005492,64.43708064819893L183.6230716786194,83.14688034028077L183.7066468785095,56.75505848757166L183.81808047836304,64.53506588452865L184.20809807785034,58.57629732849509L184.5145404774475,74.1955649303126L184.70954927719117,35.98376687640129L184.87948551696778,40.895928187016665L185.15806951660156,81.94318780779668L185.2416447164917,64.1233513725505L185.3809367163086,44.36797130267527L185.52022871612547,33.6030973426964L185.68737911590577,83.0632712506982L185.99660735549926,79.42194773411556L186.02446575546264,46.1533716148424L186.49805855484007,36.249123049063456L186.5816337547302,50.18281714756077L186.77664255447388,34.62831858468908L187.0858707940674,85.81837406104464L187.50374679351808,64.66096324993237L187.5594635934448,39.62933364763185L187.75447239318848,42.902699094165655L188.00798383285522,41.10335544722548L188.23085103256224,50.86423292496056L188.286567832489,74.16160192011066L188.34228463241575,51.38221550634117L188.48157663223267,69.27333861967236L188.73230223190308,54.97414753882204L189.01088623153686,38.46218402417563L189.03874463150024,35.532607069216084L189.29225607116697,59.711045459459825L189.40368967102052,87.09829242002392L189.4315480709839,51.20835239039738L189.9608576702881,73.57000735709798L190.10014967010497,36.75549608572737L190.15586647003173,30.82281505926923L190.24222750991822,50.6931958166123L190.49295310958863,35.37760946343698L190.99440430892946,44.611627471068005L191.52649974822998,33.134285596175886L191.66579174804687,61.12268292921976L191.91651734771727,84.70177008695441L192.08366774749757,51.126236926450886L192.11152614746092,98.23215980418571L192.1393845474243,67.63723297903758L192.22295974731443,53.63501031797641L192.3065349472046,32.37436960778959L192.89434718643187,65.57260953801888L193.36793998580933,40.4436821066416L193.3957983857727,38.8137291852463L193.48215942565918,39.7997512408015L193.62145142547607,96.02037180546795L193.8164602252197,55.71479066459747L194.06718582489015,88.23951575758137L194.1229026248169,34.2038233897114L194.40148662445068,34.40357884551676L194.5435644642639,46.507827648601534L194.59928126419067,89.06021212554442L194.76643166397096,63.74821371563739L194.82214846389772,54.593035379364665L194.87786526382445,78.69292263956613L195.212166063385,94.37952644939143L195.26788286331177,34.64831280059005L195.32359966323853,74.35516222413007L195.93927030242918,43.181022653031874L196.1899959020996,61.079410218320305L196.27357110198977,83.25611868793676L196.69423294143675,38.78823571132162L196.97281694107053,48.09907360109855L197.0006753410339,83.55956231431864L197.0563921409607,82.46269796085053L197.22354254074097,64.15768778916144L197.39069294052123,69.66288636936979L197.5857017402649,51.28823590239908L197.72499374008177,43.87959815222783L197.8949299798584,43.11403014865053L198.06208037963867,36.18751947808502L198.4242395791626,42.70230715016308L198.61924837890626,44.302964641469174L199.1234854182434,45.12321122443953L199.680653417511,96.15813331086724L199.76422861740113,72.28721207146741L199.87566221725464,46.6623924424066L199.90352061721802,77.62158570605989L200.07345685699465,93.69536952948908L200.54704965637205,94.0133293300215L200.8534920559692,60.263856674990535L201.13486189559936,49.74307169537846L201.32987069534303,80.58188382467033L201.4970210951233,83.47698857887016L202.14055013427736,37.07630311012852L202.78129333343506,39.497504212230325L203.42482237258912,33.488487034656146L203.64768957229614,87.03533100755813L203.75912317214966,76.08659682368497L204.12128237167357,93.32773819004815L204.40265221130372,53.98426412153722L204.51408581115723,93.07514997062155L204.73695301086426,98.1417275611293L204.76481141082763,84.84944383521125L204.87624501068115,40.02066356428142L205.12697061035155,93.7979247510746L205.15482901031493,66.73078043464011L205.4083404499817,59.9486846927618L205.43619884994507,100.44465218317505L205.46405724990845,90.13687858688844L205.6869244496155,69.72555924051953L205.798358049469,68.86748828561763L206.24409244888307,38.390506966663L206.8876214880371,69.36019804231523L206.99905508789064,56.5340867585267L207.0547718878174,53.54092887592279L207.08263028778077,36.294814415112256L207.16620548767088,37.838849916396526L207.4169310873413,36.976204732984144L207.4447894873047,89.6179879490132L207.67044252700805,87.03570441396714L207.7540177268982,61.456991989910605L208.032601726532,87.08779460802498L208.17189372634886,52.30473301283564L209.14972356506348,69.18383989263847L209.40044916473389,40.35267278095307L209.45616596466064,97.89187199769596L209.56759956451418,102.28488383190256L209.73474996429442,52.79459978891914L209.79325260421754,49.89845119407593L209.9882614039612,61.44735131535053L210.07183660385132,46.80444812150958L210.21112860366821,63.283356682448726L210.29470380355835,55.13413521206712L210.51757100326537,67.54482337931522L210.62900460311891,69.87824002926091L210.7404382029724,43.27990745934696L210.99394964263917,52.704209978409196L211.02180804260254,58.06170086432353L211.35610884216308,69.10679936125089L211.4675424420166,83.01978637706634L211.66255124176027,101.03097238066037L211.77398484161375,39.959458859239845L212.0553546812439,85.3656697091676L212.38965548080444,80.84367566342826L212.8353898802185,36.86703427740255L213.50677731933592,79.44432665912868L213.92465331878662,50.512263438425094L214.1224479585266,62.41954036075353L214.28959835830688,102.91039472931605L214.40103195816042,45.02668566770873L214.5124655580139,64.85164662730048L214.73533275772095,91.44311361119412L214.90248315750122,79.1775532394141L214.9303415574646,48.50906535168966L215.37886179687501,58.52133869429527L215.62958739654542,69.36685995211246L215.7967377963257,41.63738601768452L216.0196049960327,35.17642827406988L216.10318019592285,76.06221508247805L216.2146137957764,53.54839700410312L216.46812523544313,44.49646553992352L216.69099243515015,40.305021031256956L216.77456763504028,41.883774842070494L217.16458523452758,78.43147026118004L217.27601883438112,82.4484660847614L217.4738134741211,66.15086330841851L217.5573886740112,45.82329732229019L217.7245390737915,40.692048287693524L218.22599027313234,43.90033918094687L218.2817070730591,33.528908278432226L218.75808571243286,100.63124506306258L218.86951931228637,83.20382481765583L218.95309451217653,77.01563196931866L219.3709705116272,106.52305930400665L219.4545457115173,87.75478331962185L219.56597931137085,74.6224787804396L219.73591555114746,109.80521677417094L220.09807475067137,71.34976679512155L220.26522515045167,57.274229180253684L220.65524274993896,90.54420557356066L220.9644709895325,85.24201278221798L221.1594797892761,61.48859575052829L221.38234698898316,45.624780896842L221.60521418869018,77.62986005262333L221.63307258865356,71.34413175294912L221.74729202850344,47.52979855753392L221.85872562835692,54.34769039562207L222.22088482788084,41.77068361919419L222.33231842773438,40.864629940733636L222.72233602722167,76.83189904306383L223.0315642668152,61.067342402101616L223.05942266677857,66.34518739827453L223.25443146652222,96.91213844552897L223.47729866622925,59.60205322057341L223.6444490660095,52.12556582858197L223.8115994657898,105.27361175665406L223.98153570556642,45.30514501072366L224.03725250549317,53.3479201950076L224.28797810516357,53.25021501348465L224.34369490509033,76.64042642033118L224.3715533050537,47.35144607817264L224.90086290435792,66.85369903528098L224.98443810424806,45.96430067424049L225.21009114395142,45.98912371393081L225.57225034347536,79.29748458878285L225.87869274307252,63.0229736042339L225.96226794296265,46.27017992879027L226.2157793826294,73.47266709547475L226.66151378204347,67.99937779021874L226.96795618164063,56.989090954422906L227.05153138153076,79.06931629985502L227.4443348210144,39.347454241370684L227.7229188206482,42.08476932823305L227.75077722061155,45.30740242219636L227.89006922042847,42.76039730629307L227.91792762039185,42.98214979419325L228.05721962020874,101.71928344686303L228.1129364201355,39.54724364321325L228.224370019989,96.27336737734073L228.2522284199524,80.57748781285508L228.28008681991577,109.7181748915782L228.67289025939942,102.26685424290356L228.86789905914307,75.22485969676727L228.89575745910645,41.99140075296029L229.00719105895996,90.161650707523L229.06290785888672,101.07543744611588L229.31363345855712,78.80273806985424L229.39999449844362,78.55084998744455L229.48356969833372,52.535243578329116L230.2078880973816,117.22850648264144L230.23574649734496,47.60159442617669L230.46139953704835,115.47424741633537L230.54497473693846,55.298323707413644L230.656408336792,96.00445111402895L230.73998353668213,64.03093328631886L231.0185675363159,56.931077176876585L231.0464259362793,44.16009425747379L231.07428433624267,91.96046394763219L231.10214273620605,84.4085866503112L231.24143473602297,93.53774110582823L231.4085851358032,79.40541601400727L231.52001873565675,50.89966410127067L231.55066297561643,51.23937058187366L231.9963973750305,42.45469626843851L232.1635477748108,60.633800588214584L232.1914061747742,111.4737578533344L232.41427337448118,90.08239519720918L232.58142377426148,52.240524083503345L232.69564321411133,46.90105005682406L232.91851041381838,69.0050970338496L233.113519213562,35.296648164754714L233.39210321319578,34.859482611398334L233.86848185256957,46.13193469236111L234.0913490522766,40.27814425631706L234.73209225143432,56.86733500555556L234.90202849121093,80.5373126778486L235.0691788909912,108.9207188293218L235.15275409088133,100.26550197193997L235.99129192977907,39.762011733962936L236.01915032974244,43.52706006956956L236.4648847291565,84.017927167896L236.4927431291199,67.96771462403599L236.77132712875368,65.74425767503644L236.85490232864382,95.49395363384728L236.91061912857054,47.538980960592L237.19198896820066,97.94667363147381L237.35913936798096,67.31865790658121L237.4427145678711,94.39352918972956L237.5541481677246,84.50499339591188L237.99988256713866,90.81955036766404L238.0555993670654,49.052388649827634L238.08345776702882,100.17708951809595L238.1698188069153,103.27969791108826L238.25339400680542,56.74893122786007L238.30911080673218,78.33299280731117L238.3926860066223,110.58021753283056L238.69912840621947,42.00968069398348L238.810562006073,45.80202164348552L239.11700440567017,108.43375019616282L239.17550704559326,45.70835604038737L239.73267504486083,49.48928263488651L239.95554224456788,43.96473481348366L240.23412624420166,64.06026266244525L240.26198464416504,56.34706106666508L240.54335448379518,43.13393949945859L241.18409768295288,41.42416247162666L241.32338968276977,66.48397577129863L241.77190992218016,63.390354591650606L242.2455027215576,105.62922195567744L242.4126531213379,76.75250774860129L242.4432973612976,88.80397046386597L242.9726069606018,92.22139440569659L243.0004653605652,95.9467004182708L243.1118989604187,76.89721970511387L243.2233325602722,57.09864330292285L243.699711199646,65.5707425059738L243.86686159942627,82.25270777483438L243.89471999938965,102.87629593496537L245.03970023788452,50.65811258718331L245.26256743759154,41.57437368616294L245.4854346372986,110.75543849026167L245.51329303726197,114.3102632608465L245.70830183700562,47.77154526133509" fill="none"></path></g></g></g></g></g></g><g transform="translate(51, 177)" clip-path="url(#clip_1)"><clipPath id="clip_1"><rect width="278" height="22"></rect></clipPath><g><g><line x1="0" y1="0" x2="0" y2="5" style="visibility: inherit;" fill="rgb(0, 0, 0)" stroke="rgb(204, 204, 204)" stroke-width="1px"></line><line x1="27.858399963378908" y1="0" x2="27.858399963378908" y2="5" style="visibility: inherit;" fill="rgb(0, 0, 0)" stroke="rgb(204, 204, 204)" stroke-width="1px"></line><line x1="55.716799926757815" y1="0" x2="55.716799926757815" y2="5" style="visibility: inherit;" fill="rgb(0, 0, 0)" stroke="rgb(204, 204, 204)" stroke-width="1px"></line><line x1="83.57519989013672" y1="0" x2="83.57519989013672" y2="5" style="visibility: inherit;" fill="rgb(0, 0, 0)" stroke="rgb(204, 204, 204)" stroke-width="1px"></line><line x1="111.43359985351563" y1="0" x2="111.43359985351563" y2="5" style="visibility: inherit;" fill="rgb(0, 0, 0)" stroke="rgb(204, 204, 204)" stroke-width="1px"></line><line x1="139.29199981689453" y1="0" x2="139.29199981689453" y2="5" style="visibility: inherit;" fill="rgb(0, 0, 0)" stroke="rgb(204, 204, 204)" stroke-width="1px"></line><line x1="167.15039978027343" y1="0" x2="167.15039978027343" y2="5" style="visibility: inherit;" fill="rgb(0, 0, 0)" stroke="rgb(204, 204, 204)" stroke-width="1px"></line><line x1="195.00879974365233" y1="0" x2="195.00879974365233" y2="5" style="visibility: inherit;" fill="rgb(0, 0, 0)" stroke="rgb(204, 204, 204)" stroke-width="1px"></line><line x1="222.86719970703126" y1="0" x2="222.86719970703126" y2="5" style="visibility: inherit;" fill="rgb(0, 0, 0)" stroke="rgb(204, 204, 204)" stroke-width="1px"></line><line x1="250.72559967041016" y1="0" x2="250.72559967041016" y2="5" style="visibility: inherit;" fill="rgb(0, 0, 0)" stroke="rgb(204, 204, 204)" stroke-width="1px"></line><line x1="278.58399963378906" y1="0" x2="278.58399963378906" y2="5" style="visibility: inherit;" fill="rgb(0, 0, 0)" stroke="rgb(204, 204, 204)" stroke-width="1px"></line></g><g transform="translate(0, 8)"><text style="text-anchor: middle; visibility: hidden; font-family: &quot;Helvetica Neue&quot;, sans-serif; font-size: 12px; font-weight: 200;" x="0" y="0" dx="0em" dy="0.95em" fill="rgb(50, 49, 63)" stroke="none" stroke-width="1px">-10k</text><text style="text-anchor: middle; visibility: inherit; font-family: &quot;Helvetica Neue&quot;, sans-serif; font-size: 12px; font-weight: 200;" x="27.858399963378908" y="0" dx="0em" dy="0.95em" fill="rgb(50, 49, 63)" stroke="none" stroke-width="1px">0</text><text style="text-anchor: middle; visibility: hidden; font-family: &quot;Helvetica Neue&quot;, sans-serif; font-size: 12px; font-weight: 200;" x="55.716799926757815" y="0" dx="0em" dy="0.95em" fill="rgb(50, 49, 63)" stroke="none" stroke-width="1px">10k</text><text style="text-anchor: middle; visibility: inherit; font-family: &quot;Helvetica Neue&quot;, sans-serif; font-size: 12px; font-weight: 200;" x="83.57519989013672" y="0" dx="0em" dy="0.95em" fill="rgb(50, 49, 63)" stroke="none" stroke-width="1px">20k</text><text style="text-anchor: middle; visibility: hidden; font-family: &quot;Helvetica Neue&quot;, sans-serif; font-size: 12px; font-weight: 200;" x="111.43359985351563" y="0" dx="0em" dy="0.95em" fill="rgb(50, 49, 63)" stroke="none" stroke-width="1px">30k</text><text style="text-anchor: middle; visibility: inherit; font-family: &quot;Helvetica Neue&quot;, sans-serif; font-size: 12px; font-weight: 200;" x="139.29199981689453" y="0" dx="0em" dy="0.95em" fill="rgb(50, 49, 63)" stroke="none" stroke-width="1px">40k</text><text style="text-anchor: middle; visibility: hidden; font-family: &quot;Helvetica Neue&quot;, sans-serif; font-size: 12px; font-weight: 200;" x="167.15039978027343" y="0" dx="0em" dy="0.95em" fill="rgb(50, 49, 63)" stroke="none" stroke-width="1px">50k</text><text style="text-anchor: middle; visibility: inherit; font-family: &quot;Helvetica Neue&quot;, sans-serif; font-size: 12px; font-weight: 200;" x="195.00879974365233" y="0" dx="0em" dy="0.95em" fill="rgb(50, 49, 63)" stroke="none" stroke-width="1px">60k</text><text style="text-anchor: middle; visibility: hidden; font-family: &quot;Helvetica Neue&quot;, sans-serif; font-size: 12px; font-weight: 200;" x="222.86719970703126" y="0" dx="0em" dy="0.95em" fill="rgb(50, 49, 63)" stroke="none" stroke-width="1px">70k</text><text style="text-anchor: middle; visibility: inherit; font-family: &quot;Helvetica Neue&quot;, sans-serif; font-size: 12px; font-weight: 200;" x="250.72559967041016" y="0" dx="0em" dy="0.95em" fill="rgb(50, 49, 63)" stroke="none" stroke-width="1px">80k</text><text style="text-anchor: middle; visibility: hidden; font-family: &quot;Helvetica Neue&quot;, sans-serif; font-size: 12px; font-weight: 200;" x="278.58399963378906" y="0" dx="0em" dy="0.95em" fill="rgb(50, 49, 63)" stroke="none" stroke-width="1px">90k</text></g><line x1="0" y1="0" x2="278.58399963378906" y2="0" fill="rgb(0, 0, 0)" stroke="rgb(204, 204, 204)" stroke-width="1px"></line></g></g></g></g></svg>