<svg viewBox="0 0 330 200" xmlns="http://www.w3.org/2000/svg"><g><g><g><g><g><line x1="51.41600036621094" y1="177.9749994277954" x2="46.41600036621094" y2="177.9749994277954" style="visibility: inherit;" fill="rgb(0, 0, 0)" stroke="rgb(204, 204, 204)" stroke-width="1px"></line><line x1="51.41600036621094" y1="155.72812449932098" x2="46.41600036621094" y2="155.72812449932098" style="visibility: inherit;" fill="rgb(0, 0, 0)" stroke="rgb(204, 204, 204)" stroke-width="1px"></line><line x1="51.41600036621094" y1="133.48124957084656" x2="46.41600036621094" y2="133.48124957084656" style="visibility: inherit;" fill="rgb(0, 0, 0)" stroke="rgb(204, 204, 204)" stroke-width="1px"></line><line x1="51.41600036621094" y1="111.23437464237213" x2="46.41600036621094" y2="111.23437464237213" style="visibility: inherit;" fill="rgb(0, 0, 0)" stroke="rgb(204, 204, 204)" stroke-width="1px"></line><line x1="51.41600036621094" y1="88.9874997138977" x2="46.41600036621094" y2="88.9874997138977" style="visibility: inherit;" fill="rgb(0, 0, 0)" stroke="rgb(204, 204, 204)" stroke-width="1px"></line><line x1="51.41600036621094" y1="66.74062478542328" x2="46.41600036621094" y2="66.74062478542328" style="visibility: inherit;" fill="rgb(0, 0, 0)" stroke="rgb(204, 204, 204)" stroke-width="1px"></line><line x1="51.41600036621094" y1="44.49374985694885" x2="46.41600036621094" y2="44.49374985694885" style="visibility: inherit;" fill="rgb(0, 0, 0)" stroke="rgb(204, 204, 204)" stroke-width="1px"></line><line x1="51.41600036621094" y1="22.246874928474426" x2="46.41600036621094" y2="22.246874928474426" style="visibility: inherit;" fill="rgb(0, 0, 0)" stroke="rgb(204, 204, 204)" stroke-width="1px"></line><line x1="51.41600036621094" y1="0" x2="46.41600036621094" y2="0" style="visibility: inherit;" fill="rgb(0, 0, 0)" stroke="rgb(204, 204, 204)" stroke-width="1px"></line></g><g transform="translate(41.41600036621094, 0)"><text style="text-anchor: end; visibility: hidden; font-family: &quot;Helvetica Neue&quot;, sans-serif; font-size: 12px; font-weight: 200;" x="0" y="177.9749994277954" dx="0em" dy="0.3em" fill="rgb(50, 49, 63)" stroke="none" stroke-width="1px">-0.5</text><text style="text-anchor: end; visibility: inherit; font-family: &quot;Helvetica Neue&quot;, sans-serif; font-size: 12px; font-weight: 200;" x="0" y="155.72812449932098" dx="0em" dy="0.3em" fill="rgb(50, 49, 63)" stroke="none" stroke-width="1px">0</text><text style="text-anchor: end; visibility: hidden; font-family: &quot;Helvetica Neue&quot;, sans-serif; font-size: 12px; font-weight: 200;" x="0" y="133.48124957084656" dx="0em" dy="0.3em" fill="rgb(50, 49, 63)" stroke="none" stroke-width="1px">0.5</text><text style="text-anchor: end; visibility: inherit; font-family: &quot;Helvetica Neue&quot;, sans-serif; font-size: 12px; font-weight: 200;" x="0" y="111.23437464237213" dx="0em" dy="0.3em" fill="rgb(50, 49, 63)" stroke="none" stroke-width="1px">1</text><text style="text-anchor: end; visibility: hidden; font-family: &quot;Helvetica Neue&quot;, sans-serif; font-size: 12px; font-weight: 200;" x="0" y="88.9874997138977" dx="0em" dy="0.3em" fill="rgb(50, 49, 63)" stroke="none" stroke-width="1px">1.5</text><text style="text-anchor: end; visibility: inherit; font-family: &quot;Helvetica Neue&quot;, sans-serif; font-size: 12px; font-weight: 200;" x="0" y="66.74062478542328" dx="0em" dy="0.3em" fill="rgb(50, 49, 63)" stroke="none" stroke-width="1px">2</text><text style="text-anchor: end; visibility: hidden; font-family: &quot;Helvetica Neue&quot;, sans-serif; font-size: 12px; font-weight: 200;" x="0" y="44.49374985694885" dx="0em" dy="0.3em" fill="rgb(50, 49, 63)" stroke="none" stroke-width="1px">2.5</text><text style="text-anchor: end; visibility: inherit; font-family: &quot;Helvetica Neue&quot;, sans-serif; font-size: 12px; font-weight: 200;" x="0" y="22.246874928474426" dx="0em" dy="0.3em" fill="rgb(50, 49, 63)" stroke="none" stroke-width="1px">3</text><text style="text-anchor: end; visibility: hidden; font-family: &quot;Helvetica Neue&quot;, sans-serif; font-size: 12px; font-weight: 200;" x="0" y="0" dx="0em" dy="0.3em" fill="rgb(50, 49, 63)" stroke="none" stroke-width="1px">3.5</text></g><line x1="51.41600036621094" y1="0" x2="51.41600036621094" y2="177.9749994277954" fill="rgb(0, 0, 0)" stroke="rgb(204, 204, 204)" stroke-width="1px"></line></g></g><g transform="translate(51, 0)" clip-path="url(#clip_0)"><clipPath id="clip_0"><rect width="278" height="177"></rect></clipPath><g><g><g><line x1="0" y1="0" x2="0" y2="177.9749994277954" fill="rgb(0, 0, 0)" stroke="rgb(60, 60, 60)" stroke-width="1px" opacity="0.25"></line><line x1="23.215333302815754" y1="0" x2="23.215333302815754" y2="177.9749994277954" fill="rgb(0, 0, 0)" stroke="rgb(60, 60, 60)" stroke-width="1px" opacity="0.25"></line><line x1="46.43066660563151" y1="0" x2="46.43066660563151" y2="177.9749994277954" fill="rgb(0, 0, 0)" stroke="rgb(60, 60, 60)" stroke-width="1px" opacity="0.25"></line><line x1="69.64599990844727" y1="0" x2="69.64599990844727" y2="177.9749994277954" fill="rgb(0, 0, 0)" stroke="rgb(60, 60, 60)" stroke-width="1px" opacity="0.25"></line><line x1="92.86133321126302" y1="0" x2="92.86133321126302" y2="177.9749994277954" fill="rgb(0, 0, 0)" stroke="rgb(60, 60, 60)" stroke-width="1px" opacity="0.25"></line><line x1="116.07666651407878" y1="0" x2="116.07666651407878" y2="177.9749994277954" fill="rgb(0, 0, 0)" stroke="rgb(60, 60, 60)" stroke-width="1px" opacity="0.25"></line><line x1="139.29199981689453" y1="0" x2="139.29199981689453" y2="177.9749994277954" fill="rgb(0, 0, 0)" stroke="rgb(60, 60, 60)" stroke-width="1px" opacity="0.25"></line><line x1="162.5073331197103" y1="0" x2="162.5073331197103" y2="177.9749994277954" fill="rgb(0, 0, 0)" stroke="rgb(60, 60, 60)" stroke-width="1px" opacity="0.25"></line><line x1="185.72266642252603" y1="0" x2="185.72266642252603" y2="177.9749994277954" fill="rgb(0, 0, 0)" stroke="rgb(60, 60, 60)" stroke-width="1px" opacity="0.25"></line><line x1="208.9379997253418" y1="0" x2="208.9379997253418" y2="177.9749994277954" fill="rgb(0, 0, 0)" stroke="rgb(60, 60, 60)" stroke-width="1px" opacity="0.25"></line><line x1="232.15333302815756" y1="0" x2="232.15333302815756" y2="177.9749994277954" fill="rgb(0, 0, 0)" stroke="rgb(60, 60, 60)" stroke-width="1px" opacity="0.25"></line><line x1="255.3686663309733" y1="0" x2="255.3686663309733" y2="177.9749994277954" fill="rgb(0, 0, 0)" stroke="rgb(60, 60, 60)" stroke-width="1px" opacity="0.25"></line><line x1="278.58399963378906" y1="0" x2="278.58399963378906" y2="177.9749994277954" fill="rgb(0, 0, 0)" stroke="rgb(60, 60, 60)" stroke-width="1px" opacity="0.25"></line></g><g><line x1="0" y1="177.9749994277954" x2="278.58399963378906" y2="177.9749994277954" fill="rgb(0, 0, 0)" stroke="rgb(60, 60, 60)" stroke-width="1px" opacity="0.25"></line><line x1="0" y1="155.72812449932098" x2="278.58399963378906" y2="155.72812449932098" fill="rgb(0, 0, 0)" stroke="rgb(60, 60, 60)" stroke-width="1px" opacity="0.25"></line><line x1="0" y1="133.48124957084656" x2="278.58399963378906" y2="133.48124957084656" fill="rgb(0, 0, 0)" stroke="rgb(60, 60, 60)" stroke-width="1px" opacity="0.25"></line><line x1="0" y1="111.23437464237213" x2="278.58399963378906" y2="111.23437464237213" fill="rgb(0, 0, 0)" stroke="rgb(60, 60, 60)" stroke-width="1px" opacity="0.25"></line><line x1="0" y1="88.9874997138977" x2="278.58399963378906" y2="88.9874997138977" fill="rgb(0, 0, 0)" stroke="rgb(60, 60, 60)" stroke-width="1px" opacity="0.25"></line><line x1="0" y1="66.74062478542328" x2="278.58399963378906" y2="66.74062478542328" fill="rgb(0, 0, 0)" stroke="rgb(60, 60, 60)" stroke-width="1px" opacity="0.25"></line><line x1="0" y1="44.49374985694885" x2="278.58399963378906" y2="44.49374985694885" fill="rgb(0, 0, 0)" stroke="rgb(60, 60, 60)" stroke-width="1px" opacity="0.25"></line><line x1="0" y1="22.246874928474426" x2="278.58399963378906" y2="22.246874928474426" fill="rgb(0, 0, 0)" stroke="rgb(60, 60, 60)" stroke-width="1px" opacity="0.25"></line><line x1="0" y1="0" x2="278.58399963378906" y2="0" fill="rgb(0, 0, 0)" stroke="rgb(60, 60, 60)" stroke-width="1px" opacity="0.25"></line></g></g></g><g><g><line x1="0" y1="155.72812449932098" x2="278.58399963378906" y2="155.72812449932098" fill="rgb(0, 0, 0)" stroke="rgb(153, 153, 153)" stroke-width="1.5px"></line></g></g><g><g><line x1="23.215333302815754" y1="0" x2="23.215333302815754" y2="177.9749994277954" fill="rgb(0, 0, 0)" stroke="rgb(153, 153, 153)" stroke-width="1.5px"></line></g></g><g><g><g><g><g><path style="fill: none;" stroke="rgb(238, 51, 119)" stroke-width="2px" d="M27.858399963378908,-1.9879011537296947L29.019166628519695,3.055673753331689L30.179933293660483,5.525385864195812L31.34069995880127,10.352034985519026L32.50146662394206,13.186221454366034L33.66223328908285,17.401916163345447L34.82299995422363,15.868669137003508L35.983766619364424,23.43062628574063L37.14453328450521,23.996570374406645L38.305299949646,25.474676306598894L39.46606661478678,29.74841873916182L40.626833279927574,27.772472955402634L41.78759994506836,33.26584346327991L42.94836661020915,34.47852320910829L44.10913327534993,32.13158967148166L45.269899940490724,37.954279172583824L46.43066660563151,39.00121739186454L47.5914332707723,39.29093621108774L48.75219993591308,44.81226976709479L49.912966601053874,42.609479589857926L51.07373326619466,43.676530836169775L52.23449993133545,41.2148278684536L53.39526659647624,37.403462286737636L54.556033261617024,38.562677024002255L55.716799926757815,44.64259262186118L56.8775665918986,48.683762267171744L58.03833325703939,50.020620860271436L59.199099922180174,49.426109059688315L60.359866587320965,51.98009220786008L61.52063325246175,43.64856778804L62.68139991760254,54.213327737195755L63.842166582743324,51.85849113778738L65.00293324788412,54.14385505047272L66.1636999130249,57.172647785609854L67.3244665781657,53.72727352541341L68.48523324330647,51.4916617734749L69.64599990844727,50.01571990115309L70.80676657358805,44.86073834331063L71.96753323872885,49.954680683042795L73.12829990386963,51.59602462154044L74.28906656901042,56.700702395531835L75.4498332341512,56.01213885567762L76.610599899292,52.23014720426187L77.77136656443278,49.93701813557084L78.93213322957357,53.35412171167553L80.09289989471435,44.16526890651693L81.25366655985515,53.84579823586637L82.41443322499593,47.6947975145182L83.57519989013672,55.92111043534317L84.7359665552775,56.441513793500405L85.8967332204183,61.07635719660112L87.05749988555908,52.868619122997416L88.21826655069987,58.185491453794555L89.37903321584066,52.23413586363091L90.53979988098145,54.09696708661323L91.70056654612223,58.127263391888505L92.86133321126302,62.54687831111022L94.02209987640381,58.71424341547157L95.1828665415446,55.66504062547796L96.34363320668538,63.09705870875922L97.50439987182617,61.929452935428344L98.66516653696696,51.339572918756915L99.82593320210775,53.178249414655966L100.98669986724853,57.31284491917705L102.14746653238932,61.09909043337734L103.30823319753011,50.733625546897656L104.4689998626709,55.75180457489125L105.62976652781168,59.81369191102027L106.79053319295248,65.61909014943217L107.95129985809326,61.296189611773116L109.11206652323405,63.7966441025614L110.27283318837483,64.55446816640625L111.43359985351563,61.7749772499709L112.59436651865641,59.059697384495166L113.7551331837972,63.9295534462708L114.91589984893798,62.34808183085528L116.07666651407878,59.71070812071531L117.23743317921956,59.896403552244806L118.39819984436035,63.816502534313656L119.55896650950113,59.87047726634603L120.71973317464193,59.116928281558955L121.88049983978271,61.847929405505226L123.0412665049235,63.83622306028985L124.2020331700643,55.387563595914L125.36279983520508,60.196284966349765L126.52356650034586,60.44171481518532L127.68433316548665,62.3561334065497L128.84509983062745,67.7302737628888L130.00586649576823,64.19922288728259L131.16663316090902,65.03530317497166L132.3273998260498,60.66780603096299L133.4881664911906,64.89092643557626L134.6489331563314,62.55369934295675L135.80969982147215,64.44545895450125L136.97046648661293,63.97647323454015L138.13123315175375,62.00903517635004L139.29199981689453,59.85225248763322L140.45276648203532,65.801539491156L141.6135331471761,72.04573269270907L142.77429981231688,63.33524320028346L143.9350664774577,59.71222508425194L145.09583314259848,67.2457471227797L146.25659980773926,65.7214692759498L147.41736647288005,62.95999097549486L148.57813313802083,62.317901682171964L149.73889980316162,63.65183242956459L150.8996664683024,58.93835090970134L152.06043313344318,65.1197863750117L153.221199798584,67.67316485939614L154.38196646372478,62.60724921661347L155.54273312886556,66.3271196199837L156.70349979400635,58.49116491049392L157.86426645914713,66.99575047112933L159.02503312428792,71.14015850202372L160.1857997894287,64.4551335750985L161.3465664545695,67.52492675827114L162.5073331197103,60.097905107337795L163.66809978485108,70.46211823369634L164.82886644999186,58.386897535657965L165.98963311513265,70.25895120115405L167.15039978027343,73.36017098906282L168.31116644541422,67.17195692445242L169.471933110555,69.39628692309577L170.6326997756958,69.70022064538949L171.7934664408366,72.37776736890862L172.95423310597738,75.04342237127696L174.11499977111816,70.78035702822186L175.27576643625895,70.84292912207371L176.43653310139973,68.22624658241065L177.59729976654052,72.43649931730411L178.75806643168133,69.67346692483437L179.9188330968221,66.20577314518988L181.0795997619629,74.93184599030997L182.24036642710368,72.1533681509218L183.40113309224446,67.5553455900284L184.56189975738525,74.72423414852398L185.72266642252603,74.91050772349925L186.88343308766682,73.19189942193134L188.04419975280763,71.41404998141019L189.2049664179484,73.59313097330181L190.3657330830892,72.59578048865032L191.52649974822998,72.82551559935689L192.68726641337076,67.3559868785326L193.84803307851155,72.83820293075416L195.00879974365233,70.09192078600708L196.16956640879314,78.97781581744098L197.33033307393393,76.46226594824273L198.4910997390747,67.81979052375493L199.6518664042155,74.06653498216505L200.81263306935628,78.18911146789591L201.97339973449706,74.08929473928282L203.13416639963785,79.57839547217063L204.29493306477863,77.79267479427759L205.45569972991944,81.50454135856819L206.61646639506023,69.61942377282483L207.777233060201,77.68663586062613L208.9379997253418,78.22780995028492L210.09876639048258,77.18748060011833L211.25953305562336,80.92956974563873L212.42029972076415,81.06370432912772L213.58106638590496,79.34585981339643L214.74183305104575,81.35532730887417L215.90259971618653,82.23004773420084L217.0633663813273,81.67685462575182L218.2241330464681,85.6559242392901L219.38489971160888,81.18912963245185L220.54566637674967,86.68862633922706L221.70643304189045,87.51729153941889L222.86719970703126,88.01759778274993L224.02796637217205,86.84072049801335L225.18873303731283,86.10326405647851L226.3494997024536,86.92635468087664L227.5102663675944,87.49923118682369L228.67103303273518,90.16870511837516L229.83179969787597,88.49399859020826L230.99256636301678,85.05061865969634L232.15333302815756,92.50719457925243L233.31409969329835,85.29589469055091L234.47486635843913,91.2199396329869L235.6356330235799,93.17754925259877L236.7963996887207,93.57182186634665L237.95716635386148,92.94222895796187L239.11793301900227,94.26542427109527L240.27869968414308,94.82919899582254L241.43946634928386,97.09551599920704L242.60023301442465,94.30588900823147L243.76099967956543,95.65366867798124L244.9217663447062,95.23291285116204L246.082533009847,98.26451674250342L247.24329967498778,97.21496892161423L248.4040663401286,98.90028889046923L249.56483300526938,96.6595215841335L250.72559967041016,98.10726172525159L251.88636633555095,97.12360634497625L253.04713300069173,96.8262496673868L254.2078996658325,97.97704154417531" fill="none"></path></g><g><path style="fill: none;" stroke="rgb(204, 51, 17)" stroke-width="2px" d="M27.858399963378908,-0.7841746752084191L29.019166628519695,4.7375619899901835L30.179933293660483,7.180424907069607L31.34069995880127,12.003318748029415L32.50146662394206,14.60735108477337L33.66223328908285,18.554034057211425L34.82299995422363,18.260252321662847L35.983766619364424,24.299835784093318L37.14453328450521,25.288652022834185L38.305299949646,27.568446663794134L39.46606661478678,29.770961029478883L40.626833279927574,28.91648623289109L41.78759994506836,34.53419471008897L42.94836661020915,34.55127381004684L44.10913327534993,34.33519667523825L45.269899940490724,39.3671238482911L46.43066660563151,40.154099071567146L47.5914332707723,41.02503769618886L48.75219993591308,46.278271815403855L49.912966601053874,43.96048943720842L51.07373326619466,44.44122897254425L52.23449993133545,42.318965160388245L53.39526659647624,38.55581355960925L54.556033261617024,37.567877796207824L55.716799926757815,44.30847875088415L56.8775665918986,49.39294802461484L58.03833325703939,50.66011116012248L59.199099922180174,50.10449939652415L60.359866587320965,51.89823982570175L61.52063325246175,45.14716864018169L62.68139991760254,54.802673375245035L63.842166582743324,52.28456694512141L65.00293324788412,54.60085357605345L66.1636999130249,56.828912334718666L67.3244665781657,53.482798408873634L68.48523324330647,51.54831983116122L69.64599990844727,51.46363507652541L70.80676657358805,44.652373323824634L71.96753323872885,50.75780149025417L73.12829990386963,52.482270787304515L74.28906656901042,56.8879360068712L75.4498332341512,56.216345485608656L76.610599899292,53.58614287582367L77.77136656443278,48.6367363975362L78.93213322957357,53.061835723390345L80.09289989471435,45.53572346829151L81.25366655985515,53.54690337846705L82.41443322499593,48.09115993118019L83.57519989013672,55.38164425568016L84.7359665552775,56.34280508225322L85.8967332204183,60.20676580533012L87.05749988555908,51.02820289269272L88.21826655069987,57.176212119514105L89.37903321584066,53.5988089909477L90.53979988098145,54.0483393883481L91.70056654612223,58.843938493785174L92.86133321126302,62.369945200428674L94.02209987640381,57.59721723754387L95.1828665415446,55.58777095833938L96.34363320668538,62.66995391217307L97.50439987182617,61.1825658604385L98.66516653696696,52.16734703547269L99.82593320210775,53.275716973918634L100.98669986724853,56.912398369916446L102.14746653238932,59.87747863651509L103.30823319753011,49.44083315331659L104.4689998626709,55.05020363513131L105.62976652781168,57.97099493134232L106.79053319295248,65.64835799836618L107.95129985809326,60.49547685157444L109.11206652323405,64.22116051381232L110.27283318837483,63.45734285277729L111.43359985351563,60.78685054011032L112.59436651865641,59.93941954623807L113.7551331837972,62.71225916101281L114.91589984893798,60.66987461760385L116.07666651407878,58.75181743537888L117.23743317921956,59.76257130064948L118.39819984436035,63.984535418371195L119.55896650950113,58.619289984587795L120.71973317464193,58.82361330402165L121.88049983978271,61.65554023976864L123.0412665049235,64.54817754139071L124.2020331700643,55.37627653855054L125.36279983520508,58.02290054382297L126.52356650034586,59.8089925064977L127.68433316548665,59.83710406854016L128.84509983062745,66.27996645270872L130.00586649576823,62.88235002357459L131.16663316090902,63.116895924238236L132.3273998260498,58.91727254223781L133.4881664911906,62.80339366271346L134.6489331563314,60.77090651077077L135.80969982147215,63.281269001161945L136.97046648661293,62.22704299202343L138.13123315175375,63.057172115068795L139.29199981689453,57.03232335440322L140.45276648203532,63.33834077617644L141.6135331471761,71.45292349805342L142.77429981231688,59.56862273882979L143.9350664774577,59.7843922376764L145.09583314259848,65.4068849844898L146.25659980773926,64.45858121949993L147.41736647288005,59.627476680796406L148.57813313802083,62.42632744656288L149.73889980316162,62.839684098089776L150.8996664683024,56.78627823364371L152.06043313344318,62.789221192189416L153.221199798584,64.59059947973327L154.38196646372478,61.17953193336524L155.54273312886556,62.55316893612576L156.70349979400635,56.6531991597484L157.86426645914713,66.22249156850268L159.02503312428792,68.87075983495117L160.1857997894287,62.20940166082471L161.3465664545695,65.3105737121187L162.5073331197103,56.8230884677144L163.66809978485108,68.68440669895125L164.82886644999186,53.94994892119951L165.98963311513265,68.16650686103628L167.15039978027343,70.6228739360327L168.31116644541422,65.58580181671925L169.471933110555,67.12198199283657L170.6326997756958,67.55317622608965L171.7934664408366,71.63813095529841L172.95423310597738,71.65533735289571L174.11499977111816,68.47116193662015L175.27576643625895,68.68076280402235L176.43653310139973,65.9894838476489L177.59729976654052,69.73455387955946L178.75806643168133,66.87803728312778L179.9188330968221,63.39549741628389L181.0795997619629,72.54360436868586L182.24036642710368,71.01524238925734L183.40113309224446,66.61640350560549L184.56189975738525,71.58038556360856L185.72266642252603,73.20122927808845L186.88343308766682,70.11828200550727L188.04419975280763,68.97009442625892L189.2049664179484,70.80416699086499L190.3657330830892,69.63782888986017L191.52649974822998,70.42362660997142L192.68726641337076,65.31405318092999L193.84803307851155,70.13547249089964L195.00879974365233,69.10219755158522L196.16956640879314,76.25688711921521L197.33033307393393,73.10399509783142L198.4910997390747,65.35018449425701L199.6518664042155,71.92952055603922L200.81263306935628,74.81421766740138L201.97339973449706,69.47962974844918L203.13416639963785,76.0809936059224L204.29493306477863,74.59928621134773L205.45569972991944,77.4437943971258L206.61646639506023,66.1570181492853L207.777233060201,73.52813492023233L208.9379997253418,74.69179446674065L210.09876639048258,73.79086663989477L211.25953305562336,76.19816047488803L212.42029972076415,76.1622890609082L213.58106638590496,74.0287806239352L214.74183305104575,76.193111001857L215.90259971618653,78.00445032968685L217.0633663813273,77.42485887325947L218.2241330464681,81.25195101751427L219.38489971160888,76.31832944651705L220.54566637674967,81.98480883182444L221.70643304189045,81.32366732513239L222.86719970703126,82.5368456533819L224.02796637217205,81.14939685674241L225.18873303731283,80.64836926012123L226.3494997024536,81.03034704352677L227.5102663675944,81.16317152214322L228.67103303273518,83.92562046709887L229.83179969787597,83.02821454161077L230.99256636301678,78.37757031901486L232.15333302815756,84.96815630968237L233.31409969329835,79.10822164090811L234.47486635843913,84.15505854998008L235.6356330235799,86.850607281343L236.7963996887207,86.2055158853567L237.95716635386148,85.53638645178995L239.11793301900227,86.53673373503653L240.27869968414308,86.47120727513607L241.43946634928386,89.40633546798873L242.60023301442465,86.06210979046202L243.76099967956543,87.27119337797629L244.9217663447062,86.90265079959971L246.082533009847,89.749370781863L247.24329967498778,88.34709181022905L248.4040663401286,89.766571875392L249.56483300526938,87.76931964923196L250.72559967041016,89.38714004477521L251.88636633555095,88.11791893076332L253.04713300069173,87.84489731857968L254.2078996658325,89.16828357817224" fill="none"></path></g></g></g></g></g></g><g transform="translate(51, 177)" clip-path="url(#clip_1)"><clipPath id="clip_1"><rect width="278" height="22"></rect></clipPath><g><g><line x1="0" y1="0" x2="0" y2="5" style="visibility: inherit;" fill="rgb(0, 0, 0)" stroke="rgb(204, 204, 204)" stroke-width="1px"></line><line x1="23.215333302815754" y1="0" x2="23.215333302815754" y2="5" style="visibility: inherit;" fill="rgb(0, 0, 0)" stroke="rgb(204, 204, 204)" stroke-width="1px"></line><line x1="46.43066660563151" y1="0" x2="46.43066660563151" y2="5" style="visibility: inherit;" fill="rgb(0, 0, 0)" stroke="rgb(204, 204, 204)" stroke-width="1px"></line><line x1="69.64599990844727" y1="0" x2="69.64599990844727" y2="5" style="visibility: inherit;" fill="rgb(0, 0, 0)" stroke="rgb(204, 204, 204)" stroke-width="1px"></line><line x1="92.86133321126302" y1="0" x2="92.86133321126302" y2="5" style="visibility: inherit;" fill="rgb(0, 0, 0)" stroke="rgb(204, 204, 204)" stroke-width="1px"></line><line x1="116.07666651407878" y1="0" x2="116.07666651407878" y2="5" style="visibility: inherit;" fill="rgb(0, 0, 0)" stroke="rgb(204, 204, 204)" stroke-width="1px"></line><line x1="139.29199981689453" y1="0" x2="139.29199981689453" y2="5" style="visibility: inherit;" fill="rgb(0, 0, 0)" stroke="rgb(204, 204, 204)" stroke-width="1px"></line><line x1="162.5073331197103" y1="0" x2="162.5073331197103" y2="5" style="visibility: inherit;" fill="rgb(0, 0, 0)" stroke="rgb(204, 204, 204)" stroke-width="1px"></line><line x1="185.72266642252603" y1="0" x2="185.72266642252603" y2="5" style="visibility: inherit;" fill="rgb(0, 0, 0)" stroke="rgb(204, 204, 204)" stroke-width="1px"></line><line x1="208.9379997253418" y1="0" x2="208.9379997253418" y2="5" style="visibility: inherit;" fill="rgb(0, 0, 0)" stroke="rgb(204, 204, 204)" stroke-width="1px"></line><line x1="232.15333302815756" y1="0" x2="232.15333302815756" y2="5" style="visibility: inherit;" fill="rgb(0, 0, 0)" stroke="rgb(204, 204, 204)" stroke-width="1px"></line><line x1="255.3686663309733" y1="0" x2="255.3686663309733" y2="5" style="visibility: inherit;" fill="rgb(0, 0, 0)" stroke="rgb(204, 204, 204)" stroke-width="1px"></line><line x1="278.58399963378906" y1="0" x2="278.58399963378906" y2="5" style="visibility: inherit;" fill="rgb(0, 0, 0)" stroke="rgb(204, 204, 204)" stroke-width="1px"></line></g><g transform="translate(0, 8)"><text style="text-anchor: middle; visibility: hidden; font-family: &quot;Helvetica Neue&quot;, sans-serif; font-size: 12px; font-weight: 200;" x="0" y="0" dx="0em" dy="0.95em" fill="rgb(50, 49, 63)" stroke="none" stroke-width="1px">-20</text><text style="text-anchor: middle; visibility: inherit; font-family: &quot;Helvetica Neue&quot;, sans-serif; font-size: 12px; font-weight: 200;" x="23.215333302815754" y="0" dx="0em" dy="0.95em" fill="rgb(50, 49, 63)" stroke="none" stroke-width="1px">0</text><text style="text-anchor: middle; visibility: hidden; font-family: &quot;Helvetica Neue&quot;, sans-serif; font-size: 12px; font-weight: 200;" x="46.43066660563151" y="0" dx="0em" dy="0.95em" fill="rgb(50, 49, 63)" stroke="none" stroke-width="1px">20</text><text style="text-anchor: middle; visibility: inherit; font-family: &quot;Helvetica Neue&quot;, sans-serif; font-size: 12px; font-weight: 200;" x="69.64599990844727" y="0" dx="0em" dy="0.95em" fill="rgb(50, 49, 63)" stroke="none" stroke-width="1px">40</text><text style="text-anchor: middle; visibility: hidden; font-family: &quot;Helvetica Neue&quot;, sans-serif; font-size: 12px; font-weight: 200;" x="92.86133321126302" y="0" dx="0em" dy="0.95em" fill="rgb(50, 49, 63)" stroke="none" stroke-width="1px">60</text><text style="text-anchor: middle; visibility: inherit; font-family: &quot;Helvetica Neue&quot;, sans-serif; font-size: 12px; font-weight: 200;" x="116.07666651407878" y="0" dx="0em" dy="0.95em" fill="rgb(50, 49, 63)" stroke="none" stroke-width="1px">80</text><text style="text-anchor: middle; visibility: hidden; font-family: &quot;Helvetica Neue&quot;, sans-serif; font-size: 12px; font-weight: 200;" x="139.29199981689453" y="0" dx="0em" dy="0.95em" fill="rgb(50, 49, 63)" stroke="none" stroke-width="1px">100</text><text style="text-anchor: middle; visibility: inherit; font-family: &quot;Helvetica Neue&quot;, sans-serif; font-size: 12px; font-weight: 200;" x="162.5073331197103" y="0" dx="0em" dy="0.95em" fill="rgb(50, 49, 63)" stroke="none" stroke-width="1px">120</text><text style="text-anchor: middle; visibility: hidden; font-family: &quot;Helvetica Neue&quot;, sans-serif; font-size: 12px; font-weight: 200;" x="185.72266642252603" y="0" dx="0em" dy="0.95em" fill="rgb(50, 49, 63)" stroke="none" stroke-width="1px">140</text><text style="text-anchor: middle; visibility: inherit; font-family: &quot;Helvetica Neue&quot;, sans-serif; font-size: 12px; font-weight: 200;" x="208.9379997253418" y="0" dx="0em" dy="0.95em" fill="rgb(50, 49, 63)" stroke="none" stroke-width="1px">160</text><text style="text-anchor: middle; visibility: hidden; font-family: &quot;Helvetica Neue&quot;, sans-serif; font-size: 12px; font-weight: 200;" x="232.15333302815756" y="0" dx="0em" dy="0.95em" fill="rgb(50, 49, 63)" stroke="none" stroke-width="1px">180</text><text style="text-anchor: middle; visibility: inherit; font-family: &quot;Helvetica Neue&quot;, sans-serif; font-size: 12px; font-weight: 200;" x="255.3686663309733" y="0" dx="0em" dy="0.95em" fill="rgb(50, 49, 63)" stroke="none" stroke-width="1px">200</text><text style="text-anchor: middle; visibility: hidden; font-family: &quot;Helvetica Neue&quot;, sans-serif; font-size: 12px; font-weight: 200;" x="278.58399963378906" y="0" dx="0em" dy="0.95em" fill="rgb(50, 49, 63)" stroke="none" stroke-width="1px">220</text></g><line x1="0" y1="0" x2="278.58399963378906" y2="0" fill="rgb(0, 0, 0)" stroke="rgb(204, 204, 204)" stroke-width="1px"></line></g></g></g></g></svg>