<svg viewBox="0 0 330 200" xmlns="http://www.w3.org/2000/svg"><g><g><g><g><g><line x1="51.41600036621094" y1="177.9749994277954" x2="46.41600036621094" y2="177.9749994277954" style="visibility: inherit;" fill="rgb(0, 0, 0)" stroke="rgb(204, 204, 204)" stroke-width="1px"></line><line x1="51.41600036621094" y1="160.17749948501586" x2="46.41600036621094" y2="160.17749948501586" style="visibility: inherit;" fill="rgb(0, 0, 0)" stroke="rgb(204, 204, 204)" stroke-width="1px"></line><line x1="51.41600036621094" y1="142.37999954223633" x2="46.41600036621094" y2="142.37999954223633" style="visibility: inherit;" fill="rgb(0, 0, 0)" stroke="rgb(204, 204, 204)" stroke-width="1px"></line><line x1="51.41600036621094" y1="124.58249959945678" x2="46.41600036621094" y2="124.58249959945678" style="visibility: inherit;" fill="rgb(0, 0, 0)" stroke="rgb(204, 204, 204)" stroke-width="1px"></line><line x1="51.41600036621094" y1="106.78499965667724" x2="46.41600036621094" y2="106.78499965667724" style="visibility: inherit;" fill="rgb(0, 0, 0)" stroke="rgb(204, 204, 204)" stroke-width="1px"></line><line x1="51.41600036621094" y1="88.9874997138977" x2="46.41600036621094" y2="88.9874997138977" style="visibility: inherit;" fill="rgb(0, 0, 0)" stroke="rgb(204, 204, 204)" stroke-width="1px"></line><line x1="51.41600036621094" y1="71.18999977111817" x2="46.41600036621094" y2="71.18999977111817" style="visibility: inherit;" fill="rgb(0, 0, 0)" stroke="rgb(204, 204, 204)" stroke-width="1px"></line><line x1="51.41600036621094" y1="53.39249982833863" x2="46.41600036621094" y2="53.39249982833863" style="visibility: inherit;" fill="rgb(0, 0, 0)" stroke="rgb(204, 204, 204)" stroke-width="1px"></line><line x1="51.41600036621094" y1="35.594999885559105" x2="46.41600036621094" y2="35.594999885559105" style="visibility: inherit;" fill="rgb(0, 0, 0)" stroke="rgb(204, 204, 204)" stroke-width="1px"></line><line x1="51.41600036621094" y1="17.797499942779524" x2="46.41600036621094" y2="17.797499942779524" style="visibility: inherit;" fill="rgb(0, 0, 0)" stroke="rgb(204, 204, 204)" stroke-width="1px"></line><line x1="51.41600036621094" y1="0" x2="46.41600036621094" y2="0" style="visibility: inherit;" fill="rgb(0, 0, 0)" stroke="rgb(204, 204, 204)" stroke-width="1px"></line></g><g transform="translate(41.41600036621094, 0)"><text style="text-anchor: end; visibility: hidden; font-family: &quot;Helvetica Neue&quot;, sans-serif; font-size: 12px; font-weight: 200;" x="0" y="177.9749994277954" dx="0em" dy="0.3em" fill="rgb(50, 49, 63)" stroke="none" stroke-width="1px">-0.1</text><text style="text-anchor: end; visibility: inherit; font-family: &quot;Helvetica Neue&quot;, sans-serif; font-size: 12px; font-weight: 200;" x="0" y="160.17749948501586" dx="0em" dy="0.3em" fill="rgb(50, 49, 63)" stroke="none" stroke-width="1px">0</text><text style="text-anchor: end; visibility: hidden; font-family: &quot;Helvetica Neue&quot;, sans-serif; font-size: 12px; font-weight: 200;" x="0" y="142.37999954223633" dx="0em" dy="0.3em" fill="rgb(50, 49, 63)" stroke="none" stroke-width="1px">0.1</text><text style="text-anchor: end; visibility: inherit; font-family: &quot;Helvetica Neue&quot;, sans-serif; font-size: 12px; font-weight: 200;" x="0" y="124.58249959945678" dx="0em" dy="0.3em" fill="rgb(50, 49, 63)" stroke="none" stroke-width="1px">0.2</text><text style="text-anchor: end; visibility: hidden; font-family: &quot;Helvetica Neue&quot;, sans-serif; font-size: 12px; font-weight: 200;" x="0" y="106.78499965667724" dx="0em" dy="0.3em" fill="rgb(50, 49, 63)" stroke="none" stroke-width="1px">0.3</text><text style="text-anchor: end; visibility: inherit; font-family: &quot;Helvetica Neue&quot;, sans-serif; font-size: 12px; font-weight: 200;" x="0" y="88.9874997138977" dx="0em" dy="0.3em" fill="rgb(50, 49, 63)" stroke="none" stroke-width="1px">0.4</text><text style="text-anchor: end; visibility: hidden; font-family: &quot;Helvetica Neue&quot;, sans-serif; font-size: 12px; font-weight: 200;" x="0" y="71.18999977111817" dx="0em" dy="0.3em" fill="rgb(50, 49, 63)" stroke="none" stroke-width="1px">0.5</text><text style="text-anchor: end; visibility: inherit; font-family: &quot;Helvetica Neue&quot;, sans-serif; font-size: 12px; font-weight: 200;" x="0" y="53.39249982833863" dx="0em" dy="0.3em" fill="rgb(50, 49, 63)" stroke="none" stroke-width="1px">0.6</text><text style="text-anchor: end; visibility: hidden; font-family: &quot;Helvetica Neue&quot;, sans-serif; font-size: 12px; font-weight: 200;" x="0" y="35.594999885559105" dx="0em" dy="0.3em" fill="rgb(50, 49, 63)" stroke="none" stroke-width="1px">0.7</text><text style="text-anchor: end; visibility: inherit; font-family: &quot;Helvetica Neue&quot;, sans-serif; font-size: 12px; font-weight: 200;" x="0" y="17.797499942779524" dx="0em" dy="0.3em" fill="rgb(50, 49, 63)" stroke="none" stroke-width="1px">0.8</text><text style="text-anchor: end; visibility: hidden; font-family: &quot;Helvetica Neue&quot;, sans-serif; font-size: 12px; font-weight: 200;" x="0" y="0" dx="0em" dy="0.3em" fill="rgb(50, 49, 63)" stroke="none" stroke-width="1px">0.9</text></g><line x1="51.41600036621094" y1="0" x2="51.41600036621094" y2="177.9749994277954" fill="rgb(0, 0, 0)" stroke="rgb(204, 204, 204)" stroke-width="1px"></line></g></g><g transform="translate(51, 0)" clip-path="url(#clip_0)"><clipPath id="clip_0"><rect width="278" height="177"></rect></clipPath><g><g><g><line x1="0" y1="0" x2="0" y2="177.9749994277954" fill="rgb(0, 0, 0)" stroke="rgb(60, 60, 60)" stroke-width="1px" opacity="0.25"></line><line x1="34.82299995422363" y1="0" x2="34.82299995422363" y2="177.9749994277954" fill="rgb(0, 0, 0)" stroke="rgb(60, 60, 60)" stroke-width="1px" opacity="0.25"></line><line x1="69.64599990844727" y1="0" x2="69.64599990844727" y2="177.9749994277954" fill="rgb(0, 0, 0)" stroke="rgb(60, 60, 60)" stroke-width="1px" opacity="0.25"></line><line x1="104.4689998626709" y1="0" x2="104.4689998626709" y2="177.9749994277954" fill="rgb(0, 0, 0)" stroke="rgb(60, 60, 60)" stroke-width="1px" opacity="0.25"></line><line x1="139.29199981689453" y1="0" x2="139.29199981689453" y2="177.9749994277954" fill="rgb(0, 0, 0)" stroke="rgb(60, 60, 60)" stroke-width="1px" opacity="0.25"></line><line x1="174.11499977111816" y1="0" x2="174.11499977111816" y2="177.9749994277954" fill="rgb(0, 0, 0)" stroke="rgb(60, 60, 60)" stroke-width="1px" opacity="0.25"></line><line x1="208.9379997253418" y1="0" x2="208.9379997253418" y2="177.9749994277954" fill="rgb(0, 0, 0)" stroke="rgb(60, 60, 60)" stroke-width="1px" opacity="0.25"></line><line x1="243.76099967956543" y1="0" x2="243.76099967956543" y2="177.9749994277954" fill="rgb(0, 0, 0)" stroke="rgb(60, 60, 60)" stroke-width="1px" opacity="0.25"></line><line x1="278.58399963378906" y1="0" x2="278.58399963378906" y2="177.9749994277954" fill="rgb(0, 0, 0)" stroke="rgb(60, 60, 60)" stroke-width="1px" opacity="0.25"></line></g><g><line x1="0" y1="177.9749994277954" x2="278.58399963378906" y2="177.9749994277954" fill="rgb(0, 0, 0)" stroke="rgb(60, 60, 60)" stroke-width="1px" opacity="0.25"></line><line x1="0" y1="160.17749948501586" x2="278.58399963378906" y2="160.17749948501586" fill="rgb(0, 0, 0)" stroke="rgb(60, 60, 60)" stroke-width="1px" opacity="0.25"></line><line x1="0" y1="142.37999954223633" x2="278.58399963378906" y2="142.37999954223633" fill="rgb(0, 0, 0)" stroke="rgb(60, 60, 60)" stroke-width="1px" opacity="0.25"></line><line x1="0" y1="124.58249959945678" x2="278.58399963378906" y2="124.58249959945678" fill="rgb(0, 0, 0)" stroke="rgb(60, 60, 60)" stroke-width="1px" opacity="0.25"></line><line x1="0" y1="106.78499965667724" x2="278.58399963378906" y2="106.78499965667724" fill="rgb(0, 0, 0)" stroke="rgb(60, 60, 60)" stroke-width="1px" opacity="0.25"></line><line x1="0" y1="88.9874997138977" x2="278.58399963378906" y2="88.9874997138977" fill="rgb(0, 0, 0)" stroke="rgb(60, 60, 60)" stroke-width="1px" opacity="0.25"></line><line x1="0" y1="71.18999977111817" x2="278.58399963378906" y2="71.18999977111817" fill="rgb(0, 0, 0)" stroke="rgb(60, 60, 60)" stroke-width="1px" opacity="0.25"></line><line x1="0" y1="53.39249982833863" x2="278.58399963378906" y2="53.39249982833863" fill="rgb(0, 0, 0)" stroke="rgb(60, 60, 60)" stroke-width="1px" opacity="0.25"></line><line x1="0" y1="35.594999885559105" x2="278.58399963378906" y2="35.594999885559105" fill="rgb(0, 0, 0)" stroke="rgb(60, 60, 60)" stroke-width="1px" opacity="0.25"></line><line x1="0" y1="17.797499942779524" x2="278.58399963378906" y2="17.797499942779524" fill="rgb(0, 0, 0)" stroke="rgb(60, 60, 60)" stroke-width="1px" opacity="0.25"></line><line x1="0" y1="0" x2="278.58399963378906" y2="0" fill="rgb(0, 0, 0)" stroke="rgb(60, 60, 60)" stroke-width="1px" opacity="0.25"></line></g></g></g><g><g><line x1="0" y1="160.17749948501586" x2="278.58399963378906" y2="160.17749948501586" fill="rgb(0, 0, 0)" stroke="rgb(153, 153, 153)" stroke-width="1.5px"></line></g></g><g><g><line x1="34.82299995422363" y1="0" x2="34.82299995422363" y2="177.9749994277954" fill="rgb(0, 0, 0)" stroke="rgb(153, 153, 153)" stroke-width="1.5px"></line></g></g><g><g><g><g><g><path style="fill: none;" stroke="rgb(51, 187, 238)" stroke-width="2px" d="M34.82299995422363,158.12366793343347L35.51945995330811,130.47347314557373L36.21591995239258,121.70642372072554L36.91237995147705,112.68664870108152L37.608839950561524,109.2268155506723L38.305299949646,103.21838288142585L39.001759948730474,103.81281512098433L39.69821994781494,98.40949708487248L40.39467994689941,109.7714213725276L41.09113994598388,96.33786590880275L41.78759994506836,95.3874829490354L42.48405994415283,91.12319767026902L43.18051994323731,102.30003119018197L43.876979942321775,93.40839715683676L44.57343994140625,101.6557619247837L45.269899940490724,94.76456786265278L45.9663599395752,94.19860786178184L46.66281993865967,92.8922688777373L47.35927993774414,89.54989962411905L48.05573993682861,90.4824874347067L48.75219993591308,87.20419132627201L49.44865993499756,102.64885854665066L50.14511993408203,92.50784591884089L50.8415799331665,98.27067370499755L51.538039932250975,94.35522639083648L52.23449993133545,93.25533765761806L52.930959930419924,89.83465913947249L53.6274199295044,89.77059129835725L54.323879928588866,84.48829088480402L55.02033992767334,80.98930310213113L55.716799926757815,99.22106196883321L56.41325992584229,86.47449473667454L57.10971992492676,105.48578191474557L57.806179924011225,86.5563630310378L58.5026399230957,101.78746194091845L59.199099922180174,86.38550307857109L59.89555992126465,89.97704154918337L60.592019920349124,82.62311526362872L61.28847991943359,86.59195863346552L61.984939918518066,98.0535463646636L62.68139991760254,93.67892055284644L63.377859916687015,91.61797177035284L64.07431991577148,96.83619903872251L64.77077991485596,87.59573764890861L65.46723991394043,88.12610204735184L66.1636999130249,89.95924109593535L66.86015991210937,90.5501196097262L67.55661991119385,92.67870056723929L68.25307991027832,98.72985220265365L68.9495399093628,84.30675914689779L69.64599990844727,96.04954736361337L70.34245990753173,98.11405517594291L71.03891990661621,87.01553622462559L71.73537990570068,101.75542536832667L72.43183990478516,99.06800246961451L73.12829990386963,113.62280084557342L73.8247599029541,90.36502884198403L74.52121990203858,93.85333423108078L75.21767990112305,85.68428403172946L75.91413990020753,78.93191334947348L76.610599899292,91.3937210662787L77.30705989837647,96.537198099957L78.00351989746095,82.0927508651855L78.6999798965454,91.13388006384515L79.39643989562988,91.81730396150708L80.09289989471435,84.1714947968588L80.78935989379882,89.68516397415804L81.4858198928833,84.44201819286847L82.18227989196777,87.40352351742625L82.87873989105225,82.92566992816187L83.57519989013672,88.446457165133L84.27165988922118,86.641790355237L84.96811988830567,95.1489961256175L85.66457988739013,85.73411575350094L86.36103988647461,85.39952451637602L87.05749988555908,80.88963965858817L87.75395988464355,85.86225673979975L88.45041988372803,105.76342337042713L89.1468798828125,99.40615804064369L89.84333988189698,94.95678199413514L90.53979988098145,87.52810547388911L91.23625988006592,59.45432431000616L91.9327198791504,59.322624293871414L92.62917987823486,56.11195505638791L93.32563987731935,55.81651845152665L94.02209987640381,54.18627062393331L94.71855987548828,52.56669458177949L95.41501987457276,53.025867775367274L96.11147987365722,51.72309312522698L96.8079398727417,52.481267257580285L97.50439987182617,51.31731068324662L98.20085987091063,51.224765299375534L98.89731986999512,50.15335410891295L99.59377986907958,50.86169121542646L100.29023986816406,48.75446974099734L100.98669986724853,51.224765299375534L101.683159866333,48.02833218123581L102.37961986541748,50.16047216858483L103.07607986450195,48.199186829634215L103.77253986358643,49.356025344296L104.4689998626709,48.55869657967904L105.16545986175537,48.548024794239524L105.86191986083985,48.22766967645836L106.55837985992432,47.83612335382176L107.2548398590088,48.09952338609125L107.95129985809326,47.39830433924962L108.64775985717773,46.82166724887085L109.34421985626221,50.58049072990896L110.04067985534668,48.74023362165357L110.73713985443116,48.84346139910079L111.43359985351563,47.04234831497243L112.1300598526001,49.299070258784326L112.82651985168458,47.94290485703661L113.52297985076903,46.3162107552109L114.21943984985352,47.6261140731597L114.91589984893798,49.42009848947956L115.61235984802245,47.77916826831009L116.30881984710693,46.78606634237482L117.0052798461914,47.821887234478L117.70173984527588,45.41566482128334L118.39819984436035,47.90019649900532L119.09465984344482,39.321799523769386L119.7911198425293,39.008562465660106L120.48757984161377,38.342933717177885L121.18403984069825,38.068851291332265L121.88049983978271,37.833923497750305L122.57695983886718,37.485096141281616L123.27341983795166,37.61679615741636L123.96987983703613,37.06151324605324L124.66633983612061,37.086431758973134L125.36279983520508,37.047277126709474L126.05925983428955,36.99388637510205L126.75571983337403,36.897776657326716L127.4521798324585,36.39944883147527L128.14863983154297,36.28910299435617L128.84509983062745,36.04705714110233L129.54155982971193,36.3175752330437L130.23801982879638,36.08264743946174L130.93447982788086,35.98298399591877L131.63093982696532,35.77653904916096L132.3273998260498,35.85484831368828L133.02385982513428,35.719583963649285L133.72031982421873,35.562965434594645L134.41677982330322,35.64839275879385L135.1132398223877,35.07530939418271L135.80969982147215,35.08242745385459L136.50615982055663,35.25684643615725L137.20261981964111,34.99700012965539L137.8990798187256,35.03260103615142L138.59553981781005,35.683983057153256L139.29199981689453,34.858182053848765L139.98845981597898,34.979210284543996L140.68491981506347,34.975645950639745L141.38137981414795,34.705127858698376L142.07783981323243,34.83326354092887L142.77429981231688,34.544944995739485L143.47075981140136,34.6481727731867L144.16721981048582,34.70868158446601L144.86367980957033,34.71579964413789L145.56013980865478,33.954071786016954L146.25659980773926,34.49511857803631L146.95305980682372,34.27798062956575L147.6495198059082,34.61613620059492L148.34597980499268,34.16408106667902L149.04243980407716,34.188999579598914L149.73889980316162,34.06441762313605L150.4353598022461,34.13560882799149L151.13181980133055,33.98966208437636L151.82827980041506,33.690671753747466L152.5247397994995,34.05373522955992L153.221199798584,33.43437917301324L153.91765979766845,33.601680095644014L154.61411979675293,33.09266987621643L155.3105797958374,33.34539812304641L156.0070397949219,33.299125431110866L156.70349979400635,34.17476346025515L157.3999597930908,33.59811576173976L158.09641979217528,33.47709813918115L158.79287979125976,33.4984523181968L159.48933979034425,33.09266987621643L160.1857997894287,33.651517121483806L160.88225978851318,33.15674302139999L161.57871978759763,33.00724255201723L162.27517978668214,33.28844303753473L162.9716397857666,33.15317868749574L163.66809978485108,33.299125431110866L164.36455978393553,33.099787935888315L165.06101978302001,32.48756054715014L165.7574797821045,33.42370738757373L166.45393978118898,33.26352452461484L167.15039978027343,33.26708885851909L167.8468597793579,32.590777716460735L168.54331977844237,33.0891161504488L169.23977977752688,32.96096986008169L169.93623977661133,32.861306416538724L170.6326997756958,32.48044248747826L171.32915977478027,32.704687887484084L172.02561977386475,32.241950359992046L172.72207977294923,31.98210405349019L173.4185397720337,32.25975081324006L174.11499977111816,32.60502444394112L174.81145977020262,31.59768639866209L175.5079197692871,31.59768639866209L176.20437976837158,31.71513968731645L176.90083976745606,31.259530827632915L177.59729976654052,31.583439671181708L178.293759765625,31.97855032772256L178.99021976470945,30.96764794853928L179.68667976379396,31.66531326961328L180.38313976287841,31.380548450191526L181.0795997619629,31.27733128088093L181.77605976104735,31.71158596154882L182.47251976013183,31.04952154697085L183.1689797592163,31.4375035357032L183.8654397583008,31.39834890343954L184.56189975738525,31.619040577677737L185.25835975646973,30.992566461459177L185.95481975555418,31.24529470828915L186.6512797546387,31.145620656609566L187.34773975372315,31.530048919574284L188.04419975280763,31.28444934055281L188.74065975189208,31.423267416359437L189.43711975097656,31.099347964674024L190.13357975006105,31.110030358250157L190.83003974914553,31.28444934055281L191.52649974822998,31.32360397281647L192.22295974731443,31.35919427117588L192.91941974639892,31.51224846632627L193.6158797454834,30.875102564668197L194.31233974456788,31.298685459896575L195.00879974365233,30.996130795363428L195.7052597427368,30.978330342115413L196.40171974182127,31.540731313150417L197.09817974090578,31.334275758255984L197.79463973999023,31.423267416359437L198.4910997390747,31.384112784095777L199.18755973815917,30.914257196931857L199.88401973724365,31.458857714718846L200.58047973632813,30.939175709851753L201.2769397354126,30.903574803355724L201.97339973449706,30.8501840517483L202.66985973358155,30.88578495824433L203.366319732666,31.145620656609566L204.0627797317505,31.15986738408995L204.75923973083496,31.24529470828915L205.45569972991944,31.170539169529462L206.1521597290039,31.106466024345906L206.84861972808838,31.530048919574284L207.54507972717286,31.0459572130666L208.24153972625734,30.722048369517807L208.9379997253418,30.981884067883044L209.63445972442625,30.942729435619384L210.33091972351073,30.903574803355724L211.0273797225952,31.063757666314615L211.7238397216797,30.69356552269366L212.42029972076415,31.188339622777477L213.11675971984863,30.974766008211162L213.81321971893308,31.028156759818586L214.5096797180176,31.298685459896575L215.20613971710205,31.08511184533026L215.90259971618653,31.134948871170053L216.59905971527098,31.152738716281448L217.29551971435546,30.910692863027606L217.99197971343995,30.80747569371701L218.68843971252443,31.099347964674024L219.38489971160888,30.80747569371701L220.08135971069336,30.761203001781467L220.77781970977782,31.213258135697373L221.47427970886233,31.12426647759392L222.17073970794678,30.7647567275491L222.86719970703126,30.92849331627562L223.56365970611571,31.07799378565838L224.2601197052002,30.61525625816634L224.95657970428468,30.49423863560773L225.65303970336916,30.682893737254147L226.3494997024536,31.270202613072428L227.04595970153807,30.69001179692603L227.74241970062255,31.131384537265802L228.43887969970703,31.04952154697085L229.1353396987915,31.074440059890748L229.83179969787597,30.949847495291266L230.52825969696045,30.84306599207642L231.2247196960449,30.96764794853928L231.9211796951294,31.031721093722837L232.61763969421386,30.601020138822577L233.31409969329835,30.914257196931857L234.0105596923828,31.12426647759392L234.70701969146728,30.786110906564744L235.40347969055176,30.800357634045127L236.09993968963624,31.380548450191526L236.7963996887207,31.184775288873226L237.49285968780518,30.704247916269793L238.18931968688963,30.711365975941675L238.88577968597414,31.035285427627088L239.5822396850586,30.946293769523635L240.27869968414308,30.45151966943982L240.97515968322753,30.72560209528544L241.671619682312,30.974766008211162L242.3680796813965,30.981884067883044L243.06453968048098,31.00324885503531" fill="none"></path></g><g><path style="fill: none;" stroke="rgb(0, 119, 187)" stroke-width="2px" d="M34.82299995422363,157.9350144893084L35.51945995330811,129.31663463091195L36.21591995239258,118.76271619738162L36.91237995147705,109.13427016680122L37.608839950561524,105.539172666353L38.305299949646,97.51249957264424L39.001759948730474,99.48802633500695L39.69821994781494,94.2555576432252L40.39467994689941,101.24997948280334L41.09113994598388,89.07648500711919L41.78759994506836,90.76725225412845L42.48405994415283,87.9018513432777L43.18051994323731,97.4235132186091L43.876979942321775,90.74945180088044L44.57343994140625,96.92518539275765L45.269899940490724,88.72053959097862L45.9663599395752,89.73499569592953L46.66281993865967,89.46803132975579L47.35927993774414,85.7127615744853L48.05573993682861,84.59151866225123L48.75219993591308,81.61933624818563L49.44865993499756,96.8006034362948L50.14511993408203,88.56036203208804L50.8415799331665,93.91740737626434L51.538039932250975,87.36792791499853L52.23449993133545,87.99083769731284L52.930959930419924,83.32789334030629L53.6274199295044,86.58483526972533L54.323879928588866,81.5481450433302L55.02033992767334,78.20221675987601L55.716799926757815,92.38682299221396L56.41325992584229,82.31343723535538L57.10971992492676,100.7694468061316L57.806179924011225,81.31677627958418L58.5026399230957,96.15989320073247L59.199099922180174,81.40576263361932L59.89555992126465,86.58483526972533L60.592019920349124,79.55482313178778L61.28847991943359,82.01087726675392L61.984939918518066,92.88515081806541L62.68139991760254,89.11208060954691L63.377859916687015,86.26448015194417L64.07431991577148,89.61041373946667L64.77077991485596,84.76949137032152L65.46723991394043,85.16103769295812L66.1636999130249,85.83734353094816L66.86015991210937,87.36792791499853L67.55661991119385,88.40018447319746L68.25307991027832,93.98859858111977L68.9495399093628,78.48697627522945L69.64599990844727,90.78504740330816L70.34245990753173,93.50806590444803L71.03891990661621,83.59485770648003L71.73537990570068,99.32784877611637L72.43183990478516,96.15989320073247L73.12829990386963,107.03416675204396L73.8247599029541,88.311192815094L74.52121990203858,92.31563178735853L75.21767990112305,84.43134110336065L75.91413990020753,77.22335095328451L76.610599899292,88.38238401994944L77.30705989837647,93.79282541980147L78.00351989746095,78.87851729379774L78.6999798965454,87.77726938681484L79.39643989562988,86.05091184144617L80.09289989471435,81.38796748443961L80.78935989379882,84.60931381143094L81.4858198928833,79.91077385199667L82.18227989196777,87.38572306417824L82.87873989105225,81.92189091271878L83.57519989013672,86.47805376651048L84.27165988922118,84.69830016546608L84.96811988830567,92.79616446403027L85.66457988739013,81.90409576353908L86.36103988647461,83.27450258869887L87.05749988555908,78.30899826309086L87.75395988464355,80.21333382059812L88.45041988372803,100.75164635288358L89.1468798828125,97.45910882103682L89.84333988189698,92.2622410357511L90.53979988098145,86.37126695922733L91.23625988006592,61.828510150609034L91.9327198791504,60.68947208919526L92.62917987823486,58.99871545032262L93.32563987731935,58.30461446315287L94.02209987640381,57.27235790495395L94.71855987548828,56.044328185436726L95.41501987457276,57.254557451705935L96.11147987365722,56.48926525968075L96.8079398727417,57.094374588747044L97.50439987182617,56.80962037746191L98.20085987091063,56.45367496132134L98.89731986999512,55.9909374338293L99.59377986907958,56.667237967751035L100.29023986816406,54.6205253046012L100.98669986724853,57.30794820331336L101.683159866333,54.40696229817151L102.37961986541748,55.296836446659555L103.07607986450195,54.72731741595267L103.77253986358643,55.63498140955211L104.4689998626709,54.76290771431208L105.16545986175537,55.47480915472984L105.86191986083985,55.723973067655564L106.55837985992432,55.9909374338293L107.2548398590088,54.69171650945664L107.95129985809326,55.04767253373383L108.64775985717773,54.92307996913435L109.34421985626221,57.12997549524307L110.04067985534668,56.507065712928764L110.73713985443116,55.723973067655564L111.43359985351563,54.53154425463437L112.1300598526001,57.094374588747044L112.82651985168458,55.884145322477835L113.52297985076903,54.709516962704654L114.21943984985352,54.2289789819646L114.91589984893798,56.4002736015773L115.61235984802245,55.848555024118426L116.30881984710693,54.92307996913435L117.0052798461914,54.99427117398979L117.70173984527588,53.12554182704686L118.39819984436035,54.56713455299378L119.09465984344482,49.726217487916955L119.7911198425293,49.334671165280355L120.48757984161377,49.566034624958064L121.18403984069825,48.8541331845403L121.88049983978271,48.8541331845403L122.57695983886718,49.40586237013579L123.27341983795166,48.907534544284346L123.96987983703613,48.53377806675914L124.66633983612061,48.60496927161458L125.36279983520508,48.92532438939574L126.05925983428955,48.69396092971803L126.75571983337403,48.37360581193687L127.4521798324585,48.07105114740372L128.14863983154297,48.42699656354429L128.84509983062745,47.608313619911684L129.54155982971193,48.83634333942891L130.23801982879638,48.44479701679231L130.93447982788086,48.37360581193687L131.63093982696532,48.355805358688855L132.3273998260498,48.23122340222599L133.02385982513428,47.87527798608542L133.72031982421873,47.768485874733955L134.41677982330322,48.195633103866584L135.1132398223877,48.40919611029628L135.80969982147215,48.658360023222L136.50615982055663,48.37360581193687L137.20261981964111,48.21342294897798L137.8990798187256,48.28461415383342L138.59553981781005,48.69396092971803L139.29199981689453,48.17783265061857L139.98845981597898,48.08884099251512L140.68491981506347,48.67616047647002L141.38137981414795,47.69729466987852L142.07783981323243,47.4303409118414L142.77429981231688,47.69729466987852L143.47075981140136,48.26682430872202L144.16721981048582,47.94646919094086L144.86367980957033,48.05325069415571L145.56013980865478,48.05325069415571L146.25659980773926,48.160032197370555L146.95305980682372,48.14224235225916L147.6495198059082,48.28461415383342L148.34597980499268,48.33800490544084L149.04243980407716,48.10664144576313L149.73889980316162,47.928668737692846L150.4353598022461,47.804086781229984L151.13181980133055,47.66170437151911L151.82827980041506,47.71509512312653L152.5247397994995,48.10664144576313L153.221199798584,48.64057017811061L153.91765979766845,48.391406265184884L154.61411979675293,47.6261140731597L155.3105797958374,48.44479701679231L156.0070397949219,48.42699656354429L156.70349979400635,47.75069602962256L157.3999597930908,47.75069602962256L158.09641979217528,47.71509512312653L158.79287979125976,47.98205948930027L159.48933979034425,47.6261140731597L160.1857997894287,47.572712713415655L160.88225978851318,47.537122415056245L161.57871978759763,47.66170437151911L162.27517978668214,48.30241460708143L162.9716397857666,48.10664144576313L163.66809978485108,47.85747753283741L164.36455978393553,47.768485874733955L165.06101978302001,47.51932196180823L165.7574797821045,47.83967707958939L166.45393978118898,47.87527798608542L167.15039978027343,47.67950482476712L167.8468597793579,47.46593121020081L168.54331977844237,47.768485874733955L169.23977977752688,47.12777563917163L169.93623977661133,47.39474000534537L170.6326997756958,48.05325069415571L171.32915977478027,47.928668737692846L172.02561977386475,46.73623992467165L172.72207977294923,47.51932196180823L173.4185397720337,47.89306783119682L174.11499977111816,47.85747753283741L174.81145977020262,47.32354880048993L175.5079197692871,47.12777563917163L176.20437976837158,47.216767297275084L176.90083976745606,47.216767297275084L177.59729976654052,46.914212632741936L178.293759765625,47.27015804888251L178.99021976470945,47.216767297275084L179.68667976379396,47.25235759563449L180.38313976287841,47.181176998915674L181.0795997619629,46.80742052139047L181.77605976104735,46.93200247785333L182.47251976013183,46.949802931101345L183.1689797592163,46.985403837597374L183.8654397583008,46.8430214278865L184.56189975738525,47.05659504245281L185.25835975646973,47.00319368270877L185.95481975555418,46.914212632741936L186.6512797546387,46.8430214278865L187.34773975372315,47.12777563917163L188.04419975280763,46.558256608464745L188.74065975189208,46.8430214278865L189.43711975097656,47.09218534081222L190.13357975006105,46.914212632741936L190.83003974914553,47.0387945892048L191.52649974822998,46.68283856492761L192.22295974731443,46.914212632741936L192.91941974639892,47.305758955378536L193.6158797454834,46.985403837597374L194.31233974456788,46.82522097463848L195.00879974365233,46.80742052139047L195.7052597427368,46.87861172624591L196.40171974182127,46.93200247785333L197.09817974090578,46.87861172624591L197.79463973999023,47.16337654566766L198.4910997390747,47.09218534081222L199.18755973815917,46.985403837597374L199.88401973724365,46.789630676279074L200.58047973632813,46.949802931101345L201.2769397354126,46.754029769783045L201.97339973449706,46.718439471423636L202.66985973358155,46.89641217949392L203.366319732666,46.8430214278865L204.0627797317505,46.718439471423636L204.75923973083496,46.73623992467165L205.45569972991944,47.05659504245281L206.1521597290039,46.949802931101345L206.84861972808838,46.949802931101345L207.54507972717286,47.25235759563449L208.24153972625734,46.96760338434936L208.9379997253418,46.914212632741936L209.63445972442625,46.70063901817562L210.33091972351073,46.93200247785333L211.0273797225952,46.87861172624591L211.7238397216797,47.27015804888251L212.42029972076415,47.181176998915674L213.11675971984863,47.00319368270877L213.81321971893308,47.145576092419645L214.5096797180176,47.020994135956784L215.20613971710205,46.87861172624591L215.90259971618653,46.985403837597374L216.59905971527098,46.86082188113451L217.29551971435546,47.05659504245281L217.99197971343995,46.86082188113451L218.68843971252443,46.8430214278865L219.38489971160888,47.07438488756421L220.08135971069336,46.985403837597374L220.77781970977782,47.05659504245281L221.47427970886233,46.93200247785333L222.17073970794678,46.914212632741936L222.86719970703126,46.87861172624591L223.56365970611571,47.109985794060236L224.2601197052002,47.07438488756421L224.95657970428468,47.09218534081222L225.65303970336916,46.87861172624591L226.3494997024536,47.16337654566766L227.04595970153807,46.96760338434936L227.74241970062255,47.27015804888251L228.43887969970703,46.914212632741936L229.1353396987915,47.16337654566766L229.83179969787597,46.914212632741936L230.52825969696045,46.949802931101345L231.2247196960449,46.89641217949392L231.9211796951294,47.32354880048993L232.61763969421386,46.93200247785333L233.31409969329835,47.12777563917163L234.0105596923828,47.12777563917163L234.70701969146728,47.020994135956784L235.40347969055176,47.12777563917163L236.09993968963624,46.93200247785333L236.7963996887207,46.93200247785333L237.49285968780518,46.86082188113451L238.18931968688963,46.96760338434936L238.88577968597414,47.32354880048993L239.5822396850586,47.25235759563449L240.27869968414308,46.8430214278865L240.97515968322753,47.09218534081222L241.671619682312,47.19896684402707L242.3680796813965,46.93200247785333L243.06453968048098,46.789630676279074" fill="none"></path></g></g></g></g></g></g><g transform="translate(51, 177)" clip-path="url(#clip_1)"><clipPath id="clip_1"><rect width="278" height="22"></rect></clipPath><g><g><line x1="0" y1="0" x2="0" y2="5" style="visibility: inherit;" fill="rgb(0, 0, 0)" stroke="rgb(204, 204, 204)" stroke-width="1px"></line><line x1="34.82299995422363" y1="0" x2="34.82299995422363" y2="5" style="visibility: inherit;" fill="rgb(0, 0, 0)" stroke="rgb(204, 204, 204)" stroke-width="1px"></line><line x1="69.64599990844727" y1="0" x2="69.64599990844727" y2="5" style="visibility: inherit;" fill="rgb(0, 0, 0)" stroke="rgb(204, 204, 204)" stroke-width="1px"></line><line x1="104.4689998626709" y1="0" x2="104.4689998626709" y2="5" style="visibility: inherit;" fill="rgb(0, 0, 0)" stroke="rgb(204, 204, 204)" stroke-width="1px"></line><line x1="139.29199981689453" y1="0" x2="139.29199981689453" y2="5" style="visibility: inherit;" fill="rgb(0, 0, 0)" stroke="rgb(204, 204, 204)" stroke-width="1px"></line><line x1="174.11499977111816" y1="0" x2="174.11499977111816" y2="5" style="visibility: inherit;" fill="rgb(0, 0, 0)" stroke="rgb(204, 204, 204)" stroke-width="1px"></line><line x1="208.9379997253418" y1="0" x2="208.9379997253418" y2="5" style="visibility: inherit;" fill="rgb(0, 0, 0)" stroke="rgb(204, 204, 204)" stroke-width="1px"></line><line x1="243.76099967956543" y1="0" x2="243.76099967956543" y2="5" style="visibility: inherit;" fill="rgb(0, 0, 0)" stroke="rgb(204, 204, 204)" stroke-width="1px"></line><line x1="278.58399963378906" y1="0" x2="278.58399963378906" y2="5" style="visibility: inherit;" fill="rgb(0, 0, 0)" stroke="rgb(204, 204, 204)" stroke-width="1px"></line></g><g transform="translate(0, 8)"><text style="text-anchor: middle; visibility: hidden; font-family: &quot;Helvetica Neue&quot;, sans-serif; font-size: 12px; font-weight: 200;" x="0" y="0" dx="0em" dy="0.95em" fill="rgb(50, 49, 63)" stroke="none" stroke-width="1px">-50</text><text style="text-anchor: middle; visibility: inherit; font-family: &quot;Helvetica Neue&quot;, sans-serif; font-size: 12px; font-weight: 200;" x="34.82299995422363" y="0" dx="0em" dy="0.95em" fill="rgb(50, 49, 63)" stroke="none" stroke-width="1px">0</text><text style="text-anchor: middle; visibility: inherit; font-family: &quot;Helvetica Neue&quot;, sans-serif; font-size: 12px; font-weight: 200;" x="69.64599990844727" y="0" dx="0em" dy="0.95em" fill="rgb(50, 49, 63)" stroke="none" stroke-width="1px">50</text><text style="text-anchor: middle; visibility: inherit; font-family: &quot;Helvetica Neue&quot;, sans-serif; font-size: 12px; font-weight: 200;" x="104.4689998626709" y="0" dx="0em" dy="0.95em" fill="rgb(50, 49, 63)" stroke="none" stroke-width="1px">100</text><text style="text-anchor: middle; visibility: inherit; font-family: &quot;Helvetica Neue&quot;, sans-serif; font-size: 12px; font-weight: 200;" x="139.29199981689453" y="0" dx="0em" dy="0.95em" fill="rgb(50, 49, 63)" stroke="none" stroke-width="1px">150</text><text style="text-anchor: middle; visibility: inherit; font-family: &quot;Helvetica Neue&quot;, sans-serif; font-size: 12px; font-weight: 200;" x="174.11499977111816" y="0" dx="0em" dy="0.95em" fill="rgb(50, 49, 63)" stroke="none" stroke-width="1px">200</text><text style="text-anchor: middle; visibility: inherit; font-family: &quot;Helvetica Neue&quot;, sans-serif; font-size: 12px; font-weight: 200;" x="208.9379997253418" y="0" dx="0em" dy="0.95em" fill="rgb(50, 49, 63)" stroke="none" stroke-width="1px">250</text><text style="text-anchor: middle; visibility: inherit; font-family: &quot;Helvetica Neue&quot;, sans-serif; font-size: 12px; font-weight: 200;" x="243.76099967956543" y="0" dx="0em" dy="0.95em" fill="rgb(50, 49, 63)" stroke="none" stroke-width="1px">300</text><text style="text-anchor: middle; visibility: hidden; font-family: &quot;Helvetica Neue&quot;, sans-serif; font-size: 12px; font-weight: 200;" x="278.58399963378906" y="0" dx="0em" dy="0.95em" fill="rgb(50, 49, 63)" stroke="none" stroke-width="1px">350</text></g><line x1="0" y1="0" x2="278.58399963378906" y2="0" fill="rgb(0, 0, 0)" stroke="rgb(204, 204, 204)" stroke-width="1px"></line></g></g></g></g></svg>