<svg viewBox="0 0 330 200" xmlns="http://www.w3.org/2000/svg"><g><g><g><g><g><line x1="51.41600036621094" y1="177.9749994277954" x2="46.41600036621094" y2="177.9749994277954" style="visibility: inherit;" fill="rgb(0, 0, 0)" stroke="rgb(204, 204, 204)" stroke-width="1px"></line><line x1="51.41600036621094" y1="160.17749948501586" x2="46.41600036621094" y2="160.17749948501586" style="visibility: inherit;" fill="rgb(0, 0, 0)" stroke="rgb(204, 204, 204)" stroke-width="1px"></line><line x1="51.41600036621094" y1="142.3799995422363" x2="46.41600036621094" y2="142.3799995422363" style="visibility: inherit;" fill="rgb(0, 0, 0)" stroke="rgb(204, 204, 204)" stroke-width="1px"></line><line x1="51.41600036621094" y1="124.58249959945678" x2="46.41600036621094" y2="124.58249959945678" style="visibility: inherit;" fill="rgb(0, 0, 0)" stroke="rgb(204, 204, 204)" stroke-width="1px"></line><line x1="51.41600036621094" y1="106.78499965667723" x2="46.41600036621094" y2="106.78499965667723" style="visibility: inherit;" fill="rgb(0, 0, 0)" stroke="rgb(204, 204, 204)" stroke-width="1px"></line><line x1="51.41600036621094" y1="88.9874997138977" x2="46.41600036621094" y2="88.9874997138977" style="visibility: inherit;" fill="rgb(0, 0, 0)" stroke="rgb(204, 204, 204)" stroke-width="1px"></line><line x1="51.41600036621094" y1="71.18999977111815" x2="46.41600036621094" y2="71.18999977111815" style="visibility: inherit;" fill="rgb(0, 0, 0)" stroke="rgb(204, 204, 204)" stroke-width="1px"></line><line x1="51.41600036621094" y1="53.39249982833863" x2="46.41600036621094" y2="53.39249982833863" style="visibility: inherit;" fill="rgb(0, 0, 0)" stroke="rgb(204, 204, 204)" stroke-width="1px"></line><line x1="51.41600036621094" y1="35.594999885559076" x2="46.41600036621094" y2="35.594999885559076" style="visibility: inherit;" fill="rgb(0, 0, 0)" stroke="rgb(204, 204, 204)" stroke-width="1px"></line><line x1="51.41600036621094" y1="17.797499942779524" x2="46.41600036621094" y2="17.797499942779524" style="visibility: inherit;" fill="rgb(0, 0, 0)" stroke="rgb(204, 204, 204)" stroke-width="1px"></line><line x1="51.41600036621094" y1="0" x2="46.41600036621094" y2="0" style="visibility: inherit;" fill="rgb(0, 0, 0)" stroke="rgb(204, 204, 204)" stroke-width="1px"></line></g><g transform="translate(41.41600036621094, 0)"><text style="text-anchor: end; visibility: hidden; font-family: &quot;Helvetica Neue&quot;, sans-serif; font-size: 12px; font-weight: 200;" x="0" y="177.9749994277954" dx="0em" dy="0.3em" fill="rgb(50, 49, 63)" stroke="none" stroke-width="1px">0.35</text><text style="text-anchor: end; visibility: inherit; font-family: &quot;Helvetica Neue&quot;, sans-serif; font-size: 12px; font-weight: 200;" x="0" y="160.17749948501586" dx="0em" dy="0.3em" fill="rgb(50, 49, 63)" stroke="none" stroke-width="1px">0.4</text><text style="text-anchor: end; visibility: hidden; font-family: &quot;Helvetica Neue&quot;, sans-serif; font-size: 12px; font-weight: 200;" x="0" y="142.3799995422363" dx="0em" dy="0.3em" fill="rgb(50, 49, 63)" stroke="none" stroke-width="1px">0.45</text><text style="text-anchor: end; visibility: inherit; font-family: &quot;Helvetica Neue&quot;, sans-serif; font-size: 12px; font-weight: 200;" x="0" y="124.58249959945678" dx="0em" dy="0.3em" fill="rgb(50, 49, 63)" stroke="none" stroke-width="1px">0.5</text><text style="text-anchor: end; visibility: hidden; font-family: &quot;Helvetica Neue&quot;, sans-serif; font-size: 12px; font-weight: 200;" x="0" y="106.78499965667723" dx="0em" dy="0.3em" fill="rgb(50, 49, 63)" stroke="none" stroke-width="1px">0.55</text><text style="text-anchor: end; visibility: inherit; font-family: &quot;Helvetica Neue&quot;, sans-serif; font-size: 12px; font-weight: 200;" x="0" y="88.9874997138977" dx="0em" dy="0.3em" fill="rgb(50, 49, 63)" stroke="none" stroke-width="1px">0.6</text><text style="text-anchor: end; visibility: hidden; font-family: &quot;Helvetica Neue&quot;, sans-serif; font-size: 12px; font-weight: 200;" x="0" y="71.18999977111815" dx="0em" dy="0.3em" fill="rgb(50, 49, 63)" stroke="none" stroke-width="1px">0.65</text><text style="text-anchor: end; visibility: inherit; font-family: &quot;Helvetica Neue&quot;, sans-serif; font-size: 12px; font-weight: 200;" x="0" y="53.39249982833863" dx="0em" dy="0.3em" fill="rgb(50, 49, 63)" stroke="none" stroke-width="1px">0.7</text><text style="text-anchor: end; visibility: hidden; font-family: &quot;Helvetica Neue&quot;, sans-serif; font-size: 12px; font-weight: 200;" x="0" y="35.594999885559076" dx="0em" dy="0.3em" fill="rgb(50, 49, 63)" stroke="none" stroke-width="1px">0.75</text><text style="text-anchor: end; visibility: inherit; font-family: &quot;Helvetica Neue&quot;, sans-serif; font-size: 12px; font-weight: 200;" x="0" y="17.797499942779524" dx="0em" dy="0.3em" fill="rgb(50, 49, 63)" stroke="none" stroke-width="1px">0.8</text><text style="text-anchor: end; visibility: hidden; font-family: &quot;Helvetica Neue&quot;, sans-serif; font-size: 12px; font-weight: 200;" x="0" y="0" dx="0em" dy="0.3em" fill="rgb(50, 49, 63)" stroke="none" stroke-width="1px">0.85</text></g><line x1="51.41600036621094" y1="0" x2="51.41600036621094" y2="177.9749994277954" fill="rgb(0, 0, 0)" stroke="rgb(204, 204, 204)" stroke-width="1px"></line></g></g><g transform="translate(51, 0)" clip-path="url(#clip_0)"><clipPath id="clip_0"><rect width="278" height="177"></rect></clipPath><g><g><g><line x1="0" y1="0" x2="0" y2="177.9749994277954" fill="rgb(0, 0, 0)" stroke="rgb(60, 60, 60)" stroke-width="1px" opacity="0.25"></line><line x1="23.215333302815754" y1="0" x2="23.215333302815754" y2="177.9749994277954" fill="rgb(0, 0, 0)" stroke="rgb(60, 60, 60)" stroke-width="1px" opacity="0.25"></line><line x1="46.43066660563151" y1="0" x2="46.43066660563151" y2="177.9749994277954" fill="rgb(0, 0, 0)" stroke="rgb(60, 60, 60)" stroke-width="1px" opacity="0.25"></line><line x1="69.64599990844727" y1="0" x2="69.64599990844727" y2="177.9749994277954" fill="rgb(0, 0, 0)" stroke="rgb(60, 60, 60)" stroke-width="1px" opacity="0.25"></line><line x1="92.86133321126302" y1="0" x2="92.86133321126302" y2="177.9749994277954" fill="rgb(0, 0, 0)" stroke="rgb(60, 60, 60)" stroke-width="1px" opacity="0.25"></line><line x1="116.07666651407878" y1="0" x2="116.07666651407878" y2="177.9749994277954" fill="rgb(0, 0, 0)" stroke="rgb(60, 60, 60)" stroke-width="1px" opacity="0.25"></line><line x1="139.29199981689453" y1="0" x2="139.29199981689453" y2="177.9749994277954" fill="rgb(0, 0, 0)" stroke="rgb(60, 60, 60)" stroke-width="1px" opacity="0.25"></line><line x1="162.5073331197103" y1="0" x2="162.5073331197103" y2="177.9749994277954" fill="rgb(0, 0, 0)" stroke="rgb(60, 60, 60)" stroke-width="1px" opacity="0.25"></line><line x1="185.72266642252603" y1="0" x2="185.72266642252603" y2="177.9749994277954" fill="rgb(0, 0, 0)" stroke="rgb(60, 60, 60)" stroke-width="1px" opacity="0.25"></line><line x1="208.9379997253418" y1="0" x2="208.9379997253418" y2="177.9749994277954" fill="rgb(0, 0, 0)" stroke="rgb(60, 60, 60)" stroke-width="1px" opacity="0.25"></line><line x1="232.15333302815756" y1="0" x2="232.15333302815756" y2="177.9749994277954" fill="rgb(0, 0, 0)" stroke="rgb(60, 60, 60)" stroke-width="1px" opacity="0.25"></line><line x1="255.3686663309733" y1="0" x2="255.3686663309733" y2="177.9749994277954" fill="rgb(0, 0, 0)" stroke="rgb(60, 60, 60)" stroke-width="1px" opacity="0.25"></line><line x1="278.58399963378906" y1="0" x2="278.58399963378906" y2="177.9749994277954" fill="rgb(0, 0, 0)" stroke="rgb(60, 60, 60)" stroke-width="1px" opacity="0.25"></line></g><g><line x1="0" y1="177.9749994277954" x2="278.58399963378906" y2="177.9749994277954" fill="rgb(0, 0, 0)" stroke="rgb(60, 60, 60)" stroke-width="1px" opacity="0.25"></line><line x1="0" y1="160.17749948501586" x2="278.58399963378906" y2="160.17749948501586" fill="rgb(0, 0, 0)" stroke="rgb(60, 60, 60)" stroke-width="1px" opacity="0.25"></line><line x1="0" y1="142.3799995422363" x2="278.58399963378906" y2="142.3799995422363" fill="rgb(0, 0, 0)" stroke="rgb(60, 60, 60)" stroke-width="1px" opacity="0.25"></line><line x1="0" y1="124.58249959945678" x2="278.58399963378906" y2="124.58249959945678" fill="rgb(0, 0, 0)" stroke="rgb(60, 60, 60)" stroke-width="1px" opacity="0.25"></line><line x1="0" y1="106.78499965667723" x2="278.58399963378906" y2="106.78499965667723" fill="rgb(0, 0, 0)" stroke="rgb(60, 60, 60)" stroke-width="1px" opacity="0.25"></line><line x1="0" y1="88.9874997138977" x2="278.58399963378906" y2="88.9874997138977" fill="rgb(0, 0, 0)" stroke="rgb(60, 60, 60)" stroke-width="1px" opacity="0.25"></line><line x1="0" y1="71.18999977111815" x2="278.58399963378906" y2="71.18999977111815" fill="rgb(0, 0, 0)" stroke="rgb(60, 60, 60)" stroke-width="1px" opacity="0.25"></line><line x1="0" y1="53.39249982833863" x2="278.58399963378906" y2="53.39249982833863" fill="rgb(0, 0, 0)" stroke="rgb(60, 60, 60)" stroke-width="1px" opacity="0.25"></line><line x1="0" y1="35.594999885559076" x2="278.58399963378906" y2="35.594999885559076" fill="rgb(0, 0, 0)" stroke="rgb(60, 60, 60)" stroke-width="1px" opacity="0.25"></line><line x1="0" y1="17.797499942779524" x2="278.58399963378906" y2="17.797499942779524" fill="rgb(0, 0, 0)" stroke="rgb(60, 60, 60)" stroke-width="1px" opacity="0.25"></line><line x1="0" y1="0" x2="278.58399963378906" y2="0" fill="rgb(0, 0, 0)" stroke="rgb(60, 60, 60)" stroke-width="1px" opacity="0.25"></line></g></g></g><g><g><line x1="0" y1="302.5574990272522" x2="278.58399963378906" y2="302.5574990272522" fill="rgb(0, 0, 0)" stroke="rgb(153, 153, 153)" stroke-width="1.5px"></line></g></g><g><g><line x1="23.215333302815754" y1="0" x2="23.215333302815754" y2="177.9749994277954" fill="rgb(0, 0, 0)" stroke="rgb(153, 153, 153)" stroke-width="1.5px"></line></g></g><g><g><g><g><g><path style="fill: none;" stroke="rgb(51, 187, 238)" stroke-width="2px" d="M30.179933293660483,180.68021429324628L31.34069995880127,169.67424072580005L32.50146662394206,164.12854027997733L33.66223328908285,151.5991003881526L34.82299995422363,148.51657744103622L35.983766619364424,142.84984876451827L37.14453328450521,138.500141465621L38.305299949646,135.9373005233717L39.46606661478678,130.07124495976782L40.626833279927574,126.11308398350715L41.78759994506836,124.21942551550771L42.94836661020915,123.57871527994538L44.10913327534993,120.43923724731732L45.269899940490724,115.04304787901398L46.43066660563151,117.17874159213065L47.5914332707723,109.97431047189045L48.75219993591308,107.93826959418013L49.912966601053874,107.77454361359023L51.07373326619466,109.24105485245704L52.23449993133545,111.49778740440556L53.39526659647624,105.66732213916109L54.556033261617024,102.94786266785715L55.716799926757815,98.78323552856543L56.8775665918986,97.5801243219681L58.03833325703939,100.34942081911183L59.199099922180174,97.2455436929798L60.359866587320965,95.34475655717185L61.52063325246175,94.47624719583607L62.68139991760254,100.25687543524074L63.842166582743324,96.6404343639135L65.00293324788412,92.31208124403187L66.1636999130249,94.39793793130875L67.3244665781657,92.79617295053956L68.48523324330647,93.94944713129709L69.64599990844727,89.79194865981387L70.80676657358805,93.27313598923874L71.96753323872885,91.5503321696377L73.12829990386963,95.47290284753896L74.28906656901042,89.9912755468998L75.4498332341512,92.07715345044991L76.610599899292,85.71988812066647L77.77136656443278,88.6102022403688L78.93213322957357,85.5205400173073L80.09289989471435,85.22153907854178L81.25366655985515,92.46157110527801L82.41443322499593,91.01642465356346L83.57519989013672,90.5963848759661L84.7359665552775,88.51763564022448L85.8967332204183,88.22576336926747L87.05749988555908,86.03312517877575L88.21826655069987,86.62399838849828L89.37903321584066,85.85514186256884L90.53979988098145,89.59262177272794L91.70056654612223,85.93345112709616L92.86133321126302,86.28228909170147L94.02209987640381,84.70186768181131L95.1828665415446,85.71275945285797L96.34363320668538,84.08250101712801L97.50439987182617,87.31452443362716L98.66516653696696,85.01510473992059L99.82593320210775,85.29274089153384L100.98669986724853,82.0108804491949L102.14746653238932,80.4446951586485L103.30823319753011,82.77973697512434L104.4689998626709,81.52678874268722L105.62976652781168,81.57662576852701L106.79053319295248,82.63022589760496L107.95129985809326,81.94680730401134L109.11206652323405,84.31032135917471L110.27283318837483,85.02934085926435L111.43359985351563,83.42044721068666L112.59436651865641,84.03979265909672L113.7551331837972,79.72567565855886L114.91589984893798,81.63357024590206L116.07666651407878,77.63269030347348L117.23743317921956,58.397147117260005L118.39819984436035,54.23966986205002L119.55896650950113,53.71284858123781L120.71973317464193,51.242553022859596L121.88049983978271,50.851006700222996L123.0412665049235,47.839674957962046L124.2020331700643,46.72200168370054L125.36279983520508,47.1206554578724L126.52356650034586,45.51889047710321L127.68433316548665,44.79274230920507L128.84509983062745,44.159160741451245L130.00586649576823,43.85303113487723L131.16663316090902,42.80653845733454L132.3273998260498,41.90955685731123L133.4881664911906,42.628576357400874L134.6489331563314,42.37228377666665L135.80969982147215,40.41457337975689L136.97046648661293,39.389424273093226L138.13123315175375,40.008769721503285L139.29199981689453,38.841259421401986L140.45276648203532,38.51378624394894L141.6135331471761,39.41078906024549L142.77429981231688,38.43547697942162L143.9350664774577,38.46394921810915L145.09583314259848,36.641492563101764L146.25659980773926,36.12179995009805L147.41736647288005,37.702221359988215L148.57813313802083,36.299783266304956L149.73889980316162,36.02925456622697L150.8996664683024,35.908236943668356L152.06043313344318,35.4526174758482L153.221199798584,34.24239881771561L154.38196646372478,35.29599894679356L155.54273312886556,34.30645074662593L156.70349979400635,34.847508146781905L157.86426645914713,32.44128573358725L159.02503312428792,34.16408955318829L160.1857997894287,32.419920946434985L161.3465664545695,33.37386824010659L162.5073331197103,32.3273755625639L163.66809978485108,30.946302256032908L164.82886644999186,30.383901284997904L165.98963311513265,30.853735655888585L167.15039978027343,30.68288100749018L168.31116644541422,29.479769800892853L169.471933110555,29.515370707388882L170.6326997756958,29.86420867199419L171.7934664408366,29.19502619774434L172.95423310597738,29.0312790008812L174.11499977111816,29.209262317088104L175.27576643625895,29.671989236443522L176.43653310139973,29.408589204174035L177.59729976654052,29.045515120224962L178.75806643168133,27.714257623260522L179.9188330968221,28.967205855697642L181.0795997619629,29.401460536365533L182.24036642710368,28.746514181459446L183.40113309224446,28.860424352482795L184.56189975738525,29.15229662343981L185.72266642252603,28.83905956533053L186.88343308766682,29.123824384752282L188.04419975280763,28.618389107365573L189.2049664179484,28.72517061058042L190.3657330830892,28.027494681369802L191.52649974822998,27.016602910323144L192.68726641337076,28.390568765318875L193.84803307851155,28.127168733049388L195.00879974365233,28.547187294373515L196.16956640879314,28.06309558786583L197.33033307393393,28.810587326643002L198.4910997390747,28.048859468522068L199.6518664042155,27.4650937103348L200.81263306935628,27.35120475558469L201.97339973449706,27.8637687007799L203.13416639963785,27.422385352303507L204.29493306477863,27.70715017172526L205.45569972991944,28.01325856202604L206.61646639506023,28.354967858822846L207.777233060201,28.2553150234165L208.9379997253418,28.653968797588362L210.09876639048258,27.728514958877525L211.25953305562336,26.859984381268504L212.42029972076415,27.51493073617459L213.58106638590496,28.305152049256293L214.74183305104575,26.831512142580976L215.90259971618653,26.902692739299795L217.0633663813273,27.963421536186246L218.2241330464681,27.365440874928453L219.38489971160888,27.04507514901067L220.54566637674967,27.792566887787842L221.70643304189045,28.17700575888918L222.86719970703126,26.81014735542871L224.02796637217205,26.753202878053656L225.18873303731283,27.579003881358148L226.3494997024536,27.329839968432424L227.5102663675944,27.31560384908866L228.67103303273518,26.895585287764533L229.83179969787597,27.00236679097938L230.99256636301678,26.447094487752878L232.15333302815756,26.447094487752878L233.31409969329835,26.92405752645206L234.47486635843913,27.00949545878788L235.6356330235799,26.61794913615128L236.7963996887207,26.77456766520592L237.95716635386148,27.180350107186285L239.11793301900227,27.023731578131645L240.27869968414308,26.076891735995304L241.43946634928386,26.596584348999016L242.60023301442465,26.525403752280198L243.76099967956543,26.091127855339067L244.9217663447062,26.518275084471696L246.082533009847,26.205038026362416L247.24329967498778,25.720946319854733L248.4040663401286,25.820620371534318L249.56483300526938,25.891800968253136L250.72559967041016,26.247746384393707L251.88636633555095,26.447094487752878L253.04713300069173,26.432837152135875L254.2078996658325,26.133857429643598L255.3686663309733,26.212166694170918L256.52943299611405,26.240638932858445L257.6901996612549,25.770783345694525L258.8509663263957,25.98434635212422L260.01173299153646,25.927401874749165L261.17249965667725,25.728074987663234L262.33326632181803,25.9060370875969L263.4940329869588,26.347420436073293L264.6547996520996,25.24398328115555" fill="none"></path></g><g><path style="fill: none;" stroke="rgb(0, 119, 187)" stroke-width="2px" d="M29.019166628519695,184.2397214953351L30.179933293660483,172.10182792614697L31.34069995880127,163.4166494476962L32.50146662394206,157.61465642113924L33.66223328908285,144.90724382124424L34.82299995422363,144.30213449217794L35.983766619364424,136.64920196378947L37.14453328450521,137.04074828642607L38.305299949646,133.338869282763L39.46606661478678,128.03521469019412L40.626833279927574,125.40118254308939L41.78759994506836,125.47237374794483L42.94836661020915,126.86057572228432L44.10913327534993,121.77049474428176L45.269899940490724,118.0686157406187L46.43066660563151,117.60588882126328L47.5914332707723,113.04971535933495L48.75219993591308,111.16318555914401L49.912966601053874,110.41569382036684L51.07373326619466,113.37008108525274L52.23449993133545,113.61924499817846L53.39526659647624,109.16987425573822L54.556033261617024,107.53248715219976L55.716799926757815,103.65264604860303L56.8775665918986,101.30336811278343L58.03833325703939,105.32561284236428L59.199099922180174,104.29335628416536L60.359866587320965,103.36788122918128L61.52063325246175,101.23218751606461L62.68139991760254,108.74272702660559L63.842166582743324,103.68822573882582L65.00293324788412,100.62705697072508L66.1636999130249,102.4424061741972L67.3244665781657,100.4846745610142L68.48523324330647,104.04419237123963L69.64599990844727,101.44575052249431L70.80676657358805,103.29667941618922L71.96753323872885,101.01860329336168L73.12829990386963,104.0085914647436L74.28906656901042,100.59147728050229L75.4498332341512,100.62705697072508L76.610599899292,98.38458175439357L77.77136656443278,99.02529198995589L78.93213322957357,99.02529198995589L80.09289989471435,97.28114459947582L81.25366655985515,102.58478858390808L82.41443322499593,102.51360798718926L83.57519989013672,102.22884316776751L84.7359665552775,99.27445590288161L85.8967332204183,101.55253202570916L87.05749988555908,97.67266970583918L88.21826655069987,98.84730867374898L89.37903321584066,100.19993095786569L90.53979988098145,104.25775537766933L91.70056654612223,97.53030851240155L92.86133321126302,97.77947242532727L94.02209987640381,96.2488880412769L95.1828665415446,102.4424061741972L96.34363320668538,99.34563649960043L97.50439987182617,101.55253202570916L98.66516653696696,98.91851048674104L99.82593320210775,99.20325408988955L100.98669986724853,96.39124923471454L102.14746653238932,93.75722769574642L103.30823319753011,96.56923255092144L104.4689998626709,96.74721586712835L105.62976652781168,98.49136325760841L106.79053319295248,97.95743452526094L107.95129985809326,96.03530381857396L109.11206652323405,98.66934657381532L110.27283318837483,99.48801890931131L111.43359985351563,99.02529198995589L112.59436651865641,98.13541784146784L113.7551331837972,96.39124923471454L114.91589984893798,96.99637978005407L116.07666651407878,93.57924437953952L117.23743317921956,80.58707756835938L118.39819984436035,78.73614867466446L119.55896650950113,78.77172836488725L120.71973317464193,77.27674488733291L121.88049983978271,77.45472820353982L123.0412665049235,76.95637916141513L124.2020331700643,76.56485405505177L125.36279983520508,76.88519856469631L126.52356650034586,76.95637916141513L127.68433316548665,75.81734110000136L128.84509983062745,76.20888742263796L130.00586649576823,75.28343358392712L131.16663316090902,75.88854291299342L132.3273998260498,74.10879461601732L133.4881664911906,74.60712244186877L134.6489331563314,75.53259749685284L135.80969982147215,75.42579477736476L136.97046648661293,74.6427233483648L138.13123315175375,74.92746695151331L139.29199981689453,74.46474003215789L140.45276648203532,75.74616050328254L141.6135331471761,75.49699659035682L142.77429981231688,75.49699659035682L143.9350664774577,74.6427233483648L145.09583314259848,73.71724829338072L146.25659980773926,75.17663086443903L147.41736647288005,74.78508454180243L148.57813313802083,74.07319370952129L149.73889980316162,75.39021508714197L150.8996664683024,74.82068544829846L152.06043313344318,75.53259749685284L153.221199798584,74.89188726129052L154.38196646372478,72.4714287287521L155.54273312886556,74.39355943543907L156.70349979400635,74.14437430624011L157.86426645914713,73.64604648038866L159.02503312428792,73.21892046752927L160.1857997894287,72.82737414489267L161.3465664545695,73.11213896431443L162.5073331197103,72.72059264167783L163.66809978485108,71.58155458026405L164.82886644999186,71.79511758669375L165.98963311513265,71.15440735113143L167.15039978027343,72.18666390933035L168.31116644541422,71.47475186077597L169.471933110555,71.26118885434627L170.6326997756958,71.22558794785024L171.7934664408366,71.19000825762745L172.95423310597738,71.2967897608423L174.11499977111816,71.33236945106509L175.27576643625895,71.43917217055318L176.43653310139973,71.36797035756112L177.59729976654052,71.19000825762745L178.75806643168133,71.1188064446354L179.9188330968221,71.510352767272L181.0795997619629,71.19000825762745L182.24036642710368,71.36797035756112L183.40113309224446,71.40357126405715L184.56189975738525,70.76286102849483L185.72266642252603,71.15440735113143L186.88343308766682,71.33236945106509L188.04419975280763,71.72391577370169L189.2049664179484,70.97642403492452L190.3657330830892,71.65273517698287L191.52649974822998,71.61713427048684L192.68726641337076,72.00868059312344L193.84803307851155,71.01202494142055L195.00879974365233,71.2967897608423L196.16956640879314,71.510352767272L197.33033307393393,71.47475186077597L198.4910997390747,71.9018990899086L199.6518664042155,71.36797035756112L200.81263306935628,71.33236945106509L201.97339973449706,70.7272601219988L203.13416639963785,71.47475186077597L204.29493306477863,70.9052434382057L205.45569972991944,71.47475186077597L206.61646639506023,71.2967897608423L207.777233060201,71.6883360834789L208.9379997253418,71.26118885434627L210.09876639048258,71.54595367376803L211.25953305562336,71.72391577370169L212.42029972076415,71.26118885434627L213.58106638590496,71.36797035756112L214.74183305104575,71.79511758669375L215.90259971618653,71.36797035756112L217.0633663813273,71.33236945106509L218.2241330464681,70.9052434382057L219.38489971160888,70.83404162521364L220.54566637674967,71.36797035756112L221.70643304189045,70.79846193499085L222.86719970703126,71.6883360834789L224.02796637217205,71.26118885434627L225.18873303731283,71.33236945106509L226.3494997024536,70.94084434470173L227.5102663675944,70.69165921550277L228.67103303273518,70.86964253170967L229.83179969787597,71.43917217055318L230.99256636301678,71.75951668019772L232.15333302815756,71.19000825762745L233.31409969329835,70.9052434382057L234.47486635843913,71.40357126405715L235.6356330235799,70.69165921550277L236.7963996887207,70.7272601219988L237.95716635386148,70.69165921550277L239.11793301900227,70.7272601219988L240.27869968414308,70.47809620907307L241.43946634928386,71.61713427048684L242.60023301442465,70.9052434382057L243.76099967956543,71.1188064446354L244.9217663447062,70.86964253170967L246.082533009847,70.86964253170967L247.24329967498778,70.54929802206513L248.4040663401286,70.76286102849483L249.56483300526938,71.36797035756112L250.72559967041016,71.1188064446354L251.88636633555095,70.94084434470173L253.04713300069173,70.97642403492452L254.2078996658325,71.26118885434627L255.3686663309733,70.94084434470173L256.52943299611405,70.97642403492452L257.6901996612549,70.97642403492452L258.8509663263957,70.97642403492452L260.01173299153646,70.9052434382057L261.17249965667725,70.9052434382057L262.33326632181803,70.86964253170967L263.4940329869588,70.83404162521364L264.6547996520996,70.94084434470173" fill="none"></path></g></g></g></g></g></g><g transform="translate(51, 177)" clip-path="url(#clip_1)"><clipPath id="clip_1"><rect width="278" height="22"></rect></clipPath><g><g><line x1="0" y1="0" x2="0" y2="5" style="visibility: inherit;" fill="rgb(0, 0, 0)" stroke="rgb(204, 204, 204)" stroke-width="1px"></line><line x1="23.215333302815754" y1="0" x2="23.215333302815754" y2="5" style="visibility: inherit;" fill="rgb(0, 0, 0)" stroke="rgb(204, 204, 204)" stroke-width="1px"></line><line x1="46.43066660563151" y1="0" x2="46.43066660563151" y2="5" style="visibility: inherit;" fill="rgb(0, 0, 0)" stroke="rgb(204, 204, 204)" stroke-width="1px"></line><line x1="69.64599990844727" y1="0" x2="69.64599990844727" y2="5" style="visibility: inherit;" fill="rgb(0, 0, 0)" stroke="rgb(204, 204, 204)" stroke-width="1px"></line><line x1="92.86133321126302" y1="0" x2="92.86133321126302" y2="5" style="visibility: inherit;" fill="rgb(0, 0, 0)" stroke="rgb(204, 204, 204)" stroke-width="1px"></line><line x1="116.07666651407878" y1="0" x2="116.07666651407878" y2="5" style="visibility: inherit;" fill="rgb(0, 0, 0)" stroke="rgb(204, 204, 204)" stroke-width="1px"></line><line x1="139.29199981689453" y1="0" x2="139.29199981689453" y2="5" style="visibility: inherit;" fill="rgb(0, 0, 0)" stroke="rgb(204, 204, 204)" stroke-width="1px"></line><line x1="162.5073331197103" y1="0" x2="162.5073331197103" y2="5" style="visibility: inherit;" fill="rgb(0, 0, 0)" stroke="rgb(204, 204, 204)" stroke-width="1px"></line><line x1="185.72266642252603" y1="0" x2="185.72266642252603" y2="5" style="visibility: inherit;" fill="rgb(0, 0, 0)" stroke="rgb(204, 204, 204)" stroke-width="1px"></line><line x1="208.9379997253418" y1="0" x2="208.9379997253418" y2="5" style="visibility: inherit;" fill="rgb(0, 0, 0)" stroke="rgb(204, 204, 204)" stroke-width="1px"></line><line x1="232.15333302815756" y1="0" x2="232.15333302815756" y2="5" style="visibility: inherit;" fill="rgb(0, 0, 0)" stroke="rgb(204, 204, 204)" stroke-width="1px"></line><line x1="255.3686663309733" y1="0" x2="255.3686663309733" y2="5" style="visibility: inherit;" fill="rgb(0, 0, 0)" stroke="rgb(204, 204, 204)" stroke-width="1px"></line><line x1="278.58399963378906" y1="0" x2="278.58399963378906" y2="5" style="visibility: inherit;" fill="rgb(0, 0, 0)" stroke="rgb(204, 204, 204)" stroke-width="1px"></line></g><g transform="translate(0, 8)"><text style="text-anchor: middle; visibility: hidden; font-family: &quot;Helvetica Neue&quot;, sans-serif; font-size: 12px; font-weight: 200;" x="0" y="0" dx="0em" dy="0.95em" fill="rgb(50, 49, 63)" stroke="none" stroke-width="1px">-20</text><text style="text-anchor: middle; visibility: inherit; font-family: &quot;Helvetica Neue&quot;, sans-serif; font-size: 12px; font-weight: 200;" x="23.215333302815754" y="0" dx="0em" dy="0.95em" fill="rgb(50, 49, 63)" stroke="none" stroke-width="1px">0</text><text style="text-anchor: middle; visibility: hidden; font-family: &quot;Helvetica Neue&quot;, sans-serif; font-size: 12px; font-weight: 200;" x="46.43066660563151" y="0" dx="0em" dy="0.95em" fill="rgb(50, 49, 63)" stroke="none" stroke-width="1px">20</text><text style="text-anchor: middle; visibility: inherit; font-family: &quot;Helvetica Neue&quot;, sans-serif; font-size: 12px; font-weight: 200;" x="69.64599990844727" y="0" dx="0em" dy="0.95em" fill="rgb(50, 49, 63)" stroke="none" stroke-width="1px">40</text><text style="text-anchor: middle; visibility: hidden; font-family: &quot;Helvetica Neue&quot;, sans-serif; font-size: 12px; font-weight: 200;" x="92.86133321126302" y="0" dx="0em" dy="0.95em" fill="rgb(50, 49, 63)" stroke="none" stroke-width="1px">60</text><text style="text-anchor: middle; visibility: inherit; font-family: &quot;Helvetica Neue&quot;, sans-serif; font-size: 12px; font-weight: 200;" x="116.07666651407878" y="0" dx="0em" dy="0.95em" fill="rgb(50, 49, 63)" stroke="none" stroke-width="1px">80</text><text style="text-anchor: middle; visibility: hidden; font-family: &quot;Helvetica Neue&quot;, sans-serif; font-size: 12px; font-weight: 200;" x="139.29199981689453" y="0" dx="0em" dy="0.95em" fill="rgb(50, 49, 63)" stroke="none" stroke-width="1px">100</text><text style="text-anchor: middle; visibility: inherit; font-family: &quot;Helvetica Neue&quot;, sans-serif; font-size: 12px; font-weight: 200;" x="162.5073331197103" y="0" dx="0em" dy="0.95em" fill="rgb(50, 49, 63)" stroke="none" stroke-width="1px">120</text><text style="text-anchor: middle; visibility: hidden; font-family: &quot;Helvetica Neue&quot;, sans-serif; font-size: 12px; font-weight: 200;" x="185.72266642252603" y="0" dx="0em" dy="0.95em" fill="rgb(50, 49, 63)" stroke="none" stroke-width="1px">140</text><text style="text-anchor: middle; visibility: inherit; font-family: &quot;Helvetica Neue&quot;, sans-serif; font-size: 12px; font-weight: 200;" x="208.9379997253418" y="0" dx="0em" dy="0.95em" fill="rgb(50, 49, 63)" stroke="none" stroke-width="1px">160</text><text style="text-anchor: middle; visibility: hidden; font-family: &quot;Helvetica Neue&quot;, sans-serif; font-size: 12px; font-weight: 200;" x="232.15333302815756" y="0" dx="0em" dy="0.95em" fill="rgb(50, 49, 63)" stroke="none" stroke-width="1px">180</text><text style="text-anchor: middle; visibility: inherit; font-family: &quot;Helvetica Neue&quot;, sans-serif; font-size: 12px; font-weight: 200;" x="255.3686663309733" y="0" dx="0em" dy="0.95em" fill="rgb(50, 49, 63)" stroke="none" stroke-width="1px">200</text><text style="text-anchor: middle; visibility: hidden; font-family: &quot;Helvetica Neue&quot;, sans-serif; font-size: 12px; font-weight: 200;" x="278.58399963378906" y="0" dx="0em" dy="0.95em" fill="rgb(50, 49, 63)" stroke="none" stroke-width="1px">220</text></g><line x1="0" y1="0" x2="278.58399963378906" y2="0" fill="rgb(0, 0, 0)" stroke="rgb(204, 204, 204)" stroke-width="1px"></line></g></g></g></g></svg>