<svg viewBox="0 0 330 200" xmlns="http://www.w3.org/2000/svg"><g><g><g><g><g><line x1="51.41600036621094" y1="177.9749994277954" x2="46.41600036621094" y2="177.9749994277954" style="visibility: inherit;" fill="rgb(0, 0, 0)" stroke="rgb(204, 204, 204)" stroke-width="1px"></line><line x1="51.41600036621094" y1="165.26249946866716" x2="46.41600036621094" y2="165.26249946866716" style="visibility: inherit;" fill="rgb(0, 0, 0)" stroke="rgb(204, 204, 204)" stroke-width="1px"></line><line x1="51.41600036621094" y1="152.5499995095389" x2="46.41600036621094" y2="152.5499995095389" style="visibility: inherit;" fill="rgb(0, 0, 0)" stroke="rgb(204, 204, 204)" stroke-width="1px"></line><line x1="51.41600036621094" y1="139.83749955041066" x2="46.41600036621094" y2="139.83749955041066" style="visibility: inherit;" fill="rgb(0, 0, 0)" stroke="rgb(204, 204, 204)" stroke-width="1px"></line><line x1="51.41600036621094" y1="127.12499959128243" x2="46.41600036621094" y2="127.12499959128243" style="visibility: inherit;" fill="rgb(0, 0, 0)" stroke="rgb(204, 204, 204)" stroke-width="1px"></line><line x1="51.41600036621094" y1="114.4124996321542" x2="46.41600036621094" y2="114.4124996321542" style="visibility: inherit;" fill="rgb(0, 0, 0)" stroke="rgb(204, 204, 204)" stroke-width="1px"></line><line x1="51.41600036621094" y1="101.69999967302593" x2="46.41600036621094" y2="101.69999967302593" style="visibility: inherit;" fill="rgb(0, 0, 0)" stroke="rgb(204, 204, 204)" stroke-width="1px"></line><line x1="51.41600036621094" y1="88.9874997138977" x2="46.41600036621094" y2="88.9874997138977" style="visibility: inherit;" fill="rgb(0, 0, 0)" stroke="rgb(204, 204, 204)" stroke-width="1px"></line><line x1="51.41600036621094" y1="76.27499975476945" x2="46.41600036621094" y2="76.27499975476945" style="visibility: inherit;" fill="rgb(0, 0, 0)" stroke="rgb(204, 204, 204)" stroke-width="1px"></line><line x1="51.41600036621094" y1="63.56249979564123" x2="46.41600036621094" y2="63.56249979564123" style="visibility: inherit;" fill="rgb(0, 0, 0)" stroke="rgb(204, 204, 204)" stroke-width="1px"></line><line x1="51.41600036621094" y1="50.84999983651298" x2="46.41600036621094" y2="50.84999983651298" style="visibility: inherit;" fill="rgb(0, 0, 0)" stroke="rgb(204, 204, 204)" stroke-width="1px"></line><line x1="51.41600036621094" y1="38.13749987738473" x2="46.41600036621094" y2="38.13749987738473" style="visibility: inherit;" fill="rgb(0, 0, 0)" stroke="rgb(204, 204, 204)" stroke-width="1px"></line><line x1="51.41600036621094" y1="25.424999918256475" x2="46.41600036621094" y2="25.424999918256475" style="visibility: inherit;" fill="rgb(0, 0, 0)" stroke="rgb(204, 204, 204)" stroke-width="1px"></line><line x1="51.41600036621094" y1="12.712499959128223" x2="46.41600036621094" y2="12.712499959128223" style="visibility: inherit;" fill="rgb(0, 0, 0)" stroke="rgb(204, 204, 204)" stroke-width="1px"></line><line x1="51.41600036621094" y1="0" x2="46.41600036621094" y2="0" style="visibility: inherit;" fill="rgb(0, 0, 0)" stroke="rgb(204, 204, 204)" stroke-width="1px"></line></g><g transform="translate(41.41600036621094, 0)"><text style="text-anchor: end; visibility: hidden; font-family: &quot;Helvetica Neue&quot;, sans-serif; font-size: 12px; font-weight: 200;" x="0" y="177.9749994277954" dx="0em" dy="0.3em" fill="rgb(50, 49, 63)" stroke="none" stroke-width="1px">-0.4</text><text style="text-anchor: end; visibility: inherit; font-family: &quot;Helvetica Neue&quot;, sans-serif; font-size: 12px; font-weight: 200;" x="0" y="165.26249946866716" dx="0em" dy="0.3em" fill="rgb(50, 49, 63)" stroke="none" stroke-width="1px">-0.2</text><text style="text-anchor: end; visibility: hidden; font-family: &quot;Helvetica Neue&quot;, sans-serif; font-size: 12px; font-weight: 200;" x="0" y="152.5499995095389" dx="0em" dy="0.3em" fill="rgb(50, 49, 63)" stroke="none" stroke-width="1px">0</text><text style="text-anchor: end; visibility: inherit; font-family: &quot;Helvetica Neue&quot;, sans-serif; font-size: 12px; font-weight: 200;" x="0" y="139.83749955041066" dx="0em" dy="0.3em" fill="rgb(50, 49, 63)" stroke="none" stroke-width="1px">0.2</text><text style="text-anchor: end; visibility: hidden; font-family: &quot;Helvetica Neue&quot;, sans-serif; font-size: 12px; font-weight: 200;" x="0" y="127.12499959128243" dx="0em" dy="0.3em" fill="rgb(50, 49, 63)" stroke="none" stroke-width="1px">0.4</text><text style="text-anchor: end; visibility: inherit; font-family: &quot;Helvetica Neue&quot;, sans-serif; font-size: 12px; font-weight: 200;" x="0" y="114.4124996321542" dx="0em" dy="0.3em" fill="rgb(50, 49, 63)" stroke="none" stroke-width="1px">0.6</text><text style="text-anchor: end; visibility: hidden; font-family: &quot;Helvetica Neue&quot;, sans-serif; font-size: 12px; font-weight: 200;" x="0" y="101.69999967302593" dx="0em" dy="0.3em" fill="rgb(50, 49, 63)" stroke="none" stroke-width="1px">0.8</text><text style="text-anchor: end; visibility: inherit; font-family: &quot;Helvetica Neue&quot;, sans-serif; font-size: 12px; font-weight: 200;" x="0" y="88.9874997138977" dx="0em" dy="0.3em" fill="rgb(50, 49, 63)" stroke="none" stroke-width="1px">1</text><text style="text-anchor: end; visibility: hidden; font-family: &quot;Helvetica Neue&quot;, sans-serif; font-size: 12px; font-weight: 200;" x="0" y="76.27499975476945" dx="0em" dy="0.3em" fill="rgb(50, 49, 63)" stroke="none" stroke-width="1px">1.2</text><text style="text-anchor: end; visibility: inherit; font-family: &quot;Helvetica Neue&quot;, sans-serif; font-size: 12px; font-weight: 200;" x="0" y="63.56249979564123" dx="0em" dy="0.3em" fill="rgb(50, 49, 63)" stroke="none" stroke-width="1px">1.4</text><text style="text-anchor: end; visibility: hidden; font-family: &quot;Helvetica Neue&quot;, sans-serif; font-size: 12px; font-weight: 200;" x="0" y="50.84999983651298" dx="0em" dy="0.3em" fill="rgb(50, 49, 63)" stroke="none" stroke-width="1px">1.6</text><text style="text-anchor: end; visibility: inherit; font-family: &quot;Helvetica Neue&quot;, sans-serif; font-size: 12px; font-weight: 200;" x="0" y="38.13749987738473" dx="0em" dy="0.3em" fill="rgb(50, 49, 63)" stroke="none" stroke-width="1px">1.8</text><text style="text-anchor: end; visibility: hidden; font-family: &quot;Helvetica Neue&quot;, sans-serif; font-size: 12px; font-weight: 200;" x="0" y="25.424999918256475" dx="0em" dy="0.3em" fill="rgb(50, 49, 63)" stroke="none" stroke-width="1px">2</text><text style="text-anchor: end; visibility: inherit; font-family: &quot;Helvetica Neue&quot;, sans-serif; font-size: 12px; font-weight: 200;" x="0" y="12.712499959128223" dx="0em" dy="0.3em" fill="rgb(50, 49, 63)" stroke="none" stroke-width="1px">2.2</text><text style="text-anchor: end; visibility: hidden; font-family: &quot;Helvetica Neue&quot;, sans-serif; font-size: 12px; font-weight: 200;" x="0" y="0" dx="0em" dy="0.3em" fill="rgb(50, 49, 63)" stroke="none" stroke-width="1px">2.4</text></g><line x1="51.41600036621094" y1="0" x2="51.41600036621094" y2="177.9749994277954" fill="rgb(0, 0, 0)" stroke="rgb(204, 204, 204)" stroke-width="1px"></line></g></g><g transform="translate(51, 0)" clip-path="url(#clip_0)"><clipPath id="clip_0"><rect width="278" height="177"></rect></clipPath><g><g><g><line x1="0" y1="0" x2="0" y2="177.9749994277954" fill="rgb(0, 0, 0)" stroke="rgb(60, 60, 60)" stroke-width="1px" opacity="0.25"></line><line x1="23.215333302815754" y1="0" x2="23.215333302815754" y2="177.9749994277954" fill="rgb(0, 0, 0)" stroke="rgb(60, 60, 60)" stroke-width="1px" opacity="0.25"></line><line x1="46.43066660563151" y1="0" x2="46.43066660563151" y2="177.9749994277954" fill="rgb(0, 0, 0)" stroke="rgb(60, 60, 60)" stroke-width="1px" opacity="0.25"></line><line x1="69.64599990844727" y1="0" x2="69.64599990844727" y2="177.9749994277954" fill="rgb(0, 0, 0)" stroke="rgb(60, 60, 60)" stroke-width="1px" opacity="0.25"></line><line x1="92.86133321126302" y1="0" x2="92.86133321126302" y2="177.9749994277954" fill="rgb(0, 0, 0)" stroke="rgb(60, 60, 60)" stroke-width="1px" opacity="0.25"></line><line x1="116.07666651407878" y1="0" x2="116.07666651407878" y2="177.9749994277954" fill="rgb(0, 0, 0)" stroke="rgb(60, 60, 60)" stroke-width="1px" opacity="0.25"></line><line x1="139.29199981689453" y1="0" x2="139.29199981689453" y2="177.9749994277954" fill="rgb(0, 0, 0)" stroke="rgb(60, 60, 60)" stroke-width="1px" opacity="0.25"></line><line x1="162.5073331197103" y1="0" x2="162.5073331197103" y2="177.9749994277954" fill="rgb(0, 0, 0)" stroke="rgb(60, 60, 60)" stroke-width="1px" opacity="0.25"></line><line x1="185.72266642252603" y1="0" x2="185.72266642252603" y2="177.9749994277954" fill="rgb(0, 0, 0)" stroke="rgb(60, 60, 60)" stroke-width="1px" opacity="0.25"></line><line x1="208.9379997253418" y1="0" x2="208.9379997253418" y2="177.9749994277954" fill="rgb(0, 0, 0)" stroke="rgb(60, 60, 60)" stroke-width="1px" opacity="0.25"></line><line x1="232.15333302815756" y1="0" x2="232.15333302815756" y2="177.9749994277954" fill="rgb(0, 0, 0)" stroke="rgb(60, 60, 60)" stroke-width="1px" opacity="0.25"></line><line x1="255.3686663309733" y1="0" x2="255.3686663309733" y2="177.9749994277954" fill="rgb(0, 0, 0)" stroke="rgb(60, 60, 60)" stroke-width="1px" opacity="0.25"></line><line x1="278.58399963378906" y1="0" x2="278.58399963378906" y2="177.9749994277954" fill="rgb(0, 0, 0)" stroke="rgb(60, 60, 60)" stroke-width="1px" opacity="0.25"></line></g><g><line x1="0" y1="177.9749994277954" x2="278.58399963378906" y2="177.9749994277954" fill="rgb(0, 0, 0)" stroke="rgb(60, 60, 60)" stroke-width="1px" opacity="0.25"></line><line x1="0" y1="165.26249946866716" x2="278.58399963378906" y2="165.26249946866716" fill="rgb(0, 0, 0)" stroke="rgb(60, 60, 60)" stroke-width="1px" opacity="0.25"></line><line x1="0" y1="152.5499995095389" x2="278.58399963378906" y2="152.5499995095389" fill="rgb(0, 0, 0)" stroke="rgb(60, 60, 60)" stroke-width="1px" opacity="0.25"></line><line x1="0" y1="139.83749955041066" x2="278.58399963378906" y2="139.83749955041066" fill="rgb(0, 0, 0)" stroke="rgb(60, 60, 60)" stroke-width="1px" opacity="0.25"></line><line x1="0" y1="127.12499959128243" x2="278.58399963378906" y2="127.12499959128243" fill="rgb(0, 0, 0)" stroke="rgb(60, 60, 60)" stroke-width="1px" opacity="0.25"></line><line x1="0" y1="114.4124996321542" x2="278.58399963378906" y2="114.4124996321542" fill="rgb(0, 0, 0)" stroke="rgb(60, 60, 60)" stroke-width="1px" opacity="0.25"></line><line x1="0" y1="101.69999967302593" x2="278.58399963378906" y2="101.69999967302593" fill="rgb(0, 0, 0)" stroke="rgb(60, 60, 60)" stroke-width="1px" opacity="0.25"></line><line x1="0" y1="88.9874997138977" x2="278.58399963378906" y2="88.9874997138977" fill="rgb(0, 0, 0)" stroke="rgb(60, 60, 60)" stroke-width="1px" opacity="0.25"></line><line x1="0" y1="76.27499975476945" x2="278.58399963378906" y2="76.27499975476945" fill="rgb(0, 0, 0)" stroke="rgb(60, 60, 60)" stroke-width="1px" opacity="0.25"></line><line x1="0" y1="63.56249979564123" x2="278.58399963378906" y2="63.56249979564123" fill="rgb(0, 0, 0)" stroke="rgb(60, 60, 60)" stroke-width="1px" opacity="0.25"></line><line x1="0" y1="50.84999983651298" x2="278.58399963378906" y2="50.84999983651298" fill="rgb(0, 0, 0)" stroke="rgb(60, 60, 60)" stroke-width="1px" opacity="0.25"></line><line x1="0" y1="38.13749987738473" x2="278.58399963378906" y2="38.13749987738473" fill="rgb(0, 0, 0)" stroke="rgb(60, 60, 60)" stroke-width="1px" opacity="0.25"></line><line x1="0" y1="25.424999918256475" x2="278.58399963378906" y2="25.424999918256475" fill="rgb(0, 0, 0)" stroke="rgb(60, 60, 60)" stroke-width="1px" opacity="0.25"></line><line x1="0" y1="12.712499959128223" x2="278.58399963378906" y2="12.712499959128223" fill="rgb(0, 0, 0)" stroke="rgb(60, 60, 60)" stroke-width="1px" opacity="0.25"></line><line x1="0" y1="0" x2="278.58399963378906" y2="0" fill="rgb(0, 0, 0)" stroke="rgb(60, 60, 60)" stroke-width="1px" opacity="0.25"></line></g></g></g><g><g><line x1="0" y1="152.5499995095389" x2="278.58399963378906" y2="152.5499995095389" fill="rgb(0, 0, 0)" stroke="rgb(153, 153, 153)" stroke-width="1.5px"></line></g></g><g><g><line x1="23.215333302815754" y1="0" x2="23.215333302815754" y2="177.9749994277954" fill="rgb(0, 0, 0)" stroke="rgb(153, 153, 153)" stroke-width="1.5px"></line></g></g><g><g><g><g><g><path style="fill: none;" stroke="rgb(238, 51, 119)" stroke-width="2px" d="M31.34069995880127,-2.4136753868941128L32.50146662394206,3.1256510842682133L33.66223328908285,12.355972610921668L34.82299995422363,15.59533382706553L35.983766619364424,20.281447869897818L37.14453328450521,23.203383329415658L38.305299949646,27.145253238724507L39.46606661478678,30.63096569614177L40.626833279927574,33.10792771066147L41.78759994506836,35.05580891126894L42.94836661020915,36.50229653454187L44.10913327534993,38.56723094550833L45.269899940490724,41.27536698869466L46.43066660563151,40.920994607669996L47.5914332707723,45.26584489544351L48.75219993591308,46.31405760656668L49.912966601053874,47.24814949938221L51.07373326619466,46.21672037583963L52.23449993133545,45.7554482866492L53.39526659647624,49.09600354890546L54.556033261617024,51.588385247726094L55.716799926757815,53.79946189511111L56.8775665918986,54.68049037310632L58.03833325703939,54.07400804807182L59.199099922180174,55.15549242197895L60.359866587320965,56.46801443422473L61.52063325246175,57.92551936510134L62.68139991760254,54.159615710593556L63.842166582743324,56.45731537071963L65.00293324788412,58.80507028121025L66.1636999130249,58.166452879458205L67.3244665781657,58.647069663498854L68.48523324330647,58.444249668568844L69.64599990844727,60.89355475547265L70.80676657358805,59.16295850180032L71.96753323872885,60.97290361738871L73.12829990386963,57.14372242794386L74.28906656901042,61.50650804384523L75.4498332341512,60.07697070744267L76.610599899292,64.05814376292786L77.77136656443278,62.74108298365687L78.93213322957357,64.82242969742225L80.09289989471435,64.61909445014211L81.25366655985515,60.433313170982444L82.41443322499593,60.58730542849965L83.57519989013672,60.5750757624251L84.7359665552775,61.74000070808735L85.8967332204183,62.35206745932814L87.05749988555908,64.40330979681463L88.21826655069987,64.36382479686766L89.37903321584066,63.672053053409996L90.53979988098145,62.13394143870384L91.70056654612223,64.45970719742971L92.86133321126302,63.61890628894483L94.02209987640381,64.78308108780325L95.1828665415446,64.74907443269637L96.34363320668538,65.24157990699163L97.50439987182617,63.461496695987975L98.66516653696696,65.60435544766727L99.82593320210775,64.87303050909867L100.98669986724853,66.09085217029147L102.14746653238932,68.03452800245324L103.30823319753011,66.22549215571799L104.4689998626709,66.80865173466984L105.62976652781168,67.28878357532217L106.79053319295248,67.17614789614127L107.95129985809326,67.91087501566867L109.11206652323405,65.24855096819894L110.27283318837483,64.07243443840281L111.43359985351563,66.22612106667472L112.59436651865641,65.30644866242167L113.7551331837972,68.03226998480132L114.91589984893798,67.11440854101407L116.07666651407878,69.64128941557036L117.23743317921956,82.9669123932571L118.39819984436035,85.41858157917905L119.55896650950113,86.66096865388712L120.71973317464193,87.77758111448665L121.88049983978271,88.58089741450144L123.0412665049235,89.49075350376096L124.2020331700643,90.42755804865497L125.36279983520508,91.15618927824619L126.52356650034586,91.3719587770928L127.68433316548665,92.07574044665216L128.84509983062745,92.636615361462L130.00586649576823,93.012832926683L131.16663316090902,93.54783156538099L132.3273998260498,93.70172153015221L133.4881664911906,93.45417687350908L134.6489331563314,94.19248045052544L135.80969982147215,95.12943275160808L136.97046648661293,95.17173648499974L138.13123315175375,95.40313783087966L139.29199981689453,96.12304007948087L140.45276648203532,96.03716342492342L141.6135331471761,95.92749044675563L142.77429981231688,96.15707704354952L143.9350664774577,96.59524612663012L145.09583314259848,97.4616126443687L146.25659980773926,97.3073172972338L147.41736647288005,97.41133007679088L148.57813313802083,97.65503686114977L149.73889980316162,97.64754675897214L150.8996664683024,98.1171803329911L152.06043313344318,98.21602922318647L153.221199798584,98.85169528978608L154.38196646372478,98.15982125358245L155.54273312886556,99.23979017940103L156.70349979400635,99.0871769796444L157.86426645914713,99.87414538340406L159.02503312428792,99.71977426386472L160.1857997894287,100.09468854372957L161.3465664545695,99.64037236126556L162.5073331197103,100.27004483067499L163.66809978485108,101.01511867202689L164.82886644999186,101.3723022092558L165.98963311513265,101.55121979920929L167.15039978027343,101.60619646724138L168.31116644541422,101.98248222762636L169.471933110555,101.80645156628154L170.6326997756958,101.87706008134694L171.7934664408366,102.20103257371545L172.95423310597738,102.04776394266052L174.11499977111816,102.25118632820575L175.27576643625895,102.12272179374004L176.43653310139973,102.28817841604706L177.59729976654052,102.30595841074587L178.75806643168133,102.61562886177877L179.9188330968221,102.34568967100722L181.0795997619629,102.28950822174475L182.24036642710368,102.57250678641931L183.40113309224446,102.37921517134599L184.56189975738525,102.11614853765599L185.72266642252603,102.48952084909075L186.88343308766682,102.185980385576L188.04419975280763,102.19190957622243L189.2049664179484,102.58539946103258L190.3657330830892,102.92631845165121L191.52649974822998,103.10727053066357L192.68726641337076,102.64173624372413L193.84803307851155,102.46627766403273L195.00879974365233,102.61497343048048L196.16956640879314,102.99601769786348L197.33033307393393,102.89321727677724L198.4910997390747,103.0741542013087L199.6518664042155,103.17232871710468L200.81263306935628,103.09831044384006L201.97339973449706,103.03229373648296L203.13416639963785,102.96207544930036L204.29493306477863,102.84061607362393L205.45569972991944,102.99920771608986L206.61646639506023,102.95187648366448L207.777233060201,102.97847638623861L208.9379997253418,103.10283405638437L210.09876639048258,103.07572269008034L211.25953305562336,103.41477010230963L212.42029972076415,103.44498813719515L213.58106638590496,103.1446225374259L214.74183305104575,103.48492777156868L215.90259971618653,103.41731605509838L217.0633663813273,103.27843281502395L218.2241330464681,103.38067252031743L219.38489971160888,103.52916370127322L220.54566637674967,103.43302746315634L221.70643304189045,103.21956902264475L222.86719970703126,103.56146168866027L224.02796637217205,103.23263976240843L225.18873303731283,103.56390913732326L226.3494997024536,103.6639552315086L227.5102663675944,103.34086548765166L228.67103303273518,103.85498125168954L229.83179969787597,103.38009286142356L230.99256636301678,103.8294989920807L232.15333302815756,103.785516899931L233.31409969329835,103.66809998203075L234.47486635843913,103.68149275451324L235.6356330235799,103.85622770774236L236.7963996887207,103.87218158749448L237.95716635386148,103.80967693108258L239.11793301900227,104.1480045054698L240.27869968414308,103.89884210799217L241.43946634928386,103.92829484159297L242.60023301442465,103.7569203945002L243.76099967956543,104.00685945912322L244.9217663447062,104.14962224630432L246.082533009847,103.92710142622325L247.24329967498778,104.1287734692262L248.4040663401286,104.0929710081344L249.56483300526938,104.29410506706591L250.72559967041016,104.06069196384846L251.88636633555095,104.16159807482401L253.04713300069173,104.25275606597005L254.2078996658325,104.21431672520417L255.3686663309733,104.11468359062297L256.52943299611405,104.12938722570206L257.6901996612549,104.52971557001176L258.8509663263957,104.04875023291073L260.01173299153646,104.00789754106387L261.17249965667725,104.36812334033053L262.33326632181803,104.22515975627769L263.4940329869588,104.32569079385135L264.6547996520996,104.5515266566261" fill="none"></path></g><g><path style="fill: none;" stroke="rgb(204, 51, 17)" stroke-width="2px" d="M30.179933293660483,-5.020579497765851L31.34069995880127,2.687383497061859L32.50146662394206,8.301891347896742L33.66223328908285,17.405688113637837L34.82299995422363,19.92077122482482L35.983766619364424,25.42448466590639L37.14453328450521,25.271166782788583L38.305299949646,28.988886765321183L39.46606661478678,33.30947472919712L40.626833279927574,35.52416572027329L41.78759994506836,36.372862113299476L42.94836661020915,35.60325695601432L44.10913327534993,37.928477153428304L45.269899940490724,41.33656835975043L46.43066660563151,40.045232311782456L47.5914332707723,43.92662826511804L48.75219993591308,45.36197734494016L49.912966601053874,45.83626713321115L51.07373326619466,43.79841377958695L52.23449993133545,43.29020068585393L53.39526659647624,46.83859965345374L54.556033261617024,48.65424285385504L55.716799926757815,49.785805209848036L56.8775665918986,51.66096005668638L58.03833325703939,49.60928581649466L59.199099922180174,50.7468190379565L60.359866587320965,51.220616305598725L61.52063325246175,51.974157713145345L62.68139991760254,47.620146541676604L63.842166582743324,50.613914240591356L65.00293324788412,53.13410441183673L66.1636999130249,51.71691797735579L67.3244665781657,52.381692013116066L68.48523324330647,52.66187563296616L69.64599990844727,52.676484552539705L70.80676657358805,51.44823660849774L71.96753323872885,52.42337441279142L73.12829990386963,50.59525907462141L74.28906656901042,53.14729638744748L75.4498332341512,52.99297073135082L76.610599899292,54.916074355710634L77.77136656443278,52.331363982095596L78.93213322957357,54.28781504164377L80.09289989471435,56.54955311862874L81.25366655985515,51.951456300778986L82.41443322499593,52.29171228285888L83.57519989013672,51.85552843677428L84.7359665552775,54.07540226031327L85.8967332204183,52.765661095309966L87.05749988555908,56.050894925094L88.21826655069987,55.31897896177085L89.37903321584066,53.50985976539073L90.53979988098145,52.11141184652459L91.70056654612223,55.714980701787766L92.86133321126302,55.60860382321256L94.02209987640381,56.95157876479762L95.1828665415446,53.86839205141844L96.34363320668538,55.773196640109106L97.50439987182617,53.03584275777567L98.66516653696696,55.27152270487815L99.82593320210775,54.28565552811759L100.98669986724853,57.074701344751205L102.14746653238932,57.25729768493963L103.30823319753011,56.06048013425402L104.4689998626709,57.195111272626306L105.62976652781168,56.33795110202563L106.79053319295248,55.769180702674475L107.95129985809326,56.21313122021286L109.11206652323405,55.796549695153544L110.27283318837483,53.534159975490496L111.43359985351563,54.35676035243199L112.59436651865641,55.066421960574885L113.7551331837972,57.157634241396664L114.91589984893798,55.508296314231956L116.07666651407878,57.51506782756019L117.23743317921956,67.47231191608505L118.39819984436035,68.73437708422283L119.55896650950113,69.305526737073L120.71973317464193,69.57938336115342L121.88049983978271,69.60844965549165L123.0412665049235,70.62476218435103L124.2020331700643,70.59774174493232L125.36279983520508,70.48387855279972L126.52356650034586,70.59861312758323L127.68433316548665,71.01724050756208L128.84509983062745,70.80804805341974L130.00586649576823,70.91827417013984L131.16663316090902,71.31018420031769L132.3273998260498,71.55858887375106L133.4881664911906,71.7199689406999L134.6489331563314,71.12036674998737L135.80969982147215,71.28599007158412L136.97046648661293,71.37190840096402L138.13123315175375,71.83453681619368L139.29199981689453,71.83125587108198L140.45276648203532,71.14925119055498L141.6135331471761,71.1858719936146L142.77429981231688,71.51350429311694L143.9350664774577,71.48533211315093L145.09583314259848,71.97083621727714L146.25659980773926,71.57843366647052L147.41736647288005,71.80931976000034L148.57813313802083,72.00756310170296L149.73889980316162,70.98977301095725L150.8996664683024,71.50258548963899L152.06043313344318,71.73495672229558L153.221199798584,71.33952327531186L154.38196646372478,71.56619642315555L155.54273312886556,71.90572499015293L156.70349979400635,71.87005134214866L157.86426645914713,72.01343546304606L159.02503312428792,71.55009478721477L160.1857997894287,72.08576780031217L161.3465664545695,71.74362508536204L162.5073331197103,71.8389770790931L163.66809978485108,72.64335419276988L164.82886644999186,72.68246790793515L165.98963311513265,72.75149656836824L167.15039978027343,72.83348230995836L168.31116644541422,72.77262949196295L169.471933110555,72.69491731398251L170.6326997756958,72.78315427893787L171.7934664408366,72.76688594370738L172.95423310597738,72.85981322049678L174.11499977111816,72.73115925502L175.27576643625895,72.71257986145447L176.43653310139973,72.83551301039701L177.59729976654052,72.89256963093061L178.75806643168133,72.73695584395867L179.9188330968221,72.75105708842256L181.0795997619629,72.7364633233299L182.24036642710368,72.7299544737896L183.40113309224446,72.84030940359723L184.56189975738525,72.9221966410616L185.72266642252603,72.74619250005834L186.88343308766682,72.7799491062306L188.04419975280763,72.69353825622194L189.2049664179484,72.72139219208934L190.3657330830892,72.68887067610923L191.52649974822998,72.86981517788115L192.68726641337076,72.78285876656061L193.84803307851155,72.95955243644417L195.00879974365233,72.6866656991404L196.16956640879314,72.82469271104482L197.33033307393393,72.87158067490431L198.4910997390747,72.84754566822002L199.6518664042155,72.76966679094986L200.81263306935628,72.78394231194392L201.97339973449706,72.86427621511753L203.13416639963785,72.85394843639412L204.29493306477863,72.91555140119335L205.45569972991944,72.77465261516116L206.61646639506023,72.62623720660979L207.777233060201,72.78709444396809L208.9379997253418,72.79783139367541L210.09876639048258,72.7077076958498L211.25953305562336,72.65504587477298L212.42029972076415,72.70147162696546L213.58106638590496,72.8308454302843L214.74183305104575,72.7146408708549L215.90259971618653,72.83282309003984L217.0633663813273,72.68451376285468L218.2241330464681,72.70874577779047L219.38489971160888,72.71002633142528L220.54566637674967,72.69426567130445L221.70643304189045,72.71595173345148L222.86719970703126,72.7124434711265L224.02796637217205,72.69891051969583L225.18873303731283,72.6354814399499L226.3494997024536,72.60573319397182L227.5102663675944,72.80177913594606L228.67103303273518,72.74977653478774L229.83179969787597,72.77126558868326L230.99256636301678,72.70394938459023L232.15333302815756,72.88350725136112L233.31409969329835,72.60182333790338L234.47486635843913,72.69843315354794L235.6356330235799,72.74117636688526L236.7963996887207,72.64813543148922L237.95716635386148,72.74167646475448L239.11793301900227,72.77708490934326L240.27869968414308,72.70719244349971L241.43946634928386,72.68867366785773L242.60023301442465,72.75805845859162L243.76099967956543,72.76725722848907L244.9217663447062,72.73402345190735L246.082533009847,72.56564959202989L247.24329967498778,72.67151121825499L248.4040663401286,72.66157745603459L249.56483300526938,72.80612847196018L250.72559967041016,72.75250434134712L251.88636633555095,72.66782110215938L253.04713300069173,72.75536853823446L254.2078996658325,72.61363625575356L255.3686663309733,72.76875752209672L256.52943299611405,72.77472838756559L257.6901996612549,72.73941086986211L258.8509663263957,72.72495349509742L260.01173299153646,72.74088085450799L261.17249965667725,72.79327747216934L262.33326632181803,72.7869201674379L263.4940329869588,72.74948859965092L264.6547996520996,72.71379979716575" fill="none"></path></g></g></g></g></g></g><g transform="translate(51, 177)" clip-path="url(#clip_1)"><clipPath id="clip_1"><rect width="278" height="22"></rect></clipPath><g><g><line x1="0" y1="0" x2="0" y2="5" style="visibility: inherit;" fill="rgb(0, 0, 0)" stroke="rgb(204, 204, 204)" stroke-width="1px"></line><line x1="23.215333302815754" y1="0" x2="23.215333302815754" y2="5" style="visibility: inherit;" fill="rgb(0, 0, 0)" stroke="rgb(204, 204, 204)" stroke-width="1px"></line><line x1="46.43066660563151" y1="0" x2="46.43066660563151" y2="5" style="visibility: inherit;" fill="rgb(0, 0, 0)" stroke="rgb(204, 204, 204)" stroke-width="1px"></line><line x1="69.64599990844727" y1="0" x2="69.64599990844727" y2="5" style="visibility: inherit;" fill="rgb(0, 0, 0)" stroke="rgb(204, 204, 204)" stroke-width="1px"></line><line x1="92.86133321126302" y1="0" x2="92.86133321126302" y2="5" style="visibility: inherit;" fill="rgb(0, 0, 0)" stroke="rgb(204, 204, 204)" stroke-width="1px"></line><line x1="116.07666651407878" y1="0" x2="116.07666651407878" y2="5" style="visibility: inherit;" fill="rgb(0, 0, 0)" stroke="rgb(204, 204, 204)" stroke-width="1px"></line><line x1="139.29199981689453" y1="0" x2="139.29199981689453" y2="5" style="visibility: inherit;" fill="rgb(0, 0, 0)" stroke="rgb(204, 204, 204)" stroke-width="1px"></line><line x1="162.5073331197103" y1="0" x2="162.5073331197103" y2="5" style="visibility: inherit;" fill="rgb(0, 0, 0)" stroke="rgb(204, 204, 204)" stroke-width="1px"></line><line x1="185.72266642252603" y1="0" x2="185.72266642252603" y2="5" style="visibility: inherit;" fill="rgb(0, 0, 0)" stroke="rgb(204, 204, 204)" stroke-width="1px"></line><line x1="208.9379997253418" y1="0" x2="208.9379997253418" y2="5" style="visibility: inherit;" fill="rgb(0, 0, 0)" stroke="rgb(204, 204, 204)" stroke-width="1px"></line><line x1="232.15333302815756" y1="0" x2="232.15333302815756" y2="5" style="visibility: inherit;" fill="rgb(0, 0, 0)" stroke="rgb(204, 204, 204)" stroke-width="1px"></line><line x1="255.3686663309733" y1="0" x2="255.3686663309733" y2="5" style="visibility: inherit;" fill="rgb(0, 0, 0)" stroke="rgb(204, 204, 204)" stroke-width="1px"></line><line x1="278.58399963378906" y1="0" x2="278.58399963378906" y2="5" style="visibility: inherit;" fill="rgb(0, 0, 0)" stroke="rgb(204, 204, 204)" stroke-width="1px"></line></g><g transform="translate(0, 8)"><text style="text-anchor: middle; visibility: hidden; font-family: &quot;Helvetica Neue&quot;, sans-serif; font-size: 12px; font-weight: 200;" x="0" y="0" dx="0em" dy="0.95em" fill="rgb(50, 49, 63)" stroke="none" stroke-width="1px">-20</text><text style="text-anchor: middle; visibility: inherit; font-family: &quot;Helvetica Neue&quot;, sans-serif; font-size: 12px; font-weight: 200;" x="23.215333302815754" y="0" dx="0em" dy="0.95em" fill="rgb(50, 49, 63)" stroke="none" stroke-width="1px">0</text><text style="text-anchor: middle; visibility: hidden; font-family: &quot;Helvetica Neue&quot;, sans-serif; font-size: 12px; font-weight: 200;" x="46.43066660563151" y="0" dx="0em" dy="0.95em" fill="rgb(50, 49, 63)" stroke="none" stroke-width="1px">20</text><text style="text-anchor: middle; visibility: inherit; font-family: &quot;Helvetica Neue&quot;, sans-serif; font-size: 12px; font-weight: 200;" x="69.64599990844727" y="0" dx="0em" dy="0.95em" fill="rgb(50, 49, 63)" stroke="none" stroke-width="1px">40</text><text style="text-anchor: middle; visibility: hidden; font-family: &quot;Helvetica Neue&quot;, sans-serif; font-size: 12px; font-weight: 200;" x="92.86133321126302" y="0" dx="0em" dy="0.95em" fill="rgb(50, 49, 63)" stroke="none" stroke-width="1px">60</text><text style="text-anchor: middle; visibility: inherit; font-family: &quot;Helvetica Neue&quot;, sans-serif; font-size: 12px; font-weight: 200;" x="116.07666651407878" y="0" dx="0em" dy="0.95em" fill="rgb(50, 49, 63)" stroke="none" stroke-width="1px">80</text><text style="text-anchor: middle; visibility: hidden; font-family: &quot;Helvetica Neue&quot;, sans-serif; font-size: 12px; font-weight: 200;" x="139.29199981689453" y="0" dx="0em" dy="0.95em" fill="rgb(50, 49, 63)" stroke="none" stroke-width="1px">100</text><text style="text-anchor: middle; visibility: inherit; font-family: &quot;Helvetica Neue&quot;, sans-serif; font-size: 12px; font-weight: 200;" x="162.5073331197103" y="0" dx="0em" dy="0.95em" fill="rgb(50, 49, 63)" stroke="none" stroke-width="1px">120</text><text style="text-anchor: middle; visibility: hidden; font-family: &quot;Helvetica Neue&quot;, sans-serif; font-size: 12px; font-weight: 200;" x="185.72266642252603" y="0" dx="0em" dy="0.95em" fill="rgb(50, 49, 63)" stroke="none" stroke-width="1px">140</text><text style="text-anchor: middle; visibility: inherit; font-family: &quot;Helvetica Neue&quot;, sans-serif; font-size: 12px; font-weight: 200;" x="208.9379997253418" y="0" dx="0em" dy="0.95em" fill="rgb(50, 49, 63)" stroke="none" stroke-width="1px">160</text><text style="text-anchor: middle; visibility: hidden; font-family: &quot;Helvetica Neue&quot;, sans-serif; font-size: 12px; font-weight: 200;" x="232.15333302815756" y="0" dx="0em" dy="0.95em" fill="rgb(50, 49, 63)" stroke="none" stroke-width="1px">180</text><text style="text-anchor: middle; visibility: inherit; font-family: &quot;Helvetica Neue&quot;, sans-serif; font-size: 12px; font-weight: 200;" x="255.3686663309733" y="0" dx="0em" dy="0.95em" fill="rgb(50, 49, 63)" stroke="none" stroke-width="1px">200</text><text style="text-anchor: middle; visibility: hidden; font-family: &quot;Helvetica Neue&quot;, sans-serif; font-size: 12px; font-weight: 200;" x="278.58399963378906" y="0" dx="0em" dy="0.95em" fill="rgb(50, 49, 63)" stroke="none" stroke-width="1px">220</text></g><line x1="0" y1="0" x2="278.58399963378906" y2="0" fill="rgb(0, 0, 0)" stroke="rgb(204, 204, 204)" stroke-width="1px"></line></g></g></g></g></svg>