<svg viewBox="0 0 330 200" xmlns="http://www.w3.org/2000/svg"><g><g><g><g><g><line x1="51.41600036621094" y1="177.9749994277954" x2="46.41600036621094" y2="177.9749994277954" style="visibility: inherit;" fill="rgb(0, 0, 0)" stroke="rgb(204, 204, 204)" stroke-width="1px"></line><line x1="51.41600036621094" y1="163.14374947547913" x2="46.41600036621094" y2="163.14374947547913" style="visibility: inherit;" fill="rgb(0, 0, 0)" stroke="rgb(204, 204, 204)" stroke-width="1px"></line><line x1="51.41600036621094" y1="148.31249952316284" x2="46.41600036621094" y2="148.31249952316284" style="visibility: inherit;" fill="rgb(0, 0, 0)" stroke="rgb(204, 204, 204)" stroke-width="1px"></line><line x1="51.41600036621094" y1="133.48124957084656" x2="46.41600036621094" y2="133.48124957084656" style="visibility: inherit;" fill="rgb(0, 0, 0)" stroke="rgb(204, 204, 204)" stroke-width="1px"></line><line x1="51.41600036621094" y1="118.64999961853027" x2="46.41600036621094" y2="118.64999961853027" style="visibility: inherit;" fill="rgb(0, 0, 0)" stroke="rgb(204, 204, 204)" stroke-width="1px"></line><line x1="51.41600036621094" y1="103.81874966621399" x2="46.41600036621094" y2="103.81874966621399" style="visibility: inherit;" fill="rgb(0, 0, 0)" stroke="rgb(204, 204, 204)" stroke-width="1px"></line><line x1="51.41600036621094" y1="88.98749971389772" x2="46.41600036621094" y2="88.98749971389772" style="visibility: inherit;" fill="rgb(0, 0, 0)" stroke="rgb(204, 204, 204)" stroke-width="1px"></line><line x1="51.41600036621094" y1="74.15624976158144" x2="46.41600036621094" y2="74.15624976158144" style="visibility: inherit;" fill="rgb(0, 0, 0)" stroke="rgb(204, 204, 204)" stroke-width="1px"></line><line x1="51.41600036621094" y1="59.324999809265165" x2="46.41600036621094" y2="59.324999809265165" style="visibility: inherit;" fill="rgb(0, 0, 0)" stroke="rgb(204, 204, 204)" stroke-width="1px"></line><line x1="51.41600036621094" y1="44.49374985694888" x2="46.41600036621094" y2="44.49374985694888" style="visibility: inherit;" fill="rgb(0, 0, 0)" stroke="rgb(204, 204, 204)" stroke-width="1px"></line><line x1="51.41600036621094" y1="29.66249990463257" x2="46.41600036621094" y2="29.66249990463257" style="visibility: inherit;" fill="rgb(0, 0, 0)" stroke="rgb(204, 204, 204)" stroke-width="1px"></line><line x1="51.41600036621094" y1="14.831249952316284" x2="46.41600036621094" y2="14.831249952316284" style="visibility: inherit;" fill="rgb(0, 0, 0)" stroke="rgb(204, 204, 204)" stroke-width="1px"></line><line x1="51.41600036621094" y1="0" x2="46.41600036621094" y2="0" style="visibility: inherit;" fill="rgb(0, 0, 0)" stroke="rgb(204, 204, 204)" stroke-width="1px"></line></g><g transform="translate(41.41600036621094, 0)"><text style="text-anchor: end; visibility: hidden; font-family: &quot;Helvetica Neue&quot;, sans-serif; font-size: 12px; font-weight: 200;" x="0" y="177.9749994277954" dx="0em" dy="0.3em" fill="rgb(50, 49, 63)" stroke="none" stroke-width="1px">-0.1</text><text style="text-anchor: end; visibility: inherit; font-family: &quot;Helvetica Neue&quot;, sans-serif; font-size: 12px; font-weight: 200;" x="0" y="163.14374947547913" dx="0em" dy="0.3em" fill="rgb(50, 49, 63)" stroke="none" stroke-width="1px">0</text><text style="text-anchor: end; visibility: hidden; font-family: &quot;Helvetica Neue&quot;, sans-serif; font-size: 12px; font-weight: 200;" x="0" y="148.31249952316284" dx="0em" dy="0.3em" fill="rgb(50, 49, 63)" stroke="none" stroke-width="1px">0.1</text><text style="text-anchor: end; visibility: inherit; font-family: &quot;Helvetica Neue&quot;, sans-serif; font-size: 12px; font-weight: 200;" x="0" y="133.48124957084656" dx="0em" dy="0.3em" fill="rgb(50, 49, 63)" stroke="none" stroke-width="1px">0.2</text><text style="text-anchor: end; visibility: hidden; font-family: &quot;Helvetica Neue&quot;, sans-serif; font-size: 12px; font-weight: 200;" x="0" y="118.64999961853027" dx="0em" dy="0.3em" fill="rgb(50, 49, 63)" stroke="none" stroke-width="1px">0.3</text><text style="text-anchor: end; visibility: inherit; font-family: &quot;Helvetica Neue&quot;, sans-serif; font-size: 12px; font-weight: 200;" x="0" y="103.81874966621399" dx="0em" dy="0.3em" fill="rgb(50, 49, 63)" stroke="none" stroke-width="1px">0.4</text><text style="text-anchor: end; visibility: hidden; font-family: &quot;Helvetica Neue&quot;, sans-serif; font-size: 12px; font-weight: 200;" x="0" y="88.98749971389772" dx="0em" dy="0.3em" fill="rgb(50, 49, 63)" stroke="none" stroke-width="1px">0.5</text><text style="text-anchor: end; visibility: inherit; font-family: &quot;Helvetica Neue&quot;, sans-serif; font-size: 12px; font-weight: 200;" x="0" y="74.15624976158144" dx="0em" dy="0.3em" fill="rgb(50, 49, 63)" stroke="none" stroke-width="1px">0.6</text><text style="text-anchor: end; visibility: hidden; font-family: &quot;Helvetica Neue&quot;, sans-serif; font-size: 12px; font-weight: 200;" x="0" y="59.324999809265165" dx="0em" dy="0.3em" fill="rgb(50, 49, 63)" stroke="none" stroke-width="1px">0.7</text><text style="text-anchor: end; visibility: inherit; font-family: &quot;Helvetica Neue&quot;, sans-serif; font-size: 12px; font-weight: 200;" x="0" y="44.49374985694888" dx="0em" dy="0.3em" fill="rgb(50, 49, 63)" stroke="none" stroke-width="1px">0.8</text><text style="text-anchor: end; visibility: hidden; font-family: &quot;Helvetica Neue&quot;, sans-serif; font-size: 12px; font-weight: 200;" x="0" y="29.66249990463257" dx="0em" dy="0.3em" fill="rgb(50, 49, 63)" stroke="none" stroke-width="1px">0.9</text><text style="text-anchor: end; visibility: inherit; font-family: &quot;Helvetica Neue&quot;, sans-serif; font-size: 12px; font-weight: 200;" x="0" y="14.831249952316284" dx="0em" dy="0.3em" fill="rgb(50, 49, 63)" stroke="none" stroke-width="1px">1</text><text style="text-anchor: end; visibility: hidden; font-family: &quot;Helvetica Neue&quot;, sans-serif; font-size: 12px; font-weight: 200;" x="0" y="0" dx="0em" dy="0.3em" fill="rgb(50, 49, 63)" stroke="none" stroke-width="1px">1.1</text></g><line x1="51.41600036621094" y1="0" x2="51.41600036621094" y2="177.9749994277954" fill="rgb(0, 0, 0)" stroke="rgb(204, 204, 204)" stroke-width="1px"></line></g></g><g transform="translate(51, 0)" clip-path="url(#clip_0)"><clipPath id="clip_0"><rect width="278" height="177"></rect></clipPath><g><g><g><line x1="0" y1="0" x2="0" y2="177.9749994277954" fill="rgb(0, 0, 0)" stroke="rgb(60, 60, 60)" stroke-width="1px" opacity="0.25"></line><line x1="34.82299995422363" y1="0" x2="34.82299995422363" y2="177.9749994277954" fill="rgb(0, 0, 0)" stroke="rgb(60, 60, 60)" stroke-width="1px" opacity="0.25"></line><line x1="69.64599990844727" y1="0" x2="69.64599990844727" y2="177.9749994277954" fill="rgb(0, 0, 0)" stroke="rgb(60, 60, 60)" stroke-width="1px" opacity="0.25"></line><line x1="104.4689998626709" y1="0" x2="104.4689998626709" y2="177.9749994277954" fill="rgb(0, 0, 0)" stroke="rgb(60, 60, 60)" stroke-width="1px" opacity="0.25"></line><line x1="139.29199981689453" y1="0" x2="139.29199981689453" y2="177.9749994277954" fill="rgb(0, 0, 0)" stroke="rgb(60, 60, 60)" stroke-width="1px" opacity="0.25"></line><line x1="174.11499977111816" y1="0" x2="174.11499977111816" y2="177.9749994277954" fill="rgb(0, 0, 0)" stroke="rgb(60, 60, 60)" stroke-width="1px" opacity="0.25"></line><line x1="208.9379997253418" y1="0" x2="208.9379997253418" y2="177.9749994277954" fill="rgb(0, 0, 0)" stroke="rgb(60, 60, 60)" stroke-width="1px" opacity="0.25"></line><line x1="243.76099967956543" y1="0" x2="243.76099967956543" y2="177.9749994277954" fill="rgb(0, 0, 0)" stroke="rgb(60, 60, 60)" stroke-width="1px" opacity="0.25"></line><line x1="278.58399963378906" y1="0" x2="278.58399963378906" y2="177.9749994277954" fill="rgb(0, 0, 0)" stroke="rgb(60, 60, 60)" stroke-width="1px" opacity="0.25"></line></g><g><line x1="0" y1="177.9749994277954" x2="278.58399963378906" y2="177.9749994277954" fill="rgb(0, 0, 0)" stroke="rgb(60, 60, 60)" stroke-width="1px" opacity="0.25"></line><line x1="0" y1="163.14374947547913" x2="278.58399963378906" y2="163.14374947547913" fill="rgb(0, 0, 0)" stroke="rgb(60, 60, 60)" stroke-width="1px" opacity="0.25"></line><line x1="0" y1="148.31249952316284" x2="278.58399963378906" y2="148.31249952316284" fill="rgb(0, 0, 0)" stroke="rgb(60, 60, 60)" stroke-width="1px" opacity="0.25"></line><line x1="0" y1="133.48124957084656" x2="278.58399963378906" y2="133.48124957084656" fill="rgb(0, 0, 0)" stroke="rgb(60, 60, 60)" stroke-width="1px" opacity="0.25"></line><line x1="0" y1="118.64999961853027" x2="278.58399963378906" y2="118.64999961853027" fill="rgb(0, 0, 0)" stroke="rgb(60, 60, 60)" stroke-width="1px" opacity="0.25"></line><line x1="0" y1="103.81874966621399" x2="278.58399963378906" y2="103.81874966621399" fill="rgb(0, 0, 0)" stroke="rgb(60, 60, 60)" stroke-width="1px" opacity="0.25"></line><line x1="0" y1="88.98749971389772" x2="278.58399963378906" y2="88.98749971389772" fill="rgb(0, 0, 0)" stroke="rgb(60, 60, 60)" stroke-width="1px" opacity="0.25"></line><line x1="0" y1="74.15624976158144" x2="278.58399963378906" y2="74.15624976158144" fill="rgb(0, 0, 0)" stroke="rgb(60, 60, 60)" stroke-width="1px" opacity="0.25"></line><line x1="0" y1="59.324999809265165" x2="278.58399963378906" y2="59.324999809265165" fill="rgb(0, 0, 0)" stroke="rgb(60, 60, 60)" stroke-width="1px" opacity="0.25"></line><line x1="0" y1="44.49374985694888" x2="278.58399963378906" y2="44.49374985694888" fill="rgb(0, 0, 0)" stroke="rgb(60, 60, 60)" stroke-width="1px" opacity="0.25"></line><line x1="0" y1="29.66249990463257" x2="278.58399963378906" y2="29.66249990463257" fill="rgb(0, 0, 0)" stroke="rgb(60, 60, 60)" stroke-width="1px" opacity="0.25"></line><line x1="0" y1="14.831249952316284" x2="278.58399963378906" y2="14.831249952316284" fill="rgb(0, 0, 0)" stroke="rgb(60, 60, 60)" stroke-width="1px" opacity="0.25"></line><line x1="0" y1="0" x2="278.58399963378906" y2="0" fill="rgb(0, 0, 0)" stroke="rgb(60, 60, 60)" stroke-width="1px" opacity="0.25"></line></g></g></g><g><g><line x1="0" y1="163.14374947547913" x2="278.58399963378906" y2="163.14374947547913" fill="rgb(0, 0, 0)" stroke="rgb(153, 153, 153)" stroke-width="1.5px"></line></g></g><g><g><line x1="34.82299995422363" y1="0" x2="34.82299995422363" y2="177.9749994277954" fill="rgb(0, 0, 0)" stroke="rgb(153, 153, 153)" stroke-width="1.5px"></line></g></g><g><g><g><g><g><path style="fill: none;" stroke="rgb(51, 187, 238)" stroke-width="2px" d="M34.82299995422363,161.62206324615107L35.51945995330811,139.67477875390918L36.21591995239258,134.59655988267602L36.91237995147705,131.92989975936294L37.608839950561524,129.29883656449468L38.305299949646,127.79494755624802L39.001759948730474,127.66740018359422L39.69821994781494,123.70745792439283L40.39467994689941,123.63626406750323L41.09113994598388,123.65406363673986L41.78759994506836,119.59029866042914L42.48405994415283,118.16650108366193L43.18051994323731,116.12572102091671L43.876979942321775,114.34893769812585L44.57343994140625,115.3989885214931L45.269899940490724,110.57586660559596L45.9663599395752,109.78387638573291L46.66281993865967,107.73123289020123L47.35927993774414,104.14207152620317L48.05573993682861,104.7056597245282L48.75219993591308,100.96818335041465L49.44865993499756,99.03122158472182L50.14511993408203,98.68713783334495L50.8415799331665,97.6697114501405L51.538039932250975,96.88069150853099L52.23449993133545,96.91925208514394L52.930959930419924,93.54069317344727L53.6274199295044,92.44614563701691L54.323879928588866,89.0735228617704L55.02033992767334,86.2941468668151L55.716799926757815,86.5077151773131L56.41325992584229,84.71906842173577L57.10971992492676,83.60968717426542L57.806179924011225,79.01199700165274L58.5026399230957,79.8514453727186L59.199099922180174,78.323829498899L59.89555992126465,75.15290718130711L60.592019920349124,72.31717546055914L61.28847991943359,73.36129898759009L61.984939918518066,70.65311242946744L62.68139991760254,68.44918364556672L63.377859916687015,70.69463444422009L64.07431991577148,64.9549430040312L64.77077991485596,63.46884914496424L65.46723991394043,68.54707022622587L66.1636999130249,65.80922508613706L66.86015991210937,63.93751662082674L67.55661991119385,62.608635346465135L68.25307991027832,63.462917428571004L68.9495399093628,60.28903367283941L69.64599990844727,58.559704081194425L70.34245990753173,59.66315361227156L71.03891990661621,58.79996953551891L71.73537990570068,56.9045430447495L72.43183990478516,56.25196584035518L73.12829990386963,55.18114516949775L73.8247599029541,52.725096338599926L74.52121990203858,54.009476479841496L75.21767990112305,52.24752686809066L75.91413990020753,54.17855249733333L76.610599899292,50.60125898617865L77.30705989837647,51.30723047822595L78.00351989746095,51.56825251986983L78.6999798965454,53.65649957393171L79.39643989562988,51.83521511802081L80.09289989471435,50.0969923718429L80.78935989379882,47.81001955843686L81.4858198928833,50.25717523480179L82.18227989196777,52.97722522571088L82.87873989105225,49.42959029652238L83.57519989013672,46.81929031905892L84.27165988922118,47.64983669547797L84.96811988830567,45.256075306766064L85.66457988739013,45.267938739552505L86.36103988647461,45.733644777275344L87.05749988555908,45.04546843440775L87.75395988464355,47.023965475024L88.45041988372803,46.528600855335014L89.1468798828125,44.642058678984654L89.84333988189698,47.97019358128193L90.53979988098145,43.08181394494537L91.23625988006592,47.63204154629827L91.9327198791504,43.51785256058815L92.62917987823486,46.47520656768205L93.32563987731935,41.45927292860631L94.02209987640381,42.46186560077075L94.71855987548828,44.45518751231316L95.41501987457276,43.48522370036844L96.11147987365722,39.69435303860192L96.8079398727417,39.80707333030108L97.50439987182617,42.37288101475838L98.20085987091063,41.414780635600124L98.89731986999512,40.57830254278781L99.59377986907958,38.75405664873722L100.29023986816406,41.54529607647899L100.98669986724853,42.111850133000644L101.683159866333,40.05624077927234L102.37961986541748,40.22531679676416L103.07607986450195,39.910891627353465L103.77253986358643,38.67396521725777L104.4689998626709,38.91423067158226L105.16545986175537,37.95613913253786L105.86191986083985,40.70881798366668L106.55837985992432,39.21975384634618L107.2548398590088,37.451872518202094L107.95129985809326,37.170076209011114L108.64775985717773,36.90904532725338L109.34421985626221,38.14004002095584L110.04067985534668,37.353985937542944L110.73713985443116,39.359171281871824L111.43359985351563,37.769259125752484L112.1300598526001,36.38105184734468L112.82651985168458,37.14041762704494L113.52297985076903,35.91832492798926L114.21943984985352,38.297252605661185L114.91589984893798,37.98579771450403L115.61235984802245,36.50563557183031L116.30881984710693,38.371412320747396L117.0052798461914,37.62688025208715L117.70173984527588,36.64208272910241L118.39819984436035,35.882725789516L119.09465984344482,35.65136232983829L119.7911198425293,36.30690097237232L120.48757984161377,38.148942015602614L121.18403984069825,35.07590627866986L121.88049983978271,35.004716841837194L122.57695983886718,36.85862131785396L123.27341983795166,35.75814206503037L123.96987983703613,36.683613583968906L124.66633983612061,42.07922127278093L125.36279983520508,33.794487575567985L126.05925983428955,36.265370117505825L126.75571983337403,33.80338073010091L127.4521798324585,34.88903511199834L128.14863983154297,33.20123637521985L128.84509983062745,35.924256644382496L129.54155982971193,32.020665690916815L130.23801982879638,34.002124169672754L130.93447982788086,34.541981082367926L131.63093982696532,33.414804685717854L132.3273998260498,34.16822990891103L133.02385982513428,34.150434759731326L133.72031982421873,33.672874129335895L134.41677982330322,32.36178800415399L135.1132398223877,32.26983313988808L135.80969982147215,31.08630101744535L136.50615982055663,32.87494777302268L137.20261981964111,31.053672157225634L137.8990798187256,32.33212058207397L138.59553981781005,33.20123637521985L139.29199981689453,32.913508349635634L139.98845981597898,34.212731042031066L140.68491981506347,33.89533559436683L141.38137981414795,30.65915555633549L142.07783981323243,31.09816445023182L142.77429981231688,31.47487706182841L143.47075981140136,31.483779056475186L144.16721981048582,31.16935388706449L144.86367980957033,30.946883581919707L145.56013980865478,30.87866442334058L146.25659980773926,31.86642338446501L146.95305980682372,29.475623433892736L147.6495198059082,30.02141206298117L148.34597980499268,30.234989213593025L149.04243980407716,32.252037990708374L149.73889980316162,29.795980319696696L150.4353598022461,30.994346153179436L151.13181980133055,29.294683983614448L151.82827980041506,30.26761807381274L152.5247397994995,29.64173801324486L153.221199798584,32.02363596917036L153.91765979766845,31.053672157225634L154.61411979675293,30.685852700161973L155.3105797958374,30.501951811743993L156.0070397949219,28.725168488953102L156.70349979400635,29.920564044182328L157.3999597930908,29.828609179916413L158.09641979217528,29.069252240329973L158.79287979125976,28.98025881420375L159.48933979034425,28.54125876042127L160.1857997894287,30.48414782245044L160.88225978851318,28.977297376064058L161.57871978759763,28.28022787866354L162.27517978668214,30.003616913801466L162.9716397857666,28.46413760719537L163.66809978485108,28.787455931138993L164.36455978393553,27.55943151569008L165.06101978302001,27.345854365078225L165.7574797821045,29.573510014551886L166.45393978118898,27.212377486059665L167.15039978027343,29.422237986353622L167.8468597793579,27.921310416246655L168.54331977844237,27.65731809634923L169.23977977752688,27.526802655470362L169.93623977661133,27.357726637978544L170.6326997756958,26.684384006150964L171.32915977478027,26.622096563965073L172.02561977386475,27.446711223990917L172.72207977294923,28.938736799451107L173.4185397720337,26.930581176868685L174.11499977111816,26.699217717190976L174.81145977020262,26.75261200484394L175.5079197692871,27.606885246835958L176.20437976837158,26.80006573598982L176.90083976745606,26.14155681520225L177.59729976654052,26.71701286637068L178.293759765625,26.45895226286649L178.99021976470945,26.378860831387044L179.68667976379396,26.028845363616938L180.38313976287841,25.619503891800633L181.0795997619629,25.545344176714423L181.77605976104735,26.076307934876667L182.47251976013183,25.500851883708236L183.1689797592163,25.486018172668224L183.8654397583008,25.32287387156964L184.56189975738525,25.325844149823183L185.25835975646973,24.984721836586004L185.95481975555418,26.438186835433243L186.6512797546387,24.771153526088L187.34773975372315,25.435594163268803L188.04419975280763,24.60207750859618L188.74065975189208,24.495288933290254L189.43711975097656,24.118576321693666L190.13357975006105,24.213501464213124L190.83003974914553,23.961363736988318L191.52649974822998,24.40334290913819L192.22295974731443,23.848652285403006L192.91941974639892,23.774492570316795L193.6158797454834,23.09521822209598L194.31233974456788,23.554992543425556L195.00879974365233,24.142312027380456L195.7052597427368,23.599484836431742L196.40171974182127,23.282098228881352L197.09817974090578,23.41261366976022L197.79463973999023,23.062589361876263L198.4910997390747,22.760036465365886L199.18755973815917,22.407050719342237L199.88401973724365,22.522732449181092L200.58047973632813,22.626550746233477L201.2769397354126,22.478240156174905L201.97339973449706,22.258740129283666L202.66985973358155,22.246876696497196L203.366319732666,22.466376723388436L204.0627797317505,22.26171040753721L204.75923973083496,21.953216954519746L205.45569972991944,21.914656377906795L206.1521597290039,21.671420645328794L206.84861972808838,21.618026357675802L207.54507972717286,21.532012049916972L208.24153972625734,21.4815792004037L208.9379997253418,21.46971576761723L209.63445972442625,21.35700431603192L210.33091972351073,21.377760903351344L211.0273797225952,21.377760903351344L211.7238397216797,21.279874322692194L212.42029972076415,21.167162871106882L213.11675971984863,21.134534010887137L213.81321971893308,21.03960886836768L214.5096797180176,21.045540584760943L215.20613971710205,21.057412857661234L215.90259971618653,21.095973434274185L216.59905971527098,20.93282913317563L217.29551971435546,20.926897416782367L217.99197971343995,20.95655599874854L218.68843971252443,20.915025143882048L219.38489971160888,20.91799542213559L220.08135971069336,20.923927138528825L220.77781970977782,20.88239628366233L221.47427970886233,20.912063705742383L222.17073970794678,20.897229994702343L222.86719970703126,20.897229994702343L223.56365970611571,20.852737701696185L224.2601197052002,20.864601134482626L224.95657970428468,20.852737701696185L225.65303970336916,20.849767423442643L226.3494997024536,20.861639696342934L227.04595970153807,20.852737701696185L227.74241970062255,20.84383570704938L228.43887969970703,20.84383570704938L229.1353396987915,20.86757141273617L229.83179969787597,20.83494255251648L230.52825969696045,20.840874268909687L231.2247196960449,20.837903990656145L231.9211796951294,20.84680598530292L232.61763969421386,20.82010884147644L233.31409969329835,20.81120684682969L234.0105596923828,20.840874268909687L234.70701969146728,20.837903990656145L235.40347969055176,20.829010836123217L236.09993968963624,20.826040557869675L236.7963996887207,20.814177125083233L237.49285968780518,20.814177125083233L238.18931968688963,20.814177125083233L238.88577968597414,20.823079119729982L239.5822396850586,20.817138563222898L240.27869968414308,20.829010836123217L240.97515968322753,20.837903990656145L241.671619682312,20.829010836123217L242.3680796813965,20.826040557869675L243.06453968048098,20.823079119729982" fill="none"></path></g><g><path style="fill: none;" stroke="rgb(0, 119, 187)" stroke-width="2px" d="M34.82299995422363,161.7051181876719L35.51945995330811,140.30362467267366L36.21591995239258,135.42414261092694L36.91237995147705,132.17609914010913L37.608839950561524,129.29883656449468L38.305299949646,128.6165985681057L39.001759948730474,128.67592457215193L39.69821994781494,124.21172011867165L40.39467994689941,124.93844819803834L41.09113994598388,124.68631931092739L41.78759994506836,120.19244743536711L42.48405994415283,118.7093238545537L43.18051994323731,116.54396006732287L43.876979942321775,115.84689498997928L44.57343994140625,116.57362306934597L45.269899940490724,111.42718282950521L45.9663599395752,110.89325763320328L46.66281993865967,109.33597433730365L47.35927993774414,105.8061389773518L48.05573993682861,105.6281609652132L48.75219993591308,102.70640609659256L49.44865993499756,100.83766790953578L50.14511993408203,100.88216020254197L50.8415799331665,100.80800490751268L51.538039932250975,100.17026141415836L52.23449993133545,98.74646383739115L52.930959930419924,97.75276873981656L53.6274199295044,95.03865046530069L54.323879928588866,93.31822286830248L55.02033992767334,90.7672488948852L55.716799926757815,90.0108578134954L56.41325992584229,90.0256871044785L57.10971992492676,88.08279362239244L57.806179924011225,85.56147823094133L58.5026399230957,86.28821515042188L59.199099922180174,85.33900792579654L59.89555992126465,82.07613958405257L60.592019920349124,79.19887700843813L61.28847991943359,80.9934554804087L61.984939918518066,79.4213473135829L62.68139991760254,78.48697379999759L63.377859916687015,80.1332416819096L64.07431991577148,75.49105921629074L64.77077991485596,75.01646002403501L65.46723991394043,78.54629980404378L66.1636999130249,76.63306932398082L66.86015991210937,75.69869581039552L67.55661991119385,75.2537640402198L68.25307991027832,75.46140063432456L68.9495399093628,72.88075923882725L69.64599990844727,72.80660836385489L70.34245990753173,72.94008524287345L71.03891990661621,72.71761493772867L71.73537990570068,70.62641528564097L72.43183990478516,71.41246936905385L73.12829990386963,70.31496039448382L73.8247599029541,68.92082139968277L74.52121990203858,70.04799779633284L75.21767990112305,68.50553937135938L75.91413990020753,69.82552749118807L76.610599899292,67.0075909196198L77.30705989837647,67.71948528794648L78.00351989746095,69.43991288494469L78.6999798965454,70.1221486713052L79.39643989562988,70.49292956650855L80.09289989471435,68.99497227465513L80.78935989379882,67.86779587800507L81.4858198928833,69.67720806101563L82.18227989196777,71.14550677090288L82.87873989105225,69.35092829893232L83.57519989013672,66.0287251130283L84.27165988922118,67.79364500303271L84.96811988830567,65.68760279979112L85.66457988739013,66.0880511170745L86.36103988647461,66.79994548540118L87.05749988555908,67.39319668574932L87.75395988464355,68.29790277725462L88.45041988372803,68.22375190228226L89.1468798828125,66.8296129074812L89.84333988189698,69.38058688089849L90.53979988098145,64.87189013441206L91.23625988006592,68.75767709858418L91.9327198791504,67.1707352207184L92.62917987823486,68.65385880153181L93.32563987731935,65.76176251487735L94.02209987640381,65.2871633226216L94.71855987548828,68.50553937135938L95.41501987457276,66.97792349753978L96.11147987365722,64.04133491787914L96.8079398727417,64.48627552816869L97.50439987182617,67.46735640083553L98.20085987091063,65.71727022187115L98.89731986999512,65.3019970336616L99.59377986907958,62.82517393521668L100.29023986816406,65.99906653106214L100.98669986724853,66.44399830123785L101.683159866333,64.78289670828585L102.37961986541748,65.56895963181259L103.07607986450195,65.390981619674L103.77253986358643,64.70874583331349L104.4689998626709,64.90154871637824L105.16545986175537,63.59640314770343L105.86191986083985,66.85927148944738L106.55837985992432,65.52445849869255L107.2548398590088,64.72357070423965L107.95129985809326,63.67055402267579L108.64775985717773,64.76807183735968L109.34421985626221,65.42064020164015L110.04067985534668,64.67907841123345L110.73713985443116,66.97792349753978L111.43359985351563,63.462917428571004L112.1300598526001,64.64941982926729L112.82651985168458,63.83369832377436L113.52297985076903,63.83369832377436L114.21943984985352,64.5011092392087L114.91589984893798,64.78289670828585L115.61235984802245,65.06469301747681L116.30881984710693,66.81477919644121L117.0052798461914,65.58378450273875L117.70173984527588,63.98200891383294L118.39819984436035,65.25749590054157L119.09465984344482,63.922682909786744L119.7911198425293,65.36131419759396L120.48757984161377,66.57748402037025L121.18403984069825,64.23414664105773L121.88049983978271,64.27863893406393L122.57695983886718,66.22152799609306L123.27341983795166,64.64941982926729L123.96987983703613,64.88671500533822L124.66633983612061,69.95900437020663L125.36279983520508,63.80403974180818L126.05925983428955,64.51593411013486L126.75571983337403,64.15998692597154L127.4521798324585,63.685387733715785L128.14863983154297,63.893024327820555L128.84509983062745,65.46514133476019L129.54155982971193,61.34205035440327L130.23801982879638,63.729880026721986L130.93447982788086,64.93121613845825L131.63093982696532,64.57526011418106L132.3273998260498,65.3316556156278L133.02385982513428,64.90154871637824L133.72031982421873,64.85705642337204L134.41677982330322,62.15777185989619L135.1132398223877,63.329440549552444L135.80969982147215,61.653505245560424L136.50615982055663,63.28493941643241L137.20261981964111,61.95013526579142L137.8990798187256,63.93751662082674L138.59553981781005,64.39729094215633L139.29199981689453,64.3527898090363L139.98845981597898,64.96087472042444L140.68491981506347,65.31682190458777L141.38137981414795,61.90563413267138L142.07783981323243,61.83148325769902L142.77429981231688,62.95865965434909L143.47075981140136,63.34426542047861L144.16721981048582,61.697997538566625L144.86367980957033,61.697997538566625L145.56013980865478,62.38023332492713L146.25659980773926,61.697997538566625L146.95305980682372,61.97979384775759L147.6495198059082,62.15777185989619L148.34597980499268,62.765847931170484L149.04243980407716,64.94604100938442L149.73889980316162,62.914158521229055L150.4353598022461,63.09213653336765L151.13181980133055,62.780681642210496L151.82827980041506,63.53707714365723L152.5247397994995,62.810340224176684L153.221199798584,64.48627552816869L153.91765979766845,63.34426542047861L154.61411979675293,62.706521927124285L155.3105797958374,63.10697024440768L156.0070397949219,61.861141839665194L156.70349979400635,63.35909913151863L157.3999597930908,62.706521927124285L158.09641979217528,61.727664960646635L158.79287979125976,62.52855275509954L159.48933979034425,63.34426542047861L160.1857997894287,64.64941982926729L160.88225978851318,62.736189349204324L161.57871978759763,62.02428614076378L162.27517978668214,63.50740972157719L162.9716397857666,62.42473445804717L163.66809978485108,62.02428614076378L164.36455978393553,62.11327072677615L165.06101978302001,61.727664960646635L165.7574797821045,62.6027036300719L166.45393978118898,61.623846663594264L167.15039978027343,63.225622252500074L167.8468597793579,62.276415027874734L168.54331977844237,62.276415027874734L169.23977977752688,62.97348452527525L169.93623977661133,62.217097863942385L170.6326997756958,61.134413760298514L171.32915977478027,60.70430686104896L172.02561977386475,62.03911985180379L172.72207977294923,63.99684262487294L173.4185397720337,61.54968694850804L174.11499977111816,61.594179241514226L174.81145977020262,61.134413760298514L175.5079197692871,61.801815835618996L176.20437976837158,61.41621006948948L176.90083976745606,61.53485323746803L177.59729976654052,61.68317266764046L178.293759765625,61.104746338218476L178.99021976470945,62.00945242972378L179.68667976379396,61.594179241514226L180.38313976287841,60.70430686104896L181.0795997619629,60.49667026694418L181.77605976104735,61.7424898315728L182.47251976013183,61.17890605330469L183.1689797592163,60.91194345515372L183.8654397583008,60.615322275036576L184.56189975738525,60.600488563996564L185.25835975646973,61.00092804116609L185.95481975555418,62.58787875914574L186.6512797546387,60.83778374006752L187.34773975372315,61.653505245560424L188.04419975280763,60.17038166474701L188.74065975189208,60.051729656654615L189.43711975097656,60.42251055185797L190.13357975006105,60.644980857002764L190.83003974914553,60.185215375787024L191.52649974822998,60.200040246713186L192.22295974731443,59.695782472491274L192.91941974639892,59.918252777636056L193.6158797454834,59.38432758133412L194.31233974456788,60.051729656654615L195.00879974365233,59.99240365260842L195.7052597427368,59.043205268096955L196.40171974182127,59.50297074931267L197.09817974090578,59.35466015925411L197.79463973999023,59.147023565149325L198.4910997390747,58.909728389078396L199.18755973815917,58.12366546555165L199.88401973724365,58.19782518063785L200.58047973632813,57.12997478803399L201.2769397354126,58.7317503769398L201.97339973449706,57.930862582486895L202.66985973358155,58.7465840879798L203.366319732666,58.95422068208457L204.0627797317505,58.805910092026L204.75923973083496,58.10884059462549L205.45569972991944,57.604573980289715L206.1521597290039,56.10661668843629L206.84861972808838,57.6935585663021L207.54507972717286,56.951996775895395L208.24153972625734,56.358745575547246L208.9379997253418,56.774027603870636L209.63445972442625,56.03246581346393L210.33091972351073,55.52819919912818L211.0273797225952,56.72953531086445L211.7238397216797,55.75066950427295L212.42029972076415,55.839654090285336L213.11675971984863,55.94347238733771L213.81321971893308,55.54303291016818L214.5096797180176,55.06843371791244L215.20613971710205,55.18707688589099L215.90259971618653,55.48370690612198L216.59905971527098,54.845963412767674L217.29551971435546,54.35653050947192L217.99197971343995,54.80147111976147L218.68843971252443,54.44551509548428L219.38489971160888,54.86079712380767L220.08135971069336,54.50484109953048L220.77781970977782,54.193386208373326L221.47427970886233,54.37136422051192L222.17073970794678,54.17855249733333L222.86719970703126,53.837439024209985L223.56365970611571,53.98574961426857L224.2601197052002,53.92642361022237L224.95657970428468,54.01540819623473L225.65303970336916,53.57047642605902L226.3494997024536,53.58531013709903L227.04595970153807,53.214529241895676L227.74241970062255,53.629802430105215L228.43887969970703,53.42216583600046L229.1353396987915,53.51115042201282L229.83179969787597,53.31834753894806L230.52825969696045,53.199695530855664L231.2247196960449,53.77811302016379L231.9211796951294,53.348006120914235L232.61763969421386,53.54080900397899L233.31409969329835,53.45182441796662L234.0105596923828,53.37766470288042L234.70701969146728,53.348006120914235L235.40347969055176,53.481482999932794L236.09993968963624,53.199695530855664L236.7963996887207,53.140369526809465L237.49285968780518,53.46665812900663L238.18931968688963,53.140369526809465L238.88577968597414,52.88824063969851L239.5822396850586,53.22935411282184L240.27869968414308,52.88824063969851L240.97515968322753,53.273846405828024L241.671619682312,53.42216583600046L242.3680796813965,53.140369526809465L243.06453968048098,53.42216583600046" fill="none"></path></g></g></g></g></g></g><g transform="translate(51, 177)" clip-path="url(#clip_1)"><clipPath id="clip_1"><rect width="278" height="22"></rect></clipPath><g><g><line x1="0" y1="0" x2="0" y2="5" style="visibility: inherit;" fill="rgb(0, 0, 0)" stroke="rgb(204, 204, 204)" stroke-width="1px"></line><line x1="34.82299995422363" y1="0" x2="34.82299995422363" y2="5" style="visibility: inherit;" fill="rgb(0, 0, 0)" stroke="rgb(204, 204, 204)" stroke-width="1px"></line><line x1="69.64599990844727" y1="0" x2="69.64599990844727" y2="5" style="visibility: inherit;" fill="rgb(0, 0, 0)" stroke="rgb(204, 204, 204)" stroke-width="1px"></line><line x1="104.4689998626709" y1="0" x2="104.4689998626709" y2="5" style="visibility: inherit;" fill="rgb(0, 0, 0)" stroke="rgb(204, 204, 204)" stroke-width="1px"></line><line x1="139.29199981689453" y1="0" x2="139.29199981689453" y2="5" style="visibility: inherit;" fill="rgb(0, 0, 0)" stroke="rgb(204, 204, 204)" stroke-width="1px"></line><line x1="174.11499977111816" y1="0" x2="174.11499977111816" y2="5" style="visibility: inherit;" fill="rgb(0, 0, 0)" stroke="rgb(204, 204, 204)" stroke-width="1px"></line><line x1="208.9379997253418" y1="0" x2="208.9379997253418" y2="5" style="visibility: inherit;" fill="rgb(0, 0, 0)" stroke="rgb(204, 204, 204)" stroke-width="1px"></line><line x1="243.76099967956543" y1="0" x2="243.76099967956543" y2="5" style="visibility: inherit;" fill="rgb(0, 0, 0)" stroke="rgb(204, 204, 204)" stroke-width="1px"></line><line x1="278.58399963378906" y1="0" x2="278.58399963378906" y2="5" style="visibility: inherit;" fill="rgb(0, 0, 0)" stroke="rgb(204, 204, 204)" stroke-width="1px"></line></g><g transform="translate(0, 8)"><text style="text-anchor: middle; visibility: hidden; font-family: &quot;Helvetica Neue&quot;, sans-serif; font-size: 12px; font-weight: 200;" x="0" y="0" dx="0em" dy="0.95em" fill="rgb(50, 49, 63)" stroke="none" stroke-width="1px">-50</text><text style="text-anchor: middle; visibility: inherit; font-family: &quot;Helvetica Neue&quot;, sans-serif; font-size: 12px; font-weight: 200;" x="34.82299995422363" y="0" dx="0em" dy="0.95em" fill="rgb(50, 49, 63)" stroke="none" stroke-width="1px">0</text><text style="text-anchor: middle; visibility: inherit; font-family: &quot;Helvetica Neue&quot;, sans-serif; font-size: 12px; font-weight: 200;" x="69.64599990844727" y="0" dx="0em" dy="0.95em" fill="rgb(50, 49, 63)" stroke="none" stroke-width="1px">50</text><text style="text-anchor: middle; visibility: inherit; font-family: &quot;Helvetica Neue&quot;, sans-serif; font-size: 12px; font-weight: 200;" x="104.4689998626709" y="0" dx="0em" dy="0.95em" fill="rgb(50, 49, 63)" stroke="none" stroke-width="1px">100</text><text style="text-anchor: middle; visibility: inherit; font-family: &quot;Helvetica Neue&quot;, sans-serif; font-size: 12px; font-weight: 200;" x="139.29199981689453" y="0" dx="0em" dy="0.95em" fill="rgb(50, 49, 63)" stroke="none" stroke-width="1px">150</text><text style="text-anchor: middle; visibility: inherit; font-family: &quot;Helvetica Neue&quot;, sans-serif; font-size: 12px; font-weight: 200;" x="174.11499977111816" y="0" dx="0em" dy="0.95em" fill="rgb(50, 49, 63)" stroke="none" stroke-width="1px">200</text><text style="text-anchor: middle; visibility: inherit; font-family: &quot;Helvetica Neue&quot;, sans-serif; font-size: 12px; font-weight: 200;" x="208.9379997253418" y="0" dx="0em" dy="0.95em" fill="rgb(50, 49, 63)" stroke="none" stroke-width="1px">250</text><text style="text-anchor: middle; visibility: inherit; font-family: &quot;Helvetica Neue&quot;, sans-serif; font-size: 12px; font-weight: 200;" x="243.76099967956543" y="0" dx="0em" dy="0.95em" fill="rgb(50, 49, 63)" stroke="none" stroke-width="1px">300</text><text style="text-anchor: middle; visibility: hidden; font-family: &quot;Helvetica Neue&quot;, sans-serif; font-size: 12px; font-weight: 200;" x="278.58399963378906" y="0" dx="0em" dy="0.95em" fill="rgb(50, 49, 63)" stroke="none" stroke-width="1px">350</text></g><line x1="0" y1="0" x2="278.58399963378906" y2="0" fill="rgb(0, 0, 0)" stroke="rgb(204, 204, 204)" stroke-width="1px"></line></g></g></g></g></svg>