<svg viewBox="0 0 330 200" xmlns="http://www.w3.org/2000/svg"><g><g><g><g><g><line x1="51.41600036621094" y1="177.9749994277954" x2="46.41600036621094" y2="177.9749994277954" style="visibility: inherit;" fill="rgb(0, 0, 0)" stroke="rgb(204, 204, 204)" stroke-width="1px"></line><line x1="51.41600036621094" y1="155.72812449932098" x2="46.41600036621094" y2="155.72812449932098" style="visibility: inherit;" fill="rgb(0, 0, 0)" stroke="rgb(204, 204, 204)" stroke-width="1px"></line><line x1="51.41600036621094" y1="133.48124957084656" x2="46.41600036621094" y2="133.48124957084656" style="visibility: inherit;" fill="rgb(0, 0, 0)" stroke="rgb(204, 204, 204)" stroke-width="1px"></line><line x1="51.41600036621094" y1="111.23437464237213" x2="46.41600036621094" y2="111.23437464237213" style="visibility: inherit;" fill="rgb(0, 0, 0)" stroke="rgb(204, 204, 204)" stroke-width="1px"></line><line x1="51.41600036621094" y1="88.9874997138977" x2="46.41600036621094" y2="88.9874997138977" style="visibility: inherit;" fill="rgb(0, 0, 0)" stroke="rgb(204, 204, 204)" stroke-width="1px"></line><line x1="51.41600036621094" y1="66.74062478542328" x2="46.41600036621094" y2="66.74062478542328" style="visibility: inherit;" fill="rgb(0, 0, 0)" stroke="rgb(204, 204, 204)" stroke-width="1px"></line><line x1="51.41600036621094" y1="44.49374985694885" x2="46.41600036621094" y2="44.49374985694885" style="visibility: inherit;" fill="rgb(0, 0, 0)" stroke="rgb(204, 204, 204)" stroke-width="1px"></line><line x1="51.41600036621094" y1="22.246874928474426" x2="46.41600036621094" y2="22.246874928474426" style="visibility: inherit;" fill="rgb(0, 0, 0)" stroke="rgb(204, 204, 204)" stroke-width="1px"></line><line x1="51.41600036621094" y1="0" x2="46.41600036621094" y2="0" style="visibility: inherit;" fill="rgb(0, 0, 0)" stroke="rgb(204, 204, 204)" stroke-width="1px"></line></g><g transform="translate(41.41600036621094, 0)"><text style="text-anchor: end; visibility: hidden; font-family: &quot;Helvetica Neue&quot;, sans-serif; font-size: 12px; font-weight: 200;" x="0" y="177.9749994277954" dx="0em" dy="0.3em" fill="rgb(50, 49, 63)" stroke="none" stroke-width="1px">-0.5</text><text style="text-anchor: end; visibility: inherit; font-family: &quot;Helvetica Neue&quot;, sans-serif; font-size: 12px; font-weight: 200;" x="0" y="155.72812449932098" dx="0em" dy="0.3em" fill="rgb(50, 49, 63)" stroke="none" stroke-width="1px">0</text><text style="text-anchor: end; visibility: hidden; font-family: &quot;Helvetica Neue&quot;, sans-serif; font-size: 12px; font-weight: 200;" x="0" y="133.48124957084656" dx="0em" dy="0.3em" fill="rgb(50, 49, 63)" stroke="none" stroke-width="1px">0.5</text><text style="text-anchor: end; visibility: inherit; font-family: &quot;Helvetica Neue&quot;, sans-serif; font-size: 12px; font-weight: 200;" x="0" y="111.23437464237213" dx="0em" dy="0.3em" fill="rgb(50, 49, 63)" stroke="none" stroke-width="1px">1</text><text style="text-anchor: end; visibility: hidden; font-family: &quot;Helvetica Neue&quot;, sans-serif; font-size: 12px; font-weight: 200;" x="0" y="88.9874997138977" dx="0em" dy="0.3em" fill="rgb(50, 49, 63)" stroke="none" stroke-width="1px">1.5</text><text style="text-anchor: end; visibility: inherit; font-family: &quot;Helvetica Neue&quot;, sans-serif; font-size: 12px; font-weight: 200;" x="0" y="66.74062478542328" dx="0em" dy="0.3em" fill="rgb(50, 49, 63)" stroke="none" stroke-width="1px">2</text><text style="text-anchor: end; visibility: hidden; font-family: &quot;Helvetica Neue&quot;, sans-serif; font-size: 12px; font-weight: 200;" x="0" y="44.49374985694885" dx="0em" dy="0.3em" fill="rgb(50, 49, 63)" stroke="none" stroke-width="1px">2.5</text><text style="text-anchor: end; visibility: inherit; font-family: &quot;Helvetica Neue&quot;, sans-serif; font-size: 12px; font-weight: 200;" x="0" y="22.246874928474426" dx="0em" dy="0.3em" fill="rgb(50, 49, 63)" stroke="none" stroke-width="1px">3</text><text style="text-anchor: end; visibility: hidden; font-family: &quot;Helvetica Neue&quot;, sans-serif; font-size: 12px; font-weight: 200;" x="0" y="0" dx="0em" dy="0.3em" fill="rgb(50, 49, 63)" stroke="none" stroke-width="1px">3.5</text></g><line x1="51.41600036621094" y1="0" x2="51.41600036621094" y2="177.9749994277954" fill="rgb(0, 0, 0)" stroke="rgb(204, 204, 204)" stroke-width="1px"></line></g></g><g transform="translate(51, 0)" clip-path="url(#clip_0)"><clipPath id="clip_0"><rect width="278" height="177"></rect></clipPath><g><g><g><line x1="0" y1="0" x2="0" y2="177.9749994277954" fill="rgb(0, 0, 0)" stroke="rgb(60, 60, 60)" stroke-width="1px" opacity="0.25"></line><line x1="34.82299995422363" y1="0" x2="34.82299995422363" y2="177.9749994277954" fill="rgb(0, 0, 0)" stroke="rgb(60, 60, 60)" stroke-width="1px" opacity="0.25"></line><line x1="69.64599990844727" y1="0" x2="69.64599990844727" y2="177.9749994277954" fill="rgb(0, 0, 0)" stroke="rgb(60, 60, 60)" stroke-width="1px" opacity="0.25"></line><line x1="104.4689998626709" y1="0" x2="104.4689998626709" y2="177.9749994277954" fill="rgb(0, 0, 0)" stroke="rgb(60, 60, 60)" stroke-width="1px" opacity="0.25"></line><line x1="139.29199981689453" y1="0" x2="139.29199981689453" y2="177.9749994277954" fill="rgb(0, 0, 0)" stroke="rgb(60, 60, 60)" stroke-width="1px" opacity="0.25"></line><line x1="174.11499977111816" y1="0" x2="174.11499977111816" y2="177.9749994277954" fill="rgb(0, 0, 0)" stroke="rgb(60, 60, 60)" stroke-width="1px" opacity="0.25"></line><line x1="208.9379997253418" y1="0" x2="208.9379997253418" y2="177.9749994277954" fill="rgb(0, 0, 0)" stroke="rgb(60, 60, 60)" stroke-width="1px" opacity="0.25"></line><line x1="243.76099967956543" y1="0" x2="243.76099967956543" y2="177.9749994277954" fill="rgb(0, 0, 0)" stroke="rgb(60, 60, 60)" stroke-width="1px" opacity="0.25"></line><line x1="278.58399963378906" y1="0" x2="278.58399963378906" y2="177.9749994277954" fill="rgb(0, 0, 0)" stroke="rgb(60, 60, 60)" stroke-width="1px" opacity="0.25"></line></g><g><line x1="0" y1="177.9749994277954" x2="278.58399963378906" y2="177.9749994277954" fill="rgb(0, 0, 0)" stroke="rgb(60, 60, 60)" stroke-width="1px" opacity="0.25"></line><line x1="0" y1="155.72812449932098" x2="278.58399963378906" y2="155.72812449932098" fill="rgb(0, 0, 0)" stroke="rgb(60, 60, 60)" stroke-width="1px" opacity="0.25"></line><line x1="0" y1="133.48124957084656" x2="278.58399963378906" y2="133.48124957084656" fill="rgb(0, 0, 0)" stroke="rgb(60, 60, 60)" stroke-width="1px" opacity="0.25"></line><line x1="0" y1="111.23437464237213" x2="278.58399963378906" y2="111.23437464237213" fill="rgb(0, 0, 0)" stroke="rgb(60, 60, 60)" stroke-width="1px" opacity="0.25"></line><line x1="0" y1="88.9874997138977" x2="278.58399963378906" y2="88.9874997138977" fill="rgb(0, 0, 0)" stroke="rgb(60, 60, 60)" stroke-width="1px" opacity="0.25"></line><line x1="0" y1="66.74062478542328" x2="278.58399963378906" y2="66.74062478542328" fill="rgb(0, 0, 0)" stroke="rgb(60, 60, 60)" stroke-width="1px" opacity="0.25"></line><line x1="0" y1="44.49374985694885" x2="278.58399963378906" y2="44.49374985694885" fill="rgb(0, 0, 0)" stroke="rgb(60, 60, 60)" stroke-width="1px" opacity="0.25"></line><line x1="0" y1="22.246874928474426" x2="278.58399963378906" y2="22.246874928474426" fill="rgb(0, 0, 0)" stroke="rgb(60, 60, 60)" stroke-width="1px" opacity="0.25"></line><line x1="0" y1="0" x2="278.58399963378906" y2="0" fill="rgb(0, 0, 0)" stroke="rgb(60, 60, 60)" stroke-width="1px" opacity="0.25"></line></g></g></g><g><g><line x1="0" y1="155.72812449932098" x2="278.58399963378906" y2="155.72812449932098" fill="rgb(0, 0, 0)" stroke="rgb(153, 153, 153)" stroke-width="1.5px"></line></g></g><g><g><line x1="34.82299995422363" y1="0" x2="34.82299995422363" y2="177.9749994277954" fill="rgb(0, 0, 0)" stroke="rgb(153, 153, 153)" stroke-width="1.5px"></line></g></g><g><g><g><g><g><path style="fill: none;" stroke="rgb(238, 51, 119)" stroke-width="2px" d="M35.51945995330811,-5.482656289891281L36.21591995239258,1.827145451393335L36.91237995147705,6.680516468861811L37.608839950561524,7.358143019861018L38.305299949646,9.144022819803354L39.001759948730474,9.306221228720005L39.69821994781494,13.064928020255309L40.39467994689941,13.456739546307404L41.09113994598388,15.2559431658442L41.78759994506836,20.47952754320687L42.48405994415283,21.691029785870455L43.18051994323731,25.812640931168914L43.876979942321775,31.299890544216566L44.57343994140625,29.195342320215616L45.269899940490724,37.490077722238254L45.9663599395752,40.20624867119005L46.66281993865967,42.26294359089911L47.35927993774414,44.80077054699893L48.05573993682861,47.19096406576108L48.75219993591308,52.2532092932733L49.44865993499756,54.296824380530154L50.14511993408203,56.67941186533591L50.8415799331665,56.406517550791705L51.538039932250975,60.867090485502445L52.23449993133545,59.129382233950594L52.930959930419924,65.06987509221557L53.6274199295044,65.5130512157807L54.323879928588866,69.5754106139893L55.02033992767334,73.73060711982603L55.716799926757815,70.0911782164437L56.41325992584229,72.00744262357992L57.10971992492676,75.30879551695773L57.806179924011225,82.15861254220314L58.5026399230957,80.04599152623453L59.199099922180174,81.46438425739396L59.89555992126465,85.5574754273901L60.592019920349124,88.72024362396692L61.28847991943359,87.64044139743808L61.984939918518066,91.01180799250653L62.68139991760254,92.22301851141307L63.377859916687015,88.55121887913543L64.07431991577148,97.89142857758526L64.77077991485596,99.10432048614604L65.46723991394043,91.60302596666921L66.1636999130249,96.24355002692982L66.86015991210937,97.33991155472216L67.55661991119385,100.1682741565649L68.25307991027832,98.68884220729518L68.9495399093628,103.17722437215471L69.64599990844727,104.88213226527816L70.34245990753173,103.26672522081591L71.03891990661621,104.60964105992551L71.73537990570068,106.4542368960584L72.43183990478516,107.15922713546837L73.12829990386963,108.1269597026774L73.8247599029541,113.15102359446082L74.52121990203858,109.21454830148517L75.21767990112305,112.33369849231555L75.91413990020753,109.9160908964937L76.610599899292,113.5701272040015L77.30705989837647,112.70104500328824L78.00351989746095,113.06275594168167L78.6999798965454,109.82965579931562L79.39643989562988,112.09120179325537L80.09289989471435,114.01908210999026L80.78935989379882,116.87232344424058L81.4858198928833,114.61626716100157L82.18227989196777,109.76467035438276L82.87873989105225,114.36186813265398L83.57519989013672,118.83866886435885L84.27165988922118,117.20970462129651L84.96811988830567,120.17693303556067L85.66457988739013,120.43279863879594L86.36103988647461,119.7950798977604L87.05749988555908,120.2822612240586L87.75395988464355,116.9637602778349L88.45041988372803,119.1149869549971L89.1468798828125,120.94655334732673L89.84333988189698,117.10408736107568L90.53979988098145,122.92330269743486L91.23625988006592,117.35072388545174L91.9327198791504,121.15617012693386L92.62917987823486,118.91312207122488L93.32563987731935,125.60132413506773L94.02209987640381,124.59273167763341L94.71855987548828,121.35613615425113L95.41501987457276,123.2429178976868L96.11147987365722,126.90136719002842L96.8079398727417,127.33155630233678L97.50439987182617,122.5528639146375L98.20085987091063,124.65004743979016L98.89731986999512,125.93749333251485L99.59377986907958,128.49197506310776L100.29023986816406,125.8434681135853L100.98669986724853,123.78119861808254L101.683159866333,126.90061401232842L102.37961986541748,125.65641484056847L103.07607986450195,127.65833729887538L103.77253986358643,129.3262493155373L104.4689998626709,128.53194652189114L105.16545986175537,129.33586028731483L105.86191986083985,126.83406917131245L106.55837985992432,128.07057744402306L107.2548398590088,129.88163035216417L107.95129985809326,129.26990950194957L108.64775985717773,131.02061537289484L109.34421985626221,128.963496127721L110.04067985534668,130.84311737893827L110.73713985443116,127.51131382939334L111.43359985351563,130.13827565344099L112.1300598526001,131.3648043216265L112.82651985168458,130.8692240031596L113.52297985076903,131.39672420471547L114.21943984985352,129.14029663669476L114.91589984893798,130.17352383939442L115.61235984802245,131.229993469428L116.30881984710693,129.8503336971016L117.0052798461914,130.44795368171432L117.70173984527588,130.57562260593355L118.39819984436035,132.24941418231697L119.09465984344482,132.6670777373115L119.7911198425293,130.48381979162585L120.48757984161377,129.8956861331854L121.18403984069825,133.6393280447035L121.88049983978271,133.28299675759337L122.57695983886718,131.24166507174394L123.27341983795166,132.14177342003592L123.96987983703613,131.88901865286442L124.66633983612061,123.5693514777511L125.36279983520508,134.65526531072993L126.05925983428955,132.2574843222505L126.75571983337403,134.2465391108376L127.4521798324585,133.143635014785L128.14863983154297,135.30688336277157L128.84509983062745,132.34038160586587L129.54155982971193,136.6879195408244L130.23801982879638,134.31579963482824L130.93447982788086,133.47691084296906L131.63093982696532,134.71790503145274L132.3273998260498,133.7132999073704L133.02385982513428,134.25507866081654L133.72031982421873,135.03300646957297L134.41677982330322,136.94161047605263L135.1132398223877,137.04277497092727L135.80969982147215,137.98692432441342L136.50615982055663,136.60392431506887L137.20261981964111,138.1993124797125L137.8990798187256,137.0313831582147L138.59553981781005,135.6279174012964L139.29199981689453,135.6285114569471L139.98845981597898,133.9557475437987L140.68491981506347,133.920905119071L141.38137981414795,138.84609587348965L142.07783981323243,137.7881039758511L142.77429981231688,137.92312168671367L143.47075981140136,137.7988526702811L144.16721981048582,137.5248617396138L144.86367980957033,138.7368943891084L145.56013980865478,138.4212041994058L146.25659980773926,137.54901646669708L146.95305980682372,140.27770501686024L147.6495198059082,139.60082501347566L148.34597980499268,139.3149900982724L149.04243980407716,136.78824334087193L149.73889980316162,140.2187476455616L150.4353598022461,138.5558678637087L151.13181980133055,140.5940356728113L151.82827980041506,139.7154074751573L152.5247397994995,139.57685460276616L153.221199798584,136.83701557499853L153.91765979766845,138.21483748765556L154.61411979675293,138.53717234893338L155.3105797958374,139.16217856424717L156.0070397949219,141.7581248488527L156.70349979400635,140.07089541540614L157.3999597930908,140.11188392928796L158.09641979217528,140.94588634821662L158.79287979125976,141.40102181980347L159.48933979034425,141.41019653196253L160.1857997894287,139.24193186137188L160.88225978851318,140.99756918982825L161.57871978759763,141.77960234745655L162.27517978668214,139.68129038177096L162.9716397857666,141.15919475936744L163.66809978485108,141.10687410354154L164.36455978393553,142.95505814188607L165.06101978302001,142.9036007231776L165.7574797821045,140.92671744534465L166.45393978118898,143.1911594605816L167.15039978027343,140.71881785785286L167.8468597793579,142.25978893367108L168.54331977844237,142.6667395966967L169.23977977752688,143.03929735478386L169.93623977661133,142.9528012608202L170.6326997756958,143.98703358446457L171.32915977478027,143.84576105104753L172.02561977386475,142.83192154403764L172.72207977294923,140.94681323415375L173.4185397720337,143.81198209201597L174.11499977111816,143.9219195158752L174.81145977020262,144.3983693859654L175.5079197692871,143.13086944212006L176.20437976837158,143.71525842833375L176.90083976745606,144.99774435418016L177.59729976654052,144.38599234256424L178.293759765625,144.36751031653841L178.99021976470945,144.30881417060402L179.68667976379396,144.92586958752128L180.38313976287841,145.36279619260029L181.0795997619629,145.4157573146746L181.77605976104735,144.91410781604407L182.47251976013183,145.44161332166829L183.1689797592163,145.9528492607604L183.8654397583008,145.88723594674136L184.56189975738525,145.8823946583915L185.25835975646973,146.26547038393718L185.95481975555418,144.41668433383947L186.6512797546387,146.55839617546226L187.34773975372315,146.01632172020786L188.04419975280763,147.05075360942237L188.74065975189208,147.20714804159093L189.43711975097656,147.57152692634423L190.13357975006105,147.31110512843074L190.83003974914553,147.62261504929663L191.52649974822998,147.33148136985176L192.22295974731443,147.84062087594438L192.91941974639892,148.13952634148032L193.6158797454834,148.81152859104543L194.31233974456788,148.39407587276622L195.00879974365233,147.4193790638663L195.7052597427368,148.24571378904446L196.40171974182127,148.71413064767933L197.09817974090578,148.5834543167284L197.79463973999023,148.9057308332548L198.4910997390747,149.38145073094387L199.18755973815917,149.7721782380351L199.88401973724365,149.66926936769505L200.58047973632813,149.59511981873976L201.2769397354126,149.68213305936362L201.97339973449706,149.92021677358997L202.66985973358155,150.02321846512547L203.366319732666,149.69991627438964L204.0627797317505,150.0324508590274L204.75923973083496,150.33122703789826L205.45569972991944,150.422533921819L206.1521597290039,150.81438257634926L206.84861972808838,150.76573631384503L207.54507972717286,150.9662499862153L208.24153972625734,150.9812306641481L208.9379997253418,151.05559701689552L209.63445972442625,151.1943216084982L210.33091972351073,151.21471674566254L211.0273797225952,151.22008247376655L211.7238397216797,151.32449239543834L212.42029972076415,151.51193916402292L213.11675971984863,151.54362434208915L213.81321971893308,151.65489971717955L214.5096797180176,151.64717898274597L215.20613971710205,151.62894459040933L215.90259971618653,151.59399243776846L216.59905971527098,151.7753856068901L217.29551971435546,151.831278884227L217.99197971343995,151.81774920048124L218.68843971252443,151.8471682153621L219.38489971160888,151.8506205008233L220.08135971069336,151.8785639902012L220.77781970977782,151.87400812702725L221.47427970886233,151.87110547564467L222.17073970794678,151.89963141802383L222.86719970703126,151.90171193881838L223.56365970611571,151.95186820326958L224.2601197052002,151.92779668375792L224.95657970428468,151.9364936982648L225.65303970336916,151.96970412747442L226.3494997024536,151.9802171223689L227.04595970153807,151.96979860619118L227.74241970062255,151.9708365460586L228.43887969970703,151.9891316036765L229.1353396987915,151.98301501840237L229.83179969787597,151.99422516677532L230.52825969696045,151.99322137184768L231.2247196960449,151.99578423135418L231.9211796951294,152.0048455690531L232.61763969421386,152.01703100298656L233.31409969329835,152.01493689051694L234.0105596923828,152.02007620120497L234.70701969146728,152.00178909968952L235.40347969055176,152.01496639439694L236.09993968963624,152.0142901256874L236.7963996887207,152.00153980847895L237.49285968780518,152.00355203939404L238.18931968688963,152.01586675999252L238.88577968597414,152.0214957024864L239.5822396850586,152.0194708744091L240.27869968414308,152.02159449075867L240.97515968322753,152.02536137377152L241.671619682312,152.0185758128818L242.3680796813965,152.01692359560326L243.06453968048098,152.01413697071496" fill="none"></path></g><g><path style="fill: none;" stroke="rgb(204, 51, 17)" stroke-width="2px" d="M35.51945995330811,-5.056463793054434L36.21591995239258,2.320858737815172L36.91237995147705,8.315495525387576L37.608839950561524,9.59194078043754L38.305299949646,12.45747429299604L39.001759948730474,12.39514088221813L39.69821994781494,17.606016711910286L40.39467994689941,17.959055498617033L41.09113994598388,19.578122350213107L41.78759994506836,24.644303196411272L42.48405994415283,24.967787714495273L43.18051994323731,30.405083612200315L43.876979942321775,33.11335149937037L44.57343994140625,30.78352888611147L45.269899940490724,40.47962035188215L45.9663599395752,41.01612686142823L46.66281993865967,43.34618285369277L47.35927993774414,46.95387221230868L48.05573993682861,49.22376946180236L48.75219993591308,53.09190979070746L49.44865993499756,55.19308462726332L50.14511993408203,55.6948600975162L50.8415799331665,54.72916959660648L51.538039932250975,59.02282350160476L52.23449993133545,58.305564952194004L52.930959930419924,61.95074346562427L53.6274199295044,62.550145617189116L54.323879928588866,65.35021631866687L55.02033992767334,68.24420615770796L55.716799926757815,66.79109829946026L56.41325992584229,66.79859294798214L57.10971992492676,71.43082674947439L57.806179924011225,75.53567703891358L58.5026399230957,73.54906477378319L59.199099922180174,74.0152181212668L59.89555992126465,77.75611385141747L60.592019920349124,81.80711723937458L61.28847991943359,79.64988900891973L61.984939918518066,81.56836521254118L62.68139991760254,81.69880816448648L63.377859916687015,78.33127110673777L64.07431991577148,85.53265238769978L64.77077991485596,86.77709819863614L65.46723991394043,80.51112118853433L66.1636999130249,83.09364022421335L66.86015991210937,84.49565399243181L67.55661991119385,85.73037744615613L68.25307991027832,84.97988890878386L68.9495399093628,88.23695813584234L69.64599990844727,87.61838177733722L70.34245990753173,87.9331198867782L71.03891990661621,86.68665852988408L71.73537990570068,88.84813001498685L72.43183990478516,89.10675638577743L73.12829990386963,90.58167987698374L73.8247599029541,93.47710181446851L74.52121990203858,89.89628286591054L75.21767990112305,91.74104312816104L75.91413990020753,91.05613409137234L76.610599899292,93.33958323539781L77.30705989837647,91.15510800603502L78.00351989746095,89.94786493022428L78.6999798965454,88.71236177845842L79.39643989562988,88.8828345339385L80.09289989471435,89.94472492178483L80.78935989379882,92.29914780386503L81.4858198928833,89.0297837464642L82.18227989196777,84.86769195182461L82.87873989105225,89.6475432784496L83.57519989013672,93.70907524200186L84.27165988922118,91.70080116189385L84.96811988830567,94.96103691773334L85.66457988739013,93.9099615251709L86.36103988647461,93.69637730246797L87.05749988555908,91.29642429801561L87.75395988464355,89.10265103690557L88.45041988372803,90.50384797860431L89.1468798828125,93.16054971366555L89.84333988189698,88.30888660619286L90.53979988098145,94.36475355833471L91.23625988006592,89.94100676989959L91.9327198791504,90.63148507841368L92.62917987823486,87.28477709691794L93.32563987731935,93.99858189849266L94.02209987640381,94.90502595638083L94.71855987548828,90.05533065825111L95.41501987457276,89.8492092596602L96.11147987365722,94.9372216510219L96.8079398727417,95.5392758367417L97.50439987182617,88.7110675857908L98.20085987091063,91.46006010944424L98.89731986999512,93.27630039639243L99.59377986907958,96.99619732010422L100.29023986816406,91.26431346846749L100.98669986724853,91.36277288850411L101.683159866333,94.41352977051253L102.37961986541748,92.59309396553121L103.07607986450195,91.76993438824505L103.77253986358643,94.47620794573058L104.4689998626709,93.37839310322133L105.16545986175537,94.99527998274203L105.86191986083985,90.55494206863355L106.55837985992432,91.01669834348826L107.2548398590088,92.97292890533956L107.95129985809326,94.7814252525553L108.64775985717773,93.20898116140322L109.34421985626221,92.9131414473504L110.04067985534668,92.35147243774216L110.73713985443116,89.49189539389567L111.43359985351563,93.09743130077777L112.1300598526001,93.44246094433657L112.82651985168458,94.36766018776854L113.52297985076903,95.39001935450119L114.21943984985352,93.22600191660968L114.91589984893798,91.62834758878066L115.61235984802245,92.36271175849083L116.30881984710693,89.31879182053387L117.0052798461914,90.940187158118L117.70173984527588,93.40220836993277L118.39819984436035,92.22008005756939L119.09465984344482,94.29225755267504L119.7911198425293,91.0049286159086L120.48757984161377,89.73495962826502L121.18403984069825,92.66869815522048L121.88049983978271,92.37910663363672L122.57695983886718,89.31584806262188L123.27341983795166,92.2905021725199L123.96987983703613,92.34273663723576L124.66633983612061,81.26672815182565L125.36279983520508,94.9053335923428L126.05925983428955,90.30487116002683L126.75571983337403,93.7256557595386L127.4521798324585,94.22126259834707L128.14863983154297,94.27338037356012L128.84509983062745,91.40784686100162L129.54155982971193,97.04703151078627L130.23801982879638,94.00958253616739L130.93447982788086,91.79041870005787L131.63093982696532,91.44384557262089L132.3273998260498,91.06182535666886L133.02385982513428,91.27768502467674L133.72031982421873,89.76814187961173L134.41677982330322,94.36204317942835L135.1132398223877,94.65353355746706L135.80969982147215,96.4381828135615L136.50615982055663,93.70318772617787L137.20261981964111,96.55538150693698L137.8990798187256,91.79684192678116L138.59553981781005,90.44936458892505L139.29199981689453,92.00117055028332L139.98845981597898,90.61729139161639L140.68491981506347,90.35661765045819L141.38137981414795,94.3105671964808L142.07783981323243,94.13576632125984L142.77429981231688,94.06299980811636L143.47075981140136,92.83395170748364L144.16721981048582,94.78622543437575L144.86367980957033,95.79573284359353L145.56013980865478,93.934079123776L146.25659980773926,93.4471338285176L146.95305980682372,94.5477651312994L147.6495198059082,94.30586248788993L148.34597980499268,94.3214988812675L149.04243980407716,89.08791633514068L149.73889980316162,92.96029991869369L150.4353598022461,92.69521319270166L151.13181980133055,94.01053196439486L151.82827980041506,92.4554109603429L152.5247397994995,93.64070049741898L153.221199798584,91.52495538521583L153.91765979766845,92.8666778089557L154.61411979675293,93.32005895994908L155.3105797958374,92.67394387877897L156.0070397949219,94.65733657444525L156.70349979400635,92.54717134210412L157.3999597930908,93.75040454227258L158.09641979217528,95.01092168018792L158.79287979125976,93.64887937075284L159.48933979034425,92.43089555661456L160.1857997894287,91.01756290662277L160.88225978851318,93.29577163115806L161.57871978759763,95.4820449396779L162.27517978668214,92.36641399817114L162.9716397857666,94.66835312432491L163.66809978485108,93.6377620435753L164.36455978393553,94.68192093106163L165.06101978302001,93.90157579317295L165.7574797821045,92.9792725710382L166.45393978118898,94.21524248081533L167.15039978027343,93.29469490529115L167.8468597793579,93.41947311228148L168.54331977844237,94.86995545671579L169.23977977752688,91.93134249098352L169.93623977661133,93.32471062785686L170.6326997756958,95.73214767269448L171.32915977478027,96.23096347283044L172.02561977386475,94.30013939818355L172.72207977294923,90.90730723866494L173.4185397720337,93.41002126255324L174.11499977111816,94.60781779270405L174.81145977020262,94.29351461686448L175.5079197692871,92.62392121054833L176.20437976837158,94.02505450342736L176.90083976745606,93.87360744097487L177.59729976654052,93.54477642203449L178.293759765625,93.85640634744587L178.99021976470945,93.27645951844173L179.68667976379396,93.85712770073602L180.38313976287841,94.74216984299375L181.0795997619629,95.53474616240504L181.77605976104735,94.25637553055859L182.47251976013183,94.70001310806668L183.1689797592163,95.11762362237812L183.8654397583008,94.1719771956115L184.56189975738525,95.87384055352507L185.25835975646973,95.16935420060454L185.95481975555418,90.74418061779406L186.6512797546387,93.51958740163079L187.34773975372315,91.8905966382269L188.04419975280763,94.6871613505518L188.74065975189208,94.77239772829185L189.43711975097656,94.2054723869885L190.13357975006105,94.28590327883978L190.83003974914553,94.13709764240562L191.52649974822998,93.70769088017298L192.22295974731443,96.48036606883011L192.91941974639892,95.00379831644773L193.6158797454834,94.72535594645137L194.31233974456788,95.12571763061902L195.00879974365233,94.67923176842851L195.7052597427368,96.74271059150593L196.40171974182127,95.32863537195075L197.09817974090578,94.52563655831051L197.79463973999023,95.99474679064917L198.4910997390747,96.39980787933939L199.18755973815917,97.64694285290886L199.88401973724365,98.15647287103081L200.58047973632813,97.91021558753891L201.2769397354126,96.71842856678322L201.97339973449706,97.65967792092093L202.66985973358155,97.20774478057615L203.366319732666,96.57498003934205L204.0627797317505,96.18911967793366L204.75923973083496,98.37242801226827L205.45569972991944,97.88372176633098L206.1521597290039,99.7639662455747L206.84861972808838,98.29661696391491L207.54507972717286,100.34782217292323L208.24153972625734,100.74306543117183L208.9379997253418,99.63403778825545L209.63445972442625,101.28100403916159L210.33091972351073,101.73201427162044L211.0273797225952,100.01110400440604L211.7238397216797,100.82234003613155L212.42029972076415,101.07676558482069L213.11675971984863,100.85125781655711L213.81321971893308,101.2126770311935L214.5096797180176,101.98864100865819L215.20613971710205,102.9531487023348L215.90259971618653,102.30497564266045L216.59905971527098,103.06495846230743L217.29551971435546,103.38598189269564L217.99197971343995,103.11846059934936L218.68843971252443,104.39491115846764L219.38489971160888,104.02764686055374L220.08135971069336,103.70479883066693L220.77781970977782,104.14608140184544L221.47427970886233,104.34362081791093L222.17073970794678,104.55703000635964L222.86719970703126,104.68974309954157L223.56365970611571,104.54629457210041L224.2601197052002,104.69740217418106L224.95657970428468,104.59157009919369L225.65303970336916,105.08552206868947L226.3494997024536,105.2044074557875L227.04595970153807,106.01281111503553L227.74241970062255,105.38665524291557L228.43887969970703,105.60138514437344L229.1353396987915,105.68886514300857L229.83179969787597,105.94107359114417L230.52825969696045,105.98830631944381L231.2247196960449,106.03078129846946L231.9211796951294,106.15034560631116L232.61763969421386,105.96250733118447L233.31409969329835,105.98162319337334L234.0105596923828,106.07790264133459L234.70701969146728,105.78950983918887L235.40347969055176,105.717284341013L236.09993968963624,106.42082656977436L236.7963996887207,106.34353568636254L237.49285968780518,106.63598610076534L238.18931968688963,106.472886000236L238.88577968597414,106.36886791661061L239.5822396850586,106.47844996789308L240.27869968414308,106.4135546921215L240.97515968322753,106.25910022293729L241.671619682312,106.20080320814321L242.3680796813965,106.34091017254914L243.06453968048098,106.30634355937354" fill="none"></path></g></g></g></g></g></g><g transform="translate(51, 177)" clip-path="url(#clip_1)"><clipPath id="clip_1"><rect width="278" height="22"></rect></clipPath><g><g><line x1="0" y1="0" x2="0" y2="5" style="visibility: inherit;" fill="rgb(0, 0, 0)" stroke="rgb(204, 204, 204)" stroke-width="1px"></line><line x1="34.82299995422363" y1="0" x2="34.82299995422363" y2="5" style="visibility: inherit;" fill="rgb(0, 0, 0)" stroke="rgb(204, 204, 204)" stroke-width="1px"></line><line x1="69.64599990844727" y1="0" x2="69.64599990844727" y2="5" style="visibility: inherit;" fill="rgb(0, 0, 0)" stroke="rgb(204, 204, 204)" stroke-width="1px"></line><line x1="104.4689998626709" y1="0" x2="104.4689998626709" y2="5" style="visibility: inherit;" fill="rgb(0, 0, 0)" stroke="rgb(204, 204, 204)" stroke-width="1px"></line><line x1="139.29199981689453" y1="0" x2="139.29199981689453" y2="5" style="visibility: inherit;" fill="rgb(0, 0, 0)" stroke="rgb(204, 204, 204)" stroke-width="1px"></line><line x1="174.11499977111816" y1="0" x2="174.11499977111816" y2="5" style="visibility: inherit;" fill="rgb(0, 0, 0)" stroke="rgb(204, 204, 204)" stroke-width="1px"></line><line x1="208.9379997253418" y1="0" x2="208.9379997253418" y2="5" style="visibility: inherit;" fill="rgb(0, 0, 0)" stroke="rgb(204, 204, 204)" stroke-width="1px"></line><line x1="243.76099967956543" y1="0" x2="243.76099967956543" y2="5" style="visibility: inherit;" fill="rgb(0, 0, 0)" stroke="rgb(204, 204, 204)" stroke-width="1px"></line><line x1="278.58399963378906" y1="0" x2="278.58399963378906" y2="5" style="visibility: inherit;" fill="rgb(0, 0, 0)" stroke="rgb(204, 204, 204)" stroke-width="1px"></line></g><g transform="translate(0, 8)"><text style="text-anchor: middle; visibility: hidden; font-family: &quot;Helvetica Neue&quot;, sans-serif; font-size: 12px; font-weight: 200;" x="0" y="0" dx="0em" dy="0.95em" fill="rgb(50, 49, 63)" stroke="none" stroke-width="1px">-50</text><text style="text-anchor: middle; visibility: inherit; font-family: &quot;Helvetica Neue&quot;, sans-serif; font-size: 12px; font-weight: 200;" x="34.82299995422363" y="0" dx="0em" dy="0.95em" fill="rgb(50, 49, 63)" stroke="none" stroke-width="1px">0</text><text style="text-anchor: middle; visibility: inherit; font-family: &quot;Helvetica Neue&quot;, sans-serif; font-size: 12px; font-weight: 200;" x="69.64599990844727" y="0" dx="0em" dy="0.95em" fill="rgb(50, 49, 63)" stroke="none" stroke-width="1px">50</text><text style="text-anchor: middle; visibility: inherit; font-family: &quot;Helvetica Neue&quot;, sans-serif; font-size: 12px; font-weight: 200;" x="104.4689998626709" y="0" dx="0em" dy="0.95em" fill="rgb(50, 49, 63)" stroke="none" stroke-width="1px">100</text><text style="text-anchor: middle; visibility: inherit; font-family: &quot;Helvetica Neue&quot;, sans-serif; font-size: 12px; font-weight: 200;" x="139.29199981689453" y="0" dx="0em" dy="0.95em" fill="rgb(50, 49, 63)" stroke="none" stroke-width="1px">150</text><text style="text-anchor: middle; visibility: inherit; font-family: &quot;Helvetica Neue&quot;, sans-serif; font-size: 12px; font-weight: 200;" x="174.11499977111816" y="0" dx="0em" dy="0.95em" fill="rgb(50, 49, 63)" stroke="none" stroke-width="1px">200</text><text style="text-anchor: middle; visibility: inherit; font-family: &quot;Helvetica Neue&quot;, sans-serif; font-size: 12px; font-weight: 200;" x="208.9379997253418" y="0" dx="0em" dy="0.95em" fill="rgb(50, 49, 63)" stroke="none" stroke-width="1px">250</text><text style="text-anchor: middle; visibility: inherit; font-family: &quot;Helvetica Neue&quot;, sans-serif; font-size: 12px; font-weight: 200;" x="243.76099967956543" y="0" dx="0em" dy="0.95em" fill="rgb(50, 49, 63)" stroke="none" stroke-width="1px">300</text><text style="text-anchor: middle; visibility: hidden; font-family: &quot;Helvetica Neue&quot;, sans-serif; font-size: 12px; font-weight: 200;" x="278.58399963378906" y="0" dx="0em" dy="0.95em" fill="rgb(50, 49, 63)" stroke="none" stroke-width="1px">350</text></g><line x1="0" y1="0" x2="278.58399963378906" y2="0" fill="rgb(0, 0, 0)" stroke="rgb(204, 204, 204)" stroke-width="1px"></line></g></g></g></g></svg>