<svg viewBox="0 0 330 200" xmlns="http://www.w3.org/2000/svg"><g><g><g><g><g><line x1="51.41600036621094" y1="177.9749994277954" x2="46.41600036621094" y2="177.9749994277954" style="visibility: inherit;" fill="rgb(0, 0, 0)" stroke="rgb(204, 204, 204)" stroke-width="1px"></line><line x1="51.41600036621094" y1="158.1999994913737" x2="46.41600036621094" y2="158.1999994913737" style="visibility: inherit;" fill="rgb(0, 0, 0)" stroke="rgb(204, 204, 204)" stroke-width="1px"></line><line x1="51.41600036621094" y1="138.424999554952" x2="46.41600036621094" y2="138.424999554952" style="visibility: inherit;" fill="rgb(0, 0, 0)" stroke="rgb(204, 204, 204)" stroke-width="1px"></line><line x1="51.41600036621094" y1="118.64999961853027" x2="46.41600036621094" y2="118.64999961853027" style="visibility: inherit;" fill="rgb(0, 0, 0)" stroke="rgb(204, 204, 204)" stroke-width="1px"></line><line x1="51.41600036621094" y1="98.87499968210857" x2="46.41600036621094" y2="98.87499968210857" style="visibility: inherit;" fill="rgb(0, 0, 0)" stroke="rgb(204, 204, 204)" stroke-width="1px"></line><line x1="51.41600036621094" y1="79.09999974568684" x2="46.41600036621094" y2="79.09999974568684" style="visibility: inherit;" fill="rgb(0, 0, 0)" stroke="rgb(204, 204, 204)" stroke-width="1px"></line><line x1="51.41600036621094" y1="59.32499980926514" x2="46.41600036621094" y2="59.32499980926514" style="visibility: inherit;" fill="rgb(0, 0, 0)" stroke="rgb(204, 204, 204)" stroke-width="1px"></line><line x1="51.41600036621094" y1="39.549999872843415" x2="46.41600036621094" y2="39.549999872843415" style="visibility: inherit;" fill="rgb(0, 0, 0)" stroke="rgb(204, 204, 204)" stroke-width="1px"></line><line x1="51.41600036621094" y1="19.77499993642172" x2="46.41600036621094" y2="19.77499993642172" style="visibility: inherit;" fill="rgb(0, 0, 0)" stroke="rgb(204, 204, 204)" stroke-width="1px"></line><line x1="51.41600036621094" y1="0" x2="46.41600036621094" y2="0" style="visibility: inherit;" fill="rgb(0, 0, 0)" stroke="rgb(204, 204, 204)" stroke-width="1px"></line></g><g transform="translate(41.41600036621094, 0)"><text style="text-anchor: end; visibility: hidden; font-family: &quot;Helvetica Neue&quot;, sans-serif; font-size: 12px; font-weight: 200;" x="0" y="177.9749994277954" dx="0em" dy="0.3em" fill="rgb(50, 49, 63)" stroke="none" stroke-width="1px">-0.5</text><text style="text-anchor: end; visibility: inherit; font-family: &quot;Helvetica Neue&quot;, sans-serif; font-size: 12px; font-weight: 200;" x="0" y="158.1999994913737" dx="0em" dy="0.3em" fill="rgb(50, 49, 63)" stroke="none" stroke-width="1px">0</text><text style="text-anchor: end; visibility: hidden; font-family: &quot;Helvetica Neue&quot;, sans-serif; font-size: 12px; font-weight: 200;" x="0" y="138.424999554952" dx="0em" dy="0.3em" fill="rgb(50, 49, 63)" stroke="none" stroke-width="1px">0.5</text><text style="text-anchor: end; visibility: inherit; font-family: &quot;Helvetica Neue&quot;, sans-serif; font-size: 12px; font-weight: 200;" x="0" y="118.64999961853027" dx="0em" dy="0.3em" fill="rgb(50, 49, 63)" stroke="none" stroke-width="1px">1</text><text style="text-anchor: end; visibility: hidden; font-family: &quot;Helvetica Neue&quot;, sans-serif; font-size: 12px; font-weight: 200;" x="0" y="98.87499968210857" dx="0em" dy="0.3em" fill="rgb(50, 49, 63)" stroke="none" stroke-width="1px">1.5</text><text style="text-anchor: end; visibility: inherit; font-family: &quot;Helvetica Neue&quot;, sans-serif; font-size: 12px; font-weight: 200;" x="0" y="79.09999974568684" dx="0em" dy="0.3em" fill="rgb(50, 49, 63)" stroke="none" stroke-width="1px">2</text><text style="text-anchor: end; visibility: hidden; font-family: &quot;Helvetica Neue&quot;, sans-serif; font-size: 12px; font-weight: 200;" x="0" y="59.32499980926514" dx="0em" dy="0.3em" fill="rgb(50, 49, 63)" stroke="none" stroke-width="1px">2.5</text><text style="text-anchor: end; visibility: inherit; font-family: &quot;Helvetica Neue&quot;, sans-serif; font-size: 12px; font-weight: 200;" x="0" y="39.549999872843415" dx="0em" dy="0.3em" fill="rgb(50, 49, 63)" stroke="none" stroke-width="1px">3</text><text style="text-anchor: end; visibility: hidden; font-family: &quot;Helvetica Neue&quot;, sans-serif; font-size: 12px; font-weight: 200;" x="0" y="19.77499993642172" dx="0em" dy="0.3em" fill="rgb(50, 49, 63)" stroke="none" stroke-width="1px">3.5</text><text style="text-anchor: end; visibility: hidden; font-family: &quot;Helvetica Neue&quot;, sans-serif; font-size: 12px; font-weight: 200;" x="0" y="0" dx="0em" dy="0.3em" fill="rgb(50, 49, 63)" stroke="none" stroke-width="1px">4</text></g><line x1="51.41600036621094" y1="0" x2="51.41600036621094" y2="177.9749994277954" fill="rgb(0, 0, 0)" stroke="rgb(204, 204, 204)" stroke-width="1px"></line></g></g><g transform="translate(51, 0)" clip-path="url(#clip_0)"><clipPath id="clip_0"><rect width="278" height="177"></rect></clipPath><g><g><g><line x1="0" y1="0" x2="0" y2="177.9749994277954" fill="rgb(0, 0, 0)" stroke="rgb(60, 60, 60)" stroke-width="1px" opacity="0.25"></line><line x1="19.89885711669922" y1="0" x2="19.89885711669922" y2="177.9749994277954" fill="rgb(0, 0, 0)" stroke="rgb(60, 60, 60)" stroke-width="1px" opacity="0.25"></line><line x1="39.79771423339844" y1="0" x2="39.79771423339844" y2="177.9749994277954" fill="rgb(0, 0, 0)" stroke="rgb(60, 60, 60)" stroke-width="1px" opacity="0.25"></line><line x1="59.696571350097656" y1="0" x2="59.696571350097656" y2="177.9749994277954" fill="rgb(0, 0, 0)" stroke="rgb(60, 60, 60)" stroke-width="1px" opacity="0.25"></line><line x1="79.59542846679688" y1="0" x2="79.59542846679688" y2="177.9749994277954" fill="rgb(0, 0, 0)" stroke="rgb(60, 60, 60)" stroke-width="1px" opacity="0.25"></line><line x1="99.4942855834961" y1="0" x2="99.4942855834961" y2="177.9749994277954" fill="rgb(0, 0, 0)" stroke="rgb(60, 60, 60)" stroke-width="1px" opacity="0.25"></line><line x1="119.39314270019531" y1="0" x2="119.39314270019531" y2="177.9749994277954" fill="rgb(0, 0, 0)" stroke="rgb(60, 60, 60)" stroke-width="1px" opacity="0.25"></line><line x1="139.29199981689453" y1="0" x2="139.29199981689453" y2="177.9749994277954" fill="rgb(0, 0, 0)" stroke="rgb(60, 60, 60)" stroke-width="1px" opacity="0.25"></line><line x1="159.19085693359375" y1="0" x2="159.19085693359375" y2="177.9749994277954" fill="rgb(0, 0, 0)" stroke="rgb(60, 60, 60)" stroke-width="1px" opacity="0.25"></line><line x1="179.08971405029297" y1="0" x2="179.08971405029297" y2="177.9749994277954" fill="rgb(0, 0, 0)" stroke="rgb(60, 60, 60)" stroke-width="1px" opacity="0.25"></line><line x1="198.9885711669922" y1="0" x2="198.9885711669922" y2="177.9749994277954" fill="rgb(0, 0, 0)" stroke="rgb(60, 60, 60)" stroke-width="1px" opacity="0.25"></line><line x1="218.8874282836914" y1="0" x2="218.8874282836914" y2="177.9749994277954" fill="rgb(0, 0, 0)" stroke="rgb(60, 60, 60)" stroke-width="1px" opacity="0.25"></line><line x1="238.78628540039062" y1="0" x2="238.78628540039062" y2="177.9749994277954" fill="rgb(0, 0, 0)" stroke="rgb(60, 60, 60)" stroke-width="1px" opacity="0.25"></line><line x1="258.68514251708984" y1="0" x2="258.68514251708984" y2="177.9749994277954" fill="rgb(0, 0, 0)" stroke="rgb(60, 60, 60)" stroke-width="1px" opacity="0.25"></line><line x1="278.58399963378906" y1="0" x2="278.58399963378906" y2="177.9749994277954" fill="rgb(0, 0, 0)" stroke="rgb(60, 60, 60)" stroke-width="1px" opacity="0.25"></line></g><g><line x1="0" y1="177.9749994277954" x2="278.58399963378906" y2="177.9749994277954" fill="rgb(0, 0, 0)" stroke="rgb(60, 60, 60)" stroke-width="1px" opacity="0.25"></line><line x1="0" y1="158.1999994913737" x2="278.58399963378906" y2="158.1999994913737" fill="rgb(0, 0, 0)" stroke="rgb(60, 60, 60)" stroke-width="1px" opacity="0.25"></line><line x1="0" y1="138.424999554952" x2="278.58399963378906" y2="138.424999554952" fill="rgb(0, 0, 0)" stroke="rgb(60, 60, 60)" stroke-width="1px" opacity="0.25"></line><line x1="0" y1="118.64999961853027" x2="278.58399963378906" y2="118.64999961853027" fill="rgb(0, 0, 0)" stroke="rgb(60, 60, 60)" stroke-width="1px" opacity="0.25"></line><line x1="0" y1="98.87499968210857" x2="278.58399963378906" y2="98.87499968210857" fill="rgb(0, 0, 0)" stroke="rgb(60, 60, 60)" stroke-width="1px" opacity="0.25"></line><line x1="0" y1="79.09999974568684" x2="278.58399963378906" y2="79.09999974568684" fill="rgb(0, 0, 0)" stroke="rgb(60, 60, 60)" stroke-width="1px" opacity="0.25"></line><line x1="0" y1="59.32499980926514" x2="278.58399963378906" y2="59.32499980926514" fill="rgb(0, 0, 0)" stroke="rgb(60, 60, 60)" stroke-width="1px" opacity="0.25"></line><line x1="0" y1="39.549999872843415" x2="278.58399963378906" y2="39.549999872843415" fill="rgb(0, 0, 0)" stroke="rgb(60, 60, 60)" stroke-width="1px" opacity="0.25"></line><line x1="0" y1="19.77499993642172" x2="278.58399963378906" y2="19.77499993642172" fill="rgb(0, 0, 0)" stroke="rgb(60, 60, 60)" stroke-width="1px" opacity="0.25"></line><line x1="0" y1="0" x2="278.58399963378906" y2="0" fill="rgb(0, 0, 0)" stroke="rgb(60, 60, 60)" stroke-width="1px" opacity="0.25"></line></g></g></g><g><g><line x1="0" y1="158.1999994913737" x2="278.58399963378906" y2="158.1999994913737" fill="rgb(0, 0, 0)" stroke="rgb(153, 153, 153)" stroke-width="1.5px"></line></g></g><g><g><line x1="19.89885711669922" y1="0" x2="19.89885711669922" y2="177.9749994277954" fill="rgb(0, 0, 0)" stroke="rgb(153, 153, 153)" stroke-width="1.5px"></line></g></g><g><g><g><g><g><path style="fill: none;" stroke="rgb(0, 153, 136)" stroke-width="2px" d="M23.030937226867678,-10.808437098085335L23.51845922622681,4.028894852559603L24.04776882553101,-1.9016570030107687L24.567128996276853,-2.670157567022528L25.18399356689453,10.291995289614675L25.44466859512329,7.396624624790235L25.603859452056884,-1.8273717583078906L25.67350545196533,5.663104229839519L25.683454880523684,6.063978640610458L26.143118479919433,-3.955637418427017L26.511247336578368,-0.5477758866818476L26.931113221740723,10.311702850090569L27.01070865020752,6.80883956150592L27.438534078216552,13.8443537863036L27.49823064956665,2.26841564641245L27.637522649383545,13.19806838560666L27.657421506500242,19.75311417189323L27.79870339202881,21.81982435125323L27.858399963378908,4.6390088647467564L28.136983963012696,7.239661920636394L29.213512133026125,12.268550451888586L29.46423773269653,17.618625071623825L29.474187161254886,8.248689017001652L29.53388373260498,8.599068697462371L29.80251830368042,23.756936104211036L29.89206316070557,9.60327734243856L30.37162561721802,29.05623310999286L30.401473902893066,18.27899807775188L30.670108473968508,24.541268722786896L30.77955218811035,19.567155894311924L31.3387100730896,43.96752027442366L31.348659501647948,33.855589853157056L31.527749215698243,24.970497504060717L32.15655310058594,5.4128747885244195L32.32569338607788,22.496142565402664L32.86495241394043,28.428250281010605L32.89480069961548,34.92691735720851L33.03409269943237,28.026442354217124L33.07389041366577,27.794138306425793L33.54350344161987,24.591225974175046L33.61314944152832,35.721028320384136L33.832036869812015,34.906313998529185L33.94347046966553,49.744645471380096L34.042964755249024,28.760902586497792L34.34144761199951,54.108172814929276L34.45089132614136,54.11373619324543L34.59018332595825,41.46779067297106L34.90060549697876,34.101085708176015L35.189138925170894,19.127158675687184L35.34832978210449,47.0373264230966L35.49956109619141,45.48566249290084L35.5393588104248,39.21334947853242L35.70849909591674,47.57376810514111L36.056729095458984,52.451889084025424L36.55619040908814,42.77038498478882L36.73528012313843,38.985307544298536L36.82482498016358,45.72369964919426L36.964116979980474,52.712509784500526L36.98401583709717,40.05886039967649L37.01386412277222,39.61096129795183L37.44367943649292,55.85564880294427L37.883444178771974,60.177196213843374L38.062533892822266,50.12582175112993L38.15207874984741,50.3758814622591L38.28142132110596,52.8941210834314L38.311269606781,56.68872227324255L38.3908650352478,48.85027111560157L38.78088263473511,40.24763808423495L38.950022920227056,47.66370624476744L39.049517205810545,49.66666388040616L39.079365491485596,54.689998462796964L39.608675090789795,69.65019620913608L39.728068233489985,59.91868771123745L39.956905090332036,48.889969120196525L40.35687211837769,49.41211574880495L40.43646754684448,62.503442706379545L40.47626526107788,57.970185176913674L40.54591126098633,60.05780988696051L41.44334971694946,74.73691558651201L41.48314743118286,70.92130557146629L41.56274285964966,66.85150574410075L41.68213600234986,53.81288000925329L41.873165030670165,50.83014544595562L41.92291217346191,49.278424939031225L41.93286160202027,74.26114301647794L42.13185017318725,52.90752033866406L42.181597315979005,71.99003054600038L42.62136205825806,64.20916506865903L42.740755200958255,66.41541231975211L42.999440343475335,65.47447531630375L43.08898520050049,56.53044887487522L43.429255657196045,80.8223085189123L43.43920508575439,78.74104869083735L43.459103942871096,67.5600915524839L43.89687879943848,59.319096970577135L44.05805954208375,69.92024636438434L44.07795839920044,61.883493772864014L44.12770554199219,66.38751999253311L44.37644125595093,65.89955513747736L44.38639068450928,81.69334497412729L44.485884970092776,71.4474974361724L44.50578382720947,90.01870960261681L44.55553097000122,58.04101924116958L44.69482296981812,65.56230125806087L44.75451954116821,76.8552897485741L44.836104855346676,65.5877890743127L44.98534628372192,47.97153079583691L45.04504285507202,60.470612558019496L46.35040788192749,64.3695695238051L46.5215380531311,71.81950828588272L46.889666909790044,72.82395266722824L47.028958909606935,58.58183619022884L47.36922936630249,66.14027025892635L48.425858679199216,80.95875744420717L49.12430856399536,65.4702792089297L49.20390399246216,73.5281443496871L49.554123877716066,60.834608371172635L49.822758448791504,62.5974355115583L49.852606734466555,89.5439695578804L50.421714048004155,91.33314730962964L51.03061907577515,89.37431480760188L51.37884907531738,81.75315129102599L51.71712964630127,81.03965745143341L51.808664389038086,92.34832241050701L51.84846210327148,79.35202078340883L51.86836096038819,95.70743366107497L51.87831038894653,79.34386901975745L52.455377245330816,79.92169186407395L52.84539484481812,86.90557510926124L53.15382713012695,74.34585723815992L53.46424930114746,83.1734110542305L53.683136729431155,90.7326560560385L53.8721758720398,91.7152995379485L54.02141730041504,97.4219207015661L54.17264861450195,95.20621570733556L55.358620498657224,85.52625803868175L55.537710212707516,95.6576272809632L55.55760906982422,91.38345816557178L55.907828955078124,90.94844912852204L56.047120954895014,91.80220610786523L56.59632941131592,79.0452994785478L56.63612712554932,60.609442420644584L56.74557083969116,99.94182462150586L57.25498158187867,90.98241402461493L57.463919581604,90.4295745207199L57.51366672439575,86.66195571574212L57.533565581512455,95.0270560666457L57.63305986709595,91.41444806868374L57.961391009521485,91.05057955317004L58.59019489440918,86.20849795042872L58.86081935119629,77.59155100671646L59.13940335083007,103.37060068393787L59.517481636047364,101.9370831073223L59.61896580734253,83.33274055153242L59.64881409301758,89.74663211459233L60.21593152084351,99.59856417939886L60.265678663635256,106.48261778690282L60.36716283493042,86.90072836950783L61.09347111968994,95.06354334189041L61.20490471954346,98.02398667410436L61.22480357666015,99.88654444289826L61.28450014801025,109.79599618182101L61.53323586196899,101.23240580794261L61.58298300476075,92.13605123938123L61.612831290435786,102.26665198109868L61.891415290069574,96.82158031925132L61.91330403289795,99.58586741854681L62.29138231811523,88.34252029268684L62.42072488937378,91.85024917993444L62.44062374649048,95.27773340706251L63.23856791687012,105.48241194547784L63.55893951644897,100.28845609369425L64.1459558013916,103.69025448602027L64.30713654403687,104.04524045513767L64.5160745437622,109.85554790344084L64.99364711456299,90.17268788433496L65.02349540023803,103.44062381508327L65.48315899963379,95.60872612850964L65.8333788848877,100.79789181726846L65.8731765991211,101.01252506681492L65.9527720275879,87.16595535863962L66.32090088424683,106.22362366737609L66.68107019805907,113.00768262173817L66.76066562652588,112.7177928936472L67.05914848327637,113.53895224783962L67.17854162597656,102.52549994407643L67.19844048309326,114.57056288838658L67.56855922546387,106.88352048603808L67.68795236816406,104.86266103051253L68.10582836761475,106.87050312372374L68.77442996673584,105.94233831676563L68.86397482376098,104.27391887756873L68.89382310943603,110.40013663440936L69.64202013702392,110.99723799900956L69.66191899414063,84.13655913839702L69.67186842269896,106.26366113234288L70.19122859344483,111.89641194726762L70.46981259307861,92.36536615000948L71.118515335083,98.8606904844903L71.49858350601195,127.44051453625191L72.38607253341675,113.02039824149976L72.54526339035034,106.18528821899584L72.68455539016723,101.69550519076158L73.28351098937989,100.59158477628671L73.50239841766358,86.36960489995538L74.22074715957642,104.03719241548879L74.24064601669312,107.54481757873388L74.55106818771362,108.16041481887162L74.92914647293091,100.90658985716595L75.64749521484374,121.21514841983529L75.68729292907716,101.89249121570008L75.8365343574524,108.72633769126439L76.23650138549806,99.40883883463569L76.2663496711731,116.0808645152199L76.78570984191894,116.10489076598188L77.10409155578613,113.94154281937926L77.27323184127808,92.93372653646111L77.30308012695312,107.09555592079452L77.63340115509033,116.17291956744279L77.65330001220703,113.18557871548842L77.72294601211549,123.57307552304557L78.08112544021607,100.94697149723197L78.28210389709473,123.91998044942238L78.52089018249512,97.25778689705726L78.57063732528687,101.80800801566004L78.63033389663697,116.45412476768767L78.8989684677124,96.94285253708881L79.08999749603271,127.4334613040816L79.13974463882445,118.39376832925207L79.2889860671997,109.92343054835275L79.76655863800049,108.53267554913343L80.18642452316284,117.9218241178559L80.28591880874633,118.39416436635256L80.77543069381713,119.75840373874976L80.96446983642578,96.07145304786506L81.09381240768433,106.95444413011433L81.15350897903443,118.83892581700141L81.28285155029297,115.45537577702513L81.84200943527222,108.31170570597942L82.07084629211425,126.10402604925207L82.12059343490601,98.38253226239863L82.35142017745972,120.28445180427059L82.57030760574341,116.22034029549695L82.69965017700196,110.18130727748887L82.93047691955566,95.84464165747909L83.87766251831054,120.68133991303618L83.91746023254393,113.9457436414807L84.11644880371094,95.23760164754799L84.64575840301514,116.98599316416721L84.74525268859864,118.41987848951894L84.93429183120728,117.34694326342864L85.46360143051149,87.73878059192634L85.55314628753662,118.73006747637278L85.67253943023681,123.49851918151796L85.70238771591187,116.71948848391366L85.85162914428712,135.46679807561034L85.88147742996215,109.77059794538953L86.00087057266235,123.92993323893545L86.26154560089113,114.35502441118192L86.30134331512451,120.85276268608467L86.41078702926636,109.85117735115348L87.1888323425293,123.3861577984411L87.32812434234619,110.6268867333393L87.40771977081299,113.81501368050574L87.55696119918824,124.11110606821936L88.19571451263428,110.16747898206404L88.50613668365477,129.27331058841807L88.76482182617187,116.28127343224105L88.98370925445556,119.68867527806603L89.89109713897705,127.7108004278695L89.96273302459717,122.44291529330071L90.3706595954895,114.88404511231995L90.96961519470214,125.3145331615516L91.27804748001098,104.41501652406676L91.79740765075684,124.90286673979278L91.90685136489867,128.52555246754355L92.08594107894898,129.04464866753287L92.18543536453247,128.71994774978313L92.19538479309082,102.90323447283406L92.37646439285278,136.1013178741141L92.60530124969482,116.35912301084818L92.79434039230347,127.68036214786176L93.17440856323242,118.35236830807057L93.20425684890746,124.83815946377574L93.27390284881592,122.90982653321171L93.37339713439941,115.11604270283115L93.40324542007446,119.36240907082394L93.55248684844972,117.7063657910168L93.87285844802857,122.31243285551355L94.0618975906372,112.02695803387451L94.83994290390015,124.31811560358172L95.18817290344238,113.11828541149983L95.35731318893431,119.91977235564639L95.49859507446288,120.49556079509557L95.60803878860473,119.34727479591302L95.66773535995483,111.81780801227865L96.01596535949707,121.73985514541462L96.18709553070069,121.73535493812415L96.32638753051758,126.24223121049845L96.52537610168457,122.13803980421153L96.60497153015136,119.99426269099058L96.70446581573486,119.95138460277337L97.04473627243041,114.22499694458756L97.09448341522216,122.41851422171149L97.70139855728151,126.91795065426979L97.70338844299316,132.09534131138062L98.02177015686036,127.13828636659028L98.6008268989563,131.04284914323853L98.94905689849853,115.96096428305191L99.05850061264037,111.39619823046155L99.17789375534058,117.32125742862658L99.33907449798583,132.62278257884418L100.46534981079101,113.0595069051714L100.50514752502441,125.36313964354349L100.81357981033325,120.6071253892441L100.86531683883668,109.61440374179968L101.44238369522095,116.48374739985752L101.55182740936279,125.33308797118147L101.91199672317505,126.45937505237825L101.9617438659668,126.42322959486907L101.9816427230835,134.54263371483975L102.04133929443358,117.17187129138294L102.27017615127563,120.70591307217501L102.31992329406738,145.62263911039182L102.40150860824585,105.18840626037839L103.28899763565063,131.71927579611787L103.31884592132569,135.9123044531863L103.59742992095947,110.87713031883656L103.64717706375122,130.5555443500169L103.69692420654296,132.91592546883186L104.26603152008057,105.83033053824276L104.52471666259765,121.98166879834469L104.6142615196228,125.09237520709618L104.93463311920165,122.08762522426687L104.94458254776,123.51864163800386L105.03412740478515,124.83737681902957L105.41220569000244,127.06694782650402L105.48384157562256,128.4323635233842L105.53358871841431,128.3485262409961L106.58026860275268,121.57743514431081L106.75935831680297,135.28617922679436L106.78920660247802,126.32399872756382L106.99814460220337,125.95870872174305L107.09962877349854,129.02326030674368L107.33841505889892,133.58221781519376L107.40806105880738,121.3204306397412L107.57720134429933,112.99487742215622L107.59710020141601,124.32155263984653L107.62694848709107,121.26883737794992L107.82792694396973,128.46420679215313L107.89757294387817,123.32885971651206L108.12640980072021,117.88850513941497L108.29555008621216,123.58287272655488L108.47463980026245,120.10198006759165L108.53433637161254,125.42473048475802L108.62587111434937,121.7291880747025L109.08354482803344,133.0169880077268L109.16314025650024,119.42003011157897L109.37207825622559,122.0684740016226L110.07052814102174,133.98907521501826L110.76897802581787,126.26263655062755L110.83862402572632,129.7792927741816L111.09929905395508,117.64590884173876L111.56692219619751,119.78478735320505L111.65646705322266,122.15902977053656L111.96688922424316,135.0398276487547L112.1758272239685,137.87167207677246L112.59569310913086,118.45179247919864L112.62554139480591,113.68459489153831L112.8245299659729,124.0006447202793L112.89417596588135,117.42217616833622L113.15286110839844,127.16230083053381L113.84136156463623,115.73308264954917L113.93090642166138,123.6355103004623L114.00055242156982,113.60900366734934L114.12193544998169,114.28106919739609L114.34082287826539,130.49187667138858L114.71890116348266,140.38504492059994L114.94972790603639,122.43206670558422L115.00942447738647,125.40999696167498L115.23826133422851,129.03637432096943L115.4173510482788,115.43044901333231L116.10585150451661,121.62824340399224L116.5356668182373,133.27208069034114L116.81425081787108,133.82574055680143L116.84409910354614,127.27495452670864L117.23411670303345,138.3397596411664L117.47290298843383,122.5359180057283L118.11165630187988,130.51953326223824L118.87975218658447,132.25228279926125L118.92949932937623,122.92022722182651L118.95934761505127,119.68441080714487L119.21803275756835,127.24310418584864L119.4468696144104,126.41670912689344L119.64784807128906,123.42044801072367L119.80703892822265,132.8154664150424L120.04582521362305,132.78689280971608L120.21496549911498,137.46196226687906L120.91341538391113,126.6071746838563L121.10444441223144,132.68713389294354L121.17409041213989,130.32412195624684L122.29041629638672,124.81335764035866L122.32026458206177,120.60569446948227L122.5292025817871,116.80966707463669L122.57894972457886,118.28011982559869L123.10825932388305,117.58377816423845L123.20775360946655,96.14155161464866L123.24755132369994,130.01970851044155L123.52812520904541,134.08426320358953L123.8465069229126,115.37394772033159L123.85645635147094,123.27487137320838L124.2763222366333,130.56091913923757L124.36586709365845,132.9593952553361L124.5350073791504,133.5410087404714L124.58475452194214,134.20029264457312L124.67429937896729,135.15882265326448L124.83349023590088,117.1072653820047L124.99467097854614,133.5191677658531L125.39264812088012,133.6801874929231L125.75281743469239,125.41380646140331L125.84236229171752,139.0942044241569L125.85231172027588,117.73821377451313L126.07119914855957,124.25624895081508L126.14084514846802,123.62610206196237L126.41942914810181,114.29179991692794L126.51096389083862,127.97518348079907L126.56071103363037,128.14699757622066L126.67015474777222,131.81788903413548L126.75969960479736,124.78033804710677L126.89899160461425,121.06419935046301L127.26911034698487,137.8984187252365L127.29895863265992,134.15762907645203L127.63723920364379,126.91353766943595L127.6770369178772,130.50144756798332L127.90587377471924,131.2647737186883L127.96557034606934,124.21783335206928L127.98546920318604,124.11356951327885L128.37548680267335,125.83764630927426L128.43518337402344,130.08709375161416L128.56452594528199,126.51804511997679L128.61427308807373,136.77115805283438L128.75356508789062,137.89580440890063L129.24307697296143,135.5293577933028L129.43211611557007,114.26230458239752L129.5216609725952,136.86262140677024L129.69279114379884,126.91582195485475L129.96142571487425,121.80067041397407L130.19026257171632,125.56748535793244L130.210161428833,134.99725837518133L130.22011085739135,121.14647134335874L130.7991675994873,137.44378227807644L130.9185607421875,127.27460799424571L131.28867948455812,131.76124629931314L131.79610034103393,127.47284342194166L132.36520765457152,124.40142955122988L132.71542753982544,132.16135692424746L132.8845678253174,124.3023519125647L133.08355639648437,124.53376016215259L133.3919886817932,130.28587608768694L133.48153353881835,121.50190992630526L133.6427142814636,130.58972376620588L133.7223097099304,126.86090245289222L133.81185456695556,130.43481196846517L134.1202868522644,140.02146989686605L134.50035502319335,131.09503410331683L134.61974816589355,114.22546370259883L134.73914130859376,136.36836474801711L134.8485850227356,127.88023358596085L134.98787702255248,135.39247511308838L135.0077758796692,125.90004808359927L135.3579957649231,128.37345536205262L135.71617519302367,137.65968614665357L135.97685022125245,133.47240474226933L136.12609164962768,121.56321081178552L136.42457450637818,130.83379813091778L136.6554012489319,137.89713867675104L136.83449096298216,113.8292898750323L137.4234971336365,124.39647908747399L137.552839704895,131.13093203763822L137.57273856201172,118.53558261431286L137.78167656173707,135.16768869811494L137.83142370452882,141.50804701549012L137.9707157043457,124.34333939509989L138.0702099899292,131.89370420787526L138.11995713272094,133.04694302817742L138.1816435897827,135.11513598930048L138.37068273239137,124.44856975300456L138.49007587509155,136.54376439361616L139.44721090240478,133.31987859658625L139.59645233078,131.24354094390287L139.70589604492187,121.27279774895464L139.7377342163086,130.38259400529515L139.8969250732422,134.04737989124433L140.2252562156677,119.82644668439283L140.31480107269286,130.414991254532L140.94360495758056,140.3505955862681L140.97345324325562,135.4264682975456L141.1326441001892,133.81029510988301L141.99028484191894,140.77927510180135L142.0718701560974,135.5316420787216L142.38030244140623,128.62970551024037L142.59918986968992,139.45740226969988L142.81807729797362,116.08321716418581L143.4568306114197,135.4642497654579L143.53642603988646,126.85370542153662L143.95629192504884,131.74052978717654L144.24482535324097,131.7414232280163L144.69453952407835,132.81425708746775L144.97312352371213,136.28199565702243L145.55218026580812,139.9134095238476L145.7113711227417,133.85861163614064L146.01184386520384,138.70690960694117L146.300377293396,120.51011987326532L146.54911300735475,127.22407554611641L146.59886015014646,134.8886758461048L146.72024317855835,125.04866261213155L146.90928232116698,139.5178733631601L147.33710774917603,125.3799971513142L147.52813677749634,133.22139265620808L148.10520363388062,135.3557686030202L148.27434391937254,125.21930745516124L148.53501894760132,146.4324642599469L148.5449683761597,137.02785138539647L148.62456380462646,129.42706020585797L148.74395694732667,140.71194761603923L148.86335009002687,128.8196265161901L149.0125915184021,133.65122727995106L149.0523892326355,126.4859354691105L149.21356997528076,125.58254655456884L149.57174940338135,122.63604702860069L149.72099083175658,132.16756857757926L149.8204851173401,142.96151496104198L149.84237386016846,128.82149826296256L149.96176700286864,144.00777190221535L149.97171643142698,137.15080676091097L150.0115141456604,130.01609938662713L150.2900981452942,131.02093509034572L150.5487832878113,142.95451830560032L151.0183963157654,128.16233929913656L151.37657574386594,134.5112524893547L151.8959359146118,139.58324187969313L151.9357336288452,135.65015146631058L152.13472220001222,131.63449321088876L152.61428465652466,143.33520425370193L152.90281808471678,137.65807135252365L153.3127345413208,135.18661597120834L153.81219585494995,133.22255719387257L153.96143728332518,140.7450638612025L154.041032711792,128.84381071031953L154.1007292831421,145.85772720470493L154.59024116821288,147.46576277289827L154.62008945388794,152.13991344756178L154.64993773956297,135.41022134697144L154.77928031082152,127.85512059053625L155.047914881897,128.94130655794652L155.28869105300905,133.73432906486684L155.35833705291748,122.17974392530948L155.57722448120117,141.10486238829978L155.91550505218507,133.03969413482056L156.25577550888062,139.8550211612104L156.48461236572265,138.82964456895033L156.64380322265626,124.55206980595835L157.1631633934021,135.6785836298153L157.36215196456908,134.46730180065705L157.39200025024414,131.91204921213645L157.48154510726928,139.06990589788836L157.49149453582763,121.72692972028433L157.55119110717774,138.53105734751298L157.74222013549803,131.9576217670551L157.76211899261475,134.88572442676082L158.57001259155274,136.57865337627683L159.36795676193236,142.33465541585957L159.95696293258666,135.9538553456442L160.01665950393678,133.01461649985137L160.2454963607788,122.0284436087469L160.61362521743774,150.0393568296345L160.62357464599611,131.89344961259638L160.68327121734617,139.21568762604497L160.76485653152466,140.43104769439262L160.93399681701658,131.63418675360862L161.05338995971678,146.37229844508497L161.1130865310669,133.16420065564523L161.3120751022339,136.86332625851455L161.69214327316286,146.7364675244696L162.18961470108033,118.62028740654009L162.64927830047606,130.61771274533626L163.00745772857667,138.4781227457802L163.23828447113036,125.83373072817972L163.26813275680541,133.4087134900041L164.00638035583498,135.66213630332723L164.06607692718507,136.73253029135617L164.36455978393553,139.7803563809529L164.45410464096068,140.1701134645463L164.49390235519408,118.20024762894272L164.55359892654417,133.8874209778363L165.13265566864015,133.3146994685521L165.453027268219,141.48682602752316L165.46297669677733,138.42701981563712L165.54257212524413,138.21971325244942L165.58236983947754,140.50934988682886L165.75151012496949,150.49297548501997L165.8112066963196,126.89417664142297L166.11963898162844,119.88879188198919L166.3803140098572,141.6438771328155L166.56935315246582,142.50723683316332L166.887734866333,140.2195615253767L166.89768429489135,139.2310199195061L166.90763372344972,134.49524598987728L167.1384604660034,142.8299575654107L167.89660692214966,130.38648601275278L168.515461378479,139.9618651345631L168.9333373779297,132.915878321558L168.9731350921631,136.92557716156318L169.40295040588381,143.7673007679086L169.59198954849245,137.92906209588554L169.96011840515135,146.6712746315317L170.25064171905518,134.13195031374104L170.3202877189636,146.23191625846786L170.4197820045471,141.85249085417115L170.82770857543943,149.32547402503252L170.98888931808472,142.12194223904132L171.0485858894348,137.52876288185576L171.62764263153076,145.76165520474868L171.78683348846437,146.1250003855225L171.84653005981446,141.17896375863458L172.12511405944824,137.24186229092788L172.29425434494019,142.40196404271217L172.3141532020569,142.0880775309054L172.6245753730774,142.2834216520315L172.93300765838623,136.51727941252207L173.39267125778198,141.6485140672002L173.51206440048216,136.03184400870921L173.62150811462402,135.8511237932544L174.55874428482056,136.26811078486898L174.9189135986328,129.30244053157602L175.1576998840332,142.58442988598185L175.24724474105835,138.93297724908192L175.30694131240847,134.66388943113137L175.75665548324585,136.6833203242588L175.7865037689209,131.35026822775276L175.97554291152954,138.64865443535265L176.16458205413818,128.1138554000567L177.27294839553835,140.3650733353904L177.35254382400512,134.7671018857146L177.4122403953552,134.86702110321826L178.03109485168457,140.5401476647998L178.41912256546019,136.2639594674051L178.62010102233887,150.0494646158104L179.20711730728152,138.8942080457821L179.33645987854004,144.3712903492206L179.42799462127684,141.01335188709004L179.46779233551027,144.5079325783383L179.93541547775268,131.09027930074748L180.6438147911072,148.0727603502829L180.86270221939088,130.39128560523233L181.02388296203614,147.47551400781555L181.22287153320312,138.14870710064392L181.4815566757202,137.28374792903023L181.81187770385742,145.20777728214676L181.90142256088257,146.62796278839494L182.45859056015016,132.73156548383463L182.98790015945437,137.39713948004103L183.24658530197144,137.31238989790367L183.2883729019165,148.60760550776612L183.99478232955934,145.92679088882718L184.03458004379272,137.99621867277992L184.34500221481323,144.75677706848361L184.83252421417237,149.20664049993573L185.34193495635986,142.45783356224308L185.44142924194335,145.22743651666693L185.45137867050173,145.72496755359006L185.69215484161376,140.56822033034132L185.7816996986389,142.8539460983536L185.9209916984558,148.7769909292427L186.3388676979065,138.95858175483656L186.57964386901858,131.76320762590595L187.3178914680481,141.45307093679898L187.97654363861082,147.04486255755285L188.28497592391966,137.34878052123693L188.62325649490356,131.25997412620876L188.84413380889893,139.9998175113432L189.2222120941162,148.41769805665766L189.27195923690797,145.44952139284786L189.3217063796997,141.65095158125908L189.68187569351196,140.67674746137104L189.76147112197876,151.30820901622837L189.90076312179565,145.1135817436904L190.01020683593748,131.53436183065267L190.18929654998777,143.52390650262222L190.2091954071045,131.20257232027723L190.43007272109986,145.05881429168608L190.4400221496582,132.49780694264456L190.44997157821655,134.38971153205617L190.47981986389158,144.69664897144077L190.66885900650027,139.29664185263616L191.01708900604248,133.0473720683696L191.17826974868774,146.64319135785357L191.31756174850463,143.29572312656674L191.52649974822998,143.60607477151544L191.62599403381347,139.6794282117885L191.70558946228027,144.6127079650502L191.80508374786376,138.53467943682773L192.2846462043762,152.70050926734865L192.36424163284303,141.57339313706805L192.4040393470764,137.31131258269582L192.67466380386352,145.5496739893572L192.81395580368041,145.77199224454375L192.8736523750305,142.0538651116247L193.01294437484742,141.99575020317593L193.10248923187254,148.47860408371926L193.17213523178103,146.53305414742132L193.18208466033934,141.70379542448964L193.22188237457274,151.56161618380202L193.46265854568483,149.875297282082L193.56215283126832,149.4034786003025L193.6019505455017,128.54063252308953L193.76114140243533,147.9965621049429L193.9004334022522,144.26652321328166L194.2506532875061,142.6944480495476L194.3302487159729,154.83239731145295L194.43969243011475,142.3922564190232L194.92721442947388,136.79329841264175L194.93716385803222,139.82728795604072L194.97895145797727,140.64421230635813L195.24758602905274,143.1763721601393L195.62566431427,149.14248602570476L196.71413179855347,143.37770634241005L196.8036766555786,136.76189361351976L196.96286751251222,151.17185733218585L196.99271579818725,148.05511901908417L197.0822606552124,151.45159860957722L197.35288511199948,150.19239688060273L197.69116568298338,138.5340417699487L197.70111511154175,148.14428276473723L197.7906599685669,151.4944861272492L197.82050825424196,151.987031339961L198.2005764251709,145.6494446929482L198.44931213912966,150.70748320494974L198.61845242462158,145.38936382875886L199.0482677383423,140.80918297497809L199.28705402374266,146.60156031503013L199.50594145202638,136.20796972232583L199.77656590881347,150.40987193208142L199.89595905151367,141.21460356163155L200.31383505096434,154.0150937202514L200.3436833366394,130.9214449130342L200.74365036468507,151.67933408653096L200.82324579315187,147.99855525594558L201.6211899635315,150.10084158948283L201.63113939208986,144.00521180524444L202.48878013381957,144.06762065166052L202.56837556228638,150.98090085423385L203.00814030456544,152.02979686406186L203.59714647521972,151.69257893444168L204.20406161727905,137.54863545779017L204.27370761718748,150.74212348574076L204.55428150253294,146.6287124300494L204.9224103591919,147.51981947974903L205.08359110183716,140.4378604754662L205.50146710128783,146.11305444500675L205.97108012924193,150.8318040833836L206.3690572715759,150.2092614604645L206.61779298553466,141.8580341948959L206.79887258529664,146.3111967568368L206.84861972808838,145.96147242348283L207.07745658493042,136.13648974041794L207.1272037277222,135.04579885098983L207.1769508705139,149.97114297512368L207.2963440132141,151.02936059033584L207.49732247009277,150.24893707010438L207.96494561233519,149.70956400630726L208.17388361206054,154.41562159855943L208.53405292587283,155.16476467060374L208.6932437828064,151.18431894600948L209.262351096344,148.35268078731494L209.63047995300295,151.3801858125346L209.70012595291138,150.74874885640074L209.73992366714478,148.4243069257718L209.98069983825684,146.9740426374791L210.2393849807739,145.53589873461547L211.03732915115359,151.75030016315367L211.06717743682862,150.82483866301084L211.11692457962036,155.6546985136843L211.60643646469117,147.99454420162144L211.80542503585815,155.2158148547342L211.95466646423338,149.84501753478264L211.98451474990844,151.8248217335668L212.00441360702516,155.7038931579177L212.19544263534547,153.7245801747931L212.25513920669556,151.48474608980945L212.4839760635376,142.44134144584484L212.73271177749635,145.92516430787882L212.75261063461303,156.1392829092039L212.8739936630249,153.6286976479437L213.27197080535888,153.32715134573036L213.33166737670896,151.4989439019932L213.47095937652588,148.98561054400756L213.58040309066772,153.35811030844383L213.6619884048462,151.92306015075718L214.11966211853027,150.47351957311835L214.18930811843873,150.0097182852597L214.22910583267213,142.70719785108273L214.28880240402222,149.2778216859955L214.86785914611815,154.3063436471934L215.1364937171936,143.61310443004882L215.35737103118896,151.66304765011495L216.04587148742675,149.20696169073895L216.14536577301024,145.70574207398946L216.26475891571044,154.3179846037813L216.593090058136,155.9925464487515L216.67268548660277,151.14353419675192L216.75427080078126,153.674557211892L216.8239168006897,148.53005943973452L217.2218939430237,154.40307688766558L217.35123651428222,154.08278158798814L217.400983657074,155.82387133042278L217.46068022842405,155.4007376603132L217.4905285140991,157.25516370304712L218.238725541687,154.73198275290324L218.24867497024536,153.65856014186934L218.26857382736205,152.23709812318126L218.67849028396606,155.43913852553595L218.7083385696411,154.69558063742193L219.01677085494995,156.53488006667695L219.22769874038696,154.59177854724496L219.27744588317873,149.5794552106655L219.30729416885376,153.17640972436308L219.3570413116455,154.9411816897957L219.76496788253783,149.2270546801787L219.90624976806643,155.43659198340626L220.05549119644164,154.52472333698938L220.14503605346678,155.007566524751L220.1649349105835,156.77301711625685L220.35397405319213,153.5185171209536L220.55296262435914,155.20825390535842L220.64449736709594,153.75149066003382L220.78378936691286,156.23393224017124L221.19171593780518,153.4163159753948L221.2116147949219,152.8446950602849L221.42254268035887,156.12138904541953L221.65137953720094,153.62232628322167L222.05930610809327,155.8755593287675L222.18864867935181,156.43819132144444L222.1906385650635,153.72135264922653L222.37967770767213,157.35692578961803L222.38962713623047,153.18884187114057L222.40952599334716,155.36149934163842L222.4592731361389,154.51761205473812L222.56871685028077,151.5392365515798L223.2870655921936,155.06244447817843L223.65519444885254,154.81005922776583L223.66514387741088,149.76179729234127L223.82632462005614,152.87071387270862L223.86612233428954,152.59750426077045L224.23425119094847,152.7918252860537L224.53472393341065,152.782215492958L224.544673361969,154.61470479317356L224.57452164764405,156.94006668498383L224.5844710762024,150.7921991946545L224.92275164718626,149.17866625432842L224.97249878997803,153.7666520446272L225.06204364700318,156.50140049283442L225.1117907897949,153.68722450569788L225.3008299324036,150.62738529072016L225.62120153198242,155.32468851822682L225.8599878173828,152.49142584127713L225.86993724594117,154.75756515837324L226.22015713119507,154.07539449418476L226.59823541641236,156.55966921926418L226.98825301589966,154.4762912999108L227.04794958724975,155.65123701977117L227.06784844436646,155.86885528109426L227.0777978729248,153.8247914107243L227.2568875869751,154.95974062481204L227.38623015823364,150.89820453587333L227.4757750152588,154.37920563356644L227.51557272949216,155.10076637171744L228.1443766143799,153.07272579704122L228.78312992782594,152.98847361864313L229.01196678466795,157.60043762841863L229.17115764160155,155.97481848443707L229.83975924072266,154.94333337350676L229.86960752639771,155.61027753092984L229.91935466918943,154.5580431994417L230.5780068397522,154.55242678044243L230.74913701095582,156.88703749403285L231.49534415283205,155.24269292622412L231.875412323761,154.65067050170111L231.88536175231934,152.85631038054265L232.50421620864867,152.80491572664252L232.63355877990722,153.6283024948546L232.74300249404908,155.9742326795593L233.12307066497803,155.00919605240398L233.26236266479492,152.89382310899393L233.43150295028687,152.0378337062332L233.56084552154542,155.8443345732976L233.84937894973754,154.91931124813124L233.8593283782959,156.00656510129457L234.25929540634155,154.99725158524058L234.49808169174193,150.8659292802076L234.55777826309205,154.51992698588492L234.74880729141236,154.0340009557534L234.80850386276245,157.0658305646684L235.0174418624878,153.85530630505204L235.07713843383792,153.98471142763137L235.53680203323364,154.7965108692796L235.6661446044922,156.66774020041925L236.24520134658815,154.08670748254886L236.56358306045533,152.29263171838588L236.63322906036376,154.36049936331926L237.46102151641847,155.78711281101812L237.66001008758545,155.9424742758833L238.73852814331056,154.75873323208327L238.98726385726928,157.0469280438938L239.00716271438597,153.43849552637357L239.11660642852783,155.04845529268155L239.37728145675658,154.3417939770835L239.44692745666504,153.5837026471299L239.5563711708069,156.0657956321112L239.6061183135986,154.0761282236343L239.6757643135071,155.4165829750481L239.68571374206542,155.93691855899917L239.82500574188234,153.55693330904035L240.09563019866943,151.5502342425499L240.6925959121704,155.62719014207687L240.78214076919554,155.74777135768176L240.8119890548706,152.71271687523435L241.14231008300783,154.9980990574883L241.2219055114746,154.76922202716608L241.55023665390016,153.86101230387166L241.57013551101684,155.02304585877252L241.6198826538086,153.87686203866346L241.9303048248291,150.59585201527688L242.11934396743774,153.8336992987803L242.82774328079225,153.79479277904537L242.84764213790893,151.09576575755298L242.98693413772583,152.0260103486295L243.31725516586303,153.93033294063648L244.03560390777588,155.112083485468L244.10524990768434,155.96269102691696L244.22464305038451,154.05555197463744L244.71216504974365,155.85058070307343L244.73206390686036,154.41044895327542L244.83354807815553,156.9861946937227L244.84349750671387,157.8957796440617L244.89324464950562,155.93568035371925L245.53000807723998,155.95045807737156L245.73098653411867,154.99067571921813L245.76083481979373,154.01058349416522L245.77078424835204,155.80686928679063L245.99962110519408,152.84588670763185L247.20748173217774,153.74944682571174L247.24727944641114,150.67999516560417L247.25722887496946,155.06844868350524L247.42636916046143,156.0391155791715L247.57561058883667,155.12120913499518L247.67510487442016,156.10640416843268L247.784548588562,154.8041460756117L247.83429573135376,154.91056690218147L247.8442451599121,151.91386348564873L247.87608333129882,156.91004477433842L247.91588104553225,155.96041676029384L247.9755776168823,155.01220670051077L248.2143639022827,152.81775982272538L248.3138581878662,153.48725759436923L248.5725433303833,155.93069217214426L248.59244218749998,151.89411054592176L248.67402750167847,152.45192939127793L249.01230807266236,151.00080761194184L249.2411449295044,156.96263284360828L249.5714659576416,153.01537938915646L249.74060624313356,156.55698595004029L249.97939252853394,151.7503638119734L250.16843167114257,153.9481333938845L250.2997641281128,153.0168615815786L250.62809527053832,153.9576659833192L250.83703327026367,156.42934413550353L251.74442115478516,151.9921055653108L252.22398361129763,156.05381374179913L252.82293921051027,151.79752699804408L253.02192778167725,153.9258056236635L253.071674924469,151.85536668428165L253.1313714958191,156.88775825798209L253.31046120986937,156.9749547836331" fill="none"></path></g></g></g></g></g></g><g transform="translate(51, 177)" clip-path="url(#clip_1)"><clipPath id="clip_1"><rect width="278" height="22"></rect></clipPath><g><g><line x1="0" y1="0" x2="0" y2="5" style="visibility: inherit;" fill="rgb(0, 0, 0)" stroke="rgb(204, 204, 204)" stroke-width="1px"></line><line x1="19.89885711669922" y1="0" x2="19.89885711669922" y2="5" style="visibility: inherit;" fill="rgb(0, 0, 0)" stroke="rgb(204, 204, 204)" stroke-width="1px"></line><line x1="39.79771423339844" y1="0" x2="39.79771423339844" y2="5" style="visibility: inherit;" fill="rgb(0, 0, 0)" stroke="rgb(204, 204, 204)" stroke-width="1px"></line><line x1="59.696571350097656" y1="0" x2="59.696571350097656" y2="5" style="visibility: inherit;" fill="rgb(0, 0, 0)" stroke="rgb(204, 204, 204)" stroke-width="1px"></line><line x1="79.59542846679688" y1="0" x2="79.59542846679688" y2="5" style="visibility: inherit;" fill="rgb(0, 0, 0)" stroke="rgb(204, 204, 204)" stroke-width="1px"></line><line x1="99.4942855834961" y1="0" x2="99.4942855834961" y2="5" style="visibility: inherit;" fill="rgb(0, 0, 0)" stroke="rgb(204, 204, 204)" stroke-width="1px"></line><line x1="119.39314270019531" y1="0" x2="119.39314270019531" y2="5" style="visibility: inherit;" fill="rgb(0, 0, 0)" stroke="rgb(204, 204, 204)" stroke-width="1px"></line><line x1="139.29199981689453" y1="0" x2="139.29199981689453" y2="5" style="visibility: inherit;" fill="rgb(0, 0, 0)" stroke="rgb(204, 204, 204)" stroke-width="1px"></line><line x1="159.19085693359375" y1="0" x2="159.19085693359375" y2="5" style="visibility: inherit;" fill="rgb(0, 0, 0)" stroke="rgb(204, 204, 204)" stroke-width="1px"></line><line x1="179.08971405029297" y1="0" x2="179.08971405029297" y2="5" style="visibility: inherit;" fill="rgb(0, 0, 0)" stroke="rgb(204, 204, 204)" stroke-width="1px"></line><line x1="198.9885711669922" y1="0" x2="198.9885711669922" y2="5" style="visibility: inherit;" fill="rgb(0, 0, 0)" stroke="rgb(204, 204, 204)" stroke-width="1px"></line><line x1="218.8874282836914" y1="0" x2="218.8874282836914" y2="5" style="visibility: inherit;" fill="rgb(0, 0, 0)" stroke="rgb(204, 204, 204)" stroke-width="1px"></line><line x1="238.78628540039062" y1="0" x2="238.78628540039062" y2="5" style="visibility: inherit;" fill="rgb(0, 0, 0)" stroke="rgb(204, 204, 204)" stroke-width="1px"></line><line x1="258.68514251708984" y1="0" x2="258.68514251708984" y2="5" style="visibility: inherit;" fill="rgb(0, 0, 0)" stroke="rgb(204, 204, 204)" stroke-width="1px"></line><line x1="278.58399963378906" y1="0" x2="278.58399963378906" y2="5" style="visibility: inherit;" fill="rgb(0, 0, 0)" stroke="rgb(204, 204, 204)" stroke-width="1px"></line></g><g transform="translate(0, 8)"><text style="text-anchor: middle; visibility: hidden; font-family: &quot;Helvetica Neue&quot;, sans-serif; font-size: 12px; font-weight: 200;" x="0" y="0" dx="0em" dy="0.95em" fill="rgb(50, 49, 63)" stroke="none" stroke-width="1px">-20k</text><text style="text-anchor: middle; visibility: inherit; font-family: &quot;Helvetica Neue&quot;, sans-serif; font-size: 12px; font-weight: 200;" x="19.89885711669922" y="0" dx="0em" dy="0.95em" fill="rgb(50, 49, 63)" stroke="none" stroke-width="1px">0</text><text style="text-anchor: middle; visibility: hidden; font-family: &quot;Helvetica Neue&quot;, sans-serif; font-size: 12px; font-weight: 200;" x="39.79771423339844" y="0" dx="0em" dy="0.95em" fill="rgb(50, 49, 63)" stroke="none" stroke-width="1px">20k</text><text style="text-anchor: middle; visibility: inherit; font-family: &quot;Helvetica Neue&quot;, sans-serif; font-size: 12px; font-weight: 200;" x="59.696571350097656" y="0" dx="0em" dy="0.95em" fill="rgb(50, 49, 63)" stroke="none" stroke-width="1px">40k</text><text style="text-anchor: middle; visibility: hidden; font-family: &quot;Helvetica Neue&quot;, sans-serif; font-size: 12px; font-weight: 200;" x="79.59542846679688" y="0" dx="0em" dy="0.95em" fill="rgb(50, 49, 63)" stroke="none" stroke-width="1px">60k</text><text style="text-anchor: middle; visibility: inherit; font-family: &quot;Helvetica Neue&quot;, sans-serif; font-size: 12px; font-weight: 200;" x="99.4942855834961" y="0" dx="0em" dy="0.95em" fill="rgb(50, 49, 63)" stroke="none" stroke-width="1px">80k</text><text style="text-anchor: middle; visibility: hidden; font-family: &quot;Helvetica Neue&quot;, sans-serif; font-size: 12px; font-weight: 200;" x="119.39314270019531" y="0" dx="0em" dy="0.95em" fill="rgb(50, 49, 63)" stroke="none" stroke-width="1px">100k</text><text style="text-anchor: middle; visibility: inherit; font-family: &quot;Helvetica Neue&quot;, sans-serif; font-size: 12px; font-weight: 200;" x="139.29199981689453" y="0" dx="0em" dy="0.95em" fill="rgb(50, 49, 63)" stroke="none" stroke-width="1px">120k</text><text style="text-anchor: middle; visibility: hidden; font-family: &quot;Helvetica Neue&quot;, sans-serif; font-size: 12px; font-weight: 200;" x="159.19085693359375" y="0" dx="0em" dy="0.95em" fill="rgb(50, 49, 63)" stroke="none" stroke-width="1px">140k</text><text style="text-anchor: middle; visibility: inherit; font-family: &quot;Helvetica Neue&quot;, sans-serif; font-size: 12px; font-weight: 200;" x="179.08971405029297" y="0" dx="0em" dy="0.95em" fill="rgb(50, 49, 63)" stroke="none" stroke-width="1px">160k</text><text style="text-anchor: middle; visibility: hidden; font-family: &quot;Helvetica Neue&quot;, sans-serif; font-size: 12px; font-weight: 200;" x="198.9885711669922" y="0" dx="0em" dy="0.95em" fill="rgb(50, 49, 63)" stroke="none" stroke-width="1px">180k</text><text style="text-anchor: middle; visibility: inherit; font-family: &quot;Helvetica Neue&quot;, sans-serif; font-size: 12px; font-weight: 200;" x="218.8874282836914" y="0" dx="0em" dy="0.95em" fill="rgb(50, 49, 63)" stroke="none" stroke-width="1px">200k</text><text style="text-anchor: middle; visibility: hidden; font-family: &quot;Helvetica Neue&quot;, sans-serif; font-size: 12px; font-weight: 200;" x="238.78628540039062" y="0" dx="0em" dy="0.95em" fill="rgb(50, 49, 63)" stroke="none" stroke-width="1px">220k</text><text style="text-anchor: middle; visibility: inherit; font-family: &quot;Helvetica Neue&quot;, sans-serif; font-size: 12px; font-weight: 200;" x="258.68514251708984" y="0" dx="0em" dy="0.95em" fill="rgb(50, 49, 63)" stroke="none" stroke-width="1px">240k</text><text style="text-anchor: middle; visibility: hidden; font-family: &quot;Helvetica Neue&quot;, sans-serif; font-size: 12px; font-weight: 200;" x="278.58399963378906" y="0" dx="0em" dy="0.95em" fill="rgb(50, 49, 63)" stroke="none" stroke-width="1px">260k</text></g><line x1="0" y1="0" x2="278.58399963378906" y2="0" fill="rgb(0, 0, 0)" stroke="rgb(204, 204, 204)" stroke-width="1px"></line></g></g></g></g></svg>