<svg viewBox="0 0 330 200" xmlns="http://www.w3.org/2000/svg"><g><g><g><g><g><line x1="61.77000045776367" y1="177.9749994277954" x2="56.77000045776367" y2="177.9749994277954" style="visibility: inherit;" fill="rgb(0, 0, 0)" stroke="rgb(204, 204, 204)" stroke-width="1px"></line><line x1="61.77000045776367" y1="164.28461485642654" x2="56.77000045776367" y2="164.28461485642654" style="visibility: inherit;" fill="rgb(0, 0, 0)" stroke="rgb(204, 204, 204)" stroke-width="1px"></line><line x1="61.77000045776367" y1="150.59423028505765" x2="56.77000045776367" y2="150.59423028505765" style="visibility: inherit;" fill="rgb(0, 0, 0)" stroke="rgb(204, 204, 204)" stroke-width="1px"></line><line x1="61.77000045776367" y1="136.90384571368878" x2="56.77000045776367" y2="136.90384571368878" style="visibility: inherit;" fill="rgb(0, 0, 0)" stroke="rgb(204, 204, 204)" stroke-width="1px"></line><line x1="61.77000045776367" y1="123.21346114231991" x2="56.77000045776367" y2="123.21346114231991" style="visibility: inherit;" fill="rgb(0, 0, 0)" stroke="rgb(204, 204, 204)" stroke-width="1px"></line><line x1="61.77000045776367" y1="109.52307657095103" x2="56.77000045776367" y2="109.52307657095103" style="visibility: inherit;" fill="rgb(0, 0, 0)" stroke="rgb(204, 204, 204)" stroke-width="1px"></line><line x1="61.77000045776367" y1="95.83269199958215" x2="56.77000045776367" y2="95.83269199958215" style="visibility: inherit;" fill="rgb(0, 0, 0)" stroke="rgb(204, 204, 204)" stroke-width="1px"></line><line x1="61.77000045776367" y1="82.14230742821327" x2="56.77000045776367" y2="82.14230742821327" style="visibility: inherit;" fill="rgb(0, 0, 0)" stroke="rgb(204, 204, 204)" stroke-width="1px"></line><line x1="61.77000045776367" y1="68.4519228568444" x2="56.77000045776367" y2="68.4519228568444" style="visibility: inherit;" fill="rgb(0, 0, 0)" stroke="rgb(204, 204, 204)" stroke-width="1px"></line><line x1="61.77000045776367" y1="54.76153828547551" x2="56.77000045776367" y2="54.76153828547551" style="visibility: inherit;" fill="rgb(0, 0, 0)" stroke="rgb(204, 204, 204)" stroke-width="1px"></line><line x1="61.77000045776367" y1="41.07115371410666" x2="56.77000045776367" y2="41.07115371410666" style="visibility: inherit;" fill="rgb(0, 0, 0)" stroke="rgb(204, 204, 204)" stroke-width="1px"></line><line x1="61.77000045776367" y1="27.38076914273779" x2="56.77000045776367" y2="27.38076914273779" style="visibility: inherit;" fill="rgb(0, 0, 0)" stroke="rgb(204, 204, 204)" stroke-width="1px"></line><line x1="61.77000045776367" y1="13.690384571368895" x2="56.77000045776367" y2="13.690384571368895" style="visibility: inherit;" fill="rgb(0, 0, 0)" stroke="rgb(204, 204, 204)" stroke-width="1px"></line><line x1="61.77000045776367" y1="0" x2="56.77000045776367" y2="0" style="visibility: inherit;" fill="rgb(0, 0, 0)" stroke="rgb(204, 204, 204)" stroke-width="1px"></line></g><g transform="translate(51.77000045776367, 0)"><text style="text-anchor: end; visibility: hidden; font-family: &quot;Helvetica Neue&quot;, sans-serif; font-size: 12px; font-weight: 200;" x="0" y="177.9749994277954" dx="0em" dy="0.3em" fill="rgb(50, 49, 63)" stroke="none" stroke-width="1px">-1e-3</text><text style="text-anchor: end; visibility: inherit; font-family: &quot;Helvetica Neue&quot;, sans-serif; font-size: 12px; font-weight: 200;" x="0" y="164.28461485642654" dx="0em" dy="0.3em" fill="rgb(50, 49, 63)" stroke="none" stroke-width="1px">0</text><text style="text-anchor: end; visibility: hidden; font-family: &quot;Helvetica Neue&quot;, sans-serif; font-size: 12px; font-weight: 200;" x="0" y="150.59423028505765" dx="0em" dy="0.3em" fill="rgb(50, 49, 63)" stroke="none" stroke-width="1px">1e-3</text><text style="text-anchor: end; visibility: inherit; font-family: &quot;Helvetica Neue&quot;, sans-serif; font-size: 12px; font-weight: 200;" x="0" y="136.90384571368878" dx="0em" dy="0.3em" fill="rgb(50, 49, 63)" stroke="none" stroke-width="1px">2e-3</text><text style="text-anchor: end; visibility: hidden; font-family: &quot;Helvetica Neue&quot;, sans-serif; font-size: 12px; font-weight: 200;" x="0" y="123.21346114231991" dx="0em" dy="0.3em" fill="rgb(50, 49, 63)" stroke="none" stroke-width="1px">3e-3</text><text style="text-anchor: end; visibility: inherit; font-family: &quot;Helvetica Neue&quot;, sans-serif; font-size: 12px; font-weight: 200;" x="0" y="109.52307657095103" dx="0em" dy="0.3em" fill="rgb(50, 49, 63)" stroke="none" stroke-width="1px">4e-3</text><text style="text-anchor: end; visibility: hidden; font-family: &quot;Helvetica Neue&quot;, sans-serif; font-size: 12px; font-weight: 200;" x="0" y="95.83269199958215" dx="0em" dy="0.3em" fill="rgb(50, 49, 63)" stroke="none" stroke-width="1px">5e-3</text><text style="text-anchor: end; visibility: inherit; font-family: &quot;Helvetica Neue&quot;, sans-serif; font-size: 12px; font-weight: 200;" x="0" y="82.14230742821327" dx="0em" dy="0.3em" fill="rgb(50, 49, 63)" stroke="none" stroke-width="1px">6e-3</text><text style="text-anchor: end; visibility: hidden; font-family: &quot;Helvetica Neue&quot;, sans-serif; font-size: 12px; font-weight: 200;" x="0" y="68.4519228568444" dx="0em" dy="0.3em" fill="rgb(50, 49, 63)" stroke="none" stroke-width="1px">7e-3</text><text style="text-anchor: end; visibility: inherit; font-family: &quot;Helvetica Neue&quot;, sans-serif; font-size: 12px; font-weight: 200;" x="0" y="54.76153828547551" dx="0em" dy="0.3em" fill="rgb(50, 49, 63)" stroke="none" stroke-width="1px">8e-3</text><text style="text-anchor: end; visibility: hidden; font-family: &quot;Helvetica Neue&quot;, sans-serif; font-size: 12px; font-weight: 200;" x="0" y="41.07115371410666" dx="0em" dy="0.3em" fill="rgb(50, 49, 63)" stroke="none" stroke-width="1px">9e-3</text><text style="text-anchor: end; visibility: inherit; font-family: &quot;Helvetica Neue&quot;, sans-serif; font-size: 12px; font-weight: 200;" x="0" y="27.38076914273779" dx="0em" dy="0.3em" fill="rgb(50, 49, 63)" stroke="none" stroke-width="1px">0.01</text><text style="text-anchor: end; visibility: hidden; font-family: &quot;Helvetica Neue&quot;, sans-serif; font-size: 12px; font-weight: 200;" x="0" y="13.690384571368895" dx="0em" dy="0.3em" fill="rgb(50, 49, 63)" stroke="none" stroke-width="1px">0.011</text><text style="text-anchor: end; visibility: hidden; font-family: &quot;Helvetica Neue&quot;, sans-serif; font-size: 12px; font-weight: 200;" x="0" y="0" dx="0em" dy="0.3em" fill="rgb(50, 49, 63)" stroke="none" stroke-width="1px">0.012</text></g><line x1="61.77000045776367" y1="0" x2="61.77000045776367" y2="177.9749994277954" fill="rgb(0, 0, 0)" stroke="rgb(204, 204, 204)" stroke-width="1px"></line></g></g><g transform="translate(61, 0)" clip-path="url(#clip_0)"><clipPath id="clip_0"><rect width="268" height="177"></rect></clipPath><g><g><g><line x1="0" y1="0" x2="0" y2="177.9749994277954" fill="rgb(0, 0, 0)" stroke="rgb(60, 60, 60)" stroke-width="1px" opacity="0.25"></line><line x1="19.159285681588308" y1="0" x2="19.159285681588308" y2="177.9749994277954" fill="rgb(0, 0, 0)" stroke="rgb(60, 60, 60)" stroke-width="1px" opacity="0.25"></line><line x1="38.318571363176616" y1="0" x2="38.318571363176616" y2="177.9749994277954" fill="rgb(0, 0, 0)" stroke="rgb(60, 60, 60)" stroke-width="1px" opacity="0.25"></line><line x1="57.477857044764924" y1="0" x2="57.477857044764924" y2="177.9749994277954" fill="rgb(0, 0, 0)" stroke="rgb(60, 60, 60)" stroke-width="1px" opacity="0.25"></line><line x1="76.63714272635323" y1="0" x2="76.63714272635323" y2="177.9749994277954" fill="rgb(0, 0, 0)" stroke="rgb(60, 60, 60)" stroke-width="1px" opacity="0.25"></line><line x1="95.79642840794155" y1="0" x2="95.79642840794155" y2="177.9749994277954" fill="rgb(0, 0, 0)" stroke="rgb(60, 60, 60)" stroke-width="1px" opacity="0.25"></line><line x1="114.95571408952985" y1="0" x2="114.95571408952985" y2="177.9749994277954" fill="rgb(0, 0, 0)" stroke="rgb(60, 60, 60)" stroke-width="1px" opacity="0.25"></line><line x1="134.11499977111816" y1="0" x2="134.11499977111816" y2="177.9749994277954" fill="rgb(0, 0, 0)" stroke="rgb(60, 60, 60)" stroke-width="1px" opacity="0.25"></line><line x1="153.27428545270647" y1="0" x2="153.27428545270647" y2="177.9749994277954" fill="rgb(0, 0, 0)" stroke="rgb(60, 60, 60)" stroke-width="1px" opacity="0.25"></line><line x1="172.4335711342948" y1="0" x2="172.4335711342948" y2="177.9749994277954" fill="rgb(0, 0, 0)" stroke="rgb(60, 60, 60)" stroke-width="1px" opacity="0.25"></line><line x1="191.5928568158831" y1="0" x2="191.5928568158831" y2="177.9749994277954" fill="rgb(0, 0, 0)" stroke="rgb(60, 60, 60)" stroke-width="1px" opacity="0.25"></line><line x1="210.7521424974714" y1="0" x2="210.7521424974714" y2="177.9749994277954" fill="rgb(0, 0, 0)" stroke="rgb(60, 60, 60)" stroke-width="1px" opacity="0.25"></line><line x1="229.9114281790597" y1="0" x2="229.9114281790597" y2="177.9749994277954" fill="rgb(0, 0, 0)" stroke="rgb(60, 60, 60)" stroke-width="1px" opacity="0.25"></line><line x1="249.07071386064803" y1="0" x2="249.07071386064803" y2="177.9749994277954" fill="rgb(0, 0, 0)" stroke="rgb(60, 60, 60)" stroke-width="1px" opacity="0.25"></line><line x1="268.2299995422363" y1="0" x2="268.2299995422363" y2="177.9749994277954" fill="rgb(0, 0, 0)" stroke="rgb(60, 60, 60)" stroke-width="1px" opacity="0.25"></line></g><g><line x1="0" y1="177.9749994277954" x2="268.2299995422363" y2="177.9749994277954" fill="rgb(0, 0, 0)" stroke="rgb(60, 60, 60)" stroke-width="1px" opacity="0.25"></line><line x1="0" y1="164.28461485642654" x2="268.2299995422363" y2="164.28461485642654" fill="rgb(0, 0, 0)" stroke="rgb(60, 60, 60)" stroke-width="1px" opacity="0.25"></line><line x1="0" y1="150.59423028505765" x2="268.2299995422363" y2="150.59423028505765" fill="rgb(0, 0, 0)" stroke="rgb(60, 60, 60)" stroke-width="1px" opacity="0.25"></line><line x1="0" y1="136.90384571368878" x2="268.2299995422363" y2="136.90384571368878" fill="rgb(0, 0, 0)" stroke="rgb(60, 60, 60)" stroke-width="1px" opacity="0.25"></line><line x1="0" y1="123.21346114231991" x2="268.2299995422363" y2="123.21346114231991" fill="rgb(0, 0, 0)" stroke="rgb(60, 60, 60)" stroke-width="1px" opacity="0.25"></line><line x1="0" y1="109.52307657095103" x2="268.2299995422363" y2="109.52307657095103" fill="rgb(0, 0, 0)" stroke="rgb(60, 60, 60)" stroke-width="1px" opacity="0.25"></line><line x1="0" y1="95.83269199958215" x2="268.2299995422363" y2="95.83269199958215" fill="rgb(0, 0, 0)" stroke="rgb(60, 60, 60)" stroke-width="1px" opacity="0.25"></line><line x1="0" y1="82.14230742821327" x2="268.2299995422363" y2="82.14230742821327" fill="rgb(0, 0, 0)" stroke="rgb(60, 60, 60)" stroke-width="1px" opacity="0.25"></line><line x1="0" y1="68.4519228568444" x2="268.2299995422363" y2="68.4519228568444" fill="rgb(0, 0, 0)" stroke="rgb(60, 60, 60)" stroke-width="1px" opacity="0.25"></line><line x1="0" y1="54.76153828547551" x2="268.2299995422363" y2="54.76153828547551" fill="rgb(0, 0, 0)" stroke="rgb(60, 60, 60)" stroke-width="1px" opacity="0.25"></line><line x1="0" y1="41.07115371410666" x2="268.2299995422363" y2="41.07115371410666" fill="rgb(0, 0, 0)" stroke="rgb(60, 60, 60)" stroke-width="1px" opacity="0.25"></line><line x1="0" y1="27.38076914273779" x2="268.2299995422363" y2="27.38076914273779" fill="rgb(0, 0, 0)" stroke="rgb(60, 60, 60)" stroke-width="1px" opacity="0.25"></line><line x1="0" y1="13.690384571368895" x2="268.2299995422363" y2="13.690384571368895" fill="rgb(0, 0, 0)" stroke="rgb(60, 60, 60)" stroke-width="1px" opacity="0.25"></line><line x1="0" y1="0" x2="268.2299995422363" y2="0" fill="rgb(0, 0, 0)" stroke="rgb(60, 60, 60)" stroke-width="1px" opacity="0.25"></line></g></g></g><g><g><line x1="0" y1="164.28461485642654" x2="268.2299995422363" y2="164.28461485642654" fill="rgb(0, 0, 0)" stroke="rgb(153, 153, 153)" stroke-width="1.5px"></line></g></g><g><g><line x1="19.159285681588308" y1="0" x2="19.159285681588308" y2="177.9749994277954" fill="rgb(0, 0, 0)" stroke="rgb(153, 153, 153)" stroke-width="1.5px"></line></g></g><g><g><g><g><g><path style="fill: none;" stroke="rgb(187, 187, 187)" stroke-width="2px" d="M19.19952018151964,150.59412125840353L19.319265717029573,150.59251792525455L19.378659502642495,150.59101181210767L19.613360752241952,150.58044033220997L19.672754537854875,150.57659775147224L19.720652752058847,150.5731552071365L19.779088573387693,150.56853805392322L20.130661465644838,150.53113225968247L20.436252072266168,150.48520138689912L20.4860662150383,150.4765312752387L20.534922393526347,150.4677065678373L20.823269643034255,150.40913550101376L20.957384642805373,150.3781143514994L21.36930928495952,150.26785093144173L21.447862356254035,150.24425834634815L21.540784891809736,150.21529156704156L21.73141978434154,150.15227228668047L22.26883774771009,149.94865216430293L22.325357640470777,149.92501335986412L23.294817495959148,149.4538979799756L23.37432853153774,149.40976966165698L23.462461245673044,149.35988783174017L23.478746638502397,149.3505594928526L23.921326137747084,149.08374477535614L24.07747431605203,148.98350298436478L24.279604779992784,148.849027002479L24.641715279374804,148.59484769771117L24.817980707645415,148.46497452510394L24.897491743224005,148.40507584743239L25.098664242880684,148.2498872237932L25.576688420636312,147.86026451843043L25.588183992045266,147.85053454937037L25.725172884668623,147.73328403932754L25.832464884485518,147.63978071011928L26.013520134176527,147.47867122897668L26.308573133672986,147.2072042953154L26.62949116883959,146.89945039432246L26.663019918782368,146.86654859558763L26.886225596972874,146.64391797837823L26.995433525357928,146.5327190150219L27.034710061005185,146.49236155776734L27.30006616769518,146.21466298135013L27.66409259564536,145.8194796106228L27.718696559837888,145.75878882899997L28.030034952163696,145.40573678212243L28.229291523252215,145.1735467292992L28.311676451683045,145.07612750590906L28.44962330859048,144.9111595063235L29.12115627173015,144.07520614651906L29.197793414456502,143.9763604985083L29.23898587867192,143.9229420917947L29.605886199474334,143.43822866178L29.66432202080318,143.35955696108493L29.716052092143467,143.28957609106715L30.206529805592126,142.6104322195267L30.23910059125083,142.56433718837923L30.625160197734832,142.00860374996387L30.629950019155228,142.00160072227345L30.811963233130317,141.73352851983213L30.932666732924325,141.55366195337126L31.494991767678943,140.69388491174706L31.64539216027941,140.45788415359664L31.671257195949554,140.41704378387274L32.206759230749945,139.5547884290809L32.85242715821947,138.47333065748066L33.21070580046517,137.85384799180343L33.31703983599799,137.66736090257834L33.40708847870145,137.5085018254182L33.98186704914911,136.47449219614185L34.26063465581622,135.96068289140794L34.59783808381217,135.32858712578943L35.30768961831502,133.96075269725895L35.50790415368761,133.56599167572097L35.53760104649408,133.50710504233334L35.74835318899155,133.08677356647925L35.96485311719349,132.65055219848284L37.869286113943375,128.6269701296787L37.973704220908026,128.3970400434611L38.060878970759255,128.2043659370548L38.31378154175622,127.64174581619743L38.36934347023283,127.51741896502L38.37796514878954,127.49810246624719L38.55231464849199,127.10617198116304L38.62799382693427,126.93526559259828L38.83491411229542,126.46556866847776L38.872274719374516,126.38039119649635L39.06482554047449,125.93960208217297L39.06769943332672,125.93300068465506L39.137630826064516,125.77215736319027L39.35317278998239,125.27396382206824L39.41448250416347,125.13158273837445L39.58212625387737,124.74076151757626L40.08888936015538,123.54619225798874L40.46920118093491,122.63700992383494L40.55062814508166,122.44096339899605L40.57745114503588,122.37627862843551L41.32466328661782,120.55373828135026L41.46644200066158,120.2035358961729L41.53828932196754,120.02554679139143L41.60151496471678,119.86863052050225L41.83430028574808,119.28858730025672L41.863997178554534,119.2143335314592L42.29124924925395,118.13968275377471L42.42057442760468,117.81209915989965L42.42249035617284,117.80723815979592L42.458892998967855,117.71483771979152L42.745324319907596,116.98491313175772L42.84686853402002,116.72493728358754L43.045167140824454,116.21546940976592L43.35075774744579,115.42581030242474L43.482956818648745,115.0825312564115L43.88625978224618,114.02921787852654L43.91978853218897,113.94124812058391L43.990677889210836,113.75505109759453L44.82985460206441,111.53092201603874L44.830812566348484,111.5283624205743L45.50809331519263,109.70798960140417L45.601973815032416,109.4539935802468L46.40187399223873,107.27443588521582L46.50246024206706,106.99849683145912L46.91151099136898,105.87233857792148L46.93641806275504,105.80357056727381L46.99964370550428,105.62888694256289L47.13280074099132,105.26052832355549L47.19219452660425,105.09601932988133L47.391451097692766,104.54322958562715L47.73440231139319,103.58868216722668L47.90300402539117,103.11802260570855L47.92791109677723,103.04841945930535L48.064899989400594,102.66526427473633L48.3484574174881,101.87039991285785L48.48448834582738,101.48827749158954L48.57453698853084,101.23504648028458L48.58794848850795,101.1973123693155L49.24511198738643,99.3427882353183L49.28055666589737,99.24246994334169L49.699187058040074,98.05560178293487L49.75283305794852,97.9032500708316L50.23085723570415,96.5433430568965L50.33335941410065,96.25122404476177L50.44352530676978,95.93708549904244L50.54411155659812,95.65010480308291L50.6705628420966,95.28911577898685L50.67822655636924,95.26723012212642L50.80467784186772,94.90601159507465L50.94549859162739,94.50350803632229L51.1313436627388,93.97194731547188L51.15816666269303,93.89519770203097L51.47812673357555,92.97909840379513L51.4896223049845,92.9461647296498L51.52410901921136,92.84736370721376L51.575839090551646,92.69914304831339L51.61128376906259,92.59757524024454L51.64672844757352,92.4959946820115L51.76455805451529,92.15823645709965L52.07685441112518,91.26262029766154L52.23300258943013,90.81461777793834L52.303891946452005,90.61119528310599L53.02715498093196,88.53512429585693L53.15073237357821,88.18039560238627L53.42662608739308,87.38854665434263L53.60097558709553,86.88826846137283L53.68144458695821,86.65742036333235L54.24855944313322,85.03157679946054L54.277298371655604,84.94924898917927L54.46026954991477,84.42528099111385L54.79747297791072,83.46053981643028L55.07240872744151,82.67493844884783L55.33584890556336,81.92316326690514L55.44314090538025,81.61728045250952L55.99780222586223,80.03909700244154L56.25166276114327,79.31871272477522L56.366618475232805,78.99293965421747L56.501691439288,78.61052397917241L56.80345018877302,77.75770374589337L57.19238368810926,76.66180800709982L57.3906822949137,76.10460033094807L57.49701633044651,75.80625286359849L57.76141447285244,75.0658444530459L57.956839186804636,74.51993979746321L58.116819222245894,74.07393905352042L58.167591329302105,73.93256523279894L58.237522722039905,73.7379786017617L58.47413990020752,73.08080326314902L58.69542964982986,72.4679474953181L58.952164077963154,71.75913399166916L59.5221528269904,70.19441471500322L59.824869540759494,69.36873320623768L59.84211289787292,69.32181260195782L60.84797539615631,66.60796565093626L60.96388907452992,66.29827053744289L61.03286250298364,66.11430479318965L61.062559395790096,66.0351708990421L61.122911145687105,65.8744805795478L61.303008431094035,65.39606254311002L61.37964557382038,65.19298430271127L61.50130703789847,64.87121478371435L61.508012787887026,64.85350480563156L61.55016321638652,64.74222137243736L61.600935323442734,64.60830002269456L62.091413036891396,63.321706452946756L62.23319175093514,62.9522704450639L62.62404117883955,61.93975440509864L62.75336635719027,61.60668824061477L62.89801896408626,61.23532695793676L63.53027539157868,59.62718062198353L63.54560282012394,59.58850937394527L63.62128199856622,59.397773292498385L64.47195428282875,57.27967776402474L64.7947882465635,56.48870857731134L64.85897185359683,56.33232781331884L64.89633246067592,56.24143189269081L65.11283238887786,55.71667338444459L65.21437660299028,55.47170447954542L65.31496285281862,55.22979561405583L65.64162867368971,54.44929431215593L66.36010188674928,52.76107056990391L66.43578106519153,52.58557730976585L66.55648456498555,52.30660371692801L67.06324767126355,51.14814929745536L67.11114588546752,51.039734651207624L67.2155639924322,50.80404786585079L67.24430292095458,50.73934078250288L67.84207263422013,49.409116150840475L67.99534691967283,49.072932571208156L68.14383138370513,48.749205902005514L68.23292206212452,48.555887912306815L68.77991966833387,47.38436457452252L68.97438641800198,46.97434479397043L69.2531540246691,46.39260580188542L69.31158984599796,46.27156849307329L69.62676009546007,45.624242656310116L69.84134409509386,45.18886279915134L69.87295691646848,45.12508647779052L70.01952545193264,44.83065968593439L70.03389491619383,44.801895315484586L70.3797200227465,44.11587273035474L70.6077155223574,43.66994848739719L70.61825312948227,43.64945897351737L70.75715795067379,43.38043050876058L70.79930837917328,43.29917371227265L71.0071866288185,42.90099883426839L71.66243419912882,41.674407537276295L71.78696955605916,41.44624334880126L71.83007794884274,41.3676385864683L72.13375262689591,40.819330524932695L72.36749591221128,40.403866424264436L72.3751596264839,40.390338500041366L72.58112194756099,40.02919009889271L73.12811955377035,39.09202752938779L73.29097348206385,38.81925051635426L73.30438498204096,38.796912228664524L73.38772787475587,38.65854744669576L73.55920348160608,38.37627156132842L73.5908163029807,38.32458239563533L74.0554289807592,37.57765227609113L74.22690458760943,37.30803730378085L75.14271844318935,35.92442773458589L75.4099904784475,35.53874801750399L75.43585551411766,35.50186179245463L75.452140906947,35.47866924376305L75.93208101327079,34.809298373086875L75.97710533462252,34.74789358226846L76.09301901299612,34.59090081039403L76.29227558408465,34.324728382419465L76.80861833320346,33.656964032433336L76.81436611890793,33.64970918899982L76.83544133315768,33.62315059695774L76.92165811872482,33.51502920448675L77.09217576129096,33.30384823473477L77.79148968866893,32.47467955605876L77.85950515283857,32.397222308504354L78.24652272360665,31.967325021954366L78.68622832999911,31.501408521521057L79.0770777579035,31.107504948525957L79.39033207879747,30.805670311265885L80.00247125632421,30.25166292633L80.15382961320877,30.12203200684266L80.33967468432019,29.966862508449765L80.96809925467626,29.475050424513086L81.3206301112175,29.221462408610336L81.70668971770151,28.96226432045674L82.00270068148204,28.776672930267154L82.04293518141337,28.75233286679699L82.43186868074962,28.527955477091297L83.13884632240023,28.171001879966582L83.31990157209124,28.090178589061708L83.3630099648748,28.071576099484417L83.76439699990408,27.910171770794562L84.57004496281488,27.650731429521016L84.66296749837058,27.62636586572245L84.86605592659542,27.57711198139279L85.42263317564556,27.4703166059993L85.43604467562267,27.468251079397845L85.69469503232412,27.433162627501616L85.94759760332109,27.407509297118168L86.02327678176334,27.401491219612694L86.13535860300064,27.39398137289507L86.65936506639208,27.3808614539266L86.77240485191345,27.381269459181226L86.8452101375035,27.381728465092664L87.17091799409049,27.38554076419038L87.5847585648128,27.394555130284374L87.7054620646068,27.398061425441142L88.04266549260277,27.409970078810005L88.0915216710908,27.411959104426217L88.11259688534055,27.41282611559228L88.14420970671517,27.414164882833944L88.16815881381716,27.415197646134658L88.41722952767782,27.426838546055194L88.41914545624596,27.426940547368844L88.51685781322207,27.431964112066197L88.51973170607431,27.432117114036686L88.66725820582253,27.44022621847199L88.82532231269565,27.449572088835367L89.09930009794235,27.46738406823181L89.26215402623585,27.478935717002884L89.85130206094469,27.526774333105607L89.97583741787503,27.538109229085165L90.2277820245879,27.562309040749085L91.47313559389114,27.707291157941L92.17340748555318,27.807328946305063L92.42631005655016,27.846739703867314L92.5642569134576,27.868950489914994L92.60928123480933,27.876320084826347L92.72136305604663,27.894897074075203L92.83248691299984,27.91363981545871L92.8391926629884,27.914787330237317L93.11221248395103,27.962319942399063L93.78566137565886,28.088189563445496L94.00982501813344,28.132802388003967L94.07975641087123,28.14700607092999L94.62292215994425,28.261757548788353L94.68806373126166,28.27605048286381L94.76182698113577,28.292383443212316L94.7752384811129,28.29536698163662L94.81259908819199,28.303705589027658L94.84325394528253,28.31057792753495L95.41036880145755,28.442236123131124L95.77247930083956,28.53082426403776L95.82612530074802,28.54425018694718L95.89222483634948,28.560901901400854L95.95449251481465,28.57668660468849L96.17003447873252,28.63213706882246L96.1853619072778,28.6361278702191L96.32330876418523,28.672338336565502L96.3482158355713,28.67893017146028L96.38366051408224,28.688339792644626L96.75056083488465,28.787689072141575L96.76876215628215,28.792712636838928L96.86647451325825,28.819832236106095L97.11937708425522,28.891194905169783L97.2276270483562,28.922267055340996L98.41741868918282,29.28430796798409L98.44998947484153,29.294750352469208L98.5256686532838,29.319115916267805L98.92609772402899,29.450570109236622L99.4002900446483,29.611732184806584L100.02009293644768,29.831341013099035L100.20402207899093,29.898445127317785L100.28544904313769,29.928446263695633L100.67150864962169,30.07303312579714L100.74814579234804,30.102192751337384L101.07289568465096,30.2275013651587L101.10259257745743,30.23909126442237L101.13420539883204,30.251471673866888L101.2434133272171,30.294401476750124L101.55762561239514,30.419659089914603L102.29142625399997,30.72222048653444L102.37285321814673,30.756658680056177L102.50984211077008,30.81497793113661L102.87865836014066,30.974418734538688L102.93326232433319,30.998325292425847L103.14018260969435,31.089603717980054L103.2963307879993,31.159219614547453L103.59138378749574,31.292484330833616L104.1058106080464,31.53018564213508L104.2408835721016,31.59371971037598L104.75052057123185,31.83766860213865L104.76584799977712,31.84510194787103L105.13179035629545,32.02449675825625L105.35020621306556,32.133191908116515L105.40959999867847,32.16296354153866L105.60310878406253,32.26056604853926L105.80715517657144,32.36451813731475L106.42408417551859,32.685197517272L106.62142481803895,32.78979986442198L106.93180524608067,32.95630425879446L106.9538384246145,32.96822566232751L107.03526538876125,33.01235398064617L107.0381392816135,33.01390950067935L107.40695553098405,33.21588485187425L107.99035577998843,33.54230180572441L108.04687567274911,33.57436846870374L108.37066760076796,33.75964110478813L108.46359013632366,33.81329379576903L108.70116527877535,33.951429074782055L109.1130899209295,34.19423045176612L109.72139724131992,34.56041516777631L109.95897238377162,34.70588179120807L110.22049663332531,34.86760487400312L110.47339920432228,35.02557940852145L110.52704520423072,35.059290842683396L110.55770006132126,35.0785818411278L110.62571552549089,35.121473393518414L111.07500077472413,35.407599828476094L111.09703395325796,35.42175251074531L111.4122042027201,35.6255383852575L111.63636784519468,35.77193577067635L111.69863552365985,35.81281279712235L112.29832116549356,36.21124267841074L112.48033437946864,36.33386100758449L112.65276795060294,36.45075451302952L112.84436080741882,36.58146919647439L112.92099795014518,36.63398712284089L113.02637402139392,36.70644630602635L113.24287394959586,36.85610773348205L113.42680309213911,36.98413213227934L113.49386059202467,37.03100173590238L113.54080084194456,37.06388440939091L114.05043784107481,37.42410204855247L114.48247973319462,37.73422429254677L114.58402394730705,37.80774173936135L114.5859398758752,37.80913150725985L114.84459023257664,37.997476932918005L115.4979218743188,38.480096148461826L115.51995505285262,38.4965438602882L115.77764744526999,38.68970884801641L115.83416733803068,38.73228164630186L115.91080448075704,38.790129141306664L115.98265180206299,38.844470341154704L116.13784201608385,38.96225635809418L116.23459640877587,39.035977807536085L116.3265609800475,39.106231212313816L116.3917025513649,39.15612260485378L116.79787940781456,39.46931763842184L116.81703869349616,39.484184329886574L117.35924647828512,39.90828029172263L117.38990133537564,39.93245460305812L117.52784819228309,40.041494007351986L117.71465122767856,40.18982941773018L117.74434812048503,40.21348097233323L117.7970361561094,40.25549276339359L117.83056490605217,40.282255358063L117.84014454889298,40.289905456586894L118.02694758428846,40.43952863354997L118.32487447663716,40.679767227528544L118.73679911879131,41.01512204648745L119.05196936825344,41.274218133327395L119.10753129673004,41.32011872447072L119.63249572440557,41.75710510231954L119.64590722438268,41.76835074714967L119.66027668864388,41.780399652324775L119.6727302243369,41.79085478697408L119.83462618834632,41.926950039714114L120.1612920092174,42.203297098725415L120.32989372321538,42.346812947033584L120.48699986580439,42.48109767645627L120.50041136578152,42.49258557440632L120.90467229366303,42.84063955691491L120.95927625785556,42.887917165792544L121.07710586479732,42.990160732564334L121.2457075787953,43.13695337307357L121.34150400720323,43.22061995059653L121.76013439934594,43.58852593877461L122.46328018386023,44.21467375279076L123.04955432571683,44.74453232671959L123.18079543263572,44.86410336664801L123.80922000299182,45.44149455273862L123.81017796727589,45.44238706423306L123.8657398957525,45.49382122664201L124.05733275256837,45.671647766829835L124.36483928775787,45.958615712625146L124.71832810858318,46.290795740696666L124.74994092995779,46.32063112493984L124.9357860010692,46.49637938836199L125.09672400079454,46.649126355555666L125.14941203641892,46.69924725105133L125.24137660769054,46.786853629314095L125.67916628551484,47.206168279572694L125.80274367816108,47.32520381260443L126.16198028469086,47.672913540679446L126.36985853433609,47.875258646636325L127.08737378311157,48.579985722657085L127.12473439019067,48.61694844869169L127.31536928272247,48.80595688288858L127.71771428203583,49.20710254915295L127.97349074588503,49.46367410348003L128.11910131706512,49.61028824169037L128.34805478096007,49.841601720724384L128.64693963759285,50.14501737834608L128.80691967303412,50.308079228382795L129.4171429219927,50.93435454404103L129.80990827846526,51.34098278091422L129.82140384987423,51.352916934611486L130.05802102804185,51.59926285724494L130.1662709921428,51.7122803127712L130.3205032418796,51.87368464146108L130.92785259798595,52.5132711285509L130.96425524078097,52.551802124782895L131.0332286692347,52.624886066014454L131.07058927631377,52.66451357636821L131.2564343474252,52.8619498691056L131.28613124023164,52.89355752617348L131.38959138291222,53.00378269573852L131.84941423927035,53.49588803345193L132.03142745324544,53.6916668048425L132.14255131019866,53.81146734772662L132.3810844169344,54.06932666863854L132.82270595189502,54.549217349042166L133.06890277290344,54.818156562649506L133.09668373714175,54.84856570428198L133.1551195584706,54.9125587784343L133.44634070083075,55.23235839706132L133.60727870055607,55.40968768084508L134.0948825211525,55.94946588252657L135.25689319774082,57.250977144395975L135.2578511620249,57.2520481581893L135.39100819751195,57.40253834631844L135.41974712603434,57.43505126504496L135.45902366168158,57.47950471255086L135.87286423240388,57.94935463864188L136.22731101751327,58.353828097764136L136.62678212397438,58.811928747538886L136.63827769538335,58.82515066782099L136.73886394521168,58.94089028340535L137.05403419467382,59.304499466245844L137.57229287236078,59.90554858202157L137.59528401517866,59.93230480160888L137.6268968365533,59.96910177550879L138.13557587139948,60.563176551463584L138.6749097633362,61.19702546466047L138.7304716918128,61.26255493359969L138.94601365573067,61.51716296263896L139.1826308338983,61.79739882173327L140.5209069387572,63.39647979093566L140.7584820812089,63.682810228520665L140.80925418826513,63.74409389277912L140.91367229522976,63.870237642355974L141.21734697328296,64.23788225216781L141.3399664016451,64.38666391829327L141.43097300863266,64.49720784196347L141.57275172267643,64.66962831252775L141.60340657976695,64.70694166807802L141.66184240109578,64.7781003345144L141.88600604357038,65.05147023018351L142.0699351861136,65.2762364998975L142.16956347165788,65.3981535700399L142.59489961378915,65.92000504084703L142.8765411133085,66.26673938136027L143.04131097017014,66.47002799946841L143.12561182716914,66.57415859054278L143.1371073985781,66.5883686485509L143.14477111285072,66.59783564547422L143.21757639844077,66.68785180477198L143.25876886265618,66.7388078360232L143.62279529060635,67.1899723964696L143.76265807608195,67.36371888411136L144.36809150362012,68.11836922808259L144.58171753896985,68.38561266985047L145.12296735947473,69.064947793854L145.1335049665996,69.07820796462875L145.30402260916574,69.2928952295375L145.35575268050601,69.35808681912526L145.4917836088453,69.5296530286877L146.25815503610883,70.49980664807691L146.4880664642879,70.7920212864432L146.76587610667093,71.1458128428447L146.8731681064878,71.2826539801908L147.39238474845885,71.94645302910872L147.53320549821854,72.1269316034515L147.88669431904384,72.58079282362758L147.89914785473687,72.59680702987092L147.9805748188836,72.70152412849878L148.36663442536764,73.19886340861896L148.46817863948004,73.32989684616899L149.07361206701825,74.11307568255222L149.31980888802667,74.43246729592462L149.64264285176142,74.85206244979578L149.78537953008924,75.03786421769476L150.08713827957425,75.43120678346477L150.09192810099466,75.43746073900806L150.10629756525586,75.4562098554737L150.42242577900205,75.86913029838276L150.45308063609258,75.90921043956584L150.9416424209731,76.54903917977558L150.9598437423706,76.57290748717011L151.05851406363078,76.70236627944065L151.32578609888893,77.05340380037354L151.78369302667892,77.65606581192138L152.2578853472982,78.28176099510826L152.56347595391955,78.68582007389381L152.70238077511107,78.8696965669976L152.74644713217873,78.92806044365278L153.2503363456045,79.59631567496088L153.28865491696766,79.64720158030896L153.31739384549005,79.68537557194315L153.32697348833085,79.69810023582123L153.39977877392087,79.79482935657373L153.43234955957956,79.83810978897262L153.54538934510094,79.98838322431024L153.99275866576602,80.58389239373825L154.221712129661,80.88913769992355L154.4449178078515,81.18701978627963L155.04939327110563,81.99516344417917L155.0838799853325,82.04133178877083L155.17680252088817,82.165767016344L155.37797502054485,82.43531186275116L155.37893298482894,82.43659962933602L155.6653643057687,82.82075570179526L155.90964519820895,83.14871542551442L156.04471816226413,83.33019488774741L156.3263596617835,83.70887476467996L156.47580209009988,83.90996397946252L156.69517591115408,84.2053470336341L156.88293691083365,84.45834216690125L156.90688601793562,84.49062558267207L157.0275895177296,84.65336230352152L157.32264251722606,85.05143518021212L157.37916240998675,85.12773216282372L157.4931601597922,85.28165852020649L157.61194773101806,85.44211296166297L158.66091862208503,86.8614676162108L158.74521947908403,86.9757090875009L158.7825800861631,87.02635273972905L158.82185662181035,87.07959105037322L159.32095601381576,87.75661201957327L159.68881429890226,88.25611882760857L160.33065036923543,89.12861893934033L160.4503959047454,89.29152778740657L161.11905497503278,90.20185763633894L161.2138934391567,90.33105505024325L161.34417658179146,90.50857558649011L161.46104822444914,90.6678506377575L161.51661015292575,90.74358023806191L161.58270968852725,90.83368564850913L161.58654154566355,90.83890684075168L161.68329593835557,90.97081366454987L161.76568086678643,91.08314261120897L162.3193842229843,91.83842408830841L162.55025361544745,92.15348702093273L162.74472036511557,92.41893906462961L162.79357654360362,92.48563517359372L162.85967607920512,92.5758744607651L163.36835511405127,93.27052890706273L163.3865564354488,93.29539172726537L163.58006522083284,93.55972175651208L163.68065147066116,93.69713665124745L163.8521270775114,93.93141454345948L163.8655385774885,93.94973652942419L163.90002529171534,93.99686113633136L163.9393018273626,94.05052657747645L164.02935047006608,94.17356566206901L164.07629071998596,94.23771173819183L164.24872429112028,94.47334114780975L164.33206718383516,94.58723836466626L164.34931054094858,94.61080704320194L164.47863571929932,94.78754981943221L165.27087218223298,95.87036388974991L165.5036575032643,96.1885442375227L166.26044928768704,97.22285668319893L166.32463289472034,97.31057143785743L166.3830687160492,97.39041934120053L167.1848848218237,98.48583694883635L167.32187371444704,98.67292648332017L167.82480496358872,99.35960570190664L168.20320085580008,99.87601285259764L168.33348399843487,100.0537628918002L168.34785346269607,100.07336626926768L168.89772496175766,100.82322892657938L168.97723599733627,100.93161169741659L169.2263067111969,101.27104019383948L169.3929924966267,101.49812061835695L169.4629238893645,101.59337072006149L169.6027866748401,101.78383904806003L169.62098799623763,101.80861899219533L169.68421363898685,101.8947017258354L169.83844588872364,102.10465230474146L169.92562063857486,102.2232989577649L169.97160292421069,102.28587038860822L170.156490031038,102.53740562807371L170.33467138787677,102.77973524898213L170.44771117339815,102.93342572832708L170.55691910178322,103.08186951510106L171.33574406473977,104.13947651078254L171.46027942167012,104.30840981143635L171.61259574283872,104.51495609649926L171.86645627811978,104.85902565269332L171.97566420650483,105.00696580798115L172.22186102751326,105.34032522624176L172.62707991967883,105.8884930359711L172.67497813388277,105.95325111997582L172.83974799074446,106.17592636275995L172.8751926692554,106.2238159795195L173.11180984742302,106.54336059486238L173.54385173954282,107.12620247615125L173.57067473949704,107.16236194184084L173.7402344177791,107.39085125950312L174.30160148824964,108.1463749897225L174.32363466678348,108.17599999625627L174.48553063079288,108.393587923522L174.48648859507696,108.39487569010686L174.546840344974,108.47595398429588L174.9079928800719,108.960753477919L174.97600834424154,109.05198090281638L175.10533352259228,109.22537038586034L175.4300834148952,109.66037411317504L175.59102141462054,109.87573713678675L176.22327784211294,110.72038451480944L176.86128205530986,111.57030089819047L177.05000101927348,111.82122094223301L177.08831959063667,111.87214191053265L177.66693001822063,112.63987711052079L177.79529723228728,112.80990373775529L177.9897639819554,113.06726580226315L178.17848294591903,113.31677057807877L178.46683019542695,113.69751598161277L178.48886337396075,113.72658635600357L178.672792516504,113.96911679199823L179.01478576592035,114.41941752881965L179.08854901579448,114.51642715318468L179.28205780117852,114.77072917828299L179.36348476532527,114.87765205531856L179.4698188008581,115.01720897764062L179.51867497934612,115.0812976780245L179.75625012179785,115.3926917508984L180.13273008544104,115.88524653190011L180.2697189780644,116.064188711456L180.46993351343698,116.32545232621105L180.6232077988897,116.5252378367035L180.7870196914673,116.73854808387796L180.93742008406775,116.93419297854433L181.3646721547672,117.48893987300421L181.5859619043895,117.77564325289225L181.83599058253424,118.09906710569496L181.89155251101084,118.17086328034165L181.977769296578,118.28221683943897L182.19331126049588,118.56031067094659L182.48740629570824,118.9390734239465L183.17426668739319,119.8205496512796L183.5651161152976,120.32013933538224L183.60247672237668,120.36781538689134L183.61205636521746,120.38003641928324L184.1504322928701,121.06549480964695L184.32765568542482,121.29050014493981L184.86028382737297,121.96480214162283L184.97619750574657,122.111158089008L185.053792612757,122.20905384978538L185.1697062911306,122.35517391913274L185.41973496927534,122.66987665961821L185.60079021896632,122.89734596414397L186.24166832501547,123.69965323437799L186.46487400320598,123.97801481933392L186.90841146673475,124.52949129667485L186.96588932377952,124.60079340245855L187.0645596450397,124.72310572769135L187.16514589486803,124.84767801952972L187.33087371601377,125.05267197210051L187.83859478657587,125.67867953431045L188.0321035719599,125.9164669092203L188.0464730362211,125.93410676139996L188.31949285718375,126.26878900919701L188.8003909277916,126.85608707287604L189.37516949823925,127.55427968974095L189.46330221237457,127.66096987627975L189.58400571216856,127.80692738103347L189.8608573902675,128.1409976209486L190.31014263950075,128.6810372009963L190.31589042520523,128.6879286647499L190.34846121086392,128.72697285509122L190.47299656779424,128.8761338386018L190.82265353148324,129.29383878062936L191.12058042383194,129.64845909770426L191.2863082449777,129.8452068815745L191.56028603022438,130.16964755997267L191.8946155653681,130.56415995330863L191.92335449389049,130.5980020766537L192.17146724346705,130.88967802058227L192.5977613498824,131.3888118863145L192.6015932070187,131.39328400640994L192.6542812426431,131.45479398608308L192.80659756381172,131.63239102331517L192.93496477787835,131.78180382256883L192.9943585634913,131.85085871191114L193.16008638463703,132.04326825241014L193.59212827675682,132.542995000778L193.9896834546498,133.00042307939086L194.3086855612482,133.36577265964553L194.36041563258854,133.42487604582467L194.4131036682129,133.48503132055086L194.4178934896333,133.4904979534544L194.68133366775513,133.79063363133395L194.72635798910687,133.84182235308194L194.72827391767504,133.8439994436202L194.93232031018394,134.0756029888899L195.03961231000085,134.19712799148294L195.24270073822566,134.42667557277437L195.3490347737585,134.54661317992372L195.56745063052858,134.7924172205784L196.13839734383993,135.43144588798418L196.43824016475676,135.76498699608473L196.97182627098903,136.35499446965764L197.34543234177997,136.76536806726648L197.562890234266,137.0031777549637L197.57534376995903,137.0167758050899L197.77651626961574,137.23604356648985L197.85506934091023,137.3214824168375L197.99972194780622,137.47854531461508L198.02654494776044,137.5076316267111L198.22675948313304,137.72436051166343L198.3311775900977,137.83712615144663L198.38482359000616,137.8949895841567L198.4327218042101,137.94661340525823L198.87338537488665,138.41973215469767L198.94427473190854,138.49553666221678L199.2019671243259,138.7703696392286L199.24603348139357,138.81725358678636L199.32362858840398,138.8997296177265L199.61676565933226,139.21036983714168L200.43582512222017,140.07041941352583L200.45594237218586,140.091395027416L200.4626481221744,140.0983853049422L200.48468130070825,140.1213483506781L200.5229998720714,140.161264333497L200.90810151427132,140.56096604366502L201.10831604964395,140.7677274877489L201.49629158469608,141.16634065264776L201.59591987024035,141.26826227777335L203.29439054591316,142.9778329824481L204.36539461551394,144.02807197698877L204.53112243665967,144.1886300135294L204.74762236486163,144.3975765170042L204.78210907908849,144.4307763508274L205.45076814937593,145.0699070195468L205.59925261340823,145.21064651959904L205.9211286128589,145.51424227329014L206.2324670051847,145.80594531131763L206.2468364694459,145.81936326537442L206.34550679070608,145.9113796066821L206.45375675480707,146.01210590391332L206.55530096891948,146.10637902428553L207.39543564605714,146.87839349813544L207.61576743139537,147.07848979388044L207.66366564559937,147.12185788365827L207.88303946665354,147.3198838714902L208.0008690735953,147.4258393298166L208.75478696516583,148.09699522348166L209.02876475041253,148.33796854567262L209.22897928578513,148.51307133203184L209.65144153506415,148.87978039854502L209.65527339220048,148.88308906615663L210.04229096296854,149.21568506833535L210.06911396292278,149.23861942620178L210.42835056945256,149.54428070649433L210.4312244623048,149.54671598785777L210.79812478310723,149.85602222134284L210.95427296141216,149.98678153036244L211.00696099703651,150.030782347039L211.62197406741552,150.53995696708387L212.09425045946665,150.9253593680943L212.46210874455315,151.2221576904928L212.5914339229039,151.32579182204836L212.99665281506947,151.64811039499142L213.11065056487493,151.73812814805973L213.35109960017886,151.92704812799244L213.5963384569032,152.11839781109177L213.847325099332,152.31283462769957L214.7085349907194,152.96918758072093L214.79570974057063,153.03468756490543L215.30534673970084,153.41413245169036L215.4576630608695,153.5263817098232L215.82264745310374,153.79318288027017L215.9558044885908,153.88975342085533L216.08704559550966,153.98453336025474L216.60530427319662,154.35489933323942L217.01531298678262,154.64346583087212L217.5057907002313,154.9834856161601L218.04129273503167,155.34823673558233L218.23480152041572,155.4783712865558L218.3056908774376,155.52582102265023L218.7367748052733,155.81178887744062L218.8210756622723,155.86719312222937L218.83352919796533,155.87536278994466L219.13241405459812,156.07033272279335L219.3105954114369,156.1855440034484L219.3431661970956,156.20652121110913L219.76850233922684,156.47811564641248L219.82885408912387,156.51629840378456L220.30975215973174,156.8173951252912L220.3202897668566,156.82392958444703L220.51475651652473,156.9440425063542L220.6258803734779,157.0122646505968L220.89411037302017,157.17569705228075L221.21598637247087,157.3694907824814L221.28016997950417,157.40783052625028L221.52061901480812,157.55056144257452L221.61258358607975,157.60477593766575L221.8099242286001,157.72040717685434L221.95649276406425,157.8056663295752L222.78034204837255,158.27500106934374L223.30051665462767,158.56263919564515L223.37427990450178,158.60288030765133L224.03623322480067,158.95789906735772L224.24506943872996,159.0676154256824L224.27859818867276,159.08512817466263L224.74800068787164,159.3273239188469L224.80739447348458,159.35757169121362L224.86008250910893,159.38432950457144L225.43773497240883,159.6730737076178L226.0345467213903,159.96247095813706L226.10160422127586,159.9944188852122L226.12938518551417,160.00762088336276L226.17824136400222,160.0307899239391L226.7434402916091,160.2943764592355L226.77601107726778,160.30931646414444L227.03370346968512,160.42655422402308L227.47053518322534,160.62138231129498L227.5701634687696,160.6651265309169L227.70906828996112,160.72568821712716L227.8680903611183,160.7944076177738L228.20625175339833,160.93836055764868L228.2282849319322,160.94763709899416L228.3719795745441,161.0078260421227L228.74558564533507,161.16180439626888L229.2140301802499,161.3497298633935L229.4458575369971,161.4406118385294L229.54548582254137,161.4792364687798L229.71025567940305,161.54254561615525L229.77827114357268,161.56847148129862L230.0608706073761,161.67489251983986L230.16528871434073,161.7136836991102L230.60212042788095,161.87285814361314L230.7132442848342,161.91254860790266L231.12804281984057,162.05782676796974L231.18839456973757,162.0785856290684L231.5543369262559,162.20239570015286L231.7775426044464,162.27617333000578L231.86950717571804,162.30618701732652L232.65024806724276,162.55194862384096L232.77574138845713,162.58993973030732L233.2997478518486,162.74404130283727L233.45589603015355,162.78854545216802L233.68293356548037,162.85209227057314L233.80459502955847,162.8855778873737L234.30369442156382,163.0188030582287L234.47038020699364,163.0618104578144L234.5527651354245,163.08279194873342L234.5795881353787,163.08958390143982L234.896674313409,163.1684105963185L235.8958310617038,163.39912471802415L235.9897115615436,163.4194212860597L236.00120713295254,163.42189033543616L236.09508763279234,163.4419202457406L236.22920263256347,163.47012211480546L236.31829331098282,163.4885880381708L236.39588841799326,163.50449675672746L237.01090148837224,163.62483664151858L237.09616030965532,163.6407125383635L237.32798766640255,163.68288654538017L237.37971773774282,163.69209883785132L237.54161370175225,163.72046187696063L237.54352963032042,163.72079328161934L237.73895434427263,163.7540747463766L237.95641223675864,163.78989244789906L238.13363562931335,163.818135207139L238.1365095221656,163.81858619439248L238.22751612915312,163.83275122838324L238.4842505572864,163.8715006956906L238.53214877149037,163.87853213732114L238.56376159286498,163.88313875670735L238.73427923543113,163.90751891346733L238.8109163781575,163.91821918994563L238.9584428779057,163.93836813498623L239.08202027055196,163.9547911682721L239.0973476990972,163.95679921952396L239.28127684164045,163.9803978061597L239.43071926995685,163.9988946337316L239.72385634088516,164.0334131632489L239.84647576924732,164.04715901068872L240.03232084035872,164.0672127030377L240.30438269703728,164.09487442085899L240.4710684824671,164.11082661946782L241.04584705291475,164.16003037473388L241.46447744505747,164.19020098619475L241.57368537344252,164.1972858813946L241.59092873055596,164.19837482510636L241.6484065876007,164.20194607263772L241.82371405158725,164.21228198578092L242.26150372941152,164.2344332575734L242.81520708560944,164.254960869417L242.8171230141776,164.2550173766755L242.82957654987064,164.2553822256126L242.9703972996303,164.2592132982065L243.13995697791236,164.2631080889367L243.26257640627452,164.26543576433056L243.3152644418989,164.26630988987657L243.47045465591978,164.26844432526343L243.53080640581675,164.2690968575625L243.7616757982799,164.27067547326055L243.89674876233508,164.27092447188974" fill="none"></path></g></g></g></g></g></g><g transform="translate(61, 177)" clip-path="url(#clip_1)"><clipPath id="clip_1"><rect width="268" height="22"></rect></clipPath><g><g><line x1="0" y1="0" x2="0" y2="5" style="visibility: inherit;" fill="rgb(0, 0, 0)" stroke="rgb(204, 204, 204)" stroke-width="1px"></line><line x1="19.159285681588308" y1="0" x2="19.159285681588308" y2="5" style="visibility: inherit;" fill="rgb(0, 0, 0)" stroke="rgb(204, 204, 204)" stroke-width="1px"></line><line x1="38.318571363176616" y1="0" x2="38.318571363176616" y2="5" style="visibility: inherit;" fill="rgb(0, 0, 0)" stroke="rgb(204, 204, 204)" stroke-width="1px"></line><line x1="57.477857044764924" y1="0" x2="57.477857044764924" y2="5" style="visibility: inherit;" fill="rgb(0, 0, 0)" stroke="rgb(204, 204, 204)" stroke-width="1px"></line><line x1="76.63714272635323" y1="0" x2="76.63714272635323" y2="5" style="visibility: inherit;" fill="rgb(0, 0, 0)" stroke="rgb(204, 204, 204)" stroke-width="1px"></line><line x1="95.79642840794155" y1="0" x2="95.79642840794155" y2="5" style="visibility: inherit;" fill="rgb(0, 0, 0)" stroke="rgb(204, 204, 204)" stroke-width="1px"></line><line x1="114.95571408952985" y1="0" x2="114.95571408952985" y2="5" style="visibility: inherit;" fill="rgb(0, 0, 0)" stroke="rgb(204, 204, 204)" stroke-width="1px"></line><line x1="134.11499977111816" y1="0" x2="134.11499977111816" y2="5" style="visibility: inherit;" fill="rgb(0, 0, 0)" stroke="rgb(204, 204, 204)" stroke-width="1px"></line><line x1="153.27428545270647" y1="0" x2="153.27428545270647" y2="5" style="visibility: inherit;" fill="rgb(0, 0, 0)" stroke="rgb(204, 204, 204)" stroke-width="1px"></line><line x1="172.4335711342948" y1="0" x2="172.4335711342948" y2="5" style="visibility: inherit;" fill="rgb(0, 0, 0)" stroke="rgb(204, 204, 204)" stroke-width="1px"></line><line x1="191.5928568158831" y1="0" x2="191.5928568158831" y2="5" style="visibility: inherit;" fill="rgb(0, 0, 0)" stroke="rgb(204, 204, 204)" stroke-width="1px"></line><line x1="210.7521424974714" y1="0" x2="210.7521424974714" y2="5" style="visibility: inherit;" fill="rgb(0, 0, 0)" stroke="rgb(204, 204, 204)" stroke-width="1px"></line><line x1="229.9114281790597" y1="0" x2="229.9114281790597" y2="5" style="visibility: inherit;" fill="rgb(0, 0, 0)" stroke="rgb(204, 204, 204)" stroke-width="1px"></line><line x1="249.07071386064803" y1="0" x2="249.07071386064803" y2="5" style="visibility: inherit;" fill="rgb(0, 0, 0)" stroke="rgb(204, 204, 204)" stroke-width="1px"></line><line x1="268.2299995422363" y1="0" x2="268.2299995422363" y2="5" style="visibility: inherit;" fill="rgb(0, 0, 0)" stroke="rgb(204, 204, 204)" stroke-width="1px"></line></g><g transform="translate(0, 8)"><text style="text-anchor: middle; visibility: hidden; font-family: &quot;Helvetica Neue&quot;, sans-serif; font-size: 12px; font-weight: 200;" x="0" y="0" dx="0em" dy="0.95em" fill="rgb(50, 49, 63)" stroke="none" stroke-width="1px">-20k</text><text style="text-anchor: middle; visibility: inherit; font-family: &quot;Helvetica Neue&quot;, sans-serif; font-size: 12px; font-weight: 200;" x="19.159285681588308" y="0" dx="0em" dy="0.95em" fill="rgb(50, 49, 63)" stroke="none" stroke-width="1px">0</text><text style="text-anchor: middle; visibility: hidden; font-family: &quot;Helvetica Neue&quot;, sans-serif; font-size: 12px; font-weight: 200;" x="38.318571363176616" y="0" dx="0em" dy="0.95em" fill="rgb(50, 49, 63)" stroke="none" stroke-width="1px">20k</text><text style="text-anchor: middle; visibility: inherit; font-family: &quot;Helvetica Neue&quot;, sans-serif; font-size: 12px; font-weight: 200;" x="57.477857044764924" y="0" dx="0em" dy="0.95em" fill="rgb(50, 49, 63)" stroke="none" stroke-width="1px">40k</text><text style="text-anchor: middle; visibility: hidden; font-family: &quot;Helvetica Neue&quot;, sans-serif; font-size: 12px; font-weight: 200;" x="76.63714272635323" y="0" dx="0em" dy="0.95em" fill="rgb(50, 49, 63)" stroke="none" stroke-width="1px">60k</text><text style="text-anchor: middle; visibility: inherit; font-family: &quot;Helvetica Neue&quot;, sans-serif; font-size: 12px; font-weight: 200;" x="95.79642840794155" y="0" dx="0em" dy="0.95em" fill="rgb(50, 49, 63)" stroke="none" stroke-width="1px">80k</text><text style="text-anchor: middle; visibility: hidden; font-family: &quot;Helvetica Neue&quot;, sans-serif; font-size: 12px; font-weight: 200;" x="114.95571408952985" y="0" dx="0em" dy="0.95em" fill="rgb(50, 49, 63)" stroke="none" stroke-width="1px">100k</text><text style="text-anchor: middle; visibility: inherit; font-family: &quot;Helvetica Neue&quot;, sans-serif; font-size: 12px; font-weight: 200;" x="134.11499977111816" y="0" dx="0em" dy="0.95em" fill="rgb(50, 49, 63)" stroke="none" stroke-width="1px">120k</text><text style="text-anchor: middle; visibility: hidden; font-family: &quot;Helvetica Neue&quot;, sans-serif; font-size: 12px; font-weight: 200;" x="153.27428545270647" y="0" dx="0em" dy="0.95em" fill="rgb(50, 49, 63)" stroke="none" stroke-width="1px">140k</text><text style="text-anchor: middle; visibility: inherit; font-family: &quot;Helvetica Neue&quot;, sans-serif; font-size: 12px; font-weight: 200;" x="172.4335711342948" y="0" dx="0em" dy="0.95em" fill="rgb(50, 49, 63)" stroke="none" stroke-width="1px">160k</text><text style="text-anchor: middle; visibility: hidden; font-family: &quot;Helvetica Neue&quot;, sans-serif; font-size: 12px; font-weight: 200;" x="191.5928568158831" y="0" dx="0em" dy="0.95em" fill="rgb(50, 49, 63)" stroke="none" stroke-width="1px">180k</text><text style="text-anchor: middle; visibility: inherit; font-family: &quot;Helvetica Neue&quot;, sans-serif; font-size: 12px; font-weight: 200;" x="210.7521424974714" y="0" dx="0em" dy="0.95em" fill="rgb(50, 49, 63)" stroke="none" stroke-width="1px">200k</text><text style="text-anchor: middle; visibility: hidden; font-family: &quot;Helvetica Neue&quot;, sans-serif; font-size: 12px; font-weight: 200;" x="229.9114281790597" y="0" dx="0em" dy="0.95em" fill="rgb(50, 49, 63)" stroke="none" stroke-width="1px">220k</text><text style="text-anchor: middle; visibility: inherit; font-family: &quot;Helvetica Neue&quot;, sans-serif; font-size: 12px; font-weight: 200;" x="249.07071386064803" y="0" dx="0em" dy="0.95em" fill="rgb(50, 49, 63)" stroke="none" stroke-width="1px">240k</text><text style="text-anchor: middle; visibility: hidden; font-family: &quot;Helvetica Neue&quot;, sans-serif; font-size: 12px; font-weight: 200;" x="268.2299995422363" y="0" dx="0em" dy="0.95em" fill="rgb(50, 49, 63)" stroke="none" stroke-width="1px">260k</text></g><line x1="0" y1="0" x2="268.2299995422363" y2="0" fill="rgb(0, 0, 0)" stroke="rgb(204, 204, 204)" stroke-width="1px"></line></g></g></g></g></svg>