<svg viewBox="0 0 330 200" xmlns="http://www.w3.org/2000/svg"><g><g><g><g><g><line x1="51.41600036621094" y1="177.9749994277954" x2="46.41600036621094" y2="177.9749994277954" style="visibility: inherit;" fill="rgb(0, 0, 0)" stroke="rgb(204, 204, 204)" stroke-width="1px"></line><line x1="51.41600036621094" y1="155.72812449932098" x2="46.41600036621094" y2="155.72812449932098" style="visibility: inherit;" fill="rgb(0, 0, 0)" stroke="rgb(204, 204, 204)" stroke-width="1px"></line><line x1="51.41600036621094" y1="133.48124957084653" x2="46.41600036621094" y2="133.48124957084653" style="visibility: inherit;" fill="rgb(0, 0, 0)" stroke="rgb(204, 204, 204)" stroke-width="1px"></line><line x1="51.41600036621094" y1="111.23437464237212" x2="46.41600036621094" y2="111.23437464237212" style="visibility: inherit;" fill="rgb(0, 0, 0)" stroke="rgb(204, 204, 204)" stroke-width="1px"></line><line x1="51.41600036621094" y1="88.98749971389769" x2="46.41600036621094" y2="88.98749971389769" style="visibility: inherit;" fill="rgb(0, 0, 0)" stroke="rgb(204, 204, 204)" stroke-width="1px"></line><line x1="51.41600036621094" y1="66.74062478542324" x2="46.41600036621094" y2="66.74062478542324" style="visibility: inherit;" fill="rgb(0, 0, 0)" stroke="rgb(204, 204, 204)" stroke-width="1px"></line><line x1="51.41600036621094" y1="44.49374985694885" x2="46.41600036621094" y2="44.49374985694885" style="visibility: inherit;" fill="rgb(0, 0, 0)" stroke="rgb(204, 204, 204)" stroke-width="1px"></line><line x1="51.41600036621094" y1="22.246874928474398" x2="46.41600036621094" y2="22.246874928474398" style="visibility: inherit;" fill="rgb(0, 0, 0)" stroke="rgb(204, 204, 204)" stroke-width="1px"></line><line x1="51.41600036621094" y1="0" x2="46.41600036621094" y2="0" style="visibility: inherit;" fill="rgb(0, 0, 0)" stroke="rgb(204, 204, 204)" stroke-width="1px"></line></g><g transform="translate(41.41600036621094, 0)"><text style="text-anchor: end; visibility: hidden; font-family: &quot;Helvetica Neue&quot;, sans-serif; font-size: 12px; font-weight: 200;" x="0" y="177.9749994277954" dx="0em" dy="0.3em" fill="rgb(50, 49, 63)" stroke="none" stroke-width="1px">0.3</text><text style="text-anchor: end; visibility: inherit; font-family: &quot;Helvetica Neue&quot;, sans-serif; font-size: 12px; font-weight: 200;" x="0" y="155.72812449932098" dx="0em" dy="0.3em" fill="rgb(50, 49, 63)" stroke="none" stroke-width="1px">0.35</text><text style="text-anchor: end; visibility: hidden; font-family: &quot;Helvetica Neue&quot;, sans-serif; font-size: 12px; font-weight: 200;" x="0" y="133.48124957084653" dx="0em" dy="0.3em" fill="rgb(50, 49, 63)" stroke="none" stroke-width="1px">0.4</text><text style="text-anchor: end; visibility: inherit; font-family: &quot;Helvetica Neue&quot;, sans-serif; font-size: 12px; font-weight: 200;" x="0" y="111.23437464237212" dx="0em" dy="0.3em" fill="rgb(50, 49, 63)" stroke="none" stroke-width="1px">0.45</text><text style="text-anchor: end; visibility: hidden; font-family: &quot;Helvetica Neue&quot;, sans-serif; font-size: 12px; font-weight: 200;" x="0" y="88.98749971389769" dx="0em" dy="0.3em" fill="rgb(50, 49, 63)" stroke="none" stroke-width="1px">0.5</text><text style="text-anchor: end; visibility: inherit; font-family: &quot;Helvetica Neue&quot;, sans-serif; font-size: 12px; font-weight: 200;" x="0" y="66.74062478542324" dx="0em" dy="0.3em" fill="rgb(50, 49, 63)" stroke="none" stroke-width="1px">0.55</text><text style="text-anchor: end; visibility: hidden; font-family: &quot;Helvetica Neue&quot;, sans-serif; font-size: 12px; font-weight: 200;" x="0" y="44.49374985694885" dx="0em" dy="0.3em" fill="rgb(50, 49, 63)" stroke="none" stroke-width="1px">0.6</text><text style="text-anchor: end; visibility: inherit; font-family: &quot;Helvetica Neue&quot;, sans-serif; font-size: 12px; font-weight: 200;" x="0" y="22.246874928474398" dx="0em" dy="0.3em" fill="rgb(50, 49, 63)" stroke="none" stroke-width="1px">0.65</text><text style="text-anchor: end; visibility: hidden; font-family: &quot;Helvetica Neue&quot;, sans-serif; font-size: 12px; font-weight: 200;" x="0" y="0" dx="0em" dy="0.3em" fill="rgb(50, 49, 63)" stroke="none" stroke-width="1px">0.7</text></g><line x1="51.41600036621094" y1="0" x2="51.41600036621094" y2="177.9749994277954" fill="rgb(0, 0, 0)" stroke="rgb(204, 204, 204)" stroke-width="1px"></line></g></g><g transform="translate(51, 0)" clip-path="url(#clip_0)"><clipPath id="clip_0"><rect width="278" height="177"></rect></clipPath><g><g><g><line x1="0" y1="0" x2="0" y2="177.9749994277954" fill="rgb(0, 0, 0)" stroke="rgb(60, 60, 60)" stroke-width="1px" opacity="0.25"></line><line x1="23.215333302815754" y1="0" x2="23.215333302815754" y2="177.9749994277954" fill="rgb(0, 0, 0)" stroke="rgb(60, 60, 60)" stroke-width="1px" opacity="0.25"></line><line x1="46.43066660563151" y1="0" x2="46.43066660563151" y2="177.9749994277954" fill="rgb(0, 0, 0)" stroke="rgb(60, 60, 60)" stroke-width="1px" opacity="0.25"></line><line x1="69.64599990844727" y1="0" x2="69.64599990844727" y2="177.9749994277954" fill="rgb(0, 0, 0)" stroke="rgb(60, 60, 60)" stroke-width="1px" opacity="0.25"></line><line x1="92.86133321126302" y1="0" x2="92.86133321126302" y2="177.9749994277954" fill="rgb(0, 0, 0)" stroke="rgb(60, 60, 60)" stroke-width="1px" opacity="0.25"></line><line x1="116.07666651407878" y1="0" x2="116.07666651407878" y2="177.9749994277954" fill="rgb(0, 0, 0)" stroke="rgb(60, 60, 60)" stroke-width="1px" opacity="0.25"></line><line x1="139.29199981689453" y1="0" x2="139.29199981689453" y2="177.9749994277954" fill="rgb(0, 0, 0)" stroke="rgb(60, 60, 60)" stroke-width="1px" opacity="0.25"></line><line x1="162.5073331197103" y1="0" x2="162.5073331197103" y2="177.9749994277954" fill="rgb(0, 0, 0)" stroke="rgb(60, 60, 60)" stroke-width="1px" opacity="0.25"></line><line x1="185.72266642252603" y1="0" x2="185.72266642252603" y2="177.9749994277954" fill="rgb(0, 0, 0)" stroke="rgb(60, 60, 60)" stroke-width="1px" opacity="0.25"></line><line x1="208.9379997253418" y1="0" x2="208.9379997253418" y2="177.9749994277954" fill="rgb(0, 0, 0)" stroke="rgb(60, 60, 60)" stroke-width="1px" opacity="0.25"></line><line x1="232.15333302815756" y1="0" x2="232.15333302815756" y2="177.9749994277954" fill="rgb(0, 0, 0)" stroke="rgb(60, 60, 60)" stroke-width="1px" opacity="0.25"></line><line x1="255.3686663309733" y1="0" x2="255.3686663309733" y2="177.9749994277954" fill="rgb(0, 0, 0)" stroke="rgb(60, 60, 60)" stroke-width="1px" opacity="0.25"></line><line x1="278.58399963378906" y1="0" x2="278.58399963378906" y2="177.9749994277954" fill="rgb(0, 0, 0)" stroke="rgb(60, 60, 60)" stroke-width="1px" opacity="0.25"></line></g><g><line x1="0" y1="177.9749994277954" x2="278.58399963378906" y2="177.9749994277954" fill="rgb(0, 0, 0)" stroke="rgb(60, 60, 60)" stroke-width="1px" opacity="0.25"></line><line x1="0" y1="155.72812449932098" x2="278.58399963378906" y2="155.72812449932098" fill="rgb(0, 0, 0)" stroke="rgb(60, 60, 60)" stroke-width="1px" opacity="0.25"></line><line x1="0" y1="133.48124957084653" x2="278.58399963378906" y2="133.48124957084653" fill="rgb(0, 0, 0)" stroke="rgb(60, 60, 60)" stroke-width="1px" opacity="0.25"></line><line x1="0" y1="111.23437464237212" x2="278.58399963378906" y2="111.23437464237212" fill="rgb(0, 0, 0)" stroke="rgb(60, 60, 60)" stroke-width="1px" opacity="0.25"></line><line x1="0" y1="88.98749971389769" x2="278.58399963378906" y2="88.98749971389769" fill="rgb(0, 0, 0)" stroke="rgb(60, 60, 60)" stroke-width="1px" opacity="0.25"></line><line x1="0" y1="66.74062478542324" x2="278.58399963378906" y2="66.74062478542324" fill="rgb(0, 0, 0)" stroke="rgb(60, 60, 60)" stroke-width="1px" opacity="0.25"></line><line x1="0" y1="44.49374985694885" x2="278.58399963378906" y2="44.49374985694885" fill="rgb(0, 0, 0)" stroke="rgb(60, 60, 60)" stroke-width="1px" opacity="0.25"></line><line x1="0" y1="22.246874928474398" x2="278.58399963378906" y2="22.246874928474398" fill="rgb(0, 0, 0)" stroke="rgb(60, 60, 60)" stroke-width="1px" opacity="0.25"></line><line x1="0" y1="0" x2="278.58399963378906" y2="0" fill="rgb(0, 0, 0)" stroke="rgb(60, 60, 60)" stroke-width="1px" opacity="0.25"></line></g></g></g><g><g><line x1="0" y1="311.45624899864197" x2="278.58399963378906" y2="311.45624899864197" fill="rgb(0, 0, 0)" stroke="rgb(153, 153, 153)" stroke-width="1.5px"></line></g></g><g><g><line x1="23.215333302815754" y1="0" x2="23.215333302815754" y2="177.9749994277954" fill="rgb(0, 0, 0)" stroke="rgb(153, 153, 153)" stroke-width="1.5px"></line></g></g><g><g><g><g><g><path style="fill: none;" stroke="rgb(51, 187, 238)" stroke-width="2px" d="M25.53686663309733,194.64235251886905L26.69763329823812,176.7024818353289L27.858399963378908,160.80930525069954L29.019166628519695,158.93167832916674L30.179933293660483,160.85380638381957L31.34069995880127,160.07071373854637L32.50146662394206,155.27428454641878L33.66223328908285,157.1252320043528L34.82299995422363,148.947273622275L35.983766619364424,148.8226943178463L37.14453328450521,143.51013949865342L38.305299949646,143.8838906721103L39.46606661478678,141.58801144400059L40.626833279927574,138.4467565484887L41.78759994506836,136.98735541319132L42.94836661020915,137.50348104025662L44.10913327534993,133.84610051767945L45.269899940490724,133.06300787240625L46.43066660563151,127.7949541863334L47.5914332707723,126.7982932305622L48.75219993591308,126.48683833940504L49.912966601053874,123.54134334504067L51.07373326619466,115.39898852149307L52.23449993133545,116.69820679383159L53.39526659647624,120.8272250705248L54.556033261617024,112.0975507630223L55.716799926757815,109.50801179293514L56.8775665918986,112.7738592530465L58.03833325703939,105.70825681674954L59.199099922180174,112.72935811992646L60.359866587320965,108.66263612553297L61.52063325246175,108.36897638355552L62.68139991760254,100.00415567492006L63.842166582743324,97.66377531369031L65.00293324788412,101.13429350970982L66.1636999130249,99.64819965064287L67.3244665781657,96.83619479546785L68.48523324330647,98.11761791862665L69.64599990844727,98.79392640865085L70.80676657358805,95.87513739822683L71.96753323872885,91.49694725250541L73.12829990386963,93.49916673863767L74.28906656901042,93.68604232536612L75.4498332341512,87.51920100401044L76.610599899292,93.30339357731937L77.77136656443278,91.8529032767826L78.93213322957357,90.31341071000575L80.09289989471435,87.08318006859535L81.25366655985515,87.94633762500645L82.41443322499593,88.32008879846335L83.57519989013672,87.27004239515303L84.7359665552775,86.96747181841495L85.8967332204183,83.79953745930429L87.05749988555908,84.10208151570082L88.21826655069987,85.65935597148659L89.37903321584066,79.65271077326058L90.53979988098145,86.13990456036326L91.70056654612223,84.02199008422137L92.86133321126302,80.56928029755234L94.02209987640381,80.07096307983751L95.1828665415446,82.81176081795216L96.34363320668538,80.96973745494957L97.50439987182617,85.34790108032944L98.66516653696696,81.02312290248868L99.82593320210775,77.53479629711869L100.98669986724853,82.20664618481756L102.14746653238932,82.04646332185867L103.30823319753011,82.51810107597471L104.4689998626709,79.6616216080212L105.62976652781168,83.12321570910932L106.79053319295248,81.8773961444807L107.95129985809326,80.96082662018894L109.11206652323405,82.08208014055963L110.27283318837483,83.0698302615702L111.43359985351563,81.37907892676587L112.59436651865641,79.5459133578408L113.7551331837972,76.09320357117177L114.91589984893798,83.41687545108677L116.07666651407878,81.75280357988122L117.23743317921956,78.69164011584878L118.39819984436035,73.9664047806108L119.55896650950113,78.51366210371019L120.71973317464193,76.02202297445295L121.88049983978271,76.1199095551121L123.0412665049235,82.17996672121878L124.2020331700643,81.41466922512528L125.36279983520508,77.78398142631765L126.52356650034586,80.95191578542831L127.68433316548665,77.26784253908157L128.84509983062745,79.21666331750394L130.00586649576823,74.75840826064463L131.16663316090902,76.24450211971158L132.3273998260498,73.69054018781306L133.4881664911906,78.41577552305104L134.6489331563314,75.20334003082034L135.80969982147215,71.99978885300872L136.97046648661293,74.66052167998548L138.13123315175375,73.9664047806108L139.29199981689453,75.18554488164064L140.45276648203532,74.30456565570829L141.6135331471761,73.81513275241254L142.77429981231688,78.10432063189388L143.9350664774577,78.20220721255303L145.09583314259848,73.65494988945365L146.25659980773926,71.03871819559693L147.41736647288005,68.81403282437681L148.57813313802083,71.51035594971297L149.73889980316162,69.65942175194975L150.8996664683024,71.91969742152928L152.06043313344318,73.61044875633361L153.221199798584,73.52147301043509L154.38196646372478,68.7606473768377L155.54273312886556,70.42471924804325L156.70349979400635,65.26343645704863L157.86426645914713,67.7817815702462L159.02503312428792,65.44141446918722L160.1857997894287,67.71060097352738L161.3465664545695,64.16888892061827L162.5073331197103,68.2089181912422L163.66809978485108,66.18000598134039L164.82886644999186,63.79513774716138L165.98963311513265,58.509288911908826L167.15039978027343,65.44141446918722L168.31116644541422,60.82295002902747L169.471933110555,62.17556700907586L170.6326997756958,65.468093932786L171.7934664408366,61.74843038807985L172.95423310597738,67.06098520727274L174.11499977111816,62.14886102513553L175.27576643625895,59.461448734559994L176.43653310139973,61.66833895660041L177.59729976654052,62.104386412357044L178.75806643168133,58.17112803681134L179.9188330968221,59.363562153900844L181.0795997619629,55.81296578657266L182.24036642710368,58.1088317545116L183.40113309224446,56.98760475448246L184.56189975738525,52.22675260054352L185.72266642252603,53.970915903228516L186.88343308766682,51.98650482644673L188.04419975280763,54.45143797176364L189.2049664179484,52.244574270064774L190.3657330830892,52.956459798277606L191.52649974822998,50.71397927787778L192.68726641337076,51.523751386749765L193.84803307851155,49.69061233816623L195.00879974365233,52.013184290045515L196.16956640879314,49.43254289454819L197.33033307393393,48.82742826141359L198.4910997390747,46.513767144294945L199.6518664042155,47.15447207578896L200.81263306935628,46.50485630953432L201.97339973449706,47.61719899514438L203.13416639963785,46.93201945087188L204.29493306477863,46.745130603972655L205.45569972991944,42.52712332121013L206.61646639506023,44.46705978521342L207.777233060201,43.56828541010137L208.9379997253418,43.89753545043823L210.09876639048258,40.88084659918428L211.25953305562336,41.2457134582221L212.42029972076415,41.69064522839781L213.58106638590496,39.53714045389651L214.74183305104575,40.667278288686276L215.90259971618653,36.28020382854578L217.0633663813273,39.26127586109877L218.2241330464681,37.77518200203181L219.38489971160888,35.79077092525003L220.54566637674967,36.20902323182696L221.70643304189045,35.47040519933225L222.86719970703126,35.46152088491317L224.02796637217205,34.046607622565034L225.18873303731283,33.84195014682766L226.3494997024536,32.38256227170103L227.5102663675944,31.77744763856643L228.67103303273518,30.30023809391855L229.83179969787597,29.935397755222283L230.99256636301678,29.766330577844315L232.15333302815756,29.606147714885424L233.31409969329835,27.078891766927228L234.47486635843913,26.402596537073805L235.6356330235799,26.35809540395377L236.7963996887207,25.690684488519423L237.95716635386148,24.961003811126886L239.11793301900227,23.12783824220182L240.27869968414308,23.136749076962445L241.43946634928386,23.697362576977014L242.60023301442465,23.074452794662704L243.76099967956543,21.828633230034086L244.9217663447062,20.653994262124286L246.082533009847,22.255769851030095L247.24329967498778,22.816383351044664L248.4040663401286,20.787471141142845L249.56483300526938,20.529428217866354L250.72559967041016,20.53831253228543L251.88636633555095,20.298038237847095L253.04713300069173,20.333655056548054L254.2078996658325,21.03665627034181" fill="none"></path></g><g><path style="fill: none;" stroke="rgb(0, 119, 187)" stroke-width="2px" d="M25.53686663309733,185.18298427380324L26.69763329823812,167.74143080797793L27.858399963378908,157.06293572205306L29.019166628519695,160.2219990269154L30.179933293660483,157.06293572205306L31.34069995880127,157.06293572205306L32.50146662394206,155.99508090939224L33.66223328908285,154.57128333262503L34.82299995422363,148.03070409798323L35.983766619364424,147.14082729746104L37.14453328450521,140.15531629264353L38.305299949646,143.0473993191272L39.46606661478678,139.9328371473849L40.626833279927574,137.93063092142341L41.78759994506836,138.24208581258057L42.94836661020915,139.17645048605203L44.10913327534993,134.7270797436118L45.269899940490724,131.1230846685737L46.43066660563151,130.54466275920868L47.5914332707723,128.14199937584996L48.75219993591308,127.47458846041562L49.912966601053874,126.27325676873625L51.07373326619466,118.8873018666923L52.23449993133545,121.0229982318431L53.39526659647624,124.09307253063616L54.556033261617024,116.21767146512568L55.716799926757815,113.50355319060981L56.8775665918986,119.4212226429373L58.03833325703939,114.43793112425206L59.199099922180174,116.84058124743999L60.359866587320965,114.39342999113202L61.52063325246175,114.21545197899343L62.68139991760254,106.74050807088015L63.842166582743324,107.71937387747165L65.00293324788412,107.09645083498657L66.1636999130249,108.38677153273522L67.3244665781657,105.6281653852701L68.48523324330647,106.1620861615151L69.64599990844727,104.96075446983575L70.80676657358805,104.82727759081719L71.96753323872885,99.66599479982257L73.12829990386963,102.24663619531988L74.28906656901042,103.4924557599485L75.4498332341512,99.8884739450812L76.610599899292,105.89511914330721L77.77136656443278,100.24441670918762L78.93213322957357,102.33562520138918L80.09289989471435,98.64264112028181L81.25366655985515,98.1977093501061L82.41443322499593,98.8206191324204L83.57519989013672,98.33118622912465L84.7359665552775,96.46244362201095L85.8967332204183,99.39904104178545L87.05749988555908,96.1509887308538L88.21826655069987,98.1977093501061L89.37903321584066,94.05979349882301L90.53979988098145,99.22106302964686L91.70056654612223,98.8206191324204L92.86133321126302,95.75054483362734L94.02209987640381,94.63820214801729L95.1828665415446,97.70827644681034L96.34363320668538,95.08314717836377L97.50439987182617,99.04308501750826L98.66516653696696,93.74832534749508L99.82593320210775,93.12541556518077L100.98669986724853,96.10650085790454L102.14746653238932,96.50694475513099L103.30823319753011,97.70827644681034L104.4689998626709,94.32674725686013L105.62976652781168,95.17213618443307L106.79053319295248,95.39460206952093L107.95129985809326,91.34566196413637L109.11206652323405,98.06421921091676L110.27283318837483,99.7104959329426L111.43359985351563,97.57479956779179L112.59436651865641,97.88625445894894L113.7551331837972,90.63376317575276L114.91589984893798,95.83953383969664L116.07666651407878,96.59593376120029L117.23743317921956,92.99193868616221L118.39819984436035,90.8562423210114L119.55896650950113,94.10428137177227L120.71973317464193,91.12319607904851L121.88049983978271,92.76947280107436L123.0412665049235,97.79726545287964L124.2020331700643,94.50472526899873L125.36279983520508,93.83731435356438L126.52356650034586,96.90738865235744L127.68433316548665,90.14434353262779L128.84509983062745,95.12763505131304L130.00586649576823,91.74610586136282L131.16663316090902,91.21218508511781L132.3273998260498,91.52363997627496L133.4881664911906,94.63820214801729L134.6489331563314,95.12763505131304L135.80969982147215,89.6993985022813L136.97046648661293,90.63376317575276L138.13123315175375,93.34788145026863L139.29199981689453,91.4791521033257L140.45276648203532,89.7883875083506L141.6135331471761,90.5892753028035L142.77429981231688,94.10428137177227L143.9350664774577,95.17213618443307L145.09583314259848,90.72275218182206L146.25659980773926,87.8306558951676L147.41736647288005,87.56370213713048L148.57813313802083,90.01085339343845L149.73889980316162,85.33901676591036L150.8996664683024,88.40909106470342L152.06043313344318,91.96858500662145L153.221199798584,91.61262898234426L154.38196646372478,86.76281434267757L155.54273312886556,88.72054595586057L156.70349979400635,83.82621692290307L157.86426645914713,87.11877036695476L159.02503312428792,85.3835178990304L160.1857997894287,85.3835178990304L161.3465664545695,85.0275618747532L162.5073331197103,88.00863390730619L163.66809978485108,84.67160585047601L164.82886644999186,82.89185224943161L165.98963311513265,80.3112108539343L167.15039978027343,85.73944740296604L168.31116644541422,82.53589622515442L169.471933110555,83.47028741896743L170.6326997756958,84.84958386261461L171.7934664408366,81.15659978150724L172.95423310597738,86.36235718528035L174.11499977111816,81.95748757596014L175.27576643625895,83.33678401960732L176.43653310139973,83.15880600746873L177.59729976654052,79.99975596277714L178.75806643168133,83.02532912845017L179.9188330968221,83.87071805602311L181.0795997619629,80.4891888660729L182.24036642710368,80.97862176936864L183.40113309224446,78.13102661583422L184.56189975738525,75.46140947443838L185.72266642252603,79.3323450473428L186.88343308766682,76.21779613577125L188.04419975280763,78.39798037387133L189.2049664179484,77.06318506334419L190.3657330830892,76.21779613577125L191.52649974822998,77.77507059155703L192.68726641337076,77.15216080924272L193.84803307851155,75.06095231704116L195.00879974365233,79.02089015618564L196.16956640879314,78.35350576109285L197.33033307393393,78.84291214404705L198.4910997390747,76.03981812363266L199.6518664042155,76.21779613577125L200.81263306935628,75.46140947443838L201.97339973449706,75.77286436559554L203.13416639963785,75.46140947443838L204.29493306477863,74.48254366784688L205.45569972991944,70.96753759887811L206.61646639506023,75.68386209935547L207.777233060201,74.12658764356969L208.9379997253418,72.56931318778392L210.09876639048258,73.63715474027394L211.25953305562336,72.88076807894107L212.42029972076415,73.32569984911679L213.58106638590496,71.36796823593379L214.74183305104575,74.66052167998548L215.90259971618653,71.76842539333101L217.0633663813273,73.19222297009823L218.2241330464681,71.76842539333101L219.38489971160888,71.59044738119242L220.54566637674967,72.1243814176082L221.70643304189045,70.43360356246232L222.86719970703126,71.05651334477663L224.02796637217205,70.5226058287024L225.18873303731283,71.05651334477663L226.3494997024536,69.72171803424949L227.5102663675944,69.72171803424949L228.67103303273518,68.74285222765799L229.83179969787597,69.14328286471367L230.99256636301678,70.43360356246232L232.15333302815756,67.05207437251211L233.31409969329835,68.47587194927932L234.47486635843913,66.91859749349355L235.6356330235799,66.20671196528072L236.7963996887207,67.94196443320509L237.95716635386148,68.07544131222365L239.11793301900227,65.4502987836063L240.27869968414308,65.67277792886493L241.43946634928386,65.85075594100353L242.60023301442465,65.85075594100353L243.76099967956543,65.04986814655062L244.9217663447062,64.07100233995912L246.082533009847,64.6494109891534L247.24329967498778,65.31682190458774L248.4040663401286,63.35909029140474L249.56483300526938,64.29348148521775L250.72559967041016,63.62607056978341L251.88636633555095,64.33795609799624L253.04713300069173,63.62607056978341L254.2078996658325,64.02650120683909" fill="none"></path></g></g></g></g></g></g><g transform="translate(51, 177)" clip-path="url(#clip_1)"><clipPath id="clip_1"><rect width="278" height="22"></rect></clipPath><g><g><line x1="0" y1="0" x2="0" y2="5" style="visibility: inherit;" fill="rgb(0, 0, 0)" stroke="rgb(204, 204, 204)" stroke-width="1px"></line><line x1="23.215333302815754" y1="0" x2="23.215333302815754" y2="5" style="visibility: inherit;" fill="rgb(0, 0, 0)" stroke="rgb(204, 204, 204)" stroke-width="1px"></line><line x1="46.43066660563151" y1="0" x2="46.43066660563151" y2="5" style="visibility: inherit;" fill="rgb(0, 0, 0)" stroke="rgb(204, 204, 204)" stroke-width="1px"></line><line x1="69.64599990844727" y1="0" x2="69.64599990844727" y2="5" style="visibility: inherit;" fill="rgb(0, 0, 0)" stroke="rgb(204, 204, 204)" stroke-width="1px"></line><line x1="92.86133321126302" y1="0" x2="92.86133321126302" y2="5" style="visibility: inherit;" fill="rgb(0, 0, 0)" stroke="rgb(204, 204, 204)" stroke-width="1px"></line><line x1="116.07666651407878" y1="0" x2="116.07666651407878" y2="5" style="visibility: inherit;" fill="rgb(0, 0, 0)" stroke="rgb(204, 204, 204)" stroke-width="1px"></line><line x1="139.29199981689453" y1="0" x2="139.29199981689453" y2="5" style="visibility: inherit;" fill="rgb(0, 0, 0)" stroke="rgb(204, 204, 204)" stroke-width="1px"></line><line x1="162.5073331197103" y1="0" x2="162.5073331197103" y2="5" style="visibility: inherit;" fill="rgb(0, 0, 0)" stroke="rgb(204, 204, 204)" stroke-width="1px"></line><line x1="185.72266642252603" y1="0" x2="185.72266642252603" y2="5" style="visibility: inherit;" fill="rgb(0, 0, 0)" stroke="rgb(204, 204, 204)" stroke-width="1px"></line><line x1="208.9379997253418" y1="0" x2="208.9379997253418" y2="5" style="visibility: inherit;" fill="rgb(0, 0, 0)" stroke="rgb(204, 204, 204)" stroke-width="1px"></line><line x1="232.15333302815756" y1="0" x2="232.15333302815756" y2="5" style="visibility: inherit;" fill="rgb(0, 0, 0)" stroke="rgb(204, 204, 204)" stroke-width="1px"></line><line x1="255.3686663309733" y1="0" x2="255.3686663309733" y2="5" style="visibility: inherit;" fill="rgb(0, 0, 0)" stroke="rgb(204, 204, 204)" stroke-width="1px"></line><line x1="278.58399963378906" y1="0" x2="278.58399963378906" y2="5" style="visibility: inherit;" fill="rgb(0, 0, 0)" stroke="rgb(204, 204, 204)" stroke-width="1px"></line></g><g transform="translate(0, 8)"><text style="text-anchor: middle; visibility: hidden; font-family: &quot;Helvetica Neue&quot;, sans-serif; font-size: 12px; font-weight: 200;" x="0" y="0" dx="0em" dy="0.95em" fill="rgb(50, 49, 63)" stroke="none" stroke-width="1px">-20</text><text style="text-anchor: middle; visibility: inherit; font-family: &quot;Helvetica Neue&quot;, sans-serif; font-size: 12px; font-weight: 200;" x="23.215333302815754" y="0" dx="0em" dy="0.95em" fill="rgb(50, 49, 63)" stroke="none" stroke-width="1px">0</text><text style="text-anchor: middle; visibility: hidden; font-family: &quot;Helvetica Neue&quot;, sans-serif; font-size: 12px; font-weight: 200;" x="46.43066660563151" y="0" dx="0em" dy="0.95em" fill="rgb(50, 49, 63)" stroke="none" stroke-width="1px">20</text><text style="text-anchor: middle; visibility: inherit; font-family: &quot;Helvetica Neue&quot;, sans-serif; font-size: 12px; font-weight: 200;" x="69.64599990844727" y="0" dx="0em" dy="0.95em" fill="rgb(50, 49, 63)" stroke="none" stroke-width="1px">40</text><text style="text-anchor: middle; visibility: hidden; font-family: &quot;Helvetica Neue&quot;, sans-serif; font-size: 12px; font-weight: 200;" x="92.86133321126302" y="0" dx="0em" dy="0.95em" fill="rgb(50, 49, 63)" stroke="none" stroke-width="1px">60</text><text style="text-anchor: middle; visibility: inherit; font-family: &quot;Helvetica Neue&quot;, sans-serif; font-size: 12px; font-weight: 200;" x="116.07666651407878" y="0" dx="0em" dy="0.95em" fill="rgb(50, 49, 63)" stroke="none" stroke-width="1px">80</text><text style="text-anchor: middle; visibility: hidden; font-family: &quot;Helvetica Neue&quot;, sans-serif; font-size: 12px; font-weight: 200;" x="139.29199981689453" y="0" dx="0em" dy="0.95em" fill="rgb(50, 49, 63)" stroke="none" stroke-width="1px">100</text><text style="text-anchor: middle; visibility: inherit; font-family: &quot;Helvetica Neue&quot;, sans-serif; font-size: 12px; font-weight: 200;" x="162.5073331197103" y="0" dx="0em" dy="0.95em" fill="rgb(50, 49, 63)" stroke="none" stroke-width="1px">120</text><text style="text-anchor: middle; visibility: hidden; font-family: &quot;Helvetica Neue&quot;, sans-serif; font-size: 12px; font-weight: 200;" x="185.72266642252603" y="0" dx="0em" dy="0.95em" fill="rgb(50, 49, 63)" stroke="none" stroke-width="1px">140</text><text style="text-anchor: middle; visibility: inherit; font-family: &quot;Helvetica Neue&quot;, sans-serif; font-size: 12px; font-weight: 200;" x="208.9379997253418" y="0" dx="0em" dy="0.95em" fill="rgb(50, 49, 63)" stroke="none" stroke-width="1px">160</text><text style="text-anchor: middle; visibility: hidden; font-family: &quot;Helvetica Neue&quot;, sans-serif; font-size: 12px; font-weight: 200;" x="232.15333302815756" y="0" dx="0em" dy="0.95em" fill="rgb(50, 49, 63)" stroke="none" stroke-width="1px">180</text><text style="text-anchor: middle; visibility: inherit; font-family: &quot;Helvetica Neue&quot;, sans-serif; font-size: 12px; font-weight: 200;" x="255.3686663309733" y="0" dx="0em" dy="0.95em" fill="rgb(50, 49, 63)" stroke="none" stroke-width="1px">200</text><text style="text-anchor: middle; visibility: hidden; font-family: &quot;Helvetica Neue&quot;, sans-serif; font-size: 12px; font-weight: 200;" x="278.58399963378906" y="0" dx="0em" dy="0.95em" fill="rgb(50, 49, 63)" stroke="none" stroke-width="1px">220</text></g><line x1="0" y1="0" x2="278.58399963378906" y2="0" fill="rgb(0, 0, 0)" stroke="rgb(204, 204, 204)" stroke-width="1px"></line></g></g></g></g></svg>