<svg viewBox="0 0 330 200" xmlns="http://www.w3.org/2000/svg"><g><g><g><g><g><line x1="41.0620002746582" y1="177.9749994277954" x2="36.0620002746582" y2="177.9749994277954" style="visibility: inherit;" fill="rgb(0, 0, 0)" stroke="rgb(204, 204, 204)" stroke-width="1px"></line><line x1="41.0620002746582" y1="158.19999949137372" x2="36.0620002746582" y2="158.19999949137372" style="visibility: inherit;" fill="rgb(0, 0, 0)" stroke="rgb(204, 204, 204)" stroke-width="1px"></line><line x1="41.0620002746582" y1="138.42499955495197" x2="36.0620002746582" y2="138.42499955495197" style="visibility: inherit;" fill="rgb(0, 0, 0)" stroke="rgb(204, 204, 204)" stroke-width="1px"></line><line x1="41.0620002746582" y1="118.64999961853027" x2="36.0620002746582" y2="118.64999961853027" style="visibility: inherit;" fill="rgb(0, 0, 0)" stroke="rgb(204, 204, 204)" stroke-width="1px"></line><line x1="41.0620002746582" y1="98.87499968210855" x2="36.0620002746582" y2="98.87499968210855" style="visibility: inherit;" fill="rgb(0, 0, 0)" stroke="rgb(204, 204, 204)" stroke-width="1px"></line><line x1="41.0620002746582" y1="79.09999974568683" x2="36.0620002746582" y2="79.09999974568683" style="visibility: inherit;" fill="rgb(0, 0, 0)" stroke="rgb(204, 204, 204)" stroke-width="1px"></line><line x1="41.0620002746582" y1="59.32499980926514" x2="36.0620002746582" y2="59.32499980926514" style="visibility: inherit;" fill="rgb(0, 0, 0)" stroke="rgb(204, 204, 204)" stroke-width="1px"></line><line x1="41.0620002746582" y1="39.549999872843415" x2="36.0620002746582" y2="39.549999872843415" style="visibility: inherit;" fill="rgb(0, 0, 0)" stroke="rgb(204, 204, 204)" stroke-width="1px"></line><line x1="41.0620002746582" y1="19.77499993642172" x2="36.0620002746582" y2="19.77499993642172" style="visibility: inherit;" fill="rgb(0, 0, 0)" stroke="rgb(204, 204, 204)" stroke-width="1px"></line><line x1="41.0620002746582" y1="0" x2="36.0620002746582" y2="0" style="visibility: inherit;" fill="rgb(0, 0, 0)" stroke="rgb(204, 204, 204)" stroke-width="1px"></line></g><g transform="translate(31.062000274658203, 0)"><text style="text-anchor: end; visibility: hidden; font-family: &quot;Helvetica Neue&quot;, sans-serif; font-size: 12px; font-weight: 200;" x="0" y="177.9749994277954" dx="0em" dy="0.3em" fill="rgb(50, 49, 63)" stroke="none" stroke-width="1px">1.2</text><text style="text-anchor: end; visibility: inherit; font-family: &quot;Helvetica Neue&quot;, sans-serif; font-size: 12px; font-weight: 200;" x="0" y="158.19999949137372" dx="0em" dy="0.3em" fill="rgb(50, 49, 63)" stroke="none" stroke-width="1px">1.4</text><text style="text-anchor: end; visibility: hidden; font-family: &quot;Helvetica Neue&quot;, sans-serif; font-size: 12px; font-weight: 200;" x="0" y="138.42499955495197" dx="0em" dy="0.3em" fill="rgb(50, 49, 63)" stroke="none" stroke-width="1px">1.6</text><text style="text-anchor: end; visibility: inherit; font-family: &quot;Helvetica Neue&quot;, sans-serif; font-size: 12px; font-weight: 200;" x="0" y="118.64999961853027" dx="0em" dy="0.3em" fill="rgb(50, 49, 63)" stroke="none" stroke-width="1px">1.8</text><text style="text-anchor: end; visibility: hidden; font-family: &quot;Helvetica Neue&quot;, sans-serif; font-size: 12px; font-weight: 200;" x="0" y="98.87499968210855" dx="0em" dy="0.3em" fill="rgb(50, 49, 63)" stroke="none" stroke-width="1px">2</text><text style="text-anchor: end; visibility: inherit; font-family: &quot;Helvetica Neue&quot;, sans-serif; font-size: 12px; font-weight: 200;" x="0" y="79.09999974568683" dx="0em" dy="0.3em" fill="rgb(50, 49, 63)" stroke="none" stroke-width="1px">2.2</text><text style="text-anchor: end; visibility: hidden; font-family: &quot;Helvetica Neue&quot;, sans-serif; font-size: 12px; font-weight: 200;" x="0" y="59.32499980926514" dx="0em" dy="0.3em" fill="rgb(50, 49, 63)" stroke="none" stroke-width="1px">2.4</text><text style="text-anchor: end; visibility: inherit; font-family: &quot;Helvetica Neue&quot;, sans-serif; font-size: 12px; font-weight: 200;" x="0" y="39.549999872843415" dx="0em" dy="0.3em" fill="rgb(50, 49, 63)" stroke="none" stroke-width="1px">2.6</text><text style="text-anchor: end; visibility: hidden; font-family: &quot;Helvetica Neue&quot;, sans-serif; font-size: 12px; font-weight: 200;" x="0" y="19.77499993642172" dx="0em" dy="0.3em" fill="rgb(50, 49, 63)" stroke="none" stroke-width="1px">2.8</text><text style="text-anchor: end; visibility: hidden; font-family: &quot;Helvetica Neue&quot;, sans-serif; font-size: 12px; font-weight: 200;" x="0" y="0" dx="0em" dy="0.3em" fill="rgb(50, 49, 63)" stroke="none" stroke-width="1px">3</text></g><line x1="41.0620002746582" y1="0" x2="41.0620002746582" y2="177.9749994277954" fill="rgb(0, 0, 0)" stroke="rgb(204, 204, 204)" stroke-width="1px"></line></g></g><g transform="translate(41, 0)" clip-path="url(#clip_0)"><clipPath id="clip_0"><rect width="288" height="177"></rect></clipPath><g><g><g><line x1="0" y1="0" x2="0" y2="177.9749994277954" fill="rgb(0, 0, 0)" stroke="rgb(60, 60, 60)" stroke-width="1px" opacity="0.25"></line><line x1="24.07816664377848" y1="0" x2="24.07816664377848" y2="177.9749994277954" fill="rgb(0, 0, 0)" stroke="rgb(60, 60, 60)" stroke-width="1px" opacity="0.25"></line><line x1="48.15633328755696" y1="0" x2="48.15633328755696" y2="177.9749994277954" fill="rgb(0, 0, 0)" stroke="rgb(60, 60, 60)" stroke-width="1px" opacity="0.25"></line><line x1="72.23449993133545" y1="0" x2="72.23449993133545" y2="177.9749994277954" fill="rgb(0, 0, 0)" stroke="rgb(60, 60, 60)" stroke-width="1px" opacity="0.25"></line><line x1="96.31266657511392" y1="0" x2="96.31266657511392" y2="177.9749994277954" fill="rgb(0, 0, 0)" stroke="rgb(60, 60, 60)" stroke-width="1px" opacity="0.25"></line><line x1="120.39083321889242" y1="0" x2="120.39083321889242" y2="177.9749994277954" fill="rgb(0, 0, 0)" stroke="rgb(60, 60, 60)" stroke-width="1px" opacity="0.25"></line><line x1="144.4689998626709" y1="0" x2="144.4689998626709" y2="177.9749994277954" fill="rgb(0, 0, 0)" stroke="rgb(60, 60, 60)" stroke-width="1px" opacity="0.25"></line><line x1="168.5471665064494" y1="0" x2="168.5471665064494" y2="177.9749994277954" fill="rgb(0, 0, 0)" stroke="rgb(60, 60, 60)" stroke-width="1px" opacity="0.25"></line><line x1="192.62533315022785" y1="0" x2="192.62533315022785" y2="177.9749994277954" fill="rgb(0, 0, 0)" stroke="rgb(60, 60, 60)" stroke-width="1px" opacity="0.25"></line><line x1="216.70349979400635" y1="0" x2="216.70349979400635" y2="177.9749994277954" fill="rgb(0, 0, 0)" stroke="rgb(60, 60, 60)" stroke-width="1px" opacity="0.25"></line><line x1="240.78166643778485" y1="0" x2="240.78166643778485" y2="177.9749994277954" fill="rgb(0, 0, 0)" stroke="rgb(60, 60, 60)" stroke-width="1px" opacity="0.25"></line><line x1="264.8598330815633" y1="0" x2="264.8598330815633" y2="177.9749994277954" fill="rgb(0, 0, 0)" stroke="rgb(60, 60, 60)" stroke-width="1px" opacity="0.25"></line><line x1="288.9379997253418" y1="0" x2="288.9379997253418" y2="177.9749994277954" fill="rgb(0, 0, 0)" stroke="rgb(60, 60, 60)" stroke-width="1px" opacity="0.25"></line></g><g><line x1="0" y1="177.9749994277954" x2="288.9379997253418" y2="177.9749994277954" fill="rgb(0, 0, 0)" stroke="rgb(60, 60, 60)" stroke-width="1px" opacity="0.25"></line><line x1="0" y1="158.19999949137372" x2="288.9379997253418" y2="158.19999949137372" fill="rgb(0, 0, 0)" stroke="rgb(60, 60, 60)" stroke-width="1px" opacity="0.25"></line><line x1="0" y1="138.42499955495197" x2="288.9379997253418" y2="138.42499955495197" fill="rgb(0, 0, 0)" stroke="rgb(60, 60, 60)" stroke-width="1px" opacity="0.25"></line><line x1="0" y1="118.64999961853027" x2="288.9379997253418" y2="118.64999961853027" fill="rgb(0, 0, 0)" stroke="rgb(60, 60, 60)" stroke-width="1px" opacity="0.25"></line><line x1="0" y1="98.87499968210855" x2="288.9379997253418" y2="98.87499968210855" fill="rgb(0, 0, 0)" stroke="rgb(60, 60, 60)" stroke-width="1px" opacity="0.25"></line><line x1="0" y1="79.09999974568683" x2="288.9379997253418" y2="79.09999974568683" fill="rgb(0, 0, 0)" stroke="rgb(60, 60, 60)" stroke-width="1px" opacity="0.25"></line><line x1="0" y1="59.32499980926514" x2="288.9379997253418" y2="59.32499980926514" fill="rgb(0, 0, 0)" stroke="rgb(60, 60, 60)" stroke-width="1px" opacity="0.25"></line><line x1="0" y1="39.549999872843415" x2="288.9379997253418" y2="39.549999872843415" fill="rgb(0, 0, 0)" stroke="rgb(60, 60, 60)" stroke-width="1px" opacity="0.25"></line><line x1="0" y1="19.77499993642172" x2="288.9379997253418" y2="19.77499993642172" fill="rgb(0, 0, 0)" stroke="rgb(60, 60, 60)" stroke-width="1px" opacity="0.25"></line><line x1="0" y1="0" x2="288.9379997253418" y2="0" fill="rgb(0, 0, 0)" stroke="rgb(60, 60, 60)" stroke-width="1px" opacity="0.25"></line></g></g></g><g><g><line x1="0" y1="296.6249990463257" x2="288.9379997253418" y2="296.6249990463257" fill="rgb(0, 0, 0)" stroke="rgb(153, 153, 153)" stroke-width="1.5px"></line></g></g><g><g><line x1="24.07816664377848" y1="0" x2="24.07816664377848" y2="177.9749994277954" fill="rgb(0, 0, 0)" stroke="rgb(153, 153, 153)" stroke-width="1.5px"></line></g></g><g><g><g><g><g><path style="fill: none;" stroke="rgb(238, 51, 119)" stroke-width="2px" d="M26.485983308156328,-12.102988084981604L27.68989164034526,19.066640434953115L28.893799972534183,22.246323305370197L30.097708304723106,24.600669573130375L31.30161663691203,16.84348145672439L32.505524969100954,21.15731557361906L33.70943330128988,23.06993903253101L34.9133416334788,24.056260001802542L36.117249965667725,32.02596445515837L37.321158297856655,36.129969629713514L38.52506663004557,38.62283458809125L39.7289749622345,38.51140200630957L40.93288329442342,35.57103869803504L42.13679162661235,36.681969912133724L43.34069995880127,47.776407088216104L44.5446082909902,45.286653849913506L45.748516623179114,46.372290551583234L46.952424955368045,38.85833522105068L48.15633328755696,47.50611176714375L49.36024161974589,47.845855022620384L50.56414995193481,51.941821586981405L51.76805828412374,52.54589603338634L52.971966616312656,52.44940913742009L54.17587494850159,61.61495704510685L55.37978328069052,49.02382966015617L56.583691612879434,66.40488433349788L57.787599945068365,69.5227807015139L58.99150827725728,65.28607952466359L60.19541660944621,68.98978077046156L61.39932494163513,63.33877924582339L62.60323327382406,73.15561959469164L63.807141606012976,66.75002595183211L65.01104993820191,77.3208690779984L66.21495827039082,80.38471109652733L67.41886660257975,81.19564420701825L68.62277493476867,75.93650724911527L69.8266832669576,84.14718141919896L71.03059159914652,76.4548208043584L72.23449993133545,84.0299025754579L73.43840826352437,81.41148442677566L74.64231659571331,85.06777908870163L75.84622492790223,85.09639748393813L77.05013326009114,76.42827688917198L78.25404159228006,86.23620640327961L79.457949924469,81.86395681406528L80.66185825665792,81.85158065467552L81.86576658884684,89.68151701465634L83.06967492103576,86.76010691047584L84.2735832532247,88.5882660282573L85.47749158541362,88.86516196767086L86.68139991760253,90.32297924923682L87.88530824979145,89.76418975937993L89.0892165819804,94.78947623890879L90.29312491416931,92.464149118213L91.49703324635823,86.6664252773046L92.70094157854717,92.71518477791119L93.90484991073609,92.0656132122258L95.108758242925,91.88567564151715L96.31266657511392,92.97454193144668L97.51657490730287,94.45701723724444L98.72048323949178,90.43834862838631L99.9243915716807,99.07159202731027L101.12829990386962,87.28384240221354L102.33220823605856,94.82547318250529L103.53611656824748,98.92294845963002L104.7400249004364,99.15604458162231L105.94393323262531,92.74719777686603L107.14784156481426,95.93048741373384L108.35174989700317,95.25526773106549L109.55565822919209,93.29118302272907L110.75956656138104,93.77328747164331L111.96347489356995,95.74281769011122L113.16738322575887,93.12510675053697L114.37129155794779,91.04100865657529L115.57519989013673,97.4700344945461L116.77910822232565,93.12786486605812L117.98301655451456,100.78812997421456L119.18692488670348,89.37786499732397L120.39083321889242,98.9811517692173L121.59474155108134,101.81839220272896L122.79864988327026,96.03626232265165L124.00255821545917,96.52692400177254L125.20646654764812,98.51241357244399L126.41037487983704,96.41674082274828L127.61428321202595,92.47850546310511L128.8181915442149,94.33756961890556L130.02209987640381,99.00293380974327L131.22600820859273,96.60318471725039L132.42991654078165,101.79545505399328L133.6338248729706,98.86476872367969L134.8377332051595,94.47519251131969L136.04164153734843,99.74206162213666L137.24554986953734,100.8014608659001L138.4494582017263,91.96691039438785L139.6533665339152,98.85234541701607L140.85727486610412,108.51724188903347L142.06118319829304,96.33310155891043L143.26509153048198,100.63424127231674L144.4689998626709,99.144210615882L145.67290819485982,98.10079429795906L146.87681652704873,104.9384927057982L148.08072485923765,102.10798254563088L149.28463319142662,97.31588648264203L150.48854152361554,97.60779882878182L151.69244985580445,102.19881176873325L152.89635818799337,101.01921055024907L154.1002665201823,103.7789526523439L155.3041748523712,105.82454321037574L156.50808318456012,105.53127538011229L157.71199151674904,105.6441459537469L158.915899848938,98.15086470280448L160.11980818112693,104.8917815442157L161.32371651331584,102.37968049810074L162.52762484550476,109.99619293610976L163.73153317769368,106.67154398537396L164.9354415098826,103.04013129723064L166.1393498420715,104.42291369243928L167.34325817426048,109.52001725688415L168.5471665064494,105.22894348644816L169.75107483863832,103.54542041806837L170.95498317082723,108.29826637556398L172.15889150301615,108.77092958288661L173.36279983520507,109.38481066225563L174.56670816739398,113.55073199421497L175.7706164995829,110.37319432475879L176.97452483177187,110.00500947632266L178.1784331639608,116.34641210581397L179.3823414961497,105.3339404653472L180.58624982833862,111.94317497085137L181.79015816052754,112.68955167660161L182.99406649271646,112.52058763388523L184.19797482490537,116.86939324116982L185.40188315709435,115.03009557993758L186.60579148928326,114.82440381087977L187.80969982147218,115.66515757209079L189.0136081536611,117.71991827488951L190.21751648585,114.7783880715868L191.42142481803893,121.91661498986471L192.62533315022785,118.41044903474577L193.82924148241676,122.54686796008362L195.03314981460574,116.95338610956165L196.23705814679465,118.85112281675049L197.44096647898357,124.99667567060347L198.64487481117249,124.64069017928011L199.8487831433614,124.1963271230954L201.05269147555032,125.07118015012982L202.25659980773924,120.74732723753868L203.4605081399282,125.2219217714971L204.66441647211713,125.57788368918352L205.86832480430604,129.02991278708612L207.07223313649496,127.94499508134284L208.27614146868387,127.07590580853851L209.4800498008728,129.0003160859169L210.6839581330617,128.28546911956437L211.88786646525062,130.59620415899872L213.0917747974396,130.8855941259867L214.29568312962851,132.68739791767717L215.49959146181743,130.9024846368491L216.70349979400635,132.78974286242126L217.90740812619526,135.22451059257793L219.11131645838418,136.60367443451736L220.3152247905731,131.7207727220631L221.51913312276207,135.78225105559133L222.723041454951,137.1358964355509L223.9269497871399,138.20276852222207L225.13085811932882,139.85243984796625L226.33476645151774,142.8377816555087L227.53867478370665,141.53761307093134L228.74258311589557,141.42908004649237L229.9464914480845,146.79224746418015L231.15039978027346,141.7865860373979L232.35430811246238,141.71211691832696L233.5582164446513,143.63919101667875L234.7621247768402,145.53461750744816L235.96603310902913,146.94996688207954L237.16994144121804,147.29226787716337L238.37384977340696,149.67307555238068L239.57775810559593,149.60875488400936L240.78166643778485,152.89165492373704L241.98557476997377,153.02247682189602L243.18948310216268,153.1858892731147L244.3933914343516,152.4208540337321L245.59729976654052,154.1321114859634L246.80120809872943,153.6847899383436L248.00511643091835,154.63445390218453L249.20902476310732,155.19828815034506L250.41293309529624,156.10349223493054L251.61684142748516,157.30744502036637L252.82074975967407,156.5063656901134L254.024658091863,157.74768269008783L255.2285664240519,158.27753554060962L256.4324747562408,158.4079331133038L257.6363830884298,158.35284152379168L258.8402914206187,158.85874355918966L260.04419975280763,158.05465859022775L261.24810808499655,159.02321682407035L262.45201641718546,159.0834946137077" fill="none"></path></g><g><path style="fill: none;" stroke="rgb(204, 51, 17)" stroke-width="2px" d="M25.282074975967404,-43.40279022805967L26.485983308156328,0.050117552119303355L27.68989164034526,30.221402547946724L28.893799972534183,34.90027443274698L30.097708304723106,33.9658154647278L31.30161663691203,27.935254811833374L32.505524969100954,30.05702357761379L33.70943330128988,32.57240135926244L34.9133416334788,33.322632354651205L36.117249965667725,40.087323208909226L37.321158297856655,43.08933157776323L38.52506663004557,44.57293841813376L39.7289749622345,44.698727344807594L40.93288329442342,43.881287910523184L42.13679162661235,43.32558656710452L43.34069995880127,52.49306751301977L44.5446082909902,49.89984958221876L45.748516623179114,51.74863563231649L46.952424955368045,46.60194492258333L48.15633328755696,50.98489694296518L49.36024161974589,51.61751906369584L50.56414995193481,53.45503691533963L51.76805828412374,55.18536543984965L52.971966616312656,57.43714281331488L54.17587494850159,63.70740020654277L55.37978328069052,53.598788953356305L56.583691612879434,67.50228427999711L57.787599945068365,69.66068647757122L58.99150827725728,62.877513891957804L60.19541660944621,67.76100494533542L61.39932494163513,62.536426939176025L62.60323327382406,71.27173239920087L63.807141606012976,66.4343042323901L65.01104993820191,75.72194000575223L66.21495827039082,76.82023575045491L67.41886660257975,78.7764232904188L68.62277493476867,72.93588972484031L69.8266832669576,80.87478343472488L71.03059159914652,74.19601848708719L72.23449993133545,79.7505331157591L73.43840826352437,77.80544875879059L74.64231659571331,81.81662095110406L75.84622492790223,81.47091356548344L77.05013326009114,74.97840392325239L78.25404159228006,82.95515689405117L79.457949924469,76.1746717030481L80.66185825665792,77.78475110556353L81.86576658884684,82.10301706620157L83.06967492103576,80.23452345562796L84.2735832532247,83.87528309081517L85.47749158541362,83.47071233377316L86.68139991760253,83.74242207306148L87.88530824979145,84.4490889873983L89.0892165819804,86.65237538969261L90.29312491416931,87.05713473583008L91.49703324635823,79.16453964888167L92.70094157854717,85.31836684929809L93.90484991073609,85.89493086140237L95.108758242925,83.10492020948573L96.31266657511392,86.71079086201226L97.51657490730287,86.27302842416877L98.72048323949178,84.45201211837798L99.9243915716807,89.26563091188655L101.12829990386962,79.54376874622085L102.33220823605856,88.44840364033453L103.53611656824748,89.68524164929174L104.7400249004364,91.08603430311707L105.94393323262531,84.72591420590106L107.14784156481426,85.88939105672314L108.35174989700317,88.42013884965202L109.55565822919209,85.34637232997434L110.75956656138104,84.2704008194471L111.96347489356995,87.95465381477545L113.16738322575887,83.74232777851375L114.37129155794779,80.18289719074498L115.57519989013673,85.28727322218363L116.77910822232565,84.38041898301283L117.98301655451456,89.93665448718086L119.18692488670348,83.83402922618264L120.39083321889242,87.56691463450352L121.59474155108134,91.08935818592461L122.79864988327026,87.32651068506205L124.00255821545917,88.04477582876984L125.20646654764812,90.5279755960051L126.41037487983704,87.64937521649472L127.61428321202595,84.17822789903956L128.8181915442149,87.68082244816317L130.02209987640381,87.68916751563741L131.22600820859273,87.24383794033845L132.42991654078165,90.1388219975172L133.6338248729706,88.17520876191945L134.8377332051595,83.98268458068135L136.04164153734843,90.19634167163342L137.24554986953734,89.88809279509913L138.4494582017263,82.76366824124541L139.6533665339152,86.37736534123367L140.85727486610412,95.04579239327995L142.06118319829304,87.34211643271162L143.26509153048198,88.34809781518516L144.4689998626709,90.39966429017947L145.67290819485982,88.87334201968656L146.87681652704873,90.41687304514046L148.08072485923765,91.33306244453668L149.28463319142662,86.20452343524182L150.48854152361554,87.29030157873315L151.69244985580445,91.1908898401945L152.89635818799337,88.6302271019978L154.1002665201823,90.59148297390227L155.3041748523712,93.18689325293803L156.50808318456012,93.60032769746681L157.71199151674904,91.89385569353287L158.915899848938,88.93069667834425L160.11980818112693,92.26895940440879L161.32371651331584,90.53964454628688L162.52762484550476,95.32422061909415L163.73153317769368,92.90259519152755L164.9354415098826,89.27107642201804L166.1393498420715,93.25895786104184L167.34325817426048,95.24289157167573L168.5471665064494,91.5019439795238L169.75107483863832,92.1046983022605L170.95498317082723,94.25826790426338L172.15889150301615,95.55201267277653L173.36279983520507,95.61285622970028L174.56670816739398,97.10695333850595L175.7706164995829,94.3635477668056L176.97452483177187,92.72678300728217L178.1784331639608,100.353019570526L179.3823414961497,89.87967700671409L180.58624982833862,94.4203366581769L181.79015816052754,94.84692519211421L182.99406649271646,97.70030178010643L184.19797482490537,100.24862371936877L185.40188315709435,97.04599191339753L186.60579148928326,97.70718528209083L187.80969982147218,98.89694673809306L189.0136081536611,99.33350692045299L190.21751648585,98.4403489643402L191.42142481803893,102.9191278188542L192.62533315022785,100.49350665982747L193.82924148241676,104.36539401832306L195.03314981460574,99.64166150243955L196.23705814679465,100.48573914645809L197.44096647898357,103.9163044479333L198.64487481117249,104.75788328643698L199.8487831433614,103.4187356931911L201.05269147555032,105.02633986382855L202.25659980773924,99.49728476304415L203.4605081399282,101.89425216637896L204.66441647211713,102.79575518996599L205.86832480430604,107.08311611258505L207.07223313649496,104.98776160698792L208.27614146868387,103.59625696611411L209.4800498008728,103.129039268923L210.6839581330617,103.2739699887863L211.88786646525062,106.57075490066745L213.0917747974396,107.98176672610319L214.29568312962851,107.83432541390653L215.49959146181743,104.62340747455339L216.70349979400635,109.3938511520194L217.90740812619526,108.53165716801793L219.11131645838418,109.83753057273304L220.3152247905731,105.759656774718L221.51913312276207,108.73123157829164L222.723041454951,108.11349620928411L223.9269497871399,110.78112432506373L225.13085811932882,109.1596352822728L226.33476645151774,110.83970481284192L227.53867478370665,110.59861722792941L228.74258311589557,107.74402659763514L229.9464914480845,111.59901165844985L231.15039978027346,109.2128763412857L232.35430811246238,109.45669846808244L233.5582164446513,110.19779467915971L234.7621247768402,110.88667528443068L235.96603310902913,111.97987912355586L237.16994144121804,110.93587346470959L238.37384977340696,112.40040923280144L239.57775810559593,111.65704995257859L240.78166643778485,113.92275934547115L241.98557476997377,112.5273768413219L243.18948310216268,112.89644570114301L244.3933914343516,113.11111902587223L245.59729976654052,113.75337097728998L246.80120809872943,112.90078325033865L248.00511643091835,112.53811463294483L249.20902476310732,112.57748260662272L250.41293309529624,113.21662283796532L251.61684142748516,114.26542573192742L252.82074975967407,113.04696337295941L254.024658091863,113.82174631121377L255.2285664240519,113.83011495232495L256.4324747562408,114.09620237920478L257.6363830884298,113.76403804800209L258.8402914206187,113.86238726128605L260.04419975280763,113.22871611371188L261.24810808499655,113.73082279356368L262.45201641718546,113.75095467950435" fill="none"></path></g></g></g></g></g></g><g transform="translate(41, 177)" clip-path="url(#clip_1)"><clipPath id="clip_1"><rect width="288" height="22"></rect></clipPath><g><g><line x1="0" y1="0" x2="0" y2="5" style="visibility: inherit;" fill="rgb(0, 0, 0)" stroke="rgb(204, 204, 204)" stroke-width="1px"></line><line x1="24.07816664377848" y1="0" x2="24.07816664377848" y2="5" style="visibility: inherit;" fill="rgb(0, 0, 0)" stroke="rgb(204, 204, 204)" stroke-width="1px"></line><line x1="48.15633328755696" y1="0" x2="48.15633328755696" y2="5" style="visibility: inherit;" fill="rgb(0, 0, 0)" stroke="rgb(204, 204, 204)" stroke-width="1px"></line><line x1="72.23449993133545" y1="0" x2="72.23449993133545" y2="5" style="visibility: inherit;" fill="rgb(0, 0, 0)" stroke="rgb(204, 204, 204)" stroke-width="1px"></line><line x1="96.31266657511392" y1="0" x2="96.31266657511392" y2="5" style="visibility: inherit;" fill="rgb(0, 0, 0)" stroke="rgb(204, 204, 204)" stroke-width="1px"></line><line x1="120.39083321889242" y1="0" x2="120.39083321889242" y2="5" style="visibility: inherit;" fill="rgb(0, 0, 0)" stroke="rgb(204, 204, 204)" stroke-width="1px"></line><line x1="144.4689998626709" y1="0" x2="144.4689998626709" y2="5" style="visibility: inherit;" fill="rgb(0, 0, 0)" stroke="rgb(204, 204, 204)" stroke-width="1px"></line><line x1="168.5471665064494" y1="0" x2="168.5471665064494" y2="5" style="visibility: inherit;" fill="rgb(0, 0, 0)" stroke="rgb(204, 204, 204)" stroke-width="1px"></line><line x1="192.62533315022785" y1="0" x2="192.62533315022785" y2="5" style="visibility: inherit;" fill="rgb(0, 0, 0)" stroke="rgb(204, 204, 204)" stroke-width="1px"></line><line x1="216.70349979400635" y1="0" x2="216.70349979400635" y2="5" style="visibility: inherit;" fill="rgb(0, 0, 0)" stroke="rgb(204, 204, 204)" stroke-width="1px"></line><line x1="240.78166643778485" y1="0" x2="240.78166643778485" y2="5" style="visibility: inherit;" fill="rgb(0, 0, 0)" stroke="rgb(204, 204, 204)" stroke-width="1px"></line><line x1="264.8598330815633" y1="0" x2="264.8598330815633" y2="5" style="visibility: inherit;" fill="rgb(0, 0, 0)" stroke="rgb(204, 204, 204)" stroke-width="1px"></line><line x1="288.9379997253418" y1="0" x2="288.9379997253418" y2="5" style="visibility: inherit;" fill="rgb(0, 0, 0)" stroke="rgb(204, 204, 204)" stroke-width="1px"></line></g><g transform="translate(0, 8)"><text style="text-anchor: middle; visibility: hidden; font-family: &quot;Helvetica Neue&quot;, sans-serif; font-size: 12px; font-weight: 200;" x="0" y="0" dx="0em" dy="0.95em" fill="rgb(50, 49, 63)" stroke="none" stroke-width="1px">-20</text><text style="text-anchor: middle; visibility: inherit; font-family: &quot;Helvetica Neue&quot;, sans-serif; font-size: 12px; font-weight: 200;" x="24.07816664377848" y="0" dx="0em" dy="0.95em" fill="rgb(50, 49, 63)" stroke="none" stroke-width="1px">0</text><text style="text-anchor: middle; visibility: hidden; font-family: &quot;Helvetica Neue&quot;, sans-serif; font-size: 12px; font-weight: 200;" x="48.15633328755696" y="0" dx="0em" dy="0.95em" fill="rgb(50, 49, 63)" stroke="none" stroke-width="1px">20</text><text style="text-anchor: middle; visibility: inherit; font-family: &quot;Helvetica Neue&quot;, sans-serif; font-size: 12px; font-weight: 200;" x="72.23449993133545" y="0" dx="0em" dy="0.95em" fill="rgb(50, 49, 63)" stroke="none" stroke-width="1px">40</text><text style="text-anchor: middle; visibility: hidden; font-family: &quot;Helvetica Neue&quot;, sans-serif; font-size: 12px; font-weight: 200;" x="96.31266657511392" y="0" dx="0em" dy="0.95em" fill="rgb(50, 49, 63)" stroke="none" stroke-width="1px">60</text><text style="text-anchor: middle; visibility: inherit; font-family: &quot;Helvetica Neue&quot;, sans-serif; font-size: 12px; font-weight: 200;" x="120.39083321889242" y="0" dx="0em" dy="0.95em" fill="rgb(50, 49, 63)" stroke="none" stroke-width="1px">80</text><text style="text-anchor: middle; visibility: hidden; font-family: &quot;Helvetica Neue&quot;, sans-serif; font-size: 12px; font-weight: 200;" x="144.4689998626709" y="0" dx="0em" dy="0.95em" fill="rgb(50, 49, 63)" stroke="none" stroke-width="1px">100</text><text style="text-anchor: middle; visibility: inherit; font-family: &quot;Helvetica Neue&quot;, sans-serif; font-size: 12px; font-weight: 200;" x="168.5471665064494" y="0" dx="0em" dy="0.95em" fill="rgb(50, 49, 63)" stroke="none" stroke-width="1px">120</text><text style="text-anchor: middle; visibility: hidden; font-family: &quot;Helvetica Neue&quot;, sans-serif; font-size: 12px; font-weight: 200;" x="192.62533315022785" y="0" dx="0em" dy="0.95em" fill="rgb(50, 49, 63)" stroke="none" stroke-width="1px">140</text><text style="text-anchor: middle; visibility: inherit; font-family: &quot;Helvetica Neue&quot;, sans-serif; font-size: 12px; font-weight: 200;" x="216.70349979400635" y="0" dx="0em" dy="0.95em" fill="rgb(50, 49, 63)" stroke="none" stroke-width="1px">160</text><text style="text-anchor: middle; visibility: hidden; font-family: &quot;Helvetica Neue&quot;, sans-serif; font-size: 12px; font-weight: 200;" x="240.78166643778485" y="0" dx="0em" dy="0.95em" fill="rgb(50, 49, 63)" stroke="none" stroke-width="1px">180</text><text style="text-anchor: middle; visibility: inherit; font-family: &quot;Helvetica Neue&quot;, sans-serif; font-size: 12px; font-weight: 200;" x="264.8598330815633" y="0" dx="0em" dy="0.95em" fill="rgb(50, 49, 63)" stroke="none" stroke-width="1px">200</text><text style="text-anchor: middle; visibility: hidden; font-family: &quot;Helvetica Neue&quot;, sans-serif; font-size: 12px; font-weight: 200;" x="288.9379997253418" y="0" dx="0em" dy="0.95em" fill="rgb(50, 49, 63)" stroke="none" stroke-width="1px">220</text></g><line x1="0" y1="0" x2="288.9379997253418" y2="0" fill="rgb(0, 0, 0)" stroke="rgb(204, 204, 204)" stroke-width="1px"></line></g></g></g></g></svg>