<svg viewBox="0 0 330 200" xmlns="http://www.w3.org/2000/svg"><g><g><g><g><g><line x1="51.41600036621094" y1="177.9749994277954" x2="46.41600036621094" y2="177.9749994277954" style="visibility: inherit;" fill="rgb(0, 0, 0)" stroke="rgb(204, 204, 204)" stroke-width="1px"></line><line x1="51.41600036621094" y1="158.19999949137372" x2="46.41600036621094" y2="158.19999949137372" style="visibility: inherit;" fill="rgb(0, 0, 0)" stroke="rgb(204, 204, 204)" stroke-width="1px"></line><line x1="51.41600036621094" y1="138.42499955495197" x2="46.41600036621094" y2="138.42499955495197" style="visibility: inherit;" fill="rgb(0, 0, 0)" stroke="rgb(204, 204, 204)" stroke-width="1px"></line><line x1="51.41600036621094" y1="118.64999961853027" x2="46.41600036621094" y2="118.64999961853027" style="visibility: inherit;" fill="rgb(0, 0, 0)" stroke="rgb(204, 204, 204)" stroke-width="1px"></line><line x1="51.41600036621094" y1="98.87499968210855" x2="46.41600036621094" y2="98.87499968210855" style="visibility: inherit;" fill="rgb(0, 0, 0)" stroke="rgb(204, 204, 204)" stroke-width="1px"></line><line x1="51.41600036621094" y1="79.09999974568683" x2="46.41600036621094" y2="79.09999974568683" style="visibility: inherit;" fill="rgb(0, 0, 0)" stroke="rgb(204, 204, 204)" stroke-width="1px"></line><line x1="51.41600036621094" y1="59.32499980926514" x2="46.41600036621094" y2="59.32499980926514" style="visibility: inherit;" fill="rgb(0, 0, 0)" stroke="rgb(204, 204, 204)" stroke-width="1px"></line><line x1="51.41600036621094" y1="39.549999872843415" x2="46.41600036621094" y2="39.549999872843415" style="visibility: inherit;" fill="rgb(0, 0, 0)" stroke="rgb(204, 204, 204)" stroke-width="1px"></line><line x1="51.41600036621094" y1="19.77499993642172" x2="46.41600036621094" y2="19.77499993642172" style="visibility: inherit;" fill="rgb(0, 0, 0)" stroke="rgb(204, 204, 204)" stroke-width="1px"></line><line x1="51.41600036621094" y1="0" x2="46.41600036621094" y2="0" style="visibility: inherit;" fill="rgb(0, 0, 0)" stroke="rgb(204, 204, 204)" stroke-width="1px"></line></g><g transform="translate(41.41600036621094, 0)"><text style="text-anchor: end; visibility: hidden; font-family: &quot;Helvetica Neue&quot;, sans-serif; font-size: 12px; font-weight: 200;" x="0" y="177.9749994277954" dx="0em" dy="0.3em" fill="rgb(50, 49, 63)" stroke="none" stroke-width="1px">0.3</text><text style="text-anchor: end; visibility: inherit; font-family: &quot;Helvetica Neue&quot;, sans-serif; font-size: 12px; font-weight: 200;" x="0" y="158.19999949137372" dx="0em" dy="0.3em" fill="rgb(50, 49, 63)" stroke="none" stroke-width="1px">0.35</text><text style="text-anchor: end; visibility: hidden; font-family: &quot;Helvetica Neue&quot;, sans-serif; font-size: 12px; font-weight: 200;" x="0" y="138.42499955495197" dx="0em" dy="0.3em" fill="rgb(50, 49, 63)" stroke="none" stroke-width="1px">0.4</text><text style="text-anchor: end; visibility: inherit; font-family: &quot;Helvetica Neue&quot;, sans-serif; font-size: 12px; font-weight: 200;" x="0" y="118.64999961853027" dx="0em" dy="0.3em" fill="rgb(50, 49, 63)" stroke="none" stroke-width="1px">0.45</text><text style="text-anchor: end; visibility: hidden; font-family: &quot;Helvetica Neue&quot;, sans-serif; font-size: 12px; font-weight: 200;" x="0" y="98.87499968210855" dx="0em" dy="0.3em" fill="rgb(50, 49, 63)" stroke="none" stroke-width="1px">0.5</text><text style="text-anchor: end; visibility: inherit; font-family: &quot;Helvetica Neue&quot;, sans-serif; font-size: 12px; font-weight: 200;" x="0" y="79.09999974568683" dx="0em" dy="0.3em" fill="rgb(50, 49, 63)" stroke="none" stroke-width="1px">0.55</text><text style="text-anchor: end; visibility: hidden; font-family: &quot;Helvetica Neue&quot;, sans-serif; font-size: 12px; font-weight: 200;" x="0" y="59.32499980926514" dx="0em" dy="0.3em" fill="rgb(50, 49, 63)" stroke="none" stroke-width="1px">0.6</text><text style="text-anchor: end; visibility: inherit; font-family: &quot;Helvetica Neue&quot;, sans-serif; font-size: 12px; font-weight: 200;" x="0" y="39.549999872843415" dx="0em" dy="0.3em" fill="rgb(50, 49, 63)" stroke="none" stroke-width="1px">0.65</text><text style="text-anchor: end; visibility: hidden; font-family: &quot;Helvetica Neue&quot;, sans-serif; font-size: 12px; font-weight: 200;" x="0" y="19.77499993642172" dx="0em" dy="0.3em" fill="rgb(50, 49, 63)" stroke="none" stroke-width="1px">0.7</text><text style="text-anchor: end; visibility: hidden; font-family: &quot;Helvetica Neue&quot;, sans-serif; font-size: 12px; font-weight: 200;" x="0" y="0" dx="0em" dy="0.3em" fill="rgb(50, 49, 63)" stroke="none" stroke-width="1px">0.75</text></g><line x1="51.41600036621094" y1="0" x2="51.41600036621094" y2="177.9749994277954" fill="rgb(0, 0, 0)" stroke="rgb(204, 204, 204)" stroke-width="1px"></line></g></g><g transform="translate(51, 0)" clip-path="url(#clip_0)"><clipPath id="clip_0"><rect width="278" height="177"></rect></clipPath><g><g><g><line x1="0" y1="0" x2="0" y2="177.9749994277954" fill="rgb(0, 0, 0)" stroke="rgb(60, 60, 60)" stroke-width="1px" opacity="0.25"></line><line x1="34.82299995422363" y1="0" x2="34.82299995422363" y2="177.9749994277954" fill="rgb(0, 0, 0)" stroke="rgb(60, 60, 60)" stroke-width="1px" opacity="0.25"></line><line x1="69.64599990844727" y1="0" x2="69.64599990844727" y2="177.9749994277954" fill="rgb(0, 0, 0)" stroke="rgb(60, 60, 60)" stroke-width="1px" opacity="0.25"></line><line x1="104.4689998626709" y1="0" x2="104.4689998626709" y2="177.9749994277954" fill="rgb(0, 0, 0)" stroke="rgb(60, 60, 60)" stroke-width="1px" opacity="0.25"></line><line x1="139.29199981689453" y1="0" x2="139.29199981689453" y2="177.9749994277954" fill="rgb(0, 0, 0)" stroke="rgb(60, 60, 60)" stroke-width="1px" opacity="0.25"></line><line x1="174.11499977111816" y1="0" x2="174.11499977111816" y2="177.9749994277954" fill="rgb(0, 0, 0)" stroke="rgb(60, 60, 60)" stroke-width="1px" opacity="0.25"></line><line x1="208.9379997253418" y1="0" x2="208.9379997253418" y2="177.9749994277954" fill="rgb(0, 0, 0)" stroke="rgb(60, 60, 60)" stroke-width="1px" opacity="0.25"></line><line x1="243.76099967956543" y1="0" x2="243.76099967956543" y2="177.9749994277954" fill="rgb(0, 0, 0)" stroke="rgb(60, 60, 60)" stroke-width="1px" opacity="0.25"></line><line x1="278.58399963378906" y1="0" x2="278.58399963378906" y2="177.9749994277954" fill="rgb(0, 0, 0)" stroke="rgb(60, 60, 60)" stroke-width="1px" opacity="0.25"></line></g><g><line x1="0" y1="177.9749994277954" x2="278.58399963378906" y2="177.9749994277954" fill="rgb(0, 0, 0)" stroke="rgb(60, 60, 60)" stroke-width="1px" opacity="0.25"></line><line x1="0" y1="158.19999949137372" x2="278.58399963378906" y2="158.19999949137372" fill="rgb(0, 0, 0)" stroke="rgb(60, 60, 60)" stroke-width="1px" opacity="0.25"></line><line x1="0" y1="138.42499955495197" x2="278.58399963378906" y2="138.42499955495197" fill="rgb(0, 0, 0)" stroke="rgb(60, 60, 60)" stroke-width="1px" opacity="0.25"></line><line x1="0" y1="118.64999961853027" x2="278.58399963378906" y2="118.64999961853027" fill="rgb(0, 0, 0)" stroke="rgb(60, 60, 60)" stroke-width="1px" opacity="0.25"></line><line x1="0" y1="98.87499968210855" x2="278.58399963378906" y2="98.87499968210855" fill="rgb(0, 0, 0)" stroke="rgb(60, 60, 60)" stroke-width="1px" opacity="0.25"></line><line x1="0" y1="79.09999974568683" x2="278.58399963378906" y2="79.09999974568683" fill="rgb(0, 0, 0)" stroke="rgb(60, 60, 60)" stroke-width="1px" opacity="0.25"></line><line x1="0" y1="59.32499980926514" x2="278.58399963378906" y2="59.32499980926514" fill="rgb(0, 0, 0)" stroke="rgb(60, 60, 60)" stroke-width="1px" opacity="0.25"></line><line x1="0" y1="39.549999872843415" x2="278.58399963378906" y2="39.549999872843415" fill="rgb(0, 0, 0)" stroke="rgb(60, 60, 60)" stroke-width="1px" opacity="0.25"></line><line x1="0" y1="19.77499993642172" x2="278.58399963378906" y2="19.77499993642172" fill="rgb(0, 0, 0)" stroke="rgb(60, 60, 60)" stroke-width="1px" opacity="0.25"></line><line x1="0" y1="0" x2="278.58399963378906" y2="0" fill="rgb(0, 0, 0)" stroke="rgb(60, 60, 60)" stroke-width="1px" opacity="0.25"></line></g></g></g><g><g><line x1="0" y1="296.6249990463257" x2="278.58399963378906" y2="296.6249990463257" fill="rgb(0, 0, 0)" stroke="rgb(153, 153, 153)" stroke-width="1.5px"></line></g></g><g><g><line x1="34.82299995422363" y1="0" x2="34.82299995422363" y2="177.9749994277954" fill="rgb(0, 0, 0)" stroke="rgb(153, 153, 153)" stroke-width="1.5px"></line></g></g><g><g><g><g><g><path style="fill: none;" stroke="rgb(51, 187, 238)" stroke-width="2px" d="M41.78759994506836,178.36259245151837L42.48405994415283,173.1261686928002L43.18051994323731,169.06834427299657L43.876979942321775,160.84193470026017L44.57343994140625,156.75247445969262L45.269899940490724,160.49390531140165L45.9663599395752,151.71379815438587L46.66281993865967,147.07062854272047L47.35927993774414,151.61096995008467L48.05573993682861,137.10402487841768L48.75219993591308,135.5536692850717L49.44865993499756,130.60201506050265L50.14511993408203,133.97166608414332L50.8415799331665,131.2427229387013L51.538039932250975,135.46665899115246L52.23449993133545,130.6336508812666L52.930959930419924,125.3102168286292L53.6274199295044,129.84264928080242L54.323879928588866,125.78482486099878L55.02033992767334,131.08452026124476L55.716799926757815,126.8764021191756L56.41325992584229,125.91137993087293L57.10971992492676,125.27067205267429L57.806179924011225,133.2676747775984L58.5026399230957,120.54049214708962L59.199099922180174,124.28983195398965L59.89555992126465,123.72030467250984L60.592019920349124,117.66125527938205L61.28847991943359,122.5970915935691L61.984939918518066,125.77690411898932L62.68139991760254,129.91384166433969L63.377859916687015,121.52133224577426L64.07431991577148,123.1112444018936L64.77077991485596,122.2569593730831L65.46723991394043,120.07380485672948L66.1636999130249,121.79027208272296L66.86015991210937,128.2290102591101L67.55661991119385,126.62328019260883L68.25307991027832,143.27383500467457L68.9495399093628,125.62662218354224L69.64599990844727,125.88765306529997L70.34245990753173,125.51588502405005L71.03891990661621,125.72154143265246L71.73537990570068,126.7023815313371L72.43183990478516,132.38175392802398L73.12829990386963,118.19913495327947L73.8247599029541,125.5079642820406L74.52121990203858,129.92965957472165L75.21767990112305,115.68374538481237L75.91413990020753,132.03372453916546L76.610599899292,120.12916754306634L77.30705989837647,129.92175061953066L78.00351989746095,134.1773342795642L78.6999798965454,128.94091052084605L79.39643989562988,129.5737094438537L80.09289989471435,136.6452465432485L80.78935989379882,130.78394460353212L81.4858198928833,125.41304503293038L82.18227989196777,128.78270784338952L82.87873989105225,121.60043358450253L83.57519989013672,126.95550345790384L84.27165988922118,125.34186443621157L84.96811988830567,119.92351113446395L85.66457988739013,120.07380485672948L86.36103988647461,126.22778528578597L87.05749988555908,129.44715437397954L87.75395988464355,144.36541226285138L88.45041988372803,124.86725640384198L89.1468798828125,127.79395878951391L89.84333988189698,121.76654521715002L90.53979988098145,133.7185441575766L91.23625988006592,129.03582976995625L91.9327198791504,120.8331588496113L92.62917987823486,129.0200118595743L93.32563987731935,121.3789474786997L94.02209987640381,120.5958548334265L94.71855987548828,134.6677484354973L95.41501987457276,126.5283609434986L96.11147987365722,119.75739950181642L96.8079398727417,137.89502647888185L97.50439987182617,135.80679121163843L98.20085987091063,141.25678033415L98.89731986999512,133.07783627937795L99.59377986907958,135.13443572585743L100.29023986816406,118.38106449630894L100.98669986724853,117.1075459082842L101.683159866333,127.84142430747826L102.37961986541748,120.75405751088302L103.07607986450195,137.68146111508844L103.77253986358643,130.67319565722147L104.4689998626709,120.33482395166875L105.16545986175537,124.26610508841671L105.86191986083985,123.16660708823045L106.55837985992432,121.97220162575243L107.2548398590088,115.88150462504225L107.95129985809326,119.00595446412561L108.64775985717773,123.81522392162006L109.34421985626221,115.3277952539444L110.04067985534668,122.23323250751017L110.73713985443116,128.7510720226256L111.43359985351563,123.67285094136398L112.1300598526001,119.38563146056651L112.82651985168458,131.4167435265398L113.52297985076903,120.69869482454615L114.21943984985352,120.72242169011909L114.91589984893798,121.59252462931154L115.61235984802245,129.87428510156633L116.30881984710693,129.75563898688316L117.0052798461914,117.62960767179968L117.70173984527588,129.0674655907202L118.39819984436035,125.0650038572534L119.09465984344482,119.36190459499358L119.7911198425293,125.21529757951896L120.48757984161377,129.19403244741278L121.18403984069825,119.96305591041883L121.88049983978271,123.96551764388562L122.57695983886718,121.89310028702417L123.27341983795166,117.49514364673453L123.96987983703613,120.36647155925114L124.66633983612061,132.80098748723825L125.36279983520508,116.2137161035188L126.05925983428955,122.34396966700237L126.75571983337403,115.2249670496432L127.4521798324585,121.17329107009728L128.14863983154297,133.41005954467298L128.84509983062745,127.61202924648444L129.54155982971193,117.87482064317544L130.23801982879638,130.15113389370603L130.93447982788086,120.16081515064874L131.63093982696532,126.01420813517412L132.3273998260498,121.76654521715002L133.02385982513428,118.91894417020637L133.72031982421873,119.219519827919L134.41677982330322,125.45260159570375L135.1132398223877,128.41884875733058L135.80969982147215,120.35856260406015L136.50615982055663,123.98924450945856L137.20261981964111,120.24782544456798L137.8990798187256,122.60500054876009L138.59553981781005,114.97975407826743L139.29199981689453,126.03002604555607L139.98845981597898,116.10297894402663L140.68491981506347,123.01632515278337L141.38137981414795,121.71907969918568L142.07783981323243,114.41023858360609L142.77429981231688,129.07537454591116L143.47075981140136,138.85213971199354L144.16721981048582,109.7196152407948L144.86367980957033,114.58425917144457L145.56013980865478,115.24869391521614L146.25659980773926,123.39600214922427L146.95305980682372,125.65034904911518L147.6495198059082,110.8507372749265L148.34597980499268,126.62328019260883L149.04243980407716,113.11300491682687L149.73889980316162,112.31409436117171L150.4353598022461,108.76250200768311L151.13181980133055,108.8732391671753L151.82827980041506,115.20914913926126L152.5247397994995,128.0628986264626L153.221199798584,112.30618540598073L153.91765979766845,109.6563318124485L154.61411979675293,129.6765376481549L155.3105797958374,122.73155561863423L156.0070397949219,111.11176815668425L156.70349979400635,111.77621468727428L157.3999597930908,110.79537458858965L158.09641979217528,112.55138659053803L158.79287979125976,113.95146024843693L159.48933979034425,105.83579962201118L160.1857997894287,111.22250531617642L160.88225978851318,111.57845544704438L161.57871978759763,108.54892485707126L162.27517978668214,121.06255391060509L162.9716397857666,112.33782122674465L163.66809978485108,102.12600459106606L164.36455978393553,111.38861694882394L165.06101978302001,112.91524567659697L165.7574797821045,110.23375626230082L166.45393978118898,111.33325426248707L167.15039978027343,108.30372367251394L167.8468597793579,114.58425917144457L168.54331977844237,113.18418551354569L169.23977977752688,109.53767391094686L169.93623977661133,101.13725553719046L170.6326997756958,100.41744632026355L171.32915977478027,99.72928471091905L172.02561977386475,110.92983861365478L172.72207977294923,106.2075676632611L173.4185397720337,101.13725553719046L174.11499977111816,103.68428092642148L174.81145977020262,101.14516449238143L175.5079197692871,100.98697360174336L176.20437976837158,102.40286517002421L176.90083976745606,105.64596112379073L177.59729976654052,95.68727820149736L178.293759765625,102.86164350519337L178.99021976470945,99.41287935600599L179.68667976379396,97.4907557214101L180.38313976287841,97.84669406545959L181.0795997619629,100.4016284098816L181.77605976104735,97.75178660316783L182.47251976013183,92.65773582470577L183.1689797592163,98.22637106190048L183.8654397583008,100.14850648331483L184.56189975738525,104.58601968637784L185.25835975646973,99.22304085778553L185.95481975555418,98.87499968210855L186.6512797546387,91.38424081031796L187.34773975372315,91.70854333360353L188.04419975280763,88.33095978113495L188.74065975189208,94.57985945930166L189.43711975097656,94.70642631599426L190.13357975006105,93.51991802188877L190.83003974914553,90.7909866632652L191.52649974822998,88.51290111098288L192.22295974731443,95.8454808789539L192.91941974639892,89.33555031902945L193.6158797454834,84.15448924664815L194.31233974456788,88.00665725784938L195.00879974365233,90.13446087468462L195.7052597427368,91.29723051639871L196.40171974182127,91.00454024024013L197.09817974090578,89.1219731684176L197.79463973999023,87.69817264494577L198.4910997390747,81.24361655817665L199.18755973815917,83.60079166236876L199.88401973724365,85.27770232558889L200.58047973632813,83.25275048669178L201.2769397354126,76.59253799132026L201.97339973449706,76.53716351816493L202.66985973358155,82.18488830726945L203.366319732666,76.50552769740102L204.0627797317505,73.10422906617798L204.75923973083496,71.56175885438604L205.45569972991944,76.76655857915875L206.1521597290039,71.83071047815322L206.84861972808838,74.04550081527077L207.54507972717286,69.90858684355733L208.24153972625734,75.5879710270627L208.9379997253418,69.48935328434307L209.63445972442625,69.20458375019393L210.33091972351073,69.90066610154788L211.0273797225952,63.620130602617266L211.7238397216797,64.88572844863256L212.42029972076415,66.38072135564167L213.11675971984863,65.84284168174425L213.81321971893308,65.11512350962637L214.5096797180176,60.51941941592531L215.20613971710205,59.53856753042221L215.90259971618653,56.263835755891776L216.59905971527098,60.55105523668924L217.29551971435546,59.19844709675469L217.99197971343995,55.10896328255019L218.68843971252443,53.52696008162184L219.38489971160888,52.09526238977749L220.08135971069336,51.652290178171825L220.77781970977782,50.74265424984294L221.47427970886233,47.143596378390015L222.17073970794678,47.83178156137143L222.86719970703126,49.40586402029035L223.56365970611571,43.85304669347761L224.2601197052002,44.280177421064394L224.95657970428468,41.81225337056162L225.65303970336916,41.48003010526659L226.3494997024536,40.6890402916209L227.04595970153807,36.19616440222103L227.74241970062255,37.548772542155575L228.43887969970703,35.84812322654406L229.1353396987915,31.940580742187507L229.83179969787597,30.07383158074694L230.52825969696045,29.441020870920823L231.2247196960449,25.153801390123363L231.9211796951294,25.509739734172854L232.61763969421386,22.314121085189157L233.31409969329835,20.36825879820185L234.0105596923828,21.07223831792831L234.70701969146728,17.995242209990835L235.40347969055176,16.76920092674891L236.09993968963624,14.396207912174845L236.7963996887207,12.371232499640797L237.49285968780518,11.524868212839777L238.18931968688963,9.776765166082356L238.88577968597414,9.06486490434645L239.5822396850586,6.937061287511227L240.27869968414308,5.362978828592304L240.97515968322753,5.007040484542813L241.671619682312,4.1527554557323185L242.3680796813965,3.9629169575118794L243.06453968048098,3.3538449000771777" fill="none"></path></g><g><path style="fill: none;" stroke="rgb(0, 119, 187)" stroke-width="2px" d="M41.09113994598388,188.33710507101216L41.78759994506836,175.72064781317712L42.48405994415283,171.0141947731654L43.18051994323731,164.33024362540246L43.876979942321775,153.3749026940425L44.57343994140625,153.17715524063107L45.269899940490724,152.10930484802722L45.9663599395752,147.8379032776117L46.66281993865967,146.37454619136653L47.35927993774414,148.78709576871395L48.05573993682861,133.36259402670862L48.75219993591308,133.16484657329718L49.44865993499756,126.67865466576416L50.14511993408203,129.48669914993445L50.8415799331665,127.27189702599844L51.538039932250975,131.8201473885536L52.23449993133545,125.57124771038691L52.930959930419924,121.85354372425081L53.6274199295044,126.24360319616792L54.323879928588866,118.37314375429949L55.02033992767334,125.8480965025266L55.716799926757815,123.43554692517918L56.41325992584229,124.89890401142436L57.10971992492676,119.04549924008052L57.806179924011225,127.98379728773435L58.5026399230957,116.15835341718196L59.199099922180174,119.44099414690336L59.89555992126465,119.28280325626531L60.592019920349124,112.00559796144962L61.28847991943359,116.47474698527654L61.984939918518066,121.6162514948845L62.68139991760254,127.70694849559466L63.377859916687015,117.81944617002011L64.07431991577148,117.18664724701246L64.77077991485596,119.00595446412561L65.46723991394043,114.89274378434818L66.1636999130249,112.63839688445728L66.86015991210937,119.48055070967673L67.55661991119385,118.37314375429949L68.25307991027832,133.52079670416515L68.9495399093628,117.46349603915215L69.64599990844727,115.09050302457808L70.34245990753173,115.96059417695206L71.03891990661621,119.91560217927295L71.73537990570068,117.85900273279347L72.43183990478516,131.0687023508628L73.12829990386963,112.12424407613278L73.8247599029541,120.23199574736756L74.52121990203858,117.97764884747664L75.21767990112305,108.64384410618148L75.91413990020753,122.13040430320896L76.610599899292,115.40689659267267L77.30705989837647,125.37350025697549L78.00351989746095,126.6390981029908L78.6999798965454,123.67285094136398L79.39643989562988,123.71239571731886L80.09289989471435,132.53204765028954L80.78935989379882,123.75195228009223L81.4858198928833,116.15835341718196L82.18227989196777,124.14744718691509L82.87873989105225,114.29950142411391L83.57519989013672,123.19825469581284L84.27165988922118,120.07380485672948L84.96811988830567,115.24869391521614L85.66457988739013,113.15254969278176L86.36103988647461,117.97764884747664L87.05749988555908,123.75195228009223L87.75395988464355,138.1086036294937L88.45041988372803,119.24324669349194L89.1468798828125,118.2940542023897L89.84333988189698,117.58215394065378L90.53979988098145,126.16450185743966L91.23625988006592,123.43554692517918L91.9327198791504,115.16960436330635L92.62917987823486,117.70080005533694L93.32563987731935,112.51975076977412L94.02209987640381,114.85319900839329L94.71855987548828,126.71819944171905L95.41501987457276,119.36190459499358L96.11147987365722,111.33325426248707L96.8079398727417,127.6278471568664L97.50439987182617,125.8480965025266L98.20085987091063,134.6677484354973L98.89731986999512,122.92139411685469L99.59377986907958,132.21565408219493L100.29023986816406,114.77409766966503L100.98669986724853,110.62135400075117L101.683159866333,121.65579627083937L102.37961986541748,115.01140168584982L103.07607986450195,131.93880529005526L103.77253986358643,123.5542048266808L104.4689998626709,117.7799013940652L105.16545986175537,113.62714593833289L105.86191986083985,116.7911523401896L106.55837985992432,116.7911523401896L107.2548398590088,109.23709825323424L107.95129985809326,113.0339035780986L108.64775985717773,117.34484992446899L109.34421985626221,111.01684890757402L110.04067985534668,115.8419480622689L110.73713985443116,119.55965204840501L111.43359985351563,115.80240328631399L112.1300598526001,113.587601162378L112.82651985168458,121.73489760956764L113.52297985076903,112.8361443378687L114.21943984985352,112.75705478595891L114.91589984893798,112.8361443378687L115.61235984802245,120.42975498759745L116.30881984710693,128.0628986264626L117.0052798461914,112.91524567659697L117.70173984527588,120.15289440863928L118.39819984436035,119.67829816308816L119.09465984344482,113.82490517856279L119.7911198425293,117.89854750874838L120.48757984161377,121.89310028702417L121.18403984069825,118.45224509302776L121.88049983978271,119.63875338713326L122.57695983886718,115.76284672354063L123.27341983795166,113.27119580746492L123.96987983703613,112.59885210850237L124.66633983612061,124.42429597905478L125.36279983520508,107.97150040721893L126.05925983428955,116.63294966273307L126.75571983337403,108.56475455427169L127.4521798324585,118.84775178666908L128.14863983154297,120.07380485672948L128.84509983062745,119.75739950181642L129.54155982971193,115.24869391521614L130.23801982879638,119.12460057880878L130.93447982788086,111.72874916930994L131.63093982696532,116.5538483240048L132.3273998260498,110.85864623011749L133.02385982513428,110.85864623011749L133.72031982421873,115.05094646180471L134.41677982330322,121.06255391060509L135.1132398223877,121.06255391060509L135.80969982147215,119.20370191753705L136.50615982055663,120.94389600910347L137.20261981964111,114.3390462000688L137.8990798187256,115.72330194758572L138.59553981781005,112.91524567659697L139.29199981689453,120.03424829395613L139.98845981597898,109.63260494687555L140.68491981506347,116.90979845487277L141.38137981414795,115.64420060885746L142.07783981323243,108.68340066895485L142.77429981231688,117.54259737788041L143.47075981140136,127.27189702599844L144.16721981048582,104.25379642108282L144.86367980957033,109.11845213855106L145.56013980865478,114.73455289371012L146.25659980773926,120.70660377973715L146.95305980682372,118.80819522389572L147.6495198059082,106.03354707542262L148.34597980499268,116.5538483240048L149.04243980407716,106.7850038999319L149.73889980316162,110.18630253115494L150.4353598022461,105.55895082987149L151.13181980133055,103.85830151425996L151.82827980041506,110.2654038698832L152.5247397994995,119.12460057880878L153.221199798584,105.63805216859976L153.91765979766845,104.96569668281874L154.61411979675293,117.54259737788041L155.3105797958374,117.34484992446899L156.0070397949219,107.89239906849066L156.70349979400635,107.49690416166781L157.3999597930908,105.0052532455921L158.09641979217528,111.17505158503054L158.79287979125976,110.74000011543433L159.48933979034425,99.54735516788958L160.1857997894287,105.55895082987149L160.88225978851318,107.37824626016618L161.57871978759763,103.93740285298823L162.27517978668214,116.19789819313685L162.9716397857666,108.05060174594719L163.66809978485108,99.27049458893141L164.36455978393553,108.84160334641138L165.06101978302001,108.3274505380869L165.7574797821045,106.03354707542262L166.45393978118898,106.98275135334332L167.15039978027343,103.5418961593469L167.8468597793579,109.79079583751361L168.54331977844237,104.49110043726762L169.23977977752688,107.33870148421127L169.93623977661133,97.80716107632315L170.6326997756958,100.41744632026355L171.32915977478027,98.79591013019876L172.02561977386475,103.22550259125231L172.72207977294923,103.34414870593548L173.4185397720337,99.31005115170478L174.11499977111816,100.77339645113152L174.81145977020262,93.61484905781745L175.5079197692871,97.01614768904051L176.20437976837158,98.75635356742539L176.90083976745606,103.22550259125231L177.59729976654052,94.12899007932349L178.293759765625,98.95410102083683L178.99021976470945,96.81838844881061L179.68667976379396,94.20810320487021L180.38313976287841,96.73929889690082L181.0795997619629,101.16890314477283L181.77605976104735,95.59234716556868L182.47251976013183,94.5640415489197L183.1689797592163,93.89169784995715L183.8654397583008,99.62644471979938L184.56189975738525,105.99400229946771L185.25835975646973,97.25343991840683L185.95481975555418,96.81838844881061L186.6512797546387,92.70518955585165L187.34773975372315,88.07784964138666L188.04419975280763,87.7614442864736L188.74065975189208,93.29844370290441L189.43711975097656,89.77849895699819L190.13357975006105,89.2248013727188L190.83003974914553,86.53540300323168L191.52649974822998,88.78974990312258L192.22295974731443,94.92000346660613L192.91941974639892,85.7048566268126L193.6158797454834,85.62574350126586L194.31233974456788,84.75564056207342L195.00879974365233,93.49620294313429L195.7052597427368,89.81805551977156L196.40171974182127,90.80680457364717L197.09817974090578,91.91419974220594L197.79463973999023,89.3038909246286L198.4910997390747,83.92509418565433L199.18755973815917,84.71610757293699L199.88401973724365,87.88009040115678L200.58047973632813,82.26400143281619L201.2769397354126,80.87975747211772L201.97339973449706,81.7103038485368L202.66985973358155,83.33184003860158L203.366319732666,78.07168941431048L204.0627797317505,77.5179918300311L204.75923973083496,76.05465831742283L205.45569972991944,80.99840358680088L206.1521597290039,77.35978915257458L206.84861972808838,78.30900521731375L207.54507972717286,76.4501532242457L208.24153972625734,79.25819770841599L208.9379997253418,74.86815002331734L209.63445972442625,77.2411430378914L210.33091972351073,75.97554519187611L211.0273797225952,71.82278973614378L211.7238397216797,74.03760364689826L212.42029972076415,70.6363050156752L213.11675971984863,75.8964556399663L213.81321971893308,70.51765890099205L214.5096797180176,67.59094472850165L215.20613971710205,69.33115060688654L215.90259971618653,68.65880690792399L216.59905971527098,66.48354955994289L217.29551971435546,68.85654257451695L217.99197971343995,67.94690664618807L218.68843971252443,65.61344662075044L219.38489971160888,63.16134048062963L220.08135971069336,64.6642541296482L220.77781970977782,63.833707753229106L221.47427970886233,59.443660068130455L222.17073970794678,61.460691165018105L222.86719970703126,65.53435706884063L223.56365970611571,57.62434106419883L224.2601197052002,58.41535445148149L224.95657970428468,59.443660068130455L225.65303970336916,60.31373943368597L226.3494997024536,57.50569494951567L227.04595970153807,54.30215555852253L227.74241970062255,57.54525151228904L228.43887969970703,55.923691748587316L229.1353396987915,55.211791486851396L229.83179969787597,53.07609070164365L230.52825969696045,52.56194968013763L231.2247196960449,47.46000173330307L231.9211796951294,49.27929716359776L232.61763969421386,47.26224249307316L233.31409969329835,47.85549664012592L234.0105596923828,50.58445157238641L234.70701969146728,46.15484732451438L235.40347969055176,49.27929716359776L236.09993968963624,46.51080924220082L236.7963996887207,43.26768971479737L237.49285968780518,45.640706303008386L238.18931968688963,43.623651632483785L238.88577968597414,44.375108456993075L239.5822396850586,41.883445754098915L240.27869968414308,41.725243076642386L240.97515968322753,41.44839428450268L241.671619682312,41.09245594045319L242.3680796813965,41.40886129536625L243.06453968048098,41.64615352473257" fill="none"></path></g></g></g></g></g></g><g transform="translate(51, 177)" clip-path="url(#clip_1)"><clipPath id="clip_1"><rect width="278" height="22"></rect></clipPath><g><g><line x1="0" y1="0" x2="0" y2="5" style="visibility: inherit;" fill="rgb(0, 0, 0)" stroke="rgb(204, 204, 204)" stroke-width="1px"></line><line x1="34.82299995422363" y1="0" x2="34.82299995422363" y2="5" style="visibility: inherit;" fill="rgb(0, 0, 0)" stroke="rgb(204, 204, 204)" stroke-width="1px"></line><line x1="69.64599990844727" y1="0" x2="69.64599990844727" y2="5" style="visibility: inherit;" fill="rgb(0, 0, 0)" stroke="rgb(204, 204, 204)" stroke-width="1px"></line><line x1="104.4689998626709" y1="0" x2="104.4689998626709" y2="5" style="visibility: inherit;" fill="rgb(0, 0, 0)" stroke="rgb(204, 204, 204)" stroke-width="1px"></line><line x1="139.29199981689453" y1="0" x2="139.29199981689453" y2="5" style="visibility: inherit;" fill="rgb(0, 0, 0)" stroke="rgb(204, 204, 204)" stroke-width="1px"></line><line x1="174.11499977111816" y1="0" x2="174.11499977111816" y2="5" style="visibility: inherit;" fill="rgb(0, 0, 0)" stroke="rgb(204, 204, 204)" stroke-width="1px"></line><line x1="208.9379997253418" y1="0" x2="208.9379997253418" y2="5" style="visibility: inherit;" fill="rgb(0, 0, 0)" stroke="rgb(204, 204, 204)" stroke-width="1px"></line><line x1="243.76099967956543" y1="0" x2="243.76099967956543" y2="5" style="visibility: inherit;" fill="rgb(0, 0, 0)" stroke="rgb(204, 204, 204)" stroke-width="1px"></line><line x1="278.58399963378906" y1="0" x2="278.58399963378906" y2="5" style="visibility: inherit;" fill="rgb(0, 0, 0)" stroke="rgb(204, 204, 204)" stroke-width="1px"></line></g><g transform="translate(0, 8)"><text style="text-anchor: middle; visibility: hidden; font-family: &quot;Helvetica Neue&quot;, sans-serif; font-size: 12px; font-weight: 200;" x="0" y="0" dx="0em" dy="0.95em" fill="rgb(50, 49, 63)" stroke="none" stroke-width="1px">-50</text><text style="text-anchor: middle; visibility: inherit; font-family: &quot;Helvetica Neue&quot;, sans-serif; font-size: 12px; font-weight: 200;" x="34.82299995422363" y="0" dx="0em" dy="0.95em" fill="rgb(50, 49, 63)" stroke="none" stroke-width="1px">0</text><text style="text-anchor: middle; visibility: inherit; font-family: &quot;Helvetica Neue&quot;, sans-serif; font-size: 12px; font-weight: 200;" x="69.64599990844727" y="0" dx="0em" dy="0.95em" fill="rgb(50, 49, 63)" stroke="none" stroke-width="1px">50</text><text style="text-anchor: middle; visibility: inherit; font-family: &quot;Helvetica Neue&quot;, sans-serif; font-size: 12px; font-weight: 200;" x="104.4689998626709" y="0" dx="0em" dy="0.95em" fill="rgb(50, 49, 63)" stroke="none" stroke-width="1px">100</text><text style="text-anchor: middle; visibility: inherit; font-family: &quot;Helvetica Neue&quot;, sans-serif; font-size: 12px; font-weight: 200;" x="139.29199981689453" y="0" dx="0em" dy="0.95em" fill="rgb(50, 49, 63)" stroke="none" stroke-width="1px">150</text><text style="text-anchor: middle; visibility: inherit; font-family: &quot;Helvetica Neue&quot;, sans-serif; font-size: 12px; font-weight: 200;" x="174.11499977111816" y="0" dx="0em" dy="0.95em" fill="rgb(50, 49, 63)" stroke="none" stroke-width="1px">200</text><text style="text-anchor: middle; visibility: inherit; font-family: &quot;Helvetica Neue&quot;, sans-serif; font-size: 12px; font-weight: 200;" x="208.9379997253418" y="0" dx="0em" dy="0.95em" fill="rgb(50, 49, 63)" stroke="none" stroke-width="1px">250</text><text style="text-anchor: middle; visibility: inherit; font-family: &quot;Helvetica Neue&quot;, sans-serif; font-size: 12px; font-weight: 200;" x="243.76099967956543" y="0" dx="0em" dy="0.95em" fill="rgb(50, 49, 63)" stroke="none" stroke-width="1px">300</text><text style="text-anchor: middle; visibility: hidden; font-family: &quot;Helvetica Neue&quot;, sans-serif; font-size: 12px; font-weight: 200;" x="278.58399963378906" y="0" dx="0em" dy="0.95em" fill="rgb(50, 49, 63)" stroke="none" stroke-width="1px">350</text></g><line x1="0" y1="0" x2="278.58399963378906" y2="0" fill="rgb(0, 0, 0)" stroke="rgb(204, 204, 204)" stroke-width="1px"></line></g></g></g></g></svg>