<svg viewBox="0 0 330 200" xmlns="http://www.w3.org/2000/svg"><g><g><g><g><g><line x1="41.0620002746582" y1="177.9749994277954" x2="36.0620002746582" y2="177.9749994277954" style="visibility: inherit;" fill="rgb(0, 0, 0)" stroke="rgb(204, 204, 204)" stroke-width="1px"></line><line x1="41.0620002746582" y1="155.72812449932096" x2="36.0620002746582" y2="155.72812449932096" style="visibility: inherit;" fill="rgb(0, 0, 0)" stroke="rgb(204, 204, 204)" stroke-width="1px"></line><line x1="41.0620002746582" y1="133.48124957084656" x2="36.0620002746582" y2="133.48124957084656" style="visibility: inherit;" fill="rgb(0, 0, 0)" stroke="rgb(204, 204, 204)" stroke-width="1px"></line><line x1="41.0620002746582" y1="111.23437464237212" x2="36.0620002746582" y2="111.23437464237212" style="visibility: inherit;" fill="rgb(0, 0, 0)" stroke="rgb(204, 204, 204)" stroke-width="1px"></line><line x1="41.0620002746582" y1="88.98749971389769" x2="36.0620002746582" y2="88.98749971389769" style="visibility: inherit;" fill="rgb(0, 0, 0)" stroke="rgb(204, 204, 204)" stroke-width="1px"></line><line x1="41.0620002746582" y1="66.74062478542328" x2="36.0620002746582" y2="66.74062478542328" style="visibility: inherit;" fill="rgb(0, 0, 0)" stroke="rgb(204, 204, 204)" stroke-width="1px"></line><line x1="41.0620002746582" y1="44.493749856948824" x2="36.0620002746582" y2="44.493749856948824" style="visibility: inherit;" fill="rgb(0, 0, 0)" stroke="rgb(204, 204, 204)" stroke-width="1px"></line><line x1="41.0620002746582" y1="22.246874928474455" x2="36.0620002746582" y2="22.246874928474455" style="visibility: inherit;" fill="rgb(0, 0, 0)" stroke="rgb(204, 204, 204)" stroke-width="1px"></line><line x1="41.0620002746582" y1="0" x2="36.0620002746582" y2="0" style="visibility: inherit;" fill="rgb(0, 0, 0)" stroke="rgb(204, 204, 204)" stroke-width="1px"></line></g><g transform="translate(31.062000274658203, 0)"><text style="text-anchor: end; visibility: hidden; font-family: &quot;Helvetica Neue&quot;, sans-serif; font-size: 12px; font-weight: 200;" x="0" y="177.9749994277954" dx="0em" dy="0.3em" fill="rgb(50, 49, 63)" stroke="none" stroke-width="1px">1.4</text><text style="text-anchor: end; visibility: inherit; font-family: &quot;Helvetica Neue&quot;, sans-serif; font-size: 12px; font-weight: 200;" x="0" y="155.72812449932096" dx="0em" dy="0.3em" fill="rgb(50, 49, 63)" stroke="none" stroke-width="1px">1.6</text><text style="text-anchor: end; visibility: hidden; font-family: &quot;Helvetica Neue&quot;, sans-serif; font-size: 12px; font-weight: 200;" x="0" y="133.48124957084656" dx="0em" dy="0.3em" fill="rgb(50, 49, 63)" stroke="none" stroke-width="1px">1.8</text><text style="text-anchor: end; visibility: inherit; font-family: &quot;Helvetica Neue&quot;, sans-serif; font-size: 12px; font-weight: 200;" x="0" y="111.23437464237212" dx="0em" dy="0.3em" fill="rgb(50, 49, 63)" stroke="none" stroke-width="1px">2</text><text style="text-anchor: end; visibility: hidden; font-family: &quot;Helvetica Neue&quot;, sans-serif; font-size: 12px; font-weight: 200;" x="0" y="88.98749971389769" dx="0em" dy="0.3em" fill="rgb(50, 49, 63)" stroke="none" stroke-width="1px">2.2</text><text style="text-anchor: end; visibility: inherit; font-family: &quot;Helvetica Neue&quot;, sans-serif; font-size: 12px; font-weight: 200;" x="0" y="66.74062478542328" dx="0em" dy="0.3em" fill="rgb(50, 49, 63)" stroke="none" stroke-width="1px">2.4</text><text style="text-anchor: end; visibility: hidden; font-family: &quot;Helvetica Neue&quot;, sans-serif; font-size: 12px; font-weight: 200;" x="0" y="44.493749856948824" dx="0em" dy="0.3em" fill="rgb(50, 49, 63)" stroke="none" stroke-width="1px">2.6</text><text style="text-anchor: end; visibility: inherit; font-family: &quot;Helvetica Neue&quot;, sans-serif; font-size: 12px; font-weight: 200;" x="0" y="22.246874928474455" dx="0em" dy="0.3em" fill="rgb(50, 49, 63)" stroke="none" stroke-width="1px">2.8</text><text style="text-anchor: end; visibility: hidden; font-family: &quot;Helvetica Neue&quot;, sans-serif; font-size: 12px; font-weight: 200;" x="0" y="0" dx="0em" dy="0.3em" fill="rgb(50, 49, 63)" stroke="none" stroke-width="1px">3</text></g><line x1="41.0620002746582" y1="0" x2="41.0620002746582" y2="177.9749994277954" fill="rgb(0, 0, 0)" stroke="rgb(204, 204, 204)" stroke-width="1px"></line></g></g><g transform="translate(41, 0)" clip-path="url(#clip_0)"><clipPath id="clip_0"><rect width="288" height="177"></rect></clipPath><g><g><g><line x1="0" y1="0" x2="0" y2="177.9749994277954" fill="rgb(0, 0, 0)" stroke="rgb(60, 60, 60)" stroke-width="1px" opacity="0.25"></line><line x1="36.117249965667725" y1="0" x2="36.117249965667725" y2="177.9749994277954" fill="rgb(0, 0, 0)" stroke="rgb(60, 60, 60)" stroke-width="1px" opacity="0.25"></line><line x1="72.23449993133545" y1="0" x2="72.23449993133545" y2="177.9749994277954" fill="rgb(0, 0, 0)" stroke="rgb(60, 60, 60)" stroke-width="1px" opacity="0.25"></line><line x1="108.35174989700317" y1="0" x2="108.35174989700317" y2="177.9749994277954" fill="rgb(0, 0, 0)" stroke="rgb(60, 60, 60)" stroke-width="1px" opacity="0.25"></line><line x1="144.4689998626709" y1="0" x2="144.4689998626709" y2="177.9749994277954" fill="rgb(0, 0, 0)" stroke="rgb(60, 60, 60)" stroke-width="1px" opacity="0.25"></line><line x1="180.58624982833862" y1="0" x2="180.58624982833862" y2="177.9749994277954" fill="rgb(0, 0, 0)" stroke="rgb(60, 60, 60)" stroke-width="1px" opacity="0.25"></line><line x1="216.70349979400635" y1="0" x2="216.70349979400635" y2="177.9749994277954" fill="rgb(0, 0, 0)" stroke="rgb(60, 60, 60)" stroke-width="1px" opacity="0.25"></line><line x1="252.82074975967407" y1="0" x2="252.82074975967407" y2="177.9749994277954" fill="rgb(0, 0, 0)" stroke="rgb(60, 60, 60)" stroke-width="1px" opacity="0.25"></line><line x1="288.9379997253418" y1="0" x2="288.9379997253418" y2="177.9749994277954" fill="rgb(0, 0, 0)" stroke="rgb(60, 60, 60)" stroke-width="1px" opacity="0.25"></line></g><g><line x1="0" y1="177.9749994277954" x2="288.9379997253418" y2="177.9749994277954" fill="rgb(0, 0, 0)" stroke="rgb(60, 60, 60)" stroke-width="1px" opacity="0.25"></line><line x1="0" y1="155.72812449932096" x2="288.9379997253418" y2="155.72812449932096" fill="rgb(0, 0, 0)" stroke="rgb(60, 60, 60)" stroke-width="1px" opacity="0.25"></line><line x1="0" y1="133.48124957084656" x2="288.9379997253418" y2="133.48124957084656" fill="rgb(0, 0, 0)" stroke="rgb(60, 60, 60)" stroke-width="1px" opacity="0.25"></line><line x1="0" y1="111.23437464237212" x2="288.9379997253418" y2="111.23437464237212" fill="rgb(0, 0, 0)" stroke="rgb(60, 60, 60)" stroke-width="1px" opacity="0.25"></line><line x1="0" y1="88.98749971389769" x2="288.9379997253418" y2="88.98749971389769" fill="rgb(0, 0, 0)" stroke="rgb(60, 60, 60)" stroke-width="1px" opacity="0.25"></line><line x1="0" y1="66.74062478542328" x2="288.9379997253418" y2="66.74062478542328" fill="rgb(0, 0, 0)" stroke="rgb(60, 60, 60)" stroke-width="1px" opacity="0.25"></line><line x1="0" y1="44.493749856948824" x2="288.9379997253418" y2="44.493749856948824" fill="rgb(0, 0, 0)" stroke="rgb(60, 60, 60)" stroke-width="1px" opacity="0.25"></line><line x1="0" y1="22.246874928474455" x2="288.9379997253418" y2="22.246874928474455" fill="rgb(0, 0, 0)" stroke="rgb(60, 60, 60)" stroke-width="1px" opacity="0.25"></line><line x1="0" y1="0" x2="288.9379997253418" y2="0" fill="rgb(0, 0, 0)" stroke="rgb(60, 60, 60)" stroke-width="1px" opacity="0.25"></line></g></g></g><g><g><line x1="0" y1="333.7031239271164" x2="288.9379997253418" y2="333.7031239271164" fill="rgb(0, 0, 0)" stroke="rgb(153, 153, 153)" stroke-width="1.5px"></line></g></g><g><g><line x1="36.117249965667725" y1="0" x2="36.117249965667725" y2="177.9749994277954" fill="rgb(0, 0, 0)" stroke="rgb(153, 153, 153)" stroke-width="1.5px"></line></g></g><g><g><g><g><g><path style="fill: none;" stroke="rgb(238, 51, 119)" stroke-width="2px" d="M43.34069995880127,-4.6538425757867685L44.063044958114624,3.5188249981518993L44.78538995742798,11.15299703692827L45.50773495674133,20.698118806394348L46.23007995605469,25.041726426735238L46.952424955368045,25.420516465086536L47.6747699546814,34.460664411108866L48.39711495399475,38.818725617594225L49.11945995330811,31.82064397088226L49.84180495262146,49.54349869952296L50.56414995193481,52.45720906454025L51.286494951248166,53.44652388570225L52.00883995056152,51.29644023526083L52.73118494987488,56.944848659836396L53.45352994918823,51.07303287804797L54.17587494850159,55.41621617292407L54.898219947814944,62.9982757405557L55.620564947128294,58.477140953882554L56.34290994644165,60.76926755366301L57.06525494575501,57.39585358822694L57.787599945068365,61.4369701928544L58.509944944381715,62.05431070344332L59.232289943695065,63.72265234963834L59.95463494300842,55.59830483800283L60.67697994232177,68.52004953423247L61.39932494163513,64.93359766512938L62.121669940948486,65.18925375766642L62.84401494026184,67.7664475087623L63.56635993957519,67.03780112469019L64.28870493888856,64.3198108803081L65.01104993820191,58.673391481348744L65.73339493751526,68.51278296064791L66.45573993682862,65.8655224671783L67.17808493614197,64.42398278191448L67.90042993545532,66.91344724316465L68.62277493476867,64.7034806615045L69.34511993408204,61.56227880667572L70.06746493339539,60.773272125236986L70.78980993270874,44.402450929130595L71.5121549320221,63.6755257027049L72.23449993133545,61.427661552970534L72.9568449306488,62.41294528221701L73.67918992996216,61.551697190397476L74.40153492927551,60.210192233458315L75.12387992858886,54.546587653174896L75.84622492790223,67.95519277956998L76.56856992721558,62.0143180283867L77.29091492652894,58.10084382763691L78.01325992584229,70.05122797393355L78.73560492515564,49.813555337521365L79.457949924469,67.38423634635112L80.18029492378236,57.14452031136247L80.9026399230957,55.3138741748846L81.62498492240906,58.313245243106735L82.3473299217224,57.91477711132572L83.06967492103576,49.76138982569353L83.79201992034912,59.554848073428985L84.51436491966247,60.379657215959526L85.23670991897582,60.47157671977004L85.95905491828918,64.02265045324611L86.68139991760253,63.46097613956957L87.4037449169159,61.5634457017039L88.12608991622925,66.7026370481878L88.8484349155426,65.43971186325976L89.57077991485596,58.19103950924671L90.29312491416931,55.45981561443142L91.01546991348266,44.198880787396746L91.73781491279603,63.229188354427066L92.46015991210938,61.01678190134436L93.18250491142273,65.59753441582075L93.90484991073609,53.76190378740873L94.62719491004944,57.60780415789043L95.3495399093628,66.22529742063861L96.07188490867615,57.62403460691871L96.7942299079895,63.24120206914898L97.51657490730287,62.971118910809025L98.23891990661622,47.810951306436635L98.96126490592957,59.68821887108135L99.68360990524292,63.65099438677163L100.40595490455627,48.00088999261405L101.12829990386962,45.7933367620349L101.85064490318298,47.036663414557864L102.57298990249633,57.25566706279636L103.29533490180968,46.92416412570495L104.01767990112305,66.64758081913106L104.7400249004364,68.13648583440227L105.46236989974976,59.14341149463027L106.18471489906311,63.95581919254141L106.90705989837646,49.26397429959138L107.62940489768982,56.765544630620326L108.35174989700317,67.4984329370632L109.07409489631652,61.60821203823943L109.79643989562989,63.08844490182395L110.51878489494324,63.04044308361938L111.24112989425659,70.24143186352646L111.96347489356995,65.56287232941557L112.6858198928833,63.32582847903339L113.40816489219667,68.3175402061606L114.13050989151002,64.18606879787404L114.85285489082337,62.24947389690598L115.57519989013673,64.30145880395585L116.29754488945008,65.01148790826022L117.01988988876343,52.868592602655866L117.74223488807678,67.17995015539543L118.46457988739013,66.13162757428583L119.18692488670348,65.51245716013L119.90926988601684,59.647669268852184L120.6316148853302,53.39605567573358L121.35395988464354,69.44096839453834L122.07630488395691,58.19225944495798L122.79864988327026,58.59022369024956L123.52099488258362,66.18583515241298L124.24333988189697,61.9007579258718L124.96568488121032,51.64215940769992L125.68802988052369,64.13748353215539L126.41037487983704,62.22605643531779L127.13271987915039,65.13255326743362L127.85506487846375,67.83696509694238L128.57740987777711,66.87175726624886L129.29975487709046,52.83199453131758L130.02209987640381,71.24260127736108L130.74444487571716,61.24703150667699L131.4667898750305,71.9677204560071L132.18913487434386,65.03583358180265L132.91147987365724,50.222101199091185L133.6338248729706,55.48299439294567L134.35616987228394,68.52317893453531L135.0785148715973,53.48980508311101L135.80085987091064,63.962953164418224L136.523204870224,62.08218358241183L137.24554986953734,66.19283652258204L137.9678948688507,66.98537040944686L138.69023986816407,65.70117591059613L139.41258486747742,59.64719190270429L140.13492986679077,53.689927580443424L140.85727486610412,65.34628069998092L141.57961986541747,62.61534852892268L142.30196486473082,67.51625460658445L143.0243098640442,59.526073502847794L143.74665486335755,68.46085613189402L144.4689998626709,59.310675288782875L145.19134486198425,71.75261396569923L145.9136898612976,61.1641819596764L146.63603486061095,65.18150981793397L147.35837985992433,70.49263253868318L148.08072485923765,53.516749750125285L148.80306985855103,49.97458685140984L149.52541485786438,76.36065591163003L150.24775985717773,70.07308073537033L150.97010485649108,72.27938750989665L151.69244985580445,64.91055148832288L152.41479485511778,60.75197629097275L153.13713985443115,75.39263692473227L153.8594848537445,58.03854754533717L154.58182985305788,70.9498962676794L155.3041748523712,75.96237342223986L156.02651985168458,76.5297761296911L156.74886485099793,77.29875995325997L157.47120985031128,71.03099547213773L158.19355484962463,58.03586899084067L158.915899848938,73.05624787490572L159.63824484825133,76.89480211077822L160.3605898475647,57.64265188668645L161.08293484687806,62.284427707068204L161.8052798461914,78.05331671102593L162.52762484550476,74.54942266516639L163.2499698448181,77.18116875882956L163.97231484413146,73.26859624969245L164.6946598434448,71.5014663312256L165.4170048427582,80.25551283261208L166.1393498420715,74.90259405358088L166.8616948413849,74.56387625131086L167.58403984069824,76.83446833375314L168.3063848400116,64.35675371608653L169.02872983932494,75.41438360480285L169.75107483863832,85.27334709616554L170.47341983795164,74.7340572830339L171.19576483726502,73.21038409999133L171.91810983657837,76.40950638076418L172.64045483589175,76.0328644900784L173.36279983520507,78.37320507079582L174.08514483451845,72.63186936943086L174.8074898338318,75.41557702017258L175.52983483314515,79.00545001333555L176.2521798324585,87.42014222425482L176.97452483177187,87.35307228047617L177.6968698310852,85.61864194313983L178.41921483039857,77.14244906016731L179.14155982971192,79.76790983288325L179.86390482902527,82.33913650713049L180.58624982833862,85.77909000951422L181.30859482765197,84.51239893608616L182.03093982696532,85.21937820111233L182.75328482627867,84.05505564606528L183.47562982559205,80.47457085381083L184.19797482490537,91.86601228161051L184.92031982421875,86.13353437432309L185.6426648235321,85.05999094839993L186.36500982284545,91.11336498843612L187.0873548221588,88.74841353076079L187.80969982147218,85.86398162281412L188.5320448207855,88.89164989546956L189.25438982009888,93.4066850035863L189.97673481941223,92.02476304612573L190.6990798187256,87.95831951531852L191.42142481803893,84.29190881644374L192.1437698173523,87.673729730151L192.86611481666566,87.7452816116515L193.588459815979,95.32399961624789L194.31080481529236,96.8587848223997L195.03314981460574,95.93688470945649L195.75549481391906,92.93244825599841L196.47783981323244,90.67429421374284L197.20018481254579,94.45856131046354L197.92252981185914,95.36476138120945L198.64487481117249,98.43608213605533L199.36721981048584,92.26840542394085L200.08956480979919,100.0707959891656L200.81190980911254,103.07403902725396L201.5342548084259,99.62350390859199L202.25659980773924,99.00969060342915L202.9789448070526,95.27819898639193L203.70128980636596,97.93895833371023L204.4236348056793,99.23195758595539L205.14597980499266,100.28123489936077L205.86832480430604,104.5635009696977L206.59066980361936,105.23677288061448L207.31301480293274,102.82318311653738L208.0353598022461,105.29938740701282L208.75770480155947,110.48172734919773L209.4800498008728,111.25856119386525L210.20239480018617,104.39403598719649L210.92473979949952,110.18236573378714L211.64708479881287,113.06763303249261L212.36942979812622,115.11956489885938L213.0917747974396,110.44282200814463L213.81411979675292,117.60466676392468L214.5364647960663,112.22573152983342L215.25880979537965,117.08850135634705L215.981154794693,113.40107328679429L216.70349979400635,118.29818695561448L217.4258447933197,119.50567136653333L218.14818979263305,117.2614139832497L218.8705347919464,124.20707817488909L219.59287979125978,123.43686115543818L220.3152247905731,122.2877745366113L221.03756978988648,123.80656797680876L221.75991478919983,122.06707225423648L222.48225978851318,126.97431669352858L223.20460478782653,127.53111126436002L223.9269497871399,131.2854236353006L224.64929478645323,128.88781237700704L225.3716397857666,129.5248177208549L226.09398478507995,132.74200035422297L226.81632978439333,135.03809174506506L227.53867478370665,136.34093004402507L228.26101978302003,137.184436027348L228.98336478233338,138.28713856880483L229.70570978164673,141.0535019161732L230.42805478096008,141.5628515959726L231.15039978027346,140.97919191915153L231.87274477958678,144.81058566280566L232.59508977890016,144.70234288877143L233.3174347782135,147.95835130216793L234.03977977752686,148.2057463083123L234.7621247768402,150.03189724689753L235.48446977615356,153.07212290127666L236.2068147754669,152.70854227880398L236.92915977478026,154.66282624758554L237.65150477409364,157.14688055915963L238.37384977340696,158.97177178152126L239.09619477272034,159.71444742627304L239.8185397720337,164.1623462897573L240.54088477134704,164.13785475433633L241.2632297706604,166.63156247023443L241.98557476997377,170.06894349948786L242.7079197692871,169.85858415031734L243.43026476860047,172.4125328220451L244.15260976791382,174.35977564014527L244.8749547672272,176.40292927345916L245.59729976654052,178.28290324521907" fill="none"></path></g><g><path style="fill: none;" stroke="rgb(204, 51, 17)" stroke-width="2px" d="M42.61835495948791,-16.89950420489538L43.34069995880127,0.11507176198321645L44.063044958114624,7.864023838985759L44.78538995742798,16.887729173247408L45.50773495674133,26.66084631901441L46.23007995605469,29.550476213904773L46.952424955368045,32.12623786655698L47.6747699546814,38.03886845399006L48.39711495399475,41.80923889173883L49.11945995330811,37.58555625588471L49.84180495262146,53.47102868129397L50.56414995193481,56.571362689794995L51.286494951248166,58.73589992638088L52.00883995056152,56.849614113332194L52.73118494987488,61.78937249136396L53.45352994918823,56.825798846620756L54.17587494850159,60.45407329434738L54.898219947814944,66.75058582570927L55.620564947128294,62.67059040037026L56.34290994644165,66.64880075484234L57.06525494575501,64.00459010065092L57.787599945068365,66.12918770286328L58.509944944381715,64.69358857410654L59.232289943695065,72.22101623814623L59.95463494300842,59.9792530992454L60.67697994232177,74.53961013879308L61.39932494163513,71.9417305212886L62.121669940948486,71.76526416861833L62.84401494026184,73.22351166905833L63.56635993957519,73.40660810711597L64.28870493888856,68.1812521709378L65.01104993820191,62.767044882585736L65.73339493751526,74.70130466122029L66.45573993682862,74.2087953983048L67.17808493614197,67.68444661269129L67.90042993545532,73.82650467486897L68.62277493476867,74.26788271927705L69.34511993408204,69.84330849618559L70.06746493339539,69.92175566648896L70.78980993270874,52.69024330573558L71.5121549320221,70.54095260098634L72.23449993133545,71.44343982391533L72.9568449306488,71.70912060555807L73.67918992996216,67.82219326669932L74.40153492927551,69.46364328656315L75.12387992858886,57.49180418395298L75.84622492790223,74.55995124076154L76.56856992721558,69.2678966455864L77.29091492652894,68.22689367874446L78.01325992584229,78.0367414975575L78.73560492515564,62.535814024615775L79.457949924469,71.81883525854829L80.18029492378236,63.86480138034358L80.9026399230957,62.540428564045385L81.62498492240906,64.10775422927841L82.3473299217224,65.06017925534508L83.06967492103576,55.93755304710385L83.79201992034912,65.83152338931185L84.51436491966247,71.21350846268129L85.23670991897582,65.00066760890803L85.95905491828918,72.0551845424373L86.68139991760253,68.65615192706443L87.4037449169159,67.00549934868292L88.12608991622925,72.73935631373092L88.8484349155426,73.99472320131736L89.57077991485596,66.28560467732214L90.29312491416931,61.0895271982146L91.01546991348266,50.27686570439087L91.73781491279603,67.2770411258081L92.46015991210938,70.14765593580748L93.18250491142273,71.63685267483572L93.90484991073609,59.11657290898219L94.62719491004944,62.68239195235978L95.3495399093628,72.15757958115987L96.07188490867615,68.36490553616798L96.7942299079895,71.52207263660955L97.51657490730287,71.58988514995158L98.23891990661622,56.66651767527455L98.96126490592957,67.72181377393451L99.68360990524292,74.64823745777977L100.40595490455627,61.081332412675806L101.12829990386962,56.32740206788128L101.85064490318298,53.094864156756074L102.57298990249633,66.24797231266342L103.29533490180968,50.29603991133115L104.01767990112305,71.14673024265969L104.7400249004364,77.34450754243284L105.46236989974976,65.45623403604509L106.18471489906311,71.02545272075389L106.90705989837646,55.749126020394755L107.62940489768982,63.54478041886594L108.35174989700317,73.50499857426456L109.07409489631652,70.41699652458405L109.79643989562989,70.67838101089578L110.51878489494324,68.78130141883645L111.24112989425659,75.52579555965224L111.96347489356995,73.36245173843608L112.6858198928833,69.42168810623187L113.40816489219667,74.28814426022086L114.13050989151002,71.58826740911707L114.85285489082337,70.08305238379293L115.57519989013673,72.95515233291908L116.29754488945008,74.1265292988183L117.01988988876343,62.757258876553976L117.74223488807678,75.78219422175266L118.46457988739013,74.84610572608048L119.18692488670348,74.25544467909035L119.90926988601684,68.20729514633939L120.6316148853302,57.762470789807026L121.35395988464354,75.84624084659467L122.07630488395691,67.6526222028319L122.79864988327026,64.96205399161198L123.52099488258362,71.56702461553593L124.24333988189697,69.6625988888674L124.96568488121032,60.167361881855896L125.68802988052369,67.09447509458144L126.41037487983704,66.03122156117948L127.13271987915039,71.5169542106905L127.85506487846375,74.76243404849185L128.57740987777711,75.48866708148296L129.29975487709046,64.29541216608257L130.02209987640381,79.56757517281844L130.74444487571716,69.71815900441356L131.4667898750305,80.34005968147184L132.18913487434386,70.82997128319263L132.91147987365724,61.25119520030026L133.6338248729706,64.89726479720659L134.35616987228394,74.260350942277L135.0785148715973,65.7572133922902L135.80085987091064,74.12156999494854L136.523204870224,73.88498202798559L137.24554986953734,76.63747523672356L137.9678948688507,76.25110038068911L138.69023986816407,73.91590474623229L139.41258486747742,64.05004596606673L140.13492986679077,65.43729851217876L140.85727486610412,68.42521279285151L141.57961986541747,68.38076470041457L142.30196486473082,74.8630522243306L143.0243098640442,69.32557838845653L143.74665486335755,75.73482889174528L144.4689998626709,66.20007657582505L145.19134486198425,79.11227394909687L145.9136898612976,68.64546422941999L146.63603486061095,73.48839684045458L147.35837985992433,79.09007642321995L148.08072485923765,67.83805243094591L148.80306985855103,62.30256762068805L149.52541485786438,81.74280010704877L150.24775985717773,78.19708348256569L150.97010485649108,76.35445015170745L151.69244985580445,67.77273282970953L152.41479485511778,67.73706297032547L153.13713985443115,80.47937103563129L153.8594848537445,69.58412519822247L154.58182985305788,76.36649038677092L155.3041748523712,79.4742500909058L156.02651985168458,82.52316115714237L156.74886485099793,80.85370565660227L157.47120985031128,76.65747157425187L158.19355484962463,70.27102856469568L158.915899848938,81.46080931535309L159.63824484825133,82.89118393682458L160.3605898475647,68.64978704509255L161.08293484687806,68.56624796921167L161.8052798461914,82.33133952671494L162.52762484550476,80.68153559926301L163.2499698448181,83.31447510829591L163.97231484413146,75.02214775328596L164.6946598434448,77.14536629773775L165.4170048427582,87.55778279689665L166.1393498420715,82.42002354885642L166.8616948413849,80.51862114112453L167.58403984069824,83.44938408575814L168.3063848400116,70.2700207917168L169.02872983932494,80.8446091794508L169.75107483863832,91.78043113943032L170.47341983795164,81.16821038703762L171.19576483726502,77.90162035736287L171.91810983657837,83.60871829778745L172.64045483589175,81.23087795411905L173.36279983520507,84.39727413341984L174.08514483451845,80.47244922648687L174.8074898338318,83.84671184285253L175.52983483314515,81.39745221939137L176.2521798324585,91.28171611659225L176.97452483177187,89.09026073333364L177.6968698310852,89.62944579737622L178.41921483039857,86.25547490476762L179.14155982971192,85.63744486529842L179.86390482902527,84.92778704577574L180.58624982833862,90.09617728830561L181.30859482765197,92.40702724922001L182.03093982696532,90.86224387430404L182.75328482627867,88.53309487772052L183.47562982559205,84.78539933199656L184.19797482490537,95.96852347692503L184.92031982421875,90.68251551962318L185.6426648235321,90.30913563094798L186.36500982284545,93.85625783353318L187.0873548221588,91.40047420605084L187.80969982147218,88.19522572638007L188.5320448207855,92.65902353462322L189.25438982009888,92.58893027190793L189.97673481941223,96.46684069463986L190.6990798187256,88.94161421894879L191.42142481803893,84.92627538630742L192.1437698173523,89.63331776724245L192.86611481666566,92.17388692665848L193.588459815979,97.64879927681731L194.31080481529236,99.87931912317832L195.03314981460574,97.67889986447598L195.75549481391906,97.58337359421473L196.47783981323244,97.88933877467115L197.20018481254579,98.08885130414792L197.92252981185914,100.67331162882836L198.64487481117249,99.85285182231193L199.36721981048584,95.12114552373588L200.08956480979919,103.42485010527055L200.81190980911254,103.00612043254573L201.5342548084259,103.42559267483394L202.25659980773924,97.91694645022416L202.9789448070526,97.83064925882213L203.70128980636596,100.20894044829687L204.4236348056793,100.29537024140664L205.14597980499266,103.63263698131077L205.86832480430604,104.57071450259916L206.59066980361936,104.93094030186582L207.31301480293274,100.18634511729671L208.0353598022461,106.31975754812926L208.75770480155947,109.50882861945486L209.4800498008728,109.4448615556375L210.20239480018617,104.23533826336437L210.92473979949952,110.61576115538882L211.64708479881287,111.9942222082772L212.36942979812622,113.5108409804676L213.0917747974396,108.35649325878818L213.81411979675292,115.84712394892796L214.5364647960663,112.48559109650606L215.25880979537965,115.3608469662766L215.981154794693,111.35140890963L216.70349979400635,115.64804900508676L217.4258447933197,114.79288733165282L218.14818979263305,113.90708140355846L218.8705347919464,120.27782437091736L219.59287979125978,118.89395316835291L220.3152247905731,119.57903989142997L221.03756978988648,116.72104876400815L221.75991478919983,118.89350232254657L222.48225978851318,124.1374092376386L223.20460478782653,123.01665960375735L223.9269497871399,123.95969642891549L224.64929478645323,124.89589100595387L225.3716397857666,122.78995046402159L226.09398478507995,123.9920379854351L226.81632978439333,127.16505098995248L227.53867478370665,128.81903187119846L228.26101978302003,127.37160467011066L228.98336478233338,129.02016214150976L229.70570978164673,132.4831618207L230.42805478096008,131.3143440677603L231.15039978027346,129.24029423654125L231.87274477958678,133.55885339428866L232.59508977890016,134.48884221140446L233.3174347782135,134.7094781929254L234.03977977752686,132.9847940811085L234.7621247768402,137.20585120314922L235.48446977615356,138.96245254602093L236.2068147754669,137.11084207954818L236.92915977478026,139.09724218194617L237.65150477409364,140.24754873648433L238.37384977340696,142.2535473712874L239.09619477272034,142.98062905520808L239.8185397720337,145.90927037251774L240.54088477134704,146.2617787523935L241.2632297706604,146.41293143905477L241.98557476997377,148.1097824524155L242.7079197692871,146.58791265259828L243.43026476860047,148.2264321747209L244.15260976791382,148.19074905516607L244.8749547672272,149.64531022813068L245.59729976654052,152.20335629262783L246.3196447658539,152.52280706676217L247.04198976516724,152.90208773143212L247.7643347644806,152.31158580649128L248.48667976379394,154.42850576982508L249.20902476310732,154.5742350466395L249.93136976242064,154.7625957724947L250.65371476173402,155.05580466866581L251.37605976104737,155.08276259585088L252.09840476036072,155.25322209116018" fill="none"></path></g></g></g></g></g></g><g transform="translate(41, 177)" clip-path="url(#clip_1)"><clipPath id="clip_1"><rect width="288" height="22"></rect></clipPath><g><g><line x1="0" y1="0" x2="0" y2="5" style="visibility: inherit;" fill="rgb(0, 0, 0)" stroke="rgb(204, 204, 204)" stroke-width="1px"></line><line x1="36.117249965667725" y1="0" x2="36.117249965667725" y2="5" style="visibility: inherit;" fill="rgb(0, 0, 0)" stroke="rgb(204, 204, 204)" stroke-width="1px"></line><line x1="72.23449993133545" y1="0" x2="72.23449993133545" y2="5" style="visibility: inherit;" fill="rgb(0, 0, 0)" stroke="rgb(204, 204, 204)" stroke-width="1px"></line><line x1="108.35174989700317" y1="0" x2="108.35174989700317" y2="5" style="visibility: inherit;" fill="rgb(0, 0, 0)" stroke="rgb(204, 204, 204)" stroke-width="1px"></line><line x1="144.4689998626709" y1="0" x2="144.4689998626709" y2="5" style="visibility: inherit;" fill="rgb(0, 0, 0)" stroke="rgb(204, 204, 204)" stroke-width="1px"></line><line x1="180.58624982833862" y1="0" x2="180.58624982833862" y2="5" style="visibility: inherit;" fill="rgb(0, 0, 0)" stroke="rgb(204, 204, 204)" stroke-width="1px"></line><line x1="216.70349979400635" y1="0" x2="216.70349979400635" y2="5" style="visibility: inherit;" fill="rgb(0, 0, 0)" stroke="rgb(204, 204, 204)" stroke-width="1px"></line><line x1="252.82074975967407" y1="0" x2="252.82074975967407" y2="5" style="visibility: inherit;" fill="rgb(0, 0, 0)" stroke="rgb(204, 204, 204)" stroke-width="1px"></line><line x1="288.9379997253418" y1="0" x2="288.9379997253418" y2="5" style="visibility: inherit;" fill="rgb(0, 0, 0)" stroke="rgb(204, 204, 204)" stroke-width="1px"></line></g><g transform="translate(0, 8)"><text style="text-anchor: middle; visibility: hidden; font-family: &quot;Helvetica Neue&quot;, sans-serif; font-size: 12px; font-weight: 200;" x="0" y="0" dx="0em" dy="0.95em" fill="rgb(50, 49, 63)" stroke="none" stroke-width="1px">-50</text><text style="text-anchor: middle; visibility: inherit; font-family: &quot;Helvetica Neue&quot;, sans-serif; font-size: 12px; font-weight: 200;" x="36.117249965667725" y="0" dx="0em" dy="0.95em" fill="rgb(50, 49, 63)" stroke="none" stroke-width="1px">0</text><text style="text-anchor: middle; visibility: inherit; font-family: &quot;Helvetica Neue&quot;, sans-serif; font-size: 12px; font-weight: 200;" x="72.23449993133545" y="0" dx="0em" dy="0.95em" fill="rgb(50, 49, 63)" stroke="none" stroke-width="1px">50</text><text style="text-anchor: middle; visibility: inherit; font-family: &quot;Helvetica Neue&quot;, sans-serif; font-size: 12px; font-weight: 200;" x="108.35174989700317" y="0" dx="0em" dy="0.95em" fill="rgb(50, 49, 63)" stroke="none" stroke-width="1px">100</text><text style="text-anchor: middle; visibility: inherit; font-family: &quot;Helvetica Neue&quot;, sans-serif; font-size: 12px; font-weight: 200;" x="144.4689998626709" y="0" dx="0em" dy="0.95em" fill="rgb(50, 49, 63)" stroke="none" stroke-width="1px">150</text><text style="text-anchor: middle; visibility: inherit; font-family: &quot;Helvetica Neue&quot;, sans-serif; font-size: 12px; font-weight: 200;" x="180.58624982833862" y="0" dx="0em" dy="0.95em" fill="rgb(50, 49, 63)" stroke="none" stroke-width="1px">200</text><text style="text-anchor: middle; visibility: inherit; font-family: &quot;Helvetica Neue&quot;, sans-serif; font-size: 12px; font-weight: 200;" x="216.70349979400635" y="0" dx="0em" dy="0.95em" fill="rgb(50, 49, 63)" stroke="none" stroke-width="1px">250</text><text style="text-anchor: middle; visibility: inherit; font-family: &quot;Helvetica Neue&quot;, sans-serif; font-size: 12px; font-weight: 200;" x="252.82074975967407" y="0" dx="0em" dy="0.95em" fill="rgb(50, 49, 63)" stroke="none" stroke-width="1px">300</text><text style="text-anchor: middle; visibility: hidden; font-family: &quot;Helvetica Neue&quot;, sans-serif; font-size: 12px; font-weight: 200;" x="288.9379997253418" y="0" dx="0em" dy="0.95em" fill="rgb(50, 49, 63)" stroke="none" stroke-width="1px">350</text></g><line x1="0" y1="0" x2="288.9379997253418" y2="0" fill="rgb(0, 0, 0)" stroke="rgb(204, 204, 204)" stroke-width="1px"></line></g></g></g></g></svg>