<svg viewBox="0 0 330 200" xmlns="http://www.w3.org/2000/svg"><g><g><g><g><g><line x1="61.77000045776367" y1="177.9749994277954" x2="56.77000045776367" y2="177.9749994277954" style="visibility: inherit;" fill="rgb(0, 0, 0)" stroke="rgb(204, 204, 204)" stroke-width="1px"></line><line x1="61.77000045776367" y1="158.1999994913737" x2="56.77000045776367" y2="158.1999994913737" style="visibility: inherit;" fill="rgb(0, 0, 0)" stroke="rgb(204, 204, 204)" stroke-width="1px"></line><line x1="61.77000045776367" y1="138.42499955495197" x2="56.77000045776367" y2="138.42499955495197" style="visibility: inherit;" fill="rgb(0, 0, 0)" stroke="rgb(204, 204, 204)" stroke-width="1px"></line><line x1="61.77000045776367" y1="118.64999961853027" x2="56.77000045776367" y2="118.64999961853027" style="visibility: inherit;" fill="rgb(0, 0, 0)" stroke="rgb(204, 204, 204)" stroke-width="1px"></line><line x1="61.77000045776367" y1="98.87499968210855" x2="56.77000045776367" y2="98.87499968210855" style="visibility: inherit;" fill="rgb(0, 0, 0)" stroke="rgb(204, 204, 204)" stroke-width="1px"></line><line x1="61.77000045776367" y1="79.09999974568684" x2="56.77000045776367" y2="79.09999974568684" style="visibility: inherit;" fill="rgb(0, 0, 0)" stroke="rgb(204, 204, 204)" stroke-width="1px"></line><line x1="61.77000045776367" y1="59.32499980926514" x2="56.77000045776367" y2="59.32499980926514" style="visibility: inherit;" fill="rgb(0, 0, 0)" stroke="rgb(204, 204, 204)" stroke-width="1px"></line><line x1="61.77000045776367" y1="39.54999987284344" x2="56.77000045776367" y2="39.54999987284344" style="visibility: inherit;" fill="rgb(0, 0, 0)" stroke="rgb(204, 204, 204)" stroke-width="1px"></line><line x1="61.77000045776367" y1="19.77499993642172" x2="56.77000045776367" y2="19.77499993642172" style="visibility: inherit;" fill="rgb(0, 0, 0)" stroke="rgb(204, 204, 204)" stroke-width="1px"></line><line x1="61.77000045776367" y1="0" x2="56.77000045776367" y2="0" style="visibility: inherit;" fill="rgb(0, 0, 0)" stroke="rgb(204, 204, 204)" stroke-width="1px"></line></g><g transform="translate(51.77000045776367, 0)"><text style="text-anchor: end; visibility: hidden; font-family: &quot;Helvetica Neue&quot;, sans-serif; font-size: 12px; font-weight: 200;" x="0" y="177.9749994277954" dx="0em" dy="0.3em" fill="rgb(50, 49, 63)" stroke="none" stroke-width="1px">-0.05</text><text style="text-anchor: end; visibility: inherit; font-family: &quot;Helvetica Neue&quot;, sans-serif; font-size: 12px; font-weight: 200;" x="0" y="158.1999994913737" dx="0em" dy="0.3em" fill="rgb(50, 49, 63)" stroke="none" stroke-width="1px">0</text><text style="text-anchor: end; visibility: hidden; font-family: &quot;Helvetica Neue&quot;, sans-serif; font-size: 12px; font-weight: 200;" x="0" y="138.42499955495197" dx="0em" dy="0.3em" fill="rgb(50, 49, 63)" stroke="none" stroke-width="1px">0.05</text><text style="text-anchor: end; visibility: inherit; font-family: &quot;Helvetica Neue&quot;, sans-serif; font-size: 12px; font-weight: 200;" x="0" y="118.64999961853027" dx="0em" dy="0.3em" fill="rgb(50, 49, 63)" stroke="none" stroke-width="1px">0.1</text><text style="text-anchor: end; visibility: hidden; font-family: &quot;Helvetica Neue&quot;, sans-serif; font-size: 12px; font-weight: 200;" x="0" y="98.87499968210855" dx="0em" dy="0.3em" fill="rgb(50, 49, 63)" stroke="none" stroke-width="1px">0.15</text><text style="text-anchor: end; visibility: inherit; font-family: &quot;Helvetica Neue&quot;, sans-serif; font-size: 12px; font-weight: 200;" x="0" y="79.09999974568684" dx="0em" dy="0.3em" fill="rgb(50, 49, 63)" stroke="none" stroke-width="1px">0.2</text><text style="text-anchor: end; visibility: hidden; font-family: &quot;Helvetica Neue&quot;, sans-serif; font-size: 12px; font-weight: 200;" x="0" y="59.32499980926514" dx="0em" dy="0.3em" fill="rgb(50, 49, 63)" stroke="none" stroke-width="1px">0.25</text><text style="text-anchor: end; visibility: inherit; font-family: &quot;Helvetica Neue&quot;, sans-serif; font-size: 12px; font-weight: 200;" x="0" y="39.54999987284344" dx="0em" dy="0.3em" fill="rgb(50, 49, 63)" stroke="none" stroke-width="1px">0.3</text><text style="text-anchor: end; visibility: hidden; font-family: &quot;Helvetica Neue&quot;, sans-serif; font-size: 12px; font-weight: 200;" x="0" y="19.77499993642172" dx="0em" dy="0.3em" fill="rgb(50, 49, 63)" stroke="none" stroke-width="1px">0.35</text><text style="text-anchor: end; visibility: hidden; font-family: &quot;Helvetica Neue&quot;, sans-serif; font-size: 12px; font-weight: 200;" x="0" y="0" dx="0em" dy="0.3em" fill="rgb(50, 49, 63)" stroke="none" stroke-width="1px">0.4</text></g><line x1="61.77000045776367" y1="0" x2="61.77000045776367" y2="177.9749994277954" fill="rgb(0, 0, 0)" stroke="rgb(204, 204, 204)" stroke-width="1px"></line></g></g><g transform="translate(61, 0)" clip-path="url(#clip_0)"><clipPath id="clip_0"><rect width="268" height="177"></rect></clipPath><g><g><g><line x1="0" y1="0" x2="0" y2="177.9749994277954" fill="rgb(0, 0, 0)" stroke="rgb(60, 60, 60)" stroke-width="1px" opacity="0.25"></line><line x1="19.159285681588308" y1="0" x2="19.159285681588308" y2="177.9749994277954" fill="rgb(0, 0, 0)" stroke="rgb(60, 60, 60)" stroke-width="1px" opacity="0.25"></line><line x1="38.318571363176616" y1="0" x2="38.318571363176616" y2="177.9749994277954" fill="rgb(0, 0, 0)" stroke="rgb(60, 60, 60)" stroke-width="1px" opacity="0.25"></line><line x1="57.477857044764924" y1="0" x2="57.477857044764924" y2="177.9749994277954" fill="rgb(0, 0, 0)" stroke="rgb(60, 60, 60)" stroke-width="1px" opacity="0.25"></line><line x1="76.63714272635323" y1="0" x2="76.63714272635323" y2="177.9749994277954" fill="rgb(0, 0, 0)" stroke="rgb(60, 60, 60)" stroke-width="1px" opacity="0.25"></line><line x1="95.79642840794155" y1="0" x2="95.79642840794155" y2="177.9749994277954" fill="rgb(0, 0, 0)" stroke="rgb(60, 60, 60)" stroke-width="1px" opacity="0.25"></line><line x1="114.95571408952985" y1="0" x2="114.95571408952985" y2="177.9749994277954" fill="rgb(0, 0, 0)" stroke="rgb(60, 60, 60)" stroke-width="1px" opacity="0.25"></line><line x1="134.11499977111816" y1="0" x2="134.11499977111816" y2="177.9749994277954" fill="rgb(0, 0, 0)" stroke="rgb(60, 60, 60)" stroke-width="1px" opacity="0.25"></line><line x1="153.27428545270647" y1="0" x2="153.27428545270647" y2="177.9749994277954" fill="rgb(0, 0, 0)" stroke="rgb(60, 60, 60)" stroke-width="1px" opacity="0.25"></line><line x1="172.4335711342948" y1="0" x2="172.4335711342948" y2="177.9749994277954" fill="rgb(0, 0, 0)" stroke="rgb(60, 60, 60)" stroke-width="1px" opacity="0.25"></line><line x1="191.5928568158831" y1="0" x2="191.5928568158831" y2="177.9749994277954" fill="rgb(0, 0, 0)" stroke="rgb(60, 60, 60)" stroke-width="1px" opacity="0.25"></line><line x1="210.7521424974714" y1="0" x2="210.7521424974714" y2="177.9749994277954" fill="rgb(0, 0, 0)" stroke="rgb(60, 60, 60)" stroke-width="1px" opacity="0.25"></line><line x1="229.9114281790597" y1="0" x2="229.9114281790597" y2="177.9749994277954" fill="rgb(0, 0, 0)" stroke="rgb(60, 60, 60)" stroke-width="1px" opacity="0.25"></line><line x1="249.07071386064803" y1="0" x2="249.07071386064803" y2="177.9749994277954" fill="rgb(0, 0, 0)" stroke="rgb(60, 60, 60)" stroke-width="1px" opacity="0.25"></line><line x1="268.2299995422363" y1="0" x2="268.2299995422363" y2="177.9749994277954" fill="rgb(0, 0, 0)" stroke="rgb(60, 60, 60)" stroke-width="1px" opacity="0.25"></line></g><g><line x1="0" y1="177.9749994277954" x2="268.2299995422363" y2="177.9749994277954" fill="rgb(0, 0, 0)" stroke="rgb(60, 60, 60)" stroke-width="1px" opacity="0.25"></line><line x1="0" y1="158.1999994913737" x2="268.2299995422363" y2="158.1999994913737" fill="rgb(0, 0, 0)" stroke="rgb(60, 60, 60)" stroke-width="1px" opacity="0.25"></line><line x1="0" y1="138.42499955495197" x2="268.2299995422363" y2="138.42499955495197" fill="rgb(0, 0, 0)" stroke="rgb(60, 60, 60)" stroke-width="1px" opacity="0.25"></line><line x1="0" y1="118.64999961853027" x2="268.2299995422363" y2="118.64999961853027" fill="rgb(0, 0, 0)" stroke="rgb(60, 60, 60)" stroke-width="1px" opacity="0.25"></line><line x1="0" y1="98.87499968210855" x2="268.2299995422363" y2="98.87499968210855" fill="rgb(0, 0, 0)" stroke="rgb(60, 60, 60)" stroke-width="1px" opacity="0.25"></line><line x1="0" y1="79.09999974568684" x2="268.2299995422363" y2="79.09999974568684" fill="rgb(0, 0, 0)" stroke="rgb(60, 60, 60)" stroke-width="1px" opacity="0.25"></line><line x1="0" y1="59.32499980926514" x2="268.2299995422363" y2="59.32499980926514" fill="rgb(0, 0, 0)" stroke="rgb(60, 60, 60)" stroke-width="1px" opacity="0.25"></line><line x1="0" y1="39.54999987284344" x2="268.2299995422363" y2="39.54999987284344" fill="rgb(0, 0, 0)" stroke="rgb(60, 60, 60)" stroke-width="1px" opacity="0.25"></line><line x1="0" y1="19.77499993642172" x2="268.2299995422363" y2="19.77499993642172" fill="rgb(0, 0, 0)" stroke="rgb(60, 60, 60)" stroke-width="1px" opacity="0.25"></line><line x1="0" y1="0" x2="268.2299995422363" y2="0" fill="rgb(0, 0, 0)" stroke="rgb(60, 60, 60)" stroke-width="1px" opacity="0.25"></line></g></g></g><g><g><line x1="0" y1="158.1999994913737" x2="268.2299995422363" y2="158.1999994913737" fill="rgb(0, 0, 0)" stroke="rgb(153, 153, 153)" stroke-width="1.5px"></line></g></g><g><g><line x1="19.159285681588308" y1="0" x2="19.159285681588308" y2="177.9749994277954" fill="rgb(0, 0, 0)" stroke="rgb(153, 153, 153)" stroke-width="1.5px"></line></g></g><g><g><g><g><g><path style="fill: none;" stroke="rgb(187, 187, 187)" stroke-width="2px" d="M19.239754681450982,146.33462408988547L19.479245752470835,146.32906513162624L19.598033323696683,146.32384136101714L19.607612966537474,146.32334852467002L19.682334180695673,146.3191421038298L20.067435822895593,146.28719982578576L20.18622339412144,146.27387924756638L20.26860832255227,146.2636821762406L20.282019822529385,146.26194730389756L20.37398439380101,146.24949305683546L20.398891465187074,146.24595185456246L20.527258679253716,146.2265603281567L20.707355964660646,146.19614149639943L21.102037249701365,146.11636683566627L21.713218462944027,145.95735455111634L21.720882177216666,145.95508706191384L21.81284674848829,145.92735415141465L21.8262582484654,145.92322876495138L21.910559105464394,145.89682187152965L22.399120890344893,145.72770681020165L22.481505818775723,145.6964908948456L22.4872536044802,145.69428381308776L22.755483604022437,145.58709153924934L22.83212074674879,145.5549533053483L23.06011624635969,145.45537826294384L23.37241260296958,145.30936757583854L23.57933288833073,145.2065157979004L23.736439030919755,145.1251779103681L23.920368173463004,145.02639995156244L23.922284102031163,145.02535092471894L23.945275244849068,145.0127287154937L24.303553887094772,144.80833349646718L24.979876671654836,144.38314317387045L25.347734956741334,144.13039989884692L25.378389813831877,144.1086591121856L25.491429599353243,144.0275834813642L26.091115241186962,143.57382338415712L26.094947098323274,143.57079711851586L26.190743526731218,143.49459975718727L26.326774455070495,143.38466852140772L26.466637240546092,143.26952751186602L26.480048740523202,143.25837423489216L26.738699097224643,143.03943702858268L27.43034931032998,142.4183232627322L27.589371381487165,142.26822844302828L27.765636809757776,142.09869421296855L27.79820759541648,142.06700387816923L28.118167666299,141.74968946488195L28.332751665932793,141.53079645914175L28.68336659390586,141.1626985384918L28.995662950515747,140.82398957633563L29.39992387839726,140.3704887891348L29.426746878351484,140.33980180725746L30.1241448771613,139.51608736549198L30.2869988054548,139.31662050993677L30.394290805271694,139.1837462320123L30.47667573370252,139.0809342345865L30.635697804859706,138.88055979400934L31.03804280417306,138.3623508467801L31.074445446968078,138.31467611278796L31.208560446739195,138.13790182948526L31.754600088664464,137.40003225996315L31.994091159684316,137.06729626806487L32.017082302502224,137.03506373961608L32.29106008774894,136.64707703615633L32.50564408738273,136.33822261182334L32.86775458676475,135.807205812978L33.302670371736795,135.15330848491544L33.452112800053186,134.92460442615422L33.457860585757665,134.915767259009L33.54982515702929,134.77396741280083L34.09969665609087,133.91017778824946L34.16675415597643,133.80298551441106L34.46947086974552,133.31414195203863L34.61316551235744,133.07927780727638L34.83158136912755,132.71884279198196L34.910134440422055,132.5882035895092L35.18219629710061,132.13165001632558L35.20901929705484,132.0862943388667L35.440846653802055,131.69176005774887L35.46000593948364,131.65895144854755L35.638187296322414,131.35235272659855L36.16889950970241,130.4235425913294L36.27810743808747,130.22955513300877L36.38923129504067,130.03117119140018L36.900784222739084,129.10517810574447L37.29929736491612,128.36954213832178L37.46406722177778,128.06180009498155L37.48897429316384,128.01510072021753L37.73996093559265,127.54188353242698L38.01777057797568,127.01258171566849L38.140390006337846,126.77713707009679L38.847367647988456,125.39834451293905L38.86077914796557,125.37184479832189L39.08302686187199,124.93084687880935L39.236301147324696,124.62470784278055L39.31868607575553,124.45948906163187L39.48154000404903,124.13153262462171L39.81299564634051,123.45851413030195L40.04673893165588,122.979512561349L40.05248671736036,122.96768743572255L40.16935836001805,122.72680317342858L40.184685788563314,122.69514672573234L40.27281850269863,122.51282527098886L40.42992464528765,122.18658381606556L41.037274001394,120.91079037207679L41.13881821550642,120.69527428982721L41.253773929595944,120.45054457800856L41.31891550091335,120.31151316078768L41.54691100052425,119.8229259617169L41.688689714568,119.5175648557069L42.091034713881356,118.64473032133486L42.10061435672215,118.62383818560309L42.464640784672326,117.8261446189546L42.70604778426034,117.29318594176691L43.43601656872886,115.66315145558781L43.83069785376958,114.7707537492661L43.94948542499542,114.50070889808615L44.13149863897051,114.08565081931363L44.1832287103108,113.96740545645832L44.83656035205296,112.46376102469485L45.11245406586784,111.82327414934247L45.21016642284393,111.59568247157402L45.25423277991158,111.49291614806977L45.61825920786176,110.64102384340796L46.135559921264644,109.42174230055653L46.405705849375046,108.78115229054256L46.54556863485064,108.44851059319198L46.629869491849625,108.24769267357004L46.838705705778935,107.74920454698746L47.204648062297274,106.87235365422298L47.26212591934204,106.73425339566096L47.29852856213706,106.64673626854766L47.47479399040767,106.22242848398359L47.53227184745244,106.08387443291062L47.654891275814606,105.78797224871992L47.691293918609624,105.7000425829603L48.8044484167099,102.9948263030912L48.8695899880273,102.83560995924657L49.316001344408306,101.74212323647819L49.36198363004412,101.62926444966205L50.03639048603603,99.96970398322452L50.29120898560116,99.3407593498554L50.429155842508585,98.99989634662448L51.364128983770094,96.68372169046786L51.45609355504172,96.45544637722837L51.856522625786916,95.46079802071031L51.91591641139984,95.31317990623664L52.28952248219081,94.38426663630591L52.33742069639479,94.26513726206562L52.379571124894284,94.16029940521588L52.77042055279868,93.18798706969173L52.7972435527529,93.12125010353475L52.85280548122951,92.98301429656037L54.5100836926869,88.86374519209119L55.784176190512525,85.71215620348886L55.88572040462494,85.46192794085562L56.579286546298434,83.75758935106411L56.78812276022775,83.24620055167L56.81494576018197,83.18058333326734L56.96247225993021,82.81995972887744L57.18280404526847,82.28226864407547L57.468277401924134,81.58728246683889L57.57940125887735,81.31729360304668L57.596644615990776,81.27542093044465L57.74225518717084,80.92217587441473L57.945343615395686,80.43041802117648L57.960671043940955,80.39334847709954L58.09670197228023,80.06464357711674L58.32086561475481,79.52411186906437L58.510542543002536,79.06787359327473L58.512458471570696,79.06327084066359L58.58526375716073,78.88844285576015L58.97036539936065,77.96642487463228L58.97611318506514,77.95269912452811L59.069993684904915,77.72866706593653L59.115975970540724,77.61904376078941L59.54705989837647,76.59479870310213L59.66967932673863,76.30464848632306L59.794214683668955,76.01052021831158L59.838281040736604,75.90657815966529L60.004966826166424,75.51406531791444L60.142913683073864,75.1900162112259L60.39581625407082,74.59785234488129L61.01849303872245,73.15089072312291L61.779116680281504,71.40609977235458L61.86916532298497,71.20128612127252L61.941970608575005,71.0359700988715L61.99561660848345,70.91432423888863L62.21403246525356,70.42046243855411L62.91909417833601,68.84243728885818L63.49004089164734,67.58355792936874L63.50920017732893,67.54162042926517L63.593501034327915,67.3573335225424L63.64331517710005,67.24862369582645L63.773598319734845,66.96496212261316L63.91729296234676,66.6532066675851L64.04374424784524,66.379834986893L64.2602441760472,65.91394330677934L64.50931488990784,65.38136180778258L64.53039010415758,65.33646581624392L64.56870867552075,65.25490692586541L65.02278374617441,64.29522416632803L65.29292967428479,63.73032910450554L65.4232128169196,63.45954463046682L65.68186317362104,62.925195108700095L65.68569503075736,62.91730972714605L65.7585003163474,62.76769964035155L65.80256667341504,62.677318316350906L66.33136295822689,61.60276711744886L66.51912395790646,61.22577162220908L66.53445138645172,61.1951023205594L66.86782295731136,60.53209378182227L66.9310486000606,60.40723012039807L67.07282731410436,60.128253807525184L67.54222981330327,59.21491092478861L67.69358817018782,58.92382365594146L67.80662795570919,58.707535537082336L68.61323388290405,57.19209250003394L68.6802913827896,57.06835447977328L68.82207009683337,56.80788936530193L69.0998797392164,56.30208162445169L69.27039738178253,55.99466961202852L69.55395480987004,55.48862613480894L69.87391488075257,54.92547552211947L70.5004235225405,53.847370597449796L70.50233945110867,53.84411743555306L70.56173323672158,53.74363480812667L71.1614188785553,52.74605742721971L71.1844100213732,52.70842211585638L71.19207373564583,52.695892727826546L71.193989664214,52.69275743411447L71.41432144955228,52.33470924955948L71.85690094879696,51.628466660687465L72.04466194847652,51.334138016762054L72.07723273413522,51.283395763264025L72.11171944836208,51.229789312878665L72.46999809060777,50.679203448674414L72.64434759031023,50.41552053276175L72.70948916162763,50.31772529994571L72.74397587585449,50.266110821881185L73.64446230288914,48.957738611651166L73.6693693742752,48.922637466258124L73.84563480254582,48.675951142574036L73.90119673102242,48.59880641571121L74.66373630114964,47.57032399678522L74.71355044392178,47.505119317028885L74.84000172942025,47.34069319942208L75.10631580039433,46.999582673003374L75.22510337162018,46.84971327620261L75.62361651379722,46.35726000067484L75.65427137088776,46.32004901477629L75.79605008493151,46.149151933831405L75.89184651333946,46.0348433683439L76.30951894119808,45.547387703845885L76.64672236919404,45.16694456420467L76.69653651196616,45.11173510650789L76.81340815462384,44.98323521158679L76.97051429721287,44.8127270956513L77.10271336841583,44.67124991359864L77.26365136814117,44.501496154044986L77.51655393913815,44.24024132273641L77.5376291533879,44.218777526309026L77.80969101006644,43.94588910517405L77.98978829547337,43.76957008773459L78.0166112954276,43.743615513471525L79.33093829318454,42.5663127245883L79.40182765020643,42.50814477545643L79.88655757795061,42.12520283030031L80.1011415775844,41.96393558004252L80.23908843449185,41.862969693059L80.34638043430874,41.785883900288525L80.36362379142216,41.77361382226496L80.47666357694354,41.69400565034263L80.80237143353054,41.47259026545058L80.86559707627978,41.43098279626406L81.30242878981998,41.155737011435804L81.50743314661298,41.03395560304057L81.72776493195126,40.908355265462205L81.92893743160792,40.798466756899614L82.18184000260489,40.66681978144797L82.19716743115016,40.65907584171552L82.45007000214713,40.53512565872245L82.67614957318986,40.43048228437743L82.72787964453016,40.40735654654628L82.73171150166648,40.405659244687115L82.90414507280077,40.33086009469909L83.03826007257189,40.275025935623574L83.1034016438893,40.24864703589569L83.15704764379774,40.22730110765295L83.77972442844936,40.00354014588612L83.7969677855628,39.99797676756995L83.81995892838069,39.990621792846895L83.85636157117571,39.97908249756824L83.8889323568344,39.968886899594764L83.99239249951499,39.93732179974165L84.0153836423329,39.93048544503111L84.06328185653688,39.91641198378221L84.13417121355874,39.89606793510913L84.33342778464726,39.84201358562203L84.36983042744227,39.832619491304285L84.57100292709896,39.78352739239159L84.99442314066206,39.69545628481035L85.0346576405934,39.68817203099809L85.14003371184212,39.66996139646744L85.30671949727196,39.6437828726535L85.4484982113157,39.624051738540686L85.80102906785692,39.58507272987217L86.85478978034428,39.550902743137954L86.8950242802756,39.55118562678115L86.91035170882088,39.55130349496582L86.93909063734327,39.55153923133514L87.1421790655681,39.55375515320685L87.3146126367024,39.5564071873618L87.69396649319785,39.56470510756216L87.70737799317496,39.565058712116155L87.84340892151424,39.56891300175468L88.04266549260277,39.57533681781888L88.07523627826146,39.57648013921013L88.2036034923281,39.58121844023364L88.60403256307329,39.59849791610543L88.6595944915499,39.60119709753425L89.33783320467812,39.640011090744224L89.3953110617229,39.64379465947195L89.60223134708404,39.65808028345327L89.70185963262831,39.665317389991685L89.76125341824122,39.66974923373505L89.87046134662629,39.67810608802776L90.43566027423314,39.72585448963528L90.92039020197733,39.77280138758712L90.98553177329472,39.77953166093144L91.5124121295384,39.837652462789464L91.72699612917219,39.86320628522469L92.33242955671038,39.941117155287856L92.80566391304562,40.00801913690336L92.83631877013615,40.01253348837599L92.8573939843859,40.01564520845113L93.30572126933507,40.0844212942028L93.34403984069823,40.090515079349956L93.57395126887731,40.12782035979623L93.8440971969877,40.17322318452895L93.8900794826235,40.18113213971992L94.44761469595772,40.280848623945985L95.22548169463022,40.4321088653258L95.27912769453866,40.44305881968111L95.37684005151476,40.46317891880332L95.56268512262616,40.50206363292409L95.6220789082391,40.51466374186472L95.63165855107988,40.51670286145941L95.83474697930471,40.56043195796991L96.36354326411656,40.67880697582834L96.75439269202096,40.770473063041834L97.03603419154031,40.83873052878096L97.06668904863085,40.84626230578101L97.07435276290349,40.84814819673565L97.13757840565273,40.86377751802215L97.1758969770159,40.87330126734304L97.31575976249151,40.908319905006806L97.78899411882672,41.03019560794979L98.17984354673114,41.13473290092861L98.23157361807142,41.14884172263294L98.36568861784254,41.185675530340575L98.74504247433799,41.29213407472943L98.77569733142853,41.30087989403154L99.65319261564527,41.5603902762071L99.88501997239248,41.63190090384296L100.09577211488997,41.697966021347355L100.49045339993069,41.8244150098553L100.52494011415754,41.83563606103536L100.9272851134709,41.96849707878903L101.50781146962302,42.166680644483705L102.0768422543662,42.36832953480754L102.53666511072431,42.53660994205288L102.60372261060986,42.56155084992787L102.70718275329044,42.60022340131624L102.76849246747153,42.62325484459964L102.90643932437897,42.67538794267671L102.95816939571925,42.695048355878725L102.96583310999189,42.697959700039945L103.08653660978591,42.7440815206991L103.44673118059977,42.883661024978664L103.60000546605247,42.94393881461602L103.6076691803251,42.94696802696191L103.84332839420863,43.040696807407016L103.85673989418574,43.046059809809265L103.94104075118474,43.07992333926333L104.04258496529715,43.120906107071136L104.58096089294979,43.34206218195689L104.99671739224026,43.51723787800512L105.02354039219448,43.528671091917545L105.30709782028198,43.650499647586656L105.57532781982422,43.767377739499864L105.97000910486494,43.94223519144947L105.98725246197837,43.94994377072652L106.08879667609078,43.99552339773621L106.34744703279222,44.112625439200286L106.63675224658421,44.24534501513236L107.35522545964378,44.582825201463436L107.46443338802882,44.63509974136207L107.61579174491338,44.707977639940054L107.6847651733671,44.741357909837006L107.90126510156904,44.846791001019284L107.93191995865958,44.86179562092707L108.08327831554412,44.9362058059057L108.24804817240579,45.017758802874994L109.66966716997965,45.74557126954059L109.78462288406917,45.80629695827966L109.82294145543234,45.82660564649734L110.14481745488303,45.99839852564568L110.32874659742627,46.09754924258536L110.4302908115387,46.152593684823614L110.48968459715161,46.18488956742166L110.55865802560534,46.22248951832958L110.63337923976353,46.26333084431579L110.89777738216945,46.40879197101012L111.02231273909977,46.47781557994958L111.06637909616744,46.5023203755413L111.26946752439227,46.615768503280776L111.47064002404893,46.7289808946509L111.55877273818425,46.77885092358238L112.1239716657911,47.10246981139693L112.74090066473825,47.46324075101765L113.00529880714417,47.6202411729906L113.56091809191022,47.954833588797385L113.6643782345908,48.017834133500486L113.71227644879478,48.04706544329724L113.95368344838278,48.19514324369109L114.10887366240364,48.29094650418631L114.22574530506134,48.363423650936426L114.9672096609388,48.82961589492098L115.06300608934674,48.89064804094019L115.24118744618552,49.00465014914758L115.27184230327607,49.02433413598655L115.32932016032082,49.06127402506036L115.46918294579643,49.15145497314708L116.16083315890177,49.603090496325564L116.52485958685193,49.844567046247505L116.83140815775735,50.049940571206704L117.12837708582197,50.250622942416285L117.30655844266073,50.371862157162056L117.41193451390947,50.44385604435506L117.526890227999,50.52262735216625L118.3085890838078,51.06504495117326L118.40055365507943,51.12962492955087L118.4158810836247,51.1403980816292L118.69943851171222,51.340620766918576L118.78948715441568,51.40452889664361L118.91593843991416,51.494521255634865L119.24164629650116,51.72772345899334L119.3470223677499,51.803595209461804L119.46389401040757,51.887988829681504L119.76469479560852,52.10637500222765L119.79918150983538,52.13152807283504L120.09423450933184,52.34756866850637L120.3241459375109,52.51703954441682L120.52340250859942,52.66469301934589L120.58662815134865,52.71169885139004L120.70924757971082,52.80308205496033L120.87976522227696,52.93060364394873L120.90850415079935,52.95214994810537L121.60015436390468,53.47522537800896L122.05614536312648,53.82483420054196L122.06955686310359,53.83517124033703L122.07722057737622,53.84107643638872L122.08488429164886,53.84699341925888L122.35503021975926,54.05600907112421L122.43933107675825,54.12149663452374L122.75737521907261,54.36972703142692L122.786114147595,54.39223985469782L122.82634864752633,54.42379316773247L122.85508757604872,54.446353138277246L123.08116714709146,54.62428694984658L123.85903414576394,55.2433660161593L123.94333500276294,55.31109307506745L124.16558271666935,55.49022914212037L124.41465343053001,55.69201947426579L124.50087021609716,55.76211568368569L124.90513114397866,56.09248841848148L125.10821957220351,56.2595076361509L125.11396735790798,56.26424593717442L125.16378150068012,56.30532299952996L125.22317528629303,56.354356164350335L125.56612649999347,56.63866601257928L125.57570614283425,56.6466339018626L125.59103357137953,56.65939902626175L125.90141399942125,56.918532230246385L126.00295821353367,57.003668420029456L126.38614392716543,57.32646223055134L126.62563499818529,57.52945481818033L127.03372778320313,57.87751956749423L127.09695342595238,57.93167999834752L127.42266128253937,58.21177016556548L127.4494842824936,58.23491947703357L127.6161700679234,58.37898975914884L127.95912128162384,58.676830874977256L128.0223469243731,58.731957824944786L128.3652981380735,59.03202664946336L128.94007670852116,59.53913094034492L128.9515722799301,59.54932653831838L129.29452349363055,59.85442833432214L129.82331977844237,60.328452919177636L130.84834156240737,61.25949370984155L131.1261512047904,61.514560461455275L131.3483989186968,61.71944483344814L131.51125284699032,61.870039119584575L131.6606952753067,62.00857549042986L131.712425346647,62.05660677568059L131.7449961323057,62.08686943209317L132.2565490600041,62.5642002195285L132.70487634495328,62.985649700614445L132.79492498765674,63.07065034198517L133.02675234440395,63.290008927054814L133.425265486581,63.668866739612284L133.48274334362574,63.723693125708934L133.6111105576924,63.846305504806054L134.27976962797982,64.48870479145462L134.4579509848186,64.66092788947698L134.46944655622755,64.67205464610929L134.51159698472705,64.71286650504932L134.68403055586134,64.88006841840499L135.02506584099362,65.21194986596447L136.26467162459238,66.43131391654518L136.42369369574953,66.58919245649388L136.55972462408883,66.72450513248859L136.74556969520026,66.90975266491635L136.87010505213058,67.03413306678344L137.05403419467382,67.21819013054609L137.333759765625,67.49893446618894L138.21317097840992,68.3878786347L138.36644526386263,68.54378288255556L138.93547604860578,69.12505572863718L138.9948698342187,69.18595232624403L139.01019726276397,69.20167004866903L139.62137847600664,69.83081505795208L139.90876776123045,70.12814934058646L140.28428976058962,70.51809265591162L140.5486879029955,70.79360364415537L140.68280290276664,70.93365462117359L140.68471883133478,70.93565248690363L140.84565683106013,71.10398593483208L141.14837354482924,71.42138138249632L141.35912568732672,71.64294410261918L141.52006368705204,71.81246212580349L141.7557229009356,72.0611934624915L141.96647504343306,72.28413524037494L142.2097979715892,72.54211922955909L142.75775354208267,73.12535458091537L142.77691282776422,73.14580471095464L143.0949569700786,73.48580727643751L143.4819745408467,73.90092134259775L143.69464261191231,74.12966812857591L143.7981027545929,74.24111249717609L144.16404511111125,74.63613003785106L144.2540937538147,74.7335363056577L144.41311582497187,74.90573583004313L144.5568104675838,75.06154578335097L144.6162042531967,75.12600200013468L144.70433696733204,75.22171685949138L144.84611568137578,75.3758354043493L144.92658468123844,75.46339378532723L145.05303596673693,75.60111097228908L145.43238982323237,76.01514065115042L145.70445167991093,76.31287568561264L146.18151789338248,76.83656992348571L146.85017696366992,77.5739414999276L147.11840696321215,77.8708043098233L147.42687146268574,78.21294618285782L147.48051746259418,78.27252855020566L147.5667342481613,78.36833770411012L148.36950831821986,79.26329904344827L148.43464988953727,79.33614158157086L148.50937110369546,79.4197454849533L149.9463175298146,81.03562989556343L149.98080424404145,81.07459711741348L150.16664931515285,81.28472662362391L150.26436167212896,81.39531055447603L150.4233837432861,81.57541314064319L150.57282617160254,81.74483097587054L151.22232595620838,82.48288618778348L151.33536574172976,82.61162181907392L151.68598066970281,83.01144838168318L151.71280366965703,83.042070536059L152.2301043830599,83.63348004602175L152.27033888299124,83.67954882599781L152.6267015966688,84.08799744631528L152.73590952505384,84.21332079365969L152.88726788193839,84.38712921876579L153.11143152441298,84.64477728362365L154.15178073692323,85.84419803735913L154.15944445119587,85.85304993802743L154.21883823680878,85.9217022621852L154.3855240222386,86.11446978479455L154.53113459341867,86.28298003499998L155.0273600925718,86.85802944093133L155.18255030659267,87.03811434687078L155.79181559126718,87.74620157283282L156.01023144803727,88.00044914056312L156.25163844762528,88.28170620280925L156.30145259039745,88.33977396398417L156.52370030430384,88.59896610206113L156.81875330380032,88.94338283105968L156.92604530361723,89.06871207181331L157.0237576605933,89.18288508888847L157.0659080890928,89.23215399007817L157.12913373184205,89.30606323527198L157.17703194604601,89.36206240980603L157.48358051695143,89.72068225505663L157.6330229452678,89.89563400155396L157.6751733737673,89.94499130388218L157.6790052309036,89.94947618830865L157.87442994485582,90.17841156338228L157.88017773056032,90.18514773013585L158.17523073005677,90.53104959826116L158.491358943803,90.90197488199072L158.77874822902677,91.23946096173101L159.0393145142964,91.54566482526137L159.3650223708834,91.92869517155597L159.63133644185748,92.24210078116931L160.5337387974603,93.30540146184514L160.54331844030108,93.31670502075445L160.63336708300454,93.42291604195553L160.7483227970941,93.55852928182114L160.79238915416175,93.61052093807659L160.95907493959155,93.80722525805373L161.2962783675875,94.2053309451669L161.3096898675646,94.22116653577658L162.5952779367992,95.74074674610668L162.6642513652529,95.82234099694058L163.12215829304284,96.36418104184274L163.18155207865578,96.43447762717658L163.75249879196713,97.11038683872522L163.78698550619396,97.15122227130219L163.94025979164667,97.33272159545764L164.05904736287252,97.47339727385457L164.18933050550734,97.62769262098948L164.631910004752,98.1518936920566L164.63574186188833,98.15643161716619L164.87714886147634,98.4423857265712L164.95953378990717,98.53998058347331L165.1875292895181,98.81005784840403L165.59562207453592,99.29347652757728L165.693334431512,99.4092230849177L165.9692281453269,99.73601852030893L166.05927678803033,99.84267744061172L166.12058650221144,99.91529602918345L166.28344043050492,100.10817552656823L166.50568814441138,100.37137518292379L166.5190996443885,100.38725792080733L166.5401748586382,100.41221650890999L167.06513928631375,101.0337767005099L167.30654628590176,101.31953043400098L167.56711257117135,101.62789717871993L167.70122757094248,101.78658900914283L167.91772749914443,102.0427106810093L168.22236014148166,102.40299836107289L168.41203706972942,102.62726615603381L168.86036435467858,103.15712489996481L169.00022714015415,103.32235841463658L169.1094350685392,103.45134746252404L170.0865586383002,104.60443423286796L170.21684178093503,104.75802237089489L170.36436828068324,104.93189562350254L170.39119128063746,104.9635019772203L170.46591249479567,105.05153772434612L170.52722220897675,105.12376734790844L171.109664493697,105.80944193855655L171.31850070762636,106.05506744857864L171.66145192132677,106.45815895990312L171.7055182783944,106.50992666660771L172.0733765634809,106.94184873590109L172.1212747776849,106.99806007316754L172.37226142011372,107.292465331413L172.38567292009083,107.30818894724722L172.42973927715846,107.35985646599484L172.4929649199077,107.43397787392105L172.50062863418034,107.44295942959246L172.62516399111067,107.58890970925314L172.749699348041,107.73480105482146L173.10606206171855,108.15197781421334L173.18078327587673,108.23938885996044L173.21143813296726,108.27524436173535L173.48733184678215,108.59778475566019L173.53714598955426,108.6559939586567L173.60803534657614,108.73880814520187L174.01612813159397,109.2151606267045L174.0946812028885,109.30677367323489L174.24603955977304,109.48322529238209L174.34183598818097,109.59485530337311L174.378238630976,109.63726427621533L174.5736633449282,109.86483238034687L175.07946848692214,110.45305060920982L175.2959684151241,110.70446934050817L175.36302591500964,110.78229770284207L176.17346369934083,111.72117378108156L176.41870255606514,112.00462613826708L177.67555169677735,113.45222719492726L177.74069326809473,113.5270116113922L177.85756491075242,113.66112497860794L177.8920516249793,113.70068448808591L178.0357462675912,113.86543474320055L178.32505148138318,114.1967592635875L178.42467976692745,114.31074074486258L178.69290976646968,114.61730410635616L179.15848040853228,115.1483385854292L179.6412944077083,115.69755128528212L179.9497589071819,116.04761979373532L180.0417234784535,116.1518653629571L180.41341362067632,116.57258406129813L180.4747233348574,116.64188760717619L180.49005076340268,116.65920833691261L180.85216126278468,117.06794868098713L180.88090019130706,117.10034769824675L181.00735147680555,117.24283265327827L181.24875847639356,117.5145217656343L181.41161240468705,117.69756221630422L181.51507254736765,117.81374193922329L181.66451497568403,117.98141237861299L182.0515325464521,118.4148490540793L182.11284226063322,118.48340413698472L182.18373161765507,118.56263807742073L182.33700590310778,118.73381214859958L182.62631111689976,119.05639968979827L182.98650568771362,119.45708963686022L183.04589947332656,119.52306045981688L183.10912511607577,119.59325391048912L183.30646575859615,119.81212923600165L183.3275409728459,119.8354848167929L183.4482444726399,119.96917975195308L183.90040361472538,120.46890549447465L183.95596554320198,120.53019105709089L184.79514225605558,121.45254201584044L185.15916868400575,121.85068895681823L185.17258018398286,121.86533702546741L185.42356682641164,122.13911240469199L185.44847389779773,122.16624860750633L185.53660661193302,122.26222572357392L185.58642075470516,122.31643919511029L185.68988089738573,122.42896795100938L185.86039853995186,122.61420959002791L186.59803103869302,123.41233632225507L186.70723896707807,123.53005127827939L186.91032739530291,123.74864961355794L187.03486275223324,123.88249483065357L187.1210795378004,123.97506555618436L187.4333758944103,124.30974931983425L187.93918103640422,124.84971231389562L187.99857482201713,124.91294564826345L188.0234818934032,124.93945125628984L188.47755696405684,125.42153213156715L188.6059241781235,125.55742530837134L189.0523355345045,126.02862695020411L189.2286009627751,126.2140895920689L189.3224814626149,126.3127305291099L189.52748581940787,126.52779576555315L189.9815608900615,127.00249514576585L190.17890153258188,127.20808083345746L190.3417554608754,127.37740732084168L190.37241031796592,127.40924646422414L191.10429503100258,128.16621067966187L191.1368658166613,128.19975596501735L191.34953388772692,128.41846332836673L191.38593653052195,128.45584522313303L191.54112674454282,128.61504094004536L191.65991431576865,128.7367015335513L192.04693188653675,129.13191061002635L192.20403802912577,129.29182532286512L192.45502467155458,129.54667991174645L193.3555110985892,130.45465389867158L193.65056409808568,130.74995200841585L193.68888266944884,130.78822086127178L194.08356395448956,131.18130536371825L194.4169355253492,131.5117635529479L194.704324810573,131.79548406025353L194.74264338193623,131.8332313463923L194.74839116764068,131.83889196596078L194.86717873886653,131.95577595128324L194.9112450959342,131.99908956244278L194.91699288163866,132.00473839519282L195.44195730931418,132.51870850783106L195.6048112376077,132.6774032849586L195.65462538037983,132.7258736291972L195.89603237996783,132.96029282156232L196.01673587976182,133.07720627393093L196.82142587838854,133.8515162660943L196.9344656639099,133.95956897768076L196.93829752104622,133.9632287848146L196.99769130665916,134.01992632834276L197.13372223499843,134.1495990117013L197.5820495199476,134.5751208385674L197.767894591059,134.75067518615884L198.2430448759624,135.19726300432907L199.0668941602707,135.96381137653233L199.37344273117608,136.24648727705136L199.98462394441876,136.80588084135465L200.06892480141775,136.88259682269577L200.28350880105154,137.07738873137674L200.3563140866416,137.14331830046876L200.75865908595492,137.50620939406116L200.96366344274793,137.69015153634376L201.22997751372202,137.92813476794268L201.2817075850623,137.9742330149649L201.52503051321847,138.19050787365327L201.78751272705622,138.42277155159138L201.89480472687313,138.51739907694454L201.95611444105418,138.57139007228238L202.09214536939348,138.6909688189767L202.16303472641536,138.7531693333764L202.82019822529384,139.32595714351447L202.99071586785996,139.47344707633732L203.03478222492762,139.51148608623313L203.14973793901717,139.61056902896664L203.66512272385188,140.05214744928864L203.8183970093046,140.18263194976905L203.97933500902994,140.31922349556737L204.0559721517563,140.38411729798665L204.11345000880107,140.43272466398992L204.2379853657314,140.53784982453976L204.29929507991244,140.58950997652585L205.03884350722177,141.2077050314536L205.30324164962767,141.42648311571378L205.43735664939882,141.53700516576893L205.57147164916992,141.647220758544L205.801383077349,141.83544740933914L205.88568393434798,141.9042367552616L206.1462502196176,142.11608861032042L206.25545814800262,142.20453100268332L206.42597579056877,142.3422128291898L206.52943593324932,142.4255043818829L206.68271021870206,142.5485587666725L206.89346236119954,142.7170881704579L206.9126216468811,142.73237125395195L207.18659943212782,142.95020639273483L207.32646221760342,143.06090082501007L207.69432050268992,143.35039392665962L207.82843550246102,143.4553422849325L207.92231600230082,143.5286165152814L207.95680271652765,143.5554934080895L208.07942214488983,143.6508856032907L208.36489550154548,143.87192970340104L208.81705464363097,144.2190441404761L208.9415900005613,144.31399875004172L209.35351464271545,144.62607686922527L209.80567378480094,144.96507018837696L209.84590828473227,144.99505290785095L210.0087622130258,145.11610795355818L210.0125940701621,145.11895005016092L210.52989478356497,145.50019174675322L211.29626621082852,146.05583489275574L211.3709874249867,146.10942071620877L211.68903156730107,146.3363265484777L211.83655806704928,146.44092866895812L211.88062442411695,146.47209301698337L212.19100485215867,146.69055580384958L212.39600920895168,146.83384152586066L212.45731892313276,146.8765370657269L212.50904899447306,146.91250601562953L212.52629235158648,146.92448436989605L212.66232327992577,147.0187781809514L212.80601792253768,147.1179988821257L212.96503999369483,147.22734077698192L213.1163983505794,147.33095943479654L213.30990713596344,147.4627891059344L213.3482257073266,147.48880777102292L213.4938362785067,147.5874199776939L213.60304420689172,147.66110822004146L213.6241194211415,147.67530249617968L213.991977706228,147.92165584224207L214.43647313404082,148.2158010538051L214.474791705404,148.2409762246971L215.1587782042367,148.68548293273187L215.17218970421382,148.69410572711624L215.49406570366452,148.89998829529796L215.5592072749819,148.9414042286844L215.62051698916298,148.98030588635675L215.72397713184358,149.04578239961396L215.89641070297787,149.15443402891373L216.27001677376882,149.38779830102612L216.32941055938176,149.4246387388191L216.43478663063047,149.4898250016716L216.50184413051605,149.53119084107956L216.52100341619763,149.54299312974524L216.89460948698863,149.77164930455643L217.10727755805425,149.90054258454387L217.38508720043728,150.0675293884625L217.49046327168602,150.13045773890252L217.8966401281357,150.370890418714L218.3143125559943,150.6145939406499L218.94465305491858,150.97556378283227L219.0557769118718,151.0383455347176L219.76467048209054,151.43278920466847L219.96392705317905,151.54176644482837L219.99075005313327,151.55637252293675L220.0271526959283,151.57617143125577L220.10570576722282,151.61879993359193L220.13252876717704,151.63332645067567L220.16126769569942,151.64887400090905L220.1861747670855,151.66233381092158L220.26089598124366,151.70263588996295L220.33753312397005,151.743849237407L220.35477648108346,151.7531055732839L220.4639844094685,151.81158071637208L220.50996669510434,151.83612676582842L220.83567455169134,152.00871378187094L220.83950640882765,152.010730801181L221.16329833684648,152.18004771177525L221.50050176484243,152.35400862884524L221.67676719311305,152.44397815087572L221.81471405002048,152.51392592005055L221.8415370499747,152.52747928793465L222.21131126362937,152.71275628740858L222.65005890573775,152.928782886233L222.7592668341228,152.98190939210392L222.99492604800633,153.09567318557544L223.3321294760023,153.25636840679954L223.52372233281815,153.34657403353742L223.72106297533853,153.43865192272108L224.3609831171036,153.73139855460548L225.62741190065657,154.28430126531453L225.70404904338292,154.31662587828257L225.76727468613217,154.34319594547247L226.1198055426734,154.48972230588566L226.93982296984535,154.8198791945683L227.2023051836831,154.92239431150398L227.72726961135865,155.12280190250806L228.18326061058045,155.29186189729353L228.4591543243953,155.3918794978976L228.46107025296348,155.3925681059327L228.57219410991667,155.43236372011808L228.94771610927583,155.56478291634832L228.95537982354844,155.56745207822385L229.10673818043298,155.6198977111593L229.57039289392745,155.77732540530167L230.03213167885372,155.9292538119533L230.27737053557803,156.00797428910985L230.34059617832727,156.0280472409582L230.49770232091632,156.07753106741586L230.7122863205501,156.14420873114244L230.82724203463965,156.1794962556025L230.91920660591126,156.20750891887124L231.03416232000077,156.24225277632954L231.1031357484545,156.26295392876833L231.13953839124952,156.2738357405794L231.32346753379275,156.32835309102936L231.38860910511016,156.34747536230077L231.40776839079174,156.3530810994958L231.74305589021955,156.44981828118543L232.19904688944135,156.5772374721884L232.27759996073587,156.59870495199655L232.44620167473386,156.64430170672685L232.8715378168651,156.75641847648672L232.94051124531882,156.77420625890488L233.1646748877934,156.8312576832406L233.5267853871754,156.92096356729243L233.58043138708385,156.93399518429035L234.39086917141506,157.12275067647965L234.643771742412,157.17853161070303L235.01546188463485,157.25781315883552L235.090183098793,157.27336301118189L235.4714528838566,157.35068168570163L236.27614288248333,157.50273302518647L236.54628881059372,157.55038602723204L236.78769581018176,157.59152460204643L237.0789169525419,157.63933580529613L237.53682388033187,157.71049218378639L238.13459359359743,157.79597774223555L238.14608916500637,157.79753940359785L238.45455366447993,157.83828496168402L238.4698810930252,157.84025124242396L238.9220402351107,157.8957702422323L239.14620387758526,157.92151039769226L239.67500016239714,157.97754154857563L239.77654437650952,157.98754694597454L240.46053087534224,158.04860622239525L240.48352201816013,158.05046689370215L240.94717673165457,158.0853272495879L240.95675637449537,158.08599398754967L240.97016787447248,158.08692377645127L241.1732563026973,158.10048424635391L241.4817208021709,158.1192170806828L241.65415437330518,158.12870922199244L242.01051708698273,158.1460995100726L242.14846394389016,158.15202531579075L242.27491522938863,158.15706209439526L242.6025390145438,158.1683531672193L242.69641951438356,158.17112074730244L242.7692247999736,158.17312353667666L242.83436637129103,158.1748092445193L242.90717165688105,158.1765745061925L242.98189287103924,158.17825586304164L243.10259637083328,158.18069293883573L243.20414058494566,158.18247627641233L243.27886179910388,158.18363277452275L243.35358301326207,158.18465720472787L243.3804060132163,158.1849927333785L243.412976798875,158.1853772826474L243.61989708423616,158.18723417417257L243.65821565559932,158.1874668947739L243.72335722691673,158.18778280366664L243.83448108386995,158.1880900314352L243.895790798051,158.1881344917116" fill="none"></path></g></g></g></g></g><g><g opacity="0.38244"><span fill="rgb(0, 0, 0)" stroke="none" stroke-width="1px">Alt + Scroll to Zoom</span></g></g></g><g transform="translate(61, 177)" clip-path="url(#clip_1)"><clipPath id="clip_1"><rect width="268" height="22"></rect></clipPath><g><g><line x1="0" y1="0" x2="0" y2="5" style="visibility: inherit;" fill="rgb(0, 0, 0)" stroke="rgb(204, 204, 204)" stroke-width="1px"></line><line x1="19.159285681588308" y1="0" x2="19.159285681588308" y2="5" style="visibility: inherit;" fill="rgb(0, 0, 0)" stroke="rgb(204, 204, 204)" stroke-width="1px"></line><line x1="38.318571363176616" y1="0" x2="38.318571363176616" y2="5" style="visibility: inherit;" fill="rgb(0, 0, 0)" stroke="rgb(204, 204, 204)" stroke-width="1px"></line><line x1="57.477857044764924" y1="0" x2="57.477857044764924" y2="5" style="visibility: inherit;" fill="rgb(0, 0, 0)" stroke="rgb(204, 204, 204)" stroke-width="1px"></line><line x1="76.63714272635323" y1="0" x2="76.63714272635323" y2="5" style="visibility: inherit;" fill="rgb(0, 0, 0)" stroke="rgb(204, 204, 204)" stroke-width="1px"></line><line x1="95.79642840794155" y1="0" x2="95.79642840794155" y2="5" style="visibility: inherit;" fill="rgb(0, 0, 0)" stroke="rgb(204, 204, 204)" stroke-width="1px"></line><line x1="114.95571408952985" y1="0" x2="114.95571408952985" y2="5" style="visibility: inherit;" fill="rgb(0, 0, 0)" stroke="rgb(204, 204, 204)" stroke-width="1px"></line><line x1="134.11499977111816" y1="0" x2="134.11499977111816" y2="5" style="visibility: inherit;" fill="rgb(0, 0, 0)" stroke="rgb(204, 204, 204)" stroke-width="1px"></line><line x1="153.27428545270647" y1="0" x2="153.27428545270647" y2="5" style="visibility: inherit;" fill="rgb(0, 0, 0)" stroke="rgb(204, 204, 204)" stroke-width="1px"></line><line x1="172.4335711342948" y1="0" x2="172.4335711342948" y2="5" style="visibility: inherit;" fill="rgb(0, 0, 0)" stroke="rgb(204, 204, 204)" stroke-width="1px"></line><line x1="191.5928568158831" y1="0" x2="191.5928568158831" y2="5" style="visibility: inherit;" fill="rgb(0, 0, 0)" stroke="rgb(204, 204, 204)" stroke-width="1px"></line><line x1="210.7521424974714" y1="0" x2="210.7521424974714" y2="5" style="visibility: inherit;" fill="rgb(0, 0, 0)" stroke="rgb(204, 204, 204)" stroke-width="1px"></line><line x1="229.9114281790597" y1="0" x2="229.9114281790597" y2="5" style="visibility: inherit;" fill="rgb(0, 0, 0)" stroke="rgb(204, 204, 204)" stroke-width="1px"></line><line x1="249.07071386064803" y1="0" x2="249.07071386064803" y2="5" style="visibility: inherit;" fill="rgb(0, 0, 0)" stroke="rgb(204, 204, 204)" stroke-width="1px"></line><line x1="268.2299995422363" y1="0" x2="268.2299995422363" y2="5" style="visibility: inherit;" fill="rgb(0, 0, 0)" stroke="rgb(204, 204, 204)" stroke-width="1px"></line></g><g transform="translate(0, 8)"><text style="text-anchor: middle; visibility: hidden; font-family: &quot;Helvetica Neue&quot;, sans-serif; font-size: 12px; font-weight: 200;" x="0" y="0" dx="0em" dy="0.95em" fill="rgb(50, 49, 63)" stroke="none" stroke-width="1px">-10k</text><text style="text-anchor: middle; visibility: inherit; font-family: &quot;Helvetica Neue&quot;, sans-serif; font-size: 12px; font-weight: 200;" x="19.159285681588308" y="0" dx="0em" dy="0.95em" fill="rgb(50, 49, 63)" stroke="none" stroke-width="1px">0</text><text style="text-anchor: middle; visibility: hidden; font-family: &quot;Helvetica Neue&quot;, sans-serif; font-size: 12px; font-weight: 200;" x="38.318571363176616" y="0" dx="0em" dy="0.95em" fill="rgb(50, 49, 63)" stroke="none" stroke-width="1px">10k</text><text style="text-anchor: middle; visibility: inherit; font-family: &quot;Helvetica Neue&quot;, sans-serif; font-size: 12px; font-weight: 200;" x="57.477857044764924" y="0" dx="0em" dy="0.95em" fill="rgb(50, 49, 63)" stroke="none" stroke-width="1px">20k</text><text style="text-anchor: middle; visibility: hidden; font-family: &quot;Helvetica Neue&quot;, sans-serif; font-size: 12px; font-weight: 200;" x="76.63714272635323" y="0" dx="0em" dy="0.95em" fill="rgb(50, 49, 63)" stroke="none" stroke-width="1px">30k</text><text style="text-anchor: middle; visibility: inherit; font-family: &quot;Helvetica Neue&quot;, sans-serif; font-size: 12px; font-weight: 200;" x="95.79642840794155" y="0" dx="0em" dy="0.95em" fill="rgb(50, 49, 63)" stroke="none" stroke-width="1px">40k</text><text style="text-anchor: middle; visibility: hidden; font-family: &quot;Helvetica Neue&quot;, sans-serif; font-size: 12px; font-weight: 200;" x="114.95571408952985" y="0" dx="0em" dy="0.95em" fill="rgb(50, 49, 63)" stroke="none" stroke-width="1px">50k</text><text style="text-anchor: middle; visibility: inherit; font-family: &quot;Helvetica Neue&quot;, sans-serif; font-size: 12px; font-weight: 200;" x="134.11499977111816" y="0" dx="0em" dy="0.95em" fill="rgb(50, 49, 63)" stroke="none" stroke-width="1px">60k</text><text style="text-anchor: middle; visibility: hidden; font-family: &quot;Helvetica Neue&quot;, sans-serif; font-size: 12px; font-weight: 200;" x="153.27428545270647" y="0" dx="0em" dy="0.95em" fill="rgb(50, 49, 63)" stroke="none" stroke-width="1px">70k</text><text style="text-anchor: middle; visibility: inherit; font-family: &quot;Helvetica Neue&quot;, sans-serif; font-size: 12px; font-weight: 200;" x="172.4335711342948" y="0" dx="0em" dy="0.95em" fill="rgb(50, 49, 63)" stroke="none" stroke-width="1px">80k</text><text style="text-anchor: middle; visibility: hidden; font-family: &quot;Helvetica Neue&quot;, sans-serif; font-size: 12px; font-weight: 200;" x="191.5928568158831" y="0" dx="0em" dy="0.95em" fill="rgb(50, 49, 63)" stroke="none" stroke-width="1px">90k</text><text style="text-anchor: middle; visibility: inherit; font-family: &quot;Helvetica Neue&quot;, sans-serif; font-size: 12px; font-weight: 200;" x="210.7521424974714" y="0" dx="0em" dy="0.95em" fill="rgb(50, 49, 63)" stroke="none" stroke-width="1px">100k</text><text style="text-anchor: middle; visibility: hidden; font-family: &quot;Helvetica Neue&quot;, sans-serif; font-size: 12px; font-weight: 200;" x="229.9114281790597" y="0" dx="0em" dy="0.95em" fill="rgb(50, 49, 63)" stroke="none" stroke-width="1px">110k</text><text style="text-anchor: middle; visibility: inherit; font-family: &quot;Helvetica Neue&quot;, sans-serif; font-size: 12px; font-weight: 200;" x="249.07071386064803" y="0" dx="0em" dy="0.95em" fill="rgb(50, 49, 63)" stroke="none" stroke-width="1px">120k</text><text style="text-anchor: middle; visibility: hidden; font-family: &quot;Helvetica Neue&quot;, sans-serif; font-size: 12px; font-weight: 200;" x="268.2299995422363" y="0" dx="0em" dy="0.95em" fill="rgb(50, 49, 63)" stroke="none" stroke-width="1px">130k</text></g><line x1="0" y1="0" x2="268.2299995422363" y2="0" fill="rgb(0, 0, 0)" stroke="rgb(204, 204, 204)" stroke-width="1px"></line></g></g></g></g></svg>