<svg viewBox="0 0 330 200" xmlns="http://www.w3.org/2000/svg"><g><g><g><g><g><line x1="51.41600036621094" y1="177.9749994277954" x2="46.41600036621094" y2="177.9749994277954" style="visibility: inherit;" fill="rgb(0, 0, 0)" stroke="rgb(204, 204, 204)" stroke-width="1px"></line><line x1="51.41600036621094" y1="164.28461485642654" x2="46.41600036621094" y2="164.28461485642654" style="visibility: inherit;" fill="rgb(0, 0, 0)" stroke="rgb(204, 204, 204)" stroke-width="1px"></line><line x1="51.41600036621094" y1="150.59423028505765" x2="46.41600036621094" y2="150.59423028505765" style="visibility: inherit;" fill="rgb(0, 0, 0)" stroke="rgb(204, 204, 204)" stroke-width="1px"></line><line x1="51.41600036621094" y1="136.90384571368878" x2="46.41600036621094" y2="136.90384571368878" style="visibility: inherit;" fill="rgb(0, 0, 0)" stroke="rgb(204, 204, 204)" stroke-width="1px"></line><line x1="51.41600036621094" y1="123.21346114231989" x2="46.41600036621094" y2="123.21346114231989" style="visibility: inherit;" fill="rgb(0, 0, 0)" stroke="rgb(204, 204, 204)" stroke-width="1px"></line><line x1="51.41600036621094" y1="109.52307657095103" x2="46.41600036621094" y2="109.52307657095103" style="visibility: inherit;" fill="rgb(0, 0, 0)" stroke="rgb(204, 204, 204)" stroke-width="1px"></line><line x1="51.41600036621094" y1="95.83269199958215" x2="46.41600036621094" y2="95.83269199958215" style="visibility: inherit;" fill="rgb(0, 0, 0)" stroke="rgb(204, 204, 204)" stroke-width="1px"></line><line x1="51.41600036621094" y1="82.14230742821327" x2="46.41600036621094" y2="82.14230742821327" style="visibility: inherit;" fill="rgb(0, 0, 0)" stroke="rgb(204, 204, 204)" stroke-width="1px"></line><line x1="51.41600036621094" y1="68.4519228568444" x2="46.41600036621094" y2="68.4519228568444" style="visibility: inherit;" fill="rgb(0, 0, 0)" stroke="rgb(204, 204, 204)" stroke-width="1px"></line><line x1="51.41600036621094" y1="54.76153828547551" x2="46.41600036621094" y2="54.76153828547551" style="visibility: inherit;" fill="rgb(0, 0, 0)" stroke="rgb(204, 204, 204)" stroke-width="1px"></line><line x1="51.41600036621094" y1="41.07115371410666" x2="46.41600036621094" y2="41.07115371410666" style="visibility: inherit;" fill="rgb(0, 0, 0)" stroke="rgb(204, 204, 204)" stroke-width="1px"></line><line x1="51.41600036621094" y1="27.380769142737762" x2="46.41600036621094" y2="27.380769142737762" style="visibility: inherit;" fill="rgb(0, 0, 0)" stroke="rgb(204, 204, 204)" stroke-width="1px"></line><line x1="51.41600036621094" y1="13.690384571368867" x2="46.41600036621094" y2="13.690384571368867" style="visibility: inherit;" fill="rgb(0, 0, 0)" stroke="rgb(204, 204, 204)" stroke-width="1px"></line><line x1="51.41600036621094" y1="0" x2="46.41600036621094" y2="0" style="visibility: inherit;" fill="rgb(0, 0, 0)" stroke="rgb(204, 204, 204)" stroke-width="1px"></line></g><g transform="translate(41.41600036621094, 0)"><text style="text-anchor: end; visibility: hidden; font-family: &quot;Helvetica Neue&quot;, sans-serif; font-size: 12px; font-weight: 200;" x="0" y="177.9749994277954" dx="0em" dy="0.3em" fill="rgb(50, 49, 63)" stroke="none" stroke-width="1px">-0.1</text><text style="text-anchor: end; visibility: inherit; font-family: &quot;Helvetica Neue&quot;, sans-serif; font-size: 12px; font-weight: 200;" x="0" y="164.28461485642654" dx="0em" dy="0.3em" fill="rgb(50, 49, 63)" stroke="none" stroke-width="1px">0</text><text style="text-anchor: end; visibility: hidden; font-family: &quot;Helvetica Neue&quot;, sans-serif; font-size: 12px; font-weight: 200;" x="0" y="150.59423028505765" dx="0em" dy="0.3em" fill="rgb(50, 49, 63)" stroke="none" stroke-width="1px">0.1</text><text style="text-anchor: end; visibility: inherit; font-family: &quot;Helvetica Neue&quot;, sans-serif; font-size: 12px; font-weight: 200;" x="0" y="136.90384571368878" dx="0em" dy="0.3em" fill="rgb(50, 49, 63)" stroke="none" stroke-width="1px">0.2</text><text style="text-anchor: end; visibility: hidden; font-family: &quot;Helvetica Neue&quot;, sans-serif; font-size: 12px; font-weight: 200;" x="0" y="123.21346114231989" dx="0em" dy="0.3em" fill="rgb(50, 49, 63)" stroke="none" stroke-width="1px">0.3</text><text style="text-anchor: end; visibility: inherit; font-family: &quot;Helvetica Neue&quot;, sans-serif; font-size: 12px; font-weight: 200;" x="0" y="109.52307657095103" dx="0em" dy="0.3em" fill="rgb(50, 49, 63)" stroke="none" stroke-width="1px">0.4</text><text style="text-anchor: end; visibility: hidden; font-family: &quot;Helvetica Neue&quot;, sans-serif; font-size: 12px; font-weight: 200;" x="0" y="95.83269199958215" dx="0em" dy="0.3em" fill="rgb(50, 49, 63)" stroke="none" stroke-width="1px">0.5</text><text style="text-anchor: end; visibility: inherit; font-family: &quot;Helvetica Neue&quot;, sans-serif; font-size: 12px; font-weight: 200;" x="0" y="82.14230742821327" dx="0em" dy="0.3em" fill="rgb(50, 49, 63)" stroke="none" stroke-width="1px">0.6</text><text style="text-anchor: end; visibility: hidden; font-family: &quot;Helvetica Neue&quot;, sans-serif; font-size: 12px; font-weight: 200;" x="0" y="68.4519228568444" dx="0em" dy="0.3em" fill="rgb(50, 49, 63)" stroke="none" stroke-width="1px">0.7</text><text style="text-anchor: end; visibility: inherit; font-family: &quot;Helvetica Neue&quot;, sans-serif; font-size: 12px; font-weight: 200;" x="0" y="54.76153828547551" dx="0em" dy="0.3em" fill="rgb(50, 49, 63)" stroke="none" stroke-width="1px">0.8</text><text style="text-anchor: end; visibility: hidden; font-family: &quot;Helvetica Neue&quot;, sans-serif; font-size: 12px; font-weight: 200;" x="0" y="41.07115371410666" dx="0em" dy="0.3em" fill="rgb(50, 49, 63)" stroke="none" stroke-width="1px">0.9</text><text style="text-anchor: end; visibility: inherit; font-family: &quot;Helvetica Neue&quot;, sans-serif; font-size: 12px; font-weight: 200;" x="0" y="27.380769142737762" dx="0em" dy="0.3em" fill="rgb(50, 49, 63)" stroke="none" stroke-width="1px">1</text><text style="text-anchor: end; visibility: hidden; font-family: &quot;Helvetica Neue&quot;, sans-serif; font-size: 12px; font-weight: 200;" x="0" y="13.690384571368867" dx="0em" dy="0.3em" fill="rgb(50, 49, 63)" stroke="none" stroke-width="1px">1.1</text><text style="text-anchor: end; visibility: hidden; font-family: &quot;Helvetica Neue&quot;, sans-serif; font-size: 12px; font-weight: 200;" x="0" y="0" dx="0em" dy="0.3em" fill="rgb(50, 49, 63)" stroke="none" stroke-width="1px">1.2</text></g><line x1="51.41600036621094" y1="0" x2="51.41600036621094" y2="177.9749994277954" fill="rgb(0, 0, 0)" stroke="rgb(204, 204, 204)" stroke-width="1px"></line></g></g><g transform="translate(51, 0)" clip-path="url(#clip_0)"><clipPath id="clip_0"><rect width="278" height="177"></rect></clipPath><g><g><g><line x1="0" y1="0" x2="0" y2="177.9749994277954" fill="rgb(0, 0, 0)" stroke="rgb(60, 60, 60)" stroke-width="1px" opacity="0.25"></line><line x1="23.215333302815754" y1="0" x2="23.215333302815754" y2="177.9749994277954" fill="rgb(0, 0, 0)" stroke="rgb(60, 60, 60)" stroke-width="1px" opacity="0.25"></line><line x1="46.43066660563151" y1="0" x2="46.43066660563151" y2="177.9749994277954" fill="rgb(0, 0, 0)" stroke="rgb(60, 60, 60)" stroke-width="1px" opacity="0.25"></line><line x1="69.64599990844727" y1="0" x2="69.64599990844727" y2="177.9749994277954" fill="rgb(0, 0, 0)" stroke="rgb(60, 60, 60)" stroke-width="1px" opacity="0.25"></line><line x1="92.86133321126302" y1="0" x2="92.86133321126302" y2="177.9749994277954" fill="rgb(0, 0, 0)" stroke="rgb(60, 60, 60)" stroke-width="1px" opacity="0.25"></line><line x1="116.07666651407878" y1="0" x2="116.07666651407878" y2="177.9749994277954" fill="rgb(0, 0, 0)" stroke="rgb(60, 60, 60)" stroke-width="1px" opacity="0.25"></line><line x1="139.29199981689453" y1="0" x2="139.29199981689453" y2="177.9749994277954" fill="rgb(0, 0, 0)" stroke="rgb(60, 60, 60)" stroke-width="1px" opacity="0.25"></line><line x1="162.5073331197103" y1="0" x2="162.5073331197103" y2="177.9749994277954" fill="rgb(0, 0, 0)" stroke="rgb(60, 60, 60)" stroke-width="1px" opacity="0.25"></line><line x1="185.72266642252603" y1="0" x2="185.72266642252603" y2="177.9749994277954" fill="rgb(0, 0, 0)" stroke="rgb(60, 60, 60)" stroke-width="1px" opacity="0.25"></line><line x1="208.9379997253418" y1="0" x2="208.9379997253418" y2="177.9749994277954" fill="rgb(0, 0, 0)" stroke="rgb(60, 60, 60)" stroke-width="1px" opacity="0.25"></line><line x1="232.15333302815756" y1="0" x2="232.15333302815756" y2="177.9749994277954" fill="rgb(0, 0, 0)" stroke="rgb(60, 60, 60)" stroke-width="1px" opacity="0.25"></line><line x1="255.3686663309733" y1="0" x2="255.3686663309733" y2="177.9749994277954" fill="rgb(0, 0, 0)" stroke="rgb(60, 60, 60)" stroke-width="1px" opacity="0.25"></line><line x1="278.58399963378906" y1="0" x2="278.58399963378906" y2="177.9749994277954" fill="rgb(0, 0, 0)" stroke="rgb(60, 60, 60)" stroke-width="1px" opacity="0.25"></line></g><g><line x1="0" y1="177.9749994277954" x2="278.58399963378906" y2="177.9749994277954" fill="rgb(0, 0, 0)" stroke="rgb(60, 60, 60)" stroke-width="1px" opacity="0.25"></line><line x1="0" y1="164.28461485642654" x2="278.58399963378906" y2="164.28461485642654" fill="rgb(0, 0, 0)" stroke="rgb(60, 60, 60)" stroke-width="1px" opacity="0.25"></line><line x1="0" y1="150.59423028505765" x2="278.58399963378906" y2="150.59423028505765" fill="rgb(0, 0, 0)" stroke="rgb(60, 60, 60)" stroke-width="1px" opacity="0.25"></line><line x1="0" y1="136.90384571368878" x2="278.58399963378906" y2="136.90384571368878" fill="rgb(0, 0, 0)" stroke="rgb(60, 60, 60)" stroke-width="1px" opacity="0.25"></line><line x1="0" y1="123.21346114231989" x2="278.58399963378906" y2="123.21346114231989" fill="rgb(0, 0, 0)" stroke="rgb(60, 60, 60)" stroke-width="1px" opacity="0.25"></line><line x1="0" y1="109.52307657095103" x2="278.58399963378906" y2="109.52307657095103" fill="rgb(0, 0, 0)" stroke="rgb(60, 60, 60)" stroke-width="1px" opacity="0.25"></line><line x1="0" y1="95.83269199958215" x2="278.58399963378906" y2="95.83269199958215" fill="rgb(0, 0, 0)" stroke="rgb(60, 60, 60)" stroke-width="1px" opacity="0.25"></line><line x1="0" y1="82.14230742821327" x2="278.58399963378906" y2="82.14230742821327" fill="rgb(0, 0, 0)" stroke="rgb(60, 60, 60)" stroke-width="1px" opacity="0.25"></line><line x1="0" y1="68.4519228568444" x2="278.58399963378906" y2="68.4519228568444" fill="rgb(0, 0, 0)" stroke="rgb(60, 60, 60)" stroke-width="1px" opacity="0.25"></line><line x1="0" y1="54.76153828547551" x2="278.58399963378906" y2="54.76153828547551" fill="rgb(0, 0, 0)" stroke="rgb(60, 60, 60)" stroke-width="1px" opacity="0.25"></line><line x1="0" y1="41.07115371410666" x2="278.58399963378906" y2="41.07115371410666" fill="rgb(0, 0, 0)" stroke="rgb(60, 60, 60)" stroke-width="1px" opacity="0.25"></line><line x1="0" y1="27.380769142737762" x2="278.58399963378906" y2="27.380769142737762" fill="rgb(0, 0, 0)" stroke="rgb(60, 60, 60)" stroke-width="1px" opacity="0.25"></line><line x1="0" y1="13.690384571368867" x2="278.58399963378906" y2="13.690384571368867" fill="rgb(0, 0, 0)" stroke="rgb(60, 60, 60)" stroke-width="1px" opacity="0.25"></line><line x1="0" y1="0" x2="278.58399963378906" y2="0" fill="rgb(0, 0, 0)" stroke="rgb(60, 60, 60)" stroke-width="1px" opacity="0.25"></line></g></g></g><g><g><line x1="0" y1="164.28461485642654" x2="278.58399963378906" y2="164.28461485642654" fill="rgb(0, 0, 0)" stroke="rgb(153, 153, 153)" stroke-width="1.5px"></line></g></g><g><g><line x1="23.215333302815754" y1="0" x2="23.215333302815754" y2="177.9749994277954" fill="rgb(0, 0, 0)" stroke="rgb(153, 153, 153)" stroke-width="1.5px"></line></g></g><g><g><g><g><g><path style="fill: none;" stroke="rgb(51, 187, 238)" stroke-width="2px" d="M23.215333302815754,162.9183145276534L24.37609996795654,144.20903454756478L25.53686663309733,136.26313629413696L26.69763329823812,131.12102771008261L27.858399963378908,126.01998893495707L29.019166628519695,122.46322760823176L30.179933293660483,117.65242541099751L31.34069995880127,115.00197023638432L32.50146662394206,112.7375777937858L33.66223328908285,108.8002250855101L34.82299995422363,107.80356616976518L35.983766619364424,102.39860224045626L37.14453328450521,98.69398388951375L38.305299949646,97.65077565427065L39.46606661478678,92.74139938752323L40.626833279927574,91.22176749652753L41.78759994506836,92.34986122499173L42.94836661020915,91.18617311811559L44.10913327534993,88.1715528535025L45.269899940490724,84.57645535305429L46.43066660563151,85.4060932377731L47.5914332707723,79.96006357958792L48.75219993591308,79.4042298611311L49.912966601053874,78.39114465383567L51.07373326619466,77.40817023433026L52.23449993133545,74.86450227500548L53.39526659647624,79.03459342066691L54.556033261617024,71.39808963186046L55.716799926757815,72.29618263819732L56.8775665918986,70.59583705983088L58.03833325703939,70.65059952510431L59.199099922180174,68.38621116255834L60.359866587320965,68.04942730519515L61.52063325246175,66.34360629631189L62.68139991760254,67.89609077040858L63.842166582743324,64.69528138790793L65.00293324788412,65.50027575524845L66.1636999130249,63.192075788462716L67.3244665781657,62.80874669165392L68.48523324330647,61.929821772178514L69.64599990844727,59.94197937120548L70.80676657358805,62.50482357749682L71.96753323872885,60.04876250644135L73.12829990386963,62.91827162220075L74.28906656901042,61.63684951905509L75.4498332341512,61.50268107112997L76.610599899292,59.59150285749766L77.77136656443278,61.13852006118262L78.93213322957357,60.344476554875754L80.09289989471435,57.53794713021756L81.25366655985515,56.04569239180603L82.41443322499593,56.47557488816554L83.57519989013672,56.021057034532845L84.7359665552775,54.76975387928229L85.8967332204183,54.36451490030106L87.05749988555908,57.18199518599292L88.21826655069987,51.42108339251189L89.37903321584066,54.777962945005L90.53979988098145,51.72227287146313L91.70056654612223,51.1883490351787L92.86133321126302,52.48893106508072L94.02209987640381,51.63739145829459L95.1828665415446,51.385489014099946L96.34363320668538,51.59632164936579L97.50439987182617,49.28812168258008L98.66516653696696,50.86251603884918L99.82593320210775,48.06967927053563L100.98669986724853,49.49895431784594L102.14746653238932,51.27323044834725L103.30823319753011,49.06633818628055L104.4689998626709,47.7192027568278L105.62976652781168,49.277170821546406L106.79053319295248,47.229090524783146L107.95129985809326,48.47217645420588L109.11206652323405,46.21052172686578L110.27283318837483,46.11468945266358L111.43359985351563,47.283852990056545L112.59436651865641,47.11956559423629L113.7551331837972,46.9689708547607L114.91589984893798,48.91574344680495L116.07666651407878,45.07969436319573L117.23743317921956,46.133857539525025L118.39819984436035,45.01398103688865L119.55896650950113,45.82171719954013L120.71973317464193,44.488274426432014L121.88049983978271,43.836608433772994L123.0412665049235,43.41768495855223L124.2020331700643,44.23089655172055L125.36279983520508,43.91053898590786L126.52356650034586,44.663512683285944L127.68433316548665,44.20077760382543L128.84509983062745,46.010648112738664L130.00586649576823,45.197436519570346L131.16663316090902,44.58684849594519L132.3273998260498,41.8843604112119L133.4881664911906,43.688755489608326L134.6489331563314,42.1882916854741L135.80969982147215,42.26495587281485L136.97046648661293,41.73650746704726L138.13123315175375,41.61055624494995L139.29199981689453,40.97805833915234L140.45276648203532,40.4523517286957L141.6135331471761,41.68448679708479L142.77429981231688,40.794611016575715L143.9350664774577,40.309966054942805L145.09583314259848,40.32365871128741L146.25659980773926,39.51592254863593L147.41736647288005,41.94186467179628L148.57813313802083,42.25673864698706L149.73889980316162,39.12711802131028L150.8996664683024,40.7973446517816L152.06043313344318,39.72127975338495L153.221199798584,41.7967453628375L154.38196646372478,42.544235469593644L155.54273312886556,39.806161166553494L156.70349979400635,38.84783842453149L157.86426645914713,40.41401555497279L159.02503312428792,38.84783842453149L160.1857997894287,37.86213036982022L161.3465664545695,38.36319346289855L162.5073331197103,38.42343135868879L163.66809978485108,36.807967193490896L164.82886644999186,37.73617914772288L165.98963311513265,36.807967193490896L167.15039978027343,40.153895884950344L168.31116644541422,37.02154162406774L169.471933110555,36.410945440337485L170.6326997756958,37.13380018982042L171.7934664408366,36.082378808802076L172.95423310597738,37.22963246402264L174.11499977111816,35.23631463253275L175.27576643625895,35.21714654567131L176.43653310139973,35.69357428147646L177.59729976654052,35.25547455928913L178.75806643168133,35.230839202015915L179.9188330968221,34.90500620568642L181.0795997619629,35.014531136233245L182.24036642710368,34.809173931484224L183.40113309224446,34.913215271409115L184.56189975738525,33.73584266829346L185.72266642252603,33.52775182833855L186.88343308766682,33.14989816204658L188.04419975280763,33.37168165834609L189.2049664179484,32.88704485681825L190.3657330830892,32.944540957297534L191.52649974822998,32.85145047840629L192.68726641337076,32.202526281058226L193.84803307851155,32.67894585675825L195.00879974365233,32.82406516571703L196.16956640879314,32.13954658995701L197.33033307393393,31.802762732593834L198.4910997390747,31.07990798311087L199.6518664042155,31.7014550278748L200.81263306935628,31.145621309417947L201.97339973449706,31.0059855910811L203.13416639963785,30.669201733717898L204.29493306477863,30.847173625777685L205.45569972991944,29.93812975840717L206.61646639506023,29.990158588474713L207.777233060201,29.8313466231713L208.9379997253418,29.686227314212516L210.09876639048258,29.746465210002754L211.25953305562336,29.41515678315639L212.42029972076415,29.231709460579793L213.58106638590496,29.1358771863776L214.74183305104575,28.823736846392677L215.90259971618653,28.612904211126846L217.0633663813273,28.593736124265376L218.2241330464681,28.448616815306593L219.38489971160888,28.396596145344148L220.54566637674967,28.319931958003394L221.70643304189045,28.265169492729996L222.86719970703126,28.15016913166633L224.02796637217205,28.084455805359227L225.18873303731283,27.96945544429559L226.3494997024536,27.892791256954837L227.5102663675944,27.901000322677532L228.67103303273518,27.8325533611646L229.83179969787597,27.772315465374362L230.99256636301678,27.7449301526851L232.15333302815756,27.679216826378024L233.31409969329835,27.692909482722627L234.47486635843913,27.66553233013849L235.6356330235799,27.67100776065533L236.7963996887207,27.624454361104597L237.95716635386148,27.66553233013849L239.11793301900227,27.649097878482877L240.27869968414308,27.6162452953819L241.43946634928386,27.6162452953819L242.60023301442465,27.64088881276018L243.76099967956543,27.58885998269264L244.9217663447062,27.60255263903727L246.082533009847,27.599819003831414L247.24329967498778,27.575175486453105L248.4040663401286,27.58885998269264L249.56483300526938,27.57243369114215L250.72559967041016,27.561482830108503L251.88636633555095,27.55874103479752L253.04713300069173,27.575175486453105L254.2078996658325,27.580650916969944" fill="none"></path></g><g><path style="fill: none;" stroke="rgb(0, 119, 187)" stroke-width="2px" d="M23.215333302815754,162.87450521844318L24.37609996795654,143.21511334707827L25.53686663309733,135.5211175378451L26.69763329823812,130.66103034588053L27.858399963378908,126.62236789285953L29.019166628519695,122.84381898978216L30.179933293660483,118.81884715307952L31.34069995880127,116.29981863108048L32.50146662394206,114.32840252165795L33.66223328908285,110.60461608385398L34.82299995422363,107.92130016603471L35.983766619364424,103.97847202724219L37.14453328450521,100.50111260311604L38.305299949646,99.76183156208259L39.46606661478678,95.62733479483313L40.626833279927574,94.69638920539526L41.78759994506836,95.95590550642106L42.94836661020915,93.66961134175521L44.10913327534993,92.4648534259503L45.269899940490724,90.00059144927721L46.43066660563151,89.2202324392099L47.5914332707723,86.07144372667169L48.75219993591308,84.77086169676966L49.912966601053874,85.35954799832749L51.07373326619466,85.51014273780311L52.23449993133545,81.69052810584948L53.39526659647624,86.6601381883346L54.556033261617024,80.59529512059137L55.716799926757815,81.361953314209L56.8775665918986,79.71911199642695L58.03833325703939,81.27981369635143L59.199099922180174,79.52744744802254L60.359866587320965,79.34946739585769L61.52063325246175,78.37745199749102L62.68139991760254,79.92446920117598L63.842166582743324,76.89888991542412L65.00293324788412,77.43281375170857L66.1636999130249,77.63817095645757L67.3244665781657,77.10424712017316L68.48523324330647,76.70722536701973L69.64599990844727,75.74889446489263L70.80676657358805,78.03519270961101L71.96753323872885,76.15960887439067L73.12829990386963,78.74708843795521L74.28906656901042,77.63817095645757L75.4498332341512,77.59710114752879L76.610599899292,76.93995972435293L77.77136656443278,77.52864602591076L78.93213322957357,76.52925347495996L80.09289989471435,75.256040437537L81.25366655985515,74.07866783442132L82.41443322499593,74.68104679232377L83.57519989013672,74.92747380600159L84.7359665552775,75.119138354406L85.8967332204183,74.50307490026401L87.05749988555908,77.1179397765178L88.21826655069987,72.6411837213883L89.37903321584066,76.35127342279509L90.53979988098145,73.36677210607712L91.70056654612223,72.61379840869904L92.86133321126302,74.01022087290838L94.02209987640381,72.79177846086391L95.1828665415446,73.84593347708812L96.34363320668538,73.61319911975494L97.50439987182617,72.09356722875926L98.66516653696696,73.29831698445908L99.82593320210775,72.39475670771048L100.98669986724853,73.46260438027933L102.14746653238932,74.27033238282573L103.30823319753011,73.10665243605467L104.4689998626709,71.87451736766559L105.62976652781168,71.71023813195043L106.79053319295248,72.36737139502122L107.95129985809326,73.38046476242175L109.11206652323405,72.29892443350828L110.27283318837483,71.4911882708568L111.43359985351563,73.32570229714834L112.59436651865641,73.39414925866129L113.7551331837972,72.84653276603224L114.91589984893798,74.07866783442132L116.07666651407878,71.79237774980803L117.23743317921956,72.91498788765027L118.39819984436035,72.3536787386766L119.55896650950113,73.84593347708812L120.71973317464193,72.10725172499879L121.88049983978271,71.75130794087924L123.0412665049235,72.18939950296146L124.2020331700643,71.86082471132097L125.36279983520508,71.87451736766559L126.52356650034586,73.43521906759008L127.68433316548665,72.36737139502122L128.84509983062745,74.35248016078839L130.00586649576823,72.38106405136585L131.16663316090902,72.60010575235442L132.3273998260498,71.09416651770336L133.4881664911906,73.6405762723391L134.6489331563314,71.13523632663214L135.80969982147215,71.94297248928365L136.97046648661293,71.83344755873681L138.13123315175375,71.57332788871436L139.29199981689453,70.83404684768091L140.45276648203532,70.83404684768091L141.6135331471761,71.94297248928365L142.77429981231688,70.72453007723917L143.9350664774577,70.65607495562114L145.09583314259848,70.94357177822774L146.25659980773926,70.19059808084967L147.41736647288005,72.27153912081903L148.57813313802083,72.4905889819127L149.73889980316162,71.38166334030996L150.8996664683024,72.1209443813434L152.06043313344318,70.17691358461013L153.221199798584,72.90129523130565L154.38196646372478,74.29771769551498L155.54273312886556,71.91558717659439L156.70349979400635,71.18999879190555L157.86426645914713,72.73701599559051L159.02503312428792,71.7786850934634L160.1857997894287,69.98524903620572L161.3465664545695,71.54595073613021L162.5073331197103,70.71083742089456L163.66809978485108,70.21798339353893L164.82886644999186,71.50488092720143L165.98963311513265,70.75190722982335L167.15039978027343,72.65486821762784L168.31116644541422,71.3542861877258L169.471933110555,70.42334059828795L170.6326997756958,70.4507177508721L171.7934664408366,70.56024268141894L172.95423310597738,71.34059353138117L174.11499977111816,69.57453462670767L175.27576643625895,68.9721556688052L176.43653310139973,70.08108131040792L177.59729976654052,70.28643035505188L178.75806643168133,70.39595528559869L179.9188330968221,70.82036235144137L181.0795997619629,69.50607950508962L182.24036642710368,70.13584377568134L183.40113309224446,69.97155637986111L184.56189975738525,69.32810761302986L185.72266642252603,69.7388220225279L186.88343308766682,68.13704235356956L188.04419975280763,69.2596524914118L189.2049664179484,68.75311396781663L190.3657330830892,69.93048657093232L191.52649974822998,69.30073046044569L192.68726641337076,69.15013572097007L193.84803307851155,69.98524903620572L195.00879974365233,68.89001605094764L196.16956640879314,68.94477851622105L197.33033307393393,69.76619917511208L198.4910997390747,68.46561714521003L199.6518664042155,69.02691813407863L200.81263306935628,69.2048900261384L201.97339973449706,68.30132974938981L203.13416639963785,68.49299429779421L204.29493306477863,69.04061079042326L205.45569972991944,67.87692268354711L206.61646639506023,67.27455188574973L207.777233060201,66.94597709410925L208.9379997253418,66.97336240679851L210.09876639048258,67.82216837837879L211.25953305562336,67.05550202465609L212.42029972076415,66.89122278894094L213.58106638590496,66.45312306675362L214.74183305104575,66.50788553202703L215.90259971618653,66.86383747625169L217.0633663813273,66.32991363996727L218.2241330464681,65.7275346820648L219.38489971160888,66.2066960530758L220.54566637674967,65.93289188681383L221.70643304189045,65.74122733840943L222.86719970703126,66.48050837944288L224.02796637217205,65.74122733840943L225.18873303731283,65.85075226895626L226.3494997024536,65.65908772055185L227.5102663675944,64.86504421424499L228.67103303273518,64.81028174897156L229.83179969787597,64.19421013472449L230.99256636301678,64.61861720056717L232.15333302815756,64.96087648844718L233.31409969329835,64.46802246109155L234.47486635843913,64.41325999581815L235.6356330235799,64.38587468312889L236.7963996887207,64.1531403257957L237.95716635386148,64.04361539524886L239.11793301900227,64.31742772161593L240.27869968414308,64.27635791268715L241.43946634928386,63.97516843373592L242.60023301442465,63.97516843373592L243.76099967956543,63.97516843373592L244.9217663447062,64.04361539524886L246.082533009847,63.934098624807135L247.24329967498778,64.05730805159351L248.4040663401286,63.79718838157105L249.56483300526938,63.60552383316666L250.72559967041016,63.756118572642265L251.88636633555095,63.454929093691035L253.04713300069173,63.78350388533151L254.2078996658325,63.90671331211789" fill="none"></path></g></g></g></g></g></g><g transform="translate(51, 177)" clip-path="url(#clip_1)"><clipPath id="clip_1"><rect width="278" height="22"></rect></clipPath><g><g><line x1="0" y1="0" x2="0" y2="5" style="visibility: inherit;" fill="rgb(0, 0, 0)" stroke="rgb(204, 204, 204)" stroke-width="1px"></line><line x1="23.215333302815754" y1="0" x2="23.215333302815754" y2="5" style="visibility: inherit;" fill="rgb(0, 0, 0)" stroke="rgb(204, 204, 204)" stroke-width="1px"></line><line x1="46.43066660563151" y1="0" x2="46.43066660563151" y2="5" style="visibility: inherit;" fill="rgb(0, 0, 0)" stroke="rgb(204, 204, 204)" stroke-width="1px"></line><line x1="69.64599990844727" y1="0" x2="69.64599990844727" y2="5" style="visibility: inherit;" fill="rgb(0, 0, 0)" stroke="rgb(204, 204, 204)" stroke-width="1px"></line><line x1="92.86133321126302" y1="0" x2="92.86133321126302" y2="5" style="visibility: inherit;" fill="rgb(0, 0, 0)" stroke="rgb(204, 204, 204)" stroke-width="1px"></line><line x1="116.07666651407878" y1="0" x2="116.07666651407878" y2="5" style="visibility: inherit;" fill="rgb(0, 0, 0)" stroke="rgb(204, 204, 204)" stroke-width="1px"></line><line x1="139.29199981689453" y1="0" x2="139.29199981689453" y2="5" style="visibility: inherit;" fill="rgb(0, 0, 0)" stroke="rgb(204, 204, 204)" stroke-width="1px"></line><line x1="162.5073331197103" y1="0" x2="162.5073331197103" y2="5" style="visibility: inherit;" fill="rgb(0, 0, 0)" stroke="rgb(204, 204, 204)" stroke-width="1px"></line><line x1="185.72266642252603" y1="0" x2="185.72266642252603" y2="5" style="visibility: inherit;" fill="rgb(0, 0, 0)" stroke="rgb(204, 204, 204)" stroke-width="1px"></line><line x1="208.9379997253418" y1="0" x2="208.9379997253418" y2="5" style="visibility: inherit;" fill="rgb(0, 0, 0)" stroke="rgb(204, 204, 204)" stroke-width="1px"></line><line x1="232.15333302815756" y1="0" x2="232.15333302815756" y2="5" style="visibility: inherit;" fill="rgb(0, 0, 0)" stroke="rgb(204, 204, 204)" stroke-width="1px"></line><line x1="255.3686663309733" y1="0" x2="255.3686663309733" y2="5" style="visibility: inherit;" fill="rgb(0, 0, 0)" stroke="rgb(204, 204, 204)" stroke-width="1px"></line><line x1="278.58399963378906" y1="0" x2="278.58399963378906" y2="5" style="visibility: inherit;" fill="rgb(0, 0, 0)" stroke="rgb(204, 204, 204)" stroke-width="1px"></line></g><g transform="translate(0, 8)"><text style="text-anchor: middle; visibility: hidden; font-family: &quot;Helvetica Neue&quot;, sans-serif; font-size: 12px; font-weight: 200;" x="0" y="0" dx="0em" dy="0.95em" fill="rgb(50, 49, 63)" stroke="none" stroke-width="1px">-20</text><text style="text-anchor: middle; visibility: inherit; font-family: &quot;Helvetica Neue&quot;, sans-serif; font-size: 12px; font-weight: 200;" x="23.215333302815754" y="0" dx="0em" dy="0.95em" fill="rgb(50, 49, 63)" stroke="none" stroke-width="1px">0</text><text style="text-anchor: middle; visibility: hidden; font-family: &quot;Helvetica Neue&quot;, sans-serif; font-size: 12px; font-weight: 200;" x="46.43066660563151" y="0" dx="0em" dy="0.95em" fill="rgb(50, 49, 63)" stroke="none" stroke-width="1px">20</text><text style="text-anchor: middle; visibility: inherit; font-family: &quot;Helvetica Neue&quot;, sans-serif; font-size: 12px; font-weight: 200;" x="69.64599990844727" y="0" dx="0em" dy="0.95em" fill="rgb(50, 49, 63)" stroke="none" stroke-width="1px">40</text><text style="text-anchor: middle; visibility: hidden; font-family: &quot;Helvetica Neue&quot;, sans-serif; font-size: 12px; font-weight: 200;" x="92.86133321126302" y="0" dx="0em" dy="0.95em" fill="rgb(50, 49, 63)" stroke="none" stroke-width="1px">60</text><text style="text-anchor: middle; visibility: inherit; font-family: &quot;Helvetica Neue&quot;, sans-serif; font-size: 12px; font-weight: 200;" x="116.07666651407878" y="0" dx="0em" dy="0.95em" fill="rgb(50, 49, 63)" stroke="none" stroke-width="1px">80</text><text style="text-anchor: middle; visibility: hidden; font-family: &quot;Helvetica Neue&quot;, sans-serif; font-size: 12px; font-weight: 200;" x="139.29199981689453" y="0" dx="0em" dy="0.95em" fill="rgb(50, 49, 63)" stroke="none" stroke-width="1px">100</text><text style="text-anchor: middle; visibility: inherit; font-family: &quot;Helvetica Neue&quot;, sans-serif; font-size: 12px; font-weight: 200;" x="162.5073331197103" y="0" dx="0em" dy="0.95em" fill="rgb(50, 49, 63)" stroke="none" stroke-width="1px">120</text><text style="text-anchor: middle; visibility: hidden; font-family: &quot;Helvetica Neue&quot;, sans-serif; font-size: 12px; font-weight: 200;" x="185.72266642252603" y="0" dx="0em" dy="0.95em" fill="rgb(50, 49, 63)" stroke="none" stroke-width="1px">140</text><text style="text-anchor: middle; visibility: inherit; font-family: &quot;Helvetica Neue&quot;, sans-serif; font-size: 12px; font-weight: 200;" x="208.9379997253418" y="0" dx="0em" dy="0.95em" fill="rgb(50, 49, 63)" stroke="none" stroke-width="1px">160</text><text style="text-anchor: middle; visibility: hidden; font-family: &quot;Helvetica Neue&quot;, sans-serif; font-size: 12px; font-weight: 200;" x="232.15333302815756" y="0" dx="0em" dy="0.95em" fill="rgb(50, 49, 63)" stroke="none" stroke-width="1px">180</text><text style="text-anchor: middle; visibility: inherit; font-family: &quot;Helvetica Neue&quot;, sans-serif; font-size: 12px; font-weight: 200;" x="255.3686663309733" y="0" dx="0em" dy="0.95em" fill="rgb(50, 49, 63)" stroke="none" stroke-width="1px">200</text><text style="text-anchor: middle; visibility: hidden; font-family: &quot;Helvetica Neue&quot;, sans-serif; font-size: 12px; font-weight: 200;" x="278.58399963378906" y="0" dx="0em" dy="0.95em" fill="rgb(50, 49, 63)" stroke="none" stroke-width="1px">220</text></g><line x1="0" y1="0" x2="278.58399963378906" y2="0" fill="rgb(0, 0, 0)" stroke="rgb(204, 204, 204)" stroke-width="1px"></line></g></g></g></g></svg>