<svg viewBox="0 0 330 200" xmlns="http://www.w3.org/2000/svg"><g><g><g><g><g><line x1="41.0620002746582" y1="177.9749994277954" x2="36.0620002746582" y2="177.9749994277954" style="visibility: inherit;" fill="rgb(0, 0, 0)" stroke="rgb(204, 204, 204)" stroke-width="1px"></line><line x1="41.0620002746582" y1="161.79545402526853" x2="36.0620002746582" y2="161.79545402526853" style="visibility: inherit;" fill="rgb(0, 0, 0)" stroke="rgb(204, 204, 204)" stroke-width="1px"></line><line x1="41.0620002746582" y1="145.61590862274164" x2="36.0620002746582" y2="145.61590862274164" style="visibility: inherit;" fill="rgb(0, 0, 0)" stroke="rgb(204, 204, 204)" stroke-width="1px"></line><line x1="41.0620002746582" y1="129.43636322021484" x2="36.0620002746582" y2="129.43636322021484" style="visibility: inherit;" fill="rgb(0, 0, 0)" stroke="rgb(204, 204, 204)" stroke-width="1px"></line><line x1="41.0620002746582" y1="113.25681781768799" x2="36.0620002746582" y2="113.25681781768799" style="visibility: inherit;" fill="rgb(0, 0, 0)" stroke="rgb(204, 204, 204)" stroke-width="1px"></line><line x1="41.0620002746582" y1="97.0772724151611" x2="36.0620002746582" y2="97.0772724151611" style="visibility: inherit;" fill="rgb(0, 0, 0)" stroke="rgb(204, 204, 204)" stroke-width="1px"></line><line x1="41.0620002746582" y1="80.8977270126343" x2="36.0620002746582" y2="80.8977270126343" style="visibility: inherit;" fill="rgb(0, 0, 0)" stroke="rgb(204, 204, 204)" stroke-width="1px"></line><line x1="41.0620002746582" y1="64.71818161010737" x2="36.0620002746582" y2="64.71818161010737" style="visibility: inherit;" fill="rgb(0, 0, 0)" stroke="rgb(204, 204, 204)" stroke-width="1px"></line><line x1="41.0620002746582" y1="48.538636207580566" x2="36.0620002746582" y2="48.538636207580566" style="visibility: inherit;" fill="rgb(0, 0, 0)" stroke="rgb(204, 204, 204)" stroke-width="1px"></line><line x1="41.0620002746582" y1="32.3590908050536" x2="36.0620002746582" y2="32.3590908050536" style="visibility: inherit;" fill="rgb(0, 0, 0)" stroke="rgb(204, 204, 204)" stroke-width="1px"></line><line x1="41.0620002746582" y1="16.1795454025268" x2="36.0620002746582" y2="16.1795454025268" style="visibility: inherit;" fill="rgb(0, 0, 0)" stroke="rgb(204, 204, 204)" stroke-width="1px"></line><line x1="41.0620002746582" y1="0" x2="36.0620002746582" y2="0" style="visibility: inherit;" fill="rgb(0, 0, 0)" stroke="rgb(204, 204, 204)" stroke-width="1px"></line></g><g transform="translate(31.062000274658203, 0)"><text style="text-anchor: end; visibility: hidden; font-family: &quot;Helvetica Neue&quot;, sans-serif; font-size: 12px; font-weight: 200;" x="0" y="177.9749994277954" dx="0em" dy="0.3em" fill="rgb(50, 49, 63)" stroke="none" stroke-width="1px">3.5</text><text style="text-anchor: end; visibility: inherit; font-family: &quot;Helvetica Neue&quot;, sans-serif; font-size: 12px; font-weight: 200;" x="0" y="161.79545402526853" dx="0em" dy="0.3em" fill="rgb(50, 49, 63)" stroke="none" stroke-width="1px">3.6</text><text style="text-anchor: end; visibility: hidden; font-family: &quot;Helvetica Neue&quot;, sans-serif; font-size: 12px; font-weight: 200;" x="0" y="145.61590862274164" dx="0em" dy="0.3em" fill="rgb(50, 49, 63)" stroke="none" stroke-width="1px">3.7</text><text style="text-anchor: end; visibility: inherit; font-family: &quot;Helvetica Neue&quot;, sans-serif; font-size: 12px; font-weight: 200;" x="0" y="129.43636322021484" dx="0em" dy="0.3em" fill="rgb(50, 49, 63)" stroke="none" stroke-width="1px">3.8</text><text style="text-anchor: end; visibility: hidden; font-family: &quot;Helvetica Neue&quot;, sans-serif; font-size: 12px; font-weight: 200;" x="0" y="113.25681781768799" dx="0em" dy="0.3em" fill="rgb(50, 49, 63)" stroke="none" stroke-width="1px">3.9</text><text style="text-anchor: end; visibility: inherit; font-family: &quot;Helvetica Neue&quot;, sans-serif; font-size: 12px; font-weight: 200;" x="0" y="97.0772724151611" dx="0em" dy="0.3em" fill="rgb(50, 49, 63)" stroke="none" stroke-width="1px">4</text><text style="text-anchor: end; visibility: hidden; font-family: &quot;Helvetica Neue&quot;, sans-serif; font-size: 12px; font-weight: 200;" x="0" y="80.8977270126343" dx="0em" dy="0.3em" fill="rgb(50, 49, 63)" stroke="none" stroke-width="1px">4.1</text><text style="text-anchor: end; visibility: inherit; font-family: &quot;Helvetica Neue&quot;, sans-serif; font-size: 12px; font-weight: 200;" x="0" y="64.71818161010737" dx="0em" dy="0.3em" fill="rgb(50, 49, 63)" stroke="none" stroke-width="1px">4.2</text><text style="text-anchor: end; visibility: hidden; font-family: &quot;Helvetica Neue&quot;, sans-serif; font-size: 12px; font-weight: 200;" x="0" y="48.538636207580566" dx="0em" dy="0.3em" fill="rgb(50, 49, 63)" stroke="none" stroke-width="1px">4.3</text><text style="text-anchor: end; visibility: inherit; font-family: &quot;Helvetica Neue&quot;, sans-serif; font-size: 12px; font-weight: 200;" x="0" y="32.3590908050536" dx="0em" dy="0.3em" fill="rgb(50, 49, 63)" stroke="none" stroke-width="1px">4.4</text><text style="text-anchor: end; visibility: hidden; font-family: &quot;Helvetica Neue&quot;, sans-serif; font-size: 12px; font-weight: 200;" x="0" y="16.1795454025268" dx="0em" dy="0.3em" fill="rgb(50, 49, 63)" stroke="none" stroke-width="1px">4.5</text><text style="text-anchor: end; visibility: hidden; font-family: &quot;Helvetica Neue&quot;, sans-serif; font-size: 12px; font-weight: 200;" x="0" y="0" dx="0em" dy="0.3em" fill="rgb(50, 49, 63)" stroke="none" stroke-width="1px">4.6</text></g><line x1="41.0620002746582" y1="0" x2="41.0620002746582" y2="177.9749994277954" fill="rgb(0, 0, 0)" stroke="rgb(204, 204, 204)" stroke-width="1px"></line></g></g><g transform="translate(41, 0)" clip-path="url(#clip_0)"><clipPath id="clip_0"><rect width="288" height="177"></rect></clipPath><g><g><g><line x1="0" y1="0" x2="0" y2="177.9749994277954" fill="rgb(0, 0, 0)" stroke="rgb(60, 60, 60)" stroke-width="1px" opacity="0.25"></line><line x1="24.07816664377848" y1="0" x2="24.07816664377848" y2="177.9749994277954" fill="rgb(0, 0, 0)" stroke="rgb(60, 60, 60)" stroke-width="1px" opacity="0.25"></line><line x1="48.15633328755696" y1="0" x2="48.15633328755696" y2="177.9749994277954" fill="rgb(0, 0, 0)" stroke="rgb(60, 60, 60)" stroke-width="1px" opacity="0.25"></line><line x1="72.23449993133545" y1="0" x2="72.23449993133545" y2="177.9749994277954" fill="rgb(0, 0, 0)" stroke="rgb(60, 60, 60)" stroke-width="1px" opacity="0.25"></line><line x1="96.31266657511392" y1="0" x2="96.31266657511392" y2="177.9749994277954" fill="rgb(0, 0, 0)" stroke="rgb(60, 60, 60)" stroke-width="1px" opacity="0.25"></line><line x1="120.39083321889242" y1="0" x2="120.39083321889242" y2="177.9749994277954" fill="rgb(0, 0, 0)" stroke="rgb(60, 60, 60)" stroke-width="1px" opacity="0.25"></line><line x1="144.4689998626709" y1="0" x2="144.4689998626709" y2="177.9749994277954" fill="rgb(0, 0, 0)" stroke="rgb(60, 60, 60)" stroke-width="1px" opacity="0.25"></line><line x1="168.5471665064494" y1="0" x2="168.5471665064494" y2="177.9749994277954" fill="rgb(0, 0, 0)" stroke="rgb(60, 60, 60)" stroke-width="1px" opacity="0.25"></line><line x1="192.62533315022785" y1="0" x2="192.62533315022785" y2="177.9749994277954" fill="rgb(0, 0, 0)" stroke="rgb(60, 60, 60)" stroke-width="1px" opacity="0.25"></line><line x1="216.70349979400635" y1="0" x2="216.70349979400635" y2="177.9749994277954" fill="rgb(0, 0, 0)" stroke="rgb(60, 60, 60)" stroke-width="1px" opacity="0.25"></line><line x1="240.78166643778485" y1="0" x2="240.78166643778485" y2="177.9749994277954" fill="rgb(0, 0, 0)" stroke="rgb(60, 60, 60)" stroke-width="1px" opacity="0.25"></line><line x1="264.8598330815633" y1="0" x2="264.8598330815633" y2="177.9749994277954" fill="rgb(0, 0, 0)" stroke="rgb(60, 60, 60)" stroke-width="1px" opacity="0.25"></line><line x1="288.9379997253418" y1="0" x2="288.9379997253418" y2="177.9749994277954" fill="rgb(0, 0, 0)" stroke="rgb(60, 60, 60)" stroke-width="1px" opacity="0.25"></line></g><g><line x1="0" y1="177.9749994277954" x2="288.9379997253418" y2="177.9749994277954" fill="rgb(0, 0, 0)" stroke="rgb(60, 60, 60)" stroke-width="1px" opacity="0.25"></line><line x1="0" y1="161.79545402526853" x2="288.9379997253418" y2="161.79545402526853" fill="rgb(0, 0, 0)" stroke="rgb(60, 60, 60)" stroke-width="1px" opacity="0.25"></line><line x1="0" y1="145.61590862274164" x2="288.9379997253418" y2="145.61590862274164" fill="rgb(0, 0, 0)" stroke="rgb(60, 60, 60)" stroke-width="1px" opacity="0.25"></line><line x1="0" y1="129.43636322021484" x2="288.9379997253418" y2="129.43636322021484" fill="rgb(0, 0, 0)" stroke="rgb(60, 60, 60)" stroke-width="1px" opacity="0.25"></line><line x1="0" y1="113.25681781768799" x2="288.9379997253418" y2="113.25681781768799" fill="rgb(0, 0, 0)" stroke="rgb(60, 60, 60)" stroke-width="1px" opacity="0.25"></line><line x1="0" y1="97.0772724151611" x2="288.9379997253418" y2="97.0772724151611" fill="rgb(0, 0, 0)" stroke="rgb(60, 60, 60)" stroke-width="1px" opacity="0.25"></line><line x1="0" y1="80.8977270126343" x2="288.9379997253418" y2="80.8977270126343" fill="rgb(0, 0, 0)" stroke="rgb(60, 60, 60)" stroke-width="1px" opacity="0.25"></line><line x1="0" y1="64.71818161010737" x2="288.9379997253418" y2="64.71818161010737" fill="rgb(0, 0, 0)" stroke="rgb(60, 60, 60)" stroke-width="1px" opacity="0.25"></line><line x1="0" y1="48.538636207580566" x2="288.9379997253418" y2="48.538636207580566" fill="rgb(0, 0, 0)" stroke="rgb(60, 60, 60)" stroke-width="1px" opacity="0.25"></line><line x1="0" y1="32.3590908050536" x2="288.9379997253418" y2="32.3590908050536" fill="rgb(0, 0, 0)" stroke="rgb(60, 60, 60)" stroke-width="1px" opacity="0.25"></line><line x1="0" y1="16.1795454025268" x2="288.9379997253418" y2="16.1795454025268" fill="rgb(0, 0, 0)" stroke="rgb(60, 60, 60)" stroke-width="1px" opacity="0.25"></line><line x1="0" y1="0" x2="288.9379997253418" y2="0" fill="rgb(0, 0, 0)" stroke="rgb(60, 60, 60)" stroke-width="1px" opacity="0.25"></line></g></g></g><g><g><line x1="0" y1="744.2590885162356" x2="288.9379997253418" y2="744.2590885162356" fill="rgb(0, 0, 0)" stroke="rgb(153, 153, 153)" stroke-width="1.5px"></line></g></g><g><g><line x1="24.07816664377848" y1="0" x2="24.07816664377848" y2="177.9749994277954" fill="rgb(0, 0, 0)" stroke="rgb(153, 153, 153)" stroke-width="1.5px"></line></g></g><g><g><g><g><g><path style="fill: none;" stroke="rgb(238, 51, 119)" stroke-width="2px" d="M24.07816664377848,-1.0023956179903166L25.282074975967404,8.660421016332236L26.485983308156328,12.329833335682395L27.68989164034526,15.447776850972275L28.893799972534183,18.193162608174987L30.097708304723106,21.01670140098389L31.30161663691203,23.639804274242067L32.505524969100954,26.578991043727854L33.70943330128988,29.619321574003095L34.9133416334788,32.989237265294776L36.117249965667725,33.19715674304274L37.321158297856655,38.776342254293894L38.52506663004557,41.98161966524634L39.7289749622345,44.597084680138266L40.93288329442342,48.400120945855576L42.13679162661235,51.22219388705885L43.34069995880127,54.26522467029186L44.5446082909902,55.637184623090405L45.748516623179114,58.73884947054917L46.952424955368045,63.315623933793134L48.15633328755696,64.20462435757413L49.36024161974589,68.60881408177463L50.56414995193481,70.24370152257504L51.76805828412374,72.8890236201714L52.971966616312656,75.16672556508908L54.17587494850159,77.49789251857051L55.37978328069052,77.19747008949794L56.583691612879434,81.04548485448318L57.787599945068365,81.81104514305204L58.99150827725728,82.14765096175867L60.19541660944621,83.84117246678484L61.39932494163513,85.26667457823164L62.60323327382406,86.84076775244009L63.807141606012976,87.9057475189829L65.01104993820191,86.91737778635613L66.21495827039082,89.6938550276154L67.41886660257975,89.5445696140932L68.62277493476867,92.69607341614389L69.8266832669576,92.58150554065011L71.03059159914652,94.17295748387275L72.23449993133545,95.15646676117555L73.43840826352437,93.17648699237267L74.64231659571331,96.8364098513284L75.84622492790223,94.27147814178895L77.05013326009114,94.07235377367485L78.25404159228006,95.10076440016107L79.457949924469,97.03206246563965L80.66185825665792,96.80038076186335L81.86576658884684,97.55749311617862L83.06967492103576,99.6233795040807L84.2735832532247,100.96301357147055L85.47749158541362,101.52104013271398L86.68139991760253,102.11335990652103L87.88530824979145,103.11083334911972L89.0892165819804,103.44944507002354L90.29312491416931,100.39376167293129L91.49703324635823,107.12560802176812L92.70094157854717,102.83741344962479L93.90484991073609,105.98675704930926L95.108758242925,105.61716956947564L96.31266657511392,105.14925430693708L97.51657490730287,106.84655616610414L98.72048323949178,105.8961442750551L99.9243915716807,107.19793622599398L101.12829990386962,109.47363226871445L102.33220823605856,107.92739027501327L103.53611656824748,110.64214744866646L104.7400249004364,109.0035568038097L105.94393323262531,107.46861729748886L107.14784156481426,110.15108716077563L108.35174989700317,111.31431755993889L109.55565822919209,109.34340292606564L110.75956656138104,111.25012868962857L111.96347489356995,110.81978551824521L113.16738322575887,113.53666431922235L114.37129155794779,113.39351233741853L115.57519989013673,112.57745731853946L116.77910822232565,112.15725938326885L117.98301655451456,112.97886920823247L119.18692488670348,110.68334559379353L120.39083321889242,114.75876023286489L121.59474155108134,113.72637637702653L122.79864988327026,114.86059834441491L124.00255821545917,113.7870163434495L125.20646654764812,115.48694130548981L126.41037487983704,116.33154185563669L127.61428321202595,116.49351845806038L128.8181915442149,116.65869678899114L130.02209987640381,117.34621976708056L131.22600820859273,115.21444720700899L132.42991654078165,116.61452836561054L133.6338248729706,115.14316052892397L134.8377332051595,115.78119172780177L136.04164153734843,116.2833616278617L137.24554986953734,119.08556842230426L138.4494582017263,117.43270501181358L139.6533665339152,118.6985450233719L140.85727486610412,118.54544068066659L142.06118319829304,119.25738166050266L143.26509153048198,119.42259856647568L144.4689998626709,120.51384793679334L145.67290819485982,121.09116201916366L146.87681652704873,119.84206357594346L148.08072485923765,120.73484435386533L149.28463319142662,121.65964241685786L150.48854152361554,121.14863883212182L151.69244985580445,122.42639853173658L152.89635818799337,120.15135826473441L154.1002665201823,119.75079502597099L155.3041748523712,123.25904081878478L156.50808318456012,121.48053849567347L157.71199151674904,123.27609098746096L158.915899848938,120.52341454727227L160.11980818112693,119.06693667689566L161.32371651331584,122.90021577573995L162.52762484550476,124.46979567000469L163.73153317769368,121.91481632136671L164.9354415098826,124.06714937895957L166.1393498420715,125.29279419648945L167.34325817426048,124.46832981839906L168.5471665064494,124.91522168290928L169.75107483863832,126.94075857661389L170.95498317082723,125.47070229136396L172.15889150301615,127.55680200140704L173.36279983520507,122.78653512621803L174.56670816739398,126.71683045633061L175.7706164995829,127.4954676842235L176.97452483177187,126.64531232799206L178.1784331639608,127.7540361924507L179.3823414961497,126.46100077610343L180.58624982833862,128.75567573961277L181.79015816052754,129.58434479730886L182.99406649271646,128.69067679341512L184.19797482490537,129.44902354908254L185.40188315709435,128.93134648203656L186.60579148928326,129.58554062361873L187.80969982147218,130.20027249697523L189.0136081536611,130.1813321512286L190.21751648585,130.33050183962405L191.42142481803893,131.76576343676103L192.62533315022785,132.189201675581L193.82924148241676,132.9733937095584L195.03314981460574,132.63478198865457L196.23705814679465,133.93506951294557L197.44096647898357,133.43505981525183L198.64487481117249,134.22607963170822L199.8487831433614,134.67212284528887L201.05269147555032,134.27588001125787L202.25659980773924,133.70797823919747L203.4605081399282,134.96351871447405L204.66441647211713,136.02194072383372L205.86832480430604,136.47658617183697L207.07223313649496,135.7358296354373L208.27614146868387,136.93813655240365L209.4800498008728,137.3337621857586L210.6839581330617,137.5731203229434L211.88786646525062,136.9738184664884L213.0917747974396,139.1322078057151L214.29568312962851,139.09941901979937L215.49959146181743,139.64313424036663L216.70349979400635,139.60548499912693L217.90740812619526,139.69872087625436L219.11131645838418,140.74695907445903L220.3152247905731,140.548451907021L221.51913312276207,140.92409566848846L222.723041454951,141.8717687315375L223.9269497871399,142.021709920778L225.13085811932882,142.2677415402727L226.33476645151774,142.71791228337452L227.53867478370665,143.08680541244757L228.74258311589557,143.2313075207303L229.9464914480845,143.5316142246761L231.15039978027346,143.65848753864884L232.35430811246238,144.01839268287677L233.5582164446513,144.41837729600638L234.7621247768402,144.58656448023294L235.96603310902913,144.70182670648728L237.16994144121804,144.85045634429116L238.37384977340696,145.0560613195039L239.57775810559593,145.31952885809733L240.78166643778485,145.35104466761868L241.98557476997377,145.3639673067737L243.18948310216268,145.47622067973225L244.3933914343516,145.5940674338176L245.59729976654052,145.74713320148066L246.80120809872943,145.70624365669164L248.00511643091835,145.80009673449513L249.20902476310732,145.83222974469254L250.41293309529624,145.92596709736927L251.61684142748516,145.93183050379184L252.82074975967407,145.90509799950996L254.024658091863,145.9023977465522L255.2285664240519,145.96974977032733L256.4324747562408,145.87230921359424L257.6363830884298,146.04254087506024L258.8402914206187,146.0259536068911L260.04419975280763,145.9807822324119L261.24810808499655,146.0613654956801L262.45201641718546,146.01314669286285L263.6559247493744,146.04080499815882" fill="none"></path></g><g><path style="fill: none;" stroke="rgb(204, 51, 17)" stroke-width="2px" d="M24.07816664377848,-0.9768589400183032L25.282074975967404,8.906915536333997L26.485983308156328,12.607805090163254L27.68989164034526,15.656853579987853L28.893799972534183,18.231660500344276L30.097708304723106,21.15163689878767L31.30161663691203,23.520221643255297L32.505524969100954,26.531543741755712L33.70943330128988,29.7118245253277L34.9133416334788,33.00613313380197L36.117249965667725,33.8226124781458L37.321158297856655,39.035335087985885L38.52506663004557,41.9395728691897L39.7289749622345,44.455128524644294L40.93288329442342,48.214266392276784L42.13679162661235,50.4737609172507L43.34069995880127,53.664071211808704L44.5446082909902,55.50903833272329L45.748516623179114,57.23527147358068L46.952424955368045,61.91396119845918L48.15633328755696,62.88589796308585L49.36024161974589,67.21548355556747L50.56414995193481,69.30316484234295L51.76805828412374,69.70125927840215L52.971966616312656,71.26077108663863L54.17587494850159,74.05329554547549L55.37978328069052,72.81920279369203L56.583691612879434,76.25052995225175L57.787599945068365,76.87320828431254L58.99150827725728,76.86726772780546L60.19541660944621,77.7709266676429L61.39932494163513,78.75235289266399L62.60323327382406,79.86161680771416L63.807141606012976,80.12269269368787L65.01104993820191,79.21463619903349L66.21495827039082,81.80741908908018L67.41886660257975,81.22100129673797L68.62277493476867,83.3277386543868L69.8266832669576,83.10030020525842L71.03059159914652,83.61327111714942L72.23449993133545,83.88576521563024L73.43840826352437,82.02120197325073L74.64231659571331,85.14439169428712L75.84622492790223,82.13384109663181L77.05013326009114,82.51480821393031L78.25404159228006,82.77349244728427L79.457949924469,83.72621884086854L80.66185825665792,84.04870619411028L81.86576658884684,85.34104725969698L83.06967492103576,85.94652112291257L84.2735832532247,86.90271927029968L85.47749158541362,87.05925679176558L86.68139991760253,87.14319608370985L87.88530824979145,86.71439591401665L89.0892165819804,87.10176648832928L90.29312491416931,84.60812145687483L91.49703324635823,90.27464086378856L92.70094157854717,85.5982656414453L93.90484991073609,88.79220198997514L95.108758242925,88.58011640766378L96.31266657511392,87.25706960844306L97.51657490730287,89.31419946175353L98.72048323949178,87.77196927244674L99.9243915716807,88.96926143392008L101.12829990386962,90.20443428688665L102.33220823605856,89.12441025386485L103.53611656824748,90.55978757612863L104.7400249004364,89.23797517826003L105.94393323262531,87.81478756934844L107.14784156481426,89.674490356404L108.35174989700317,90.50678546807191L109.55565822919209,90.18776986863301L110.75956656138104,89.29645494231679L111.96347489356995,89.51857003561415L113.16738322575887,90.96042796497656L114.37129155794779,91.46136346368436L115.57519989013673,90.11154558513951L116.77910822232565,89.04093386242764L117.98301655451456,90.64118091528414L119.18692488670348,88.84072939313043L120.39083321889242,91.68648741027752L121.59474155108134,90.14533732215384L122.79864988327026,90.71894820046779L124.00255821545917,89.04733731944177L125.20646654764812,90.85758690232794L126.41037487983704,91.76317459427807L127.61428321202595,90.99352535123032L128.8181915442149,92.32961051473282L130.02209987640381,92.38508142549378L131.22600820859273,89.75812104801022L132.42991654078165,90.98102703754009L133.6338248729706,89.39968175538795L134.8377332051595,90.85758690232794L136.04164153734843,91.37325806717669L137.24554986953734,93.47127746527619L138.4494582017263,90.67296675010127L139.6533665339152,92.04600680408291L140.85727486610412,91.91199710729322L142.06118319829304,92.26140984002811L143.26509153048198,92.19752957005582L144.4689998626709,93.15581076972464L145.67290819485982,93.30239593028907L146.87681652704873,92.04708690526601L148.08072485923765,93.06114761603382L149.28463319142662,94.01819441435052L150.48854152361554,92.88987442842696L151.69244985580445,93.84676692657465L152.89635818799337,91.90621085095515L154.1002665201823,91.84665098571529L155.3041748523712,93.27925090493679L156.50808318456012,92.38176397185995L157.71199151674904,94.39553547767716L158.915899848938,91.31315815134528L160.11980818112693,90.05376017184332L161.32371651331584,92.8648778010465L162.52762484550476,94.1968740100701L163.73153317769368,91.68193555529157L164.9354415098826,93.09162189941432L166.1393498420715,94.58949079012925L167.34325817426048,93.1036573125975L168.5471665064494,94.21824458347871L169.75107483863832,95.0776965248933L170.95498317082723,93.22918050009136L172.15889150301615,94.92709955993448L173.36279983520507,91.72151354864397L174.56670816739398,94.20458901852086L175.7706164995829,94.8806552090609L176.97452483177187,94.51558100917097L178.1784331639608,94.23282594945064L179.3823414961497,93.60173825817853L180.58624982833862,95.5237783135162L181.79015816052754,95.98220411566032L182.99406649271646,95.23647139880993L184.19797482490537,95.19319020140117L185.40188315709435,94.5677344662981L186.60579148928326,94.8237184466943L187.80969982147218,96.25647266608482L189.0136081536611,95.3093782286696L190.21751648585,95.26077367542982L191.42142481803893,95.99408522867449L192.62533315022785,96.09754349199918L193.82924148241676,97.79831710496907L195.03314981460574,96.60912570236903L196.23705814679465,97.647681564968L197.44096647898357,96.2206750268733L198.64487481117249,97.04942123465386L199.8487831433614,97.1311231741474L201.05269147555032,96.69653674811613L202.25659980773924,96.86703843487791L203.4605081399282,97.12433396671074L204.66441647211713,97.1579328285138L205.86832480430604,97.74581647246166L207.07223313649496,97.0680915551047L208.27614146868387,97.45094884947363L209.4800498008728,98.62972499066515L210.6839581330617,97.94297351342081L211.88786646525062,97.21783986913394L213.0917747974396,98.84373932508922L214.29568312962851,98.86673005027248L215.49959146181743,100.0399899604217L216.70349979400635,99.3648109958535L217.90740812619526,98.49903274750929L219.11131645838418,99.90416723664609L220.3152247905731,99.64235842486957L221.51913312276207,99.90177558402635L222.723041454951,100.52684556870688L223.9269497871399,99.82917735450471L225.13085811932882,100.46624417732616L226.33476645151774,101.21089679299345L227.53867478370665,100.8090991528779L228.74258311589557,101.08907680955596L229.9464914480845,101.20838941524696L231.15039978027346,100.80844337715959L232.35430811246238,101.77297373367352L233.5582164446513,101.64031416336272L234.7621247768402,101.75974249418047L235.96603310902913,102.05650029423893L237.16994144121804,102.30650514308579L238.37384977340696,102.66452011024327L239.57775810559593,102.74244169559594L240.78166643778485,102.57406163615813L241.98557476997377,102.56029034607351L243.18948310216268,102.6119037526091L244.3933914343516,102.80994801954009L245.59729976654052,102.89246003492096L246.80120809872943,103.15075851785238L248.00511643091835,103.1190112580775L249.20902476310732,103.32959241374098L250.41293309529624,103.28021635965612L251.61684142748516,103.19959452134569L252.82074975967407,103.16429835768348L254.024658091863,103.23550788568397L255.2285664240519,103.24434157036009L256.4324747562408,103.2083510559373L257.6363830884298,103.52420350191139L258.8402914206187,103.61122879723595L260.04419975280763,103.54090649520728L261.24810808499655,103.53060695892552L262.45201641718546,103.54333672286927L263.6559247493744,103.42838309695296" fill="none"></path></g></g></g></g></g></g><g transform="translate(41, 177)" clip-path="url(#clip_1)"><clipPath id="clip_1"><rect width="288" height="22"></rect></clipPath><g><g><line x1="0" y1="0" x2="0" y2="5" style="visibility: inherit;" fill="rgb(0, 0, 0)" stroke="rgb(204, 204, 204)" stroke-width="1px"></line><line x1="24.07816664377848" y1="0" x2="24.07816664377848" y2="5" style="visibility: inherit;" fill="rgb(0, 0, 0)" stroke="rgb(204, 204, 204)" stroke-width="1px"></line><line x1="48.15633328755696" y1="0" x2="48.15633328755696" y2="5" style="visibility: inherit;" fill="rgb(0, 0, 0)" stroke="rgb(204, 204, 204)" stroke-width="1px"></line><line x1="72.23449993133545" y1="0" x2="72.23449993133545" y2="5" style="visibility: inherit;" fill="rgb(0, 0, 0)" stroke="rgb(204, 204, 204)" stroke-width="1px"></line><line x1="96.31266657511392" y1="0" x2="96.31266657511392" y2="5" style="visibility: inherit;" fill="rgb(0, 0, 0)" stroke="rgb(204, 204, 204)" stroke-width="1px"></line><line x1="120.39083321889242" y1="0" x2="120.39083321889242" y2="5" style="visibility: inherit;" fill="rgb(0, 0, 0)" stroke="rgb(204, 204, 204)" stroke-width="1px"></line><line x1="144.4689998626709" y1="0" x2="144.4689998626709" y2="5" style="visibility: inherit;" fill="rgb(0, 0, 0)" stroke="rgb(204, 204, 204)" stroke-width="1px"></line><line x1="168.5471665064494" y1="0" x2="168.5471665064494" y2="5" style="visibility: inherit;" fill="rgb(0, 0, 0)" stroke="rgb(204, 204, 204)" stroke-width="1px"></line><line x1="192.62533315022785" y1="0" x2="192.62533315022785" y2="5" style="visibility: inherit;" fill="rgb(0, 0, 0)" stroke="rgb(204, 204, 204)" stroke-width="1px"></line><line x1="216.70349979400635" y1="0" x2="216.70349979400635" y2="5" style="visibility: inherit;" fill="rgb(0, 0, 0)" stroke="rgb(204, 204, 204)" stroke-width="1px"></line><line x1="240.78166643778485" y1="0" x2="240.78166643778485" y2="5" style="visibility: inherit;" fill="rgb(0, 0, 0)" stroke="rgb(204, 204, 204)" stroke-width="1px"></line><line x1="264.8598330815633" y1="0" x2="264.8598330815633" y2="5" style="visibility: inherit;" fill="rgb(0, 0, 0)" stroke="rgb(204, 204, 204)" stroke-width="1px"></line><line x1="288.9379997253418" y1="0" x2="288.9379997253418" y2="5" style="visibility: inherit;" fill="rgb(0, 0, 0)" stroke="rgb(204, 204, 204)" stroke-width="1px"></line></g><g transform="translate(0, 8)"><text style="text-anchor: middle; visibility: hidden; font-family: &quot;Helvetica Neue&quot;, sans-serif; font-size: 12px; font-weight: 200;" x="0" y="0" dx="0em" dy="0.95em" fill="rgb(50, 49, 63)" stroke="none" stroke-width="1px">-20</text><text style="text-anchor: middle; visibility: inherit; font-family: &quot;Helvetica Neue&quot;, sans-serif; font-size: 12px; font-weight: 200;" x="24.07816664377848" y="0" dx="0em" dy="0.95em" fill="rgb(50, 49, 63)" stroke="none" stroke-width="1px">0</text><text style="text-anchor: middle; visibility: hidden; font-family: &quot;Helvetica Neue&quot;, sans-serif; font-size: 12px; font-weight: 200;" x="48.15633328755696" y="0" dx="0em" dy="0.95em" fill="rgb(50, 49, 63)" stroke="none" stroke-width="1px">20</text><text style="text-anchor: middle; visibility: inherit; font-family: &quot;Helvetica Neue&quot;, sans-serif; font-size: 12px; font-weight: 200;" x="72.23449993133545" y="0" dx="0em" dy="0.95em" fill="rgb(50, 49, 63)" stroke="none" stroke-width="1px">40</text><text style="text-anchor: middle; visibility: hidden; font-family: &quot;Helvetica Neue&quot;, sans-serif; font-size: 12px; font-weight: 200;" x="96.31266657511392" y="0" dx="0em" dy="0.95em" fill="rgb(50, 49, 63)" stroke="none" stroke-width="1px">60</text><text style="text-anchor: middle; visibility: inherit; font-family: &quot;Helvetica Neue&quot;, sans-serif; font-size: 12px; font-weight: 200;" x="120.39083321889242" y="0" dx="0em" dy="0.95em" fill="rgb(50, 49, 63)" stroke="none" stroke-width="1px">80</text><text style="text-anchor: middle; visibility: hidden; font-family: &quot;Helvetica Neue&quot;, sans-serif; font-size: 12px; font-weight: 200;" x="144.4689998626709" y="0" dx="0em" dy="0.95em" fill="rgb(50, 49, 63)" stroke="none" stroke-width="1px">100</text><text style="text-anchor: middle; visibility: inherit; font-family: &quot;Helvetica Neue&quot;, sans-serif; font-size: 12px; font-weight: 200;" x="168.5471665064494" y="0" dx="0em" dy="0.95em" fill="rgb(50, 49, 63)" stroke="none" stroke-width="1px">120</text><text style="text-anchor: middle; visibility: hidden; font-family: &quot;Helvetica Neue&quot;, sans-serif; font-size: 12px; font-weight: 200;" x="192.62533315022785" y="0" dx="0em" dy="0.95em" fill="rgb(50, 49, 63)" stroke="none" stroke-width="1px">140</text><text style="text-anchor: middle; visibility: inherit; font-family: &quot;Helvetica Neue&quot;, sans-serif; font-size: 12px; font-weight: 200;" x="216.70349979400635" y="0" dx="0em" dy="0.95em" fill="rgb(50, 49, 63)" stroke="none" stroke-width="1px">160</text><text style="text-anchor: middle; visibility: hidden; font-family: &quot;Helvetica Neue&quot;, sans-serif; font-size: 12px; font-weight: 200;" x="240.78166643778485" y="0" dx="0em" dy="0.95em" fill="rgb(50, 49, 63)" stroke="none" stroke-width="1px">180</text><text style="text-anchor: middle; visibility: inherit; font-family: &quot;Helvetica Neue&quot;, sans-serif; font-size: 12px; font-weight: 200;" x="264.8598330815633" y="0" dx="0em" dy="0.95em" fill="rgb(50, 49, 63)" stroke="none" stroke-width="1px">200</text><text style="text-anchor: middle; visibility: hidden; font-family: &quot;Helvetica Neue&quot;, sans-serif; font-size: 12px; font-weight: 200;" x="288.9379997253418" y="0" dx="0em" dy="0.95em" fill="rgb(50, 49, 63)" stroke="none" stroke-width="1px">220</text></g><line x1="0" y1="0" x2="288.9379997253418" y2="0" fill="rgb(0, 0, 0)" stroke="rgb(204, 204, 204)" stroke-width="1px"></line></g></g></g></g></svg>