<svg viewBox="0 0 330 200" xmlns="http://www.w3.org/2000/svg"><g><g><g><g><g><line x1="30.70800018310547" y1="177.9749994277954" x2="25.70800018310547" y2="177.9749994277954" style="visibility: inherit;" fill="rgb(0, 0, 0)" stroke="rgb(204, 204, 204)" stroke-width="1px"></line><line x1="30.70800018310547" y1="161.79545402526855" x2="25.70800018310547" y2="161.79545402526855" style="visibility: inherit;" fill="rgb(0, 0, 0)" stroke="rgb(204, 204, 204)" stroke-width="1px"></line><line x1="30.70800018310547" y1="145.6159086227417" x2="25.70800018310547" y2="145.6159086227417" style="visibility: inherit;" fill="rgb(0, 0, 0)" stroke="rgb(204, 204, 204)" stroke-width="1px"></line><line x1="30.70800018310547" y1="129.43636322021484" x2="25.70800018310547" y2="129.43636322021484" style="visibility: inherit;" fill="rgb(0, 0, 0)" stroke="rgb(204, 204, 204)" stroke-width="1px"></line><line x1="30.70800018310547" y1="113.25681781768799" x2="25.70800018310547" y2="113.25681781768799" style="visibility: inherit;" fill="rgb(0, 0, 0)" stroke="rgb(204, 204, 204)" stroke-width="1px"></line><line x1="30.70800018310547" y1="97.07727241516113" x2="25.70800018310547" y2="97.07727241516113" style="visibility: inherit;" fill="rgb(0, 0, 0)" stroke="rgb(204, 204, 204)" stroke-width="1px"></line><line x1="30.70800018310547" y1="80.89772701263429" x2="25.70800018310547" y2="80.89772701263429" style="visibility: inherit;" fill="rgb(0, 0, 0)" stroke="rgb(204, 204, 204)" stroke-width="1px"></line><line x1="30.70800018310547" y1="64.71818161010742" x2="25.70800018310547" y2="64.71818161010742" style="visibility: inherit;" fill="rgb(0, 0, 0)" stroke="rgb(204, 204, 204)" stroke-width="1px"></line><line x1="30.70800018310547" y1="48.538636207580566" x2="25.70800018310547" y2="48.538636207580566" style="visibility: inherit;" fill="rgb(0, 0, 0)" stroke="rgb(204, 204, 204)" stroke-width="1px"></line><line x1="30.70800018310547" y1="32.35909080505371" x2="25.70800018310547" y2="32.35909080505371" style="visibility: inherit;" fill="rgb(0, 0, 0)" stroke="rgb(204, 204, 204)" stroke-width="1px"></line><line x1="30.70800018310547" y1="16.179545402526855" x2="25.70800018310547" y2="16.179545402526855" style="visibility: inherit;" fill="rgb(0, 0, 0)" stroke="rgb(204, 204, 204)" stroke-width="1px"></line><line x1="30.70800018310547" y1="0" x2="25.70800018310547" y2="0" style="visibility: inherit;" fill="rgb(0, 0, 0)" stroke="rgb(204, 204, 204)" stroke-width="1px"></line></g><g transform="translate(20.70800018310547, 0)"><text style="text-anchor: end; visibility: hidden; font-family: &quot;Helvetica Neue&quot;, sans-serif; font-size: 12px; font-weight: 200;" x="0" y="177.9749994277954" dx="0em" dy="0.3em" fill="rgb(50, 49, 63)" stroke="none" stroke-width="1px">-2</text><text style="text-anchor: end; visibility: inherit; font-family: &quot;Helvetica Neue&quot;, sans-serif; font-size: 12px; font-weight: 200;" x="0" y="161.79545402526855" dx="0em" dy="0.3em" fill="rgb(50, 49, 63)" stroke="none" stroke-width="1px">0</text><text style="text-anchor: end; visibility: hidden; font-family: &quot;Helvetica Neue&quot;, sans-serif; font-size: 12px; font-weight: 200;" x="0" y="145.6159086227417" dx="0em" dy="0.3em" fill="rgb(50, 49, 63)" stroke="none" stroke-width="1px">2</text><text style="text-anchor: end; visibility: inherit; font-family: &quot;Helvetica Neue&quot;, sans-serif; font-size: 12px; font-weight: 200;" x="0" y="129.43636322021484" dx="0em" dy="0.3em" fill="rgb(50, 49, 63)" stroke="none" stroke-width="1px">4</text><text style="text-anchor: end; visibility: hidden; font-family: &quot;Helvetica Neue&quot;, sans-serif; font-size: 12px; font-weight: 200;" x="0" y="113.25681781768799" dx="0em" dy="0.3em" fill="rgb(50, 49, 63)" stroke="none" stroke-width="1px">6</text><text style="text-anchor: end; visibility: inherit; font-family: &quot;Helvetica Neue&quot;, sans-serif; font-size: 12px; font-weight: 200;" x="0" y="97.07727241516113" dx="0em" dy="0.3em" fill="rgb(50, 49, 63)" stroke="none" stroke-width="1px">8</text><text style="text-anchor: end; visibility: hidden; font-family: &quot;Helvetica Neue&quot;, sans-serif; font-size: 12px; font-weight: 200;" x="0" y="80.89772701263429" dx="0em" dy="0.3em" fill="rgb(50, 49, 63)" stroke="none" stroke-width="1px">10</text><text style="text-anchor: end; visibility: inherit; font-family: &quot;Helvetica Neue&quot;, sans-serif; font-size: 12px; font-weight: 200;" x="0" y="64.71818161010742" dx="0em" dy="0.3em" fill="rgb(50, 49, 63)" stroke="none" stroke-width="1px">12</text><text style="text-anchor: end; visibility: hidden; font-family: &quot;Helvetica Neue&quot;, sans-serif; font-size: 12px; font-weight: 200;" x="0" y="48.538636207580566" dx="0em" dy="0.3em" fill="rgb(50, 49, 63)" stroke="none" stroke-width="1px">14</text><text style="text-anchor: end; visibility: inherit; font-family: &quot;Helvetica Neue&quot;, sans-serif; font-size: 12px; font-weight: 200;" x="0" y="32.35909080505371" dx="0em" dy="0.3em" fill="rgb(50, 49, 63)" stroke="none" stroke-width="1px">16</text><text style="text-anchor: end; visibility: hidden; font-family: &quot;Helvetica Neue&quot;, sans-serif; font-size: 12px; font-weight: 200;" x="0" y="16.179545402526855" dx="0em" dy="0.3em" fill="rgb(50, 49, 63)" stroke="none" stroke-width="1px">18</text><text style="text-anchor: end; visibility: hidden; font-family: &quot;Helvetica Neue&quot;, sans-serif; font-size: 12px; font-weight: 200;" x="0" y="0" dx="0em" dy="0.3em" fill="rgb(50, 49, 63)" stroke="none" stroke-width="1px">20</text></g><line x1="30.70800018310547" y1="0" x2="30.70800018310547" y2="177.9749994277954" fill="rgb(0, 0, 0)" stroke="rgb(204, 204, 204)" stroke-width="1px"></line></g></g><g transform="translate(30, 0)" clip-path="url(#clip_0)"><clipPath id="clip_0"><rect width="299" height="177"></rect></clipPath><g><g><g><line x1="0" y1="0" x2="0" y2="177.9749994277954" fill="rgb(0, 0, 0)" stroke="rgb(60, 60, 60)" stroke-width="1px" opacity="0.25"></line><line x1="29.929199981689454" y1="0" x2="29.929199981689454" y2="177.9749994277954" fill="rgb(0, 0, 0)" stroke="rgb(60, 60, 60)" stroke-width="1px" opacity="0.25"></line><line x1="59.85839996337891" y1="0" x2="59.85839996337891" y2="177.9749994277954" fill="rgb(0, 0, 0)" stroke="rgb(60, 60, 60)" stroke-width="1px" opacity="0.25"></line><line x1="89.78759994506835" y1="0" x2="89.78759994506835" y2="177.9749994277954" fill="rgb(0, 0, 0)" stroke="rgb(60, 60, 60)" stroke-width="1px" opacity="0.25"></line><line x1="119.71679992675782" y1="0" x2="119.71679992675782" y2="177.9749994277954" fill="rgb(0, 0, 0)" stroke="rgb(60, 60, 60)" stroke-width="1px" opacity="0.25"></line><line x1="149.64599990844727" y1="0" x2="149.64599990844727" y2="177.9749994277954" fill="rgb(0, 0, 0)" stroke="rgb(60, 60, 60)" stroke-width="1px" opacity="0.25"></line><line x1="179.5751998901367" y1="0" x2="179.5751998901367" y2="177.9749994277954" fill="rgb(0, 0, 0)" stroke="rgb(60, 60, 60)" stroke-width="1px" opacity="0.25"></line><line x1="209.50439987182617" y1="0" x2="209.50439987182617" y2="177.9749994277954" fill="rgb(0, 0, 0)" stroke="rgb(60, 60, 60)" stroke-width="1px" opacity="0.25"></line><line x1="239.43359985351563" y1="0" x2="239.43359985351563" y2="177.9749994277954" fill="rgb(0, 0, 0)" stroke="rgb(60, 60, 60)" stroke-width="1px" opacity="0.25"></line><line x1="269.36279983520507" y1="0" x2="269.36279983520507" y2="177.9749994277954" fill="rgb(0, 0, 0)" stroke="rgb(60, 60, 60)" stroke-width="1px" opacity="0.25"></line><line x1="299.29199981689453" y1="0" x2="299.29199981689453" y2="177.9749994277954" fill="rgb(0, 0, 0)" stroke="rgb(60, 60, 60)" stroke-width="1px" opacity="0.25"></line></g><g><line x1="0" y1="177.9749994277954" x2="299.29199981689453" y2="177.9749994277954" fill="rgb(0, 0, 0)" stroke="rgb(60, 60, 60)" stroke-width="1px" opacity="0.25"></line><line x1="0" y1="161.79545402526855" x2="299.29199981689453" y2="161.79545402526855" fill="rgb(0, 0, 0)" stroke="rgb(60, 60, 60)" stroke-width="1px" opacity="0.25"></line><line x1="0" y1="145.6159086227417" x2="299.29199981689453" y2="145.6159086227417" fill="rgb(0, 0, 0)" stroke="rgb(60, 60, 60)" stroke-width="1px" opacity="0.25"></line><line x1="0" y1="129.43636322021484" x2="299.29199981689453" y2="129.43636322021484" fill="rgb(0, 0, 0)" stroke="rgb(60, 60, 60)" stroke-width="1px" opacity="0.25"></line><line x1="0" y1="113.25681781768799" x2="299.29199981689453" y2="113.25681781768799" fill="rgb(0, 0, 0)" stroke="rgb(60, 60, 60)" stroke-width="1px" opacity="0.25"></line><line x1="0" y1="97.07727241516113" x2="299.29199981689453" y2="97.07727241516113" fill="rgb(0, 0, 0)" stroke="rgb(60, 60, 60)" stroke-width="1px" opacity="0.25"></line><line x1="0" y1="80.89772701263429" x2="299.29199981689453" y2="80.89772701263429" fill="rgb(0, 0, 0)" stroke="rgb(60, 60, 60)" stroke-width="1px" opacity="0.25"></line><line x1="0" y1="64.71818161010742" x2="299.29199981689453" y2="64.71818161010742" fill="rgb(0, 0, 0)" stroke="rgb(60, 60, 60)" stroke-width="1px" opacity="0.25"></line><line x1="0" y1="48.538636207580566" x2="299.29199981689453" y2="48.538636207580566" fill="rgb(0, 0, 0)" stroke="rgb(60, 60, 60)" stroke-width="1px" opacity="0.25"></line><line x1="0" y1="32.35909080505371" x2="299.29199981689453" y2="32.35909080505371" fill="rgb(0, 0, 0)" stroke="rgb(60, 60, 60)" stroke-width="1px" opacity="0.25"></line><line x1="0" y1="16.179545402526855" x2="299.29199981689453" y2="16.179545402526855" fill="rgb(0, 0, 0)" stroke="rgb(60, 60, 60)" stroke-width="1px" opacity="0.25"></line><line x1="0" y1="0" x2="299.29199981689453" y2="0" fill="rgb(0, 0, 0)" stroke="rgb(60, 60, 60)" stroke-width="1px" opacity="0.25"></line></g></g></g><g><g><line x1="0" y1="161.79545402526855" x2="299.29199981689453" y2="161.79545402526855" fill="rgb(0, 0, 0)" stroke="rgb(153, 153, 153)" stroke-width="1.5px"></line></g></g><g><g><line x1="29.929199981689454" y1="0" x2="29.929199981689454" y2="177.9749994277954" fill="rgb(0, 0, 0)" stroke="rgb(153, 153, 153)" stroke-width="1.5px"></line></g></g><g><g><g><g><g><path style="fill: none;" stroke="rgb(0, 153, 136)" stroke-width="2px" d="M30.19856278152466,5.797041919883668L30.55771318130493,7.43538568447002L30.602606981277464,7.878103729408394L30.76721758117676,10.857748003209963L30.99168658103943,11.729698258314784L31.323900700836184,11.281888307798908L32.23674130027771,15.000275500794487L32.269663420257565,13.567135530981432L32.404344820175176,10.61204041407018L33.332150019607546,15.930844390108177L33.40697301956177,15.933791523336367L33.709257939376826,14.935299699622192L33.784080939331055,14.64774590464549L33.888833139266964,18.373601225821403L33.97862073921204,18.397008561461007L34.5023817388916,16.964393212222603L34.53231093887329,17.650226603461306L34.640056058807374,16.855873903354222L35.07402945854187,17.32331083536883L35.37332145835877,22.85589769557737L36.169438177871704,23.684505033205824L36.184402777862545,24.436147446529503L36.48369477767944,25.215934210681553L36.75305757751465,24.76397358561917L36.9505902973938,22.966484626710553L37.87839549682617,32.319420231599906L38.27046801658631,29.139401758315216L38.50990161643982,19.164158141770713L38.61465381637573,31.29654898118133L38.629618416366576,25.689543149456767L39.123450216064455,28.71575521426712L39.320982935943604,21.595604775095126L39.44069973587036,30.490901508702336L39.51552273582459,28.76088801370406L39.54545193580628,28.765084978301275L39.72502713569641,24.13933564141189L39.87467313560485,26.60662620399853L40.506179255218505,30.801168288558074L40.62589605514526,32.29119873068703L40.745612855072025,31.37376078575653L41.13469245483399,31.985823266189072L41.26937385475159,39.284568435987694L41.32923225471496,32.558477483455135L41.359161454696654,38.05366198269439L41.568665854568486,36.47359739194508L41.598595054550174,41.10762493290213L41.691375574493414,30.495638523891103L41.81109237442016,38.656173282664895L41.90087997436524,33.55072786533265L42.31988877410889,37.62301021097301L43.400332893447874,39.148329101755735L43.894164693145754,41.25892396362997L43.93905849311828,37.493243768831235L44.18148501296997,44.84992865209506L44.316166412887576,39.01577754156324L44.331131012878416,33.55675328693269L44.420918612823485,43.30181191134034L44.510706212768554,45.9841891945257L44.78006901260376,51.35116568333024L44.82496281257629,40.28832961047374L44.95964421249389,30.977579671793137L45.68093793205261,45.75601781959449L45.72583173202515,39.16128260094456L45.81561933197021,43.26899226539081L45.90540693191528,41.36661005158567L46.12987593177795,49.439317154156015L46.21966353172303,47.74632026970448L46.29448653167725,39.834023622842324L47.060674051208494,48.2717586352519L47.135497051162716,55.34512526317849L47.15046165115357,49.64570906023073L47.41982445098877,47.69907355795203L47.60239257087707,51.78687078558687L47.79693237075806,47.734639746910034L48.36558717041015,29.520183715410894L48.61998537025452,44.54726115556332L48.907305690078736,55.47714448778788L49.4310666897583,55.422506797939604L49.47596048973084,49.41678161447135L49.685464889602656,60.8078372918485L49.74532328956604,58.780186485828395L50.451652409133914,47.01631074007673L50.55640460906982,61.52446899682265L50.88562580886841,54.13909971213887L51.05322932876587,76.16926005323148L51.20287532867432,60.584765537503245L51.65181332839966,54.63932543006922L51.81642392829895,73.7350514468817L51.9361407282257,44.931684596647756L52.02592832817078,72.4426486612274L52.49282384788513,44.52381524488146L52.926797247619625,49.32255821626222L53.166230847473145,62.72013329151288L53.39369276733399,67.30020977837376L53.45355116729736,61.99575571805417L53.70794936714172,71.51388508389118L54.23171036682129,71.23400000731453L54.35142716674805,61.27228851559265L54.848251886444096,58.41357699925675L54.9829332863617,63.279178233871775L55.07272088630676,56.981825730964815L55.14754388626099,73.4470424664064L55.2522960861969,53.53217542733455L55.3869774861145,84.2258659331651L55.59648188598633,69.77045518919704L55.626411085968016,73.26958184202202L55.67130488594056,73.13183808114218L55.79401460586548,75.8077964772965L56.317775605545044,69.08469894804284L56.67692600532532,82.9827851965365L56.97921092514038,85.91116323918277L57.248573724975586,73.59241637064406L57.38325512489319,68.07279843964125L57.57779492477417,65.47229282613534L57.62268872474671,86.67325948895721L57.74240552467346,74.9186726133803L58.32901784431458,82.07077861755533L58.58341604415894,66.32790269334146L58.73306204406738,73.03514588022882L58.77795584403992,59.92454597432105L59.07724784385682,82.11046462102603L59.304709763717646,72.12308529618849L59.57407256355286,91.0753970209098L59.75364776344299,73.34326788773525L60.00804596328736,74.20606814281744L60.09783356323242,68.90605021235704L60.639552082901005,93.7124409144385L60.68444588287353,106.19988801526574L60.69941048286438,77.37267793141473L60.819127282791136,90.3606400629892L60.87898568275452,77.27034605932386L60.98373788269043,76.78676932963026L61.764890002212525,82.29013173782732L61.869642202148434,73.1956180560046L62.00432360206604,75.6811854736111L62.333544801864626,88.5199702017817L62.393403201828,95.21379698897317L62.513120001754764,69.48766155443445L62.63283680168152,80.36642524066427L62.692695201644895,78.2378852691336L62.98001552146912,61.99921204184011L63.05483852142334,72.12839322200261L63.06980312141418,101.73892740138035L63.14462612136841,85.05367862492312L63.32420132125854,94.22268842834637L63.36909512123108,75.13629757175933L63.443918121185305,89.10006168719428L63.72824552101135,83.85617815822161L63.95570744087219,84.82360935791303L64.10535344078063,81.63177149168177L64.28492864067078,96.15126309584184L64.67400824043274,78.08138632270993L64.80868964035035,78.8044986347827L65.32047896003724,78.93083189816389L65.33544356002807,87.274081202077L65.36537276000976,77.87010310127744L66.02381515960693,78.82704960448427L66.14353195953369,91.37218568100207L66.26624167945862,96.3077929022993L66.29617087944031,91.19018863164865L66.37099387939453,97.69932583153741L66.74510887916566,90.08799166433937L66.7600734791565,94.67312919674396L66.90971947906495,91.10185178488746L66.93964867904663,92.80140642652214L67.01447167900085,82.93033856908824L67.22397607887268,88.22438508300776L67.31376367881775,89.02938449477688L67.43647339874268,88.56899908048628L67.66094239860534,82.49075281758087L67.75072999855041,95.68768366805261L68.45406619812012,101.17823916222142L68.54385379806519,89.43272513658258L68.78628031791688,90.95908555350616L68.87606791786195,91.95099647501183L69.71408551734925,85.58467179655507L69.77693683731079,64.11941208923554L69.97147663719177,89.4477153980024L70.52516683685302,78.4481809694844L70.73467123672485,76.85181456587861L71.24646055641175,96.28887570157804L72.47655067565917,76.7181057544185L72.74591347549439,100.22748781080054L72.83570107543945,112.9876566028579L73.19485147521972,102.20241039156394L73.88621599479676,97.13952867585454L74.0059327947235,82.51897431849375L74.53268671440125,86.05440780108802L74.77212031425476,115.75734849418473L74.81701411422729,95.91753691482609L74.93673091415405,84.15758039336741L74.98162471412658,96.36668156180394L75.40063351387023,97.27637363824988L75.83759983360291,111.53446146857709L76.6756174330902,94.41743838666889L76.75343335304261,91.85954276483653L76.99286695289611,105.22703316463344L77.26222975273132,109.17482227640812L77.27719435272216,74.43925427324164L77.7859907524109,114.21729007975682L77.92366507232666,119.06214565664777L77.9685588722992,113.45344252306404L77.98352347229005,94.19439749235744L78.01345267227173,124.30823182053314L78.02841727226257,99.31020802354328L78.4025322720337,84.6333881095511L78.89636407173157,95.41931709909295L79.48297639137267,104.9707984464626L79.94687899108888,90.65625604179695L80.338951510849,110.11446015815568L80.41377451080322,93.41761958150119L80.74299571060182,96.0548640652496L81.02732311042786,106.22170605916449L81.25179211029052,103.29584696677739L81.47925403015137,99.76742256936063L81.91322742988586,101.38667554553558L81.95812122985839,101.95913303008615L82.33223622962952,109.56399816269823L82.96374234924316,93.18474205141501L83.26303434906006,102.40577801432596L83.53239714889527,99.14075172042658L83.56232634887695,114.01397646205396L83.59225554885865,105.50455359111993L83.68204314880371,107.36136325000643L84.08908026855468,102.07327658011513L84.29858466842651,119.04556996099132L85.12463058792115,103.9830343419992L85.18448898788452,96.68757962330483L85.34909958778381,100.4612911419008L85.81300218749999,108.236526806131L85.93271898742675,103.4921013517478L86.11528710731505,120.64955493544221L86.19011010726929,91.56024672699778L86.4295437071228,110.85692556892718L86.50436670707703,110.96996201524348L86.53429590705872,97.51932696937274L86.68394190696716,106.44874332785344L86.74380030693054,107.3816344347108L87.17777370666504,105.96400934689223L87.34537722656249,97.6992486814529L88.12353642608642,115.60784706042591L88.28814702598571,100.71806205315897L88.5305735458374,105.99089615134312L88.94958234558106,93.27469133494242L89.33866194534302,94.63156073121127L89.51823714523314,121.02881703587309L89.67087606513977,107.45464927468879L89.7157698651123,106.05285538421117L90.56875206459046,107.00527703496164L90.64357506454468,108.14550899393316L90.79621398445128,110.76800238152373L91.88862978378296,106.75371761191195L92.04126870368958,124.49584925354293L92.05623330368043,110.48642771809637L92.08616250366211,103.38319629245689L92.16098550361633,108.74788528125578L92.17595010360716,117.65060385299262L92.5500651033783,113.82936788233997L92.62488810333251,122.38596417244617L92.66978190330506,116.34843000913543L92.7894987032318,112.79426834352694L93.0887907030487,100.4404220440415L93.12171282302857,106.70628188245246L93.13667742301942,131.36531013686806L93.36114642288207,111.8569141042808L93.69036762268065,103.75324281529333L93.88490742256165,100.9012626438307L93.91483662254333,120.05869329823236L94.10937642242432,120.36483640607116L94.65109494209288,114.01418862478636L95.01024534187317,116.91055709737043L95.11499754180909,120.01151987906019L95.20478514175414,108.06442039761146L95.55196386154175,123.42468590772683L95.59685766151429,119.02733168101372L96.47976906097412,120.29020527182274L96.72219558082581,106.39893909079956L97.03645218063355,116.31330357565912L97.08134598060607,96.06018742108063L97.7547529801941,101.94045113712264L97.79964678016663,112.78974349107057L98.02710870002747,130.52004609599442L98.49101129974365,108.9902561292406L98.9100200994873,106.84733152445347L99.01776521942139,125.36102958873221L99.07762361938477,114.87904878712493L99.19734041931153,100.84443389158241L99.36195101921082,118.49057539806904L99.75103061897278,114.53852374412531L99.825853618927,109.49158123587517L100.06528721878053,119.76615946530069L100.29274913864135,116.74493901095798L100.41246593856812,127.02312400683422L100.54714733848573,112.55018090616181L100.68182873840331,119.92913516131875L100.84643933830262,123.33847454579382L100.86140393829346,130.903034545507L101.0409791381836,115.58239139004263L101.07090833816528,115.50750180301111L101.62759145782469,126.11106728029813L101.80716665771484,128.62751016172456L102.0914940575409,116.64866727800518L102.43567985733033,109.02569116305494L102.72300017715455,116.52469866471415L103.44130097671508,109.02870001635074L103.57598237663268,109.98097893944487L103.62087617660524,108.76904369193198L104.40202829612731,117.12906542421706L104.44692209609985,114.20482648360462L104.74621409591676,129.56932946211157L104.77614329589844,116.29920054021113L104.79110789588928,133.89440948965796L105.15325121566772,126.7904200644382L105.57226001541137,131.39415655346545L105.87155201522827,128.62204793574142L105.99126881515504,115.9869895782258L106.44319973487855,111.09393834354296L106.69759793472289,115.94138230576914L106.9669607345581,106.96570289911347L107.08667753448486,122.43653219533667L107.53860845420839,134.82135039624768L108.28683845375062,115.17856856020876L108.70884017349243,113.71599583315606L108.87345077339172,134.58027566968258L109.11288437324524,109.8146742172803L109.32238877311705,103.99552108317675L109.62467369293212,120.15818990471757L110.22325769256592,128.7444272572916L110.5524788923645,107.29932300954965L110.62730189231873,116.29730264813224L111.1690204119873,122.76076314048828L111.3336310118866,135.0559059406719L111.63292301170348,118.68174944997463L111.66285221168518,133.505561491227L112.12974773139953,129.0901059259363L112.48889813117981,128.33440927567176L112.66847333106995,119.89092658196637L112.69840253105164,119.96131060406265L112.78819013099671,128.91559243478014L113.32990865066529,121.37804846590939L113.74891745040894,139.31419714006006L113.77884665039062,129.79318236106246L113.838705050354,118.39287253104862L114.06317405021667,128.50206798181944L114.66475096984864,119.22142586361792L114.70964476982117,114.71078059530964L115.49079688934326,132.39050360483031L115.53569068931579,140.14843643385757L115.68533668922424,114.94321836991412L115.95469948905945,126.14878209910967L115.96966408905028,134.31000927989191L116.22406228889466,109.35014970095585L116.26895608886718,134.83056404509L116.76578080856324,133.67002618387608L116.79571000854492,118.22065811241077L116.90046220848083,117.12887254900579L117.43918780815125,110.64885564851443L117.74147272796631,135.64772231017753L118.10062312774659,114.71785140055476L118.1754461277008,135.98167802348132L118.26523372764588,127.0663473416796L118.66927792739868,95.32947582568386L118.9565982472229,137.65503442516933L119.03142124717712,135.2101501758758L119.25589024703979,126.86220436056828L119.33071324699402,122.57721151693204L119.97419104660034,118.68371291962535L120.33633436637878,102.06769862900524L120.36626356636049,112.09688172713322L120.60569716621399,119.14956441740333L120.63562636619568,121.13803069550204L120.72541396614075,123.47359134629619L120.75534316612243,137.0623829059989L121.02470596595765,114.09768044624047L121.3569200857544,118.12124637101851L121.491601485672,136.49045968578355L121.77592888549805,115.85774004165023L121.94053948539734,123.35736860148972L121.97046868537903,126.03789814015113L122.0602562853241,113.27112915836415L122.25479608520509,120.87038933733675L122.5121872050476,131.3918709822119L123.09580660469055,119.77065345772326L123.43999240447997,125.21435956307482L123.49985080444335,120.2014209545714L123.5148154044342,103.92632902988612L123.8619941242218,132.5844415585134L124.02660472412109,130.2463079524009L124.19121532402038,135.68107622046227L124.29596752395629,109.46941215909192L124.38575512390138,115.2643748841981L124.73293384368897,121.05231309410988L125.61584524314881,133.62788873647014L126.14259916282654,124.28021862484843L126.15756376281739,135.42089720422098L126.21742216278075,125.97963053882677L126.51671416259765,125.7058827514727L126.5316787625885,128.69172989206868L126.54664336257933,131.274151525766L126.6663601625061,125.47829385967952L127.31283088211059,120.83842219982103L127.4175830820465,109.9313444325769L127.46247688201903,130.11002039936614L127.74680428184509,127.18345345495368L128.54292100135802,117.33029598963822L128.67760240127564,125.6527456307681L128.70753160125733,140.6220627314018L128.76739000122072,132.36180955964983L128.85717760116577,133.1594430671006L128.9020714011383,129.99152751332304L129.00682360107422,132.1810874154429L129.12654040100097,143.55407068552415L129.1714342009735,115.51926333339429L129.35100940086366,140.34848853173787L129.74308192062378,132.86025311062804L129.80294032058714,130.90376747130983L129.96755092048645,127.75673644540848L130.13216152038575,119.8449682766252L131.1377826397705,141.01715988667786L131.34728703964234,133.4358563898744L131.4670038395691,126.65685398063442L131.67650823944092,121.11682985227935L131.69147283943175,138.46419222649342L132.06858075920104,133.69730838251007L132.27808515907287,128.81258549944982L132.65220015884398,99.72314999336595L133.07420187858582,119.46998029087604L133.11909567855835,132.11528610836638L133.5081752783203,131.27529720452094L133.77753807815552,107.18289195951502L133.8373964781189,145.63739781440523L134.19953979789733,127.05979729950491L134.97769899742127,137.07389562735955L135.20216799728394,145.59001898313306L135.30991311721803,132.55822017354137L135.32487771720886,138.19819609388026L135.65409891700745,127.56644961947472L135.92346171684264,127.15589158726334L136.51007403648376,126.43464630723565L136.8243306362915,149.10567697031593L137.1535518360901,135.34286567999789L137.2882332360077,125.66468460634565L138.0693853555298,133.99856403249532L138.23399595542907,136.01884893419708L138.5033587552643,123.33210580631771L138.65300475517273,139.72010302217564L138.66796935516356,125.1602927838519L138.94032507499693,139.63126662861725L139.28451087478638,117.63273203591643L139.56883827461243,136.3257828304021L140.00580459434508,125.38449478693519L140.1404859942627,132.94542680392442L140.18537979423522,133.06647721526895L140.29013199417113,135.00982033769128L140.43977799407958,122.43574140697046L140.4846717940521,122.52281299234573L140.55949479400635,114.74534383316904L140.7091407939148,135.04769138542395L141.06829119369507,111.53751661192359L141.19100091362,143.0715181232024L141.47532831344606,124.1846412426562L141.72972651329042,113.15595951221121L142.6455600327301,132.43203542407286L143.16932103240967,138.95003523991943L143.42371923225403,125.67145838376541L143.5613935521698,122.08992772567785L143.63621655212404,121.31831501297938L143.80082715202332,123.03743105854096L143.89061475196837,128.45314325572895L143.9953669519043,123.562144213294L144.2647297517395,145.58652408430487L144.33955275169373,132.1736405035358L144.41437575164795,132.1334067344651L144.67176687149046,133.4839151062663L144.83637747138977,141.97276397841426L144.8812712713623,133.87001270418455L145.1805632711792,132.39352017313456L145.30028007110596,137.22178269560004L145.4499260710144,117.38839000327243L145.9617153907013,138.539014307201L146.03653839065552,139.10359091061912L146.94937899009705,135.26949209212694L146.95237191009522,137.85304204581018L147.43123910980225,125.4980789988515L148.07471690940858,129.2979675411209L148.18246202934264,143.6971474459956L148.30217882926942,144.06532115053062L148.31714342926026,129.7526515641664L148.82593982894898,123.21120005138164L148.99055042884825,126.94279148134069L149.17012562873842,125.15876521217865L149.4125521485901,125.09883116902893L150.31042814804078,124.95061428417716L150.65760686782838,134.3179094485455L151.1065448675537,137.37512427481522L151.16640326751707,137.2924830330428L151.37590766738893,129.8704462419447L151.6303058672333,128.32393615169985L151.70812178718566,141.45346483084154L152.33663498680116,138.60460923780147L152.57606858665466,133.61846871115176L152.74067918655396,136.50640467949916L152.8633889064789,130.26715583398698L152.98310570640564,142.89649544148847L153.28239770622253,136.07088666619745L153.31232690620422,118.89392761238742L153.35722070617675,135.052108227762L153.38714990615844,136.99977175491676L153.47693750610352,137.53541707664453L153.7762295059204,126.80821087392565L153.82112330589294,123.86285209767925L153.89594630584716,151.8302630647354L154.0186560257721,130.3289453366691L155.06617802513122,122.72659336805987L155.35349834495545,145.11361528254656L155.3684629449463,132.51283470757767L155.39839214492798,143.75509873197348L155.60789654479981,134.03256793224205L155.6677549447632,127.46333081652188L155.80243634468079,133.4409193641702L155.81740094467162,125.21808976966076L155.89222394462587,143.7998631397569L155.9670469445801,139.4625798975935L156.19151594444273,136.5382387331191L156.64344686416624,132.60643319010228L156.8230220640564,137.38255575670541L156.9277742639923,128.27786597873614L157.00259726394654,130.43927960127553L157.21210166381834,132.49623779564797L157.34678306373598,143.27764579023767L157.72389098350524,133.90876133412849L157.82864318344116,129.70304405982802L157.84360778343202,143.15192587002832L157.9782891833496,130.22187066313313L158.5469439830017,148.3957206764038L158.6546891029358,143.5870465603948L158.66965370292664,129.4564338146995L158.72951210289,147.35096580451466L159.20837930259705,136.7922939614026L159.89974382217406,139.72392002260665L159.95960222213748,129.79188431089062L160.3037880219269,134.1090294522454L160.57315082176208,142.16211150206914L160.61804462173464,143.32902581776762L160.93230122154236,123.94186921423193L161.08494014144898,122.41235335885199L161.44409054122926,141.40660579826374L161.54884274116515,132.86354934798862L161.8032409410095,133.2113052826587L161.8331701409912,122.68266025243702L161.87806394096373,121.94726950441486L162.18034886077882,132.65100665142654L162.21027806076052,140.57446884426906L162.2851010607147,134.601146696294L162.449711660614,141.99760051936937L162.62928686050415,127.04244624549915L162.8836850603485,118.97377409234855L163.1530478601837,140.20592867683263L163.2428354601288,133.17609205533734L163.38050978004455,144.82353289355012L163.64987257987977,133.73871869036952L163.6648371798706,128.40911370250046L164.0688813796234,144.83327502047132L164.18859817955018,128.5819954693693L164.3382441794586,131.11885419190855L164.5028547793579,134.82808366987308L164.80513969917297,132.99482407428252L165.07450249900816,134.22065983827156L165.55336969871522,137.45840586228906L165.65812189865113,140.8448663892034L166.42430941818236,142.01885922515544L166.45423861816406,138.42653719899738L166.60388461807253,129.76892251698905L166.70863681800842,130.20764997380627L167.10070933776856,134.51608294186804L167.4149659375763,146.2559939426195L167.56461193748473,140.92505618704058L167.80404553733825,126.2824793380571L167.83397473731995,136.60582606465198L167.93872693725584,131.64547874000527L168.4056224569702,138.08807399200623L168.48044545692446,130.91129346205355L168.64505605682373,140.00352350137484L168.71987905677793,137.4305971143283L169.3513851763916,133.87796302039305L169.39627897636413,139.8897676305205L169.69557097618102,141.97584998179457L169.7853585761261,148.6995801417412L169.80032317611693,138.10058966446547L170.1894027758789,140.0165271481186L170.29415497581482,121.99222871616166L171.22495309524538,141.79613464619047L171.35963449516296,134.17408433225432L171.46438669509885,134.1598539991669L171.5092804950714,128.26314960011632L171.60206101501464,125.16306247188572L171.64695481498717,121.76472468946145L171.97617601478575,133.72920801370185L172.14078661468506,144.06411953796442L172.30539721458436,114.83185222292741L172.48497241447447,138.51268105460645L172.49993701446533,116.78482946215263L172.54483081443786,134.13355546411037L172.89200953422548,141.56169675564513L172.98179713417053,135.45801025237336L173.32598293395995,146.95800377782734L173.47562893386842,132.00782568440786L173.59534573379517,124.73387655176998L174.49621465324404,145.8016281636726L174.63089605316162,138.5303638539756L174.7655774530792,133.45770143630273L175.27736677276613,146.64973518516035L175.69637557250977,128.88109477449257L175.7412693724823,145.35506997327786L176.3278816921234,137.46871311357927L176.6870320919037,149.88167180781443L177.64775941131592,136.08328661352994L178.2762726109314,141.37852123875086L178.80302653060912,153.51404919347277L178.87784953056337,138.27185320831177L178.8928141305542,135.09643480881584L178.9227433305359,139.14143881332643L179.13224773040773,139.488826356343L179.31182293029784,141.98079723096362L179.65600873008728,137.49034985477942L179.73382465003968,142.3966921202708L179.95829364990234,142.61638470091464L180.0480812498474,139.94898996414065L180.19772724975584,145.38419220142737L180.55687764953615,148.2585150373634L180.81127584938048,138.14399237325733L181.1285253691864,145.8071154634332L181.59242796890257,133.76585430384296L181.6971801688385,143.37949740305248L181.8617907687378,142.05719317339515L182.14911108856202,147.9003853094552L182.2538632884979,136.5208973228739L182.32868628845213,134.89855834331865L182.9571994880676,136.54670016863747L183.4839534077454,143.31103056055622L183.90296220748903,134.55665617131058L183.9328914074707,139.02481488808053L183.94785600746155,142.37911540226787L183.97778520744322,143.53850951347897L184.0675728073883,136.3331718797458L184.2022542073059,137.1828681929744L184.29204180725097,133.45916150165203L184.3668648072052,128.70264277152228L184.788866526947,148.19202998766292L184.99837092681884,141.4557851196331L185.16298152671814,136.47240656600877L185.31262752662658,139.10906663786704L185.37248592658995,133.8869375039734L185.3874505265808,134.1536241298429L185.7944876463318,144.3261038661832L185.92916904624937,133.98090437815154L186.27335484603884,142.01776948021177L186.28831944602967,130.8078236262162L186.46789464591978,146.00972315786282L186.9198255656433,145.31062959584938L187.05450696556093,152.3575858210969L187.30890516540526,148.13727078643154L187.3837281653595,153.61015312499177L187.5184095652771,135.59755353897435L187.63812636520387,139.57701661794363L187.75784316513062,147.786597614191L188.0002696849823,144.88185642868575L188.44920768470766,139.0658780205597L188.59885368461607,135.1298658691851L189.14057220428467,132.4911671063437L189.27525360420228,150.61558609609432L189.2902182041931,149.7770591863503L189.3800058041382,142.68049834989256L189.6194394039917,138.05918128535814L189.7241916039276,139.4263444316524L190.14320040367127,137.41586723444368L190.15816500366213,139.94227597803638L190.28087472358703,130.95979193392714L190.35569772354125,141.76250106684938L190.52030832344053,140.17450158990846L190.65498972335817,153.58775163357893L190.86449412322997,146.87779854997325L191.42117724288943,148.93309223127244L191.46607104286196,135.36482645155297L191.60075244277954,141.14477384146187L191.97486744255065,152.54299097543344L192.03472584251404,141.73728070422385L192.16940724243165,151.91971569459378L192.37891164230348,153.35925429954068L192.46869924224853,137.25972317840876L192.49862844223023,144.9900979972499L192.99545316192626,141.27019866259798L193.08524076187135,134.36742051527824L193.1750283618164,140.60818343119888L193.2049575617981,152.29398907768518L193.21992216178893,146.99307524186844L193.3695681616974,144.7255252836959L193.44439116165162,146.36573415157523L193.65389556152343,148.64489905497038L193.77660528144835,132.01959878730372L194.01603888130188,146.34494027504832L194.390153881073,131.33451760938897L194.67448128089904,138.04842270607355L194.80916268081666,152.38966771936333L195.0665538006592,144.03600990467407L195.47059800041197,147.5186274037905L195.8147838002014,139.95815346542804L195.84471300018313,141.57625883409594L195.85967760017397,134.12870465254696L196.61090051971433,142.89904139427722L196.7306173196411,155.75942091328952L196.77551111961364,150.67814034898913L196.91019251953122,148.24161916885623L197.46687563919068,159.26438397000751L197.93077823890684,151.87426850856247L198.23007023872375,148.11385862891166L198.50242595855715,148.91064348543284L198.96632855827332,153.38353535988733L199.08604535820007,140.56122603226333L199.1159745581818,149.0046383265166L199.61279927787783,149.803566026635L199.65769307785035,155.7813406988622L199.86719747772216,146.04853543662648L200.076701877594,148.84050730798305L200.16648947753905,144.7930721114344L200.5854982772827,140.60767231188902L200.63039207725524,136.21041452278155L200.6453566772461,145.94346570091164L200.73514427719115,148.96432354985717L200.76507347717285,152.44166880507356L201.00749999702455,148.11170035529756L201.1272167969513,145.9671392043428L201.26189819686888,156.24826168968667L201.48636719673155,152.45857913922157L201.72580079658508,147.40906656878127L202.29744851623533,145.10357998530424L202.4770237161255,154.08972142560717L202.50695291610717,156.95722998032906L202.65659891601564,147.97070182522754L202.82120951591492,147.3189330894271L202.9259617158508,142.17027012350582L203.03071391578675,149.90797998663152L203.06064311576844,145.40694761885288L203.30306963562012,132.21806930845162L203.58739703544617,146.59052924593317L204.1261226351166,156.62916322941334L204.5181951548767,150.9994916672365L204.6079827548218,148.02892410087725L204.74266415473937,152.58608990576755L205.19160215446473,154.6883173587889L205.52381627426146,138.792188095769L205.53878087425232,147.87243479821416L205.80814367408752,139.6329002816567L206.22715247383118,156.39557013229336L206.3019754737854,148.35258027789928L206.49651527366638,156.00628237838072L206.69404799354552,147.91369852091304L206.8137647934723,149.41599679085476L206.8885877934265,151.70039922061193L206.9185169934082,160.54753754545243L206.93348159339905,151.38256980372233L207.23277359321594,149.33880716692886L207.3075965931702,154.20369765639037L207.517100993042,154.8318247131695L207.66674699295044,156.12815299156117L207.74156999290466,150.41147783252103L207.83435051284792,145.58747688784854L208.11867791267397,151.50577945305702L208.29825311256408,158.71577020126205L208.82201411224366,155.90348808797083L208.95669551216125,148.0119154003715L209.66302463172912,156.96605450343264L209.73784763168334,147.42942840483494L209.962316631546,147.74167215560618L210.12692723144534,159.08543410789815L210.174813951416,153.24607994744832L210.41424755126954,156.10904532656878L210.6087873511505,153.0926091418416L210.90807935096743,149.77931582632215L211.042760750885,154.23681529454132L211.16247755081176,153.0457211779821L211.68923147048952,147.4366747265223L211.9885234703064,158.29114216348262L212.03341727027893,152.23022260408754L212.27285087013246,155.18166080699314L212.5003127899933,155.8318826835992L213.56279938934324,154.86426101963664L213.6855091092682,144.83589233708824L213.70047370925903,155.21752305940043L214.1494117089844,154.96116972297466L214.43373910881044,153.48253917020776L214.47863290878297,151.77095972352652L214.80785410858155,150.90535699162456L215.45432482818603,149.62669849352528L215.76858142799375,160.63694918932842L215.85836902793886,154.16297735959924L215.88829822792053,146.24069893836588L216.1905831477356,159.81383650482798L216.51980434753418,156.0438009466648L216.95377774726867,154.77793152163673L217.63017766685485,156.64243015082047L217.86961126670838,155.34085807762244L218.0491864665985,160.0515136139996L218.9201261860657,161.55542606863912L219.15955978591919,147.44539461482378L219.61149070564272,159.5753188213763L219.73120750556944,155.8656792424938L220.0454641053772,150.9215199343289L220.4195791051483,157.96419915176654L220.49440210510255,151.74453099770238L220.67697022499087,157.78223633776312L220.8715100248718,155.72352297896813L220.96129762481692,159.10548179845145L221.5898108244324,153.59147605390854L221.60477542442322,153.92632526162853L221.67959842437745,150.5220715142866L221.89209574424743,161.094561781363L222.76004254371642,155.13166273035193L223.0144407435608,152.61538475723114L223.4065132633209,161.78282937831494L223.4214778633118,161.09394090400323L223.5411946632385,158.0720298961307L223.72076986312868,155.76283142921278L223.7656636631012,154.93040130489698L223.9003450630188,160.61697515299642L224.12481406288148,160.29084896780006L224.18467246284484,161.4219500334496L224.42709898269652,160.89445748662865L224.69646178253174,159.27870230241007L224.96582458236693,153.04477705382294L225.19029358222963,155.20850855421375L225.33993958213804,160.75496724071076L225.37286170211792,157.8295155972075L225.55243690200805,158.90063192969083L225.5674015019989,153.36223904343507L225.6272599019623,160.5476077038105L226.04626870170594,155.13876632438297L226.43534830146788,153.4483703621554L226.9172084211731,156.17602895869038L227.14167742103575,158.6352112884893L227.6804030207062,147.30317904217065L227.7432543406677,161.45304459145484L228.46155514022828,153.45174182084838L228.52141354019165,158.3572407394785L228.82070554000853,157.08782385712718L229.54199925956726,161.25270673689434L229.93107885932923,159.79291002659335L229.97597265930176,161.400297078677L230.59251417892457,160.6275131312581L230.83194777877807,159.29915792403523L231.34373709846497,155.48859325663406L231.56820609832764,158.45853156761655L231.6879228982544,159.23210148152137L231.77771049819947,157.19548004942513L232.27154229789735,161.7272508190767L232.51396881774903,159.55353380735747L232.55886261772156,161.5836409394666L232.6037564176941,157.3395207037649L232.79829621757509,158.72750183598748L233.2023404173279,161.6817405869607L233.47170321716308,157.7988313209407L233.56448373710634,157.0693632884686L233.66923593704223,159.6430780529412L233.9984571368408,160.62069089394151L234.31271373664856,161.11944690276198L234.50725353652953,158.06917582519193L235.01904285621643,161.55330817827237L235.36322865600584,157.8316213123265L235.40812245597837,161.71975876231545L235.60266225585937,160.63192237913472L235.66252065582276,159.7590616324857L235.75230825576782,159.17150828733713L236.38381437538146,157.4501249936671L236.39877897537232,161.34295958792222L236.68310637519838,160.95114399340866L236.7280001751709,158.64994020399786L236.84771697509765,157.36725808789748L236.8626815750885,159.831414307754L236.87764617507935,159.58422748629079L236.96743377502443,160.7810996619916L237.25475409484864,160.0570009137602L237.2846832948303,157.52247248541408L237.55404609466552,157.7275022103092L238.2903044142151,161.60302465710512L238.49980881408692,159.23305814256926L238.58959641403197,160.29519975037826L239.09839281372072,160.83319881269205L239.69996973335265,161.78905249700654L240.1189785330963,155.76648496790224L240.5230227328491,159.90862177263693L240.58587405281065,161.7602224145286L240.67566165275574,160.84993640297895L241.01984745254518,161.69102210376798L241.3939624523163,158.2144764368493L241.57353765220643,155.0606547569472L241.5885022521973,159.19711343600915L241.67828985214234,160.08555898191673L241.80099957206727,160.74552599911914L242.05539777191163,161.79002519080638L242.23497297180174,161.3643662350227L242.32476057174685,160.0346140085352L242.62405257156374,161.7067826002893L242.6839109715271,160.97483931584807L243.0310896913147,160.414628081196L243.06101889129638,161.78961593371747L243.195700291214,161.77327253214358L243.9439302907562,160.00636056266546L244.29110901054383,161.79106382381906L244.30607361053467,161.26941304523294L244.63529481033325,161.76296485893883L245.15905581001283,161.39613862884855L245.17402041000366,161.63355650168148L245.52119912979126,158.72145302826806L245.55112832977292,161.57588473407617L245.5660929297638,159.86325824622853L246.01503092948914,160.11172587964157L246.38914592926025,159.71580743760651L246.45199724922182,160.30727916321902L246.67646624908448,161.21582327051686L246.76625384902954,160.02153297061292L247.21519184875487,159.53824555373623L247.2301564487457,161.40437204970308L247.34987324867248,161.77297984401048L247.40973164863587,160.31015360660194L247.49951924858092,161.7227699662779L247.72698116844177,161.1748815288738L248.3704589680481,158.63218579970652L248.55003416793824,159.12030425843747L248.71464476783754,161.65626309756914L248.8523190877533,161.67650378388072L248.86728368774416,161.77398394030564L248.92714208770752,161.3792505657601L248.98700048767088,161.78501296680054L249.04685888763427,161.77618681631233L249.30125708747863,161.78872870774563L249.3910446874237,159.29499230165985L249.4509030873871,161.77244244545307L249.4808322873688,161.78197397675297L249.8549472871399,161.78423266602394L250.12730300697325,160.52195252813058L250.2320552069092,161.61791709462872L250.24701980690003,159.14014918892494L250.48645340675353,157.6550963738108L250.53134720672608,158.77342108409837L251.0102144064331,161.78973165884423L251.02517900642394,161.78312616504627L251.04014360641477,161.78282142221246L251.3873223262024,159.09367156707742L251.59682672607423,159.3212537082382L252.34804964561462,161.77815926671508L252.52762484550476,159.86940988054494L253.4584229649353,161.76329744813125L253.60806896484374,157.60266662294353L254.0869361645508,161.7911247000576L254.14679456451418,161.72710128051446L254.44608656433107,161.66597671512318L254.79326528411863,161.3634353710343L254.82319448410033,161.77884650520224L255.0775926839447,160.4886478010247L255.63128288360596,161.78163765060333L255.79888640350342,161.7750205842927L256.0682492033386,160.3776393170079L256.14307220329283,157.98152537308886L256.17300140327455,161.3622716102283L256.322647403183,159.11946693892656L256.5920102030182,161.78875173222397L256.71172700294494,160.62071030200963L256.83144380287166,161.24438899340836L256.9361960028076,161.7859484115752L257.1786225226593,158.22154097365006L257.26841012260434,158.48395686015405L257.3731623225403,158.97727619895687L258.07649852211,161.78732047760934L258.13934984207157,161.08097149260948L258.378783441925,161.65558550284254L258.4685710418701,158.83157103154386L258.61821704177856,161.59519277833104L258.73793384170534,161.77111787493968L258.8875798416138,161.6711734363233L258.9923320415497,161.37823673529408L259.1419780414581,161.77802172258004L259.15694264144895,161.7821444302209L259.17190724143984,161.78872448860037L259.3544753613281,161.78342367505968L259.6388027611542,161.54466730853403L259.93809476097107,161.24907983909344L260.1027053608704,161.78770237052765L260.68931768051146,159.75290794887016L260.79406988044735,161.57780592186418L260.9736450803375,160.75750704560215L261.1382556802368,161.78160425908237L261.61712287994385,160.40713572306726L262.0840183996582,160.51119250228192L262.54792099937436,161.78893170890547L263.089639519043,157.49549888711812L263.44878991882325,161.31508276103924L263.58347131874086,159.89918221870343L263.6732589186859,161.7859435896949L263.8977279185486,161.5366846857276L263.9725509185028,161.78900138507555" fill="none"></path></g></g></g></g></g></g><g transform="translate(30, 177)" clip-path="url(#clip_1)"><clipPath id="clip_1"><rect width="299" height="22"></rect></clipPath><g><g><line x1="0" y1="0" x2="0" y2="5" style="visibility: inherit;" fill="rgb(0, 0, 0)" stroke="rgb(204, 204, 204)" stroke-width="1px"></line><line x1="29.929199981689454" y1="0" x2="29.929199981689454" y2="5" style="visibility: inherit;" fill="rgb(0, 0, 0)" stroke="rgb(204, 204, 204)" stroke-width="1px"></line><line x1="59.85839996337891" y1="0" x2="59.85839996337891" y2="5" style="visibility: inherit;" fill="rgb(0, 0, 0)" stroke="rgb(204, 204, 204)" stroke-width="1px"></line><line x1="89.78759994506835" y1="0" x2="89.78759994506835" y2="5" style="visibility: inherit;" fill="rgb(0, 0, 0)" stroke="rgb(204, 204, 204)" stroke-width="1px"></line><line x1="119.71679992675782" y1="0" x2="119.71679992675782" y2="5" style="visibility: inherit;" fill="rgb(0, 0, 0)" stroke="rgb(204, 204, 204)" stroke-width="1px"></line><line x1="149.64599990844727" y1="0" x2="149.64599990844727" y2="5" style="visibility: inherit;" fill="rgb(0, 0, 0)" stroke="rgb(204, 204, 204)" stroke-width="1px"></line><line x1="179.5751998901367" y1="0" x2="179.5751998901367" y2="5" style="visibility: inherit;" fill="rgb(0, 0, 0)" stroke="rgb(204, 204, 204)" stroke-width="1px"></line><line x1="209.50439987182617" y1="0" x2="209.50439987182617" y2="5" style="visibility: inherit;" fill="rgb(0, 0, 0)" stroke="rgb(204, 204, 204)" stroke-width="1px"></line><line x1="239.43359985351563" y1="0" x2="239.43359985351563" y2="5" style="visibility: inherit;" fill="rgb(0, 0, 0)" stroke="rgb(204, 204, 204)" stroke-width="1px"></line><line x1="269.36279983520507" y1="0" x2="269.36279983520507" y2="5" style="visibility: inherit;" fill="rgb(0, 0, 0)" stroke="rgb(204, 204, 204)" stroke-width="1px"></line><line x1="299.29199981689453" y1="0" x2="299.29199981689453" y2="5" style="visibility: inherit;" fill="rgb(0, 0, 0)" stroke="rgb(204, 204, 204)" stroke-width="1px"></line></g><g transform="translate(0, 8)"><text style="text-anchor: middle; visibility: hidden; font-family: &quot;Helvetica Neue&quot;, sans-serif; font-size: 12px; font-weight: 200;" x="0" y="0" dx="0em" dy="0.95em" fill="rgb(50, 49, 63)" stroke="none" stroke-width="1px">-20k</text><text style="text-anchor: middle; visibility: inherit; font-family: &quot;Helvetica Neue&quot;, sans-serif; font-size: 12px; font-weight: 200;" x="29.929199981689454" y="0" dx="0em" dy="0.95em" fill="rgb(50, 49, 63)" stroke="none" stroke-width="1px">0</text><text style="text-anchor: middle; visibility: hidden; font-family: &quot;Helvetica Neue&quot;, sans-serif; font-size: 12px; font-weight: 200;" x="59.85839996337891" y="0" dx="0em" dy="0.95em" fill="rgb(50, 49, 63)" stroke="none" stroke-width="1px">20k</text><text style="text-anchor: middle; visibility: inherit; font-family: &quot;Helvetica Neue&quot;, sans-serif; font-size: 12px; font-weight: 200;" x="89.78759994506835" y="0" dx="0em" dy="0.95em" fill="rgb(50, 49, 63)" stroke="none" stroke-width="1px">40k</text><text style="text-anchor: middle; visibility: hidden; font-family: &quot;Helvetica Neue&quot;, sans-serif; font-size: 12px; font-weight: 200;" x="119.71679992675782" y="0" dx="0em" dy="0.95em" fill="rgb(50, 49, 63)" stroke="none" stroke-width="1px">60k</text><text style="text-anchor: middle; visibility: inherit; font-family: &quot;Helvetica Neue&quot;, sans-serif; font-size: 12px; font-weight: 200;" x="149.64599990844727" y="0" dx="0em" dy="0.95em" fill="rgb(50, 49, 63)" stroke="none" stroke-width="1px">80k</text><text style="text-anchor: middle; visibility: hidden; font-family: &quot;Helvetica Neue&quot;, sans-serif; font-size: 12px; font-weight: 200;" x="179.5751998901367" y="0" dx="0em" dy="0.95em" fill="rgb(50, 49, 63)" stroke="none" stroke-width="1px">100k</text><text style="text-anchor: middle; visibility: inherit; font-family: &quot;Helvetica Neue&quot;, sans-serif; font-size: 12px; font-weight: 200;" x="209.50439987182617" y="0" dx="0em" dy="0.95em" fill="rgb(50, 49, 63)" stroke="none" stroke-width="1px">120k</text><text style="text-anchor: middle; visibility: hidden; font-family: &quot;Helvetica Neue&quot;, sans-serif; font-size: 12px; font-weight: 200;" x="239.43359985351563" y="0" dx="0em" dy="0.95em" fill="rgb(50, 49, 63)" stroke="none" stroke-width="1px">140k</text><text style="text-anchor: middle; visibility: inherit; font-family: &quot;Helvetica Neue&quot;, sans-serif; font-size: 12px; font-weight: 200;" x="269.36279983520507" y="0" dx="0em" dy="0.95em" fill="rgb(50, 49, 63)" stroke="none" stroke-width="1px">160k</text><text style="text-anchor: middle; visibility: hidden; font-family: &quot;Helvetica Neue&quot;, sans-serif; font-size: 12px; font-weight: 200;" x="299.29199981689453" y="0" dx="0em" dy="0.95em" fill="rgb(50, 49, 63)" stroke="none" stroke-width="1px">180k</text></g><line x1="0" y1="0" x2="299.29199981689453" y2="0" fill="rgb(0, 0, 0)" stroke="rgb(204, 204, 204)" stroke-width="1px"></line></g></g></g></g></svg>