<svg viewBox="0 0 330 200" xmlns="http://www.w3.org/2000/svg"><g><g><g><g><g><line x1="51.41600036621094" y1="177.9749994277954" x2="46.41600036621094" y2="177.9749994277954" style="visibility: inherit;" fill="rgb(0, 0, 0)" stroke="rgb(204, 204, 204)" stroke-width="1px"></line><line x1="51.41600036621094" y1="155.72812449932098" x2="46.41600036621094" y2="155.72812449932098" style="visibility: inherit;" fill="rgb(0, 0, 0)" stroke="rgb(204, 204, 204)" stroke-width="1px"></line><line x1="51.41600036621094" y1="133.48124957084656" x2="46.41600036621094" y2="133.48124957084656" style="visibility: inherit;" fill="rgb(0, 0, 0)" stroke="rgb(204, 204, 204)" stroke-width="1px"></line><line x1="51.41600036621094" y1="111.23437464237213" x2="46.41600036621094" y2="111.23437464237213" style="visibility: inherit;" fill="rgb(0, 0, 0)" stroke="rgb(204, 204, 204)" stroke-width="1px"></line><line x1="51.41600036621094" y1="88.9874997138977" x2="46.41600036621094" y2="88.9874997138977" style="visibility: inherit;" fill="rgb(0, 0, 0)" stroke="rgb(204, 204, 204)" stroke-width="1px"></line><line x1="51.41600036621094" y1="66.74062478542328" x2="46.41600036621094" y2="66.74062478542328" style="visibility: inherit;" fill="rgb(0, 0, 0)" stroke="rgb(204, 204, 204)" stroke-width="1px"></line><line x1="51.41600036621094" y1="44.49374985694885" x2="46.41600036621094" y2="44.49374985694885" style="visibility: inherit;" fill="rgb(0, 0, 0)" stroke="rgb(204, 204, 204)" stroke-width="1px"></line><line x1="51.41600036621094" y1="22.246874928474426" x2="46.41600036621094" y2="22.246874928474426" style="visibility: inherit;" fill="rgb(0, 0, 0)" stroke="rgb(204, 204, 204)" stroke-width="1px"></line><line x1="51.41600036621094" y1="0" x2="46.41600036621094" y2="0" style="visibility: inherit;" fill="rgb(0, 0, 0)" stroke="rgb(204, 204, 204)" stroke-width="1px"></line></g><g transform="translate(41.41600036621094, 0)"><text style="text-anchor: end; visibility: hidden; font-family: &quot;Helvetica Neue&quot;, sans-serif; font-size: 12px; font-weight: 200;" x="0" y="177.9749994277954" dx="0em" dy="0.3em" fill="rgb(50, 49, 63)" stroke="none" stroke-width="1px">-0.5</text><text style="text-anchor: end; visibility: inherit; font-family: &quot;Helvetica Neue&quot;, sans-serif; font-size: 12px; font-weight: 200;" x="0" y="155.72812449932098" dx="0em" dy="0.3em" fill="rgb(50, 49, 63)" stroke="none" stroke-width="1px">0</text><text style="text-anchor: end; visibility: hidden; font-family: &quot;Helvetica Neue&quot;, sans-serif; font-size: 12px; font-weight: 200;" x="0" y="133.48124957084656" dx="0em" dy="0.3em" fill="rgb(50, 49, 63)" stroke="none" stroke-width="1px">0.5</text><text style="text-anchor: end; visibility: inherit; font-family: &quot;Helvetica Neue&quot;, sans-serif; font-size: 12px; font-weight: 200;" x="0" y="111.23437464237213" dx="0em" dy="0.3em" fill="rgb(50, 49, 63)" stroke="none" stroke-width="1px">1</text><text style="text-anchor: end; visibility: hidden; font-family: &quot;Helvetica Neue&quot;, sans-serif; font-size: 12px; font-weight: 200;" x="0" y="88.9874997138977" dx="0em" dy="0.3em" fill="rgb(50, 49, 63)" stroke="none" stroke-width="1px">1.5</text><text style="text-anchor: end; visibility: inherit; font-family: &quot;Helvetica Neue&quot;, sans-serif; font-size: 12px; font-weight: 200;" x="0" y="66.74062478542328" dx="0em" dy="0.3em" fill="rgb(50, 49, 63)" stroke="none" stroke-width="1px">2</text><text style="text-anchor: end; visibility: hidden; font-family: &quot;Helvetica Neue&quot;, sans-serif; font-size: 12px; font-weight: 200;" x="0" y="44.49374985694885" dx="0em" dy="0.3em" fill="rgb(50, 49, 63)" stroke="none" stroke-width="1px">2.5</text><text style="text-anchor: end; visibility: inherit; font-family: &quot;Helvetica Neue&quot;, sans-serif; font-size: 12px; font-weight: 200;" x="0" y="22.246874928474426" dx="0em" dy="0.3em" fill="rgb(50, 49, 63)" stroke="none" stroke-width="1px">3</text><text style="text-anchor: end; visibility: hidden; font-family: &quot;Helvetica Neue&quot;, sans-serif; font-size: 12px; font-weight: 200;" x="0" y="0" dx="0em" dy="0.3em" fill="rgb(50, 49, 63)" stroke="none" stroke-width="1px">3.5</text></g><line x1="51.41600036621094" y1="0" x2="51.41600036621094" y2="177.9749994277954" fill="rgb(0, 0, 0)" stroke="rgb(204, 204, 204)" stroke-width="1px"></line></g></g><g transform="translate(51, 0)" clip-path="url(#clip_0)"><clipPath id="clip_0"><rect width="278" height="177"></rect></clipPath><g><g><g><line x1="0" y1="0" x2="0" y2="177.9749994277954" fill="rgb(0, 0, 0)" stroke="rgb(60, 60, 60)" stroke-width="1px" opacity="0.25"></line><line x1="34.82299995422363" y1="0" x2="34.82299995422363" y2="177.9749994277954" fill="rgb(0, 0, 0)" stroke="rgb(60, 60, 60)" stroke-width="1px" opacity="0.25"></line><line x1="69.64599990844727" y1="0" x2="69.64599990844727" y2="177.9749994277954" fill="rgb(0, 0, 0)" stroke="rgb(60, 60, 60)" stroke-width="1px" opacity="0.25"></line><line x1="104.4689998626709" y1="0" x2="104.4689998626709" y2="177.9749994277954" fill="rgb(0, 0, 0)" stroke="rgb(60, 60, 60)" stroke-width="1px" opacity="0.25"></line><line x1="139.29199981689453" y1="0" x2="139.29199981689453" y2="177.9749994277954" fill="rgb(0, 0, 0)" stroke="rgb(60, 60, 60)" stroke-width="1px" opacity="0.25"></line><line x1="174.11499977111816" y1="0" x2="174.11499977111816" y2="177.9749994277954" fill="rgb(0, 0, 0)" stroke="rgb(60, 60, 60)" stroke-width="1px" opacity="0.25"></line><line x1="208.9379997253418" y1="0" x2="208.9379997253418" y2="177.9749994277954" fill="rgb(0, 0, 0)" stroke="rgb(60, 60, 60)" stroke-width="1px" opacity="0.25"></line><line x1="243.76099967956543" y1="0" x2="243.76099967956543" y2="177.9749994277954" fill="rgb(0, 0, 0)" stroke="rgb(60, 60, 60)" stroke-width="1px" opacity="0.25"></line><line x1="278.58399963378906" y1="0" x2="278.58399963378906" y2="177.9749994277954" fill="rgb(0, 0, 0)" stroke="rgb(60, 60, 60)" stroke-width="1px" opacity="0.25"></line></g><g><line x1="0" y1="177.9749994277954" x2="278.58399963378906" y2="177.9749994277954" fill="rgb(0, 0, 0)" stroke="rgb(60, 60, 60)" stroke-width="1px" opacity="0.25"></line><line x1="0" y1="155.72812449932098" x2="278.58399963378906" y2="155.72812449932098" fill="rgb(0, 0, 0)" stroke="rgb(60, 60, 60)" stroke-width="1px" opacity="0.25"></line><line x1="0" y1="133.48124957084656" x2="278.58399963378906" y2="133.48124957084656" fill="rgb(0, 0, 0)" stroke="rgb(60, 60, 60)" stroke-width="1px" opacity="0.25"></line><line x1="0" y1="111.23437464237213" x2="278.58399963378906" y2="111.23437464237213" fill="rgb(0, 0, 0)" stroke="rgb(60, 60, 60)" stroke-width="1px" opacity="0.25"></line><line x1="0" y1="88.9874997138977" x2="278.58399963378906" y2="88.9874997138977" fill="rgb(0, 0, 0)" stroke="rgb(60, 60, 60)" stroke-width="1px" opacity="0.25"></line><line x1="0" y1="66.74062478542328" x2="278.58399963378906" y2="66.74062478542328" fill="rgb(0, 0, 0)" stroke="rgb(60, 60, 60)" stroke-width="1px" opacity="0.25"></line><line x1="0" y1="44.49374985694885" x2="278.58399963378906" y2="44.49374985694885" fill="rgb(0, 0, 0)" stroke="rgb(60, 60, 60)" stroke-width="1px" opacity="0.25"></line><line x1="0" y1="22.246874928474426" x2="278.58399963378906" y2="22.246874928474426" fill="rgb(0, 0, 0)" stroke="rgb(60, 60, 60)" stroke-width="1px" opacity="0.25"></line><line x1="0" y1="0" x2="278.58399963378906" y2="0" fill="rgb(0, 0, 0)" stroke="rgb(60, 60, 60)" stroke-width="1px" opacity="0.25"></line></g></g></g><g><g><line x1="0" y1="155.72812449932098" x2="278.58399963378906" y2="155.72812449932098" fill="rgb(0, 0, 0)" stroke="rgb(153, 153, 153)" stroke-width="1.5px"></line></g></g><g><g><line x1="34.82299995422363" y1="0" x2="34.82299995422363" y2="177.9749994277954" fill="rgb(0, 0, 0)" stroke="rgb(153, 153, 153)" stroke-width="1.5px"></line></g></g><g><g><g><g><g><path style="fill: none;" stroke="rgb(238, 51, 119)" stroke-width="2px" d="M39.001759948730474,-3.8084059115990385L39.69821994781494,2.1022250420812156L40.39467994689941,3.282252943393871L41.09113994598388,8.990268487636058L41.78759994506836,11.944464806062797L42.48405994415283,13.91851173336704L43.18051994323731,17.692992824055978L43.876979942321775,20.77475198533574L44.57343994140625,19.775932273762407L45.269899940490724,22.914476790367928L45.9663599395752,25.75936686906431L46.66281993865967,28.318951113371327L47.35927993774414,30.424061568613126L48.05573993682861,29.26258729824849L48.75219993591308,31.77834933017914L49.44865993499756,36.758455755844295L50.14511993408203,35.598827301251504L50.8415799331665,35.956363937885044L51.538039932250975,35.37021134895832L52.23449993133545,41.73536913238689L52.930959930419924,41.05540879133133L53.6274199295044,44.68247921555161L54.323879928588866,41.90353992222049L55.02033992767334,47.163329869866516L55.716799926757815,46.58107046707926L56.41325992584229,50.29304841680437L57.10971992492676,49.43961321760531L57.806179924011225,50.76376326303449L58.5026399230957,51.75979303467682L59.199099922180174,54.22454053760288L59.89555992126465,51.85283700096903L60.592019920349124,56.67583692329504L61.28847991943359,53.43654693321133L61.984939918518066,55.26472137385679L62.68139991760254,54.98860218578017L63.377859916687015,57.51084578918551L64.07431991577148,56.49062946605005L64.77077991485596,58.63602962417383L65.46723991394043,62.33240300493122L66.1636999130249,55.79223218354929L66.86015991210937,58.745940527691516L67.55661991119385,59.051465470478206L68.25307991027832,61.04346136494314L68.9495399093628,61.79790143320628L69.64599990844727,60.907284715154844L70.34245990753173,62.801102305203585L71.03891990661621,62.1470682500468L71.73537990570068,61.398303534875254L72.43183990478516,63.787733267800775L73.12829990386963,63.24590147367155L73.8247599029541,66.17254846129669L74.52121990203858,61.79640568594289L75.21767990112305,68.12200572791625L75.91413990020753,65.87885159084107L76.610599899292,63.22029343187137L77.30705989837647,67.62942220804442L78.00351989746095,69.35454390549688L78.6999798965454,65.57905504182906L79.39643989562988,66.29250527019332L80.09289989471435,65.21504744185745L80.78935989379882,68.21507621455001L81.4858198928833,66.75184288989871L82.18227989196777,66.33872492144576L82.87873989105225,65.30410274878062L83.57519989013672,68.41334228797396L84.27165988922118,66.64428168864231L84.96811988830567,66.69328067168914L85.66457988739013,69.5263161577129L86.36103988647461,69.8194667091326L87.05749988555908,70.75273874453222L87.75395988464355,69.41016236579446L88.45041988372803,70.09893276431276L89.1468798828125,66.98790575409899L89.84333988189698,70.77655401124366L90.53979988098145,69.71073330877971L91.23625988006592,73.2672331041368L91.9327198791504,71.0180111129151L92.62917987823486,69.50293052053456L93.32563987731935,70.77409292354787L94.02209987640381,70.96783462670348L94.71855987548828,68.7468143666855L95.41501987457276,69.221592129241L96.11147987365722,71.14439114853502L96.8079398727417,64.84859997046328L97.50439987182617,72.73533052588371L98.20085987091063,72.34481849656754L98.89731986999512,73.75436404178606L99.59377986907958,72.54556156989221L100.29023986816406,72.43642506034777L100.98669986724853,71.25707077571047L101.683159866333,71.42291838362434L102.37961986541748,70.75324263102166L103.07607986450195,73.24453169177045L103.77253986358643,73.07371417185021L104.4689998626709,71.3711825013296L105.16545986175537,70.35172465996246L105.86191986083985,72.1175073450786L106.55837985992432,73.64856909527686L107.2548398590088,69.73911537830597L107.95129985809326,69.16705039481033L108.64775985717773,73.65311998588675L109.34421985626221,73.25025478147683L110.04067985534668,70.5765163790042L110.73713985443116,73.86170247217345L111.43359985351563,70.00972894347692L112.1300598526001,70.20969762282834L112.82651985168458,73.46635843662696L113.52297985076903,76.15832161781239L114.21943984985352,73.43084239522389L114.91589984893798,74.24276795582969L115.61235984802245,76.05074450435106L116.30881984710693,72.00072236903128L117.0052798461914,73.4603754475734L117.70173984527588,74.9246801940233L118.39819984436035,72.70428581406588L119.09465984344482,73.94702901907476L119.7911198425293,76.10851641638246L120.48757984161377,72.82017440256882L121.18403984069825,75.8963112514401L121.88049983978271,75.87951857117096L122.57695983886718,75.08880928380475L123.27341983795166,73.67087800658828L123.96987983703613,73.81654363458298L124.66633983612061,75.83735122810728L125.36279983520508,76.10427316173454L126.05925983428955,71.89492742252207L126.75571983337403,72.08105248358467L127.4521798324585,77.97696995177327L128.14863983154297,74.88263484453074L128.84509983062745,78.66846133733455L129.54155982971193,77.5799763509824L130.23801982879638,76.79047639119085L130.93447982788086,75.33840813033189L131.63093982696532,75.21415502610424L132.3273998260498,73.854335121291L133.02385982513428,75.27371440915607L133.72031982421873,76.84702306344266L134.41677982330322,74.71062921330909L135.1132398223877,76.89853087080007L135.80969982147215,77.5068703774671L136.50615982055663,75.83406270575514L137.20261981964111,76.51343959929662L137.8990798187256,76.46644025000262L138.59553981781005,74.94051814199665L139.29199981689453,78.47597669836838L139.98845981597898,77.23381163680529L140.68491981506347,78.90302845427144L141.38137981414795,75.10270594277668L142.07783981323243,74.97991145733425L142.77429981231688,75.69238043306117L143.47075981140136,78.32497517765393L144.16721981048582,77.38171558162676L144.86367980957033,76.55877347114131L145.56013980865478,75.99581557293376L146.25659980773926,78.7623274342148L146.95305980682372,77.86353714689781L147.6495198059082,77.80175005515582L148.34597980499268,78.18199871229234L149.04243980407716,74.88134065186313L149.73889980316162,77.4333984232384L150.4353598022461,77.67671725288662L151.13181980133055,76.68225218139571L151.82827980041506,77.88242493414936L152.5247397994995,77.67016142445559L153.221199798584,75.73435152559739L153.91765979766845,79.86173880128533L154.61411979675293,80.29009535799261L155.3105797958374,78.98798902045937L156.0070397949219,81.37934413018138L156.70349979400635,79.88515626287352L157.3999597930908,81.24037754046208L158.09641979217528,80.76533457449108L158.79287979125976,81.07552179332217L159.48933979034425,79.76786209626846L160.1857997894287,78.043116987666L160.88225978851318,79.92640069805128L161.57871978759763,80.5355941597162L162.27517978668214,80.85888773134104L162.9716397857666,80.91569430294004L163.66809978485108,81.84662194014669L164.36455978393553,80.33768876293732L165.06101978302001,81.37064545815315L165.7574797821045,82.2317980767431L166.45393978118898,80.62715829094995L167.15039978027343,81.16657673399817L167.8468597793579,83.15178872509475L168.54331977844237,82.97747582415829L169.23977977752688,82.66978151743285L169.93623977661133,83.47678490264707L170.6326997756958,80.4527923493304L171.32915977478027,83.60857508794308L172.02561977386475,80.04148306817112L172.72207977294923,82.78454033938579L173.4185397720337,81.26861109607566L174.11499977111816,82.63705541596079L174.81145977020262,84.05728865882375L175.5079197692871,85.4006129111932L176.20437976837158,81.71984409940353L176.90083976745606,81.91048292259785L177.59729976654052,83.53533651272002L178.293759765625,84.56771506449007L178.99021976470945,87.03573517756334L179.68667976379396,83.25039135497573L180.38313976287841,82.76180710260957L181.0795997619629,83.86937612674072L181.77605976104735,85.6013665926545L182.47251976013183,84.39713622764378L183.1689797592163,84.9633508237936L183.8654397583008,82.67783309312728L184.56189975738525,83.66953474502873L185.25835975646973,84.69969619624524L185.95481975555418,84.322704237051L186.6512797546387,85.94780711838374L187.34773975372315,82.68262797087942L188.04419975280763,85.58969233830442L188.74065975189208,88.64140925667692L189.43711975097656,86.2242180302174L190.13357975006105,86.83898606767602L190.83003974914553,87.83345644323524L191.52649974822998,86.81765310493361L192.22295974731443,87.79875722835189L192.91941974639892,86.33851009415906L193.6158797454834,85.35354460901118L194.31233974456788,85.78558749319384L195.00879974365233,89.32615917141632L195.7052597427368,86.7915464807123L196.40171974182127,88.46644925940666L197.09817974090578,89.23630295017836L197.79463973999023,89.07376508088987L198.4910997390747,90.1784274755872L199.18755973815917,89.89084619589289L199.88401973724365,90.08566462491541L200.58047973632813,89.85093838592923L201.2769397354126,90.43440711629114L201.97339973449706,88.79401791008928L202.66985973358155,88.14418998110224L203.366319732666,91.02346103058338L204.0627797317505,88.71952227067678L204.75923973083496,91.56359021878512L205.45569972991944,90.49736110306131L206.1521597290039,89.73724568170658L206.84861972808838,92.63870895299632L207.54507972717286,91.45461813535829L208.24153972625734,93.50499060564195L208.9379997253418,92.42418591020254L209.63445972442625,93.46425536102194L210.33091972351073,93.29507679820946L211.0273797225952,91.01117150430935L211.7238397216797,93.5352450112816L212.42029972076415,92.23242262452652L213.11675971984863,92.52668172622299L213.81321971893308,94.62181522897387L214.5096797180176,93.83376858389923L215.20613971710205,93.70707030418072L215.90259971618653,94.36381473824386L216.59905971527098,94.39705533434199L217.29551971435546,94.36197422654033L217.99197971343995,94.57856055190666L218.68843971252443,95.16395465906507L219.38489971160888,95.50931315485909L220.08135971069336,94.62091353736119L220.77781970977782,95.75157117084532L221.47427970886233,95.36260792947564L222.17073970794678,96.4769820732484L222.86719970703126,96.95230615483982L223.56365970611571,96.94505018939188L224.2601197052002,97.12672513714247L224.95657970428468,97.23894331037496L225.65303970336916,96.52112252972336L226.3494997024536,95.69349162285195L227.04595970153807,97.2490899930518L227.74241970062255,97.50871352868464L228.43887969970703,97.64424308213913L229.1353396987915,97.53650154256019L229.83179969787597,98.2807471915317L230.52825969696045,97.9297663833292L231.2247196960449,98.14834173431174L231.9211796951294,98.47854650694438L232.61763969421386,98.97301297106623L233.31409969329835,99.1323843115737L234.0105596923828,99.02120573572995L234.70701969146728,99.29212693686287L235.40347969055176,98.67706717564721L236.09993968963624,99.04146197260545L236.7963996887207,98.81217240363691L237.49285968780518,98.89208880086213L238.18931968688963,99.21099060392638L238.88577968597414,99.2091819166327L239.5822396850586,98.93633003463498L240.27869968414308,99.07754024524937L240.97515968322753,99.34132217043717L241.671619682312,99.24805543327594L242.3680796813965,99.35954164508166L243.06453968048098,99.54108929519282" fill="none"></path></g><g><path style="fill: none;" stroke="rgb(204, 51, 17)" stroke-width="2px" d="M39.001759948730474,-1.627457887662331L39.69821994781494,3.854636170988101L40.39467994689941,5.327682022012709L41.09113994598388,10.680462895267851L41.78759994506836,14.16634962921529L42.48405994415283,16.588643369388933L43.18051994323731,19.97156752930465L43.876979942321775,24.09366664888762L44.57343994140625,22.616971598865803L45.269899940490724,25.86293410688336L45.9663599395752,28.733898985391193L46.66281993865967,31.26009942375572L47.35927993774414,33.56080270199328L48.05573993682861,32.081010076078485L48.75219993591308,35.35601766216104L49.44865993499756,40.60656792281122L50.14511993408203,39.730187324103554L50.8415799331665,39.87889218323983L51.538039932250975,39.5041067164625L52.23449993133545,45.29924688676306L52.930959930419924,45.07930839022487L53.6274199295044,49.02248006944177L54.323879928588866,46.668269350093965L55.02033992767334,51.67616909370298L55.716799926757815,51.031989997465985L56.41325992584229,54.89477321737809L57.10971992492676,53.445107699463506L57.806179924011225,54.36396327719683L58.5026399230957,56.92558428373485L59.199099922180174,57.69667912649106L59.89555992126465,57.13997472482089L60.592019920349124,60.93588425148181L61.28847991943359,58.188589029687535L61.984939918518066,59.57785181768901L62.68139991760254,59.762974409841036L63.377859916687015,62.48188225804074L64.07431991577148,60.421888207842926L64.77077991485596,62.857760362889906L65.46723991394043,66.63660139772958L66.1636999130249,59.50058215055043L66.86015991210937,62.76586207535263L67.55661991119385,64.1934414528248L68.25307991027832,66.22906861320695L68.9495399093628,66.57052331472488L69.64599990844727,65.48719918683827L70.34245990753173,67.0308952277507L71.03891990661621,66.25954578971562L71.73537990570068,64.57522828977119L72.43183990478516,68.07606719228423L73.12829990386963,68.42669262790997L73.8247599029541,71.00334005996993L74.52121990203858,65.87245488445933L75.21767990112305,72.49406967473973L75.91413990020753,70.52089261463831L76.610599899292,67.07829768623625L77.30705989837647,72.0049125829961L78.00351989746095,73.7400218410761L78.6999798965454,70.28408718087465L79.39643989562988,70.0609025945308L80.09289989471435,69.60765934931348L80.78935989379882,72.58522008864531L81.4858198928833,70.20154526983603L82.18227989196777,69.96422534144631L82.87873989105225,69.48513537135486L83.57519989013672,72.48891412034251L84.27165988922118,71.46040753843869L84.96811988830567,71.98661354732695L85.66457988739013,73.6572730713734L86.36103988647461,73.380952328701L87.05749988555908,74.60994738865062L87.75395988464355,73.40355296376947L88.45041988372803,74.65715890067702L89.1468798828125,71.09086779521985L89.84333988189698,75.25770142692849L90.53979988098145,73.422217980152L91.23625988006592,77.18181585516336L91.9327198791504,73.87322290854254L92.62917987823486,73.29065586979331L93.32563987731935,75.12955513656138L94.02209987640381,75.61024693528242L94.71855987548828,72.6487734351345L95.41501987457276,73.64277705268245L96.11147987365722,75.28585542151743L96.8079398727417,69.26916431791247L97.50439987182617,76.1995925733317L98.20085987091063,76.25564066316238L98.89731986999512,76.83135484565523L99.59377986907958,77.40029042884802L100.29023986816406,76.48949173087743L100.98669986724853,74.8979954263562L101.683159866333,75.0771562457279L102.37961986541748,74.50412592179987L103.07607986450195,76.90160723041981L103.77253986358643,76.70977499185577L104.4689998626709,73.78146783084964L105.16545986175537,74.10141983943925L105.86191986083985,74.66590000525173L106.55837985992432,76.55338984180676L107.2548398590088,73.84320718597684L107.95129985809326,73.82081871364076L108.64775985717773,76.52169803365513L109.34421985626221,76.89777769310007L110.04067985534668,73.74887963515363L110.73713985443116,76.86145543331389L111.43359985351563,74.44409447666845L112.1300598526001,74.37440432314472L112.82651985168458,76.89615995226555L113.52297985076903,79.08342512155934L114.21943984985352,76.96897420202382L114.91589984893798,77.4485627545364L115.61235984802245,78.52110371154899L116.30881984710693,76.032652327346L117.0052798461914,76.2313745506446L117.70173984527588,77.39842339680294L118.39819984436035,75.75719614780812L119.09465984344482,77.23664400928277L119.7911198425293,79.51634848108145L120.48757984161377,76.3703411403639L121.18403984069825,79.44776157376617L121.88049983978271,78.64692681999637L122.57695983886718,78.04512192548714L123.27341983795166,77.74669382609909L123.96987983703613,77.55473959396392L124.66633983612061,78.95840292742676L125.36279983520508,78.70934509586723L126.05925983428955,74.570331302444L126.75571983337403,74.87326785989546L127.4521798324585,80.29816814996028L128.14863983154297,77.95843223303018L128.84509983062745,81.62326762361693L129.54155982971193,80.88799115415745L130.23801982879638,79.71586101055823L130.93447982788086,78.90194642433622L131.63093982696532,78.26636522282956L132.3273998260498,77.5285746249912L133.02385982513428,78.47456051212964L133.72031982421873,79.19242902939604L134.41677982330322,77.97044064368379L135.1132398223877,79.54525034930208L135.80969982147215,80.2838153411137L136.50615982055663,78.74674408152032L137.20261981964111,78.3723935483444L137.8990798187256,78.72832305228005L138.59553981781005,77.99908791662554L139.29199981689453,80.63634493726269L139.98845981597898,79.18909807449742L140.68491981506347,81.8793162172089L141.38137981414795,77.41257465105375L142.07783981323243,77.7056456414488L142.77429981231688,78.02635082773841L143.47075981140136,80.94189640039093L144.16721981048582,80.15538793512616L144.86367980957033,78.55831175074292L145.56013980865478,78.9350013780435L146.25659980773926,82.03589761778537L146.95305980682372,80.17368166672699L147.6495198059082,79.24420734423725L148.34597980499268,80.90894752804985L149.04243980407716,77.25845433817307L149.73889980316162,78.64802476213652L150.4353598022461,80.03038695726681L151.13181980133055,79.44648329330349L151.82827980041506,80.32460893048511L152.5247397994995,79.9161744543498L153.221199798584,78.61911758984758L153.91765979766845,81.8692437914884L154.61411979675293,82.04032121075582L155.3105797958374,82.51129065226482L156.0070397949219,83.49122788065492L156.70349979400635,82.71782046411559L157.3999597930908,82.78251948935971L158.09641979217528,82.66088129080885L158.79287979125976,83.32451570960654L159.48933979034425,82.12210464002612L160.1857997894287,79.87903006397559L160.88225978851318,81.45330405869458L161.57871978759763,82.29034438274775L162.27517978668214,82.30882375673943L162.9716397857666,82.83470091339248L163.66809978485108,83.52142924561147L164.36455978393553,82.30707341419716L165.06101978302001,83.60237463208881L165.7574797821045,83.96071748710546L166.45393978118898,81.93112105239166L167.15039978027343,82.54074944765799L167.8468597793579,85.03181573753776L168.54331977844237,84.81728208660735L169.23977977752688,84.3110777193157L169.93623977661133,85.48853845156637L170.6326997756958,82.34689105499956L171.32915977478027,85.27638632730711L172.02561977386475,81.19823671773995L172.72207977294923,83.95671291553148L173.4185397720337,82.41834215920218L174.11499977111816,83.92674492958056L174.81145977020262,85.73158146966247L175.5079197692871,86.67432657106357L176.20437976837158,83.27520909059774L176.90083976745606,82.79429452100769L177.59729976654052,84.77944286328454L178.293759765625,85.55390578941754L178.99021976470945,86.7806678366087L179.68667976379396,83.70705572425294L180.38313976287841,83.98262859329364L181.0795997619629,84.72081699625525L181.77605976104735,86.46716557508392L182.47251976013183,85.04980713724493L183.1689797592163,85.91542578135181L183.8654397583008,83.62837517494393L184.56189975738525,84.11102947893963L185.25835975646973,85.18185191781981L185.95481975555418,84.9170993481313L186.6512797546387,87.0616561593938L187.34773975372315,83.15021341680671L188.04419975280763,85.86350425666623L188.74065975189208,88.88303078446597L189.43711975097656,86.15069833937392L190.13357975006105,87.00696060698215L190.83003974914553,87.53998764771694L191.52649974822998,87.25580097174097L192.22295974731443,88.2742881686074L192.91941974639892,86.493627571882L193.6158797454834,85.88073717460509L194.31233974456788,86.51092944270889L195.00879974365233,89.17232527822438L195.7052597427368,86.3274405035963L196.40171974182127,87.83707381782258L197.09817974090578,88.8056072993464L197.79463973999023,88.64266101679806L198.4910997390747,89.11795327397962L199.18755973815917,88.8936548332907L199.88401973724365,89.31961925519022L200.58047973632813,89.40778347863733L201.2769397354126,89.46229869272645L201.97339973449706,88.06344614922068L202.66985973358155,87.8576642110016L203.366319732666,90.29134048176829L204.0627797317505,88.3100853256309L204.75923973083496,90.87040683543299L205.45569972991944,89.44264181556997L206.1521597290039,88.87964678888426L206.84861972808838,91.79918102090582L207.54507972717286,90.34508660595247L208.24153972625734,91.86407629667741L208.9379997253418,90.75826822322514L209.63445972442625,91.95686566769075L210.33091972351073,90.86329407982942L211.0273797225952,89.58596834944001L211.7238397216797,92.1440886708935L212.42029972076415,90.89764853027262L213.11675971984863,91.28343463472467L213.81321971893308,92.9774532756079L214.5096797180176,92.12532818128139L215.20613971710205,91.71621478440241L215.90259971618653,92.91679595041592L216.59905971527098,92.14368025763363L217.29551971435546,92.2141395010623L217.99197971343995,92.28260971887477L218.68843971252443,92.73652127669914L219.38489971160888,93.03947374635553L220.08135971069336,92.07685430099724L220.77781970977782,93.46454178071068L221.47427970886233,92.89290642674814L222.17073970794678,93.89691351712855L222.86719970703126,94.67983643221584L223.56365970611571,93.73658214025698L224.2601197052002,94.02867718208302L224.95657970428468,94.13663618846266L225.65303970336916,93.89218759226443L226.3494997024536,92.94233503932807L227.04595970153807,94.3845218209257L227.74241970062255,94.49756742881453L228.43887969970703,94.54939348027054L229.1353396987915,94.62855139572744L229.83179969787597,94.95997610407136L230.52825969696045,94.67377388213762L231.2247196960449,95.05910383671502L231.9211796951294,95.07025829237074L232.61763969421386,95.32782915356765L233.31409969329835,95.63849904261494L234.0105596923828,95.42450640665214L234.70701969146728,95.80584239779219L235.40347969055176,95.19884482040757L236.09993968963624,95.37684935288772L236.7963996887207,95.21877750911617L237.49285968780518,95.2028759123231L238.18931968688963,95.58743147292725L238.88577968597414,95.5711108547377L239.5822396850586,95.32344268907536L240.27869968414308,95.4151553342218L240.97515968322753,95.80739118573868L241.671619682312,95.59660751110337L242.3680796813965,95.67620036016169L243.06453968048098,95.72973432161348" fill="none"></path></g></g></g></g></g><g><g opacity="0.863298"><span fill="rgb(0, 0, 0)" stroke="none" stroke-width="1px">Alt + Scroll to Zoom</span></g></g></g><g transform="translate(51, 177)" clip-path="url(#clip_1)"><clipPath id="clip_1"><rect width="278" height="22"></rect></clipPath><g><g><line x1="0" y1="0" x2="0" y2="5" style="visibility: inherit;" fill="rgb(0, 0, 0)" stroke="rgb(204, 204, 204)" stroke-width="1px"></line><line x1="34.82299995422363" y1="0" x2="34.82299995422363" y2="5" style="visibility: inherit;" fill="rgb(0, 0, 0)" stroke="rgb(204, 204, 204)" stroke-width="1px"></line><line x1="69.64599990844727" y1="0" x2="69.64599990844727" y2="5" style="visibility: inherit;" fill="rgb(0, 0, 0)" stroke="rgb(204, 204, 204)" stroke-width="1px"></line><line x1="104.4689998626709" y1="0" x2="104.4689998626709" y2="5" style="visibility: inherit;" fill="rgb(0, 0, 0)" stroke="rgb(204, 204, 204)" stroke-width="1px"></line><line x1="139.29199981689453" y1="0" x2="139.29199981689453" y2="5" style="visibility: inherit;" fill="rgb(0, 0, 0)" stroke="rgb(204, 204, 204)" stroke-width="1px"></line><line x1="174.11499977111816" y1="0" x2="174.11499977111816" y2="5" style="visibility: inherit;" fill="rgb(0, 0, 0)" stroke="rgb(204, 204, 204)" stroke-width="1px"></line><line x1="208.9379997253418" y1="0" x2="208.9379997253418" y2="5" style="visibility: inherit;" fill="rgb(0, 0, 0)" stroke="rgb(204, 204, 204)" stroke-width="1px"></line><line x1="243.76099967956543" y1="0" x2="243.76099967956543" y2="5" style="visibility: inherit;" fill="rgb(0, 0, 0)" stroke="rgb(204, 204, 204)" stroke-width="1px"></line><line x1="278.58399963378906" y1="0" x2="278.58399963378906" y2="5" style="visibility: inherit;" fill="rgb(0, 0, 0)" stroke="rgb(204, 204, 204)" stroke-width="1px"></line></g><g transform="translate(0, 8)"><text style="text-anchor: middle; visibility: hidden; font-family: &quot;Helvetica Neue&quot;, sans-serif; font-size: 12px; font-weight: 200;" x="0" y="0" dx="0em" dy="0.95em" fill="rgb(50, 49, 63)" stroke="none" stroke-width="1px">-50</text><text style="text-anchor: middle; visibility: inherit; font-family: &quot;Helvetica Neue&quot;, sans-serif; font-size: 12px; font-weight: 200;" x="34.82299995422363" y="0" dx="0em" dy="0.95em" fill="rgb(50, 49, 63)" stroke="none" stroke-width="1px">0</text><text style="text-anchor: middle; visibility: inherit; font-family: &quot;Helvetica Neue&quot;, sans-serif; font-size: 12px; font-weight: 200;" x="69.64599990844727" y="0" dx="0em" dy="0.95em" fill="rgb(50, 49, 63)" stroke="none" stroke-width="1px">50</text><text style="text-anchor: middle; visibility: inherit; font-family: &quot;Helvetica Neue&quot;, sans-serif; font-size: 12px; font-weight: 200;" x="104.4689998626709" y="0" dx="0em" dy="0.95em" fill="rgb(50, 49, 63)" stroke="none" stroke-width="1px">100</text><text style="text-anchor: middle; visibility: inherit; font-family: &quot;Helvetica Neue&quot;, sans-serif; font-size: 12px; font-weight: 200;" x="139.29199981689453" y="0" dx="0em" dy="0.95em" fill="rgb(50, 49, 63)" stroke="none" stroke-width="1px">150</text><text style="text-anchor: middle; visibility: inherit; font-family: &quot;Helvetica Neue&quot;, sans-serif; font-size: 12px; font-weight: 200;" x="174.11499977111816" y="0" dx="0em" dy="0.95em" fill="rgb(50, 49, 63)" stroke="none" stroke-width="1px">200</text><text style="text-anchor: middle; visibility: inherit; font-family: &quot;Helvetica Neue&quot;, sans-serif; font-size: 12px; font-weight: 200;" x="208.9379997253418" y="0" dx="0em" dy="0.95em" fill="rgb(50, 49, 63)" stroke="none" stroke-width="1px">250</text><text style="text-anchor: middle; visibility: inherit; font-family: &quot;Helvetica Neue&quot;, sans-serif; font-size: 12px; font-weight: 200;" x="243.76099967956543" y="0" dx="0em" dy="0.95em" fill="rgb(50, 49, 63)" stroke="none" stroke-width="1px">300</text><text style="text-anchor: middle; visibility: hidden; font-family: &quot;Helvetica Neue&quot;, sans-serif; font-size: 12px; font-weight: 200;" x="278.58399963378906" y="0" dx="0em" dy="0.95em" fill="rgb(50, 49, 63)" stroke="none" stroke-width="1px">350</text></g><line x1="0" y1="0" x2="278.58399963378906" y2="0" fill="rgb(0, 0, 0)" stroke="rgb(204, 204, 204)" stroke-width="1px"></line></g></g></g></g></svg>