<svg viewBox="0 0 330 200" xmlns="http://www.w3.org/2000/svg"><g><g><g><g><g><line x1="61.77000045776367" y1="177.9749994277954" x2="56.77000045776367" y2="177.9749994277954" style="visibility: inherit;" fill="rgb(0, 0, 0)" stroke="rgb(204, 204, 204)" stroke-width="1px"></line><line x1="61.77000045776367" y1="158.1999994913737" x2="56.77000045776367" y2="158.1999994913737" style="visibility: inherit;" fill="rgb(0, 0, 0)" stroke="rgb(204, 204, 204)" stroke-width="1px"></line><line x1="61.77000045776367" y1="138.42499955495197" x2="56.77000045776367" y2="138.42499955495197" style="visibility: inherit;" fill="rgb(0, 0, 0)" stroke="rgb(204, 204, 204)" stroke-width="1px"></line><line x1="61.77000045776367" y1="118.64999961853027" x2="56.77000045776367" y2="118.64999961853027" style="visibility: inherit;" fill="rgb(0, 0, 0)" stroke="rgb(204, 204, 204)" stroke-width="1px"></line><line x1="61.77000045776367" y1="98.87499968210855" x2="56.77000045776367" y2="98.87499968210855" style="visibility: inherit;" fill="rgb(0, 0, 0)" stroke="rgb(204, 204, 204)" stroke-width="1px"></line><line x1="61.77000045776367" y1="79.09999974568684" x2="56.77000045776367" y2="79.09999974568684" style="visibility: inherit;" fill="rgb(0, 0, 0)" stroke="rgb(204, 204, 204)" stroke-width="1px"></line><line x1="61.77000045776367" y1="59.32499980926512" x2="56.77000045776367" y2="59.32499980926512" style="visibility: inherit;" fill="rgb(0, 0, 0)" stroke="rgb(204, 204, 204)" stroke-width="1px"></line><line x1="61.77000045776367" y1="39.54999987284344" x2="56.77000045776367" y2="39.54999987284344" style="visibility: inherit;" fill="rgb(0, 0, 0)" stroke="rgb(204, 204, 204)" stroke-width="1px"></line><line x1="61.77000045776367" y1="19.774999936421693" x2="56.77000045776367" y2="19.774999936421693" style="visibility: inherit;" fill="rgb(0, 0, 0)" stroke="rgb(204, 204, 204)" stroke-width="1px"></line><line x1="61.77000045776367" y1="0" x2="56.77000045776367" y2="0" style="visibility: inherit;" fill="rgb(0, 0, 0)" stroke="rgb(204, 204, 204)" stroke-width="1px"></line></g><g transform="translate(51.77000045776367, 0)"><text style="text-anchor: end; visibility: hidden; font-family: &quot;Helvetica Neue&quot;, sans-serif; font-size: 12px; font-weight: 200;" x="0" y="177.9749994277954" dx="0em" dy="0.3em" fill="rgb(50, 49, 63)" stroke="none" stroke-width="1px">-5e-3</text><text style="text-anchor: end; visibility: inherit; font-family: &quot;Helvetica Neue&quot;, sans-serif; font-size: 12px; font-weight: 200;" x="0" y="158.1999994913737" dx="0em" dy="0.3em" fill="rgb(50, 49, 63)" stroke="none" stroke-width="1px">0</text><text style="text-anchor: end; visibility: hidden; font-family: &quot;Helvetica Neue&quot;, sans-serif; font-size: 12px; font-weight: 200;" x="0" y="138.42499955495197" dx="0em" dy="0.3em" fill="rgb(50, 49, 63)" stroke="none" stroke-width="1px">5e-3</text><text style="text-anchor: end; visibility: inherit; font-family: &quot;Helvetica Neue&quot;, sans-serif; font-size: 12px; font-weight: 200;" x="0" y="118.64999961853027" dx="0em" dy="0.3em" fill="rgb(50, 49, 63)" stroke="none" stroke-width="1px">0.01</text><text style="text-anchor: end; visibility: hidden; font-family: &quot;Helvetica Neue&quot;, sans-serif; font-size: 12px; font-weight: 200;" x="0" y="98.87499968210855" dx="0em" dy="0.3em" fill="rgb(50, 49, 63)" stroke="none" stroke-width="1px">0.015</text><text style="text-anchor: end; visibility: inherit; font-family: &quot;Helvetica Neue&quot;, sans-serif; font-size: 12px; font-weight: 200;" x="0" y="79.09999974568684" dx="0em" dy="0.3em" fill="rgb(50, 49, 63)" stroke="none" stroke-width="1px">0.02</text><text style="text-anchor: end; visibility: hidden; font-family: &quot;Helvetica Neue&quot;, sans-serif; font-size: 12px; font-weight: 200;" x="0" y="59.32499980926512" dx="0em" dy="0.3em" fill="rgb(50, 49, 63)" stroke="none" stroke-width="1px">0.025</text><text style="text-anchor: end; visibility: inherit; font-family: &quot;Helvetica Neue&quot;, sans-serif; font-size: 12px; font-weight: 200;" x="0" y="39.54999987284344" dx="0em" dy="0.3em" fill="rgb(50, 49, 63)" stroke="none" stroke-width="1px">0.03</text><text style="text-anchor: end; visibility: hidden; font-family: &quot;Helvetica Neue&quot;, sans-serif; font-size: 12px; font-weight: 200;" x="0" y="19.774999936421693" dx="0em" dy="0.3em" fill="rgb(50, 49, 63)" stroke="none" stroke-width="1px">0.035</text><text style="text-anchor: end; visibility: hidden; font-family: &quot;Helvetica Neue&quot;, sans-serif; font-size: 12px; font-weight: 200;" x="0" y="0" dx="0em" dy="0.3em" fill="rgb(50, 49, 63)" stroke="none" stroke-width="1px">0.04</text></g><line x1="61.77000045776367" y1="0" x2="61.77000045776367" y2="177.9749994277954" fill="rgb(0, 0, 0)" stroke="rgb(204, 204, 204)" stroke-width="1px"></line></g></g><g transform="translate(61, 0)" clip-path="url(#clip_0)"><clipPath id="clip_0"><rect width="268" height="177"></rect></clipPath><g><g><g><line x1="0" y1="0" x2="0" y2="177.9749994277954" fill="rgb(0, 0, 0)" stroke="rgb(60, 60, 60)" stroke-width="1px" opacity="0.25"></line><line x1="19.159285681588308" y1="0" x2="19.159285681588308" y2="177.9749994277954" fill="rgb(0, 0, 0)" stroke="rgb(60, 60, 60)" stroke-width="1px" opacity="0.25"></line><line x1="38.318571363176616" y1="0" x2="38.318571363176616" y2="177.9749994277954" fill="rgb(0, 0, 0)" stroke="rgb(60, 60, 60)" stroke-width="1px" opacity="0.25"></line><line x1="57.477857044764924" y1="0" x2="57.477857044764924" y2="177.9749994277954" fill="rgb(0, 0, 0)" stroke="rgb(60, 60, 60)" stroke-width="1px" opacity="0.25"></line><line x1="76.63714272635323" y1="0" x2="76.63714272635323" y2="177.9749994277954" fill="rgb(0, 0, 0)" stroke="rgb(60, 60, 60)" stroke-width="1px" opacity="0.25"></line><line x1="95.79642840794155" y1="0" x2="95.79642840794155" y2="177.9749994277954" fill="rgb(0, 0, 0)" stroke="rgb(60, 60, 60)" stroke-width="1px" opacity="0.25"></line><line x1="114.95571408952985" y1="0" x2="114.95571408952985" y2="177.9749994277954" fill="rgb(0, 0, 0)" stroke="rgb(60, 60, 60)" stroke-width="1px" opacity="0.25"></line><line x1="134.11499977111816" y1="0" x2="134.11499977111816" y2="177.9749994277954" fill="rgb(0, 0, 0)" stroke="rgb(60, 60, 60)" stroke-width="1px" opacity="0.25"></line><line x1="153.27428545270647" y1="0" x2="153.27428545270647" y2="177.9749994277954" fill="rgb(0, 0, 0)" stroke="rgb(60, 60, 60)" stroke-width="1px" opacity="0.25"></line><line x1="172.4335711342948" y1="0" x2="172.4335711342948" y2="177.9749994277954" fill="rgb(0, 0, 0)" stroke="rgb(60, 60, 60)" stroke-width="1px" opacity="0.25"></line><line x1="191.5928568158831" y1="0" x2="191.5928568158831" y2="177.9749994277954" fill="rgb(0, 0, 0)" stroke="rgb(60, 60, 60)" stroke-width="1px" opacity="0.25"></line><line x1="210.7521424974714" y1="0" x2="210.7521424974714" y2="177.9749994277954" fill="rgb(0, 0, 0)" stroke="rgb(60, 60, 60)" stroke-width="1px" opacity="0.25"></line><line x1="229.9114281790597" y1="0" x2="229.9114281790597" y2="177.9749994277954" fill="rgb(0, 0, 0)" stroke="rgb(60, 60, 60)" stroke-width="1px" opacity="0.25"></line><line x1="249.07071386064803" y1="0" x2="249.07071386064803" y2="177.9749994277954" fill="rgb(0, 0, 0)" stroke="rgb(60, 60, 60)" stroke-width="1px" opacity="0.25"></line><line x1="268.2299995422363" y1="0" x2="268.2299995422363" y2="177.9749994277954" fill="rgb(0, 0, 0)" stroke="rgb(60, 60, 60)" stroke-width="1px" opacity="0.25"></line></g><g><line x1="0" y1="177.9749994277954" x2="268.2299995422363" y2="177.9749994277954" fill="rgb(0, 0, 0)" stroke="rgb(60, 60, 60)" stroke-width="1px" opacity="0.25"></line><line x1="0" y1="158.1999994913737" x2="268.2299995422363" y2="158.1999994913737" fill="rgb(0, 0, 0)" stroke="rgb(60, 60, 60)" stroke-width="1px" opacity="0.25"></line><line x1="0" y1="138.42499955495197" x2="268.2299995422363" y2="138.42499955495197" fill="rgb(0, 0, 0)" stroke="rgb(60, 60, 60)" stroke-width="1px" opacity="0.25"></line><line x1="0" y1="118.64999961853027" x2="268.2299995422363" y2="118.64999961853027" fill="rgb(0, 0, 0)" stroke="rgb(60, 60, 60)" stroke-width="1px" opacity="0.25"></line><line x1="0" y1="98.87499968210855" x2="268.2299995422363" y2="98.87499968210855" fill="rgb(0, 0, 0)" stroke="rgb(60, 60, 60)" stroke-width="1px" opacity="0.25"></line><line x1="0" y1="79.09999974568684" x2="268.2299995422363" y2="79.09999974568684" fill="rgb(0, 0, 0)" stroke="rgb(60, 60, 60)" stroke-width="1px" opacity="0.25"></line><line x1="0" y1="59.32499980926512" x2="268.2299995422363" y2="59.32499980926512" fill="rgb(0, 0, 0)" stroke="rgb(60, 60, 60)" stroke-width="1px" opacity="0.25"></line><line x1="0" y1="39.54999987284344" x2="268.2299995422363" y2="39.54999987284344" fill="rgb(0, 0, 0)" stroke="rgb(60, 60, 60)" stroke-width="1px" opacity="0.25"></line><line x1="0" y1="19.774999936421693" x2="268.2299995422363" y2="19.774999936421693" fill="rgb(0, 0, 0)" stroke="rgb(60, 60, 60)" stroke-width="1px" opacity="0.25"></line><line x1="0" y1="0" x2="268.2299995422363" y2="0" fill="rgb(0, 0, 0)" stroke="rgb(60, 60, 60)" stroke-width="1px" opacity="0.25"></line></g></g></g><g><g><line x1="0" y1="158.1999994913737" x2="268.2299995422363" y2="158.1999994913737" fill="rgb(0, 0, 0)" stroke="rgb(153, 153, 153)" stroke-width="1.5px"></line></g></g><g><g><line x1="19.159285681588308" y1="0" x2="19.159285681588308" y2="177.9749994277954" fill="rgb(0, 0, 0)" stroke="rgb(153, 153, 153)" stroke-width="1.5px"></line></g></g><g><g><g><g><g><path style="fill: none;" stroke="rgb(187, 187, 187)" stroke-width="2px" d="M19.239754681450982,146.3346237215474L19.479245752470835,146.32906549996432L19.598033323696683,146.32384154518618L19.607612966537474,146.32334889300807L19.682334180695673,146.31914155132267L20.067435822895593,146.28719927327865L20.18622339412144,146.27387924756636L20.26860832255227,146.26368180790251L20.282019822529385,146.26194785640467L20.37398439380101,146.24949342517354L20.398891465187074,146.24595185456246L20.527258679253716,146.22656069649477L20.707355964660646,146.19614149639943L21.102037249701365,146.11636683566627L21.713218462944027,145.9573543669473L21.720882177216666,145.95508724608288L21.81284674848829,145.92735415141465L21.8262582484654,145.92322876495138L21.910559105464394,145.8968216873606L22.399120890344893,145.7277066260326L22.481505818775723,145.6964908948456L22.4872536044802,145.69428362891873L22.755483604022437,145.58709172341838L22.83212074674879,145.5549542261935L23.06011624635969,145.45537863128192L23.37241260296958,145.3093684966837L23.57933288833073,145.20651561373137L23.736439030919755,145.125177357861L23.920368173463004,145.02639921488628L23.922284102031163,145.02535037221182L23.945275244849068,145.01272926800078L24.303553887094772,144.80833294396007L24.979876671654836,144.38314372637757L25.347734956741334,144.130400267185L25.378389813831877,144.1086581913404L25.491429599353243,144.02758329719515L26.091115241186962,143.57382393666424L26.094947098323274,143.57079711851586L26.190743526731218,143.4945990205111L26.326774455070495,143.38466852140772L26.466637240546092,143.2695278802041L26.480048740523202,143.2583746032302L26.738699097224643,143.03943629190653L27.43034931032998,142.41832252605604L27.589371381487165,142.26822844302825L27.765636809757776,142.0986953179828L27.79820759541648,142.06700350983115L28.118167666299,141.74968946488195L28.332751665932793,141.53079719581788L28.68336659390586,141.1626985384918L28.995662950515747,140.82398957633563L29.39992387839726,140.37048989414905L29.426746878351484,140.33980180725746L30.1241448771613,139.51608736549198L30.2869988054548,139.3166212466129L30.394290805271694,139.18374696868844L30.47667573370252,139.08093460292457L30.635697804859706,138.8805605306855L31.03804280417306,138.36235121511817L31.074445446968078,138.3146753761118L31.208560446739195,138.13790256616142L31.754600088664464,137.4000329966393L31.994091159684316,137.06729663640294L32.017082302502224,137.0350652129684L32.29106008774894,136.64707814117057L32.50564408738273,136.33822113847103L32.86775458676475,135.80720654965415L33.302670371736795,135.1533088532535L33.452112800053186,134.9246040578161L33.457860585757665,134.91576762734707L33.54982515702929,134.77396667612467L34.09969665609087,133.9101770515733L34.16675415597643,133.80298514607298L34.46947086974552,133.31414158370055L34.61316551235744,133.07927817561446L34.83158136912755,132.71884279198196L34.910134440422055,132.58820248449496L35.18219629710061,132.13164927964942L35.20901929705484,132.08629397052863L35.440846653802055,131.6917596894108L35.46000593948364,131.65894997519524L35.638187296322414,131.35235088490816L36.16889950970241,130.42354222299133L36.27810743808747,130.22955329131838L36.38923129504067,130.0311700863859L36.900784222739084,129.1051792107587L37.29929736491612,128.3695417699837L37.46406722177778,128.06179898996731L37.48897429316384,128.01509924686522L37.73996093559265,127.54188426910312L38.01777057797568,127.01258245234465L38.140390006337846,126.77713707009679L38.847367647988456,125.39834451293905L38.86077914796557,125.37184258829342L39.08302686187199,124.93084614213318L39.236301147324696,124.62470931613285L39.31868607575553,124.45949127166033L39.48154000404903,124.13153041459324L39.81299564634051,123.45851413030195L40.04673893165588,122.979512561349L40.05248671736036,122.96768890907484L40.16935836001805,122.72680317342856L40.184685788563314,122.69514819908463L40.27281850269863,122.5128245343127L40.42992464528765,122.18658381606555L41.037274001394,120.91078963540062L41.13881821550642,120.69527502650335L41.253773929595944,120.45054384133239L41.31891550091335,120.31151463413998L41.54691100052425,119.82292522504073L41.688689714568,119.51756559238305L42.091034713881356,118.64472958465869L42.10061435672215,118.62383744892693L42.464640784672326,117.82614609230689L42.70604778426034,117.29318667844305L43.43601656872886,115.66315440229242L43.83069785376958,114.77075227591378L43.94948542499542,114.50070889808615L44.13149863897051,114.08565081931363L44.1832287103108,113.96740692981064L44.83656035205296,112.46375881466638L45.11245406586784,111.82327414934245L45.21016642284393,111.59568173489785L45.25423277991158,111.4929154113936L45.61825920786176,110.6410231067318L46.135559921264644,109.4217393538519L46.405705849375046,108.7811515538664L46.54556863485064,108.44850911983967L46.629869491849625,108.24769120021773L46.838705705778935,107.74920454698744L47.204648062297274,106.8723499708422L47.26212591934204,106.7342526589848L47.29852856213706,106.6467355318715L47.47479399040767,106.22242848398358L47.53227184745244,106.08387074952984L47.654891275814606,105.78797372207222L47.691293918609624,105.70004405631259L48.8044484167099,102.99482556641505L48.8695899880273,102.83560774921808L49.316001344408306,101.74212249980202L49.36198363004412,101.62926371298587L50.03639048603603,99.96970545657683L50.29120898560116,99.3407608232077L50.429155842508585,98.99989708330062L51.364128983770094,96.6837209537917L51.45609355504172,96.45544343052374L51.856522625786916,95.4607980207103L51.91591641139984,95.31318285294125L52.28952248219081,94.38427105636282L52.33742069639479,94.26514315547483L52.379571124894284,94.16029940521588L52.77042055279868,93.18799001639634L52.7972435527529,93.12125452359166L52.85280548122951,92.98301724326497L54.5100836926869,88.86374519209119L55.784176190512525,85.71215620348885L55.88572040462494,85.46192941420792L56.579286546298434,83.75758493100717L56.78812276022775,83.24619907831767L56.81494576018197,83.18058333326732L56.96247225993021,82.81995825552512L57.18280404526847,82.28226569737085L57.468277401924134,81.5872854135435L57.57940125887735,81.31729360304666L57.596644615990776,81.27542093044464L57.74225518717084,80.92217734776703L57.945343615395686,80.43041654782417L57.960671043940955,80.39334700374722L58.09670197228023,80.06464210376443L58.32086561475481,79.52410597565513L58.510542543002536,79.06787506662702L58.512458471570696,79.06327084066358L58.58526375716073,78.88844285576013L58.97036539936065,77.96642634798457L58.97611318506514,77.95270207123271L59.069993684904915,77.7286641192319L59.115975970540724,77.61903934073248L59.54705989837647,76.59480164980674L59.66967932673863,76.30464701297075L59.794214683668955,76.01051432490233L59.838281040736604,75.90657668631297L60.004966826166424,75.5140608978575L60.142913683073864,75.19001915793051L60.39581625407082,74.59784939817666L61.01849303872245,73.15089219647521L61.779116680281504,71.40609682564994L61.86916532298497,71.2012861212725L61.941970608575005,71.03596862551917L61.99561660848345,70.914321292184L62.21403246525356,70.42046096520178L62.91909417833601,68.84243434215354L63.49004089164734,67.58355792936874L63.50920017732893,67.54161895591282L63.593501034327915,67.35733941595163L63.64331517710005,67.24862811588335L63.773598319734845,66.96496359596544L63.91729296234676,66.65320961428971L64.04374424784524,66.37983646024531L64.2602441760472,65.91394036007473L64.50931488990784,65.38136033443027L64.53039010415758,65.33646728959623L64.56870867552075,65.25490987257002L65.02278374617441,64.29522711303264L65.29292967428479,63.73032910450553L65.4232128169196,63.45954905052375L65.68186317362104,62.92519363534778L65.68569503075736,62.91731120049835L65.7585003163474,62.76769964035155L65.80256667341504,62.67731684299858L66.33136295822689,61.602771537505774L66.51912395790646,61.22577014885677L66.53445138645172,61.195102320559386L66.86782295731136,60.532093781822255L66.9310486000606,60.40722717369344L67.07282731410436,60.12825528087747L67.54222981330327,59.214916818197835L67.69358817018782,58.92382660264606L67.80662795570919,58.707538483786934L68.61323388290405,57.19209986679547L68.6802913827896,57.06835300642096L68.82207009683337,56.807886418597306L69.0998797392164,56.302084571156286L69.27039738178253,55.99466961202852L69.55395480987004,55.488624661456626L69.87391488075257,54.925472575414844L70.5004235225405,53.84736912409748L70.50233945110867,53.84412038225767L70.56173323672158,53.7436377548313L71.1614188785553,52.74605300716277L71.1844100213732,52.70842358920868L71.19207373564583,52.695892727826546L71.193989664214,52.69276185417141L71.41432144955228,52.33470777620718L71.85690094879696,51.62846371398284L72.04466194847652,51.334132123352816L72.07723273413522,51.28339723661634L72.11171944836208,51.229789312878665L72.46999809060777,50.67920492202674L72.64434759031023,50.415526426170985L72.70948916162763,50.31772529994571L72.74397587585449,50.266106401824246L73.64446230288914,48.95774008500348L73.6693693742752,48.92264483301966L73.84563480254582,48.6759467225171L73.90119673102242,48.59880199565427L74.66373630114964,47.57032105008062L74.71355044392178,47.5051178436766L74.84000172942025,47.34069172606979L75.10631580039433,46.99958119965106L75.22510337162018,46.84971180285032L75.62361651379722,46.35725852732253L75.65427137088776,46.32004164801475L75.79605008493151,46.14915488053603L75.89184651333946,46.034837474934676L76.30951894119808,45.54739359725514L76.64672236919404,45.16694456420467L76.69653651196616,45.11173805321249L76.81340815462384,44.98323226488216L76.97051429721287,44.81272856900358L77.10271336841583,44.67124991359864L77.26365136814117,44.5014976273973L77.51655393913815,44.24024279608872L77.5376291533879,44.21877605295671L77.80969101006644,43.94588910517405L77.98978829547337,43.76957303443922L78.0166112954276,43.7436125667669L79.33093829318454,42.5663156712929L79.40182765020643,42.50814772216103L79.88655757795061,42.125201356948025L80.1011415775844,41.96394294680405L80.23908843449185,41.8629667463544L80.34638043430874,41.785888320345435L80.36362379142216,41.77361529561725L80.47666357694354,41.69401007039954L80.80237143353054,41.47259468550752L80.86559707627978,41.430979849559435L81.30242878981998,41.15574290484503L81.50743314661298,41.03395560304057L81.72776493195126,40.90835231875761L81.92893743160792,40.798462336842675L82.18184000260489,40.66681830809566L82.19716743115016,40.65906847495398L82.45007000214713,40.535122712017824L82.67614957318986,40.43048523108203L82.72787964453016,40.40736096660319L82.73171150166648,40.405659244687115L82.90414507280077,40.330857147994465L83.03826007257189,40.27502446227126L83.1034016438893,40.2486514559526L83.15704764379774,40.227295214243725L83.77972442844936,40.00354456594303L83.7969677855628,39.997982660979176L83.81995892838069,39.99061589943767L83.85636157117571,39.97908691762518L83.8889323568344,39.9688913196517L83.99239249951499,39.93732474644628L84.0153836423329,39.9304810249742L84.06328185653688,39.9164105104299L84.13417121355874,39.896070881813756L84.33342778464726,39.84200621886049L84.36983042744227,39.832628331418135L84.57100292709896,39.783528865743875L84.99442314066206,39.695459231514974L85.0346576405934,39.6881735043504L85.14003371184212,39.669962869819756L85.30671949727196,39.64378876606273L85.4484982113157,39.62405321189297L85.80102906785692,39.58506830981523L86.85478978034428,39.55090126978564L86.8950242802756,39.55118120672424L86.91035170882088,39.55129907490888L86.93909063734327,39.55153481127823L87.1421790655681,39.553752206502224L87.3146126367024,39.55639687389561L87.69396649319785,39.56469184739137L87.70737799317496,39.565045451945366L87.84340892151424,39.56889826823158L88.04266549260277,39.57531471753427L88.07523627826146,39.57645656557318L88.2036034923281,39.581193393244405L88.60403256307329,39.59846108229772L88.6595944915499,39.601157317021915L89.33783320467812,39.63992858301495L89.3953110617229,39.6437150984473L89.60223134708404,39.65798451555324L89.70185963262831,39.665218675387024L89.76125341824122,39.66963873231191L89.87046134662629,39.67798527313846L90.43566027423314,39.72569242088139L90.92039020197733,39.7726039583778L90.98553177329472,39.77932981166521L91.5124121295384,39.837394626135506L91.72699612917219,39.8629204548769L92.33242955671038,39.940765024086176L92.80566391304562,40.007603651552415L92.83631877013615,40.01211210961583L92.8573939843859,40.01522824974788L93.30572126933507,40.08393803464568L93.34403984069823,40.09003034644053L93.57395126887731,40.12729879307909L93.8440971969877,40.172663310651785L93.8900794826235,40.18056047902431L94.44761469595772,40.280188562111874L95.22548169463022,40.43131767513623L95.27912769453866,40.442257316025405L95.37684005151476,40.4623612082722L95.56268512262616,40.50120614188066L95.6220789082391,40.51379593735513L95.63165855107988,40.51582916354059L95.83474697930471,40.559528793004915L96.36354326411656,40.67779478279252L96.75439269202096,40.76937836227674L97.03603419154031,40.83756510710509L97.06668904863085,40.84509393740052L97.07435276290349,40.8469871951167L97.13757840565273,40.86259736282318L97.1758969770159,40.87210785197328L97.31575976249151,40.90709996929553L97.78899411882672,41.02885780405384L98.17984354673114,41.1333111159511L98.23157361807142,41.147396364018505L98.36568861784254,41.184208071441475L98.74504247433799,41.29056937457801L98.77569733142853,41.29930635376624L99.65319261564527,41.55858689298171L99.88501997239248,41.63002237964986L100.09577211488997,41.696035929823466L100.49045339993069,41.82236852349905L100.52494011415754,41.83357336780372L100.9272851134709,41.96632241078197L101.50781146962302,42.16432622749505L102.0768422543662,42.36579242213264L102.53666511072431,42.53392402079484L102.60372261060986,42.55884577508982L102.70718275329044,42.59748443937508L102.76849246747153,42.62049083566927L102.90643932437897,42.672573839767836L102.95816939571925,42.69221362603756L102.96583310999189,42.695130863608L103.08653660978591,42.741209957050216L103.44673118059977,42.88066275303126L103.60000546605247,42.94087866187169L103.6076691803251,42.943906400865245L103.84332839420863,43.037552673581104L103.85673989418574,43.04291567598332L103.94104075118474,43.07674384498199L104.04258496529715,43.117695672391335L104.58096089294979,43.33864695130626L104.99671739224026,43.51366647200976L105.02354039219448,43.52509231916068L105.30709782028198,43.64681332011128L105.57532781982422,43.763583857305946L105.97000910486494,43.93827924050166L105.98725246197837,43.94598487307408L106.08879667609078,43.991518826162235L106.34744703279222,44.10852509972628L106.63675224658421,44.241126807473705L107.35522545964378,44.5782961164677L107.46443338802882,44.63052645579708L107.61579174491338,44.70333952687352L107.6847651733671,44.736688856371984L107.90126510156904,44.84201881289269L107.93191995865958,44.85701753939122L108.08327831554412,44.93135553010677L108.24804817240579,45.01283927951755L109.66966716997965,45.73999021099672L109.78462288406917,45.80067022581426L109.82294145543234,45.820958287099614L110.14481745488303,45.99259646425557L110.32874659742627,46.091657306704434L110.4302908115387,46.14665018161193L110.48968459715161,46.17891659716378L110.55865802560534,46.21647971426401L110.63337923976353,46.25729157320404L110.89777738216945,46.40262304489522L111.02231273909977,46.47158329968545L111.06637909616744,46.49606304828794L111.26946752439227,46.609400674604274L111.47064002404893,46.7225246648359L111.55877273818425,46.772338706379685L112.1239716657911,47.095673237198696L112.74090066473825,47.456114145902376L113.00529880714417,47.61298196616758L113.56091809191022,47.94727087139884L113.6643782345908,48.01021248200962L113.71227644879478,48.03942169152177L113.95368344838278,48.187360996798645L114.10887366240364,48.283084696269185L114.22574530506134,48.355492595460845L114.9672096609388,48.821256093923665L115.06300608934674,48.88223814596441L115.24118744618552,48.99614301291945L115.27184230327607,49.01580489947378L115.32932016032082,49.05271974155835L115.46918294579643,49.142815235211174L116.16083315890177,49.59404411315259L116.52485958685193,49.83530555363748L116.83140815775735,50.040484596092L117.12837708582197,50.240993111729196L117.30655844266073,50.36212477175647L117.41193451390947,50.43404646468636L117.526890227999,50.512752944995995L118.3085890838078,51.054674024275116L118.40055365507943,51.11919948861731L118.4158810836247,51.129969693991015L118.69943851171222,51.33001410365111L118.78948715441568,51.393861825931495L118.91593843991416,51.48377315054579L119.24164629650116,51.71676171781955L119.3470223677499,51.79256569408183L119.46389401040757,51.876885646686105L119.76469479560852,52.09507439002296L119.79918150983538,52.120202413641096L120.09423450933184,52.33604852680773L120.3241459375109,52.50536617407812L120.52340250859942,52.65289294070867L120.58662815134865,52.699856045535896L120.70924757971082,52.79114495455845L120.87976522227696,52.918560462180636L120.90850415079935,52.94008613940497L121.60015436390468,53.462698936683736L122.05614536312648,53.81197920165201L122.06955686310359,53.82230740133322L122.07722057737622,53.82821554408952L122.08488429164886,53.83411632008428L122.35503021975926,54.0429492762634L122.43933107675825,54.108380852275204L122.75737521907261,54.356390246332154L122.786114147595,54.37888833607995L122.82634864752633,54.41041070871614L122.85508757604872,54.4329382655101L123.08116714709146,54.610712955030166L123.85903414576394,55.229233620818036L123.94333500276294,55.29690469233846L124.16558271666935,55.47588753075132L124.41465343053001,55.67748632709667L124.50087021609716,55.74751476231039L124.90513114397866,56.07759724670143L125.10821957220351,56.24446912914003L125.11396735790798,56.24920595681124L125.16378150068012,56.29024618535907L125.22317528629303,56.339235149610204L125.56612649999347,56.6232901078898L125.57570614283425,56.63124621035465L125.59103357137953,56.64399070782149L125.90141399942125,56.902902908959874L126.00295821353367,56.98795953771831L126.38614392716543,57.31046899124466L126.62563499818529,57.513268569721276L127.03372778320313,57.8610165482889L127.09695342595238,57.91514014533449L127.42266128253937,58.194973949250794L127.4494842824936,58.21809821372965L127.6161700679234,58.362044734251015L127.95912128162384,58.65961769995931L128.0223469243731,58.71468424248221L128.3652981380735,59.0144893369376L128.94007670852116,59.52113836195588L128.9515722799301,59.53132659316782L129.29452349363055,59.83615581899453L129.82331977844237,60.309750184976L130.84834156240737,61.23995116482419L131.1261512047904,61.494789546830134L131.3483989186968,61.69948974978445L131.51125284699032,61.84994848750851L131.6606952753067,61.988362570112216L131.712425346647,62.036349654793696L131.7449961323057,62.06658284416011L132.2565490600041,62.54348488607373L132.70487634495328,62.96455424226414L132.79492498765674,63.04947826931483L133.02675234440395,63.26863942517515L133.425265486581,63.64715836670172L133.48274334362574,63.70193023876294L133.6111105576924,63.82443948319849L134.27976962797982,64.46626121574221L134.4579509848186,64.63832666506757L134.46944655622755,64.64944310823371L134.51159698472705,64.69021813336605L134.68403055586134,64.85727418484319L135.02506584099362,65.18885212182717L136.26467162459238,66.40711557823357L136.42369369574953,66.56485267636067L136.55972462408883,66.70004748417071L136.74556969520026,66.88512263437842L136.87010505213058,67.00939253482238L137.05403419467382,67.19328900318344L137.333759765625,67.47377844887694L138.21317097840992,68.36192258708458L138.36644526386263,68.51768539311855L138.93547604860578,69.09843667248305L138.9948698342187,69.15927875605448L139.01019726276397,69.17498469166101L139.62137847600664,69.80356098695306L139.90876776123045,70.10062564611499L140.28428976058962,70.49021683023847L140.5486879029955,70.76548324199905L140.68280290276664,70.90540751071876L140.68471883133478,70.90740390309651L140.84565683106013,71.07557970232794L141.14837354482924,71.39268931964438L141.35912568732672,71.61405313720563L141.52006368705204,71.7834223518068L141.7557229009356,72.03192531888702L141.96647504343306,72.25466672085652L142.2097979715892,72.51242234043289L142.75775354208267,73.09513317836742L142.77691282776422,73.11556120812206L143.0949569700786,73.45525731632479L143.4819745408467,73.87000599111259L143.69464261191231,74.09854503441528L143.7981027545929,74.20988626835386L144.16404511111125,74.60455315117946L144.2540937538147,74.70186807114298L144.41311582497187,74.87391142018373L144.5568104675838,75.02958582507921L144.6162042531967,75.09398605447521L144.70433696733204,75.18960661928418L144.84611568137578,75.34359403578665L144.92658468123844,75.43107432909224L145.05303596673693,75.56866333440328L145.43238982323237,75.98231436172138L145.70445167991093,76.27979155952964L146.18151789338248,76.80300843125482L146.85017696366992,77.53971405245335L147.11840696321215,77.83631460563818L147.42687146268574,78.17814707468797L147.48051746259418,78.23767787470503L147.5667342481613,78.33340157417557L148.36950831821986,79.22754962303956L148.43464988953727,79.3003332270698L148.50937110369546,79.3838575694276L149.9463175298146,80.99829072801406L149.98080424404145,81.03721669599946L150.16664931515285,81.24716203317135L150.26436167212896,81.35764135600958L150.4233837432861,81.53758924018437L150.57282617160254,81.70684795336243L151.22232595620838,82.44423868338433L151.33536574172976,82.57286233989933L151.68598066970281,82.97233235124999L151.71280366965703,83.00292651193195L152.2301043830599,83.59379972165448L152.27033888299124,83.63982724776591L152.6267015966688,84.04790900335861L152.73590952505384,84.1731218492799L152.88726788193839,84.3467711523367L153.11143152441298,84.60418790088215L154.15178073692323,85.80252426731872L154.15944445119587,85.81137911469163L154.21883823680878,85.87996366464321L154.3855240222386,86.07256027838481L154.53113459341867,86.24091287989326L155.0273600925718,86.8154466125167L155.18255030659267,86.99537239640686L155.79181559126718,87.70282460752401L156.01023144803727,87.95684527899883L156.25163844762528,88.23784303123871L156.30145259039745,88.29585627837821L156.52370030430384,88.5548200468474L156.81875330380032,88.89892147845197L156.92604530361723,89.02414169113477L157.0237576605933,89.13821599360527L157.0659080890928,89.18743332746419L157.12913373184205,89.26127774515642L157.17703194604601,89.3172282990643L157.48358051695143,89.67552548015938L157.6330229452678,89.85031663125511L157.6751733737673,89.89962973301407L157.6790052309036,89.90411609079287L157.87442994485582,90.13283930313409L157.88017773056032,90.13957252318303L158.17523073005677,90.485162040619L158.491358943803,90.85575434672688L158.77874822902677,91.19293838924398L159.0393145142964,91.49886526254036L159.3650223708834,91.8815464243379L159.63133644185748,92.19467062366037L160.5337387974603,93.25701657204041L160.54331844030108,93.26830981748355L160.63336708300454,93.37442065072767L160.7483227970941,93.50991749576092L160.79238915416175,93.56186053139021L160.95907493959155,93.75839099579497L161.2962783675875,94.15613718494491L161.3096898675646,94.17196098873612L162.5952779367992,95.69016950806719L162.6642513652529,95.77169009128568L163.12215829304284,96.31304392992608L163.18155207865578,96.38327863446298L163.75249879196713,97.05857861483214L163.78698550619396,97.09937942362987L163.94025979164667,97.28071594235524L164.05904736287252,97.42125901904443L164.18933050550734,97.57541587106236L164.631910004752,98.09914473271468L164.63574186188833,98.10367897444348L164.87714886147634,98.38938040392762L164.95953378990717,98.48688317631046L165.1875292895181,98.75671660143416L165.59562207453592,99.23970358838108L165.693334431512,99.35534332767914L165.9692281453269,99.68184924934178L166.05927678803033,99.78840945503993L166.12058650221144,99.86096100608162L166.28344043050492,100.05366812124633L166.50568814441138,100.31663204123257L166.5190996443885,100.33250004559301L166.5401748586382,100.35743653341108L167.06513928631375,100.97843979783843L167.30654628590176,101.26393127461864L167.56711257117135,101.57202029242747L167.70122757094248,101.73056773432414L167.91772749914443,101.98646324661128L168.22236014148166,102.34642899919552L168.41203706972942,102.57048905148098L168.86036435467858,103.0998719026164L169.00022714015415,103.2649536620004L169.1094350685392,103.39383147178859L170.0865586383002,104.545878792079L170.21684178093503,104.69933211836971L170.36436828068324,104.87304403889961L170.39119128063746,104.90462534562812L170.46591249479567,104.99258447843391L170.52722220897675,105.0647455911139L171.109664493697,105.74979916376405L171.31850070762636,105.99520440761606L171.66145192132677,106.39793421094883L171.7055182783944,106.44965624373188L172.0733765634809,106.88119008469202L172.1212747776849,106.93734690792306L172.37226142011372,107.23149064613379L172.38567292009083,107.24720394850186L172.42973927715846,107.29882284662331L172.4929649199077,107.37287353363871L172.50062863418034,107.38184993257705L172.62516399111067,107.52766761052997L172.749699348041,107.67343003777133L173.10606206171855,108.09022667226766L173.18078327587673,108.1775633137232L173.21143813296726,108.21338787509963L173.48733184678215,108.53563949197203L173.53714598955426,108.59379270758083L173.60803534657614,108.67653248983446L174.01612813159397,109.15245475246304L174.0946812028885,109.24398676461648L174.24603955977304,109.42028073506668L174.34183598818097,109.53180982142457L174.378238630976,109.57417975043066L174.5736633449282,109.80154379526746L175.07946848692214,110.38923088062329L175.2959684151241,110.64042271566616L175.36302591500964,110.71818256711771L176.17346369934083,111.65621073110378L176.41870255606514,111.93941114504457L177.67555169677735,113.38570902158806L177.74069326809473,113.46042640052296L177.85756491075242,113.59441674282097L177.8920516249793,113.63393941849124L178.0357462675912,113.79854602175583L178.32505148138318,114.12957145162419L178.42467976692745,114.24344685153307L178.69290976646968,114.54973837952576L179.15848040853228,115.08029254574629L179.6412944077083,115.62900946254746L179.9497589071819,115.97876488363515L180.0417234784535,116.0829161583092L180.41341362067632,116.50325620510701L180.4747233348574,116.57249639683579L180.49005076340268,116.5898046030776L180.85216126278468,116.99817366237042L180.88090019130706,117.03054321258388L181.00735147680555,117.17290219599305L181.24875847639356,117.44434525851358L181.41161240468705,117.62722143040114L181.51507254736765,117.74329580863015L181.66451497568403,117.91081964946517L182.0515325464521,118.34386367654133L182.11284226063322,118.41235614197365L182.18373161765507,118.49151936149886L182.33700590310778,118.6625424140661L182.62631111689976,118.98483823150777L182.98650568771362,119.38516647057801L183.04589947332656,119.45107688609002L183.10912511607577,119.52120845596532L183.30646575859615,119.73988708894468L183.3275409728459,119.76322130612746L183.4482444726399,119.89679542639837L183.90040361472538,120.3960703231136L183.95596554320198,120.45730284504674L184.79514225605558,121.37882209641825L185.15916868400575,121.77661248613745L185.17258018398286,121.79124655793967L185.42356682641164,122.06477441397645L185.44847389779773,122.09188777983003L185.53660661193302,122.18777723143528L185.58642075470516,122.2419450290501L185.68988089738573,122.3543691769353L185.86039853995186,122.539444327143L186.59803103869302,123.33685206344367L186.70723896707807,123.4544624114541L186.91032739530291,123.67286479087565L187.03486275223324,123.8065862463774L187.1210795378004,123.89907593753122L187.4333758944103,124.23346061066252L187.93918103640422,124.77293592510986L187.99857482201713,124.83610958870918L188.0234818934032,124.86259309645096L188.47755696405684,125.34423933279732L188.6059241781235,125.4800087480076L189.0523355345045,125.95078901108022L189.2286009627751,126.13608516413416L189.3224814626149,126.23463770003667L189.52748581940787,126.44950771729906L189.9815608900615,126.92377982534235L190.17890153258188,127.12917987064311L190.3417554608754,127.29835386606344L190.37241031796592,127.33016538409012L191.10429503100258,128.08645001577563L191.1368658166613,128.119961414028L191.34953388772692,128.3384742948727L191.38593653052195,128.37582377588825L191.54112674454282,128.5348758409505L191.65991431576865,128.65642556469527L192.04693188653675,129.05127845824975L192.20403802912577,129.21105062425272L192.45502467155458,129.46567352848353L193.3555110985892,130.37283127822985L193.65056409808568,130.66786271120634L193.68888266944884,130.70609804529724L194.08356395448956,131.0988293115278L194.4169355253492,131.42899098860542L194.704324810573,131.7124547642713L194.74264338193623,131.75016705829276L194.74839116764068,131.75582288946626L194.86717873886653,131.87260263511288L194.9112450959342,131.91587683409819L194.91699288163866,131.921519773439L195.44195730931418,132.43502725345246L195.6048112376077,132.5935783787299L195.65462538037983,132.64200562741348L195.89603237996783,132.87621523541276L196.01673587976182,132.99302260641514L196.82142587838854,133.76663570293672L196.9344656639099,133.874591909947L196.93829752104622,133.87824766536195L196.99769130665916,133.9348962199259L197.13372223499843,134.0644517717759L197.5820495199476,134.48958942202762L197.767894591059,134.66498648926014L198.2430448759624,135.111170977236L199.0668941602707,135.8770305572351L199.37344273117608,136.1594519361429L199.98462394441876,136.7183423506329L200.06892480141775,136.79498982109166L200.28350880105154,136.98960492749563L200.3563140866416,137.05547666750957L200.75865908595492,137.4180392035372L200.96366344274793,137.60181780371357L201.22997751372202,137.83958555753742L201.2817075850623,137.88564255069502L201.52503051321847,138.1017225585406L201.78751272705622,138.33377738878897L201.89480472687313,138.42831872303213L201.95611444105418,138.48226183441994L202.09214536939348,138.60173413140998L202.16303472641536,138.6638764483935L202.82019822529384,139.23615042691407L202.99071586785996,139.38350591633878L203.03478222492762,139.4215110391315L203.14973793901717,139.5205055807265L203.66512272385188,139.96168619592527L203.8183970093046,140.09205393323523L203.97933500902994,140.22852319079198L204.0559721517563,140.2933580591189L204.11345000880107,140.34191975120063L204.2379853657314,140.44695135387892L204.29929507991244,140.4985647269292L205.03884350722177,141.11620322302247L205.30324164962767,141.3347860881018L205.43735664939882,141.44520831853808L205.57147164916992,141.55532482837037L205.801383077349,141.74338167531204L205.88568393434798,141.81210987711367L206.1462502196176,142.02376982803435L206.25545814800262,142.11213229103453L206.42597579056877,142.24968998760903L206.52943593324932,142.33290676767245L206.68271021870206,142.45585065103893L206.89346236119954,142.6242290362128L206.9126216468811,142.63949664950758L207.18659943212782,142.8571365691096L207.32646221760342,142.9677319184421L207.69432050268992,143.25696478924021L207.82843550246102,143.3618186687963L207.92231600230082,143.4350258616152L207.95680271652765,143.46187954912443L208.07942214488983,143.5571851848775L208.36489550154548,143.77803056659528L208.81705464363097,144.1248319163048L208.9415900005613,144.21970199228173L209.35351464271545,144.53149833283635L209.80567378480094,144.87018703639828L209.84590828473227,144.90014305136168L210.0087622130258,145.02108870066004L210.0125940701621,145.0239295080795L210.52989478356497,145.40482699273878L211.29626621082852,145.95997048813973L211.3709874249867,146.01350750679757L211.68903156730107,146.24020946394083L211.83655806704928,146.34471710570446L211.88062442411695,146.3758536442049L212.19100485215867,146.59411973853796L212.39600920895168,146.737276173884L212.45731892313276,146.77993340659017L212.50904899447306,146.81587031108012L212.52629235158648,146.82783761520432L212.66232327992577,146.9220465243329L212.80601792253768,147.02117827186163L212.96503999369483,147.13042089960607L213.1163983505794,147.2339469203943L213.30990713596344,147.3656572499952L213.3482257073266,147.39165270978484L213.4938362785067,147.49017669948637L213.60304420689172,147.56379827264198L213.6241194211415,147.5779802094546L213.991977706228,147.82411200016364L214.43647313404082,148.11799145580406L214.474791705404,148.1431443422424L215.1587782042367,148.58725140346354L215.17218970421382,148.59586683108637L215.49406570366452,148.80156338853917L215.5592072749819,148.8429415672727L215.62051698916298,148.8818086011658L215.72397713184358,148.94722636449973L215.89641070297787,149.05578020004003L216.27001677376882,149.28893451944847L216.32941055938176,149.32574162264552L216.43478663063047,149.39086931974373L216.50184413051605,149.43219777283687L216.52100341619763,149.4439891955293L216.89460948698863,149.67243983769347L217.10727755805425,149.80121727535567L217.38508720043728,149.96805416567693L217.49046327168602,150.03092487120787L217.8966401281357,150.27114115239908L218.3143125559943,150.5146259736017L218.94465305491858,150.87527084951557L219.0557769118718,150.93799606150606L219.76467048209054,151.33208419312805L219.96392705317905,151.44096354744397L219.99075005313327,151.45555664163513L220.0271526959283,151.47533777764193L220.10570576722282,151.51792824907164L220.13252876717704,151.53244122973103L220.16126769569942,151.54797450686394L220.1861747670855,151.561422530058L220.26089598124366,151.60168878822137L220.33753312397005,151.6428648414351L220.35477648108346,151.6521124292827L220.4639844094685,151.71053545253295L220.50996669510434,151.7350589412821L220.83567455169134,151.90749088699414L220.83950640882765,151.90950615669834L221.16329833684648,152.07867048324414L221.50050176484243,152.25247494871593L221.67676719311305,152.34236325220039L221.81471405002048,152.41224803556406L221.8415370499747,152.42578952454517L222.21131126362937,152.61089966687018L222.65005890573775,152.82673150693634L222.7592668341228,152.87981040511082L222.99492604800633,152.993472168935L223.3321294760023,153.15402244912576L223.52372233281815,153.24414694940216L223.72106297533853,153.3361421466875L224.3609831171036,153.62862514059321L225.62741190065657,154.18103004239111L225.70404904338292,154.21332546456657L225.76727468613217,154.23987158978144L226.1198055426734,154.3862661772476L226.93982296984535,154.716125817102L227.2023051836831,154.81854889556067L227.72726961135865,155.01877609299152L228.18326061058045,155.18768396415115L228.4591543243953,155.28761155213763L228.46107025296348,155.28829942349657L228.57219410991667,155.32805921680395L228.94771610927583,155.4603591175395L228.95537982354844,155.46302588521752L229.10673818043298,155.51542450900587L229.57039289392745,155.67271039298856L230.03213167885372,155.82450205412906L230.27737053557803,155.90315167224804L230.34059617832727,155.92320652948837L230.49770232091632,155.97264578703872L230.7122863205501,156.0392634116587L230.82724203463965,156.07451935112866L230.91920660591126,156.1025065990701L231.03416232000077,156.13721923987634L231.1031357484545,156.1579018833268L231.13953839124952,156.16877384209428L231.32346753379275,156.22324206545323L231.38860910511016,156.24234730108856L231.40776839079174,156.24794788155052L231.74305589021955,156.34459795128492L232.19904688944135,156.47190238195574L232.27759996073587,156.49335059307825L232.44620167473386,156.53890630113406L232.8715378168651,156.65092216928196L232.94051124531882,156.66869390597265L233.1646748877934,156.72569399318888L233.5267853871754,156.8153190500539L233.58043138708385,156.82833911044463L234.39086917141506,157.01692463763254L234.643771742412,157.07265533975064L235.01546188463485,157.1518655223807L235.090183098793,157.16740144694353L235.4714528838566,157.24465045952442L236.27614288248333,157.3965649383925L236.54628881059372,157.44417505207323L236.78769581018176,157.485276631932L237.0789169525419,157.53304478566895L237.53682388033187,157.60413714239718L238.13459359359743,157.68954570667768L238.14608916500637,157.69110596375106L238.45455366447993,157.731814860688L238.4698810930252,157.73377936880092L238.9220402351107,157.78924840700228L239.14620387758526,157.81496536867397L239.67500016239714,157.8709461090383L239.77654437650952,157.8809424879096L240.46053087534224,157.94194681289343L240.48352201816013,157.9438057979026L240.94717673165457,157.97863478174366L240.95675637449537,157.97930092691135L240.97016787447248,157.9802298726641L241.1732563026973,157.99377813849028L241.4817208021709,158.01249411559684L241.65415437330518,158.02197771318967L242.01051708698273,158.03935234977922L242.14846394389016,158.04527282322817L242.27491522938863,158.05030505515955L242.6025390145438,158.06158596991006L242.69641951438356,158.0643510665888L242.7692247999736,158.06635204880433L242.83436637129103,158.06803624588534L242.90717165688105,158.06979990902886L242.98189287103924,158.07147976087163L243.10259637083328,158.07391463383135L243.20414058494566,158.07569636856178L243.27886179910388,158.0768518278437L243.35358301326207,158.07787533288717L243.3804060132163,158.07821056370193L243.412976798875,158.07859475758218L243.61989708423616,158.08044998726953L243.65821565559932,158.08068249348656L243.72335722691673,158.08099812037048L243.83448108386995,158.08130507116607L243.895790798051,158.08134949475252" fill="none"></path></g></g></g></g></g><g><g opacity="0.512592"><span fill="rgb(0, 0, 0)" stroke="none" stroke-width="1px">Alt + Scroll to Zoom</span></g></g></g><g transform="translate(61, 177)" clip-path="url(#clip_1)"><clipPath id="clip_1"><rect width="268" height="22"></rect></clipPath><g><g><line x1="0" y1="0" x2="0" y2="5" style="visibility: inherit;" fill="rgb(0, 0, 0)" stroke="rgb(204, 204, 204)" stroke-width="1px"></line><line x1="19.159285681588308" y1="0" x2="19.159285681588308" y2="5" style="visibility: inherit;" fill="rgb(0, 0, 0)" stroke="rgb(204, 204, 204)" stroke-width="1px"></line><line x1="38.318571363176616" y1="0" x2="38.318571363176616" y2="5" style="visibility: inherit;" fill="rgb(0, 0, 0)" stroke="rgb(204, 204, 204)" stroke-width="1px"></line><line x1="57.477857044764924" y1="0" x2="57.477857044764924" y2="5" style="visibility: inherit;" fill="rgb(0, 0, 0)" stroke="rgb(204, 204, 204)" stroke-width="1px"></line><line x1="76.63714272635323" y1="0" x2="76.63714272635323" y2="5" style="visibility: inherit;" fill="rgb(0, 0, 0)" stroke="rgb(204, 204, 204)" stroke-width="1px"></line><line x1="95.79642840794155" y1="0" x2="95.79642840794155" y2="5" style="visibility: inherit;" fill="rgb(0, 0, 0)" stroke="rgb(204, 204, 204)" stroke-width="1px"></line><line x1="114.95571408952985" y1="0" x2="114.95571408952985" y2="5" style="visibility: inherit;" fill="rgb(0, 0, 0)" stroke="rgb(204, 204, 204)" stroke-width="1px"></line><line x1="134.11499977111816" y1="0" x2="134.11499977111816" y2="5" style="visibility: inherit;" fill="rgb(0, 0, 0)" stroke="rgb(204, 204, 204)" stroke-width="1px"></line><line x1="153.27428545270647" y1="0" x2="153.27428545270647" y2="5" style="visibility: inherit;" fill="rgb(0, 0, 0)" stroke="rgb(204, 204, 204)" stroke-width="1px"></line><line x1="172.4335711342948" y1="0" x2="172.4335711342948" y2="5" style="visibility: inherit;" fill="rgb(0, 0, 0)" stroke="rgb(204, 204, 204)" stroke-width="1px"></line><line x1="191.5928568158831" y1="0" x2="191.5928568158831" y2="5" style="visibility: inherit;" fill="rgb(0, 0, 0)" stroke="rgb(204, 204, 204)" stroke-width="1px"></line><line x1="210.7521424974714" y1="0" x2="210.7521424974714" y2="5" style="visibility: inherit;" fill="rgb(0, 0, 0)" stroke="rgb(204, 204, 204)" stroke-width="1px"></line><line x1="229.9114281790597" y1="0" x2="229.9114281790597" y2="5" style="visibility: inherit;" fill="rgb(0, 0, 0)" stroke="rgb(204, 204, 204)" stroke-width="1px"></line><line x1="249.07071386064803" y1="0" x2="249.07071386064803" y2="5" style="visibility: inherit;" fill="rgb(0, 0, 0)" stroke="rgb(204, 204, 204)" stroke-width="1px"></line><line x1="268.2299995422363" y1="0" x2="268.2299995422363" y2="5" style="visibility: inherit;" fill="rgb(0, 0, 0)" stroke="rgb(204, 204, 204)" stroke-width="1px"></line></g><g transform="translate(0, 8)"><text style="text-anchor: middle; visibility: hidden; font-family: &quot;Helvetica Neue&quot;, sans-serif; font-size: 12px; font-weight: 200;" x="0" y="0" dx="0em" dy="0.95em" fill="rgb(50, 49, 63)" stroke="none" stroke-width="1px">-10k</text><text style="text-anchor: middle; visibility: inherit; font-family: &quot;Helvetica Neue&quot;, sans-serif; font-size: 12px; font-weight: 200;" x="19.159285681588308" y="0" dx="0em" dy="0.95em" fill="rgb(50, 49, 63)" stroke="none" stroke-width="1px">0</text><text style="text-anchor: middle; visibility: hidden; font-family: &quot;Helvetica Neue&quot;, sans-serif; font-size: 12px; font-weight: 200;" x="38.318571363176616" y="0" dx="0em" dy="0.95em" fill="rgb(50, 49, 63)" stroke="none" stroke-width="1px">10k</text><text style="text-anchor: middle; visibility: inherit; font-family: &quot;Helvetica Neue&quot;, sans-serif; font-size: 12px; font-weight: 200;" x="57.477857044764924" y="0" dx="0em" dy="0.95em" fill="rgb(50, 49, 63)" stroke="none" stroke-width="1px">20k</text><text style="text-anchor: middle; visibility: hidden; font-family: &quot;Helvetica Neue&quot;, sans-serif; font-size: 12px; font-weight: 200;" x="76.63714272635323" y="0" dx="0em" dy="0.95em" fill="rgb(50, 49, 63)" stroke="none" stroke-width="1px">30k</text><text style="text-anchor: middle; visibility: inherit; font-family: &quot;Helvetica Neue&quot;, sans-serif; font-size: 12px; font-weight: 200;" x="95.79642840794155" y="0" dx="0em" dy="0.95em" fill="rgb(50, 49, 63)" stroke="none" stroke-width="1px">40k</text><text style="text-anchor: middle; visibility: hidden; font-family: &quot;Helvetica Neue&quot;, sans-serif; font-size: 12px; font-weight: 200;" x="114.95571408952985" y="0" dx="0em" dy="0.95em" fill="rgb(50, 49, 63)" stroke="none" stroke-width="1px">50k</text><text style="text-anchor: middle; visibility: inherit; font-family: &quot;Helvetica Neue&quot;, sans-serif; font-size: 12px; font-weight: 200;" x="134.11499977111816" y="0" dx="0em" dy="0.95em" fill="rgb(50, 49, 63)" stroke="none" stroke-width="1px">60k</text><text style="text-anchor: middle; visibility: hidden; font-family: &quot;Helvetica Neue&quot;, sans-serif; font-size: 12px; font-weight: 200;" x="153.27428545270647" y="0" dx="0em" dy="0.95em" fill="rgb(50, 49, 63)" stroke="none" stroke-width="1px">70k</text><text style="text-anchor: middle; visibility: inherit; font-family: &quot;Helvetica Neue&quot;, sans-serif; font-size: 12px; font-weight: 200;" x="172.4335711342948" y="0" dx="0em" dy="0.95em" fill="rgb(50, 49, 63)" stroke="none" stroke-width="1px">80k</text><text style="text-anchor: middle; visibility: hidden; font-family: &quot;Helvetica Neue&quot;, sans-serif; font-size: 12px; font-weight: 200;" x="191.5928568158831" y="0" dx="0em" dy="0.95em" fill="rgb(50, 49, 63)" stroke="none" stroke-width="1px">90k</text><text style="text-anchor: middle; visibility: inherit; font-family: &quot;Helvetica Neue&quot;, sans-serif; font-size: 12px; font-weight: 200;" x="210.7521424974714" y="0" dx="0em" dy="0.95em" fill="rgb(50, 49, 63)" stroke="none" stroke-width="1px">100k</text><text style="text-anchor: middle; visibility: hidden; font-family: &quot;Helvetica Neue&quot;, sans-serif; font-size: 12px; font-weight: 200;" x="229.9114281790597" y="0" dx="0em" dy="0.95em" fill="rgb(50, 49, 63)" stroke="none" stroke-width="1px">110k</text><text style="text-anchor: middle; visibility: inherit; font-family: &quot;Helvetica Neue&quot;, sans-serif; font-size: 12px; font-weight: 200;" x="249.07071386064803" y="0" dx="0em" dy="0.95em" fill="rgb(50, 49, 63)" stroke="none" stroke-width="1px">120k</text><text style="text-anchor: middle; visibility: hidden; font-family: &quot;Helvetica Neue&quot;, sans-serif; font-size: 12px; font-weight: 200;" x="268.2299995422363" y="0" dx="0em" dy="0.95em" fill="rgb(50, 49, 63)" stroke="none" stroke-width="1px">130k</text></g><line x1="0" y1="0" x2="268.2299995422363" y2="0" fill="rgb(0, 0, 0)" stroke="rgb(204, 204, 204)" stroke-width="1px"></line></g></g></g></g></svg>