<svg viewBox="0 0 330 200" xmlns="http://www.w3.org/2000/svg"><g><g><g><g><g><line x1="51.41600036621094" y1="177.9749994277954" x2="46.41600036621094" y2="177.9749994277954" style="visibility: inherit;" fill="rgb(0, 0, 0)" stroke="rgb(204, 204, 204)" stroke-width="1px"></line><line x1="51.41600036621094" y1="158.1999994913737" x2="46.41600036621094" y2="158.1999994913737" style="visibility: inherit;" fill="rgb(0, 0, 0)" stroke="rgb(204, 204, 204)" stroke-width="1px"></line><line x1="51.41600036621094" y1="138.42499955495197" x2="46.41600036621094" y2="138.42499955495197" style="visibility: inherit;" fill="rgb(0, 0, 0)" stroke="rgb(204, 204, 204)" stroke-width="1px"></line><line x1="51.41600036621094" y1="118.64999961853027" x2="46.41600036621094" y2="118.64999961853027" style="visibility: inherit;" fill="rgb(0, 0, 0)" stroke="rgb(204, 204, 204)" stroke-width="1px"></line><line x1="51.41600036621094" y1="98.87499968210855" x2="46.41600036621094" y2="98.87499968210855" style="visibility: inherit;" fill="rgb(0, 0, 0)" stroke="rgb(204, 204, 204)" stroke-width="1px"></line><line x1="51.41600036621094" y1="79.09999974568684" x2="46.41600036621094" y2="79.09999974568684" style="visibility: inherit;" fill="rgb(0, 0, 0)" stroke="rgb(204, 204, 204)" stroke-width="1px"></line><line x1="51.41600036621094" y1="59.32499980926514" x2="46.41600036621094" y2="59.32499980926514" style="visibility: inherit;" fill="rgb(0, 0, 0)" stroke="rgb(204, 204, 204)" stroke-width="1px"></line><line x1="51.41600036621094" y1="39.54999987284344" x2="46.41600036621094" y2="39.54999987284344" style="visibility: inherit;" fill="rgb(0, 0, 0)" stroke="rgb(204, 204, 204)" stroke-width="1px"></line><line x1="51.41600036621094" y1="19.77499993642172" x2="46.41600036621094" y2="19.77499993642172" style="visibility: inherit;" fill="rgb(0, 0, 0)" stroke="rgb(204, 204, 204)" stroke-width="1px"></line><line x1="51.41600036621094" y1="0" x2="46.41600036621094" y2="0" style="visibility: inherit;" fill="rgb(0, 0, 0)" stroke="rgb(204, 204, 204)" stroke-width="1px"></line></g><g transform="translate(41.41600036621094, 0)"><text style="text-anchor: end; visibility: hidden; font-family: &quot;Helvetica Neue&quot;, sans-serif; font-size: 12px; font-weight: 200;" x="0" y="177.9749994277954" dx="0em" dy="0.3em" fill="rgb(50, 49, 63)" stroke="none" stroke-width="1px">-0.1</text><text style="text-anchor: end; visibility: inherit; font-family: &quot;Helvetica Neue&quot;, sans-serif; font-size: 12px; font-weight: 200;" x="0" y="158.1999994913737" dx="0em" dy="0.3em" fill="rgb(50, 49, 63)" stroke="none" stroke-width="1px">0</text><text style="text-anchor: end; visibility: hidden; font-family: &quot;Helvetica Neue&quot;, sans-serif; font-size: 12px; font-weight: 200;" x="0" y="138.42499955495197" dx="0em" dy="0.3em" fill="rgb(50, 49, 63)" stroke="none" stroke-width="1px">0.1</text><text style="text-anchor: end; visibility: inherit; font-family: &quot;Helvetica Neue&quot;, sans-serif; font-size: 12px; font-weight: 200;" x="0" y="118.64999961853027" dx="0em" dy="0.3em" fill="rgb(50, 49, 63)" stroke="none" stroke-width="1px">0.2</text><text style="text-anchor: end; visibility: hidden; font-family: &quot;Helvetica Neue&quot;, sans-serif; font-size: 12px; font-weight: 200;" x="0" y="98.87499968210855" dx="0em" dy="0.3em" fill="rgb(50, 49, 63)" stroke="none" stroke-width="1px">0.3</text><text style="text-anchor: end; visibility: inherit; font-family: &quot;Helvetica Neue&quot;, sans-serif; font-size: 12px; font-weight: 200;" x="0" y="79.09999974568684" dx="0em" dy="0.3em" fill="rgb(50, 49, 63)" stroke="none" stroke-width="1px">0.4</text><text style="text-anchor: end; visibility: hidden; font-family: &quot;Helvetica Neue&quot;, sans-serif; font-size: 12px; font-weight: 200;" x="0" y="59.32499980926514" dx="0em" dy="0.3em" fill="rgb(50, 49, 63)" stroke="none" stroke-width="1px">0.5</text><text style="text-anchor: end; visibility: inherit; font-family: &quot;Helvetica Neue&quot;, sans-serif; font-size: 12px; font-weight: 200;" x="0" y="39.54999987284344" dx="0em" dy="0.3em" fill="rgb(50, 49, 63)" stroke="none" stroke-width="1px">0.6</text><text style="text-anchor: end; visibility: hidden; font-family: &quot;Helvetica Neue&quot;, sans-serif; font-size: 12px; font-weight: 200;" x="0" y="19.77499993642172" dx="0em" dy="0.3em" fill="rgb(50, 49, 63)" stroke="none" stroke-width="1px">0.7</text><text style="text-anchor: end; visibility: hidden; font-family: &quot;Helvetica Neue&quot;, sans-serif; font-size: 12px; font-weight: 200;" x="0" y="0" dx="0em" dy="0.3em" fill="rgb(50, 49, 63)" stroke="none" stroke-width="1px">0.8</text></g><line x1="51.41600036621094" y1="0" x2="51.41600036621094" y2="177.9749994277954" fill="rgb(0, 0, 0)" stroke="rgb(204, 204, 204)" stroke-width="1px"></line></g></g><g transform="translate(51, 0)" clip-path="url(#clip_0)"><clipPath id="clip_0"><rect width="278" height="177"></rect></clipPath><g><g><g><line x1="0" y1="0" x2="0" y2="177.9749994277954" fill="rgb(0, 0, 0)" stroke="rgb(60, 60, 60)" stroke-width="1px" opacity="0.25"></line><line x1="34.82299995422363" y1="0" x2="34.82299995422363" y2="177.9749994277954" fill="rgb(0, 0, 0)" stroke="rgb(60, 60, 60)" stroke-width="1px" opacity="0.25"></line><line x1="69.64599990844727" y1="0" x2="69.64599990844727" y2="177.9749994277954" fill="rgb(0, 0, 0)" stroke="rgb(60, 60, 60)" stroke-width="1px" opacity="0.25"></line><line x1="104.4689998626709" y1="0" x2="104.4689998626709" y2="177.9749994277954" fill="rgb(0, 0, 0)" stroke="rgb(60, 60, 60)" stroke-width="1px" opacity="0.25"></line><line x1="139.29199981689453" y1="0" x2="139.29199981689453" y2="177.9749994277954" fill="rgb(0, 0, 0)" stroke="rgb(60, 60, 60)" stroke-width="1px" opacity="0.25"></line><line x1="174.11499977111816" y1="0" x2="174.11499977111816" y2="177.9749994277954" fill="rgb(0, 0, 0)" stroke="rgb(60, 60, 60)" stroke-width="1px" opacity="0.25"></line><line x1="208.9379997253418" y1="0" x2="208.9379997253418" y2="177.9749994277954" fill="rgb(0, 0, 0)" stroke="rgb(60, 60, 60)" stroke-width="1px" opacity="0.25"></line><line x1="243.76099967956543" y1="0" x2="243.76099967956543" y2="177.9749994277954" fill="rgb(0, 0, 0)" stroke="rgb(60, 60, 60)" stroke-width="1px" opacity="0.25"></line><line x1="278.58399963378906" y1="0" x2="278.58399963378906" y2="177.9749994277954" fill="rgb(0, 0, 0)" stroke="rgb(60, 60, 60)" stroke-width="1px" opacity="0.25"></line></g><g><line x1="0" y1="177.9749994277954" x2="278.58399963378906" y2="177.9749994277954" fill="rgb(0, 0, 0)" stroke="rgb(60, 60, 60)" stroke-width="1px" opacity="0.25"></line><line x1="0" y1="158.1999994913737" x2="278.58399963378906" y2="158.1999994913737" fill="rgb(0, 0, 0)" stroke="rgb(60, 60, 60)" stroke-width="1px" opacity="0.25"></line><line x1="0" y1="138.42499955495197" x2="278.58399963378906" y2="138.42499955495197" fill="rgb(0, 0, 0)" stroke="rgb(60, 60, 60)" stroke-width="1px" opacity="0.25"></line><line x1="0" y1="118.64999961853027" x2="278.58399963378906" y2="118.64999961853027" fill="rgb(0, 0, 0)" stroke="rgb(60, 60, 60)" stroke-width="1px" opacity="0.25"></line><line x1="0" y1="98.87499968210855" x2="278.58399963378906" y2="98.87499968210855" fill="rgb(0, 0, 0)" stroke="rgb(60, 60, 60)" stroke-width="1px" opacity="0.25"></line><line x1="0" y1="79.09999974568684" x2="278.58399963378906" y2="79.09999974568684" fill="rgb(0, 0, 0)" stroke="rgb(60, 60, 60)" stroke-width="1px" opacity="0.25"></line><line x1="0" y1="59.32499980926514" x2="278.58399963378906" y2="59.32499980926514" fill="rgb(0, 0, 0)" stroke="rgb(60, 60, 60)" stroke-width="1px" opacity="0.25"></line><line x1="0" y1="39.54999987284344" x2="278.58399963378906" y2="39.54999987284344" fill="rgb(0, 0, 0)" stroke="rgb(60, 60, 60)" stroke-width="1px" opacity="0.25"></line><line x1="0" y1="19.77499993642172" x2="278.58399963378906" y2="19.77499993642172" fill="rgb(0, 0, 0)" stroke="rgb(60, 60, 60)" stroke-width="1px" opacity="0.25"></line><line x1="0" y1="0" x2="278.58399963378906" y2="0" fill="rgb(0, 0, 0)" stroke="rgb(60, 60, 60)" stroke-width="1px" opacity="0.25"></line></g></g></g><g><g><line x1="0" y1="158.1999994913737" x2="278.58399963378906" y2="158.1999994913737" fill="rgb(0, 0, 0)" stroke="rgb(153, 153, 153)" stroke-width="1.5px"></line></g></g><g><g><line x1="34.82299995422363" y1="0" x2="34.82299995422363" y2="177.9749994277954" fill="rgb(0, 0, 0)" stroke="rgb(153, 153, 153)" stroke-width="1.5px"></line></g></g><g><g><g><g><g><path style="fill: none;" stroke="rgb(51, 187, 238)" stroke-width="2px" d="M34.82299995422363,156.17899457914152L35.51945995330811,143.4162100476239L36.21591995239258,135.1146639272209L36.91237995147705,135.16607950272382L37.608839950561524,132.31847992913245L38.305299949646,131.80433006751258L39.001759948730474,129.21775990232666L39.69821994781494,132.42526555773378L40.39467994689941,128.56122822033683L41.09113994598388,128.47422087312222L41.78759994506836,127.91260844024262L42.48405994415283,134.4620896695312L43.18051994323731,126.95945557813565L43.876979942321775,127.80186833404582L44.57343994140625,124.3214683640945L45.269899940490724,122.20158843597333L45.9663599395752,124.94635833191117L46.66281993865967,121.28402881893038L47.35927993774414,122.83043582809012L48.05573993682861,126.07748920615674L48.75219993591308,124.89098975216508L49.44865993499756,124.13162986587406L50.14511993408203,119.47659387471757L50.8415799331665,125.26276074011962L51.538039932250975,115.7430749249041L52.23449993133545,119.16019441321373L52.930959930419924,121.28402881893038L53.6274199295044,121.27611986373941L54.323879928588866,122.17390414610028L55.02033992767334,119.79299333622139L55.716799926757815,119.14437355612716L56.41325992584229,118.17539983693362L57.10971992492676,120.03424888329705L57.806179924011225,121.53319332119705L58.5026399230957,112.49206412253739L59.199099922180174,113.7062508131067L59.89555992126465,112.79660015125474L60.592019920349124,112.03724026496371L61.28847991943359,112.69376900024892L61.984939918518066,117.28552450976372L62.68139991760254,117.98160391441306L63.377859916687015,115.83799417401434L64.07431991577148,109.62864516521175L64.77077991485596,114.54075461382587L65.46723991394043,113.15650475971819L66.1636999130249,113.06949446579894L66.86015991210937,108.87719423411171L67.55661991119385,110.09533540227652L68.25307991027832,110.90215491312266L68.9495399093628,111.3807085829739L69.64599990844727,110.55806821504117L70.34245990753173,113.95541531537334L71.03891990661621,104.76794687204362L71.73537990570068,108.54497391552131L72.43183990478516,111.08012997855663L73.12829990386963,107.37824979621172L73.8247599029541,106.95506175940197L74.52121990203858,109.58909449584763L75.21767990112305,108.25230721299965L75.91413990020753,105.00525088822842L76.610599899292,105.74878697072825L77.30705989837647,104.80354306381227L78.00351989746095,106.07705575842778L78.6999798965454,103.82270296512765L79.39643989562988,105.88721726020734L80.09289989471435,100.55587425237896L80.78935989379882,109.15800045055151L81.4858198928833,104.06000698131244L82.18227989196777,106.1759294851335L82.87873989105225,97.84669760150513L83.57519989013672,101.9163972409137L84.27165988922118,107.10930995926302L84.96811988830567,106.02564165627719L85.66457988739013,106.26293977905274L86.36103988647461,102.60851922126294L87.05749988555908,105.00129641063292L87.75395988464355,105.14367528429827L88.45041988372803,99.48802385977507L89.1468798828125,112.56325355937004L89.84333988189698,107.37429531861623L90.53979988098145,97.44328784608207L91.23625988006592,105.63014085604509L91.9327198791504,97.40373717671793L92.62917987823486,100.31857612960339L93.32563987731935,100.59937939933857L94.02209987640381,94.69061194165785L94.71855987548828,94.7617984317859L95.41501987457276,96.43476640422901L96.11147987365722,105.94258583995342L96.8079398727417,97.95744065440654L97.50439987182617,96.27656372677248L98.20085987091063,105.68155495819569L98.89731986999512,98.67724987133344L99.59377986907958,94.93186454202892L100.29023986816406,104.42782054496685L100.98669986724853,98.33316317325196L101.683159866333,97.58171224215191L102.37961986541748,96.50595289435707L103.07607986450195,95.08215237088523L103.77253986358643,92.74870413226606L104.4689998626709,94.02221682688158L105.16545986175537,99.4761604269886L105.86191986083985,106.49232894663731L106.55837985992432,99.90329704798461L107.2548398590088,92.48767325050831L107.95129985809326,91.43960113929113L108.64775985717773,102.03504335559687L109.34421985626221,92.19896102558215L110.04067985534668,96.97264607812643L110.73713985443116,93.24703313679935L111.43359985351563,100.532147386806L112.1300598526001,97.6529046256892L112.82651985168458,94.90813178304673L113.52297985076903,95.35109220783394L114.21943984985352,99.29027640636365L114.91589984893798,94.68269709305764L115.61235984802245,99.4801149045841L116.30881984710693,96.39126125726938L117.0052798461914,98.85917941436291L117.70173984527588,99.10834686333418L118.39819984436035,100.29484337062121L119.09465984344482,94.219964280293L119.7911198425293,93.0532401609834L120.48757984161377,93.23121522641739L121.18403984069825,89.8417800279808L121.88049983978271,93.27472037337701L122.57695983886718,91.93397566622893L123.27341983795166,99.68181683559102L123.96987983703613,93.96288787613075L124.66633983612061,98.39249212400277L125.36279983520508,89.76267868925255L126.05925983428955,96.28447268196345L126.75571983337403,101.57626502042771L127.4521798324585,101.27963794690133L128.14863983154297,95.66353719174226L128.84509983062745,97.15062114356041L129.54155982971193,99.70950407216868L130.23801982879638,96.01157836741925L130.93447982788086,98.30152735248804L131.63093982696532,90.55368028971672L132.3273998260498,89.44232475015323L133.02385982513428,98.73261845107953L133.72031982421873,86.09244022108079L134.41677982330322,94.44935344787758L135.1132398223877,114.2520394421951L135.80969982147215,90.11071986492952L136.50615982055663,94.01430197828135L137.20261981964111,90.34406351010959L137.8990798187256,91.40400494752248L138.59553981781005,90.15422501188915L139.29199981689453,114.65940367521367L139.98845981597898,106.13242433817388L140.68491981506347,92.2345572173508L141.38137981414795,91.0717875756367L142.07783981323243,93.8917013860027L142.77429981231688,94.41375725610894L143.47075981140136,89.18524834599098L144.16721981048582,93.66231221841811L144.86367980957033,87.66652857340894L145.56013980865478,90.9017214653937L146.25659980773926,93.8244634800609L146.95305980682372,95.21266781176409L147.6495198059082,93.44083200602452L148.34597980499268,86.02520231513898L149.04243980407716,86.66591608674686L149.73889980316162,84.11494211332956L150.4353598022461,91.03619138386806L151.13181980133055,88.99936432536603L151.82827980041506,88.84907649650971L152.5247397994995,92.2859713195014L153.221199798584,88.06598385123651L153.91765979766845,90.71979192236424L154.61411979675293,91.0045496696949L155.3105797958374,87.08514375255189L156.0070397949219,92.66960279353778L156.70349979400635,94.53240926420133L157.3999597930908,88.52080770881018L158.09641979217528,82.99567761857509L158.79287979125976,103.32832843818983L159.48933979034425,87.464826642402L160.1857997894287,88.069938328832L160.88225978851318,85.75230800059478L161.57871978759763,84.89407438759804L162.27517978668214,89.29203692129691L162.9716397857666,86.19922290297747L163.66809978485108,82.30354974481662L164.36455978393553,97.87438483808279L165.06101978302001,85.18279250593345L165.7574797821045,86.49189549890836L166.45393978118898,89.44232475015323L167.15039978027343,82.67927226366204L167.8468597793579,89.82200764000335L168.54331977844237,84.55394216711206L169.23977977752688,81.18033077246666L169.93623977661133,83.2013340271775L170.6326997756958,89.59656705660504L171.32915977478027,81.53232642573913L172.02561977386475,80.07292971049866L172.72207977294923,82.84142941871404L173.4185397720337,87.03372965040128L174.11499977111816,78.61748747285367L174.81145977020262,81.92782722597121L175.5079197692871,79.36893840395372L176.20437976837158,88.65527762728453L176.90083976745606,76.58857526295185L177.59729976654052,78.26549181958121L178.293759765625,83.58497139462312L178.99021976470945,83.5928803498141L179.68667976379396,79.79608091835897L180.38313976287841,77.4982229780992L181.0795997619629,78.53047717893443L181.77605976104735,78.8982966359981L182.47251976013183,76.64394384269794L183.1689797592163,77.3914402962025L183.8654397583008,76.8970657692647L184.56189975738525,76.17725655233781L185.25835975646973,79.45199422027747L185.95481975555418,75.9597308175397L186.6512797546387,79.87913673468272L187.34773975372315,79.60228204913379L188.04419975280763,75.6828820254L188.74065975189208,77.47054163493077L189.43711975097656,75.79361918489218L190.13357975006105,76.17330207474232L190.83003974914553,77.22928314115049L191.52649974822998,72.6296186764447L192.22295974731443,71.90585498192232L192.91941974639892,73.1872766317288L193.6158797454834,71.94145117369096L194.31233974456788,70.17751842973313L195.00879974365233,71.03971241373459L195.7052597427368,72.51492703935703L196.40171974182127,70.88546421387356L197.09817974090578,68.36217747703392L197.79463973999023,70.79449944235883L198.4910997390747,66.890917329007L199.18755973815917,67.5949027421427L199.88401973724365,69.23622900041262L200.58047973632813,71.79907230002561L201.2769397354126,66.40445175726016L201.97339973449706,65.05975257251659L202.66985973358155,66.72480569635947L203.366319732666,73.24264521147491L204.0627797317505,66.90278076179345L204.75923973083496,65.09138839328051L205.45569972991944,64.53373633140565L206.1521597290039,62.152822574822125L206.84861972808838,62.37430278721571L207.54507972717286,63.90489188599348L208.24153972625734,64.19360411091964L208.9379997253418,63.153440954893426L209.63445972442625,62.837041493389606L210.33091972351073,62.72629844048819L211.0273797225952,60.7290220513503L211.7238397216797,59.28940361749649L212.42029972076415,61.71777699863513L213.11675971984863,57.31190550974529L213.81321971893308,57.11415805633385L214.5096797180176,57.01923880722363L215.20613971710205,59.70468269911527L215.90259971618653,53.66539390714645L216.59905971527098,52.96536297160624L217.29551971435546,54.50780960976124L217.99197971343995,53.25012071893693L218.68843971252443,50.35901452503364L219.38489971160888,50.003064394165676L220.08135971069336,49.04595116105398L220.77781970977782,50.75056084767024L221.47427970886233,49.18437555712384L222.17073970794678,48.07302001756034L222.86719970703126,46.02432952627183L223.56365970611571,45.65256148502192L224.2601197052002,47.89899942972184L224.95657970428468,41.54332296306768L225.65303970336916,42.77332461731436L226.3494997024536,41.222969023968375L227.04595970153807,39.71610679076355L227.74241970062255,37.46966884606363L228.43887969970703,38.95279242687704L229.1353396987915,36.74985962913672L229.83179969787597,35.1124937418715L230.52825969696045,35.01361412175655L231.2247196960449,34.8435539049228L231.9211796951294,31.564849972569164L232.61763969421386,30.742212551341083L233.31409969329835,29.17603904761313L234.0105596923828,27.894611504397403L234.70701969146728,27.313226683540364L235.40347969055176,26.241427706750216L236.09993968963624,24.291605048758214L236.7963996887207,22.903400717055035L237.49285968780518,22.10054157721359L238.18931968688963,19.359729105575866L238.88577968597414,19.015636514085145L239.5822396850586,17.093512879489253L240.27869968414308,15.645985490444502L240.97515968322753,15.072509624778434L241.671619682312,14.000698861169809L242.3680796813965,13.921597522441573L243.06453968048098,13.953245130023959" fill="none"></path></g><g><path style="fill: none;" stroke="rgb(0, 119, 187)" stroke-width="2px" d="M34.82299995422363,156.1829494250751L35.51945995330811,142.83482522676687L36.21591995239258,134.13382530188858L36.91237995147705,133.4021482321183L37.608839950561524,130.00084960089524L38.305299949646,130.00084960089524L39.001759948730474,126.10517349602978L39.69821994781494,129.76354853141507L40.39467994689941,126.18427483475804L41.09113994598388,126.06562577337027L41.78759994506836,125.01755071544846L42.48405994415283,130.77207586667737L43.18051994323731,124.28587511903048L43.876979942321775,123.13892338769834L44.57343994140625,120.7856998143971L45.269899940490724,118.82797409462333L45.9663599395752,120.66705075300932L46.66281993865967,115.68374892085791L47.35927993774414,119.20369956017336L48.05573993682861,122.94117593428692L48.75219993591308,120.7856998143971L49.44865993499756,118.88730009866953L50.14511993408203,116.01992371704381L50.8415799331665,122.68409953012467L51.538039932250975,111.9858232161085L52.23449993133545,115.64419825149378L52.930959930419924,115.40690012871822L53.6274199295044,115.54532452478807L54.323879928588866,117.08777410964768L55.02033992767334,115.60465052883427L55.716799926757815,115.68374892085791L56.41325992584229,113.88422587854068L57.10971992492676,116.65272558675608L57.806179924011225,118.05675077554584L58.5026399230957,106.03355061146816L59.199099922180174,109.4348492426912L59.89555992126465,108.32744818072321L60.592019920349124,107.22004711875519L61.28847991943359,107.25959778811932L61.984939918518066,112.2626749549528L62.68139991760254,114.24017600940863L63.377859916687015,111.03662483159701L64.07431991577148,104.72840209608871L64.77077991485596,109.3359755159855L65.46723991394043,108.82182565436563L66.1636999130249,107.33869912684759L66.86015991210937,105.26232729239067L67.55661991119385,104.70862381470204L68.25307991027832,108.72294898095528L68.9495399093628,106.31039940360785L69.64599990844727,105.51939780314366L70.34245990753173,110.28517390049697L71.03891990661621,101.24800212613742L71.73537990570068,100.79317237515451L72.43183990478516,108.26812512338161L73.12829990386963,101.9203517185092L73.8247599029541,101.72259837168853L74.52121990203858,103.62100103412072L75.21767990112305,105.16344767227571L75.91413990020753,99.23094745561282L76.610599899292,103.14639889516036L77.30705989837647,99.90329704798461L78.00351989746095,101.16890078740914L78.6999798965454,99.17162439827125L79.39643989562988,97.55007642138798L80.09289989471435,95.9285225510955L80.78935989379882,101.50507263689042L81.4858198928833,100.021949056077L82.18227989196777,101.10957183665833L82.87873989105225,94.42562658230463L83.57519989013672,99.1913967862487L84.27165988922118,101.10957183665833L84.96811988830567,102.13787745330731L85.66457988739013,99.94284771734874L86.36103988647461,97.1545756211559L87.05749988555908,98.85522493676743L87.75395988464355,98.75635121006171L88.45041988372803,93.12047217351598L89.1468798828125,104.15492623042265L89.84333988189698,101.62372464498281L90.53979988098145,92.9029523321271L91.23625988006592,98.18287534439564L91.9327198791504,91.87465260888736L92.62917987823486,92.9029523321271L93.32563987731935,93.17980112426677L94.02209987640381,89.65985048495133L94.71855987548828,91.30117674322129L95.41501987457276,89.75872421165705L96.11147987365722,97.33255068658988L96.8079398727417,91.49892419663271L97.50439987182617,92.03284939293464L98.20085987091063,97.66872253607116L98.89731986999512,93.79282176588775L99.59377986907958,90.8858976616025L100.29023986816406,97.88624827086926L100.98669986724853,92.09217245027624L101.683159866333,92.17127378900449L102.37961986541748,91.65712687408924L103.07607986450195,87.93942288795314L103.77253986358643,88.51289875361921L104.4689998626709,86.0212478375435L105.16545986175537,93.67417565120459L105.86191986083985,99.50780214116176L106.55837985992432,93.87192310461602L107.2548398590088,87.54392208772104L107.95129985809326,86.27832424170575L108.64775985717773,98.51904719387692L109.34421985626221,85.07204945303202L110.04067985534668,91.24184779247047L110.73713985443116,88.53267703500589L111.43359985351563,96.62065042485396L112.1300598526001,92.32947646646103L112.82651985168458,86.97045211546421L113.52297985076903,88.63155076171161L114.21943984985352,93.97079683132172L114.91589984893798,88.17672690413794L115.61235984802245,93.04137672819694L116.30881984710693,92.82385099339882L117.0052798461914,95.84942710577647L117.70173984527588,92.64587592796485L118.39819984436035,92.94249710808198L119.09465984344482,89.69940115431548L119.7911198425293,84.97317572632632L120.48757984161377,88.59200009234746L121.18403984069825,84.67654865279994L121.88049983978271,86.23877357234161L122.57695983886718,89.93669927709104L123.27341983795166,92.94249710808198L123.96987983703613,88.80952582714558L124.66633983612061,89.36322341142497L125.36279983520508,85.44777197187743L126.05925983428955,89.6202998155872L126.75571983337403,92.56677458923659L127.4521798324585,93.614852593863L128.14863983154297,88.57222181096078L128.84509983062745,92.17127378900449L129.54155982971193,93.59507431247633L130.23801982879638,90.92544833096665L130.93447982788086,91.57802553536096L131.63093982696532,85.70484837603968L132.3273998260498,82.06625162204107L133.02385982513428,92.28992579709688L133.72031982421873,80.52379909047684L134.41677982330322,88.76997515778145L135.1132398223877,106.3301717915853L135.80969982147215,85.30934757580759L136.50615982055663,86.5156223644813L137.20261981964111,84.02397734181483L137.8990798187256,86.89135077673593L138.59553981781005,85.84327277210951L139.29199981689453,107.65509858835142L139.98845981597898,100.6942986484488L140.68491981506347,85.80372210274538L141.38137981414795,85.26979690644345L142.07783981323243,89.08637461928527L142.77429981231688,89.22479901535512L143.47075981140136,84.53812425673009L144.16721981048582,88.92817194182874L144.86367980957033,80.91929989070893L145.56013980865478,87.70212476517757L146.25659980773926,87.16819956887564L146.95305980682372,90.27287701998155L147.6495198059082,86.57495131523213L148.34597980499268,79.89100016746919L149.04243980407716,81.63120015244483L149.73889980316162,78.80337738688787L150.4353598022461,86.85180010737182L151.13181980133055,84.53812425673009L151.82827980041506,82.61994920632046L152.5247397994995,83.72735026828846L153.221199798584,81.31480069094103L153.91765979766845,81.71030149117311L154.61411979675293,86.39697624979814L155.3105797958374,83.05500067591667L156.0070397949219,86.83202182598512L156.70349979400635,88.19649929211538L157.3999597930908,82.61994920632046L158.09641979217528,77.35979858202936L158.79287979125976,91.0045496696949L159.48933979034425,82.38265108354489L160.1857997894287,81.55209881371658L160.88225978851318,78.76382671752373L161.57871978759763,79.3373025831898L162.27517978668214,83.19342507198652L162.9716397857666,82.58039853695632L163.66809978485108,75.85690261323849L164.36455978393553,90.07512367316087L165.06101978302001,79.51527764862378L165.7574797821045,81.21592696423531L166.45393978118898,82.600176818343L167.15039978027343,75.02635034341019L167.8468597793579,84.51835186875265L168.54331977844237,77.73552699428399L169.23977977752688,74.29467769369681L169.93623977661133,79.93055083683332L170.6326997756958,81.13682562550704L171.32915977478027,76.41060019751788L172.02561977386475,72.13919862710237L172.72207977294923,77.67619804353318L173.4185397720337,80.42492536377112L174.11499977111816,74.90769833531779L174.81145977020262,78.32877524792751L175.5079197692871,75.02635034341019L176.20437976837158,80.99840122943719L176.90083976745606,72.1985275778532L177.59729976654052,71.60527343080045L178.293759765625,78.07169884376526L178.99021976470945,76.78632271636329L179.68667976379396,73.4641254238685L180.38313976287841,72.1985275778532L181.0795997619629,72.25785063519477L181.77605976104735,71.9612235616684L182.47251976013183,70.26057424605688L183.1689797592163,73.22682730109294L183.8654397583008,70.59675198894739L184.56189975738525,70.63630265831152L185.25835975646973,74.78905222063462L185.95481975555418,69.98372545391719L186.6512797546387,74.57152648583651L187.34773975372315,76.19307446271976L188.04419975280763,69.13340079611143L188.74065975189208,71.86234983496269L189.43711975097656,71.03179756513438L190.13357975006105,71.54595037345887L190.83003974914553,71.26910158131918L191.52649974822998,68.36217747703392L192.22295974731443,68.26329785691898L192.91941974639892,66.54287615333L193.6158797454834,67.78870161136786L194.31233974456788,65.43547509136201L195.00879974365233,67.25477641506593L195.7052597427368,67.9271260074377L196.40171974182127,68.73789999587935L197.09817974090578,64.90154989506007L197.79463973999023,65.27727241390546L198.4910997390747,63.41842631424666L199.18755973815917,64.80267616835435L199.88401973724365,65.96940028766393L200.58047973632813,68.59947559980948L201.2769397354126,61.97484750938814L201.97339973449706,61.618897378520174L202.66985973358155,64.36762469875812L203.366319732666,66.87904800281127L204.0627797317505,63.477749371588246L204.75923973083496,63.06247618337869L205.45569972991944,60.7290220513503L206.1521597290039,59.64139927076897L206.84861972808838,60.7290220513503L207.54507972717286,60.53127459793886L208.24153972625734,62.370348309620226L208.9379997253418,60.09622312834264L209.63445972442625,59.226120189150194L210.33091972351073,59.87869739354453L211.0273797225952,60.392850201869024L211.7238397216797,58.47467515145938L212.42029972076415,60.68947727539539L213.11675971984863,54.163728805088994L213.81321971893308,54.85585078543822L214.5096797180176,56.95199500787261L215.20613971710205,56.25987302752337L215.90259971618653,52.89811917225522L216.59905971527098,51.01950068461896L217.29551971435546,52.77947305757206L217.99197971343995,51.8896036238114L218.68843971252443,50.54490443906782L219.38489971160888,48.56739454449814L220.08135971069336,49.14087041016421L220.77781970977782,50.881076288549096L221.47427970886233,50.505347876294465L222.17073970794678,49.160648691550904L222.86719970703126,46.530573379405354L223.56365970611571,46.21417981131074L224.2601197052002,49.35839614496234L224.95657970428468,45.00790502263703L225.65303970336916,45.52204604414305L226.3494997024536,43.97959940598807L227.04595970153807,43.20837608691056L227.74241970062255,41.66592944875558L228.43887969970703,42.29872837176322L229.1353396987915,42.14052569430669L229.83179969787597,39.35224770470461L230.52825969696045,39.49067210077445L231.2247196960449,40.024603190485635L231.9211796951294,38.71944878169697L232.61763969421386,37.09790080481369L233.31409969329835,38.24485253614583L234.0105596923828,36.30689920434952L234.70701969146728,36.010272130823154L235.40347969055176,34.88309868087771L236.09993968963624,34.5667051127831L236.7963996887207,33.439519876019176L237.49285968780518,32.64853006237345L238.18931968688963,32.72761961428327L238.88577968597414,32.03549763393403L239.5822396850586,30.750121506532054L240.27869968414308,30.334848318322514L240.97515968322753,29.68227111392818L241.671619682312,29.939353411499667L242.3680796813965,29.484523660516743L243.06453968048098,29.365877545833598" fill="none"></path></g></g></g></g></g></g><g transform="translate(51, 177)" clip-path="url(#clip_1)"><clipPath id="clip_1"><rect width="278" height="22"></rect></clipPath><g><g><line x1="0" y1="0" x2="0" y2="5" style="visibility: inherit;" fill="rgb(0, 0, 0)" stroke="rgb(204, 204, 204)" stroke-width="1px"></line><line x1="34.82299995422363" y1="0" x2="34.82299995422363" y2="5" style="visibility: inherit;" fill="rgb(0, 0, 0)" stroke="rgb(204, 204, 204)" stroke-width="1px"></line><line x1="69.64599990844727" y1="0" x2="69.64599990844727" y2="5" style="visibility: inherit;" fill="rgb(0, 0, 0)" stroke="rgb(204, 204, 204)" stroke-width="1px"></line><line x1="104.4689998626709" y1="0" x2="104.4689998626709" y2="5" style="visibility: inherit;" fill="rgb(0, 0, 0)" stroke="rgb(204, 204, 204)" stroke-width="1px"></line><line x1="139.29199981689453" y1="0" x2="139.29199981689453" y2="5" style="visibility: inherit;" fill="rgb(0, 0, 0)" stroke="rgb(204, 204, 204)" stroke-width="1px"></line><line x1="174.11499977111816" y1="0" x2="174.11499977111816" y2="5" style="visibility: inherit;" fill="rgb(0, 0, 0)" stroke="rgb(204, 204, 204)" stroke-width="1px"></line><line x1="208.9379997253418" y1="0" x2="208.9379997253418" y2="5" style="visibility: inherit;" fill="rgb(0, 0, 0)" stroke="rgb(204, 204, 204)" stroke-width="1px"></line><line x1="243.76099967956543" y1="0" x2="243.76099967956543" y2="5" style="visibility: inherit;" fill="rgb(0, 0, 0)" stroke="rgb(204, 204, 204)" stroke-width="1px"></line><line x1="278.58399963378906" y1="0" x2="278.58399963378906" y2="5" style="visibility: inherit;" fill="rgb(0, 0, 0)" stroke="rgb(204, 204, 204)" stroke-width="1px"></line></g><g transform="translate(0, 8)"><text style="text-anchor: middle; visibility: hidden; font-family: &quot;Helvetica Neue&quot;, sans-serif; font-size: 12px; font-weight: 200;" x="0" y="0" dx="0em" dy="0.95em" fill="rgb(50, 49, 63)" stroke="none" stroke-width="1px">-50</text><text style="text-anchor: middle; visibility: inherit; font-family: &quot;Helvetica Neue&quot;, sans-serif; font-size: 12px; font-weight: 200;" x="34.82299995422363" y="0" dx="0em" dy="0.95em" fill="rgb(50, 49, 63)" stroke="none" stroke-width="1px">0</text><text style="text-anchor: middle; visibility: inherit; font-family: &quot;Helvetica Neue&quot;, sans-serif; font-size: 12px; font-weight: 200;" x="69.64599990844727" y="0" dx="0em" dy="0.95em" fill="rgb(50, 49, 63)" stroke="none" stroke-width="1px">50</text><text style="text-anchor: middle; visibility: inherit; font-family: &quot;Helvetica Neue&quot;, sans-serif; font-size: 12px; font-weight: 200;" x="104.4689998626709" y="0" dx="0em" dy="0.95em" fill="rgb(50, 49, 63)" stroke="none" stroke-width="1px">100</text><text style="text-anchor: middle; visibility: inherit; font-family: &quot;Helvetica Neue&quot;, sans-serif; font-size: 12px; font-weight: 200;" x="139.29199981689453" y="0" dx="0em" dy="0.95em" fill="rgb(50, 49, 63)" stroke="none" stroke-width="1px">150</text><text style="text-anchor: middle; visibility: inherit; font-family: &quot;Helvetica Neue&quot;, sans-serif; font-size: 12px; font-weight: 200;" x="174.11499977111816" y="0" dx="0em" dy="0.95em" fill="rgb(50, 49, 63)" stroke="none" stroke-width="1px">200</text><text style="text-anchor: middle; visibility: inherit; font-family: &quot;Helvetica Neue&quot;, sans-serif; font-size: 12px; font-weight: 200;" x="208.9379997253418" y="0" dx="0em" dy="0.95em" fill="rgb(50, 49, 63)" stroke="none" stroke-width="1px">250</text><text style="text-anchor: middle; visibility: inherit; font-family: &quot;Helvetica Neue&quot;, sans-serif; font-size: 12px; font-weight: 200;" x="243.76099967956543" y="0" dx="0em" dy="0.95em" fill="rgb(50, 49, 63)" stroke="none" stroke-width="1px">300</text><text style="text-anchor: middle; visibility: hidden; font-family: &quot;Helvetica Neue&quot;, sans-serif; font-size: 12px; font-weight: 200;" x="278.58399963378906" y="0" dx="0em" dy="0.95em" fill="rgb(50, 49, 63)" stroke="none" stroke-width="1px">350</text></g><line x1="0" y1="0" x2="278.58399963378906" y2="0" fill="rgb(0, 0, 0)" stroke="rgb(204, 204, 204)" stroke-width="1px"></line></g></g></g></g></svg>