<svg viewBox="0 0 330 200" xmlns="http://www.w3.org/2000/svg"><g><g><g><g><g><line x1="51.41600036621094" y1="177.9749994277954" x2="46.41600036621094" y2="177.9749994277954" style="visibility: inherit;" fill="rgb(0, 0, 0)" stroke="rgb(204, 204, 204)" stroke-width="1px"></line><line x1="51.41600036621094" y1="158.1999994913737" x2="46.41600036621094" y2="158.1999994913737" style="visibility: inherit;" fill="rgb(0, 0, 0)" stroke="rgb(204, 204, 204)" stroke-width="1px"></line><line x1="51.41600036621094" y1="138.424999554952" x2="46.41600036621094" y2="138.424999554952" style="visibility: inherit;" fill="rgb(0, 0, 0)" stroke="rgb(204, 204, 204)" stroke-width="1px"></line><line x1="51.41600036621094" y1="118.64999961853027" x2="46.41600036621094" y2="118.64999961853027" style="visibility: inherit;" fill="rgb(0, 0, 0)" stroke="rgb(204, 204, 204)" stroke-width="1px"></line><line x1="51.41600036621094" y1="98.87499968210857" x2="46.41600036621094" y2="98.87499968210857" style="visibility: inherit;" fill="rgb(0, 0, 0)" stroke="rgb(204, 204, 204)" stroke-width="1px"></line><line x1="51.41600036621094" y1="79.09999974568684" x2="46.41600036621094" y2="79.09999974568684" style="visibility: inherit;" fill="rgb(0, 0, 0)" stroke="rgb(204, 204, 204)" stroke-width="1px"></line><line x1="51.41600036621094" y1="59.32499980926514" x2="46.41600036621094" y2="59.32499980926514" style="visibility: inherit;" fill="rgb(0, 0, 0)" stroke="rgb(204, 204, 204)" stroke-width="1px"></line><line x1="51.41600036621094" y1="39.549999872843415" x2="46.41600036621094" y2="39.549999872843415" style="visibility: inherit;" fill="rgb(0, 0, 0)" stroke="rgb(204, 204, 204)" stroke-width="1px"></line><line x1="51.41600036621094" y1="19.77499993642172" x2="46.41600036621094" y2="19.77499993642172" style="visibility: inherit;" fill="rgb(0, 0, 0)" stroke="rgb(204, 204, 204)" stroke-width="1px"></line><line x1="51.41600036621094" y1="0" x2="46.41600036621094" y2="0" style="visibility: inherit;" fill="rgb(0, 0, 0)" stroke="rgb(204, 204, 204)" stroke-width="1px"></line></g><g transform="translate(41.41600036621094, 0)"><text style="text-anchor: end; visibility: hidden; font-family: &quot;Helvetica Neue&quot;, sans-serif; font-size: 12px; font-weight: 200;" x="0" y="177.9749994277954" dx="0em" dy="0.3em" fill="rgb(50, 49, 63)" stroke="none" stroke-width="1px">-0.5</text><text style="text-anchor: end; visibility: inherit; font-family: &quot;Helvetica Neue&quot;, sans-serif; font-size: 12px; font-weight: 200;" x="0" y="158.1999994913737" dx="0em" dy="0.3em" fill="rgb(50, 49, 63)" stroke="none" stroke-width="1px">0</text><text style="text-anchor: end; visibility: hidden; font-family: &quot;Helvetica Neue&quot;, sans-serif; font-size: 12px; font-weight: 200;" x="0" y="138.424999554952" dx="0em" dy="0.3em" fill="rgb(50, 49, 63)" stroke="none" stroke-width="1px">0.5</text><text style="text-anchor: end; visibility: inherit; font-family: &quot;Helvetica Neue&quot;, sans-serif; font-size: 12px; font-weight: 200;" x="0" y="118.64999961853027" dx="0em" dy="0.3em" fill="rgb(50, 49, 63)" stroke="none" stroke-width="1px">1</text><text style="text-anchor: end; visibility: hidden; font-family: &quot;Helvetica Neue&quot;, sans-serif; font-size: 12px; font-weight: 200;" x="0" y="98.87499968210857" dx="0em" dy="0.3em" fill="rgb(50, 49, 63)" stroke="none" stroke-width="1px">1.5</text><text style="text-anchor: end; visibility: inherit; font-family: &quot;Helvetica Neue&quot;, sans-serif; font-size: 12px; font-weight: 200;" x="0" y="79.09999974568684" dx="0em" dy="0.3em" fill="rgb(50, 49, 63)" stroke="none" stroke-width="1px">2</text><text style="text-anchor: end; visibility: hidden; font-family: &quot;Helvetica Neue&quot;, sans-serif; font-size: 12px; font-weight: 200;" x="0" y="59.32499980926514" dx="0em" dy="0.3em" fill="rgb(50, 49, 63)" stroke="none" stroke-width="1px">2.5</text><text style="text-anchor: end; visibility: inherit; font-family: &quot;Helvetica Neue&quot;, sans-serif; font-size: 12px; font-weight: 200;" x="0" y="39.549999872843415" dx="0em" dy="0.3em" fill="rgb(50, 49, 63)" stroke="none" stroke-width="1px">3</text><text style="text-anchor: end; visibility: hidden; font-family: &quot;Helvetica Neue&quot;, sans-serif; font-size: 12px; font-weight: 200;" x="0" y="19.77499993642172" dx="0em" dy="0.3em" fill="rgb(50, 49, 63)" stroke="none" stroke-width="1px">3.5</text><text style="text-anchor: end; visibility: hidden; font-family: &quot;Helvetica Neue&quot;, sans-serif; font-size: 12px; font-weight: 200;" x="0" y="0" dx="0em" dy="0.3em" fill="rgb(50, 49, 63)" stroke="none" stroke-width="1px">4</text></g><line x1="51.41600036621094" y1="0" x2="51.41600036621094" y2="177.9749994277954" fill="rgb(0, 0, 0)" stroke="rgb(204, 204, 204)" stroke-width="1px"></line></g></g><g transform="translate(51, 0)" clip-path="url(#clip_0)"><clipPath id="clip_0"><rect width="278" height="177"></rect></clipPath><g><g><g><line x1="0" y1="0" x2="0" y2="177.9749994277954" fill="rgb(0, 0, 0)" stroke="rgb(60, 60, 60)" stroke-width="1px" opacity="0.25"></line><line x1="34.82299995422363" y1="0" x2="34.82299995422363" y2="177.9749994277954" fill="rgb(0, 0, 0)" stroke="rgb(60, 60, 60)" stroke-width="1px" opacity="0.25"></line><line x1="69.64599990844727" y1="0" x2="69.64599990844727" y2="177.9749994277954" fill="rgb(0, 0, 0)" stroke="rgb(60, 60, 60)" stroke-width="1px" opacity="0.25"></line><line x1="104.4689998626709" y1="0" x2="104.4689998626709" y2="177.9749994277954" fill="rgb(0, 0, 0)" stroke="rgb(60, 60, 60)" stroke-width="1px" opacity="0.25"></line><line x1="139.29199981689453" y1="0" x2="139.29199981689453" y2="177.9749994277954" fill="rgb(0, 0, 0)" stroke="rgb(60, 60, 60)" stroke-width="1px" opacity="0.25"></line><line x1="174.11499977111816" y1="0" x2="174.11499977111816" y2="177.9749994277954" fill="rgb(0, 0, 0)" stroke="rgb(60, 60, 60)" stroke-width="1px" opacity="0.25"></line><line x1="208.9379997253418" y1="0" x2="208.9379997253418" y2="177.9749994277954" fill="rgb(0, 0, 0)" stroke="rgb(60, 60, 60)" stroke-width="1px" opacity="0.25"></line><line x1="243.76099967956543" y1="0" x2="243.76099967956543" y2="177.9749994277954" fill="rgb(0, 0, 0)" stroke="rgb(60, 60, 60)" stroke-width="1px" opacity="0.25"></line><line x1="278.58399963378906" y1="0" x2="278.58399963378906" y2="177.9749994277954" fill="rgb(0, 0, 0)" stroke="rgb(60, 60, 60)" stroke-width="1px" opacity="0.25"></line></g><g><line x1="0" y1="177.9749994277954" x2="278.58399963378906" y2="177.9749994277954" fill="rgb(0, 0, 0)" stroke="rgb(60, 60, 60)" stroke-width="1px" opacity="0.25"></line><line x1="0" y1="158.1999994913737" x2="278.58399963378906" y2="158.1999994913737" fill="rgb(0, 0, 0)" stroke="rgb(60, 60, 60)" stroke-width="1px" opacity="0.25"></line><line x1="0" y1="138.424999554952" x2="278.58399963378906" y2="138.424999554952" fill="rgb(0, 0, 0)" stroke="rgb(60, 60, 60)" stroke-width="1px" opacity="0.25"></line><line x1="0" y1="118.64999961853027" x2="278.58399963378906" y2="118.64999961853027" fill="rgb(0, 0, 0)" stroke="rgb(60, 60, 60)" stroke-width="1px" opacity="0.25"></line><line x1="0" y1="98.87499968210857" x2="278.58399963378906" y2="98.87499968210857" fill="rgb(0, 0, 0)" stroke="rgb(60, 60, 60)" stroke-width="1px" opacity="0.25"></line><line x1="0" y1="79.09999974568684" x2="278.58399963378906" y2="79.09999974568684" fill="rgb(0, 0, 0)" stroke="rgb(60, 60, 60)" stroke-width="1px" opacity="0.25"></line><line x1="0" y1="59.32499980926514" x2="278.58399963378906" y2="59.32499980926514" fill="rgb(0, 0, 0)" stroke="rgb(60, 60, 60)" stroke-width="1px" opacity="0.25"></line><line x1="0" y1="39.549999872843415" x2="278.58399963378906" y2="39.549999872843415" fill="rgb(0, 0, 0)" stroke="rgb(60, 60, 60)" stroke-width="1px" opacity="0.25"></line><line x1="0" y1="19.77499993642172" x2="278.58399963378906" y2="19.77499993642172" fill="rgb(0, 0, 0)" stroke="rgb(60, 60, 60)" stroke-width="1px" opacity="0.25"></line><line x1="0" y1="0" x2="278.58399963378906" y2="0" fill="rgb(0, 0, 0)" stroke="rgb(60, 60, 60)" stroke-width="1px" opacity="0.25"></line></g></g></g><g><g><line x1="0" y1="158.1999994913737" x2="278.58399963378906" y2="158.1999994913737" fill="rgb(0, 0, 0)" stroke="rgb(153, 153, 153)" stroke-width="1.5px"></line></g></g><g><g><line x1="34.82299995422363" y1="0" x2="34.82299995422363" y2="177.9749994277954" fill="rgb(0, 0, 0)" stroke="rgb(153, 153, 153)" stroke-width="1.5px"></line></g></g><g><g><g><g><g><path style="fill: none;" stroke="rgb(238, 51, 119)" stroke-width="2px" d="M35.51945995330811,-2.2126215625197005L36.21591995239258,9.51809164801793L36.91237995147705,10.43526642543793L37.608839950561524,12.590160865836424L38.305299949646,13.237172334550905L39.001759948730474,15.108787094654417L39.69821994781494,14.671118951358636L40.39467994689941,17.70014270813772L41.09113994598388,16.9212320260564L41.78759994506836,18.850960515926857L42.48405994415283,10.45720876669506L43.18051994323731,18.2553867229999L43.876979942321775,18.583626043653254L44.57343994140625,21.377582922392463L45.269899940490724,23.8832059330783L45.9663599395752,20.76618650435617L46.66281993865967,24.7848975457608L47.35927993774414,23.966571742727723L48.05573993682861,19.584223207451345L48.75219993591308,23.019090697666797L49.44865993499756,21.204533568395618L50.14511993408203,26.602490959468923L50.8415799331665,19.550494047727767L51.538039932250975,30.124788354341035L52.23449993133545,28.909972837006535L52.930959930419924,25.571314073841535L53.6274199295044,25.471437288884317L54.323879928588866,25.025622096664534L55.02033992767334,26.552024517523023L55.716799926757815,29.105275704268024L56.41325992584229,28.0893179586445L57.10971992492676,24.960191109993644L57.806179924011225,24.853968301974106L58.5026399230957,34.002463040703645L59.199099922180174,31.15978416915155L59.89555992126465,33.51893002939127L60.592019920349124,34.95679929938464L61.28847991943359,32.549091747063216L61.984939918518066,28.26771381349772L62.68139991760254,29.40385938965983L63.377859916687015,30.2798557380855L64.07431991577148,36.06972012844048L64.77077991485596,31.33422908245484L65.46723991394043,33.86713150579939L66.1636999130249,33.520712196343396L66.86015991210937,36.13994127813612L67.55661991119385,35.356938212683275L68.25307991027832,35.320238774706155L68.9495399093628,35.72723290162489L69.64599990844727,35.42636728817797L70.34245990753173,34.28834525051602L71.03891990661621,40.69516000776866L71.73537990570068,37.732444176954374L72.43183990478516,34.830878360343974L73.12829990386963,38.78996695921796L73.8247599029541,38.4502048448318L74.52121990203858,36.13605634276959L75.21767990112305,38.82025436794933L75.91413990020753,39.4824378293938L76.610599899292,41.04715212499559L77.30705989837647,41.12843402514014L78.00351989746095,41.14906567218381L78.6999798965454,41.940687259299324L79.39643989562988,40.40304492835125L80.09289989471435,44.32352933938395L80.78935989379882,39.12165746031829L81.4858198928833,40.034211804899456L82.18227989196777,40.460922921748846L82.87873989105225,46.339084726599594L83.57519989013672,43.24384733840347L84.27165988922118,39.11624495327851L84.96811988830567,39.95628679065416L85.66457988739013,40.168062915404334L86.36103988647461,42.054434772227836L87.05749988555908,41.21399689775171L87.75395988464355,41.45454228901477L88.45041988372803,44.59759644236556L89.1468798828125,32.33240287637622L89.84333988189698,38.01933533842748L90.53979988098145,47.812965084371626L91.23625988006592,39.8605683952519L91.9327198791504,47.93462390985482L92.62917987823486,44.86974936602823L93.32563987731935,44.630429803885676L94.02209987640381,49.590945358577756L94.71855987548828,49.544939048739565L95.41501987457276,48.78307682088811L96.11147987365722,37.972112628923554L96.8079398727417,46.59655598918047L97.50439987182617,48.77908816151907L98.20085987091063,42.060865660383115L98.89731986999512,47.094600931388726L99.59377986907958,50.775888363190916L100.29023986816406,40.504619015167606L100.98669986724853,46.27679374836816L101.683159866333,48.00278000895514L102.37961986541748,47.63460694733749L103.07607986450195,50.184435241999836L103.77253986358643,51.43270646486947L104.4689998626709,49.137388583989235L105.16545986175537,44.3211248284168L105.86191986083985,37.83058594223334L106.55837985992432,44.46302869329793L107.2548398590088,50.98079984486624L107.95129985809326,52.883654388633204L108.64775985717773,43.12635633193L109.34421985626221,51.574959219577224L110.04067985534668,48.74772579494356L110.73713985443116,51.385370601908264L111.43359985351563,45.3640979619654L112.1300598526001,46.27248448753684L112.82651985168458,49.25106066127955L113.52297985076903,47.918376959280664L114.21943984985352,45.033878455809685L114.91589984893798,51.084033515722695L115.61235984802245,44.87239904281947L116.30881984710693,49.87474365888525L117.0052798461914,46.82392843212543L117.70173984527588,45.40130659050024L118.39819984436035,44.30941344558855L119.09465984344482,51.321816076737235L119.7911198425293,51.8287718537061L120.48757984161377,51.556581212224344L121.18403984069825,54.14059128043937L121.88049983978271,50.079824870746506L122.57695983886718,52.53950757777754L123.27341983795166,44.64499831151019L123.96987983703613,49.92183435602237L124.66633983612061,46.63940343166965L125.36279983520508,53.93377504889986L126.05925983428955,47.09630766270266L126.75571983337403,44.62351801353694L127.4521798324585,41.93734923230963L128.14863983154297,49.385609551437625L128.84509983062745,48.13641424200023L129.54155982971193,46.23668084776318L130.23801982879638,47.61585176179369L130.93447982788086,47.313335993761484L131.63093982696532,52.961824568702625L132.3273998260498,53.8648551639629L133.02385982513428,46.45080490675187L133.72031982421873,56.1368351442796L134.41677982330322,50.4490728902083L135.1132398223877,25.516528941609522L135.80969982147215,53.04279529683967L136.50615982055663,49.497141142494456L137.20261981964111,53.29496720583802L137.8990798187256,52.9653794731521L138.59553981781005,54.26921847299991L139.29199981689453,27.36290105128532L139.98845981597898,40.49245501851024L140.68491981506347,49.55707475703261L141.38137981414795,54.23047284333704L142.07783981323243,51.397892917847L142.77429981231688,51.90812071562216L143.47075981140136,54.78156789809903L144.16721981048582,50.221681588353775L144.86367980957033,55.41864072148262L145.56013980865478,53.00303128606129L146.25659980773926,51.69799474545728L146.95305980682372,48.96735665551978L147.6495198059082,51.68003163411444L148.34597980499268,57.71069601101135L149.04243980407716,57.34613443057182L149.73889980316162,58.47111553228251L150.4353598022461,53.45945461490085L151.13181980133055,54.91069485176254L151.82827980041506,55.46154474070045L152.5247397994995,51.93810638180079L153.221199798584,55.835300039543796L153.91765979766845,53.717048460393784L154.61411979675293,53.69205097579015L155.3105797958374,57.41032072921264L156.0070397949219,51.697155523982474L156.70349979400635,50.548167030419336L157.3999597930908,55.62087423800237L158.09641979217528,58.936147953329964L158.79287979125976,43.99099961680881L159.48933979034425,55.87954304133943L160.1857997894287,55.75307519392193L160.88225978851318,57.7503280094229L161.57871978759763,58.81391393110562L162.27517978668214,54.5848789009859L162.9716397857666,59.160625553659585L163.66809978485108,60.4528757535912L164.36455978393553,47.33295868914442L165.06101978302001,57.70948904080039L165.7574797821045,58.598498036813L166.45393978118898,54.78528310327965L167.15039978027343,59.954133031729725L167.8468597793579,53.98897507714187L168.54331977844237,59.26511334200086L169.23977977752688,62.049508753600094L169.93623977661133,60.088267025877784L170.6326997756958,54.23013338296521L171.32915977478027,61.012315875827426L172.02561977386475,62.259578147036336L172.72207977294923,62.48612079796128L173.4185397720337,57.287124902601434L174.11499977111816,62.99302942765628L174.81145977020262,61.25009843684197L175.5079197692871,62.8115312821827L176.20437976837158,55.87364963210621L176.90083976745606,65.44378244101715L177.59729976654052,64.2540869911983L178.293759765625,60.20834170295909L178.99021976470945,59.71014588947446L179.68667976379396,62.448563279599824L180.38313976287841,63.929949483371274L181.0795997619629,62.82647696799813L181.77605976104735,63.72216201799013L182.47251976013183,64.46846564546588L183.1689797592163,65.38961965280016L183.8654397583008,65.34860152453696L184.56189975738525,65.794114974204L185.25835975646973,64.26203602157209L185.95481975555418,65.7244030150661L186.6512797546387,63.50281404105711L187.34773975372315,63.373470209933814L188.04419975280763,66.06487233856024L188.74065975189208,65.53240988642997L189.43711975097656,66.19674326356274L190.13357975006105,66.36602083565035L190.83003974914553,65.38405627448401L191.52649974822998,69.45539310297757L192.22295974731443,69.63857912085557L192.91941974639892,69.2738855280492L193.6158797454834,69.59882453953196L194.31233974456788,70.272540224164L195.00879974365233,71.2600304458274L195.7052597427368,68.78758025703351L196.40171974182127,70.43285038476233L197.09817974090578,72.2274264993692L197.79463973999023,70.15591672752969L198.4910997390747,73.52998309336787L199.18755973815917,72.80680048899588L199.88401973724365,71.68849544126458L200.58047973632813,70.27443554457341L201.2769397354126,74.10411430614067L201.97339973449706,74.65434185106353L202.66985973358155,74.38335817979275L203.366319732666,68.7495889837525L204.0627797317505,73.78776552795625L204.75923973083496,75.87975607556305L205.45569972991944,76.06822258811403L206.1521597290039,77.30475413979109L206.84861972808838,77.983920049282L207.54507972717286,76.15106034829614L208.24153972625734,76.09940579504882L208.9379997253418,77.58220641703626L209.63445972442625,77.33872846533875L210.33091972351073,77.65982968872883L211.0273797225952,79.35961149450122L211.7238397216797,79.73936864130769L212.42029972076415,78.15824237967324L213.11675971984863,82.21975371629318L213.81321971893308,82.28682542809459L214.5096797180176,81.52802305831703L215.20613971710205,79.9211779587888L215.90259971618653,84.41580301204908L216.59905971527098,84.50223339449978L217.29551971435546,84.27233857240299L217.99197971343995,85.40243515332811L218.68843971252443,87.19782220104548L219.38489971160888,87.93365441899564L220.08135971069336,87.93829371074405L220.77781970977782,87.14494181867767L221.47427970886233,88.38392031386836L222.17073970794678,88.81508213337065L222.86719970703126,90.54651390408912L223.56365970611571,90.97334288912316L224.2601197052002,89.99004877483382L224.95657970428468,93.93591256338846L225.65303970336916,93.34958906559397L226.3494997024536,94.24377011754966L227.04595970153807,95.20204788832582L227.74241970062255,97.18310090052653L228.43887969970703,96.66323148524582L229.1353396987915,97.99401043738051L229.83179969787597,99.43077646116542L230.52825969696045,99.48897977075269L231.2247196960449,99.6534813239977L231.9211796951294,101.42698260718657L232.61763969421386,102.83250884730803L233.31409969329835,103.6996556524291L234.0105596923828,104.8907325173722L234.70701969146728,105.59726741934219L235.40347969055176,106.6569212583845L236.09993968963624,107.83931359548153L236.7963996887207,109.06849960189031L237.49285968780518,109.28712622553319L238.18931968688963,111.37337423518314L238.88577968597414,111.88646387248195L239.5822396850586,113.42815143952771L240.27869968414308,114.08564846194994L240.97515968322753,114.83175878560284L241.671619682312,115.35207609998527L242.3680796813965,115.61351716302565L243.06453968048098,115.70635485999469" fill="none"></path></g><g><path style="fill: none;" stroke="rgb(204, 51, 17)" stroke-width="2px" d="M35.51945995330811,-5.662444168005408L36.21591995239258,9.165184873677987L36.91237995147705,11.186907124315297L37.608839950561524,13.737112597168561L38.305299949646,14.368895496424415L39.001759948730474,17.764404442416748L39.69821994781494,16.767333894703825L40.39467994689941,20.744970231116582L41.09113994598388,19.03819176990251L41.78759994506836,22.007621372515274L42.48405994415283,14.616286671852777L43.18051994323731,22.50929665481121L43.876979942321775,23.927043468318658L44.57343994140625,24.968573895286994L45.269899940490724,27.980464332743253L45.9663599395752,26.384821425485512L46.66281993865967,29.96173422240372L47.35927993774414,28.055513363282756L48.05573993682861,23.923535711143046L48.75219993591308,26.889580139492267L49.44865993499756,27.103308161380482L50.14511993408203,30.747000357002122L50.8415799331665,22.509881281007125L51.538039932250975,34.795829076952174L52.23449993133545,32.20913161412682L52.930959930419924,30.480448529474728L53.6274199295044,31.034542150854577L54.323879928588866,30.778230711210796L55.02033992767334,30.227145085903572L55.716799926757815,32.56449004670776L56.41325992584229,33.077923859105795L57.10971992492676,28.632954314680916L57.806179924011225,28.561959949693886L58.5026399230957,38.558388979444175L59.199099922180174,35.23099841473308L59.89555992126465,38.30602848135035L60.592019920349124,39.74987602566989L61.28847991943359,37.347043501466175L61.984939918518066,33.091125095788215L62.68139991760254,34.00070916211584L63.377859916687015,34.794546671103035L64.07431991577148,40.31612421425234L64.77077991485596,36.7364202987213L65.46723991394043,38.10940549042061L66.1636999130249,38.116053256035684L66.86015991210937,39.63262075556577L67.55661991119385,39.41871357403684L68.25307991027832,38.94607158298746L68.9495399093628,40.748681593061065L69.64599990844727,40.85825185752506L70.34245990753173,37.95778928712312L71.03891990661621,44.969494138618614L71.73537990570068,43.27507769261214L72.43183990478516,37.68213803573963L73.12829990386963,43.42484572277408L73.8247599029541,42.50929281157505L74.52121990203858,41.267339323403434L75.21767990112305,41.281021462279256L75.91413990020753,44.71907610820804L76.610599899292,44.0133662835307L77.30705989837647,44.37917255200031L78.00351989746095,44.81460591451483L78.6999798965454,45.70181388466577L79.39643989562988,46.42659006689442L80.09289989471435,48.46920798930901L80.78935989379882,45.31392383311746L81.4858198928833,44.32755571657208L82.18227989196777,44.36863042156392L82.87873989105225,48.89974746479629L83.57519989013672,46.09497500143229L84.27165988922118,44.1098767531339L84.96811988830567,42.3543951580165L85.66457988739013,44.75585098182333L86.36103988647461,46.47188916762465L87.05749988555908,46.817431537786746L87.75395988464355,47.47805913919365L88.45041988372803,49.74058137637289L89.1468798828125,39.26011957420724L89.84333988189698,43.35830206043997L90.53979988098145,51.95341981635238L91.23625988006592,45.79839036045237L91.9327198791504,52.369070182752836L92.62917987823486,49.51253001268424L93.32563987731935,50.892078104905664L94.02209987640381,54.270010547200854L94.71855987548828,52.31958440410335L95.41501987457276,53.414740140366575L96.11147987365722,45.770234008499756L96.8079398727417,51.85404279249815L97.50439987182617,53.062078531850744L98.20085987091063,49.323412867753945L98.89731986999512,50.475145332656055L99.59377986907958,54.57829714155423L100.29023986816406,46.125403851985226L100.98669986724853,50.53698369705839L101.683159866333,53.236438580061076L102.37961986541748,51.600795925655646L103.07607986450195,56.04091873032712L103.77253986358643,55.4062504179107L104.4689998626709,54.13073750020142L105.16545986175537,49.57150182283553L105.86191986083985,42.58547337668733L106.55837985992432,50.16859375798094L107.2548398590088,56.06264419412446L107.95129985809326,57.57769355143607L108.64775985717773,45.18453285472029L109.34421985626221,56.21836221024827L110.04067985534668,52.888802870939344L110.73713985443116,56.65878375433779L111.43359985351563,48.2212416171395L112.1300598526001,51.868205833567416L112.82651985168458,55.51567924055311L113.52297985076903,54.28875630328987L114.21943984985352,49.73732821447615L114.91589984893798,54.99624829491934L115.61235984802245,50.88731623024523L116.30881984710693,53.55030741164015L117.0052798461914,49.59519804268044L117.70173984527588,51.34627608241877L118.39819984436035,51.01499104787369L119.09465984344482,55.115248014156506L119.7911198425293,58.41716962152532L120.48757984161377,56.126104424747766L121.18403984069825,58.13429540778557L121.88049983978271,55.549266958455064L122.57695983886718,55.05246670427687L123.27341983795166,50.18297367651L123.96987983703613,54.507547942391284L124.66633983612061,53.70665720123377L125.36279983520508,57.994909207328874L126.05925983428955,52.64156256678734L126.75571983337403,52.66911543363449L127.4521798324585,48.47803395897668L128.14863983154297,55.252333427648566L128.84509983062745,52.29378541584401L129.54155982971193,50.9910685211142L130.23801982879638,52.15676600853537L130.93447982788086,52.96322955746382L131.63093982696532,58.04602628165412L132.3273998260498,59.29144037972749L133.02385982513428,52.02302805148777L133.72031982421873,61.89333812364718L134.41677982330322,55.07369240697123L135.1132398223877,33.05683959823304L135.80969982147215,57.06060111058605L136.50615982055663,56.17534503757315L137.20261981964111,57.97648405270213L137.8990798187256,56.607723256741195L138.59553981781005,58.05257032326668L139.29199981689453,33.86244506677713L139.98845981597898,46.031354470077844L140.68491981506347,56.01895753016045L141.38137981414795,57.58290803992563L142.07783981323243,56.569335946359686L142.77429981231688,56.13745748829463L143.47075981140136,58.560940518451545L144.16721981048582,54.41965599445075L144.86367980957033,61.02491362740436L145.56013980865478,56.83830171430904L146.25659980773926,57.39323455716371L146.95305980682372,53.89111619550613L147.6495198059082,58.33803763706905L148.34597980499268,63.44770830736282L149.04243980407716,61.36364793122024L149.73889980316162,63.10201506592436L150.4353598022461,57.798512523313704L151.13181980133055,58.66279748891111L151.82827980041506,60.537514539634984L152.5247397994995,58.538224961903026L153.221199798584,61.63352835628257L153.91765979766845,60.06725820064321L154.61411979675293,58.43086118985593L155.3105797958374,61.504335396435636L156.0070397949219,57.110039741961685L156.70349979400635,56.37438196892481L157.3999597930908,60.69253477610559L158.09641979217528,63.013104736868314L158.79287979125976,53.47506036255042L159.48933979034425,60.23756358330108L160.1857997894287,61.40154490995353L160.88225978851318,63.162316429198654L161.57871978759763,64.01325871629206L162.27517978668214,60.32952905570362L162.9716397857666,62.22789517899855L163.66809978485108,64.67958170838196L164.36455978393553,54.02652316604856L165.06101978302001,62.55999114665414L165.7574797821045,63.18082644891835L166.45393978118898,60.602304323381304L167.15039978027343,65.76714673355278L167.8468597793579,58.57136006597587L168.54331977844237,65.51156136192655L169.23977977752688,67.260348044155L169.93623977661133,63.787564716296714L170.6326997756958,61.37583078678715L171.32915977478027,65.50241479079659L172.02561977386475,67.8029754485307L172.72207977294923,66.58926317740467L173.4185397720337,62.81905598709166L174.11499977111816,66.97121267244589L174.81145977020262,64.33853718814665L175.5079197692871,67.3044967514029L176.20437976837158,61.30999433356101L176.90083976745606,69.47671310021967L177.59729976654052,69.09512192445982L178.293759765625,64.2387452682824L178.99021976470945,65.24204868560037L179.68667976379396,67.2058457955662L180.38313976287841,68.09634464543296L181.0795997619629,68.66490305043483L181.77605976104735,69.34176817296111L182.47251976013183,68.98730553858361L183.1689797592163,68.3846973723959L183.8654397583008,70.12522385224307L184.56189975738525,69.92291490008513L185.25835975646973,68.75534095116411L185.95481975555418,70.53240656825724L186.6512797546387,68.28010586005212L187.34773975372315,66.23423477574079L188.04419975280763,70.44372254611577L188.74065975189208,69.98411206156288L189.43711975097656,70.34324227605308L190.13357975006105,70.03241915836573L190.83003974914553,69.89013811529367L191.52649974822998,72.98181116958555L192.22295974731443,74.16877207752017L192.91941974639892,73.7422401203115L193.6158797454834,72.95957651523047L194.31233974456788,74.9061648702353L195.00879974365233,74.82414747261844L195.7052597427368,71.77968769837571L196.40171974182127,72.74342512346554L197.09817974090578,75.15998693381896L197.79463973999023,74.53069341062321L198.4910997390747,77.13650437827377L199.18755973815917,75.89473004974282L199.88401973724365,74.31809692330778L200.58047973632813,73.52752200567208L201.2769397354126,77.77574597625517L201.97339973449706,78.21017038710897L202.66985973358155,76.95634521537795L203.366319732666,74.18903597582766L204.0627797317505,76.13751022178712L204.75923973083496,78.13876112611192L205.45569972991944,79.38312855470546L206.1521597290039,79.68343783032076L206.84861972808838,79.68280605685095L207.54507972717286,78.74315145925175L208.24153972625734,78.09894996805967L208.9379997253418,80.75975351594721L209.63445972442625,79.55629577688698L210.33091972351073,79.87242767761163L211.0273797225952,80.50617190346027L211.7238397216797,80.86372268427597L212.42029972076415,80.0535062123478L213.11675971984863,84.25687426657501L213.81321971893308,83.98176520884098L214.5096797180176,81.92012336142155L215.20613971710205,82.55073700828552L215.90259971618653,85.60684687390048L216.59905971527098,85.79890600872L217.29551971435546,86.14286894520758L217.99197971343995,86.43156113254236L218.68843971252443,88.0064403803896L219.38489971160888,89.05942759490729L220.08135971069336,89.28474441671172L220.77781970977782,87.87060436965498L221.47427970886233,88.62935959215869L222.17073970794678,89.24121805347886L222.86719970703126,90.88013272869057L223.56365970611571,90.97166444617353L224.2601197052002,89.43056150532372L224.95657970428468,93.01413149731177L225.65303970336916,92.70666526552365L226.3494997024536,92.99540931485967L227.04595970153807,94.18665590998869L227.74241970062255,95.08220423288647L228.43887969970703,95.15112411782343L229.1353396987915,95.31157572024335L229.83179969787597,96.69541892911396L230.52825969696045,96.85200916980428L231.2247196960449,96.60940344267328L231.9211796951294,97.19095092162517L232.61763969421386,98.98465952639292L233.31409969329835,98.78365183899366L234.0105596923828,99.90607755846084L234.70701969146728,99.87403627114168L235.40347969055176,100.75144232305593L236.09993968963624,101.38074056097905L236.7963996887207,102.09885011868307L237.49285968780518,102.02464030961839L238.18931968688963,102.94651567024282L238.88577968597414,103.0554965937835L239.5822396850586,104.00525956689951L240.27869968414308,104.47203172235261L240.97515968322753,104.66062553254301L241.671619682312,105.0543854196876L242.3680796813965,105.11771835267147L243.06453968048098,105.17314468782804" fill="none"></path></g></g></g></g></g></g><g transform="translate(51, 177)" clip-path="url(#clip_1)"><clipPath id="clip_1"><rect width="278" height="22"></rect></clipPath><g><g><line x1="0" y1="0" x2="0" y2="5" style="visibility: inherit;" fill="rgb(0, 0, 0)" stroke="rgb(204, 204, 204)" stroke-width="1px"></line><line x1="34.82299995422363" y1="0" x2="34.82299995422363" y2="5" style="visibility: inherit;" fill="rgb(0, 0, 0)" stroke="rgb(204, 204, 204)" stroke-width="1px"></line><line x1="69.64599990844727" y1="0" x2="69.64599990844727" y2="5" style="visibility: inherit;" fill="rgb(0, 0, 0)" stroke="rgb(204, 204, 204)" stroke-width="1px"></line><line x1="104.4689998626709" y1="0" x2="104.4689998626709" y2="5" style="visibility: inherit;" fill="rgb(0, 0, 0)" stroke="rgb(204, 204, 204)" stroke-width="1px"></line><line x1="139.29199981689453" y1="0" x2="139.29199981689453" y2="5" style="visibility: inherit;" fill="rgb(0, 0, 0)" stroke="rgb(204, 204, 204)" stroke-width="1px"></line><line x1="174.11499977111816" y1="0" x2="174.11499977111816" y2="5" style="visibility: inherit;" fill="rgb(0, 0, 0)" stroke="rgb(204, 204, 204)" stroke-width="1px"></line><line x1="208.9379997253418" y1="0" x2="208.9379997253418" y2="5" style="visibility: inherit;" fill="rgb(0, 0, 0)" stroke="rgb(204, 204, 204)" stroke-width="1px"></line><line x1="243.76099967956543" y1="0" x2="243.76099967956543" y2="5" style="visibility: inherit;" fill="rgb(0, 0, 0)" stroke="rgb(204, 204, 204)" stroke-width="1px"></line><line x1="278.58399963378906" y1="0" x2="278.58399963378906" y2="5" style="visibility: inherit;" fill="rgb(0, 0, 0)" stroke="rgb(204, 204, 204)" stroke-width="1px"></line></g><g transform="translate(0, 8)"><text style="text-anchor: middle; visibility: hidden; font-family: &quot;Helvetica Neue&quot;, sans-serif; font-size: 12px; font-weight: 200;" x="0" y="0" dx="0em" dy="0.95em" fill="rgb(50, 49, 63)" stroke="none" stroke-width="1px">-50</text><text style="text-anchor: middle; visibility: inherit; font-family: &quot;Helvetica Neue&quot;, sans-serif; font-size: 12px; font-weight: 200;" x="34.82299995422363" y="0" dx="0em" dy="0.95em" fill="rgb(50, 49, 63)" stroke="none" stroke-width="1px">0</text><text style="text-anchor: middle; visibility: inherit; font-family: &quot;Helvetica Neue&quot;, sans-serif; font-size: 12px; font-weight: 200;" x="69.64599990844727" y="0" dx="0em" dy="0.95em" fill="rgb(50, 49, 63)" stroke="none" stroke-width="1px">50</text><text style="text-anchor: middle; visibility: inherit; font-family: &quot;Helvetica Neue&quot;, sans-serif; font-size: 12px; font-weight: 200;" x="104.4689998626709" y="0" dx="0em" dy="0.95em" fill="rgb(50, 49, 63)" stroke="none" stroke-width="1px">100</text><text style="text-anchor: middle; visibility: inherit; font-family: &quot;Helvetica Neue&quot;, sans-serif; font-size: 12px; font-weight: 200;" x="139.29199981689453" y="0" dx="0em" dy="0.95em" fill="rgb(50, 49, 63)" stroke="none" stroke-width="1px">150</text><text style="text-anchor: middle; visibility: inherit; font-family: &quot;Helvetica Neue&quot;, sans-serif; font-size: 12px; font-weight: 200;" x="174.11499977111816" y="0" dx="0em" dy="0.95em" fill="rgb(50, 49, 63)" stroke="none" stroke-width="1px">200</text><text style="text-anchor: middle; visibility: inherit; font-family: &quot;Helvetica Neue&quot;, sans-serif; font-size: 12px; font-weight: 200;" x="208.9379997253418" y="0" dx="0em" dy="0.95em" fill="rgb(50, 49, 63)" stroke="none" stroke-width="1px">250</text><text style="text-anchor: middle; visibility: inherit; font-family: &quot;Helvetica Neue&quot;, sans-serif; font-size: 12px; font-weight: 200;" x="243.76099967956543" y="0" dx="0em" dy="0.95em" fill="rgb(50, 49, 63)" stroke="none" stroke-width="1px">300</text><text style="text-anchor: middle; visibility: hidden; font-family: &quot;Helvetica Neue&quot;, sans-serif; font-size: 12px; font-weight: 200;" x="278.58399963378906" y="0" dx="0em" dy="0.95em" fill="rgb(50, 49, 63)" stroke="none" stroke-width="1px">350</text></g><line x1="0" y1="0" x2="278.58399963378906" y2="0" fill="rgb(0, 0, 0)" stroke="rgb(204, 204, 204)" stroke-width="1px"></line></g></g></g></g></svg>