<svg viewBox="0 0 330 200" xmlns="http://www.w3.org/2000/svg"><g><g><g><g><g><line x1="51.41600036621094" y1="177.9749994277954" x2="46.41600036621094" y2="177.9749994277954" style="visibility: inherit;" fill="rgb(0, 0, 0)" stroke="rgb(204, 204, 204)" stroke-width="1px"></line><line x1="51.41600036621094" y1="164.28461485642654" x2="46.41600036621094" y2="164.28461485642654" style="visibility: inherit;" fill="rgb(0, 0, 0)" stroke="rgb(204, 204, 204)" stroke-width="1px"></line><line x1="51.41600036621094" y1="150.59423028505765" x2="46.41600036621094" y2="150.59423028505765" style="visibility: inherit;" fill="rgb(0, 0, 0)" stroke="rgb(204, 204, 204)" stroke-width="1px"></line><line x1="51.41600036621094" y1="136.90384571368878" x2="46.41600036621094" y2="136.90384571368878" style="visibility: inherit;" fill="rgb(0, 0, 0)" stroke="rgb(204, 204, 204)" stroke-width="1px"></line><line x1="51.41600036621094" y1="123.21346114231989" x2="46.41600036621094" y2="123.21346114231989" style="visibility: inherit;" fill="rgb(0, 0, 0)" stroke="rgb(204, 204, 204)" stroke-width="1px"></line><line x1="51.41600036621094" y1="109.52307657095103" x2="46.41600036621094" y2="109.52307657095103" style="visibility: inherit;" fill="rgb(0, 0, 0)" stroke="rgb(204, 204, 204)" stroke-width="1px"></line><line x1="51.41600036621094" y1="95.83269199958215" x2="46.41600036621094" y2="95.83269199958215" style="visibility: inherit;" fill="rgb(0, 0, 0)" stroke="rgb(204, 204, 204)" stroke-width="1px"></line><line x1="51.41600036621094" y1="82.14230742821327" x2="46.41600036621094" y2="82.14230742821327" style="visibility: inherit;" fill="rgb(0, 0, 0)" stroke="rgb(204, 204, 204)" stroke-width="1px"></line><line x1="51.41600036621094" y1="68.4519228568444" x2="46.41600036621094" y2="68.4519228568444" style="visibility: inherit;" fill="rgb(0, 0, 0)" stroke="rgb(204, 204, 204)" stroke-width="1px"></line><line x1="51.41600036621094" y1="54.76153828547551" x2="46.41600036621094" y2="54.76153828547551" style="visibility: inherit;" fill="rgb(0, 0, 0)" stroke="rgb(204, 204, 204)" stroke-width="1px"></line><line x1="51.41600036621094" y1="41.07115371410666" x2="46.41600036621094" y2="41.07115371410666" style="visibility: inherit;" fill="rgb(0, 0, 0)" stroke="rgb(204, 204, 204)" stroke-width="1px"></line><line x1="51.41600036621094" y1="27.380769142737762" x2="46.41600036621094" y2="27.380769142737762" style="visibility: inherit;" fill="rgb(0, 0, 0)" stroke="rgb(204, 204, 204)" stroke-width="1px"></line><line x1="51.41600036621094" y1="13.690384571368867" x2="46.41600036621094" y2="13.690384571368867" style="visibility: inherit;" fill="rgb(0, 0, 0)" stroke="rgb(204, 204, 204)" stroke-width="1px"></line><line x1="51.41600036621094" y1="0" x2="46.41600036621094" y2="0" style="visibility: inherit;" fill="rgb(0, 0, 0)" stroke="rgb(204, 204, 204)" stroke-width="1px"></line></g><g transform="translate(41.41600036621094, 0)"><text style="text-anchor: end; visibility: hidden; font-family: &quot;Helvetica Neue&quot;, sans-serif; font-size: 12px; font-weight: 200;" x="0" y="177.9749994277954" dx="0em" dy="0.3em" fill="rgb(50, 49, 63)" stroke="none" stroke-width="1px">-0.1</text><text style="text-anchor: end; visibility: inherit; font-family: &quot;Helvetica Neue&quot;, sans-serif; font-size: 12px; font-weight: 200;" x="0" y="164.28461485642654" dx="0em" dy="0.3em" fill="rgb(50, 49, 63)" stroke="none" stroke-width="1px">0</text><text style="text-anchor: end; visibility: hidden; font-family: &quot;Helvetica Neue&quot;, sans-serif; font-size: 12px; font-weight: 200;" x="0" y="150.59423028505765" dx="0em" dy="0.3em" fill="rgb(50, 49, 63)" stroke="none" stroke-width="1px">0.1</text><text style="text-anchor: end; visibility: inherit; font-family: &quot;Helvetica Neue&quot;, sans-serif; font-size: 12px; font-weight: 200;" x="0" y="136.90384571368878" dx="0em" dy="0.3em" fill="rgb(50, 49, 63)" stroke="none" stroke-width="1px">0.2</text><text style="text-anchor: end; visibility: hidden; font-family: &quot;Helvetica Neue&quot;, sans-serif; font-size: 12px; font-weight: 200;" x="0" y="123.21346114231989" dx="0em" dy="0.3em" fill="rgb(50, 49, 63)" stroke="none" stroke-width="1px">0.3</text><text style="text-anchor: end; visibility: inherit; font-family: &quot;Helvetica Neue&quot;, sans-serif; font-size: 12px; font-weight: 200;" x="0" y="109.52307657095103" dx="0em" dy="0.3em" fill="rgb(50, 49, 63)" stroke="none" stroke-width="1px">0.4</text><text style="text-anchor: end; visibility: hidden; font-family: &quot;Helvetica Neue&quot;, sans-serif; font-size: 12px; font-weight: 200;" x="0" y="95.83269199958215" dx="0em" dy="0.3em" fill="rgb(50, 49, 63)" stroke="none" stroke-width="1px">0.5</text><text style="text-anchor: end; visibility: inherit; font-family: &quot;Helvetica Neue&quot;, sans-serif; font-size: 12px; font-weight: 200;" x="0" y="82.14230742821327" dx="0em" dy="0.3em" fill="rgb(50, 49, 63)" stroke="none" stroke-width="1px">0.6</text><text style="text-anchor: end; visibility: hidden; font-family: &quot;Helvetica Neue&quot;, sans-serif; font-size: 12px; font-weight: 200;" x="0" y="68.4519228568444" dx="0em" dy="0.3em" fill="rgb(50, 49, 63)" stroke="none" stroke-width="1px">0.7</text><text style="text-anchor: end; visibility: inherit; font-family: &quot;Helvetica Neue&quot;, sans-serif; font-size: 12px; font-weight: 200;" x="0" y="54.76153828547551" dx="0em" dy="0.3em" fill="rgb(50, 49, 63)" stroke="none" stroke-width="1px">0.8</text><text style="text-anchor: end; visibility: hidden; font-family: &quot;Helvetica Neue&quot;, sans-serif; font-size: 12px; font-weight: 200;" x="0" y="41.07115371410666" dx="0em" dy="0.3em" fill="rgb(50, 49, 63)" stroke="none" stroke-width="1px">0.9</text><text style="text-anchor: end; visibility: inherit; font-family: &quot;Helvetica Neue&quot;, sans-serif; font-size: 12px; font-weight: 200;" x="0" y="27.380769142737762" dx="0em" dy="0.3em" fill="rgb(50, 49, 63)" stroke="none" stroke-width="1px">1</text><text style="text-anchor: end; visibility: hidden; font-family: &quot;Helvetica Neue&quot;, sans-serif; font-size: 12px; font-weight: 200;" x="0" y="13.690384571368867" dx="0em" dy="0.3em" fill="rgb(50, 49, 63)" stroke="none" stroke-width="1px">1.1</text><text style="text-anchor: end; visibility: hidden; font-family: &quot;Helvetica Neue&quot;, sans-serif; font-size: 12px; font-weight: 200;" x="0" y="0" dx="0em" dy="0.3em" fill="rgb(50, 49, 63)" stroke="none" stroke-width="1px">1.2</text></g><line x1="51.41600036621094" y1="0" x2="51.41600036621094" y2="177.9749994277954" fill="rgb(0, 0, 0)" stroke="rgb(204, 204, 204)" stroke-width="1px"></line></g></g><g transform="translate(51, 0)" clip-path="url(#clip_0)"><clipPath id="clip_0"><rect width="278" height="177"></rect></clipPath><g><g><g><line x1="0" y1="0" x2="0" y2="177.9749994277954" fill="rgb(0, 0, 0)" stroke="rgb(60, 60, 60)" stroke-width="1px" opacity="0.25"></line><line x1="34.82299995422363" y1="0" x2="34.82299995422363" y2="177.9749994277954" fill="rgb(0, 0, 0)" stroke="rgb(60, 60, 60)" stroke-width="1px" opacity="0.25"></line><line x1="69.64599990844727" y1="0" x2="69.64599990844727" y2="177.9749994277954" fill="rgb(0, 0, 0)" stroke="rgb(60, 60, 60)" stroke-width="1px" opacity="0.25"></line><line x1="104.4689998626709" y1="0" x2="104.4689998626709" y2="177.9749994277954" fill="rgb(0, 0, 0)" stroke="rgb(60, 60, 60)" stroke-width="1px" opacity="0.25"></line><line x1="139.29199981689453" y1="0" x2="139.29199981689453" y2="177.9749994277954" fill="rgb(0, 0, 0)" stroke="rgb(60, 60, 60)" stroke-width="1px" opacity="0.25"></line><line x1="174.11499977111816" y1="0" x2="174.11499977111816" y2="177.9749994277954" fill="rgb(0, 0, 0)" stroke="rgb(60, 60, 60)" stroke-width="1px" opacity="0.25"></line><line x1="208.9379997253418" y1="0" x2="208.9379997253418" y2="177.9749994277954" fill="rgb(0, 0, 0)" stroke="rgb(60, 60, 60)" stroke-width="1px" opacity="0.25"></line><line x1="243.76099967956543" y1="0" x2="243.76099967956543" y2="177.9749994277954" fill="rgb(0, 0, 0)" stroke="rgb(60, 60, 60)" stroke-width="1px" opacity="0.25"></line><line x1="278.58399963378906" y1="0" x2="278.58399963378906" y2="177.9749994277954" fill="rgb(0, 0, 0)" stroke="rgb(60, 60, 60)" stroke-width="1px" opacity="0.25"></line></g><g><line x1="0" y1="177.9749994277954" x2="278.58399963378906" y2="177.9749994277954" fill="rgb(0, 0, 0)" stroke="rgb(60, 60, 60)" stroke-width="1px" opacity="0.25"></line><line x1="0" y1="164.28461485642654" x2="278.58399963378906" y2="164.28461485642654" fill="rgb(0, 0, 0)" stroke="rgb(60, 60, 60)" stroke-width="1px" opacity="0.25"></line><line x1="0" y1="150.59423028505765" x2="278.58399963378906" y2="150.59423028505765" fill="rgb(0, 0, 0)" stroke="rgb(60, 60, 60)" stroke-width="1px" opacity="0.25"></line><line x1="0" y1="136.90384571368878" x2="278.58399963378906" y2="136.90384571368878" fill="rgb(0, 0, 0)" stroke="rgb(60, 60, 60)" stroke-width="1px" opacity="0.25"></line><line x1="0" y1="123.21346114231989" x2="278.58399963378906" y2="123.21346114231989" fill="rgb(0, 0, 0)" stroke="rgb(60, 60, 60)" stroke-width="1px" opacity="0.25"></line><line x1="0" y1="109.52307657095103" x2="278.58399963378906" y2="109.52307657095103" fill="rgb(0, 0, 0)" stroke="rgb(60, 60, 60)" stroke-width="1px" opacity="0.25"></line><line x1="0" y1="95.83269199958215" x2="278.58399963378906" y2="95.83269199958215" fill="rgb(0, 0, 0)" stroke="rgb(60, 60, 60)" stroke-width="1px" opacity="0.25"></line><line x1="0" y1="82.14230742821327" x2="278.58399963378906" y2="82.14230742821327" fill="rgb(0, 0, 0)" stroke="rgb(60, 60, 60)" stroke-width="1px" opacity="0.25"></line><line x1="0" y1="68.4519228568444" x2="278.58399963378906" y2="68.4519228568444" fill="rgb(0, 0, 0)" stroke="rgb(60, 60, 60)" stroke-width="1px" opacity="0.25"></line><line x1="0" y1="54.76153828547551" x2="278.58399963378906" y2="54.76153828547551" fill="rgb(0, 0, 0)" stroke="rgb(60, 60, 60)" stroke-width="1px" opacity="0.25"></line><line x1="0" y1="41.07115371410666" x2="278.58399963378906" y2="41.07115371410666" fill="rgb(0, 0, 0)" stroke="rgb(60, 60, 60)" stroke-width="1px" opacity="0.25"></line><line x1="0" y1="27.380769142737762" x2="278.58399963378906" y2="27.380769142737762" fill="rgb(0, 0, 0)" stroke="rgb(60, 60, 60)" stroke-width="1px" opacity="0.25"></line><line x1="0" y1="13.690384571368867" x2="278.58399963378906" y2="13.690384571368867" fill="rgb(0, 0, 0)" stroke="rgb(60, 60, 60)" stroke-width="1px" opacity="0.25"></line><line x1="0" y1="0" x2="278.58399963378906" y2="0" fill="rgb(0, 0, 0)" stroke="rgb(60, 60, 60)" stroke-width="1px" opacity="0.25"></line></g></g></g><g><g><line x1="0" y1="164.28461485642654" x2="278.58399963378906" y2="164.28461485642654" fill="rgb(0, 0, 0)" stroke="rgb(153, 153, 153)" stroke-width="1.5px"></line></g></g><g><g><line x1="34.82299995422363" y1="0" x2="34.82299995422363" y2="177.9749994277954" fill="rgb(0, 0, 0)" stroke="rgb(153, 153, 153)" stroke-width="1.5px"></line></g></g><g><g><g><g><g><path style="fill: none;" stroke="rgb(51, 187, 238)" stroke-width="2px" d="M34.82299995422363,162.87724331620652L35.51945995330811,153.7703990062168L36.21591995239258,145.55616793699127L36.91237995147705,138.9574030729899L37.608839950561524,134.53814719839224L38.305299949646,130.76781552114267L39.001759948730474,128.62116115486623L39.69821994781494,124.1635731865982L40.39467994689941,125.4696347270696L41.09113994598388,120.54931167934106L41.78759994506836,119.27336908676477L42.48405994415283,118.23563628203851L43.18051994323731,117.63873683470544L43.876979942321775,114.55839916373273L44.57343994140625,110.67306712541948L45.269899940490724,111.4068727359361L45.9663599395752,110.08986033443102L46.66281993865967,106.80142774345086L47.35927993774414,108.59486788076109L48.05573993682861,105.97452757399047L48.75219993591308,105.83215006034264L49.44865993499756,102.75181238936993L50.14511993408203,102.49443451465845L50.8415799331665,101.71134186938525L51.538039932250975,102.45609834093554L52.23449993133545,103.10776433359457L52.930959930419924,99.71802403789539L53.6274199295044,100.96384768257656L54.323879928588866,98.41195841737144L55.02033992767334,96.14483233956705L55.716799926757815,98.47767582373106L56.41325992584229,95.21114495481824L57.10971992492676,95.43293661122284L57.806179924011225,94.41710960861646L58.5026399230957,92.80985450914127L59.199099922180174,93.95710816436181L59.89555992126465,93.7900871333357L60.592019920349124,93.26985595339592L61.28847991943359,89.95951348024334L61.984939918518066,92.25676258599539L62.68139991760254,91.5749858055463L63.377859916687015,89.20380614765939L64.07431991577148,90.78915136496215L64.77077991485596,87.57739112142784L65.46723991394043,89.25309318241597L66.1636999130249,87.38572657302343L66.86015991210937,85.97561145246948L67.55661991119385,87.30906238568268L68.25307991027832,86.7641795282595L68.9495399093628,89.06142863401158L69.64599990844727,85.95097609519628L70.34245990753173,87.71155956935296L71.03891990661621,85.34312170677698L71.73537990570068,86.13989884828972L72.43183990478516,84.0315806557362L73.12829990386963,83.66193605516692L73.8247599029541,84.64491047467232L74.52121990203858,81.99445122000658L75.21767990112305,85.60871680731627L75.91413990020753,82.03278739372949L76.610599899292,81.74802420632876L77.30705989837647,83.59348909365399L78.00351989746095,81.27159647052363L78.6999798965454,83.64825155892738L79.39643989562988,85.2774083804699L80.09289989471435,80.58434425955772L80.78935989379882,83.76051012468008L81.4858198928833,81.4577855884112L82.18227989196777,82.47361259101758L82.87873989105225,81.88219265425388L83.57519989013672,82.37778031681538L84.27165988922118,85.32395361991553L84.96811988830567,82.9281386047554L85.66457988739013,79.23446703479401L86.36103988647461,78.33638218856224L87.05749988555908,79.56577546164036L87.75395988464355,78.37745199749102L88.45041988372803,78.87852325067446L89.1468798828125,79.92172740586501L89.84333988189698,78.95244564270425L90.53979988098145,76.49091730123705L91.23625988006592,81.43588386634386L91.9327198791504,75.80365693016604L92.62917987823486,79.1714955037979L93.32563987731935,77.05496008541658L94.02209987640381,74.94116646234623L94.71855987548828,79.78208352742307L95.41501987457276,77.7394786611766L96.11147987365722,79.86423130538573L96.8079398727417,78.08721337957346L97.50439987182617,76.70722536701973L98.20085987091063,74.67557136180694L98.89731986999512,74.65914507025646L99.59377986907958,78.91137583377547L100.29023986816406,75.34639728122237L100.98669986724853,73.19153384922322L101.683159866333,75.29985204177675L102.37961986541748,73.57212931082616L103.07607986450195,75.88032927761188L103.77253986358643,71.83892298925365L104.4689998626709,73.21070193608467L105.16545986175537,74.60985803549988L105.86191986083985,71.28309743090189L106.55837985992432,70.6204805772092L107.2548398590088,70.92714548667723L107.95129985809326,72.95605769657905L108.64775985717773,75.66127941651821L109.34421985626221,73.93903211608446L110.04067985534668,71.95939878083414L110.73713985443116,70.07012228926918L111.43359985351563,72.92868054399491L112.1300598526001,67.32657255571219L112.82651985168458,72.91498788765027L113.52297985076903,68.19454661415394L114.21943984985352,66.59550874050653L114.91589984893798,71.28309743090189L115.61235984802245,73.08748434919323L116.30881984710693,71.21464230928386L117.0052798461914,67.73181153469342L117.70173984527588,69.85381422348647L118.39819984436035,68.00014027043858L119.09465984344482,66.84741118470119L119.7911198425293,65.30861120684403L120.48757984161377,64.47075609629744L121.18403984069825,67.04455116362242L121.88049983978271,69.00501641201129L122.57695983886718,68.79418377674544L123.27341983795166,68.07954625309027L123.96987983703613,66.21217964369774L124.66633983612061,71.73213985401777L125.36279983520508,63.20576844480735L126.05925983428955,66.70776730625924L126.75571983337403,71.04487948294677L127.4521798324585,62.63350843480002L128.14863983154297,68.07954625309027L128.84509983062745,67.9727631178544L129.54155982971193,65.6152761163121L130.23801982879638,63.197551218979555L130.93447982788086,66.35455715734555L131.63093982696532,62.455536542740234L132.3273998260498,65.64539506420724L133.02385982513428,60.840072377542356L133.72031982421873,62.822439347998554L134.41677982330322,65.48932489421479L135.1132398223877,63.52338421530908L135.80969982147215,61.45066040116751L136.50615982055663,62.97576772268003L137.20261981964111,62.04756392855313L137.8990798187256,62.502081782185854L138.59553981781005,63.92588139897933L139.29199981689453,62.0913673726878L139.98845981597898,58.7180615286442L140.68491981506347,58.04996924443466L141.38137981414795,60.47042777697308L142.07783981323243,62.19815866802875L142.77429981231688,59.67090884014938L143.47075981140136,60.919470200088966L144.16721981048582,61.30554109220873L144.86367980957033,61.083757595909205L145.56013980865478,59.920077649138165L146.25659980773926,61.25899585276309L146.95305980682372,61.33018460958702L147.6495198059082,58.31829798017979L148.34597980499268,60.39923902014917L149.04243980407716,56.99580606810535L149.73889980316162,58.663299063370786L150.4353598022461,54.56165487922229L151.13181980133055,56.22914787448772L151.82827980041506,58.438773771760296L152.5247397994995,62.1789905811673L153.221199798584,56.75759628025533L153.91765979766845,57.50782818232244L154.61411979675293,58.271752740734186L155.3105797958374,59.717454079595L156.0070397949219,55.52820300717721L156.70349979400635,55.829384326023344L157.3999597930908,55.659629659791364L158.09641979217528,56.27843490924431L158.79287979125976,54.93403311499745L159.48933979034425,54.840942636106206L160.1857997894287,50.627039886205026L160.88225978851318,55.90879030867505L161.57871978759763,53.63070928978445L162.27517978668214,53.11595354036149L162.9716397857666,56.007364378188214L163.66809978485108,52.22881955516337L164.36455978393553,54.23035461248105L165.06101978302001,58.164969605498314L165.7574797821045,52.68881283931293L166.45393978118898,53.61975842875077L167.15039978027343,55.48986683345427L167.8468597793579,51.26227958731357L168.54331977844237,51.83179780200996L169.23977977752688,50.30669048049742L169.93623977661133,50.336809428392556L170.6326997756958,50.11501777198794L171.32915977478027,51.04870515673676L172.02561977386475,51.659293180361914L172.72207977294923,53.868927237739555L173.4185397720337,50.33954306359843L174.11499977111816,50.03014451892449L174.81145977020262,49.57014307466986L175.5079197692871,47.3933697604983L176.20437976837158,49.879549779448865L176.90083976745606,47.30027928160703L177.59729976654052,48.121699940498075L178.293759765625,47.264684903195075L178.99021976470945,49.15669502996593L179.68667976379396,45.75873750843894L180.38313976287841,47.979322426850246L181.0795997619629,44.56768040908375L181.77605976104735,48.93216973835544L182.47251976013183,44.33220425643958L183.1689797592163,44.825058283795215L183.8654397583008,44.55672954805007L184.56189975738525,45.397318293802556L185.25835975646973,43.98994496855957L185.95481975555418,42.47304671276973L186.6512797546387,40.882226064950146L187.34773975372315,44.90993969696376L188.04419975280763,43.98994496855957L188.74065975189208,41.41341626602869L189.43711975097656,42.14995551175119L190.13357975006105,42.013053428620196L190.83003974914553,40.24972815915254L191.52649974822998,41.794003567526545L192.22295974731443,43.08911832701685L192.91941974639892,41.72281481070263L193.6158797454834,40.16484674598402L194.31233974456788,38.58771875450904L195.00879974365233,39.781517649175186L195.7052597427368,39.3735450349881L196.40171974182127,41.260079731242115L197.09817974090578,38.335816310314385L197.79463973999023,37.49248576925095L198.4910997390747,36.33428125299673L199.18755973815917,36.56975740564087L199.88401973724365,36.23844897879454L200.58047973632813,35.417028319903494L201.2769397354126,34.800956705656404L201.97339973449706,35.304761594045715L202.66985973358155,36.279518787723305L203.366319732666,36.17273565248743L204.0627797317505,34.275250095199794L204.75923973083496,33.902871859424636L205.45569972991944,34.24513114730465L206.1521597290039,33.72215817205392L206.84861972808838,32.90620478357462L207.54507972717286,33.319660988383646L208.24153972625734,31.972525558930897L208.9379997253418,31.235978153103332L209.63445972442625,31.597405527844785L210.33091972351073,30.784202094781563L211.0273797225952,30.71300517785255L211.7238397216797,30.321467015321048L212.42029972076415,30.146228758467146L213.11675971984863,29.636948439561024L213.81321971893308,29.387779630572254L214.5096797180176,28.883974742182943L215.20613971710205,28.779925242152927L215.90259971618653,28.607428780610007L216.59905971527098,28.311714732175602L217.29551971435546,28.054336857464136L217.99197971343995,28.183021714767307L218.68843971252443,27.898266687471676L219.38489971160888,27.85719687854288L220.08135971069336,27.75862280902973L220.77781970977782,27.755889173823846L221.47427970886233,27.64088881276018L222.17073970794678,27.59433541320948L222.86719970703126,27.520413021179706L223.56365970611571,27.542314743247033L224.2601197052002,27.523146656385563L224.95657970428468,27.512195795351914L225.65303970336916,27.46565055590628L226.3494997024536,27.493027708490445L227.04595970153807,27.487552277973606L227.74241970062255,27.476601416939957L228.43887969970703,27.46017512538947L229.1353396987915,27.468384191112165L229.83179969787597,27.45195789956165L230.52825969696045,27.443748833838953L231.2247196960449,27.471125986423118L231.9211796951294,27.45195789956165L232.61763969421386,27.438265243217046L233.31409969329835,27.438265243217046L234.0105596923828,27.443748833838953L234.70701969146728,27.441007038528L235.40347969055176,27.443748833838953L236.09993968963624,27.443748833838953L236.7963996887207,27.44922426435579L237.49285968780518,27.45195789956165L238.18931968688963,27.45195789956165L238.88577968597414,27.462908760595326L239.5822396850586,27.462908760595326L240.27869968414308,27.43553160801116L240.97515968322753,27.42458074697751L241.671619682312,27.443748833838953L242.3680796813965,27.43553160801116L243.06453968048098,27.432789812700207" fill="none"></path></g><g><path style="fill: none;" stroke="rgb(0, 119, 187)" stroke-width="2px" d="M34.82299995422363,162.92926679120512L35.51945995330811,155.07098613618453L36.21591995239258,146.21330732014087L36.91237995147705,139.38180605878006L37.608839950561524,134.82290630574045L38.305299949646,130.5104356064049L39.001759948730474,129.92175134487337L39.69821994781494,124.93844860604361L40.39467994689941,125.65034841444034L41.09113994598388,120.94085800197766L41.78759994506836,120.17419572830751L42.48405994415283,119.62657923567846L43.18051994323731,119.25693871516174L43.876979942321775,116.6420779189605L44.57343994140625,113.05519764434008L45.269899940490724,113.46590797378559L45.9663599395752,111.86413238487978L46.66281993865967,109.2766487412627L47.35927993774414,110.54985361858057L48.05573993682861,108.93438945338268L48.75219993591308,109.23557893233392L49.44865993499756,105.97726528924888L50.14511993408203,106.44273808396781L50.8415799331665,105.99095794559351L51.538039932250975,107.29154405554809L52.23449993133545,107.7980866591958L52.930959930419924,103.88263975303998L53.6274199295044,104.08799287773647L54.323879928588866,104.95048742560883L55.02033992767334,102.11657676831393L55.716799926757815,103.97847202724219L56.41325992584229,102.02074449411172L57.10971992492676,102.49990994517529L57.806179924011225,101.3636071509884L58.5026399230957,100.25468558943822L59.199099922180174,100.99396663047168L59.89555992126465,102.55467241044869L60.592019920349124,101.13087279365521L61.28847991943359,98.1463673968847L61.984939918518066,101.45943942519061L62.68139991760254,101.15824994623937L63.377859916687015,99.953496110487L64.07431991577148,98.80350474000804L64.77077991485596,99.02255052104914L65.46723991394043,99.63861805524368L66.1636999130249,99.21421506945354L66.86015991210937,98.35172460163373L67.55661991119385,97.91362895949896L68.25307991027832,99.28267019107159L68.9495399093628,101.1445613699473L69.64599990844727,99.04993175368585L70.34245990753173,98.33803194528912L71.03891990661621,98.83088597264475L71.73537990570068,98.3654131779258L72.43183990478516,98.02315389004579L73.12829990386963,97.66720194582115L73.8247599029541,97.81779668529677L74.52121990203858,97.13327810953672L75.21767990112305,98.84457862898937L75.91413990020753,97.17434791846551L76.610599899292,98.96778805577573L77.30705989837647,98.66660265687705L78.00351989746095,98.0505351226825L78.6999798965454,98.70767246580584L79.39643989562988,98.78981616371595L80.09289989471435,96.76363758902L80.78935989379882,98.51600791740142L81.4858198928833,97.88624772686227L82.18227989196777,98.62552876789572L82.87873989105225,97.91362895949896L83.57519989013672,99.77552421842722L84.27165988922118,100.61063753366287L84.96811988830567,101.3225373420596L85.66457988739013,97.16065934217343L86.36103988647461,96.33923460322987L87.05749988555908,97.22911038373894L87.75395988464355,97.13327810953672L88.45041988372803,97.74934564373126L89.1468798828125,99.03624317739377L89.84333988189698,99.11838279525135L90.53979988098145,97.53029986269016L91.23625988006592,100.77492084943057L91.9327198791504,97.09220830060794L92.62917987823486,100.19992312416481L93.32563987731935,97.81779668529677L94.02209987640381,96.69518654745451L94.71855987548828,99.59754824631489L95.41501987457276,98.74874227473462L96.11147987365722,100.32313663100372L96.8079398727417,98.42017564319923L97.50439987182617,99.41957227420258L98.20085987091063,98.72136512215046L98.89731986999512,97.9273216158436L99.59377986907958,100.03563980839712L100.29023986816406,99.07731298632257L100.98669986724853,97.99577265740908L101.683159866333,98.81719739635265L102.37961986541748,98.62552876789572L103.07607986450195,98.50231526105681L103.77253986358643,96.9279209047877L104.4689998626709,98.46124545212803L105.16545986175537,100.66539591888373L105.86191986083985,98.11898616424799L106.55837985992432,97.18804057481015L107.2548398590088,98.3791017542179L107.95129985809326,98.48862668476471L108.64775985717773,100.51480525946067L109.34421985626221,98.87195578157353L110.04067985534668,99.77552421842722L110.73713985443116,96.8868510958589L111.43359985351563,99.51540454840477L112.1300598526001,95.88745446485557L112.82651985168458,101.25408630049412L113.52297985076903,97.07851564426332L114.21943984985352,96.6678053148178L114.91589984893798,99.48802331576807L115.61235984802245,100.04933246474174L116.30881984710693,100.24099701314614L117.0052798461914,98.16005597317678L117.70173984527588,99.61123682260698L118.39819984436035,98.3106507126524L119.09465984344482,98.3654131779258L119.7911198425293,97.13327810953672L120.48757984161377,96.81840005429342L121.18403984069825,98.2421996710869L121.88049983978271,99.5701670136782L122.57695983886718,100.03563980839712L123.27341983795166,99.87135649262942L123.96987983703613,98.54338915003814L124.66633983612061,100.82968331470397L125.36279983520508,98.51600791740142L126.05925983428955,98.61184019160362L126.75571983337403,101.44575084889851L127.4521798324585,97.10589687690003L128.14863983154297,99.51540454840477L128.84509983062745,99.89873772526613L129.54155982971193,98.4064829868546L130.23801982879638,98.94041090319156L130.93447982788086,100.28206682207494L131.63093982696532,97.40708635585125L132.3273998260498,99.81659402735602L133.02385982513428,96.90054375220355L133.72031982421873,100.28206682207494L134.41677982330322,98.74874227473462L135.1132398223877,99.5564784373861L135.80969982147215,98.00946123370117L136.50615982055663,99.953496110487L137.20261981964111,98.95409947948366L137.8990798187256,98.3791017542179L138.59553981781005,99.09100156261464L139.29199981689453,98.02315389004579L139.98845981597898,98.3106507126524L140.68491981506347,98.73505369844253L141.38137981414795,99.74814298579051L142.07783981323243,100.30944805471164L142.77429981231688,99.24159630209026L143.47075981140136,100.06302104103383L144.16721981048582,99.7207617531538L144.86367980957033,100.73385104050178L145.56013980865478,98.72136512215046L146.25659980773926,100.0767096173259L146.95305980682372,100.0767096173259L147.6495198059082,98.5296964936935L148.34597980499268,101.61003416466622L149.04243980407716,99.26897753472696L149.73889980316162,98.54338915003814L150.4353598022461,98.21481843845021L151.13181980133055,98.2421996710869L151.82827980041506,99.4469535068393L152.5247397994995,100.73385104050178L153.221199798584,99.20052649316148L153.91765979766845,100.50111260311604L154.61411979675293,100.15885331523603L155.3105797958374,101.02134786310839L156.0070397949219,100.14516473894395L156.70349979400635,98.70767246580584L157.3999597930908,99.07731298632257L158.09641979217528,100.19992312416481L158.79287979125976,99.22790772579816L159.48933979034425,99.67969194422501L160.1857997894287,97.06482706797124L160.88225978851318,99.69338052051711L161.57871978759763,99.65231071158831L162.27517978668214,99.13207545159597L162.9716397857666,100.48742402682396L163.66809978485108,99.7892127947193L164.36455978393553,99.83028260364809L165.06101978302001,101.18563117887608L165.7574797821045,100.1725418915281L166.45393978118898,100.19992312416481L167.15039978027343,101.67848520623171L167.8468597793579,99.35112123263707L168.54331977844237,100.50111260311604L169.23977977752688,97.89994038320688L169.93623977661133,97.84517791793348L170.6326997756958,99.33742857629245L171.32915977478027,99.25528895843487L172.02561977386475,99.41957227420258L172.72207977294923,102.03443715045636L173.4185397720337,99.36480980892917L174.11499977111816,99.09100156261464L174.81145977020262,98.73505369844253L175.5079197692871,98.68029123316913L176.20437976837158,99.91242630155821L176.90083976745606,97.74934564373126L177.59729976654052,99.15945668423268L178.293759765625,98.84457862898937L178.99021976470945,100.04933246474174L179.68667976379396,97.96839142477239L180.38313976287841,100.92551558890618L181.0795997619629,98.11898616424799L181.77605976104735,99.81659402735602L182.47251976013183,98.88564843791815L183.1689797592163,98.42017564319923L183.8654397583008,98.58445895896693L184.56189975738525,99.92611895790283L185.25835975646973,99.24159630209026L185.95481975555418,98.47493810847264L186.6512797546387,97.51661128639809L187.34773975372315,99.11838279525135L188.04419975280763,99.61123682260698L188.74065975189208,98.10529758795592L189.43711975097656,98.06422369897459L190.13357975006105,97.83148934164139L190.83003974914553,97.84517791793348L191.52649974822998,98.61184019160362L192.22295974731443,100.06302104103383L192.91941974639892,100.1725418915281L193.6158797454834,98.47493810847264L194.31233974456788,97.28387284901234L195.00879974365233,99.20052649316148L195.7052597427368,98.22851109479483L196.40171974182127,99.37850246527378L197.09817974090578,98.54338915003814L197.79463973999023,98.57077038267484L198.4910997390747,97.80410810900469L199.18755973815917,97.89994038320688L199.88401973724365,97.66720194582115L200.58047973632813,98.74874227473462L201.2769397354126,97.28387284901234L201.97339973449706,97.02375725904245L202.66985973358155,97.47553739741676L203.366319732666,98.02315389004579L204.0627797317505,98.02315389004579L204.75923973083496,96.69518654745451L205.45569972991944,97.88624772686227L206.1521597290039,97.43446758848796L206.84861972808838,96.94161356113233L207.54507972717286,96.50352199905011L208.24153972625734,96.48982934270549L208.9379997253418,95.39460043749993L209.63445972442625,96.33923460322987L210.33091972351073,96.68149389110988L211.0273797225952,95.83269199958215L211.7238397216797,95.24400569802431L212.42029972076415,95.54519517697555L213.11675971984863,95.61364213848849L213.81321971893308,94.73745901432406L214.5096797180176,94.03924778221939L215.20613971710205,94.47734750440671L215.90259971618653,94.44996219171745L216.59905971527098,93.97080082070644L217.29551971435546,93.6148488764818L217.99197971343995,94.0940102474928L218.68843971252443,93.45056148066156L219.38489971160888,93.4231843280774L220.08135971069336,93.24521243601762L220.77781970977782,92.58807101284175L221.47427970886233,92.35533665550855L222.17073970794678,92.41009912078198L222.86719970703126,92.56069386025757L223.56365970611571,92.43747627336613L224.2601197052002,91.87616712439245L224.95657970428468,91.54760049285706L225.65303970336916,91.83509731546366L226.3494997024536,91.87616712439245L227.04595970153807,91.68450257598806L227.74241970062255,91.68450257598806L228.43887969970703,91.5202233402729L229.1353396987915,91.31486613552387L229.83179969787597,91.2327265176663L230.52825969696045,91.26010367025046L231.2247196960449,91.2327265176663L231.9211796951294,90.97260684764386L232.61763969421386,90.76724964289483L233.31409969329835,90.94522153495461L234.0105596923828,90.84938926075239L234.70701969146728,90.79462679547899L235.40347969055176,90.67141736869262L236.09993968963624,90.6987945212768L236.7963996887207,90.84938926075239L237.49285968780518,90.8083194518236L238.18931968688963,90.83570476451285L238.88577968597414,90.76724964289483L239.5822396850586,90.86308191709703L240.27869968414308,90.86308191709703L240.97515968322753,90.76724964289483L241.671619682312,90.79462679547899L242.3680796813965,90.56189243814579L243.06453968048098,90.72617983396604" fill="none"></path></g></g></g></g></g></g><g transform="translate(51, 177)" clip-path="url(#clip_1)"><clipPath id="clip_1"><rect width="278" height="22"></rect></clipPath><g><g><line x1="0" y1="0" x2="0" y2="5" style="visibility: inherit;" fill="rgb(0, 0, 0)" stroke="rgb(204, 204, 204)" stroke-width="1px"></line><line x1="34.82299995422363" y1="0" x2="34.82299995422363" y2="5" style="visibility: inherit;" fill="rgb(0, 0, 0)" stroke="rgb(204, 204, 204)" stroke-width="1px"></line><line x1="69.64599990844727" y1="0" x2="69.64599990844727" y2="5" style="visibility: inherit;" fill="rgb(0, 0, 0)" stroke="rgb(204, 204, 204)" stroke-width="1px"></line><line x1="104.4689998626709" y1="0" x2="104.4689998626709" y2="5" style="visibility: inherit;" fill="rgb(0, 0, 0)" stroke="rgb(204, 204, 204)" stroke-width="1px"></line><line x1="139.29199981689453" y1="0" x2="139.29199981689453" y2="5" style="visibility: inherit;" fill="rgb(0, 0, 0)" stroke="rgb(204, 204, 204)" stroke-width="1px"></line><line x1="174.11499977111816" y1="0" x2="174.11499977111816" y2="5" style="visibility: inherit;" fill="rgb(0, 0, 0)" stroke="rgb(204, 204, 204)" stroke-width="1px"></line><line x1="208.9379997253418" y1="0" x2="208.9379997253418" y2="5" style="visibility: inherit;" fill="rgb(0, 0, 0)" stroke="rgb(204, 204, 204)" stroke-width="1px"></line><line x1="243.76099967956543" y1="0" x2="243.76099967956543" y2="5" style="visibility: inherit;" fill="rgb(0, 0, 0)" stroke="rgb(204, 204, 204)" stroke-width="1px"></line><line x1="278.58399963378906" y1="0" x2="278.58399963378906" y2="5" style="visibility: inherit;" fill="rgb(0, 0, 0)" stroke="rgb(204, 204, 204)" stroke-width="1px"></line></g><g transform="translate(0, 8)"><text style="text-anchor: middle; visibility: hidden; font-family: &quot;Helvetica Neue&quot;, sans-serif; font-size: 12px; font-weight: 200;" x="0" y="0" dx="0em" dy="0.95em" fill="rgb(50, 49, 63)" stroke="none" stroke-width="1px">-50</text><text style="text-anchor: middle; visibility: inherit; font-family: &quot;Helvetica Neue&quot;, sans-serif; font-size: 12px; font-weight: 200;" x="34.82299995422363" y="0" dx="0em" dy="0.95em" fill="rgb(50, 49, 63)" stroke="none" stroke-width="1px">0</text><text style="text-anchor: middle; visibility: inherit; font-family: &quot;Helvetica Neue&quot;, sans-serif; font-size: 12px; font-weight: 200;" x="69.64599990844727" y="0" dx="0em" dy="0.95em" fill="rgb(50, 49, 63)" stroke="none" stroke-width="1px">50</text><text style="text-anchor: middle; visibility: inherit; font-family: &quot;Helvetica Neue&quot;, sans-serif; font-size: 12px; font-weight: 200;" x="104.4689998626709" y="0" dx="0em" dy="0.95em" fill="rgb(50, 49, 63)" stroke="none" stroke-width="1px">100</text><text style="text-anchor: middle; visibility: inherit; font-family: &quot;Helvetica Neue&quot;, sans-serif; font-size: 12px; font-weight: 200;" x="139.29199981689453" y="0" dx="0em" dy="0.95em" fill="rgb(50, 49, 63)" stroke="none" stroke-width="1px">150</text><text style="text-anchor: middle; visibility: inherit; font-family: &quot;Helvetica Neue&quot;, sans-serif; font-size: 12px; font-weight: 200;" x="174.11499977111816" y="0" dx="0em" dy="0.95em" fill="rgb(50, 49, 63)" stroke="none" stroke-width="1px">200</text><text style="text-anchor: middle; visibility: inherit; font-family: &quot;Helvetica Neue&quot;, sans-serif; font-size: 12px; font-weight: 200;" x="208.9379997253418" y="0" dx="0em" dy="0.95em" fill="rgb(50, 49, 63)" stroke="none" stroke-width="1px">250</text><text style="text-anchor: middle; visibility: inherit; font-family: &quot;Helvetica Neue&quot;, sans-serif; font-size: 12px; font-weight: 200;" x="243.76099967956543" y="0" dx="0em" dy="0.95em" fill="rgb(50, 49, 63)" stroke="none" stroke-width="1px">300</text><text style="text-anchor: middle; visibility: hidden; font-family: &quot;Helvetica Neue&quot;, sans-serif; font-size: 12px; font-weight: 200;" x="278.58399963378906" y="0" dx="0em" dy="0.95em" fill="rgb(50, 49, 63)" stroke="none" stroke-width="1px">350</text></g><line x1="0" y1="0" x2="278.58399963378906" y2="0" fill="rgb(0, 0, 0)" stroke="rgb(204, 204, 204)" stroke-width="1px"></line></g></g></g></g></svg>