<svg viewBox="0 0 330 200" xmlns="http://www.w3.org/2000/svg"><g><g><g><g><g><line x1="51.41600036621094" y1="177.9749994277954" x2="46.41600036621094" y2="177.9749994277954" style="visibility: inherit;" fill="rgb(0, 0, 0)" stroke="rgb(204, 204, 204)" stroke-width="1px"></line><line x1="51.41600036621094" y1="155.72812449932098" x2="46.41600036621094" y2="155.72812449932098" style="visibility: inherit;" fill="rgb(0, 0, 0)" stroke="rgb(204, 204, 204)" stroke-width="1px"></line><line x1="51.41600036621094" y1="133.48124957084656" x2="46.41600036621094" y2="133.48124957084656" style="visibility: inherit;" fill="rgb(0, 0, 0)" stroke="rgb(204, 204, 204)" stroke-width="1px"></line><line x1="51.41600036621094" y1="111.23437464237213" x2="46.41600036621094" y2="111.23437464237213" style="visibility: inherit;" fill="rgb(0, 0, 0)" stroke="rgb(204, 204, 204)" stroke-width="1px"></line><line x1="51.41600036621094" y1="88.9874997138977" x2="46.41600036621094" y2="88.9874997138977" style="visibility: inherit;" fill="rgb(0, 0, 0)" stroke="rgb(204, 204, 204)" stroke-width="1px"></line><line x1="51.41600036621094" y1="66.74062478542328" x2="46.41600036621094" y2="66.74062478542328" style="visibility: inherit;" fill="rgb(0, 0, 0)" stroke="rgb(204, 204, 204)" stroke-width="1px"></line><line x1="51.41600036621094" y1="44.49374985694885" x2="46.41600036621094" y2="44.49374985694885" style="visibility: inherit;" fill="rgb(0, 0, 0)" stroke="rgb(204, 204, 204)" stroke-width="1px"></line><line x1="51.41600036621094" y1="22.246874928474426" x2="46.41600036621094" y2="22.246874928474426" style="visibility: inherit;" fill="rgb(0, 0, 0)" stroke="rgb(204, 204, 204)" stroke-width="1px"></line><line x1="51.41600036621094" y1="0" x2="46.41600036621094" y2="0" style="visibility: inherit;" fill="rgb(0, 0, 0)" stroke="rgb(204, 204, 204)" stroke-width="1px"></line></g><g transform="translate(41.41600036621094, 0)"><text style="text-anchor: end; visibility: hidden; font-family: &quot;Helvetica Neue&quot;, sans-serif; font-size: 12px; font-weight: 200;" x="0" y="177.9749994277954" dx="0em" dy="0.3em" fill="rgb(50, 49, 63)" stroke="none" stroke-width="1px">-0.5</text><text style="text-anchor: end; visibility: inherit; font-family: &quot;Helvetica Neue&quot;, sans-serif; font-size: 12px; font-weight: 200;" x="0" y="155.72812449932098" dx="0em" dy="0.3em" fill="rgb(50, 49, 63)" stroke="none" stroke-width="1px">0</text><text style="text-anchor: end; visibility: hidden; font-family: &quot;Helvetica Neue&quot;, sans-serif; font-size: 12px; font-weight: 200;" x="0" y="133.48124957084656" dx="0em" dy="0.3em" fill="rgb(50, 49, 63)" stroke="none" stroke-width="1px">0.5</text><text style="text-anchor: end; visibility: inherit; font-family: &quot;Helvetica Neue&quot;, sans-serif; font-size: 12px; font-weight: 200;" x="0" y="111.23437464237213" dx="0em" dy="0.3em" fill="rgb(50, 49, 63)" stroke="none" stroke-width="1px">1</text><text style="text-anchor: end; visibility: hidden; font-family: &quot;Helvetica Neue&quot;, sans-serif; font-size: 12px; font-weight: 200;" x="0" y="88.9874997138977" dx="0em" dy="0.3em" fill="rgb(50, 49, 63)" stroke="none" stroke-width="1px">1.5</text><text style="text-anchor: end; visibility: inherit; font-family: &quot;Helvetica Neue&quot;, sans-serif; font-size: 12px; font-weight: 200;" x="0" y="66.74062478542328" dx="0em" dy="0.3em" fill="rgb(50, 49, 63)" stroke="none" stroke-width="1px">2</text><text style="text-anchor: end; visibility: hidden; font-family: &quot;Helvetica Neue&quot;, sans-serif; font-size: 12px; font-weight: 200;" x="0" y="44.49374985694885" dx="0em" dy="0.3em" fill="rgb(50, 49, 63)" stroke="none" stroke-width="1px">2.5</text><text style="text-anchor: end; visibility: inherit; font-family: &quot;Helvetica Neue&quot;, sans-serif; font-size: 12px; font-weight: 200;" x="0" y="22.246874928474426" dx="0em" dy="0.3em" fill="rgb(50, 49, 63)" stroke="none" stroke-width="1px">3</text><text style="text-anchor: end; visibility: hidden; font-family: &quot;Helvetica Neue&quot;, sans-serif; font-size: 12px; font-weight: 200;" x="0" y="0" dx="0em" dy="0.3em" fill="rgb(50, 49, 63)" stroke="none" stroke-width="1px">3.5</text></g><line x1="51.41600036621094" y1="0" x2="51.41600036621094" y2="177.9749994277954" fill="rgb(0, 0, 0)" stroke="rgb(204, 204, 204)" stroke-width="1px"></line></g></g><g transform="translate(51, 0)" clip-path="url(#clip_0)"><clipPath id="clip_0"><rect width="278" height="177"></rect></clipPath><g><g><g><line x1="0" y1="0" x2="0" y2="177.9749994277954" fill="rgb(0, 0, 0)" stroke="rgb(60, 60, 60)" stroke-width="1px" opacity="0.25"></line><line x1="34.82299995422363" y1="0" x2="34.82299995422363" y2="177.9749994277954" fill="rgb(0, 0, 0)" stroke="rgb(60, 60, 60)" stroke-width="1px" opacity="0.25"></line><line x1="69.64599990844727" y1="0" x2="69.64599990844727" y2="177.9749994277954" fill="rgb(0, 0, 0)" stroke="rgb(60, 60, 60)" stroke-width="1px" opacity="0.25"></line><line x1="104.4689998626709" y1="0" x2="104.4689998626709" y2="177.9749994277954" fill="rgb(0, 0, 0)" stroke="rgb(60, 60, 60)" stroke-width="1px" opacity="0.25"></line><line x1="139.29199981689453" y1="0" x2="139.29199981689453" y2="177.9749994277954" fill="rgb(0, 0, 0)" stroke="rgb(60, 60, 60)" stroke-width="1px" opacity="0.25"></line><line x1="174.11499977111816" y1="0" x2="174.11499977111816" y2="177.9749994277954" fill="rgb(0, 0, 0)" stroke="rgb(60, 60, 60)" stroke-width="1px" opacity="0.25"></line><line x1="208.9379997253418" y1="0" x2="208.9379997253418" y2="177.9749994277954" fill="rgb(0, 0, 0)" stroke="rgb(60, 60, 60)" stroke-width="1px" opacity="0.25"></line><line x1="243.76099967956543" y1="0" x2="243.76099967956543" y2="177.9749994277954" fill="rgb(0, 0, 0)" stroke="rgb(60, 60, 60)" stroke-width="1px" opacity="0.25"></line><line x1="278.58399963378906" y1="0" x2="278.58399963378906" y2="177.9749994277954" fill="rgb(0, 0, 0)" stroke="rgb(60, 60, 60)" stroke-width="1px" opacity="0.25"></line></g><g><line x1="0" y1="177.9749994277954" x2="278.58399963378906" y2="177.9749994277954" fill="rgb(0, 0, 0)" stroke="rgb(60, 60, 60)" stroke-width="1px" opacity="0.25"></line><line x1="0" y1="155.72812449932098" x2="278.58399963378906" y2="155.72812449932098" fill="rgb(0, 0, 0)" stroke="rgb(60, 60, 60)" stroke-width="1px" opacity="0.25"></line><line x1="0" y1="133.48124957084656" x2="278.58399963378906" y2="133.48124957084656" fill="rgb(0, 0, 0)" stroke="rgb(60, 60, 60)" stroke-width="1px" opacity="0.25"></line><line x1="0" y1="111.23437464237213" x2="278.58399963378906" y2="111.23437464237213" fill="rgb(0, 0, 0)" stroke="rgb(60, 60, 60)" stroke-width="1px" opacity="0.25"></line><line x1="0" y1="88.9874997138977" x2="278.58399963378906" y2="88.9874997138977" fill="rgb(0, 0, 0)" stroke="rgb(60, 60, 60)" stroke-width="1px" opacity="0.25"></line><line x1="0" y1="66.74062478542328" x2="278.58399963378906" y2="66.74062478542328" fill="rgb(0, 0, 0)" stroke="rgb(60, 60, 60)" stroke-width="1px" opacity="0.25"></line><line x1="0" y1="44.49374985694885" x2="278.58399963378906" y2="44.49374985694885" fill="rgb(0, 0, 0)" stroke="rgb(60, 60, 60)" stroke-width="1px" opacity="0.25"></line><line x1="0" y1="22.246874928474426" x2="278.58399963378906" y2="22.246874928474426" fill="rgb(0, 0, 0)" stroke="rgb(60, 60, 60)" stroke-width="1px" opacity="0.25"></line><line x1="0" y1="0" x2="278.58399963378906" y2="0" fill="rgb(0, 0, 0)" stroke="rgb(60, 60, 60)" stroke-width="1px" opacity="0.25"></line></g></g></g><g><g><line x1="0" y1="155.72812449932098" x2="278.58399963378906" y2="155.72812449932098" fill="rgb(0, 0, 0)" stroke="rgb(153, 153, 153)" stroke-width="1.5px"></line></g></g><g><g><line x1="34.82299995422363" y1="0" x2="34.82299995422363" y2="177.9749994277954" fill="rgb(0, 0, 0)" stroke="rgb(153, 153, 153)" stroke-width="1.5px"></line></g></g><g><g><g><g><g><path style="fill: none;" stroke="rgb(238, 51, 119)" stroke-width="2px" d="M36.21591995239258,-3.511314437425085L36.91237995147705,8.150051026665267L37.608839950561524,16.072780293704966L38.305299949646,22.14368958357369L39.001759948730474,22.444695460160347L39.69821994781494,32.00537406197935L40.39467994689941,30.023699884445477L41.09113994598388,37.467938541112744L41.78759994506836,39.801251231319554L42.48405994415283,40.577077303008195L43.18051994323731,33.23852751148394L43.876979942321775,45.625531952914685L44.57343994140625,52.58950844039401L45.269899940490724,50.74697058276536L45.9663599395752,53.99528809711251L46.66281993865967,57.482713010869816L47.35927993774414,54.61225732291973L48.05573993682861,58.8868802308221L48.75219993591308,59.26399948765578L49.44865993499756,62.58449476356401L50.14511993408203,63.11777639957768L50.8415799331665,65.10486072678765L51.538039932250975,64.04656119318713L52.23449993133545,62.55868516716805L52.930959930419924,67.58084755046238L53.6274199295044,65.59398069005312L54.323879928588866,68.78400118960619L55.02033992767334,73.0761699554777L55.716799926757815,69.3314022554608L56.41325992584229,73.28160182518832L57.10971992492676,73.27927333920027L57.806179924011225,73.61431011806323L58.5026399230957,76.45510015195606L59.199099922180174,75.25380824078903L59.89555992126465,75.03973604380158L60.592019920349124,75.88841879779497L61.28847991943359,80.36078798042692L61.984939918518066,77.65278529667236L62.68139991760254,78.59382248807768L63.377859916687015,80.75239795188324L64.07431991577148,79.02939257768642L64.77077991485596,83.51073093983041L65.46723991394043,80.75038770999379L66.1636999130249,83.92270322952842L66.86015991210937,85.2121752763475L67.55661991119385,83.41458939764522L68.25307991027832,84.1140156693981L68.9495399093628,80.57499808319042L69.64599990844727,84.65937997302171L70.34245990753173,82.66083355419406L71.03891990661621,86.05869397047044L71.73537990570068,84.96862306769364L72.43183990478516,87.45413599805295L73.12829990386963,88.6351769764128L73.8247599029541,87.31233173178785L74.52121990203858,90.11993421026565L75.21767990112305,85.17267587964369L75.91413990020753,90.22382499625161L76.610599899292,90.9584119368308L77.30705989837647,88.94244165360513L78.00351989746095,90.93025263817356L78.6999798965454,88.66275813162426L79.39643989562988,85.31643204304683L80.09289989471435,92.8030608136468L80.78935989379882,87.48667645713417L81.4858198928833,91.12563329843692L82.18227989196777,90.05105027512502L82.87873989105225,90.72151102983756L83.57519989013672,89.72636173353467L84.27165988922118,85.12389966746588L84.96811988830567,89.42459207111139L85.66457988739013,94.13488054185208L86.36103988647461,95.35776531510871L87.05749988555908,93.4411349272591L87.75395988464355,94.956135958615L88.45041988372803,93.40368820499123L89.1468798828125,93.04191361777808L89.84333988189698,93.97008313946358L90.53979988098145,97.77229920334497L91.23625988006592,90.35042249867223L91.9327198791504,98.58685027776417L92.62917987823486,93.53181858315341L93.32563987731935,96.949245707425L94.02209987640381,99.44694208269215L94.71855987548828,92.69139956758684L95.41501987457276,95.8628133955088L96.11147987365722,92.07289216196975L96.8079398727417,95.53759975115577L97.50439987182617,97.20897002035574L98.20085987091063,100.03674917468439L98.89731986999512,99.99808782077355L99.59377986907958,93.8706265545847L100.29023986816406,98.31400369983476L100.98669986724853,101.47904203764821L101.683159866333,98.63259786693703L102.37961986541748,101.33350901136126L103.07607986450195,97.913212386134L103.77253986358643,103.28373536788575L104.4689998626709,101.60299811405051L105.16545986175537,99.3702823834092L105.86191986083985,104.05091050416095L106.55837985992432,105.15542968901391L107.2548398590088,104.58137567990207L107.95129985809326,101.62976244274225L108.64775985717773,97.21796041614101L109.34421985626221,100.07206896555999L110.04067985534668,102.9963980753337L110.73713985443116,105.83536350972793L111.43359985351563,101.07200783554671L112.1300598526001,108.71222120812806L112.82651985168458,101.75388824933046L113.52297985076903,108.15649805909521L114.21943984985352,109.41551414567886L114.91589984893798,103.77585212974631L115.61235984802245,100.58177401793617L116.30881984710693,103.83045220892839L117.0052798461914,108.9701845703799L117.70173984527588,105.8097819882693L118.39819984436035,108.1233158077485L119.09465984344482,109.95618434884821L119.7911198425293,111.56354512168434L120.48757984161377,112.66862918981231L121.18403984069825,109.34901173720937L121.88049983978271,106.75181634451687L122.57695983886718,106.55474899053095L123.27341983795166,107.94233038887819L123.96987983703613,110.09587759592597L124.66633983612061,102.71468309519014L125.36279983520508,114.1857200240823L126.05925983428955,109.54274813629667L126.75571983337403,103.70098520555212L127.4521798324585,114.58726981955137L128.14863983154297,107.82465963342312L128.84509983062745,107.99967267137649L129.54155982971193,110.92164147075229L130.23801982879638,114.02913331943752L130.93447982788086,109.62911958465503L131.63093982696532,115.19181426534266L132.3273998260498,111.22220710966923L133.02385982513428,117.38251381886711L133.72031982421873,114.31480513454026L134.41677982330322,111.0413702047116L135.1132398223877,113.68285456779174L135.80969982147215,116.47693697614761L136.50615982055663,114.44418992485774L137.20261981964111,115.8648474931855L137.8990798187256,115.16329959410865L138.59553981781005,113.2762818196332L139.29199981689453,115.25526153046565L139.98845981597898,119.94621667221676L140.68491981506347,120.74452138540275L141.38137981414795,117.4875741519154L142.07783981323243,115.47040249721753L142.77429981231688,118.51658727234282L143.47075981140136,116.89454749045905L144.16721981048582,116.45458828432386L144.86367980957033,116.49829115516326L145.56013980865478,118.39026292944015L146.25659980773926,116.54952315096855L146.95305980682372,116.73175237385753L147.6495198059082,120.06579954429755L148.34597980499268,117.60723128095252L149.04243980407716,121.95737881751951L149.73889980316162,119.58232841378212L150.4353598022461,124.79964073036834L151.13181980133055,122.77096985557462L151.82827980041506,120.39710491110449L152.5247397994995,114.97075661039108L153.221199798584,122.12004398444743L153.91765979766845,121.0074705718659L154.61411979675293,120.0980668438608L155.3105797958374,117.95298227780147L156.0070397949219,123.55224320541753L156.70349979400635,122.97130716767359L157.3999597930908,123.43166847256279L158.09641979217528,122.68099959686799L158.79287979125976,124.45149759871163L159.48933979034425,124.31195021351239L160.1857997894287,129.91684936574188L160.88225978851318,122.99721754136743L161.57871978759763,125.86092380239317L162.27517978668214,126.42559756669897L162.9716397857666,122.9222763602169L163.66809978485108,127.0658012637377L164.36455978393553,125.34062122153382L165.06101978302001,120.22623435050116L165.7574797821045,126.94065707603399L166.45393978118898,125.8389941319659L167.15039978027343,122.76778476255453L167.8468597793579,128.7086939901818L168.54331977844237,127.82588220864841L169.23977977752688,129.9936681870741L169.93623977661133,130.12133445925917L170.6326997756958,130.1498066979467L171.32915977478027,128.88353729794926L172.02561977386475,128.10758392862118L172.72207977294923,125.3183653509055L173.4185397720337,129.9111024077281L174.11499977111816,130.11213455277567L174.81145977020262,130.43152433012443L175.5079197692871,133.42244336549473L176.20437976837158,130.59509384069918L176.90083976745606,133.39296070179415L177.59729976654052,132.4364807155046L178.293759765625,133.55214905194495L178.99021976470945,130.73387478802763L179.68667976379396,135.28589649048638L180.38313976287841,132.38494108373732L181.0795997619629,136.5811340595583L181.77605976104735,131.55245165029405L182.47251976013183,136.9739241862136L183.1689797592163,136.52835990589193L183.8654397583008,136.7495475105171L184.56189975738525,135.64123459080548L185.25835975646973,137.29620600680832L185.95481975555418,138.84869751899564L186.6512797546387,140.94077587840002L187.34773975372315,135.94754320968497L188.04419975280763,137.3931298990692L188.74065975189208,140.1879190745274L189.43711975097656,139.35175392174537L190.13357975006105,139.3171554841599L190.83003974914553,141.50706738354035L191.52649974822998,139.75181194800228L192.22295974731443,138.17948454635302L192.91941974639892,139.89032901793232L193.6158797454834,141.5141682049902L194.31233974456788,143.40930650804813L195.00879974365233,141.92579705626517L195.7052597427368,142.65682894505966L196.40171974182127,140.20266968849722L197.09817974090578,143.58318049733194L197.79463973999023,144.65668944681107L198.4910997390747,145.75915463121103L199.18755973815917,145.66380405821255L199.88401973724365,145.96457788181067L200.58047973632813,146.90629266794255L201.2769397354126,147.6136909543652L201.97339973449706,147.11963688155447L202.66985973358155,145.9782385097428L203.366319732666,145.9964579843873L204.0627797317505,148.06516595580973L204.75923973083496,148.6227760271438L205.45569972991944,148.22223466766218L206.1521597290039,148.79432285645666L206.84861972808838,149.55066708524305L207.54507972717286,149.13238096523065L208.24153972625734,150.78903476540052L208.9379997253418,151.39518700689825L209.63445972442625,151.06981589801728L210.33091972351073,152.0356167898487L211.0273797225952,151.98812316768908L211.7238397216797,152.27216000373528L212.42029972076415,152.54949713849757L213.11675971984863,153.15223985858484L213.81321971893308,153.47269989746727L214.5096797180176,153.93229028917804L215.20613971710205,154.05185459701974L215.90259971618653,154.30475058501003L216.59905971527098,154.6076723905215L217.29551971435546,154.86211219389423L217.99197971343995,154.72848937012108L218.68843971252443,155.0651501055236L219.38489971160888,155.0897946716029L220.08135971069336,155.23625860331626L220.77781970977782,155.22220530857706L221.47427970886233,155.33080146616243L222.17073970794678,155.42387323737523L222.86719970703126,155.47397231733999L223.56365970611571,155.47340239934388L224.2601197052002,155.51503935629557L224.95657970428468,155.53588550501843L225.65303970336916,155.56585533496184L226.3494997024536,155.56865183246168L227.04595970153807,155.57406816676428L227.74241970062255,155.58049554765046L228.43887969970703,155.59627149396593L229.1353396987915,155.60101921523577L229.83179969787597,155.59903790745332L230.52825969696045,155.60845458665048L231.2247196960449,155.60620663548087L231.9211796951294,155.61197441610656L232.61763969421386,155.61977991203804L233.31409969329835,155.62643483952658L234.0105596923828,155.62439129181757L234.70701969146728,155.62538065594998L235.40347969055176,155.62673678811845L236.09993968963624,155.63000719169037L236.7963996887207,155.62264589076082L237.49285968780518,155.62069828245927L238.18931968688963,155.62651658640752L238.88577968597414,155.6262747436835L239.5822396850586,155.63110939158847L240.27869968414308,155.6300562439627L240.97515968322753,155.6343657787455L241.671619682312,155.62962754678537L242.3680796813965,155.6374486441365L243.06453968048098,155.6376286613143" fill="none"></path></g><g><path style="fill: none;" stroke="rgb(204, 51, 17)" stroke-width="2px" d="M36.21591995239258,-3.2144245178469077L36.91237995147705,7.830109626212277L37.608839950561524,16.11175458764609L38.305299949646,21.06579682163641L39.001759948730474,11.023307262682977L39.69821994781494,28.901751531126195L40.39467994689941,27.998129237578894L41.09113994598388,36.055772786149134L41.78759994506836,37.071660989543716L42.48405994415283,37.821762329929356L43.18051994323731,21.248458326092646L43.876979942321775,40.69912391481893L44.57343994140625,47.88268883032799L45.269899940490724,47.3960193466217L45.9663599395752,49.227779337444645L46.66281993865967,53.21832695480555L47.35927993774414,49.059269087239215L48.05573993682861,52.18669627666719L48.75219993591308,52.48605789207778L49.44865993499756,55.654824989913095L50.14511993408203,56.39914489584095L50.8415799331665,56.67818132148801L51.538039932250975,54.36352834359542L52.23449993133545,51.61661501471946L52.930959930419924,57.9739864258691L53.6274199295044,57.07538178094296L54.323879928588866,56.66708521058371L55.02033992767334,61.766649862724364L55.716799926757815,57.65829888820065L56.41325992584229,60.72556733485777L57.10971992492676,59.45993177102338L57.806179924011225,60.319381783685856L58.5026399230957,62.42169169086003L59.199099922180174,61.98052050511603L59.89555992126465,60.658863371792506L60.592019920349124,61.38621025912869L61.28847991943359,66.038949588707L61.984939918518066,61.79381730060766L62.68139991760254,60.43254938514582L63.377859916687015,63.78636481817682L64.07431991577148,63.487427528231024L64.77077991485596,63.87754175242395L65.46723991394043,63.16107881325968L66.1636999130249,64.39913322188261L66.86015991210937,64.72468632660747L67.55661991119385,64.98733318117695L68.25307991027832,63.72209011839749L68.9495399093628,59.86782523219108L69.64599990844727,63.71265948494249L70.34245990753173,64.58341777124167L71.03891990661621,63.28010210613377L71.73537990570068,63.66548510139427L72.43183990478516,63.81982288107565L73.12829990386963,65.17840693797268L73.8247599029541,65.69780252315104L74.52121990203858,66.24354871969297L75.21767990112305,62.09334864620416L75.91413990020753,65.16086108000354L76.610599899292,63.846003762253304L77.30705989837647,63.00579690941913L78.00351989746095,63.12436405241857L78.6999798965454,62.47330027551533L79.39643989562988,60.424572066407734L80.09289989471435,63.882007777940885L80.78935989379882,60.85606863155448L81.4858198928833,61.81893736812333L82.18227989196777,61.42053818923034L82.87873989105225,61.722360892336724L83.57519989013672,58.711474691813805L84.27165988922118,57.411086872412966L84.96811988830567,56.428677948190455L85.66457988739013,63.39650518926277L86.36103988647461,64.0896302278635L87.05749988555908,61.76998081762298L87.75395988464355,63.04567289497294L88.45041988372803,59.872227608888295L89.1468798828125,60.25318701117834L89.84333988189698,59.03182980959497L90.53979988098145,61.66476931862786L91.23625988006592,56.58810763344934L91.9327198791504,62.25016872985458L92.62917987823486,57.67255622381765L93.32563987731935,62.069607636449064L94.02209987640381,63.780031760614804L94.71855987548828,59.19800626974404L95.41501987457276,57.168489396054895L96.11147987365722,56.913554656808L96.8079398727417,58.2788218397755L97.50439987182617,58.35784184945635L98.20085987091063,58.73474894355763L98.89731986999512,61.50666565044645L99.59377986907958,56.30541140066845L100.29023986816406,58.45381366145563L100.98669986724853,61.145267652083305L101.683159866333,57.64484777096675L102.37961986541748,57.935542538758966L103.07607986450195,58.37391317643534L103.77253986358643,60.18568743786659L104.4689998626709,58.920104914715296L105.16545986175537,54.135994421237456L105.86191986083985,59.36918977037766L106.55837985992432,61.63706086577696L107.2548398590088,58.58244792610725L107.95129985809326,57.523957446047575L108.64775985717773,51.893879881551015L109.34421985626221,55.32268423234734L110.04067985534668,56.326086658940426L110.73713985443116,59.46499185219102L111.43359985351563,54.62480674854095L112.1300598526001,61.336415665835375L112.82651985168458,51.05759803926617L113.52297985076903,59.54838241415922L114.21943984985352,61.488409047323785L114.91589984893798,54.00188635809002L115.61235984802245,49.7732709387077L116.30881984710693,51.92979903214564L117.0052798461914,56.33519904829683L117.70173984527588,53.16357836171079L118.39819984436035,57.22498833169192L119.09465984344482,54.94814275271227L119.7911198425293,58.436373884852685L120.48757984161377,60.24558097722195L121.18403984069825,55.852104506631406L121.88049983978271,50.75198823138652L122.57695983886718,52.73440497848378L123.27341983795166,52.56170451431353L123.96987983703613,54.5829788658491L124.66633983612061,48.03009949679665L125.36279983520508,55.66853070242587L126.05925983428955,54.951601005250325L126.75571983337403,47.22336131499793L127.4521798324585,57.552822185790035L128.14863983154297,52.460036132949426L128.84509983062745,50.429638783920836L129.54155982971193,53.42601305354788L130.23801982879638,53.474417980944L130.93447982788086,51.38044606915298L131.63093982696532,54.56848815122646L132.3273998260498,49.13949842449472L133.02385982513428,56.30225017595575L133.72031982421873,51.27798207754239L134.41677982330322,53.799674057843504L135.1132398223877,50.14401470543288L135.80969982147215,54.434783197270576L136.50615982055663,50.14915965169348L137.20261981964111,52.31367567200613L137.8990798187256,52.491043716289084L138.59553981781005,53.158157603898076L139.29199981689453,53.42691474516056L139.98845981597898,53.14780406255716L140.68491981506347,53.15234434503043L141.38137981414795,50.75618905348796L142.07783981323243,48.97653622974144L142.77429981231688,49.3073403620931L143.47075981140136,49.51343524034246L144.16721981048582,50.27224586089295L144.86367980957033,46.958380670372094L145.56013980865478,50.509104335339714L146.25659980773926,47.92670198916352L146.95305980682372,48.7725417625428L147.6495198059082,49.27196222646609L148.34597980499268,42.72310334119254L149.04243980407716,49.33153752172285L149.73889980316162,50.29757809114102L150.4353598022461,51.20777742939259L151.13181980133055,51.416768328939156L151.82827980041506,49.67252546522951L152.5247397994995,43.3414304084871L153.221199798584,48.626032787686825L153.91765979766845,47.18285944938356L154.61411979675293,48.26631087490961L155.3105797958374,42.95464713919279L156.0070397949219,48.00948788734439L156.70349979400635,47.7596980943581L157.3999597930908,47.23843547713466L158.09641979217528,45.07511817626005L158.79287979125976,46.82880228156131L159.48933979034425,46.96370595495523L160.1857997894287,49.66328577823367L160.88225978851318,46.92346929275635L161.57871978759763,46.117484288657636L162.27517978668214,49.53449239153275L162.9716397857666,45.88172906041933L163.66809978485108,45.850127421428965L164.36455978393553,45.33372333077739L165.06101978302001,41.06325881242998L165.7574797821045,43.44530528226812L166.45393978118898,42.36145074755052L167.15039978027343,39.461695386256565L167.8468597793579,46.06893084734884L168.54331977844237,41.875396535768175L169.23977977752688,47.86341384608983L169.93623977661133,47.058245668510835L170.6326997756958,41.8608315641892L171.32915977478027,42.15584384358567L172.02561977386475,43.513674722782696L172.72207977294923,39.498781431879365L173.4185397720337,43.1033732146023L174.11499977111816,44.09405648538825L174.81145977020262,43.03296701185673L175.5079197692871,43.32245245207429L176.20437976837158,42.19398009473383L176.90083976745606,46.12446444255346L177.59729976654052,43.6618067425415L178.293759765625,44.10372049784888L178.99021976470945,39.21088721215477L179.68667976379396,44.546143443714016L180.38313976287841,38.19442616938272L181.0795997619629,43.2240619849257L181.77605976104735,37.429208234313876L182.47251976013183,40.10481366883158L183.1689797592163,41.406007706615526L183.8654397583008,39.7174575601598L184.56189975738525,38.12176043353713L185.25835975646973,39.378166918512306L185.95481975555418,42.486870746806346L186.6512797546387,44.071142910289495L187.34773975372315,37.68467338039176L188.04419975280763,38.47139400838893L188.74065975189208,40.91279300261482L189.43711975097656,39.67300946772286L190.13357975006105,41.45426412009897L190.83003974914553,41.79473226491126L191.52649974822998,38.899114076899025L192.22295974731443,36.91786422482994L192.91941974639892,37.24156090564634L193.6158797454834,38.646714682304264L194.31233974456788,42.65987884693857L195.00879974365233,38.0524999095465L195.7052597427368,39.59813723946036L196.40171974182127,36.919731256875025L197.09817974090578,37.96213980181909L197.79463973999023,37.52024726278495L198.4910997390747,40.13413455844869L199.18755973815917,37.20549324113904L199.88401973724365,38.30220483743983L200.58047973632813,38.69938408062154L201.2769397354126,39.320044937972455L201.97339973449706,39.00918410246601L202.66985973358155,36.06004786520691L203.366319732666,37.70864776915249L204.0627797317505,37.00563594722212L204.75923973083496,39.332456457817614L205.45569972991944,35.498357639325434L206.1521597290039,38.048055100302804L206.84861972808838,37.84885551085631L207.54507972717286,37.89740895216511L208.24153972625734,38.80608071874343L208.9379997253418,41.151497292833426L209.63445972442625,38.068083262240975L210.33091972351073,39.59791446859134L211.0273797225952,40.359737799941854L211.7238397216797,40.7085969808204L212.42029972076415,39.91486437451755L213.11675971984863,41.440028000755206L213.81321971893308,41.62886344072416L214.5096797180176,45.1085868472955L215.20613971710205,43.8691003402289L215.90259971618653,45.25746143661769L216.59905971527098,46.01950753883722L217.29551971435546,47.61871595868104L217.99197971343995,46.903557820321L218.68843971252443,47.3424800811016L219.38489971160888,47.96685378626944L220.08135971069336,49.10319738098178L220.77781970977782,49.744575929151154L221.47427970886233,50.490020297560704L222.17073970794678,51.06322035167466L222.86719970703126,51.40925776821234L223.56365970611571,52.01278648492229L224.2601197052002,52.275168136076275L224.95657970428468,52.41919480696322L225.65303970336916,52.924831638945705L226.3494997024536,53.47178716306229L227.04595970153807,53.68865990811736L227.74241970062255,54.55203493132916L228.43887969970703,54.567204566695466L229.1353396987915,54.92501701488112L229.83179969787597,54.917548886700786L230.52825969696045,55.10232141034436L231.2247196960449,55.28431460219355L231.9211796951294,55.44189847168059L232.61763969421386,55.80664864121559L233.31409969329835,55.82940309426505L234.0105596923828,55.74901463496025L234.70701969146728,56.04209623349192L235.40347969055176,56.22082211926221L236.09993968963624,56.49319663511204L236.7963996887207,56.479607612102086L237.49285968780518,56.47517341099501L238.18931968688963,56.448674285718766L238.88577968597414,56.63495316476235L239.5822396850586,56.60399862210579L240.27869968414308,56.49583806113037L240.97515968322753,56.75913201203366L241.671619682312,56.5499289497547L242.3680796813965,56.465169938162546L243.06453968048098,56.56958582691118" fill="none"></path></g></g></g></g></g></g><g transform="translate(51, 177)" clip-path="url(#clip_1)"><clipPath id="clip_1"><rect width="278" height="22"></rect></clipPath><g><g><line x1="0" y1="0" x2="0" y2="5" style="visibility: inherit;" fill="rgb(0, 0, 0)" stroke="rgb(204, 204, 204)" stroke-width="1px"></line><line x1="34.82299995422363" y1="0" x2="34.82299995422363" y2="5" style="visibility: inherit;" fill="rgb(0, 0, 0)" stroke="rgb(204, 204, 204)" stroke-width="1px"></line><line x1="69.64599990844727" y1="0" x2="69.64599990844727" y2="5" style="visibility: inherit;" fill="rgb(0, 0, 0)" stroke="rgb(204, 204, 204)" stroke-width="1px"></line><line x1="104.4689998626709" y1="0" x2="104.4689998626709" y2="5" style="visibility: inherit;" fill="rgb(0, 0, 0)" stroke="rgb(204, 204, 204)" stroke-width="1px"></line><line x1="139.29199981689453" y1="0" x2="139.29199981689453" y2="5" style="visibility: inherit;" fill="rgb(0, 0, 0)" stroke="rgb(204, 204, 204)" stroke-width="1px"></line><line x1="174.11499977111816" y1="0" x2="174.11499977111816" y2="5" style="visibility: inherit;" fill="rgb(0, 0, 0)" stroke="rgb(204, 204, 204)" stroke-width="1px"></line><line x1="208.9379997253418" y1="0" x2="208.9379997253418" y2="5" style="visibility: inherit;" fill="rgb(0, 0, 0)" stroke="rgb(204, 204, 204)" stroke-width="1px"></line><line x1="243.76099967956543" y1="0" x2="243.76099967956543" y2="5" style="visibility: inherit;" fill="rgb(0, 0, 0)" stroke="rgb(204, 204, 204)" stroke-width="1px"></line><line x1="278.58399963378906" y1="0" x2="278.58399963378906" y2="5" style="visibility: inherit;" fill="rgb(0, 0, 0)" stroke="rgb(204, 204, 204)" stroke-width="1px"></line></g><g transform="translate(0, 8)"><text style="text-anchor: middle; visibility: hidden; font-family: &quot;Helvetica Neue&quot;, sans-serif; font-size: 12px; font-weight: 200;" x="0" y="0" dx="0em" dy="0.95em" fill="rgb(50, 49, 63)" stroke="none" stroke-width="1px">-50</text><text style="text-anchor: middle; visibility: inherit; font-family: &quot;Helvetica Neue&quot;, sans-serif; font-size: 12px; font-weight: 200;" x="34.82299995422363" y="0" dx="0em" dy="0.95em" fill="rgb(50, 49, 63)" stroke="none" stroke-width="1px">0</text><text style="text-anchor: middle; visibility: inherit; font-family: &quot;Helvetica Neue&quot;, sans-serif; font-size: 12px; font-weight: 200;" x="69.64599990844727" y="0" dx="0em" dy="0.95em" fill="rgb(50, 49, 63)" stroke="none" stroke-width="1px">50</text><text style="text-anchor: middle; visibility: inherit; font-family: &quot;Helvetica Neue&quot;, sans-serif; font-size: 12px; font-weight: 200;" x="104.4689998626709" y="0" dx="0em" dy="0.95em" fill="rgb(50, 49, 63)" stroke="none" stroke-width="1px">100</text><text style="text-anchor: middle; visibility: inherit; font-family: &quot;Helvetica Neue&quot;, sans-serif; font-size: 12px; font-weight: 200;" x="139.29199981689453" y="0" dx="0em" dy="0.95em" fill="rgb(50, 49, 63)" stroke="none" stroke-width="1px">150</text><text style="text-anchor: middle; visibility: inherit; font-family: &quot;Helvetica Neue&quot;, sans-serif; font-size: 12px; font-weight: 200;" x="174.11499977111816" y="0" dx="0em" dy="0.95em" fill="rgb(50, 49, 63)" stroke="none" stroke-width="1px">200</text><text style="text-anchor: middle; visibility: inherit; font-family: &quot;Helvetica Neue&quot;, sans-serif; font-size: 12px; font-weight: 200;" x="208.9379997253418" y="0" dx="0em" dy="0.95em" fill="rgb(50, 49, 63)" stroke="none" stroke-width="1px">250</text><text style="text-anchor: middle; visibility: inherit; font-family: &quot;Helvetica Neue&quot;, sans-serif; font-size: 12px; font-weight: 200;" x="243.76099967956543" y="0" dx="0em" dy="0.95em" fill="rgb(50, 49, 63)" stroke="none" stroke-width="1px">300</text><text style="text-anchor: middle; visibility: hidden; font-family: &quot;Helvetica Neue&quot;, sans-serif; font-size: 12px; font-weight: 200;" x="278.58399963378906" y="0" dx="0em" dy="0.95em" fill="rgb(50, 49, 63)" stroke="none" stroke-width="1px">350</text></g><line x1="0" y1="0" x2="278.58399963378906" y2="0" fill="rgb(0, 0, 0)" stroke="rgb(204, 204, 204)" stroke-width="1px"></line></g></g></g></g></svg>