<svg viewBox="0 0 330 200" xmlns="http://www.w3.org/2000/svg"><g><g><g><g><g><line x1="51.41600036621094" y1="177.9749994277954" x2="46.41600036621094" y2="177.9749994277954" style="visibility: inherit;" fill="rgb(0, 0, 0)" stroke="rgb(204, 204, 204)" stroke-width="1px"></line><line x1="51.41600036621094" y1="160.17749948501586" x2="46.41600036621094" y2="160.17749948501586" style="visibility: inherit;" fill="rgb(0, 0, 0)" stroke="rgb(204, 204, 204)" stroke-width="1px"></line><line x1="51.41600036621094" y1="142.37999954223633" x2="46.41600036621094" y2="142.37999954223633" style="visibility: inherit;" fill="rgb(0, 0, 0)" stroke="rgb(204, 204, 204)" stroke-width="1px"></line><line x1="51.41600036621094" y1="124.58249959945678" x2="46.41600036621094" y2="124.58249959945678" style="visibility: inherit;" fill="rgb(0, 0, 0)" stroke="rgb(204, 204, 204)" stroke-width="1px"></line><line x1="51.41600036621094" y1="106.78499965667724" x2="46.41600036621094" y2="106.78499965667724" style="visibility: inherit;" fill="rgb(0, 0, 0)" stroke="rgb(204, 204, 204)" stroke-width="1px"></line><line x1="51.41600036621094" y1="88.9874997138977" x2="46.41600036621094" y2="88.9874997138977" style="visibility: inherit;" fill="rgb(0, 0, 0)" stroke="rgb(204, 204, 204)" stroke-width="1px"></line><line x1="51.41600036621094" y1="71.18999977111817" x2="46.41600036621094" y2="71.18999977111817" style="visibility: inherit;" fill="rgb(0, 0, 0)" stroke="rgb(204, 204, 204)" stroke-width="1px"></line><line x1="51.41600036621094" y1="53.39249982833863" x2="46.41600036621094" y2="53.39249982833863" style="visibility: inherit;" fill="rgb(0, 0, 0)" stroke="rgb(204, 204, 204)" stroke-width="1px"></line><line x1="51.41600036621094" y1="35.594999885559105" x2="46.41600036621094" y2="35.594999885559105" style="visibility: inherit;" fill="rgb(0, 0, 0)" stroke="rgb(204, 204, 204)" stroke-width="1px"></line><line x1="51.41600036621094" y1="17.797499942779524" x2="46.41600036621094" y2="17.797499942779524" style="visibility: inherit;" fill="rgb(0, 0, 0)" stroke="rgb(204, 204, 204)" stroke-width="1px"></line><line x1="51.41600036621094" y1="0" x2="46.41600036621094" y2="0" style="visibility: inherit;" fill="rgb(0, 0, 0)" stroke="rgb(204, 204, 204)" stroke-width="1px"></line></g><g transform="translate(41.41600036621094, 0)"><text style="text-anchor: end; visibility: hidden; font-family: &quot;Helvetica Neue&quot;, sans-serif; font-size: 12px; font-weight: 200;" x="0" y="177.9749994277954" dx="0em" dy="0.3em" fill="rgb(50, 49, 63)" stroke="none" stroke-width="1px">-0.1</text><text style="text-anchor: end; visibility: inherit; font-family: &quot;Helvetica Neue&quot;, sans-serif; font-size: 12px; font-weight: 200;" x="0" y="160.17749948501586" dx="0em" dy="0.3em" fill="rgb(50, 49, 63)" stroke="none" stroke-width="1px">0</text><text style="text-anchor: end; visibility: hidden; font-family: &quot;Helvetica Neue&quot;, sans-serif; font-size: 12px; font-weight: 200;" x="0" y="142.37999954223633" dx="0em" dy="0.3em" fill="rgb(50, 49, 63)" stroke="none" stroke-width="1px">0.1</text><text style="text-anchor: end; visibility: inherit; font-family: &quot;Helvetica Neue&quot;, sans-serif; font-size: 12px; font-weight: 200;" x="0" y="124.58249959945678" dx="0em" dy="0.3em" fill="rgb(50, 49, 63)" stroke="none" stroke-width="1px">0.2</text><text style="text-anchor: end; visibility: hidden; font-family: &quot;Helvetica Neue&quot;, sans-serif; font-size: 12px; font-weight: 200;" x="0" y="106.78499965667724" dx="0em" dy="0.3em" fill="rgb(50, 49, 63)" stroke="none" stroke-width="1px">0.3</text><text style="text-anchor: end; visibility: inherit; font-family: &quot;Helvetica Neue&quot;, sans-serif; font-size: 12px; font-weight: 200;" x="0" y="88.9874997138977" dx="0em" dy="0.3em" fill="rgb(50, 49, 63)" stroke="none" stroke-width="1px">0.4</text><text style="text-anchor: end; visibility: hidden; font-family: &quot;Helvetica Neue&quot;, sans-serif; font-size: 12px; font-weight: 200;" x="0" y="71.18999977111817" dx="0em" dy="0.3em" fill="rgb(50, 49, 63)" stroke="none" stroke-width="1px">0.5</text><text style="text-anchor: end; visibility: inherit; font-family: &quot;Helvetica Neue&quot;, sans-serif; font-size: 12px; font-weight: 200;" x="0" y="53.39249982833863" dx="0em" dy="0.3em" fill="rgb(50, 49, 63)" stroke="none" stroke-width="1px">0.6</text><text style="text-anchor: end; visibility: hidden; font-family: &quot;Helvetica Neue&quot;, sans-serif; font-size: 12px; font-weight: 200;" x="0" y="35.594999885559105" dx="0em" dy="0.3em" fill="rgb(50, 49, 63)" stroke="none" stroke-width="1px">0.7</text><text style="text-anchor: end; visibility: inherit; font-family: &quot;Helvetica Neue&quot;, sans-serif; font-size: 12px; font-weight: 200;" x="0" y="17.797499942779524" dx="0em" dy="0.3em" fill="rgb(50, 49, 63)" stroke="none" stroke-width="1px">0.8</text><text style="text-anchor: end; visibility: hidden; font-family: &quot;Helvetica Neue&quot;, sans-serif; font-size: 12px; font-weight: 200;" x="0" y="0" dx="0em" dy="0.3em" fill="rgb(50, 49, 63)" stroke="none" stroke-width="1px">0.9</text></g><line x1="51.41600036621094" y1="0" x2="51.41600036621094" y2="177.9749994277954" fill="rgb(0, 0, 0)" stroke="rgb(204, 204, 204)" stroke-width="1px"></line></g></g><g transform="translate(51, 0)" clip-path="url(#clip_0)"><clipPath id="clip_0"><rect width="278" height="177"></rect></clipPath><g><g><g><line x1="0" y1="0" x2="0" y2="177.9749994277954" fill="rgb(0, 0, 0)" stroke="rgb(60, 60, 60)" stroke-width="1px" opacity="0.25"></line><line x1="27.858399963378908" y1="0" x2="27.858399963378908" y2="177.9749994277954" fill="rgb(0, 0, 0)" stroke="rgb(60, 60, 60)" stroke-width="1px" opacity="0.25"></line><line x1="55.716799926757815" y1="0" x2="55.716799926757815" y2="177.9749994277954" fill="rgb(0, 0, 0)" stroke="rgb(60, 60, 60)" stroke-width="1px" opacity="0.25"></line><line x1="83.57519989013672" y1="0" x2="83.57519989013672" y2="177.9749994277954" fill="rgb(0, 0, 0)" stroke="rgb(60, 60, 60)" stroke-width="1px" opacity="0.25"></line><line x1="111.43359985351563" y1="0" x2="111.43359985351563" y2="177.9749994277954" fill="rgb(0, 0, 0)" stroke="rgb(60, 60, 60)" stroke-width="1px" opacity="0.25"></line><line x1="139.29199981689453" y1="0" x2="139.29199981689453" y2="177.9749994277954" fill="rgb(0, 0, 0)" stroke="rgb(60, 60, 60)" stroke-width="1px" opacity="0.25"></line><line x1="167.15039978027343" y1="0" x2="167.15039978027343" y2="177.9749994277954" fill="rgb(0, 0, 0)" stroke="rgb(60, 60, 60)" stroke-width="1px" opacity="0.25"></line><line x1="195.00879974365233" y1="0" x2="195.00879974365233" y2="177.9749994277954" fill="rgb(0, 0, 0)" stroke="rgb(60, 60, 60)" stroke-width="1px" opacity="0.25"></line><line x1="222.86719970703126" y1="0" x2="222.86719970703126" y2="177.9749994277954" fill="rgb(0, 0, 0)" stroke="rgb(60, 60, 60)" stroke-width="1px" opacity="0.25"></line><line x1="250.72559967041016" y1="0" x2="250.72559967041016" y2="177.9749994277954" fill="rgb(0, 0, 0)" stroke="rgb(60, 60, 60)" stroke-width="1px" opacity="0.25"></line><line x1="278.58399963378906" y1="0" x2="278.58399963378906" y2="177.9749994277954" fill="rgb(0, 0, 0)" stroke="rgb(60, 60, 60)" stroke-width="1px" opacity="0.25"></line></g><g><line x1="0" y1="177.9749994277954" x2="278.58399963378906" y2="177.9749994277954" fill="rgb(0, 0, 0)" stroke="rgb(60, 60, 60)" stroke-width="1px" opacity="0.25"></line><line x1="0" y1="160.17749948501586" x2="278.58399963378906" y2="160.17749948501586" fill="rgb(0, 0, 0)" stroke="rgb(60, 60, 60)" stroke-width="1px" opacity="0.25"></line><line x1="0" y1="142.37999954223633" x2="278.58399963378906" y2="142.37999954223633" fill="rgb(0, 0, 0)" stroke="rgb(60, 60, 60)" stroke-width="1px" opacity="0.25"></line><line x1="0" y1="124.58249959945678" x2="278.58399963378906" y2="124.58249959945678" fill="rgb(0, 0, 0)" stroke="rgb(60, 60, 60)" stroke-width="1px" opacity="0.25"></line><line x1="0" y1="106.78499965667724" x2="278.58399963378906" y2="106.78499965667724" fill="rgb(0, 0, 0)" stroke="rgb(60, 60, 60)" stroke-width="1px" opacity="0.25"></line><line x1="0" y1="88.9874997138977" x2="278.58399963378906" y2="88.9874997138977" fill="rgb(0, 0, 0)" stroke="rgb(60, 60, 60)" stroke-width="1px" opacity="0.25"></line><line x1="0" y1="71.18999977111817" x2="278.58399963378906" y2="71.18999977111817" fill="rgb(0, 0, 0)" stroke="rgb(60, 60, 60)" stroke-width="1px" opacity="0.25"></line><line x1="0" y1="53.39249982833863" x2="278.58399963378906" y2="53.39249982833863" fill="rgb(0, 0, 0)" stroke="rgb(60, 60, 60)" stroke-width="1px" opacity="0.25"></line><line x1="0" y1="35.594999885559105" x2="278.58399963378906" y2="35.594999885559105" fill="rgb(0, 0, 0)" stroke="rgb(60, 60, 60)" stroke-width="1px" opacity="0.25"></line><line x1="0" y1="17.797499942779524" x2="278.58399963378906" y2="17.797499942779524" fill="rgb(0, 0, 0)" stroke="rgb(60, 60, 60)" stroke-width="1px" opacity="0.25"></line><line x1="0" y1="0" x2="278.58399963378906" y2="0" fill="rgb(0, 0, 0)" stroke="rgb(60, 60, 60)" stroke-width="1px" opacity="0.25"></line></g></g></g><g><g><line x1="0" y1="160.17749948501586" x2="278.58399963378906" y2="160.17749948501586" fill="rgb(0, 0, 0)" stroke="rgb(153, 153, 153)" stroke-width="1.5px"></line></g></g><g><g><line x1="27.858399963378908" y1="0" x2="27.858399963378908" y2="177.9749994277954" fill="rgb(0, 0, 0)" stroke="rgb(153, 153, 153)" stroke-width="1.5px"></line></g></g><g><g><g><g><g><path style="fill: none;" stroke="rgb(51, 187, 238)" stroke-width="2px" d="M27.858399963378908,158.39419000342608L28.41556796264648,158.09163252110665L28.97273596191406,156.728344087123L29.52990396118164,155.37573406866426L30.08707196044922,153.06561838970651L30.644239959716796,153.1118917446506L31.201407958984376,150.69855127178405L31.758575958251953,147.91858166318374L32.31574395751953,146.09967740792692L32.87291195678711,145.11013583784467L33.43007995605468,143.0598641448589L33.98724795532227,141.12705502264703L34.544415954589844,139.90970637068887L35.10158395385742,138.56777443625074L35.658751953125,136.4890265265262L36.21591995239258,133.9795789879185L36.77308795166016,132.38848314055468L37.330255950927736,130.32041364635504L37.88742395019531,127.85012074001098L38.4445919494629,126.20207245916963L39.001759948730474,124.40452370894552L39.55892794799804,121.94846957397938L40.11609594726562,120.16871862496913L40.6732639465332,119.26460570510316L41.23043194580078,116.91533572538603L41.78759994506836,114.01078283430577L42.344767944335935,112.83970820030022L42.90193594360351,111.26641015415025L43.459103942871096,108.81035601918411L44.01627194213867,107.00568920928812L44.57343994140625,105.04084484050155L45.130607940673826,102.84463170796896L45.68777593994141,100.726733144032L46.24494393920899,99.73007218826079L46.802111938476564,97.95031858721639L47.35927993774414,95.70071470307637L47.91644793701172,94.3659034803443L48.473615936279295,92.81040058337403L49.03078393554687,91.23710253722406L49.58795193481445,89.66736352091003L50.14511993408203,87.20063229643607L50.70228793334961,85.9263298849833L51.259455932617186,83.95436745652485L51.81662393188476,83.18551623466372L52.37379193115235,81.03557579406667L52.930959930419924,80.14570164557863L53.4881279296875,77.85694312917495L54.04529592895508,77.90677485094643L54.60246392822266,74.1052324037404L55.15963192749024,75.78175292326928L55.716799926757815,74.29744123115445L56.27396792602539,70.93371779852056L56.83113592529296,71.13304468560649L57.388303924560546,70.43538997266911L57.94547192382812,68.85852228854658L58.5026399230957,67.28878327223255L59.05980792236328,67.8547485771718L59.61697592163086,66.58756422539092L60.17414392089844,66.52349108020736L60.731311920166014,64.39846915253021L61.28847991943359,64.81849832199096L61.845647918701175,62.80025789752865L62.40281591796875,62.497703232995505L62.95998391723633,61.945974047400014L63.517151916503906,60.927964216681474L64.07431991577148,60.04520812786531L64.63148791503906,60.465226689189436L65.18865591430665,58.25833116308071L65.74582391357421,58.46123299220751L66.30299191284179,57.877467234020244L66.86015991210937,57.08013846940328L67.41732791137696,57.28659402429771L67.97449591064454,55.65989992247201L68.53166390991211,55.68125410148765L69.08883190917969,54.360678998099345L69.64599990844727,54.89105400467919L70.20316790771484,56.99827547910833L70.76033590698242,53.57047890129088L71.31750390625,54.14711599166965L71.87467190551757,54.4496706562028L72.43183990478516,54.9266443030386L72.98900790405274,52.31753066885376L73.54617590332032,53.221640936685574L74.1033439025879,52.59161309469938L74.66051190185547,51.91531256077765L75.21767990112305,50.480827286365994L75.77484790039063,50.4559087734461L76.3320158996582,50.0643624508095L76.8891838989258,51.224765299375534L77.44635189819337,50.922210634842386L78.00351989746095,50.72999119929172L78.56068789672851,50.6267634218445L79.11785589599609,49.530444326598655L79.67502389526366,48.55869657967904L80.23219189453124,49.39517997655966L80.78935989379882,49.87215362339546L81.3465278930664,49.03567022651484L81.90369589233399,48.437678957120426L82.46086389160156,48.28817848773767L83.01803189086914,47.91443261834908L83.57519989013672,47.223885356946965L84.13236788940429,48.078169207075604L84.68953588867187,47.2096492376032L85.24670388793945,47.82544096024563L85.80387188720702,47.060148768220444L86.36103988647461,45.78229263100005L86.91820788574219,47.020994135956784L87.47537588500977,46.15603850038863L88.03254388427735,47.36982149242547L88.58971188354492,47.24523953596261L89.1468798828125,46.33044687455467L89.70404788208008,47.27372238278676L90.26121588134765,45.60787364869739L90.81838388061524,45.44413705997087L91.37555187988282,46.8430214278865L91.9327198791504,45.857037561623116L92.48988787841797,44.90665460185576L93.04705587768555,44.988517592150714L93.60422387695313,44.055935085631376L94.1613918762207,44.7820726453929L94.71855987548828,46.554702882697114L95.27572787475587,45.3622634615393L95.83289587402344,44.604089329185996L96.39006387329101,44.07017120497514L96.94723187255859,44.0238985130396L97.50439987182617,43.39742439682104L98.06156787109374,43.87795176942447L98.61873587036132,43.60387995171547L99.1759038696289,43.51488829361202L99.73307186889647,43.17317899681521L100.29023986816406,44.03457029847911L100.84740786743164,44.4154448356762L101.40457586669922,43.9989800001197L101.9617438659668,43.20165123550274L102.51891186523437,42.51823264190912L103.07607986450195,42.97740583549691L103.63324786376953,43.308432738717585L104.1904158630371,42.04481272084095L104.7475838623047,42.55737666603616L105.30475186157227,42.212113643471724L105.86191986083985,45.68261857932046L106.41908786010742,42.293976633766675L106.976255859375,42.51823264190912L107.53342385864258,41.92734882404997L108.09059185791016,42.22634976281549L108.64775985717773,42.415004864461906L109.20492785644532,42.65705071771575L109.7620958557129,41.32935755465556L110.31926385498048,43.20521556940699L110.87643185424805,42.77451461450673L111.43359985351563,43.90998834201625L111.99076785278321,40.763392249716304L112.54793585205078,42.00210436280966L113.10510385131836,40.574737148069886L113.66227185058592,42.03413032726482L114.21943984985352,41.592757586925046L114.77660784912109,42.28330484832716L115.33377584838867,41.514448322397726L115.89094384765625,42.11600392569639L116.44811184692382,40.94848301745847L117.0052798461914,41.07307558205795L117.56244784545898,41.41833860462239L118.11961584472655,41.44325711754229L118.67678384399414,40.36472786740782L119.23395184326172,40.54626490938236L119.7911198425293,40.535582515806226L120.34828784179687,42.14804049828817L120.90545584106445,40.5925376013179L121.46262384033203,41.37206591268685L122.0197918395996,40.44303713193514L122.57695983886718,41.68530297079613L123.13412783813477,41.48241174980595L123.69129583740235,40.97696586428262L124.24846383666993,39.84859958830836L124.8056318359375,41.22968350297597L125.36279983520508,40.261500089960606L125.91996783447266,41.09086542716935L126.47713583374023,40.489309823870684L127.03430383300781,40.67084686584522L127.5914718322754,40.24726397061684L128.14863983154297,40.332691294816044L128.70580783081056,39.73113569151738L129.26297583007812,39.22568980599405L129.8201438293457,39.57808149636699L130.3773118286133,39.62435418830253L130.93447982788086,40.63525656748581L131.49164782714843,40.062173202874675L132.04881582641602,39.553162983447095L132.60598382568358,41.4859760837102L133.16315182495117,40.16183664641764L133.72031982421873,39.06195321726753L134.27748782348633,39.9197907931638L134.83465582275392,38.23970593973067L135.39182382202148,38.83414348335745L135.94899182128907,38.691761073646575L136.50615982055663,39.905554673820035L137.06332781982422,38.58141523652748L137.6204958190918,39.96962781900359L138.17766381835938,39.85216392221261L138.73483181762694,39.05838888336328L139.29199981689453,38.68464301397469L139.84916781616212,38.68464301397469L140.40633581542968,39.32535324953702L140.96350381469728,39.592317615710755L141.52067181396484,38.495987912328275L142.07783981323243,39.38942639472057L142.6350078125,39.8094449560447L143.19217581176758,38.969407833396446L143.74934381103515,38.577861510759845L144.30651181030274,39.33958936888078L144.86367980957033,39.204335626978406L145.4208478088379,39.086871730187426L145.97801580810548,38.805671244669924L146.53518380737304,38.44971522039273L147.09235180664064,38.15784294943572L147.6495198059082,37.57052346548082L148.2066878051758,37.7484961735511L148.76385580444338,39.165180994714746L149.32102380371094,38.47819806721688L149.87819180297853,38.09020547034791L150.4353598022461,39.044152764019515L150.9925278015137,39.30399907052137L151.54969580078125,38.8377078172617L152.10686380004884,38.535142544591935L152.6640317993164,38.67397122853518L153.221199798584,37.86240634457445L153.7783677978516,38.36428789619353L154.33553579711915,40.026572296378646L154.89270379638674,39.745371810861144L155.4498717956543,38.848379602701215L156.0070397949219,38.8554976623731L156.56420779418946,37.438823449346074L157.12137579345702,38.5565073317442L157.67854379272458,39.008562465660106L158.23571179199217,38.38920640911343L158.79287979125976,37.947833668773654L159.35004779052733,38.62056986879114L159.90721578979492,37.88019618968585L160.46438378906248,38.44971522039273L161.02155178833007,37.72714199453546L161.57871978759763,37.48864986704925L162.13588778686523,38.05105083808425L162.6930557861328,39.35027176245691L163.25022378540038,37.556287346137054L163.80739178466797,39.01568052533199L164.36455978393553,38.460397613968865L164.92172778320312,38.01189620582059L165.4788957824707,37.89087858326198L166.03606378173828,38.296661025242344L166.59323178100584,38.07596935100415L167.15039978027343,37.12202205733254L167.70756777954102,37.10423221222115L168.26473577880859,37.73069572030309L168.82190377807618,37.285758646059065L169.37907177734374,37.49933226062538L169.93623977661133,36.851503965391174L170.4934077758789,37.42458733000231L171.05057577514648,37.51356837996914L171.60774377441405,38.04393277841237L172.16491177368164,36.90845905090285L172.72207977294923,37.34627806547499L173.2792477722168,36.88354053798295L173.83641577148438,36.78387709443999L174.39358377075195,37.29287670573095L174.95075177001954,37.14694057025244L175.5079197692871,37.20033132185986L176.0650877685547,37.791215139719014L176.62225576782228,37.11846833156491L177.17942376708984,36.64504841049674L177.73659176635744,37.132704450908676L178.293759765625,36.306903447604185L178.8509277648926,36.51691272826625L179.40809576416015,36.388766437899136L179.96526376342774,37.01880488802195L180.5224317626953,36.32113956694795L181.0795997619629,37.41390493642618L181.6367677612305,35.641274699121965L182.19393576049805,37.164741023500454L182.75110375976564,36.97965025575829L183.3082717590332,37.54560495256092L183.8654397583008,37.43170538967419L184.42260775756836,35.80856501361612L184.97977575683595,36.29622105402805L185.53694375610354,36.075529379789856L186.0941117553711,35.84771964587978L186.6512797546387,36.08621177336599L187.20844775390626,36.04349280719808L187.76561575317385,35.85840203945591L188.3227837524414,36.22147612340498L188.879951751709,36.858622025063056L189.43711975097656,35.7124659039774L189.99428775024415,36.13960252497341L190.55145574951175,35.72670202332117L191.1086237487793,36.502676608922485L191.66579174804687,36.104012226614L192.22295974731443,37.1860952025161L192.78012774658202,35.79077516850472L193.3372957458496,35.81212934752037L193.89446374511718,34.88310056676866L194.45163174438474,35.54872931525088L195.00879974365233,35.47042005072356L195.56596774291992,35.3209195813408L196.1231357421875,35.06107327483895L196.68030374145508,34.89021862644054L197.23747174072264,34.98632834421588L197.79463973999023,34.57342784256363L198.3518077392578,34.740718157057785L198.90897573852538,35.7373844168973L199.46614373779295,34.98632834421588L200.02331173706054,33.81880743597796L200.58047973632813,34.84038160060075L201.1376477355957,33.605244429548264L201.69481573486328,35.42414735878802L202.25198373413085,34.19967136503843L202.80915173339844,33.93983566667319L203.366319732666,34.61258247482729L203.9234877319336,34.90801907968856L204.48065573120118,34.79767324256946L205.03782373046874,34.68020934577848L205.59499172973634,34.18543524569466L206.1521597290039,34.075089408575565L206.7093277282715,34.37409034734108L207.26649572753905,33.92915327309706L207.82366372680664,33.82948982955409L208.3808317260742,33.38455275531007L208.9379997253418,33.801006982729945L209.4951677246094,34.117808374743475L210.05233572387695,33.63015233433154L210.60950372314454,34.10712598116734L211.1666717224121,34.146280613431L211.7238397216797,32.978770313329704L212.28100772094726,33.38455275531007L212.83817572021485,34.235272271534456L213.3953437194824,33.18521526008752L213.95251171875,32.907579108474266L214.5096797180176,33.295561097206615L215.06684771728516,33.30624349078275L215.62401571655275,32.943169406833675L216.1811837158203,32.241950359992046L216.7383517150879,32.98944209876922L217.29551971435546,32.391450829374804L217.85268771362306,32.51959711974192L218.40985571289065,32.30245917127135L218.9670237121582,32.049741532578L219.5241917114258,32.42704112773421L220.08135971069336,31.97855032772256L220.63852770996095,32.17432348904086L221.19569570922852,32.57654159711697L221.7528637084961,31.740058200236348L222.31003170776367,31.565649826070313L222.86719970703126,31.82548552443555L223.42436770629885,32.14228691644908L223.98153570556642,32.476878153574006L224.538703704834,31.462422048623097L225.09587170410157,31.526495193806653L225.65303970336916,31.32003963891222L226.21020770263672,31.658195209941397L226.76737570190429,31.16342110985758L227.32454370117185,31.184775288873226L227.88171170043944,30.907139137259975L228.43887969970703,31.092229905002142L228.9960476989746,31.170539169529462L229.55321569824218,30.839512266308788L230.11038369750975,30.80391135981276L230.66755169677734,31.505130406654388L231.2247196960449,31.070875725986497L231.7818876953125,30.629492377510104L232.33905569458005,30.42304743075229L232.89622369384765,30.7647567275491L233.45339169311524,30.465755788783582L234.0105596923828,30.704247916269793L234.5677276916504,30.277111295273784L235.12489569091795,30.29846547428943L235.68206369018554,30.18100157749845L236.2392316894531,30.391010858160513L236.7963996887207,30.29490114038518L237.3535676879883,30.366092345240617L237.91073568725585,30.46220206301595L238.46790368652344,30.22727426943399L239.025071685791,30.035065442019942L239.5822396850586,29.86420018548492L240.13940768432616,29.849964066141155L240.69657568359375,30.348291891992602L241.2537436828613,30.391010858160513L241.8109116821289,30.052855287131337L242.3680796813965,29.935391390340357L242.92524768066406,30.052855287131337L243.48241567993165,29.78945525486185L244.0395836791992,30.124046491986775L244.5967516784668,30.18811963717033L245.15391967773436,30.045737227459455L245.71108767700196,30.010146929100046L246.26825567626955,29.963874237164504L246.8254236755371,29.736064503254426L247.3825916748047,29.94963811782074L247.93975967407226,29.878446912965302L248.49692767333985,29.896236758076697L249.05409567260742,29.82504555322126L249.611263671875,29.55809179518414L250.16843167114257,29.892683032309066" fill="none"></path></g><g><path style="fill: none;" stroke="rgb(0, 119, 187)" stroke-width="2px" d="M27.858399963378908,158.36215442534711L28.41556796264648,158.29096454650875L28.97273596191406,156.70698692456892L29.52990396118164,155.24759208785267L30.08707196044922,153.04070186581225L30.644239959716796,152.45338437088296L31.201407958984376,150.17530427000418L31.758575958251953,146.58021008459866L32.31574395751953,144.9962322969067L32.87291195678711,143.57243206810534L33.43007995605468,141.79268244511218L33.98724795532227,139.79936185958684L34.544415954589844,138.5001449132654L35.10158395385742,137.41449627744197L35.658751953125,135.278797260257L36.21591995239258,132.69815851679385L36.77308795166016,131.1497763315296L37.330255950927736,128.71151999777734L37.88742395019531,126.02409709906519L38.4445919494629,124.49351271501482L39.001759948730474,122.42900225065112L39.55892794799804,119.84836350718797L40.11609594726562,117.33891596858025L40.6732639465332,116.78719473908723L41.23043194580078,114.22435644887209L41.78759994506836,112.23103453732968L42.344767944335935,110.66485455085159L42.90193594360351,109.5080160361898L43.459103942871096,106.80279798829794L44.01627194213867,104.13317023876549L44.57343994140625,103.59924681048632L45.130607940673826,100.94741951420188L45.68777593994141,99.06088440994263L46.24494393920899,97.6192863799274L46.802111938476564,95.85733323213101L47.35927993774414,94.38013959968806L47.91644793701172,93.66824346333861L48.473615936279295,90.4824874347067L49.03078393554687,89.41464057814837L49.58795193481445,88.24000691430687L50.14511993408203,86.81620403347135L50.70228793334961,85.85513868012787L51.259455932617186,83.71943966294289L51.81662393188476,82.24224603049994L52.37379193115235,79.89297870281696L52.930959930419924,80.24892942302584L53.4881279296875,77.75727968563199L54.04529592895508,78.00644359855771L54.60246392822266,75.2122338925624L55.15963192749024,75.76395777408958L55.716799926757815,76.35127725804448L56.27396792602539,73.55706755204916L56.83113592529296,72.68498855274082L57.388303924560546,71.20779492029787L57.94547192382812,70.74506269687414L58.5026399230957,69.4636422257495L59.05980792236328,70.4780983307004L59.61697592163086,69.05429544986488L60.17414392089844,70.58487983391525L60.731311920166014,67.71948422713281L61.28847991943359,67.79067543198825L61.845647918701175,66.91860173674822L62.40281591796875,67.23895685452938L62.95998391723633,65.9041456317973L63.517151916503906,65.26343539623498L64.07431991577148,64.01760522346974L64.63148791503906,64.8896895268464L65.18865591430665,62.84297686369656L65.74582391357421,63.27011348469257L66.30299191284179,63.27011348469257L66.86015991210937,62.68279400073767L67.41732791137696,62.148865268390196L67.97449591064454,61.436974436109054L68.53166390991211,60.92084615700959L69.08883190917969,60.40471787791013L69.64599990844727,61.009827206976425L70.20316790771484,62.344638429708496L70.76033590698242,59.92417989717008L71.31750390625,60.974236908617016L71.87467190551757,60.49369892787696L72.43183990478516,60.51149938112498L72.98900790405274,59.88858959881067L73.54617590332032,60.7606632940507L74.1033439025879,59.283469661607754L74.66051190185547,58.624969580934035L75.21767990112305,57.841876935660835L75.77484790039063,57.9664588921237L76.3320158996582,57.82407648241282L76.8891838989258,58.660559879293444L77.44635189819337,58.32240430826427L78.00351989746095,59.26567981649636L78.56068789672851,58.464786717975144L79.11785589599609,57.39693986141681L79.67502389526366,57.50372136463166L80.23219189453124,57.610502867846506L80.78935989379882,57.55711211623908L81.3465278930664,56.48926525968075L81.90369589233399,57.290147750065344L82.46086389160156,56.64943751450302L83.01803189086914,56.16891014189959L83.57519989013672,56.34688284996987L84.13236788940429,56.471464806432735L84.68953588867187,56.0087272789407L85.24670388793945,56.45367496132134L85.80387188720702,56.044328185436726L86.36103988647461,56.06212863868474L86.91820788574219,55.332426745018964L87.47537588500977,55.51039945308925L88.03254388427735,56.54265601128817L88.58971188354492,55.47480915472984L89.1468798828125,55.136653583700664L89.70404788208008,55.38581749662639L90.26121588134765,54.58493500624179L90.81838388061524,53.97981506903888L91.37555187988282,54.92307996913435L91.9327198791504,53.94422477067947L92.48988787841797,53.42809649158001L93.04705587768555,54.69171650945664L93.60422387695313,53.962014615790864L94.1613918762207,54.76290771431208L94.71855987548828,56.311292551610464L95.27572787475587,55.136653583700664L95.83289587402344,54.638325757849216L96.39006387329101,54.353560938427464L96.94723187255859,52.53822234309196L97.50439987182617,53.19672242376568L98.06156787109374,53.25012378350972L98.61873587036132,53.39249558508398L99.1759038696289,53.890834019072045L99.73307186889647,53.71285070286514L100.29023986816406,54.53154425463437L100.84740786743164,53.37470573997258L101.40457586669922,54.122197478749754L101.9617438659668,53.143331672158254L102.51891186523437,52.78738625601768L103.07607986450195,54.10439702550174L103.63324786376953,53.463686789939416L104.1904158630371,52.8051867092657L104.7475838623047,52.66280429955482L105.30475186157227,52.07548481559992L105.86191986083985,54.76290771431208L106.41908786010742,52.57381264145137L106.976255859375,52.37803948013307L107.53342385864258,51.79071999617817L108.09059185791016,52.03989451724051L108.64775985717773,53.25012378350972L109.20492785644532,53.28571408186913L109.7620958557129,51.98649315749647L110.31926385498048,53.01874971569539L110.87643185424805,52.680604752802836L111.43359985351563,53.303514535117145L111.99076785278321,51.4347745800376L112.54793585205078,52.716195051162245L113.10510385131836,51.8263209026742L113.66227185058592,52.03989451724051L114.21943984985352,51.968703312385074L114.77660784912109,53.21452287701369L115.33377584838867,52.2178672253108L115.89094384765625,52.2178672253108L116.44811184692382,52.03989451724051L117.0052798461914,51.541556083252445L117.56244784545898,51.68393849296332L118.11961584472655,52.14667602045536L118.67678384399414,50.82965464283468L119.23395184326172,51.505965784893036L119.7911198425293,52.46703113823652L120.34828784179687,52.360249635021674L120.90545584106445,50.954247207434165L121.46262384033203,52.20006677206278L122.0197918395996,51.64834819460391L122.57695983886718,53.21452287701369L123.13412783813477,51.933102405889045L123.69129583740235,51.71953939945935L124.24846383666993,50.527099978301536L124.8056318359375,51.577156989748474L125.36279983520508,52.11107511395933L125.91996783447266,50.93644675418615L126.47713583374023,51.45257503328561L127.03430383300781,52.520421889843945L127.5914718322754,51.701738946211336L128.14863983154297,51.79071999617817L128.70580783081056,51.79071999617817L129.26297583007812,50.687282841260426L129.8201438293457,50.97203705254556L130.3773118286133,51.48816533164502L130.93447982788086,52.30684827527763L131.49164782714843,51.39918428167819L132.04881582641602,50.989837505793574L132.60598382568358,52.46703113823652L133.16315182495117,51.95090285913706L133.72031982421873,51.2390014187193L134.27748782348633,50.81186479772329L134.83465582275392,50.758474046115865L135.39182382202148,51.25680187196731L135.94899182128907,51.043228257401L136.50615982055663,51.2390014187193L137.06332781982422,50.883056002578726L137.6204958190918,51.47036487839701L138.17766381835938,50.8474550960827L138.73483181762694,50.633892089653L139.29199981689453,52.11107511395933L139.84916781616212,51.078829163897026L140.40633581542968,51.25680187196731L140.96350381469728,52.03989451724051L141.52067181396484,50.2423457670164L142.07783981323243,50.77626389122726L142.6350078125,51.29239217032672L143.19217581176758,50.81186479772329L143.74934381103515,50.099963357305526L144.30651181030274,52.05768436235191L144.86367980957033,51.185610667111874L145.4208478088379,51.078829163897026L145.97801580810548,50.687282841260426L146.53518380737304,50.61609163640499L147.09235180664064,50.135553655664935L147.6495198059082,50.50931013319014L148.2066878051758,50.4559087734461L148.76385580444338,51.150009760615845L149.32102380371094,50.366927723479265L149.87819180297853,50.74067359286785L150.4353598022461,51.64834819460391L150.9925278015137,50.598291183156974L151.54969580078125,51.48816533164502L152.10686380004884,51.078829163897026L152.6640317993164,51.61274728810788L153.221199798584,50.15335410891295L153.7783677978516,51.043228257401L154.33553579711915,51.84412135592221L154.89270379638674,51.114419462256436L155.4498717956543,50.66948238801241L156.0070397949219,51.13221991550445L156.56420779418946,49.957580947594664L157.12137579345702,51.27460232521533L157.67854379272458,50.758474046115865L158.23571179199217,51.20341112035989L158.79287979125976,50.08216290405751L159.35004779052733,51.22120096547128L159.90721578979492,50.90084584769012L160.46438378906248,50.366927723479265L161.02155178833007,49.85079944437982L161.57871978759763,49.494843420102626L162.13588778686523,50.883056002578726L162.6930557861328,50.97203705254556L163.25022378540038,50.687282841260426L163.80739178466797,51.4347745800376L164.36455978393553,51.47036487839701L164.92172778320312,50.31353697187184L165.4788957824707,50.38471756859066L166.03606378173828,50.61609163640499L166.59323178100584,50.598291183156974L167.15039978027343,49.26347996042492L167.70756777954102,49.975381400842664L168.26473577880859,50.402518021838674L168.82190377807618,50.6516819347644L169.37907177734374,49.690616581420926L169.93623977661133,49.79740869277239L170.4934077758789,49.957580947594664L171.05057577514648,50.135553655664935L171.60774377441405,51.00763795904159L172.16491177368164,49.15669845721007L172.72207977294923,50.491509679942126L173.2792477722168,50.0465726056981L173.83641577148438,49.79740869277239L174.39358377075195,50.34912727023125L174.95075177001954,51.345782921934145L175.5079197692871,50.74067359286785L176.0650877685547,50.81186479772329L176.62225576782228,50.58049072990896L177.17942376708984,49.957580947594664L177.73659176635744,50.47370922669411L178.293759765625,49.28128041367293L178.8509277648926,50.42031847508669L179.40809576416015,50.099963357305526L179.96526376342774,50.722873139619836L180.5224317626953,50.598291183156974L181.0795997619629,50.954247207434165L181.6367677612305,49.138898003962055L182.19393576049805,50.366927723479265L182.75110375976564,50.97203705254556L183.3082717590332,50.4559087734461L183.8654397583008,50.918646300938136L184.42260775756836,49.47705357499123L184.97977575683595,50.135553655664935L185.53694375610354,50.66948238801241L186.0941117553711,49.690616581420926L186.6512797546387,49.19228875556948L187.20844775390626,49.103297097466026L187.76561575317385,49.761807786276364L188.3227837524414,50.11776381055354L188.879951751709,49.761807786276364L189.43711975097656,49.58383507820608L189.99428775024415,50.366927723479265L190.55145574951175,49.60163553145409L191.1086237487793,49.93978049434665L191.66579174804687,50.0643624508095L192.22295974731443,51.078829163897026L192.78012774658202,50.633892089653L193.3372957458496,49.35247161852837L193.89446374511718,49.334671165280355L194.45163174438474,50.81186479772329L195.00879974365233,50.08216290405751L195.56596774291992,49.99318185409068L196.1231357421875,49.40586237013579L196.68030374145508,49.494843420102626L197.23747174072264,48.26682430872202L197.79463973999023,48.88973409103633L198.3518077392578,49.47705357499123L198.90897573852538,48.80074243293288L199.46614373779295,49.45925312174322L200.02331173706054,48.320215060329446L200.58047973632813,49.2456795071769L201.1376477355957,49.12109755071404L201.69481573486328,50.0465726056981L202.25198373413085,49.2456795071769L202.80915173339844,49.2456795071769L203.366319732666,49.299070258784326L203.9234877319336,49.957580947594664L204.48065573120118,49.65502628306152L205.03782373046874,49.174488302321464L205.59499172973634,49.85079944437982L206.1521597290039,49.138898003962055L206.7093277282715,49.15669845721007L207.26649572753905,48.72955122807744L207.82366372680664,48.30241460708143L208.3808317260742,49.06770679910662L208.9379997253418,48.658360023222L209.4951677246094,49.15669845721007L210.05233572387695,48.72955122807744L210.60950372314454,49.370261463639764L211.1666717224121,48.42699656354429L211.7238397216797,48.23122340222599L212.28100772094726,49.12109755071404L212.83817572021485,49.01431604749919L213.3953437194824,48.44479701679231L213.95251171875,49.103297097466026L214.5096797180176,48.40919611029628L215.06684771728516,49.26347996042492L215.62401571655275,48.24902385547401L216.1811837158203,48.28461415383342L216.7383517150879,48.64057017811061L217.29551971435546,47.87527798608542L217.85268771362306,47.67950482476712L218.40985571289065,48.160032197370555L218.9670237121582,47.821887234478L219.5241917114258,48.49818776839973L220.08135971069336,47.91086828444483L220.63852770996095,48.391406265184884L221.19569570922852,48.48038731515172L221.7528637084961,47.78628632798197L222.31003170776367,47.4303409118414L222.86719970703126,47.46593121020081L223.42436770629885,48.21342294897798L223.98153570556642,48.48038731515172L224.538703704834,47.98205948930027L225.09587170410157,47.804086781229984L225.65303970336916,47.6261140731597L226.21020770263672,48.05325069415571L226.76737570190429,47.59051316666367L227.32454370117185,46.8430214278865L227.88171170043944,47.09218534081222L228.43887969970703,47.768485874733955L228.9960476989746,47.94646919094086L229.55321569824218,47.305758955378536L230.11038369750975,47.32354880048993L230.66755169677734,48.07105114740372L231.2247196960449,47.55492286830426L231.7818876953125,47.145576092419645L232.33905569458005,47.59051316666367L232.89622369384765,47.05659504245281L233.45339169311524,47.6261140731597L234.0105596923828,47.71509512312653L234.5677276916504,47.19896684402707L235.12489569091795,47.0387945892048L235.68206369018554,47.39474000534537L236.2392316894531,47.020994135956784L236.7963996887207,47.501532116696836L237.3535676879883,47.66170437151911L237.91073568725585,47.09218534081222L238.46790368652344,47.07438488756421L239.025071685791,47.145576092419645L239.5822396850586,46.87861172624591L240.13940768432616,46.89641217949392L240.69657568359375,47.2345677505231L241.2537436828613,47.145576092419645L241.8109116821289,46.96760338434936L242.3680796813965,47.2345677505231L242.92524768066406,47.00319368270877L243.48241567993165,46.949802931101345L244.0395836791992,47.305758955378536L244.5967516784668,46.87861172624591L245.15391967773436,47.12777563917163L245.71108767700196,46.949802931101345L246.26825567626955,46.96760338434936L246.8254236755371,46.949802931101345L247.3825916748047,47.020994135956784L247.93975967407226,46.96760338434936L248.49692767333985,46.96760338434936L249.05409567260742,46.96760338434936L249.611263671875,46.985403837597374L250.16843167114257,46.985403837597374" fill="none"></path></g></g></g></g></g></g><g transform="translate(51, 177)" clip-path="url(#clip_1)"><clipPath id="clip_1"><rect width="278" height="22"></rect></clipPath><g><g><line x1="0" y1="0" x2="0" y2="5" style="visibility: inherit;" fill="rgb(0, 0, 0)" stroke="rgb(204, 204, 204)" stroke-width="1px"></line><line x1="27.858399963378908" y1="0" x2="27.858399963378908" y2="5" style="visibility: inherit;" fill="rgb(0, 0, 0)" stroke="rgb(204, 204, 204)" stroke-width="1px"></line><line x1="55.716799926757815" y1="0" x2="55.716799926757815" y2="5" style="visibility: inherit;" fill="rgb(0, 0, 0)" stroke="rgb(204, 204, 204)" stroke-width="1px"></line><line x1="83.57519989013672" y1="0" x2="83.57519989013672" y2="5" style="visibility: inherit;" fill="rgb(0, 0, 0)" stroke="rgb(204, 204, 204)" stroke-width="1px"></line><line x1="111.43359985351563" y1="0" x2="111.43359985351563" y2="5" style="visibility: inherit;" fill="rgb(0, 0, 0)" stroke="rgb(204, 204, 204)" stroke-width="1px"></line><line x1="139.29199981689453" y1="0" x2="139.29199981689453" y2="5" style="visibility: inherit;" fill="rgb(0, 0, 0)" stroke="rgb(204, 204, 204)" stroke-width="1px"></line><line x1="167.15039978027343" y1="0" x2="167.15039978027343" y2="5" style="visibility: inherit;" fill="rgb(0, 0, 0)" stroke="rgb(204, 204, 204)" stroke-width="1px"></line><line x1="195.00879974365233" y1="0" x2="195.00879974365233" y2="5" style="visibility: inherit;" fill="rgb(0, 0, 0)" stroke="rgb(204, 204, 204)" stroke-width="1px"></line><line x1="222.86719970703126" y1="0" x2="222.86719970703126" y2="5" style="visibility: inherit;" fill="rgb(0, 0, 0)" stroke="rgb(204, 204, 204)" stroke-width="1px"></line><line x1="250.72559967041016" y1="0" x2="250.72559967041016" y2="5" style="visibility: inherit;" fill="rgb(0, 0, 0)" stroke="rgb(204, 204, 204)" stroke-width="1px"></line><line x1="278.58399963378906" y1="0" x2="278.58399963378906" y2="5" style="visibility: inherit;" fill="rgb(0, 0, 0)" stroke="rgb(204, 204, 204)" stroke-width="1px"></line></g><g transform="translate(0, 8)"><text style="text-anchor: middle; visibility: hidden; font-family: &quot;Helvetica Neue&quot;, sans-serif; font-size: 12px; font-weight: 200;" x="0" y="0" dx="0em" dy="0.95em" fill="rgb(50, 49, 63)" stroke="none" stroke-width="1px">-50</text><text style="text-anchor: middle; visibility: inherit; font-family: &quot;Helvetica Neue&quot;, sans-serif; font-size: 12px; font-weight: 200;" x="27.858399963378908" y="0" dx="0em" dy="0.95em" fill="rgb(50, 49, 63)" stroke="none" stroke-width="1px">0</text><text style="text-anchor: middle; visibility: hidden; font-family: &quot;Helvetica Neue&quot;, sans-serif; font-size: 12px; font-weight: 200;" x="55.716799926757815" y="0" dx="0em" dy="0.95em" fill="rgb(50, 49, 63)" stroke="none" stroke-width="1px">50</text><text style="text-anchor: middle; visibility: inherit; font-family: &quot;Helvetica Neue&quot;, sans-serif; font-size: 12px; font-weight: 200;" x="83.57519989013672" y="0" dx="0em" dy="0.95em" fill="rgb(50, 49, 63)" stroke="none" stroke-width="1px">100</text><text style="text-anchor: middle; visibility: hidden; font-family: &quot;Helvetica Neue&quot;, sans-serif; font-size: 12px; font-weight: 200;" x="111.43359985351563" y="0" dx="0em" dy="0.95em" fill="rgb(50, 49, 63)" stroke="none" stroke-width="1px">150</text><text style="text-anchor: middle; visibility: inherit; font-family: &quot;Helvetica Neue&quot;, sans-serif; font-size: 12px; font-weight: 200;" x="139.29199981689453" y="0" dx="0em" dy="0.95em" fill="rgb(50, 49, 63)" stroke="none" stroke-width="1px">200</text><text style="text-anchor: middle; visibility: hidden; font-family: &quot;Helvetica Neue&quot;, sans-serif; font-size: 12px; font-weight: 200;" x="167.15039978027343" y="0" dx="0em" dy="0.95em" fill="rgb(50, 49, 63)" stroke="none" stroke-width="1px">250</text><text style="text-anchor: middle; visibility: inherit; font-family: &quot;Helvetica Neue&quot;, sans-serif; font-size: 12px; font-weight: 200;" x="195.00879974365233" y="0" dx="0em" dy="0.95em" fill="rgb(50, 49, 63)" stroke="none" stroke-width="1px">300</text><text style="text-anchor: middle; visibility: hidden; font-family: &quot;Helvetica Neue&quot;, sans-serif; font-size: 12px; font-weight: 200;" x="222.86719970703126" y="0" dx="0em" dy="0.95em" fill="rgb(50, 49, 63)" stroke="none" stroke-width="1px">350</text><text style="text-anchor: middle; visibility: inherit; font-family: &quot;Helvetica Neue&quot;, sans-serif; font-size: 12px; font-weight: 200;" x="250.72559967041016" y="0" dx="0em" dy="0.95em" fill="rgb(50, 49, 63)" stroke="none" stroke-width="1px">400</text><text style="text-anchor: middle; visibility: hidden; font-family: &quot;Helvetica Neue&quot;, sans-serif; font-size: 12px; font-weight: 200;" x="278.58399963378906" y="0" dx="0em" dy="0.95em" fill="rgb(50, 49, 63)" stroke="none" stroke-width="1px">450</text></g><line x1="0" y1="0" x2="278.58399963378906" y2="0" fill="rgb(0, 0, 0)" stroke="rgb(204, 204, 204)" stroke-width="1px"></line></g></g></g></g></svg>